<?xml version="1.0" encoding="UTF-8" standalone="no"?>
<!DOCTYPE svg PUBLIC "-//W3C//DTD SVG 1.1//EN"
 "http://www.w3.org/Graphics/SVG/1.1/DTD/svg11.dtd">
<!-- Generated by graphviz version 12.2.1 (20241206.2353)
 -->
<!-- Title: src/main/java/fr/softsf/sudokufx/config/database/AbstractDataSourceConfig.java Pages: 1 -->
<svg width="1668pt" height="120pt"
 viewBox="0.00 0.00 1667.50 120.00" xmlns="http://www.w3.org/2000/svg" xmlns:xlink="http://www.w3.org/1999/xlink">
<g id="graph0" class="graph" transform="scale(1 1) rotate(0) translate(4 116)">
<title>src/main/java/fr/softsf/sudokufx/config/database/AbstractDataSourceConfig.java</title>
<!-- Node1 -->
<g id="Node000001" class="node">
<title>Node1</title>
<g id="a_Node000001"><a xlink:title=" ">
<polygon fill="#999999" stroke="#666666" points="870.75,-112 713.75,-112 713.75,-68 870.75,-68 870.75,-112"/>
<text text-anchor="start" x="721.75" y="-98.5" font-family="Helvetica,sans-Serif" font-size="10.00">src/main/java/fr/softsf</text>
<text text-anchor="start" x="721.75" y="-86.5" font-family="Helvetica,sans-Serif" font-size="10.00">/sudokufx/config/database</text>
<text text-anchor="middle" x="792.25" y="-74.5" font-family="Helvetica,sans-Serif" font-size="10.00">/AbstractDataSourceConfig.java</text>
</a>
</g>
</g>
<!-- Node2 -->
<g id="Node000002" class="node">
<title>Node2</title>
<g id="a_Node000002"><a xlink:title=" ">
<polygon fill="#e0e0e0" stroke="#999999" points="86.5,-26 0,-26 0,-6 86.5,-6 86.5,-26"/>
<text text-anchor="middle" x="43.25" y="-12.5" font-family="Helvetica,sans-Serif" font-size="10.00">java.util.Objects</text>
</a>
</g>
</g>
<!-- Node1&#45;&gt;Node2 -->
<g id="edge1_Node000001_Node000002" class="edge">
<title>Node1&#45;&gt;Node2</title>
<g id="a_edge1_Node000001_Node000002"><a xlink:title=" ">
<path fill="none" stroke="#63b8ff" d="M713.45,-87.65C583.59,-84.3 316.93,-72.62 95.25,-32 91.22,-31.26 87.06,-30.34 82.93,-29.32"/>
<polygon fill="#63b8ff" stroke="#63b8ff" points="84.19,-26.03 73.62,-26.84 82.38,-32.8 84.19,-26.03"/>
</a>
</g>
</g>
<!-- Node3 -->
<g id="Node000003" class="node">
<title>Node3</title>
<g id="a_Node000003"><a xlink:title=" ">
<polygon fill="#e0e0e0" stroke="#999999" points="214.12,-26 104.38,-26 104.38,-6 214.12,-6 214.12,-26"/>
<text text-anchor="middle" x="159.25" y="-12.5" font-family="Helvetica,sans-Serif" font-size="10.00">javax.sql.DataSource</text>
</a>
</g>
</g>
<!-- Node1&#45;&gt;Node3 -->
<g id="edge2_Node000001_Node000003" class="edge">
<title>Node1&#45;&gt;Node3</title>
<g id="a_edge2_Node000001_Node000003"><a xlink:title=" ">
<path fill="none" stroke="#63b8ff" d="M713.59,-84.37C603.4,-77.16 397.08,-60.95 223.25,-32 217.97,-31.12 212.48,-30.06 207.02,-28.91"/>
<polygon fill="#63b8ff" stroke="#63b8ff" points="207.97,-25.54 197.45,-26.8 206.46,-32.37 207.97,-25.54"/>
</a>
</g>
</g>
<!-- Node4 -->
<g id="Node000004" class="node">
<title>Node4</title>
<g id="a_Node000004"><a xlink:title=" ">
<polygon fill="#e0e0e0" stroke="#999999" points="360.12,-26 232.38,-26 232.38,-6 360.12,-6 360.12,-26"/>
<text text-anchor="middle" x="296.25" y="-12.5" font-family="Helvetica,sans-Serif" font-size="10.00">org.flywaydb.core.Flyway</text>
</a>
</g>
</g>
<!-- Node1&#45;&gt;Node4 -->
<g id="edge3_Node000001_Node000004" class="edge">
<title>Node1&#45;&gt;Node4</title>
<g id="a_edge3_Node000001_Node000004"><a xlink:title=" ">
<path fill="none" stroke="#63b8ff" d="M713.26,-80C628.11,-69.92 488.69,-52.29 369.25,-32 363.27,-30.98 357.03,-29.84 350.83,-28.64"/>
<polygon fill="#63b8ff" stroke="#63b8ff" points="351.75,-25.26 341.26,-26.75 350.39,-32.12 351.75,-25.26"/>
</a>
</g>
</g>
<!-- Node5 -->
<g id="Node000005" class="node">
<title>Node5</title>
<g id="a_Node000005"><a xlink:title=" ">
<polygon fill="#e0e0e0" stroke="#999999" points="591.88,-26 378.62,-26 378.62,-6 591.88,-6 591.88,-26"/>
<text text-anchor="middle" x="485.25" y="-12.5" font-family="Helvetica,sans-Serif" font-size="10.00">org.springframework.context.annotation.Bean</text>
</a>
</g>
</g>
<!-- Node1&#45;&gt;Node5 -->
<g id="edge4_Node000001_Node000005" class="edge">
<title>Node1&#45;&gt;Node5</title>
<g id="a_edge4_Node000001_Node000005"><a xlink:title=" ">
<path fill="none" stroke="#63b8ff" d="M713.59,-70.55C658,-57.51 585.07,-40.41 536.76,-29.08"/>
<polygon fill="#63b8ff" stroke="#63b8ff" points="537.64,-25.69 527.11,-26.82 536.05,-32.51 537.64,-25.69"/>
</a>
</g>
</g>
<!-- Node6 -->
<g id="Node000006" class="node">
<title>Node6</title>
<g id="a_Node000006"><a xlink:title=" ">
<polygon fill="#e0e0e0" stroke="#999999" points="800.62,-32 609.88,-32 609.88,0 800.62,0 800.62,-32"/>
<text text-anchor="start" x="617.88" y="-18.5" font-family="Helvetica,sans-Serif" font-size="10.00">org.springframework.context.annotation.</text>
<text text-anchor="middle" x="705.25" y="-6.5" font-family="Helvetica,sans-Serif" font-size="10.00">DependsOn</text>
</a>
</g>
</g>
<!-- Node1&#45;&gt;Node6 -->
<g id="edge5_Node000001_Node000006" class="edge">
<title>Node1&#45;&gt;Node6</title>
<g id="a_edge5_Node000001_Node000006"><a xlink:title=" ">
<path fill="none" stroke="#63b8ff" d="M766.62,-67.79C755.89,-58.91 743.4,-48.58 732.51,-39.56"/>
<polygon fill="#63b8ff" stroke="#63b8ff" points="734.9,-37 724.97,-33.32 730.44,-42.39 734.9,-37"/>
</a>
</g>
</g>
<!-- Node7 -->
<g id="Node000007" class="node">
<title>Node7</title>
<g id="a_Node000007"><a xlink:title=" ">
<polygon fill="#e0e0e0" stroke="#999999" points="940.12,-32 818.38,-32 818.38,0 940.12,0 940.12,-32"/>
<text text-anchor="start" x="826.38" y="-18.5" font-family="Helvetica,sans-Serif" font-size="10.00">com.zaxxer.hikari.Hikari</text>
<text text-anchor="middle" x="879.25" y="-6.5" font-family="Helvetica,sans-Serif" font-size="10.00">Config</text>
</a>
</g>
</g>
<!-- Node1&#45;&gt;Node7 -->
<g id="edge6_Node000001_Node000007" class="edge">
<title>Node1&#45;&gt;Node7</title>
<g id="a_edge6_Node000001_Node000007"><a xlink:title=" ">
<path fill="none" stroke="#63b8ff" d="M817.88,-67.79C828.61,-58.91 841.1,-48.58 851.99,-39.56"/>
<polygon fill="#63b8ff" stroke="#63b8ff" points="854.06,-42.39 859.53,-33.32 849.6,-37 854.06,-42.39"/>
</a>
</g>
</g>
<!-- Node8 -->
<g id="Node000008" class="node">
<title>Node8</title>
<g id="a_Node000008"><a xlink:title=" ">
<polygon fill="#e0e0e0" stroke="#999999" points="1080.12,-32 958.38,-32 958.38,0 1080.12,0 1080.12,-32"/>
<text text-anchor="start" x="966.38" y="-18.5" font-family="Helvetica,sans-Serif" font-size="10.00">com.zaxxer.hikari.Hikari</text>
<text text-anchor="middle" x="1019.25" y="-6.5" font-family="Helvetica,sans-Serif" font-size="10.00">DataSource</text>
</a>
</g>
</g>
<!-- Node1&#45;&gt;Node8 -->
<g id="edge7_Node000001_Node000008" class="edge">
<title>Node1&#45;&gt;Node8</title>
<g id="a_edge7_Node000001_Node000008"><a xlink:title=" ">
<path fill="none" stroke="#63b8ff" d="M859.74,-67.59C891.4,-57.55 928.81,-45.69 959.44,-35.97"/>
<polygon fill="#63b8ff" stroke="#63b8ff" points="960.48,-39.31 968.95,-32.95 958.36,-32.64 960.48,-39.31"/>
</a>
</g>
</g>
<!-- Node9 -->
<g id="Node000009" class="node">
<title>Node9</title>
<g id="a_Node000009"><a xlink:title=" ">
<polygon fill="#e0e0e0" stroke="#999999" points="1278.75,-32 1097.75,-32 1097.75,0 1278.75,0 1278.75,-32"/>
<text text-anchor="start" x="1105.75" y="-18.5" font-family="Helvetica,sans-Serif" font-size="10.00">fr.softsf.sudokufx.common.exception.</text>
<text text-anchor="middle" x="1188.25" y="-6.5" font-family="Helvetica,sans-Serif" font-size="10.00">ExceptionTools</text>
</a>
</g>
</g>
<!-- Node1&#45;&gt;Node9 -->
<g id="edge8_Node000001_Node000009" class="edge">
<title>Node1&#45;&gt;Node9</title>
<g id="a_edge8_Node000001_Node000009"><a xlink:title=" ">
<path fill="none" stroke="#63b8ff" d="M870.96,-74.69C934.53,-63.13 1024.24,-46.82 1092.06,-34.49"/>
<polygon fill="#63b8ff" stroke="#63b8ff" points="1092.48,-37.97 1101.69,-32.74 1091.22,-31.08 1092.48,-37.97"/>
</a>
</g>
</g>
<!-- Node10 -->
<g id="Node000010" class="node">
<title>Node10</title>
<g id="a_Node000010"><a xlink:title=" ">
<polygon fill="#e0e0e0" stroke="#999999" points="1435.38,-32 1297.12,-32 1297.12,0 1435.38,0 1435.38,-32"/>
<text text-anchor="start" x="1305.12" y="-18.5" font-family="Helvetica,sans-Serif" font-size="10.00">fr.softsf.sudokufx.config.os.</text>
<text text-anchor="middle" x="1366.25" y="-6.5" font-family="Helvetica,sans-Serif" font-size="10.00">IOsFolder</text>
</a>
</g>
</g>
<!-- Node1&#45;&gt;Node10 -->
<g id="edge9_Node000001_Node000010" class="edge">
<title>Node1&#45;&gt;Node10</title>
<g id="a_edge9_Node000001_Node000010"><a xlink:title=" ">
<path fill="none" stroke="#63b8ff" d="M871.1,-81.79C966.85,-72.63 1133.49,-55.34 1286.02,-32.27"/>
<polygon fill="#63b8ff" stroke="#63b8ff" points="1286.12,-35.8 1295.48,-30.83 1285.06,-28.88 1286.12,-35.8"/>
</a>
</g>
</g>
<!-- Node11 -->
<g id="Node000011" class="node">
<title>Node11</title>
<g id="a_Node000011"><a xlink:title=" ">
<polygon fill="#e0e0e0" stroke="#999999" points="1659.5,-32 1453,-32 1453,0 1659.5,0 1659.5,-32"/>
<text text-anchor="start" x="1461" y="-18.5" font-family="Helvetica,sans-Serif" font-size="10.00">fr.softsf.sudokufx.common.enums.</text>
<text text-anchor="middle" x="1556.25" y="-6.5" font-family="Helvetica,sans-Serif" font-size="10.00">AppPaths.DATABASE_MIGRATION_PATH</text>
</a>
</g>
</g>
<!-- Node1&#45;&gt;Node11 -->
<g id="edge10_Node000001_Node000011" class="edge">
<title>Node1&#45;&gt;Node11</title>
<g id="a_edge10_Node000001_Node000011"><a xlink:title=" ">
<path fill="none" stroke="#63b8ff" d="M871.15,-83.28C991.72,-74.27 1229.32,-55.51 1441.19,-32.31"/>
<polygon fill="#63b8ff" stroke="#63b8ff" points="1441.48,-35.8 1451.03,-31.23 1440.71,-28.84 1441.48,-35.8"/>
</a>
</g>
</g>
</g>
</svg>
