<?xml version="1.0" encoding="UTF-8" standalone="no"?>
<!DOCTYPE svg PUBLIC "-//W3C//DTD SVG 1.1//EN"
 "http://www.w3.org/Graphics/SVG/1.1/DTD/svg11.dtd">
<!-- Generated by graphviz version 12.2.1 (20241206.2353)
 -->
<!-- Title: src/test/java/fr/softsf/sudokufx/viewmodel/state/AbstractPlayerStateTest.java Pages: 1 -->
<svg width="1281pt" height="120pt"
 viewBox="0.00 0.00 1281.00 120.00" xmlns="http://www.w3.org/2000/svg" xmlns:xlink="http://www.w3.org/1999/xlink">
<g id="graph0" class="graph" transform="scale(1 1) rotate(0) translate(4 116)">
<title>src/test/java/fr/softsf/sudokufx/viewmodel/state/AbstractPlayerStateTest.java</title>
<!-- Node1 -->
<g id="Node000001" class="node">
<title>Node1</title>
<g id="a_Node000001"><a xlink:title=" ">
<polygon fill="#999999" stroke="#666666" points="624.62,-112 478.12,-112 478.12,-68 624.62,-68 624.62,-112"/>
<text text-anchor="start" x="486.12" y="-98.5" font-family="Helvetica,sans-Serif" font-size="10.00">src/test/java/fr/softsf</text>
<text text-anchor="start" x="486.12" y="-86.5" font-family="Helvetica,sans-Serif" font-size="10.00">/sudokufx/viewmodel/state</text>
<text text-anchor="middle" x="551.38" y="-74.5" font-family="Helvetica,sans-Serif" font-size="10.00">/AbstractPlayerStateTest.java</text>
</a>
</g>
</g>
<!-- Node2 -->
<g id="Node000002" class="node">
<title>Node2</title>
<g id="a_Node000002"><a xlink:title=" ">
<polygon fill="#e0e0e0" stroke="#999999" points="124.75,-26 0,-26 0,-6 124.75,-6 124.75,-26"/>
<text text-anchor="middle" x="62.38" y="-12.5" font-family="Helvetica,sans-Serif" font-size="10.00">java.time.LocalDateTime</text>
</a>
</g>
</g>
<!-- Node1&#45;&gt;Node2 -->
<g id="edge1_Node000001_Node000002" class="edge">
<title>Node1&#45;&gt;Node2</title>
<g id="a_edge1_Node000001_Node000002"><a xlink:title=" ">
<path fill="none" stroke="#63b8ff" d="M477.88,-80.62C394.2,-70.69 253.52,-52.86 133.38,-32 127.7,-31.02 121.79,-29.9 115.91,-28.74"/>
<polygon fill="#63b8ff" stroke="#63b8ff" points="116.68,-25.33 106.19,-26.77 115.29,-32.19 116.68,-25.33"/>
</a>
</g>
</g>
<!-- Node3 -->
<g id="Node000003" class="node">
<title>Node3</title>
<g id="a_Node000003"><a xlink:title=" ">
<polygon fill="#e0e0e0" stroke="#999999" points="228.25,-26 142.5,-26 142.5,-6 228.25,-6 228.25,-26"/>
<text text-anchor="middle" x="185.38" y="-12.5" font-family="Helvetica,sans-Serif" font-size="10.00">java.time.Month</text>
</a>
</g>
</g>
<!-- Node1&#45;&gt;Node3 -->
<g id="edge2_Node000001_Node000003" class="edge">
<title>Node1&#45;&gt;Node3</title>
<g id="a_edge2_Node000001_Node000003"><a xlink:title=" ">
<path fill="none" stroke="#63b8ff" d="M477.66,-77.78C413.75,-67.54 318.96,-51.12 237.38,-32 234.05,-31.22 230.62,-30.36 227.19,-29.46"/>
<polygon fill="#63b8ff" stroke="#63b8ff" points="228.34,-26.15 217.77,-26.88 226.49,-32.9 228.34,-26.15"/>
</a>
</g>
</g>
<!-- Node4 -->
<g id="Node000004" class="node">
<title>Node4</title>
<g id="a_Node000004"><a xlink:title=" ">
<polygon fill="#e0e0e0" stroke="#999999" points="334.75,-26 246,-26 246,-6 334.75,-6 334.75,-26"/>
<text text-anchor="middle" x="290.38" y="-12.5" font-family="Helvetica,sans-Serif" font-size="10.00">java.time.ZoneId</text>
</a>
</g>
</g>
<!-- Node1&#45;&gt;Node4 -->
<g id="edge3_Node000001_Node000004" class="edge">
<title>Node1&#45;&gt;Node4</title>
<g id="a_edge3_Node000001_Node000004"><a xlink:title=" ">
<path fill="none" stroke="#63b8ff" d="M478.08,-68.86C438.48,-57.97 388.74,-44.27 344.38,-32 341.44,-31.19 338.42,-30.35 335.38,-29.51"/>
<polygon fill="#63b8ff" stroke="#63b8ff" points="336.39,-26.16 325.82,-26.86 334.52,-32.9 336.39,-26.16"/>
</a>
</g>
</g>
<!-- Node5 -->
<g id="Node000005" class="node">
<title>Node5</title>
<g id="a_Node000005"><a xlink:title=" ">
<polygon fill="#e0e0e0" stroke="#999999" points="455.5,-26 353.25,-26 353.25,-6 455.5,-6 455.5,-26"/>
<text text-anchor="middle" x="404.38" y="-12.5" font-family="Helvetica,sans-Serif" font-size="10.00">org.junit.jupiter.api.*</text>
</a>
</g>
</g>
<!-- Node1&#45;&gt;Node5 -->
<g id="edge4_Node000001_Node000005" class="edge">
<title>Node1&#45;&gt;Node5</title>
<g id="a_edge4_Node000001_Node000005"><a xlink:title=" ">
<path fill="none" stroke="#63b8ff" d="M507.67,-67.59C483.89,-55.94 455.09,-41.84 433.95,-31.49"/>
<polygon fill="#63b8ff" stroke="#63b8ff" points="435.54,-28.37 425.02,-27.11 432.47,-34.66 435.54,-28.37"/>
</a>
</g>
</g>
<!-- Node6 -->
<g id="Node000006" class="node">
<title>Node6</title>
<g id="a_Node000006"><a xlink:title=" ">
<polygon fill="#e0e0e0" stroke="#999999" points="629.5,-26 473.25,-26 473.25,-6 629.5,-6 629.5,-26"/>
<text text-anchor="middle" x="551.38" y="-12.5" font-family="Helvetica,sans-Serif" font-size="10.00">org.mockito.MockitoAnnotations</text>
</a>
</g>
</g>
<!-- Node1&#45;&gt;Node6 -->
<g id="edge5_Node000001_Node000006" class="edge">
<title>Node1&#45;&gt;Node6</title>
<g id="a_edge5_Node000001_Node000006"><a xlink:title=" ">
<path fill="none" stroke="#63b8ff" d="M551.38,-67.79C551.38,-58.32 551.38,-47.2 551.38,-37.78"/>
<polygon fill="#63b8ff" stroke="#63b8ff" points="554.88,-37.82 551.38,-27.82 547.88,-37.82 554.88,-37.82"/>
</a>
</g>
</g>
<!-- Node7 -->
<g id="Node000007" class="node">
<title>Node7</title>
<g id="a_Node000007"><a xlink:title=" ">
<polygon fill="#e0e0e0" stroke="#999999" points="763.25,-26 647.5,-26 647.5,-6 763.25,-6 763.25,-26"/>
<text text-anchor="middle" x="705.38" y="-12.5" font-family="Helvetica,sans-Serif" font-size="10.00">fr.softsf.sudokufx.dto.*</text>
</a>
</g>
</g>
<!-- Node1&#45;&gt;Node7 -->
<g id="edge6_Node000001_Node000007" class="edge">
<title>Node1&#45;&gt;Node7</title>
<g id="a_edge6_Node000001_Node000007"><a xlink:title=" ">
<path fill="none" stroke="#63b8ff" d="M597.16,-67.59C622.31,-55.84 652.8,-41.58 674.99,-31.2"/>
<polygon fill="#63b8ff" stroke="#63b8ff" points="676.22,-34.49 683.8,-27.09 673.25,-28.15 676.22,-34.49"/>
</a>
</g>
</g>
<!-- Node8 -->
<g id="Node000008" class="node">
<title>Node8</title>
<g id="a_Node000008"><a xlink:title=" ">
<polygon fill="#e0e0e0" stroke="#999999" points="953.38,-32 781.38,-32 781.38,0 953.38,0 953.38,-32"/>
<text text-anchor="start" x="789.38" y="-18.5" font-family="Helvetica,sans-Serif" font-size="10.00">fr.softsf.sudokufx.service.business.</text>
<text text-anchor="middle" x="867.38" y="-6.5" font-family="Helvetica,sans-Serif" font-size="10.00">GameLevelService</text>
</a>
</g>
</g>
<!-- Node1&#45;&gt;Node8 -->
<g id="edge7_Node000001_Node000008" class="edge">
<title>Node1&#45;&gt;Node8</title>
<g id="a_edge7_Node000001_Node000008"><a xlink:title=" ">
<path fill="none" stroke="#63b8ff" d="M625.06,-72.21C674.06,-61.05 738.36,-46.39 788.41,-34.99"/>
<polygon fill="#63b8ff" stroke="#63b8ff" points="789.06,-38.43 798.04,-32.8 787.51,-31.61 789.06,-38.43"/>
</a>
</g>
</g>
<!-- Node9 -->
<g id="Node000009" class="node">
<title>Node9</title>
<g id="a_Node000009"><a xlink:title=" ">
<polygon fill="#e0e0e0" stroke="#999999" points="1143.38,-32 971.38,-32 971.38,0 1143.38,0 1143.38,-32"/>
<text text-anchor="start" x="979.38" y="-18.5" font-family="Helvetica,sans-Serif" font-size="10.00">fr.softsf.sudokufx.service.business.</text>
<text text-anchor="middle" x="1057.38" y="-6.5" font-family="Helvetica,sans-Serif" font-size="10.00">PlayerService</text>
</a>
</g>
</g>
<!-- Node1&#45;&gt;Node9 -->
<g id="edge8_Node000001_Node000009" class="edge">
<title>Node1&#45;&gt;Node9</title>
<g id="a_edge8_Node000001_Node000009"><a xlink:title=" ">
<path fill="none" stroke="#63b8ff" d="M624.94,-79.22C704.81,-68.51 836.45,-50.58 959.78,-32.37"/>
<polygon fill="#63b8ff" stroke="#63b8ff" points="960.04,-35.87 969.42,-30.94 959.02,-28.95 960.04,-35.87"/>
</a>
</g>
</g>
<!-- Node10 -->
<g id="Node000010" class="node">
<title>Node10</title>
<g id="a_Node000010"><a xlink:title=" ">
<polygon fill="#e0e0e0" stroke="#999999" points="1273,-26 1161.75,-26 1161.75,-6 1273,-6 1273,-26"/>
<text text-anchor="middle" x="1217.38" y="-12.5" font-family="Helvetica,sans-Serif" font-size="10.00">org.mockito.Mockito.*</text>
</a>
</g>
</g>
<!-- Node1&#45;&gt;Node10 -->
<g id="edge9_Node000001_Node000010" class="edge">
<title>Node1&#45;&gt;Node10</title>
<g id="a_edge9_Node000001_Node000010"><a xlink:title=" ">
<path fill="none" stroke="#63b8ff" d="M624.86,-85.17C738.52,-78.54 963.56,-62.6 1152.38,-32 1157.74,-31.13 1163.32,-30.08 1168.85,-28.93"/>
<polygon fill="#63b8ff" stroke="#63b8ff" points="1169.57,-32.36 1178.6,-26.82 1168.08,-25.52 1169.57,-32.36"/>
</a>
</g>
</g>
</g>
</svg>
