<?xml version="1.0" encoding="UTF-8" standalone="no"?>
<!DOCTYPE svg PUBLIC "-//W3C//DTD SVG 1.1//EN"
 "http://www.w3.org/Graphics/SVG/1.1/DTD/svg11.dtd">
<!-- Generated by graphviz version 12.2.1 (20241206.2353)
 -->
<!-- Title: src/main/java/fr/softsf/sudokufx/configuration/database/ApplicationKeystore.java Pages: 1 -->
<svg width="2115pt" height="120pt"
 viewBox="0.00 0.00 2115.00 120.00" xmlns="http://www.w3.org/2000/svg" xmlns:xlink="http://www.w3.org/1999/xlink">
<g id="graph0" class="graph" transform="scale(1 1) rotate(0) translate(4 116)">
<title>src/main/java/fr/softsf/sudokufx/configuration/database/ApplicationKeystore.java</title>
<!-- Node1 -->
<g id="Node000001" class="node">
<title>Node1</title>
<g id="a_Node000001"><a xlink:title=" ">
<polygon fill="#999999" stroke="#666666" points="1040.12,-112 870.38,-112 870.38,-68 1040.12,-68 1040.12,-112"/>
<text text-anchor="start" x="878.38" y="-98.5" font-family="Helvetica,sans-Serif" font-size="10.00">src/main/java/fr/softsf</text>
<text text-anchor="start" x="878.38" y="-86.5" font-family="Helvetica,sans-Serif" font-size="10.00">/sudokufx/configuration</text>
<text text-anchor="middle" x="955.25" y="-74.5" font-family="Helvetica,sans-Serif" font-size="10.00">/database/ApplicationKeystore.java</text>
</a>
</g>
</g>
<!-- Node2 -->
<g id="Node000002" class="node">
<title>Node2</title>
<g id="a_Node000002"><a xlink:title=" ">
<polygon fill="#e0e0e0" stroke="#999999" points="116.5,-26 0,-26 0,-6 116.5,-6 116.5,-26"/>
<text text-anchor="middle" x="58.25" y="-12.5" font-family="Helvetica,sans-Serif" font-size="10.00">java.io.FileInputStream</text>
</a>
</g>
</g>
<!-- Node1&#45;&gt;Node2 -->
<g id="edge1_Node000001_Node000002" class="edge">
<title>Node1&#45;&gt;Node2</title>
<g id="a_edge1_Node000001_Node000002"><a xlink:title=" ">
<path fill="none" stroke="#63b8ff" d="M869.96,-87.4C719.05,-83.63 395.39,-71.28 125.25,-32 119.28,-31.13 113.05,-30.02 106.9,-28.8"/>
<polygon fill="#63b8ff" stroke="#63b8ff" points="107.96,-25.44 97.46,-26.81 106.52,-32.29 107.96,-25.44"/>
</a>
</g>
</g>
<!-- Node3 -->
<g id="Node000003" class="node">
<title>Node3</title>
<g id="a_Node000003"><a xlink:title=" ">
<polygon fill="#e0e0e0" stroke="#999999" points="258.25,-26 134.25,-26 134.25,-6 258.25,-6 258.25,-26"/>
<text text-anchor="middle" x="196.25" y="-12.5" font-family="Helvetica,sans-Serif" font-size="10.00">java.io.FileOutputStream</text>
</a>
</g>
</g>
<!-- Node1&#45;&gt;Node3 -->
<g id="edge2_Node000001_Node000003" class="edge">
<title>Node1&#45;&gt;Node3</title>
<g id="a_edge2_Node000001_Node000003"><a xlink:title=" ">
<path fill="none" stroke="#63b8ff" d="M870.13,-85.39C739.76,-79.09 483.08,-63.61 267.25,-32 260.86,-31.06 254.19,-29.9 247.59,-28.64"/>
<polygon fill="#63b8ff" stroke="#63b8ff" points="248.62,-25.28 238.13,-26.75 247.24,-32.14 248.62,-25.28"/>
</a>
</g>
</g>
<!-- Node4 -->
<g id="Node000004" class="node">
<title>Node4</title>
<g id="a_Node000004"><a xlink:title=" ">
<polygon fill="#e0e0e0" stroke="#999999" points="378,-26 276.5,-26 276.5,-6 378,-6 378,-26"/>
<text text-anchor="middle" x="327.25" y="-12.5" font-family="Helvetica,sans-Serif" font-size="10.00">java.io.IOException</text>
</a>
</g>
</g>
<!-- Node1&#45;&gt;Node4 -->
<g id="edge3_Node000001_Node000004" class="edge">
<title>Node1&#45;&gt;Node4</title>
<g id="a_edge3_Node000001_Node000004"><a xlink:title=" ">
<path fill="none" stroke="#63b8ff" d="M869.88,-84.43C758.1,-77.54 556.38,-61.97 386.25,-32 381.57,-31.17 376.71,-30.18 371.88,-29.09"/>
<polygon fill="#63b8ff" stroke="#63b8ff" points="372.77,-25.71 362.23,-26.79 371.15,-32.51 372.77,-25.71"/>
</a>
</g>
</g>
<!-- Node5 -->
<g id="Node000005" class="node">
<title>Node5</title>
<g id="a_Node000005"><a xlink:title=" ">
<polygon fill="#e0e0e0" stroke="#999999" points="522.75,-32 395.75,-32 395.75,0 522.75,0 522.75,-32"/>
<text text-anchor="start" x="403.75" y="-18.5" font-family="Helvetica,sans-Serif" font-size="10.00">java.nio.charset.Standard</text>
<text text-anchor="middle" x="459.25" y="-6.5" font-family="Helvetica,sans-Serif" font-size="10.00">Charsets</text>
</a>
</g>
</g>
<!-- Node1&#45;&gt;Node5 -->
<g id="edge4_Node000001_Node000005" class="edge">
<title>Node1&#45;&gt;Node5</title>
<g id="a_edge4_Node000001_Node000005"><a xlink:title=" ">
<path fill="none" stroke="#63b8ff" d="M869.92,-79.25C786.81,-69.35 656.67,-52.8 533.99,-32.22"/>
<polygon fill="#63b8ff" stroke="#63b8ff" points="534.84,-28.82 524.4,-30.6 533.67,-35.72 534.84,-28.82"/>
</a>
</g>
</g>
<!-- Node6 -->
<g id="Node000006" class="node">
<title>Node6</title>
<g id="a_Node000006"><a xlink:title=" ">
<polygon fill="#e0e0e0" stroke="#999999" points="679.38,-32 541.12,-32 541.12,0 679.38,0 679.38,-32"/>
<text text-anchor="start" x="549.12" y="-18.5" font-family="Helvetica,sans-Serif" font-size="10.00">java.security.cert.Certificate</text>
<text text-anchor="middle" x="610.25" y="-6.5" font-family="Helvetica,sans-Serif" font-size="10.00">Exception</text>
</a>
</g>
</g>
<!-- Node1&#45;&gt;Node6 -->
<g id="edge5_Node000001_Node000006" class="edge">
<title>Node1&#45;&gt;Node6</title>
<g id="a_edge5_Node000001_Node000006"><a xlink:title=" ">
<path fill="none" stroke="#63b8ff" d="M869.97,-71.2C815.29,-59.79 744.75,-45.07 690.99,-33.85"/>
<polygon fill="#63b8ff" stroke="#63b8ff" points="691.77,-30.44 681.26,-31.82 690.34,-37.29 691.77,-30.44"/>
</a>
</g>
</g>
<!-- Node7 -->
<g id="Node000007" class="node">
<title>Node7</title>
<g id="a_Node000007"><a xlink:title=" ">
<polygon fill="#e0e0e0" stroke="#999999" points="775,-26 697.5,-26 697.5,-6 775,-6 775,-26"/>
<text text-anchor="middle" x="736.25" y="-12.5" font-family="Helvetica,sans-Serif" font-size="10.00">java.security.*</text>
</a>
</g>
</g>
<!-- Node1&#45;&gt;Node7 -->
<g id="edge6_Node000001_Node000007" class="edge">
<title>Node1&#45;&gt;Node7</title>
<g id="a_edge6_Node000001_Node000007"><a xlink:title=" ">
<path fill="none" stroke="#63b8ff" d="M890.14,-67.59C852.92,-55.36 807.46,-40.41 775.64,-29.95"/>
<polygon fill="#63b8ff" stroke="#63b8ff" points="777.02,-26.72 766.43,-26.92 774.83,-33.37 777.02,-26.72"/>
</a>
</g>
</g>
<!-- Node8 -->
<g id="Node000008" class="node">
<title>Node8</title>
<g id="a_Node000008"><a xlink:title=" ">
<polygon fill="#e0e0e0" stroke="#999999" points="871.38,-26 793.12,-26 793.12,-6 871.38,-6 871.38,-26"/>
<text text-anchor="middle" x="832.25" y="-12.5" font-family="Helvetica,sans-Serif" font-size="10.00">java.util.UUID</text>
</a>
</g>
</g>
<!-- Node1&#45;&gt;Node8 -->
<g id="edge7_Node000001_Node000008" class="edge">
<title>Node1&#45;&gt;Node8</title>
<g id="a_edge7_Node000001_Node000008"><a xlink:title=" ">
<path fill="none" stroke="#63b8ff" d="M918.68,-67.59C899.14,-56.16 875.57,-42.36 857.98,-32.06"/>
<polygon fill="#63b8ff" stroke="#63b8ff" points="860.09,-29.24 849.7,-27.21 856.56,-35.29 860.09,-29.24"/>
</a>
</g>
</g>
<!-- Node9 -->
<g id="Node000009" class="node">
<title>Node9</title>
<g id="a_Node000009"><a xlink:title=" ">
<polygon fill="#e0e0e0" stroke="#999999" points="1021.38,-26 889.12,-26 889.12,-6 1021.38,-6 1021.38,-26"/>
<text text-anchor="middle" x="955.25" y="-12.5" font-family="Helvetica,sans-Serif" font-size="10.00">javax.crypto.KeyGenerator</text>
</a>
</g>
</g>
<!-- Node1&#45;&gt;Node9 -->
<g id="edge8_Node000001_Node000009" class="edge">
<title>Node1&#45;&gt;Node9</title>
<g id="a_edge8_Node000001_Node000009"><a xlink:title=" ">
<path fill="none" stroke="#63b8ff" d="M955.25,-67.79C955.25,-58.32 955.25,-47.2 955.25,-37.78"/>
<polygon fill="#63b8ff" stroke="#63b8ff" points="958.75,-37.82 955.25,-27.82 951.75,-37.82 958.75,-37.82"/>
</a>
</g>
</g>
<!-- Node10 -->
<g id="Node000010" class="node">
<title>Node10</title>
<g id="a_Node000010"><a xlink:title=" ">
<polygon fill="#e0e0e0" stroke="#999999" points="1157.25,-26 1039.25,-26 1039.25,-6 1157.25,-6 1157.25,-26"/>
<text text-anchor="middle" x="1098.25" y="-12.5" font-family="Helvetica,sans-Serif" font-size="10.00">javax.crypto.SecretKey</text>
</a>
</g>
</g>
<!-- Node1&#45;&gt;Node10 -->
<g id="edge9_Node000001_Node000010" class="edge">
<title>Node1&#45;&gt;Node10</title>
<g id="a_edge9_Node000001_Node000010"><a xlink:title=" ">
<path fill="none" stroke="#63b8ff" d="M997.77,-67.59C1020.9,-55.94 1048.91,-41.84 1069.48,-31.49"/>
<polygon fill="#63b8ff" stroke="#63b8ff" points="1070.78,-34.75 1078.13,-27.13 1067.63,-28.5 1070.78,-34.75"/>
</a>
</g>
</g>
<!-- Node11 -->
<g id="Node000011" class="node">
<title>Node11</title>
<g id="a_Node000011"><a xlink:title=" ">
<polygon fill="#e0e0e0" stroke="#999999" points="1299.62,-32 1174.88,-32 1174.88,0 1299.62,0 1299.62,-32"/>
<text text-anchor="start" x="1182.88" y="-18.5" font-family="Helvetica,sans-Serif" font-size="10.00">javax.crypto.spec.Secret</text>
<text text-anchor="middle" x="1237.25" y="-6.5" font-family="Helvetica,sans-Serif" font-size="10.00">KeySpec</text>
</a>
</g>
</g>
<!-- Node1&#45;&gt;Node11 -->
<g id="edge10_Node000001_Node000011" class="edge">
<title>Node1&#45;&gt;Node11</title>
<g id="a_edge10_Node000001_Node000011"><a xlink:title=" ">
<path fill="none" stroke="#63b8ff" d="M1039.1,-67.59C1079.29,-57.33 1126.94,-45.16 1165.44,-35.33"/>
<polygon fill="#63b8ff" stroke="#63b8ff" points="1166.27,-38.74 1175.09,-32.87 1164.54,-31.95 1166.27,-38.74"/>
</a>
</g>
</g>
<!-- Node12 -->
<g id="Node000012" class="node">
<title>Node12</title>
<g id="a_Node000012"><a xlink:title=" ">
<polygon fill="#e0e0e0" stroke="#999999" points="1400.62,-26 1317.88,-26 1317.88,-6 1400.62,-6 1400.62,-26"/>
<text text-anchor="middle" x="1359.25" y="-12.5" font-family="Helvetica,sans-Serif" font-size="10.00">org.slf4j.Logger</text>
</a>
</g>
</g>
<!-- Node1&#45;&gt;Node12 -->
<g id="edge11_Node000001_Node000012" class="edge">
<title>Node1&#45;&gt;Node12</title>
<g id="a_edge11_Node000001_Node000012"><a xlink:title=" ">
<path fill="none" stroke="#63b8ff" d="M1040.35,-78.32C1112.21,-68.58 1217.59,-52.57 1308.25,-32 1311.61,-31.24 1315.07,-30.38 1318.53,-29.47"/>
<polygon fill="#63b8ff" stroke="#63b8ff" points="1319.32,-32.88 1328.02,-26.84 1317.45,-26.14 1319.32,-32.88"/>
</a>
</g>
</g>
<!-- Node13 -->
<g id="Node000013" class="node">
<title>Node13</title>
<g id="a_Node000013"><a xlink:title=" ">
<polygon fill="#e0e0e0" stroke="#999999" points="1534.12,-26 1418.38,-26 1418.38,-6 1534.12,-6 1534.12,-26"/>
<text text-anchor="middle" x="1476.25" y="-12.5" font-family="Helvetica,sans-Serif" font-size="10.00">org.slf4j.LoggerFactory</text>
</a>
</g>
</g>
<!-- Node1&#45;&gt;Node13 -->
<g id="edge12_Node000001_Node000013" class="edge">
<title>Node1&#45;&gt;Node13</title>
<g id="a_edge12_Node000001_Node000013"><a xlink:title=" ">
<path fill="none" stroke="#63b8ff" d="M1040.54,-80.74C1132.05,-71.32 1281.49,-54.27 1409.25,-32 1414.76,-31.04 1420.5,-29.93 1426.2,-28.75"/>
<polygon fill="#63b8ff" stroke="#63b8ff" points="1426.52,-32.26 1435.57,-26.75 1425.06,-25.42 1426.52,-32.26"/>
</a>
</g>
</g>
<!-- Node14 -->
<g id="Node000014" class="node">
<title>Node14</title>
<g id="a_Node000014"><a xlink:title=" ">
<polygon fill="#e0e0e0" stroke="#999999" points="1708.38,-32 1552.12,-32 1552.12,0 1708.38,0 1708.38,-32"/>
<text text-anchor="start" x="1560.12" y="-18.5" font-family="Helvetica,sans-Serif" font-size="10.00">org.springframework.stereotype.</text>
<text text-anchor="middle" x="1630.25" y="-6.5" font-family="Helvetica,sans-Serif" font-size="10.00">Component</text>
</a>
</g>
</g>
<!-- Node1&#45;&gt;Node14 -->
<g id="edge13_Node000001_Node000014" class="edge">
<title>Node1&#45;&gt;Node14</title>
<g id="a_edge13_Node000001_Node000014"><a xlink:title=" ">
<path fill="none" stroke="#63b8ff" d="M1040.19,-82.75C1152.42,-74.05 1356.48,-56.7 1540.77,-32.27"/>
<polygon fill="#63b8ff" stroke="#63b8ff" points="1541.09,-35.76 1550.54,-30.97 1540.16,-28.82 1541.09,-35.76"/>
</a>
</g>
</g>
<!-- Node15 -->
<g id="Node000015" class="node">
<title>Node15</title>
<g id="a_Node000015"><a xlink:title=" ">
<polygon fill="#e0e0e0" stroke="#999999" points="1921.88,-32 1726.62,-32 1726.62,0 1921.88,0 1921.88,-32"/>
<text text-anchor="start" x="1734.62" y="-18.5" font-family="Helvetica,sans-Serif" font-size="10.00">fr.softsf.sudokufx.annotations.</text>
<text text-anchor="middle" x="1824.25" y="-6.5" font-family="Helvetica,sans-Serif" font-size="10.00">ExcludedFromCoverageReportGenerated</text>
</a>
</g>
</g>
<!-- Node1&#45;&gt;Node15 -->
<g id="edge14_Node000001_Node000015" class="edge">
<title>Node1&#45;&gt;Node15</title>
<g id="a_edge14_Node000001_Node000015"><a xlink:title=" ">
<path fill="none" stroke="#63b8ff" d="M1040.55,-84.42C1179.54,-76.57 1463.76,-58.84 1715.13,-32.18"/>
<polygon fill="#63b8ff" stroke="#63b8ff" points="1715.24,-35.69 1724.81,-31.15 1714.5,-28.73 1715.24,-35.69"/>
</a>
</g>
</g>
<!-- Node16 -->
<g id="Node000016" class="node">
<title>Node16</title>
<g id="a_Node000016"><a xlink:title=" ">
<polygon fill="#e0e0e0" stroke="#999999" points="2107,-32 1939.5,-32 1939.5,0 2107,0 2107,-32"/>
<text text-anchor="start" x="1947.5" y="-18.5" font-family="Helvetica,sans-Serif" font-size="10.00">fr.softsf.sudokufx.configuration.os.</text>
<text text-anchor="middle" x="2023.25" y="-6.5" font-family="Helvetica,sans-Serif" font-size="10.00">IOsFolderFactory</text>
</a>
</g>
</g>
<!-- Node1&#45;&gt;Node16 -->
<g id="edge15_Node000001_Node000016" class="edge">
<title>Node1&#45;&gt;Node16</title>
<g id="a_edge15_Node000001_Node000016"><a xlink:title=" ">
<path fill="none" stroke="#63b8ff" d="M1040.36,-86.99C1208.29,-82.36 1594.32,-68.55 1927.73,-32.33"/>
<polygon fill="#63b8ff" stroke="#63b8ff" points="1928.01,-35.82 1937.56,-31.25 1927.24,-28.86 1928.01,-35.82"/>
</a>
</g>
</g>
</g>
</svg>
