<?xml version="1.0" encoding="UTF-8" standalone="no"?>
<!DOCTYPE svg PUBLIC "-//W3C//DTD SVG 1.1//EN"
 "http://www.w3.org/Graphics/SVG/1.1/DTD/svg11.dtd">
<!-- Generated by graphviz version 12.2.1 (20241206.2353)
 -->
<!-- Title: src/main/java/fr/softsf/sudokufx/config/database/ApplicationKeystore.java Pages: 1 -->
<!--zoomable 120 -->

<svg id="main" version="1.1" xmlns="http://www.w3.org/2000/svg" xmlns:xlink="http://www.w3.org/1999/xlink" xml:space="preserve" onload="init(evt)">

<style type="text/css"><![CDATA[
.node, .edge {opacity: 0.7;}
.node.selected, .edge.selected {opacity: 1;}
.edge:hover path { stroke: red; }
.edge:hover polygon { stroke: red; fill: red; }
]]></style>

<defs>
  <circle id="rim" cx="0" cy="0" r="7"/>
  <circle id="rim2" cx="0" cy="0" r="3.5"/>
  <g id="zoomPlus">
    <use xlink:href="#rim" fill="#404040"><set attributeName="fill" to="#808080" begin="zoomplus.mouseover" end="zoomplus.mouseout"/></use>
    <path d="M-4,0h8M0,-4v8" fill="none" stroke="white" stroke-width="1.5" pointer-events="none"/>
  </g>
  <g id="zoomMin">
    <use xlink:href="#rim" fill="#404040"><set attributeName="fill" to="#808080" begin="zoomminus.mouseover" end="zoomminus.mouseout"/></use>
    <path d="M-4,0h8" fill="none" stroke="white" stroke-width="1.5" pointer-events="none"/>
  </g>
  <g id="arrowUp" transform="translate(30 24)">
    <use xlink:href="#rim"/>
    <path pointer-events="none" fill="none" stroke="white" stroke-width="1.5" d="M0,-3.0v7 M-2.5,-0.5L0,-3.0L2.5,-0.5"/>
  </g>
  <g id="arrowRight" transform="rotate(90) translate(36 -43)">
    <use xlink:href="#rim"/>
    <path pointer-events="none" fill="none" stroke="white" stroke-width="1.5" d="M0,-3.0v7 M-2.5,-0.5L0,-3.0L2.5,-0.5"/>
  </g>
  <g id="arrowDown" transform="rotate(180) translate(-30 -48)">
    <use xlink:href="#rim"/>
    <path pointer-events="none" fill="none" stroke="white" stroke-width="1.5" d="M0,-3.0v7 M-2.5,-0.5L0,-3.0L2.5,-0.5"/>
  </g>
  <g id="arrowLeft" transform="rotate(270) translate(-36 17)">
    <use xlink:href="#rim"/>
    <path pointer-events="none" fill="none" stroke="white" stroke-width="1.5" d="M0,-3.0v7 M-2.5,-0.5L0,-3.0L2.5,-0.5"/>
  </g>
  <g id="resetDef">
    <use xlink:href="#rim2" fill="#404040"><set attributeName="fill" to="#808080" begin="reset.mouseover" end="reset.mouseout"/></use>
  </g>
</defs>
<script type="application/ecmascript">
var viewWidth = 2317;
var viewHeight = 120;
var sectionId = 'dynsection-0';
</script>
<script type="application/ecmascript" xlink:href="svg.min.js"/>
<svg id="graph" class="graph">
<g id="viewport">
<title>src/main/java/fr/softsf/sudokufx/config/database/ApplicationKeystore.java</title>
<!-- Node1 -->
<g id="Node000001" class="node">
<title>Node1</title>
<g id="a_Node000001"><a xlink:title=" ">
<polygon fill="#999999" stroke="#666666" points="1124.62,-112 993.88,-112 993.88,-68 1124.62,-68 1124.62,-112"/>
<text text-anchor="start" x="1001.88" y="-98.5" font-family="Helvetica,sans-Serif" font-size="10.00">src/main/java/fr/softsf</text>
<text text-anchor="start" x="1001.88" y="-86.5" font-family="Helvetica,sans-Serif" font-size="10.00">/sudokufx/config/database</text>
<text text-anchor="middle" x="1059.25" y="-74.5" font-family="Helvetica,sans-Serif" font-size="10.00">/ApplicationKeystore.java</text>
</a>
</g>
</g>
<!-- Node2 -->
<g id="Node000002" class="node">
<title>Node2</title>
<g id="a_Node000002"><a xlink:title=" ">
<polygon fill="#e0e0e0" stroke="#999999" points="116.5,-26 0,-26 0,-6 116.5,-6 116.5,-26"/>
<text text-anchor="middle" x="58.25" y="-12.5" font-family="Helvetica,sans-Serif" font-size="10.00">java.io.FileInputStream</text>
</a>
</g>
</g>
<!-- Node1&#45;&gt;Node2 -->
<g id="edge1_Node000001_Node000002" class="edge">
<title>Node1&#45;&gt;Node2</title>
<g id="a_edge1_Node000001_Node000002"><a xlink:title=" ">
<path fill="none" stroke="#63b8ff" d="M993.5,-88.58C840.44,-86.81 448.76,-77.79 125.25,-32 119.2,-31.14 112.89,-30.03 106.66,-28.79"/>
<polygon fill="#63b8ff" stroke="#63b8ff" points="107.61,-25.42 97.1,-26.78 106.16,-32.27 107.61,-25.42"/>
</a>
</g>
</g>
<!-- Node3 -->
<g id="Node000003" class="node">
<title>Node3</title>
<g id="a_Node000003"><a xlink:title=" ">
<polygon fill="#e0e0e0" stroke="#999999" points="258.25,-26 134.25,-26 134.25,-6 258.25,-6 258.25,-26"/>
<text text-anchor="middle" x="196.25" y="-12.5" font-family="Helvetica,sans-Serif" font-size="10.00">java.io.FileOutputStream</text>
</a>
</g>
</g>
<!-- Node1&#45;&gt;Node3 -->
<g id="edge2_Node000001_Node000003" class="edge">
<title>Node1&#45;&gt;Node3</title>
<g id="a_edge2_Node000001_Node000003"><a xlink:title=" ">
<path fill="none" stroke="#63b8ff" d="M993.48,-87.3C857.33,-83.11 534.97,-69.74 267.25,-32 260.78,-31.09 254.01,-29.93 247.34,-28.66"/>
<polygon fill="#63b8ff" stroke="#63b8ff" points="248.23,-25.27 237.74,-26.74 246.86,-32.14 248.23,-25.27"/>
</a>
</g>
</g>
<!-- Node4 -->
<g id="Node000004" class="node">
<title>Node4</title>
<g id="a_Node000004"><a xlink:title=" ">
<polygon fill="#e0e0e0" stroke="#999999" points="378,-26 276.5,-26 276.5,-6 378,-6 378,-26"/>
<text text-anchor="middle" x="327.25" y="-12.5" font-family="Helvetica,sans-Serif" font-size="10.00">java.io.IOException</text>
</a>
</g>
</g>
<!-- Node1&#45;&gt;Node4 -->
<g id="edge3_Node000001_Node000004" class="edge">
<title>Node1&#45;&gt;Node4</title>
<g id="a_edge3_Node000001_Node000004"><a xlink:title=" ">
<path fill="none" stroke="#63b8ff" d="M993.84,-87.03C873.03,-82.6 607.11,-69.17 386.25,-32 381.37,-31.18 376.3,-30.16 371.27,-29.03"/>
<polygon fill="#63b8ff" stroke="#63b8ff" points="372.44,-25.71 361.91,-26.8 370.82,-32.52 372.44,-25.71"/>
</a>
</g>
</g>
<!-- Node5 -->
<g id="Node000005" class="node">
<title>Node5</title>
<g id="a_Node000005"><a xlink:title=" ">
<polygon fill="#e0e0e0" stroke="#999999" points="522.75,-32 395.75,-32 395.75,0 522.75,0 522.75,-32"/>
<text text-anchor="start" x="403.75" y="-18.5" font-family="Helvetica,sans-Serif" font-size="10.00">java.nio.charset.Standard</text>
<text text-anchor="middle" x="459.25" y="-6.5" font-family="Helvetica,sans-Serif" font-size="10.00">Charsets</text>
</a>
</g>
</g>
<!-- Node1&#45;&gt;Node5 -->
<g id="edge4_Node000001_Node000005" class="edge">
<title>Node1&#45;&gt;Node5</title>
<g id="a_edge4_Node000001_Node000005"><a xlink:title=" ">
<path fill="none" stroke="#63b8ff" d="M993.67,-83.92C895.89,-75.9 705.89,-58.62 534.17,-32.2"/>
<polygon fill="#63b8ff" stroke="#63b8ff" points="534.8,-28.76 524.38,-30.68 533.73,-35.67 534.8,-28.76"/>
</a>
</g>
</g>
<!-- Node6 -->
<g id="Node000006" class="node">
<title>Node6</title>
<g id="a_Node000006"><a xlink:title=" ">
<polygon fill="#e0e0e0" stroke="#999999" points="679.38,-32 541.12,-32 541.12,0 679.38,0 679.38,-32"/>
<text text-anchor="start" x="549.12" y="-18.5" font-family="Helvetica,sans-Serif" font-size="10.00">java.security.cert.Certificate</text>
<text text-anchor="middle" x="610.25" y="-6.5" font-family="Helvetica,sans-Serif" font-size="10.00">Exception</text>
</a>
</g>
</g>
<!-- Node1&#45;&gt;Node6 -->
<g id="edge5_Node000001_Node000006" class="edge">
<title>Node1&#45;&gt;Node6</title>
<g id="a_edge5_Node000001_Node000006"><a xlink:title=" ">
<path fill="none" stroke="#63b8ff" d="M993.45,-79.65C921.59,-69.27 802.81,-51.62 690.72,-32.39"/>
<polygon fill="#63b8ff" stroke="#63b8ff" points="691.49,-28.97 681.04,-30.72 690.3,-35.87 691.49,-28.97"/>
</a>
</g>
</g>
<!-- Node7 -->
<g id="Node000007" class="node">
<title>Node7</title>
<g id="a_Node000007"><a xlink:title=" ">
<polygon fill="#e0e0e0" stroke="#999999" points="775,-26 697.5,-26 697.5,-6 775,-6 775,-26"/>
<text text-anchor="middle" x="736.25" y="-12.5" font-family="Helvetica,sans-Serif" font-size="10.00">java.security.*</text>
</a>
</g>
</g>
<!-- Node1&#45;&gt;Node7 -->
<g id="edge6_Node000001_Node000007" class="edge">
<title>Node1&#45;&gt;Node7</title>
<g id="a_edge6_Node000001_Node000007"><a xlink:title=" ">
<path fill="none" stroke="#63b8ff" d="M993.54,-77.27C937.57,-66.82 855.16,-50.38 784.25,-32 781.48,-31.28 778.63,-30.5 775.76,-29.68"/>
<polygon fill="#63b8ff" stroke="#63b8ff" points="776.83,-26.35 766.25,-26.86 774.84,-33.06 776.83,-26.35"/>
</a>
</g>
</g>
<!-- Node8 -->
<g id="Node000008" class="node">
<title>Node8</title>
<g id="a_Node000008"><a xlink:title=" ">
<polygon fill="#e0e0e0" stroke="#999999" points="879.5,-26 793,-26 793,-6 879.5,-6 879.5,-26"/>
<text text-anchor="middle" x="836.25" y="-12.5" font-family="Helvetica,sans-Serif" font-size="10.00">java.util.Objects</text>
</a>
</g>
</g>
<!-- Node1&#45;&gt;Node8 -->
<g id="edge7_Node000001_Node000008" class="edge">
<title>Node1&#45;&gt;Node8</title>
<g id="a_edge7_Node000001_Node000008"><a xlink:title=" ">
<path fill="none" stroke="#63b8ff" d="M993.55,-67.79C955.51,-55.5 908.86,-40.44 876.28,-29.92"/>
<polygon fill="#63b8ff" stroke="#63b8ff" points="877.41,-26.61 866.82,-26.87 875.26,-33.27 877.41,-26.61"/>
</a>
</g>
</g>
<!-- Node9 -->
<g id="Node000009" class="node">
<title>Node9</title>
<g id="a_Node000009"><a xlink:title=" ">
<polygon fill="#e0e0e0" stroke="#999999" points="975.38,-26 897.12,-26 897.12,-6 975.38,-6 975.38,-26"/>
<text text-anchor="middle" x="936.25" y="-12.5" font-family="Helvetica,sans-Serif" font-size="10.00">java.util.UUID</text>
</a>
</g>
</g>
<!-- Node1&#45;&gt;Node9 -->
<g id="edge8_Node000001_Node000009" class="edge">
<title>Node1&#45;&gt;Node9</title>
<g id="a_edge8_Node000001_Node000009"><a xlink:title=" ">
<path fill="none" stroke="#63b8ff" d="M1022.68,-67.59C1003.14,-56.16 979.57,-42.36 961.98,-32.06"/>
<polygon fill="#63b8ff" stroke="#63b8ff" points="964.09,-29.24 953.7,-27.21 960.56,-35.29 964.09,-29.24"/>
</a>
</g>
</g>
<!-- Node10 -->
<g id="Node000010" class="node">
<title>Node10</title>
<g id="a_Node000010"><a xlink:title=" ">
<polygon fill="#e0e0e0" stroke="#999999" points="1125.38,-26 993.12,-26 993.12,-6 1125.38,-6 1125.38,-26"/>
<text text-anchor="middle" x="1059.25" y="-12.5" font-family="Helvetica,sans-Serif" font-size="10.00">javax.crypto.KeyGenerator</text>
</a>
</g>
</g>
<!-- Node1&#45;&gt;Node10 -->
<g id="edge9_Node000001_Node000010" class="edge">
<title>Node1&#45;&gt;Node10</title>
<g id="a_edge9_Node000001_Node000010"><a xlink:title=" ">
<path fill="none" stroke="#63b8ff" d="M1059.25,-67.79C1059.25,-58.32 1059.25,-47.2 1059.25,-37.78"/>
<polygon fill="#63b8ff" stroke="#63b8ff" points="1062.75,-37.82 1059.25,-27.82 1055.75,-37.82 1062.75,-37.82"/>
</a>
</g>
</g>
<!-- Node11 -->
<g id="Node000011" class="node">
<title>Node11</title>
<g id="a_Node000011"><a xlink:title=" ">
<polygon fill="#e0e0e0" stroke="#999999" points="1261.25,-26 1143.25,-26 1143.25,-6 1261.25,-6 1261.25,-26"/>
<text text-anchor="middle" x="1202.25" y="-12.5" font-family="Helvetica,sans-Serif" font-size="10.00">javax.crypto.SecretKey</text>
</a>
</g>
</g>
<!-- Node1&#45;&gt;Node11 -->
<g id="edge10_Node000001_Node000011" class="edge">
<title>Node1&#45;&gt;Node11</title>
<g id="a_edge10_Node000001_Node000011"><a xlink:title=" ">
<path fill="none" stroke="#63b8ff" d="M1101.77,-67.59C1124.9,-55.94 1152.91,-41.84 1173.48,-31.49"/>
<polygon fill="#63b8ff" stroke="#63b8ff" points="1174.78,-34.75 1182.13,-27.13 1171.63,-28.5 1174.78,-34.75"/>
</a>
</g>
</g>
<!-- Node12 -->
<g id="Node000012" class="node">
<title>Node12</title>
<g id="a_Node000012"><a xlink:title=" ">
<polygon fill="#e0e0e0" stroke="#999999" points="1403.62,-32 1278.88,-32 1278.88,0 1403.62,0 1403.62,-32"/>
<text text-anchor="start" x="1286.88" y="-18.5" font-family="Helvetica,sans-Serif" font-size="10.00">javax.crypto.spec.Secret</text>
<text text-anchor="middle" x="1341.25" y="-6.5" font-family="Helvetica,sans-Serif" font-size="10.00">KeySpec</text>
</a>
</g>
</g>
<!-- Node1&#45;&gt;Node12 -->
<g id="edge11_Node000001_Node000012" class="edge">
<title>Node1&#45;&gt;Node12</title>
<g id="a_edge11_Node000001_Node000012"><a xlink:title=" ">
<path fill="none" stroke="#63b8ff" d="M1125.01,-72.21C1168.37,-61.14 1225.16,-46.64 1269.66,-35.28"/>
<polygon fill="#63b8ff" stroke="#63b8ff" points="1270.4,-38.7 1279.22,-32.84 1268.67,-31.92 1270.4,-38.7"/>
</a>
</g>
</g>
<!-- Node13 -->
<g id="Node000013" class="node">
<title>Node13</title>
<g id="a_Node000013"><a xlink:title=" ">
<polygon fill="#e0e0e0" stroke="#999999" points="1504.62,-26 1421.88,-26 1421.88,-6 1504.62,-6 1504.62,-26"/>
<text text-anchor="middle" x="1463.25" y="-12.5" font-family="Helvetica,sans-Serif" font-size="10.00">org.slf4j.Logger</text>
</a>
</g>
</g>
<!-- Node1&#45;&gt;Node13 -->
<g id="edge12_Node000001_Node000013" class="edge">
<title>Node1&#45;&gt;Node13</title>
<g id="a_edge12_Node000001_Node000013"><a xlink:title=" ">
<path fill="none" stroke="#63b8ff" d="M1125.11,-80.89C1196.37,-71.53 1313.12,-54.49 1412.25,-32 1415.61,-31.24 1419.07,-30.38 1422.53,-29.47"/>
<polygon fill="#63b8ff" stroke="#63b8ff" points="1423.32,-32.88 1432.02,-26.84 1421.45,-26.14 1423.32,-32.88"/>
</a>
</g>
</g>
<!-- Node14 -->
<g id="Node000014" class="node">
<title>Node14</title>
<g id="a_Node000014"><a xlink:title=" ">
<polygon fill="#e0e0e0" stroke="#999999" points="1638.12,-26 1522.38,-26 1522.38,-6 1638.12,-6 1638.12,-26"/>
<text text-anchor="middle" x="1580.25" y="-12.5" font-family="Helvetica,sans-Serif" font-size="10.00">org.slf4j.LoggerFactory</text>
</a>
</g>
</g>
<!-- Node1&#45;&gt;Node14 -->
<g id="edge13_Node000001_Node000014" class="edge">
<title>Node1&#45;&gt;Node14</title>
<g id="a_edge13_Node000001_Node000014"><a xlink:title=" ">
<path fill="none" stroke="#63b8ff" d="M1124.95,-82.74C1213.51,-73.84 1375.91,-55.94 1513.25,-32 1518.76,-31.04 1524.5,-29.93 1530.2,-28.75"/>
<polygon fill="#63b8ff" stroke="#63b8ff" points="1530.52,-32.26 1539.57,-26.75 1529.06,-25.42 1530.52,-32.26"/>
</a>
</g>
</g>
<!-- Node15 -->
<g id="Node000015" class="node">
<title>Node15</title>
<g id="a_Node000015"><a xlink:title=" ">
<polygon fill="#e0e0e0" stroke="#999999" points="1812.38,-32 1656.12,-32 1656.12,0 1812.38,0 1812.38,-32"/>
<text text-anchor="start" x="1664.12" y="-18.5" font-family="Helvetica,sans-Serif" font-size="10.00">org.springframework.stereotype.</text>
<text text-anchor="middle" x="1734.25" y="-6.5" font-family="Helvetica,sans-Serif" font-size="10.00">Component</text>
</a>
</g>
</g>
<!-- Node1&#45;&gt;Node15 -->
<g id="edge14_Node000001_Node000015" class="edge">
<title>Node1&#45;&gt;Node15</title>
<g id="a_edge14_Node000001_Node000015"><a xlink:title=" ">
<path fill="none" stroke="#63b8ff" d="M1124.69,-84.25C1231.38,-76.15 1449.67,-58.13 1644.71,-32.28"/>
<polygon fill="#63b8ff" stroke="#63b8ff" points="1645.09,-35.76 1654.54,-30.97 1644.16,-28.82 1645.09,-35.76"/>
</a>
</g>
</g>
<!-- Node16 -->
<g id="Node000016" class="node">
<title>Node16</title>
<g id="a_Node000016"><a xlink:title=" ">
<polygon fill="#e0e0e0" stroke="#999999" points="1953.88,-32 1830.62,-32 1830.62,0 1953.88,0 1953.88,-32"/>
<text text-anchor="start" x="1838.62" y="-18.5" font-family="Helvetica,sans-Serif" font-size="10.00">org.springframework.util.</text>
<text text-anchor="middle" x="1892.25" y="-6.5" font-family="Helvetica,sans-Serif" font-size="10.00">ObjectUtils</text>
</a>
</g>
</g>
<!-- Node1&#45;&gt;Node16 -->
<g id="edge15_Node000001_Node000016" class="edge">
<title>Node1&#45;&gt;Node16</title>
<g id="a_edge15_Node000001_Node000016"><a xlink:title=" ">
<path fill="none" stroke="#63b8ff" d="M1125.06,-87.04C1255.6,-82.5 1556.62,-68.84 1819.09,-32.17"/>
<polygon fill="#63b8ff" stroke="#63b8ff" points="1819.47,-35.66 1828.88,-30.79 1818.49,-28.72 1819.47,-35.66"/>
</a>
</g>
</g>
<!-- Node17 -->
<g id="Node000017" class="node">
<title>Node17</title>
<g id="a_Node000017"><a xlink:title=" ">
<polygon fill="#e0e0e0" stroke="#999999" points="2152.75,-32 1971.75,-32 1971.75,0 2152.75,0 2152.75,-32"/>
<text text-anchor="start" x="1979.75" y="-18.5" font-family="Helvetica,sans-Serif" font-size="10.00">fr.softsf.sudokufx.common.exception.</text>
<text text-anchor="middle" x="2062.25" y="-6.5" font-family="Helvetica,sans-Serif" font-size="10.00">ExceptionTools</text>
</a>
</g>
</g>
<!-- Node1&#45;&gt;Node17 -->
<g id="edge16_Node000001_Node000017" class="edge">
<title>Node1&#45;&gt;Node17</title>
<g id="a_edge16_Node000001_Node000017"><a xlink:title=" ">
<path fill="none" stroke="#63b8ff" d="M1124.93,-86.83C1272.46,-81.52 1641.55,-65.88 1960.08,-32.28"/>
<polygon fill="#63b8ff" stroke="#63b8ff" points="1960.31,-35.78 1969.88,-31.24 1959.57,-28.82 1960.31,-35.78"/>
</a>
</g>
</g>
<!-- Node18 -->
<g id="Node000018" class="node">
<title>Node18</title>
<g id="a_Node000018"><a xlink:title=" ">
<polygon fill="#e0e0e0" stroke="#999999" points="2309.38,-32 2171.12,-32 2171.12,0 2309.38,0 2309.38,-32"/>
<text text-anchor="start" x="2179.12" y="-18.5" font-family="Helvetica,sans-Serif" font-size="10.00">fr.softsf.sudokufx.config.os.</text>
<text text-anchor="middle" x="2240.25" y="-6.5" font-family="Helvetica,sans-Serif" font-size="10.00">IOsFolderFactory</text>
</a>
</g>
</g>
<!-- Node1&#45;&gt;Node18 -->
<g id="edge17_Node000001_Node000018" class="edge">
<title>Node1&#45;&gt;Node18</title>
<g id="a_edge17_Node000001_Node000018"><a xlink:title=" ">
<path fill="none" stroke="#63b8ff" d="M1125.1,-88.77C1295,-87.49 1762.07,-79.66 2159.85,-32.18"/>
<polygon fill="#63b8ff" stroke="#63b8ff" points="2159.99,-35.68 2169.5,-31.01 2159.16,-28.73 2159.99,-35.68"/>
</a>
</g>
</g>
</g>
</svg>

<g id="navigator" transform="translate(0 0)" fill="#404254">
  <rect fill="#f2f5e9" fill-opacity="0.5" stroke="#606060" stroke-width=".5" x="0" y="0" width="60" height="60"/>
  <use id="zoomplus" xlink:href="#zoomPlus" x="17" y="9" onmousedown="handleZoom(evt,'in')"/>
  <use id="zoomminus" xlink:href="#zoomMin" x="42" y="9" onmousedown="handleZoom(evt,'out')"/>
  <use id="reset" xlink:href="#resetDef" x="30" y="36" onmousedown="handleReset()"/>
   <use id="arrowup" xlink:href="#arrowUp" x="0" y="0" onmousedown="handlePan(0,-1)"/>
  <use id="arrowright" xlink:href="#arrowRight" x="0" y="0" onmousedown="handlePan(1,0)"/>
  <use id="arrowdown" xlink:href="#arrowDown" x="0" y="0" onmousedown="handlePan(0,1)"/>
  <use id="arrowleft" xlink:href="#arrowLeft" x="0" y="0" onmousedown="handlePan(-1,0)"/>
</g>
<svg viewBox="0 0 15 15" width="100%" height="30px" preserveAspectRatio="xMaxYMin meet">
 <g id="arrow_out" transform="scale(0.3 0.3)">
  <a xlink:href="_application_keystore_8java__incl_org.svg" target="_base">
   <rect id="button" ry="5" rx="5" y="6" x="6" height="38" width="38"
        fill="#f2f5e9" fill-opacity="0.5" stroke="#606060" stroke-width="1.0"/>
   <path id="arrow"
     d="M 11.500037,31.436501 C 11.940474,20.09759 22.043105,11.32322 32.158766,21.979434 L 37.068811,17.246167 C 37.068811,17.246167 37.088388,32 37.088388,32 L 22.160133,31.978069 C 22.160133,31.978069 26.997745,27.140456 26.997745,27.140456 C 18.528582,18.264221 13.291696,25.230495 11.500037,31.436501 z"
     style="fill:#404040;"/>
  </a>
 </g>
</svg>

<style type='text/css'>
<![CDATA[
[data-mouse-over-selected='false'] { opacity: 0.7; }
[data-mouse-over-selected='true']  { opacity: 1.0; }
]]>
</style>
<script type="application/ecmascript"><![CDATA[
document.addEventListener('DOMContentLoaded', (event) => {
  highlightEdges();
  highlightAdjacentNodes();
});
]]></script>
</svg>
