<?xml version="1.0" encoding="UTF-8" standalone="no"?>
<!DOCTYPE svg PUBLIC "-//W3C//DTD SVG 1.1//EN"
 "http://www.w3.org/Graphics/SVG/1.1/DTD/svg11.dtd">
<!-- Generated by graphviz version 12.2.1 (20241206.2353)
 -->
<!-- Title: src/main/java/fr/softsf/sudokufx/service/ui/AsyncFileProcessorService.java Pages: 1 -->
<svg width="1361pt" height="120pt"
 viewBox="0.00 0.00 1361.12 120.00" xmlns="http://www.w3.org/2000/svg" xmlns:xlink="http://www.w3.org/1999/xlink">
<g id="graph0" class="graph" transform="scale(1 1) rotate(0) translate(4 116)">
<title>src/main/java/fr/softsf/sudokufx/service/ui/AsyncFileProcessorService.java</title>
<!-- Node1 -->
<g id="Node000001" class="node">
<title>Node1</title>
<g id="a_Node000001"><a xlink:title=" ">
<polygon fill="#999999" stroke="#666666" points="685.75,-112 535.5,-112 535.5,-68 685.75,-68 685.75,-112"/>
<text text-anchor="start" x="543.5" y="-98.5" font-family="Helvetica,sans-Serif" font-size="10.00">src/main/java/fr/softsf</text>
<text text-anchor="start" x="543.5" y="-86.5" font-family="Helvetica,sans-Serif" font-size="10.00">/sudokufx/service/ui/AsyncFile</text>
<text text-anchor="middle" x="610.62" y="-74.5" font-family="Helvetica,sans-Serif" font-size="10.00">ProcessorService.java</text>
</a>
</g>
</g>
<!-- Node2 -->
<g id="Node000002" class="node">
<title>Node2</title>
<g id="a_Node000002"><a xlink:title=" ">
<polygon fill="#e0e0e0" stroke="#999999" points="63.25,-26 0,-26 0,-6 63.25,-6 63.25,-26"/>
<text text-anchor="middle" x="31.62" y="-12.5" font-family="Helvetica,sans-Serif" font-size="10.00">java.io.File</text>
</a>
</g>
</g>
<!-- Node1&#45;&gt;Node2 -->
<g id="edge1_Node000001_Node000002" class="edge">
<title>Node1&#45;&gt;Node2</title>
<g id="a_edge1_Node000001_Node000002"><a xlink:title=" ">
<path fill="none" stroke="#63b8ff" d="M535.25,-86.83C430.31,-82.49 234.79,-69.65 72.62,-32 70.17,-31.43 67.65,-30.75 65.14,-30.01"/>
<polygon fill="#63b8ff" stroke="#63b8ff" points="66.34,-26.72 55.75,-26.9 64.14,-33.36 66.34,-26.72"/>
</a>
</g>
</g>
<!-- Node3 -->
<g id="Node000003" class="node">
<title>Node3</title>
<g id="a_Node000003"><a xlink:title=" ">
<polygon fill="#e0e0e0" stroke="#999999" points="167.88,-26 81.38,-26 81.38,-6 167.88,-6 167.88,-26"/>
<text text-anchor="middle" x="124.62" y="-12.5" font-family="Helvetica,sans-Serif" font-size="10.00">java.util.Objects</text>
</a>
</g>
</g>
<!-- Node1&#45;&gt;Node3 -->
<g id="edge2_Node000001_Node000003" class="edge">
<title>Node1&#45;&gt;Node3</title>
<g id="a_edge2_Node000001_Node000003"><a xlink:title=" ">
<path fill="none" stroke="#63b8ff" d="M535.17,-82.56C448.14,-74.33 301.05,-57.96 176.62,-32 173.04,-31.25 169.34,-30.38 165.64,-29.45"/>
<polygon fill="#63b8ff" stroke="#63b8ff" points="166.71,-26.11 156.14,-26.89 164.89,-32.87 166.71,-26.11"/>
</a>
</g>
</g>
<!-- Node4 -->
<g id="Node000004" class="node">
<title>Node4</title>
<g id="a_Node000004"><a xlink:title=" ">
<polygon fill="#e0e0e0" stroke="#999999" points="321.25,-26 186,-26 186,-6 321.25,-6 321.25,-26"/>
<text text-anchor="middle" x="253.62" y="-12.5" font-family="Helvetica,sans-Serif" font-size="10.00">java.util.function.Consumer</text>
</a>
</g>
</g>
<!-- Node1&#45;&gt;Node4 -->
<g id="edge3_Node000001_Node000004" class="edge">
<title>Node1&#45;&gt;Node4</title>
<g id="a_edge3_Node000001_Node000004"><a xlink:title=" ">
<path fill="none" stroke="#63b8ff" d="M535.35,-73.82C468.62,-60.36 372.57,-40.99 311.64,-28.7"/>
<polygon fill="#63b8ff" stroke="#63b8ff" points="312.66,-25.34 302.17,-26.79 311.28,-32.2 312.66,-25.34"/>
</a>
</g>
</g>
<!-- Node5 -->
<g id="Node000005" class="node">
<title>Node5</title>
<g id="a_Node000005"><a xlink:title=" ">
<polygon fill="#e0e0e0" stroke="#999999" points="467.5,-26 339.75,-26 339.75,-6 467.5,-6 467.5,-26"/>
<text text-anchor="middle" x="403.62" y="-12.5" font-family="Helvetica,sans-Serif" font-size="10.00">java.util.function.Function</text>
</a>
</g>
</g>
<!-- Node1&#45;&gt;Node5 -->
<g id="edge4_Node000001_Node000005" class="edge">
<title>Node1&#45;&gt;Node5</title>
<g id="a_edge4_Node000001_Node000005"><a xlink:title=" ">
<path fill="none" stroke="#63b8ff" d="M549.08,-67.59C514.21,-55.46 471.68,-40.67 441.65,-30.22"/>
<polygon fill="#63b8ff" stroke="#63b8ff" points="442.81,-26.92 432.22,-26.95 440.51,-33.54 442.81,-26.92"/>
</a>
</g>
</g>
<!-- Node6 -->
<g id="Node000006" class="node">
<title>Node6</title>
<g id="a_Node000006"><a xlink:title=" ">
<polygon fill="#e0e0e0" stroke="#999999" points="600.12,-26 485.12,-26 485.12,-6 600.12,-6 600.12,-26"/>
<text text-anchor="middle" x="542.62" y="-12.5" font-family="Helvetica,sans-Serif" font-size="10.00">javafx.concurrent.Task</text>
</a>
</g>
</g>
<!-- Node1&#45;&gt;Node6 -->
<g id="edge5_Node000001_Node000006" class="edge">
<title>Node1&#45;&gt;Node6</title>
<g id="a_edge5_Node000001_Node000006"><a xlink:title=" ">
<path fill="none" stroke="#63b8ff" d="M590.59,-67.79C580.63,-57.24 568.74,-44.65 559.29,-34.64"/>
<polygon fill="#63b8ff" stroke="#63b8ff" points="561.87,-32.28 552.46,-27.41 556.78,-37.09 561.87,-32.28"/>
</a>
</g>
</g>
<!-- Node7 -->
<g id="Node000007" class="node">
<title>Node7</title>
<g id="a_Node000007"><a xlink:title=" ">
<polygon fill="#e0e0e0" stroke="#999999" points="739.5,-32 617.75,-32 617.75,0 739.5,0 739.5,-32"/>
<text text-anchor="start" x="625.75" y="-18.5" font-family="Helvetica,sans-Serif" font-size="10.00">org.jspecify.annotations.</text>
<text text-anchor="middle" x="678.62" y="-6.5" font-family="Helvetica,sans-Serif" font-size="10.00">NonNull</text>
</a>
</g>
</g>
<!-- Node1&#45;&gt;Node7 -->
<g id="edge6_Node000001_Node000007" class="edge">
<title>Node1&#45;&gt;Node7</title>
<g id="a_edge6_Node000001_Node000007"><a xlink:title=" ">
<path fill="none" stroke="#63b8ff" d="M630.66,-67.79C638.77,-59.2 648.16,-49.26 656.47,-40.45"/>
<polygon fill="#63b8ff" stroke="#63b8ff" points="658.98,-42.9 663.3,-33.23 653.89,-38.09 658.98,-42.9"/>
</a>
</g>
</g>
<!-- Node8 -->
<g id="Node000008" class="node">
<title>Node8</title>
<g id="a_Node000008"><a xlink:title=" ">
<polygon fill="#e0e0e0" stroke="#999999" points="840,-26 757.25,-26 757.25,-6 840,-6 840,-26"/>
<text text-anchor="middle" x="798.62" y="-12.5" font-family="Helvetica,sans-Serif" font-size="10.00">org.slf4j.Logger</text>
</a>
</g>
</g>
<!-- Node1&#45;&gt;Node8 -->
<g id="edge7_Node000001_Node000008" class="edge">
<title>Node1&#45;&gt;Node8</title>
<g id="a_edge7_Node000001_Node000008"><a xlink:title=" ">
<path fill="none" stroke="#63b8ff" d="M666.52,-67.59C697.92,-55.57 736.13,-40.93 763.37,-30.5"/>
<polygon fill="#63b8ff" stroke="#63b8ff" points="764.46,-33.83 772.54,-26.99 761.95,-27.3 764.46,-33.83"/>
</a>
</g>
</g>
<!-- Node9 -->
<g id="Node000009" class="node">
<title>Node9</title>
<g id="a_Node000009"><a xlink:title=" ">
<polygon fill="#e0e0e0" stroke="#999999" points="973.5,-26 857.75,-26 857.75,-6 973.5,-6 973.5,-26"/>
<text text-anchor="middle" x="915.62" y="-12.5" font-family="Helvetica,sans-Serif" font-size="10.00">org.slf4j.LoggerFactory</text>
</a>
</g>
</g>
<!-- Node1&#45;&gt;Node9 -->
<g id="edge8_Node000001_Node000009" class="edge">
<title>Node1&#45;&gt;Node9</title>
<g id="a_edge8_Node000001_Node000009"><a xlink:title=" ">
<path fill="none" stroke="#63b8ff" d="M686.02,-71.2C741.66,-58.07 815.89,-40.54 864.69,-29.02"/>
<polygon fill="#63b8ff" stroke="#63b8ff" points="865.2,-32.5 874.13,-26.8 863.59,-25.69 865.2,-32.5"/>
</a>
</g>
</g>
<!-- Node10 -->
<g id="Node000010" class="node">
<title>Node10</title>
<g id="a_Node000010"><a xlink:title=" ">
<polygon fill="#e0e0e0" stroke="#999999" points="1147.75,-32 991.5,-32 991.5,0 1147.75,0 1147.75,-32"/>
<text text-anchor="start" x="999.5" y="-18.5" font-family="Helvetica,sans-Serif" font-size="10.00">org.springframework.stereotype.</text>
<text text-anchor="middle" x="1069.62" y="-6.5" font-family="Helvetica,sans-Serif" font-size="10.00">Service</text>
</a>
</g>
</g>
<!-- Node1&#45;&gt;Node10 -->
<g id="edge9_Node000001_Node000010" class="edge">
<title>Node1&#45;&gt;Node10</title>
<g id="a_edge9_Node000001_Node000010"><a xlink:title=" ">
<path fill="none" stroke="#63b8ff" d="M686.21,-77.84C758.92,-67.01 872.26,-49.88 980.27,-32.37"/>
<polygon fill="#63b8ff" stroke="#63b8ff" points="980.58,-35.86 989.89,-30.8 979.46,-28.95 980.58,-35.86"/>
</a>
</g>
</g>
<!-- Node11 -->
<g id="Node000011" class="node">
<title>Node11</title>
<g id="a_Node000011"><a xlink:title=" ">
<polygon fill="#e0e0e0" stroke="#999999" points="1353.12,-26 1166.12,-26 1166.12,-6 1353.12,-6 1353.12,-26"/>
<text text-anchor="middle" x="1259.62" y="-12.5" font-family="Helvetica,sans-Serif" font-size="10.00">fr.softsf.sudokufx.common.enums.I18n</text>
</a>
</g>
</g>
<!-- Node1&#45;&gt;Node11 -->
<g id="edge10_Node000001_Node000011" class="edge">
<title>Node1&#45;&gt;Node11</title>
<g id="a_edge10_Node000001_Node000011"><a xlink:title=" ">
<path fill="none" stroke="#63b8ff" d="M685.81,-82.13C791.19,-72.27 988.76,-52.98 1156.62,-32 1166.2,-30.8 1176.26,-29.45 1186.19,-28.07"/>
<polygon fill="#63b8ff" stroke="#63b8ff" points="1186.41,-31.57 1195.82,-26.7 1185.42,-24.64 1186.41,-31.57"/>
</a>
</g>
</g>
</g>
</svg>
