<?xml version="1.0" encoding="UTF-8" standalone="no"?>
<!DOCTYPE svg PUBLIC "-//W3C//DTD SVG 1.1//EN"
 "http://www.w3.org/Graphics/SVG/1.1/DTD/svg11.dtd">
<!-- Generated by graphviz version 12.2.1 (20241206.2353)
 -->
<!-- Title: src/main/java/fr/softsf/sudokufx/service/ui/AsyncFileProcessorService.java Pages: 1 -->
<svg width="1542pt" height="120pt"
 viewBox="0.00 0.00 1542.12 120.00" xmlns="http://www.w3.org/2000/svg" xmlns:xlink="http://www.w3.org/1999/xlink">
<g id="graph0" class="graph" transform="scale(1 1) rotate(0) translate(4 116)">
<title>src/main/java/fr/softsf/sudokufx/service/ui/AsyncFileProcessorService.java</title>
<!-- Node1 -->
<g id="Node000001" class="node">
<title>Node1</title>
<g id="a_Node000001"><a xlink:title=" ">
<polygon fill="#999999" stroke="#666666" points="753.75,-112 603.5,-112 603.5,-68 753.75,-68 753.75,-112"/>
<text text-anchor="start" x="611.5" y="-98.5" font-family="Helvetica,sans-Serif" font-size="10.00">src/main/java/fr/softsf</text>
<text text-anchor="start" x="611.5" y="-86.5" font-family="Helvetica,sans-Serif" font-size="10.00">/sudokufx/service/ui/AsyncFile</text>
<text text-anchor="middle" x="678.62" y="-74.5" font-family="Helvetica,sans-Serif" font-size="10.00">ProcessorService.java</text>
</a>
</g>
</g>
<!-- Node2 -->
<g id="Node000002" class="node">
<title>Node2</title>
<g id="a_Node000002"><a xlink:title=" ">
<polygon fill="#e0e0e0" stroke="#999999" points="63.25,-26 0,-26 0,-6 63.25,-6 63.25,-26"/>
<text text-anchor="middle" x="31.62" y="-12.5" font-family="Helvetica,sans-Serif" font-size="10.00">java.io.File</text>
</a>
</g>
</g>
<!-- Node1&#45;&gt;Node2 -->
<g id="edge1_Node000001_Node000002" class="edge">
<title>Node1&#45;&gt;Node2</title>
<g id="a_edge1_Node000001_Node000002"><a xlink:title=" ">
<path fill="none" stroke="#63b8ff" d="M603.02,-88.09C487.37,-85.32 260.22,-74.39 72.62,-32 70.16,-31.44 67.65,-30.78 65.13,-30.04"/>
<polygon fill="#63b8ff" stroke="#63b8ff" points="66.33,-26.75 55.74,-26.94 64.14,-33.4 66.33,-26.75"/>
</a>
</g>
</g>
<!-- Node3 -->
<g id="Node000003" class="node">
<title>Node3</title>
<g id="a_Node000003"><a xlink:title=" ">
<polygon fill="#e0e0e0" stroke="#999999" points="167.88,-26 81.38,-26 81.38,-6 167.88,-6 167.88,-26"/>
<text text-anchor="middle" x="124.62" y="-12.5" font-family="Helvetica,sans-Serif" font-size="10.00">java.util.Objects</text>
</a>
</g>
</g>
<!-- Node1&#45;&gt;Node3 -->
<g id="edge2_Node000001_Node000003" class="edge">
<title>Node1&#45;&gt;Node3</title>
<g id="a_edge2_Node000001_Node000003"><a xlink:title=" ">
<path fill="none" stroke="#63b8ff" d="M603.17,-84.39C504.42,-77.46 326.29,-61.86 176.62,-32 172.82,-31.24 168.9,-30.34 164.99,-29.36"/>
<polygon fill="#63b8ff" stroke="#63b8ff" points="166.14,-26.04 155.57,-26.83 164.32,-32.8 166.14,-26.04"/>
</a>
</g>
</g>
<!-- Node4 -->
<g id="Node000004" class="node">
<title>Node4</title>
<g id="a_Node000004"><a xlink:title=" ">
<polygon fill="#e0e0e0" stroke="#999999" points="321.25,-26 186,-26 186,-6 321.25,-6 321.25,-26"/>
<text text-anchor="middle" x="253.62" y="-12.5" font-family="Helvetica,sans-Serif" font-size="10.00">java.util.function.Consumer</text>
</a>
</g>
</g>
<!-- Node1&#45;&gt;Node4 -->
<g id="edge3_Node000001_Node000004" class="edge">
<title>Node1&#45;&gt;Node4</title>
<g id="a_edge3_Node000001_Node000004"><a xlink:title=" ">
<path fill="none" stroke="#63b8ff" d="M603.16,-77.31C532.6,-66.22 424.33,-48.8 330.62,-32 324.59,-30.92 318.3,-29.75 312.03,-28.57"/>
<polygon fill="#63b8ff" stroke="#63b8ff" points="312.79,-25.15 302.31,-26.71 311.47,-32.03 312.79,-25.15"/>
</a>
</g>
</g>
<!-- Node5 -->
<g id="Node000005" class="node">
<title>Node5</title>
<g id="a_Node000005"><a xlink:title=" ">
<polygon fill="#e0e0e0" stroke="#999999" points="467.5,-26 339.75,-26 339.75,-6 467.5,-6 467.5,-26"/>
<text text-anchor="middle" x="403.62" y="-12.5" font-family="Helvetica,sans-Serif" font-size="10.00">java.util.function.Function</text>
</a>
</g>
</g>
<!-- Node1&#45;&gt;Node5 -->
<g id="edge4_Node000001_Node000005" class="edge">
<title>Node1&#45;&gt;Node5</title>
<g id="a_edge4_Node000001_Node000005"><a xlink:title=" ">
<path fill="none" stroke="#63b8ff" d="M603.12,-69.23C554.32,-56.46 492.36,-40.23 450.54,-29.28"/>
<polygon fill="#63b8ff" stroke="#63b8ff" points="451.59,-25.94 441.03,-26.79 449.82,-32.71 451.59,-25.94"/>
</a>
</g>
</g>
<!-- Node6 -->
<g id="Node000006" class="node">
<title>Node6</title>
<g id="a_Node000006"><a xlink:title=" ">
<polygon fill="#e0e0e0" stroke="#999999" points="600.12,-26 485.12,-26 485.12,-6 600.12,-6 600.12,-26"/>
<text text-anchor="middle" x="542.62" y="-12.5" font-family="Helvetica,sans-Serif" font-size="10.00">javafx.concurrent.Task</text>
</a>
</g>
</g>
<!-- Node1&#45;&gt;Node6 -->
<g id="edge5_Node000001_Node000006" class="edge">
<title>Node1&#45;&gt;Node6</title>
<g id="a_edge5_Node000001_Node000006"><a xlink:title=" ">
<path fill="none" stroke="#63b8ff" d="M638.19,-67.59C616.39,-56.05 590.04,-42.1 570.53,-31.77"/>
<polygon fill="#63b8ff" stroke="#63b8ff" points="572.28,-28.74 561.81,-27.16 569.01,-34.93 572.28,-28.74"/>
</a>
</g>
</g>
<!-- Node7 -->
<g id="Node000007" class="node">
<title>Node7</title>
<g id="a_Node000007"><a xlink:title=" ">
<polygon fill="#e0e0e0" stroke="#999999" points="739.5,-32 617.75,-32 617.75,0 739.5,0 739.5,-32"/>
<text text-anchor="start" x="625.75" y="-18.5" font-family="Helvetica,sans-Serif" font-size="10.00">org.jspecify.annotations.</text>
<text text-anchor="middle" x="678.62" y="-6.5" font-family="Helvetica,sans-Serif" font-size="10.00">NonNull</text>
</a>
</g>
</g>
<!-- Node1&#45;&gt;Node7 -->
<g id="edge6_Node000001_Node000007" class="edge">
<title>Node1&#45;&gt;Node7</title>
<g id="a_edge6_Node000001_Node000007"><a xlink:title=" ">
<path fill="none" stroke="#63b8ff" d="M678.62,-67.79C678.62,-60.18 678.62,-51.52 678.62,-43.52"/>
<polygon fill="#63b8ff" stroke="#63b8ff" points="682.13,-43.64 678.63,-33.64 675.13,-43.64 682.13,-43.64"/>
</a>
</g>
</g>
<!-- Node8 -->
<g id="Node000008" class="node">
<title>Node8</title>
<g id="a_Node000008"><a xlink:title=" ">
<polygon fill="#e0e0e0" stroke="#999999" points="840,-26 757.25,-26 757.25,-6 840,-6 840,-26"/>
<text text-anchor="middle" x="798.62" y="-12.5" font-family="Helvetica,sans-Serif" font-size="10.00">org.slf4j.Logger</text>
</a>
</g>
</g>
<!-- Node1&#45;&gt;Node8 -->
<g id="edge7_Node000001_Node000008" class="edge">
<title>Node1&#45;&gt;Node8</title>
<g id="a_edge7_Node000001_Node000008"><a xlink:title=" ">
<path fill="none" stroke="#63b8ff" d="M714.3,-67.59C733.18,-56.26 755.93,-42.62 773.04,-32.35"/>
<polygon fill="#63b8ff" stroke="#63b8ff" points="774.81,-35.37 781.58,-27.23 771.2,-29.37 774.81,-35.37"/>
</a>
</g>
</g>
<!-- Node9 -->
<g id="Node000009" class="node">
<title>Node9</title>
<g id="a_Node000009"><a xlink:title=" ">
<polygon fill="#e0e0e0" stroke="#999999" points="973.5,-26 857.75,-26 857.75,-6 973.5,-6 973.5,-26"/>
<text text-anchor="middle" x="915.62" y="-12.5" font-family="Helvetica,sans-Serif" font-size="10.00">org.slf4j.LoggerFactory</text>
</a>
</g>
</g>
<!-- Node1&#45;&gt;Node9 -->
<g id="edge8_Node000001_Node000009" class="edge">
<title>Node1&#45;&gt;Node9</title>
<g id="a_edge8_Node000001_Node000009"><a xlink:title=" ">
<path fill="none" stroke="#63b8ff" d="M749.09,-67.59C789.72,-55.25 839.42,-40.15 873.9,-29.68"/>
<polygon fill="#63b8ff" stroke="#63b8ff" points="874.53,-33.14 883.08,-26.89 872.49,-26.45 874.53,-33.14"/>
</a>
</g>
</g>
<!-- Node10 -->
<g id="Node000010" class="node">
<title>Node10</title>
<g id="a_Node000010"><a xlink:title=" ">
<polygon fill="#e0e0e0" stroke="#999999" points="1147.75,-32 991.5,-32 991.5,0 1147.75,0 1147.75,-32"/>
<text text-anchor="start" x="999.5" y="-18.5" font-family="Helvetica,sans-Serif" font-size="10.00">org.springframework.stereotype.</text>
<text text-anchor="middle" x="1069.62" y="-6.5" font-family="Helvetica,sans-Serif" font-size="10.00">Service</text>
</a>
</g>
</g>
<!-- Node1&#45;&gt;Node10 -->
<g id="edge9_Node000001_Node000010" class="edge">
<title>Node1&#45;&gt;Node10</title>
<g id="a_edge9_Node000001_Node000010"><a xlink:title=" ">
<path fill="none" stroke="#63b8ff" d="M754.01,-75.12C818.55,-63.23 911.59,-46.1 979.94,-33.51"/>
<polygon fill="#63b8ff" stroke="#63b8ff" points="980.43,-36.98 989.63,-31.73 979.16,-30.1 980.43,-36.98"/>
</a>
</g>
</g>
<!-- Node11 -->
<g id="Node000011" class="node">
<title>Node11</title>
<g id="a_Node000011"><a xlink:title=" ">
<polygon fill="#e0e0e0" stroke="#999999" points="1329.12,-32 1166.12,-32 1166.12,0 1329.12,0 1329.12,-32"/>
<text text-anchor="start" x="1174.12" y="-18.5" font-family="Helvetica,sans-Serif" font-size="10.00">edu.umd.cs.findbugs.annotations.</text>
<text text-anchor="middle" x="1247.62" y="-6.5" font-family="Helvetica,sans-Serif" font-size="10.00">SuppressFBWarnings</text>
</a>
</g>
</g>
<!-- Node1&#45;&gt;Node11 -->
<g id="edge10_Node000001_Node000011" class="edge">
<title>Node1&#45;&gt;Node11</title>
<g id="a_edge10_Node000001_Node000011"><a xlink:title=" ">
<path fill="none" stroke="#63b8ff" d="M754.1,-81.05C846.12,-71.13 1006.64,-53.06 1154.71,-32.23"/>
<polygon fill="#63b8ff" stroke="#63b8ff" points="1154.89,-35.74 1164.3,-30.88 1153.91,-28.81 1154.89,-35.74"/>
</a>
</g>
</g>
<!-- Node12 -->
<g id="Node000012" class="node">
<title>Node12</title>
<g id="a_Node000012"><a xlink:title=" ">
<polygon fill="#e0e0e0" stroke="#999999" points="1534.12,-26 1347.12,-26 1347.12,-6 1534.12,-6 1534.12,-26"/>
<text text-anchor="middle" x="1440.62" y="-12.5" font-family="Helvetica,sans-Serif" font-size="10.00">fr.softsf.sudokufx.common.enums.I18n</text>
</a>
</g>
</g>
<!-- Node1&#45;&gt;Node12 -->
<g id="edge11_Node000001_Node000012" class="edge">
<title>Node1&#45;&gt;Node12</title>
<g id="a_edge11_Node000001_Node000012"><a xlink:title=" ">
<path fill="none" stroke="#63b8ff" d="M754,-83.97C876.73,-75.44 1127.29,-56.64 1338.62,-32 1348.44,-30.86 1358.77,-29.51 1368.93,-28.09"/>
<polygon fill="#63b8ff" stroke="#63b8ff" points="1369.39,-31.57 1378.8,-26.69 1368.41,-24.63 1369.39,-31.57"/>
</a>
</g>
</g>
</g>
</svg>
