<?xml version="1.0" encoding="UTF-8" standalone="no"?>
<!DOCTYPE svg PUBLIC "-//W3C//DTD SVG 1.1//EN"
 "http://www.w3.org/Graphics/SVG/1.1/DTD/svg11.dtd">
<!-- Generated by graphviz version 12.2.1 (20241206.2353)
 -->
<!-- Title: src/main/java/fr/softsf/sudokufx/benchmark/BenchGridMaster.java Pages: 1 -->
<svg width="875pt" height="120pt"
 viewBox="0.00 0.00 874.50 120.00" xmlns="http://www.w3.org/2000/svg" xmlns:xlink="http://www.w3.org/1999/xlink">
<g id="graph0" class="graph" transform="scale(1 1) rotate(0) translate(4 116)">
<title>src/main/java/fr/softsf/sudokufx/benchmark/BenchGridMaster.java</title>
<!-- Node1 -->
<g id="Node000001" class="node">
<title>Node1</title>
<g id="a_Node000001"><a xlink:title=" ">
<polygon fill="#999999" stroke="#666666" points="478.88,-112 320.38,-112 320.38,-68 478.88,-68 478.88,-112"/>
<text text-anchor="start" x="328.38" y="-98.5" font-family="Helvetica,sans-Serif" font-size="10.00">src/main/java/fr/softsf</text>
<text text-anchor="start" x="328.38" y="-86.5" font-family="Helvetica,sans-Serif" font-size="10.00">/sudokufx/benchmark/BenchGrid</text>
<text text-anchor="middle" x="399.62" y="-74.5" font-family="Helvetica,sans-Serif" font-size="10.00">Master.java</text>
</a>
</g>
</g>
<!-- Node2 -->
<g id="Node000002" class="node">
<title>Node2</title>
<g id="a_Node000002"><a xlink:title=" ">
<polygon fill="#e0e0e0" stroke="#999999" points="81.25,-26 0,-26 0,-6 81.25,-6 81.25,-26"/>
<text text-anchor="middle" x="40.62" y="-12.5" font-family="Helvetica,sans-Serif" font-size="10.00">java.util.Arrays</text>
</a>
</g>
</g>
<!-- Node1&#45;&gt;Node2 -->
<g id="edge1_Node000001_Node000002" class="edge">
<title>Node1&#45;&gt;Node2</title>
<g id="a_edge1_Node000001_Node000002"><a xlink:title=" ">
<path fill="none" stroke="#63b8ff" d="M320.09,-76.97C257.15,-66.82 167.24,-50.95 89.62,-32 86.65,-31.27 83.59,-30.47 80.52,-29.63"/>
<polygon fill="#63b8ff" stroke="#63b8ff" points="81.52,-26.27 70.95,-26.86 79.58,-33 81.52,-26.27"/>
</a>
</g>
</g>
<!-- Node3 -->
<g id="Node000003" class="node">
<title>Node3</title>
<g id="a_Node000003"><a xlink:title=" ">
<polygon fill="#e0e0e0" stroke="#999999" points="240.25,-26 99,-26 99,-6 240.25,-6 240.25,-26"/>
<text text-anchor="middle" x="169.62" y="-12.5" font-family="Helvetica,sans-Serif" font-size="10.00">java.util.concurrent.TimeUnit</text>
</a>
</g>
</g>
<!-- Node1&#45;&gt;Node3 -->
<g id="edge2_Node000001_Node000003" class="edge">
<title>Node1&#45;&gt;Node3</title>
<g id="a_edge2_Node000001_Node000003"><a xlink:title=" ">
<path fill="none" stroke="#63b8ff" d="M331.24,-67.59C291.98,-55.3 244,-40.28 210.56,-29.81"/>
<polygon fill="#63b8ff" stroke="#63b8ff" points="211.84,-26.55 201.25,-26.9 209.75,-33.23 211.84,-26.55"/>
</a>
</g>
</g>
<!-- Node4 -->
<g id="Node000004" class="node">
<title>Node4</title>
<g id="a_Node000004"><a xlink:title=" ">
<polygon fill="#e0e0e0" stroke="#999999" points="386.88,-26 258.38,-26 258.38,-6 386.88,-6 386.88,-26"/>
<text text-anchor="middle" x="322.62" y="-12.5" font-family="Helvetica,sans-Serif" font-size="10.00">java.util.stream.IntStream</text>
</a>
</g>
</g>
<!-- Node1&#45;&gt;Node4 -->
<g id="edge3_Node000001_Node000004" class="edge">
<title>Node1&#45;&gt;Node4</title>
<g id="a_edge3_Node000001_Node000004"><a xlink:title=" ">
<path fill="none" stroke="#63b8ff" d="M376.94,-67.79C365.43,-57.03 351.65,-44.14 340.84,-34.03"/>
<polygon fill="#63b8ff" stroke="#63b8ff" points="343.38,-31.62 333.69,-27.35 338.6,-36.73 343.38,-31.62"/>
</a>
</g>
</g>
<!-- Node5 -->
<g id="Node000005" class="node">
<title>Node5</title>
<g id="a_Node000005"><a xlink:title=" ">
<polygon fill="#e0e0e0" stroke="#999999" points="550.12,-26 405.12,-26 405.12,-6 550.12,-6 550.12,-26"/>
<text text-anchor="middle" x="477.62" y="-12.5" font-family="Helvetica,sans-Serif" font-size="10.00">org.openjdk.jmh.annotations.*</text>
</a>
</g>
</g>
<!-- Node1&#45;&gt;Node5 -->
<g id="edge4_Node000001_Node000005" class="edge">
<title>Node1&#45;&gt;Node5</title>
<g id="a_edge4_Node000001_Node000005"><a xlink:title=" ">
<path fill="none" stroke="#63b8ff" d="M422.61,-67.79C434.26,-57.03 448.23,-44.14 459.17,-34.03"/>
<polygon fill="#63b8ff" stroke="#63b8ff" points="461.45,-36.69 466.43,-27.34 456.7,-31.55 461.45,-36.69"/>
</a>
</g>
</g>
<!-- Node6 -->
<g id="Node000006" class="node">
<title>Node6</title>
<g id="a_Node000006"><a xlink:title=" ">
<polygon fill="#e0e0e0" stroke="#999999" points="720.88,-26 568.38,-26 568.38,-6 720.88,-6 720.88,-26"/>
<text text-anchor="middle" x="644.62" y="-12.5" font-family="Helvetica,sans-Serif" font-size="10.00">org.openjdk.jmh.infra.Blackhole</text>
</a>
</g>
</g>
<!-- Node1&#45;&gt;Node6 -->
<g id="edge5_Node000001_Node000006" class="edge">
<title>Node1&#45;&gt;Node6</title>
<g id="a_edge5_Node000001_Node000006"><a xlink:title=" ">
<path fill="none" stroke="#63b8ff" d="M472.47,-67.59C514.47,-55.25 565.85,-40.15 601.49,-29.68"/>
<polygon fill="#63b8ff" stroke="#63b8ff" points="602.42,-33.05 611.02,-26.87 600.44,-26.34 602.42,-33.05"/>
</a>
</g>
</g>
<!-- Node7 -->
<g id="Node000007" class="node">
<title>Node7</title>
<g id="a_Node000007"><a xlink:title=" ">
<polygon fill="#e0e0e0" stroke="#999999" points="866.5,-32 738.75,-32 738.75,0 866.5,0 866.5,-32"/>
<text text-anchor="start" x="746.75" y="-18.5" font-family="Helvetica,sans-Serif" font-size="10.00">fr.softsf.sudokufx.enums.</text>
<text text-anchor="middle" x="802.62" y="-6.5" font-family="Helvetica,sans-Serif" font-size="10.00">SecureRandomGenerator</text>
</a>
</g>
</g>
<!-- Node1&#45;&gt;Node7 -->
<g id="edge6_Node000001_Node000007" class="edge">
<title>Node1&#45;&gt;Node7</title>
<g id="a_edge6_Node000001_Node000007"><a xlink:title=" ">
<path fill="none" stroke="#63b8ff" d="M479.1,-76C543.41,-65.31 636.59,-49.44 727.48,-32.37"/>
<polygon fill="#63b8ff" stroke="#63b8ff" points="727.89,-35.86 737.07,-30.57 726.59,-28.98 727.89,-35.86"/>
</a>
</g>
</g>
</g>
</svg>
