<?xml version="1.0" encoding="UTF-8" standalone="no"?>
<!DOCTYPE svg PUBLIC "-//W3C//DTD SVG 1.1//EN"
 "http://www.w3.org/Graphics/SVG/1.1/DTD/svg11.dtd">
<!-- Generated by graphviz version 12.2.1 (20241206.2353)
 -->
<!-- Title: src/main/java/fr/softsf/sudokufx/benchmark/BenchGridMaster.java Pages: 1 -->
<svg width="874pt" height="120pt"
 viewBox="0.00 0.00 874.12 120.00" xmlns="http://www.w3.org/2000/svg" xmlns:xlink="http://www.w3.org/1999/xlink">
<g id="graph0" class="graph" transform="scale(1 1) rotate(0) translate(4 116)">
<title>src/main/java/fr/softsf/sudokufx/benchmark/BenchGridMaster.java</title>
<!-- Node1 -->
<g id="Node000001" class="node">
<title>Node1</title>
<g id="a_Node000001"><a xlink:title=" ">
<polygon fill="#999999" stroke="#666666" points="531.12,-112 372.62,-112 372.62,-68 531.12,-68 531.12,-112"/>
<text text-anchor="start" x="380.62" y="-98.5" font-family="Helvetica,sans-Serif" font-size="10.00">src/main/java/fr/softsf</text>
<text text-anchor="start" x="380.62" y="-86.5" font-family="Helvetica,sans-Serif" font-size="10.00">/sudokufx/benchmark/BenchGrid</text>
<text text-anchor="middle" x="451.88" y="-74.5" font-family="Helvetica,sans-Serif" font-size="10.00">Master.java</text>
</a>
</g>
</g>
<!-- Node2 -->
<g id="Node000002" class="node">
<title>Node2</title>
<g id="a_Node000002"><a xlink:title=" ">
<polygon fill="#e0e0e0" stroke="#999999" points="127.75,-32 0,-32 0,0 127.75,0 127.75,-32"/>
<text text-anchor="start" x="8" y="-18.5" font-family="Helvetica,sans-Serif" font-size="10.00">fr.softsf.sudokufx.enums.</text>
<text text-anchor="middle" x="63.88" y="-6.5" font-family="Helvetica,sans-Serif" font-size="10.00">SecureRandomGenerator</text>
</a>
</g>
</g>
<!-- Node1&#45;&gt;Node2 -->
<g id="edge1_Node000001_Node000002" class="edge">
<title>Node1&#45;&gt;Node2</title>
<g id="a_edge1_Node000001_Node000002"><a xlink:title=" ">
<path fill="none" stroke="#63b8ff" d="M372.22,-75.24C310.94,-64.52 223.86,-48.98 139.33,-32.65"/>
<polygon fill="#63b8ff" stroke="#63b8ff" points="140.2,-29.25 129.72,-30.79 138.87,-36.12 140.2,-29.25"/>
</a>
</g>
</g>
<!-- Node3 -->
<g id="Node000003" class="node">
<title>Node3</title>
<g id="a_Node000003"><a xlink:title=" ">
<polygon fill="#e0e0e0" stroke="#999999" points="290.38,-26 145.38,-26 145.38,-6 290.38,-6 290.38,-26"/>
<text text-anchor="middle" x="217.88" y="-12.5" font-family="Helvetica,sans-Serif" font-size="10.00">org.openjdk.jmh.annotations.*</text>
</a>
</g>
</g>
<!-- Node1&#45;&gt;Node3 -->
<g id="edge2_Node000001_Node000003" class="edge">
<title>Node1&#45;&gt;Node3</title>
<g id="a_edge2_Node000001_Node000003"><a xlink:title=" ">
<path fill="none" stroke="#63b8ff" d="M382.3,-67.59C342.36,-55.3 293.54,-40.28 259.52,-29.81"/>
<polygon fill="#63b8ff" stroke="#63b8ff" points="260.61,-26.49 250.03,-26.89 258.56,-33.18 260.61,-26.49"/>
</a>
</g>
</g>
<!-- Node4 -->
<g id="Node000004" class="node">
<title>Node4</title>
<g id="a_Node000004"><a xlink:title=" ">
<polygon fill="#e0e0e0" stroke="#999999" points="461.12,-26 308.62,-26 308.62,-6 461.12,-6 461.12,-26"/>
<text text-anchor="middle" x="384.88" y="-12.5" font-family="Helvetica,sans-Serif" font-size="10.00">org.openjdk.jmh.infra.Blackhole</text>
</a>
</g>
</g>
<!-- Node1&#45;&gt;Node4 -->
<g id="edge3_Node000001_Node000004" class="edge">
<title>Node1&#45;&gt;Node4</title>
<g id="a_edge3_Node000001_Node000004"><a xlink:title=" ">
<path fill="none" stroke="#63b8ff" d="M432.14,-67.79C422.32,-57.24 410.61,-44.65 401.29,-34.64"/>
<polygon fill="#63b8ff" stroke="#63b8ff" points="403.95,-32.36 394.57,-27.42 398.82,-37.12 403.95,-32.36"/>
</a>
</g>
</g>
<!-- Node5 -->
<g id="Node000005" class="node">
<title>Node5</title>
<g id="a_Node000005"><a xlink:title=" ">
<polygon fill="#e0e0e0" stroke="#999999" points="560.5,-26 479.25,-26 479.25,-6 560.5,-6 560.5,-26"/>
<text text-anchor="middle" x="519.88" y="-12.5" font-family="Helvetica,sans-Serif" font-size="10.00">java.util.Arrays</text>
</a>
</g>
</g>
<!-- Node1&#45;&gt;Node5 -->
<g id="edge4_Node000001_Node000005" class="edge">
<title>Node1&#45;&gt;Node5</title>
<g id="a_edge4_Node000001_Node000005"><a xlink:title=" ">
<path fill="none" stroke="#63b8ff" d="M471.91,-67.79C481.87,-57.24 493.76,-44.65 503.21,-34.64"/>
<polygon fill="#63b8ff" stroke="#63b8ff" points="505.72,-37.09 510.04,-27.41 500.63,-32.28 505.72,-37.09"/>
</a>
</g>
</g>
<!-- Node6 -->
<g id="Node000006" class="node">
<title>Node6</title>
<g id="a_Node000006"><a xlink:title=" ">
<polygon fill="#e0e0e0" stroke="#999999" points="719.5,-26 578.25,-26 578.25,-6 719.5,-6 719.5,-26"/>
<text text-anchor="middle" x="648.88" y="-12.5" font-family="Helvetica,sans-Serif" font-size="10.00">java.util.concurrent.TimeUnit</text>
</a>
</g>
</g>
<!-- Node1&#45;&gt;Node6 -->
<g id="edge5_Node000001_Node000006" class="edge">
<title>Node1&#45;&gt;Node6</title>
<g id="a_edge5_Node000001_Node000006"><a xlink:title=" ">
<path fill="none" stroke="#63b8ff" d="M510.45,-67.59C543.49,-55.52 583.75,-40.8 612.31,-30.36"/>
<polygon fill="#63b8ff" stroke="#63b8ff" points="613.41,-33.69 621.6,-26.97 611.01,-27.11 613.41,-33.69"/>
</a>
</g>
</g>
<!-- Node7 -->
<g id="Node000007" class="node">
<title>Node7</title>
<g id="a_Node000007"><a xlink:title=" ">
<polygon fill="#e0e0e0" stroke="#999999" points="866.12,-26 737.62,-26 737.62,-6 866.12,-6 866.12,-26"/>
<text text-anchor="middle" x="801.88" y="-12.5" font-family="Helvetica,sans-Serif" font-size="10.00">java.util.stream.IntStream</text>
</a>
</g>
</g>
<!-- Node1&#45;&gt;Node7 -->
<g id="edge6_Node000001_Node000007" class="edge">
<title>Node1&#45;&gt;Node7</title>
<g id="a_edge6_Node000001_Node000007"><a xlink:title=" ">
<path fill="none" stroke="#63b8ff" d="M531.3,-72.66C596.25,-59.3 686.53,-40.73 744.59,-28.78"/>
<polygon fill="#63b8ff" stroke="#63b8ff" points="745.19,-32.24 754.27,-26.79 743.77,-25.38 745.19,-32.24"/>
</a>
</g>
</g>
</g>
</svg>
