<?xml version="1.0" encoding="UTF-8" standalone="no"?>
<!DOCTYPE svg PUBLIC "-//W3C//DTD SVG 1.1//EN"
 "http://www.w3.org/Graphics/SVG/1.1/DTD/svg11.dtd">
<!-- Generated by graphviz version 12.2.1 (20241206.2353)
 -->
<!-- Title: src/main/java/fr/softsf/sudokufx/navigation/Coordinator.java Pages: 1 -->
<svg width="4007pt" height="108pt"
 viewBox="0.00 0.00 4007.38 108.00" xmlns="http://www.w3.org/2000/svg" xmlns:xlink="http://www.w3.org/1999/xlink">
<g id="graph0" class="graph" transform="scale(1 1) rotate(0) translate(4 104)">
<title>src/main/java/fr/softsf/sudokufx/navigation/Coordinator.java</title>
<!-- Node1 -->
<g id="Node000001" class="node">
<title>Node1</title>
<g id="a_Node000001"><a xlink:title=" ">
<polygon fill="#999999" stroke="#666666" points="1896.38,-100 1716.12,-100 1716.12,-68 1896.38,-68 1896.38,-100"/>
<text text-anchor="start" x="1724.12" y="-86.5" font-family="Helvetica,sans-Serif" font-size="10.00">src/main/java/fr/softsf</text>
<text text-anchor="middle" x="1806.25" y="-74.5" font-family="Helvetica,sans-Serif" font-size="10.00">/sudokufx/navigation/Coordinator.java</text>
</a>
</g>
</g>
<!-- Node2 -->
<g id="Node000002" class="node">
<title>Node2</title>
<g id="a_Node000002"><a xlink:title=" ">
<polygon fill="#e0e0e0" stroke="#999999" points="86.5,-26 0,-26 0,-6 86.5,-6 86.5,-26"/>
<text text-anchor="middle" x="43.25" y="-12.5" font-family="Helvetica,sans-Serif" font-size="10.00">java.util.Objects</text>
</a>
</g>
</g>
<!-- Node1&#45;&gt;Node2 -->
<g id="edge1_Node000001_Node000002" class="edge">
<title>Node1&#45;&gt;Node2</title>
<g id="a_edge1_Node000001_Node000002"><a xlink:title=" ">
<path fill="none" stroke="#63b8ff" d="M1715.88,-83.29C1409.53,-83.82 411.88,-81.58 95.25,-32 90.93,-31.32 86.47,-30.4 82.06,-29.34"/>
<polygon fill="#63b8ff" stroke="#63b8ff" points="83.32,-26.05 72.76,-26.87 81.53,-32.82 83.32,-26.05"/>
</a>
</g>
</g>
<!-- Node3 -->
<g id="Node000003" class="node">
<title>Node3</title>
<g id="a_Node000003"><a xlink:title=" ">
<polygon fill="#e0e0e0" stroke="#999999" points="258.25,-26 104.25,-26 104.25,-6 258.25,-6 258.25,-26"/>
<text text-anchor="middle" x="181.25" y="-12.5" font-family="Helvetica,sans-Serif" font-size="10.00">javafx.application.HostServices</text>
</a>
</g>
</g>
<!-- Node1&#45;&gt;Node3 -->
<g id="edge2_Node000001_Node000003" class="edge">
<title>Node1&#45;&gt;Node3</title>
<g id="a_edge2_Node000001_Node000003"><a xlink:title=" ">
<path fill="none" stroke="#63b8ff" d="M1715.8,-81.66C1430.38,-77.18 550.87,-61.29 267.25,-32 258.25,-31.07 248.76,-29.76 239.52,-28.29"/>
<polygon fill="#63b8ff" stroke="#63b8ff" points="240.33,-24.88 229.89,-26.69 239.18,-31.79 240.33,-24.88"/>
</a>
</g>
</g>
<!-- Node4 -->
<g id="Node000004" class="node">
<title>Node4</title>
<g id="a_Node000004"><a xlink:title=" ">
<polygon fill="#e0e0e0" stroke="#999999" points="408,-26 276.5,-26 276.5,-6 408,-6 408,-26"/>
<text text-anchor="middle" x="342.25" y="-12.5" font-family="Helvetica,sans-Serif" font-size="10.00">javafx.application.Platform</text>
</a>
</g>
</g>
<!-- Node1&#45;&gt;Node4 -->
<g id="edge3_Node000001_Node000004" class="edge">
<title>Node1&#45;&gt;Node4</title>
<g id="a_edge3_Node000001_Node000004"><a xlink:title=" ">
<path fill="none" stroke="#63b8ff" d="M1716.02,-81.58C1449.74,-77.1 670.09,-61.73 417.25,-32 409.89,-31.14 402.18,-29.93 394.62,-28.59"/>
<polygon fill="#63b8ff" stroke="#63b8ff" points="395.29,-25.15 384.81,-26.73 393.99,-32.03 395.29,-25.15"/>
</a>
</g>
</g>
<!-- Node5 -->
<g id="Node000005" class="node">
<title>Node5</title>
<g id="a_Node000005"><a xlink:title=" ">
<polygon fill="#e0e0e0" stroke="#999999" points="548.5,-26 426,-26 426,-6 548.5,-6 548.5,-26"/>
<text text-anchor="middle" x="487.25" y="-12.5" font-family="Helvetica,sans-Serif" font-size="10.00">javafx.fxml.FXMLLoader</text>
</a>
</g>
</g>
<!-- Node1&#45;&gt;Node5 -->
<g id="edge4_Node000001_Node000005" class="edge">
<title>Node1&#45;&gt;Node5</title>
<g id="a_edge4_Node000001_Node000005"><a xlink:title=" ">
<path fill="none" stroke="#63b8ff" d="M1715.94,-81.31C1468.22,-76.36 781.57,-60.4 557.25,-32 550.45,-31.14 543.34,-29.95 536.36,-28.62"/>
<polygon fill="#63b8ff" stroke="#63b8ff" points="537.54,-25.29 527.04,-26.74 536.15,-32.15 537.54,-25.29"/>
</a>
</g>
</g>
<!-- Node6 -->
<g id="Node000006" class="node">
<title>Node6</title>
<g id="a_Node000006"><a xlink:title=" ">
<polygon fill="#e0e0e0" stroke="#999999" points="668.38,-26 566.12,-26 566.12,-6 668.38,-6 668.38,-26"/>
<text text-anchor="middle" x="617.25" y="-12.5" font-family="Helvetica,sans-Serif" font-size="10.00">javafx.scene.Scene</text>
</a>
</g>
</g>
<!-- Node1&#45;&gt;Node6 -->
<g id="edge5_Node000001_Node000006" class="edge">
<title>Node1&#45;&gt;Node6</title>
<g id="a_edge5_Node000001_Node000006"><a xlink:title=" ">
<path fill="none" stroke="#63b8ff" d="M1716,-81.2C1485.24,-76.24 877.86,-60.77 678.25,-32 672.87,-31.22 667.27,-30.18 661.74,-29"/>
<polygon fill="#63b8ff" stroke="#63b8ff" points="662.58,-25.61 652.05,-26.78 661.02,-32.43 662.58,-25.61"/>
</a>
</g>
</g>
<!-- Node7 -->
<g id="Node000007" class="node">
<title>Node7</title>
<g id="a_Node000007"><a xlink:title=" ">
<polygon fill="#e0e0e0" stroke="#999999" points="769.62,-26 686.88,-26 686.88,-6 769.62,-6 769.62,-26"/>
<text text-anchor="middle" x="728.25" y="-12.5" font-family="Helvetica,sans-Serif" font-size="10.00">org.slf4j.Logger</text>
</a>
</g>
</g>
<!-- Node1&#45;&gt;Node7 -->
<g id="edge6_Node000001_Node000007" class="edge">
<title>Node1&#45;&gt;Node7</title>
<g id="a_edge6_Node000001_Node000007"><a xlink:title=" ">
<path fill="none" stroke="#63b8ff" d="M1715.69,-81.31C1499.33,-76.83 957.1,-62.8 778.25,-32 774.38,-31.33 770.39,-30.46 766.43,-29.48"/>
<polygon fill="#63b8ff" stroke="#63b8ff" points="767.5,-26.14 756.93,-26.87 765.65,-32.89 767.5,-26.14"/>
</a>
</g>
</g>
<!-- Node8 -->
<g id="Node000008" class="node">
<title>Node8</title>
<g id="a_Node000008"><a xlink:title=" ">
<polygon fill="#e0e0e0" stroke="#999999" points="903.12,-26 787.38,-26 787.38,-6 903.12,-6 903.12,-26"/>
<text text-anchor="middle" x="845.25" y="-12.5" font-family="Helvetica,sans-Serif" font-size="10.00">org.slf4j.LoggerFactory</text>
</a>
</g>
</g>
<!-- Node1&#45;&gt;Node8 -->
<g id="edge7_Node000001_Node000008" class="edge">
<title>Node1&#45;&gt;Node8</title>
<g id="a_edge7_Node000001_Node000008"><a xlink:title=" ">
<path fill="none" stroke="#63b8ff" d="M1715.89,-82.81C1553.84,-81.37 1203.48,-73.24 911.25,-32 905.21,-31.15 898.91,-30.03 892.71,-28.78"/>
<polygon fill="#63b8ff" stroke="#63b8ff" points="893.7,-25.41 883.18,-26.74 892.23,-32.26 893.7,-25.41"/>
</a>
</g>
</g>
<!-- Node9 -->
<g id="Node000009" class="node">
<title>Node9</title>
<g id="a_Node000009"><a xlink:title=" ">
<polygon fill="#e0e0e0" stroke="#999999" points="1137.75,-32 920.75,-32 920.75,0 1137.75,0 1137.75,-32"/>
<text text-anchor="start" x="928.75" y="-18.5" font-family="Helvetica,sans-Serif" font-size="10.00">org.springframework.beans.factory.annotation.</text>
<text text-anchor="middle" x="1029.25" y="-6.5" font-family="Helvetica,sans-Serif" font-size="10.00">Autowired</text>
</a>
</g>
</g>
<!-- Node1&#45;&gt;Node9 -->
<g id="edge8_Node000001_Node000009" class="edge">
<title>Node1&#45;&gt;Node9</title>
<g id="a_edge8_Node000001_Node000009"><a xlink:title=" ">
<path fill="none" stroke="#63b8ff" d="M1715.78,-77.41C1590.9,-69.38 1358.38,-53.3 1149.4,-32.19"/>
<polygon fill="#63b8ff" stroke="#63b8ff" points="1150.01,-28.73 1139.71,-31.2 1149.3,-35.7 1150.01,-28.73"/>
</a>
</g>
</g>
<!-- Node10 -->
<g id="Node000010" class="node">
<title>Node10</title>
<g id="a_Node000010"><a xlink:title=" ">
<polygon fill="#e0e0e0" stroke="#999999" points="1312.38,-32 1156.12,-32 1156.12,0 1312.38,0 1312.38,-32"/>
<text text-anchor="start" x="1164.12" y="-18.5" font-family="Helvetica,sans-Serif" font-size="10.00">org.springframework.stereotype.</text>
<text text-anchor="middle" x="1234.25" y="-6.5" font-family="Helvetica,sans-Serif" font-size="10.00">Component</text>
</a>
</g>
</g>
<!-- Node1&#45;&gt;Node10 -->
<g id="edge9_Node000001_Node000010" class="edge">
<title>Node1&#45;&gt;Node10</title>
<g id="a_edge9_Node000001_Node000010"><a xlink:title=" ">
<path fill="none" stroke="#63b8ff" d="M1715.75,-75.28C1620.65,-66.76 1466.44,-51.79 1323.61,-32.27"/>
<polygon fill="#63b8ff" stroke="#63b8ff" points="1324.35,-28.84 1313.97,-30.94 1323.39,-35.78 1324.35,-28.84"/>
</a>
</g>
</g>
<!-- Node11 -->
<g id="Node000011" class="node">
<title>Node11</title>
<g id="a_Node000011"><a xlink:title=" ">
<polygon fill="#e0e0e0" stroke="#999999" points="1517.75,-26 1330.75,-26 1330.75,-6 1517.75,-6 1517.75,-26"/>
<text text-anchor="middle" x="1424.25" y="-12.5" font-family="Helvetica,sans-Serif" font-size="10.00">fr.softsf.sudokufx.common.enums.I18n</text>
</a>
</g>
</g>
<!-- Node1&#45;&gt;Node11 -->
<g id="edge10_Node000001_Node000011" class="edge">
<title>Node1&#45;&gt;Node11</title>
<g id="a_edge10_Node000001_Node000011"><a xlink:title=" ">
<path fill="none" stroke="#63b8ff" d="M1716.69,-67.53C1647.35,-55.55 1552.88,-39.22 1490.3,-28.41"/>
<polygon fill="#63b8ff" stroke="#63b8ff" points="1490.94,-24.97 1480.49,-26.72 1489.75,-31.87 1490.94,-24.97"/>
</a>
</g>
</g>
<!-- Node12 -->
<g id="Node000012" class="node">
<title>Node12</title>
<g id="a_Node000012"><a xlink:title=" ">
<polygon fill="#e0e0e0" stroke="#999999" points="1704.38,-32 1536.12,-32 1536.12,0 1704.38,0 1704.38,-32"/>
<text text-anchor="start" x="1544.12" y="-18.5" font-family="Helvetica,sans-Serif" font-size="10.00">fr.softsf.sudokufx.common.enums.</text>
<text text-anchor="middle" x="1620.25" y="-6.5" font-family="Helvetica,sans-Serif" font-size="10.00">Paths</text>
</a>
</g>
</g>
<!-- Node1&#45;&gt;Node12 -->
<g id="edge11_Node000001_Node000012" class="edge">
<title>Node1&#45;&gt;Node12</title>
<g id="a_edge11_Node000001_Node000012"><a xlink:title=" ">
<path fill="none" stroke="#63b8ff" d="M1762.64,-67.53C1736.38,-58.21 1702.73,-46.27 1674.73,-36.33"/>
<polygon fill="#63b8ff" stroke="#63b8ff" points="1675.93,-33.04 1665.33,-33 1673.59,-39.64 1675.93,-33.04"/>
</a>
</g>
</g>
<!-- Node13 -->
<g id="Node000013" class="node">
<title>Node13</title>
<g id="a_Node000013"><a xlink:title=" ">
<polygon fill="#e0e0e0" stroke="#999999" points="1890.38,-32 1722.12,-32 1722.12,0 1890.38,0 1890.38,-32"/>
<text text-anchor="start" x="1730.12" y="-18.5" font-family="Helvetica,sans-Serif" font-size="10.00">fr.softsf.sudokufx.common.enums.</text>
<text text-anchor="middle" x="1806.25" y="-6.5" font-family="Helvetica,sans-Serif" font-size="10.00">ToastLevels</text>
</a>
</g>
</g>
<!-- Node1&#45;&gt;Node13 -->
<g id="edge12_Node000001_Node000013" class="edge">
<title>Node1&#45;&gt;Node13</title>
<g id="a_edge12_Node000001_Node000013"><a xlink:title=" ">
<path fill="none" stroke="#63b8ff" d="M1806.25,-67.69C1806.25,-60.53 1806.25,-51.79 1806.25,-43.59"/>
<polygon fill="#63b8ff" stroke="#63b8ff" points="1809.75,-43.74 1806.25,-33.74 1802.75,-43.74 1809.75,-43.74"/>
</a>
</g>
</g>
<!-- Node14 -->
<g id="Node000014" class="node">
<title>Node14</title>
<g id="a_Node000014"><a xlink:title=" ">
<polygon fill="#e0e0e0" stroke="#999999" points="2089.75,-32 1908.75,-32 1908.75,0 2089.75,0 2089.75,-32"/>
<text text-anchor="start" x="1916.75" y="-18.5" font-family="Helvetica,sans-Serif" font-size="10.00">fr.softsf.sudokufx.common.exception.</text>
<text text-anchor="middle" x="1999.25" y="-6.5" font-family="Helvetica,sans-Serif" font-size="10.00">ExceptionTools</text>
</a>
</g>
</g>
<!-- Node1&#45;&gt;Node14 -->
<g id="edge13_Node000001_Node000014" class="edge">
<title>Node1&#45;&gt;Node14</title>
<g id="a_edge13_Node000001_Node000014"><a xlink:title=" ">
<path fill="none" stroke="#63b8ff" d="M1851.5,-67.53C1878.87,-58.17 1913.98,-46.16 1943.11,-36.2"/>
<polygon fill="#63b8ff" stroke="#63b8ff" points="1944.19,-39.53 1952.52,-32.98 1941.92,-32.91 1944.19,-39.53"/>
</a>
</g>
</g>
<!-- Node15 -->
<g id="Node000015" class="node">
<title>Node15</title>
<g id="a_Node000015"><a xlink:title=" ">
<polygon fill="#e0e0e0" stroke="#999999" points="2259.12,-32 2107.38,-32 2107.38,0 2259.12,0 2259.12,-32"/>
<text text-anchor="start" x="2115.38" y="-18.5" font-family="Helvetica,sans-Serif" font-size="10.00">fr.softsf.sudokufx.common.util.</text>
<text text-anchor="middle" x="2183.25" y="-6.5" font-family="Helvetica,sans-Serif" font-size="10.00">DynamicFontSize</text>
</a>
</g>
</g>
<!-- Node1&#45;&gt;Node15 -->
<g id="edge14_Node000001_Node000015" class="edge">
<title>Node1&#45;&gt;Node15</title>
<g id="a_edge14_Node000001_Node000015"><a xlink:title=" ">
<path fill="none" stroke="#63b8ff" d="M1895.71,-67.53C1950.91,-57.97 2023.49,-45.34 2096.07,-32.56"/>
<polygon fill="#63b8ff" stroke="#63b8ff" points="2096.52,-36.03 2105.76,-30.85 2095.3,-29.14 2096.52,-36.03"/>
</a>
</g>
</g>
<!-- Node16 -->
<g id="Node000016" class="node">
<title>Node16</title>
<g id="a_Node000016"><a xlink:title=" ">
<polygon fill="#e0e0e0" stroke="#999999" points="2433,-26 2277.5,-26 2277.5,-6 2433,-6 2433,-26"/>
<text text-anchor="middle" x="2355.25" y="-12.5" font-family="Helvetica,sans-Serif" font-size="10.00">fr.softsf.sudokufx.dto.PlayerDto</text>
</a>
</g>
</g>
<!-- Node1&#45;&gt;Node16 -->
<g id="edge15_Node000001_Node000016" class="edge">
<title>Node1&#45;&gt;Node16</title>
<g id="a_edge15_Node000001_Node000016"><a xlink:title=" ">
<path fill="none" stroke="#63b8ff" d="M1896.75,-74.65C1990.04,-65.66 2139.61,-50.17 2268.25,-32 2275.99,-30.91 2284.09,-29.65 2292.11,-28.35"/>
<polygon fill="#63b8ff" stroke="#63b8ff" points="2292.56,-31.82 2301.85,-26.73 2291.41,-24.92 2292.56,-31.82"/>
</a>
</g>
</g>
<!-- Node17 -->
<g id="Node000017" class="node">
<title>Node17</title>
<g id="a_Node000017"><a xlink:title=" ">
<polygon fill="#e0e0e0" stroke="#999999" points="2591.12,-32 2451.38,-32 2451.38,0 2591.12,0 2591.12,-32"/>
<text text-anchor="start" x="2459.38" y="-18.5" font-family="Helvetica,sans-Serif" font-size="10.00">fr.softsf.sudokufx.dto.Player</text>
<text text-anchor="middle" x="2521.25" y="-6.5" font-family="Helvetica,sans-Serif" font-size="10.00">LanguageDto</text>
</a>
</g>
</g>
<!-- Node1&#45;&gt;Node17 -->
<g id="edge16_Node000001_Node000017" class="edge">
<title>Node1&#45;&gt;Node17</title>
<g id="a_edge16_Node000001_Node000017"><a xlink:title=" ">
<path fill="none" stroke="#63b8ff" d="M1896.63,-78.82C2017.94,-72.52 2240.32,-58.58 2439.81,-32.23"/>
<polygon fill="#63b8ff" stroke="#63b8ff" points="2440.15,-35.72 2449.6,-30.93 2439.23,-28.78 2440.15,-35.72"/>
</a>
</g>
</g>
<!-- Node18 -->
<g id="Node000018" class="node">
<title>Node18</title>
<g id="a_Node000018"><a xlink:title=" ">
<polygon fill="#e0e0e0" stroke="#999999" points="2781.25,-32 2609.25,-32 2609.25,0 2781.25,0 2781.25,-32"/>
<text text-anchor="start" x="2617.25" y="-18.5" font-family="Helvetica,sans-Serif" font-size="10.00">fr.softsf.sudokufx.service.business.</text>
<text text-anchor="middle" x="2695.25" y="-6.5" font-family="Helvetica,sans-Serif" font-size="10.00">PlayerLanguageService</text>
</a>
</g>
</g>
<!-- Node1&#45;&gt;Node18 -->
<g id="edge17_Node000001_Node000018" class="edge">
<title>Node1&#45;&gt;Node18</title>
<g id="a_edge17_Node000001_Node000018"><a xlink:title=" ">
<path fill="none" stroke="#63b8ff" d="M1896.69,-79.91C2042.22,-74.35 2337.57,-60.56 2597.64,-32.22"/>
<polygon fill="#63b8ff" stroke="#63b8ff" points="2597.77,-35.73 2607.32,-31.16 2597,-28.77 2597.77,-35.73"/>
</a>
</g>
</g>
<!-- Node19 -->
<g id="Node000019" class="node">
<title>Node19</title>
<g id="a_Node000019"><a xlink:title=" ">
<polygon fill="#e0e0e0" stroke="#999999" points="2971.25,-32 2799.25,-32 2799.25,0 2971.25,0 2971.25,-32"/>
<text text-anchor="start" x="2807.25" y="-18.5" font-family="Helvetica,sans-Serif" font-size="10.00">fr.softsf.sudokufx.service.business.</text>
<text text-anchor="middle" x="2885.25" y="-6.5" font-family="Helvetica,sans-Serif" font-size="10.00">PlayerService</text>
</a>
</g>
</g>
<!-- Node1&#45;&gt;Node19 -->
<g id="edge18_Node000001_Node000019" class="edge">
<title>Node1&#45;&gt;Node19</title>
<g id="a_edge18_Node000001_Node000019"><a xlink:title=" ">
<path fill="none" stroke="#63b8ff" d="M1896.71,-81.48C2068.42,-77.9 2453.54,-66.55 2787.47,-32.22"/>
<polygon fill="#63b8ff" stroke="#63b8ff" points="2787.74,-35.71 2797.33,-31.19 2787.02,-28.75 2787.74,-35.71"/>
</a>
</g>
</g>
<!-- Node20 -->
<g id="Node000020" class="node">
<title>Node20</title>
<g id="a_Node000020"><a xlink:title=" ">
<polygon fill="#e0e0e0" stroke="#999999" points="3191.25,-32 2989.25,-32 2989.25,0 3191.25,0 3191.25,-32"/>
<text text-anchor="start" x="2997.25" y="-18.5" font-family="Helvetica,sans-Serif" font-size="10.00">fr.softsf.sudokufx.view.component.toaster.</text>
<text text-anchor="middle" x="3090.25" y="-6.5" font-family="Helvetica,sans-Serif" font-size="10.00">ToasterVBox</text>
</a>
</g>
</g>
<!-- Node1&#45;&gt;Node20 -->
<g id="edge19_Node000001_Node000020" class="edge">
<title>Node1&#45;&gt;Node20</title>
<g id="a_edge19_Node000001_Node000020"><a xlink:title=" ">
<path fill="none" stroke="#63b8ff" d="M1896.65,-81.91C2092.04,-78.93 2568.45,-68.35 2977.82,-32.16"/>
<polygon fill="#63b8ff" stroke="#63b8ff" points="2977.84,-35.67 2987.49,-31.3 2977.22,-28.7 2977.84,-35.67"/>
</a>
</g>
</g>
<!-- Node21 -->
<g id="Node000021" class="node">
<title>Node21</title>
<g id="a_Node000021"><a xlink:title=" ">
<polygon fill="#e0e0e0" stroke="#999999" points="3379.12,-32 3209.38,-32 3209.38,0 3379.12,0 3379.12,-32"/>
<text text-anchor="start" x="3217.38" y="-18.5" font-family="Helvetica,sans-Serif" font-size="10.00">fr.softsf.sudokufx.viewmodel.state.</text>
<text text-anchor="middle" x="3294.25" y="-6.5" font-family="Helvetica,sans-Serif" font-size="10.00">PlayerStateHolder</text>
</a>
</g>
</g>
<!-- Node1&#45;&gt;Node21 -->
<g id="edge20_Node000001_Node000021" class="edge">
<title>Node1&#45;&gt;Node21</title>
<g id="a_edge20_Node000001_Node000021"><a xlink:title=" ">
<path fill="none" stroke="#63b8ff" d="M1896.61,-83.49C2117.25,-83.88 2701.13,-79.96 3197.66,-32.17"/>
<polygon fill="#63b8ff" stroke="#63b8ff" points="3197.88,-35.66 3207.5,-31.21 3197.2,-28.7 3197.88,-35.66"/>
</a>
</g>
</g>
<!-- Node22 -->
<g id="Node000022" class="node">
<title>Node22</title>
<g id="a_Node000022"><a xlink:title=" ">
<polygon fill="#e0e0e0" stroke="#999999" points="3627.12,-32 3397.38,-32 3397.38,0 3627.12,0 3627.12,-32"/>
<text text-anchor="start" x="3405.38" y="-18.5" font-family="Helvetica,sans-Serif" font-size="10.00">fr.softsf.sudokufx.common.enums.</text>
<text text-anchor="middle" x="3512.25" y="-6.5" font-family="Helvetica,sans-Serif" font-size="10.00">Urls.GITHUB_REPOSITORY_RELEASES_URL</text>
</a>
</g>
</g>
<!-- Node1&#45;&gt;Node22 -->
<g id="edge21_Node000001_Node000022" class="edge">
<title>Node1&#45;&gt;Node22</title>
<g id="a_edge21_Node000001_Node000022"><a xlink:title=" ">
<path fill="none" stroke="#63b8ff" d="M1896.48,-82.87C2136.84,-81.93 2812.77,-75.4 3385.71,-32.14"/>
<polygon fill="#63b8ff" stroke="#63b8ff" points="3385.89,-35.64 3395.6,-31.39 3385.36,-28.66 3385.89,-35.64"/>
</a>
</g>
</g>
<!-- Node23 -->
<g id="Node000023" class="node">
<title>Node23</title>
<g id="a_Node000023"><a xlink:title=" ">
<polygon fill="#e0e0e0" stroke="#999999" points="3813.38,-32 3645.12,-32 3645.12,0 3813.38,0 3813.38,-32"/>
<text text-anchor="start" x="3653.12" y="-18.5" font-family="Helvetica,sans-Serif" font-size="10.00">fr.softsf.sudokufx.common.enums.</text>
<text text-anchor="middle" x="3729.25" y="-6.5" font-family="Helvetica,sans-Serif" font-size="10.00">Urls.MY_KOFI_URL</text>
</a>
</g>
</g>
<!-- Node1&#45;&gt;Node23 -->
<g id="edge22_Node000001_Node000023" class="edge">
<title>Node1&#45;&gt;Node23</title>
<g id="a_edge22_Node000001_Node000023"><a xlink:title=" ">
<path fill="none" stroke="#63b8ff" d="M1896.82,-82.06C2213.39,-78.53 3270.41,-64.63 3633.35,-32.17"/>
<polygon fill="#63b8ff" stroke="#63b8ff" points="3633.52,-35.67 3643.16,-31.27 3632.88,-28.7 3633.52,-35.67"/>
</a>
</g>
</g>
<!-- Node24 -->
<g id="Node000024" class="node">
<title>Node24</title>
<g id="a_Node000024"><a xlink:title=" ">
<polygon fill="#e0e0e0" stroke="#999999" points="3999.38,-32 3831.12,-32 3831.12,0 3999.38,0 3999.38,-32"/>
<text text-anchor="start" x="3839.12" y="-18.5" font-family="Helvetica,sans-Serif" font-size="10.00">fr.softsf.sudokufx.common.enums.</text>
<text text-anchor="middle" x="3915.25" y="-6.5" font-family="Helvetica,sans-Serif" font-size="10.00">Urls.MY_WEBSITE_URL</text>
</a>
</g>
</g>
<!-- Node1&#45;&gt;Node24 -->
<g id="edge23_Node000001_Node000024" class="edge">
<title>Node1&#45;&gt;Node24</title>
<g id="a_edge23_Node000001_Node000024"><a xlink:title=" ">
<path fill="none" stroke="#63b8ff" d="M1896.78,-82.33C2233.99,-79.59 3417.79,-67.67 3819.3,-32.17"/>
<polygon fill="#63b8ff" stroke="#63b8ff" points="3819.51,-35.66 3829.16,-31.27 3818.88,-28.69 3819.51,-35.66"/>
</a>
</g>
</g>
</g>
</svg>
