<?xml version="1.0" encoding="UTF-8" standalone="no"?>
<!DOCTYPE svg PUBLIC "-//W3C//DTD SVG 1.1//EN"
 "http://www.w3.org/Graphics/SVG/1.1/DTD/svg11.dtd">
<!-- Generated by graphviz version 12.2.1 (20241206.2353)
 -->
<!-- Title: src/main/java/fr/softsf/sudokufx/navigation/Coordinator.java Pages: 1 -->
<svg width="4395pt" height="108pt"
 viewBox="0.00 0.00 4394.75 108.00" xmlns="http://www.w3.org/2000/svg" xmlns:xlink="http://www.w3.org/1999/xlink">
<g id="graph0" class="graph" transform="scale(1 1) rotate(0) translate(4 104)">
<title>src/main/java/fr/softsf/sudokufx/navigation/Coordinator.java</title>
<!-- Node1 -->
<g id="Node000001" class="node">
<title>Node1</title>
<g id="a_Node000001"><a xlink:title=" ">
<polygon fill="#999999" stroke="#666666" points="2026.75,-100 1846.5,-100 1846.5,-68 2026.75,-68 2026.75,-100"/>
<text text-anchor="start" x="1854.5" y="-86.5" font-family="Helvetica,sans-Serif" font-size="10.00">src/main/java/fr/softsf</text>
<text text-anchor="middle" x="1936.62" y="-74.5" font-family="Helvetica,sans-Serif" font-size="10.00">/sudokufx/navigation/Coordinator.java</text>
</a>
</g>
</g>
<!-- Node2 -->
<g id="Node000002" class="node">
<title>Node2</title>
<g id="a_Node000002"><a xlink:title=" ">
<polygon fill="#e0e0e0" stroke="#999999" points="63.25,-26 0,-26 0,-6 63.25,-6 63.25,-26"/>
<text text-anchor="middle" x="31.62" y="-12.5" font-family="Helvetica,sans-Serif" font-size="10.00">java.io.File</text>
</a>
</g>
</g>
<!-- Node1&#45;&gt;Node2 -->
<g id="edge1_Node000001_Node000002" class="edge">
<title>Node1&#45;&gt;Node2</title>
<g id="a_edge1_Node000001_Node000002"><a xlink:title=" ">
<path fill="none" stroke="#63b8ff" d="M1846.19,-82.24C1497,-79.06 247.41,-65.44 72.62,-32 69.82,-31.46 66.96,-30.76 64.11,-29.95"/>
<polygon fill="#63b8ff" stroke="#63b8ff" points="65.41,-26.7 54.82,-26.91 63.24,-33.35 65.41,-26.7"/>
</a>
</g>
</g>
<!-- Node3 -->
<g id="Node000003" class="node">
<title>Node3</title>
<g id="a_Node000003"><a xlink:title=" ">
<polygon fill="#e0e0e0" stroke="#999999" points="167.88,-26 81.38,-26 81.38,-6 167.88,-6 167.88,-26"/>
<text text-anchor="middle" x="124.62" y="-12.5" font-family="Helvetica,sans-Serif" font-size="10.00">java.util.Objects</text>
</a>
</g>
</g>
<!-- Node1&#45;&gt;Node3 -->
<g id="edge2_Node000001_Node000003" class="edge">
<title>Node1&#45;&gt;Node3</title>
<g id="a_edge2_Node000001_Node000003"><a xlink:title=" ">
<path fill="none" stroke="#63b8ff" d="M1846.12,-83.38C1533.91,-84.23 503.19,-82.99 176.62,-32 172.31,-31.33 167.85,-30.4 163.43,-29.34"/>
<polygon fill="#63b8ff" stroke="#63b8ff" points="164.7,-26.06 154.13,-26.88 162.9,-32.82 164.7,-26.06"/>
</a>
</g>
</g>
<!-- Node4 -->
<g id="Node000004" class="node">
<title>Node4</title>
<g id="a_Node000004"><a xlink:title=" ">
<polygon fill="#e0e0e0" stroke="#999999" points="339.62,-26 185.62,-26 185.62,-6 339.62,-6 339.62,-26"/>
<text text-anchor="middle" x="262.62" y="-12.5" font-family="Helvetica,sans-Serif" font-size="10.00">javafx.application.HostServices</text>
</a>
</g>
</g>
<!-- Node1&#45;&gt;Node4 -->
<g id="edge3_Node000001_Node000004" class="edge">
<title>Node1&#45;&gt;Node4</title>
<g id="a_edge3_Node000001_Node000004"><a xlink:title=" ">
<path fill="none" stroke="#63b8ff" d="M1846.13,-81.77C1554.64,-77.54 642.22,-62.17 348.62,-32 339.62,-31.07 330.14,-29.77 320.89,-28.3"/>
<polygon fill="#63b8ff" stroke="#63b8ff" points="321.7,-24.89 311.27,-26.7 320.56,-31.79 321.7,-24.89"/>
</a>
</g>
</g>
<!-- Node5 -->
<g id="Node000005" class="node">
<title>Node5</title>
<g id="a_Node000005"><a xlink:title=" ">
<polygon fill="#e0e0e0" stroke="#999999" points="489.38,-26 357.88,-26 357.88,-6 489.38,-6 489.38,-26"/>
<text text-anchor="middle" x="423.62" y="-12.5" font-family="Helvetica,sans-Serif" font-size="10.00">javafx.application.Platform</text>
</a>
</g>
</g>
<!-- Node1&#45;&gt;Node5 -->
<g id="edge4_Node000001_Node000005" class="edge">
<title>Node1&#45;&gt;Node5</title>
<g id="a_edge4_Node000001_Node000005"><a xlink:title=" ">
<path fill="none" stroke="#63b8ff" d="M1846.13,-81.71C1573.28,-77.51 761.32,-62.72 498.62,-32 491.27,-31.14 483.56,-29.94 475.99,-28.59"/>
<polygon fill="#63b8ff" stroke="#63b8ff" points="476.66,-25.16 466.18,-26.74 475.36,-32.04 476.66,-25.16"/>
</a>
</g>
</g>
<!-- Node6 -->
<g id="Node000006" class="node">
<title>Node6</title>
<g id="a_Node000006"><a xlink:title=" ">
<polygon fill="#e0e0e0" stroke="#999999" points="629.88,-26 507.38,-26 507.38,-6 629.88,-6 629.88,-26"/>
<text text-anchor="middle" x="568.62" y="-12.5" font-family="Helvetica,sans-Serif" font-size="10.00">javafx.fxml.FXMLLoader</text>
</a>
</g>
</g>
<!-- Node1&#45;&gt;Node6 -->
<g id="edge5_Node000001_Node000006" class="edge">
<title>Node1&#45;&gt;Node6</title>
<g id="a_edge5_Node000001_Node000006"><a xlink:title=" ">
<path fill="none" stroke="#63b8ff" d="M1846.45,-81.47C1592.2,-76.85 872.87,-61.48 638.62,-32 631.83,-31.14 624.71,-29.96 617.73,-28.63"/>
<polygon fill="#63b8ff" stroke="#63b8ff" points="618.91,-25.3 608.42,-26.75 617.52,-32.16 618.91,-25.3"/>
</a>
</g>
</g>
<!-- Node7 -->
<g id="Node000007" class="node">
<title>Node7</title>
<g id="a_Node000007"><a xlink:title=" ">
<polygon fill="#e0e0e0" stroke="#999999" points="749.75,-26 647.5,-26 647.5,-6 749.75,-6 749.75,-26"/>
<text text-anchor="middle" x="698.62" y="-12.5" font-family="Helvetica,sans-Serif" font-size="10.00">javafx.scene.Scene</text>
</a>
</g>
</g>
<!-- Node1&#45;&gt;Node7 -->
<g id="edge6_Node000001_Node000007" class="edge">
<title>Node1&#45;&gt;Node7</title>
<g id="a_edge6_Node000001_Node000007"><a xlink:title=" ">
<path fill="none" stroke="#63b8ff" d="M1846.37,-81.4C1608.62,-76.81 969.05,-61.99 759.62,-32 754.24,-31.23 748.64,-30.19 743.11,-29.01"/>
<polygon fill="#63b8ff" stroke="#63b8ff" points="743.96,-25.62 733.43,-26.79 742.39,-32.44 743.96,-25.62"/>
</a>
</g>
</g>
<!-- Node8 -->
<g id="Node000008" class="node">
<title>Node8</title>
<g id="a_Node000008"><a xlink:title=" ">
<polygon fill="#e0e0e0" stroke="#999999" points="851,-26 768.25,-26 768.25,-6 851,-6 851,-26"/>
<text text-anchor="middle" x="809.62" y="-12.5" font-family="Helvetica,sans-Serif" font-size="10.00">org.slf4j.Logger</text>
</a>
</g>
</g>
<!-- Node1&#45;&gt;Node8 -->
<g id="edge7_Node000001_Node000008" class="edge">
<title>Node1&#45;&gt;Node8</title>
<g id="a_edge7_Node000001_Node000008"><a xlink:title=" ">
<path fill="none" stroke="#63b8ff" d="M1846.31,-81.56C1622.79,-77.53 1048.29,-64.27 859.62,-32 855.76,-31.34 851.76,-30.47 847.8,-29.49"/>
<polygon fill="#63b8ff" stroke="#63b8ff" points="848.88,-26.15 838.31,-26.88 847.02,-32.9 848.88,-26.15"/>
</a>
</g>
</g>
<!-- Node9 -->
<g id="Node000009" class="node">
<title>Node9</title>
<g id="a_Node000009"><a xlink:title=" ">
<polygon fill="#e0e0e0" stroke="#999999" points="984.5,-26 868.75,-26 868.75,-6 984.5,-6 984.5,-26"/>
<text text-anchor="middle" x="926.62" y="-12.5" font-family="Helvetica,sans-Serif" font-size="10.00">org.slf4j.LoggerFactory</text>
</a>
</g>
</g>
<!-- Node1&#45;&gt;Node9 -->
<g id="edge8_Node000001_Node000009" class="edge">
<title>Node1&#45;&gt;Node9</title>
<g id="a_edge8_Node000001_Node000009"><a xlink:title=" ">
<path fill="none" stroke="#63b8ff" d="M1846.33,-83.2C1677.72,-82.44 1303.91,-75.46 992.62,-32 986.59,-31.16 980.29,-30.04 974.08,-28.79"/>
<polygon fill="#63b8ff" stroke="#63b8ff" points="975.07,-25.43 964.56,-26.76 973.61,-32.27 975.07,-25.43"/>
</a>
</g>
</g>
<!-- Node10 -->
<g id="Node000010" class="node">
<title>Node10</title>
<g id="a_Node000010"><a xlink:title=" ">
<polygon fill="#e0e0e0" stroke="#999999" points="1219.12,-32 1002.12,-32 1002.12,0 1219.12,0 1219.12,-32"/>
<text text-anchor="start" x="1010.12" y="-18.5" font-family="Helvetica,sans-Serif" font-size="10.00">org.springframework.beans.factory.annotation.</text>
<text text-anchor="middle" x="1110.62" y="-6.5" font-family="Helvetica,sans-Serif" font-size="10.00">Autowired</text>
</a>
</g>
</g>
<!-- Node1&#45;&gt;Node10 -->
<g id="edge9_Node000001_Node000010" class="edge">
<title>Node1&#45;&gt;Node10</title>
<g id="a_edge9_Node000001_Node000010"><a xlink:title=" ">
<path fill="none" stroke="#63b8ff" d="M1846.24,-78.07C1713.69,-70.49 1458.52,-54.56 1230.75,-32.17"/>
<polygon fill="#63b8ff" stroke="#63b8ff" points="1231.38,-28.72 1221.08,-31.22 1230.69,-35.69 1231.38,-28.72"/>
</a>
</g>
</g>
<!-- Node11 -->
<g id="Node000011" class="node">
<title>Node11</title>
<g id="a_Node000011"><a xlink:title=" ">
<polygon fill="#e0e0e0" stroke="#999999" points="1380,-32 1237.25,-32 1237.25,0 1380,0 1380,-32"/>
<text text-anchor="start" x="1245.25" y="-18.5" font-family="Helvetica,sans-Serif" font-size="10.00">org.springframework.context.</text>
<text text-anchor="middle" x="1308.62" y="-6.5" font-family="Helvetica,sans-Serif" font-size="10.00">ApplicationContext</text>
</a>
</g>
</g>
<!-- Node1&#45;&gt;Node11 -->
<g id="edge10_Node000001_Node000011" class="edge">
<title>Node1&#45;&gt;Node11</title>
<g id="a_edge10_Node000001_Node000011"><a xlink:title=" ">
<path fill="none" stroke="#63b8ff" d="M1846.32,-77.09C1739.97,-69.56 1557.79,-54.89 1391.08,-32.11"/>
<polygon fill="#63b8ff" stroke="#63b8ff" points="1392.01,-28.71 1381.62,-30.81 1391.05,-35.64 1392.01,-28.71"/>
</a>
</g>
</g>
<!-- Node12 -->
<g id="Node000012" class="node">
<title>Node12</title>
<g id="a_Node000012"><a xlink:title=" ">
<polygon fill="#e0e0e0" stroke="#999999" points="1554.75,-32 1398.5,-32 1398.5,0 1554.75,0 1554.75,-32"/>
<text text-anchor="start" x="1406.5" y="-18.5" font-family="Helvetica,sans-Serif" font-size="10.00">org.springframework.stereotype.</text>
<text text-anchor="middle" x="1476.62" y="-6.5" font-family="Helvetica,sans-Serif" font-size="10.00">Component</text>
</a>
</g>
</g>
<!-- Node1&#45;&gt;Node12 -->
<g id="edge11_Node000001_Node000012" class="edge">
<title>Node1&#45;&gt;Node12</title>
<g id="a_edge11_Node000001_Node000012"><a xlink:title=" ">
<path fill="none" stroke="#63b8ff" d="M1846.05,-71.51C1773.09,-62.05 1667.6,-47.91 1565.95,-32.33"/>
<polygon fill="#63b8ff" stroke="#63b8ff" points="1566.77,-28.91 1556.35,-30.85 1565.71,-35.83 1566.77,-28.91"/>
</a>
</g>
</g>
<!-- Node13 -->
<g id="Node000013" class="node">
<title>Node13</title>
<g id="a_Node000013"><a xlink:title=" ">
<polygon fill="#e0e0e0" stroke="#999999" points="1736.12,-32 1573.12,-32 1573.12,0 1736.12,0 1736.12,-32"/>
<text text-anchor="start" x="1581.12" y="-18.5" font-family="Helvetica,sans-Serif" font-size="10.00">edu.umd.cs.findbugs.annotations.</text>
<text text-anchor="middle" x="1654.62" y="-6.5" font-family="Helvetica,sans-Serif" font-size="10.00">SuppressFBWarnings</text>
</a>
</g>
</g>
<!-- Node1&#45;&gt;Node13 -->
<g id="edge12_Node000001_Node000013" class="edge">
<title>Node1&#45;&gt;Node13</title>
<g id="a_edge12_Node000001_Node000013"><a xlink:title=" ">
<path fill="none" stroke="#63b8ff" d="M1870.51,-67.53C1829.03,-57.82 1775.36,-45.26 1731.91,-35.09"/>
<polygon fill="#63b8ff" stroke="#63b8ff" points="1732.82,-31.71 1722.29,-32.84 1731.23,-38.52 1732.82,-31.71"/>
</a>
</g>
</g>
<!-- Node14 -->
<g id="Node000014" class="node">
<title>Node14</title>
<g id="a_Node000014"><a xlink:title=" ">
<polygon fill="#e0e0e0" stroke="#999999" points="1922.75,-32 1754.5,-32 1754.5,0 1922.75,0 1922.75,-32"/>
<text text-anchor="start" x="1762.5" y="-18.5" font-family="Helvetica,sans-Serif" font-size="10.00">fr.softsf.sudokufx.common.enums.</text>
<text text-anchor="middle" x="1838.62" y="-6.5" font-family="Helvetica,sans-Serif" font-size="10.00">AppPaths</text>
</a>
</g>
</g>
<!-- Node1&#45;&gt;Node14 -->
<g id="edge13_Node000001_Node000014" class="edge">
<title>Node1&#45;&gt;Node14</title>
<g id="a_edge13_Node000001_Node000014"><a xlink:title=" ">
<path fill="none" stroke="#63b8ff" d="M1913.9,-67.69C1901.12,-59.09 1884.97,-48.21 1870.91,-38.74"/>
<polygon fill="#63b8ff" stroke="#63b8ff" points="1873.08,-35.98 1862.83,-33.3 1869.17,-41.79 1873.08,-35.98"/>
</a>
</g>
</g>
<!-- Node15 -->
<g id="Node000015" class="node">
<title>Node15</title>
<g id="a_Node000015"><a xlink:title=" ">
<polygon fill="#e0e0e0" stroke="#999999" points="2128.12,-26 1941.12,-26 1941.12,-6 2128.12,-6 2128.12,-26"/>
<text text-anchor="middle" x="2034.62" y="-12.5" font-family="Helvetica,sans-Serif" font-size="10.00">fr.softsf.sudokufx.common.enums.I18n</text>
</a>
</g>
</g>
<!-- Node1&#45;&gt;Node15 -->
<g id="edge14_Node000001_Node000015" class="edge">
<title>Node1&#45;&gt;Node15</title>
<g id="a_edge14_Node000001_Node000015"><a xlink:title=" ">
<path fill="none" stroke="#63b8ff" d="M1959.35,-67.69C1974.94,-57.2 1995.56,-43.31 2011.27,-32.73"/>
<polygon fill="#63b8ff" stroke="#63b8ff" points="2013.2,-35.65 2019.54,-27.16 2009.29,-29.84 2013.2,-35.65"/>
</a>
</g>
</g>
<!-- Node16 -->
<g id="Node000016" class="node">
<title>Node16</title>
<g id="a_Node000016"><a xlink:title=" ">
<polygon fill="#e0e0e0" stroke="#999999" points="2327.12,-32 2146.12,-32 2146.12,0 2327.12,0 2327.12,-32"/>
<text text-anchor="start" x="2154.12" y="-18.5" font-family="Helvetica,sans-Serif" font-size="10.00">fr.softsf.sudokufx.common.exception.</text>
<text text-anchor="middle" x="2236.62" y="-6.5" font-family="Helvetica,sans-Serif" font-size="10.00">ExceptionTools</text>
</a>
</g>
</g>
<!-- Node1&#45;&gt;Node16 -->
<g id="edge15_Node000001_Node000016" class="edge">
<title>Node1&#45;&gt;Node16</title>
<g id="a_edge15_Node000001_Node000016"><a xlink:title=" ">
<path fill="none" stroke="#63b8ff" d="M2006.96,-67.53C2051.28,-57.78 2108.67,-45.15 2154.99,-34.96"/>
<polygon fill="#63b8ff" stroke="#63b8ff" points="2155.72,-38.38 2164.73,-32.82 2154.21,-31.55 2155.72,-38.38"/>
</a>
</g>
</g>
<!-- Node17 -->
<g id="Node000017" class="node">
<title>Node17</title>
<g id="a_Node000017"><a xlink:title=" ">
<polygon fill="#e0e0e0" stroke="#999999" points="2496.5,-32 2344.75,-32 2344.75,0 2496.5,0 2496.5,-32"/>
<text text-anchor="start" x="2352.75" y="-18.5" font-family="Helvetica,sans-Serif" font-size="10.00">fr.softsf.sudokufx.common.util.</text>
<text text-anchor="middle" x="2420.62" y="-6.5" font-family="Helvetica,sans-Serif" font-size="10.00">DynamicFontSize</text>
</a>
</g>
</g>
<!-- Node1&#45;&gt;Node17 -->
<g id="edge16_Node000001_Node000017" class="edge">
<title>Node1&#45;&gt;Node17</title>
<g id="a_edge16_Node000001_Node000017"><a xlink:title=" ">
<path fill="none" stroke="#63b8ff" d="M2026.96,-72.79C2105.53,-63.6 2222.73,-49.19 2333.59,-32.42"/>
<polygon fill="#63b8ff" stroke="#63b8ff" points="2333.79,-35.94 2343.15,-30.97 2332.74,-29.01 2333.79,-35.94"/>
</a>
</g>
</g>
<!-- Node18 -->
<g id="Node000018" class="node">
<title>Node18</title>
<g id="a_Node000018"><a xlink:title=" ">
<polygon fill="#e0e0e0" stroke="#999999" points="2670.38,-26 2514.88,-26 2514.88,-6 2670.38,-6 2670.38,-26"/>
<text text-anchor="middle" x="2592.62" y="-12.5" font-family="Helvetica,sans-Serif" font-size="10.00">fr.softsf.sudokufx.dto.PlayerDto</text>
</a>
</g>
</g>
<!-- Node1&#45;&gt;Node18 -->
<g id="edge17_Node000001_Node000018" class="edge">
<title>Node1&#45;&gt;Node18</title>
<g id="a_edge17_Node000001_Node000018"><a xlink:title=" ">
<path fill="none" stroke="#63b8ff" d="M2027.05,-77.18C2139.5,-69.41 2337.21,-54.03 2505.62,-32 2513.87,-30.92 2522.52,-29.63 2531.04,-28.26"/>
<polygon fill="#63b8ff" stroke="#63b8ff" points="2531.34,-31.76 2540.63,-26.67 2530.2,-24.85 2531.34,-31.76"/>
</a>
</g>
</g>
<!-- Node19 -->
<g id="Node000019" class="node">
<title>Node19</title>
<g id="a_Node000019"><a xlink:title=" ">
<polygon fill="#e0e0e0" stroke="#999999" points="2828.5,-32 2688.75,-32 2688.75,0 2828.5,0 2828.5,-32"/>
<text text-anchor="start" x="2696.75" y="-18.5" font-family="Helvetica,sans-Serif" font-size="10.00">fr.softsf.sudokufx.dto.Player</text>
<text text-anchor="middle" x="2758.62" y="-6.5" font-family="Helvetica,sans-Serif" font-size="10.00">LanguageDto</text>
</a>
</g>
</g>
<!-- Node1&#45;&gt;Node19 -->
<g id="edge18_Node000001_Node000019" class="edge">
<title>Node1&#45;&gt;Node19</title>
<g id="a_edge18_Node000001_Node000019"><a xlink:title=" ">
<path fill="none" stroke="#63b8ff" d="M2027.03,-80.27C2165.06,-75.32 2436.77,-62.57 2677.07,-32.23"/>
<polygon fill="#63b8ff" stroke="#63b8ff" points="2677.51,-35.7 2686.98,-30.96 2676.62,-28.75 2677.51,-35.7"/>
</a>
</g>
</g>
<!-- Node20 -->
<g id="Node000020" class="node">
<title>Node20</title>
<g id="a_Node000020"><a xlink:title=" ">
<polygon fill="#e0e0e0" stroke="#999999" points="3018.62,-32 2846.62,-32 2846.62,0 3018.62,0 3018.62,-32"/>
<text text-anchor="start" x="2854.62" y="-18.5" font-family="Helvetica,sans-Serif" font-size="10.00">fr.softsf.sudokufx.service.business.</text>
<text text-anchor="middle" x="2932.62" y="-6.5" font-family="Helvetica,sans-Serif" font-size="10.00">PlayerLanguageService</text>
</a>
</g>
</g>
<!-- Node1&#45;&gt;Node20 -->
<g id="edge19_Node000001_Node000020" class="edge">
<title>Node1&#45;&gt;Node20</title>
<g id="a_edge19_Node000001_Node000020"><a xlink:title=" ">
<path fill="none" stroke="#63b8ff" d="M2027.03,-80.87C2187.64,-76.44 2533.45,-63.93 2835.05,-32.21"/>
<polygon fill="#63b8ff" stroke="#63b8ff" points="2835.13,-35.72 2844.7,-31.18 2834.39,-28.76 2835.13,-35.72"/>
</a>
</g>
</g>
<!-- Node21 -->
<g id="Node000021" class="node">
<title>Node21</title>
<g id="a_Node000021"><a xlink:title=" ">
<polygon fill="#e0e0e0" stroke="#999999" points="3208.62,-32 3036.62,-32 3036.62,0 3208.62,0 3208.62,-32"/>
<text text-anchor="start" x="3044.62" y="-18.5" font-family="Helvetica,sans-Serif" font-size="10.00">fr.softsf.sudokufx.service.business.</text>
<text text-anchor="middle" x="3122.62" y="-6.5" font-family="Helvetica,sans-Serif" font-size="10.00">PlayerService</text>
</a>
</g>
</g>
<!-- Node1&#45;&gt;Node21 -->
<g id="edge20_Node000001_Node000021" class="edge">
<title>Node1&#45;&gt;Node21</title>
<g id="a_edge20_Node000001_Node000021"><a xlink:title=" ">
<path fill="none" stroke="#63b8ff" d="M2027.04,-82.13C2212.35,-79.61 2648.81,-69.94 3024.82,-32.21"/>
<polygon fill="#63b8ff" stroke="#63b8ff" points="3025.11,-35.7 3034.7,-31.21 3024.4,-28.73 3025.11,-35.7"/>
</a>
</g>
</g>
<!-- Node22 -->
<g id="Node000022" class="node">
<title>Node22</title>
<g id="a_Node000022"><a xlink:title=" ">
<polygon fill="#e0e0e0" stroke="#999999" points="3366.88,-32 3226.38,-32 3226.38,0 3366.88,0 3366.88,-32"/>
<text text-anchor="start" x="3234.38" y="-18.5" font-family="Helvetica,sans-Serif" font-size="10.00">fr.softsf.sudokufx.service.ui.</text>
<text text-anchor="middle" x="3296.62" y="-6.5" font-family="Helvetica,sans-Serif" font-size="10.00">ToasterService</text>
</a>
</g>
</g>
<!-- Node1&#45;&gt;Node22 -->
<g id="edge21_Node000001_Node000022" class="edge">
<title>Node1&#45;&gt;Node22</title>
<g id="a_edge21_Node000001_Node000022"><a xlink:title=" ">
<path fill="none" stroke="#63b8ff" d="M2026.94,-81.14C2275.15,-75.77 2965.22,-58.91 3214.87,-32.17"/>
<polygon fill="#63b8ff" stroke="#63b8ff" points="3215.01,-35.68 3224.56,-31.1 3214.24,-28.72 3215.01,-35.68"/>
</a>
</g>
</g>
<!-- Node23 -->
<g id="Node000023" class="node">
<title>Node23</title>
<g id="a_Node000023"><a xlink:title=" ">
<polygon fill="#e0e0e0" stroke="#999999" points="3586.62,-32 3384.62,-32 3384.62,0 3586.62,0 3586.62,-32"/>
<text text-anchor="start" x="3392.62" y="-18.5" font-family="Helvetica,sans-Serif" font-size="10.00">fr.softsf.sudokufx.view.component.toaster.</text>
<text text-anchor="middle" x="3485.62" y="-6.5" font-family="Helvetica,sans-Serif" font-size="10.00">ToasterVBox</text>
</a>
</g>
</g>
<!-- Node1&#45;&gt;Node23 -->
<g id="edge22_Node000001_Node000023" class="edge">
<title>Node1&#45;&gt;Node23</title>
<g id="a_edge22_Node000001_Node000023"><a xlink:title=" ">
<path fill="none" stroke="#63b8ff" d="M2026.9,-82.93C2252.27,-82.09 2857.94,-75.69 3372.99,-32.16"/>
<polygon fill="#63b8ff" stroke="#63b8ff" points="3373.2,-35.66 3382.86,-31.32 3372.6,-28.68 3373.2,-35.66"/>
</a>
</g>
</g>
<!-- Node24 -->
<g id="Node000024" class="node">
<title>Node24</title>
<g id="a_Node000024"><a xlink:title=" ">
<polygon fill="#e0e0e0" stroke="#999999" points="3774.5,-32 3604.75,-32 3604.75,0 3774.5,0 3774.5,-32"/>
<text text-anchor="start" x="3612.75" y="-18.5" font-family="Helvetica,sans-Serif" font-size="10.00">fr.softsf.sudokufx.viewmodel.state.</text>
<text text-anchor="middle" x="3689.62" y="-6.5" font-family="Helvetica,sans-Serif" font-size="10.00">PlayerStateHolder</text>
</a>
</g>
</g>
<!-- Node1&#45;&gt;Node24 -->
<g id="edge23_Node000001_Node000024" class="edge">
<title>Node1&#45;&gt;Node24</title>
<g id="a_edge23_Node000001_Node000024"><a xlink:title=" ">
<path fill="none" stroke="#63b8ff" d="M2027.19,-81.74C2323.73,-77.38 3264.92,-61.59 3592.97,-32.14"/>
<polygon fill="#63b8ff" stroke="#63b8ff" points="3593.24,-35.63 3602.87,-31.23 3592.59,-28.66 3593.24,-35.63"/>
</a>
</g>
</g>
<!-- Node25 -->
<g id="Node000025" class="node">
<title>Node25</title>
<g id="a_Node000025"><a xlink:title=" ">
<polygon fill="#e0e0e0" stroke="#999999" points="3952.25,-26 3793,-26 3793,-6 3952.25,-6 3952.25,-26"/>
<text text-anchor="middle" x="3872.62" y="-12.5" font-family="Helvetica,sans-Serif" font-size="10.00">jakarta.annotation.PostConstruct</text>
</a>
</g>
</g>
<!-- Node1&#45;&gt;Node25 -->
<g id="edge24_Node000001_Node000025" class="edge">
<title>Node1&#45;&gt;Node25</title>
<g id="a_edge24_Node000001_Node000025"><a xlink:title=" ">
<path fill="none" stroke="#63b8ff" d="M2027.21,-82.17C2349.09,-78.97 3436.92,-65.84 3783.62,-32 3793.04,-31.08 3802.97,-29.76 3812.64,-28.28"/>
<polygon fill="#63b8ff" stroke="#63b8ff" points="3813.01,-31.77 3822.33,-26.72 3811.9,-24.85 3813.01,-31.77"/>
</a>
</g>
</g>
<!-- Node26 -->
<g id="Node000026" class="node">
<title>Node26</title>
<g id="a_Node000026"><a xlink:title=" ">
<polygon fill="#e0e0e0" stroke="#999999" points="4200.5,-32 3970.75,-32 3970.75,0 4200.5,0 4200.5,-32"/>
<text text-anchor="start" x="3978.75" y="-18.5" font-family="Helvetica,sans-Serif" font-size="10.00">fr.softsf.sudokufx.common.enums.</text>
<text text-anchor="middle" x="4085.62" y="-6.5" font-family="Helvetica,sans-Serif" font-size="10.00">Urls.GITHUB_REPOSITORY_RELEASES_URL</text>
</a>
</g>
</g>
<!-- Node1&#45;&gt;Node26 -->
<g id="edge25_Node000001_Node000026" class="edge">
<title>Node1&#45;&gt;Node26</title>
<g id="a_edge25_Node000001_Node000026"><a xlink:title=" ">
<path fill="none" stroke="#63b8ff" d="M2027.23,-81.87C2365.41,-77.46 3554.62,-60.33 3959.04,-32.12"/>
<polygon fill="#63b8ff" stroke="#63b8ff" points="3959.25,-35.62 3968.97,-31.41 3958.75,-28.63 3959.25,-35.62"/>
</a>
</g>
</g>
<!-- Node27 -->
<g id="Node000027" class="node">
<title>Node27</title>
<g id="a_Node000027"><a xlink:title=" ">
<polygon fill="#e0e0e0" stroke="#999999" points="4386.75,-32 4218.5,-32 4218.5,0 4386.75,0 4386.75,-32"/>
<text text-anchor="start" x="4226.5" y="-18.5" font-family="Helvetica,sans-Serif" font-size="10.00">fr.softsf.sudokufx.common.enums.</text>
<text text-anchor="middle" x="4302.62" y="-6.5" font-family="Helvetica,sans-Serif" font-size="10.00">Urls.MY_WEBSITE_URL</text>
</a>
</g>
</g>
<!-- Node1&#45;&gt;Node27 -->
<g id="edge26_Node000001_Node000027" class="edge">
<title>Node1&#45;&gt;Node27</title>
<g id="a_edge26_Node000001_Node000027"><a xlink:title=" ">
<path fill="none" stroke="#63b8ff" d="M2027.18,-82.63C2391.5,-80.9 3752.06,-71.9 4206.81,-32.15"/>
<polygon fill="#63b8ff" stroke="#63b8ff" points="4206.88,-35.66 4216.53,-31.28 4206.26,-28.69 4206.88,-35.66"/>
</a>
</g>
</g>
</g>
</svg>
