<?xml version="1.0" encoding="UTF-8" standalone="no"?>
<!DOCTYPE svg PUBLIC "-//W3C//DTD SVG 1.1//EN"
 "http://www.w3.org/Graphics/SVG/1.1/DTD/svg11.dtd">
<!-- Generated by graphviz version 12.2.1 (20241206.2353)
 -->
<!-- Title: src/main/java/fr/softsf/sudokufx/view/CrashScreenView.java Pages: 1 -->
<!--zoomable 108 -->

<svg id="main" version="1.1" xmlns="http://www.w3.org/2000/svg" xmlns:xlink="http://www.w3.org/1999/xlink" xml:space="preserve" onload="init(evt)">

<style type="text/css"><![CDATA[
.node, .edge {opacity: 0.7;}
.node.selected, .edge.selected {opacity: 1;}
.edge:hover path { stroke: red; }
.edge:hover polygon { stroke: red; fill: red; }
]]></style>

<defs>
  <circle id="rim" cx="0" cy="0" r="7"/>
  <circle id="rim2" cx="0" cy="0" r="3.5"/>
  <g id="zoomPlus">
    <use xlink:href="#rim" fill="#404040"><set attributeName="fill" to="#808080" begin="zoomplus.mouseover" end="zoomplus.mouseout"/></use>
    <path d="M-4,0h8M0,-4v8" fill="none" stroke="white" stroke-width="1.5" pointer-events="none"/>
  </g>
  <g id="zoomMin">
    <use xlink:href="#rim" fill="#404040"><set attributeName="fill" to="#808080" begin="zoomminus.mouseover" end="zoomminus.mouseout"/></use>
    <path d="M-4,0h8" fill="none" stroke="white" stroke-width="1.5" pointer-events="none"/>
  </g>
  <g id="arrowUp" transform="translate(30 24)">
    <use xlink:href="#rim"/>
    <path pointer-events="none" fill="none" stroke="white" stroke-width="1.5" d="M0,-3.0v7 M-2.5,-0.5L0,-3.0L2.5,-0.5"/>
  </g>
  <g id="arrowRight" transform="rotate(90) translate(36 -43)">
    <use xlink:href="#rim"/>
    <path pointer-events="none" fill="none" stroke="white" stroke-width="1.5" d="M0,-3.0v7 M-2.5,-0.5L0,-3.0L2.5,-0.5"/>
  </g>
  <g id="arrowDown" transform="rotate(180) translate(-30 -48)">
    <use xlink:href="#rim"/>
    <path pointer-events="none" fill="none" stroke="white" stroke-width="1.5" d="M0,-3.0v7 M-2.5,-0.5L0,-3.0L2.5,-0.5"/>
  </g>
  <g id="arrowLeft" transform="rotate(270) translate(-36 17)">
    <use xlink:href="#rim"/>
    <path pointer-events="none" fill="none" stroke="white" stroke-width="1.5" d="M0,-3.0v7 M-2.5,-0.5L0,-3.0L2.5,-0.5"/>
  </g>
  <g id="resetDef">
    <use xlink:href="#rim2" fill="#404040"><set attributeName="fill" to="#808080" begin="reset.mouseover" end="reset.mouseout"/></use>
  </g>
</defs>
<script type="application/ecmascript">
var viewWidth = 4967;
var viewHeight = 108;
var sectionId = 'dynsection-0';
</script>
<script type="application/ecmascript" xlink:href="svg.min.js"/>
<svg id="graph" class="graph">
<g id="viewport">
<title>src/main/java/fr/softsf/sudokufx/view/CrashScreenView.java</title>
<!-- Node1 -->
<g id="Node000001" class="node">
<title>Node1</title>
<g id="a_Node000001"><a xlink:title=" ">
<polygon fill="#999999" stroke="#666666" points="2353.38,-100 2169.38,-100 2169.38,-68 2353.38,-68 2353.38,-100"/>
<text text-anchor="start" x="2177.38" y="-86.5" font-family="Helvetica,sans-Serif" font-size="10.00">src/main/java/fr/softsf</text>
<text text-anchor="middle" x="2261.38" y="-74.5" font-family="Helvetica,sans-Serif" font-size="10.00">/sudokufx/view/CrashScreenView.java</text>
</a>
</g>
</g>
<!-- Node2 -->
<g id="Node000002" class="node">
<title>Node2</title>
<g id="a_Node000002"><a xlink:title=" ">
<polygon fill="#e0e0e0" stroke="#999999" points="88.75,-26 0,-26 0,-6 88.75,-6 88.75,-26"/>
<text text-anchor="middle" x="44.38" y="-12.5" font-family="Helvetica,sans-Serif" font-size="10.00">java.nio.file.Path</text>
</a>
</g>
</g>
<!-- Node1&#45;&gt;Node2 -->
<g id="edge1_Node000001_Node000002" class="edge">
<title>Node1&#45;&gt;Node2</title>
<g id="a_edge1_Node000001_Node000002"><a xlink:title=" ">
<path fill="none" stroke="#63b8ff" d="M2168.9,-82.2C1782.01,-78.64 303.79,-63.13 97.38,-32 92.93,-31.33 88.33,-30.4 83.78,-29.33"/>
<polygon fill="#63b8ff" stroke="#63b8ff" points="84.72,-25.95 74.16,-26.82 82.95,-32.73 84.72,-25.95"/>
</a>
</g>
</g>
<!-- Node3 -->
<g id="Node000003" class="node">
<title>Node3</title>
<g id="a_Node000003"><a xlink:title=" ">
<polygon fill="#e0e0e0" stroke="#999999" points="200.38,-26 106.38,-26 106.38,-6 200.38,-6 200.38,-26"/>
<text text-anchor="middle" x="153.38" y="-12.5" font-family="Helvetica,sans-Serif" font-size="10.00">java.nio.file.Paths</text>
</a>
</g>
</g>
<!-- Node1&#45;&gt;Node3 -->
<g id="edge2_Node000001_Node000003" class="edge">
<title>Node1&#45;&gt;Node3</title>
<g id="a_edge2_Node000001_Node000003"><a xlink:title=" ">
<path fill="none" stroke="#63b8ff" d="M2168.99,-81.99C1795.06,-77.74 404.47,-60.15 209.38,-32 204.42,-31.29 199.28,-30.28 194.21,-29.13"/>
<polygon fill="#63b8ff" stroke="#63b8ff" points="195.35,-25.81 184.8,-26.79 193.66,-32.6 195.35,-25.81"/>
</a>
</g>
</g>
<!-- Node4 -->
<g id="Node000004" class="node">
<title>Node4</title>
<g id="a_Node000004"><a xlink:title=" ">
<polygon fill="#e0e0e0" stroke="#999999" points="296.5,-26 218.25,-26 218.25,-6 296.5,-6 296.5,-26"/>
<text text-anchor="middle" x="257.38" y="-12.5" font-family="Helvetica,sans-Serif" font-size="10.00">java.time.Year</text>
</a>
</g>
</g>
<!-- Node1&#45;&gt;Node4 -->
<g id="edge3_Node000001_Node000004" class="edge">
<title>Node1&#45;&gt;Node4</title>
<g id="a_edge3_Node000001_Node000004"><a xlink:title=" ">
<path fill="none" stroke="#63b8ff" d="M2169.01,-82.09C1806.24,-78.32 490,-62.64 305.38,-32 301.56,-31.37 297.62,-30.5 293.72,-29.51"/>
<polygon fill="#63b8ff" stroke="#63b8ff" points="295,-26.23 284.42,-26.85 293.07,-32.96 295,-26.23"/>
</a>
</g>
</g>
<!-- Node5 -->
<g id="Node000005" class="node">
<title>Node5</title>
<g id="a_Node000005"><a xlink:title=" ">
<polygon fill="#e0e0e0" stroke="#999999" points="400.62,-26 314.12,-26 314.12,-6 400.62,-6 400.62,-26"/>
<text text-anchor="middle" x="357.38" y="-12.5" font-family="Helvetica,sans-Serif" font-size="10.00">java.util.Objects</text>
</a>
</g>
</g>
<!-- Node1&#45;&gt;Node5 -->
<g id="edge4_Node000001_Node000005" class="edge">
<title>Node1&#45;&gt;Node5</title>
<g id="a_edge4_Node000001_Node000005"><a xlink:title=" ">
<path fill="none" stroke="#63b8ff" d="M2169.03,-83.48C1844.16,-84.7 754.97,-84.67 410.38,-32 405.98,-31.33 401.43,-30.41 396.94,-29.35"/>
<polygon fill="#63b8ff" stroke="#63b8ff" points="397.99,-26 387.44,-26.87 396.23,-32.78 397.99,-26"/>
</a>
</g>
</g>
<!-- Node6 -->
<g id="Node000006" class="node">
<title>Node6</title>
<g id="a_Node000006"><a xlink:title=" ">
<polygon fill="#e0e0e0" stroke="#999999" points="573.75,-26 419,-26 419,-6 573.75,-6 573.75,-26"/>
<text text-anchor="middle" x="496.38" y="-12.5" font-family="Helvetica,sans-Serif" font-size="10.00">javafx.animation.FadeTransition</text>
</a>
</g>
</g>
<!-- Node1&#45;&gt;Node6 -->
<g id="edge5_Node000001_Node000006" class="edge">
<title>Node1&#45;&gt;Node6</title>
<g id="a_edge5_Node000001_Node000006"><a xlink:title=" ">
<path fill="none" stroke="#63b8ff" d="M2168.91,-81.93C1864.28,-78.12 893.9,-63.74 582.38,-32 573.37,-31.08 563.89,-29.78 554.64,-28.31"/>
<polygon fill="#63b8ff" stroke="#63b8ff" points="555.45,-24.9 545.01,-26.72 554.31,-31.81 555.45,-24.9"/>
</a>
</g>
</g>
<!-- Node7 -->
<g id="Node000007" class="node">
<title>Node7</title>
<g id="a_Node000007"><a xlink:title=" ">
<polygon fill="#e0e0e0" stroke="#999999" points="723.12,-26 591.62,-26 591.62,-6 723.12,-6 723.12,-26"/>
<text text-anchor="middle" x="657.38" y="-12.5" font-family="Helvetica,sans-Serif" font-size="10.00">javafx.application.Platform</text>
</a>
</g>
</g>
<!-- Node1&#45;&gt;Node7 -->
<g id="edge6_Node000001_Node000007" class="edge">
<title>Node1&#45;&gt;Node7</title>
<g id="a_edge6_Node000001_Node000007"><a xlink:title=" ">
<path fill="none" stroke="#63b8ff" d="M2168.91,-81.94C1882.44,-78.33 1012.09,-64.9 731.38,-32 724.11,-31.15 716.5,-29.96 709.04,-28.61"/>
<polygon fill="#63b8ff" stroke="#63b8ff" points="709.86,-25.21 699.38,-26.76 708.54,-32.08 709.86,-25.21"/>
</a>
</g>
</g>
<!-- Node8 -->
<g id="Node000008" class="node">
<title>Node8</title>
<g id="a_Node000008"><a xlink:title=" ">
<polygon fill="#e0e0e0" stroke="#999999" points="834,-26 740.75,-26 740.75,-6 834,-6 834,-26"/>
<text text-anchor="middle" x="787.38" y="-12.5" font-family="Helvetica,sans-Serif" font-size="10.00">javafx.fxml.FXML</text>
</a>
</g>
</g>
<!-- Node1&#45;&gt;Node8 -->
<g id="edge7_Node000001_Node000008" class="edge">
<title>Node1&#45;&gt;Node8</title>
<g id="a_edge7_Node000001_Node000008"><a xlink:title=" ">
<path fill="none" stroke="#63b8ff" d="M2169.16,-82.4C1897.03,-80.19 1100.39,-70.54 843.38,-32 838.62,-31.29 833.68,-30.32 828.8,-29.21"/>
<polygon fill="#63b8ff" stroke="#63b8ff" points="829.65,-25.81 819.1,-26.8 827.96,-32.61 829.65,-25.81"/>
</a>
</g>
</g>
<!-- Node9 -->
<g id="Node000009" class="node">
<title>Node9</title>
<g id="a_Node000009"><a xlink:title=" ">
<polygon fill="#e0e0e0" stroke="#999999" points="950.25,-26 852.5,-26 852.5,-6 950.25,-6 950.25,-26"/>
<text text-anchor="middle" x="901.38" y="-12.5" font-family="Helvetica,sans-Serif" font-size="10.00">javafx.scene.Node</text>
</a>
</g>
</g>
<!-- Node1&#45;&gt;Node9 -->
<g id="edge8_Node000001_Node000009" class="edge">
<title>Node1&#45;&gt;Node9</title>
<g id="a_edge8_Node000001_Node000009"><a xlink:title=" ">
<path fill="none" stroke="#63b8ff" d="M2169.02,-81.95C1912.2,-78.62 1193.11,-66.4 959.38,-32 954.38,-31.26 949.19,-30.27 944.06,-29.14"/>
<polygon fill="#63b8ff" stroke="#63b8ff" points="945.05,-25.77 934.51,-26.85 943.41,-32.58 945.05,-25.77"/>
</a>
</g>
</g>
<!-- Node10 -->
<g id="Node000010" class="node">
<title>Node10</title>
<g id="a_Node000010"><a xlink:title=" ">
<polygon fill="#e0e0e0" stroke="#999999" points="1070.5,-26 968.25,-26 968.25,-6 1070.5,-6 1070.5,-26"/>
<text text-anchor="middle" x="1019.38" y="-12.5" font-family="Helvetica,sans-Serif" font-size="10.00">javafx.scene.Scene</text>
</a>
</g>
</g>
<!-- Node1&#45;&gt;Node10 -->
<g id="edge9_Node000001_Node000010" class="edge">
<title>Node1&#45;&gt;Node10</title>
<g id="a_edge9_Node000001_Node000010"><a xlink:title=" ">
<path fill="none" stroke="#63b8ff" d="M2168.99,-81.42C1928.85,-76.94 1289.13,-62.43 1079.38,-32 1074.08,-31.23 1068.56,-30.19 1063.12,-29.02"/>
<polygon fill="#63b8ff" stroke="#63b8ff" points="1064.15,-25.67 1053.62,-26.8 1062.57,-32.48 1064.15,-25.67"/>
</a>
</g>
</g>
<!-- Node11 -->
<g id="Node000011" class="node">
<title>Node11</title>
<g id="a_Node000011"><a xlink:title=" ">
<polygon fill="#e0e0e0" stroke="#999999" points="1224,-26 1088.75,-26 1088.75,-6 1224,-6 1224,-26"/>
<text text-anchor="middle" x="1156.38" y="-12.5" font-family="Helvetica,sans-Serif" font-size="10.00">javafx.scene.control.Button</text>
</a>
</g>
</g>
<!-- Node1&#45;&gt;Node11 -->
<g id="edge10_Node000001_Node000011" class="edge">
<title>Node1&#45;&gt;Node11</title>
<g id="a_edge10_Node000001_Node000011"><a xlink:title=" ">
<path fill="none" stroke="#63b8ff" d="M2169.2,-82.83C1988.83,-81.52 1576.84,-73.76 1233.38,-32 1225.84,-31.08 1217.93,-29.85 1210.17,-28.49"/>
<polygon fill="#63b8ff" stroke="#63b8ff" points="1210.93,-25.07 1200.46,-26.7 1209.65,-31.96 1210.93,-25.07"/>
</a>
</g>
</g>
<!-- Node12 -->
<g id="Node000012" class="node">
<title>Node12</title>
<g id="a_Node000012"><a xlink:title=" ">
<polygon fill="#e0e0e0" stroke="#999999" points="1372.38,-26 1242.38,-26 1242.38,-6 1372.38,-6 1372.38,-26"/>
<text text-anchor="middle" x="1307.38" y="-12.5" font-family="Helvetica,sans-Serif" font-size="10.00">javafx.scene.control.Label</text>
</a>
</g>
</g>
<!-- Node1&#45;&gt;Node12 -->
<g id="edge11_Node000001_Node000012" class="edge">
<title>Node1&#45;&gt;Node12</title>
<g id="a_edge11_Node000001_Node000012"><a xlink:title=" ">
<path fill="none" stroke="#63b8ff" d="M2169.12,-81.96C2008.45,-79.18 1667.07,-69.04 1381.38,-32 1374.38,-31.09 1367.06,-29.9 1359.85,-28.59"/>
<polygon fill="#63b8ff" stroke="#63b8ff" points="1360.65,-25.18 1350.17,-26.74 1359.34,-32.06 1360.65,-25.18"/>
</a>
</g>
</g>
<!-- Node13 -->
<g id="Node000013" class="node">
<title>Node13</title>
<g id="a_Node000013"><a xlink:title=" ">
<polygon fill="#e0e0e0" stroke="#999999" points="1512.62,-32 1390.12,-32 1390.12,0 1512.62,0 1512.62,-32"/>
<text text-anchor="start" x="1398.12" y="-18.5" font-family="Helvetica,sans-Serif" font-size="10.00">javafx.scene.effect.Drop</text>
<text text-anchor="middle" x="1451.38" y="-6.5" font-family="Helvetica,sans-Serif" font-size="10.00">Shadow</text>
</a>
</g>
</g>
<!-- Node1&#45;&gt;Node13 -->
<g id="edge12_Node000001_Node000013" class="edge">
<title>Node1&#45;&gt;Node13</title>
<g id="a_edge12_Node000001_Node000013"><a xlink:title=" ">
<path fill="none" stroke="#63b8ff" d="M2169.07,-80.76C2030.96,-76.48 1762.28,-64.64 1524.17,-32.1"/>
<polygon fill="#63b8ff" stroke="#63b8ff" points="1524.74,-28.65 1514.36,-30.74 1523.78,-35.58 1524.74,-28.65"/>
</a>
</g>
</g>
<!-- Node14 -->
<g id="Node000014" class="node">
<title>Node14</title>
<g id="a_Node000014"><a xlink:title=" ">
<polygon fill="#e0e0e0" stroke="#999999" points="1661.75,-26 1531,-26 1531,-6 1661.75,-6 1661.75,-26"/>
<text text-anchor="middle" x="1596.38" y="-12.5" font-family="Helvetica,sans-Serif" font-size="10.00">javafx.scene.image.Image</text>
</a>
</g>
</g>
<!-- Node1&#45;&gt;Node14 -->
<g id="edge13_Node000001_Node000014" class="edge">
<title>Node1&#45;&gt;Node14</title>
<g id="a_edge13_Node000001_Node000014"><a xlink:title=" ">
<path fill="none" stroke="#63b8ff" d="M2169.04,-78.2C2052.6,-71.42 1846.44,-56.99 1671.38,-32 1664.64,-31.04 1657.6,-29.86 1650.64,-28.59"/>
<polygon fill="#63b8ff" stroke="#63b8ff" points="1651.43,-25.18 1640.95,-26.75 1650.12,-32.06 1651.43,-25.18"/>
</a>
</g>
</g>
<!-- Node15 -->
<g id="Node000015" class="node">
<title>Node15</title>
<g id="a_Node000015"><a xlink:title=" ">
<polygon fill="#e0e0e0" stroke="#999999" points="1808.62,-26 1680.12,-26 1680.12,-6 1808.62,-6 1808.62,-26"/>
<text text-anchor="middle" x="1744.38" y="-12.5" font-family="Helvetica,sans-Serif" font-size="10.00">javafx.scene.layout.HBox</text>
</a>
</g>
</g>
<!-- Node1&#45;&gt;Node15 -->
<g id="edge14_Node000001_Node000015" class="edge">
<title>Node1&#45;&gt;Node15</title>
<g id="a_edge14_Node000001_Node000015"><a xlink:title=" ">
<path fill="none" stroke="#63b8ff" d="M2169.01,-74.68C2079.17,-66.05 1938.99,-51.13 1818.38,-32 1811.99,-30.99 1805.32,-29.81 1798.7,-28.56"/>
<polygon fill="#63b8ff" stroke="#63b8ff" points="1799.67,-25.18 1789.18,-26.71 1798.33,-32.06 1799.67,-25.18"/>
</a>
</g>
</g>
<!-- Node16 -->
<g id="Node000016" class="node">
<title>Node16</title>
<g id="a_Node000016"><a xlink:title=" ">
<polygon fill="#e0e0e0" stroke="#999999" points="1961.62,-26 1827.12,-26 1827.12,-6 1961.62,-6 1961.62,-26"/>
<text text-anchor="middle" x="1894.38" y="-12.5" font-family="Helvetica,sans-Serif" font-size="10.00">javafx.scene.layout.Region</text>
</a>
</g>
</g>
<!-- Node1&#45;&gt;Node16 -->
<g id="edge15_Node000001_Node000016" class="edge">
<title>Node1&#45;&gt;Node16</title>
<g id="a_edge15_Node000001_Node000016"><a xlink:title=" ">
<path fill="none" stroke="#63b8ff" d="M2170.19,-67.53C2112.79,-57.67 2037.19,-44.45 1970.38,-32 1964.51,-30.91 1958.39,-29.74 1952.29,-28.56"/>
<polygon fill="#63b8ff" stroke="#63b8ff" points="1953.34,-25.2 1942.86,-26.73 1952.01,-32.07 1953.34,-25.2"/>
</a>
</g>
</g>
<!-- Node17 -->
<g id="Node000017" class="node">
<title>Node17</title>
<g id="a_Node000017"><a xlink:title=" ">
<polygon fill="#e0e0e0" stroke="#999999" points="2107.25,-26 1979.5,-26 1979.5,-6 2107.25,-6 2107.25,-26"/>
<text text-anchor="middle" x="2043.38" y="-12.5" font-family="Helvetica,sans-Serif" font-size="10.00">javafx.scene.layout.VBox</text>
</a>
</g>
</g>
<!-- Node1&#45;&gt;Node17 -->
<g id="edge16_Node000001_Node000017" class="edge">
<title>Node1&#45;&gt;Node17</title>
<g id="a_edge16_Node000001_Node000017"><a xlink:title=" ">
<path fill="none" stroke="#63b8ff" d="M2210.26,-67.53C2172.34,-56.04 2121.23,-40.57 2085.61,-29.79"/>
<polygon fill="#63b8ff" stroke="#63b8ff" points="2086.66,-26.45 2076.07,-26.9 2084.63,-33.15 2086.66,-26.45"/>
</a>
</g>
</g>
<!-- Node18 -->
<g id="Node000018" class="node">
<title>Node18</title>
<g id="a_Node000018"><a xlink:title=" ">
<polygon fill="#e0e0e0" stroke="#999999" points="2247.25,-26 2125.5,-26 2125.5,-6 2247.25,-6 2247.25,-26"/>
<text text-anchor="middle" x="2186.38" y="-12.5" font-family="Helvetica,sans-Serif" font-size="10.00">javafx.scene.paint.Color</text>
</a>
</g>
</g>
<!-- Node1&#45;&gt;Node18 -->
<g id="edge17_Node000001_Node000018" class="edge">
<title>Node1&#45;&gt;Node18</title>
<g id="a_edge17_Node000001_Node000018"><a xlink:title=" ">
<path fill="none" stroke="#63b8ff" d="M2243.98,-67.69C2232.39,-57.5 2217.17,-44.1 2205.29,-33.64"/>
<polygon fill="#63b8ff" stroke="#63b8ff" points="2207.92,-31.29 2198.1,-27.32 2203.29,-36.55 2207.92,-31.29"/>
</a>
</g>
</g>
<!-- Node19 -->
<g id="Node000019" class="node">
<title>Node19</title>
<g id="a_Node000019"><a xlink:title=" ">
<polygon fill="#e0e0e0" stroke="#999999" points="2409.88,-26 2264.88,-26 2264.88,-6 2409.88,-6 2409.88,-26"/>
<text text-anchor="middle" x="2337.38" y="-12.5" font-family="Helvetica,sans-Serif" font-size="10.00">javafx.scene.shape.SVGPath</text>
</a>
</g>
</g>
<!-- Node1&#45;&gt;Node19 -->
<g id="edge18_Node000001_Node000019" class="edge">
<title>Node1&#45;&gt;Node19</title>
<g id="a_edge18_Node000001_Node000019"><a xlink:title=" ">
<path fill="none" stroke="#63b8ff" d="M2279,-67.69C2290.74,-57.5 2306.17,-44.1 2318.21,-33.64"/>
<polygon fill="#63b8ff" stroke="#63b8ff" points="2320.25,-36.51 2325.5,-27.31 2315.66,-31.22 2320.25,-36.51"/>
</a>
</g>
</g>
<!-- Node20 -->
<g id="Node000020" class="node">
<title>Node20</title>
<g id="a_Node000020"><a xlink:title=" ">
<polygon fill="#e0e0e0" stroke="#999999" points="2525.25,-26 2427.5,-26 2427.5,-6 2525.25,-6 2525.25,-26"/>
<text text-anchor="middle" x="2476.38" y="-12.5" font-family="Helvetica,sans-Serif" font-size="10.00">javafx.stage.Stage</text>
</a>
</g>
</g>
<!-- Node1&#45;&gt;Node20 -->
<g id="edge19_Node000001_Node000020" class="edge">
<title>Node1&#45;&gt;Node20</title>
<g id="a_edge19_Node000001_Node000020"><a xlink:title=" ">
<path fill="none" stroke="#63b8ff" d="M2311.78,-67.53C2349.19,-56.04 2399.59,-40.57 2434.72,-29.79"/>
<polygon fill="#63b8ff" stroke="#63b8ff" points="2435.58,-33.18 2444.11,-26.9 2433.52,-26.49 2435.58,-33.18"/>
</a>
</g>
</g>
<!-- Node21 -->
<g id="Node000021" class="node">
<title>Node21</title>
<g id="a_Node000021"><a xlink:title=" ">
<polygon fill="#e0e0e0" stroke="#999999" points="2663.5,-26 2543.25,-26 2543.25,-6 2663.5,-6 2663.5,-26"/>
<text text-anchor="middle" x="2603.38" y="-12.5" font-family="Helvetica,sans-Serif" font-size="10.00">javafx.stage.StageStyle</text>
</a>
</g>
</g>
<!-- Node1&#45;&gt;Node21 -->
<g id="edge20_Node000001_Node000021" class="edge">
<title>Node1&#45;&gt;Node21</title>
<g id="a_edge20_Node000001_Node000021"><a xlink:title=" ">
<path fill="none" stroke="#63b8ff" d="M2347.87,-67.51C2401.63,-57.72 2472.11,-44.58 2534.38,-32 2539.31,-31 2544.43,-29.94 2549.56,-28.86"/>
<polygon fill="#63b8ff" stroke="#63b8ff" points="2550.19,-32.3 2559.24,-26.79 2548.73,-25.46 2550.19,-32.3"/>
</a>
</g>
</g>
<!-- Node22 -->
<g id="Node000022" class="node">
<title>Node22</title>
<g id="a_Node000022"><a xlink:title=" ">
<polygon fill="#e0e0e0" stroke="#999999" points="2779.25,-26 2681.5,-26 2681.5,-6 2779.25,-6 2779.25,-26"/>
<text text-anchor="middle" x="2730.38" y="-12.5" font-family="Helvetica,sans-Serif" font-size="10.00">javafx.util.Duration</text>
</a>
</g>
</g>
<!-- Node1&#45;&gt;Node22 -->
<g id="edge21_Node000001_Node000022" class="edge">
<title>Node1&#45;&gt;Node22</title>
<g id="a_edge21_Node000001_Node000022"><a xlink:title=" ">
<path fill="none" stroke="#63b8ff" d="M2353.73,-74.99C2437.38,-66.92 2563.78,-52.69 2672.38,-32 2676.73,-31.17 2681.25,-30.2 2685.75,-29.16"/>
<polygon fill="#63b8ff" stroke="#63b8ff" points="2686.45,-32.59 2695.33,-26.83 2684.79,-25.79 2686.45,-32.59"/>
</a>
</g>
</g>
<!-- Node23 -->
<g id="Node000023" class="node">
<title>Node23</title>
<g id="a_Node000023"><a xlink:title=" ">
<polygon fill="#e0e0e0" stroke="#999999" points="2879.75,-26 2797,-26 2797,-6 2879.75,-6 2879.75,-26"/>
<text text-anchor="middle" x="2838.38" y="-12.5" font-family="Helvetica,sans-Serif" font-size="10.00">org.slf4j.Logger</text>
</a>
</g>
</g>
<!-- Node1&#45;&gt;Node23 -->
<g id="edge22_Node000001_Node000023" class="edge">
<title>Node1&#45;&gt;Node23</title>
<g id="a_edge22_Node000001_Node000023"><a xlink:title=" ">
<path fill="none" stroke="#63b8ff" d="M2353.56,-79.52C2459.37,-74.28 2637.75,-61.59 2788.38,-32 2791.98,-31.29 2795.69,-30.43 2799.39,-29.49"/>
<polygon fill="#63b8ff" stroke="#63b8ff" points="2800.16,-32.91 2808.86,-26.87 2798.29,-26.16 2800.16,-32.91"/>
</a>
</g>
</g>
<!-- Node24 -->
<g id="Node000024" class="node">
<title>Node24</title>
<g id="a_Node000024"><a xlink:title=" ">
<polygon fill="#e0e0e0" stroke="#999999" points="3013.25,-26 2897.5,-26 2897.5,-6 3013.25,-6 3013.25,-26"/>
<text text-anchor="middle" x="2955.38" y="-12.5" font-family="Helvetica,sans-Serif" font-size="10.00">org.slf4j.LoggerFactory</text>
</a>
</g>
</g>
<!-- Node1&#45;&gt;Node24 -->
<g id="edge23_Node000001_Node000024" class="edge">
<title>Node1&#45;&gt;Node24</title>
<g id="a_edge23_Node000001_Node000024"><a xlink:title=" ">
<path fill="none" stroke="#63b8ff" d="M2353.74,-79.51C2476.44,-73.95 2699.69,-60.65 2888.38,-32 2894.12,-31.13 2900.11,-30.04 2906.03,-28.86"/>
<polygon fill="#63b8ff" stroke="#63b8ff" points="2906.74,-32.29 2915.8,-26.8 2905.3,-25.44 2906.74,-32.29"/>
</a>
</g>
</g>
<!-- Node25 -->
<g id="Node000025" class="node">
<title>Node25</title>
<g id="a_Node000025"><a xlink:title=" ">
<polygon fill="#e0e0e0" stroke="#999999" points="3169.88,-26 3030.88,-26 3030.88,-6 3169.88,-6 3169.88,-26"/>
<text text-anchor="middle" x="3100.38" y="-12.5" font-family="Helvetica,sans-Serif" font-size="10.00">fr.softsf.sudokufx.SudoMain</text>
</a>
</g>
</g>
<!-- Node1&#45;&gt;Node25 -->
<g id="edge24_Node000001_Node000025" class="edge">
<title>Node1&#45;&gt;Node25</title>
<g id="a_edge24_Node000001_Node000025"><a xlink:title=" ">
<path fill="none" stroke="#63b8ff" d="M2353.69,-80.48C2497.22,-75.73 2782.38,-63 3022.38,-32 3029.82,-31.04 3037.62,-29.81 3045.3,-28.47"/>
<polygon fill="#63b8ff" stroke="#63b8ff" points="3045.69,-31.95 3054.9,-26.71 3044.43,-25.07 3045.69,-31.95"/>
</a>
</g>
</g>
<!-- Node26 -->
<g id="Node000026" class="node">
<title>Node26</title>
<g id="a_Node000026"><a xlink:title=" ">
<polygon fill="#e0e0e0" stroke="#999999" points="3374.88,-26 3187.88,-26 3187.88,-6 3374.88,-6 3374.88,-26"/>
<text text-anchor="middle" x="3281.38" y="-12.5" font-family="Helvetica,sans-Serif" font-size="10.00">fr.softsf.sudokufx.common.enums.I18n</text>
</a>
</g>
</g>
<!-- Node1&#45;&gt;Node26 -->
<g id="edge25_Node000001_Node000026" class="edge">
<title>Node1&#45;&gt;Node26</title>
<g id="a_edge25_Node000001_Node000026"><a xlink:title=" ">
<path fill="none" stroke="#63b8ff" d="M2353.78,-80.63C2519.54,-75.77 2878.23,-62.45 3179.38,-32 3189.95,-30.93 3201.1,-29.55 3212,-28.06"/>
<polygon fill="#63b8ff" stroke="#63b8ff" points="3212.32,-31.55 3221.73,-26.69 3211.34,-24.62 3212.32,-31.55"/>
</a>
</g>
</g>
<!-- Node27 -->
<g id="Node000027" class="node">
<title>Node27</title>
<g id="a_Node000027"><a xlink:title=" ">
<polygon fill="#e0e0e0" stroke="#999999" points="3574.25,-32 3392.5,-32 3392.5,0 3574.25,0 3574.25,-32"/>
<text text-anchor="start" x="3400.5" y="-18.5" font-family="Helvetica,sans-Serif" font-size="10.00">fr.softsf.sudokufx.common.interfaces.</text>
<text text-anchor="middle" x="3483.38" y="-6.5" font-family="Helvetica,sans-Serif" font-size="10.00">IMainView</text>
</a>
</g>
</g>
<!-- Node1&#45;&gt;Node27 -->
<g id="edge26_Node000001_Node000027" class="edge">
<title>Node1&#45;&gt;Node27</title>
<g id="a_edge26_Node000001_Node000027"><a xlink:title=" ">
<path fill="none" stroke="#63b8ff" d="M2353.68,-82.08C2544.02,-79.48 2994.05,-69.65 3380.83,-32.29"/>
<polygon fill="#63b8ff" stroke="#63b8ff" points="3381.13,-35.77 3390.75,-31.32 3380.46,-28.81 3381.13,-35.77"/>
</a>
</g>
</g>
<!-- Node28 -->
<g id="Node000028" class="node">
<title>Node28</title>
<g id="a_Node000028"><a xlink:title=" ">
<polygon fill="#e0e0e0" stroke="#999999" points="3774.25,-32 3592.5,-32 3592.5,0 3774.25,0 3774.25,-32"/>
<text text-anchor="start" x="3600.5" y="-18.5" font-family="Helvetica,sans-Serif" font-size="10.00">fr.softsf.sudokufx.common.interfaces.</text>
<text text-anchor="middle" x="3683.38" y="-6.5" font-family="Helvetica,sans-Serif" font-size="10.00">ISplashScreenView</text>
</a>
</g>
</g>
<!-- Node1&#45;&gt;Node28 -->
<g id="edge27_Node000001_Node000028" class="edge">
<title>Node1&#45;&gt;Node28</title>
<g id="a_edge27_Node000001_Node000028"><a xlink:title=" ">
<path fill="none" stroke="#63b8ff" d="M2353.76,-82.94C2567.79,-82.03 3114.26,-75.37 3580.79,-32.17"/>
<polygon fill="#63b8ff" stroke="#63b8ff" points="3581,-35.66 3590.63,-31.25 3580.35,-28.69 3581,-35.66"/>
</a>
</g>
</g>
<!-- Node29 -->
<g id="Node000029" class="node">
<title>Node29</title>
<g id="a_Node000029"><a xlink:title=" ">
<polygon fill="#e0e0e0" stroke="#999999" points="3944.25,-32 3792.5,-32 3792.5,0 3944.25,0 3944.25,-32"/>
<text text-anchor="start" x="3800.5" y="-18.5" font-family="Helvetica,sans-Serif" font-size="10.00">fr.softsf.sudokufx.common.util.</text>
<text text-anchor="middle" x="3868.38" y="-6.5" font-family="Helvetica,sans-Serif" font-size="10.00">FileSystemManager</text>
</a>
</g>
</g>
<!-- Node1&#45;&gt;Node29 -->
<g id="edge28_Node000001_Node000029" class="edge">
<title>Node1&#45;&gt;Node29</title>
<g id="a_edge28_Node000001_Node000029"><a xlink:title=" ">
<path fill="none" stroke="#63b8ff" d="M2353.82,-81.61C2635.59,-77.13 3482.04,-61.6 3781.18,-32.09"/>
<polygon fill="#63b8ff" stroke="#63b8ff" points="3781.35,-35.59 3790.94,-31.1 3780.64,-28.63 3781.35,-35.59"/>
</a>
</g>
</g>
<!-- Node30 -->
<g id="Node000030" class="node">
<title>Node30</title>
<g id="a_Node000030"><a xlink:title=" ">
<polygon fill="#e0e0e0" stroke="#999999" points="4114.25,-32 3962.5,-32 3962.5,0 4114.25,0 4114.25,-32"/>
<text text-anchor="start" x="3970.5" y="-18.5" font-family="Helvetica,sans-Serif" font-size="10.00">fr.softsf.sudokufx.common.util.</text>
<text text-anchor="middle" x="4038.38" y="-6.5" font-family="Helvetica,sans-Serif" font-size="10.00">IFileSystem</text>
</a>
</g>
</g>
<!-- Node1&#45;&gt;Node30 -->
<g id="edge29_Node000001_Node000030" class="edge">
<title>Node1&#45;&gt;Node30</title>
<g id="a_edge29_Node000001_Node000030"><a xlink:title=" ">
<path fill="none" stroke="#63b8ff" d="M2353.76,-81.98C2656.41,-78.35 3617.28,-64.6 3951.31,-32.07"/>
<polygon fill="#63b8ff" stroke="#63b8ff" points="3951.34,-35.59 3960.95,-31.11 3950.65,-28.62 3951.34,-35.59"/>
</a>
</g>
</g>
<!-- Node31 -->
<g id="Node000031" class="node">
<title>Node31</title>
<g id="a_Node000031"><a xlink:title=" ">
<polygon fill="#e0e0e0" stroke="#999999" points="4260.62,-32 4132.12,-32 4132.12,0 4260.62,0 4260.62,-32"/>
<text text-anchor="start" x="4140.12" y="-18.5" font-family="Helvetica,sans-Serif" font-size="10.00">fr.softsf.sudokufx.config.</text>
<text text-anchor="middle" x="4196.38" y="-6.5" font-family="Helvetica,sans-Serif" font-size="10.00">JVMApplicationProperties</text>
</a>
</g>
</g>
<!-- Node1&#45;&gt;Node31 -->
<g id="edge30_Node000001_Node000031" class="edge">
<title>Node1&#45;&gt;Node31</title>
<g id="a_edge30_Node000001_Node000031"><a xlink:title=" ">
<path fill="none" stroke="#63b8ff" d="M2353.86,-82.61C2676.58,-80.93 3752.55,-72.43 4120.77,-32.13"/>
<polygon fill="#63b8ff" stroke="#63b8ff" points="4120.94,-35.63 4130.48,-31.04 4120.15,-28.68 4120.94,-35.63"/>
</a>
</g>
</g>
<!-- Node32 -->
<g id="Node000032" class="node">
<title>Node32</title>
<g id="a_Node000032"><a xlink:title=" ">
<polygon fill="#e0e0e0" stroke="#999999" points="4416.5,-32 4278.25,-32 4278.25,0 4416.5,0 4416.5,-32"/>
<text text-anchor="start" x="4286.25" y="-18.5" font-family="Helvetica,sans-Serif" font-size="10.00">fr.softsf.sudokufx.config.os.</text>
<text text-anchor="middle" x="4347.38" y="-6.5" font-family="Helvetica,sans-Serif" font-size="10.00">IOsFolder</text>
</a>
</g>
</g>
<!-- Node1&#45;&gt;Node32 -->
<g id="edge31_Node000001_Node000032" class="edge">
<title>Node1&#45;&gt;Node32</title>
<g id="a_edge31_Node000001_Node000032"><a xlink:title=" ">
<path fill="none" stroke="#63b8ff" d="M2353.63,-82.67C2692.34,-81.16 3867.92,-73.1 4266.85,-32.12"/>
<polygon fill="#63b8ff" stroke="#63b8ff" points="4267.06,-35.62 4276.64,-31.09 4266.32,-28.65 4267.06,-35.62"/>
</a>
</g>
</g>
<!-- Node33 -->
<g id="Node000033" class="node">
<title>Node33</title>
<g id="a_Node000033"><a xlink:title=" ">
<polygon fill="#e0e0e0" stroke="#999999" points="4572.5,-32 4434.25,-32 4434.25,0 4572.5,0 4572.5,-32"/>
<text text-anchor="start" x="4442.25" y="-18.5" font-family="Helvetica,sans-Serif" font-size="10.00">fr.softsf.sudokufx.config.os.</text>
<text text-anchor="middle" x="4503.38" y="-6.5" font-family="Helvetica,sans-Serif" font-size="10.00">OsFoldersConfig</text>
</a>
</g>
</g>
<!-- Node1&#45;&gt;Node33 -->
<g id="edge32_Node000001_Node000033" class="edge">
<title>Node1&#45;&gt;Node33</title>
<g id="a_edge32_Node000001_Node000033"><a xlink:title=" ">
<path fill="none" stroke="#63b8ff" d="M2353.64,-82.87C2709.19,-82.06 3991.65,-76.15 4422.87,-32.11"/>
<polygon fill="#63b8ff" stroke="#63b8ff" points="4423.06,-35.61 4432.64,-31.09 4422.33,-28.65 4423.06,-35.61"/>
</a>
</g>
</g>
<!-- Node34 -->
<g id="Node000034" class="node">
<title>Node34</title>
<g id="a_Node000034"><a xlink:title=" ">
<polygon fill="#e0e0e0" stroke="#999999" points="4772.25,-32 4590.5,-32 4590.5,0 4772.25,0 4772.25,-32"/>
<text text-anchor="start" x="4598.5" y="-18.5" font-family="Helvetica,sans-Serif" font-size="10.00">fr.softsf.sudokufx.common.enums.</text>
<text text-anchor="middle" x="4681.38" y="-6.5" font-family="Helvetica,sans-Serif" font-size="10.00">AppPaths.LOGO_SUDO_PNG_PATH</text>
</a>
</g>
</g>
<!-- Node1&#45;&gt;Node34 -->
<g id="edge33_Node000001_Node000034" class="edge">
<title>Node1&#45;&gt;Node34</title>
<g id="a_edge33_Node000001_Node000034"><a xlink:title=" ">
<path fill="none" stroke="#63b8ff" d="M2353.79,-82.54C2725.6,-80.43 4114.13,-70.19 4578.68,-32.13"/>
<polygon fill="#63b8ff" stroke="#63b8ff" points="4578.96,-35.62 4588.64,-31.3 4578.38,-28.65 4578.96,-35.62"/>
</a>
</g>
</g>
<!-- Node35 -->
<g id="Node000035" class="node">
<title>Node35</title>
<g id="a_Node000035"><a xlink:title=" ">
<polygon fill="#e0e0e0" stroke="#999999" points="4958.5,-32 4790.25,-32 4790.25,0 4958.5,0 4958.5,-32"/>
<text text-anchor="start" x="4798.25" y="-18.5" font-family="Helvetica,sans-Serif" font-size="10.00">fr.softsf.sudokufx.common.enums.</text>
<text text-anchor="middle" x="4874.38" y="-6.5" font-family="Helvetica,sans-Serif" font-size="10.00">ScreenSize.DISPOSABLE_SIZE</text>
</a>
</g>
</g>
<!-- Node1&#45;&gt;Node35 -->
<g id="edge34_Node000001_Node000035" class="edge">
<title>Node1&#45;&gt;Node35</title>
<g id="a_edge34_Node000001_Node000035"><a xlink:title=" ">
<path fill="none" stroke="#63b8ff" d="M2353.63,-82.86C2745.27,-82 4272.76,-75.92 4778.4,-32.16"/>
<polygon fill="#63b8ff" stroke="#63b8ff" points="4778.63,-35.66 4788.28,-31.29 4778.01,-28.68 4778.63,-35.66"/>
</a>
</g>
</g>
</g>
</svg>

<g id="navigator" transform="translate(0 0)" fill="#404254">
  <rect fill="#f2f5e9" fill-opacity="0.5" stroke="#606060" stroke-width=".5" x="0" y="0" width="60" height="60"/>
  <use id="zoomplus" xlink:href="#zoomPlus" x="17" y="9" onmousedown="handleZoom(evt,'in')"/>
  <use id="zoomminus" xlink:href="#zoomMin" x="42" y="9" onmousedown="handleZoom(evt,'out')"/>
  <use id="reset" xlink:href="#resetDef" x="30" y="36" onmousedown="handleReset()"/>
   <use id="arrowup" xlink:href="#arrowUp" x="0" y="0" onmousedown="handlePan(0,-1)"/>
  <use id="arrowright" xlink:href="#arrowRight" x="0" y="0" onmousedown="handlePan(1,0)"/>
  <use id="arrowdown" xlink:href="#arrowDown" x="0" y="0" onmousedown="handlePan(0,1)"/>
  <use id="arrowleft" xlink:href="#arrowLeft" x="0" y="0" onmousedown="handlePan(-1,0)"/>
</g>
<svg viewBox="0 0 15 15" width="100%" height="30px" preserveAspectRatio="xMaxYMin meet">
 <g id="arrow_out" transform="scale(0.3 0.3)">
  <a xlink:href="_crash_screen_view_8java__incl_org.svg" target="_base">
   <rect id="button" ry="5" rx="5" y="6" x="6" height="38" width="38"
        fill="#f2f5e9" fill-opacity="0.5" stroke="#606060" stroke-width="1.0"/>
   <path id="arrow"
     d="M 11.500037,31.436501 C 11.940474,20.09759 22.043105,11.32322 32.158766,21.979434 L 37.068811,17.246167 C 37.068811,17.246167 37.088388,32 37.088388,32 L 22.160133,31.978069 C 22.160133,31.978069 26.997745,27.140456 26.997745,27.140456 C 18.528582,18.264221 13.291696,25.230495 11.500037,31.436501 z"
     style="fill:#404040;"/>
  </a>
 </g>
</svg>

<style type='text/css'>
<![CDATA[
[data-mouse-over-selected='false'] { opacity: 0.7; }
[data-mouse-over-selected='true']  { opacity: 1.0; }
]]>
</style>
<script type="application/ecmascript"><![CDATA[
document.addEventListener('DOMContentLoaded', (event) => {
  highlightEdges();
  highlightAdjacentNodes();
});
]]></script>
</svg>
