<?xml version="1.0" encoding="UTF-8" standalone="no"?>
<!DOCTYPE svg PUBLIC "-//W3C//DTD SVG 1.1//EN"
 "http://www.w3.org/Graphics/SVG/1.1/DTD/svg11.dtd">
<!-- Generated by graphviz version 12.2.1 (20241206.2353)
 -->
<!-- Title: src/main/java/fr/softsf/sudokufx/view/CrashScreenView.java Pages: 1 -->
<svg width="4827pt" height="108pt"
 viewBox="0.00 0.00 4826.75 108.00" xmlns="http://www.w3.org/2000/svg" xmlns:xlink="http://www.w3.org/1999/xlink">
<g id="graph0" class="graph" transform="scale(1 1) rotate(0) translate(4 104)">
<title>src/main/java/fr/softsf/sudokufx/view/CrashScreenView.java</title>
<!-- Node1 -->
<g id="Node000001" class="node">
<title>Node1</title>
<g id="a_Node000001"><a xlink:title=" ">
<polygon fill="#999999" stroke="#666666" points="2353.38,-100 2169.38,-100 2169.38,-68 2353.38,-68 2353.38,-100"/>
<text text-anchor="start" x="2177.38" y="-86.5" font-family="Helvetica,sans-Serif" font-size="10.00">src/main/java/fr/softsf</text>
<text text-anchor="middle" x="2261.38" y="-74.5" font-family="Helvetica,sans-Serif" font-size="10.00">/sudokufx/view/CrashScreenView.java</text>
</a>
</g>
</g>
<!-- Node2 -->
<g id="Node000002" class="node">
<title>Node2</title>
<g id="a_Node000002"><a xlink:title=" ">
<polygon fill="#e0e0e0" stroke="#999999" points="88.75,-26 0,-26 0,-6 88.75,-6 88.75,-26"/>
<text text-anchor="middle" x="44.38" y="-12.5" font-family="Helvetica,sans-Serif" font-size="10.00">java.nio.file.Path</text>
</a>
</g>
</g>
<!-- Node1&#45;&gt;Node2 -->
<g id="edge1_Node000001_Node000002" class="edge">
<title>Node1&#45;&gt;Node2</title>
<g id="a_edge1_Node000001_Node000002"><a xlink:title=" ">
<path fill="none" stroke="#63b8ff" d="M2168.9,-82.2C1782.01,-78.64 303.79,-63.13 97.38,-32 92.93,-31.33 88.33,-30.4 83.78,-29.33"/>
<polygon fill="#63b8ff" stroke="#63b8ff" points="84.72,-25.95 74.16,-26.82 82.95,-32.73 84.72,-25.95"/>
</a>
</g>
</g>
<!-- Node3 -->
<g id="Node000003" class="node">
<title>Node3</title>
<g id="a_Node000003"><a xlink:title=" ">
<polygon fill="#e0e0e0" stroke="#999999" points="200.38,-26 106.38,-26 106.38,-6 200.38,-6 200.38,-26"/>
<text text-anchor="middle" x="153.38" y="-12.5" font-family="Helvetica,sans-Serif" font-size="10.00">java.nio.file.Paths</text>
</a>
</g>
</g>
<!-- Node1&#45;&gt;Node3 -->
<g id="edge2_Node000001_Node000003" class="edge">
<title>Node1&#45;&gt;Node3</title>
<g id="a_edge2_Node000001_Node000003"><a xlink:title=" ">
<path fill="none" stroke="#63b8ff" d="M2168.99,-81.99C1795.06,-77.74 404.47,-60.15 209.38,-32 204.42,-31.29 199.28,-30.28 194.21,-29.13"/>
<polygon fill="#63b8ff" stroke="#63b8ff" points="195.35,-25.81 184.8,-26.79 193.66,-32.6 195.35,-25.81"/>
</a>
</g>
</g>
<!-- Node4 -->
<g id="Node000004" class="node">
<title>Node4</title>
<g id="a_Node000004"><a xlink:title=" ">
<polygon fill="#e0e0e0" stroke="#999999" points="296.5,-26 218.25,-26 218.25,-6 296.5,-6 296.5,-26"/>
<text text-anchor="middle" x="257.38" y="-12.5" font-family="Helvetica,sans-Serif" font-size="10.00">java.time.Year</text>
</a>
</g>
</g>
<!-- Node1&#45;&gt;Node4 -->
<g id="edge3_Node000001_Node000004" class="edge">
<title>Node1&#45;&gt;Node4</title>
<g id="a_edge3_Node000001_Node000004"><a xlink:title=" ">
<path fill="none" stroke="#63b8ff" d="M2169.01,-82.09C1806.24,-78.32 490,-62.64 305.38,-32 301.56,-31.37 297.62,-30.5 293.72,-29.51"/>
<polygon fill="#63b8ff" stroke="#63b8ff" points="295,-26.23 284.42,-26.85 293.07,-32.96 295,-26.23"/>
</a>
</g>
</g>
<!-- Node5 -->
<g id="Node000005" class="node">
<title>Node5</title>
<g id="a_Node000005"><a xlink:title=" ">
<polygon fill="#e0e0e0" stroke="#999999" points="400.62,-26 314.12,-26 314.12,-6 400.62,-6 400.62,-26"/>
<text text-anchor="middle" x="357.38" y="-12.5" font-family="Helvetica,sans-Serif" font-size="10.00">java.util.Objects</text>
</a>
</g>
</g>
<!-- Node1&#45;&gt;Node5 -->
<g id="edge4_Node000001_Node000005" class="edge">
<title>Node1&#45;&gt;Node5</title>
<g id="a_edge4_Node000001_Node000005"><a xlink:title=" ">
<path fill="none" stroke="#63b8ff" d="M2169.03,-83.48C1844.16,-84.7 754.97,-84.67 410.38,-32 405.98,-31.33 401.43,-30.41 396.94,-29.35"/>
<polygon fill="#63b8ff" stroke="#63b8ff" points="397.99,-26 387.44,-26.87 396.23,-32.78 397.99,-26"/>
</a>
</g>
</g>
<!-- Node6 -->
<g id="Node000006" class="node">
<title>Node6</title>
<g id="a_Node000006"><a xlink:title=" ">
<polygon fill="#e0e0e0" stroke="#999999" points="573.75,-26 419,-26 419,-6 573.75,-6 573.75,-26"/>
<text text-anchor="middle" x="496.38" y="-12.5" font-family="Helvetica,sans-Serif" font-size="10.00">javafx.animation.FadeTransition</text>
</a>
</g>
</g>
<!-- Node1&#45;&gt;Node6 -->
<g id="edge5_Node000001_Node000006" class="edge">
<title>Node1&#45;&gt;Node6</title>
<g id="a_edge5_Node000001_Node000006"><a xlink:title=" ">
<path fill="none" stroke="#63b8ff" d="M2168.91,-81.93C1864.28,-78.12 893.9,-63.74 582.38,-32 573.37,-31.08 563.89,-29.78 554.64,-28.31"/>
<polygon fill="#63b8ff" stroke="#63b8ff" points="555.45,-24.9 545.01,-26.72 554.31,-31.81 555.45,-24.9"/>
</a>
</g>
</g>
<!-- Node7 -->
<g id="Node000007" class="node">
<title>Node7</title>
<g id="a_Node000007"><a xlink:title=" ">
<polygon fill="#e0e0e0" stroke="#999999" points="723.12,-26 591.62,-26 591.62,-6 723.12,-6 723.12,-26"/>
<text text-anchor="middle" x="657.38" y="-12.5" font-family="Helvetica,sans-Serif" font-size="10.00">javafx.application.Platform</text>
</a>
</g>
</g>
<!-- Node1&#45;&gt;Node7 -->
<g id="edge6_Node000001_Node000007" class="edge">
<title>Node1&#45;&gt;Node7</title>
<g id="a_edge6_Node000001_Node000007"><a xlink:title=" ">
<path fill="none" stroke="#63b8ff" d="M2168.91,-81.94C1882.44,-78.33 1012.09,-64.9 731.38,-32 724.11,-31.15 716.5,-29.96 709.04,-28.61"/>
<polygon fill="#63b8ff" stroke="#63b8ff" points="709.86,-25.21 699.38,-26.76 708.54,-32.08 709.86,-25.21"/>
</a>
</g>
</g>
<!-- Node8 -->
<g id="Node000008" class="node">
<title>Node8</title>
<g id="a_Node000008"><a xlink:title=" ">
<polygon fill="#e0e0e0" stroke="#999999" points="834,-26 740.75,-26 740.75,-6 834,-6 834,-26"/>
<text text-anchor="middle" x="787.38" y="-12.5" font-family="Helvetica,sans-Serif" font-size="10.00">javafx.fxml.FXML</text>
</a>
</g>
</g>
<!-- Node1&#45;&gt;Node8 -->
<g id="edge7_Node000001_Node000008" class="edge">
<title>Node1&#45;&gt;Node8</title>
<g id="a_edge7_Node000001_Node000008"><a xlink:title=" ">
<path fill="none" stroke="#63b8ff" d="M2169.16,-82.4C1897.03,-80.19 1100.39,-70.54 843.38,-32 838.62,-31.29 833.68,-30.32 828.8,-29.21"/>
<polygon fill="#63b8ff" stroke="#63b8ff" points="829.65,-25.81 819.1,-26.8 827.96,-32.61 829.65,-25.81"/>
</a>
</g>
</g>
<!-- Node9 -->
<g id="Node000009" class="node">
<title>Node9</title>
<g id="a_Node000009"><a xlink:title=" ">
<polygon fill="#e0e0e0" stroke="#999999" points="950.25,-26 852.5,-26 852.5,-6 950.25,-6 950.25,-26"/>
<text text-anchor="middle" x="901.38" y="-12.5" font-family="Helvetica,sans-Serif" font-size="10.00">javafx.scene.Node</text>
</a>
</g>
</g>
<!-- Node1&#45;&gt;Node9 -->
<g id="edge8_Node000001_Node000009" class="edge">
<title>Node1&#45;&gt;Node9</title>
<g id="a_edge8_Node000001_Node000009"><a xlink:title=" ">
<path fill="none" stroke="#63b8ff" d="M2169.02,-81.95C1912.2,-78.62 1193.11,-66.4 959.38,-32 954.38,-31.26 949.19,-30.27 944.06,-29.14"/>
<polygon fill="#63b8ff" stroke="#63b8ff" points="945.05,-25.77 934.51,-26.85 943.41,-32.58 945.05,-25.77"/>
</a>
</g>
</g>
<!-- Node10 -->
<g id="Node000010" class="node">
<title>Node10</title>
<g id="a_Node000010"><a xlink:title=" ">
<polygon fill="#e0e0e0" stroke="#999999" points="1070.5,-26 968.25,-26 968.25,-6 1070.5,-6 1070.5,-26"/>
<text text-anchor="middle" x="1019.38" y="-12.5" font-family="Helvetica,sans-Serif" font-size="10.00">javafx.scene.Scene</text>
</a>
</g>
</g>
<!-- Node1&#45;&gt;Node10 -->
<g id="edge9_Node000001_Node000010" class="edge">
<title>Node1&#45;&gt;Node10</title>
<g id="a_edge9_Node000001_Node000010"><a xlink:title=" ">
<path fill="none" stroke="#63b8ff" d="M2168.99,-81.42C1928.85,-76.94 1289.13,-62.43 1079.38,-32 1074.08,-31.23 1068.56,-30.19 1063.12,-29.02"/>
<polygon fill="#63b8ff" stroke="#63b8ff" points="1064.15,-25.67 1053.62,-26.8 1062.57,-32.48 1064.15,-25.67"/>
</a>
</g>
</g>
<!-- Node11 -->
<g id="Node000011" class="node">
<title>Node11</title>
<g id="a_Node000011"><a xlink:title=" ">
<polygon fill="#e0e0e0" stroke="#999999" points="1224,-26 1088.75,-26 1088.75,-6 1224,-6 1224,-26"/>
<text text-anchor="middle" x="1156.38" y="-12.5" font-family="Helvetica,sans-Serif" font-size="10.00">javafx.scene.control.Button</text>
</a>
</g>
</g>
<!-- Node1&#45;&gt;Node11 -->
<g id="edge10_Node000001_Node000011" class="edge">
<title>Node1&#45;&gt;Node11</title>
<g id="a_edge10_Node000001_Node000011"><a xlink:title=" ">
<path fill="none" stroke="#63b8ff" d="M2169.2,-82.83C1988.83,-81.52 1576.84,-73.76 1233.38,-32 1225.84,-31.08 1217.93,-29.85 1210.17,-28.49"/>
<polygon fill="#63b8ff" stroke="#63b8ff" points="1210.93,-25.07 1200.46,-26.7 1209.65,-31.96 1210.93,-25.07"/>
</a>
</g>
</g>
<!-- Node12 -->
<g id="Node000012" class="node">
<title>Node12</title>
<g id="a_Node000012"><a xlink:title=" ">
<polygon fill="#e0e0e0" stroke="#999999" points="1372.38,-26 1242.38,-26 1242.38,-6 1372.38,-6 1372.38,-26"/>
<text text-anchor="middle" x="1307.38" y="-12.5" font-family="Helvetica,sans-Serif" font-size="10.00">javafx.scene.control.Label</text>
</a>
</g>
</g>
<!-- Node1&#45;&gt;Node12 -->
<g id="edge11_Node000001_Node000012" class="edge">
<title>Node1&#45;&gt;Node12</title>
<g id="a_edge11_Node000001_Node000012"><a xlink:title=" ">
<path fill="none" stroke="#63b8ff" d="M2169.12,-81.96C2008.45,-79.18 1667.07,-69.04 1381.38,-32 1374.38,-31.09 1367.06,-29.9 1359.85,-28.59"/>
<polygon fill="#63b8ff" stroke="#63b8ff" points="1360.65,-25.18 1350.17,-26.74 1359.34,-32.06 1360.65,-25.18"/>
</a>
</g>
</g>
<!-- Node13 -->
<g id="Node000013" class="node">
<title>Node13</title>
<g id="a_Node000013"><a xlink:title=" ">
<polygon fill="#e0e0e0" stroke="#999999" points="1512.62,-32 1390.12,-32 1390.12,0 1512.62,0 1512.62,-32"/>
<text text-anchor="start" x="1398.12" y="-18.5" font-family="Helvetica,sans-Serif" font-size="10.00">javafx.scene.effect.Drop</text>
<text text-anchor="middle" x="1451.38" y="-6.5" font-family="Helvetica,sans-Serif" font-size="10.00">Shadow</text>
</a>
</g>
</g>
<!-- Node1&#45;&gt;Node13 -->
<g id="edge12_Node000001_Node000013" class="edge">
<title>Node1&#45;&gt;Node13</title>
<g id="a_edge12_Node000001_Node000013"><a xlink:title=" ">
<path fill="none" stroke="#63b8ff" d="M2169.07,-80.76C2030.96,-76.48 1762.28,-64.64 1524.17,-32.1"/>
<polygon fill="#63b8ff" stroke="#63b8ff" points="1524.74,-28.65 1514.36,-30.74 1523.78,-35.58 1524.74,-28.65"/>
</a>
</g>
</g>
<!-- Node14 -->
<g id="Node000014" class="node">
<title>Node14</title>
<g id="a_Node000014"><a xlink:title=" ">
<polygon fill="#e0e0e0" stroke="#999999" points="1661.75,-26 1531,-26 1531,-6 1661.75,-6 1661.75,-26"/>
<text text-anchor="middle" x="1596.38" y="-12.5" font-family="Helvetica,sans-Serif" font-size="10.00">javafx.scene.image.Image</text>
</a>
</g>
</g>
<!-- Node1&#45;&gt;Node14 -->
<g id="edge13_Node000001_Node000014" class="edge">
<title>Node1&#45;&gt;Node14</title>
<g id="a_edge13_Node000001_Node000014"><a xlink:title=" ">
<path fill="none" stroke="#63b8ff" d="M2169.04,-78.2C2052.6,-71.42 1846.44,-56.99 1671.38,-32 1664.64,-31.04 1657.6,-29.86 1650.64,-28.59"/>
<polygon fill="#63b8ff" stroke="#63b8ff" points="1651.43,-25.18 1640.95,-26.75 1650.12,-32.06 1651.43,-25.18"/>
</a>
</g>
</g>
<!-- Node15 -->
<g id="Node000015" class="node">
<title>Node15</title>
<g id="a_Node000015"><a xlink:title=" ">
<polygon fill="#e0e0e0" stroke="#999999" points="1808.62,-26 1680.12,-26 1680.12,-6 1808.62,-6 1808.62,-26"/>
<text text-anchor="middle" x="1744.38" y="-12.5" font-family="Helvetica,sans-Serif" font-size="10.00">javafx.scene.layout.HBox</text>
</a>
</g>
</g>
<!-- Node1&#45;&gt;Node15 -->
<g id="edge14_Node000001_Node000015" class="edge">
<title>Node1&#45;&gt;Node15</title>
<g id="a_edge14_Node000001_Node000015"><a xlink:title=" ">
<path fill="none" stroke="#63b8ff" d="M2169.01,-74.68C2079.17,-66.05 1938.99,-51.13 1818.38,-32 1811.99,-30.99 1805.32,-29.81 1798.7,-28.56"/>
<polygon fill="#63b8ff" stroke="#63b8ff" points="1799.67,-25.18 1789.18,-26.71 1798.33,-32.06 1799.67,-25.18"/>
</a>
</g>
</g>
<!-- Node16 -->
<g id="Node000016" class="node">
<title>Node16</title>
<g id="a_Node000016"><a xlink:title=" ">
<polygon fill="#e0e0e0" stroke="#999999" points="1961.62,-26 1827.12,-26 1827.12,-6 1961.62,-6 1961.62,-26"/>
<text text-anchor="middle" x="1894.38" y="-12.5" font-family="Helvetica,sans-Serif" font-size="10.00">javafx.scene.layout.Region</text>
</a>
</g>
</g>
<!-- Node1&#45;&gt;Node16 -->
<g id="edge15_Node000001_Node000016" class="edge">
<title>Node1&#45;&gt;Node16</title>
<g id="a_edge15_Node000001_Node000016"><a xlink:title=" ">
<path fill="none" stroke="#63b8ff" d="M2170.19,-67.53C2112.79,-57.67 2037.19,-44.45 1970.38,-32 1964.51,-30.91 1958.39,-29.74 1952.29,-28.56"/>
<polygon fill="#63b8ff" stroke="#63b8ff" points="1953.34,-25.2 1942.86,-26.73 1952.01,-32.07 1953.34,-25.2"/>
</a>
</g>
</g>
<!-- Node17 -->
<g id="Node000017" class="node">
<title>Node17</title>
<g id="a_Node000017"><a xlink:title=" ">
<polygon fill="#e0e0e0" stroke="#999999" points="2107.25,-26 1979.5,-26 1979.5,-6 2107.25,-6 2107.25,-26"/>
<text text-anchor="middle" x="2043.38" y="-12.5" font-family="Helvetica,sans-Serif" font-size="10.00">javafx.scene.layout.VBox</text>
</a>
</g>
</g>
<!-- Node1&#45;&gt;Node17 -->
<g id="edge16_Node000001_Node000017" class="edge">
<title>Node1&#45;&gt;Node17</title>
<g id="a_edge16_Node000001_Node000017"><a xlink:title=" ">
<path fill="none" stroke="#63b8ff" d="M2210.26,-67.53C2172.34,-56.04 2121.23,-40.57 2085.61,-29.79"/>
<polygon fill="#63b8ff" stroke="#63b8ff" points="2086.66,-26.45 2076.07,-26.9 2084.63,-33.15 2086.66,-26.45"/>
</a>
</g>
</g>
<!-- Node18 -->
<g id="Node000018" class="node">
<title>Node18</title>
<g id="a_Node000018"><a xlink:title=" ">
<polygon fill="#e0e0e0" stroke="#999999" points="2247.25,-26 2125.5,-26 2125.5,-6 2247.25,-6 2247.25,-26"/>
<text text-anchor="middle" x="2186.38" y="-12.5" font-family="Helvetica,sans-Serif" font-size="10.00">javafx.scene.paint.Color</text>
</a>
</g>
</g>
<!-- Node1&#45;&gt;Node18 -->
<g id="edge17_Node000001_Node000018" class="edge">
<title>Node1&#45;&gt;Node18</title>
<g id="a_edge17_Node000001_Node000018"><a xlink:title=" ">
<path fill="none" stroke="#63b8ff" d="M2243.98,-67.69C2232.39,-57.5 2217.17,-44.1 2205.29,-33.64"/>
<polygon fill="#63b8ff" stroke="#63b8ff" points="2207.92,-31.29 2198.1,-27.32 2203.29,-36.55 2207.92,-31.29"/>
</a>
</g>
</g>
<!-- Node19 -->
<g id="Node000019" class="node">
<title>Node19</title>
<g id="a_Node000019"><a xlink:title=" ">
<polygon fill="#e0e0e0" stroke="#999999" points="2409.88,-26 2264.88,-26 2264.88,-6 2409.88,-6 2409.88,-26"/>
<text text-anchor="middle" x="2337.38" y="-12.5" font-family="Helvetica,sans-Serif" font-size="10.00">javafx.scene.shape.SVGPath</text>
</a>
</g>
</g>
<!-- Node1&#45;&gt;Node19 -->
<g id="edge18_Node000001_Node000019" class="edge">
<title>Node1&#45;&gt;Node19</title>
<g id="a_edge18_Node000001_Node000019"><a xlink:title=" ">
<path fill="none" stroke="#63b8ff" d="M2279,-67.69C2290.74,-57.5 2306.17,-44.1 2318.21,-33.64"/>
<polygon fill="#63b8ff" stroke="#63b8ff" points="2320.25,-36.51 2325.5,-27.31 2315.66,-31.22 2320.25,-36.51"/>
</a>
</g>
</g>
<!-- Node20 -->
<g id="Node000020" class="node">
<title>Node20</title>
<g id="a_Node000020"><a xlink:title=" ">
<polygon fill="#e0e0e0" stroke="#999999" points="2525.25,-26 2427.5,-26 2427.5,-6 2525.25,-6 2525.25,-26"/>
<text text-anchor="middle" x="2476.38" y="-12.5" font-family="Helvetica,sans-Serif" font-size="10.00">javafx.stage.Stage</text>
</a>
</g>
</g>
<!-- Node1&#45;&gt;Node20 -->
<g id="edge19_Node000001_Node000020" class="edge">
<title>Node1&#45;&gt;Node20</title>
<g id="a_edge19_Node000001_Node000020"><a xlink:title=" ">
<path fill="none" stroke="#63b8ff" d="M2311.78,-67.53C2349.19,-56.04 2399.59,-40.57 2434.72,-29.79"/>
<polygon fill="#63b8ff" stroke="#63b8ff" points="2435.58,-33.18 2444.11,-26.9 2433.52,-26.49 2435.58,-33.18"/>
</a>
</g>
</g>
<!-- Node21 -->
<g id="Node000021" class="node">
<title>Node21</title>
<g id="a_Node000021"><a xlink:title=" ">
<polygon fill="#e0e0e0" stroke="#999999" points="2663.5,-26 2543.25,-26 2543.25,-6 2663.5,-6 2663.5,-26"/>
<text text-anchor="middle" x="2603.38" y="-12.5" font-family="Helvetica,sans-Serif" font-size="10.00">javafx.stage.StageStyle</text>
</a>
</g>
</g>
<!-- Node1&#45;&gt;Node21 -->
<g id="edge20_Node000001_Node000021" class="edge">
<title>Node1&#45;&gt;Node21</title>
<g id="a_edge20_Node000001_Node000021"><a xlink:title=" ">
<path fill="none" stroke="#63b8ff" d="M2347.87,-67.51C2401.63,-57.72 2472.11,-44.58 2534.38,-32 2539.31,-31 2544.43,-29.94 2549.56,-28.86"/>
<polygon fill="#63b8ff" stroke="#63b8ff" points="2550.19,-32.3 2559.24,-26.79 2548.73,-25.46 2550.19,-32.3"/>
</a>
</g>
</g>
<!-- Node22 -->
<g id="Node000022" class="node">
<title>Node22</title>
<g id="a_Node000022"><a xlink:title=" ">
<polygon fill="#e0e0e0" stroke="#999999" points="2779.25,-26 2681.5,-26 2681.5,-6 2779.25,-6 2779.25,-26"/>
<text text-anchor="middle" x="2730.38" y="-12.5" font-family="Helvetica,sans-Serif" font-size="10.00">javafx.util.Duration</text>
</a>
</g>
</g>
<!-- Node1&#45;&gt;Node22 -->
<g id="edge21_Node000001_Node000022" class="edge">
<title>Node1&#45;&gt;Node22</title>
<g id="a_edge21_Node000001_Node000022"><a xlink:title=" ">
<path fill="none" stroke="#63b8ff" d="M2353.73,-74.99C2437.38,-66.92 2563.78,-52.69 2672.38,-32 2676.73,-31.17 2681.25,-30.2 2685.75,-29.16"/>
<polygon fill="#63b8ff" stroke="#63b8ff" points="2686.45,-32.59 2695.33,-26.83 2684.79,-25.79 2686.45,-32.59"/>
</a>
</g>
</g>
<!-- Node23 -->
<g id="Node000023" class="node">
<title>Node23</title>
<g id="a_Node000023"><a xlink:title=" ">
<polygon fill="#e0e0e0" stroke="#999999" points="2879.75,-26 2797,-26 2797,-6 2879.75,-6 2879.75,-26"/>
<text text-anchor="middle" x="2838.38" y="-12.5" font-family="Helvetica,sans-Serif" font-size="10.00">org.slf4j.Logger</text>
</a>
</g>
</g>
<!-- Node1&#45;&gt;Node23 -->
<g id="edge22_Node000001_Node000023" class="edge">
<title>Node1&#45;&gt;Node23</title>
<g id="a_edge22_Node000001_Node000023"><a xlink:title=" ">
<path fill="none" stroke="#63b8ff" d="M2353.56,-79.52C2459.37,-74.28 2637.75,-61.59 2788.38,-32 2791.98,-31.29 2795.69,-30.43 2799.39,-29.49"/>
<polygon fill="#63b8ff" stroke="#63b8ff" points="2800.16,-32.91 2808.86,-26.87 2798.29,-26.16 2800.16,-32.91"/>
</a>
</g>
</g>
<!-- Node24 -->
<g id="Node000024" class="node">
<title>Node24</title>
<g id="a_Node000024"><a xlink:title=" ">
<polygon fill="#e0e0e0" stroke="#999999" points="3013.25,-26 2897.5,-26 2897.5,-6 3013.25,-6 3013.25,-26"/>
<text text-anchor="middle" x="2955.38" y="-12.5" font-family="Helvetica,sans-Serif" font-size="10.00">org.slf4j.LoggerFactory</text>
</a>
</g>
</g>
<!-- Node1&#45;&gt;Node24 -->
<g id="edge23_Node000001_Node000024" class="edge">
<title>Node1&#45;&gt;Node24</title>
<g id="a_edge23_Node000001_Node000024"><a xlink:title=" ">
<path fill="none" stroke="#63b8ff" d="M2353.74,-79.51C2476.44,-73.95 2699.69,-60.65 2888.38,-32 2894.12,-31.13 2900.11,-30.04 2906.03,-28.86"/>
<polygon fill="#63b8ff" stroke="#63b8ff" points="2906.74,-32.29 2915.8,-26.8 2905.3,-25.44 2906.74,-32.29"/>
</a>
</g>
</g>
<!-- Node25 -->
<g id="Node000025" class="node">
<title>Node25</title>
<g id="a_Node000025"><a xlink:title=" ">
<polygon fill="#e0e0e0" stroke="#999999" points="3169.88,-26 3030.88,-26 3030.88,-6 3169.88,-6 3169.88,-26"/>
<text text-anchor="middle" x="3100.38" y="-12.5" font-family="Helvetica,sans-Serif" font-size="10.00">fr.softsf.sudokufx.SudoMain</text>
</a>
</g>
</g>
<!-- Node1&#45;&gt;Node25 -->
<g id="edge24_Node000001_Node000025" class="edge">
<title>Node1&#45;&gt;Node25</title>
<g id="a_edge24_Node000001_Node000025"><a xlink:title=" ">
<path fill="none" stroke="#63b8ff" d="M2353.69,-80.48C2497.22,-75.73 2782.38,-63 3022.38,-32 3029.82,-31.04 3037.62,-29.81 3045.3,-28.47"/>
<polygon fill="#63b8ff" stroke="#63b8ff" points="3045.69,-31.95 3054.9,-26.71 3044.43,-25.07 3045.69,-31.95"/>
</a>
</g>
</g>
<!-- Node26 -->
<g id="Node000026" class="node">
<title>Node26</title>
<g id="a_Node000026"><a xlink:title=" ">
<polygon fill="#e0e0e0" stroke="#999999" points="3342.38,-32 3188.38,-32 3188.38,0 3342.38,0 3342.38,-32"/>
<text text-anchor="start" x="3196.38" y="-18.5" font-family="Helvetica,sans-Serif" font-size="10.00">fr.softsf.sudokufx.configuration.</text>
<text text-anchor="middle" x="3265.38" y="-6.5" font-family="Helvetica,sans-Serif" font-size="10.00">JVMApplicationProperties</text>
</a>
</g>
</g>
<!-- Node1&#45;&gt;Node26 -->
<g id="edge25_Node000001_Node000026" class="edge">
<title>Node1&#45;&gt;Node26</title>
<g id="a_edge25_Node000001_Node000026"><a xlink:title=" ">
<path fill="none" stroke="#63b8ff" d="M2353.86,-81.44C2517.73,-77.89 2869.93,-66.73 3176.73,-32.21"/>
<polygon fill="#63b8ff" stroke="#63b8ff" points="3177.04,-35.7 3186.58,-31.09 3176.25,-28.74 3177.04,-35.7"/>
</a>
</g>
</g>
<!-- Node27 -->
<g id="Node000027" class="node">
<title>Node27</title>
<g id="a_Node000027"><a xlink:title=" ">
<polygon fill="#e0e0e0" stroke="#999999" points="3528.12,-32 3360.62,-32 3360.62,0 3528.12,0 3528.12,-32"/>
<text text-anchor="start" x="3368.62" y="-18.5" font-family="Helvetica,sans-Serif" font-size="10.00">fr.softsf.sudokufx.configuration.os.</text>
<text text-anchor="middle" x="3444.38" y="-6.5" font-family="Helvetica,sans-Serif" font-size="10.00">IOsFolderFactory</text>
</a>
</g>
</g>
<!-- Node1&#45;&gt;Node27 -->
<g id="edge26_Node000001_Node000027" class="edge">
<title>Node1&#45;&gt;Node27</title>
<g id="a_edge26_Node000001_Node000027"><a xlink:title=" ">
<path fill="none" stroke="#63b8ff" d="M2353.87,-82.2C2540.25,-79.81 2974.42,-70.37 3348.94,-32.17"/>
<polygon fill="#63b8ff" stroke="#63b8ff" points="3349.19,-35.66 3358.78,-31.16 3348.47,-28.7 3349.19,-35.66"/>
</a>
</g>
</g>
<!-- Node28 -->
<g id="Node000028" class="node">
<title>Node28</title>
<g id="a_Node000028"><a xlink:title=" ">
<polygon fill="#e0e0e0" stroke="#999999" points="3714.12,-32 3546.62,-32 3546.62,0 3714.12,0 3714.12,-32"/>
<text text-anchor="start" x="3554.62" y="-18.5" font-family="Helvetica,sans-Serif" font-size="10.00">fr.softsf.sudokufx.configuration.os.</text>
<text text-anchor="middle" x="3630.38" y="-6.5" font-family="Helvetica,sans-Serif" font-size="10.00">OsFolderFactoryManager</text>
</a>
</g>
</g>
<!-- Node1&#45;&gt;Node28 -->
<g id="edge27_Node000001_Node000028" class="edge">
<title>Node1&#45;&gt;Node28</title>
<g id="a_edge27_Node000001_Node000028"><a xlink:title=" ">
<path fill="none" stroke="#63b8ff" d="M2353.71,-83.1C2562.47,-82.5 3086.83,-76.39 3535.05,-32.15"/>
<polygon fill="#63b8ff" stroke="#63b8ff" points="3535.17,-35.65 3544.78,-31.18 3534.48,-28.68 3535.17,-35.65"/>
</a>
</g>
</g>
<!-- Node29 -->
<g id="Node000029" class="node">
<title>Node29</title>
<g id="a_Node000029"><a xlink:title=" ">
<polygon fill="#e0e0e0" stroke="#999999" points="3878.62,-26 3732.12,-26 3732.12,-6 3878.62,-6 3878.62,-26"/>
<text text-anchor="middle" x="3805.38" y="-12.5" font-family="Helvetica,sans-Serif" font-size="10.00">fr.softsf.sudokufx.enums.I18n</text>
</a>
</g>
</g>
<!-- Node1&#45;&gt;Node29 -->
<g id="edge28_Node000001_Node000029" class="edge">
<title>Node1&#45;&gt;Node29</title>
<g id="a_edge28_Node000001_Node000029"><a xlink:title=" ">
<path fill="none" stroke="#63b8ff" d="M2353.85,-81.54C2631.67,-76.88 3456.2,-60.94 3723.38,-32 3731.78,-31.09 3740.62,-29.81 3749.25,-28.39"/>
<polygon fill="#63b8ff" stroke="#63b8ff" points="3749.69,-31.86 3758.94,-26.7 3748.49,-24.97 3749.69,-31.86"/>
</a>
</g>
</g>
<!-- Node30 -->
<g id="Node000030" class="node">
<title>Node30</title>
<g id="a_Node000030"><a xlink:title=" ">
<polygon fill="#e0e0e0" stroke="#999999" points="4041.88,-26 3896.88,-26 3896.88,-6 4041.88,-6 4041.88,-26"/>
<text text-anchor="middle" x="3969.38" y="-12.5" font-family="Helvetica,sans-Serif" font-size="10.00">fr.softsf.sudokufx.interfaces.*</text>
</a>
</g>
</g>
<!-- Node1&#45;&gt;Node30 -->
<g id="edge29_Node000001_Node000030" class="edge">
<title>Node1&#45;&gt;Node30</title>
<g id="a_edge29_Node000001_Node000030"><a xlink:title=" ">
<path fill="none" stroke="#63b8ff" d="M2353.79,-81.92C2651.99,-78.15 3586.79,-64.02 3887.38,-32 3895.78,-31.1 3904.62,-29.84 3913.25,-28.41"/>
<polygon fill="#63b8ff" stroke="#63b8ff" points="3913.69,-31.89 3922.95,-26.73 3912.49,-24.99 3913.69,-31.89"/>
</a>
</g>
</g>
<!-- Node31 -->
<g id="Node000031" class="node">
<title>Node31</title>
<g id="a_Node000031"><a xlink:title=" ">
<polygon fill="#e0e0e0" stroke="#999999" points="4176.62,-32 4060.12,-32 4060.12,0 4176.62,0 4176.62,-32"/>
<text text-anchor="start" x="4068.12" y="-18.5" font-family="Helvetica,sans-Serif" font-size="10.00">fr.softsf.sudokufx.utils.</text>
<text text-anchor="middle" x="4118.38" y="-6.5" font-family="Helvetica,sans-Serif" font-size="10.00">FileSystemManager</text>
</a>
</g>
</g>
<!-- Node1&#45;&gt;Node31 -->
<g id="edge30_Node000001_Node000031" class="edge">
<title>Node1&#45;&gt;Node31</title>
<g id="a_edge30_Node000001_Node000031"><a xlink:title=" ">
<path fill="none" stroke="#63b8ff" d="M2353.87,-82.71C2668.31,-81.35 3695.62,-73.84 4048.41,-32.18"/>
<polygon fill="#63b8ff" stroke="#63b8ff" points="4048.65,-35.68 4058.16,-31 4047.81,-28.73 4048.65,-35.68"/>
</a>
</g>
</g>
<!-- Node32 -->
<g id="Node000032" class="node">
<title>Node32</title>
<g id="a_Node000032"><a xlink:title=" ">
<polygon fill="#e0e0e0" stroke="#999999" points="4311.62,-32 4195.12,-32 4195.12,0 4311.62,0 4311.62,-32"/>
<text text-anchor="start" x="4203.12" y="-18.5" font-family="Helvetica,sans-Serif" font-size="10.00">fr.softsf.sudokufx.utils.</text>
<text text-anchor="middle" x="4253.38" y="-6.5" font-family="Helvetica,sans-Serif" font-size="10.00">IFileSystem</text>
</a>
</g>
</g>
<!-- Node1&#45;&gt;Node32 -->
<g id="edge31_Node000001_Node000032" class="edge">
<title>Node1&#45;&gt;Node32</title>
<g id="a_edge31_Node000001_Node000032"><a xlink:title=" ">
<path fill="none" stroke="#63b8ff" d="M2353.79,-82.88C2683.43,-82.11 3801.78,-76.3 4183.54,-32"/>
<polygon fill="#63b8ff" stroke="#63b8ff" points="4183.87,-35.48 4193.39,-30.82 4183.04,-28.53 4183.87,-35.48"/>
</a>
</g>
</g>
<!-- Node33 -->
<g id="Node000033" class="node">
<title>Node33</title>
<g id="a_Node000033"><a xlink:title=" ">
<polygon fill="#e0e0e0" stroke="#999999" points="4457.25,-32 4329.5,-32 4329.5,0 4457.25,0 4457.25,-32"/>
<text text-anchor="start" x="4337.5" y="-18.5" font-family="Helvetica,sans-Serif" font-size="10.00">fr.softsf.sudokufx.enums.</text>
<text text-anchor="middle" x="4393.38" y="-6.5" font-family="Helvetica,sans-Serif" font-size="10.00">Paths.DATA_FOLDER</text>
</a>
</g>
</g>
<!-- Node1&#45;&gt;Node33 -->
<g id="edge32_Node000001_Node000033" class="edge">
<title>Node1&#45;&gt;Node33</title>
<g id="a_edge32_Node000001_Node000033"><a xlink:title=" ">
<path fill="none" stroke="#63b8ff" d="M2353.6,-82.9C2697.87,-82.17 3908.61,-76.53 4318.09,-32.08"/>
<polygon fill="#63b8ff" stroke="#63b8ff" points="4318.33,-35.57 4327.88,-30.99 4317.55,-28.62 4318.33,-35.57"/>
</a>
</g>
</g>
<!-- Node34 -->
<g id="Node000034" class="node">
<title>Node34</title>
<g id="a_Node000034"><a xlink:title=" ">
<polygon fill="#e0e0e0" stroke="#999999" points="4639.62,-32 4475.12,-32 4475.12,0 4639.62,0 4639.62,-32"/>
<text text-anchor="start" x="4483.12" y="-18.5" font-family="Helvetica,sans-Serif" font-size="10.00">fr.softsf.sudokufx.enums.</text>
<text text-anchor="middle" x="4557.38" y="-6.5" font-family="Helvetica,sans-Serif" font-size="10.00">Paths.LOGO_SUDO_PNG_PATH</text>
</a>
</g>
</g>
<!-- Node1&#45;&gt;Node34 -->
<g id="edge33_Node000001_Node000034" class="edge">
<title>Node1&#45;&gt;Node34</title>
<g id="a_edge33_Node000001_Node000034"><a xlink:title=" ">
<path fill="none" stroke="#63b8ff" d="M2353.81,-82.59C2713.86,-80.73 4023.87,-71.42 4463.92,-32.12"/>
<polygon fill="#63b8ff" stroke="#63b8ff" points="4463.96,-35.63 4473.59,-31.23 4463.32,-28.66 4463.96,-35.63"/>
</a>
</g>
</g>
<!-- Node35 -->
<g id="Node000035" class="node">
<title>Node35</title>
<g id="a_Node000035"><a xlink:title=" ">
<polygon fill="#e0e0e0" stroke="#999999" points="4818.75,-32 4658,-32 4658,0 4818.75,0 4818.75,-32"/>
<text text-anchor="start" x="4666" y="-18.5" font-family="Helvetica,sans-Serif" font-size="10.00">fr.softsf.sudokufx.enums.</text>
<text text-anchor="middle" x="4738.38" y="-6.5" font-family="Helvetica,sans-Serif" font-size="10.00">ScreenSize.DISPOSABLE_SIZE</text>
</a>
</g>
</g>
<!-- Node1&#45;&gt;Node35 -->
<g id="edge34_Node000001_Node000035" class="edge">
<title>Node1&#45;&gt;Node35</title>
<g id="a_edge34_Node000001_Node000035"><a xlink:title=" ">
<path fill="none" stroke="#63b8ff" d="M2353.87,-82.8C2732.76,-81.72 4168.25,-74.89 4646.85,-32.01"/>
<polygon fill="#63b8ff" stroke="#63b8ff" points="4646.83,-35.52 4656.47,-31.13 4646.19,-28.55 4646.83,-35.52"/>
</a>
</g>
</g>
</g>
</svg>
