<?xml version="1.0" encoding="UTF-8" standalone="no"?>
<!DOCTYPE svg PUBLIC "-//W3C//DTD SVG 1.1//EN"
 "http://www.w3.org/Graphics/SVG/1.1/DTD/svg11.dtd">
<!-- Generated by graphviz version 12.2.1 (20241206.2353)
 -->
<!-- Title: src/main/java/fr/softsf/sudokufx/config/database/DataSourceConfigCds.java Pages: 1 -->
<svg width="898pt" height="120pt"
 viewBox="0.00 0.00 898.38 120.00" xmlns="http://www.w3.org/2000/svg" xmlns:xlink="http://www.w3.org/1999/xlink">
<g id="graph0" class="graph" transform="scale(1 1) rotate(0) translate(4 116)">
<title>src/main/java/fr/softsf/sudokufx/config/database/DataSourceConfigCds.java</title>
<!-- Node1 -->
<g id="Node000001" class="node">
<title>Node1</title>
<g id="a_Node000001"><a xlink:title=" ">
<polygon fill="#999999" stroke="#666666" points="519.38,-112 381.12,-112 381.12,-68 519.38,-68 519.38,-112"/>
<text text-anchor="start" x="389.12" y="-98.5" font-family="Helvetica,sans-Serif" font-size="10.00">src/main/java/fr/softsf</text>
<text text-anchor="start" x="389.12" y="-86.5" font-family="Helvetica,sans-Serif" font-size="10.00">/sudokufx/config/database</text>
<text text-anchor="middle" x="450.25" y="-74.5" font-family="Helvetica,sans-Serif" font-size="10.00">/DataSourceConfigCds.java</text>
</a>
</g>
</g>
<!-- Node2 -->
<g id="Node000002" class="node">
<title>Node2</title>
<g id="a_Node000002"><a xlink:title=" ">
<polygon fill="#e0e0e0" stroke="#999999" points="194.5,-26 0,-26 0,-6 194.5,-6 194.5,-26"/>
<text text-anchor="middle" x="97.25" y="-12.5" font-family="Helvetica,sans-Serif" font-size="10.00">org.springframework.context.annotation.*</text>
</a>
</g>
</g>
<!-- Node1&#45;&gt;Node2 -->
<g id="edge1_Node000001_Node000002" class="edge">
<title>Node1&#45;&gt;Node2</title>
<g id="a_edge1_Node000001_Node000002"><a xlink:title=" ">
<path fill="none" stroke="#63b8ff" d="M380.93,-74.86C314.87,-61.39 216.56,-41.34 154.74,-28.73"/>
<polygon fill="#63b8ff" stroke="#63b8ff" points="155.61,-25.33 145.11,-26.76 154.21,-32.19 155.61,-25.33"/>
</a>
</g>
</g>
<!-- Node3 -->
<g id="Node000003" class="node">
<title>Node3</title>
<g id="a_Node000003"><a xlink:title=" ">
<polygon fill="#e0e0e0" stroke="#999999" points="334.12,-32 212.38,-32 212.38,0 334.12,0 334.12,-32"/>
<text text-anchor="start" x="220.38" y="-18.5" font-family="Helvetica,sans-Serif" font-size="10.00">com.zaxxer.hikari.Hikari</text>
<text text-anchor="middle" x="273.25" y="-6.5" font-family="Helvetica,sans-Serif" font-size="10.00">DataSource</text>
</a>
</g>
</g>
<!-- Node1&#45;&gt;Node3 -->
<g id="edge2_Node000001_Node000003" class="edge">
<title>Node1&#45;&gt;Node3</title>
<g id="a_edge2_Node000001_Node000003"><a xlink:title=" ">
<path fill="none" stroke="#63b8ff" d="M397.62,-67.59C373.59,-57.81 345.3,-46.31 321.78,-36.74"/>
<polygon fill="#63b8ff" stroke="#63b8ff" points="323.33,-33.59 312.75,-33.07 320.69,-40.08 323.33,-33.59"/>
</a>
</g>
</g>
<!-- Node4 -->
<g id="Node000004" class="node">
<title>Node4</title>
<g id="a_Node000004"><a xlink:title=" ">
<polygon fill="#e0e0e0" stroke="#999999" points="547.88,-32 352.62,-32 352.62,0 547.88,0 547.88,-32"/>
<text text-anchor="start" x="360.62" y="-18.5" font-family="Helvetica,sans-Serif" font-size="10.00">fr.softsf.sudokufx.common.annotation.</text>
<text text-anchor="middle" x="450.25" y="-6.5" font-family="Helvetica,sans-Serif" font-size="10.00">ExcludedFromCoverageReportGenerated</text>
</a>
</g>
</g>
<!-- Node1&#45;&gt;Node4 -->
<g id="edge3_Node000001_Node000004" class="edge">
<title>Node1&#45;&gt;Node4</title>
<g id="a_edge3_Node000001_Node000004"><a xlink:title=" ">
<path fill="none" stroke="#63b8ff" d="M450.25,-67.79C450.25,-60.18 450.25,-51.52 450.25,-43.52"/>
<polygon fill="#63b8ff" stroke="#63b8ff" points="453.75,-43.64 450.25,-33.64 446.75,-43.64 453.75,-43.64"/>
</a>
</g>
</g>
<!-- Node5 -->
<g id="Node000005" class="node">
<title>Node5</title>
<g id="a_Node000005"><a xlink:title=" ">
<polygon fill="#e0e0e0" stroke="#999999" points="704.38,-32 566.12,-32 566.12,0 704.38,0 704.38,-32"/>
<text text-anchor="start" x="574.12" y="-18.5" font-family="Helvetica,sans-Serif" font-size="10.00">fr.softsf.sudokufx.config.os.</text>
<text text-anchor="middle" x="635.25" y="-6.5" font-family="Helvetica,sans-Serif" font-size="10.00">IOsFolderFactory</text>
</a>
</g>
</g>
<!-- Node1&#45;&gt;Node5 -->
<g id="edge4_Node000001_Node000005" class="edge">
<title>Node1&#45;&gt;Node5</title>
<g id="a_edge4_Node000001_Node000005"><a xlink:title=" ">
<path fill="none" stroke="#63b8ff" d="M505.26,-67.59C530.49,-57.77 560.21,-46.2 584.86,-36.61"/>
<polygon fill="#63b8ff" stroke="#63b8ff" points="585.97,-39.93 594.02,-33.04 583.44,-33.41 585.97,-39.93"/>
</a>
</g>
</g>
<!-- Node6 -->
<g id="Node000006" class="node">
<title>Node6</title>
<g id="a_Node000006"><a xlink:title=" ">
<polygon fill="#e0e0e0" stroke="#999999" points="890.38,-32 722.12,-32 722.12,0 890.38,0 890.38,-32"/>
<text text-anchor="start" x="730.12" y="-18.5" font-family="Helvetica,sans-Serif" font-size="10.00">fr.softsf.sudokufx.common.enums.</text>
<text text-anchor="middle" x="806.25" y="-6.5" font-family="Helvetica,sans-Serif" font-size="10.00">Paths.DATABASE_NAME</text>
</a>
</g>
</g>
<!-- Node1&#45;&gt;Node6 -->
<g id="edge5_Node000001_Node000006" class="edge">
<title>Node1&#45;&gt;Node6</title>
<g id="a_edge5_Node000001_Node000006"><a xlink:title=" ">
<path fill="none" stroke="#63b8ff" d="M519.74,-74.95C576.6,-63.45 657.35,-47.11 718.64,-34.72"/>
<polygon fill="#63b8ff" stroke="#63b8ff" points="719.26,-38.17 728.36,-32.75 717.87,-31.3 719.26,-38.17"/>
</a>
</g>
</g>
</g>
</svg>
