<?xml version="1.0" encoding="UTF-8" standalone="no"?>
<!DOCTYPE svg PUBLIC "-//W3C//DTD SVG 1.1//EN"
 "http://www.w3.org/Graphics/SVG/1.1/DTD/svg11.dtd">
<!-- Generated by graphviz version 12.2.1 (20241206.2353)
 -->
<!-- Title: src/main/java/fr/softsf/sudokufx/view/DefaultView.java Pages: 1 -->
<svg width="4967pt" height="108pt"
 viewBox="0.00 0.00 4966.75 108.00" xmlns="http://www.w3.org/2000/svg" xmlns:xlink="http://www.w3.org/1999/xlink">
<g id="graph0" class="graph" transform="scale(1 1) rotate(0) translate(4 104)">
<title>src/main/java/fr/softsf/sudokufx/view/DefaultView.java</title>
<!-- Node1 -->
<g id="Node000001" class="node">
<title>Node1</title>
<g id="a_Node000001"><a xlink:title=" ">
<polygon fill="#999999" stroke="#666666" points="2820.75,-100 2662.25,-100 2662.25,-68 2820.75,-68 2820.75,-100"/>
<text text-anchor="start" x="2670.25" y="-86.5" font-family="Helvetica,sans-Serif" font-size="10.00">src/main/java/fr/softsf</text>
<text text-anchor="middle" x="2741.5" y="-74.5" font-family="Helvetica,sans-Serif" font-size="10.00">/sudokufx/view/DefaultView.java</text>
</a>
</g>
</g>
<!-- Node2 -->
<g id="Node000002" class="node">
<title>Node2</title>
<g id="a_Node000002"><a xlink:title=" ">
<polygon fill="#e0e0e0" stroke="#999999" points="139,-26 0,-26 0,-6 139,-6 139,-26"/>
<text text-anchor="middle" x="69.5" y="-12.5" font-family="Helvetica,sans-Serif" font-size="10.00">fr.softsf.sudokufx.SudoMain</text>
</a>
</g>
</g>
<!-- Node1&#45;&gt;Node2 -->
<g id="edge1_Node000001_Node000002" class="edge">
<title>Node1&#45;&gt;Node2</title>
<g id="a_edge1_Node000001_Node000002"><a xlink:title=" ">
<path fill="none" stroke="#63b8ff" d="M2661.99,-83.24C2282.57,-84.09 653.72,-84.56 148.5,-32 140.39,-31.16 131.86,-29.92 123.53,-28.5"/>
<polygon fill="#63b8ff" stroke="#63b8ff" points="124.31,-25.09 113.85,-26.76 123.07,-31.98 124.31,-25.09"/>
</a>
</g>
</g>
<!-- Node3 -->
<g id="Node000003" class="node">
<title>Node3</title>
<g id="a_Node000003"><a xlink:title=" ">
<polygon fill="#e0e0e0" stroke="#999999" points="303.75,-26 157.25,-26 157.25,-6 303.75,-6 303.75,-26"/>
<text text-anchor="middle" x="230.5" y="-12.5" font-family="Helvetica,sans-Serif" font-size="10.00">fr.softsf.sudokufx.enums.I18n</text>
</a>
</g>
</g>
<!-- Node1&#45;&gt;Node3 -->
<g id="edge2_Node000001_Node000003" class="edge">
<title>Node1&#45;&gt;Node3</title>
<g id="a_edge2_Node000001_Node000003"><a xlink:title=" ">
<path fill="none" stroke="#63b8ff" d="M2661.92,-83.04C2297.28,-82.97 783.68,-79.73 312.5,-32 303.99,-31.14 295.04,-29.87 286.3,-28.44"/>
<polygon fill="#63b8ff" stroke="#63b8ff" points="286.94,-25 276.49,-26.74 285.75,-31.9 286.94,-25"/>
</a>
</g>
</g>
<!-- Node4 -->
<g id="Node000004" class="node">
<title>Node4</title>
<g id="a_Node000004"><a xlink:title=" ">
<polygon fill="#e0e0e0" stroke="#999999" points="449.38,-32 321.62,-32 321.62,0 449.38,0 449.38,-32"/>
<text text-anchor="start" x="329.62" y="-18.5" font-family="Helvetica,sans-Serif" font-size="10.00">fr.softsf.sudokufx.enums.</text>
<text text-anchor="middle" x="385.5" y="-6.5" font-family="Helvetica,sans-Serif" font-size="10.00">Paths</text>
</a>
</g>
</g>
<!-- Node1&#45;&gt;Node4 -->
<g id="edge3_Node000001_Node000004" class="edge">
<title>Node1&#45;&gt;Node4</title>
<g id="a_edge3_Node000001_Node000004"><a xlink:title=" ">
<path fill="none" stroke="#63b8ff" d="M2662.04,-83.15C2314.11,-83.5 922.23,-81.78 460.88,-32.09"/>
<polygon fill="#63b8ff" stroke="#63b8ff" points="461.32,-28.61 450.99,-30.99 460.55,-35.57 461.32,-28.61"/>
</a>
</g>
</g>
<!-- Node5 -->
<g id="Node000005" class="node">
<title>Node5</title>
<g id="a_Node000005"><a xlink:title=" ">
<polygon fill="#e0e0e0" stroke="#999999" points="595.38,-32 467.62,-32 467.62,0 595.38,0 595.38,-32"/>
<text text-anchor="start" x="475.62" y="-18.5" font-family="Helvetica,sans-Serif" font-size="10.00">fr.softsf.sudokufx.enums.</text>
<text text-anchor="middle" x="531.5" y="-6.5" font-family="Helvetica,sans-Serif" font-size="10.00">ScreenSize</text>
</a>
</g>
</g>
<!-- Node1&#45;&gt;Node5 -->
<g id="edge4_Node000001_Node000005" class="edge">
<title>Node1&#45;&gt;Node5</title>
<g id="a_edge4_Node000001_Node000005"><a xlink:title=" ">
<path fill="none" stroke="#63b8ff" d="M2661.8,-83.01C2327.65,-82.74 1037.44,-78.71 606.74,-32.07"/>
<polygon fill="#63b8ff" stroke="#63b8ff" points="607.32,-28.62 596.99,-30.99 606.55,-35.57 607.32,-28.62"/>
</a>
</g>
</g>
<!-- Node6 -->
<g id="Node000006" class="node">
<title>Node6</title>
<g id="a_Node000006"><a xlink:title=" ">
<polygon fill="#e0e0e0" stroke="#999999" points="741.38,-32 613.62,-32 613.62,0 741.38,0 741.38,-32"/>
<text text-anchor="start" x="621.62" y="-18.5" font-family="Helvetica,sans-Serif" font-size="10.00">fr.softsf.sudokufx.enums.</text>
<text text-anchor="middle" x="677.5" y="-6.5" font-family="Helvetica,sans-Serif" font-size="10.00">ToastLevels</text>
</a>
</g>
</g>
<!-- Node1&#45;&gt;Node6 -->
<g id="edge5_Node000001_Node000006" class="edge">
<title>Node1&#45;&gt;Node6</title>
<g id="a_edge5_Node000001_Node000006"><a xlink:title=" ">
<path fill="none" stroke="#63b8ff" d="M2661.86,-82.84C2342.53,-81.92 1153.25,-75.66 752.82,-32.08"/>
<polygon fill="#63b8ff" stroke="#63b8ff" points="753.32,-28.62 743,-30.98 752.54,-35.57 753.32,-28.62"/>
</a>
</g>
</g>
<!-- Node7 -->
<g id="Node000007" class="node">
<title>Node7</title>
<g id="a_Node000007"><a xlink:title=" ">
<polygon fill="#e0e0e0" stroke="#999999" points="901.12,-32 759.88,-32 759.88,0 901.12,0 901.12,-32"/>
<text text-anchor="start" x="767.88" y="-18.5" font-family="Helvetica,sans-Serif" font-size="10.00">fr.softsf.sudokufx.interfaces.</text>
<text text-anchor="middle" x="830.5" y="-6.5" font-family="Helvetica,sans-Serif" font-size="10.00">IMainView</text>
</a>
</g>
</g>
<!-- Node1&#45;&gt;Node7 -->
<g id="edge6_Node000001_Node000007" class="edge">
<title>Node1&#45;&gt;Node7</title>
<g id="a_edge6_Node000001_Node000007"><a xlink:title=" ">
<path fill="none" stroke="#63b8ff" d="M2661.83,-82.48C2359.17,-80.23 1279.77,-69.78 912.91,-32.24"/>
<polygon fill="#63b8ff" stroke="#63b8ff" points="913.3,-28.76 902.98,-31.19 912.56,-35.72 913.3,-28.76"/>
</a>
</g>
</g>
<!-- Node8 -->
<g id="Node000008" class="node">
<title>Node8</title>
<g id="a_Node000008"><a xlink:title=" ">
<polygon fill="#e0e0e0" stroke="#999999" points="1060.12,-32 918.88,-32 918.88,0 1060.12,0 1060.12,-32"/>
<text text-anchor="start" x="926.88" y="-18.5" font-family="Helvetica,sans-Serif" font-size="10.00">fr.softsf.sudokufx.interfaces.</text>
<text text-anchor="middle" x="989.5" y="-6.5" font-family="Helvetica,sans-Serif" font-size="10.00">ISceneProvider</text>
</a>
</g>
</g>
<!-- Node1&#45;&gt;Node8 -->
<g id="edge7_Node000001_Node000008" class="edge">
<title>Node1&#45;&gt;Node8</title>
<g id="a_edge7_Node000001_Node000008"><a xlink:title=" ">
<path fill="none" stroke="#63b8ff" d="M2662.17,-82.24C2377.26,-79.24 1405.34,-66.74 1071.6,-32.21"/>
<polygon fill="#63b8ff" stroke="#63b8ff" points="1072.3,-28.76 1061.98,-31.18 1071.56,-35.72 1072.3,-28.76"/>
</a>
</g>
</g>
<!-- Node9 -->
<g id="Node000009" class="node">
<title>Node9</title>
<g id="a_Node000009"><a xlink:title=" ">
<polygon fill="#e0e0e0" stroke="#999999" points="1219.12,-32 1077.88,-32 1077.88,0 1219.12,0 1219.12,-32"/>
<text text-anchor="start" x="1085.88" y="-18.5" font-family="Helvetica,sans-Serif" font-size="10.00">fr.softsf.sudokufx.interfaces.</text>
<text text-anchor="middle" x="1148.5" y="-6.5" font-family="Helvetica,sans-Serif" font-size="10.00">ISplashScreenView</text>
</a>
</g>
</g>
<!-- Node1&#45;&gt;Node9 -->
<g id="edge8_Node000001_Node000009" class="edge">
<title>Node1&#45;&gt;Node9</title>
<g id="a_edge8_Node000001_Node000009"><a xlink:title=" ">
<path fill="none" stroke="#63b8ff" d="M2661.96,-81.91C2395.18,-78.02 1532.6,-63.37 1230.88,-32.11"/>
<polygon fill="#63b8ff" stroke="#63b8ff" points="1231.34,-28.64 1221.02,-31.05 1230.59,-35.6 1231.34,-28.64"/>
</a>
</g>
</g>
<!-- Node10 -->
<g id="Node000010" class="node">
<title>Node10</title>
<g id="a_Node000010"><a xlink:title=" ">
<polygon fill="#e0e0e0" stroke="#999999" points="1411.62,-32 1237.38,-32 1237.38,0 1411.62,0 1411.62,-32"/>
<text text-anchor="start" x="1245.38" y="-18.5" font-family="Helvetica,sans-Serif" font-size="10.00">fr.softsf.sudokufx.view.components.</text>
<text text-anchor="middle" x="1324.5" y="-6.5" font-family="Helvetica,sans-Serif" font-size="10.00">SpinnerGridPane</text>
</a>
</g>
</g>
<!-- Node1&#45;&gt;Node10 -->
<g id="edge9_Node000001_Node000010" class="edge">
<title>Node1&#45;&gt;Node10</title>
<g id="a_edge9_Node000001_Node000010"><a xlink:title=" ">
<path fill="none" stroke="#63b8ff" d="M2661.99,-83.15C2457.85,-82.84 1898.48,-77.63 1423.29,-32.2"/>
<polygon fill="#63b8ff" stroke="#63b8ff" points="1423.88,-28.74 1413.59,-31.26 1423.21,-35.7 1423.88,-28.74"/>
</a>
</g>
</g>
<!-- Node11 -->
<g id="Node000011" class="node">
<title>Node11</title>
<g id="a_Node000011"><a xlink:title=" ">
<polygon fill="#e0e0e0" stroke="#999999" points="1619.5,-32 1429.5,-32 1429.5,0 1619.5,0 1619.5,-32"/>
<text text-anchor="start" x="1437.5" y="-18.5" font-family="Helvetica,sans-Serif" font-size="10.00">fr.softsf.sudokufx.view.components.list.</text>
<text text-anchor="middle" x="1524.5" y="-6.5" font-family="Helvetica,sans-Serif" font-size="10.00">ItemListCell</text>
</a>
</g>
</g>
<!-- Node1&#45;&gt;Node11 -->
<g id="edge10_Node000001_Node000011" class="edge">
<title>Node1&#45;&gt;Node11</title>
<g id="a_edge10_Node000001_Node000011"><a xlink:title=" ">
<path fill="none" stroke="#63b8ff" d="M2662.03,-82.01C2480.95,-79.19 2023.66,-68.82 1631.25,-32.2"/>
<polygon fill="#63b8ff" stroke="#63b8ff" points="1631.74,-28.73 1621.46,-31.28 1631.08,-35.7 1631.74,-28.73"/>
</a>
</g>
</g>
<!-- Node12 -->
<g id="Node000012" class="node">
<title>Node12</title>
<g id="a_Node000012"><a xlink:title=" ">
<polygon fill="#e0e0e0" stroke="#999999" points="1845.12,-32 1637.88,-32 1637.88,0 1845.12,0 1845.12,-32"/>
<text text-anchor="start" x="1645.88" y="-18.5" font-family="Helvetica,sans-Serif" font-size="10.00">fr.softsf.sudokufx.view.components.toaster.</text>
<text text-anchor="middle" x="1741.5" y="-6.5" font-family="Helvetica,sans-Serif" font-size="10.00">ToasterVBox</text>
</a>
</g>
</g>
<!-- Node1&#45;&gt;Node12 -->
<g id="edge11_Node000001_Node000012" class="edge">
<title>Node1&#45;&gt;Node12</title>
<g id="a_edge11_Node000001_Node000012"><a xlink:title=" ">
<path fill="none" stroke="#63b8ff" d="M2661.84,-80.41C2508.25,-74.99 2160.26,-60.58 1856.76,-32.17"/>
<polygon fill="#63b8ff" stroke="#63b8ff" points="1857.32,-28.7 1847.03,-31.25 1856.66,-35.67 1857.32,-28.7"/>
</a>
</g>
</g>
<!-- Node13 -->
<g id="Node000013" class="node">
<title>Node13</title>
<g id="a_Node000013"><a xlink:title=" ">
<polygon fill="#e0e0e0" stroke="#999999" points="1957.5,-26 1863.5,-26 1863.5,-6 1957.5,-6 1957.5,-26"/>
<text text-anchor="middle" x="1910.5" y="-12.5" font-family="Helvetica,sans-Serif" font-size="10.00">javafx.animation.*</text>
</a>
</g>
</g>
<!-- Node1&#45;&gt;Node13 -->
<g id="edge12_Node000001_Node000013" class="edge">
<title>Node1&#45;&gt;Node13</title>
<g id="a_edge12_Node000001_Node000013"><a xlink:title=" ">
<path fill="none" stroke="#63b8ff" d="M2661.98,-82.89C2520.93,-81.55 2218.11,-73.56 1966.5,-32 1961.86,-31.23 1957.06,-30.25 1952.29,-29.15"/>
<polygon fill="#63b8ff" stroke="#63b8ff" points="1953.38,-25.81 1942.83,-26.79 1951.69,-32.61 1953.38,-25.81"/>
</a>
</g>
</g>
<!-- Node14 -->
<g id="Node000014" class="node">
<title>Node14</title>
<g id="a_Node000014"><a xlink:title=" ">
<polygon fill="#e0e0e0" stroke="#999999" points="2107.25,-26 1975.75,-26 1975.75,-6 2107.25,-6 2107.25,-26"/>
<text text-anchor="middle" x="2041.5" y="-12.5" font-family="Helvetica,sans-Serif" font-size="10.00">javafx.application.Platform</text>
</a>
</g>
</g>
<!-- Node1&#45;&gt;Node14 -->
<g id="edge13_Node000001_Node000014" class="edge">
<title>Node1&#45;&gt;Node14</title>
<g id="a_edge13_Node000001_Node000014"><a xlink:title=" ">
<path fill="none" stroke="#63b8ff" d="M2662.11,-79.56C2542.93,-73.71 2310.91,-59.67 2115.5,-32 2108.77,-31.05 2101.72,-29.86 2094.77,-28.58"/>
<polygon fill="#63b8ff" stroke="#63b8ff" points="2095.58,-25.17 2085.1,-26.72 2094.26,-32.05 2095.58,-25.17"/>
</a>
</g>
</g>
<!-- Node15 -->
<g id="Node000015" class="node">
<title>Node15</title>
<g id="a_Node000015"><a xlink:title=" ">
<polygon fill="#e0e0e0" stroke="#999999" points="2264,-32 2125,-32 2125,0 2264,0 2264,-32"/>
<text text-anchor="start" x="2133" y="-18.5" font-family="Helvetica,sans-Serif" font-size="10.00">javafx.beans.binding.Double</text>
<text text-anchor="middle" x="2194.5" y="-6.5" font-family="Helvetica,sans-Serif" font-size="10.00">Binding</text>
</a>
</g>
</g>
<!-- Node1&#45;&gt;Node15 -->
<g id="edge14_Node000001_Node000015" class="edge">
<title>Node1&#45;&gt;Node15</title>
<g id="a_edge14_Node000001_Node000015"><a xlink:title=" ">
<path fill="none" stroke="#63b8ff" d="M2662,-76.35C2570.88,-68.28 2416.84,-53.26 2275.23,-32.34"/>
<polygon fill="#63b8ff" stroke="#63b8ff" points="2276.1,-28.93 2265.69,-30.92 2275.06,-35.86 2276.1,-28.93"/>
</a>
</g>
</g>
<!-- Node16 -->
<g id="Node000016" class="node">
<title>Node16</title>
<g id="a_Node000016"><a xlink:title=" ">
<polygon fill="#e0e0e0" stroke="#999999" points="2397,-26 2282,-26 2282,-6 2397,-6 2397,-26"/>
<text text-anchor="middle" x="2339.5" y="-12.5" font-family="Helvetica,sans-Serif" font-size="10.00">javafx.concurrent.Task</text>
</a>
</g>
</g>
<!-- Node1&#45;&gt;Node16 -->
<g id="edge15_Node000001_Node000016" class="edge">
<title>Node1&#45;&gt;Node16</title>
<g id="a_edge15_Node000001_Node000016"><a xlink:title=" ">
<path fill="none" stroke="#63b8ff" d="M2661.79,-72.57C2593.54,-63.24 2492.75,-48.51 2405.5,-32 2400.36,-31.03 2395.01,-29.94 2389.68,-28.8"/>
<polygon fill="#63b8ff" stroke="#63b8ff" points="2390.83,-25.47 2380.32,-26.76 2389.34,-32.31 2390.83,-25.47"/>
</a>
</g>
</g>
<!-- Node17 -->
<g id="Node000017" class="node">
<title>Node17</title>
<g id="a_Node000017"><a xlink:title=" ">
<polygon fill="#e0e0e0" stroke="#999999" points="2540.25,-26 2414.75,-26 2414.75,-6 2540.25,-6 2540.25,-26"/>
<text text-anchor="middle" x="2477.5" y="-12.5" font-family="Helvetica,sans-Serif" font-size="10.00">javafx.event.ActionEvent</text>
</a>
</g>
</g>
<!-- Node1&#45;&gt;Node17 -->
<g id="edge16_Node000001_Node000017" class="edge">
<title>Node1&#45;&gt;Node17</title>
<g id="a_edge16_Node000001_Node000017"><a xlink:title=" ">
<path fill="none" stroke="#63b8ff" d="M2679.6,-67.53C2632.88,-55.84 2569.64,-40.03 2526.42,-29.23"/>
<polygon fill="#63b8ff" stroke="#63b8ff" points="2527.36,-25.86 2516.81,-26.83 2525.66,-32.65 2527.36,-25.86"/>
</a>
</g>
</g>
<!-- Node18 -->
<g id="Node000018" class="node">
<title>Node18</title>
<g id="a_Node000018"><a xlink:title=" ">
<polygon fill="#e0e0e0" stroke="#999999" points="2651.12,-26 2557.88,-26 2557.88,-6 2651.12,-6 2651.12,-26"/>
<text text-anchor="middle" x="2604.5" y="-12.5" font-family="Helvetica,sans-Serif" font-size="10.00">javafx.fxml.FXML</text>
</a>
</g>
</g>
<!-- Node1&#45;&gt;Node18 -->
<g id="edge17_Node000001_Node000018" class="edge">
<title>Node1&#45;&gt;Node18</title>
<g id="a_edge17_Node000001_Node000018"><a xlink:title=" ">
<path fill="none" stroke="#63b8ff" d="M2709.38,-67.53C2686.68,-56.59 2656.47,-42.04 2634.3,-31.36"/>
<polygon fill="#63b8ff" stroke="#63b8ff" points="2636.03,-28.3 2625.5,-27.12 2632.99,-34.61 2636.03,-28.3"/>
</a>
</g>
</g>
<!-- Node19 -->
<g id="Node000019" class="node">
<title>Node19</title>
<g id="a_Node000019"><a xlink:title=" ">
<polygon fill="#e0e0e0" stroke="#999999" points="2814,-26 2669,-26 2669,-6 2814,-6 2814,-26"/>
<text text-anchor="middle" x="2741.5" y="-12.5" font-family="Helvetica,sans-Serif" font-size="10.00">javafx.geometry.Rectangle2D</text>
</a>
</g>
</g>
<!-- Node1&#45;&gt;Node19 -->
<g id="edge18_Node000001_Node000019" class="edge">
<title>Node1&#45;&gt;Node19</title>
<g id="a_edge18_Node000001_Node000019"><a xlink:title=" ">
<path fill="none" stroke="#63b8ff" d="M2741.5,-67.69C2741.5,-58.8 2741.5,-47.46 2741.5,-37.77"/>
<polygon fill="#63b8ff" stroke="#63b8ff" points="2745,-37.83 2741.5,-27.83 2738,-37.83 2745,-37.83"/>
</a>
</g>
</g>
<!-- Node20 -->
<g id="Node000020" class="node">
<title>Node20</title>
<g id="a_Node000020"><a xlink:title=" ">
<polygon fill="#e0e0e0" stroke="#999999" points="2929.38,-26 2831.62,-26 2831.62,-6 2929.38,-6 2929.38,-26"/>
<text text-anchor="middle" x="2880.5" y="-12.5" font-family="Helvetica,sans-Serif" font-size="10.00">javafx.scene.Node</text>
</a>
</g>
</g>
<!-- Node1&#45;&gt;Node20 -->
<g id="edge19_Node000001_Node000020" class="edge">
<title>Node1&#45;&gt;Node20</title>
<g id="a_edge19_Node000001_Node000020"><a xlink:title=" ">
<path fill="none" stroke="#63b8ff" d="M2774.09,-67.53C2797.12,-56.59 2827.77,-42.04 2850.26,-31.36"/>
<polygon fill="#63b8ff" stroke="#63b8ff" points="2851.68,-34.56 2859.21,-27.11 2848.67,-28.24 2851.68,-34.56"/>
</a>
</g>
</g>
<!-- Node21 -->
<g id="Node000021" class="node">
<title>Node21</title>
<g id="a_Node000021"><a xlink:title=" ">
<polygon fill="#e0e0e0" stroke="#999999" points="3057.75,-26 2947.25,-26 2947.25,-6 3057.75,-6 3057.75,-26"/>
<text text-anchor="middle" x="3002.5" y="-12.5" font-family="Helvetica,sans-Serif" font-size="10.00">javafx.scene.control.*</text>
</a>
</g>
</g>
<!-- Node1&#45;&gt;Node21 -->
<g id="edge20_Node000001_Node000021" class="edge">
<title>Node1&#45;&gt;Node21</title>
<g id="a_edge20_Node000001_Node000021"><a xlink:title=" ">
<path fill="none" stroke="#63b8ff" d="M2802.69,-67.53C2848.89,-55.84 2911.41,-40.03 2954.14,-29.23"/>
<polygon fill="#63b8ff" stroke="#63b8ff" points="2954.79,-32.68 2963.62,-26.83 2953.07,-25.89 2954.79,-32.68"/>
</a>
</g>
</g>
<!-- Node22 -->
<g id="Node000022" class="node">
<title>Node22</title>
<g id="a_Node000022"><a xlink:title=" ">
<polygon fill="#e0e0e0" stroke="#999999" points="3206.88,-26 3076.12,-26 3076.12,-6 3206.88,-6 3206.88,-26"/>
<text text-anchor="middle" x="3141.5" y="-12.5" font-family="Helvetica,sans-Serif" font-size="10.00">javafx.scene.image.Image</text>
</a>
</g>
</g>
<!-- Node1&#45;&gt;Node22 -->
<g id="edge21_Node000001_Node000022" class="edge">
<title>Node1&#45;&gt;Node22</title>
<g id="a_edge21_Node000001_Node000022"><a xlink:title=" ">
<path fill="none" stroke="#63b8ff" d="M2821.13,-71.45C2887.02,-61.67 2983,-46.89 3066.5,-32 3072.46,-30.94 3078.68,-29.77 3084.88,-28.59"/>
<polygon fill="#63b8ff" stroke="#63b8ff" points="3085.32,-32.07 3094.46,-26.72 3083.98,-25.2 3085.32,-32.07"/>
</a>
</g>
</g>
<!-- Node23 -->
<g id="Node000023" class="node">
<title>Node23</title>
<g id="a_Node000023"><a xlink:title=" ">
<polygon fill="#e0e0e0" stroke="#999999" points="3332.25,-26 3224.75,-26 3224.75,-6 3332.25,-6 3332.25,-26"/>
<text text-anchor="middle" x="3278.5" y="-12.5" font-family="Helvetica,sans-Serif" font-size="10.00">javafx.scene.layout.*</text>
</a>
</g>
</g>
<!-- Node1&#45;&gt;Node23 -->
<g id="edge22_Node000001_Node000023" class="edge">
<title>Node1&#45;&gt;Node23</title>
<g id="a_edge22_Node000001_Node000023"><a xlink:title=" ">
<path fill="none" stroke="#63b8ff" d="M2821.18,-77.52C2915.71,-70.31 3077.86,-55.69 3215.5,-32 3220.7,-31.11 3226.11,-30.03 3231.47,-28.88"/>
<polygon fill="#63b8ff" stroke="#63b8ff" points="3231.89,-32.38 3240.87,-26.77 3230.35,-25.55 3231.89,-32.38"/>
</a>
</g>
</g>
<!-- Node24 -->
<g id="Node000024" class="node">
<title>Node24</title>
<g id="a_Node000024"><a xlink:title=" ">
<polygon fill="#e0e0e0" stroke="#999999" points="3472.38,-26 3350.62,-26 3350.62,-6 3472.38,-6 3472.38,-26"/>
<text text-anchor="middle" x="3411.5" y="-12.5" font-family="Helvetica,sans-Serif" font-size="10.00">javafx.scene.paint.Color</text>
</a>
</g>
</g>
<!-- Node1&#45;&gt;Node24 -->
<g id="edge23_Node000001_Node000024" class="edge">
<title>Node1&#45;&gt;Node24</title>
<g id="a_edge23_Node000001_Node000024"><a xlink:title=" ">
<path fill="none" stroke="#63b8ff" d="M2820.97,-79.44C2936.2,-73.57 3156.15,-59.62 3341.5,-32 3347.65,-31.08 3354.06,-29.95 3360.41,-28.73"/>
<polygon fill="#63b8ff" stroke="#63b8ff" points="3361.09,-32.16 3370.2,-26.74 3359.7,-25.3 3361.09,-32.16"/>
</a>
</g>
</g>
<!-- Node25 -->
<g id="Node000025" class="node">
<title>Node25</title>
<g id="a_Node000025"><a xlink:title=" ">
<polygon fill="#e0e0e0" stroke="#999999" points="3638.5,-26 3490.5,-26 3490.5,-6 3638.5,-6 3638.5,-26"/>
<text text-anchor="middle" x="3564.5" y="-12.5" font-family="Helvetica,sans-Serif" font-size="10.00">javafx.scene.shape.Rectangle</text>
</a>
</g>
</g>
<!-- Node1&#45;&gt;Node25 -->
<g id="edge24_Node000001_Node000025" class="edge">
<title>Node1&#45;&gt;Node25</title>
<g id="a_edge24_Node000001_Node000025"><a xlink:title=" ">
<path fill="none" stroke="#63b8ff" d="M2821.17,-80.38C2957.07,-75.28 3242.21,-61.78 3481.5,-32 3489.49,-31.01 3497.88,-29.75 3506.13,-28.38"/>
<polygon fill="#63b8ff" stroke="#63b8ff" points="3506.48,-31.87 3515.74,-26.73 3505.29,-24.97 3506.48,-31.87"/>
</a>
</g>
</g>
<!-- Node26 -->
<g id="Node000026" class="node">
<title>Node26</title>
<g id="a_Node000026"><a xlink:title=" ">
<polygon fill="#e0e0e0" stroke="#999999" points="3768.88,-26 3656.12,-26 3656.12,-6 3768.88,-6 3768.88,-26"/>
<text text-anchor="middle" x="3712.5" y="-12.5" font-family="Helvetica,sans-Serif" font-size="10.00">javafx.scene.text.Text</text>
</a>
</g>
</g>
<!-- Node1&#45;&gt;Node26 -->
<g id="edge25_Node000001_Node000026" class="edge">
<title>Node1&#45;&gt;Node26</title>
<g id="a_edge25_Node000001_Node000026"><a xlink:title=" ">
<path fill="none" stroke="#63b8ff" d="M2821.02,-83.07C2979.23,-82.2 3344.34,-75.19 3647.5,-32 3653.45,-31.15 3659.65,-30.03 3665.77,-28.79"/>
<polygon fill="#63b8ff" stroke="#63b8ff" points="3666.1,-32.3 3675.13,-26.76 3664.61,-25.46 3666.1,-32.3"/>
</a>
</g>
</g>
<!-- Node27 -->
<g id="Node000027" class="node">
<title>Node27</title>
<g id="a_Node000027"><a xlink:title=" ">
<polygon fill="#e0e0e0" stroke="#999999" points="3911.88,-26 3787.12,-26 3787.12,-6 3911.88,-6 3911.88,-26"/>
<text text-anchor="middle" x="3849.5" y="-12.5" font-family="Helvetica,sans-Serif" font-size="10.00">javafx.stage.FileChooser</text>
</a>
</g>
</g>
<!-- Node1&#45;&gt;Node27 -->
<g id="edge26_Node000001_Node000027" class="edge">
<title>Node1&#45;&gt;Node27</title>
<g id="a_edge26_Node000001_Node000027"><a xlink:title=" ">
<path fill="none" stroke="#63b8ff" d="M2821.16,-83.3C2995.35,-83.05 3422.94,-77.38 3777.5,-32 3784.32,-31.13 3791.45,-29.96 3798.46,-28.66"/>
<polygon fill="#63b8ff" stroke="#63b8ff" points="3799.08,-32.1 3808.21,-26.74 3797.73,-25.24 3799.08,-32.1"/>
</a>
</g>
</g>
<!-- Node28 -->
<g id="Node000028" class="node">
<title>Node28</title>
<g id="a_Node000028"><a xlink:title=" ">
<polygon fill="#e0e0e0" stroke="#999999" points="4033,-26 3930,-26 3930,-6 4033,-6 4033,-26"/>
<text text-anchor="middle" x="3981.5" y="-12.5" font-family="Helvetica,sans-Serif" font-size="10.00">javafx.stage.Screen</text>
</a>
</g>
</g>
<!-- Node1&#45;&gt;Node28 -->
<g id="edge27_Node000001_Node000028" class="edge">
<title>Node1&#45;&gt;Node28</title>
<g id="a_edge27_Node000001_Node000028"><a xlink:title=" ">
<path fill="none" stroke="#63b8ff" d="M2820.98,-81.61C3049.82,-77.29 3707.42,-62.5 3920.5,-32 3925.88,-31.23 3931.49,-30.19 3937.02,-29.01"/>
<polygon fill="#63b8ff" stroke="#63b8ff" points="3937.73,-32.44 3946.7,-26.8 3936.17,-25.62 3937.73,-32.44"/>
</a>
</g>
</g>
<!-- Node29 -->
<g id="Node000029" class="node">
<title>Node29</title>
<g id="a_Node000029"><a xlink:title=" ">
<polygon fill="#e0e0e0" stroke="#999999" points="4148.38,-26 4050.62,-26 4050.62,-6 4148.38,-6 4148.38,-26"/>
<text text-anchor="middle" x="4099.5" y="-12.5" font-family="Helvetica,sans-Serif" font-size="10.00">javafx.stage.Stage</text>
</a>
</g>
</g>
<!-- Node1&#45;&gt;Node29 -->
<g id="edge28_Node000001_Node000029" class="edge">
<title>Node1&#45;&gt;Node29</title>
<g id="a_edge28_Node000001_Node000029"><a xlink:title=" ">
<path fill="none" stroke="#63b8ff" d="M2820.85,-82.16C3065.35,-79.2 3804.97,-67.48 4042.5,-32 4047.41,-31.27 4052.52,-30.27 4057.56,-29.14"/>
<polygon fill="#63b8ff" stroke="#63b8ff" points="4058.04,-32.62 4066.93,-26.85 4056.38,-25.82 4058.04,-32.62"/>
</a>
</g>
</g>
<!-- Node30 -->
<g id="Node000030" class="node">
<title>Node30</title>
<g id="a_Node000030"><a xlink:title=" ">
<polygon fill="#e0e0e0" stroke="#999999" points="4286.62,-26 4166.38,-26 4166.38,-6 4286.62,-6 4286.62,-26"/>
<text text-anchor="middle" x="4226.5" y="-12.5" font-family="Helvetica,sans-Serif" font-size="10.00">javafx.stage.StageStyle</text>
</a>
</g>
</g>
<!-- Node1&#45;&gt;Node30 -->
<g id="edge29_Node000001_Node000030" class="edge">
<title>Node1&#45;&gt;Node30</title>
<g id="a_edge29_Node000001_Node000030"><a xlink:title=" ">
<path fill="none" stroke="#63b8ff" d="M2820.88,-82C3079.46,-78.46 3895.88,-64.88 4157.5,-32 4164.05,-31.18 4170.89,-30.04 4177.61,-28.75"/>
<polygon fill="#63b8ff" stroke="#63b8ff" points="4178.17,-32.21 4187.27,-26.78 4176.77,-25.35 4178.17,-32.21"/>
</a>
</g>
</g>
<!-- Node31 -->
<g id="Node000031" class="node">
<title>Node31</title>
<g id="a_Node000031"><a xlink:title=" ">
<polygon fill="#e0e0e0" stroke="#999999" points="4402.38,-26 4304.62,-26 4304.62,-6 4402.38,-6 4402.38,-26"/>
<text text-anchor="middle" x="4353.5" y="-12.5" font-family="Helvetica,sans-Serif" font-size="10.00">javafx.util.Duration</text>
</a>
</g>
</g>
<!-- Node1&#45;&gt;Node31 -->
<g id="edge30_Node000001_Node000031" class="edge">
<title>Node1&#45;&gt;Node31</title>
<g id="a_edge30_Node000001_Node000031"><a xlink:title=" ">
<path fill="none" stroke="#63b8ff" d="M2820.89,-82.7C3095.86,-81.31 4006.44,-73.6 4295.5,-32 4300.56,-31.27 4305.81,-30.27 4311,-29.13"/>
<polygon fill="#63b8ff" stroke="#63b8ff" points="4311.77,-32.54 4320.68,-26.8 4310.14,-25.74 4311.77,-32.54"/>
</a>
</g>
</g>
<!-- Node32 -->
<g id="Node000032" class="node">
<title>Node32</title>
<g id="a_Node000032"><a xlink:title=" ">
<polygon fill="#e0e0e0" stroke="#999999" points="4541,-26 4420,-26 4420,-6 4541,-6 4541,-26"/>
<text text-anchor="middle" x="4480.5" y="-12.5" font-family="Helvetica,sans-Serif" font-size="10.00">lombok.extern.slf4j.Slf4j</text>
</a>
</g>
</g>
<!-- Node1&#45;&gt;Node32 -->
<g id="edge31_Node000001_Node000032" class="edge">
<title>Node1&#45;&gt;Node32</title>
<g id="a_edge31_Node000001_Node000032"><a xlink:title=" ">
<path fill="none" stroke="#63b8ff" d="M2821.21,-82.5C3109.59,-80.41 4098.05,-70.53 4411.5,-32 4418.13,-31.19 4425.05,-30.04 4431.86,-28.74"/>
<polygon fill="#63b8ff" stroke="#63b8ff" points="4432.53,-32.17 4441.63,-26.74 4431.13,-25.31 4432.53,-32.17"/>
</a>
</g>
</g>
<!-- Node33 -->
<g id="Node000033" class="node">
<title>Node33</title>
<g id="a_Node000033"><a xlink:title=" ">
<polygon fill="#e0e0e0" stroke="#999999" points="4622.12,-26 4558.88,-26 4558.88,-6 4622.12,-6 4622.12,-26"/>
<text text-anchor="middle" x="4590.5" y="-12.5" font-family="Helvetica,sans-Serif" font-size="10.00">java.io.File</text>
</a>
</g>
</g>
<!-- Node1&#45;&gt;Node33 -->
<g id="edge32_Node000001_Node000033" class="edge">
<title>Node1&#45;&gt;Node33</title>
<g id="a_edge32_Node000001_Node000033"><a xlink:title=" ">
<path fill="none" stroke="#63b8ff" d="M2821.07,-82.3C3148.13,-79.22 4379.62,-65.48 4550.5,-32 4553.14,-31.48 4555.84,-30.81 4558.52,-30.04"/>
<polygon fill="#63b8ff" stroke="#63b8ff" points="4559.48,-33.41 4567.85,-26.92 4557.26,-26.77 4559.48,-33.41"/>
</a>
</g>
</g>
<!-- Node34 -->
<g id="Node000034" class="node">
<title>Node34</title>
<g id="a_Node000034"><a xlink:title=" ">
<polygon fill="#e0e0e0" stroke="#999999" points="4767,-26 4640,-26 4640,-6 4767,-6 4767,-26"/>
<text text-anchor="middle" x="4703.5" y="-12.5" font-family="Helvetica,sans-Serif" font-size="10.00">java.text.MessageFormat</text>
</a>
</g>
</g>
<!-- Node1&#45;&gt;Node34 -->
<g id="edge33_Node000001_Node000034" class="edge">
<title>Node1&#45;&gt;Node34</title>
<g id="a_edge33_Node000001_Node000034"><a xlink:title=" ">
<path fill="none" stroke="#63b8ff" d="M2821.04,-82.74C3132.88,-81.45 4272.56,-73.89 4631.5,-32 4638.57,-31.17 4645.98,-30 4653.25,-28.66"/>
<polygon fill="#63b8ff" stroke="#63b8ff" points="4653.85,-32.11 4662.99,-26.74 4652.5,-25.24 4653.85,-32.11"/>
</a>
</g>
</g>
<!-- Node35 -->
<g id="Node000035" class="node">
<title>Node35</title>
<g id="a_Node000035"><a xlink:title=" ">
<polygon fill="#e0e0e0" stroke="#999999" points="4853.75,-26 4785.25,-26 4785.25,-6 4853.75,-6 4853.75,-26"/>
<text text-anchor="middle" x="4819.5" y="-12.5" font-family="Helvetica,sans-Serif" font-size="10.00">java.util.List</text>
</a>
</g>
</g>
<!-- Node1&#45;&gt;Node35 -->
<g id="edge34_Node000001_Node000035" class="edge">
<title>Node1&#45;&gt;Node35</title>
<g id="a_edge34_Node000001_Node000035"><a xlink:title=" ">
<path fill="none" stroke="#63b8ff" d="M2820.99,-82.46C3172.93,-79.89 4582.02,-67.46 4776.5,-32 4779.53,-31.45 4782.64,-30.72 4785.72,-29.87"/>
<polygon fill="#63b8ff" stroke="#63b8ff" points="4786.71,-33.23 4795.2,-26.9 4784.61,-26.55 4786.71,-33.23"/>
</a>
</g>
</g>
<!-- Node36 -->
<g id="Node000036" class="node">
<title>Node36</title>
<g id="a_Node000036"><a xlink:title=" ">
<polygon fill="#e0e0e0" stroke="#999999" points="4958.75,-26 4872.25,-26 4872.25,-6 4958.75,-6 4958.75,-26"/>
<text text-anchor="middle" x="4915.5" y="-12.5" font-family="Helvetica,sans-Serif" font-size="10.00">java.util.Objects</text>
</a>
</g>
</g>
<!-- Node1&#45;&gt;Node36 -->
<g id="edge35_Node000001_Node000036" class="edge">
<title>Node1&#45;&gt;Node36</title>
<g id="a_edge35_Node000001_Node000036"><a xlink:title=" ">
<path fill="none" stroke="#63b8ff" d="M2820.95,-82.27C3181.87,-78.81 4658.15,-62.87 4862.5,-32 4866.95,-31.33 4871.55,-30.4 4876.1,-29.32"/>
<polygon fill="#63b8ff" stroke="#63b8ff" points="4876.93,-32.73 4885.72,-26.82 4875.16,-25.95 4876.93,-32.73"/>
</a>
</g>
</g>
</g>
</svg>
