<?xml version="1.0" encoding="UTF-8" standalone="no"?>
<!DOCTYPE svg PUBLIC "-//W3C//DTD SVG 1.1//EN"
 "http://www.w3.org/Graphics/SVG/1.1/DTD/svg11.dtd">
<!-- Generated by graphviz version 12.2.1 (20241206.2353)
 -->
<!-- Title: src/main/java/fr/softsf/sudokufx/view/DefaultView.java Pages: 1 -->
<!--zoomable 108 -->

<svg id="main" version="1.1" xmlns="http://www.w3.org/2000/svg" xmlns:xlink="http://www.w3.org/1999/xlink" xml:space="preserve" onload="init(evt)">

<style type="text/css"><![CDATA[
.node, .edge {opacity: 0.7;}
.node.selected, .edge.selected {opacity: 1;}
.edge:hover path { stroke: red; }
.edge:hover polygon { stroke: red; fill: red; }
]]></style>

<defs>
  <circle id="rim" cx="0" cy="0" r="7"/>
  <circle id="rim2" cx="0" cy="0" r="3.5"/>
  <g id="zoomPlus">
    <use xlink:href="#rim" fill="#404040"><set attributeName="fill" to="#808080" begin="zoomplus.mouseover" end="zoomplus.mouseout"/></use>
    <path d="M-4,0h8M0,-4v8" fill="none" stroke="white" stroke-width="1.5" pointer-events="none"/>
  </g>
  <g id="zoomMin">
    <use xlink:href="#rim" fill="#404040"><set attributeName="fill" to="#808080" begin="zoomminus.mouseover" end="zoomminus.mouseout"/></use>
    <path d="M-4,0h8" fill="none" stroke="white" stroke-width="1.5" pointer-events="none"/>
  </g>
  <g id="arrowUp" transform="translate(30 24)">
    <use xlink:href="#rim"/>
    <path pointer-events="none" fill="none" stroke="white" stroke-width="1.5" d="M0,-3.0v7 M-2.5,-0.5L0,-3.0L2.5,-0.5"/>
  </g>
  <g id="arrowRight" transform="rotate(90) translate(36 -43)">
    <use xlink:href="#rim"/>
    <path pointer-events="none" fill="none" stroke="white" stroke-width="1.5" d="M0,-3.0v7 M-2.5,-0.5L0,-3.0L2.5,-0.5"/>
  </g>
  <g id="arrowDown" transform="rotate(180) translate(-30 -48)">
    <use xlink:href="#rim"/>
    <path pointer-events="none" fill="none" stroke="white" stroke-width="1.5" d="M0,-3.0v7 M-2.5,-0.5L0,-3.0L2.5,-0.5"/>
  </g>
  <g id="arrowLeft" transform="rotate(270) translate(-36 17)">
    <use xlink:href="#rim"/>
    <path pointer-events="none" fill="none" stroke="white" stroke-width="1.5" d="M0,-3.0v7 M-2.5,-0.5L0,-3.0L2.5,-0.5"/>
  </g>
  <g id="resetDef">
    <use xlink:href="#rim2" fill="#404040"><set attributeName="fill" to="#808080" begin="reset.mouseover" end="reset.mouseout"/></use>
  </g>
</defs>
<script type="application/ecmascript">
var viewWidth = 5085;
var viewHeight = 108;
var sectionId = 'dynsection-0';
</script>
<script type="application/ecmascript" xlink:href="svg.min.js"/>
<svg id="graph" class="graph">
<g id="viewport">
<title>src/main/java/fr/softsf/sudokufx/view/DefaultView.java</title>
<!-- Node1 -->
<g id="Node000001" class="node">
<title>Node1</title>
<g id="a_Node000001"><a xlink:title=" ">
<polygon fill="#999999" stroke="#666666" points="2715.75,-100 2557.25,-100 2557.25,-68 2715.75,-68 2715.75,-100"/>
<text text-anchor="start" x="2565.25" y="-86.5" font-family="Helvetica,sans-Serif" font-size="10.00">src/main/java/fr/softsf</text>
<text text-anchor="middle" x="2636.5" y="-74.5" font-family="Helvetica,sans-Serif" font-size="10.00">/sudokufx/view/DefaultView.java</text>
</a>
</g>
</g>
<!-- Node2 -->
<g id="Node000002" class="node">
<title>Node2</title>
<g id="a_Node000002"><a xlink:title=" ">
<polygon fill="#e0e0e0" stroke="#999999" points="139,-26 0,-26 0,-6 139,-6 139,-26"/>
<text text-anchor="middle" x="69.5" y="-12.5" font-family="Helvetica,sans-Serif" font-size="10.00">fr.softsf.sudokufx.SudoMain</text>
</a>
</g>
</g>
<!-- Node1&#45;&gt;Node2 -->
<g id="edge1_Node000001_Node000002" class="edge">
<title>Node1&#45;&gt;Node2</title>
<g id="a_edge1_Node000001_Node000002"><a xlink:title=" ">
<path fill="none" stroke="#63b8ff" d="M2556.84,-83.16C2186.63,-83.62 631.78,-82.48 148.5,-32 140.39,-31.15 131.86,-29.91 123.53,-28.5"/>
<polygon fill="#63b8ff" stroke="#63b8ff" points="124.31,-25.08 113.85,-26.76 123.07,-31.97 124.31,-25.08"/>
</a>
</g>
</g>
<!-- Node3 -->
<g id="Node000003" class="node">
<title>Node3</title>
<g id="a_Node000003"><a xlink:title=" ">
<polygon fill="#e0e0e0" stroke="#999999" points="303.75,-26 157.25,-26 157.25,-6 303.75,-6 303.75,-26"/>
<text text-anchor="middle" x="230.5" y="-12.5" font-family="Helvetica,sans-Serif" font-size="10.00">fr.softsf.sudokufx.enums.I18n</text>
</a>
</g>
</g>
<!-- Node1&#45;&gt;Node3 -->
<g id="edge2_Node000001_Node000003" class="edge">
<title>Node1&#45;&gt;Node3</title>
<g id="a_edge2_Node000001_Node000003"><a xlink:title=" ">
<path fill="none" stroke="#63b8ff" d="M2556.83,-82.95C2201.82,-82.48 761.8,-77.73 312.5,-32 303.99,-31.13 295.04,-29.87 286.3,-28.43"/>
<polygon fill="#63b8ff" stroke="#63b8ff" points="286.94,-24.99 276.49,-26.73 285.75,-31.89 286.94,-24.99"/>
</a>
</g>
</g>
<!-- Node4 -->
<g id="Node000004" class="node">
<title>Node4</title>
<g id="a_Node000004"><a xlink:title=" ">
<polygon fill="#e0e0e0" stroke="#999999" points="449.38,-32 321.62,-32 321.62,0 449.38,0 449.38,-32"/>
<text text-anchor="start" x="329.62" y="-18.5" font-family="Helvetica,sans-Serif" font-size="10.00">fr.softsf.sudokufx.enums.</text>
<text text-anchor="middle" x="385.5" y="-6.5" font-family="Helvetica,sans-Serif" font-size="10.00">Paths</text>
</a>
</g>
</g>
<!-- Node1&#45;&gt;Node4 -->
<g id="edge3_Node000001_Node000004" class="edge">
<title>Node1&#45;&gt;Node4</title>
<g id="a_edge3_Node000001_Node000004"><a xlink:title=" ">
<path fill="none" stroke="#63b8ff" d="M2557,-83.05C2219.11,-82.96 899.88,-79.57 460.65,-32.06"/>
<polygon fill="#63b8ff" stroke="#63b8ff" points="461.32,-28.62 450.99,-30.99 460.55,-35.57 461.32,-28.62"/>
</a>
</g>
</g>
<!-- Node5 -->
<g id="Node000005" class="node">
<title>Node5</title>
<g id="a_Node000005"><a xlink:title=" ">
<polygon fill="#e0e0e0" stroke="#999999" points="609.12,-32 467.88,-32 467.88,0 609.12,0 609.12,-32"/>
<text text-anchor="start" x="475.88" y="-18.5" font-family="Helvetica,sans-Serif" font-size="10.00">fr.softsf.sudokufx.interfaces.</text>
<text text-anchor="middle" x="538.5" y="-6.5" font-family="Helvetica,sans-Serif" font-size="10.00">IMainView</text>
</a>
</g>
</g>
<!-- Node1&#45;&gt;Node5 -->
<g id="edge4_Node000001_Node000005" class="edge">
<title>Node1&#45;&gt;Node5</title>
<g id="a_edge4_Node000001_Node000005"><a xlink:title=" ">
<path fill="none" stroke="#63b8ff" d="M2556.87,-82.72C2234.69,-81.3 1026.12,-73.38 620.66,-32.21"/>
<polygon fill="#63b8ff" stroke="#63b8ff" points="621.29,-28.75 610.98,-31.2 620.57,-35.72 621.29,-28.75"/>
</a>
</g>
</g>
<!-- Node6 -->
<g id="Node000006" class="node">
<title>Node6</title>
<g id="a_Node000006"><a xlink:title=" ">
<polygon fill="#e0e0e0" stroke="#999999" points="768.12,-32 626.88,-32 626.88,0 768.12,0 768.12,-32"/>
<text text-anchor="start" x="634.88" y="-18.5" font-family="Helvetica,sans-Serif" font-size="10.00">fr.softsf.sudokufx.interfaces.</text>
<text text-anchor="middle" x="697.5" y="-6.5" font-family="Helvetica,sans-Serif" font-size="10.00">ISceneProvider</text>
</a>
</g>
</g>
<!-- Node1&#45;&gt;Node6 -->
<g id="edge5_Node000001_Node000006" class="edge">
<title>Node1&#45;&gt;Node6</title>
<g id="a_edge5_Node000001_Node000006"><a xlink:title=" ">
<path fill="none" stroke="#63b8ff" d="M2556.93,-82.52C2251.41,-80.4 1152.44,-70.32 779.82,-32.23"/>
<polygon fill="#63b8ff" stroke="#63b8ff" points="780.29,-28.76 769.98,-31.19 779.56,-35.72 780.29,-28.76"/>
</a>
</g>
</g>
<!-- Node7 -->
<g id="Node000007" class="node">
<title>Node7</title>
<g id="a_Node000007"><a xlink:title=" ">
<polygon fill="#e0e0e0" stroke="#999999" points="927.12,-32 785.88,-32 785.88,0 927.12,0 927.12,-32"/>
<text text-anchor="start" x="793.88" y="-18.5" font-family="Helvetica,sans-Serif" font-size="10.00">fr.softsf.sudokufx.interfaces.</text>
<text text-anchor="middle" x="856.5" y="-6.5" font-family="Helvetica,sans-Serif" font-size="10.00">ISplashScreenView</text>
</a>
</g>
</g>
<!-- Node1&#45;&gt;Node7 -->
<g id="edge6_Node000001_Node000007" class="edge">
<title>Node1&#45;&gt;Node7</title>
<g id="a_edge6_Node000001_Node000007"><a xlink:title=" ">
<path fill="none" stroke="#63b8ff" d="M2556.9,-82.25C2268.69,-79.3 1279.23,-66.89 938.86,-32.1"/>
<polygon fill="#63b8ff" stroke="#63b8ff" points="939.33,-28.63 929.02,-31.07 938.6,-35.59 939.33,-28.63"/>
</a>
</g>
</g>
<!-- Node8 -->
<g id="Node000008" class="node">
<title>Node8</title>
<g id="a_Node000008"><a xlink:title=" ">
<polygon fill="#e0e0e0" stroke="#999999" points="1135.5,-32 945.5,-32 945.5,0 1135.5,0 1135.5,-32"/>
<text text-anchor="start" x="953.5" y="-18.5" font-family="Helvetica,sans-Serif" font-size="10.00">fr.softsf.sudokufx.view.components.list.</text>
<text text-anchor="middle" x="1040.5" y="-6.5" font-family="Helvetica,sans-Serif" font-size="10.00">ItemListCell</text>
</a>
</g>
</g>
<!-- Node1&#45;&gt;Node8 -->
<g id="edge7_Node000001_Node000008" class="edge">
<title>Node1&#45;&gt;Node8</title>
<g id="a_edge7_Node000001_Node000008"><a xlink:title=" ">
<path fill="none" stroke="#63b8ff" d="M2557.06,-83.33C2335.47,-83.59 1691.65,-79.92 1147.17,-32.17"/>
<polygon fill="#63b8ff" stroke="#63b8ff" points="1147.72,-28.71 1137.45,-31.31 1147.11,-35.68 1147.72,-28.71"/>
</a>
</g>
</g>
<!-- Node9 -->
<g id="Node000009" class="node">
<title>Node9</title>
<g id="a_Node000009"><a xlink:title=" ">
<polygon fill="#e0e0e0" stroke="#999999" points="1361.12,-32 1153.88,-32 1153.88,0 1361.12,0 1361.12,-32"/>
<text text-anchor="start" x="1161.88" y="-18.5" font-family="Helvetica,sans-Serif" font-size="10.00">fr.softsf.sudokufx.view.components.toaster.</text>
<text text-anchor="middle" x="1257.5" y="-6.5" font-family="Helvetica,sans-Serif" font-size="10.00">ToasterVBox</text>
</a>
</g>
</g>
<!-- Node1&#45;&gt;Node9 -->
<g id="edge8_Node000001_Node000009" class="edge">
<title>Node1&#45;&gt;Node9</title>
<g id="a_edge8_Node000001_Node000009"><a xlink:title=" ">
<path fill="none" stroke="#63b8ff" d="M2557.09,-82.33C2359.02,-80.11 1827.05,-70.8 1372.91,-32.15"/>
<polygon fill="#63b8ff" stroke="#63b8ff" points="1373.29,-28.67 1363.03,-31.3 1372.69,-35.64 1373.29,-28.67"/>
</a>
</g>
</g>
<!-- Node10 -->
<g id="Node000010" class="node">
<title>Node10</title>
<g id="a_Node000010"><a xlink:title=" ">
<polygon fill="#e0e0e0" stroke="#999999" points="1533.88,-26 1379.12,-26 1379.12,-6 1533.88,-6 1533.88,-26"/>
<text text-anchor="middle" x="1456.5" y="-12.5" font-family="Helvetica,sans-Serif" font-size="10.00">javafx.animation.FadeTransition</text>
</a>
</g>
</g>
<!-- Node1&#45;&gt;Node10 -->
<g id="edge9_Node000001_Node000010" class="edge">
<title>Node1&#45;&gt;Node10</title>
<g id="a_edge9_Node000001_Node000010"><a xlink:title=" ">
<path fill="none" stroke="#63b8ff" d="M2556.96,-82.72C2376.16,-81.34 1920.73,-73.63 1542.5,-32 1533.81,-31.04 1524.68,-29.76 1515.74,-28.34"/>
<polygon fill="#63b8ff" stroke="#63b8ff" points="1516.49,-24.92 1506.05,-26.73 1515.35,-31.82 1516.49,-24.92"/>
</a>
</g>
</g>
<!-- Node11 -->
<g id="Node000011" class="node">
<title>Node11</title>
<g id="a_Node000011"><a xlink:title=" ">
<polygon fill="#e0e0e0" stroke="#999999" points="1683.25,-26 1551.75,-26 1551.75,-6 1683.25,-6 1683.25,-26"/>
<text text-anchor="middle" x="1617.5" y="-12.5" font-family="Helvetica,sans-Serif" font-size="10.00">javafx.application.Platform</text>
</a>
</g>
</g>
<!-- Node1&#45;&gt;Node11 -->
<g id="edge10_Node000001_Node000011" class="edge">
<title>Node1&#45;&gt;Node11</title>
<g id="a_edge10_Node000001_Node000011"><a xlink:title=" ">
<path fill="none" stroke="#63b8ff" d="M2556.81,-82.62C2393.71,-80.98 2010.33,-72.7 1691.5,-32 1684.5,-31.11 1677.18,-29.93 1669.97,-28.62"/>
<polygon fill="#63b8ff" stroke="#63b8ff" points="1670.78,-25.21 1660.3,-26.77 1669.46,-32.08 1670.78,-25.21"/>
</a>
</g>
</g>
<!-- Node12 -->
<g id="Node000012" class="node">
<title>Node12</title>
<g id="a_Node000012"><a xlink:title=" ">
<polygon fill="#e0e0e0" stroke="#999999" points="1840,-32 1701,-32 1701,0 1840,0 1840,-32"/>
<text text-anchor="start" x="1709" y="-18.5" font-family="Helvetica,sans-Serif" font-size="10.00">javafx.beans.binding.Double</text>
<text text-anchor="middle" x="1770.5" y="-6.5" font-family="Helvetica,sans-Serif" font-size="10.00">Binding</text>
</a>
</g>
</g>
<!-- Node1&#45;&gt;Node12 -->
<g id="edge11_Node000001_Node000012" class="edge">
<title>Node1&#45;&gt;Node12</title>
<g id="a_edge11_Node000001_Node000012"><a xlink:title=" ">
<path fill="none" stroke="#63b8ff" d="M2556.77,-81.14C2416.18,-77.14 2114.88,-65.33 1851.5,-32.28"/>
<polygon fill="#63b8ff" stroke="#63b8ff" points="1852.03,-28.82 1841.67,-31.04 1851.15,-35.77 1852.03,-28.82"/>
</a>
</g>
</g>
<!-- Node13 -->
<g id="Node000013" class="node">
<title>Node13</title>
<g id="a_Node000013"><a xlink:title=" ">
<polygon fill="#e0e0e0" stroke="#999999" points="1955.38,-26 1857.62,-26 1857.62,-6 1955.38,-6 1955.38,-26"/>
<text text-anchor="middle" x="1906.5" y="-12.5" font-family="Helvetica,sans-Serif" font-size="10.00">javafx.event.Event</text>
</a>
</g>
</g>
<!-- Node1&#45;&gt;Node13 -->
<g id="edge12_Node000001_Node000013" class="edge">
<title>Node1&#45;&gt;Node13</title>
<g id="a_edge12_Node000001_Node000013"><a xlink:title=" ">
<path fill="none" stroke="#63b8ff" d="M2556.82,-81.51C2430.43,-78.14 2176.59,-67.19 1964.5,-32 1959.77,-31.21 1954.86,-30.23 1949.99,-29.13"/>
<polygon fill="#63b8ff" stroke="#63b8ff" points="1950.81,-25.73 1940.27,-26.79 1949.17,-32.54 1950.81,-25.73"/>
</a>
</g>
</g>
<!-- Node14 -->
<g id="Node000014" class="node">
<title>Node14</title>
<g id="a_Node000014"><a xlink:title=" ">
<polygon fill="#e0e0e0" stroke="#999999" points="2105.25,-26 1973.75,-26 1973.75,-6 2105.25,-6 2105.25,-26"/>
<text text-anchor="middle" x="2039.5" y="-12.5" font-family="Helvetica,sans-Serif" font-size="10.00">javafx.event.EventHandler</text>
</a>
</g>
</g>
<!-- Node1&#45;&gt;Node14 -->
<g id="edge13_Node000001_Node000014" class="edge">
<title>Node1&#45;&gt;Node14</title>
<g id="a_edge13_Node000001_Node000014"><a xlink:title=" ">
<path fill="none" stroke="#63b8ff" d="M2556.89,-77.79C2454.09,-70.49 2269.81,-55.4 2113.5,-32 2107.02,-31.03 2100.25,-29.87 2093.55,-28.62"/>
<polygon fill="#63b8ff" stroke="#63b8ff" points="2094.38,-25.22 2083.9,-26.76 2093.05,-32.09 2094.38,-25.22"/>
</a>
</g>
</g>
<!-- Node15 -->
<g id="Node000015" class="node">
<title>Node15</title>
<g id="a_Node000015"><a xlink:title=" ">
<polygon fill="#e0e0e0" stroke="#999999" points="2216.12,-26 2122.88,-26 2122.88,-6 2216.12,-6 2216.12,-26"/>
<text text-anchor="middle" x="2169.5" y="-12.5" font-family="Helvetica,sans-Serif" font-size="10.00">javafx.fxml.FXML</text>
</a>
</g>
</g>
<!-- Node1&#45;&gt;Node15 -->
<g id="edge14_Node000001_Node000015" class="edge">
<title>Node1&#45;&gt;Node15</title>
<g id="a_edge14_Node000001_Node000015"><a xlink:title=" ">
<path fill="none" stroke="#63b8ff" d="M2556.98,-76.56C2473.61,-69.01 2339.05,-54.59 2224.5,-32 2220.42,-31.2 2216.21,-30.25 2212,-29.24"/>
<polygon fill="#63b8ff" stroke="#63b8ff" points="2213.04,-25.89 2202.48,-26.8 2211.3,-32.67 2213.04,-25.89"/>
</a>
</g>
</g>
<!-- Node16 -->
<g id="Node000016" class="node">
<title>Node16</title>
<g id="a_Node000016"><a xlink:title=" ">
<polygon fill="#e0e0e0" stroke="#999999" points="2379,-26 2234,-26 2234,-6 2379,-6 2379,-26"/>
<text text-anchor="middle" x="2306.5" y="-12.5" font-family="Helvetica,sans-Serif" font-size="10.00">javafx.geometry.Rectangle2D</text>
</a>
</g>
</g>
<!-- Node1&#45;&gt;Node16 -->
<g id="edge15_Node000001_Node000016" class="edge">
<title>Node1&#45;&gt;Node16</title>
<g id="a_edge15_Node000001_Node000016"><a xlink:title=" ">
<path fill="none" stroke="#63b8ff" d="M2559.13,-67.53C2499.73,-55.65 2418.98,-39.5 2364.91,-28.68"/>
<polygon fill="#63b8ff" stroke="#63b8ff" points="2365.78,-25.29 2355.28,-26.76 2364.4,-32.15 2365.78,-25.29"/>
</a>
</g>
</g>
<!-- Node17 -->
<g id="Node000017" class="node">
<title>Node17</title>
<g id="a_Node000017"><a xlink:title=" ">
<polygon fill="#e0e0e0" stroke="#999999" points="2494.38,-26 2396.62,-26 2396.62,-6 2494.38,-6 2494.38,-26"/>
<text text-anchor="middle" x="2445.5" y="-12.5" font-family="Helvetica,sans-Serif" font-size="10.00">javafx.scene.Node</text>
</a>
</g>
</g>
<!-- Node1&#45;&gt;Node17 -->
<g id="edge16_Node000001_Node000017" class="edge">
<title>Node1&#45;&gt;Node17</title>
<g id="a_edge16_Node000001_Node000017"><a xlink:title=" ">
<path fill="none" stroke="#63b8ff" d="M2591.72,-67.53C2558.92,-56.19 2514.88,-40.97 2483.73,-30.21"/>
<polygon fill="#63b8ff" stroke="#63b8ff" points="2484.9,-26.91 2474.31,-26.95 2482.62,-33.53 2484.9,-26.91"/>
</a>
</g>
</g>
<!-- Node18 -->
<g id="Node000018" class="node">
<title>Node18</title>
<g id="a_Node000018"><a xlink:title=" ">
<polygon fill="#e0e0e0" stroke="#999999" points="2622.75,-26 2512.25,-26 2512.25,-6 2622.75,-6 2622.75,-26"/>
<text text-anchor="middle" x="2567.5" y="-12.5" font-family="Helvetica,sans-Serif" font-size="10.00">javafx.scene.control.*</text>
</a>
</g>
</g>
<!-- Node1&#45;&gt;Node18 -->
<g id="edge17_Node000001_Node000018" class="edge">
<title>Node1&#45;&gt;Node18</title>
<g id="a_edge17_Node000001_Node000018"><a xlink:title=" ">
<path fill="none" stroke="#63b8ff" d="M2620.5,-67.69C2610.05,-57.7 2596.38,-44.63 2585.54,-34.26"/>
<polygon fill="#63b8ff" stroke="#63b8ff" points="2587.98,-31.75 2578.33,-27.36 2583.14,-36.8 2587.98,-31.75"/>
</a>
</g>
</g>
<!-- Node19 -->
<g id="Node000019" class="node">
<title>Node19</title>
<g id="a_Node000019"><a xlink:title=" ">
<polygon fill="#e0e0e0" stroke="#999999" points="2771.88,-26 2641.12,-26 2641.12,-6 2771.88,-6 2771.88,-26"/>
<text text-anchor="middle" x="2706.5" y="-12.5" font-family="Helvetica,sans-Serif" font-size="10.00">javafx.scene.image.Image</text>
</a>
</g>
</g>
<!-- Node1&#45;&gt;Node19 -->
<g id="edge18_Node000001_Node000019" class="edge">
<title>Node1&#45;&gt;Node19</title>
<g id="a_edge18_Node000001_Node000019"><a xlink:title=" ">
<path fill="none" stroke="#63b8ff" d="M2652.74,-67.69C2663.44,-57.6 2677.48,-44.36 2688.52,-33.95"/>
<polygon fill="#63b8ff" stroke="#63b8ff" points="2690.64,-36.76 2695.52,-27.35 2685.84,-31.67 2690.64,-36.76"/>
</a>
</g>
</g>
<!-- Node20 -->
<g id="Node000020" class="node">
<title>Node20</title>
<g id="a_Node000020"><a xlink:title=" ">
<polygon fill="#e0e0e0" stroke="#999999" points="2945.25,-26 2789.75,-26 2789.75,-6 2945.25,-6 2945.25,-26"/>
<text text-anchor="middle" x="2867.5" y="-12.5" font-family="Helvetica,sans-Serif" font-size="10.00">javafx.scene.layout.Background</text>
</a>
</g>
</g>
<!-- Node1&#45;&gt;Node20 -->
<g id="edge19_Node000001_Node000020" class="edge">
<title>Node1&#45;&gt;Node20</title>
<g id="a_edge19_Node000001_Node000020"><a xlink:title=" ">
<path fill="none" stroke="#63b8ff" d="M2690.66,-67.53C2731.2,-55.94 2785.94,-40.3 2823.73,-29.51"/>
<polygon fill="#63b8ff" stroke="#63b8ff" points="2824.28,-32.99 2832.93,-26.88 2822.36,-26.26 2824.28,-32.99"/>
</a>
</g>
</g>
<!-- Node21 -->
<g id="Node000021" class="node">
<title>Node21</title>
<g id="a_Node000021"><a xlink:title=" ">
<polygon fill="#e0e0e0" stroke="#999999" points="3131.62,-26 2963.38,-26 2963.38,-6 3131.62,-6 3131.62,-26"/>
<text text-anchor="middle" x="3047.5" y="-12.5" font-family="Helvetica,sans-Serif" font-size="10.00">javafx.scene.layout.BackgroundFill</text>
</a>
</g>
</g>
<!-- Node1&#45;&gt;Node21 -->
<g id="edge20_Node000001_Node000021" class="edge">
<title>Node1&#45;&gt;Node21</title>
<g id="a_edge20_Node000001_Node000021"><a xlink:title=" ">
<path fill="none" stroke="#63b8ff" d="M2716.22,-70.23C2780.54,-59.93 2873.35,-45.05 2954.5,-32 2961.99,-30.8 2969.81,-29.54 2977.6,-28.28"/>
<polygon fill="#63b8ff" stroke="#63b8ff" points="2978.15,-31.74 2987.47,-26.69 2977.04,-24.83 2978.15,-31.74"/>
</a>
</g>
</g>
<!-- Node22 -->
<g id="Node000022" class="node">
<title>Node22</title>
<g id="a_Node000022"><a xlink:title=" ">
<polygon fill="#e0e0e0" stroke="#999999" points="3293.62,-26 3149.38,-26 3149.38,-6 3293.62,-6 3293.62,-26"/>
<text text-anchor="middle" x="3221.5" y="-12.5" font-family="Helvetica,sans-Serif" font-size="10.00">javafx.scene.layout.GridPane</text>
</a>
</g>
</g>
<!-- Node1&#45;&gt;Node22 -->
<g id="edge21_Node000001_Node000022" class="edge">
<title>Node1&#45;&gt;Node22</title>
<g id="a_edge21_Node000001_Node000022"><a xlink:title=" ">
<path fill="none" stroke="#63b8ff" d="M2716.18,-76.97C2815.74,-68.98 2991.19,-53.34 3140.5,-32 3147.74,-30.97 3155.32,-29.75 3162.81,-28.46"/>
<polygon fill="#63b8ff" stroke="#63b8ff" points="3163.34,-31.92 3172.57,-26.72 3162.12,-25.02 3163.34,-31.92"/>
</a>
</g>
</g>
<!-- Node23 -->
<g id="Node000023" class="node">
<title>Node23</title>
<g id="a_Node000023"><a xlink:title=" ">
<polygon fill="#e0e0e0" stroke="#999999" points="3439.75,-26 3311.25,-26 3311.25,-6 3439.75,-6 3439.75,-26"/>
<text text-anchor="middle" x="3375.5" y="-12.5" font-family="Helvetica,sans-Serif" font-size="10.00">javafx.scene.layout.HBox</text>
</a>
</g>
</g>
<!-- Node1&#45;&gt;Node23 -->
<g id="edge22_Node000001_Node000023" class="edge">
<title>Node1&#45;&gt;Node23</title>
<g id="a_edge22_Node000001_Node000023"><a xlink:title=" ">
<path fill="none" stroke="#63b8ff" d="M2716.05,-80.16C2841.3,-74.95 3091.92,-61.58 3302.5,-32 3309.07,-31.08 3315.93,-29.92 3322.71,-28.67"/>
<polygon fill="#63b8ff" stroke="#63b8ff" points="3323.33,-32.11 3332.48,-26.77 3322,-25.24 3323.33,-32.11"/>
</a>
</g>
</g>
<!-- Node24 -->
<g id="Node000024" class="node">
<title>Node24</title>
<g id="a_Node000024"><a xlink:title=" ">
<polygon fill="#e0e0e0" stroke="#999999" points="3579.38,-26 3457.62,-26 3457.62,-6 3579.38,-6 3579.38,-26"/>
<text text-anchor="middle" x="3518.5" y="-12.5" font-family="Helvetica,sans-Serif" font-size="10.00">javafx.scene.paint.Color</text>
</a>
</g>
</g>
<!-- Node1&#45;&gt;Node24 -->
<g id="edge23_Node000001_Node000024" class="edge">
<title>Node1&#45;&gt;Node24</title>
<g id="a_edge23_Node000001_Node000024"><a xlink:title=" ">
<path fill="none" stroke="#63b8ff" d="M2716.13,-81.91C2862.03,-79.05 3181.76,-68.75 3448.5,-32 3454.97,-31.11 3461.73,-29.95 3468.39,-28.68"/>
<polygon fill="#63b8ff" stroke="#63b8ff" points="3468.85,-32.15 3477.95,-26.74 3467.46,-25.29 3468.85,-32.15"/>
</a>
</g>
</g>
<!-- Node25 -->
<g id="Node000025" class="node">
<title>Node25</title>
<g id="a_Node000025"><a xlink:title=" ">
<polygon fill="#e0e0e0" stroke="#999999" points="3745.5,-26 3597.5,-26 3597.5,-6 3745.5,-6 3745.5,-26"/>
<text text-anchor="middle" x="3671.5" y="-12.5" font-family="Helvetica,sans-Serif" font-size="10.00">javafx.scene.shape.Rectangle</text>
</a>
</g>
</g>
<!-- Node1&#45;&gt;Node25 -->
<g id="edge24_Node000001_Node000025" class="edge">
<title>Node1&#45;&gt;Node25</title>
<g id="a_edge24_Node000001_Node000025"><a xlink:title=" ">
<path fill="none" stroke="#63b8ff" d="M2716.08,-82.1C2879.91,-79.51 3266.48,-69.57 3588.5,-32 3596.79,-31.03 3605.51,-29.75 3614.05,-28.35"/>
<polygon fill="#63b8ff" stroke="#63b8ff" points="3614.37,-31.84 3623.63,-26.7 3613.18,-24.94 3614.37,-31.84"/>
</a>
</g>
</g>
<!-- Node26 -->
<g id="Node000026" class="node">
<title>Node26</title>
<g id="a_Node000026"><a xlink:title=" ">
<polygon fill="#e0e0e0" stroke="#999999" points="3875.88,-26 3763.12,-26 3763.12,-6 3875.88,-6 3875.88,-26"/>
<text text-anchor="middle" x="3819.5" y="-12.5" font-family="Helvetica,sans-Serif" font-size="10.00">javafx.scene.text.Text</text>
</a>
</g>
</g>
<!-- Node1&#45;&gt;Node26 -->
<g id="edge25_Node000001_Node000026" class="edge">
<title>Node1&#45;&gt;Node26</title>
<g id="a_edge25_Node000001_Node000026"><a xlink:title=" ">
<path fill="none" stroke="#63b8ff" d="M2716.17,-81.24C2936.94,-76.08 3553.58,-59.53 3754.5,-32 3760.52,-31.17 3766.81,-30.06 3773,-28.8"/>
<polygon fill="#63b8ff" stroke="#63b8ff" points="3773.44,-32.29 3782.48,-26.75 3771.96,-25.45 3773.44,-32.29"/>
</a>
</g>
</g>
<!-- Node27 -->
<g id="Node000027" class="node">
<title>Node27</title>
<g id="a_Node000027"><a xlink:title=" ">
<polygon fill="#e0e0e0" stroke="#999999" points="3997,-26 3894,-26 3894,-6 3997,-6 3997,-26"/>
<text text-anchor="middle" x="3945.5" y="-12.5" font-family="Helvetica,sans-Serif" font-size="10.00">javafx.stage.Screen</text>
</a>
</g>
</g>
<!-- Node1&#45;&gt;Node27 -->
<g id="edge26_Node000001_Node000027" class="edge">
<title>Node1&#45;&gt;Node27</title>
<g id="a_edge26_Node000001_Node000027"><a xlink:title=" ">
<path fill="none" stroke="#63b8ff" d="M2715.94,-81.83C2953.73,-78.01 3657.46,-64.22 3884.5,-32 3889.89,-31.24 3895.49,-30.2 3901.02,-29.03"/>
<polygon fill="#63b8ff" stroke="#63b8ff" points="3901.73,-32.45 3910.7,-26.81 3900.17,-25.63 3901.73,-32.45"/>
</a>
</g>
</g>
<!-- Node28 -->
<g id="Node000028" class="node">
<title>Node28</title>
<g id="a_Node000028"><a xlink:title=" ">
<polygon fill="#e0e0e0" stroke="#999999" points="4112.38,-26 4014.62,-26 4014.62,-6 4112.38,-6 4112.38,-26"/>
<text text-anchor="middle" x="4063.5" y="-12.5" font-family="Helvetica,sans-Serif" font-size="10.00">javafx.stage.Stage</text>
</a>
</g>
</g>
<!-- Node1&#45;&gt;Node28 -->
<g id="edge27_Node000001_Node000028" class="edge">
<title>Node1&#45;&gt;Node28</title>
<g id="a_edge27_Node000001_Node000028"><a xlink:title=" ">
<path fill="none" stroke="#63b8ff" d="M2716.01,-82.34C2969.26,-79.86 3755.03,-69.3 4006.5,-32 4011.47,-31.26 4016.64,-30.25 4021.74,-29.11"/>
<polygon fill="#63b8ff" stroke="#63b8ff" points="4022.34,-32.56 4031.23,-26.79 4020.68,-25.76 4022.34,-32.56"/>
</a>
</g>
</g>
<!-- Node29 -->
<g id="Node000029" class="node">
<title>Node29</title>
<g id="a_Node000029"><a xlink:title=" ">
<polygon fill="#e0e0e0" stroke="#999999" points="4250.62,-26 4130.38,-26 4130.38,-6 4250.62,-6 4250.62,-26"/>
<text text-anchor="middle" x="4190.5" y="-12.5" font-family="Helvetica,sans-Serif" font-size="10.00">javafx.stage.StageStyle</text>
</a>
</g>
</g>
<!-- Node1&#45;&gt;Node29 -->
<g id="edge28_Node000001_Node000029" class="edge">
<title>Node1&#45;&gt;Node29</title>
<g id="a_edge28_Node000001_Node000029"><a xlink:title=" ">
<path fill="none" stroke="#63b8ff" d="M2716,-82.15C2982.93,-79.02 3845.84,-66.41 4121.5,-32 4128.05,-31.18 4134.89,-30.05 4141.61,-28.76"/>
<polygon fill="#63b8ff" stroke="#63b8ff" points="4142.17,-32.22 4151.27,-26.79 4140.77,-25.36 4142.17,-32.22"/>
</a>
</g>
</g>
<!-- Node30 -->
<g id="Node000030" class="node">
<title>Node30</title>
<g id="a_Node000030"><a xlink:title=" ">
<polygon fill="#e0e0e0" stroke="#999999" points="4366.38,-26 4268.62,-26 4268.62,-6 4366.38,-6 4366.38,-26"/>
<text text-anchor="middle" x="4317.5" y="-12.5" font-family="Helvetica,sans-Serif" font-size="10.00">javafx.util.Duration</text>
</a>
</g>
</g>
<!-- Node1&#45;&gt;Node30 -->
<g id="edge29_Node000001_Node000030" class="edge">
<title>Node1&#45;&gt;Node30</title>
<g id="a_edge29_Node000001_Node000030"><a xlink:title=" ">
<path fill="none" stroke="#63b8ff" d="M2715.97,-82.83C2998.88,-81.87 3956.37,-75.41 4259.5,-32 4264.56,-31.28 4269.81,-30.28 4275,-29.13"/>
<polygon fill="#63b8ff" stroke="#63b8ff" points="4275.77,-32.55 4284.68,-26.81 4274.14,-25.74 4275.77,-32.55"/>
</a>
</g>
</g>
<!-- Node31 -->
<g id="Node000031" class="node">
<title>Node31</title>
<g id="a_Node000031"><a xlink:title=" ">
<polygon fill="#e0e0e0" stroke="#999999" points="4505,-26 4384,-26 4384,-6 4505,-6 4505,-26"/>
<text text-anchor="middle" x="4444.5" y="-12.5" font-family="Helvetica,sans-Serif" font-size="10.00">lombok.extern.slf4j.Slf4j</text>
</a>
</g>
</g>
<!-- Node1&#45;&gt;Node31 -->
<g id="edge30_Node000001_Node000031" class="edge">
<title>Node1&#45;&gt;Node31</title>
<g id="a_edge30_Node000001_Node000031"><a xlink:title=" ">
<path fill="none" stroke="#63b8ff" d="M2716.17,-82.62C3012.11,-80.89 4047.87,-72.07 4375.5,-32 4382.13,-31.19 4389.06,-30.05 4395.86,-28.75"/>
<polygon fill="#63b8ff" stroke="#63b8ff" points="4396.54,-32.18 4405.63,-26.75 4395.13,-25.32 4396.54,-32.18"/>
</a>
</g>
</g>
<!-- Node32 -->
<g id="Node000032" class="node">
<title>Node32</title>
<g id="a_Node000032"><a xlink:title=" ">
<polygon fill="#e0e0e0" stroke="#999999" points="4740,-32 4523,-32 4523,0 4740,0 4740,-32"/>
<text text-anchor="start" x="4531" y="-18.5" font-family="Helvetica,sans-Serif" font-size="10.00">org.springframework.beans.factory.annotation.</text>
<text text-anchor="middle" x="4631.5" y="-6.5" font-family="Helvetica,sans-Serif" font-size="10.00">Autowired</text>
</a>
</g>
</g>
<!-- Node1&#45;&gt;Node32 -->
<g id="edge31_Node000001_Node000032" class="edge">
<title>Node1&#45;&gt;Node32</title>
<g id="a_edge31_Node000001_Node000032"><a xlink:title=" ">
<path fill="none" stroke="#63b8ff" d="M2716.25,-81.9C3023.83,-77.5 4134.26,-60.07 4511.34,-32.18"/>
<polygon fill="#63b8ff" stroke="#63b8ff" points="4511.33,-35.69 4521.04,-31.45 4510.8,-28.71 4511.33,-35.69"/>
</a>
</g>
</g>
<!-- Node33 -->
<g id="Node000033" class="node">
<title>Node33</title>
<g id="a_Node000033"><a xlink:title=" ">
<polygon fill="#e0e0e0" stroke="#999999" points="4885,-26 4758,-26 4758,-6 4885,-6 4885,-26"/>
<text text-anchor="middle" x="4821.5" y="-12.5" font-family="Helvetica,sans-Serif" font-size="10.00">java.text.MessageFormat</text>
</a>
</g>
</g>
<!-- Node1&#45;&gt;Node33 -->
<g id="edge32_Node000001_Node000033" class="edge">
<title>Node1&#45;&gt;Node33</title>
<g id="a_edge32_Node000001_Node000033"><a xlink:title=" ">
<path fill="none" stroke="#63b8ff" d="M2716.15,-83.01C3050.83,-82.75 4344.53,-78.68 4749.5,-32 4756.58,-31.18 4763.99,-30.01 4771.25,-28.68"/>
<polygon fill="#63b8ff" stroke="#63b8ff" points="4771.85,-32.13 4780.99,-26.77 4770.5,-25.26 4771.85,-32.13"/>
</a>
</g>
</g>
<!-- Node34 -->
<g id="Node000034" class="node">
<title>Node34</title>
<g id="a_Node000034"><a xlink:title=" ">
<polygon fill="#e0e0e0" stroke="#999999" points="4971.75,-26 4903.25,-26 4903.25,-6 4971.75,-6 4971.75,-26"/>
<text text-anchor="middle" x="4937.5" y="-12.5" font-family="Helvetica,sans-Serif" font-size="10.00">java.util.List</text>
</a>
</g>
</g>
<!-- Node1&#45;&gt;Node34 -->
<g id="edge33_Node000001_Node000034" class="edge">
<title>Node1&#45;&gt;Node34</title>
<g id="a_edge33_Node000001_Node000034"><a xlink:title=" ">
<path fill="none" stroke="#63b8ff" d="M2716.07,-82.68C3091.54,-80.95 4677.04,-71.37 4894.5,-32 4897.53,-31.45 4900.64,-30.72 4903.72,-29.88"/>
<polygon fill="#63b8ff" stroke="#63b8ff" points="4904.71,-33.24 4913.2,-26.91 4902.62,-26.56 4904.71,-33.24"/>
</a>
</g>
</g>
<!-- Node35 -->
<g id="Node000035" class="node">
<title>Node35</title>
<g id="a_Node000035"><a xlink:title=" ">
<polygon fill="#e0e0e0" stroke="#999999" points="5076.75,-26 4990.25,-26 4990.25,-6 5076.75,-6 5076.75,-26"/>
<text text-anchor="middle" x="5033.5" y="-12.5" font-family="Helvetica,sans-Serif" font-size="10.00">java.util.Objects</text>
</a>
</g>
</g>
<!-- Node1&#45;&gt;Node35 -->
<g id="edge34_Node000001_Node000035" class="edge">
<title>Node1&#45;&gt;Node35</title>
<g id="a_edge34_Node000001_Node000035"><a xlink:title=" ">
<path fill="none" stroke="#63b8ff" d="M2716.16,-82.47C3100.38,-79.74 4753.06,-66.09 4980.5,-32 4984.95,-31.33 4989.55,-30.41 4994.1,-29.33"/>
<polygon fill="#63b8ff" stroke="#63b8ff" points="4994.93,-32.74 5003.72,-26.83 4993.16,-25.96 4994.93,-32.74"/>
</a>
</g>
</g>
</g>
</svg>

<g id="navigator" transform="translate(0 0)" fill="#404254">
  <rect fill="#f2f5e9" fill-opacity="0.5" stroke="#606060" stroke-width=".5" x="0" y="0" width="60" height="60"/>
  <use id="zoomplus" xlink:href="#zoomPlus" x="17" y="9" onmousedown="handleZoom(evt,'in')"/>
  <use id="zoomminus" xlink:href="#zoomMin" x="42" y="9" onmousedown="handleZoom(evt,'out')"/>
  <use id="reset" xlink:href="#resetDef" x="30" y="36" onmousedown="handleReset()"/>
   <use id="arrowup" xlink:href="#arrowUp" x="0" y="0" onmousedown="handlePan(0,-1)"/>
  <use id="arrowright" xlink:href="#arrowRight" x="0" y="0" onmousedown="handlePan(1,0)"/>
  <use id="arrowdown" xlink:href="#arrowDown" x="0" y="0" onmousedown="handlePan(0,1)"/>
  <use id="arrowleft" xlink:href="#arrowLeft" x="0" y="0" onmousedown="handlePan(-1,0)"/>
</g>
<svg viewBox="0 0 15 15" width="100%" height="30px" preserveAspectRatio="xMaxYMin meet">
 <g id="arrow_out" transform="scale(0.3 0.3)">
  <a xlink:href="_default_view_8java__incl_org.svg" target="_base">
   <rect id="button" ry="5" rx="5" y="6" x="6" height="38" width="38"
        fill="#f2f5e9" fill-opacity="0.5" stroke="#606060" stroke-width="1.0"/>
   <path id="arrow"
     d="M 11.500037,31.436501 C 11.940474,20.09759 22.043105,11.32322 32.158766,21.979434 L 37.068811,17.246167 C 37.068811,17.246167 37.088388,32 37.088388,32 L 22.160133,31.978069 C 22.160133,31.978069 26.997745,27.140456 26.997745,27.140456 C 18.528582,18.264221 13.291696,25.230495 11.500037,31.436501 z"
     style="fill:#404040;"/>
  </a>
 </g>
</svg>

<style type='text/css'>
<![CDATA[
[data-mouse-over-selected='false'] { opacity: 0.7; }
[data-mouse-over-selected='true']  { opacity: 1.0; }
]]>
</style>
<script type="application/ecmascript"><![CDATA[
document.addEventListener('DOMContentLoaded', (event) => {
  highlightEdges();
  highlightAdjacentNodes();
});
]]></script>
</svg>
