<?xml version="1.0" encoding="UTF-8" standalone="no"?>
<!DOCTYPE svg PUBLIC "-//W3C//DTD SVG 1.1//EN"
 "http://www.w3.org/Graphics/SVG/1.1/DTD/svg11.dtd">
<!-- Generated by graphviz version 12.2.1 (20241206.2353)
 -->
<!-- Title: src/main/java/fr/softsf/sudokufx/view/DefaultView.java Pages: 1 -->
<!--zoomable 108 -->

<svg id="main" version="1.1" xmlns="http://www.w3.org/2000/svg" xmlns:xlink="http://www.w3.org/1999/xlink" xml:space="preserve" onload="init(evt)">

<style type="text/css"><![CDATA[
.node, .edge {opacity: 0.7;}
.node.selected, .edge.selected {opacity: 1;}
.edge:hover path { stroke: red; }
.edge:hover polygon { stroke: red; fill: red; }
]]></style>

<defs>
  <circle id="rim" cx="0" cy="0" r="7"/>
  <circle id="rim2" cx="0" cy="0" r="3.5"/>
  <g id="zoomPlus">
    <use xlink:href="#rim" fill="#404040"><set attributeName="fill" to="#808080" begin="zoomplus.mouseover" end="zoomplus.mouseout"/></use>
    <path d="M-4,0h8M0,-4v8" fill="none" stroke="white" stroke-width="1.5" pointer-events="none"/>
  </g>
  <g id="zoomMin">
    <use xlink:href="#rim" fill="#404040"><set attributeName="fill" to="#808080" begin="zoomminus.mouseover" end="zoomminus.mouseout"/></use>
    <path d="M-4,0h8" fill="none" stroke="white" stroke-width="1.5" pointer-events="none"/>
  </g>
  <g id="arrowUp" transform="translate(30 24)">
    <use xlink:href="#rim"/>
    <path pointer-events="none" fill="none" stroke="white" stroke-width="1.5" d="M0,-3.0v7 M-2.5,-0.5L0,-3.0L2.5,-0.5"/>
  </g>
  <g id="arrowRight" transform="rotate(90) translate(36 -43)">
    <use xlink:href="#rim"/>
    <path pointer-events="none" fill="none" stroke="white" stroke-width="1.5" d="M0,-3.0v7 M-2.5,-0.5L0,-3.0L2.5,-0.5"/>
  </g>
  <g id="arrowDown" transform="rotate(180) translate(-30 -48)">
    <use xlink:href="#rim"/>
    <path pointer-events="none" fill="none" stroke="white" stroke-width="1.5" d="M0,-3.0v7 M-2.5,-0.5L0,-3.0L2.5,-0.5"/>
  </g>
  <g id="arrowLeft" transform="rotate(270) translate(-36 17)">
    <use xlink:href="#rim"/>
    <path pointer-events="none" fill="none" stroke="white" stroke-width="1.5" d="M0,-3.0v7 M-2.5,-0.5L0,-3.0L2.5,-0.5"/>
  </g>
  <g id="resetDef">
    <use xlink:href="#rim2" fill="#404040"><set attributeName="fill" to="#808080" begin="reset.mouseover" end="reset.mouseout"/></use>
  </g>
</defs>
<script type="application/ecmascript">
var viewWidth = 6725;
var viewHeight = 108;
var sectionId = 'dynsection-0';
</script>
<script type="application/ecmascript" xlink:href="svg.min.js"/>
<svg id="graph" class="graph">
<g id="viewport">
<title>src/main/java/fr/softsf/sudokufx/view/DefaultView.java</title>
<!-- Node1 -->
<g id="Node000001" class="node">
<title>Node1</title>
<g id="a_Node000001"><a xlink:title=" ">
<polygon fill="#999999" stroke="#666666" points="3805.75,-100 3647.25,-100 3647.25,-68 3805.75,-68 3805.75,-100"/>
<text text-anchor="start" x="3655.25" y="-86.5" font-family="Helvetica,sans-Serif" font-size="10.00">src/main/java/fr/softsf</text>
<text text-anchor="middle" x="3726.5" y="-74.5" font-family="Helvetica,sans-Serif" font-size="10.00">/sudokufx/view/DefaultView.java</text>
</a>
</g>
</g>
<!-- Node2 -->
<g id="Node000002" class="node">
<title>Node2</title>
<g id="a_Node000002"><a xlink:title=" ">
<polygon fill="#e0e0e0" stroke="#999999" points="139,-26 0,-26 0,-6 139,-6 139,-26"/>
<text text-anchor="middle" x="69.5" y="-12.5" font-family="Helvetica,sans-Serif" font-size="10.00">fr.softsf.sudokufx.SudoMain</text>
</a>
</g>
</g>
<!-- Node1&#45;&gt;Node2 -->
<g id="edge1_Node000001_Node000002" class="edge">
<title>Node1&#45;&gt;Node2</title>
<g id="a_edge1_Node000001_Node000002"><a xlink:title=" ">
<path fill="none" stroke="#63b8ff" d="M3647.11,-82.7C3152.86,-80.69 506.89,-68.3 148.5,-32 140.29,-31.17 131.66,-29.92 123.23,-28.49"/>
<polygon fill="#63b8ff" stroke="#63b8ff" points="123.89,-25.06 113.43,-26.73 122.65,-31.94 123.89,-25.06"/>
</a>
</g>
</g>
<!-- Node3 -->
<g id="Node000003" class="node">
<title>Node3</title>
<g id="a_Node000003"><a xlink:title=" ">
<polygon fill="#e0e0e0" stroke="#999999" points="311.5,-32 157.5,-32 157.5,0 311.5,0 311.5,-32"/>
<text text-anchor="start" x="165.5" y="-18.5" font-family="Helvetica,sans-Serif" font-size="10.00">fr.softsf.sudokufx.configuration.</text>
<text text-anchor="middle" x="234.5" y="-6.5" font-family="Helvetica,sans-Serif" font-size="10.00">JVMApplicationProperties</text>
</a>
</g>
</g>
<!-- Node1&#45;&gt;Node3 -->
<g id="edge2_Node000001_Node000003" class="edge">
<title>Node1&#45;&gt;Node3</title>
<g id="a_edge2_Node000001_Node000003"><a xlink:title=" ">
<path fill="none" stroke="#63b8ff" d="M3647.08,-82.56C3171.85,-79.85 712.16,-64.36 323.2,-32.08"/>
<polygon fill="#63b8ff" stroke="#63b8ff" points="323.55,-28.6 313.29,-31.2 322.94,-35.57 323.55,-28.6"/>
</a>
</g>
</g>
<!-- Node4 -->
<g id="Node000004" class="node">
<title>Node4</title>
<g id="a_Node000004"><a xlink:title=" ">
<polygon fill="#e0e0e0" stroke="#999999" points="497.25,-32 329.75,-32 329.75,0 497.25,0 497.25,-32"/>
<text text-anchor="start" x="337.75" y="-18.5" font-family="Helvetica,sans-Serif" font-size="10.00">fr.softsf.sudokufx.configuration.os.</text>
<text text-anchor="middle" x="413.5" y="-6.5" font-family="Helvetica,sans-Serif" font-size="10.00">IOsFolderFactory</text>
</a>
</g>
</g>
<!-- Node1&#45;&gt;Node4 -->
<g id="edge3_Node000001_Node000004" class="edge">
<title>Node1&#45;&gt;Node4</title>
<g id="a_edge3_Node000001_Node000004"><a xlink:title=" ">
<path fill="none" stroke="#63b8ff" d="M3646.82,-83.3C3216.65,-84.66 1166.88,-88.1 508.6,-32.07"/>
<polygon fill="#63b8ff" stroke="#63b8ff" points="509.35,-28.63 499.09,-31.25 508.75,-35.6 509.35,-28.63"/>
</a>
</g>
</g>
<!-- Node5 -->
<g id="Node000005" class="node">
<title>Node5</title>
<g id="a_Node000005"><a xlink:title=" ">
<polygon fill="#e0e0e0" stroke="#999999" points="647.25,-26 515.75,-26 515.75,-6 647.25,-6 647.25,-26"/>
<text text-anchor="middle" x="581.5" y="-12.5" font-family="Helvetica,sans-Serif" font-size="10.00">fr.softsf.sudokufx.enums.*</text>
</a>
</g>
</g>
<!-- Node1&#45;&gt;Node5 -->
<g id="edge4_Node000001_Node000005" class="edge">
<title>Node1&#45;&gt;Node5</title>
<g id="a_edge4_Node000001_Node000005"><a xlink:title=" ">
<path fill="none" stroke="#63b8ff" d="M3646.97,-82.55C3195.08,-79.89 960.23,-65.13 655.5,-32 647.97,-31.18 640.07,-29.97 632.35,-28.58"/>
<polygon fill="#63b8ff" stroke="#63b8ff" points="633.2,-25.18 622.72,-26.73 631.88,-32.05 633.2,-25.18"/>
</a>
</g>
</g>
<!-- Node6 -->
<g id="Node000006" class="node">
<title>Node6</title>
<g id="a_Node000006"><a xlink:title=" ">
<polygon fill="#e0e0e0" stroke="#999999" points="806.12,-32 664.88,-32 664.88,0 806.12,0 806.12,-32"/>
<text text-anchor="start" x="672.88" y="-18.5" font-family="Helvetica,sans-Serif" font-size="10.00">fr.softsf.sudokufx.interfaces.</text>
<text text-anchor="middle" x="735.5" y="-6.5" font-family="Helvetica,sans-Serif" font-size="10.00">IMainView</text>
</a>
</g>
</g>
<!-- Node1&#45;&gt;Node6 -->
<g id="edge5_Node000001_Node000006" class="edge">
<title>Node1&#45;&gt;Node6</title>
<g id="a_edge5_Node000001_Node000006"><a xlink:title=" ">
<path fill="none" stroke="#63b8ff" d="M3646.84,-82.42C3213.96,-79.13 1151.82,-62.07 817.63,-32.14"/>
<polygon fill="#63b8ff" stroke="#63b8ff" points="818.27,-28.68 807.98,-31.21 817.6,-35.65 818.27,-28.68"/>
</a>
</g>
</g>
<!-- Node7 -->
<g id="Node000007" class="node">
<title>Node7</title>
<g id="a_Node000007"><a xlink:title=" ">
<polygon fill="#e0e0e0" stroke="#999999" points="965.12,-32 823.88,-32 823.88,0 965.12,0 965.12,-32"/>
<text text-anchor="start" x="831.88" y="-18.5" font-family="Helvetica,sans-Serif" font-size="10.00">fr.softsf.sudokufx.interfaces.</text>
<text text-anchor="middle" x="894.5" y="-6.5" font-family="Helvetica,sans-Serif" font-size="10.00">ISceneProvider</text>
</a>
</g>
</g>
<!-- Node1&#45;&gt;Node7 -->
<g id="edge6_Node000001_Node000007" class="edge">
<title>Node1&#45;&gt;Node7</title>
<g id="a_edge6_Node000001_Node000007"><a xlink:title=" ">
<path fill="none" stroke="#63b8ff" d="M3647.03,-83.34C3256.33,-84.75 1535.89,-87.68 976.85,-32.22"/>
<polygon fill="#63b8ff" stroke="#63b8ff" points="977.28,-28.74 966.98,-31.22 976.58,-35.71 977.28,-28.74"/>
</a>
</g>
</g>
<!-- Node8 -->
<g id="Node000008" class="node">
<title>Node8</title>
<g id="a_Node000008"><a xlink:title=" ">
<polygon fill="#e0e0e0" stroke="#999999" points="1124.12,-32 982.88,-32 982.88,0 1124.12,0 1124.12,-32"/>
<text text-anchor="start" x="990.88" y="-18.5" font-family="Helvetica,sans-Serif" font-size="10.00">fr.softsf.sudokufx.interfaces.</text>
<text text-anchor="middle" x="1053.5" y="-6.5" font-family="Helvetica,sans-Serif" font-size="10.00">ISplashScreenView</text>
</a>
</g>
</g>
<!-- Node1&#45;&gt;Node8 -->
<g id="edge7_Node000001_Node000008" class="edge">
<title>Node1&#45;&gt;Node8</title>
<g id="a_edge7_Node000001_Node000008"><a xlink:title=" ">
<path fill="none" stroke="#63b8ff" d="M3646.99,-83.21C3270.27,-83.94 1661.79,-83.98 1135.6,-32.06"/>
<polygon fill="#63b8ff" stroke="#63b8ff" points="1136.32,-28.62 1126.02,-31.1 1135.62,-35.58 1136.32,-28.62"/>
</a>
</g>
</g>
<!-- Node9 -->
<g id="Node000009" class="node">
<title>Node9</title>
<g id="a_Node000009"><a xlink:title=" ">
<polygon fill="#e0e0e0" stroke="#999999" points="1316.62,-32 1142.38,-32 1142.38,0 1316.62,0 1316.62,-32"/>
<text text-anchor="start" x="1150.38" y="-18.5" font-family="Helvetica,sans-Serif" font-size="10.00">fr.softsf.sudokufx.view.components.</text>
<text text-anchor="middle" x="1229.5" y="-6.5" font-family="Helvetica,sans-Serif" font-size="10.00">MyAlert</text>
</a>
</g>
</g>
<!-- Node1&#45;&gt;Node9 -->
<g id="edge8_Node000001_Node000009" class="edge">
<title>Node1&#45;&gt;Node9</title>
<g id="a_edge8_Node000001_Node000009"><a xlink:title=" ">
<path fill="none" stroke="#63b8ff" d="M3646.96,-82.74C3287.87,-81.36 1814.7,-73.29 1328.38,-32.16"/>
<polygon fill="#63b8ff" stroke="#63b8ff" points="1328.85,-28.68 1318.58,-31.31 1328.24,-35.66 1328.85,-28.68"/>
</a>
</g>
</g>
<!-- Node10 -->
<g id="Node000010" class="node">
<title>Node10</title>
<g id="a_Node000010"><a xlink:title=" ">
<polygon fill="#e0e0e0" stroke="#999999" points="1508.62,-32 1334.38,-32 1334.38,0 1508.62,0 1508.62,-32"/>
<text text-anchor="start" x="1342.38" y="-18.5" font-family="Helvetica,sans-Serif" font-size="10.00">fr.softsf.sudokufx.view.components.</text>
<text text-anchor="middle" x="1421.5" y="-6.5" font-family="Helvetica,sans-Serif" font-size="10.00">PossibilityStarsHBox</text>
</a>
</g>
</g>
<!-- Node1&#45;&gt;Node10 -->
<g id="edge9_Node000001_Node000010" class="edge">
<title>Node1&#45;&gt;Node10</title>
<g id="a_edge9_Node000001_Node000010"><a xlink:title=" ">
<path fill="none" stroke="#63b8ff" d="M3646.79,-82.57C3305.71,-80.52 1966.57,-70.2 1520.41,-32.16"/>
<polygon fill="#63b8ff" stroke="#63b8ff" points="1520.85,-28.69 1510.58,-31.3 1520.24,-35.66 1520.85,-28.69"/>
</a>
</g>
</g>
<!-- Node11 -->
<g id="Node000011" class="node">
<title>Node11</title>
<g id="a_Node000011"><a xlink:title=" ">
<polygon fill="#e0e0e0" stroke="#999999" points="1700.62,-32 1526.38,-32 1526.38,0 1700.62,0 1700.62,-32"/>
<text text-anchor="start" x="1534.38" y="-18.5" font-family="Helvetica,sans-Serif" font-size="10.00">fr.softsf.sudokufx.view.components.</text>
<text text-anchor="middle" x="1613.5" y="-6.5" font-family="Helvetica,sans-Serif" font-size="10.00">SpinnerGridPane</text>
</a>
</g>
</g>
<!-- Node1&#45;&gt;Node11 -->
<g id="edge10_Node000001_Node000011" class="edge">
<title>Node1&#45;&gt;Node11</title>
<g id="a_edge10_Node000001_Node000011"><a xlink:title=" ">
<path fill="none" stroke="#63b8ff" d="M3646.98,-82.37C3325.25,-79.6 2118.33,-67.14 1712.27,-32.15"/>
<polygon fill="#63b8ff" stroke="#63b8ff" points="1712.85,-28.69 1702.58,-31.3 1712.24,-35.66 1712.85,-28.69"/>
</a>
</g>
</g>
<!-- Node12 -->
<g id="Node000012" class="node">
<title>Node12</title>
<g id="a_Node000012"><a xlink:title=" ">
<polygon fill="#e0e0e0" stroke="#999999" points="1908.5,-32 1718.5,-32 1718.5,0 1908.5,0 1908.5,-32"/>
<text text-anchor="start" x="1726.5" y="-18.5" font-family="Helvetica,sans-Serif" font-size="10.00">fr.softsf.sudokufx.view.components.list.</text>
<text text-anchor="middle" x="1813.5" y="-6.5" font-family="Helvetica,sans-Serif" font-size="10.00">ItemListCell</text>
</a>
</g>
</g>
<!-- Node1&#45;&gt;Node12 -->
<g id="edge11_Node000001_Node000012" class="edge">
<title>Node1&#45;&gt;Node12</title>
<g id="a_edge11_Node000001_Node000012"><a xlink:title=" ">
<path fill="none" stroke="#63b8ff" d="M3646.84,-81.98C3346.73,-77.93 2283.41,-61.84 1920.26,-32.15"/>
<polygon fill="#63b8ff" stroke="#63b8ff" points="1920.71,-28.68 1910.45,-31.33 1920.12,-35.65 1920.71,-28.68"/>
</a>
</g>
</g>
<!-- Node13 -->
<g id="Node000013" class="node">
<title>Node13</title>
<g id="a_Node000013"><a xlink:title=" ">
<polygon fill="#e0e0e0" stroke="#999999" points="2134.12,-32 1926.88,-32 1926.88,0 2134.12,0 2134.12,-32"/>
<text text-anchor="start" x="1934.88" y="-18.5" font-family="Helvetica,sans-Serif" font-size="10.00">fr.softsf.sudokufx.view.components.toaster.</text>
<text text-anchor="middle" x="2030.5" y="-6.5" font-family="Helvetica,sans-Serif" font-size="10.00">ToasterVBox</text>
</a>
</g>
</g>
<!-- Node1&#45;&gt;Node13 -->
<g id="edge12_Node000001_Node000013" class="edge">
<title>Node1&#45;&gt;Node13</title>
<g id="a_edge12_Node000001_Node000013"><a xlink:title=" ">
<path fill="none" stroke="#63b8ff" d="M3646.81,-83.27C3415.98,-83.46 2726.81,-79.73 2145.62,-32.21"/>
<polygon fill="#63b8ff" stroke="#63b8ff" points="2146.26,-28.75 2136,-31.41 2145.68,-35.72 2146.26,-28.75"/>
</a>
</g>
</g>
<!-- Node14 -->
<g id="Node000014" class="node">
<title>Node14</title>
<g id="a_Node000014"><a xlink:title=" ">
<polygon fill="#e0e0e0" stroke="#999999" points="2319.25,-32 2151.75,-32 2151.75,0 2319.25,0 2319.25,-32"/>
<text text-anchor="start" x="2159.75" y="-18.5" font-family="Helvetica,sans-Serif" font-size="10.00">fr.softsf.sudokufx.viewmodel.</text>
<text text-anchor="middle" x="2235.5" y="-6.5" font-family="Helvetica,sans-Serif" font-size="10.00">ActiveMenuOrSubmenuViewModel</text>
</a>
</g>
</g>
<!-- Node1&#45;&gt;Node14 -->
<g id="edge13_Node000001_Node000014" class="edge">
<title>Node1&#45;&gt;Node14</title>
<g id="a_edge13_Node000001_Node000014"><a xlink:title=" ">
<path fill="none" stroke="#63b8ff" d="M3647.06,-83.53C3434.91,-84.2 2837.36,-81.3 2330.79,-32.14"/>
<polygon fill="#63b8ff" stroke="#63b8ff" points="2331.39,-28.68 2321.1,-31.19 2330.71,-35.64 2331.39,-28.68"/>
</a>
</g>
</g>
<!-- Node15 -->
<g id="Node000015" class="node">
<title>Node15</title>
<g id="a_Node000015"><a xlink:title=" ">
<polygon fill="#e0e0e0" stroke="#999999" points="2431.5,-26 2337.5,-26 2337.5,-6 2431.5,-6 2431.5,-26"/>
<text text-anchor="middle" x="2384.5" y="-12.5" font-family="Helvetica,sans-Serif" font-size="10.00">javafx.animation.*</text>
</a>
</g>
</g>
<!-- Node1&#45;&gt;Node15 -->
<g id="edge14_Node000001_Node000015" class="edge">
<title>Node1&#45;&gt;Node15</title>
<g id="a_edge14_Node000001_Node000015"><a xlink:title=" ">
<path fill="none" stroke="#63b8ff" d="M3646.77,-82.15C3403.78,-79.21 2674.8,-67.57 2440.5,-32 2435.8,-31.29 2430.92,-30.32 2426.1,-29.23"/>
<polygon fill="#63b8ff" stroke="#63b8ff" points="2427.07,-25.86 2416.52,-26.86 2425.38,-32.66 2427.07,-25.86"/>
</a>
</g>
</g>
<!-- Node16 -->
<g id="Node000016" class="node">
<title>Node16</title>
<g id="a_Node000016"><a xlink:title=" ">
<polygon fill="#e0e0e0" stroke="#999999" points="2581.25,-26 2449.75,-26 2449.75,-6 2581.25,-6 2581.25,-26"/>
<text text-anchor="middle" x="2515.5" y="-12.5" font-family="Helvetica,sans-Serif" font-size="10.00">javafx.application.Platform</text>
</a>
</g>
</g>
<!-- Node1&#45;&gt;Node16 -->
<g id="edge15_Node000001_Node000016" class="edge">
<title>Node1&#45;&gt;Node16</title>
<g id="a_edge15_Node000001_Node000016"><a xlink:title=" ">
<path fill="none" stroke="#63b8ff" d="M3646.96,-83.59C3461.25,-84.05 2984.9,-80.01 2590.5,-32 2583.23,-31.12 2575.62,-29.92 2568.15,-28.58"/>
<polygon fill="#63b8ff" stroke="#63b8ff" points="2568.93,-25.17 2558.46,-26.75 2567.63,-32.05 2568.93,-25.17"/>
</a>
</g>
</g>
<!-- Node17 -->
<g id="Node000017" class="node">
<title>Node17</title>
<g id="a_Node000017"><a xlink:title=" ">
<polygon fill="#e0e0e0" stroke="#999999" points="2745.38,-26 2599.62,-26 2599.62,-6 2745.38,-6 2745.38,-26"/>
<text text-anchor="middle" x="2672.5" y="-12.5" font-family="Helvetica,sans-Serif" font-size="10.00">javafx.beans.binding.Bindings</text>
</a>
</g>
</g>
<!-- Node1&#45;&gt;Node17 -->
<g id="edge16_Node000001_Node000017" class="edge">
<title>Node1&#45;&gt;Node17</title>
<g id="a_edge16_Node000001_Node000017"><a xlink:title=" ">
<path fill="none" stroke="#63b8ff" d="M3647.06,-82.35C3480.71,-80.21 3083.8,-71.07 2753.5,-32 2745.49,-31.05 2737.08,-29.8 2728.84,-28.41"/>
<polygon fill="#63b8ff" stroke="#63b8ff" points="2729.7,-25.01 2719.24,-26.72 2728.48,-31.9 2729.7,-25.01"/>
</a>
</g>
</g>
<!-- Node18 -->
<g id="Node000018" class="node">
<title>Node18</title>
<g id="a_Node000018"><a xlink:title=" ">
<polygon fill="#e0e0e0" stroke="#999999" points="2902,-32 2763,-32 2763,0 2902,0 2902,-32"/>
<text text-anchor="start" x="2771" y="-18.5" font-family="Helvetica,sans-Serif" font-size="10.00">javafx.beans.binding.Double</text>
<text text-anchor="middle" x="2832.5" y="-6.5" font-family="Helvetica,sans-Serif" font-size="10.00">Binding</text>
</a>
</g>
</g>
<!-- Node1&#45;&gt;Node18 -->
<g id="edge17_Node000001_Node000018" class="edge">
<title>Node1&#45;&gt;Node18</title>
<g id="a_edge17_Node000001_Node000018"><a xlink:title=" ">
<path fill="none" stroke="#63b8ff" d="M3646.84,-81.39C3502.47,-77.74 3187.86,-66.4 2913.55,-32.29"/>
<polygon fill="#63b8ff" stroke="#63b8ff" points="2914.03,-28.82 2903.67,-31.04 2913.16,-35.76 2914.03,-28.82"/>
</a>
</g>
</g>
<!-- Node19 -->
<g id="Node000019" class="node">
<title>Node19</title>
<g id="a_Node000019"><a xlink:title=" ">
<polygon fill="#e0e0e0" stroke="#999999" points="3053.38,-32 2919.62,-32 2919.62,0 3053.38,0 3053.38,-32"/>
<text text-anchor="start" x="2927.62" y="-18.5" font-family="Helvetica,sans-Serif" font-size="10.00">javafx.beans.binding.String</text>
<text text-anchor="middle" x="2986.5" y="-6.5" font-family="Helvetica,sans-Serif" font-size="10.00">Binding</text>
</a>
</g>
</g>
<!-- Node1&#45;&gt;Node19 -->
<g id="edge18_Node000001_Node000019" class="edge">
<title>Node1&#45;&gt;Node19</title>
<g id="a_edge18_Node000001_Node000019"><a xlink:title=" ">
<path fill="none" stroke="#63b8ff" d="M3646.97,-79.93C3524.18,-74.52 3280.91,-61.14 3064.81,-32.21"/>
<polygon fill="#63b8ff" stroke="#63b8ff" points="3065.44,-28.76 3055.06,-30.89 3064.5,-35.7 3065.44,-28.76"/>
</a>
</g>
</g>
<!-- Node20 -->
<g id="Node000020" class="node">
<title>Node20</title>
<g id="a_Node000020"><a xlink:title=" ">
<polygon fill="#e0e0e0" stroke="#999999" points="3211.75,-32 3071.25,-32 3071.25,0 3211.75,0 3211.75,-32"/>
<text text-anchor="start" x="3079.25" y="-18.5" font-family="Helvetica,sans-Serif" font-size="10.00">javafx.beans.property.Object</text>
<text text-anchor="middle" x="3141.5" y="-6.5" font-family="Helvetica,sans-Serif" font-size="10.00">Property</text>
</a>
</g>
</g>
<!-- Node1&#45;&gt;Node20 -->
<g id="edge19_Node000001_Node000020" class="edge">
<title>Node1&#45;&gt;Node20</title>
<g id="a_edge19_Node000001_Node000020"><a xlink:title=" ">
<path fill="none" stroke="#63b8ff" d="M3646.92,-77.14C3549.37,-69.47 3378.8,-54.49 3223.26,-32.33"/>
<polygon fill="#63b8ff" stroke="#63b8ff" points="3223.98,-28.89 3213.58,-30.93 3222.98,-35.82 3223.98,-28.89"/>
</a>
</g>
</g>
<!-- Node21 -->
<g id="Node000021" class="node">
<title>Node21</title>
<g id="a_Node000021"><a xlink:title=" ">
<polygon fill="#e0e0e0" stroke="#999999" points="3371.5,-32 3229.5,-32 3229.5,0 3371.5,0 3371.5,-32"/>
<text text-anchor="start" x="3237.5" y="-18.5" font-family="Helvetica,sans-Serif" font-size="10.00">javafx.beans.property.Simple</text>
<text text-anchor="middle" x="3300.5" y="-6.5" font-family="Helvetica,sans-Serif" font-size="10.00">ObjectProperty</text>
</a>
</g>
</g>
<!-- Node1&#45;&gt;Node21 -->
<g id="edge20_Node000001_Node000021" class="edge">
<title>Node1&#45;&gt;Node21</title>
<g id="a_edge20_Node000001_Node000021"><a xlink:title=" ">
<path fill="none" stroke="#63b8ff" d="M3647,-72.18C3579.39,-62.77 3479.43,-48.38 3382.74,-32.34"/>
<polygon fill="#63b8ff" stroke="#63b8ff" points="3383.51,-28.92 3373.07,-30.72 3382.36,-35.82 3383.51,-28.92"/>
</a>
</g>
</g>
<!-- Node22 -->
<g id="Node000022" class="node">
<title>Node22</title>
<g id="a_Node000022"><a xlink:title=" ">
<polygon fill="#e0e0e0" stroke="#999999" points="3505,-26 3390,-26 3390,-6 3505,-6 3505,-26"/>
<text text-anchor="middle" x="3447.5" y="-12.5" font-family="Helvetica,sans-Serif" font-size="10.00">javafx.concurrent.Task</text>
</a>
</g>
</g>
<!-- Node1&#45;&gt;Node22 -->
<g id="edge21_Node000001_Node000022" class="edge">
<title>Node1&#45;&gt;Node22</title>
<g id="a_edge21_Node000001_Node000022"><a xlink:title=" ">
<path fill="none" stroke="#63b8ff" d="M3661.09,-67.53C3611.49,-55.79 3544.3,-39.9 3498.62,-29.09"/>
<polygon fill="#63b8ff" stroke="#63b8ff" points="3499.5,-25.7 3488.96,-26.81 3497.89,-32.52 3499.5,-25.7"/>
</a>
</g>
</g>
<!-- Node23 -->
<g id="Node000023" class="node">
<title>Node23</title>
<g id="a_Node000023"><a xlink:title=" ">
<polygon fill="#e0e0e0" stroke="#999999" points="3645.75,-26 3523.25,-26 3523.25,-6 3645.75,-6 3645.75,-26"/>
<text text-anchor="middle" x="3584.5" y="-12.5" font-family="Helvetica,sans-Serif" font-size="10.00">javafx.css.PseudoClass</text>
</a>
</g>
</g>
<!-- Node1&#45;&gt;Node23 -->
<g id="edge22_Node000001_Node000023" class="edge">
<title>Node1&#45;&gt;Node23</title>
<g id="a_edge22_Node000001_Node000023"><a xlink:title=" ">
<path fill="none" stroke="#63b8ff" d="M3693.21,-67.53C3669.57,-56.54 3638.08,-41.9 3615.08,-31.21"/>
<polygon fill="#63b8ff" stroke="#63b8ff" points="3616.77,-28.14 3606.23,-27.1 3613.82,-34.49 3616.77,-28.14"/>
</a>
</g>
</g>
<!-- Node24 -->
<g id="Node000024" class="node">
<title>Node24</title>
<g id="a_Node000024"><a xlink:title=" ">
<polygon fill="#e0e0e0" stroke="#999999" points="3789.25,-26 3663.75,-26 3663.75,-6 3789.25,-6 3789.25,-26"/>
<text text-anchor="middle" x="3726.5" y="-12.5" font-family="Helvetica,sans-Serif" font-size="10.00">javafx.event.ActionEvent</text>
</a>
</g>
</g>
<!-- Node1&#45;&gt;Node24 -->
<g id="edge23_Node000001_Node000024" class="edge">
<title>Node1&#45;&gt;Node24</title>
<g id="a_edge23_Node000001_Node000024"><a xlink:title=" ">
<path fill="none" stroke="#63b8ff" d="M3726.5,-67.69C3726.5,-58.8 3726.5,-47.46 3726.5,-37.77"/>
<polygon fill="#63b8ff" stroke="#63b8ff" points="3730,-37.83 3726.5,-27.83 3723,-37.83 3730,-37.83"/>
</a>
</g>
</g>
<!-- Node25 -->
<g id="Node000025" class="node">
<title>Node25</title>
<g id="a_Node000025"><a xlink:title=" ">
<polygon fill="#e0e0e0" stroke="#999999" points="3900.12,-26 3806.88,-26 3806.88,-6 3900.12,-6 3900.12,-26"/>
<text text-anchor="middle" x="3853.5" y="-12.5" font-family="Helvetica,sans-Serif" font-size="10.00">javafx.fxml.FXML</text>
</a>
</g>
</g>
<!-- Node1&#45;&gt;Node25 -->
<g id="edge24_Node000001_Node000025" class="edge">
<title>Node1&#45;&gt;Node25</title>
<g id="a_edge24_Node000001_Node000025"><a xlink:title=" ">
<path fill="none" stroke="#63b8ff" d="M3756.28,-67.53C3777.13,-56.69 3804.82,-42.3 3825.31,-31.65"/>
<polygon fill="#63b8ff" stroke="#63b8ff" points="3826.69,-34.88 3833.95,-27.16 3823.47,-28.66 3826.69,-34.88"/>
</a>
</g>
</g>
<!-- Node26 -->
<g id="Node000026" class="node">
<title>Node26</title>
<g id="a_Node000026"><a xlink:title=" ">
<polygon fill="#e0e0e0" stroke="#999999" points="4063,-26 3918,-26 3918,-6 4063,-6 4063,-26"/>
<text text-anchor="middle" x="3990.5" y="-12.5" font-family="Helvetica,sans-Serif" font-size="10.00">javafx.geometry.Rectangle2D</text>
</a>
</g>
</g>
<!-- Node1&#45;&gt;Node26 -->
<g id="edge25_Node000001_Node000026" class="edge">
<title>Node1&#45;&gt;Node26</title>
<g id="a_edge25_Node000001_Node000026"><a xlink:title=" ">
<path fill="none" stroke="#63b8ff" d="M3788.4,-67.53C3835.12,-55.84 3898.36,-40.03 3941.58,-29.23"/>
<polygon fill="#63b8ff" stroke="#63b8ff" points="3942.34,-32.65 3951.19,-26.83 3940.64,-25.86 3942.34,-32.65"/>
</a>
</g>
</g>
<!-- Node27 -->
<g id="Node000027" class="node">
<title>Node27</title>
<g id="a_Node000027"><a xlink:title=" ">
<polygon fill="#e0e0e0" stroke="#999999" points="4178.38,-26 4080.62,-26 4080.62,-6 4178.38,-6 4178.38,-26"/>
<text text-anchor="middle" x="4129.5" y="-12.5" font-family="Helvetica,sans-Serif" font-size="10.00">javafx.scene.Node</text>
</a>
</g>
</g>
<!-- Node1&#45;&gt;Node27 -->
<g id="edge26_Node000001_Node000027" class="edge">
<title>Node1&#45;&gt;Node27</title>
<g id="a_edge26_Node000001_Node000027"><a xlink:title=" ">
<path fill="none" stroke="#63b8ff" d="M3805.95,-73.83C3876.37,-65.11 3981.78,-50.56 4072.5,-32 4076.6,-31.16 4080.85,-30.21 4085.09,-29.2"/>
<polygon fill="#63b8ff" stroke="#63b8ff" points="4085.86,-32.61 4094.72,-26.79 4084.17,-25.82 4085.86,-32.61"/>
</a>
</g>
</g>
<!-- Node28 -->
<g id="Node000028" class="node">
<title>Node28</title>
<g id="a_Node000028"><a xlink:title=" ">
<polygon fill="#e0e0e0" stroke="#999999" points="4306.75,-26 4196.25,-26 4196.25,-6 4306.75,-6 4306.75,-26"/>
<text text-anchor="middle" x="4251.5" y="-12.5" font-family="Helvetica,sans-Serif" font-size="10.00">javafx.scene.control.*</text>
</a>
</g>
</g>
<!-- Node1&#45;&gt;Node28 -->
<g id="edge27_Node000001_Node000028" class="edge">
<title>Node1&#45;&gt;Node28</title>
<g id="a_edge27_Node000001_Node000028"><a xlink:title=" ">
<path fill="none" stroke="#63b8ff" d="M3806.03,-77.12C3898.24,-69.63 4054.57,-54.85 4187.5,-32 4192.71,-31.1 4198.13,-30.04 4203.51,-28.9"/>
<polygon fill="#63b8ff" stroke="#63b8ff" points="4203.94,-32.39 4212.95,-26.81 4202.43,-25.56 4203.94,-32.39"/>
</a>
</g>
</g>
<!-- Node29 -->
<g id="Node000029" class="node">
<title>Node29</title>
<g id="a_Node000029"><a xlink:title=" ">
<polygon fill="#e0e0e0" stroke="#999999" points="4460.12,-26 4324.88,-26 4324.88,-6 4460.12,-6 4460.12,-26"/>
<text text-anchor="middle" x="4392.5" y="-12.5" font-family="Helvetica,sans-Serif" font-size="10.00">javafx.scene.control.Button</text>
</a>
</g>
</g>
<!-- Node1&#45;&gt;Node29 -->
<g id="edge28_Node000001_Node000029" class="edge">
<title>Node1&#45;&gt;Node29</title>
<g id="a_edge28_Node000001_Node000029"><a xlink:title=" ">
<path fill="none" stroke="#63b8ff" d="M3805.87,-78.81C3919.29,-72.21 4134.07,-57.45 4315.5,-32 4322.49,-31.02 4329.81,-29.82 4337.04,-28.53"/>
<polygon fill="#63b8ff" stroke="#63b8ff" points="4337.57,-31.99 4346.76,-26.73 4336.29,-25.11 4337.57,-31.99"/>
</a>
</g>
</g>
<!-- Node30 -->
<g id="Node000030" class="node">
<title>Node30</title>
<g id="a_Node000030"><a xlink:title=" ">
<polygon fill="#e0e0e0" stroke="#999999" points="4608.5,-26 4478.5,-26 4478.5,-6 4608.5,-6 4608.5,-26"/>
<text text-anchor="middle" x="4543.5" y="-12.5" font-family="Helvetica,sans-Serif" font-size="10.00">javafx.scene.control.Label</text>
</a>
</g>
</g>
<!-- Node1&#45;&gt;Node30 -->
<g id="edge29_Node000001_Node000030" class="edge">
<title>Node1&#45;&gt;Node30</title>
<g id="a_edge29_Node000001_Node000030"><a xlink:title=" ">
<path fill="none" stroke="#63b8ff" d="M3806.02,-80.97C3942.35,-76.73 4229.25,-64.45 4469.5,-32 4476.32,-31.08 4483.46,-29.9 4490.5,-28.62"/>
<polygon fill="#63b8ff" stroke="#63b8ff" points="4491.14,-32.06 4500.3,-26.74 4489.82,-25.18 4491.14,-32.06"/>
</a>
</g>
</g>
<!-- Node31 -->
<g id="Node000031" class="node">
<title>Node31</title>
<g id="a_Node000031"><a xlink:title=" ">
<polygon fill="#e0e0e0" stroke="#999999" points="4756.88,-26 4626.12,-26 4626.12,-6 4756.88,-6 4756.88,-26"/>
<text text-anchor="middle" x="4691.5" y="-12.5" font-family="Helvetica,sans-Serif" font-size="10.00">javafx.scene.image.Image</text>
</a>
</g>
</g>
<!-- Node1&#45;&gt;Node31 -->
<g id="edge30_Node000001_Node000031" class="edge">
<title>Node1&#45;&gt;Node31</title>
<g id="a_edge30_Node000001_Node000031"><a xlink:title=" ">
<path fill="none" stroke="#63b8ff" d="M3806.12,-82.25C3962.35,-79.93 4319.78,-70.49 4617.5,-32 4624.5,-31.1 4631.82,-29.91 4639.03,-28.6"/>
<polygon fill="#63b8ff" stroke="#63b8ff" points="4639.54,-32.06 4648.7,-26.74 4638.22,-25.19 4639.54,-32.06"/>
</a>
</g>
</g>
<!-- Node32 -->
<g id="Node000032" class="node">
<title>Node32</title>
<g id="a_Node000032"><a xlink:title=" ">
<polygon fill="#e0e0e0" stroke="#999999" points="4882.25,-26 4774.75,-26 4774.75,-6 4882.25,-6 4882.25,-26"/>
<text text-anchor="middle" x="4828.5" y="-12.5" font-family="Helvetica,sans-Serif" font-size="10.00">javafx.scene.layout.*</text>
</a>
</g>
</g>
<!-- Node1&#45;&gt;Node32 -->
<g id="edge31_Node000001_Node000032" class="edge">
<title>Node1&#45;&gt;Node32</title>
<g id="a_edge31_Node000001_Node000032"><a xlink:title=" ">
<path fill="none" stroke="#63b8ff" d="M3806.16,-80.99C4016.02,-75.41 4580.56,-58.33 4765.5,-32 4771.13,-31.2 4776.99,-30.13 4782.78,-28.93"/>
<polygon fill="#63b8ff" stroke="#63b8ff" points="4783.25,-32.41 4792.25,-26.82 4781.73,-25.57 4783.25,-32.41"/>
</a>
</g>
</g>
<!-- Node33 -->
<g id="Node000033" class="node">
<title>Node33</title>
<g id="a_Node000033"><a xlink:title=" ">
<polygon fill="#e0e0e0" stroke="#999999" points="5022.38,-26 4900.62,-26 4900.62,-6 5022.38,-6 5022.38,-26"/>
<text text-anchor="middle" x="4961.5" y="-12.5" font-family="Helvetica,sans-Serif" font-size="10.00">javafx.scene.paint.Color</text>
</a>
</g>
</g>
<!-- Node1&#45;&gt;Node33 -->
<g id="edge32_Node000001_Node000033" class="edge">
<title>Node1&#45;&gt;Node33</title>
<g id="a_edge32_Node000001_Node000033"><a xlink:title=" ">
<path fill="none" stroke="#63b8ff" d="M3806.21,-81.25C4033.33,-75.99 4680.9,-58.98 4891.5,-32 4898.05,-31.16 4904.91,-30.02 4911.65,-28.75"/>
<polygon fill="#63b8ff" stroke="#63b8ff" points="4912.23,-32.2 4921.34,-26.79 4910.84,-25.34 4912.23,-32.2"/>
</a>
</g>
</g>
<!-- Node34 -->
<g id="Node000034" class="node">
<title>Node34</title>
<g id="a_Node000034"><a xlink:title=" ">
<polygon fill="#e0e0e0" stroke="#999999" points="5188.5,-26 5040.5,-26 5040.5,-6 5188.5,-6 5188.5,-26"/>
<text text-anchor="middle" x="5114.5" y="-12.5" font-family="Helvetica,sans-Serif" font-size="10.00">javafx.scene.shape.Rectangle</text>
</a>
</g>
</g>
<!-- Node1&#45;&gt;Node34 -->
<g id="edge33_Node000001_Node000034" class="edge">
<title>Node1&#45;&gt;Node34</title>
<g id="a_edge33_Node000001_Node000034"><a xlink:title=" ">
<path fill="none" stroke="#63b8ff" d="M3806.23,-83.75C4010.57,-84.84 4569.45,-82.53 5031.5,-32 5039.9,-31.08 5048.73,-29.81 5057.37,-28.4"/>
<polygon fill="#63b8ff" stroke="#63b8ff" points="5057.81,-31.88 5067.08,-26.74 5056.63,-24.98 5057.81,-31.88"/>
</a>
</g>
</g>
<!-- Node35 -->
<g id="Node000035" class="node">
<title>Node35</title>
<g id="a_Node000035"><a xlink:title=" ">
<polygon fill="#e0e0e0" stroke="#999999" points="5330.88,-26 5206.12,-26 5206.12,-6 5330.88,-6 5330.88,-26"/>
<text text-anchor="middle" x="5268.5" y="-12.5" font-family="Helvetica,sans-Serif" font-size="10.00">javafx.stage.FileChooser</text>
</a>
</g>
</g>
<!-- Node1&#45;&gt;Node35 -->
<g id="edge34_Node000001_Node000035" class="edge">
<title>Node1&#45;&gt;Node35</title>
<g id="a_edge34_Node000001_Node000035"><a xlink:title=" ">
<path fill="none" stroke="#63b8ff" d="M3806.16,-82.06C4071.62,-78.65 4924.66,-65.29 5197.5,-32 5204.31,-31.17 5211.44,-30.01 5218.44,-28.71"/>
<polygon fill="#63b8ff" stroke="#63b8ff" points="5219.03,-32.16 5228.16,-26.77 5217.67,-25.29 5219.03,-32.16"/>
</a>
</g>
</g>
<!-- Node36 -->
<g id="Node000036" class="node">
<title>Node36</title>
<g id="a_Node000036"><a xlink:title=" ">
<polygon fill="#e0e0e0" stroke="#999999" points="5452,-26 5349,-26 5349,-6 5452,-6 5452,-26"/>
<text text-anchor="middle" x="5400.5" y="-12.5" font-family="Helvetica,sans-Serif" font-size="10.00">javafx.stage.Screen</text>
</a>
</g>
</g>
<!-- Node1&#45;&gt;Node36 -->
<g id="edge35_Node000001_Node000036" class="edge">
<title>Node1&#45;&gt;Node36</title>
<g id="a_edge35_Node000001_Node000036"><a xlink:title=" ">
<path fill="none" stroke="#63b8ff" d="M3805.94,-82.69C4087.67,-81.24 5038.16,-73.35 5339.5,-32 5345.1,-31.23 5350.93,-30.16 5356.66,-28.94"/>
<polygon fill="#63b8ff" stroke="#63b8ff" points="5357.06,-32.44 5366.03,-26.79 5355.5,-25.62 5357.06,-32.44"/>
</a>
</g>
</g>
<!-- Node37 -->
<g id="Node000037" class="node">
<title>Node37</title>
<g id="a_Node000037"><a xlink:title=" ">
<polygon fill="#e0e0e0" stroke="#999999" points="5567.38,-26 5469.62,-26 5469.62,-6 5567.38,-6 5567.38,-26"/>
<text text-anchor="middle" x="5518.5" y="-12.5" font-family="Helvetica,sans-Serif" font-size="10.00">javafx.stage.Stage</text>
</a>
</g>
</g>
<!-- Node1&#45;&gt;Node37 -->
<g id="edge36_Node000001_Node000037" class="edge">
<title>Node1&#45;&gt;Node37</title>
<g id="a_edge36_Node000001_Node000037"><a xlink:title=" ">
<path fill="none" stroke="#63b8ff" d="M3806.05,-83.07C4101.52,-82.93 5135.56,-79.05 5461.5,-32 5466.48,-31.28 5471.64,-30.29 5476.74,-29.15"/>
<polygon fill="#63b8ff" stroke="#63b8ff" points="5477.35,-32.6 5486.23,-26.83 5475.69,-25.8 5477.35,-32.6"/>
</a>
</g>
</g>
<!-- Node38 -->
<g id="Node000038" class="node">
<title>Node38</title>
<g id="a_Node000038"><a xlink:title=" ">
<polygon fill="#e0e0e0" stroke="#999999" points="5705.62,-26 5585.38,-26 5585.38,-6 5705.62,-6 5705.62,-26"/>
<text text-anchor="middle" x="5645.5" y="-12.5" font-family="Helvetica,sans-Serif" font-size="10.00">javafx.stage.StageStyle</text>
</a>
</g>
</g>
<!-- Node1&#45;&gt;Node38 -->
<g id="edge37_Node000001_Node000038" class="edge">
<title>Node1&#45;&gt;Node38</title>
<g id="a_edge37_Node000001_Node000038"><a xlink:title=" ">
<path fill="none" stroke="#63b8ff" d="M3806.2,-82.78C4114.08,-81.63 5226.04,-74.55 5576.5,-32 5583.13,-31.2 5590.06,-30.05 5596.86,-28.76"/>
<polygon fill="#63b8ff" stroke="#63b8ff" points="5597.54,-32.19 5606.63,-26.76 5596.13,-25.33 5597.54,-32.19"/>
</a>
</g>
</g>
<!-- Node39 -->
<g id="Node000039" class="node">
<title>Node39</title>
<g id="a_Node000039"><a xlink:title=" ">
<polygon fill="#e0e0e0" stroke="#999999" points="5821.38,-26 5723.62,-26 5723.62,-6 5821.38,-6 5821.38,-26"/>
<text text-anchor="middle" x="5772.5" y="-12.5" font-family="Helvetica,sans-Serif" font-size="10.00">javafx.util.Duration</text>
</a>
</g>
</g>
<!-- Node1&#45;&gt;Node39 -->
<g id="edge38_Node000001_Node000039" class="edge">
<title>Node1&#45;&gt;Node39</title>
<g id="a_edge38_Node000001_Node000039"><a xlink:title=" ">
<path fill="none" stroke="#63b8ff" d="M3806.09,-83.37C4128.26,-84.5 5336.48,-85.03 5714.5,-32 5719.56,-31.29 5724.82,-30.3 5730.01,-29.16"/>
<polygon fill="#63b8ff" stroke="#63b8ff" points="5730.77,-32.58 5739.68,-26.85 5729.14,-25.77 5730.77,-32.58"/>
</a>
</g>
</g>
<!-- Node40 -->
<g id="Node000040" class="node">
<title>Node40</title>
<g id="a_Node000040"><a xlink:title=" ">
<polygon fill="#e0e0e0" stroke="#999999" points="5921.88,-26 5839.12,-26 5839.12,-6 5921.88,-6 5921.88,-26"/>
<text text-anchor="middle" x="5880.5" y="-12.5" font-family="Helvetica,sans-Serif" font-size="10.00">org.slf4j.Logger</text>
</a>
</g>
</g>
<!-- Node1&#45;&gt;Node40 -->
<g id="edge39_Node000001_Node000040" class="edge">
<title>Node1&#45;&gt;Node40</title>
<g id="a_edge39_Node000001_Node000040"><a xlink:title=" ">
<path fill="none" stroke="#63b8ff" d="M3806.23,-82.33C4165.85,-79.12 5628.2,-64.2 5830.5,-32 5834.59,-31.35 5838.81,-30.45 5842.99,-29.42"/>
<polygon fill="#63b8ff" stroke="#63b8ff" points="5843.65,-32.87 5852.36,-26.84 5841.79,-26.12 5843.65,-32.87"/>
</a>
</g>
</g>
<!-- Node41 -->
<g id="Node000041" class="node">
<title>Node41</title>
<g id="a_Node000041"><a xlink:title=" ">
<polygon fill="#e0e0e0" stroke="#999999" points="6055.38,-26 5939.62,-26 5939.62,-6 6055.38,-6 6055.38,-26"/>
<text text-anchor="middle" x="5997.5" y="-12.5" font-family="Helvetica,sans-Serif" font-size="10.00">org.slf4j.LoggerFactory</text>
</a>
</g>
</g>
<!-- Node1&#45;&gt;Node41 -->
<g id="edge40_Node000001_Node000041" class="edge">
<title>Node1&#45;&gt;Node41</title>
<g id="a_edge40_Node000001_Node000041"><a xlink:title=" ">
<path fill="none" stroke="#63b8ff" d="M3806.1,-83.26C4149.65,-84.05 5507.02,-83.79 5930.5,-32 5936.94,-31.21 5943.68,-30.08 5950.28,-28.79"/>
<polygon fill="#63b8ff" stroke="#63b8ff" points="5950.67,-32.28 5959.73,-26.8 5949.23,-25.43 5950.67,-32.28"/>
</a>
</g>
</g>
<!-- Node42 -->
<g id="Node000042" class="node">
<title>Node42</title>
<g id="a_Node000042"><a xlink:title=" ">
<polygon fill="#e0e0e0" stroke="#999999" points="6290,-32 6073,-32 6073,0 6290,0 6290,-32"/>
<text text-anchor="start" x="6081" y="-18.5" font-family="Helvetica,sans-Serif" font-size="10.00">org.springframework.beans.factory.annotation.</text>
<text text-anchor="middle" x="6181.5" y="-6.5" font-family="Helvetica,sans-Serif" font-size="10.00">Autowired</text>
</a>
</g>
</g>
<!-- Node1&#45;&gt;Node42 -->
<g id="edge41_Node000001_Node000042" class="edge">
<title>Node1&#45;&gt;Node42</title>
<g id="a_edge41_Node000001_Node000042"><a xlink:title=" ">
<path fill="none" stroke="#63b8ff" d="M3806,-82.4C4159.05,-79.54 5587.89,-66.13 6061.21,-32.18"/>
<polygon fill="#63b8ff" stroke="#63b8ff" points="6061.32,-35.68 6071.04,-31.46 6060.81,-28.7 6061.32,-35.68"/>
</a>
</g>
</g>
<!-- Node43 -->
<g id="Node000043" class="node">
<title>Node43</title>
<g id="a_Node000043"><a xlink:title=" ">
<polygon fill="#e0e0e0" stroke="#999999" points="6371.12,-26 6307.88,-26 6307.88,-6 6371.12,-6 6371.12,-26"/>
<text text-anchor="middle" x="6339.5" y="-12.5" font-family="Helvetica,sans-Serif" font-size="10.00">java.io.File</text>
</a>
</g>
</g>
<!-- Node1&#45;&gt;Node43 -->
<g id="edge42_Node000001_Node000043" class="edge">
<title>Node1&#45;&gt;Node43</title>
<g id="a_edge42_Node000001_Node000043"><a xlink:title=" ">
<path fill="none" stroke="#63b8ff" d="M3806.12,-83.02C4212.95,-82.92 6050,-79.8 6299.5,-32 6302.14,-31.49 6304.84,-30.83 6307.52,-30.06"/>
<polygon fill="#63b8ff" stroke="#63b8ff" points="6308.48,-33.43 6316.86,-26.95 6306.27,-26.79 6308.48,-33.43"/>
</a>
</g>
</g>
<!-- Node44 -->
<g id="Node000044" class="node">
<title>Node44</title>
<g id="a_Node000044"><a xlink:title=" ">
<polygon fill="#e0e0e0" stroke="#999999" points="6516,-26 6389,-26 6389,-6 6516,-6 6516,-26"/>
<text text-anchor="middle" x="6452.5" y="-12.5" font-family="Helvetica,sans-Serif" font-size="10.00">java.text.MessageFormat</text>
</a>
</g>
</g>
<!-- Node1&#45;&gt;Node44 -->
<g id="edge43_Node000001_Node000044" class="edge">
<title>Node1&#45;&gt;Node44</title>
<g id="a_edge43_Node000001_Node000044"><a xlink:title=" ">
<path fill="none" stroke="#63b8ff" d="M3806.12,-82.35C4220.3,-78.87 6119.61,-61.42 6380.5,-32 6387.75,-31.18 6395.34,-29.98 6402.77,-28.61"/>
<polygon fill="#63b8ff" stroke="#63b8ff" points="6403.23,-32.09 6412.37,-26.72 6401.88,-25.22 6403.23,-32.09"/>
</a>
</g>
</g>
<!-- Node45 -->
<g id="Node000045" class="node">
<title>Node45</title>
<g id="a_Node000045"><a xlink:title=" ">
<polygon fill="#e0e0e0" stroke="#999999" points="6612.62,-26 6534.38,-26 6534.38,-6 6612.62,-6 6612.62,-26"/>
<text text-anchor="middle" x="6573.5" y="-12.5" font-family="Helvetica,sans-Serif" font-size="10.00">java.time.Year</text>
</a>
</g>
</g>
<!-- Node1&#45;&gt;Node45 -->
<g id="edge44_Node000001_Node000045" class="edge">
<title>Node1&#45;&gt;Node45</title>
<g id="a_edge44_Node000001_Node000045"><a xlink:title=" ">
<path fill="none" stroke="#63b8ff" d="M3805.92,-82.9C4233.36,-82.18 6251.21,-76.42 6525.5,-32 6529.32,-31.38 6533.26,-30.53 6537.16,-29.54"/>
<polygon fill="#63b8ff" stroke="#63b8ff" points="6537.8,-32.99 6546.46,-26.89 6535.88,-26.26 6537.8,-32.99"/>
</a>
</g>
</g>
<!-- Node46 -->
<g id="Node000046" class="node">
<title>Node46</title>
<g id="a_Node000046"><a xlink:title=" ">
<polygon fill="#e0e0e0" stroke="#999999" points="6716.75,-26 6630.25,-26 6630.25,-6 6716.75,-6 6716.75,-26"/>
<text text-anchor="middle" x="6673.5" y="-12.5" font-family="Helvetica,sans-Serif" font-size="10.00">java.util.Objects</text>
</a>
</g>
</g>
<!-- Node1&#45;&gt;Node46 -->
<g id="edge45_Node000001_Node000046" class="edge">
<title>Node1&#45;&gt;Node46</title>
<g id="a_edge45_Node000001_Node000046"><a xlink:title=" ">
<path fill="none" stroke="#63b8ff" d="M3806.1,-82.85C4242.65,-81.84 6336.76,-74.81 6621.5,-32 6625.87,-31.34 6630.39,-30.42 6634.86,-29.35"/>
<polygon fill="#63b8ff" stroke="#63b8ff" points="6635.5,-32.8 6644.27,-26.86 6633.71,-26.04 6635.5,-32.8"/>
</a>
</g>
</g>
</g>
</svg>

<g id="navigator" transform="translate(0 0)" fill="#404254">
  <rect fill="#f2f5e9" fill-opacity="0.5" stroke="#606060" stroke-width=".5" x="0" y="0" width="60" height="60"/>
  <use id="zoomplus" xlink:href="#zoomPlus" x="17" y="9" onmousedown="handleZoom(evt,'in')"/>
  <use id="zoomminus" xlink:href="#zoomMin" x="42" y="9" onmousedown="handleZoom(evt,'out')"/>
  <use id="reset" xlink:href="#resetDef" x="30" y="36" onmousedown="handleReset()"/>
   <use id="arrowup" xlink:href="#arrowUp" x="0" y="0" onmousedown="handlePan(0,-1)"/>
  <use id="arrowright" xlink:href="#arrowRight" x="0" y="0" onmousedown="handlePan(1,0)"/>
  <use id="arrowdown" xlink:href="#arrowDown" x="0" y="0" onmousedown="handlePan(0,1)"/>
  <use id="arrowleft" xlink:href="#arrowLeft" x="0" y="0" onmousedown="handlePan(-1,0)"/>
</g>
<svg viewBox="0 0 15 15" width="100%" height="30px" preserveAspectRatio="xMaxYMin meet">
 <g id="arrow_out" transform="scale(0.3 0.3)">
  <a xlink:href="_default_view_8java__incl_org.svg" target="_base">
   <rect id="button" ry="5" rx="5" y="6" x="6" height="38" width="38"
        fill="#f2f5e9" fill-opacity="0.5" stroke="#606060" stroke-width="1.0"/>
   <path id="arrow"
     d="M 11.500037,31.436501 C 11.940474,20.09759 22.043105,11.32322 32.158766,21.979434 L 37.068811,17.246167 C 37.068811,17.246167 37.088388,32 37.088388,32 L 22.160133,31.978069 C 22.160133,31.978069 26.997745,27.140456 26.997745,27.140456 C 18.528582,18.264221 13.291696,25.230495 11.500037,31.436501 z"
     style="fill:#404040;"/>
  </a>
 </g>
</svg>

<style type='text/css'>
<![CDATA[
[data-mouse-over-selected='false'] { opacity: 0.7; }
[data-mouse-over-selected='true']  { opacity: 1.0; }
]]>
</style>
<script type="application/ecmascript"><![CDATA[
document.addEventListener('DOMContentLoaded', (event) => {
  highlightEdges();
  highlightAdjacentNodes();
});
]]></script>
</svg>
