<?xml version="1.0" encoding="UTF-8" standalone="no"?>
<!DOCTYPE svg PUBLIC "-//W3C//DTD SVG 1.1//EN"
 "http://www.w3.org/Graphics/SVG/1.1/DTD/svg11.dtd">
<!-- Generated by graphviz version 12.2.1 (20241206.2353)
 -->
<!-- Title: src/main/java/fr/softsf/sudokufx/common/util/FileSystemManager.java Pages: 1 -->
<svg width="696pt" height="108pt"
 viewBox="0.00 0.00 695.62 108.00" xmlns="http://www.w3.org/2000/svg" xmlns:xlink="http://www.w3.org/1999/xlink">
<g id="graph0" class="graph" transform="scale(1 1) rotate(0) translate(4 104)">
<title>src/main/java/fr/softsf/sudokufx/common/util/FileSystemManager.java</title>
<!-- Node1 -->
<g id="Node000001" class="node">
<title>Node1</title>
<g id="a_Node000001"><a xlink:title=" ">
<polygon fill="#999999" stroke="#666666" points="393.25,-100 266.25,-100 266.25,-56 393.25,-56 393.25,-100"/>
<text text-anchor="start" x="274.25" y="-86.5" font-family="Helvetica,sans-Serif" font-size="10.00">src/main/java/fr/softsf</text>
<text text-anchor="start" x="274.25" y="-74.5" font-family="Helvetica,sans-Serif" font-size="10.00">/sudokufx/common/util</text>
<text text-anchor="middle" x="329.75" y="-62.5" font-family="Helvetica,sans-Serif" font-size="10.00">/FileSystemManager.java</text>
</a>
</g>
</g>
<!-- Node2 -->
<g id="Node000002" class="node">
<title>Node2</title>
<g id="a_Node000002"><a xlink:title=" ">
<polygon fill="#e0e0e0" stroke="#999999" points="89.5,-20 0,-20 0,0 89.5,0 89.5,-20"/>
<text text-anchor="middle" x="44.75" y="-6.5" font-family="Helvetica,sans-Serif" font-size="10.00">java.nio.file.Files</text>
</a>
</g>
</g>
<!-- Node1&#45;&gt;Node2 -->
<g id="edge1_Node000001_Node000002" class="edge">
<title>Node1&#45;&gt;Node2</title>
<g id="a_edge1_Node000001_Node000002"><a xlink:title=" ">
<path fill="none" stroke="#63b8ff" d="M265.79,-62.19C214.74,-50.37 144.13,-34.01 96.57,-23"/>
<polygon fill="#63b8ff" stroke="#63b8ff" points="97.61,-19.65 87.08,-20.8 96.03,-26.47 97.61,-19.65"/>
</a>
</g>
</g>
<!-- Node3 -->
<g id="Node000003" class="node">
<title>Node3</title>
<g id="a_Node000003"><a xlink:title=" ">
<polygon fill="#e0e0e0" stroke="#999999" points="196.12,-20 107.38,-20 107.38,0 196.12,0 196.12,-20"/>
<text text-anchor="middle" x="151.75" y="-6.5" font-family="Helvetica,sans-Serif" font-size="10.00">java.nio.file.Path</text>
</a>
</g>
</g>
<!-- Node1&#45;&gt;Node3 -->
<g id="edge2_Node000001_Node000003" class="edge">
<title>Node1&#45;&gt;Node3</title>
<g id="a_edge2_Node000001_Node000003"><a xlink:title=" ">
<path fill="none" stroke="#63b8ff" d="M271.96,-55.57C244.14,-45.26 211.67,-33.22 187.49,-24.25"/>
<polygon fill="#63b8ff" stroke="#63b8ff" points="189.02,-21.09 178.43,-20.89 186.59,-27.65 189.02,-21.09"/>
</a>
</g>
</g>
<!-- Node4 -->
<g id="Node000004" class="node">
<title>Node4</title>
<g id="a_Node000004"><a xlink:title=" ">
<polygon fill="#e0e0e0" stroke="#999999" points="317.62,-20 213.88,-20 213.88,0 317.62,0 317.62,-20"/>
<text text-anchor="middle" x="265.75" y="-6.5" font-family="Helvetica,sans-Serif" font-size="10.00">java.util.Comparator</text>
</a>
</g>
</g>
<!-- Node1&#45;&gt;Node4 -->
<g id="edge3_Node000001_Node000004" class="edge">
<title>Node1&#45;&gt;Node4</title>
<g id="a_edge3_Node000001_Node000004"><a xlink:title=" ">
<path fill="none" stroke="#63b8ff" d="M309.15,-55.75C300.67,-47.01 290.96,-37 282.88,-28.66"/>
<polygon fill="#63b8ff" stroke="#63b8ff" points="285.41,-26.25 275.94,-21.51 280.39,-31.12 285.41,-26.25"/>
</a>
</g>
</g>
<!-- Node5 -->
<g id="Node000005" class="node">
<title>Node5</title>
<g id="a_Node000005"><a xlink:title=" ">
<polygon fill="#e0e0e0" stroke="#999999" points="453.38,-20 336.12,-20 336.12,0 453.38,0 453.38,-20"/>
<text text-anchor="middle" x="394.75" y="-6.5" font-family="Helvetica,sans-Serif" font-size="10.00">java.util.stream.Stream</text>
</a>
</g>
</g>
<!-- Node1&#45;&gt;Node5 -->
<g id="edge4_Node000001_Node000005" class="edge">
<title>Node1&#45;&gt;Node5</title>
<g id="a_edge4_Node000001_Node000005"><a xlink:title=" ">
<path fill="none" stroke="#63b8ff" d="M350.67,-55.75C359.38,-46.92 369.36,-36.78 377.62,-28.4"/>
<polygon fill="#63b8ff" stroke="#63b8ff" points="379.89,-31.08 384.41,-21.5 374.9,-26.17 379.89,-31.08"/>
</a>
</g>
</g>
<!-- Node6 -->
<g id="Node000006" class="node">
<title>Node6</title>
<g id="a_Node000006"><a xlink:title=" ">
<polygon fill="#e0e0e0" stroke="#999999" points="554.12,-20 471.38,-20 471.38,0 554.12,0 554.12,-20"/>
<text text-anchor="middle" x="512.75" y="-6.5" font-family="Helvetica,sans-Serif" font-size="10.00">org.slf4j.Logger</text>
</a>
</g>
</g>
<!-- Node1&#45;&gt;Node6 -->
<g id="edge5_Node000001_Node000006" class="edge">
<title>Node1&#45;&gt;Node6</title>
<g id="a_edge5_Node000001_Node000006"><a xlink:title=" ">
<path fill="none" stroke="#63b8ff" d="M389.16,-55.57C417.76,-45.26 451.15,-33.22 476.01,-24.25"/>
<polygon fill="#63b8ff" stroke="#63b8ff" points="477.14,-27.56 485.36,-20.88 474.76,-20.98 477.14,-27.56"/>
</a>
</g>
</g>
<!-- Node7 -->
<g id="Node000007" class="node">
<title>Node7</title>
<g id="a_Node000007"><a xlink:title=" ">
<polygon fill="#e0e0e0" stroke="#999999" points="687.62,-20 571.88,-20 571.88,0 687.62,0 687.62,-20"/>
<text text-anchor="middle" x="629.75" y="-6.5" font-family="Helvetica,sans-Serif" font-size="10.00">org.slf4j.LoggerFactory</text>
</a>
</g>
</g>
<!-- Node1&#45;&gt;Node7 -->
<g id="edge6_Node000001_Node000007" class="edge">
<title>Node1&#45;&gt;Node7</title>
<g id="a_edge6_Node000001_Node000007"><a xlink:title=" ">
<path fill="none" stroke="#63b8ff" d="M393.74,-62.92C447.81,-51.03 524.41,-34.17 575.52,-22.93"/>
<polygon fill="#63b8ff" stroke="#63b8ff" points="576.16,-26.37 585.18,-20.81 574.66,-19.54 576.16,-26.37"/>
</a>
</g>
</g>
</g>
</svg>
