<?xml version="1.0" encoding="UTF-8" standalone="no"?>
<!DOCTYPE svg PUBLIC "-//W3C//DTD SVG 1.1//EN"
 "http://www.w3.org/Graphics/SVG/1.1/DTD/svg11.dtd">
<!-- Generated by graphviz version 12.2.1 (20241206.2353)
 -->
<!-- Title: src/main/java/fr/softsf/sudokufx/view/component/firework/Firework.java Pages: 1 -->
<svg width="1595pt" height="120pt"
 viewBox="0.00 0.00 1595.38 120.00" xmlns="http://www.w3.org/2000/svg" xmlns:xlink="http://www.w3.org/1999/xlink">
<g id="graph0" class="graph" transform="scale(1 1) rotate(0) translate(4 116)">
<title>src/main/java/fr/softsf/sudokufx/view/component/firework/Firework.java</title>
<!-- Node1 -->
<g id="Node000001" class="node">
<title>Node1</title>
<g id="a_Node000001"><a xlink:title=" ">
<polygon fill="#999999" stroke="#666666" points="822.38,-112 689.38,-112 689.38,-68 822.38,-68 822.38,-112"/>
<text text-anchor="start" x="697.38" y="-98.5" font-family="Helvetica,sans-Serif" font-size="10.00">src/main/java/fr/softsf</text>
<text text-anchor="start" x="697.38" y="-86.5" font-family="Helvetica,sans-Serif" font-size="10.00">/sudokufx/view/component</text>
<text text-anchor="middle" x="755.88" y="-74.5" font-family="Helvetica,sans-Serif" font-size="10.00">/firework/Firework.java</text>
</a>
</g>
</g>
<!-- Node2 -->
<g id="Node000002" class="node">
<title>Node2</title>
<g id="a_Node000002"><a xlink:title=" ">
<polygon fill="#e0e0e0" stroke="#999999" points="91.75,-26 0,-26 0,-6 91.75,-6 91.75,-26"/>
<text text-anchor="middle" x="45.88" y="-12.5" font-family="Helvetica,sans-Serif" font-size="10.00">java.util.ArrayList</text>
</a>
</g>
</g>
<!-- Node1&#45;&gt;Node2 -->
<g id="edge1_Node000001_Node000002" class="edge">
<title>Node1&#45;&gt;Node2</title>
<g id="a_edge1_Node000001_Node000002"><a xlink:title=" ">
<path fill="none" stroke="#63b8ff" d="M688.88,-87.13C569.73,-82.93 313.54,-69.94 100.88,-32 96.56,-31.23 92.09,-30.28 87.65,-29.23"/>
<polygon fill="#63b8ff" stroke="#63b8ff" points="88.8,-25.91 78.24,-26.84 87.08,-32.69 88.8,-25.91"/>
</a>
</g>
</g>
<!-- Node3 -->
<g id="Node000003" class="node">
<title>Node3</title>
<g id="a_Node000003"><a xlink:title=" ">
<polygon fill="#e0e0e0" stroke="#999999" points="193.62,-26 110.12,-26 110.12,-6 193.62,-6 193.62,-26"/>
<text text-anchor="middle" x="151.88" y="-12.5" font-family="Helvetica,sans-Serif" font-size="10.00">java.util.Iterator</text>
</a>
</g>
</g>
<!-- Node1&#45;&gt;Node3 -->
<g id="edge2_Node000001_Node000003" class="edge">
<title>Node1&#45;&gt;Node3</title>
<g id="a_edge2_Node000001_Node000003"><a xlink:title=" ">
<path fill="none" stroke="#63b8ff" d="M688.89,-86.06C584.29,-80.58 376.17,-66.12 202.88,-32 199.25,-31.29 195.52,-30.43 191.79,-29.49"/>
<polygon fill="#63b8ff" stroke="#63b8ff" points="192.8,-26.14 182.23,-26.9 190.97,-32.9 192.8,-26.14"/>
</a>
</g>
</g>
<!-- Node4 -->
<g id="Node000004" class="node">
<title>Node4</title>
<g id="a_Node000004"><a xlink:title=" ">
<polygon fill="#e0e0e0" stroke="#999999" points="280.12,-26 211.62,-26 211.62,-6 280.12,-6 280.12,-26"/>
<text text-anchor="middle" x="245.88" y="-12.5" font-family="Helvetica,sans-Serif" font-size="10.00">java.util.List</text>
</a>
</g>
</g>
<!-- Node1&#45;&gt;Node4 -->
<g id="edge3_Node000001_Node000004" class="edge">
<title>Node1&#45;&gt;Node4</title>
<g id="a_edge3_Node000001_Node000004"><a xlink:title=" ">
<path fill="none" stroke="#63b8ff" d="M688.97,-85.35C597.59,-79.34 429.09,-64.62 288.88,-32 286.28,-31.4 283.61,-30.69 280.95,-29.92"/>
<polygon fill="#63b8ff" stroke="#63b8ff" points="282.2,-26.64 271.61,-26.95 280.08,-33.31 282.2,-26.64"/>
</a>
</g>
</g>
<!-- Node5 -->
<g id="Node000005" class="node">
<title>Node5</title>
<g id="a_Node000005"><a xlink:title=" ">
<polygon fill="#e0e0e0" stroke="#999999" points="429.62,-32 298.12,-32 298.12,0 429.62,0 429.62,-32"/>
<text text-anchor="start" x="306.12" y="-18.5" font-family="Helvetica,sans-Serif" font-size="10.00">java.util.concurrent.Thread</text>
<text text-anchor="middle" x="363.88" y="-6.5" font-family="Helvetica,sans-Serif" font-size="10.00">LocalRandom</text>
</a>
</g>
</g>
<!-- Node1&#45;&gt;Node5 -->
<g id="edge4_Node000001_Node000005" class="edge">
<title>Node1&#45;&gt;Node5</title>
<g id="a_edge4_Node000001_Node000005"><a xlink:title=" ">
<path fill="none" stroke="#63b8ff" d="M689.01,-77.37C627.32,-66.55 532.86,-49.75 441.27,-32.43"/>
<polygon fill="#63b8ff" stroke="#63b8ff" points="442.08,-29.03 431.6,-30.6 440.77,-35.9 442.08,-29.03"/>
</a>
</g>
</g>
<!-- Node6 -->
<g id="Node000006" class="node">
<title>Node6</title>
<g id="a_Node000006"><a xlink:title=" ">
<polygon fill="#e0e0e0" stroke="#999999" points="581.75,-32 448,-32 448,0 581.75,0 581.75,-32"/>
<text text-anchor="start" x="456" y="-18.5" font-family="Helvetica,sans-Serif" font-size="10.00">javafx.animation.Animation</text>
<text text-anchor="middle" x="514.88" y="-6.5" font-family="Helvetica,sans-Serif" font-size="10.00">Timer</text>
</a>
</g>
</g>
<!-- Node1&#45;&gt;Node6 -->
<g id="edge5_Node000001_Node000006" class="edge">
<title>Node1&#45;&gt;Node6</title>
<g id="a_edge5_Node000001_Node000006"><a xlink:title=" ">
<path fill="none" stroke="#63b8ff" d="M689.06,-69.04C654.12,-58.6 611.6,-45.9 577.32,-35.66"/>
<polygon fill="#63b8ff" stroke="#63b8ff" points="578.54,-32.37 567.95,-32.86 576.53,-39.07 578.54,-32.37"/>
</a>
</g>
</g>
<!-- Node7 -->
<g id="Node000007" class="node">
<title>Node7</title>
<g id="a_Node000007"><a xlink:title=" ">
<polygon fill="#e0e0e0" stroke="#999999" points="747.5,-32 600.25,-32 600.25,0 747.5,0 747.5,-32"/>
<text text-anchor="start" x="608.25" y="-18.5" font-family="Helvetica,sans-Serif" font-size="10.00">javafx.beans.property.Boolean</text>
<text text-anchor="middle" x="673.88" y="-6.5" font-family="Helvetica,sans-Serif" font-size="10.00">Property</text>
</a>
</g>
</g>
<!-- Node1&#45;&gt;Node7 -->
<g id="edge6_Node000001_Node000007" class="edge">
<title>Node1&#45;&gt;Node7</title>
<g id="a_edge6_Node000001_Node000007"><a xlink:title=" ">
<path fill="none" stroke="#63b8ff" d="M731.72,-67.79C721.7,-59 710.07,-48.78 699.87,-39.83"/>
<polygon fill="#63b8ff" stroke="#63b8ff" points="702.32,-37.32 692.5,-33.35 697.7,-42.58 702.32,-37.32"/>
</a>
</g>
</g>
<!-- Node8 -->
<g id="Node000008" class="node">
<title>Node8</title>
<g id="a_Node000008"><a xlink:title=" ">
<polygon fill="#e0e0e0" stroke="#999999" points="912.5,-32 765.25,-32 765.25,0 912.5,0 912.5,-32"/>
<text text-anchor="start" x="773.25" y="-18.5" font-family="Helvetica,sans-Serif" font-size="10.00">javafx.beans.property.Boolean</text>
<text text-anchor="middle" x="838.88" y="-6.5" font-family="Helvetica,sans-Serif" font-size="10.00">PropertyBase</text>
</a>
</g>
</g>
<!-- Node1&#45;&gt;Node8 -->
<g id="edge7_Node000001_Node000008" class="edge">
<title>Node1&#45;&gt;Node8</title>
<g id="a_edge7_Node000001_Node000008"><a xlink:title=" ">
<path fill="none" stroke="#63b8ff" d="M780.33,-67.79C790.46,-59 802.24,-48.78 812.56,-39.83"/>
<polygon fill="#63b8ff" stroke="#63b8ff" points="814.77,-42.54 820.03,-33.34 810.19,-37.25 814.77,-42.54"/>
</a>
</g>
</g>
<!-- Node9 -->
<g id="Node000009" class="node">
<title>Node9</title>
<g id="a_Node000009"><a xlink:title=" ">
<polygon fill="#e0e0e0" stroke="#999999" points="1031.25,-26 930.5,-26 930.5,-6 1031.25,-6 1031.25,-26"/>
<text text-anchor="middle" x="980.88" y="-12.5" font-family="Helvetica,sans-Serif" font-size="10.00">javafx.scene.Group</text>
</a>
</g>
</g>
<!-- Node1&#45;&gt;Node9 -->
<g id="edge8_Node000001_Node000009" class="edge">
<title>Node1&#45;&gt;Node9</title>
<g id="a_edge8_Node000001_Node000009"><a xlink:title=" ">
<path fill="none" stroke="#63b8ff" d="M822.77,-67.59C861.01,-55.36 907.71,-40.41 940.41,-29.95"/>
<polygon fill="#63b8ff" stroke="#63b8ff" points="941.45,-33.29 949.91,-26.91 939.32,-26.62 941.45,-33.29"/>
</a>
</g>
</g>
<!-- Node10 -->
<g id="Node000010" class="node">
<title>Node10</title>
<g id="a_Node000010"><a xlink:title=" ">
<polygon fill="#e0e0e0" stroke="#999999" points="1146.75,-26 1049,-26 1049,-6 1146.75,-6 1146.75,-26"/>
<text text-anchor="middle" x="1097.88" y="-12.5" font-family="Helvetica,sans-Serif" font-size="10.00">javafx.scene.Node</text>
</a>
</g>
</g>
<!-- Node1&#45;&gt;Node10 -->
<g id="edge9_Node000001_Node000010" class="edge">
<title>Node1&#45;&gt;Node10</title>
<g id="a_edge9_Node000001_Node000010"><a xlink:title=" ">
<path fill="none" stroke="#63b8ff" d="M822.66,-76.67C880.35,-65.76 965.86,-48.98 1039.88,-32 1043.69,-31.12 1047.64,-30.18 1051.6,-29.21"/>
<polygon fill="#63b8ff" stroke="#63b8ff" points="1052.36,-32.63 1061.21,-26.8 1050.66,-25.84 1052.36,-32.63"/>
</a>
</g>
</g>
<!-- Node11 -->
<g id="Node000011" class="node">
<title>Node11</title>
<g id="a_Node000011"><a xlink:title=" ">
<polygon fill="#e0e0e0" stroke="#999999" points="1267,-26 1164.75,-26 1164.75,-6 1267,-6 1267,-26"/>
<text text-anchor="middle" x="1215.88" y="-12.5" font-family="Helvetica,sans-Serif" font-size="10.00">javafx.scene.Scene</text>
</a>
</g>
</g>
<!-- Node1&#45;&gt;Node11 -->
<g id="edge10_Node000001_Node000011" class="edge">
<title>Node1&#45;&gt;Node11</title>
<g id="a_edge10_Node000001_Node000011"><a xlink:title=" ">
<path fill="none" stroke="#63b8ff" d="M822.76,-81.61C902.48,-72.32 1039.54,-54.77 1155.88,-32 1160.25,-31.14 1164.79,-30.17 1169.32,-29.14"/>
<polygon fill="#63b8ff" stroke="#63b8ff" points="1170.08,-32.56 1179,-26.84 1168.47,-25.74 1170.08,-32.56"/>
</a>
</g>
</g>
<!-- Node12 -->
<g id="Node000012" class="node">
<title>Node12</title>
<g id="a_Node000012"><a xlink:title=" ">
<polygon fill="#e0e0e0" stroke="#999999" points="1406.75,-26 1285,-26 1285,-6 1406.75,-6 1406.75,-26"/>
<text text-anchor="middle" x="1345.88" y="-12.5" font-family="Helvetica,sans-Serif" font-size="10.00">javafx.scene.paint.Color</text>
</a>
</g>
</g>
<!-- Node1&#45;&gt;Node12 -->
<g id="edge11_Node000001_Node000012" class="edge">
<title>Node1&#45;&gt;Node12</title>
<g id="a_edge11_Node000001_Node000012"><a xlink:title=" ">
<path fill="none" stroke="#63b8ff" d="M822.66,-83.87C921.91,-75.75 1114.04,-58.14 1275.88,-32 1281.86,-31.03 1288.1,-29.89 1294.28,-28.68"/>
<polygon fill="#63b8ff" stroke="#63b8ff" points="1294.71,-32.16 1303.81,-26.73 1293.31,-25.3 1294.71,-32.16"/>
</a>
</g>
</g>
<!-- Node13 -->
<g id="Node000013" class="node">
<title>Node13</title>
<g id="a_Node000013"><a xlink:title=" ">
<polygon fill="#e0e0e0" stroke="#999999" points="1587.38,-32 1424.38,-32 1424.38,0 1587.38,0 1587.38,-32"/>
<text text-anchor="start" x="1432.38" y="-18.5" font-family="Helvetica,sans-Serif" font-size="10.00">edu.umd.cs.findbugs.annotations.</text>
<text text-anchor="middle" x="1505.88" y="-6.5" font-family="Helvetica,sans-Serif" font-size="10.00">SuppressFBWarnings</text>
</a>
</g>
</g>
<!-- Node1&#45;&gt;Node13 -->
<g id="edge12_Node000001_Node000013" class="edge">
<title>Node1&#45;&gt;Node13</title>
<g id="a_edge12_Node000001_Node000013"><a xlink:title=" ">
<path fill="none" stroke="#63b8ff" d="M822.57,-84.99C939.91,-77.55 1191.13,-59.91 1412.8,-32.33"/>
<polygon fill="#63b8ff" stroke="#63b8ff" points="1413.01,-35.83 1422.5,-31.12 1412.14,-28.89 1413.01,-35.83"/>
</a>
</g>
</g>
</g>
</svg>
