<?xml version="1.0" encoding="UTF-8" standalone="no"?>
<!DOCTYPE svg PUBLIC "-//W3C//DTD SVG 1.1//EN"
 "http://www.w3.org/Graphics/SVG/1.1/DTD/svg11.dtd">
<!-- Generated by graphviz version 12.2.1 (20241206.2353)
 -->
<!-- Title: src/main/java/fr/softsf/sudokufx/service/FxmlService.java Pages: 1 -->
<svg width="1249pt" height="108pt"
 viewBox="0.00 0.00 1249.00 108.00" xmlns="http://www.w3.org/2000/svg" xmlns:xlink="http://www.w3.org/1999/xlink">
<g id="graph0" class="graph" transform="scale(1 1) rotate(0) translate(4 104)">
<title>src/main/java/fr/softsf/sudokufx/service/FxmlService.java</title>
<!-- Node1 -->
<g id="Node000001" class="node">
<title>Node1</title>
<g id="a_Node000001"><a xlink:title=" ">
<polygon fill="#999999" stroke="#666666" points="654.75,-100 482.75,-100 482.75,-68 654.75,-68 654.75,-100"/>
<text text-anchor="start" x="490.75" y="-86.5" font-family="Helvetica,sans-Serif" font-size="10.00">src/main/java/fr/softsf</text>
<text text-anchor="middle" x="568.75" y="-74.5" font-family="Helvetica,sans-Serif" font-size="10.00">/sudokufx/service/FxmlService.java</text>
</a>
</g>
</g>
<!-- Node2 -->
<g id="Node000002" class="node">
<title>Node2</title>
<g id="a_Node000002"><a xlink:title=" ">
<polygon fill="#e0e0e0" stroke="#999999" points="131.5,-26 0,-26 0,-6 131.5,-6 131.5,-26"/>
<text text-anchor="middle" x="65.75" y="-12.5" font-family="Helvetica,sans-Serif" font-size="10.00">javafx.application.Platform</text>
</a>
</g>
</g>
<!-- Node1&#45;&gt;Node2 -->
<g id="edge1_Node000001_Node000002" class="edge">
<title>Node1&#45;&gt;Node2</title>
<g id="a_edge1_Node000001_Node000002"><a xlink:title=" ">
<path fill="none" stroke="#63b8ff" d="M482.4,-74.73C395.76,-65.96 258.62,-50.78 140.75,-32 134.37,-30.98 127.7,-29.81 121.08,-28.58"/>
<polygon fill="#63b8ff" stroke="#63b8ff" points="122.03,-25.2 111.55,-26.75 120.71,-32.07 122.03,-25.2"/>
</a>
</g>
</g>
<!-- Node3 -->
<g id="Node000003" class="node">
<title>Node3</title>
<g id="a_Node000003"><a xlink:title=" ">
<polygon fill="#e0e0e0" stroke="#999999" points="272,-26 149.5,-26 149.5,-6 272,-6 272,-26"/>
<text text-anchor="middle" x="210.75" y="-12.5" font-family="Helvetica,sans-Serif" font-size="10.00">javafx.fxml.FXMLLoader</text>
</a>
</g>
</g>
<!-- Node1&#45;&gt;Node3 -->
<g id="edge2_Node000001_Node000003" class="edge">
<title>Node1&#45;&gt;Node3</title>
<g id="a_edge2_Node000001_Node000003"><a xlink:title=" ">
<path fill="none" stroke="#63b8ff" d="M482.27,-68.52C425,-58.72 348.27,-45.21 280.75,-32 275.54,-30.98 270.11,-29.88 264.69,-28.76"/>
<polygon fill="#63b8ff" stroke="#63b8ff" points="265.63,-25.38 255.12,-26.76 264.19,-32.23 265.63,-25.38"/>
</a>
</g>
</g>
<!-- Node4 -->
<g id="Node000004" class="node">
<title>Node4</title>
<g id="a_Node000004"><a xlink:title=" ">
<polygon fill="#e0e0e0" stroke="#999999" points="391.88,-26 289.62,-26 289.62,-6 391.88,-6 391.88,-26"/>
<text text-anchor="middle" x="340.75" y="-12.5" font-family="Helvetica,sans-Serif" font-size="10.00">javafx.scene.Scene</text>
</a>
</g>
</g>
<!-- Node1&#45;&gt;Node4 -->
<g id="edge3_Node000001_Node000004" class="edge">
<title>Node1&#45;&gt;Node4</title>
<g id="a_edge3_Node000001_Node000004"><a xlink:title=" ">
<path fill="none" stroke="#63b8ff" d="M515.29,-67.53C475.45,-55.99 421.72,-40.44 384.44,-29.65"/>
<polygon fill="#63b8ff" stroke="#63b8ff" points="385.46,-26.3 374.88,-26.88 383.52,-33.02 385.46,-26.3"/>
</a>
</g>
</g>
<!-- Node5 -->
<g id="Node000005" class="node">
<title>Node5</title>
<g id="a_Node000005"><a xlink:title=" ">
<polygon fill="#e0e0e0" stroke="#999999" points="493.12,-26 410.38,-26 410.38,-6 493.12,-6 493.12,-26"/>
<text text-anchor="middle" x="451.75" y="-12.5" font-family="Helvetica,sans-Serif" font-size="10.00">org.slf4j.Logger</text>
</a>
</g>
</g>
<!-- Node1&#45;&gt;Node5 -->
<g id="edge4_Node000001_Node000005" class="edge">
<title>Node1&#45;&gt;Node5</title>
<g id="a_edge4_Node000001_Node000005"><a xlink:title=" ">
<path fill="none" stroke="#63b8ff" d="M541.32,-67.53C522.37,-56.84 497.3,-42.7 478.5,-32.09"/>
<polygon fill="#63b8ff" stroke="#63b8ff" points="480.27,-29.07 469.84,-27.2 476.83,-35.17 480.27,-29.07"/>
</a>
</g>
</g>
<!-- Node6 -->
<g id="Node000006" class="node">
<title>Node6</title>
<g id="a_Node000006"><a xlink:title=" ">
<polygon fill="#e0e0e0" stroke="#999999" points="626.62,-26 510.88,-26 510.88,-6 626.62,-6 626.62,-26"/>
<text text-anchor="middle" x="568.75" y="-12.5" font-family="Helvetica,sans-Serif" font-size="10.00">org.slf4j.LoggerFactory</text>
</a>
</g>
</g>
<!-- Node1&#45;&gt;Node6 -->
<g id="edge5_Node000001_Node000006" class="edge">
<title>Node1&#45;&gt;Node6</title>
<g id="a_edge5_Node000001_Node000006"><a xlink:title=" ">
<path fill="none" stroke="#63b8ff" d="M568.75,-67.69C568.75,-58.8 568.75,-47.46 568.75,-37.77"/>
<polygon fill="#63b8ff" stroke="#63b8ff" points="572.25,-37.83 568.75,-27.83 565.25,-37.83 572.25,-37.83"/>
</a>
</g>
</g>
<!-- Node7 -->
<g id="Node000007" class="node">
<title>Node7</title>
<g id="a_Node000007"><a xlink:title=" ">
<polygon fill="#e0e0e0" stroke="#999999" points="800.88,-32 644.62,-32 644.62,0 800.88,0 800.88,-32"/>
<text text-anchor="start" x="652.62" y="-18.5" font-family="Helvetica,sans-Serif" font-size="10.00">org.springframework.stereotype.</text>
<text text-anchor="middle" x="722.75" y="-6.5" font-family="Helvetica,sans-Serif" font-size="10.00">Service</text>
</a>
</g>
</g>
<!-- Node1&#45;&gt;Node7 -->
<g id="edge6_Node000001_Node000007" class="edge">
<title>Node1&#45;&gt;Node7</title>
<g id="a_edge6_Node000001_Node000007"><a xlink:title=" ">
<path fill="none" stroke="#63b8ff" d="M604.86,-67.53C626.12,-58.41 653.23,-46.79 676.1,-36.99"/>
<polygon fill="#63b8ff" stroke="#63b8ff" points="677.4,-40.24 685.21,-33.09 674.64,-33.81 677.4,-40.24"/>
</a>
</g>
</g>
<!-- Node8 -->
<g id="Node000008" class="node">
<title>Node8</title>
<g id="a_Node000008"><a xlink:title=" ">
<polygon fill="#e0e0e0" stroke="#999999" points="946.62,-32 818.88,-32 818.88,0 946.62,0 946.62,-32"/>
<text text-anchor="start" x="826.88" y="-18.5" font-family="Helvetica,sans-Serif" font-size="10.00">fr.softsf.sudokufx.enums.</text>
<text text-anchor="middle" x="882.75" y="-6.5" font-family="Helvetica,sans-Serif" font-size="10.00">Paths</text>
</a>
</g>
</g>
<!-- Node1&#45;&gt;Node8 -->
<g id="edge7_Node000001_Node000008" class="edge">
<title>Node1&#45;&gt;Node8</title>
<g id="a_edge7_Node000001_Node000008"><a xlink:title=" ">
<path fill="none" stroke="#63b8ff" d="M642.37,-67.53C692.08,-57.08 757.51,-43.32 807.55,-32.81"/>
<polygon fill="#63b8ff" stroke="#63b8ff" points="808.08,-36.27 817.15,-30.79 806.64,-29.42 808.08,-36.27"/>
</a>
</g>
</g>
<!-- Node9 -->
<g id="Node000009" class="node">
<title>Node9</title>
<g id="a_Node000009"><a xlink:title=" ">
<polygon fill="#e0e0e0" stroke="#999999" points="1106.38,-32 965.12,-32 965.12,0 1106.38,0 1106.38,-32"/>
<text text-anchor="start" x="973.12" y="-18.5" font-family="Helvetica,sans-Serif" font-size="10.00">fr.softsf.sudokufx.interfaces.</text>
<text text-anchor="middle" x="1035.75" y="-6.5" font-family="Helvetica,sans-Serif" font-size="10.00">ISceneProvider</text>
</a>
</g>
</g>
<!-- Node1&#45;&gt;Node9 -->
<g id="edge8_Node000001_Node000009" class="edge">
<title>Node1&#45;&gt;Node9</title>
<g id="a_edge8_Node000001_Node000009"><a xlink:title=" ">
<path fill="none" stroke="#63b8ff" d="M655.02,-72.99C730.97,-63.87 844.82,-49.44 953.51,-32.31"/>
<polygon fill="#63b8ff" stroke="#63b8ff" points="953.86,-35.79 963.19,-30.77 952.76,-28.88 953.86,-35.79"/>
</a>
</g>
</g>
<!-- Node10 -->
<g id="Node000010" class="node">
<title>Node10</title>
<g id="a_Node000010"><a xlink:title=" ">
<polygon fill="#e0e0e0" stroke="#999999" points="1241,-32 1124.5,-32 1124.5,0 1241,0 1241,-32"/>
<text text-anchor="start" x="1132.5" y="-18.5" font-family="Helvetica,sans-Serif" font-size="10.00">fr.softsf.sudokufx.utils.</text>
<text text-anchor="middle" x="1182.75" y="-6.5" font-family="Helvetica,sans-Serif" font-size="10.00">DynamicFontSize</text>
</a>
</g>
</g>
<!-- Node1&#45;&gt;Node10 -->
<g id="edge9_Node000001_Node000010" class="edge">
<title>Node1&#45;&gt;Node10</title>
<g id="a_edge9_Node000001_Node000010"><a xlink:title=" ">
<path fill="none" stroke="#63b8ff" d="M654.91,-78.37C760.67,-71.92 945.6,-58.17 1112.77,-32.35"/>
<polygon fill="#63b8ff" stroke="#63b8ff" points="1113.17,-35.83 1122.51,-30.83 1112.09,-28.92 1113.17,-35.83"/>
</a>
</g>
</g>
</g>
</svg>
