<?xml version="1.0" encoding="UTF-8" standalone="no"?>
<!DOCTYPE svg PUBLIC "-//W3C//DTD SVG 1.1//EN"
 "http://www.w3.org/Graphics/SVG/1.1/DTD/svg11.dtd">
<!-- Generated by graphviz version 12.2.1 (20241206.2353)
 -->
<!-- Title: src/main/java/fr/softsf/sudokufx/dto/GameDto.java Pages: 1 -->
<svg width="441pt" height="108pt"
 viewBox="0.00 0.00 441.12 108.00" xmlns="http://www.w3.org/2000/svg" xmlns:xlink="http://www.w3.org/1999/xlink">
<g id="graph0" class="graph" transform="scale(1 1) rotate(0) translate(4 104)">
<title>src/main/java/fr/softsf/sudokufx/dto/GameDto.java</title>
<!-- Node1 -->
<g id="Node000001" class="node">
<title>Node1</title>
<g id="a_Node000001"><a xlink:title=" ">
<polygon fill="#999999" stroke="#666666" points="278,-100 136.75,-100 136.75,-68 278,-68 278,-100"/>
<text text-anchor="start" x="144.75" y="-86.5" font-family="Helvetica,sans-Serif" font-size="10.00">src/main/java/fr/softsf</text>
<text text-anchor="middle" x="207.38" y="-74.5" font-family="Helvetica,sans-Serif" font-size="10.00">/sudokufx/dto/GameDto.java</text>
</a>
</g>
</g>
<!-- Node2 -->
<g id="Node000002" class="node">
<title>Node2</title>
<g id="a_Node000002"><a xlink:title=" ">
<polygon fill="#e0e0e0" stroke="#999999" points="124.75,-26 0,-26 0,-6 124.75,-6 124.75,-26"/>
<text text-anchor="middle" x="62.38" y="-12.5" font-family="Helvetica,sans-Serif" font-size="10.00">java.time.LocalDateTime</text>
</a>
</g>
</g>
<!-- Node1&#45;&gt;Node2 -->
<g id="edge1_Node000001_Node000002" class="edge">
<title>Node1&#45;&gt;Node2</title>
<g id="a_edge1_Node000001_Node000002"><a xlink:title=" ">
<path fill="none" stroke="#63b8ff" d="M173.38,-67.53C149.24,-56.54 117.09,-41.9 93.6,-31.21"/>
<polygon fill="#63b8ff" stroke="#63b8ff" points="95.09,-28.04 84.54,-27.09 92.19,-34.42 95.09,-28.04"/>
</a>
</g>
</g>
<!-- Node3 -->
<g id="Node000003" class="node">
<title>Node3</title>
<g id="a_Node000003"><a xlink:title=" ">
<polygon fill="#e0e0e0" stroke="#999999" points="272,-26 142.75,-26 142.75,-6 272,-6 272,-26"/>
<text text-anchor="middle" x="207.38" y="-12.5" font-family="Helvetica,sans-Serif" font-size="10.00">jakarta.annotation.Nonnull</text>
</a>
</g>
</g>
<!-- Node1&#45;&gt;Node3 -->
<g id="edge2_Node000001_Node000003" class="edge">
<title>Node1&#45;&gt;Node3</title>
<g id="a_edge2_Node000001_Node000003"><a xlink:title=" ">
<path fill="none" stroke="#63b8ff" d="M207.38,-67.69C207.38,-58.8 207.38,-47.46 207.38,-37.77"/>
<polygon fill="#63b8ff" stroke="#63b8ff" points="210.88,-37.83 207.38,-27.83 203.88,-37.83 210.88,-37.83"/>
</a>
</g>
</g>
<!-- Node4 -->
<g id="Node000004" class="node">
<title>Node4</title>
<g id="a_Node000004"><a xlink:title=" ">
<polygon fill="#e0e0e0" stroke="#999999" points="433.12,-32 289.62,-32 289.62,0 433.12,0 433.12,-32"/>
<text text-anchor="start" x="297.62" y="-18.5" font-family="Helvetica,sans-Serif" font-size="10.00">jakarta.validation.constraints.</text>
<text text-anchor="middle" x="361.38" y="-6.5" font-family="Helvetica,sans-Serif" font-size="10.00">NotNull</text>
</a>
</g>
</g>
<!-- Node1&#45;&gt;Node4 -->
<g id="edge3_Node000001_Node000004" class="edge">
<title>Node1&#45;&gt;Node4</title>
<g id="a_edge3_Node000001_Node000004"><a xlink:title=" ">
<path fill="none" stroke="#63b8ff" d="M243.48,-67.53C264.74,-58.41 291.86,-46.79 314.72,-36.99"/>
<polygon fill="#63b8ff" stroke="#63b8ff" points="316.02,-40.24 323.84,-33.09 313.27,-33.81 316.02,-40.24"/>
</a>
</g>
</g>
</g>
</svg>
