<?xml version="1.0" encoding="UTF-8" standalone="no"?>
<!DOCTYPE svg PUBLIC "-//W3C//DTD SVG 1.1//EN"
 "http://www.w3.org/Graphics/SVG/1.1/DTD/svg11.dtd">
<!-- Generated by graphviz version 12.2.1 (20241206.2353)
 -->
<!-- Title: src/main/java/fr/softsf/sudokufx/model/GameLevel.java Pages: 1 -->
<svg width="1374pt" height="108pt"
 viewBox="0.00 0.00 1373.88 108.00" xmlns="http://www.w3.org/2000/svg" xmlns:xlink="http://www.w3.org/1999/xlink">
<g id="graph0" class="graph" transform="scale(1 1) rotate(0) translate(4 104)">
<title>src/main/java/fr/softsf/sudokufx/model/GameLevel.java</title>
<!-- Node1 -->
<g id="Node000001" class="node">
<title>Node1</title>
<g id="a_Node000001"><a xlink:title=" ">
<polygon fill="#999999" stroke="#666666" points="733,-100 571.5,-100 571.5,-68 733,-68 733,-100"/>
<text text-anchor="start" x="579.5" y="-86.5" font-family="Helvetica,sans-Serif" font-size="10.00">src/main/java/fr/softsf</text>
<text text-anchor="middle" x="652.25" y="-74.5" font-family="Helvetica,sans-Serif" font-size="10.00">/sudokufx/model/GameLevel.java</text>
</a>
</g>
</g>
<!-- Node2 -->
<g id="Node000002" class="node">
<title>Node2</title>
<g id="a_Node000002"><a xlink:title=" ">
<polygon fill="#e0e0e0" stroke="#999999" points="86.5,-26 0,-26 0,-6 86.5,-6 86.5,-26"/>
<text text-anchor="middle" x="43.25" y="-12.5" font-family="Helvetica,sans-Serif" font-size="10.00">java.util.Objects</text>
</a>
</g>
</g>
<!-- Node1&#45;&gt;Node2 -->
<g id="edge1_Node000001_Node000002" class="edge">
<title>Node1&#45;&gt;Node2</title>
<g id="a_edge1_Node000001_Node000002"><a xlink:title=" ">
<path fill="none" stroke="#63b8ff" d="M571.34,-80.4C462.35,-75.8 262.73,-63.53 95.25,-32 91.39,-31.27 87.41,-30.39 83.45,-29.41"/>
<polygon fill="#63b8ff" stroke="#63b8ff" points="84.47,-26.06 73.9,-26.86 82.66,-32.82 84.47,-26.06"/>
</a>
</g>
</g>
<!-- Node3 -->
<g id="Node000003" class="node">
<title>Node3</title>
<g id="a_Node000003"><a xlink:title=" ">
<polygon fill="#e0e0e0" stroke="#999999" points="239.88,-26 104.62,-26 104.62,-6 239.88,-6 239.88,-26"/>
<text text-anchor="middle" x="172.25" y="-12.5" font-family="Helvetica,sans-Serif" font-size="10.00">jakarta.persistence.Column</text>
</a>
</g>
</g>
<!-- Node1&#45;&gt;Node3 -->
<g id="edge2_Node000001_Node000003" class="edge">
<title>Node1&#45;&gt;Node3</title>
<g id="a_edge2_Node000001_Node000003"><a xlink:title=" ">
<path fill="none" stroke="#63b8ff" d="M571.15,-74.43C489.4,-65.41 359.74,-50.02 248.25,-32 241.87,-30.97 235.21,-29.8 228.6,-28.57"/>
<polygon fill="#63b8ff" stroke="#63b8ff" points="229.53,-25.19 219.06,-26.76 228.23,-32.07 229.53,-25.19"/>
</a>
</g>
</g>
<!-- Node4 -->
<g id="Node000004" class="node">
<title>Node4</title>
<g id="a_Node000004"><a xlink:title=" ">
<polygon fill="#e0e0e0" stroke="#999999" points="384.75,-26 257.75,-26 257.75,-6 384.75,-6 384.75,-26"/>
<text text-anchor="middle" x="321.25" y="-12.5" font-family="Helvetica,sans-Serif" font-size="10.00">jakarta.persistence.Entity</text>
</a>
</g>
</g>
<!-- Node1&#45;&gt;Node4 -->
<g id="edge3_Node000001_Node000004" class="edge">
<title>Node1&#45;&gt;Node4</title>
<g id="a_edge3_Node000001_Node000004"><a xlink:title=" ">
<path fill="none" stroke="#63b8ff" d="M573.18,-67.53C522.1,-57.5 454.23,-44.09 394.25,-32 389.05,-30.95 383.65,-29.86 378.24,-28.75"/>
<polygon fill="#63b8ff" stroke="#63b8ff" points="379.17,-25.37 368.67,-26.8 377.77,-32.23 379.17,-25.37"/>
</a>
</g>
</g>
<!-- Node5 -->
<g id="Node000005" class="node">
<title>Node5</title>
<g id="a_Node000005"><a xlink:title=" ">
<polygon fill="#e0e0e0" stroke="#999999" points="549.5,-32 403,-32 403,0 549.5,0 549.5,-32"/>
<text text-anchor="start" x="411" y="-18.5" font-family="Helvetica,sans-Serif" font-size="10.00">jakarta.persistence.Generated</text>
<text text-anchor="middle" x="476.25" y="-6.5" font-family="Helvetica,sans-Serif" font-size="10.00">Value</text>
</a>
</g>
</g>
<!-- Node1&#45;&gt;Node5 -->
<g id="edge4_Node000001_Node000005" class="edge">
<title>Node1&#45;&gt;Node5</title>
<g id="a_edge4_Node000001_Node000005"><a xlink:title=" ">
<path fill="none" stroke="#63b8ff" d="M610.99,-67.53C586.25,-58.25 554.57,-46.37 528.15,-36.46"/>
<polygon fill="#63b8ff" stroke="#63b8ff" points="529.57,-33.26 518.98,-33.02 527.11,-39.81 529.57,-33.26"/>
</a>
</g>
</g>
<!-- Node6 -->
<g id="Node000006" class="node">
<title>Node6</title>
<g id="a_Node000006"><a xlink:title=" ">
<polygon fill="#e0e0e0" stroke="#999999" points="737.12,-26 567.38,-26 567.38,-6 737.12,-6 737.12,-26"/>
<text text-anchor="middle" x="652.25" y="-12.5" font-family="Helvetica,sans-Serif" font-size="10.00">jakarta.persistence.GenerationType</text>
</a>
</g>
</g>
<!-- Node1&#45;&gt;Node6 -->
<g id="edge5_Node000001_Node000006" class="edge">
<title>Node1&#45;&gt;Node6</title>
<g id="a_edge5_Node000001_Node000006"><a xlink:title=" ">
<path fill="none" stroke="#63b8ff" d="M652.25,-67.69C652.25,-58.8 652.25,-47.46 652.25,-37.77"/>
<polygon fill="#63b8ff" stroke="#63b8ff" points="655.75,-37.83 652.25,-27.83 648.75,-37.83 655.75,-37.83"/>
</a>
</g>
</g>
<!-- Node7 -->
<g id="Node000007" class="node">
<title>Node7</title>
<g id="a_Node000007"><a xlink:title=" ">
<polygon fill="#e0e0e0" stroke="#999999" points="865.12,-26 755.38,-26 755.38,-6 865.12,-6 865.12,-26"/>
<text text-anchor="middle" x="810.25" y="-12.5" font-family="Helvetica,sans-Serif" font-size="10.00">jakarta.persistence.Id</text>
</a>
</g>
</g>
<!-- Node1&#45;&gt;Node7 -->
<g id="edge6_Node000001_Node000007" class="edge">
<title>Node1&#45;&gt;Node7</title>
<g id="a_edge6_Node000001_Node000007"><a xlink:title=" ">
<path fill="none" stroke="#63b8ff" d="M689.29,-67.53C715.95,-56.39 751.58,-41.51 777.26,-30.78"/>
<polygon fill="#63b8ff" stroke="#63b8ff" points="778.33,-34.13 786.21,-27.04 775.63,-27.67 778.33,-34.13"/>
</a>
</g>
</g>
<!-- Node8 -->
<g id="Node000008" class="node">
<title>Node8</title>
<g id="a_Node000008"><a xlink:title=" ">
<polygon fill="#e0e0e0" stroke="#999999" points="1007.62,-26 882.88,-26 882.88,-6 1007.62,-6 1007.62,-26"/>
<text text-anchor="middle" x="945.25" y="-12.5" font-family="Helvetica,sans-Serif" font-size="10.00">jakarta.persistence.Table</text>
</a>
</g>
</g>
<!-- Node1&#45;&gt;Node8 -->
<g id="edge7_Node000001_Node000008" class="edge">
<title>Node1&#45;&gt;Node8</title>
<g id="a_edge7_Node000001_Node000008"><a xlink:title=" ">
<path fill="none" stroke="#63b8ff" d="M720.95,-67.53C773.25,-55.74 844.19,-39.77 892.18,-28.96"/>
<polygon fill="#63b8ff" stroke="#63b8ff" points="892.79,-32.4 901.78,-26.79 891.25,-25.58 892.79,-32.4"/>
</a>
</g>
</g>
<!-- Node9 -->
<g id="Node000009" class="node">
<title>Node9</title>
<g id="a_Node000009"><a xlink:title=" ">
<polygon fill="#e0e0e0" stroke="#999999" points="1188.38,-26 1026.12,-26 1026.12,-6 1188.38,-6 1188.38,-26"/>
<text text-anchor="middle" x="1107.25" y="-12.5" font-family="Helvetica,sans-Serif" font-size="10.00">jakarta.validation.constraints.Max</text>
</a>
</g>
</g>
<!-- Node1&#45;&gt;Node9 -->
<g id="edge8_Node000001_Node000009" class="edge">
<title>Node1&#45;&gt;Node9</title>
<g id="a_edge8_Node000001_Node000009"><a xlink:title=" ">
<path fill="none" stroke="#63b8ff" d="M733.29,-72.22C807.11,-62.26 919.1,-46.81 1016.25,-32 1023.89,-30.84 1031.88,-29.58 1039.82,-28.3"/>
<polygon fill="#63b8ff" stroke="#63b8ff" points="1040.17,-31.79 1049.48,-26.74 1039.05,-24.88 1040.17,-31.79"/>
</a>
</g>
</g>
<!-- Node10 -->
<g id="Node000010" class="node">
<title>Node10</title>
<g id="a_Node000010"><a xlink:title=" ">
<polygon fill="#e0e0e0" stroke="#999999" points="1365.88,-26 1206.62,-26 1206.62,-6 1365.88,-6 1365.88,-26"/>
<text text-anchor="middle" x="1286.25" y="-12.5" font-family="Helvetica,sans-Serif" font-size="10.00">jakarta.validation.constraints.Min</text>
</a>
</g>
</g>
<!-- Node1&#45;&gt;Node10 -->
<g id="edge9_Node000001_Node000010" class="edge">
<title>Node1&#45;&gt;Node10</title>
<g id="a_edge9_Node000001_Node000010"><a xlink:title=" ">
<path fill="none" stroke="#63b8ff" d="M733.25,-77.29C839.88,-69.35 1033.06,-53.49 1197.25,-32 1205.57,-30.91 1214.3,-29.62 1222.91,-28.26"/>
<polygon fill="#63b8ff" stroke="#63b8ff" points="1223.3,-31.75 1232.61,-26.69 1222.18,-24.84 1223.3,-31.75"/>
</a>
</g>
</g>
</g>
</svg>
