<?xml version="1.0" encoding="UTF-8" standalone="no"?>
<!DOCTYPE svg PUBLIC "-//W3C//DTD SVG 1.1//EN"
 "http://www.w3.org/Graphics/SVG/1.1/DTD/svg11.dtd">
<!-- Generated by graphviz version 12.2.1 (20241206.2353)
 -->
<!-- Title: src/main/java/fr/softsf/sudokufx/model/Game.java Pages: 1 -->
<svg width="1005pt" height="108pt"
 viewBox="0.00 0.00 1005.12 108.00" xmlns="http://www.w3.org/2000/svg" xmlns:xlink="http://www.w3.org/1999/xlink">
<g id="graph0" class="graph" transform="scale(1 1) rotate(0) translate(4 104)">
<title>src/main/java/fr/softsf/sudokufx/model/Game.java</title>
<!-- Node1 -->
<g id="Node000001" class="node">
<title>Node1</title>
<g id="a_Node000001"><a xlink:title=" ">
<polygon fill="#999999" stroke="#666666" points="570.5,-100 432.25,-100 432.25,-68 570.5,-68 570.5,-100"/>
<text text-anchor="start" x="440.25" y="-86.5" font-family="Helvetica,sans-Serif" font-size="10.00">src/main/java/fr/softsf</text>
<text text-anchor="middle" x="501.38" y="-74.5" font-family="Helvetica,sans-Serif" font-size="10.00">/sudokufx/model/Game.java</text>
</a>
</g>
</g>
<!-- Node2 -->
<g id="Node000002" class="node">
<title>Node2</title>
<g id="a_Node000002"><a xlink:title=" ">
<polygon fill="#e0e0e0" stroke="#999999" points="124.75,-26 0,-26 0,-6 124.75,-6 124.75,-26"/>
<text text-anchor="middle" x="62.38" y="-12.5" font-family="Helvetica,sans-Serif" font-size="10.00">java.time.LocalDateTime</text>
</a>
</g>
</g>
<!-- Node1&#45;&gt;Node2 -->
<g id="edge1_Node000001_Node000002" class="edge">
<title>Node1&#45;&gt;Node2</title>
<g id="a_edge1_Node000001_Node000002"><a xlink:title=" ">
<path fill="none" stroke="#63b8ff" d="M431.83,-74.75C357.85,-65.65 237.53,-49.89 134.38,-32 128.48,-30.98 122.33,-29.83 116.21,-28.63"/>
<polygon fill="#63b8ff" stroke="#63b8ff" points="117.28,-25.27 106.79,-26.74 115.91,-32.14 117.28,-25.27"/>
</a>
</g>
</g>
<!-- Node3 -->
<g id="Node000003" class="node">
<title>Node3</title>
<g id="a_Node000003"><a xlink:title=" ">
<polygon fill="#e0e0e0" stroke="#999999" points="271.62,-32 143.12,-32 143.12,0 271.62,0 271.62,-32"/>
<text text-anchor="start" x="151.12" y="-18.5" font-family="Helvetica,sans-Serif" font-size="10.00">org.hibernate.annotations.</text>
<text text-anchor="middle" x="207.38" y="-6.5" font-family="Helvetica,sans-Serif" font-size="10.00">Cascade</text>
</a>
</g>
</g>
<!-- Node1&#45;&gt;Node3 -->
<g id="edge2_Node000001_Node000003" class="edge">
<title>Node1&#45;&gt;Node3</title>
<g id="a_edge2_Node000001_Node000003"><a xlink:title=" ">
<path fill="none" stroke="#63b8ff" d="M432.45,-67.53C387.6,-57.46 329.1,-44.33 282.99,-33.97"/>
<polygon fill="#63b8ff" stroke="#63b8ff" points="283.85,-30.58 273.32,-31.8 282.31,-37.41 283.85,-30.58"/>
</a>
</g>
</g>
<!-- Node4 -->
<g id="Node000004" class="node">
<title>Node4</title>
<g id="a_Node000004"><a xlink:title=" ">
<polygon fill="#e0e0e0" stroke="#999999" points="418.62,-32 290.12,-32 290.12,0 418.62,0 418.62,-32"/>
<text text-anchor="start" x="298.12" y="-18.5" font-family="Helvetica,sans-Serif" font-size="10.00">org.hibernate.annotations.</text>
<text text-anchor="middle" x="354.38" y="-6.5" font-family="Helvetica,sans-Serif" font-size="10.00">CascadeType</text>
</a>
</g>
</g>
<!-- Node1&#45;&gt;Node4 -->
<g id="edge3_Node000001_Node000004" class="edge">
<title>Node1&#45;&gt;Node4</title>
<g id="a_edge3_Node000001_Node000004"><a xlink:title=" ">
<path fill="none" stroke="#63b8ff" d="M466.91,-67.53C446.71,-58.46 420.97,-46.9 399.2,-37.13"/>
<polygon fill="#63b8ff" stroke="#63b8ff" points="400.82,-34.01 390.26,-33.11 397.95,-40.4 400.82,-34.01"/>
</a>
</g>
</g>
<!-- Node5 -->
<g id="Node000005" class="node">
<title>Node5</title>
<g id="a_Node000005"><a xlink:title=" ">
<polygon fill="#e0e0e0" stroke="#999999" points="565.62,-32 437.12,-32 437.12,0 565.62,0 565.62,-32"/>
<text text-anchor="start" x="445.12" y="-18.5" font-family="Helvetica,sans-Serif" font-size="10.00">org.hibernate.annotations.</text>
<text text-anchor="middle" x="501.38" y="-6.5" font-family="Helvetica,sans-Serif" font-size="10.00">Fetch</text>
</a>
</g>
</g>
<!-- Node1&#45;&gt;Node5 -->
<g id="edge4_Node000001_Node000005" class="edge">
<title>Node1&#45;&gt;Node5</title>
<g id="a_edge4_Node000001_Node000005"><a xlink:title=" ">
<path fill="none" stroke="#63b8ff" d="M501.38,-67.69C501.38,-60.53 501.38,-51.79 501.38,-43.59"/>
<polygon fill="#63b8ff" stroke="#63b8ff" points="504.88,-43.74 501.38,-33.74 497.88,-43.74 504.88,-43.74"/>
</a>
</g>
</g>
<!-- Node6 -->
<g id="Node000006" class="node">
<title>Node6</title>
<g id="a_Node000006"><a xlink:title=" ">
<polygon fill="#e0e0e0" stroke="#999999" points="712.62,-32 584.12,-32 584.12,0 712.62,0 712.62,-32"/>
<text text-anchor="start" x="592.12" y="-18.5" font-family="Helvetica,sans-Serif" font-size="10.00">org.hibernate.annotations.</text>
<text text-anchor="middle" x="648.38" y="-6.5" font-family="Helvetica,sans-Serif" font-size="10.00">FetchMode</text>
</a>
</g>
</g>
<!-- Node1&#45;&gt;Node6 -->
<g id="edge5_Node000001_Node000006" class="edge">
<title>Node1&#45;&gt;Node6</title>
<g id="a_edge5_Node000001_Node000006"><a xlink:title=" ">
<path fill="none" stroke="#63b8ff" d="M535.84,-67.53C556.04,-58.46 581.78,-46.9 603.55,-37.13"/>
<polygon fill="#63b8ff" stroke="#63b8ff" points="604.8,-40.4 612.49,-33.11 601.93,-34.01 604.8,-40.4"/>
</a>
</g>
</g>
<!-- Node7 -->
<g id="Node000007" class="node">
<title>Node7</title>
<g id="a_Node000007"><a xlink:title=" ">
<polygon fill="#e0e0e0" stroke="#999999" points="836,-26 730.75,-26 730.75,-6 836,-6 836,-26"/>
<text text-anchor="middle" x="783.38" y="-12.5" font-family="Helvetica,sans-Serif" font-size="10.00">jakarta.persistence.*</text>
</a>
</g>
</g>
<!-- Node1&#45;&gt;Node7 -->
<g id="edge6_Node000001_Node000007" class="edge">
<title>Node1&#45;&gt;Node7</title>
<g id="a_edge6_Node000001_Node000007"><a xlink:title=" ">
<path fill="none" stroke="#63b8ff" d="M568.81,-67.54C612.37,-57.52 670.25,-44.11 721.38,-32 725.33,-31.06 729.42,-30.09 733.52,-29.1"/>
<polygon fill="#63b8ff" stroke="#63b8ff" points="733.99,-32.59 742.89,-26.85 732.35,-25.79 733.99,-32.59"/>
</a>
</g>
</g>
<!-- Node8 -->
<g id="Node000008" class="node">
<title>Node8</title>
<g id="a_Node000008"><a xlink:title=" ">
<polygon fill="#e0e0e0" stroke="#999999" points="997.12,-32 853.62,-32 853.62,0 997.12,0 997.12,-32"/>
<text text-anchor="start" x="861.62" y="-18.5" font-family="Helvetica,sans-Serif" font-size="10.00">jakarta.validation.constraints.</text>
<text text-anchor="middle" x="925.38" y="-6.5" font-family="Helvetica,sans-Serif" font-size="10.00">NotNull</text>
</a>
</g>
</g>
<!-- Node1&#45;&gt;Node8 -->
<g id="edge7_Node000001_Node000008" class="edge">
<title>Node1&#45;&gt;Node8</title>
<g id="a_edge7_Node000001_Node000008"><a xlink:title=" ">
<path fill="none" stroke="#63b8ff" d="M570.68,-73.52C637.73,-64.16 742.5,-49.08 842.25,-32.49"/>
<polygon fill="#63b8ff" stroke="#63b8ff" points="842.66,-35.97 851.95,-30.87 841.51,-29.07 842.66,-35.97"/>
</a>
</g>
</g>
</g>
</svg>
