<?xml version="1.0" encoding="UTF-8" standalone="no"?>
<!DOCTYPE svg PUBLIC "-//W3C//DTD SVG 1.1//EN"
 "http://www.w3.org/Graphics/SVG/1.1/DTD/svg11.dtd">
<!-- Generated by graphviz version 12.2.1 (20241206.2353)
 -->
<!-- Title: src/main/java/fr/softsf/sudokufx/config/database/GenerateSecret.java Pages: 1 -->
<svg width="1746pt" height="120pt"
 viewBox="0.00 0.00 1745.50 120.00" xmlns="http://www.w3.org/2000/svg" xmlns:xlink="http://www.w3.org/1999/xlink">
<g id="graph0" class="graph" transform="scale(1 1) rotate(0) translate(4 116)">
<title>src/main/java/fr/softsf/sudokufx/config/database/GenerateSecret.java</title>
<!-- Node1 -->
<g id="Node000001" class="node">
<title>Node1</title>
<g id="a_Node000001"><a xlink:title=" ">
<polygon fill="#999999" stroke="#666666" points="875.25,-112 744.5,-112 744.5,-68 875.25,-68 875.25,-112"/>
<text text-anchor="start" x="752.5" y="-98.5" font-family="Helvetica,sans-Serif" font-size="10.00">src/main/java/fr/softsf</text>
<text text-anchor="start" x="752.5" y="-86.5" font-family="Helvetica,sans-Serif" font-size="10.00">/sudokufx/config/database</text>
<text text-anchor="middle" x="809.88" y="-74.5" font-family="Helvetica,sans-Serif" font-size="10.00">/GenerateSecret.java</text>
</a>
</g>
</g>
<!-- Node2 -->
<g id="Node000002" class="node">
<title>Node2</title>
<g id="a_Node000002"><a xlink:title=" ">
<polygon fill="#e0e0e0" stroke="#999999" points="91.75,-26 0,-26 0,-6 91.75,-6 91.75,-26"/>
<text text-anchor="middle" x="45.88" y="-12.5" font-family="Helvetica,sans-Serif" font-size="10.00">java.util.ArrayList</text>
</a>
</g>
</g>
<!-- Node1&#45;&gt;Node2 -->
<g id="edge1_Node000001_Node000002" class="edge">
<title>Node1&#45;&gt;Node2</title>
<g id="a_edge1_Node000001_Node000002"><a xlink:title=" ">
<path fill="none" stroke="#63b8ff" d="M744.36,-87.79C618.67,-84.59 335.33,-73.03 100.88,-32 96.5,-31.23 91.98,-30.28 87.48,-29.22"/>
<polygon fill="#63b8ff" stroke="#63b8ff" points="88.5,-25.87 77.95,-26.8 86.78,-32.65 88.5,-25.87"/>
</a>
</g>
</g>
<!-- Node3 -->
<g id="Node000003" class="node">
<title>Node3</title>
<g id="a_Node000003"><a xlink:title=" ">
<polygon fill="#e0e0e0" stroke="#999999" points="178.12,-26 109.62,-26 109.62,-6 178.12,-6 178.12,-26"/>
<text text-anchor="middle" x="143.88" y="-12.5" font-family="Helvetica,sans-Serif" font-size="10.00">java.util.List</text>
</a>
</g>
</g>
<!-- Node1&#45;&gt;Node3 -->
<g id="edge2_Node000001_Node000003" class="edge">
<title>Node1&#45;&gt;Node3</title>
<g id="a_edge2_Node000001_Node000003"><a xlink:title=" ">
<path fill="none" stroke="#63b8ff" d="M744.05,-88.24C629.52,-85.75 386.7,-75.31 186.88,-32 184.1,-31.4 181.26,-30.67 178.43,-29.87"/>
<polygon fill="#63b8ff" stroke="#63b8ff" points="179.72,-26.6 169.13,-26.92 177.61,-33.28 179.72,-26.6"/>
</a>
</g>
</g>
<!-- Node4 -->
<g id="Node000004" class="node">
<title>Node4</title>
<g id="a_Node000004"><a xlink:title=" ">
<polygon fill="#e0e0e0" stroke="#999999" points="347.75,-26 196,-26 196,-6 347.75,-6 347.75,-26"/>
<text text-anchor="middle" x="271.88" y="-12.5" font-family="Helvetica,sans-Serif" font-size="10.00">org.passay.data.CharacterData</text>
</a>
</g>
</g>
<!-- Node1&#45;&gt;Node4 -->
<g id="edge3_Node000001_Node000004" class="edge">
<title>Node1&#45;&gt;Node4</title>
<g id="a_edge3_Node000001_Node000004"><a xlink:title=" ">
<path fill="none" stroke="#63b8ff" d="M744.09,-81.76C655.82,-71.8 494.23,-52.75 356.88,-32 349.51,-30.89 341.8,-29.64 334.15,-28.35"/>
<polygon fill="#63b8ff" stroke="#63b8ff" points="334.99,-24.95 324.54,-26.71 333.81,-31.85 334.99,-24.95"/>
</a>
</g>
</g>
<!-- Node5 -->
<g id="Node000005" class="node">
<title>Node5</title>
<g id="a_Node000005"><a xlink:title=" ">
<polygon fill="#e0e0e0" stroke="#999999" points="549.88,-26 365.88,-26 365.88,-6 549.88,-6 549.88,-26"/>
<text text-anchor="middle" x="457.88" y="-12.5" font-family="Helvetica,sans-Serif" font-size="10.00">org.passay.data.EnglishCharacterData</text>
</a>
</g>
</g>
<!-- Node1&#45;&gt;Node5 -->
<g id="edge4_Node000001_Node000005" class="edge">
<title>Node1&#45;&gt;Node5</title>
<g id="a_edge4_Node000001_Node000005"><a xlink:title=" ">
<path fill="none" stroke="#63b8ff" d="M744.08,-75.54C678.33,-62.09 578.24,-41.62 515.52,-28.79"/>
<polygon fill="#63b8ff" stroke="#63b8ff" points="516.24,-25.37 505.74,-26.79 514.84,-32.22 516.24,-25.37"/>
</a>
</g>
</g>
<!-- Node6 -->
<g id="Node000006" class="node">
<title>Node6</title>
<g id="a_Node000006"><a xlink:title=" ">
<polygon fill="#e0e0e0" stroke="#999999" points="718,-32 567.75,-32 567.75,0 718,0 718,-32"/>
<text text-anchor="start" x="575.75" y="-18.5" font-family="Helvetica,sans-Serif" font-size="10.00">org.passay.generate.Password</text>
<text text-anchor="middle" x="642.88" y="-6.5" font-family="Helvetica,sans-Serif" font-size="10.00">Generator</text>
</a>
</g>
</g>
<!-- Node1&#45;&gt;Node6 -->
<g id="edge5_Node000001_Node000006" class="edge">
<title>Node1&#45;&gt;Node6</title>
<g id="a_edge5_Node000001_Node000006"><a xlink:title=" ">
<path fill="none" stroke="#63b8ff" d="M760.22,-67.59C737.75,-57.9 711.34,-46.52 689.27,-37"/>
<polygon fill="#63b8ff" stroke="#63b8ff" points="690.77,-33.84 680.21,-33.09 688,-40.27 690.77,-33.84"/>
</a>
</g>
</g>
<!-- Node7 -->
<g id="Node000007" class="node">
<title>Node7</title>
<g id="a_Node000007"><a xlink:title=" ">
<polygon fill="#e0e0e0" stroke="#999999" points="883.88,-26 735.88,-26 735.88,-6 883.88,-6 883.88,-26"/>
<text text-anchor="middle" x="809.88" y="-12.5" font-family="Helvetica,sans-Serif" font-size="10.00">org.passay.rule.CharacterRule</text>
</a>
</g>
</g>
<!-- Node1&#45;&gt;Node7 -->
<g id="edge6_Node000001_Node000007" class="edge">
<title>Node1&#45;&gt;Node7</title>
<g id="a_edge6_Node000001_Node000007"><a xlink:title=" ">
<path fill="none" stroke="#63b8ff" d="M809.88,-67.79C809.88,-58.32 809.88,-47.2 809.88,-37.78"/>
<polygon fill="#63b8ff" stroke="#63b8ff" points="813.38,-37.82 809.88,-27.82 806.38,-37.82 813.38,-37.82"/>
</a>
</g>
</g>
<!-- Node8 -->
<g id="Node000008" class="node">
<title>Node8</title>
<g id="a_Node000008"><a xlink:title=" ">
<polygon fill="#e0e0e0" stroke="#999999" points="1007.5,-26 902.25,-26 902.25,-6 1007.5,-6 1007.5,-26"/>
<text text-anchor="middle" x="954.88" y="-12.5" font-family="Helvetica,sans-Serif" font-size="10.00">org.passay.rule.Rule</text>
</a>
</g>
</g>
<!-- Node1&#45;&gt;Node8 -->
<g id="edge7_Node000001_Node000008" class="edge">
<title>Node1&#45;&gt;Node8</title>
<g id="a_edge7_Node000001_Node000008"><a xlink:title=" ">
<path fill="none" stroke="#63b8ff" d="M852.99,-67.59C876.45,-55.94 904.85,-41.84 925.7,-31.49"/>
<polygon fill="#63b8ff" stroke="#63b8ff" points="927.09,-34.7 934.49,-27.12 923.98,-28.43 927.09,-34.7"/>
</a>
</g>
</g>
<!-- Node9 -->
<g id="Node000009" class="node">
<title>Node9</title>
<g id="a_Node000009"><a xlink:title=" ">
<polygon fill="#e0e0e0" stroke="#999999" points="1182,-32 1025.75,-32 1025.75,0 1182,0 1182,-32"/>
<text text-anchor="start" x="1033.75" y="-18.5" font-family="Helvetica,sans-Serif" font-size="10.00">org.springframework.stereotype.</text>
<text text-anchor="middle" x="1103.88" y="-6.5" font-family="Helvetica,sans-Serif" font-size="10.00">Component</text>
</a>
</g>
</g>
<!-- Node1&#45;&gt;Node9 -->
<g id="edge8_Node000001_Node000009" class="edge">
<title>Node1&#45;&gt;Node9</title>
<g id="a_edge8_Node000001_Node000009"><a xlink:title=" ">
<path fill="none" stroke="#63b8ff" d="M875.49,-72.93C921.16,-61.75 982.13,-46.81 1029.59,-35.19"/>
<polygon fill="#63b8ff" stroke="#63b8ff" points="1030.38,-38.6 1039.26,-32.82 1028.72,-31.8 1030.38,-38.6"/>
</a>
</g>
</g>
<!-- Node10 -->
<g id="Node000010" class="node">
<title>Node10</title>
<g id="a_Node000010"><a xlink:title=" ">
<polygon fill="#e0e0e0" stroke="#999999" points="1395.5,-32 1200.25,-32 1200.25,0 1395.5,0 1395.5,-32"/>
<text text-anchor="start" x="1208.25" y="-18.5" font-family="Helvetica,sans-Serif" font-size="10.00">fr.softsf.sudokufx.common.annotation.</text>
<text text-anchor="middle" x="1297.88" y="-6.5" font-family="Helvetica,sans-Serif" font-size="10.00">ExcludedFromCoverageReportGenerated</text>
</a>
</g>
</g>
<!-- Node1&#45;&gt;Node10 -->
<g id="edge9_Node000001_Node000010" class="edge">
<title>Node1&#45;&gt;Node10</title>
<g id="a_edge9_Node000001_Node000010"><a xlink:title=" ">
<path fill="none" stroke="#63b8ff" d="M875.69,-79.29C955.9,-67.46 1092.58,-47.29 1188.65,-33.11"/>
<polygon fill="#63b8ff" stroke="#63b8ff" points="1188.99,-36.6 1198.37,-31.68 1187.96,-29.68 1188.99,-36.6"/>
</a>
</g>
</g>
<!-- Node11 -->
<g id="Node000011" class="node">
<title>Node11</title>
<g id="a_Node000011"><a xlink:title=" ">
<polygon fill="#e0e0e0" stroke="#999999" points="1565.75,-32 1414,-32 1414,0 1565.75,0 1565.75,-32"/>
<text text-anchor="start" x="1422" y="-18.5" font-family="Helvetica,sans-Serif" font-size="10.00">fr.softsf.sudokufx.common.util.</text>
<text text-anchor="middle" x="1489.88" y="-6.5" font-family="Helvetica,sans-Serif" font-size="10.00">SecureRandomGenerator</text>
</a>
</g>
</g>
<!-- Node1&#45;&gt;Node11 -->
<g id="edge10_Node000001_Node000011" class="edge">
<title>Node1&#45;&gt;Node11</title>
<g id="a_edge10_Node000001_Node000011"><a xlink:title=" ">
<path fill="none" stroke="#63b8ff" d="M875.66,-84.41C983.53,-76.5 1204.95,-58.71 1402.73,-32.22"/>
<polygon fill="#63b8ff" stroke="#63b8ff" points="1402.98,-35.72 1412.42,-30.91 1402.04,-28.78 1402.98,-35.72"/>
</a>
</g>
</g>
<!-- Node12 -->
<g id="Node000012" class="node">
<title>Node12</title>
<g id="a_Node000012"><a xlink:title=" ">
<polygon fill="#e0e0e0" stroke="#999999" points="1737.5,-32 1584.25,-32 1584.25,0 1737.5,0 1737.5,-32"/>
<text text-anchor="start" x="1592.25" y="-18.5" font-family="Helvetica,sans-Serif" font-size="10.00">org.passay.rule.IllegalCharacter</text>
<text text-anchor="middle" x="1660.88" y="-6.5" font-family="Helvetica,sans-Serif" font-size="10.00">Rule.ERROR_CODE</text>
</a>
</g>
</g>
<!-- Node1&#45;&gt;Node12 -->
<g id="edge11_Node000001_Node000012" class="edge">
<title>Node1&#45;&gt;Node12</title>
<g id="a_edge11_Node000001_Node000012"><a xlink:title=" ">
<path fill="none" stroke="#63b8ff" d="M875.58,-86.28C1006.31,-80.41 1308.44,-64.46 1572.67,-32.19"/>
<polygon fill="#63b8ff" stroke="#63b8ff" points="1573.04,-35.67 1582.53,-30.97 1572.18,-28.72 1573.04,-35.67"/>
</a>
</g>
</g>
</g>
</svg>
