<?xml version="1.0" encoding="UTF-8" standalone="no"?>
<!DOCTYPE svg PUBLIC "-//W3C//DTD SVG 1.1//EN"
 "http://www.w3.org/Graphics/SVG/1.1/DTD/svg11.dtd">
<!-- Generated by graphviz version 12.2.1 (20241206.2353)
 -->
<!-- Title: src/test/java/fr/softsf/sudokufx/testing/unit/view/util/GenericListViewFactoryUTest.java Pages: 1 -->
<svg width="2895pt" height="132pt"
 viewBox="0.00 0.00 2895.00 132.00" xmlns="http://www.w3.org/2000/svg" xmlns:xlink="http://www.w3.org/1999/xlink">
<g id="page0,1_graph0" class="graph" transform="scale(1 1) rotate(0) translate(4 128)">
<title>src/test/java/fr/softsf/sudokufx/testing/unit/view/util/GenericListViewFactoryUTest.java</title>
<!-- Node1 -->
<g id="Node000001" class="node">
<title>Node1</title>
<g id="a_Node000001"><a xlink:title=" ">
<polygon fill="#999999" stroke="#666666" points="1547.5,-124 1385.25,-124 1385.25,-68 1547.5,-68 1547.5,-124"/>
<text text-anchor="start" x="1393.25" y="-110.5" font-family="Helvetica,sans-Serif" font-size="10.00">src/test/java/fr/softsf</text>
<text text-anchor="start" x="1393.25" y="-98.5" font-family="Helvetica,sans-Serif" font-size="10.00">/sudokufx/testing/unit</text>
<text text-anchor="start" x="1393.25" y="-86.5" font-family="Helvetica,sans-Serif" font-size="10.00">/view/util/GenericListViewFactory</text>
<text text-anchor="middle" x="1466.38" y="-74.5" font-family="Helvetica,sans-Serif" font-size="10.00">UTest.java</text>
</a>
</g>
</g>
<!-- Node2 -->
<g id="Node000002" class="node">
<title>Node2</title>
<g id="a_Node000002"><a xlink:title=" ">
<polygon fill="#e0e0e0" stroke="#999999" points="124.75,-26 0,-26 0,-6 124.75,-6 124.75,-26"/>
<text text-anchor="middle" x="62.38" y="-12.5" font-family="Helvetica,sans-Serif" font-size="10.00">java.time.LocalDateTime</text>
</a>
</g>
</g>
<!-- Node1&#45;&gt;Node2 -->
<g id="edge1_Node000001_Node000002" class="edge">
<title>Node1&#45;&gt;Node2</title>
<g id="a_edge1_Node000001_Node000002"><a xlink:title=" ">
<path fill="none" stroke="#63b8ff" d="M1384.9,-95.61C1176.11,-96.22 605.19,-91.8 134.38,-32 127.56,-31.13 120.42,-29.97 113.41,-28.67"/>
<polygon fill="#63b8ff" stroke="#63b8ff" points="114.15,-25.25 103.66,-26.75 112.8,-32.12 114.15,-25.25"/>
</a>
</g>
</g>
<!-- Node3 -->
<g id="Node000003" class="node">
<title>Node3</title>
<g id="a_Node000003"><a xlink:title=" ">
<polygon fill="#e0e0e0" stroke="#999999" points="231.75,-26 143,-26 143,-6 231.75,-6 231.75,-26"/>
<text text-anchor="middle" x="187.38" y="-12.5" font-family="Helvetica,sans-Serif" font-size="10.00">java.time.ZoneId</text>
</a>
</g>
</g>
<!-- Node1&#45;&gt;Node3 -->
<g id="edge2_Node000001_Node000003" class="edge">
<title>Node1&#45;&gt;Node3</title>
<g id="a_edge2_Node000001_Node000003"><a xlink:title=" ">
<path fill="none" stroke="#63b8ff" d="M1384.93,-93.2C1147.97,-87.58 461.7,-68.53 240.38,-32 236.04,-31.28 231.56,-30.34 227.11,-29.28"/>
<polygon fill="#63b8ff" stroke="#63b8ff" points="228.29,-25.97 217.73,-26.83 226.52,-32.74 228.29,-25.97"/>
</a>
</g>
</g>
<!-- Node4 -->
<g id="Node000004" class="node">
<title>Node4</title>
<g id="a_Node000004"><a xlink:title=" ">
<polygon fill="#e0e0e0" stroke="#999999" points="383.25,-32 249.5,-32 249.5,0 383.25,0 383.25,-32"/>
<text text-anchor="start" x="257.5" y="-18.5" font-family="Helvetica,sans-Serif" font-size="10.00">javafx.beans.binding.String</text>
<text text-anchor="middle" x="316.38" y="-6.5" font-family="Helvetica,sans-Serif" font-size="10.00">Binding</text>
</a>
</g>
</g>
<!-- Node1&#45;&gt;Node4 -->
<g id="edge3_Node000001_Node000004" class="edge">
<title>Node1&#45;&gt;Node4</title>
<g id="a_edge3_Node000001_Node000004"><a xlink:title=" ">
<path fill="none" stroke="#63b8ff" d="M1384.85,-94C1206.79,-91 769.72,-79.19 394.78,-32.19"/>
<polygon fill="#63b8ff" stroke="#63b8ff" points="395.29,-28.72 384.93,-30.94 394.41,-35.67 395.29,-28.72"/>
</a>
</g>
</g>
<!-- Node5 -->
<g id="Node000005" class="node">
<title>Node5</title>
<g id="a_Node000005"><a xlink:title=" ">
<polygon fill="#e0e0e0" stroke="#999999" points="543.38,-32 401.38,-32 401.38,0 543.38,0 543.38,-32"/>
<text text-anchor="start" x="409.38" y="-18.5" font-family="Helvetica,sans-Serif" font-size="10.00">javafx.beans.property.Simple</text>
<text text-anchor="middle" x="472.38" y="-6.5" font-family="Helvetica,sans-Serif" font-size="10.00">ObjectProperty</text>
</a>
</g>
</g>
<!-- Node1&#45;&gt;Node5 -->
<g id="edge4_Node000001_Node000005" class="edge">
<title>Node1&#45;&gt;Node5</title>
<g id="a_edge4_Node000001_Node000005"><a xlink:title=" ">
<path fill="none" stroke="#63b8ff" d="M1384.75,-92.56C1226.46,-87.15 866.62,-71.43 554.91,-32.23"/>
<polygon fill="#63b8ff" stroke="#63b8ff" points="555.7,-28.8 545.34,-31.02 554.82,-35.75 555.7,-28.8"/>
</a>
</g>
</g>
<!-- Node6 -->
<g id="Node000006" class="node">
<title>Node6</title>
<g id="a_Node000006"><a xlink:title=" ">
<polygon fill="#e0e0e0" stroke="#999999" points="717.5,-26 561.25,-26 561.25,-6 717.5,-6 717.5,-26"/>
<text text-anchor="middle" x="639.38" y="-12.5" font-family="Helvetica,sans-Serif" font-size="10.00">javafx.collections.FXCollections</text>
</a>
</g>
</g>
<!-- Node1&#45;&gt;Node6 -->
<g id="edge5_Node000001_Node000006" class="edge">
<title>Node1&#45;&gt;Node6</title>
<g id="a_edge5_Node000001_Node000006"><a xlink:title=" ">
<path fill="none" stroke="#63b8ff" d="M1384.83,-90.35C1248.24,-82.06 964.72,-62.64 726.38,-32 718.13,-30.94 709.47,-29.66 700.95,-28.29"/>
<polygon fill="#63b8ff" stroke="#63b8ff" points="701.8,-24.88 691.36,-26.71 700.66,-31.79 701.8,-24.88"/>
</a>
</g>
</g>
<!-- Node7 -->
<g id="Node000007" class="node">
<title>Node7</title>
<g id="a_Node000007"><a xlink:title=" ">
<polygon fill="#e0e0e0" stroke="#999999" points="895.38,-26 735.38,-26 735.38,-6 895.38,-6 895.38,-26"/>
<text text-anchor="middle" x="815.38" y="-12.5" font-family="Helvetica,sans-Serif" font-size="10.00">javafx.collections.ObservableList</text>
</a>
</g>
</g>
<!-- Node1&#45;&gt;Node7 -->
<g id="edge6_Node000001_Node000007" class="edge">
<title>Node1&#45;&gt;Node7</title>
<g id="a_edge6_Node000001_Node000007"><a xlink:title=" ">
<path fill="none" stroke="#63b8ff" d="M1384.76,-87.28C1275.24,-76.6 1074.77,-55.89 904.38,-32 896.37,-30.88 887.99,-29.6 879.69,-28.27"/>
<polygon fill="#63b8ff" stroke="#63b8ff" points="880.41,-24.84 869.97,-26.69 879.28,-31.75 880.41,-24.84"/>
</a>
</g>
</g>
<!-- Node8 -->
<g id="Node000008" class="node">
<title>Node8</title>
<g id="a_Node000008"><a xlink:title=" ">
<polygon fill="#e0e0e0" stroke="#999999" points="1057.5,-26 913.25,-26 913.25,-6 1057.5,-6 1057.5,-26"/>
<text text-anchor="middle" x="985.38" y="-12.5" font-family="Helvetica,sans-Serif" font-size="10.00">javafx.scene.control.ListView</text>
</a>
</g>
</g>
<!-- Node1&#45;&gt;Node8 -->
<g id="edge7_Node000001_Node000008" class="edge">
<title>Node1&#45;&gt;Node8</title>
<g id="a_edge7_Node000001_Node000008"><a xlink:title=" ">
<path fill="none" stroke="#63b8ff" d="M1385.06,-82.85C1304.17,-70.61 1176.55,-50.87 1066.38,-32 1059.96,-30.9 1053.27,-29.72 1046.61,-28.52"/>
<polygon fill="#63b8ff" stroke="#63b8ff" points="1047.41,-25.11 1036.95,-26.76 1046.16,-32 1047.41,-25.11"/>
</a>
</g>
</g>
<!-- Node9 -->
<g id="Node000009" class="node">
<title>Node9</title>
<g id="a_Node000009"><a xlink:title=" ">
<polygon fill="#e0e0e0" stroke="#999999" points="1214.88,-26 1075.88,-26 1075.88,-6 1214.88,-6 1214.88,-26"/>
<text text-anchor="middle" x="1145.38" y="-12.5" font-family="Helvetica,sans-Serif" font-size="10.00">javafx.scene.input.KeyCode</text>
</a>
</g>
</g>
<!-- Node1&#45;&gt;Node9 -->
<g id="edge8_Node000001_Node000009" class="edge">
<title>Node1&#45;&gt;Node9</title>
<g id="a_edge8_Node000001_Node000009"><a xlink:title=" ">
<path fill="none" stroke="#63b8ff" d="M1384.96,-75.22C1325.21,-60.7 1245.97,-41.44 1195.31,-29.13"/>
<polygon fill="#63b8ff" stroke="#63b8ff" points="1196.35,-25.78 1185.8,-26.82 1194.69,-32.59 1196.35,-25.78"/>
</a>
</g>
</g>
<!-- Node10 -->
<g id="Node000010" class="node">
<title>Node10</title>
<g id="a_Node000010"><a xlink:title=" ">
<polygon fill="#e0e0e0" stroke="#999999" points="1374,-26 1232.75,-26 1232.75,-6 1374,-6 1374,-26"/>
<text text-anchor="middle" x="1303.38" y="-12.5" font-family="Helvetica,sans-Serif" font-size="10.00">javafx.scene.input.KeyEvent</text>
</a>
</g>
</g>
<!-- Node1&#45;&gt;Node10 -->
<g id="edge9_Node000001_Node000010" class="edge">
<title>Node1&#45;&gt;Node10</title>
<g id="a_edge9_Node000001_Node000010"><a xlink:title=" ">
<path fill="none" stroke="#63b8ff" d="M1408.91,-67.5C1383.46,-55.32 1354.59,-41.51 1333.48,-31.41"/>
<polygon fill="#63b8ff" stroke="#63b8ff" points="1335.1,-28.3 1324.57,-27.14 1332.08,-34.62 1335.1,-28.3"/>
</a>
</g>
</g>
<!-- Node11 -->
<g id="Node000011" class="node">
<title>Node11</title>
<g id="a_Node000011"><a xlink:title=" ">
<polygon fill="#e0e0e0" stroke="#999999" points="1540.38,-26 1392.38,-26 1392.38,-6 1540.38,-6 1540.38,-26"/>
<text text-anchor="middle" x="1466.38" y="-12.5" font-family="Helvetica,sans-Serif" font-size="10.00">javafx.scene.shape.Rectangle</text>
</a>
</g>
</g>
<!-- Node1&#45;&gt;Node11 -->
<g id="edge10_Node000001_Node000011" class="edge">
<title>Node1&#45;&gt;Node11</title>
<g id="a_edge10_Node000001_Node000011"><a xlink:title=" ">
<path fill="none" stroke="#63b8ff" d="M1466.38,-67.72C1466.38,-57.81 1466.38,-46.79 1466.38,-37.56"/>
<polygon fill="#63b8ff" stroke="#63b8ff" points="1469.88,-37.87 1466.38,-27.87 1462.88,-37.87 1469.88,-37.87"/>
</a>
</g>
</g>
<!-- Node12 -->
<g id="Node000012" class="node">
<title>Node12</title>
<g id="a_Node000012"><a xlink:title=" ">
<polygon fill="#e0e0e0" stroke="#999999" points="1702.12,-32 1558.62,-32 1558.62,0 1702.12,0 1702.12,-32"/>
<text text-anchor="start" x="1566.62" y="-18.5" font-family="Helvetica,sans-Serif" font-size="10.00">org.junit.jupiter.api.extension.</text>
<text text-anchor="middle" x="1630.38" y="-6.5" font-family="Helvetica,sans-Serif" font-size="10.00">ExtendWith</text>
</a>
</g>
</g>
<!-- Node1&#45;&gt;Node12 -->
<g id="edge11_Node000001_Node000012" class="edge">
<title>Node1&#45;&gt;Node12</title>
<g id="a_edge11_Node000001_Node000012"><a xlink:title=" ">
<path fill="none" stroke="#63b8ff" d="M1524.2,-67.5C1545.05,-57.58 1568.19,-46.57 1587.54,-37.37"/>
<polygon fill="#63b8ff" stroke="#63b8ff" points="1588.96,-40.57 1596.49,-33.12 1585.95,-34.25 1588.96,-40.57"/>
</a>
</g>
</g>
<!-- Node13 -->
<g id="Node000013" class="node">
<title>Node13</title>
<g id="a_Node000013"><a xlink:title=" ">
<polygon fill="#e0e0e0" stroke="#999999" points="1822.5,-26 1720.25,-26 1720.25,-6 1822.5,-6 1822.5,-26"/>
<text text-anchor="middle" x="1771.38" y="-12.5" font-family="Helvetica,sans-Serif" font-size="10.00">org.junit.jupiter.api.*</text>
</a>
</g>
</g>
<!-- Node1&#45;&gt;Node13 -->
<g id="edge12_Node000001_Node000013" class="edge">
<title>Node1&#45;&gt;Node13</title>
<g id="a_edge12_Node000001_Node000013"><a xlink:title=" ">
<path fill="none" stroke="#63b8ff" d="M1547.71,-74.2C1603.79,-59.86 1676.42,-41.28 1723.45,-29.26"/>
<polygon fill="#63b8ff" stroke="#63b8ff" points="1724.25,-32.66 1733.08,-26.79 1722.52,-25.88 1724.25,-32.66"/>
</a>
</g>
</g>
<!-- Node14 -->
<g id="Node000014" class="node">
<title>Node14</title>
<g id="a_Node000014"><a xlink:title=" ">
<polygon fill="#e0e0e0" stroke="#999999" points="1976,-32 1840.75,-32 1840.75,0 1976,0 1976,-32"/>
<text text-anchor="start" x="1848.75" y="-18.5" font-family="Helvetica,sans-Serif" font-size="10.00">org.testfx.framework.junit5.</text>
<text text-anchor="middle" x="1908.38" y="-6.5" font-family="Helvetica,sans-Serif" font-size="10.00">ApplicationExtension</text>
</a>
</g>
</g>
<!-- Node1&#45;&gt;Node14 -->
<g id="edge13_Node000001_Node000014" class="edge">
<title>Node1&#45;&gt;Node14</title>
<g id="a_edge13_Node000001_Node000014"><a xlink:title=" ">
<path fill="none" stroke="#63b8ff" d="M1547.65,-81.49C1619.07,-69.49 1726.13,-51.23 1829.13,-32.39"/>
<polygon fill="#63b8ff" stroke="#63b8ff" points="1829.68,-35.85 1838.88,-30.6 1828.41,-28.96 1829.68,-35.85"/>
</a>
</g>
</g>
<!-- Node15 -->
<g id="Node000015" class="node">
<title>Node15</title>
<g id="a_Node000015"><a xlink:title=" ">
<polygon fill="#e0e0e0" stroke="#999999" points="2110.25,-26 1994.5,-26 1994.5,-6 2110.25,-6 2110.25,-26"/>
<text text-anchor="middle" x="2052.38" y="-12.5" font-family="Helvetica,sans-Serif" font-size="10.00">fr.softsf.sudokufx.dto.*</text>
</a>
</g>
</g>
<!-- Node1&#45;&gt;Node15 -->
<g id="edge14_Node000001_Node000015" class="edge">
<title>Node1&#45;&gt;Node15</title>
<g id="a_edge14_Node000001_Node000015"><a xlink:title=" ">
<path fill="none" stroke="#63b8ff" d="M1547.65,-87.66C1650.12,-77.82 1831.52,-58.49 1985.38,-32 1990.89,-31.05 1996.63,-29.95 2002.33,-28.77"/>
<polygon fill="#63b8ff" stroke="#63b8ff" points="2002.65,-32.28 2011.7,-26.78 2001.19,-25.44 2002.65,-32.28"/>
</a>
</g>
</g>
<!-- Node16 -->
<g id="Node000016" class="node">
<title>Node16</title>
<g id="a_Node000016"><a xlink:title=" ">
<polygon fill="#e0e0e0" stroke="#999999" points="2262.25,-32 2128.5,-32 2128.5,0 2262.25,0 2262.25,-32"/>
<text text-anchor="start" x="2136.5" y="-18.5" font-family="Helvetica,sans-Serif" font-size="10.00">fr.softsf.sudokufx.view.util.</text>
<text text-anchor="middle" x="2195.38" y="-6.5" font-family="Helvetica,sans-Serif" font-size="10.00">GenericListViewFactory</text>
</a>
</g>
</g>
<!-- Node1&#45;&gt;Node16 -->
<g id="edge15_Node000001_Node000016" class="edge">
<title>Node1&#45;&gt;Node16</title>
<g id="a_edge15_Node000001_Node000016"><a xlink:title=" ">
<path fill="none" stroke="#63b8ff" d="M1547.87,-89.73C1669.58,-81.29 1906.2,-62.67 2117.01,-32.26"/>
<polygon fill="#63b8ff" stroke="#63b8ff" points="2117.41,-35.73 2126.8,-30.83 2116.4,-28.81 2117.41,-35.73"/>
</a>
</g>
</g>
<!-- Node17 -->
<g id="Node000017" class="node">
<title>Node17</title>
<g id="a_Node000017"><a xlink:title=" ">
<polygon fill="#e0e0e0" stroke="#999999" points="2424.88,-32 2279.88,-32 2279.88,0 2424.88,0 2424.88,-32"/>
<text text-anchor="start" x="2287.88" y="-18.5" font-family="Helvetica,sans-Serif" font-size="10.00">fr.softsf.sudokufx.viewmodel.</text>
<text text-anchor="middle" x="2352.38" y="-6.5" font-family="Helvetica,sans-Serif" font-size="10.00">MenuPlayerViewModel</text>
</a>
</g>
</g>
<!-- Node1&#45;&gt;Node17 -->
<g id="edge16_Node000001_Node000017" class="edge">
<title>Node1&#45;&gt;Node17</title>
<g id="a_edge16_Node000001_Node000017"><a xlink:title=" ">
<path fill="none" stroke="#63b8ff" d="M1547.8,-91.46C1691.45,-84.59 1999.42,-67.08 2268.41,-32.31"/>
<polygon fill="#63b8ff" stroke="#63b8ff" points="2268.61,-35.81 2278.07,-31.05 2267.71,-28.87 2268.61,-35.81"/>
</a>
</g>
</g>
<!-- Node18 -->
<g id="Node000018" class="node">
<title>Node18</title>
<g id="a_Node000018"><a xlink:title=" ">
<polygon fill="#e0e0e0" stroke="#999999" points="2587.88,-32 2442.88,-32 2442.88,0 2587.88,0 2587.88,-32"/>
<text text-anchor="start" x="2450.88" y="-18.5" font-family="Helvetica,sans-Serif" font-size="10.00">fr.softsf.sudokufx.viewmodel.</text>
<text text-anchor="middle" x="2515.38" y="-6.5" font-family="Helvetica,sans-Serif" font-size="10.00">MenuSaveViewModel</text>
</a>
</g>
</g>
<!-- Node1&#45;&gt;Node18 -->
<g id="edge17_Node000001_Node000018" class="edge">
<title>Node1&#45;&gt;Node18</title>
<g id="a_edge17_Node000001_Node000018"><a xlink:title=" ">
<path fill="none" stroke="#63b8ff" d="M1547.95,-92.94C1713.04,-88.07 2098.66,-73.11 2431.27,-32.3"/>
<polygon fill="#63b8ff" stroke="#63b8ff" points="2431.58,-35.79 2441.08,-31.09 2430.72,-28.84 2431.58,-35.79"/>
</a>
</g>
</g>
<!-- Node19 -->
<g id="Node000019" class="node">
<title>Node19</title>
<g id="a_Node000019"><a xlink:title=" ">
<polygon fill="#e0e0e0" stroke="#999999" points="2757.25,-26 2605.5,-26 2605.5,-6 2757.25,-6 2757.25,-26"/>
<text text-anchor="middle" x="2681.38" y="-12.5" font-family="Helvetica,sans-Serif" font-size="10.00">org.junit.jupiter.api.Assertions.*</text>
</a>
</g>
</g>
<!-- Node1&#45;&gt;Node19 -->
<g id="edge18_Node000001_Node000019" class="edge">
<title>Node1&#45;&gt;Node19</title>
<g id="a_edge18_Node000001_Node000019"><a xlink:title=" ">
<path fill="none" stroke="#63b8ff" d="M1547.93,-93.84C1734.39,-90.45 2205.98,-77.68 2597.38,-32 2605.66,-31.03 2614.37,-29.77 2622.91,-28.38"/>
<polygon fill="#63b8ff" stroke="#63b8ff" points="2623.22,-31.87 2632.5,-26.75 2622.05,-24.97 2623.22,-31.87"/>
</a>
</g>
</g>
<!-- Node20 -->
<g id="Node000020" class="node">
<title>Node20</title>
<g id="a_Node000020"><a xlink:title=" ">
<polygon fill="#e0e0e0" stroke="#999999" points="2887,-26 2775.75,-26 2775.75,-6 2887,-6 2887,-26"/>
<text text-anchor="middle" x="2831.38" y="-12.5" font-family="Helvetica,sans-Serif" font-size="10.00">org.mockito.Mockito.*</text>
</a>
</g>
</g>
<!-- Node1&#45;&gt;Node20 -->
<g id="edge19_Node000001_Node000020" class="edge">
<title>Node1&#45;&gt;Node20</title>
<g id="a_edge19_Node000001_Node000020"><a xlink:title=" ">
<path fill="none" stroke="#63b8ff" d="M1547.79,-92.96C1794.16,-86.47 2529.26,-64.84 2766.38,-32 2772.33,-31.18 2778.53,-30.07 2784.65,-28.83"/>
<polygon fill="#63b8ff" stroke="#63b8ff" points="2784.97,-32.34 2794.01,-26.81 2783.49,-25.5 2784.97,-32.34"/>
</a>
</g>
</g>
</g>
</svg>
