<?xml version="1.0" encoding="UTF-8" standalone="no"?>
<!DOCTYPE svg PUBLIC "-//W3C//DTD SVG 1.1//EN"
 "http://www.w3.org/Graphics/SVG/1.1/DTD/svg11.dtd">
<!-- Generated by graphviz version 12.2.1 (20241206.2353)
 -->
<!-- Title: src/main/java/fr/softsf/sudokufx/config/database/GenerateSecret.java Pages: 1 -->
<svg width="962pt" height="120pt"
 viewBox="0.00 0.00 962.12 120.00" xmlns="http://www.w3.org/2000/svg" xmlns:xlink="http://www.w3.org/1999/xlink">
<g id="graph0" class="graph" transform="scale(1 1) rotate(0) translate(4 116)">
<title>src/main/java/fr/softsf/sudokufx/config/database/GenerateSecret.java</title>
<!-- Node1 -->
<g id="Node000001" class="node">
<title>Node1</title>
<g id="a_Node000001"><a xlink:title=" ">
<polygon fill="#999999" stroke="#666666" points="444.25,-112 313.5,-112 313.5,-68 444.25,-68 444.25,-112"/>
<text text-anchor="start" x="321.5" y="-98.5" font-family="Helvetica,sans-Serif" font-size="10.00">src/main/java/fr/softsf</text>
<text text-anchor="start" x="321.5" y="-86.5" font-family="Helvetica,sans-Serif" font-size="10.00">/sudokufx/config/database</text>
<text text-anchor="middle" x="378.88" y="-74.5" font-family="Helvetica,sans-Serif" font-size="10.00">/GenerateSecret.java</text>
</a>
</g>
</g>
<!-- Node2 -->
<g id="Node000002" class="node">
<title>Node2</title>
<g id="a_Node000002"><a xlink:title=" ">
<polygon fill="#e0e0e0" stroke="#999999" points="91.75,-26 0,-26 0,-6 91.75,-6 91.75,-26"/>
<text text-anchor="middle" x="45.88" y="-12.5" font-family="Helvetica,sans-Serif" font-size="10.00">java.util.ArrayList</text>
</a>
</g>
</g>
<!-- Node1&#45;&gt;Node2 -->
<g id="edge1_Node000001_Node000002" class="edge">
<title>Node1&#45;&gt;Node2</title>
<g id="a_edge1_Node000001_Node000002"><a xlink:title=" ">
<path fill="none" stroke="#63b8ff" d="M313.18,-76.76C256.68,-65.94 173.12,-49.24 100.88,-32 97.36,-31.16 93.73,-30.26 90.09,-29.32"/>
<polygon fill="#63b8ff" stroke="#63b8ff" points="91.26,-26.01 80.7,-26.85 89.48,-32.78 91.26,-26.01"/>
</a>
</g>
</g>
<!-- Node3 -->
<g id="Node000003" class="node">
<title>Node3</title>
<g id="a_Node000003"><a xlink:title=" ">
<polygon fill="#e0e0e0" stroke="#999999" points="178.12,-26 109.62,-26 109.62,-6 178.12,-6 178.12,-26"/>
<text text-anchor="middle" x="143.88" y="-12.5" font-family="Helvetica,sans-Serif" font-size="10.00">java.util.List</text>
</a>
</g>
</g>
<!-- Node1&#45;&gt;Node3 -->
<g id="edge2_Node000001_Node000003" class="edge">
<title>Node1&#45;&gt;Node3</title>
<g id="a_edge2_Node000001_Node000003"><a xlink:title=" ">
<path fill="none" stroke="#63b8ff" d="M313.32,-70.37C276.11,-59.58 228.74,-45.51 186.88,-32 184.93,-31.37 182.94,-30.72 180.93,-30.05"/>
<polygon fill="#63b8ff" stroke="#63b8ff" points="182.22,-26.79 171.62,-26.89 179.96,-33.42 182.22,-26.79"/>
</a>
</g>
</g>
<!-- Node4 -->
<g id="Node000004" class="node">
<title>Node4</title>
<g id="a_Node000004"><a xlink:title=" ">
<polygon fill="#e0e0e0" stroke="#999999" points="325.88,-26 195.88,-26 195.88,-6 325.88,-6 325.88,-26"/>
<text text-anchor="middle" x="260.88" y="-12.5" font-family="Helvetica,sans-Serif" font-size="10.00">org.passay.CharacterData</text>
</a>
</g>
</g>
<!-- Node1&#45;&gt;Node4 -->
<g id="edge3_Node000001_Node000004" class="edge">
<title>Node1&#45;&gt;Node4</title>
<g id="a_edge3_Node000001_Node000004"><a xlink:title=" ">
<path fill="none" stroke="#63b8ff" d="M343.79,-67.59C325.22,-56.26 302.86,-42.62 286.03,-32.35"/>
<polygon fill="#63b8ff" stroke="#63b8ff" points="288.01,-29.46 277.65,-27.24 284.36,-35.43 288.01,-29.46"/>
</a>
</g>
</g>
<!-- Node5 -->
<g id="Node000005" class="node">
<title>Node5</title>
<g id="a_Node000005"><a xlink:title=" ">
<polygon fill="#e0e0e0" stroke="#999999" points="413.88,-26 343.88,-26 343.88,-6 413.88,-6 413.88,-26"/>
<text text-anchor="middle" x="378.88" y="-12.5" font-family="Helvetica,sans-Serif" font-size="10.00">org.passay.*</text>
</a>
</g>
</g>
<!-- Node1&#45;&gt;Node5 -->
<g id="edge4_Node000001_Node000005" class="edge">
<title>Node1&#45;&gt;Node5</title>
<g id="a_edge4_Node000001_Node000005"><a xlink:title=" ">
<path fill="none" stroke="#63b8ff" d="M378.88,-67.79C378.88,-58.32 378.88,-47.2 378.88,-37.78"/>
<polygon fill="#63b8ff" stroke="#63b8ff" points="382.38,-37.82 378.88,-27.82 375.38,-37.82 382.38,-37.82"/>
</a>
</g>
</g>
<!-- Node6 -->
<g id="Node000006" class="node">
<title>Node6</title>
<g id="a_Node000006"><a xlink:title=" ">
<polygon fill="#e0e0e0" stroke="#999999" points="588,-32 431.75,-32 431.75,0 588,0 588,-32"/>
<text text-anchor="start" x="439.75" y="-18.5" font-family="Helvetica,sans-Serif" font-size="10.00">org.springframework.stereotype.</text>
<text text-anchor="middle" x="509.88" y="-6.5" font-family="Helvetica,sans-Serif" font-size="10.00">Component</text>
</a>
</g>
</g>
<!-- Node1&#45;&gt;Node6 -->
<g id="edge5_Node000001_Node000006" class="edge">
<title>Node1&#45;&gt;Node6</title>
<g id="a_edge5_Node000001_Node000006"><a xlink:title=" ">
<path fill="none" stroke="#63b8ff" d="M417.82,-67.59C434.97,-58.17 455.04,-47.14 472.06,-37.78"/>
<polygon fill="#63b8ff" stroke="#63b8ff" points="473.28,-41.11 480.36,-33.22 469.91,-34.97 473.28,-41.11"/>
</a>
</g>
</g>
<!-- Node7 -->
<g id="Node000007" class="node">
<title>Node7</title>
<g id="a_Node000007"><a xlink:title=" ">
<polygon fill="#e0e0e0" stroke="#999999" points="801.5,-32 606.25,-32 606.25,0 801.5,0 801.5,-32"/>
<text text-anchor="start" x="614.25" y="-18.5" font-family="Helvetica,sans-Serif" font-size="10.00">fr.softsf.sudokufx.common.annotations.</text>
<text text-anchor="middle" x="703.88" y="-6.5" font-family="Helvetica,sans-Serif" font-size="10.00">ExcludedFromCoverageReportGenerated</text>
</a>
</g>
</g>
<!-- Node1&#45;&gt;Node7 -->
<g id="edge6_Node000001_Node000007" class="edge">
<title>Node1&#45;&gt;Node7</title>
<g id="a_edge6_Node000001_Node000007"><a xlink:title=" ">
<path fill="none" stroke="#63b8ff" d="M444.64,-74.43C496.09,-63.03 567.89,-47.13 622.88,-34.94"/>
<polygon fill="#63b8ff" stroke="#63b8ff" points="623.51,-38.39 632.51,-32.81 621.99,-31.56 623.51,-38.39"/>
</a>
</g>
</g>
<!-- Node8 -->
<g id="Node000008" class="node">
<title>Node8</title>
<g id="a_Node000008"><a xlink:title=" ">
<polygon fill="#e0e0e0" stroke="#999999" points="954.12,-32 819.62,-32 819.62,0 954.12,0 954.12,-32"/>
<text text-anchor="start" x="827.62" y="-18.5" font-family="Helvetica,sans-Serif" font-size="10.00">org.passay.IllegalCharacter</text>
<text text-anchor="middle" x="886.88" y="-6.5" font-family="Helvetica,sans-Serif" font-size="10.00">Rule.ERROR_CODE</text>
</a>
</g>
</g>
<!-- Node1&#45;&gt;Node8 -->
<g id="edge7_Node000001_Node000008" class="edge">
<title>Node1&#45;&gt;Node8</title>
<g id="a_edge7_Node000001_Node000008"><a xlink:title=" ">
<path fill="none" stroke="#63b8ff" d="M444.57,-81.65C527.09,-72.13 673.28,-54.28 808.03,-32.41"/>
<polygon fill="#63b8ff" stroke="#63b8ff" points="808.57,-35.87 817.88,-30.8 807.44,-28.96 808.57,-35.87"/>
</a>
</g>
</g>
</g>
</svg>
