<?xml version="1.0" encoding="UTF-8" standalone="no"?>
<!DOCTYPE svg PUBLIC "-//W3C//DTD SVG 1.1//EN"
 "http://www.w3.org/Graphics/SVG/1.1/DTD/svg11.dtd">
<!-- Generated by graphviz version 12.2.1 (20241206.2353)
 -->
<!-- Title: src/main/java/fr/softsf/sudokufx/view/component/list/GenericDtoListCell.java Pages: 1 -->
<svg width="2322pt" height="120pt"
 viewBox="0.00 0.00 2322.00 120.00" xmlns="http://www.w3.org/2000/svg" xmlns:xlink="http://www.w3.org/1999/xlink">
<g id="graph0" class="graph" transform="scale(1 1) rotate(0) translate(4 116)">
<title>src/main/java/fr/softsf/sudokufx/view/component/list/GenericDtoListCell.java</title>
<!-- Node1 -->
<g id="Node000001" class="node">
<title>Node1</title>
<g id="a_Node000001"><a xlink:title=" ">
<polygon fill="#999999" stroke="#666666" points="1199.62,-112 1061.38,-112 1061.38,-68 1199.62,-68 1199.62,-112"/>
<text text-anchor="start" x="1069.38" y="-98.5" font-family="Helvetica,sans-Serif" font-size="10.00">src/main/java/fr/softsf</text>
<text text-anchor="start" x="1069.38" y="-86.5" font-family="Helvetica,sans-Serif" font-size="10.00">/sudokufx/view/component</text>
<text text-anchor="middle" x="1130.5" y="-74.5" font-family="Helvetica,sans-Serif" font-size="10.00">/list/GenericDtoListCell.java</text>
</a>
</g>
</g>
<!-- Node2 -->
<g id="Node000002" class="node">
<title>Node2</title>
<g id="a_Node000002"><a xlink:title=" ">
<polygon fill="#e0e0e0" stroke="#999999" points="127,-26 0,-26 0,-6 127,-6 127,-26"/>
<text text-anchor="middle" x="63.5" y="-12.5" font-family="Helvetica,sans-Serif" font-size="10.00">java.text.MessageFormat</text>
</a>
</g>
</g>
<!-- Node1&#45;&gt;Node2 -->
<g id="edge1_Node000001_Node000002" class="edge">
<title>Node1&#45;&gt;Node2</title>
<g id="a_edge1_Node000001_Node000002"><a xlink:title=" ">
<path fill="none" stroke="#63b8ff" d="M1060.88,-88.48C898.34,-86.51 481.43,-77.09 136.5,-32 129.68,-31.11 122.54,-29.94 115.51,-28.65"/>
<polygon fill="#63b8ff" stroke="#63b8ff" points="116.22,-25.22 105.73,-26.75 114.89,-32.09 116.22,-25.22"/>
</a>
</g>
</g>
<!-- Node3 -->
<g id="Node000003" class="node">
<title>Node3</title>
<g id="a_Node000003"><a xlink:title=" ">
<polygon fill="#e0e0e0" stroke="#999999" points="231.75,-26 145.25,-26 145.25,-6 231.75,-6 231.75,-26"/>
<text text-anchor="middle" x="188.5" y="-12.5" font-family="Helvetica,sans-Serif" font-size="10.00">java.util.Objects</text>
</a>
</g>
</g>
<!-- Node1&#45;&gt;Node3 -->
<g id="edge2_Node000001_Node000003" class="edge">
<title>Node1&#45;&gt;Node3</title>
<g id="a_edge2_Node000001_Node000003"><a xlink:title=" ">
<path fill="none" stroke="#63b8ff" d="M1060.94,-89.65C910.22,-89.93 542.71,-84.62 240.5,-32 236.42,-31.29 232.2,-30.38 228.01,-29.36"/>
<polygon fill="#63b8ff" stroke="#63b8ff" points="229.15,-26.04 218.58,-26.85 227.35,-32.8 229.15,-26.04"/>
</a>
</g>
</g>
<!-- Node4 -->
<g id="Node000004" class="node">
<title>Node4</title>
<g id="a_Node000004"><a xlink:title=" ">
<polygon fill="#e0e0e0" stroke="#999999" points="377.38,-26 249.62,-26 249.62,-6 377.38,-6 377.38,-26"/>
<text text-anchor="middle" x="313.5" y="-12.5" font-family="Helvetica,sans-Serif" font-size="10.00">java.util.function.Function</text>
</a>
</g>
</g>
<!-- Node1&#45;&gt;Node4 -->
<g id="edge3_Node000001_Node000004" class="edge">
<title>Node1&#45;&gt;Node4</title>
<g id="a_edge3_Node000001_Node000004"><a xlink:title=" ">
<path fill="none" stroke="#63b8ff" d="M1060.95,-86.6C928.92,-81.4 633.13,-66.65 386.5,-32 379.93,-31.08 373.07,-29.92 366.29,-28.67"/>
<polygon fill="#63b8ff" stroke="#63b8ff" points="367,-25.24 356.52,-26.77 365.67,-32.11 367,-25.24"/>
</a>
</g>
</g>
<!-- Node5 -->
<g id="Node000005" class="node">
<title>Node5</title>
<g id="a_Node000005"><a xlink:title=" ">
<polygon fill="#e0e0e0" stroke="#999999" points="521.25,-26 395.75,-26 395.75,-6 521.25,-6 521.25,-26"/>
<text text-anchor="middle" x="458.5" y="-12.5" font-family="Helvetica,sans-Serif" font-size="10.00">java.util.function.Supplier</text>
</a>
</g>
</g>
<!-- Node1&#45;&gt;Node5 -->
<g id="edge4_Node000001_Node000005" class="edge">
<title>Node1&#45;&gt;Node5</title>
<g id="a_edge4_Node000001_Node000005"><a xlink:title=" ">
<path fill="none" stroke="#63b8ff" d="M1060.9,-84.9C948.77,-77.73 721.38,-60.86 530.5,-32 524.11,-31.03 517.43,-29.86 510.83,-28.61"/>
<polygon fill="#63b8ff" stroke="#63b8ff" points="511.83,-25.24 501.34,-26.73 510.47,-32.1 511.83,-25.24"/>
</a>
</g>
</g>
<!-- Node6 -->
<g id="Node000006" class="node">
<title>Node6</title>
<g id="a_Node000006"><a xlink:title=" ">
<polygon fill="#e0e0e0" stroke="#999999" points="673.38,-32 539.62,-32 539.62,0 673.38,0 673.38,-32"/>
<text text-anchor="start" x="547.62" y="-18.5" font-family="Helvetica,sans-Serif" font-size="10.00">javafx.beans.binding.String</text>
<text text-anchor="middle" x="606.5" y="-6.5" font-family="Helvetica,sans-Serif" font-size="10.00">Binding</text>
</a>
</g>
</g>
<!-- Node1&#45;&gt;Node6 -->
<g id="edge5_Node000001_Node000006" class="edge">
<title>Node1&#45;&gt;Node6</title>
<g id="a_edge5_Node000001_Node000006"><a xlink:title=" ">
<path fill="none" stroke="#63b8ff" d="M1061.05,-81.73C974.96,-72.38 823.52,-54.8 684.76,-32.47"/>
<polygon fill="#63b8ff" stroke="#63b8ff" points="685.44,-29.04 675.01,-30.89 684.32,-35.95 685.44,-29.04"/>
</a>
</g>
</g>
<!-- Node7 -->
<g id="Node000007" class="node">
<title>Node7</title>
<g id="a_Node000007"><a xlink:title=" ">
<polygon fill="#e0e0e0" stroke="#999999" points="818,-26 691,-26 691,-6 818,-6 818,-26"/>
<text text-anchor="middle" x="754.5" y="-12.5" font-family="Helvetica,sans-Serif" font-size="10.00">javafx.scene.control.Alert</text>
</a>
</g>
</g>
<!-- Node1&#45;&gt;Node7 -->
<g id="edge6_Node000001_Node000007" class="edge">
<title>Node1&#45;&gt;Node7</title>
<g id="a_edge6_Node000001_Node000007"><a xlink:title=" ">
<path fill="none" stroke="#63b8ff" d="M1061,-76.38C999.33,-65.08 906.83,-47.9 826.5,-32 821.22,-30.96 815.73,-29.85 810.23,-28.73"/>
<polygon fill="#63b8ff" stroke="#63b8ff" points="811.01,-25.31 800.51,-26.73 809.6,-32.17 811.01,-25.31"/>
</a>
</g>
</g>
<!-- Node8 -->
<g id="Node000008" class="node">
<title>Node8</title>
<g id="a_Node000008"><a xlink:title=" ">
<polygon fill="#e0e0e0" stroke="#999999" points="971.12,-26 835.88,-26 835.88,-6 971.12,-6 971.12,-26"/>
<text text-anchor="middle" x="903.5" y="-12.5" font-family="Helvetica,sans-Serif" font-size="10.00">javafx.scene.control.Button</text>
</a>
</g>
</g>
<!-- Node1&#45;&gt;Node8 -->
<g id="edge7_Node000001_Node000008" class="edge">
<title>Node1&#45;&gt;Node8</title>
<g id="a_edge7_Node000001_Node000008"><a xlink:title=" ">
<path fill="none" stroke="#63b8ff" d="M1063.01,-67.59C1024.26,-55.3 976.9,-40.28 943.9,-29.81"/>
<polygon fill="#63b8ff" stroke="#63b8ff" points="945.32,-26.59 934.73,-26.91 943.2,-33.27 945.32,-26.59"/>
</a>
</g>
</g>
<!-- Node9 -->
<g id="Node000009" class="node">
<title>Node9</title>
<g id="a_Node000009"><a xlink:title=" ">
<polygon fill="#e0e0e0" stroke="#999999" points="1119.5,-26 989.5,-26 989.5,-6 1119.5,-6 1119.5,-26"/>
<text text-anchor="middle" x="1054.5" y="-12.5" font-family="Helvetica,sans-Serif" font-size="10.00">javafx.scene.control.Label</text>
</a>
</g>
</g>
<!-- Node1&#45;&gt;Node9 -->
<g id="edge8_Node000001_Node000009" class="edge">
<title>Node1&#45;&gt;Node9</title>
<g id="a_edge8_Node000001_Node000009"><a xlink:title=" ">
<path fill="none" stroke="#63b8ff" d="M1108.11,-67.79C1096.75,-57.03 1083.14,-44.14 1072.48,-34.03"/>
<polygon fill="#63b8ff" stroke="#63b8ff" points="1075.09,-31.69 1065.43,-27.35 1070.28,-36.77 1075.09,-31.69"/>
</a>
</g>
</g>
<!-- Node10 -->
<g id="Node000010" class="node">
<title>Node10</title>
<g id="a_Node000010"><a xlink:title=" ">
<polygon fill="#e0e0e0" stroke="#999999" points="1277.38,-26 1137.62,-26 1137.62,-6 1277.38,-6 1277.38,-26"/>
<text text-anchor="middle" x="1207.5" y="-12.5" font-family="Helvetica,sans-Serif" font-size="10.00">javafx.scene.control.ListCell</text>
</a>
</g>
</g>
<!-- Node1&#45;&gt;Node10 -->
<g id="edge9_Node000001_Node000010" class="edge">
<title>Node1&#45;&gt;Node10</title>
<g id="a_edge9_Node000001_Node000010"><a xlink:title=" ">
<path fill="none" stroke="#63b8ff" d="M1153.19,-67.79C1164.69,-57.03 1178.48,-44.14 1189.28,-34.03"/>
<polygon fill="#63b8ff" stroke="#63b8ff" points="1191.52,-36.73 1196.44,-27.35 1186.74,-31.62 1191.52,-36.73"/>
</a>
</g>
</g>
<!-- Node11 -->
<g id="Node000011" class="node">
<title>Node11</title>
<g id="a_Node000011"><a xlink:title=" ">
<polygon fill="#e0e0e0" stroke="#999999" points="1439.62,-26 1295.38,-26 1295.38,-6 1439.62,-6 1439.62,-26"/>
<text text-anchor="middle" x="1367.5" y="-12.5" font-family="Helvetica,sans-Serif" font-size="10.00">javafx.scene.control.ListView</text>
</a>
</g>
</g>
<!-- Node1&#45;&gt;Node11 -->
<g id="edge10_Node000001_Node000011" class="edge">
<title>Node1&#45;&gt;Node11</title>
<g id="a_edge10_Node000001_Node000011"><a xlink:title=" ">
<path fill="none" stroke="#63b8ff" d="M1200.01,-67.88C1240.8,-55.49 1291,-40.24 1325.75,-29.68"/>
<polygon fill="#63b8ff" stroke="#63b8ff" points="1326.45,-33.13 1335,-26.87 1324.42,-26.43 1326.45,-33.13"/>
</a>
</g>
</g>
<!-- Node12 -->
<g id="Node000012" class="node">
<title>Node12</title>
<g id="a_Node000012"><a xlink:title=" ">
<polygon fill="#e0e0e0" stroke="#999999" points="1593.12,-26 1457.88,-26 1457.88,-6 1593.12,-6 1593.12,-26"/>
<text text-anchor="middle" x="1525.5" y="-12.5" font-family="Helvetica,sans-Serif" font-size="10.00">javafx.scene.control.Tooltip</text>
</a>
</g>
</g>
<!-- Node1&#45;&gt;Node12 -->
<g id="edge11_Node000001_Node000012" class="edge">
<title>Node1&#45;&gt;Node12</title>
<g id="a_edge11_Node000001_Node000012"><a xlink:title=" ">
<path fill="none" stroke="#63b8ff" d="M1200.03,-76.85C1264.49,-65.51 1363.04,-47.98 1448.5,-32 1454.36,-30.9 1460.46,-29.75 1466.56,-28.58"/>
<polygon fill="#63b8ff" stroke="#63b8ff" points="1466.82,-32.09 1475.98,-26.76 1465.5,-25.22 1466.82,-32.09"/>
</a>
</g>
</g>
<!-- Node13 -->
<g id="Node000013" class="node">
<title>Node13</title>
<g id="a_Node000013"><a xlink:title=" ">
<polygon fill="#e0e0e0" stroke="#999999" points="1739.75,-26 1611.25,-26 1611.25,-6 1739.75,-6 1739.75,-26"/>
<text text-anchor="middle" x="1675.5" y="-12.5" font-family="Helvetica,sans-Serif" font-size="10.00">javafx.scene.layout.HBox</text>
</a>
</g>
</g>
<!-- Node1&#45;&gt;Node13 -->
<g id="edge12_Node000001_Node000013" class="edge">
<title>Node1&#45;&gt;Node13</title>
<g id="a_edge12_Node000001_Node000013"><a xlink:title=" ">
<path fill="none" stroke="#63b8ff" d="M1199.93,-82.42C1292.2,-73.28 1460.14,-55.18 1602.5,-32 1608.57,-31.01 1614.89,-29.87 1621.18,-28.68"/>
<polygon fill="#63b8ff" stroke="#63b8ff" points="1621.75,-32.13 1630.89,-26.77 1620.4,-25.26 1621.75,-32.13"/>
</a>
</g>
</g>
<!-- Node14 -->
<g id="Node000014" class="node">
<title>Node14</title>
<g id="a_Node000014"><a xlink:title=" ">
<polygon fill="#e0e0e0" stroke="#999999" points="1892.75,-26 1758.25,-26 1758.25,-6 1892.75,-6 1892.75,-26"/>
<text text-anchor="middle" x="1825.5" y="-12.5" font-family="Helvetica,sans-Serif" font-size="10.00">javafx.scene.layout.Priority</text>
</a>
</g>
</g>
<!-- Node1&#45;&gt;Node14 -->
<g id="edge13_Node000001_Node000014" class="edge">
<title>Node1&#45;&gt;Node14</title>
<g id="a_edge13_Node000001_Node000014"><a xlink:title=" ">
<path fill="none" stroke="#63b8ff" d="M1199.81,-84.89C1314.4,-77.57 1550.38,-60.36 1748.5,-32 1755.4,-31.01 1762.62,-29.82 1769.76,-28.54"/>
<polygon fill="#63b8ff" stroke="#63b8ff" points="1770.16,-32.03 1779.35,-26.76 1768.88,-25.15 1770.16,-32.03"/>
</a>
</g>
</g>
<!-- Node15 -->
<g id="Node000015" class="node">
<title>Node15</title>
<g id="a_Node000015"><a xlink:title=" ">
<polygon fill="#e0e0e0" stroke="#999999" points="1993.88,-26 1911.12,-26 1911.12,-6 1993.88,-6 1993.88,-26"/>
<text text-anchor="middle" x="1952.5" y="-12.5" font-family="Helvetica,sans-Serif" font-size="10.00">org.slf4j.Logger</text>
</a>
</g>
</g>
<!-- Node1&#45;&gt;Node15 -->
<g id="edge14_Node000001_Node000015" class="edge">
<title>Node1&#45;&gt;Node15</title>
<g id="a_edge14_Node000001_Node000015"><a xlink:title=" ">
<path fill="none" stroke="#63b8ff" d="M1199.97,-88.78C1335.84,-87.27 1645.81,-78.51 1901.5,-32 1905.34,-31.3 1909.3,-30.42 1913.24,-29.45"/>
<polygon fill="#63b8ff" stroke="#63b8ff" points="1913.97,-32.88 1922.7,-26.89 1912.14,-26.12 1913.97,-32.88"/>
</a>
</g>
</g>
<!-- Node16 -->
<g id="Node000016" class="node">
<title>Node16</title>
<g id="a_Node000016"><a xlink:title=" ">
<polygon fill="#e0e0e0" stroke="#999999" points="2127.38,-26 2011.62,-26 2011.62,-6 2127.38,-6 2127.38,-26"/>
<text text-anchor="middle" x="2069.5" y="-12.5" font-family="Helvetica,sans-Serif" font-size="10.00">org.slf4j.LoggerFactory</text>
</a>
</g>
</g>
<!-- Node1&#45;&gt;Node16 -->
<g id="edge15_Node000001_Node000016" class="edge">
<title>Node1&#45;&gt;Node16</title>
<g id="a_edge15_Node000001_Node000016"><a xlink:title=" ">
<path fill="none" stroke="#63b8ff" d="M1200.11,-88.1C1348.4,-85.4 1706.1,-74.6 2002.5,-32 2008.55,-31.13 2014.86,-30.01 2021.08,-28.77"/>
<polygon fill="#63b8ff" stroke="#63b8ff" points="2021.58,-32.24 2030.65,-26.75 2020.14,-25.39 2021.58,-32.24"/>
</a>
</g>
</g>
<!-- Node17 -->
<g id="Node000017" class="node">
<title>Node17</title>
<g id="a_Node000017"><a xlink:title=" ">
<polygon fill="#e0e0e0" stroke="#999999" points="2314,-32 2145,-32 2145,0 2314,0 2314,-32"/>
<text text-anchor="start" x="2153" y="-18.5" font-family="Helvetica,sans-Serif" font-size="10.00">fr.softsf.sudokufx.view.component.</text>
<text text-anchor="middle" x="2229.5" y="-6.5" font-family="Helvetica,sans-Serif" font-size="10.00">MyAlert</text>
</a>
</g>
</g>
<!-- Node1&#45;&gt;Node17 -->
<g id="edge16_Node000001_Node000017" class="edge">
<title>Node1&#45;&gt;Node17</title>
<g id="a_edge16_Node000001_Node000017"><a xlink:title=" ">
<path fill="none" stroke="#63b8ff" d="M1199.92,-87.54C1361.8,-83.59 1777.02,-70.39 2133.33,-32.28"/>
<polygon fill="#63b8ff" stroke="#63b8ff" points="2133.58,-35.77 2143.15,-31.22 2132.83,-28.81 2133.58,-35.77"/>
</a>
</g>
</g>
</g>
</svg>
