<?xml version="1.0" encoding="UTF-8" standalone="no"?>
<!DOCTYPE svg PUBLIC "-//W3C//DTD SVG 1.1//EN"
 "http://www.w3.org/Graphics/SVG/1.1/DTD/svg11.dtd">
<!-- Generated by graphviz version 12.2.1 (20241206.2353)
 -->
<!-- Title: src/main/java/fr/softsf/sudokufx/view/component/list/GenericDtoListCell.java Pages: 1 -->
<!--zoomable 120 -->

<svg id="main" version="1.1" xmlns="http://www.w3.org/2000/svg" xmlns:xlink="http://www.w3.org/1999/xlink" xml:space="preserve" onload="init(evt)">

<style type="text/css"><![CDATA[
.node, .edge {opacity: 0.7;}
.node.selected, .edge.selected {opacity: 1;}
.edge:hover path { stroke: red; }
.edge:hover polygon { stroke: red; fill: red; }
]]></style>

<defs>
  <circle id="rim" cx="0" cy="0" r="7"/>
  <circle id="rim2" cx="0" cy="0" r="3.5"/>
  <g id="zoomPlus">
    <use xlink:href="#rim" fill="#404040"><set attributeName="fill" to="#808080" begin="zoomplus.mouseover" end="zoomplus.mouseout"/></use>
    <path d="M-4,0h8M0,-4v8" fill="none" stroke="white" stroke-width="1.5" pointer-events="none"/>
  </g>
  <g id="zoomMin">
    <use xlink:href="#rim" fill="#404040"><set attributeName="fill" to="#808080" begin="zoomminus.mouseover" end="zoomminus.mouseout"/></use>
    <path d="M-4,0h8" fill="none" stroke="white" stroke-width="1.5" pointer-events="none"/>
  </g>
  <g id="arrowUp" transform="translate(30 24)">
    <use xlink:href="#rim"/>
    <path pointer-events="none" fill="none" stroke="white" stroke-width="1.5" d="M0,-3.0v7 M-2.5,-0.5L0,-3.0L2.5,-0.5"/>
  </g>
  <g id="arrowRight" transform="rotate(90) translate(36 -43)">
    <use xlink:href="#rim"/>
    <path pointer-events="none" fill="none" stroke="white" stroke-width="1.5" d="M0,-3.0v7 M-2.5,-0.5L0,-3.0L2.5,-0.5"/>
  </g>
  <g id="arrowDown" transform="rotate(180) translate(-30 -48)">
    <use xlink:href="#rim"/>
    <path pointer-events="none" fill="none" stroke="white" stroke-width="1.5" d="M0,-3.0v7 M-2.5,-0.5L0,-3.0L2.5,-0.5"/>
  </g>
  <g id="arrowLeft" transform="rotate(270) translate(-36 17)">
    <use xlink:href="#rim"/>
    <path pointer-events="none" fill="none" stroke="white" stroke-width="1.5" d="M0,-3.0v7 M-2.5,-0.5L0,-3.0L2.5,-0.5"/>
  </g>
  <g id="resetDef">
    <use xlink:href="#rim2" fill="#404040"><set attributeName="fill" to="#808080" begin="reset.mouseover" end="reset.mouseout"/></use>
  </g>
</defs>
<script type="application/ecmascript">
var viewWidth = 3061;
var viewHeight = 120;
var sectionId = 'dynsection-0';
</script>
<script type="application/ecmascript" xlink:href="svg.min.js"/>
<svg id="graph" class="graph">
<g id="viewport">
<title>src/main/java/fr/softsf/sudokufx/view/component/list/GenericDtoListCell.java</title>
<!-- Node1 -->
<g id="Node000001" class="node">
<title>Node1</title>
<g id="a_Node000001"><a xlink:title=" ">
<polygon fill="#999999" stroke="#666666" points="1510.62,-112 1372.38,-112 1372.38,-68 1510.62,-68 1510.62,-112"/>
<text text-anchor="start" x="1380.38" y="-98.5" font-family="Helvetica,sans-Serif" font-size="10.00">src/main/java/fr/softsf</text>
<text text-anchor="start" x="1380.38" y="-86.5" font-family="Helvetica,sans-Serif" font-size="10.00">/sudokufx/view/component</text>
<text text-anchor="middle" x="1441.5" y="-74.5" font-family="Helvetica,sans-Serif" font-size="10.00">/list/GenericDtoListCell.java</text>
</a>
</g>
</g>
<!-- Node2 -->
<g id="Node000002" class="node">
<title>Node2</title>
<g id="a_Node000002"><a xlink:title=" ">
<polygon fill="#e0e0e0" stroke="#999999" points="127,-26 0,-26 0,-6 127,-6 127,-26"/>
<text text-anchor="middle" x="63.5" y="-12.5" font-family="Helvetica,sans-Serif" font-size="10.00">java.text.MessageFormat</text>
</a>
</g>
</g>
<!-- Node1&#45;&gt;Node2 -->
<g id="edge1_Node000001_Node000002" class="edge">
<title>Node1&#45;&gt;Node2</title>
<g id="a_edge1_Node000001_Node000002"><a xlink:title=" ">
<path fill="none" stroke="#63b8ff" d="M1372.06,-87.43C1137.98,-81.89 379,-62.02 136.5,-32 129.51,-31.13 122.18,-29.96 114.99,-28.64"/>
<polygon fill="#63b8ff" stroke="#63b8ff" points="115.82,-25.24 105.34,-26.77 114.49,-32.11 115.82,-25.24"/>
</a>
</g>
</g>
<!-- Node3 -->
<g id="Node000003" class="node">
<title>Node3</title>
<g id="a_Node000003"><a xlink:title=" ">
<polygon fill="#e0e0e0" stroke="#999999" points="231.75,-26 145.25,-26 145.25,-6 231.75,-6 231.75,-26"/>
<text text-anchor="middle" x="188.5" y="-12.5" font-family="Helvetica,sans-Serif" font-size="10.00">java.util.Objects</text>
</a>
</g>
</g>
<!-- Node1&#45;&gt;Node3 -->
<g id="edge2_Node000001_Node000003" class="edge">
<title>Node1&#45;&gt;Node3</title>
<g id="a_edge2_Node000001_Node000003"><a xlink:title=" ">
<path fill="none" stroke="#63b8ff" d="M1372.14,-87.83C1150.44,-83.77 460.59,-68.45 240.5,-32 236.36,-31.31 232.09,-30.41 227.85,-29.39"/>
<polygon fill="#63b8ff" stroke="#63b8ff" points="228.86,-26.04 218.3,-26.86 227.06,-32.8 228.86,-26.04"/>
</a>
</g>
</g>
<!-- Node4 -->
<g id="Node000004" class="node">
<title>Node4</title>
<g id="a_Node000004"><a xlink:title=" ">
<polygon fill="#e0e0e0" stroke="#999999" points="385.12,-26 249.88,-26 249.88,-6 385.12,-6 385.12,-26"/>
<text text-anchor="middle" x="317.5" y="-12.5" font-family="Helvetica,sans-Serif" font-size="10.00">java.util.function.Consumer</text>
</a>
</g>
</g>
<!-- Node1&#45;&gt;Node4 -->
<g id="edge3_Node000001_Node000004" class="edge">
<title>Node1&#45;&gt;Node4</title>
<g id="a_edge3_Node000001_Node000004"><a xlink:title=" ">
<path fill="none" stroke="#63b8ff" d="M1371.99,-88.52C1203.61,-86.65 760.78,-77.43 394.5,-32 387.05,-31.08 379.25,-29.86 371.58,-28.51"/>
<polygon fill="#63b8ff" stroke="#63b8ff" points="372.46,-25.11 361.99,-26.74 371.19,-32 372.46,-25.11"/>
</a>
</g>
</g>
<!-- Node5 -->
<g id="Node000005" class="node">
<title>Node5</title>
<g id="a_Node000005"><a xlink:title=" ">
<polygon fill="#e0e0e0" stroke="#999999" points="531.38,-26 403.62,-26 403.62,-6 531.38,-6 531.38,-26"/>
<text text-anchor="middle" x="467.5" y="-12.5" font-family="Helvetica,sans-Serif" font-size="10.00">java.util.function.Function</text>
</a>
</g>
</g>
<!-- Node1&#45;&gt;Node5 -->
<g id="edge4_Node000001_Node000005" class="edge">
<title>Node1&#45;&gt;Node5</title>
<g id="a_edge4_Node000001_Node000005"><a xlink:title=" ">
<path fill="none" stroke="#63b8ff" d="M1371.94,-87.9C1220.27,-84.78 848.68,-73.21 540.5,-32 533.76,-31.1 526.72,-29.94 519.78,-28.66"/>
<polygon fill="#63b8ff" stroke="#63b8ff" points="520.61,-25.25 510.12,-26.79 519.27,-32.13 520.61,-25.25"/>
</a>
</g>
</g>
<!-- Node6 -->
<g id="Node000006" class="node">
<title>Node6</title>
<g id="a_Node000006"><a xlink:title=" ">
<polygon fill="#e0e0e0" stroke="#999999" points="675.25,-26 549.75,-26 549.75,-6 675.25,-6 675.25,-26"/>
<text text-anchor="middle" x="612.5" y="-12.5" font-family="Helvetica,sans-Serif" font-size="10.00">java.util.function.Supplier</text>
</a>
</g>
</g>
<!-- Node1&#45;&gt;Node6 -->
<g id="edge5_Node000001_Node000006" class="edge">
<title>Node1&#45;&gt;Node6</title>
<g id="a_edge5_Node000001_Node000006"><a xlink:title=" ">
<path fill="none" stroke="#63b8ff" d="M1372.03,-86.79C1238.33,-81.88 936.2,-67.54 684.5,-32 678.02,-31.09 671.25,-29.94 664.56,-28.68"/>
<polygon fill="#63b8ff" stroke="#63b8ff" points="665.43,-25.29 654.94,-26.79 664.08,-32.15 665.43,-25.29"/>
</a>
</g>
</g>
<!-- Node7 -->
<g id="Node000007" class="node">
<title>Node7</title>
<g id="a_Node000007"><a xlink:title=" ">
<polygon fill="#e0e0e0" stroke="#999999" points="827.38,-32 693.62,-32 693.62,0 827.38,0 827.38,-32"/>
<text text-anchor="start" x="701.62" y="-18.5" font-family="Helvetica,sans-Serif" font-size="10.00">javafx.beans.binding.String</text>
<text text-anchor="middle" x="760.5" y="-6.5" font-family="Helvetica,sans-Serif" font-size="10.00">Binding</text>
</a>
</g>
</g>
<!-- Node1&#45;&gt;Node7 -->
<g id="edge6_Node000001_Node000007" class="edge">
<title>Node1&#45;&gt;Node7</title>
<g id="a_edge6_Node000001_Node000007"><a xlink:title=" ">
<path fill="none" stroke="#63b8ff" d="M1372.15,-84.82C1261.36,-77.63 1037.43,-60.99 838.74,-32.39"/>
<polygon fill="#63b8ff" stroke="#63b8ff" points="839.4,-28.95 829,-30.98 838.39,-35.88 839.4,-28.95"/>
</a>
</g>
</g>
<!-- Node8 -->
<g id="Node000008" class="node">
<title>Node8</title>
<g id="a_Node000008"><a xlink:title=" ">
<polygon fill="#e0e0e0" stroke="#999999" points="972,-26 845,-26 845,-6 972,-6 972,-26"/>
<text text-anchor="middle" x="908.5" y="-12.5" font-family="Helvetica,sans-Serif" font-size="10.00">javafx.scene.control.Alert</text>
</a>
</g>
</g>
<!-- Node1&#45;&gt;Node8 -->
<g id="edge7_Node000001_Node000008" class="edge">
<title>Node1&#45;&gt;Node8</title>
<g id="a_edge7_Node000001_Node000008"><a xlink:title=" ">
<path fill="none" stroke="#63b8ff" d="M1372.12,-82.22C1281.69,-72.98 1118.73,-54.91 980.5,-32 974.52,-31.01 968.27,-29.87 962.08,-28.67"/>
<polygon fill="#63b8ff" stroke="#63b8ff" points="963.01,-25.29 952.52,-26.76 961.64,-32.15 963.01,-25.29"/>
</a>
</g>
</g>
<!-- Node9 -->
<g id="Node000009" class="node">
<title>Node9</title>
<g id="a_Node000009"><a xlink:title=" ">
<polygon fill="#e0e0e0" stroke="#999999" points="1125.12,-26 989.88,-26 989.88,-6 1125.12,-6 1125.12,-26"/>
<text text-anchor="middle" x="1057.5" y="-12.5" font-family="Helvetica,sans-Serif" font-size="10.00">javafx.scene.control.Button</text>
</a>
</g>
</g>
<!-- Node1&#45;&gt;Node9 -->
<g id="edge8_Node000001_Node000009" class="edge">
<title>Node1&#45;&gt;Node9</title>
<g id="a_edge8_Node000001_Node000009"><a xlink:title=" ">
<path fill="none" stroke="#63b8ff" d="M1371.97,-76.27C1309.72,-64.83 1215.98,-47.5 1134.5,-32 1128.65,-30.89 1122.54,-29.72 1116.45,-28.54"/>
<polygon fill="#63b8ff" stroke="#63b8ff" points="1117.51,-25.18 1107.03,-26.71 1116.18,-32.05 1117.51,-25.18"/>
</a>
</g>
</g>
<!-- Node10 -->
<g id="Node000010" class="node">
<title>Node10</title>
<g id="a_Node000010"><a xlink:title=" ">
<polygon fill="#e0e0e0" stroke="#999999" points="1273.5,-26 1143.5,-26 1143.5,-6 1273.5,-6 1273.5,-26"/>
<text text-anchor="middle" x="1208.5" y="-12.5" font-family="Helvetica,sans-Serif" font-size="10.00">javafx.scene.control.Label</text>
</a>
</g>
</g>
<!-- Node1&#45;&gt;Node10 -->
<g id="edge9_Node000001_Node000010" class="edge">
<title>Node1&#45;&gt;Node10</title>
<g id="a_edge9_Node000001_Node000010"><a xlink:title=" ">
<path fill="none" stroke="#63b8ff" d="M1372.22,-67.59C1332.45,-55.3 1283.84,-40.28 1249.96,-29.81"/>
<polygon fill="#63b8ff" stroke="#63b8ff" points="1251.11,-26.5 1240.52,-26.89 1249.04,-33.19 1251.11,-26.5"/>
</a>
</g>
</g>
<!-- Node11 -->
<g id="Node000011" class="node">
<title>Node11</title>
<g id="a_Node000011"><a xlink:title=" ">
<polygon fill="#e0e0e0" stroke="#999999" points="1431.38,-26 1291.62,-26 1291.62,-6 1431.38,-6 1431.38,-26"/>
<text text-anchor="middle" x="1361.5" y="-12.5" font-family="Helvetica,sans-Serif" font-size="10.00">javafx.scene.control.ListCell</text>
</a>
</g>
</g>
<!-- Node1&#45;&gt;Node11 -->
<g id="edge10_Node000001_Node000011" class="edge">
<title>Node1&#45;&gt;Node11</title>
<g id="a_edge10_Node000001_Node000011"><a xlink:title=" ">
<path fill="none" stroke="#63b8ff" d="M1417.93,-67.79C1405.86,-56.92 1391.36,-43.88 1380.09,-33.73"/>
<polygon fill="#63b8ff" stroke="#63b8ff" points="1382.75,-31.41 1372.97,-27.32 1378.06,-36.62 1382.75,-31.41"/>
</a>
</g>
</g>
<!-- Node12 -->
<g id="Node000012" class="node">
<title>Node12</title>
<g id="a_Node000012"><a xlink:title=" ">
<polygon fill="#e0e0e0" stroke="#999999" points="1593.62,-26 1449.38,-26 1449.38,-6 1593.62,-6 1593.62,-26"/>
<text text-anchor="middle" x="1521.5" y="-12.5" font-family="Helvetica,sans-Serif" font-size="10.00">javafx.scene.control.ListView</text>
</a>
</g>
</g>
<!-- Node1&#45;&gt;Node12 -->
<g id="edge11_Node000001_Node000012" class="edge">
<title>Node1&#45;&gt;Node12</title>
<g id="a_edge11_Node000001_Node000012"><a xlink:title=" ">
<path fill="none" stroke="#63b8ff" d="M1465.07,-67.79C1477.14,-56.92 1491.64,-43.88 1502.91,-33.73"/>
<polygon fill="#63b8ff" stroke="#63b8ff" points="1504.94,-36.62 1510.03,-27.32 1500.25,-31.41 1504.94,-36.62"/>
</a>
</g>
</g>
<!-- Node13 -->
<g id="Node000013" class="node">
<title>Node13</title>
<g id="a_Node000013"><a xlink:title=" ">
<polygon fill="#e0e0e0" stroke="#999999" points="1747.12,-26 1611.88,-26 1611.88,-6 1747.12,-6 1747.12,-26"/>
<text text-anchor="middle" x="1679.5" y="-12.5" font-family="Helvetica,sans-Serif" font-size="10.00">javafx.scene.control.Tooltip</text>
</a>
</g>
</g>
<!-- Node1&#45;&gt;Node13 -->
<g id="edge12_Node000001_Node000013" class="edge">
<title>Node1&#45;&gt;Node13</title>
<g id="a_edge12_Node000001_Node000013"><a xlink:title=" ">
<path fill="none" stroke="#63b8ff" d="M1510.98,-67.98C1551.96,-55.58 1602.48,-40.3 1637.46,-29.72"/>
<polygon fill="#63b8ff" stroke="#63b8ff" points="1638.23,-33.14 1646.79,-26.9 1636.2,-26.44 1638.23,-33.14"/>
</a>
</g>
</g>
<!-- Node14 -->
<g id="Node000014" class="node">
<title>Node14</title>
<g id="a_Node000014"><a xlink:title=" ">
<polygon fill="#e0e0e0" stroke="#999999" points="1893.75,-26 1765.25,-26 1765.25,-6 1893.75,-6 1893.75,-26"/>
<text text-anchor="middle" x="1829.5" y="-12.5" font-family="Helvetica,sans-Serif" font-size="10.00">javafx.scene.layout.HBox</text>
</a>
</g>
</g>
<!-- Node1&#45;&gt;Node14 -->
<g id="edge13_Node000001_Node000014" class="edge">
<title>Node1&#45;&gt;Node14</title>
<g id="a_edge13_Node000001_Node000014"><a xlink:title=" ">
<path fill="none" stroke="#63b8ff" d="M1511.03,-76.9C1574.92,-65.68 1672.19,-48.29 1756.5,-32 1762,-30.94 1767.72,-29.81 1773.44,-28.66"/>
<polygon fill="#63b8ff" stroke="#63b8ff" points="1773.77,-32.16 1782.88,-26.75 1772.38,-25.3 1773.77,-32.16"/>
</a>
</g>
</g>
<!-- Node15 -->
<g id="Node000015" class="node">
<title>Node15</title>
<g id="a_Node000015"><a xlink:title=" ">
<polygon fill="#e0e0e0" stroke="#999999" points="2046.75,-26 1912.25,-26 1912.25,-6 2046.75,-6 2046.75,-26"/>
<text text-anchor="middle" x="1979.5" y="-12.5" font-family="Helvetica,sans-Serif" font-size="10.00">javafx.scene.layout.Priority</text>
</a>
</g>
</g>
<!-- Node1&#45;&gt;Node15 -->
<g id="edge14_Node000001_Node000015" class="edge">
<title>Node1&#45;&gt;Node15</title>
<g id="a_edge14_Node000001_Node000015"><a xlink:title=" ">
<path fill="none" stroke="#63b8ff" d="M1510.83,-81.94C1601.22,-72.4 1764.12,-54.01 1902.5,-32 1908.96,-30.97 1915.71,-29.8 1922.41,-28.58"/>
<polygon fill="#63b8ff" stroke="#63b8ff" points="1922.91,-32.05 1932.1,-26.76 1921.62,-25.17 1922.91,-32.05"/>
</a>
</g>
</g>
<!-- Node16 -->
<g id="Node000016" class="node">
<title>Node16</title>
<g id="a_Node000016"><a xlink:title=" ">
<polygon fill="#e0e0e0" stroke="#999999" points="2271.75,-32 2065.25,-32 2065.25,0 2271.75,0 2271.75,-32"/>
<text text-anchor="start" x="2073.25" y="-18.5" font-family="Helvetica,sans-Serif" font-size="10.00">org.apache.logging.log4j.internal.annotation.</text>
<text text-anchor="middle" x="2168.5" y="-6.5" font-family="Helvetica,sans-Serif" font-size="10.00">SuppressFBWarnings</text>
</a>
</g>
</g>
<!-- Node1&#45;&gt;Node16 -->
<g id="edge15_Node000001_Node000016" class="edge">
<title>Node1&#45;&gt;Node16</title>
<g id="a_edge15_Node000001_Node000016"><a xlink:title=" ">
<path fill="none" stroke="#63b8ff" d="M1511.11,-83.44C1623,-74.3 1850.03,-54.93 2053.55,-32.19"/>
<polygon fill="#63b8ff" stroke="#63b8ff" points="2053.71,-35.69 2063.26,-31.1 2052.93,-28.74 2053.71,-35.69"/>
</a>
</g>
</g>
<!-- Node17 -->
<g id="Node000017" class="node">
<title>Node17</title>
<g id="a_Node000017"><a xlink:title=" ">
<polygon fill="#e0e0e0" stroke="#999999" points="2372.88,-26 2290.12,-26 2290.12,-6 2372.88,-6 2372.88,-26"/>
<text text-anchor="middle" x="2331.5" y="-12.5" font-family="Helvetica,sans-Serif" font-size="10.00">org.slf4j.Logger</text>
</a>
</g>
</g>
<!-- Node1&#45;&gt;Node17 -->
<g id="edge16_Node000001_Node000017" class="edge">
<title>Node1&#45;&gt;Node17</title>
<g id="a_edge16_Node000001_Node000017"><a xlink:title=" ">
<path fill="none" stroke="#63b8ff" d="M1510.91,-89.38C1655.35,-89.05 1998.28,-82.46 2280.5,-32 2284.39,-31.3 2288.4,-30.42 2292.39,-29.44"/>
<polygon fill="#63b8ff" stroke="#63b8ff" points="2293.24,-32.83 2301.98,-26.84 2291.41,-26.08 2293.24,-32.83"/>
</a>
</g>
</g>
<!-- Node18 -->
<g id="Node000018" class="node">
<title>Node18</title>
<g id="a_Node000018"><a xlink:title=" ">
<polygon fill="#e0e0e0" stroke="#999999" points="2506.38,-26 2390.62,-26 2390.62,-6 2506.38,-6 2506.38,-26"/>
<text text-anchor="middle" x="2448.5" y="-12.5" font-family="Helvetica,sans-Serif" font-size="10.00">org.slf4j.LoggerFactory</text>
</a>
</g>
</g>
<!-- Node1&#45;&gt;Node18 -->
<g id="edge17_Node000001_Node000018" class="edge">
<title>Node1&#45;&gt;Node18</title>
<g id="a_edge17_Node000001_Node000018"><a xlink:title=" ">
<path fill="none" stroke="#63b8ff" d="M1510.87,-88.57C1667.1,-86.79 2058.13,-77.7 2381.5,-32 2387.55,-31.15 2393.86,-30.03 2400.09,-28.8"/>
<polygon fill="#63b8ff" stroke="#63b8ff" points="2400.59,-32.27 2409.65,-26.78 2399.14,-25.42 2400.59,-32.27"/>
</a>
</g>
</g>
<!-- Node19 -->
<g id="Node000019" class="node">
<title>Node19</title>
<g id="a_Node000019"><a xlink:title=" ">
<polygon fill="#e0e0e0" stroke="#999999" points="2692.62,-32 2524.38,-32 2524.38,0 2692.62,0 2692.62,-32"/>
<text text-anchor="start" x="2532.38" y="-18.5" font-family="Helvetica,sans-Serif" font-size="10.00">fr.softsf.sudokufx.common.enums.</text>
<text text-anchor="middle" x="2608.5" y="-6.5" font-family="Helvetica,sans-Serif" font-size="10.00">PlayerConstants</text>
</a>
</g>
</g>
<!-- Node1&#45;&gt;Node19 -->
<g id="edge18_Node000001_Node000019" class="edge">
<title>Node1&#45;&gt;Node19</title>
<g id="a_edge18_Node000001_Node000019"><a xlink:title=" ">
<path fill="none" stroke="#63b8ff" d="M1510.81,-87.89C1680.2,-84.61 2128.8,-72.62 2512.57,-32.24"/>
<polygon fill="#63b8ff" stroke="#63b8ff" points="2512.82,-35.73 2522.4,-31.2 2512.09,-28.77 2512.82,-35.73"/>
</a>
</g>
</g>
<!-- Node20 -->
<g id="Node000020" class="node">
<title>Node20</title>
<g id="a_Node000020"><a xlink:title=" ">
<polygon fill="#e0e0e0" stroke="#999999" points="2866.25,-26 2710.75,-26 2710.75,-6 2866.25,-6 2866.25,-26"/>
<text text-anchor="middle" x="2788.5" y="-12.5" font-family="Helvetica,sans-Serif" font-size="10.00">fr.softsf.sudokufx.dto.PlayerDto</text>
</a>
</g>
</g>
<!-- Node1&#45;&gt;Node20 -->
<g id="edge19_Node000001_Node000020" class="edge">
<title>Node1&#45;&gt;Node20</title>
<g id="a_edge19_Node000001_Node000020"><a xlink:title=" ">
<path fill="none" stroke="#63b8ff" d="M1511.05,-88.91C1701.88,-88.01 2249.5,-80.99 2701.5,-32 2710.29,-31.05 2719.53,-29.76 2728.57,-28.35"/>
<polygon fill="#63b8ff" stroke="#63b8ff" points="2729.08,-31.81 2738.38,-26.74 2727.95,-24.9 2729.08,-31.81"/>
</a>
</g>
</g>
<!-- Node21 -->
<g id="Node000021" class="node">
<title>Node21</title>
<g id="a_Node000021"><a xlink:title=" ">
<polygon fill="#e0e0e0" stroke="#999999" points="3053,-32 2884,-32 2884,0 3053,0 3053,-32"/>
<text text-anchor="start" x="2892" y="-18.5" font-family="Helvetica,sans-Serif" font-size="10.00">fr.softsf.sudokufx.view.component.</text>
<text text-anchor="middle" x="2968.5" y="-6.5" font-family="Helvetica,sans-Serif" font-size="10.00">MyAlert</text>
</a>
</g>
</g>
<!-- Node1&#45;&gt;Node21 -->
<g id="edge20_Node000001_Node000021" class="edge">
<title>Node1&#45;&gt;Node21</title>
<g id="a_edge20_Node000001_Node000021"><a xlink:title=" ">
<path fill="none" stroke="#63b8ff" d="M1511.1,-89.19C1717.46,-89.13 2344.06,-84.4 2872.37,-32.24"/>
<polygon fill="#63b8ff" stroke="#63b8ff" points="2872.55,-35.74 2882.15,-31.26 2871.86,-28.77 2872.55,-35.74"/>
</a>
</g>
</g>
</g>
</svg>

<g id="navigator" transform="translate(0 0)" fill="#404254">
  <rect fill="#f2f5e9" fill-opacity="0.5" stroke="#606060" stroke-width=".5" x="0" y="0" width="60" height="60"/>
  <use id="zoomplus" xlink:href="#zoomPlus" x="17" y="9" onmousedown="handleZoom(evt,'in')"/>
  <use id="zoomminus" xlink:href="#zoomMin" x="42" y="9" onmousedown="handleZoom(evt,'out')"/>
  <use id="reset" xlink:href="#resetDef" x="30" y="36" onmousedown="handleReset()"/>
   <use id="arrowup" xlink:href="#arrowUp" x="0" y="0" onmousedown="handlePan(0,-1)"/>
  <use id="arrowright" xlink:href="#arrowRight" x="0" y="0" onmousedown="handlePan(1,0)"/>
  <use id="arrowdown" xlink:href="#arrowDown" x="0" y="0" onmousedown="handlePan(0,1)"/>
  <use id="arrowleft" xlink:href="#arrowLeft" x="0" y="0" onmousedown="handlePan(-1,0)"/>
</g>
<svg viewBox="0 0 15 15" width="100%" height="30px" preserveAspectRatio="xMaxYMin meet">
 <g id="arrow_out" transform="scale(0.3 0.3)">
  <a xlink:href="_generic_dto_list_cell_8java__incl_org.svg" target="_base">
   <rect id="button" ry="5" rx="5" y="6" x="6" height="38" width="38"
        fill="#f2f5e9" fill-opacity="0.5" stroke="#606060" stroke-width="1.0"/>
   <path id="arrow"
     d="M 11.500037,31.436501 C 11.940474,20.09759 22.043105,11.32322 32.158766,21.979434 L 37.068811,17.246167 C 37.068811,17.246167 37.088388,32 37.088388,32 L 22.160133,31.978069 C 22.160133,31.978069 26.997745,27.140456 26.997745,27.140456 C 18.528582,18.264221 13.291696,25.230495 11.500037,31.436501 z"
     style="fill:#404040;"/>
  </a>
 </g>
</svg>

<style type='text/css'>
<![CDATA[
[data-mouse-over-selected='false'] { opacity: 0.7; }
[data-mouse-over-selected='true']  { opacity: 1.0; }
]]>
</style>
<script type="application/ecmascript"><![CDATA[
document.addEventListener('DOMContentLoaded', (event) => {
  highlightEdges();
  highlightAdjacentNodes();
});
]]></script>
</svg>
