<?xml version="1.0" encoding="UTF-8" standalone="no"?>
<!DOCTYPE svg PUBLIC "-//W3C//DTD SVG 1.1//EN"
 "http://www.w3.org/Graphics/SVG/1.1/DTD/svg11.dtd">
<!-- Generated by graphviz version 12.2.1 (20241206.2353)
 -->
<!-- Title: src/main/java/fr/softsf/sudokufx/viewmodel/grid/GridViewModel.java Pages: 1 -->
<svg width="4271pt" height="120pt"
 viewBox="0.00 0.00 4270.50 120.00" xmlns="http://www.w3.org/2000/svg" xmlns:xlink="http://www.w3.org/1999/xlink">
<g id="graph0" class="graph" transform="scale(1 1) rotate(0) translate(4 116)">
<title>src/main/java/fr/softsf/sudokufx/viewmodel/grid/GridViewModel.java</title>
<!-- Node1 -->
<g id="Node000001" class="node">
<title>Node1</title>
<g id="a_Node000001"><a xlink:title=" ">
<polygon fill="#999999" stroke="#666666" points="1771.12,-112 1644.12,-112 1644.12,-68 1771.12,-68 1771.12,-112"/>
<text text-anchor="start" x="1652.12" y="-98.5" font-family="Helvetica,sans-Serif" font-size="10.00">src/main/java/fr/softsf</text>
<text text-anchor="start" x="1652.12" y="-86.5" font-family="Helvetica,sans-Serif" font-size="10.00">/sudokufx/viewmodel/grid</text>
<text text-anchor="middle" x="1707.62" y="-74.5" font-family="Helvetica,sans-Serif" font-size="10.00">/GridViewModel.java</text>
</a>
</g>
</g>
<!-- Node2 -->
<g id="Node000002" class="node">
<title>Node2</title>
<g id="a_Node000002"><a xlink:title=" ">
<polygon fill="#e0e0e0" stroke="#999999" points="63.25,-26 0,-26 0,-6 63.25,-6 63.25,-26"/>
<text text-anchor="middle" x="31.62" y="-12.5" font-family="Helvetica,sans-Serif" font-size="10.00">java.io.File</text>
</a>
</g>
</g>
<!-- Node1&#45;&gt;Node2 -->
<g id="edge1_Node000001_Node000002" class="edge">
<title>Node1&#45;&gt;Node2</title>
<g id="a_edge1_Node000001_Node000002"><a xlink:title=" ">
<path fill="none" stroke="#63b8ff" d="M1643.7,-87.99C1360.67,-83.38 227.53,-63.08 71.62,-32 68.99,-31.47 66.29,-30.8 63.61,-30.02"/>
<polygon fill="#63b8ff" stroke="#63b8ff" points="64.87,-26.75 54.28,-26.89 62.64,-33.39 64.87,-26.75"/>
</a>
</g>
</g>
<!-- Node3 -->
<g id="Node000003" class="node">
<title>Node3</title>
<g id="a_Node000003"><a xlink:title=" ">
<polygon fill="#e0e0e0" stroke="#999999" points="208.12,-26 81.12,-26 81.12,-6 208.12,-6 208.12,-26"/>
<text text-anchor="middle" x="144.62" y="-12.5" font-family="Helvetica,sans-Serif" font-size="10.00">java.text.MessageFormat</text>
</a>
</g>
</g>
<!-- Node1&#45;&gt;Node3 -->
<g id="edge2_Node000001_Node000003" class="edge">
<title>Node1&#45;&gt;Node3</title>
<g id="a_edge2_Node000001_Node000003"><a xlink:title=" ">
<path fill="none" stroke="#63b8ff" d="M1643.87,-87.96C1396.52,-83.7 500.16,-66.2 217.62,-32 210.54,-31.14 203.13,-29.96 195.85,-28.63"/>
<polygon fill="#63b8ff" stroke="#63b8ff" points="196.56,-25.2 186.08,-26.73 195.23,-32.07 196.56,-25.2"/>
</a>
</g>
</g>
<!-- Node4 -->
<g id="Node000004" class="node">
<title>Node4</title>
<g id="a_Node000004"><a xlink:title=" ">
<polygon fill="#e0e0e0" stroke="#999999" points="315,-26 226.25,-26 226.25,-6 315,-6 315,-26"/>
<text text-anchor="middle" x="270.62" y="-12.5" font-family="Helvetica,sans-Serif" font-size="10.00">java.time.Instant</text>
</a>
</g>
</g>
<!-- Node1&#45;&gt;Node4 -->
<g id="edge3_Node000001_Node000004" class="edge">
<title>Node1&#45;&gt;Node4</title>
<g id="a_edge3_Node000001_Node000004"><a xlink:title=" ">
<path fill="none" stroke="#63b8ff" d="M1643.93,-88.36C1407.86,-85.67 583.06,-73.46 323.62,-32 319.29,-31.31 314.8,-30.38 310.36,-29.32"/>
<polygon fill="#63b8ff" stroke="#63b8ff" points="311.53,-26.01 300.97,-26.88 309.77,-32.79 311.53,-26.01"/>
</a>
</g>
</g>
<!-- Node5 -->
<g id="Node000005" class="node">
<title>Node5</title>
<g id="a_Node000005"><a xlink:title=" ">
<polygon fill="#e0e0e0" stroke="#999999" points="424.5,-26 332.75,-26 332.75,-6 424.5,-6 424.5,-26"/>
<text text-anchor="middle" x="378.62" y="-12.5" font-family="Helvetica,sans-Serif" font-size="10.00">java.util.ArrayList</text>
</a>
</g>
</g>
<!-- Node1&#45;&gt;Node5 -->
<g id="edge4_Node000001_Node000005" class="edge">
<title>Node1&#45;&gt;Node5</title>
<g id="a_edge4_Node000001_Node000005"><a xlink:title=" ">
<path fill="none" stroke="#63b8ff" d="M1643.68,-88.01C1419.6,-84.26 670.67,-69.16 433.62,-32 429,-31.28 424.22,-30.31 419.48,-29.21"/>
<polygon fill="#63b8ff" stroke="#63b8ff" points="420.64,-25.89 410.09,-26.84 418.93,-32.68 420.64,-25.89"/>
</a>
</g>
</g>
<!-- Node6 -->
<g id="Node000006" class="node">
<title>Node6</title>
<g id="a_Node000006"><a xlink:title=" ">
<polygon fill="#e0e0e0" stroke="#999999" points="524.25,-26 443,-26 443,-6 524.25,-6 524.25,-26"/>
<text text-anchor="middle" x="483.62" y="-12.5" font-family="Helvetica,sans-Serif" font-size="10.00">java.util.Arrays</text>
</a>
</g>
</g>
<!-- Node1&#45;&gt;Node6 -->
<g id="edge5_Node000001_Node000006" class="edge">
<title>Node1&#45;&gt;Node6</title>
<g id="a_edge5_Node000001_Node000006"><a xlink:title=" ">
<path fill="none" stroke="#63b8ff" d="M1643.88,-87.99C1431.47,-84.31 749.03,-69.76 532.62,-32 528.83,-31.34 524.91,-30.47 521.03,-29.49"/>
<polygon fill="#63b8ff" stroke="#63b8ff" points="522.32,-26.21 511.75,-26.88 520.43,-32.95 522.32,-26.21"/>
</a>
</g>
</g>
<!-- Node7 -->
<g id="Node000007" class="node">
<title>Node7</title>
<g id="a_Node000007"><a xlink:title=" ">
<polygon fill="#e0e0e0" stroke="#999999" points="643.38,-26 541.88,-26 541.88,-6 643.38,-6 643.38,-26"/>
<text text-anchor="middle" x="592.62" y="-12.5" font-family="Helvetica,sans-Serif" font-size="10.00">java.util.Collections</text>
</a>
</g>
</g>
<!-- Node1&#45;&gt;Node7 -->
<g id="edge6_Node000001_Node000007" class="edge">
<title>Node1&#45;&gt;Node7</title>
<g id="a_edge6_Node000001_Node000007"><a xlink:title=" ">
<path fill="none" stroke="#63b8ff" d="M1643.87,-89.78C1478.95,-90.87 1025.14,-88.1 652.62,-32 647.39,-31.21 641.95,-30.17 636.58,-29"/>
<polygon fill="#63b8ff" stroke="#63b8ff" points="637.73,-25.68 627.19,-26.82 636.14,-32.5 637.73,-25.68"/>
</a>
</g>
</g>
<!-- Node8 -->
<g id="Node000008" class="node">
<title>Node8</title>
<g id="a_Node000008"><a xlink:title=" ">
<polygon fill="#e0e0e0" stroke="#999999" points="729.88,-26 661.38,-26 661.38,-6 729.88,-6 729.88,-26"/>
<text text-anchor="middle" x="695.62" y="-12.5" font-family="Helvetica,sans-Serif" font-size="10.00">java.util.List</text>
</a>
</g>
</g>
<!-- Node1&#45;&gt;Node8 -->
<g id="edge7_Node000001_Node000008" class="edge">
<title>Node1&#45;&gt;Node8</title>
<g id="a_edge7_Node000001_Node000008"><a xlink:title=" ">
<path fill="none" stroke="#63b8ff" d="M1643.9,-87.49C1457.2,-82.7 913.7,-66.14 739.62,-32 736.61,-31.41 733.52,-30.66 730.44,-29.82"/>
<polygon fill="#63b8ff" stroke="#63b8ff" points="731.55,-26.5 720.96,-26.89 729.48,-33.19 731.55,-26.5"/>
</a>
</g>
</g>
<!-- Node9 -->
<g id="Node000009" class="node">
<title>Node9</title>
<g id="a_Node000009"><a xlink:title=" ">
<polygon fill="#e0e0e0" stroke="#999999" points="834.88,-26 748.38,-26 748.38,-6 834.88,-6 834.88,-26"/>
<text text-anchor="middle" x="791.62" y="-12.5" font-family="Helvetica,sans-Serif" font-size="10.00">java.util.Objects</text>
</a>
</g>
</g>
<!-- Node1&#45;&gt;Node9 -->
<g id="edge8_Node000001_Node000009" class="edge">
<title>Node1&#45;&gt;Node9</title>
<g id="a_edge8_Node000001_Node000009"><a xlink:title=" ">
<path fill="none" stroke="#63b8ff" d="M1643.75,-89.34C1499.93,-89.12 1140.19,-83 844.62,-32 840.47,-31.28 836.17,-30.37 831.91,-29.34"/>
<polygon fill="#63b8ff" stroke="#63b8ff" points="832.83,-25.97 822.27,-26.83 831.06,-32.74 832.83,-25.97"/>
</a>
</g>
</g>
<!-- Node10 -->
<g id="Node000010" class="node">
<title>Node10</title>
<g id="a_Node000010"><a xlink:title=" ">
<polygon fill="#e0e0e0" stroke="#999999" points="942,-26 853.25,-26 853.25,-6 942,-6 942,-26"/>
<text text-anchor="middle" x="897.62" y="-12.5" font-family="Helvetica,sans-Serif" font-size="10.00">java.util.Optional</text>
</a>
</g>
</g>
<!-- Node1&#45;&gt;Node10 -->
<g id="edge9_Node000001_Node000010" class="edge">
<title>Node1&#45;&gt;Node10</title>
<g id="a_edge9_Node000001_Node000010"><a xlink:title=" ">
<path fill="none" stroke="#63b8ff" d="M1643.78,-88.5C1512.8,-86.53 1204.65,-77.04 950.62,-32 946.52,-31.27 942.28,-30.36 938.07,-29.34"/>
<polygon fill="#63b8ff" stroke="#63b8ff" points="939.12,-26 928.56,-26.85 937.35,-32.77 939.12,-26"/>
</a>
</g>
</g>
<!-- Node11 -->
<g id="Node000011" class="node">
<title>Node11</title>
<g id="a_Node000011"><a xlink:title=" ">
<polygon fill="#e0e0e0" stroke="#999999" points="1099.12,-32 960.12,-32 960.12,0 1099.12,0 1099.12,-32"/>
<text text-anchor="start" x="968.12" y="-18.5" font-family="Helvetica,sans-Serif" font-size="10.00">org.apache.commons.lang3.</text>
<text text-anchor="middle" x="1029.62" y="-6.5" font-family="Helvetica,sans-Serif" font-size="10.00">StringUtils</text>
</a>
</g>
</g>
<!-- Node1&#45;&gt;Node11 -->
<g id="edge10_Node000001_Node000011" class="edge">
<title>Node1&#45;&gt;Node11</title>
<g id="a_edge10_Node000001_Node000011"><a xlink:title=" ">
<path fill="none" stroke="#63b8ff" d="M1644.01,-84.89C1536.38,-77.52 1311.35,-60.27 1110.71,-32.21"/>
<polygon fill="#63b8ff" stroke="#63b8ff" points="1111.24,-28.75 1100.85,-30.81 1110.26,-35.68 1111.24,-28.75"/>
</a>
</g>
</g>
<!-- Node12 -->
<g id="Node000012" class="node">
<title>Node12</title>
<g id="a_Node000012"><a xlink:title=" ">
<polygon fill="#e0e0e0" stroke="#999999" points="1200,-26 1117.25,-26 1117.25,-6 1200,-6 1200,-26"/>
<text text-anchor="middle" x="1158.62" y="-12.5" font-family="Helvetica,sans-Serif" font-size="10.00">org.slf4j.Logger</text>
</a>
</g>
</g>
<!-- Node1&#45;&gt;Node12 -->
<g id="edge11_Node000001_Node000012" class="edge">
<title>Node1&#45;&gt;Node12</title>
<g id="a_edge11_Node000001_Node000012"><a xlink:title=" ">
<path fill="none" stroke="#63b8ff" d="M1643.64,-85.34C1548.14,-79.06 1363.01,-63.71 1208.62,-32 1205.07,-31.27 1201.41,-30.4 1197.76,-29.46"/>
<polygon fill="#63b8ff" stroke="#63b8ff" points="1198.99,-26.17 1188.42,-26.86 1197.11,-32.91 1198.99,-26.17"/>
</a>
</g>
</g>
<!-- Node13 -->
<g id="Node000013" class="node">
<title>Node13</title>
<g id="a_Node000013"><a xlink:title=" ">
<polygon fill="#e0e0e0" stroke="#999999" points="1333.5,-26 1217.75,-26 1217.75,-6 1333.5,-6 1333.5,-26"/>
<text text-anchor="middle" x="1275.62" y="-12.5" font-family="Helvetica,sans-Serif" font-size="10.00">org.slf4j.LoggerFactory</text>
</a>
</g>
</g>
<!-- Node1&#45;&gt;Node13 -->
<g id="edge12_Node000001_Node000013" class="edge">
<title>Node1&#45;&gt;Node13</title>
<g id="a_edge12_Node000001_Node000013"><a xlink:title=" ">
<path fill="none" stroke="#63b8ff" d="M1643.78,-80.32C1570.75,-70.09 1447.7,-51.94 1342.62,-32 1337.48,-31.02 1332.13,-29.94 1326.79,-28.82"/>
<polygon fill="#63b8ff" stroke="#63b8ff" points="1327.92,-25.48 1317.41,-26.79 1326.44,-32.32 1327.92,-25.48"/>
</a>
</g>
</g>
<!-- Node14 -->
<g id="Node000014" class="node">
<title>Node14</title>
<g id="a_Node000014"><a xlink:title=" ">
<polygon fill="#e0e0e0" stroke="#999999" points="1507.75,-32 1351.5,-32 1351.5,0 1507.75,0 1507.75,-32"/>
<text text-anchor="start" x="1359.5" y="-18.5" font-family="Helvetica,sans-Serif" font-size="10.00">org.springframework.stereotype.</text>
<text text-anchor="middle" x="1429.62" y="-6.5" font-family="Helvetica,sans-Serif" font-size="10.00">Component</text>
</a>
</g>
</g>
<!-- Node1&#45;&gt;Node14 -->
<g id="edge13_Node000001_Node000014" class="edge">
<title>Node1&#45;&gt;Node14</title>
<g id="a_edge13_Node000001_Node000014"><a xlink:title=" ">
<path fill="none" stroke="#63b8ff" d="M1643.85,-72.48C1600.99,-61.38 1544.48,-46.75 1500.26,-35.3"/>
<polygon fill="#63b8ff" stroke="#63b8ff" points="1501.33,-31.95 1490.77,-32.84 1499.57,-38.73 1501.33,-31.95"/>
</a>
</g>
</g>
<!-- Node15 -->
<g id="Node000015" class="node">
<title>Node15</title>
<g id="a_Node000015"><a xlink:title=" ">
<polygon fill="#e0e0e0" stroke="#999999" points="1693.75,-32 1525.5,-32 1525.5,0 1693.75,0 1693.75,-32"/>
<text text-anchor="start" x="1533.5" y="-18.5" font-family="Helvetica,sans-Serif" font-size="10.00">fr.softsf.sudokufx.common.enums.</text>
<text text-anchor="middle" x="1609.62" y="-6.5" font-family="Helvetica,sans-Serif" font-size="10.00">DifficultyLevel</text>
</a>
</g>
</g>
<!-- Node1&#45;&gt;Node15 -->
<g id="edge14_Node000001_Node000015" class="edge">
<title>Node1&#45;&gt;Node15</title>
<g id="a_edge14_Node000001_Node000015"><a xlink:title=" ">
<path fill="none" stroke="#63b8ff" d="M1678.49,-67.59C1666.26,-58.61 1652.04,-48.16 1639.71,-39.11"/>
<polygon fill="#63b8ff" stroke="#63b8ff" points="1642.07,-36.49 1631.94,-33.39 1637.92,-42.13 1642.07,-36.49"/>
</a>
</g>
</g>
<!-- Node16 -->
<g id="Node000016" class="node">
<title>Node16</title>
<g id="a_Node000016"><a xlink:title=" ">
<polygon fill="#e0e0e0" stroke="#999999" points="1899.12,-26 1712.12,-26 1712.12,-6 1899.12,-6 1899.12,-26"/>
<text text-anchor="middle" x="1805.62" y="-12.5" font-family="Helvetica,sans-Serif" font-size="10.00">fr.softsf.sudokufx.common.enums.I18n</text>
</a>
</g>
</g>
<!-- Node1&#45;&gt;Node16 -->
<g id="edge15_Node000001_Node000016" class="edge">
<title>Node1&#45;&gt;Node16</title>
<g id="a_edge15_Node000001_Node000016"><a xlink:title=" ">
<path fill="none" stroke="#63b8ff" d="M1736.76,-67.59C1751.75,-56.59 1769.71,-43.39 1783.53,-33.23"/>
<polygon fill="#63b8ff" stroke="#63b8ff" points="1785.56,-36.09 1791.55,-27.34 1781.41,-30.44 1785.56,-36.09"/>
</a>
</g>
</g>
<!-- Node17 -->
<g id="Node000017" class="node">
<title>Node17</title>
<g id="a_Node000017"><a xlink:title=" ">
<polygon fill="#e0e0e0" stroke="#999999" points="2103.75,-32 1917.5,-32 1917.5,0 2103.75,0 2103.75,-32"/>
<text text-anchor="start" x="1925.5" y="-18.5" font-family="Helvetica,sans-Serif" font-size="10.00">fr.softsf.sudokufx.common.util.sudoku.</text>
<text text-anchor="middle" x="2010.62" y="-6.5" font-family="Helvetica,sans-Serif" font-size="10.00">GrilleResolue</text>
</a>
</g>
</g>
<!-- Node1&#45;&gt;Node17 -->
<g id="edge16_Node000001_Node000017" class="edge">
<title>Node1&#45;&gt;Node17</title>
<g id="a_edge16_Node000001_Node000017"><a xlink:title=" ">
<path fill="none" stroke="#63b8ff" d="M1771.51,-73.82C1819.05,-62.52 1884.12,-47.06 1934.38,-35.12"/>
<polygon fill="#63b8ff" stroke="#63b8ff" points="1935.13,-38.54 1944.05,-32.82 1933.51,-31.73 1935.13,-38.54"/>
</a>
</g>
</g>
<!-- Node18 -->
<g id="Node000018" class="node">
<title>Node18</title>
<g id="a_Node000018"><a xlink:title=" ">
<polygon fill="#e0e0e0" stroke="#999999" points="2307.75,-32 2121.5,-32 2121.5,0 2307.75,0 2307.75,-32"/>
<text text-anchor="start" x="2129.5" y="-18.5" font-family="Helvetica,sans-Serif" font-size="10.00">fr.softsf.sudokufx.common.util.sudoku.</text>
<text text-anchor="middle" x="2214.62" y="-6.5" font-family="Helvetica,sans-Serif" font-size="10.00">GrillesCrees</text>
</a>
</g>
</g>
<!-- Node1&#45;&gt;Node18 -->
<g id="edge17_Node000001_Node000018" class="edge">
<title>Node1&#45;&gt;Node18</title>
<g id="a_edge17_Node000001_Node000018"><a xlink:title=" ">
<path fill="none" stroke="#63b8ff" d="M1771.47,-80.14C1848.95,-69.36 1983.89,-50.49 2109.87,-32.39"/>
<polygon fill="#63b8ff" stroke="#63b8ff" points="2110.35,-35.86 2119.75,-30.97 2109.35,-28.93 2110.35,-35.86"/>
</a>
</g>
</g>
<!-- Node19 -->
<g id="Node000019" class="node">
<title>Node19</title>
<g id="a_Node000019"><a xlink:title=" ">
<polygon fill="#e0e0e0" stroke="#999999" points="2511.75,-32 2325.5,-32 2325.5,0 2511.75,0 2511.75,-32"/>
<text text-anchor="start" x="2333.5" y="-18.5" font-family="Helvetica,sans-Serif" font-size="10.00">fr.softsf.sudokufx.common.util.sudoku.</text>
<text text-anchor="middle" x="2418.62" y="-6.5" font-family="Helvetica,sans-Serif" font-size="10.00">IGridConverter</text>
</a>
</g>
</g>
<!-- Node1&#45;&gt;Node19 -->
<g id="edge18_Node000001_Node000019" class="edge">
<title>Node1&#45;&gt;Node19</title>
<g id="a_edge18_Node000001_Node000019"><a xlink:title=" ">
<path fill="none" stroke="#63b8ff" d="M1771.31,-84.15C1880.26,-75.61 2109.67,-56.57 2314.01,-32.28"/>
<polygon fill="#63b8ff" stroke="#63b8ff" points="2314.25,-35.77 2323.76,-31.11 2313.42,-28.82 2314.25,-35.77"/>
</a>
</g>
</g>
<!-- Node20 -->
<g id="Node000020" class="node">
<title>Node20</title>
<g id="a_Node000020"><a xlink:title=" ">
<polygon fill="#e0e0e0" stroke="#999999" points="2715.75,-32 2529.5,-32 2529.5,0 2715.75,0 2715.75,-32"/>
<text text-anchor="start" x="2537.5" y="-18.5" font-family="Helvetica,sans-Serif" font-size="10.00">fr.softsf.sudokufx.common.util.sudoku.</text>
<text text-anchor="middle" x="2622.62" y="-6.5" font-family="Helvetica,sans-Serif" font-size="10.00">IGridMaster</text>
</a>
</g>
</g>
<!-- Node1&#45;&gt;Node20 -->
<g id="edge19_Node000001_Node000020" class="edge">
<title>Node1&#45;&gt;Node20</title>
<g id="a_edge19_Node000001_Node000020"><a xlink:title=" ">
<path fill="none" stroke="#63b8ff" d="M1771.54,-86.17C1907.11,-79.82 2233.69,-62.62 2517.65,-32.27"/>
<polygon fill="#63b8ff" stroke="#63b8ff" points="2517.93,-35.76 2527.5,-31.21 2517.18,-28.8 2517.93,-35.76"/>
</a>
</g>
</g>
<!-- Node21 -->
<g id="Node000021" class="node">
<title>Node21</title>
<g id="a_Node000021"><a xlink:title=" ">
<polygon fill="#e0e0e0" stroke="#999999" points="2887.62,-26 2733.62,-26 2733.62,-6 2887.62,-6 2887.62,-26"/>
<text text-anchor="middle" x="2810.62" y="-12.5" font-family="Helvetica,sans-Serif" font-size="10.00">fr.softsf.sudokufx.dto.GameDto</text>
</a>
</g>
</g>
<!-- Node1&#45;&gt;Node21 -->
<g id="edge20_Node000001_Node000021" class="edge">
<title>Node1&#45;&gt;Node21</title>
<g id="a_edge20_Node000001_Node000021"><a xlink:title=" ">
<path fill="none" stroke="#63b8ff" d="M1771.51,-88.01C1932.16,-84.94 2365.79,-73.21 2724.62,-32 2733.11,-31.03 2742.02,-29.75 2750.76,-28.36"/>
<polygon fill="#63b8ff" stroke="#63b8ff" points="2751.32,-31.82 2760.61,-26.73 2750.17,-24.91 2751.32,-31.82"/>
</a>
</g>
</g>
<!-- Node22 -->
<g id="Node000022" class="node">
<title>Node22</title>
<g id="a_Node000022"><a xlink:title=" ">
<polygon fill="#e0e0e0" stroke="#999999" points="3043.75,-32 2905.5,-32 2905.5,0 3043.75,0 3043.75,-32"/>
<text text-anchor="start" x="2913.5" y="-18.5" font-family="Helvetica,sans-Serif" font-size="10.00">fr.softsf.sudokufx.dto.Game</text>
<text text-anchor="middle" x="2974.62" y="-6.5" font-family="Helvetica,sans-Serif" font-size="10.00">LevelDto</text>
</a>
</g>
</g>
<!-- Node1&#45;&gt;Node22 -->
<g id="edge21_Node000001_Node000022" class="edge">
<title>Node1&#45;&gt;Node22</title>
<g id="a_edge21_Node000001_Node000022"><a xlink:title=" ">
<path fill="none" stroke="#63b8ff" d="M1771.37,-89.12C1948.25,-88.78 2460.19,-83.2 2894.18,-32.17"/>
<polygon fill="#63b8ff" stroke="#63b8ff" points="2894.36,-35.68 2903.88,-31.02 2893.54,-28.73 2894.36,-35.68"/>
</a>
</g>
</g>
<!-- Node23 -->
<g id="Node000023" class="node">
<title>Node23</title>
<g id="a_Node000023"><a xlink:title=" ">
<polygon fill="#e0e0e0" stroke="#999999" points="3207.5,-26 3061.75,-26 3061.75,-6 3207.5,-6 3207.5,-26"/>
<text text-anchor="middle" x="3134.62" y="-12.5" font-family="Helvetica,sans-Serif" font-size="10.00">fr.softsf.sudokufx.dto.GridDto</text>
</a>
</g>
</g>
<!-- Node1&#45;&gt;Node23 -->
<g id="edge22_Node000001_Node000023" class="edge">
<title>Node1&#45;&gt;Node23</title>
<g id="a_edge22_Node000001_Node000023"><a xlink:title=" ">
<path fill="none" stroke="#63b8ff" d="M1771.57,-89.43C1965.21,-90.04 2561.97,-87.01 3052.62,-32 3060.93,-31.07 3069.65,-29.8 3078.19,-28.38"/>
<polygon fill="#63b8ff" stroke="#63b8ff" points="3078.51,-31.88 3087.76,-26.72 3077.31,-24.98 3078.51,-31.88"/>
</a>
</g>
</g>
<!-- Node24 -->
<g id="Node000024" class="node">
<title>Node24</title>
<g id="a_Node000024"><a xlink:title=" ">
<polygon fill="#e0e0e0" stroke="#999999" points="3381.38,-26 3225.88,-26 3225.88,-6 3381.38,-6 3381.38,-26"/>
<text text-anchor="middle" x="3303.62" y="-12.5" font-family="Helvetica,sans-Serif" font-size="10.00">fr.softsf.sudokufx.dto.PlayerDto</text>
</a>
</g>
</g>
<!-- Node1&#45;&gt;Node24 -->
<g id="edge23_Node000001_Node000024" class="edge">
<title>Node1&#45;&gt;Node24</title>
<g id="a_edge23_Node000001_Node000024"><a xlink:title=" ">
<path fill="none" stroke="#63b8ff" d="M1771.46,-89.62C1979.85,-90.99 2658.96,-90.35 3216.62,-32 3225.62,-31.06 3235.09,-29.75 3244.34,-28.3"/>
<polygon fill="#63b8ff" stroke="#63b8ff" points="3244.67,-31.8 3253.97,-26.72 3243.54,-24.89 3244.67,-31.8"/>
</a>
</g>
</g>
<!-- Node25 -->
<g id="Node000025" class="node">
<title>Node25</title>
<g id="a_Node000025"><a xlink:title=" ">
<polygon fill="#e0e0e0" stroke="#999999" points="3571.62,-32 3399.62,-32 3399.62,0 3571.62,0 3571.62,-32"/>
<text text-anchor="start" x="3407.62" y="-18.5" font-family="Helvetica,sans-Serif" font-size="10.00">fr.softsf.sudokufx.service.business.</text>
<text text-anchor="middle" x="3485.62" y="-6.5" font-family="Helvetica,sans-Serif" font-size="10.00">PlayerService</text>
</a>
</g>
</g>
<!-- Node1&#45;&gt;Node25 -->
<g id="edge24_Node000001_Node000025" class="edge">
<title>Node1&#45;&gt;Node25</title>
<g id="a_edge24_Node000001_Node000025"><a xlink:title=" ">
<path fill="none" stroke="#63b8ff" d="M1771.25,-87.89C2035.02,-83.14 3044.37,-63.33 3387.77,-32.17"/>
<polygon fill="#63b8ff" stroke="#63b8ff" points="3388.08,-35.66 3397.71,-31.25 3387.43,-28.69 3388.08,-35.66"/>
</a>
</g>
</g>
<!-- Node26 -->
<g id="Node000026" class="node">
<title>Node26</title>
<g id="a_Node000026"><a xlink:title=" ">
<polygon fill="#e0e0e0" stroke="#999999" points="3729.88,-32 3589.38,-32 3589.38,0 3729.88,0 3729.88,-32"/>
<text text-anchor="start" x="3597.38" y="-18.5" font-family="Helvetica,sans-Serif" font-size="10.00">fr.softsf.sudokufx.service.ui.</text>
<text text-anchor="middle" x="3659.62" y="-6.5" font-family="Helvetica,sans-Serif" font-size="10.00">AudioService</text>
</a>
</g>
</g>
<!-- Node1&#45;&gt;Node26 -->
<g id="edge25_Node000001_Node000026" class="edge">
<title>Node1&#45;&gt;Node26</title>
<g id="a_edge25_Node000001_Node000026"><a xlink:title=" ">
<path fill="none" stroke="#63b8ff" d="M1771.61,-88.4C2054.5,-85.57 3195.47,-71.9 3577.71,-32.18"/>
<polygon fill="#63b8ff" stroke="#63b8ff" points="3578,-35.67 3587.57,-31.13 3577.25,-28.71 3578,-35.67"/>
</a>
</g>
</g>
<!-- Node27 -->
<g id="Node000027" class="node">
<title>Node27</title>
<g id="a_Node000027"><a xlink:title=" ">
<polygon fill="#e0e0e0" stroke="#999999" points="3888.88,-32 3748.38,-32 3748.38,0 3888.88,0 3888.88,-32"/>
<text text-anchor="start" x="3756.38" y="-18.5" font-family="Helvetica,sans-Serif" font-size="10.00">fr.softsf.sudokufx.service.ui.</text>
<text text-anchor="middle" x="3818.62" y="-6.5" font-family="Helvetica,sans-Serif" font-size="10.00">ToasterService</text>
</a>
</g>
</g>
<!-- Node1&#45;&gt;Node27 -->
<g id="edge26_Node000001_Node000027" class="edge">
<title>Node1&#45;&gt;Node27</title>
<g id="a_edge26_Node000001_Node000027"><a xlink:title=" ">
<path fill="none" stroke="#63b8ff" d="M1771.4,-88.56C2068.63,-86.31 3320.7,-74.53 3736.87,-32.03"/>
<polygon fill="#63b8ff" stroke="#63b8ff" points="3736.96,-35.54 3746.54,-31.01 3736.23,-28.58 3736.96,-35.54"/>
</a>
</g>
</g>
<!-- Node28 -->
<g id="Node000028" class="node">
<title>Node28</title>
<g id="a_Node000028"><a xlink:title=" ">
<polygon fill="#e0e0e0" stroke="#999999" points="4074.38,-32 3906.88,-32 3906.88,0 4074.38,0 4074.38,-32"/>
<text text-anchor="start" x="3914.88" y="-18.5" font-family="Helvetica,sans-Serif" font-size="10.00">fr.softsf.sudokufx.viewmodel.</text>
<text text-anchor="middle" x="3990.62" y="-6.5" font-family="Helvetica,sans-Serif" font-size="10.00">ActiveMenuOrSubmenuViewModel</text>
</a>
</g>
</g>
<!-- Node1&#45;&gt;Node28 -->
<g id="edge27_Node000001_Node000028" class="edge">
<title>Node1&#45;&gt;Node28</title>
<g id="a_edge27_Node000001_Node000028"><a xlink:title=" ">
<path fill="none" stroke="#63b8ff" d="M1771.6,-88.49C2083.27,-85.84 3445.43,-72.2 3895.12,-32.12"/>
<polygon fill="#63b8ff" stroke="#63b8ff" points="3895.39,-35.61 3905.03,-31.22 3894.76,-28.64 3895.39,-35.61"/>
</a>
</g>
</g>
<!-- Node29 -->
<g id="Node000029" class="node">
<title>Node29</title>
<g id="a_Node000029"><a xlink:title=" ">
<polygon fill="#e0e0e0" stroke="#999999" points="4262.5,-32 4092.75,-32 4092.75,0 4262.5,0 4262.5,-32"/>
<text text-anchor="start" x="4100.75" y="-18.5" font-family="Helvetica,sans-Serif" font-size="10.00">fr.softsf.sudokufx.viewmodel.state.</text>
<text text-anchor="middle" x="4177.62" y="-6.5" font-family="Helvetica,sans-Serif" font-size="10.00">PlayerStateHolder</text>
</a>
</g>
</g>
<!-- Node1&#45;&gt;Node29 -->
<g id="edge28_Node000001_Node000029" class="edge">
<title>Node1&#45;&gt;Node29</title>
<g id="a_edge28_Node000001_Node000029"><a xlink:title=" ">
<path fill="none" stroke="#63b8ff" d="M1771.49,-88.63C2098.9,-86.55 3592.37,-74.91 4081.03,-32.13"/>
<polygon fill="#63b8ff" stroke="#63b8ff" points="4081.23,-35.63 4090.87,-31.25 4080.6,-28.65 4081.23,-35.63"/>
</a>
</g>
</g>
</g>
</svg>
