<?xml version="1.0" encoding="UTF-8" standalone="no"?>
<!DOCTYPE svg PUBLIC "-//W3C//DTD SVG 1.1//EN"
 "http://www.w3.org/Graphics/SVG/1.1/DTD/svg11.dtd">
<!-- Generated by graphviz version 12.2.1 (20241206.2353)
 -->
<!-- Title: src/main/java/fr/softsf/sudokufx/common/util/sudoku/GrillesCrees.java Pages: 1 -->
<svg width="1041pt" height="120pt"
 viewBox="0.00 0.00 1041.12 120.00" xmlns="http://www.w3.org/2000/svg" xmlns:xlink="http://www.w3.org/1999/xlink">
<g id="graph0" class="graph" transform="scale(1 1) rotate(0) translate(4 116)">
<title>src/main/java/fr/softsf/sudokufx/common/util/sudoku/GrillesCrees.java</title>
<!-- Node1 -->
<g id="Node000001" class="node">
<title>Node1</title>
<g id="a_Node000001"><a xlink:title=" ">
<polygon fill="#999999" stroke="#666666" points="496.88,-112 368.38,-112 368.38,-68 496.88,-68 496.88,-112"/>
<text text-anchor="start" x="376.38" y="-98.5" font-family="Helvetica,sans-Serif" font-size="10.00">src/main/java/fr/softsf</text>
<text text-anchor="start" x="376.38" y="-86.5" font-family="Helvetica,sans-Serif" font-size="10.00">/sudokufx/common/util</text>
<text text-anchor="middle" x="432.62" y="-74.5" font-family="Helvetica,sans-Serif" font-size="10.00">/sudoku/GrillesCrees.java</text>
</a>
</g>
</g>
<!-- Node2 -->
<g id="Node000002" class="node">
<title>Node2</title>
<g id="a_Node000002"><a xlink:title=" ">
<polygon fill="#e0e0e0" stroke="#999999" points="81.25,-26 0,-26 0,-6 81.25,-6 81.25,-26"/>
<text text-anchor="middle" x="40.62" y="-12.5" font-family="Helvetica,sans-Serif" font-size="10.00">java.util.Arrays</text>
</a>
</g>
</g>
<!-- Node1&#45;&gt;Node2 -->
<g id="edge1_Node000001_Node000002" class="edge">
<title>Node1&#45;&gt;Node2</title>
<g id="a_edge1_Node000001_Node000002"><a xlink:title=" ">
<path fill="none" stroke="#63b8ff" d="M368.17,-80.73C299.06,-71.29 186.34,-54.24 90.62,-32 87.44,-31.26 84.16,-30.43 80.87,-29.55"/>
<polygon fill="#63b8ff" stroke="#63b8ff" points="81.84,-26.19 71.26,-26.84 79.94,-32.92 81.84,-26.19"/>
</a>
</g>
</g>
<!-- Node3 -->
<g id="Node000003" class="node">
<title>Node3</title>
<g id="a_Node000003"><a xlink:title=" ">
<polygon fill="#e0e0e0" stroke="#999999" points="185.88,-26 99.38,-26 99.38,-6 185.88,-6 185.88,-26"/>
<text text-anchor="middle" x="142.62" y="-12.5" font-family="Helvetica,sans-Serif" font-size="10.00">java.util.Objects</text>
</a>
</g>
</g>
<!-- Node1&#45;&gt;Node3 -->
<g id="edge2_Node000001_Node000003" class="edge">
<title>Node1&#45;&gt;Node3</title>
<g id="a_edge2_Node000001_Node000003"><a xlink:title=" ">
<path fill="none" stroke="#63b8ff" d="M368.03,-74.37C320.04,-63.3 253.06,-47.42 194.62,-32 191.66,-31.22 188.61,-30.39 185.54,-29.55"/>
<polygon fill="#63b8ff" stroke="#63b8ff" points="186.49,-26.18 175.92,-26.84 184.6,-32.92 186.49,-26.18"/>
</a>
</g>
</g>
<!-- Node4 -->
<g id="Node000004" class="node">
<title>Node4</title>
<g id="a_Node000004"><a xlink:title=" ">
<polygon fill="#e0e0e0" stroke="#999999" points="333.25,-26 204,-26 204,-6 333.25,-6 333.25,-26"/>
<text text-anchor="middle" x="268.62" y="-12.5" font-family="Helvetica,sans-Serif" font-size="10.00">jakarta.annotation.Nonnull</text>
</a>
</g>
</g>
<!-- Node1&#45;&gt;Node4 -->
<g id="edge3_Node000001_Node000004" class="edge">
<title>Node1&#45;&gt;Node4</title>
<g id="a_edge3_Node000001_Node000004"><a xlink:title=" ">
<path fill="none" stroke="#63b8ff" d="M383.86,-67.59C356.97,-55.78 324.32,-41.45 300.66,-31.06"/>
<polygon fill="#63b8ff" stroke="#63b8ff" points="302.09,-27.87 291.53,-27.06 299.28,-34.28 302.09,-27.87"/>
</a>
</g>
</g>
<!-- Node5 -->
<g id="Node000005" class="node">
<title>Node5</title>
<g id="a_Node000005"><a xlink:title=" ">
<polygon fill="#e0e0e0" stroke="#999999" points="513.75,-26 351.5,-26 351.5,-6 513.75,-6 513.75,-26"/>
<text text-anchor="middle" x="432.62" y="-12.5" font-family="Helvetica,sans-Serif" font-size="10.00">jakarta.validation.constraints.Max</text>
</a>
</g>
</g>
<!-- Node1&#45;&gt;Node5 -->
<g id="edge4_Node000001_Node000005" class="edge">
<title>Node1&#45;&gt;Node5</title>
<g id="a_edge4_Node000001_Node000005"><a xlink:title=" ">
<path fill="none" stroke="#63b8ff" d="M432.62,-67.79C432.62,-58.32 432.62,-47.2 432.62,-37.78"/>
<polygon fill="#63b8ff" stroke="#63b8ff" points="436.13,-37.82 432.63,-27.82 429.13,-37.82 436.13,-37.82"/>
</a>
</g>
</g>
<!-- Node6 -->
<g id="Node000006" class="node">
<title>Node6</title>
<g id="a_Node000006"><a xlink:title=" ">
<polygon fill="#e0e0e0" stroke="#999999" points="691.25,-26 532,-26 532,-6 691.25,-6 691.25,-26"/>
<text text-anchor="middle" x="611.62" y="-12.5" font-family="Helvetica,sans-Serif" font-size="10.00">jakarta.validation.constraints.Min</text>
</a>
</g>
</g>
<!-- Node1&#45;&gt;Node6 -->
<g id="edge5_Node000001_Node000006" class="edge">
<title>Node1&#45;&gt;Node6</title>
<g id="a_edge5_Node000001_Node000006"><a xlink:title=" ">
<path fill="none" stroke="#63b8ff" d="M485.85,-67.59C515.6,-55.62 551.8,-41.06 577.71,-30.64"/>
<polygon fill="#63b8ff" stroke="#63b8ff" points="578.76,-33.99 586.73,-27.01 576.15,-27.5 578.76,-33.99"/>
</a>
</g>
</g>
<!-- Node7 -->
<g id="Node000007" class="node">
<title>Node7</title>
<g id="a_Node000007"><a xlink:title=" ">
<polygon fill="#e0e0e0" stroke="#999999" points="852.38,-32 708.88,-32 708.88,0 852.38,0 852.38,-32"/>
<text text-anchor="start" x="716.88" y="-18.5" font-family="Helvetica,sans-Serif" font-size="10.00">jakarta.validation.constraints.</text>
<text text-anchor="middle" x="780.62" y="-6.5" font-family="Helvetica,sans-Serif" font-size="10.00">NotNull</text>
</a>
</g>
</g>
<!-- Node1&#45;&gt;Node7 -->
<g id="edge6_Node000001_Node000007" class="edge">
<title>Node1&#45;&gt;Node7</title>
<g id="a_edge6_Node000001_Node000007"><a xlink:title=" ">
<path fill="none" stroke="#63b8ff" d="M497.27,-75.63C553.7,-63.95 635.96,-46.93 697.32,-34.24"/>
<polygon fill="#63b8ff" stroke="#63b8ff" points="697.96,-37.68 707.04,-32.22 696.54,-30.82 697.96,-37.68"/>
</a>
</g>
</g>
<!-- Node8 -->
<g id="Node000008" class="node">
<title>Node8</title>
<g id="a_Node000008"><a xlink:title=" ">
<polygon fill="#e0e0e0" stroke="#999999" points="1033.12,-26 870.12,-26 870.12,-6 1033.12,-6 1033.12,-26"/>
<text text-anchor="middle" x="951.62" y="-12.5" font-family="Helvetica,sans-Serif" font-size="10.00">jakarta.validation.constraints.Size</text>
</a>
</g>
</g>
<!-- Node1&#45;&gt;Node8 -->
<g id="edge7_Node000001_Node000008" class="edge">
<title>Node1&#45;&gt;Node8</title>
<g id="a_edge7_Node000001_Node000008"><a xlink:title=" ">
<path fill="none" stroke="#63b8ff" d="M497.04,-81.12C581.05,-70.68 732.52,-51.33 861.62,-32 869.29,-30.85 877.32,-29.59 885.28,-28.31"/>
<polygon fill="#63b8ff" stroke="#63b8ff" points="885.66,-31.8 894.97,-26.73 884.53,-24.89 885.66,-31.8"/>
</a>
</g>
</g>
</g>
</svg>
