<?xml version="1.0" encoding="UTF-8" standalone="no"?>
<!DOCTYPE svg PUBLIC "-//W3C//DTD SVG 1.1//EN"
 "http://www.w3.org/Graphics/SVG/1.1/DTD/svg11.dtd">
<!-- Generated by graphviz version 12.2.1 (20241206.2353)
 -->
<!-- Title: src/main/java/fr/softsf/sudokufx/common/util/sudoku/GridMaster.java Pages: 1 -->
<svg width="1338pt" height="120pt"
 viewBox="0.00 0.00 1338.25 120.00" xmlns="http://www.w3.org/2000/svg" xmlns:xlink="http://www.w3.org/1999/xlink">
<g id="graph0" class="graph" transform="scale(1 1) rotate(0) translate(4 116)">
<title>src/main/java/fr/softsf/sudokufx/common/util/sudoku/GridMaster.java</title>
<!-- Node1 -->
<g id="Node000001" class="node">
<title>Node1</title>
<g id="a_Node000001"><a xlink:title=" ">
<polygon fill="#999999" stroke="#666666" points="601,-112 478.5,-112 478.5,-68 601,-68 601,-112"/>
<text text-anchor="start" x="486.5" y="-98.5" font-family="Helvetica,sans-Serif" font-size="10.00">src/main/java/fr/softsf</text>
<text text-anchor="start" x="486.5" y="-86.5" font-family="Helvetica,sans-Serif" font-size="10.00">/sudokufx/common/util</text>
<text text-anchor="middle" x="539.75" y="-74.5" font-family="Helvetica,sans-Serif" font-size="10.00">/sudoku/GridMaster.java</text>
</a>
</g>
</g>
<!-- Node2 -->
<g id="Node000002" class="node">
<title>Node2</title>
<g id="a_Node000002"><a xlink:title=" ">
<polygon fill="#e0e0e0" stroke="#999999" points="95.5,-26 0,-26 0,-6 95.5,-6 95.5,-26"/>
<text text-anchor="middle" x="47.75" y="-12.5" font-family="Helvetica,sans-Serif" font-size="10.00">java.time.Duration</text>
</a>
</g>
</g>
<!-- Node1&#45;&gt;Node2 -->
<g id="edge1_Node000001_Node000002" class="edge">
<title>Node1&#45;&gt;Node2</title>
<g id="a_edge1_Node000001_Node000002"><a xlink:title=" ">
<path fill="none" stroke="#63b8ff" d="M478.12,-83.41C393.46,-75.18 236.67,-57.89 104.75,-32 100.47,-31.16 96.03,-30.18 91.61,-29.14"/>
<polygon fill="#63b8ff" stroke="#63b8ff" points="92.76,-25.82 82.21,-26.81 91.07,-32.61 92.76,-25.82"/>
</a>
</g>
</g>
<!-- Node3 -->
<g id="Node000003" class="node">
<title>Node3</title>
<g id="a_Node000003"><a xlink:title=" ">
<polygon fill="#e0e0e0" stroke="#999999" points="202.12,-26 113.38,-26 113.38,-6 202.12,-6 202.12,-26"/>
<text text-anchor="middle" x="157.75" y="-12.5" font-family="Helvetica,sans-Serif" font-size="10.00">java.time.Instant</text>
</a>
</g>
</g>
<!-- Node1&#45;&gt;Node3 -->
<g id="edge2_Node000001_Node000003" class="edge">
<title>Node1&#45;&gt;Node3</title>
<g id="a_edge2_Node000001_Node000003"><a xlink:title=" ">
<path fill="none" stroke="#63b8ff" d="M478.13,-80.29C411.74,-70.44 303.17,-53.02 210.75,-32 207.21,-31.19 203.55,-30.3 199.88,-29.35"/>
<polygon fill="#63b8ff" stroke="#63b8ff" points="201.03,-26.04 190.46,-26.82 199.21,-32.8 201.03,-26.04"/>
</a>
</g>
</g>
<!-- Node4 -->
<g id="Node000004" class="node">
<title>Node4</title>
<g id="a_Node000004"><a xlink:title=" ">
<polygon fill="#e0e0e0" stroke="#999999" points="301.38,-26 220.12,-26 220.12,-6 301.38,-6 301.38,-26"/>
<text text-anchor="middle" x="260.75" y="-12.5" font-family="Helvetica,sans-Serif" font-size="10.00">java.util.Arrays</text>
</a>
</g>
</g>
<!-- Node1&#45;&gt;Node4 -->
<g id="edge3_Node000001_Node000004" class="edge">
<title>Node1&#45;&gt;Node4</title>
<g id="a_edge3_Node000001_Node000004"><a xlink:title=" ">
<path fill="none" stroke="#63b8ff" d="M478.01,-74.66C431.57,-63.64 366.45,-47.69 309.75,-32 307.05,-31.25 304.27,-30.46 301.48,-29.65"/>
<polygon fill="#63b8ff" stroke="#63b8ff" points="302.77,-26.38 292.19,-26.89 300.78,-33.09 302.77,-26.38"/>
</a>
</g>
</g>
<!-- Node5 -->
<g id="Node000005" class="node">
<title>Node5</title>
<g id="a_Node000005"><a xlink:title=" ">
<polygon fill="#e0e0e0" stroke="#999999" points="450.5,-32 319,-32 319,0 450.5,0 450.5,-32"/>
<text text-anchor="start" x="327" y="-18.5" font-family="Helvetica,sans-Serif" font-size="10.00">java.util.concurrent.Thread</text>
<text text-anchor="middle" x="384.75" y="-6.5" font-family="Helvetica,sans-Serif" font-size="10.00">LocalRandom</text>
</a>
</g>
</g>
<!-- Node1&#45;&gt;Node5 -->
<g id="edge4_Node000001_Node000005" class="edge">
<title>Node1&#45;&gt;Node5</title>
<g id="a_edge4_Node000001_Node000005"><a xlink:title=" ">
<path fill="none" stroke="#63b8ff" d="M493.66,-67.59C472.99,-57.99 448.74,-46.72 428.37,-37.26"/>
<polygon fill="#63b8ff" stroke="#63b8ff" points="430.02,-34.17 419.48,-33.13 427.08,-40.52 430.02,-34.17"/>
</a>
</g>
</g>
<!-- Node6 -->
<g id="Node000006" class="node">
<title>Node6</title>
<g id="a_Node000006"><a xlink:title=" ">
<polygon fill="#e0e0e0" stroke="#999999" points="611.12,-26 468.38,-26 468.38,-6 611.12,-6 611.12,-26"/>
<text text-anchor="middle" x="539.75" y="-12.5" font-family="Helvetica,sans-Serif" font-size="10.00">java.util.function.IntPredicate</text>
</a>
</g>
</g>
<!-- Node1&#45;&gt;Node6 -->
<g id="edge5_Node000001_Node000006" class="edge">
<title>Node1&#45;&gt;Node6</title>
<g id="a_edge5_Node000001_Node000006"><a xlink:title=" ">
<path fill="none" stroke="#63b8ff" d="M539.75,-67.79C539.75,-58.32 539.75,-47.2 539.75,-37.78"/>
<polygon fill="#63b8ff" stroke="#63b8ff" points="543.25,-37.82 539.75,-27.82 536.25,-37.82 543.25,-37.82"/>
</a>
</g>
</g>
<!-- Node7 -->
<g id="Node000007" class="node">
<title>Node7</title>
<g id="a_Node000007"><a xlink:title=" ">
<polygon fill="#e0e0e0" stroke="#999999" points="758,-26 629.5,-26 629.5,-6 758,-6 758,-26"/>
<text text-anchor="middle" x="693.75" y="-12.5" font-family="Helvetica,sans-Serif" font-size="10.00">java.util.stream.IntStream</text>
</a>
</g>
</g>
<!-- Node1&#45;&gt;Node7 -->
<g id="edge6_Node000001_Node000007" class="edge">
<title>Node1&#45;&gt;Node7</title>
<g id="a_edge6_Node000001_Node000007"><a xlink:title=" ">
<path fill="none" stroke="#63b8ff" d="M585.54,-67.59C610.68,-55.84 641.17,-41.58 663.37,-31.2"/>
<polygon fill="#63b8ff" stroke="#63b8ff" points="664.59,-34.49 672.17,-27.09 661.63,-28.15 664.59,-34.49"/>
</a>
</g>
</g>
<!-- Node8 -->
<g id="Node000008" class="node">
<title>Node8</title>
<g id="a_Node000008"><a xlink:title=" ">
<polygon fill="#e0e0e0" stroke="#999999" points="931.88,-32 775.62,-32 775.62,0 931.88,0 931.88,-32"/>
<text text-anchor="start" x="783.62" y="-18.5" font-family="Helvetica,sans-Serif" font-size="10.00">org.springframework.stereotype.</text>
<text text-anchor="middle" x="853.75" y="-6.5" font-family="Helvetica,sans-Serif" font-size="10.00">Component</text>
</a>
</g>
</g>
<!-- Node1&#45;&gt;Node8 -->
<g id="edge7_Node000001_Node000008" class="edge">
<title>Node1&#45;&gt;Node8</title>
<g id="a_edge7_Node000001_Node000008"><a xlink:title=" ">
<path fill="none" stroke="#63b8ff" d="M601.41,-74.86C651.1,-63.47 721.3,-47.37 775.04,-35.05"/>
<polygon fill="#63b8ff" stroke="#63b8ff" points="775.81,-38.46 784.77,-32.82 774.24,-31.64 775.81,-38.46"/>
</a>
</g>
</g>
<!-- Node9 -->
<g id="Node000009" class="node">
<title>Node9</title>
<g id="a_Node000009"><a xlink:title=" ">
<polygon fill="#e0e0e0" stroke="#999999" points="1131.25,-32 950.25,-32 950.25,0 1131.25,0 1131.25,-32"/>
<text text-anchor="start" x="958.25" y="-18.5" font-family="Helvetica,sans-Serif" font-size="10.00">fr.softsf.sudokufx.common.exception.</text>
<text text-anchor="middle" x="1040.75" y="-6.5" font-family="Helvetica,sans-Serif" font-size="10.00">ExceptionTools</text>
</a>
</g>
</g>
<!-- Node1&#45;&gt;Node9 -->
<g id="edge8_Node000001_Node000009" class="edge">
<title>Node1&#45;&gt;Node9</title>
<g id="a_edge8_Node000001_Node000009"><a xlink:title=" ">
<path fill="none" stroke="#63b8ff" d="M601.26,-80.41C677.74,-69.69 812.64,-50.67 938.98,-32.25"/>
<polygon fill="#63b8ff" stroke="#63b8ff" points="939.12,-35.77 948.51,-30.86 938.11,-28.84 939.12,-35.77"/>
</a>
</g>
</g>
<!-- Node10 -->
<g id="Node000010" class="node">
<title>Node10</title>
<g id="a_Node000010"><a xlink:title=" ">
<polygon fill="#e0e0e0" stroke="#999999" points="1330.25,-32 1149.25,-32 1149.25,0 1330.25,0 1330.25,-32"/>
<text text-anchor="start" x="1157.25" y="-18.5" font-family="Helvetica,sans-Serif" font-size="10.00">fr.softsf.sudokufx.common.exception.</text>
<text text-anchor="middle" x="1239.75" y="-6.5" font-family="Helvetica,sans-Serif" font-size="10.00">JakartaValidator</text>
</a>
</g>
</g>
<!-- Node1&#45;&gt;Node10 -->
<g id="edge9_Node000001_Node000010" class="edge">
<title>Node1&#45;&gt;Node10</title>
<g id="a_edge9_Node000001_Node000010"><a xlink:title=" ">
<path fill="none" stroke="#63b8ff" d="M601.3,-84.3C708.24,-75.89 935.51,-56.92 1137.45,-32.37"/>
<polygon fill="#63b8ff" stroke="#63b8ff" points="1137.87,-35.84 1147.37,-31.15 1137.02,-28.89 1137.87,-35.84"/>
</a>
</g>
</g>
</g>
</svg>
