<?xml version="1.0" encoding="UTF-8" standalone="no"?>
<!DOCTYPE svg PUBLIC "-//W3C//DTD SVG 1.1//EN"
 "http://www.w3.org/Graphics/SVG/1.1/DTD/svg11.dtd">
<!-- Generated by graphviz version 12.2.1 (20241206.2353)
 -->
<!-- Title: src/main/java/fr/softsf/sudokufx/common/util/sudoku/GridConverter.java Pages: 1 -->
<svg width="1067pt" height="120pt"
 viewBox="0.00 0.00 1067.12 120.00" xmlns="http://www.w3.org/2000/svg" xmlns:xlink="http://www.w3.org/1999/xlink">
<g id="graph0" class="graph" transform="scale(1 1) rotate(0) translate(4 116)">
<title>src/main/java/fr/softsf/sudokufx/common/util/sudoku/GridConverter.java</title>
<!-- Node1 -->
<g id="Node000001" class="node">
<title>Node1</title>
<g id="a_Node000001"><a xlink:title=" ">
<polygon fill="#999999" stroke="#666666" points="466.25,-112 331,-112 331,-68 466.25,-68 466.25,-112"/>
<text text-anchor="start" x="339" y="-98.5" font-family="Helvetica,sans-Serif" font-size="10.00">src/main/java/fr/softsf</text>
<text text-anchor="start" x="339" y="-86.5" font-family="Helvetica,sans-Serif" font-size="10.00">/sudokufx/common/util</text>
<text text-anchor="middle" x="398.62" y="-74.5" font-family="Helvetica,sans-Serif" font-size="10.00">/sudoku/GridConverter.java</text>
</a>
</g>
</g>
<!-- Node2 -->
<g id="Node000002" class="node">
<title>Node2</title>
<g id="a_Node000002"><a xlink:title=" ">
<polygon fill="#e0e0e0" stroke="#999999" points="81.25,-26 0,-26 0,-6 81.25,-6 81.25,-26"/>
<text text-anchor="middle" x="40.62" y="-12.5" font-family="Helvetica,sans-Serif" font-size="10.00">java.util.Arrays</text>
</a>
</g>
</g>
<!-- Node1&#45;&gt;Node2 -->
<g id="edge1_Node000001_Node000002" class="edge">
<title>Node1&#45;&gt;Node2</title>
<g id="a_edge1_Node000001_Node000002"><a xlink:title=" ">
<path fill="none" stroke="#63b8ff" d="M330.58,-78.58C267.87,-68.47 172.42,-51.78 90.62,-32 87.53,-31.25 84.34,-30.43 81.14,-29.56"/>
<polygon fill="#63b8ff" stroke="#63b8ff" points="82.39,-26.27 71.81,-26.91 80.48,-33.01 82.39,-26.27"/>
</a>
</g>
</g>
<!-- Node3 -->
<g id="Node000003" class="node">
<title>Node3</title>
<g id="a_Node000003"><a xlink:title=" ">
<polygon fill="#e0e0e0" stroke="#999999" points="167.88,-26 99.38,-26 99.38,-6 167.88,-6 167.88,-26"/>
<text text-anchor="middle" x="133.62" y="-12.5" font-family="Helvetica,sans-Serif" font-size="10.00">java.util.List</text>
</a>
</g>
</g>
<!-- Node1&#45;&gt;Node3 -->
<g id="edge2_Node000001_Node000003" class="edge">
<title>Node1&#45;&gt;Node3</title>
<g id="a_edge2_Node000001_Node000003"><a xlink:title=" ">
<path fill="none" stroke="#63b8ff" d="M330.55,-72.86C286.66,-62.11 228.5,-47.21 177.62,-32 175.39,-31.33 173.1,-30.62 170.79,-29.89"/>
<polygon fill="#63b8ff" stroke="#63b8ff" points="172.08,-26.63 161.48,-26.84 169.9,-33.28 172.08,-26.63"/>
</a>
</g>
</g>
<!-- Node4 -->
<g id="Node000004" class="node">
<title>Node4</title>
<g id="a_Node000004"><a xlink:title=" ">
<polygon fill="#e0e0e0" stroke="#999999" points="272.88,-26 186.38,-26 186.38,-6 272.88,-6 272.88,-26"/>
<text text-anchor="middle" x="229.62" y="-12.5" font-family="Helvetica,sans-Serif" font-size="10.00">java.util.Objects</text>
</a>
</g>
</g>
<!-- Node1&#45;&gt;Node4 -->
<g id="edge3_Node000001_Node000004" class="edge">
<title>Node1&#45;&gt;Node4</title>
<g id="a_edge3_Node000001_Node000004"><a xlink:title=" ">
<path fill="none" stroke="#63b8ff" d="M348.38,-67.59C320.53,-55.73 286.72,-41.32 262.3,-30.92"/>
<polygon fill="#63b8ff" stroke="#63b8ff" points="263.77,-27.74 253.19,-27.04 261.02,-34.18 263.77,-27.74"/>
</a>
</g>
</g>
<!-- Node5 -->
<g id="Node000005" class="node">
<title>Node5</title>
<g id="a_Node000005"><a xlink:title=" ">
<polygon fill="#e0e0e0" stroke="#999999" points="380,-26 291.25,-26 291.25,-6 380,-6 380,-26"/>
<text text-anchor="middle" x="335.62" y="-12.5" font-family="Helvetica,sans-Serif" font-size="10.00">java.util.Optional</text>
</a>
</g>
</g>
<!-- Node1&#45;&gt;Node5 -->
<g id="edge4_Node000001_Node000005" class="edge">
<title>Node1&#45;&gt;Node5</title>
<g id="a_edge4_Node000001_Node000005"><a xlink:title=" ">
<path fill="none" stroke="#63b8ff" d="M380.06,-67.79C370.93,-57.35 360.04,-44.91 351.33,-34.95"/>
<polygon fill="#63b8ff" stroke="#63b8ff" points="353.99,-32.67 344.77,-27.45 348.72,-37.28 353.99,-32.67"/>
</a>
</g>
</g>
<!-- Node6 -->
<g id="Node000006" class="node">
<title>Node6</title>
<g id="a_Node000006"><a xlink:title=" ">
<polygon fill="#e0e0e0" stroke="#999999" points="527.62,-26 397.62,-26 397.62,-6 527.62,-6 527.62,-26"/>
<text text-anchor="middle" x="462.62" y="-12.5" font-family="Helvetica,sans-Serif" font-size="10.00">java.util.stream.Collectors</text>
</a>
</g>
</g>
<!-- Node1&#45;&gt;Node6 -->
<g id="edge5_Node000001_Node000006" class="edge">
<title>Node1&#45;&gt;Node6</title>
<g id="a_edge5_Node000001_Node000006"><a xlink:title=" ">
<path fill="none" stroke="#63b8ff" d="M417.48,-67.79C426.85,-57.24 438.05,-44.65 446.94,-34.64"/>
<polygon fill="#63b8ff" stroke="#63b8ff" points="449.32,-37.24 453.34,-27.44 444.08,-32.59 449.32,-37.24"/>
</a>
</g>
</g>
<!-- Node7 -->
<g id="Node000007" class="node">
<title>Node7</title>
<g id="a_Node000007"><a xlink:title=" ">
<polygon fill="#e0e0e0" stroke="#999999" points="685.12,-32 546.12,-32 546.12,0 685.12,0 685.12,-32"/>
<text text-anchor="start" x="554.12" y="-18.5" font-family="Helvetica,sans-Serif" font-size="10.00">org.apache.commons.lang3.</text>
<text text-anchor="middle" x="615.62" y="-6.5" font-family="Helvetica,sans-Serif" font-size="10.00">StringUtils</text>
</a>
</g>
</g>
<!-- Node1&#45;&gt;Node7 -->
<g id="edge6_Node000001_Node000007" class="edge">
<title>Node1&#45;&gt;Node7</title>
<g id="a_edge6_Node000001_Node000007"><a xlink:title=" ">
<path fill="none" stroke="#63b8ff" d="M463.14,-67.59C493.28,-57.59 528.86,-45.79 558.07,-36.1"/>
<polygon fill="#63b8ff" stroke="#63b8ff" points="559.1,-39.44 567.49,-32.97 556.89,-32.8 559.1,-39.44"/>
</a>
</g>
</g>
<!-- Node8 -->
<g id="Node000008" class="node">
<title>Node8</title>
<g id="a_Node000008"><a xlink:title=" ">
<polygon fill="#e0e0e0" stroke="#999999" points="859.75,-32 703.5,-32 703.5,0 859.75,0 859.75,-32"/>
<text text-anchor="start" x="711.5" y="-18.5" font-family="Helvetica,sans-Serif" font-size="10.00">org.springframework.stereotype.</text>
<text text-anchor="middle" x="781.62" y="-6.5" font-family="Helvetica,sans-Serif" font-size="10.00">Component</text>
</a>
</g>
</g>
<!-- Node1&#45;&gt;Node8 -->
<g id="edge7_Node000001_Node000008" class="edge">
<title>Node1&#45;&gt;Node8</title>
<g id="a_edge7_Node000001_Node000008"><a xlink:title=" ">
<path fill="none" stroke="#63b8ff" d="M466.66,-76.21C529.47,-64.4 623.19,-46.78 692.07,-33.84"/>
<polygon fill="#63b8ff" stroke="#63b8ff" points="692.67,-37.28 701.85,-32 691.37,-30.41 692.67,-37.28"/>
</a>
</g>
</g>
<!-- Node9 -->
<g id="Node000009" class="node">
<title>Node9</title>
<g id="a_Node000009"><a xlink:title=" ">
<polygon fill="#e0e0e0" stroke="#999999" points="1059.12,-32 878.12,-32 878.12,0 1059.12,0 1059.12,-32"/>
<text text-anchor="start" x="886.12" y="-18.5" font-family="Helvetica,sans-Serif" font-size="10.00">fr.softsf.sudokufx.common.exception.</text>
<text text-anchor="middle" x="968.62" y="-6.5" font-family="Helvetica,sans-Serif" font-size="10.00">ExceptionTools</text>
</a>
</g>
</g>
<!-- Node1&#45;&gt;Node9 -->
<g id="edge8_Node000001_Node000009" class="edge">
<title>Node1&#45;&gt;Node9</title>
<g id="a_edge8_Node000001_Node000009"><a xlink:title=" ">
<path fill="none" stroke="#63b8ff" d="M466.42,-81.39C555.61,-71.23 717.53,-52.34 866.72,-32.24"/>
<polygon fill="#63b8ff" stroke="#63b8ff" points="866.95,-35.74 876.39,-30.93 866.01,-28.8 866.95,-35.74"/>
</a>
</g>
</g>
</g>
</svg>
