<?xml version="1.0" encoding="UTF-8" standalone="no"?>
<!DOCTYPE svg PUBLIC "-//W3C//DTD SVG 1.1//EN"
 "http://www.w3.org/Graphics/SVG/1.1/DTD/svg11.dtd">
<!-- Generated by graphviz version 12.2.1 (20241206.2353)
 -->
<!-- Title: src/main/java/fr/softsf/sudokufx/viewmodel/grid/GridViewModel.java Pages: 1 -->
<!--zoomable 120 -->

<svg id="main" version="1.1" xmlns="http://www.w3.org/2000/svg" xmlns:xlink="http://www.w3.org/1999/xlink" xml:space="preserve" onload="init(evt)">

<style type="text/css"><![CDATA[
.node, .edge {opacity: 0.7;}
.node.selected, .edge.selected {opacity: 1;}
.edge:hover path { stroke: red; }
.edge:hover polygon { stroke: red; fill: red; }
]]></style>

<defs>
  <circle id="rim" cx="0" cy="0" r="7"/>
  <circle id="rim2" cx="0" cy="0" r="3.5"/>
  <g id="zoomPlus">
    <use xlink:href="#rim" fill="#404040"><set attributeName="fill" to="#808080" begin="zoomplus.mouseover" end="zoomplus.mouseout"/></use>
    <path d="M-4,0h8M0,-4v8" fill="none" stroke="white" stroke-width="1.5" pointer-events="none"/>
  </g>
  <g id="zoomMin">
    <use xlink:href="#rim" fill="#404040"><set attributeName="fill" to="#808080" begin="zoomminus.mouseover" end="zoomminus.mouseout"/></use>
    <path d="M-4,0h8" fill="none" stroke="white" stroke-width="1.5" pointer-events="none"/>
  </g>
  <g id="arrowUp" transform="translate(30 24)">
    <use xlink:href="#rim"/>
    <path pointer-events="none" fill="none" stroke="white" stroke-width="1.5" d="M0,-3.0v7 M-2.5,-0.5L0,-3.0L2.5,-0.5"/>
  </g>
  <g id="arrowRight" transform="rotate(90) translate(36 -43)">
    <use xlink:href="#rim"/>
    <path pointer-events="none" fill="none" stroke="white" stroke-width="1.5" d="M0,-3.0v7 M-2.5,-0.5L0,-3.0L2.5,-0.5"/>
  </g>
  <g id="arrowDown" transform="rotate(180) translate(-30 -48)">
    <use xlink:href="#rim"/>
    <path pointer-events="none" fill="none" stroke="white" stroke-width="1.5" d="M0,-3.0v7 M-2.5,-0.5L0,-3.0L2.5,-0.5"/>
  </g>
  <g id="arrowLeft" transform="rotate(270) translate(-36 17)">
    <use xlink:href="#rim"/>
    <path pointer-events="none" fill="none" stroke="white" stroke-width="1.5" d="M0,-3.0v7 M-2.5,-0.5L0,-3.0L2.5,-0.5"/>
  </g>
  <g id="resetDef">
    <use xlink:href="#rim2" fill="#404040"><set attributeName="fill" to="#808080" begin="reset.mouseover" end="reset.mouseout"/></use>
  </g>
</defs>
<script type="application/ecmascript">
var viewWidth = 4554;
var viewHeight = 120;
var sectionId = 'dynsection-0';
</script>
<script type="application/ecmascript" xlink:href="svg.min.js"/>
<svg id="graph" class="graph">
<g id="viewport">
<title>src/main/java/fr/softsf/sudokufx/viewmodel/grid/GridViewModel.java</title>
<!-- Node1 -->
<g id="Node000001" class="node">
<title>Node1</title>
<g id="a_Node000001"><a xlink:title=" ">
<polygon fill="#999999" stroke="#666666" points="1905.12,-112 1778.12,-112 1778.12,-68 1905.12,-68 1905.12,-112"/>
<text text-anchor="start" x="1786.12" y="-98.5" font-family="Helvetica,sans-Serif" font-size="10.00">src/main/java/fr/softsf</text>
<text text-anchor="start" x="1786.12" y="-86.5" font-family="Helvetica,sans-Serif" font-size="10.00">/sudokufx/viewmodel/grid</text>
<text text-anchor="middle" x="1841.62" y="-74.5" font-family="Helvetica,sans-Serif" font-size="10.00">/GridViewModel.java</text>
</a>
</g>
</g>
<!-- Node2 -->
<g id="Node000002" class="node">
<title>Node2</title>
<g id="a_Node000002"><a xlink:title=" ">
<polygon fill="#e0e0e0" stroke="#999999" points="63.25,-26 0,-26 0,-6 63.25,-6 63.25,-26"/>
<text text-anchor="middle" x="31.62" y="-12.5" font-family="Helvetica,sans-Serif" font-size="10.00">java.io.File</text>
</a>
</g>
</g>
<!-- Node1&#45;&gt;Node2 -->
<g id="edge1_Node000001_Node000002" class="edge">
<title>Node1&#45;&gt;Node2</title>
<g id="a_edge1_Node000001_Node000002"><a xlink:title=" ">
<path fill="none" stroke="#63b8ff" d="M1778,-88.18C1481.37,-84.19 241.37,-65.61 71.62,-32 68.99,-31.48 66.29,-30.8 63.61,-30.03"/>
<polygon fill="#63b8ff" stroke="#63b8ff" points="64.87,-26.76 54.27,-26.9 62.64,-33.39 64.87,-26.76"/>
</a>
</g>
</g>
<!-- Node3 -->
<g id="Node000003" class="node">
<title>Node3</title>
<g id="a_Node000003"><a xlink:title=" ">
<polygon fill="#e0e0e0" stroke="#999999" points="208.12,-26 81.12,-26 81.12,-6 208.12,-6 208.12,-26"/>
<text text-anchor="middle" x="144.62" y="-12.5" font-family="Helvetica,sans-Serif" font-size="10.00">java.text.MessageFormat</text>
</a>
</g>
</g>
<!-- Node1&#45;&gt;Node3 -->
<g id="edge2_Node000001_Node000003" class="edge">
<title>Node1&#45;&gt;Node3</title>
<g id="a_edge2_Node000001_Node000003"><a xlink:title=" ">
<path fill="none" stroke="#63b8ff" d="M1777.99,-88.19C1517.02,-84.66 527.87,-69.05 217.62,-32 210.54,-31.15 203.13,-29.98 195.85,-28.65"/>
<polygon fill="#63b8ff" stroke="#63b8ff" points="196.56,-25.22 186.08,-26.76 195.23,-32.1 196.56,-25.22"/>
</a>
</g>
</g>
<!-- Node4 -->
<g id="Node000004" class="node">
<title>Node4</title>
<g id="a_Node000004"><a xlink:title=" ">
<polygon fill="#e0e0e0" stroke="#999999" points="351,-26 226.25,-26 226.25,-6 351,-6 351,-26"/>
<text text-anchor="middle" x="288.62" y="-12.5" font-family="Helvetica,sans-Serif" font-size="10.00">java.time.LocalDateTime</text>
</a>
</g>
</g>
<!-- Node1&#45;&gt;Node4 -->
<g id="edge3_Node000001_Node000004" class="edge">
<title>Node1&#45;&gt;Node4</title>
<g id="a_edge3_Node000001_Node000004"><a xlink:title=" ">
<path fill="none" stroke="#63b8ff" d="M1777.78,-87.99C1531.15,-83.86 640.38,-66.8 359.62,-32 352.81,-31.16 345.69,-29.99 338.69,-28.68"/>
<polygon fill="#63b8ff" stroke="#63b8ff" points="339.46,-25.27 328.97,-26.75 338.09,-32.13 339.46,-25.27"/>
</a>
</g>
</g>
<!-- Node5 -->
<g id="Node000005" class="node">
<title>Node5</title>
<g id="a_Node000005"><a xlink:title=" ">
<polygon fill="#e0e0e0" stroke="#999999" points="460.5,-26 368.75,-26 368.75,-6 460.5,-6 460.5,-26"/>
<text text-anchor="middle" x="414.62" y="-12.5" font-family="Helvetica,sans-Serif" font-size="10.00">java.util.ArrayList</text>
</a>
</g>
</g>
<!-- Node1&#45;&gt;Node5 -->
<g id="edge4_Node000001_Node000005" class="edge">
<title>Node1&#45;&gt;Node5</title>
<g id="a_edge4_Node000001_Node000005"><a xlink:title=" ">
<path fill="none" stroke="#63b8ff" d="M1777.69,-88.25C1542.64,-85.19 726.7,-71.88 469.62,-32 465,-31.28 460.21,-30.32 455.48,-29.23"/>
<polygon fill="#63b8ff" stroke="#63b8ff" points="456.64,-25.91 446.09,-26.86 454.93,-32.7 456.64,-25.91"/>
</a>
</g>
</g>
<!-- Node6 -->
<g id="Node000006" class="node">
<title>Node6</title>
<g id="a_Node000006"><a xlink:title=" ">
<polygon fill="#e0e0e0" stroke="#999999" points="560.25,-26 479,-26 479,-6 560.25,-6 560.25,-26"/>
<text text-anchor="middle" x="519.62" y="-12.5" font-family="Helvetica,sans-Serif" font-size="10.00">java.util.Arrays</text>
</a>
</g>
</g>
<!-- Node1&#45;&gt;Node6 -->
<g id="edge5_Node000001_Node000006" class="edge">
<title>Node1&#45;&gt;Node6</title>
<g id="a_edge5_Node000001_Node000006"><a xlink:title=" ">
<path fill="none" stroke="#63b8ff" d="M1777.69,-88.27C1553.64,-85.37 804.89,-72.78 568.62,-32 564.83,-31.34 560.91,-30.48 557.03,-29.5"/>
<polygon fill="#63b8ff" stroke="#63b8ff" points="558.32,-26.23 547.74,-26.9 556.43,-32.97 558.32,-26.23"/>
</a>
</g>
</g>
<!-- Node7 -->
<g id="Node000007" class="node">
<title>Node7</title>
<g id="a_Node000007"><a xlink:title=" ">
<polygon fill="#e0e0e0" stroke="#999999" points="679.38,-26 577.88,-26 577.88,-6 679.38,-6 679.38,-26"/>
<text text-anchor="middle" x="628.62" y="-12.5" font-family="Helvetica,sans-Serif" font-size="10.00">java.util.Collections</text>
</a>
</g>
</g>
<!-- Node1&#45;&gt;Node7 -->
<g id="edge6_Node000001_Node000007" class="edge">
<title>Node1&#45;&gt;Node7</title>
<g id="a_edge6_Node000001_Node000007"><a xlink:title=" ">
<path fill="none" stroke="#63b8ff" d="M1777.68,-87.49C1567.81,-82.26 901.37,-63.54 688.62,-32 683.33,-31.21 677.82,-30.17 672.38,-28.99"/>
<polygon fill="#63b8ff" stroke="#63b8ff" points="673.41,-25.63 662.88,-26.77 671.82,-32.45 673.41,-25.63"/>
</a>
</g>
</g>
<!-- Node8 -->
<g id="Node000008" class="node">
<title>Node8</title>
<g id="a_Node000008"><a xlink:title=" ">
<polygon fill="#e0e0e0" stroke="#999999" points="765.88,-26 697.38,-26 697.38,-6 765.88,-6 765.88,-26"/>
<text text-anchor="middle" x="731.62" y="-12.5" font-family="Helvetica,sans-Serif" font-size="10.00">java.util.List</text>
</a>
</g>
</g>
<!-- Node1&#45;&gt;Node8 -->
<g id="edge7_Node000001_Node000008" class="edge">
<title>Node1&#45;&gt;Node8</title>
<g id="a_edge7_Node000001_Node000008"><a xlink:title=" ">
<path fill="none" stroke="#63b8ff" d="M1777.9,-87.89C1578.69,-84.05 969.42,-69.47 775.62,-32 772.61,-31.42 769.52,-30.68 766.44,-29.84"/>
<polygon fill="#63b8ff" stroke="#63b8ff" points="767.54,-26.51 756.95,-26.92 765.48,-33.2 767.54,-26.51"/>
</a>
</g>
</g>
<!-- Node9 -->
<g id="Node000009" class="node">
<title>Node9</title>
<g id="a_Node000009"><a xlink:title=" ">
<polygon fill="#e0e0e0" stroke="#999999" points="870.88,-26 784.38,-26 784.38,-6 870.88,-6 870.88,-26"/>
<text text-anchor="middle" x="827.62" y="-12.5" font-family="Helvetica,sans-Serif" font-size="10.00">java.util.Objects</text>
</a>
</g>
</g>
<!-- Node1&#45;&gt;Node9 -->
<g id="edge8_Node000001_Node000009" class="edge">
<title>Node1&#45;&gt;Node9</title>
<g id="a_edge8_Node000001_Node000009"><a xlink:title=" ">
<path fill="none" stroke="#63b8ff" d="M1777.78,-87.02C1592.03,-80.97 1054.07,-61.33 880.62,-32 876.47,-31.3 872.17,-30.39 867.9,-29.37"/>
<polygon fill="#63b8ff" stroke="#63b8ff" points="868.83,-26 858.27,-26.86 867.06,-32.77 868.83,-26"/>
</a>
</g>
</g>
<!-- Node10 -->
<g id="Node000010" class="node">
<title>Node10</title>
<g id="a_Node000010"><a xlink:title=" ">
<polygon fill="#e0e0e0" stroke="#999999" points="978,-26 889.25,-26 889.25,-6 978,-6 978,-26"/>
<text text-anchor="middle" x="933.62" y="-12.5" font-family="Helvetica,sans-Serif" font-size="10.00">java.util.Optional</text>
</a>
</g>
</g>
<!-- Node1&#45;&gt;Node10 -->
<g id="edge9_Node000001_Node000010" class="edge">
<title>Node1&#45;&gt;Node10</title>
<g id="a_edge9_Node000001_Node000010"><a xlink:title=" ">
<path fill="none" stroke="#63b8ff" d="M1777.8,-89.28C1634.96,-88.93 1279.08,-82.56 986.62,-32 982.47,-31.28 978.17,-30.37 973.91,-29.34"/>
<polygon fill="#63b8ff" stroke="#63b8ff" points="974.83,-25.97 964.27,-26.82 973.06,-32.74 974.83,-25.97"/>
</a>
</g>
</g>
<!-- Node11 -->
<g id="Node000011" class="node">
<title>Node11</title>
<g id="a_Node000011"><a xlink:title=" ">
<polygon fill="#e0e0e0" stroke="#999999" points="1135.12,-32 996.12,-32 996.12,0 1135.12,0 1135.12,-32"/>
<text text-anchor="start" x="1004.12" y="-18.5" font-family="Helvetica,sans-Serif" font-size="10.00">org.apache.commons.lang3.</text>
<text text-anchor="middle" x="1065.62" y="-6.5" font-family="Helvetica,sans-Serif" font-size="10.00">StringUtils</text>
</a>
</g>
</g>
<!-- Node1&#45;&gt;Node11 -->
<g id="edge10_Node000001_Node000011" class="edge">
<title>Node1&#45;&gt;Node11</title>
<g id="a_edge10_Node000001_Node000011"><a xlink:title=" ">
<path fill="none" stroke="#63b8ff" d="M1777.95,-86.06C1656.99,-79.97 1385.49,-63.96 1146.69,-32.18"/>
<polygon fill="#63b8ff" stroke="#63b8ff" points="1147.22,-28.72 1136.85,-30.86 1146.29,-35.66 1147.22,-28.72"/>
</a>
</g>
</g>
<!-- Node12 -->
<g id="Node000012" class="node">
<title>Node12</title>
<g id="a_Node000012"><a xlink:title=" ">
<polygon fill="#e0e0e0" stroke="#999999" points="1236,-26 1153.25,-26 1153.25,-6 1236,-6 1236,-26"/>
<text text-anchor="middle" x="1194.62" y="-12.5" font-family="Helvetica,sans-Serif" font-size="10.00">org.slf4j.Logger</text>
</a>
</g>
</g>
<!-- Node1&#45;&gt;Node12 -->
<g id="edge11_Node000001_Node000012" class="edge">
<title>Node1&#45;&gt;Node12</title>
<g id="a_edge11_Node000001_Node000012"><a xlink:title=" ">
<path fill="none" stroke="#63b8ff" d="M1777.86,-87.01C1668.02,-82.68 1436.46,-69.56 1244.62,-32 1241.02,-31.29 1237.31,-30.44 1233.61,-29.49"/>
<polygon fill="#63b8ff" stroke="#63b8ff" points="1234.71,-26.17 1224.13,-26.87 1232.84,-32.91 1234.71,-26.17"/>
</a>
</g>
</g>
<!-- Node13 -->
<g id="Node000013" class="node">
<title>Node13</title>
<g id="a_Node000013"><a xlink:title=" ">
<polygon fill="#e0e0e0" stroke="#999999" points="1369.5,-26 1253.75,-26 1253.75,-6 1369.5,-6 1369.5,-26"/>
<text text-anchor="middle" x="1311.62" y="-12.5" font-family="Helvetica,sans-Serif" font-size="10.00">org.slf4j.LoggerFactory</text>
</a>
</g>
</g>
<!-- Node1&#45;&gt;Node13 -->
<g id="edge12_Node000001_Node000013" class="edge">
<title>Node1&#45;&gt;Node13</title>
<g id="a_edge12_Node000001_Node000013"><a xlink:title=" ">
<path fill="none" stroke="#63b8ff" d="M1777.68,-83.12C1688.08,-74.44 1520.27,-56.52 1378.62,-32 1373.11,-31.05 1367.37,-29.94 1361.67,-28.76"/>
<polygon fill="#63b8ff" stroke="#63b8ff" points="1362.81,-25.43 1352.3,-26.77 1361.35,-32.28 1362.81,-25.43"/>
</a>
</g>
</g>
<!-- Node14 -->
<g id="Node000014" class="node">
<title>Node14</title>
<g id="a_Node000014"><a xlink:title=" ">
<polygon fill="#e0e0e0" stroke="#999999" points="1543.75,-32 1387.5,-32 1387.5,0 1543.75,0 1543.75,-32"/>
<text text-anchor="start" x="1395.5" y="-18.5" font-family="Helvetica,sans-Serif" font-size="10.00">org.springframework.stereotype.</text>
<text text-anchor="middle" x="1465.62" y="-6.5" font-family="Helvetica,sans-Serif" font-size="10.00">Component</text>
</a>
</g>
</g>
<!-- Node1&#45;&gt;Node14 -->
<g id="edge13_Node000001_Node000014" class="edge">
<title>Node1&#45;&gt;Node14</title>
<g id="a_edge13_Node000001_Node000014"><a xlink:title=" ">
<path fill="none" stroke="#63b8ff" d="M1777.84,-76.79C1716.71,-65.08 1623.87,-47.3 1555.3,-34.17"/>
<polygon fill="#63b8ff" stroke="#63b8ff" points="1556.06,-30.75 1545.58,-32.31 1554.74,-37.63 1556.06,-30.75"/>
</a>
</g>
</g>
<!-- Node15 -->
<g id="Node000015" class="node">
<title>Node15</title>
<g id="a_Node000015"><a xlink:title=" ">
<polygon fill="#e0e0e0" stroke="#999999" points="1729.75,-32 1561.5,-32 1561.5,0 1729.75,0 1729.75,-32"/>
<text text-anchor="start" x="1569.5" y="-18.5" font-family="Helvetica,sans-Serif" font-size="10.00">fr.softsf.sudokufx.common.enums.</text>
<text text-anchor="middle" x="1645.62" y="-6.5" font-family="Helvetica,sans-Serif" font-size="10.00">DifficultyLevel</text>
</a>
</g>
</g>
<!-- Node1&#45;&gt;Node15 -->
<g id="edge14_Node000001_Node000015" class="edge">
<title>Node1&#45;&gt;Node15</title>
<g id="a_edge14_Node000001_Node000015"><a xlink:title=" ">
<path fill="none" stroke="#63b8ff" d="M1783.35,-67.59C1756.37,-57.68 1724.56,-46 1698.31,-36.35"/>
<polygon fill="#63b8ff" stroke="#63b8ff" points="1699.82,-33.18 1689.23,-33.02 1697.41,-39.75 1699.82,-33.18"/>
</a>
</g>
</g>
<!-- Node16 -->
<g id="Node000016" class="node">
<title>Node16</title>
<g id="a_Node000016"><a xlink:title=" ">
<polygon fill="#e0e0e0" stroke="#999999" points="1935.12,-26 1748.12,-26 1748.12,-6 1935.12,-6 1935.12,-26"/>
<text text-anchor="middle" x="1841.62" y="-12.5" font-family="Helvetica,sans-Serif" font-size="10.00">fr.softsf.sudokufx.common.enums.I18n</text>
</a>
</g>
</g>
<!-- Node1&#45;&gt;Node16 -->
<g id="edge15_Node000001_Node000016" class="edge">
<title>Node1&#45;&gt;Node16</title>
<g id="a_edge15_Node000001_Node000016"><a xlink:title=" ">
<path fill="none" stroke="#63b8ff" d="M1841.62,-67.79C1841.62,-58.32 1841.62,-47.2 1841.62,-37.78"/>
<polygon fill="#63b8ff" stroke="#63b8ff" points="1845.13,-37.82 1841.63,-27.82 1838.13,-37.82 1845.13,-37.82"/>
</a>
</g>
</g>
<!-- Node17 -->
<g id="Node000017" class="node">
<title>Node17</title>
<g id="a_Node000017"><a xlink:title=" ">
<polygon fill="#e0e0e0" stroke="#999999" points="2121.75,-32 1953.5,-32 1953.5,0 2121.75,0 2121.75,-32"/>
<text text-anchor="start" x="1961.5" y="-18.5" font-family="Helvetica,sans-Serif" font-size="10.00">fr.softsf.sudokufx.common.enums.</text>
<text text-anchor="middle" x="2037.62" y="-6.5" font-family="Helvetica,sans-Serif" font-size="10.00">ToastLevels</text>
</a>
</g>
</g>
<!-- Node1&#45;&gt;Node17 -->
<g id="edge16_Node000001_Node000017" class="edge">
<title>Node1&#45;&gt;Node17</title>
<g id="a_edge16_Node000001_Node000017"><a xlink:title=" ">
<path fill="none" stroke="#63b8ff" d="M1899.9,-67.59C1926.88,-57.68 1958.69,-46 1984.94,-36.35"/>
<polygon fill="#63b8ff" stroke="#63b8ff" points="1985.84,-39.75 1994.02,-33.02 1983.43,-33.18 1985.84,-39.75"/>
</a>
</g>
</g>
<!-- Node18 -->
<g id="Node000018" class="node">
<title>Node18</title>
<g id="a_Node000018"><a xlink:title=" ">
<polygon fill="#e0e0e0" stroke="#999999" points="2325.75,-32 2139.5,-32 2139.5,0 2325.75,0 2325.75,-32"/>
<text text-anchor="start" x="2147.5" y="-18.5" font-family="Helvetica,sans-Serif" font-size="10.00">fr.softsf.sudokufx.common.util.sudoku.</text>
<text text-anchor="middle" x="2232.62" y="-6.5" font-family="Helvetica,sans-Serif" font-size="10.00">GrilleResolue</text>
</a>
</g>
</g>
<!-- Node1&#45;&gt;Node18 -->
<g id="edge17_Node000001_Node000018" class="edge">
<title>Node1&#45;&gt;Node18</title>
<g id="a_edge17_Node000001_Node000018"><a xlink:title=" ">
<path fill="none" stroke="#63b8ff" d="M1905.32,-77.27C1968.3,-65.67 2065.45,-47.78 2137.56,-34.5"/>
<polygon fill="#63b8ff" stroke="#63b8ff" points="2137.77,-38.02 2146.98,-32.77 2136.51,-31.14 2137.77,-38.02"/>
</a>
</g>
</g>
<!-- Node19 -->
<g id="Node000019" class="node">
<title>Node19</title>
<g id="a_Node000019"><a xlink:title=" ">
<polygon fill="#e0e0e0" stroke="#999999" points="2529.75,-32 2343.5,-32 2343.5,0 2529.75,0 2529.75,-32"/>
<text text-anchor="start" x="2351.5" y="-18.5" font-family="Helvetica,sans-Serif" font-size="10.00">fr.softsf.sudokufx.common.util.sudoku.</text>
<text text-anchor="middle" x="2436.62" y="-6.5" font-family="Helvetica,sans-Serif" font-size="10.00">GrillesCrees</text>
</a>
</g>
</g>
<!-- Node1&#45;&gt;Node19 -->
<g id="edge18_Node000001_Node000019" class="edge">
<title>Node1&#45;&gt;Node19</title>
<g id="a_edge18_Node000001_Node000019"><a xlink:title=" ">
<path fill="none" stroke="#63b8ff" d="M1905.52,-82.25C1997.48,-72.39 2172.76,-53.08 2332.29,-32.28"/>
<polygon fill="#63b8ff" stroke="#63b8ff" points="2332.3,-35.81 2341.76,-31.04 2331.39,-28.87 2332.3,-35.81"/>
</a>
</g>
</g>
<!-- Node20 -->
<g id="Node000020" class="node">
<title>Node20</title>
<g id="a_Node000020"><a xlink:title=" ">
<polygon fill="#e0e0e0" stroke="#999999" points="2733.75,-32 2547.5,-32 2547.5,0 2733.75,0 2733.75,-32"/>
<text text-anchor="start" x="2555.5" y="-18.5" font-family="Helvetica,sans-Serif" font-size="10.00">fr.softsf.sudokufx.common.util.sudoku.</text>
<text text-anchor="middle" x="2640.62" y="-6.5" font-family="Helvetica,sans-Serif" font-size="10.00">IGridConverter</text>
</a>
</g>
</g>
<!-- Node1&#45;&gt;Node20 -->
<g id="edge19_Node000001_Node000020" class="edge">
<title>Node1&#45;&gt;Node20</title>
<g id="a_edge19_Node000001_Node000020"><a xlink:title=" ">
<path fill="none" stroke="#63b8ff" d="M1905.19,-85.18C2025.97,-77.61 2297.17,-59.2 2535.93,-32.26"/>
<polygon fill="#63b8ff" stroke="#63b8ff" points="2536.23,-35.75 2545.77,-31.14 2535.44,-28.8 2536.23,-35.75"/>
</a>
</g>
</g>
<!-- Node21 -->
<g id="Node000021" class="node">
<title>Node21</title>
<g id="a_Node000021"><a xlink:title=" ">
<polygon fill="#e0e0e0" stroke="#999999" points="2937.75,-32 2751.5,-32 2751.5,0 2937.75,0 2937.75,-32"/>
<text text-anchor="start" x="2759.5" y="-18.5" font-family="Helvetica,sans-Serif" font-size="10.00">fr.softsf.sudokufx.common.util.sudoku.</text>
<text text-anchor="middle" x="2844.62" y="-6.5" font-family="Helvetica,sans-Serif" font-size="10.00">IGridMaster</text>
</a>
</g>
</g>
<!-- Node1&#45;&gt;Node21 -->
<g id="edge20_Node000001_Node000021" class="edge">
<title>Node1&#45;&gt;Node21</title>
<g id="a_edge20_Node000001_Node000021"><a xlink:title=" ">
<path fill="none" stroke="#63b8ff" d="M1905.41,-86.78C2051.29,-81.32 2420.71,-65.25 2739.68,-32.26"/>
<polygon fill="#63b8ff" stroke="#63b8ff" points="2739.92,-35.75 2749.5,-31.23 2739.19,-28.79 2739.92,-35.75"/>
</a>
</g>
</g>
<!-- Node22 -->
<g id="Node000022" class="node">
<title>Node22</title>
<g id="a_Node000022"><a xlink:title=" ">
<polygon fill="#e0e0e0" stroke="#999999" points="3109.62,-26 2955.62,-26 2955.62,-6 3109.62,-6 3109.62,-26"/>
<text text-anchor="middle" x="3032.62" y="-12.5" font-family="Helvetica,sans-Serif" font-size="10.00">fr.softsf.sudokufx.dto.GameDto</text>
</a>
</g>
</g>
<!-- Node1&#45;&gt;Node22 -->
<g id="edge21_Node000001_Node000022" class="edge">
<title>Node1&#45;&gt;Node22</title>
<g id="a_edge21_Node000001_Node000022"><a xlink:title=" ">
<path fill="none" stroke="#63b8ff" d="M1905.38,-88.41C2075.2,-86.25 2552.44,-76.38 2946.62,-32 2955.31,-31.02 2964.44,-29.72 2973.38,-28.3"/>
<polygon fill="#63b8ff" stroke="#63b8ff" points="2973.78,-31.78 2983.07,-26.69 2972.63,-24.88 2973.78,-31.78"/>
</a>
</g>
</g>
<!-- Node23 -->
<g id="Node000023" class="node">
<title>Node23</title>
<g id="a_Node000023"><a xlink:title=" ">
<polygon fill="#e0e0e0" stroke="#999999" points="3265.75,-32 3127.5,-32 3127.5,0 3265.75,0 3265.75,-32"/>
<text text-anchor="start" x="3135.5" y="-18.5" font-family="Helvetica,sans-Serif" font-size="10.00">fr.softsf.sudokufx.dto.Game</text>
<text text-anchor="middle" x="3196.62" y="-6.5" font-family="Helvetica,sans-Serif" font-size="10.00">LevelDto</text>
</a>
</g>
</g>
<!-- Node1&#45;&gt;Node23 -->
<g id="edge22_Node000001_Node000023" class="edge">
<title>Node1&#45;&gt;Node23</title>
<g id="a_edge22_Node000001_Node000023"><a xlink:title=" ">
<path fill="none" stroke="#63b8ff" d="M1905.34,-89.42C2090.81,-89.96 2646.46,-86.63 3115.96,-32.19"/>
<polygon fill="#63b8ff" stroke="#63b8ff" points="3116.36,-35.67 3125.88,-31.03 3115.54,-28.72 3116.36,-35.67"/>
</a>
</g>
</g>
<!-- Node24 -->
<g id="Node000024" class="node">
<title>Node24</title>
<g id="a_Node000024"><a xlink:title=" ">
<polygon fill="#e0e0e0" stroke="#999999" points="3429.5,-26 3283.75,-26 3283.75,-6 3429.5,-6 3429.5,-26"/>
<text text-anchor="middle" x="3356.62" y="-12.5" font-family="Helvetica,sans-Serif" font-size="10.00">fr.softsf.sudokufx.dto.GridDto</text>
</a>
</g>
</g>
<!-- Node1&#45;&gt;Node24 -->
<g id="edge23_Node000001_Node000024" class="edge">
<title>Node1&#45;&gt;Node24</title>
<g id="a_edge23_Node000001_Node000024"><a xlink:title=" ">
<path fill="none" stroke="#63b8ff" d="M1905.43,-89.66C2107.03,-91.08 2748.14,-90.33 3274.62,-32 3282.93,-31.08 3291.65,-29.81 3300.19,-28.4"/>
<polygon fill="#63b8ff" stroke="#63b8ff" points="3300.51,-31.9 3309.76,-26.74 3299.31,-25 3300.51,-31.9"/>
</a>
</g>
</g>
<!-- Node25 -->
<g id="Node000025" class="node">
<title>Node25</title>
<g id="a_Node000025"><a xlink:title=" ">
<polygon fill="#e0e0e0" stroke="#999999" points="3603.38,-26 3447.88,-26 3447.88,-6 3603.38,-6 3603.38,-26"/>
<text text-anchor="middle" x="3525.62" y="-12.5" font-family="Helvetica,sans-Serif" font-size="10.00">fr.softsf.sudokufx.dto.PlayerDto</text>
</a>
</g>
</g>
<!-- Node1&#45;&gt;Node25 -->
<g id="edge24_Node000001_Node000025" class="edge">
<title>Node1&#45;&gt;Node25</title>
<g id="a_edge24_Node000001_Node000025"><a xlink:title=" ">
<path fill="none" stroke="#63b8ff" d="M1905.48,-87.87C2163.98,-83.14 3133.52,-63.6 3438.62,-32 3447.62,-31.07 3457.09,-29.77 3466.34,-28.32"/>
<polygon fill="#63b8ff" stroke="#63b8ff" points="3466.67,-31.81 3475.97,-26.74 3465.54,-24.91 3466.67,-31.81"/>
</a>
</g>
</g>
<!-- Node26 -->
<g id="Node000026" class="node">
<title>Node26</title>
<g id="a_Node000026"><a xlink:title=" ">
<polygon fill="#e0e0e0" stroke="#999999" points="3793.62,-32 3621.62,-32 3621.62,0 3793.62,0 3793.62,-32"/>
<text text-anchor="start" x="3629.62" y="-18.5" font-family="Helvetica,sans-Serif" font-size="10.00">fr.softsf.sudokufx.service.business.</text>
<text text-anchor="middle" x="3707.62" y="-6.5" font-family="Helvetica,sans-Serif" font-size="10.00">PlayerService</text>
</a>
</g>
</g>
<!-- Node1&#45;&gt;Node26 -->
<g id="edge25_Node000001_Node000026" class="edge">
<title>Node1&#45;&gt;Node26</title>
<g id="a_edge25_Node000001_Node000026"><a xlink:title=" ">
<path fill="none" stroke="#63b8ff" d="M1905.3,-88.01C2177.85,-83.63 3248.35,-64.73 3609.95,-32.15"/>
<polygon fill="#63b8ff" stroke="#63b8ff" points="3610.07,-35.66 3619.71,-31.25 3609.43,-28.69 3610.07,-35.66"/>
</a>
</g>
</g>
<!-- Node27 -->
<g id="Node000027" class="node">
<title>Node27</title>
<g id="a_Node000027"><a xlink:title=" ">
<polygon fill="#e0e0e0" stroke="#999999" points="3951.88,-32 3811.38,-32 3811.38,0 3951.88,0 3951.88,-32"/>
<text text-anchor="start" x="3819.38" y="-18.5" font-family="Helvetica,sans-Serif" font-size="10.00">fr.softsf.sudokufx.service.ui.</text>
<text text-anchor="middle" x="3881.62" y="-6.5" font-family="Helvetica,sans-Serif" font-size="10.00">AudioService</text>
</a>
</g>
</g>
<!-- Node1&#45;&gt;Node27 -->
<g id="edge26_Node000001_Node000027" class="edge">
<title>Node1&#45;&gt;Node27</title>
<g id="a_edge26_Node000001_Node000027"><a xlink:title=" ">
<path fill="none" stroke="#63b8ff" d="M1905.14,-88.51C2195.48,-86.06 3398.9,-73.63 3799.74,-32.17"/>
<polygon fill="#63b8ff" stroke="#63b8ff" points="3799.99,-35.67 3809.57,-31.13 3799.25,-28.71 3799.99,-35.67"/>
</a>
</g>
</g>
<!-- Node28 -->
<g id="Node000028" class="node">
<title>Node28</title>
<g id="a_Node000028"><a xlink:title=" ">
<polygon fill="#e0e0e0" stroke="#999999" points="4171.62,-32 3969.62,-32 3969.62,0 4171.62,0 4171.62,-32"/>
<text text-anchor="start" x="3977.62" y="-18.5" font-family="Helvetica,sans-Serif" font-size="10.00">fr.softsf.sudokufx.view.component.toaster.</text>
<text text-anchor="middle" x="4070.62" y="-6.5" font-family="Helvetica,sans-Serif" font-size="10.00">ToasterVBox</text>
</a>
</g>
</g>
<!-- Node1&#45;&gt;Node28 -->
<g id="edge27_Node000001_Node000028" class="edge">
<title>Node1&#45;&gt;Node28</title>
<g id="a_edge27_Node000001_Node000028"><a xlink:title=" ">
<path fill="none" stroke="#63b8ff" d="M1905.54,-88.22C2210.79,-84.34 3523.02,-66.04 3958.01,-32.13"/>
<polygon fill="#63b8ff" stroke="#63b8ff" points="3958.18,-35.63 3967.87,-31.35 3957.62,-28.65 3958.18,-35.63"/>
</a>
</g>
</g>
<!-- Node29 -->
<g id="Node000029" class="node">
<title>Node29</title>
<g id="a_Node000029"><a xlink:title=" ">
<polygon fill="#e0e0e0" stroke="#999999" points="4357.38,-32 4189.88,-32 4189.88,0 4357.38,0 4357.38,-32"/>
<text text-anchor="start" x="4197.88" y="-18.5" font-family="Helvetica,sans-Serif" font-size="10.00">fr.softsf.sudokufx.viewmodel.</text>
<text text-anchor="middle" x="4273.62" y="-6.5" font-family="Helvetica,sans-Serif" font-size="10.00">ActiveMenuOrSubmenuViewModel</text>
</a>
</g>
</g>
<!-- Node1&#45;&gt;Node29 -->
<g id="edge28_Node000001_Node000029" class="edge">
<title>Node1&#45;&gt;Node29</title>
<g id="a_edge28_Node000001_Node000029"><a xlink:title=" ">
<path fill="none" stroke="#63b8ff" d="M1905.57,-88.62C2230.07,-86.48 3697.61,-74.68 4178.37,-32.1"/>
<polygon fill="#63b8ff" stroke="#63b8ff" points="4178.39,-35.61 4188.03,-31.22 4177.76,-28.64 4178.39,-35.61"/>
</a>
</g>
</g>
<!-- Node30 -->
<g id="Node000030" class="node">
<title>Node30</title>
<g id="a_Node000030"><a xlink:title=" ">
<polygon fill="#e0e0e0" stroke="#999999" points="4545.5,-32 4375.75,-32 4375.75,0 4545.5,0 4545.5,-32"/>
<text text-anchor="start" x="4383.75" y="-18.5" font-family="Helvetica,sans-Serif" font-size="10.00">fr.softsf.sudokufx.viewmodel.state.</text>
<text text-anchor="middle" x="4460.62" y="-6.5" font-family="Helvetica,sans-Serif" font-size="10.00">PlayerStateHolder</text>
</a>
</g>
</g>
<!-- Node1&#45;&gt;Node30 -->
<g id="edge29_Node000001_Node000030" class="edge">
<title>Node1&#45;&gt;Node30</title>
<g id="a_edge29_Node000001_Node000030"><a xlink:title=" ">
<path fill="none" stroke="#63b8ff" d="M1905.5,-88.73C2245.27,-87.14 3844.05,-77.37 4364.05,-32.13"/>
<polygon fill="#63b8ff" stroke="#63b8ff" points="4364.22,-35.63 4373.87,-31.25 4363.6,-28.65 4364.22,-35.63"/>
</a>
</g>
</g>
</g>
</svg>

<g id="navigator" transform="translate(0 0)" fill="#404254">
  <rect fill="#f2f5e9" fill-opacity="0.5" stroke="#606060" stroke-width=".5" x="0" y="0" width="60" height="60"/>
  <use id="zoomplus" xlink:href="#zoomPlus" x="17" y="9" onmousedown="handleZoom(evt,'in')"/>
  <use id="zoomminus" xlink:href="#zoomMin" x="42" y="9" onmousedown="handleZoom(evt,'out')"/>
  <use id="reset" xlink:href="#resetDef" x="30" y="36" onmousedown="handleReset()"/>
   <use id="arrowup" xlink:href="#arrowUp" x="0" y="0" onmousedown="handlePan(0,-1)"/>
  <use id="arrowright" xlink:href="#arrowRight" x="0" y="0" onmousedown="handlePan(1,0)"/>
  <use id="arrowdown" xlink:href="#arrowDown" x="0" y="0" onmousedown="handlePan(0,1)"/>
  <use id="arrowleft" xlink:href="#arrowLeft" x="0" y="0" onmousedown="handlePan(-1,0)"/>
</g>
<svg viewBox="0 0 15 15" width="100%" height="30px" preserveAspectRatio="xMaxYMin meet">
 <g id="arrow_out" transform="scale(0.3 0.3)">
  <a xlink:href="_grid_view_model_8java__incl_org.svg" target="_base">
   <rect id="button" ry="5" rx="5" y="6" x="6" height="38" width="38"
        fill="#f2f5e9" fill-opacity="0.5" stroke="#606060" stroke-width="1.0"/>
   <path id="arrow"
     d="M 11.500037,31.436501 C 11.940474,20.09759 22.043105,11.32322 32.158766,21.979434 L 37.068811,17.246167 C 37.068811,17.246167 37.088388,32 37.088388,32 L 22.160133,31.978069 C 22.160133,31.978069 26.997745,27.140456 26.997745,27.140456 C 18.528582,18.264221 13.291696,25.230495 11.500037,31.436501 z"
     style="fill:#404040;"/>
  </a>
 </g>
</svg>

<style type='text/css'>
<![CDATA[
[data-mouse-over-selected='false'] { opacity: 0.7; }
[data-mouse-over-selected='true']  { opacity: 1.0; }
]]>
</style>
<script type="application/ecmascript"><![CDATA[
document.addEventListener('DOMContentLoaded', (event) => {
  highlightEdges();
  highlightAdjacentNodes();
});
]]></script>
</svg>
