<?xml version="1.0" encoding="UTF-8" standalone="no"?>
<!DOCTYPE svg PUBLIC "-//W3C//DTD SVG 1.1//EN"
 "http://www.w3.org/Graphics/SVG/1.1/DTD/svg11.dtd">
<!-- Generated by graphviz version 12.2.1 (20241206.2353)
 -->
<!-- Title: src/main/java/fr/softsf/sudokufx/viewmodel/grid/GridCellViewModel.java Pages: 1 -->
<svg width="3128pt" height="120pt"
 viewBox="0.00 0.00 3128.00 120.00" xmlns="http://www.w3.org/2000/svg" xmlns:xlink="http://www.w3.org/1999/xlink">
<g id="graph0" class="graph" transform="scale(1 1) rotate(0) translate(4 116)">
<title>src/main/java/fr/softsf/sudokufx/viewmodel/grid/GridCellViewModel.java</title>
<!-- Node1 -->
<g id="Node000001" class="node">
<title>Node1</title>
<g id="a_Node000001"><a xlink:title=" ">
<polygon fill="#999999" stroke="#666666" points="1488,-112 1361,-112 1361,-68 1488,-68 1488,-112"/>
<text text-anchor="start" x="1369" y="-98.5" font-family="Helvetica,sans-Serif" font-size="10.00">src/main/java/fr/softsf</text>
<text text-anchor="start" x="1369" y="-86.5" font-family="Helvetica,sans-Serif" font-size="10.00">/sudokufx/viewmodel/grid</text>
<text text-anchor="middle" x="1424.5" y="-74.5" font-family="Helvetica,sans-Serif" font-size="10.00">/GridCellViewModel.java</text>
</a>
</g>
</g>
<!-- Node2 -->
<g id="Node000002" class="node">
<title>Node2</title>
<g id="a_Node000002"><a xlink:title=" ">
<polygon fill="#e0e0e0" stroke="#999999" points="127,-26 0,-26 0,-6 127,-6 127,-26"/>
<text text-anchor="middle" x="63.5" y="-12.5" font-family="Helvetica,sans-Serif" font-size="10.00">java.text.MessageFormat</text>
</a>
</g>
</g>
<!-- Node1&#45;&gt;Node2 -->
<g id="edge1_Node000001_Node000002" class="edge">
<title>Node1&#45;&gt;Node2</title>
<g id="a_edge1_Node000001_Node000002"><a xlink:title=" ">
<path fill="none" stroke="#63b8ff" d="M1360.71,-87.52C1135.39,-82.07 377.51,-61.9 136.5,-32 129.51,-31.13 122.18,-29.95 114.99,-28.64"/>
<polygon fill="#63b8ff" stroke="#63b8ff" points="115.82,-25.24 105.34,-26.77 114.49,-32.11 115.82,-25.24"/>
</a>
</g>
</g>
<!-- Node3 -->
<g id="Node000003" class="node">
<title>Node3</title>
<g id="a_Node000003"><a xlink:title=" ">
<polygon fill="#e0e0e0" stroke="#999999" points="213.75,-26 145.25,-26 145.25,-6 213.75,-6 213.75,-26"/>
<text text-anchor="middle" x="179.5" y="-12.5" font-family="Helvetica,sans-Serif" font-size="10.00">java.util.List</text>
</a>
</g>
</g>
<!-- Node1&#45;&gt;Node3 -->
<g id="edge2_Node000001_Node000003" class="edge">
<title>Node1&#45;&gt;Node3</title>
<g id="a_edge2_Node000001_Node000003"><a xlink:title=" ">
<path fill="none" stroke="#63b8ff" d="M1360.74,-88.39C1145,-85.96 443.62,-74.87 222.5,-32 219.48,-31.41 216.38,-30.66 213.29,-29.8"/>
<polygon fill="#63b8ff" stroke="#63b8ff" points="214.4,-26.48 203.81,-26.8 212.29,-33.15 214.4,-26.48"/>
</a>
</g>
</g>
<!-- Node4 -->
<g id="Node000004" class="node">
<title>Node4</title>
<g id="a_Node000004"><a xlink:title=" ">
<polygon fill="#e0e0e0" stroke="#999999" points="313.12,-26 231.88,-26 231.88,-6 313.12,-6 313.12,-26"/>
<text text-anchor="middle" x="272.5" y="-12.5" font-family="Helvetica,sans-Serif" font-size="10.00">java.util.Locale</text>
</a>
</g>
</g>
<!-- Node1&#45;&gt;Node4 -->
<g id="edge3_Node000001_Node000004" class="edge">
<title>Node1&#45;&gt;Node4</title>
<g id="a_edge3_Node000001_Node000004"><a xlink:title=" ">
<path fill="none" stroke="#63b8ff" d="M1360.84,-87.71C1157.36,-83.28 524.24,-66.96 322.5,-32 318.63,-31.33 314.64,-30.46 310.68,-29.47"/>
<polygon fill="#63b8ff" stroke="#63b8ff" points="311.75,-26.13 301.18,-26.86 309.9,-32.88 311.75,-26.13"/>
</a>
</g>
</g>
<!-- Node5 -->
<g id="Node000005" class="node">
<title>Node5</title>
<g id="a_Node000005"><a xlink:title=" ">
<polygon fill="#e0e0e0" stroke="#999999" points="399.38,-26 331.62,-26 331.62,-6 399.38,-6 399.38,-26"/>
<text text-anchor="middle" x="365.5" y="-12.5" font-family="Helvetica,sans-Serif" font-size="10.00">java.util.Set</text>
</a>
</g>
</g>
<!-- Node1&#45;&gt;Node5 -->
<g id="edge4_Node000001_Node000005" class="edge">
<title>Node1&#45;&gt;Node5</title>
<g id="a_edge4_Node000001_Node000005"><a xlink:title=" ">
<path fill="none" stroke="#63b8ff" d="M1360.71,-87.75C1167.73,-83.6 592.08,-68.42 408.5,-32 405.55,-31.41 402.52,-30.67 399.51,-29.83"/>
<polygon fill="#63b8ff" stroke="#63b8ff" points="400.86,-26.59 390.27,-26.92 398.76,-33.26 400.86,-26.59"/>
</a>
</g>
</g>
<!-- Node6 -->
<g id="Node000006" class="node">
<title>Node6</title>
<g id="a_Node000006"><a xlink:title=" ">
<polygon fill="#e0e0e0" stroke="#999999" points="533.75,-32 417.25,-32 417.25,0 533.75,0 533.75,-32"/>
<text text-anchor="start" x="425.25" y="-18.5" font-family="Helvetica,sans-Serif" font-size="10.00">java.util.function.Unary</text>
<text text-anchor="middle" x="475.5" y="-6.5" font-family="Helvetica,sans-Serif" font-size="10.00">Operator</text>
</a>
</g>
</g>
<!-- Node1&#45;&gt;Node6 -->
<g id="edge5_Node000001_Node000006" class="edge">
<title>Node1&#45;&gt;Node6</title>
<g id="a_edge5_Node000001_Node000006"><a xlink:title=" ">
<path fill="none" stroke="#63b8ff" d="M1360.51,-88.27C1216.36,-85.9 855.26,-75.85 545.24,-32.26"/>
<polygon fill="#63b8ff" stroke="#63b8ff" points="546.12,-28.85 535.73,-30.9 545.14,-35.78 546.12,-28.85"/>
</a>
</g>
</g>
<!-- Node7 -->
<g id="Node000007" class="node">
<title>Node7</title>
<g id="a_Node000007"><a xlink:title=" ">
<polygon fill="#e0e0e0" stroke="#999999" points="697.38,-26 551.62,-26 551.62,-6 697.38,-6 697.38,-26"/>
<text text-anchor="middle" x="624.5" y="-12.5" font-family="Helvetica,sans-Serif" font-size="10.00">javafx.beans.binding.Bindings</text>
</a>
</g>
</g>
<!-- Node1&#45;&gt;Node7 -->
<g id="edge6_Node000001_Node000007" class="edge">
<title>Node1&#45;&gt;Node7</title>
<g id="a_edge6_Node000001_Node000007"><a xlink:title=" ">
<path fill="none" stroke="#63b8ff" d="M1360.88,-86.13C1235.34,-79.97 947.04,-63.47 706.5,-32 698.79,-30.99 690.71,-29.75 682.75,-28.41"/>
<polygon fill="#63b8ff" stroke="#63b8ff" points="683.58,-25 673.13,-26.73 682.38,-31.9 683.58,-25"/>
</a>
</g>
</g>
<!-- Node8 -->
<g id="Node000008" class="node">
<title>Node8</title>
<g id="a_Node000008"><a xlink:title=" ">
<polygon fill="#e0e0e0" stroke="#999999" points="849.38,-32 715.62,-32 715.62,0 849.38,0 849.38,-32"/>
<text text-anchor="start" x="723.62" y="-18.5" font-family="Helvetica,sans-Serif" font-size="10.00">javafx.beans.binding.String</text>
<text text-anchor="middle" x="782.5" y="-6.5" font-family="Helvetica,sans-Serif" font-size="10.00">Binding</text>
</a>
</g>
</g>
<!-- Node1&#45;&gt;Node8 -->
<g id="edge7_Node000001_Node000008" class="edge">
<title>Node1&#45;&gt;Node8</title>
<g id="a_edge7_Node000001_Node000008"><a xlink:title=" ">
<path fill="none" stroke="#63b8ff" d="M1360.59,-84.54C1257.54,-76.92 1048.1,-59.64 860.75,-32.24"/>
<polygon fill="#63b8ff" stroke="#63b8ff" points="861.48,-28.82 851.07,-30.82 860.46,-35.74 861.48,-28.82"/>
</a>
</g>
</g>
<!-- Node9 -->
<g id="Node000009" class="node">
<title>Node9</title>
<g id="a_Node000009"><a xlink:title=" ">
<polygon fill="#e0e0e0" stroke="#999999" points="1015.12,-32 867.88,-32 867.88,0 1015.12,0 1015.12,-32"/>
<text text-anchor="start" x="875.88" y="-18.5" font-family="Helvetica,sans-Serif" font-size="10.00">javafx.beans.property.Boolean</text>
<text text-anchor="middle" x="941.5" y="-6.5" font-family="Helvetica,sans-Serif" font-size="10.00">Property</text>
</a>
</g>
</g>
<!-- Node1&#45;&gt;Node9 -->
<g id="edge8_Node000001_Node000009" class="edge">
<title>Node1&#45;&gt;Node9</title>
<g id="a_edge8_Node000001_Node000009"><a xlink:title=" ">
<path fill="none" stroke="#63b8ff" d="M1360.65,-80.65C1283.92,-70.44 1150.99,-52.24 1026.49,-32.29"/>
<polygon fill="#63b8ff" stroke="#63b8ff" points="1027.17,-28.85 1016.74,-30.71 1026.05,-35.76 1027.17,-28.85"/>
</a>
</g>
</g>
<!-- Node10 -->
<g id="Node000010" class="node">
<title>Node10</title>
<g id="a_Node000010"><a xlink:title=" ">
<polygon fill="#e0e0e0" stroke="#999999" points="1175.5,-32 1033.5,-32 1033.5,0 1175.5,0 1175.5,-32"/>
<text text-anchor="start" x="1041.5" y="-18.5" font-family="Helvetica,sans-Serif" font-size="10.00">javafx.beans.property.Integer</text>
<text text-anchor="middle" x="1104.5" y="-6.5" font-family="Helvetica,sans-Serif" font-size="10.00">Property</text>
</a>
</g>
</g>
<!-- Node1&#45;&gt;Node10 -->
<g id="edge9_Node000001_Node000010" class="edge">
<title>Node1&#45;&gt;Node10</title>
<g id="a_edge9_Node000001_Node000010"><a xlink:title=" ">
<path fill="none" stroke="#63b8ff" d="M1360.51,-74.6C1309.83,-63.2 1238.76,-47.21 1184.36,-34.97"/>
<polygon fill="#63b8ff" stroke="#63b8ff" points="1185.36,-31.61 1174.84,-32.83 1183.83,-38.44 1185.36,-31.61"/>
</a>
</g>
</g>
<!-- Node11 -->
<g id="Node000011" class="node">
<title>Node11</title>
<g id="a_Node000011"><a xlink:title=" ">
<polygon fill="#e0e0e0" stroke="#999999" points="1335.5,-32 1193.5,-32 1193.5,0 1335.5,0 1335.5,-32"/>
<text text-anchor="start" x="1201.5" y="-18.5" font-family="Helvetica,sans-Serif" font-size="10.00">javafx.beans.property.Simple</text>
<text text-anchor="middle" x="1264.5" y="-6.5" font-family="Helvetica,sans-Serif" font-size="10.00">BooleanProperty</text>
</a>
</g>
</g>
<!-- Node1&#45;&gt;Node11 -->
<g id="edge10_Node000001_Node000011" class="edge">
<title>Node1&#45;&gt;Node11</title>
<g id="a_edge10_Node000001_Node000011"><a xlink:title=" ">
<path fill="none" stroke="#63b8ff" d="M1376.93,-67.59C1355.49,-57.95 1330.32,-46.62 1309.23,-37.13"/>
<polygon fill="#63b8ff" stroke="#63b8ff" points="1310.87,-34.03 1300.31,-33.12 1308,-40.41 1310.87,-34.03"/>
</a>
</g>
</g>
<!-- Node12 -->
<g id="Node000012" class="node">
<title>Node12</title>
<g id="a_Node000012"><a xlink:title=" ">
<polygon fill="#e0e0e0" stroke="#999999" points="1495.5,-32 1353.5,-32 1353.5,0 1495.5,0 1495.5,-32"/>
<text text-anchor="start" x="1361.5" y="-18.5" font-family="Helvetica,sans-Serif" font-size="10.00">javafx.beans.property.Simple</text>
<text text-anchor="middle" x="1424.5" y="-6.5" font-family="Helvetica,sans-Serif" font-size="10.00">IntegerProperty</text>
</a>
</g>
</g>
<!-- Node1&#45;&gt;Node12 -->
<g id="edge11_Node000001_Node000012" class="edge">
<title>Node1&#45;&gt;Node12</title>
<g id="a_edge11_Node000001_Node000012"><a xlink:title=" ">
<path fill="none" stroke="#63b8ff" d="M1424.5,-67.79C1424.5,-60.18 1424.5,-51.52 1424.5,-43.52"/>
<polygon fill="#63b8ff" stroke="#63b8ff" points="1428,-43.64 1424.5,-33.64 1421,-43.64 1428,-43.64"/>
</a>
</g>
</g>
<!-- Node13 -->
<g id="Node000013" class="node">
<title>Node13</title>
<g id="a_Node000013"><a xlink:title=" ">
<polygon fill="#e0e0e0" stroke="#999999" points="1655.5,-32 1513.5,-32 1513.5,0 1655.5,0 1655.5,-32"/>
<text text-anchor="start" x="1521.5" y="-18.5" font-family="Helvetica,sans-Serif" font-size="10.00">javafx.beans.property.Simple</text>
<text text-anchor="middle" x="1584.5" y="-6.5" font-family="Helvetica,sans-Serif" font-size="10.00">StringProperty</text>
</a>
</g>
</g>
<!-- Node1&#45;&gt;Node13 -->
<g id="edge12_Node000001_Node000013" class="edge">
<title>Node1&#45;&gt;Node13</title>
<g id="a_edge12_Node000001_Node000013"><a xlink:title=" ">
<path fill="none" stroke="#63b8ff" d="M1472.07,-67.59C1493.51,-57.95 1518.68,-46.62 1539.77,-37.13"/>
<polygon fill="#63b8ff" stroke="#63b8ff" points="1541,-40.41 1548.69,-33.12 1538.13,-34.03 1541,-40.41"/>
</a>
</g>
</g>
<!-- Node14 -->
<g id="Node000014" class="node">
<title>Node14</title>
<g id="a_Node000014"><a xlink:title=" ">
<polygon fill="#e0e0e0" stroke="#999999" points="1811.25,-32 1673.75,-32 1673.75,0 1811.25,0 1811.25,-32"/>
<text text-anchor="start" x="1681.75" y="-18.5" font-family="Helvetica,sans-Serif" font-size="10.00">javafx.beans.property.String</text>
<text text-anchor="middle" x="1742.5" y="-6.5" font-family="Helvetica,sans-Serif" font-size="10.00">Property</text>
</a>
</g>
</g>
<!-- Node1&#45;&gt;Node14 -->
<g id="edge13_Node000001_Node000014" class="edge">
<title>Node1&#45;&gt;Node14</title>
<g id="a_edge13_Node000001_Node000014"><a xlink:title=" ">
<path fill="none" stroke="#63b8ff" d="M1488.47,-74.52C1538.86,-63.11 1609.38,-47.14 1663.33,-34.93"/>
<polygon fill="#63b8ff" stroke="#63b8ff" points="1663.78,-38.41 1672.76,-32.79 1662.23,-31.59 1663.78,-38.41"/>
</a>
</g>
</g>
<!-- Node15 -->
<g id="Node000015" class="node">
<title>Node15</title>
<g id="a_Node000015"><a xlink:title=" ">
<polygon fill="#e0e0e0" stroke="#999999" points="1959.5,-26 1829.5,-26 1829.5,-6 1959.5,-6 1959.5,-26"/>
<text text-anchor="middle" x="1894.5" y="-12.5" font-family="Helvetica,sans-Serif" font-size="10.00">javafx.scene.control.Label</text>
</a>
</g>
</g>
<!-- Node1&#45;&gt;Node15 -->
<g id="edge14_Node000001_Node000015" class="edge">
<title>Node1&#45;&gt;Node15</title>
<g id="a_edge14_Node000001_Node000015"><a xlink:title=" ">
<path fill="none" stroke="#63b8ff" d="M1488.46,-80.94C1566.9,-70.78 1703.81,-52.21 1820.5,-32 1826.47,-30.97 1832.7,-29.82 1838.9,-28.62"/>
<polygon fill="#63b8ff" stroke="#63b8ff" points="1839.34,-32.11 1848.48,-26.75 1838,-25.24 1839.34,-32.11"/>
</a>
</g>
</g>
<!-- Node16 -->
<g id="Node000016" class="node">
<title>Node16</title>
<g id="a_Node000016"><a xlink:title=" ">
<polygon fill="#e0e0e0" stroke="#999999" points="2123.38,-26 1977.62,-26 1977.62,-6 2123.38,-6 2123.38,-26"/>
<text text-anchor="middle" x="2050.5" y="-12.5" font-family="Helvetica,sans-Serif" font-size="10.00">javafx.scene.control.TextArea</text>
</a>
</g>
</g>
<!-- Node1&#45;&gt;Node16 -->
<g id="edge15_Node000001_Node000016" class="edge">
<title>Node1&#45;&gt;Node16</title>
<g id="a_edge15_Node000001_Node000016"><a xlink:title=" ">
<path fill="none" stroke="#63b8ff" d="M1488.35,-83.91C1590.18,-75.42 1795.55,-56.84 1968.5,-32 1975.73,-30.96 1983.3,-29.75 1990.78,-28.47"/>
<polygon fill="#63b8ff" stroke="#63b8ff" points="1991.3,-31.94 2000.55,-26.76 1990.09,-25.04 1991.3,-31.94"/>
</a>
</g>
</g>
<!-- Node17 -->
<g id="Node000017" class="node">
<title>Node17</title>
<g id="a_Node000017"><a xlink:title=" ">
<polygon fill="#e0e0e0" stroke="#999999" points="2267.25,-32 2141.75,-32 2141.75,0 2267.25,0 2267.25,-32"/>
<text text-anchor="start" x="2149.75" y="-18.5" font-family="Helvetica,sans-Serif" font-size="10.00">javafx.scene.control.Text</text>
<text text-anchor="middle" x="2204.5" y="-6.5" font-family="Helvetica,sans-Serif" font-size="10.00">Formatter</text>
</a>
</g>
</g>
<!-- Node1&#45;&gt;Node17 -->
<g id="edge16_Node000001_Node000017" class="edge">
<title>Node1&#45;&gt;Node17</title>
<g id="a_edge16_Node000001_Node000017"><a xlink:title=" ">
<path fill="none" stroke="#63b8ff" d="M1488.26,-86.54C1610.8,-81.24 1887.77,-66.43 2130.21,-32.21"/>
<polygon fill="#63b8ff" stroke="#63b8ff" points="2130.46,-35.71 2139.86,-30.83 2129.47,-28.78 2130.46,-35.71"/>
</a>
</g>
</g>
<!-- Node18 -->
<g id="Node000018" class="node">
<title>Node18</title>
<g id="a_Node000018"><a xlink:title=" ">
<polygon fill="#e0e0e0" stroke="#999999" points="2424,-26 2285,-26 2285,-6 2424,-6 2424,-26"/>
<text text-anchor="middle" x="2354.5" y="-12.5" font-family="Helvetica,sans-Serif" font-size="10.00">javafx.scene.input.KeyCode</text>
</a>
</g>
</g>
<!-- Node1&#45;&gt;Node18 -->
<g id="edge17_Node000001_Node000018" class="edge">
<title>Node1&#45;&gt;Node18</title>
<g id="a_edge17_Node000001_Node000018"><a xlink:title=" ">
<path fill="none" stroke="#63b8ff" d="M1488.36,-87.41C1630.49,-83.3 1983.55,-69.82 2276.5,-32 2283.94,-31.04 2291.75,-29.81 2299.42,-28.47"/>
<polygon fill="#63b8ff" stroke="#63b8ff" points="2299.82,-31.95 2309.03,-26.71 2298.56,-25.07 2299.82,-31.95"/>
</a>
</g>
</g>
<!-- Node19 -->
<g id="Node000019" class="node">
<title>Node19</title>
<g id="a_Node000019"><a xlink:title=" ">
<polygon fill="#e0e0e0" stroke="#999999" points="2576.75,-26 2442.25,-26 2442.25,-6 2576.75,-6 2576.75,-26"/>
<text text-anchor="middle" x="2509.5" y="-12.5" font-family="Helvetica,sans-Serif" font-size="10.00">javafx.scene.layout.Region</text>
</a>
</g>
</g>
<!-- Node1&#45;&gt;Node19 -->
<g id="edge18_Node000001_Node000019" class="edge">
<title>Node1&#45;&gt;Node19</title>
<g id="a_edge18_Node000001_Node000019"><a xlink:title=" ">
<path fill="none" stroke="#63b8ff" d="M1488.23,-88.46C1647.99,-86.43 2078.18,-76.88 2433.5,-32 2440.77,-31.08 2448.38,-29.88 2455.86,-28.55"/>
<polygon fill="#63b8ff" stroke="#63b8ff" points="2456.39,-32.01 2465.57,-26.73 2455.1,-25.13 2456.39,-32.01"/>
</a>
</g>
</g>
<!-- Node20 -->
<g id="Node000020" class="node">
<title>Node20</title>
<g id="a_Node000020"><a xlink:title=" ">
<polygon fill="#e0e0e0" stroke="#999999" points="2734,-32 2595,-32 2595,0 2734,0 2734,-32"/>
<text text-anchor="start" x="2603" y="-18.5" font-family="Helvetica,sans-Serif" font-size="10.00">org.apache.commons.lang3.</text>
<text text-anchor="middle" x="2664.5" y="-6.5" font-family="Helvetica,sans-Serif" font-size="10.00">StringUtils</text>
</a>
</g>
</g>
<!-- Node1&#45;&gt;Node20 -->
<g id="edge19_Node000001_Node000020" class="edge">
<title>Node1&#45;&gt;Node20</title>
<g id="a_edge19_Node000001_Node000020"><a xlink:title=" ">
<path fill="none" stroke="#63b8ff" d="M1488.31,-88.96C1662.42,-88.21 2160.33,-81.62 2583.55,-32.11"/>
<polygon fill="#63b8ff" stroke="#63b8ff" points="2583.77,-35.6 2593.29,-30.96 2582.95,-28.65 2583.77,-35.6"/>
</a>
</g>
</g>
<!-- Node21 -->
<g id="Node000021" class="node">
<title>Node21</title>
<g id="a_Node000021"><a xlink:title=" ">
<polygon fill="#e0e0e0" stroke="#999999" points="2915,-32 2752,-32 2752,0 2915,0 2915,-32"/>
<text text-anchor="start" x="2760" y="-18.5" font-family="Helvetica,sans-Serif" font-size="10.00">edu.umd.cs.findbugs.annotations.</text>
<text text-anchor="middle" x="2833.5" y="-6.5" font-family="Helvetica,sans-Serif" font-size="10.00">SuppressFBWarnings</text>
</a>
</g>
</g>
<!-- Node1&#45;&gt;Node21 -->
<g id="edge20_Node000001_Node000021" class="edge">
<title>Node1&#45;&gt;Node21</title>
<g id="a_edge20_Node000001_Node000021"><a xlink:title=" ">
<path fill="none" stroke="#63b8ff" d="M1488.19,-89C1677.6,-88.4 2253.97,-82.35 2740.53,-32.23"/>
<polygon fill="#63b8ff" stroke="#63b8ff" points="2740.55,-35.75 2750.14,-31.23 2739.83,-28.79 2740.55,-35.75"/>
</a>
</g>
</g>
<!-- Node22 -->
<g id="Node000022" class="node">
<title>Node22</title>
<g id="a_Node000022"><a xlink:title=" ">
<polygon fill="#e0e0e0" stroke="#999999" points="3120,-26 2933,-26 2933,-6 3120,-6 3120,-26"/>
<text text-anchor="middle" x="3026.5" y="-12.5" font-family="Helvetica,sans-Serif" font-size="10.00">fr.softsf.sudokufx.common.enums.I18n</text>
</a>
</g>
</g>
<!-- Node1&#45;&gt;Node22 -->
<g id="edge21_Node000001_Node000022" class="edge">
<title>Node1&#45;&gt;Node22</title>
<g id="a_edge21_Node000001_Node000022"><a xlink:title=" ">
<path fill="none" stroke="#63b8ff" d="M1488.26,-89.04C1695.67,-88.63 2369.81,-83.17 2924.5,-32 2935.53,-30.98 2947.18,-29.58 2958.52,-28.04"/>
<polygon fill="#63b8ff" stroke="#63b8ff" points="2958.8,-31.53 2968.22,-26.67 2957.82,-24.6 2958.8,-31.53"/>
</a>
</g>
</g>
</g>
</svg>
