<?xml version="1.0" encoding="UTF-8" standalone="no"?>
<!DOCTYPE svg PUBLIC "-//W3C//DTD SVG 1.1//EN"
 "http://www.w3.org/Graphics/SVG/1.1/DTD/svg11.dtd">
<!-- Generated by graphviz version 12.2.1 (20241206.2353)
 -->
<!-- Title: src/main/java/fr/softsf/sudokufx/viewmodel/grid/GridViewModel.java Pages: 1 -->
<svg width="1032pt" height="120pt"
 viewBox="0.00 0.00 1032.38 120.00" xmlns="http://www.w3.org/2000/svg" xmlns:xlink="http://www.w3.org/1999/xlink">
<g id="graph0" class="graph" transform="scale(1 1) rotate(0) translate(4 116)">
<title>src/main/java/fr/softsf/sudokufx/viewmodel/grid/GridViewModel.java</title>
<!-- Node1 -->
<g id="Node000001" class="node">
<title>Node1</title>
<g id="a_Node000001"><a xlink:title=" ">
<polygon fill="#999999" stroke="#666666" points="491.75,-112 364.75,-112 364.75,-68 491.75,-68 491.75,-112"/>
<text text-anchor="start" x="372.75" y="-98.5" font-family="Helvetica,sans-Serif" font-size="10.00">src/main/java/fr/softsf</text>
<text text-anchor="start" x="372.75" y="-86.5" font-family="Helvetica,sans-Serif" font-size="10.00">/sudokufx/viewmodel/grid</text>
<text text-anchor="middle" x="428.25" y="-74.5" font-family="Helvetica,sans-Serif" font-size="10.00">/GridViewModel.java</text>
</a>
</g>
</g>
<!-- Node2 -->
<g id="Node000002" class="node">
<title>Node2</title>
<g id="a_Node000002"><a xlink:title=" ">
<polygon fill="#e0e0e0" stroke="#999999" points="56.5,-26 0,-26 0,-6 56.5,-6 56.5,-26"/>
<text text-anchor="middle" x="28.25" y="-12.5" font-family="Helvetica,sans-Serif" font-size="10.00">java.util.*</text>
</a>
</g>
</g>
<!-- Node1&#45;&gt;Node2 -->
<g id="edge1_Node000001_Node000002" class="edge">
<title>Node1&#45;&gt;Node2</title>
<g id="a_edge1_Node000001_Node000002"><a xlink:title=" ">
<path fill="none" stroke="#63b8ff" d="M364.36,-83.44C291.11,-76.05 167.91,-60.46 65.25,-32 63.41,-31.49 61.54,-30.92 59.67,-30.3"/>
<polygon fill="#63b8ff" stroke="#63b8ff" points="61.11,-27.1 50.51,-26.94 58.7,-33.67 61.11,-27.1"/>
</a>
</g>
</g>
<!-- Node3 -->
<g id="Node000003" class="node">
<title>Node3</title>
<g id="a_Node000003"><a xlink:title=" ">
<polygon fill="#e0e0e0" stroke="#999999" points="230.38,-32 74.12,-32 74.12,0 230.38,0 230.38,-32"/>
<text text-anchor="start" x="82.12" y="-18.5" font-family="Helvetica,sans-Serif" font-size="10.00">org.springframework.stereotype.</text>
<text text-anchor="middle" x="152.25" y="-6.5" font-family="Helvetica,sans-Serif" font-size="10.00">Component</text>
</a>
</g>
</g>
<!-- Node1&#45;&gt;Node3 -->
<g id="edge2_Node000001_Node000003" class="edge">
<title>Node1&#45;&gt;Node3</title>
<g id="a_edge2_Node000001_Node000003"><a xlink:title=" ">
<path fill="none" stroke="#63b8ff" d="M364.58,-72.39C322.11,-61.31 266.25,-46.74 222.49,-35.32"/>
<polygon fill="#63b8ff" stroke="#63b8ff" points="223.38,-31.94 212.82,-32.8 221.61,-38.71 223.38,-31.94"/>
</a>
</g>
</g>
<!-- Node4 -->
<g id="Node000004" class="node">
<title>Node4</title>
<g id="a_Node000004"><a xlink:title=" ">
<polygon fill="#e0e0e0" stroke="#999999" points="416.38,-32 248.12,-32 248.12,0 416.38,0 416.38,-32"/>
<text text-anchor="start" x="256.12" y="-18.5" font-family="Helvetica,sans-Serif" font-size="10.00">fr.softsf.sudokufx.common.enums.</text>
<text text-anchor="middle" x="332.25" y="-6.5" font-family="Helvetica,sans-Serif" font-size="10.00">DifficultyLevel</text>
</a>
</g>
</g>
<!-- Node1&#45;&gt;Node4 -->
<g id="edge3_Node000001_Node000004" class="edge">
<title>Node1&#45;&gt;Node4</title>
<g id="a_edge3_Node000001_Node000004"><a xlink:title=" ">
<path fill="none" stroke="#63b8ff" d="M399.71,-67.59C387.84,-58.7 374.07,-48.37 362.08,-39.37"/>
<polygon fill="#63b8ff" stroke="#63b8ff" points="364.22,-36.6 354.12,-33.4 360.02,-42.2 364.22,-36.6"/>
</a>
</g>
</g>
<!-- Node5 -->
<g id="Node000005" class="node">
<title>Node5</title>
<g id="a_Node000005"><a xlink:title=" ">
<polygon fill="#e0e0e0" stroke="#999999" points="615.75,-32 434.75,-32 434.75,0 615.75,0 615.75,-32"/>
<text text-anchor="start" x="442.75" y="-18.5" font-family="Helvetica,sans-Serif" font-size="10.00">fr.softsf.sudokufx.common.exception.</text>
<text text-anchor="middle" x="525.25" y="-6.5" font-family="Helvetica,sans-Serif" font-size="10.00">ExceptionTools</text>
</a>
</g>
</g>
<!-- Node1&#45;&gt;Node5 -->
<g id="edge4_Node000001_Node000005" class="edge">
<title>Node1&#45;&gt;Node5</title>
<g id="a_edge4_Node000001_Node000005"><a xlink:title=" ">
<path fill="none" stroke="#63b8ff" d="M457.09,-67.59C469.2,-58.61 483.27,-48.16 495.47,-39.11"/>
<polygon fill="#63b8ff" stroke="#63b8ff" points="497.22,-42.17 503.16,-33.4 493.04,-36.55 497.22,-42.17"/>
</a>
</g>
</g>
<!-- Node6 -->
<g id="Node000006" class="node">
<title>Node6</title>
<g id="a_Node000006"><a xlink:title=" ">
<polygon fill="#e0e0e0" stroke="#999999" points="820.38,-32 634.12,-32 634.12,0 820.38,0 820.38,-32"/>
<text text-anchor="start" x="642.12" y="-18.5" font-family="Helvetica,sans-Serif" font-size="10.00">fr.softsf.sudokufx.common.util.sudoku.</text>
<text text-anchor="middle" x="727.25" y="-6.5" font-family="Helvetica,sans-Serif" font-size="10.00">GrillesCrees</text>
</a>
</g>
</g>
<!-- Node1&#45;&gt;Node6 -->
<g id="edge5_Node000001_Node000006" class="edge">
<title>Node1&#45;&gt;Node6</title>
<g id="a_edge5_Node000001_Node000006"><a xlink:title=" ">
<path fill="none" stroke="#63b8ff" d="M492.03,-73.64C538.9,-62.35 602.77,-46.98 652.12,-35.09"/>
<polygon fill="#63b8ff" stroke="#63b8ff" points="652.68,-38.56 661.59,-32.81 651.04,-31.75 652.68,-38.56"/>
</a>
</g>
</g>
<!-- Node7 -->
<g id="Node000007" class="node">
<title>Node7</title>
<g id="a_Node000007"><a xlink:title=" ">
<polygon fill="#e0e0e0" stroke="#999999" points="1024.38,-32 838.12,-32 838.12,0 1024.38,0 1024.38,-32"/>
<text text-anchor="start" x="846.12" y="-18.5" font-family="Helvetica,sans-Serif" font-size="10.00">fr.softsf.sudokufx.common.util.sudoku.</text>
<text text-anchor="middle" x="931.25" y="-6.5" font-family="Helvetica,sans-Serif" font-size="10.00">IGridMaster</text>
</a>
</g>
</g>
<!-- Node1&#45;&gt;Node7 -->
<g id="edge6_Node000001_Node000007" class="edge">
<title>Node1&#45;&gt;Node7</title>
<g id="a_edge6_Node000001_Node000007"><a xlink:title=" ">
<path fill="none" stroke="#63b8ff" d="M492.16,-80.01C568.98,-69.19 702.15,-50.35 826.62,-32.38"/>
<polygon fill="#63b8ff" stroke="#63b8ff" points="826.97,-35.86 836.37,-30.97 825.97,-28.93 826.97,-35.86"/>
</a>
</g>
</g>
</g>
</svg>
