<?xml version="1.0" encoding="UTF-8" standalone="no"?>
<!DOCTYPE svg PUBLIC "-//W3C//DTD SVG 1.1//EN"
 "http://www.w3.org/Graphics/SVG/1.1/DTD/svg11.dtd">
<!-- Generated by graphviz version 12.2.1 (20241206.2353)
 -->
<!-- Title: src/main/java/fr/softsf/sudokufx/common/util/sudoku/GridMaster.java Pages: 1 -->
<svg width="1051pt" height="120pt"
 viewBox="0.00 0.00 1051.25 120.00" xmlns="http://www.w3.org/2000/svg" xmlns:xlink="http://www.w3.org/1999/xlink">
<g id="graph0" class="graph" transform="scale(1 1) rotate(0) translate(4 116)">
<title>src/main/java/fr/softsf/sudokufx/common/util/sudoku/GridMaster.java</title>
<!-- Node1 -->
<g id="Node000001" class="node">
<title>Node1</title>
<g id="a_Node000001"><a xlink:title=" ">
<polygon fill="#999999" stroke="#666666" points="481,-112 358.5,-112 358.5,-68 481,-68 481,-112"/>
<text text-anchor="start" x="366.5" y="-98.5" font-family="Helvetica,sans-Serif" font-size="10.00">src/main/java/fr/softsf</text>
<text text-anchor="start" x="366.5" y="-86.5" font-family="Helvetica,sans-Serif" font-size="10.00">/sudokufx/common/util</text>
<text text-anchor="middle" x="419.75" y="-74.5" font-family="Helvetica,sans-Serif" font-size="10.00">/sudoku/GridMaster.java</text>
</a>
</g>
</g>
<!-- Node2 -->
<g id="Node000002" class="node">
<title>Node2</title>
<g id="a_Node000002"><a xlink:title=" ">
<polygon fill="#e0e0e0" stroke="#999999" points="95.5,-26 0,-26 0,-6 95.5,-6 95.5,-26"/>
<text text-anchor="middle" x="47.75" y="-12.5" font-family="Helvetica,sans-Serif" font-size="10.00">java.time.Duration</text>
</a>
</g>
</g>
<!-- Node1&#45;&gt;Node2 -->
<g id="edge1_Node000001_Node000002" class="edge">
<title>Node1&#45;&gt;Node2</title>
<g id="a_edge1_Node000001_Node000002"><a xlink:title=" ">
<path fill="none" stroke="#63b8ff" d="M358.19,-79.33C294.49,-68.97 192.24,-51.4 104.75,-32 100.94,-31.15 97,-30.23 93.05,-29.26"/>
<polygon fill="#63b8ff" stroke="#63b8ff" points="94.03,-25.9 83.47,-26.85 92.31,-32.69 94.03,-25.9"/>
</a>
</g>
</g>
<!-- Node3 -->
<g id="Node000003" class="node">
<title>Node3</title>
<g id="a_Node000003"><a xlink:title=" ">
<polygon fill="#e0e0e0" stroke="#999999" points="238.12,-26 113.38,-26 113.38,-6 238.12,-6 238.12,-26"/>
<text text-anchor="middle" x="175.75" y="-12.5" font-family="Helvetica,sans-Serif" font-size="10.00">java.time.LocalDateTime</text>
</a>
</g>
</g>
<!-- Node1&#45;&gt;Node3 -->
<g id="edge2_Node000001_Node000003" class="edge">
<title>Node1&#45;&gt;Node3</title>
<g id="a_edge2_Node000001_Node000003"><a xlink:title=" ">
<path fill="none" stroke="#63b8ff" d="M358.18,-70.83C314.62,-57.98 257.31,-41.07 218.64,-29.66"/>
<polygon fill="#63b8ff" stroke="#63b8ff" points="219.8,-26.35 209.22,-26.88 217.82,-33.06 219.8,-26.35"/>
</a>
</g>
</g>
<!-- Node4 -->
<g id="Node000004" class="node">
<title>Node4</title>
<g id="a_Node000004"><a xlink:title=" ">
<polygon fill="#e0e0e0" stroke="#999999" points="337.38,-26 256.12,-26 256.12,-6 337.38,-6 337.38,-26"/>
<text text-anchor="middle" x="296.75" y="-12.5" font-family="Helvetica,sans-Serif" font-size="10.00">java.util.Arrays</text>
</a>
</g>
</g>
<!-- Node1&#45;&gt;Node4 -->
<g id="edge3_Node000001_Node000004" class="edge">
<title>Node1&#45;&gt;Node4</title>
<g id="a_edge3_Node000001_Node000004"><a xlink:title=" ">
<path fill="none" stroke="#63b8ff" d="M383.18,-67.59C363.64,-56.16 340.07,-42.36 322.48,-32.06"/>
<polygon fill="#63b8ff" stroke="#63b8ff" points="324.59,-29.24 314.2,-27.21 321.06,-35.29 324.59,-29.24"/>
</a>
</g>
</g>
<!-- Node5 -->
<g id="Node000005" class="node">
<title>Node5</title>
<g id="a_Node000005"><a xlink:title=" ">
<polygon fill="#e0e0e0" stroke="#999999" points="484,-26 355.5,-26 355.5,-6 484,-6 484,-26"/>
<text text-anchor="middle" x="419.75" y="-12.5" font-family="Helvetica,sans-Serif" font-size="10.00">java.util.stream.IntStream</text>
</a>
</g>
</g>
<!-- Node1&#45;&gt;Node5 -->
<g id="edge4_Node000001_Node000005" class="edge">
<title>Node1&#45;&gt;Node5</title>
<g id="a_edge4_Node000001_Node000005"><a xlink:title=" ">
<path fill="none" stroke="#63b8ff" d="M419.75,-67.79C419.75,-58.32 419.75,-47.2 419.75,-37.78"/>
<polygon fill="#63b8ff" stroke="#63b8ff" points="423.25,-37.82 419.75,-27.82 416.25,-37.82 423.25,-37.82"/>
</a>
</g>
</g>
<!-- Node6 -->
<g id="Node000006" class="node">
<title>Node6</title>
<g id="a_Node000006"><a xlink:title=" ">
<polygon fill="#e0e0e0" stroke="#999999" points="657.88,-32 501.62,-32 501.62,0 657.88,0 657.88,-32"/>
<text text-anchor="start" x="509.62" y="-18.5" font-family="Helvetica,sans-Serif" font-size="10.00">org.springframework.stereotype.</text>
<text text-anchor="middle" x="579.75" y="-6.5" font-family="Helvetica,sans-Serif" font-size="10.00">Component</text>
</a>
</g>
</g>
<!-- Node1&#45;&gt;Node6 -->
<g id="edge5_Node000001_Node000006" class="edge">
<title>Node1&#45;&gt;Node6</title>
<g id="a_edge5_Node000001_Node000006"><a xlink:title=" ">
<path fill="none" stroke="#63b8ff" d="M467.32,-67.59C488.76,-57.95 513.93,-46.62 535.02,-37.13"/>
<polygon fill="#63b8ff" stroke="#63b8ff" points="536.25,-40.41 543.94,-33.12 533.38,-34.03 536.25,-40.41"/>
</a>
</g>
</g>
<!-- Node7 -->
<g id="Node000007" class="node">
<title>Node7</title>
<g id="a_Node000007"><a xlink:title=" ">
<polygon fill="#e0e0e0" stroke="#999999" points="843.88,-32 675.62,-32 675.62,0 843.88,0 843.88,-32"/>
<text text-anchor="start" x="683.62" y="-18.5" font-family="Helvetica,sans-Serif" font-size="10.00">fr.softsf.sudokufx.common.enums.</text>
<text text-anchor="middle" x="759.75" y="-6.5" font-family="Helvetica,sans-Serif" font-size="10.00">SecureRandomGenerator</text>
</a>
</g>
</g>
<!-- Node1&#45;&gt;Node7 -->
<g id="edge6_Node000001_Node000007" class="edge">
<title>Node1&#45;&gt;Node7</title>
<g id="a_edge6_Node000001_Node000007"><a xlink:title=" ">
<path fill="none" stroke="#63b8ff" d="M481.32,-75.96C535.73,-64.44 615.56,-47.53 675.81,-34.78"/>
<polygon fill="#63b8ff" stroke="#63b8ff" points="676.28,-38.25 685.34,-32.76 674.83,-31.41 676.28,-38.25"/>
</a>
</g>
</g>
<!-- Node8 -->
<g id="Node000008" class="node">
<title>Node8</title>
<g id="a_Node000008"><a xlink:title=" ">
<polygon fill="#e0e0e0" stroke="#999999" points="1043.25,-32 862.25,-32 862.25,0 1043.25,0 1043.25,-32"/>
<text text-anchor="start" x="870.25" y="-18.5" font-family="Helvetica,sans-Serif" font-size="10.00">fr.softsf.sudokufx.common.exception.</text>
<text text-anchor="middle" x="952.75" y="-6.5" font-family="Helvetica,sans-Serif" font-size="10.00">ExceptionTools</text>
</a>
</g>
</g>
<!-- Node1&#45;&gt;Node8 -->
<g id="edge7_Node000001_Node000008" class="edge">
<title>Node1&#45;&gt;Node8</title>
<g id="a_edge7_Node000001_Node000008"><a xlink:title=" ">
<path fill="none" stroke="#63b8ff" d="M481.46,-81.23C563.28,-70.85 712.48,-51.65 850.8,-32.26"/>
<polygon fill="#63b8ff" stroke="#63b8ff" points="851.1,-35.75 860.51,-30.89 850.12,-28.82 851.1,-35.75"/>
</a>
</g>
</g>
</g>
</svg>
