<?xml version="1.0" encoding="UTF-8" standalone="no"?>
<!DOCTYPE svg PUBLIC "-//W3C//DTD SVG 1.1//EN"
 "http://www.w3.org/Graphics/SVG/1.1/DTD/svg11.dtd">
<!-- Generated by graphviz version 12.2.1 (20241206.2353)
 -->
<!-- Title: src/main/java/fr/softsf/sudokufx/common/util/sudoku/GridMaster.java Pages: 1 -->
<svg width="1118pt" height="120pt"
 viewBox="0.00 0.00 1118.12 120.00" xmlns="http://www.w3.org/2000/svg" xmlns:xlink="http://www.w3.org/1999/xlink">
<g id="graph0" class="graph" transform="scale(1 1) rotate(0) translate(4 116)">
<title>src/main/java/fr/softsf/sudokufx/common/util/sudoku/GridMaster.java</title>
<!-- Node1 -->
<g id="Node000001" class="node">
<title>Node1</title>
<g id="a_Node000001"><a xlink:title=" ">
<polygon fill="#999999" stroke="#666666" points="534.88,-112 412.38,-112 412.38,-68 534.88,-68 534.88,-112"/>
<text text-anchor="start" x="420.38" y="-98.5" font-family="Helvetica,sans-Serif" font-size="10.00">src/main/java/fr/softsf</text>
<text text-anchor="start" x="420.38" y="-86.5" font-family="Helvetica,sans-Serif" font-size="10.00">/sudokufx/common/util</text>
<text text-anchor="middle" x="473.62" y="-74.5" font-family="Helvetica,sans-Serif" font-size="10.00">/sudoku/GridMaster.java</text>
</a>
</g>
</g>
<!-- Node2 -->
<g id="Node000002" class="node">
<title>Node2</title>
<g id="a_Node000002"><a xlink:title=" ">
<polygon fill="#e0e0e0" stroke="#999999" points="81.25,-26 0,-26 0,-6 81.25,-6 81.25,-26"/>
<text text-anchor="middle" x="40.62" y="-12.5" font-family="Helvetica,sans-Serif" font-size="10.00">java.util.Arrays</text>
</a>
</g>
</g>
<!-- Node1&#45;&gt;Node2 -->
<g id="edge1_Node000001_Node000002" class="edge">
<title>Node1&#45;&gt;Node2</title>
<g id="a_edge1_Node000001_Node000002"><a xlink:title=" ">
<path fill="none" stroke="#63b8ff" d="M411.92,-82.72C335.61,-74.3 202.04,-57.4 89.62,-32 86.45,-31.28 83.19,-30.47 79.92,-29.59"/>
<polygon fill="#63b8ff" stroke="#63b8ff" points="80.97,-26.25 70.39,-26.87 79.04,-32.98 80.97,-26.25"/>
</a>
</g>
</g>
<!-- Node3 -->
<g id="Node000003" class="node">
<title>Node3</title>
<g id="a_Node000003"><a xlink:title=" ">
<polygon fill="#e0e0e0" stroke="#999999" points="230.38,-32 98.88,-32 98.88,0 230.38,0 230.38,-32"/>
<text text-anchor="start" x="106.88" y="-18.5" font-family="Helvetica,sans-Serif" font-size="10.00">java.util.concurrent.Thread</text>
<text text-anchor="middle" x="164.62" y="-6.5" font-family="Helvetica,sans-Serif" font-size="10.00">LocalRandom</text>
</a>
</g>
</g>
<!-- Node1&#45;&gt;Node3 -->
<g id="edge2_Node000001_Node000003" class="edge">
<title>Node1&#45;&gt;Node3</title>
<g id="a_edge2_Node000001_Node000003"><a xlink:title=" ">
<path fill="none" stroke="#63b8ff" d="M412.21,-74.69C363.24,-63.28 294.39,-47.24 241.72,-34.96"/>
<polygon fill="#63b8ff" stroke="#63b8ff" points="242.74,-31.61 232.21,-32.75 241.16,-38.43 242.74,-31.61"/>
</a>
</g>
</g>
<!-- Node4 -->
<g id="Node000004" class="node">
<title>Node4</title>
<g id="a_Node000004"><a xlink:title=" ">
<polygon fill="#e0e0e0" stroke="#999999" points="391,-26 248.25,-26 248.25,-6 391,-6 391,-26"/>
<text text-anchor="middle" x="319.62" y="-12.5" font-family="Helvetica,sans-Serif" font-size="10.00">java.util.function.IntPredicate</text>
</a>
</g>
</g>
<!-- Node1&#45;&gt;Node4 -->
<g id="edge3_Node000001_Node000004" class="edge">
<title>Node1&#45;&gt;Node4</title>
<g id="a_edge3_Node000001_Node000004"><a xlink:title=" ">
<path fill="none" stroke="#63b8ff" d="M427.84,-67.59C402.69,-55.84 372.2,-41.58 350.01,-31.2"/>
<polygon fill="#63b8ff" stroke="#63b8ff" points="351.75,-28.15 341.2,-27.09 348.78,-34.49 351.75,-28.15"/>
</a>
</g>
</g>
<!-- Node5 -->
<g id="Node000005" class="node">
<title>Node5</title>
<g id="a_Node000005"><a xlink:title=" ">
<polygon fill="#e0e0e0" stroke="#999999" points="537.88,-26 409.38,-26 409.38,-6 537.88,-6 537.88,-26"/>
<text text-anchor="middle" x="473.62" y="-12.5" font-family="Helvetica,sans-Serif" font-size="10.00">java.util.stream.IntStream</text>
</a>
</g>
</g>
<!-- Node1&#45;&gt;Node5 -->
<g id="edge4_Node000001_Node000005" class="edge">
<title>Node1&#45;&gt;Node5</title>
<g id="a_edge4_Node000001_Node000005"><a xlink:title=" ">
<path fill="none" stroke="#63b8ff" d="M473.62,-67.79C473.62,-58.32 473.62,-47.2 473.62,-37.78"/>
<polygon fill="#63b8ff" stroke="#63b8ff" points="477.13,-37.82 473.63,-27.82 470.13,-37.82 477.13,-37.82"/>
</a>
</g>
</g>
<!-- Node6 -->
<g id="Node000006" class="node">
<title>Node6</title>
<g id="a_Node000006"><a xlink:title=" ">
<polygon fill="#e0e0e0" stroke="#999999" points="711.75,-32 555.5,-32 555.5,0 711.75,0 711.75,-32"/>
<text text-anchor="start" x="563.5" y="-18.5" font-family="Helvetica,sans-Serif" font-size="10.00">org.springframework.stereotype.</text>
<text text-anchor="middle" x="633.62" y="-6.5" font-family="Helvetica,sans-Serif" font-size="10.00">Component</text>
</a>
</g>
</g>
<!-- Node1&#45;&gt;Node6 -->
<g id="edge5_Node000001_Node000006" class="edge">
<title>Node1&#45;&gt;Node6</title>
<g id="a_edge5_Node000001_Node000006"><a xlink:title=" ">
<path fill="none" stroke="#63b8ff" d="M521.2,-67.59C542.63,-57.95 567.8,-46.62 588.89,-37.13"/>
<polygon fill="#63b8ff" stroke="#63b8ff" points="590.13,-40.41 597.81,-33.12 587.25,-34.03 590.13,-40.41"/>
</a>
</g>
</g>
<!-- Node7 -->
<g id="Node000007" class="node">
<title>Node7</title>
<g id="a_Node000007"><a xlink:title=" ">
<polygon fill="#e0e0e0" stroke="#999999" points="911.12,-32 730.12,-32 730.12,0 911.12,0 911.12,-32"/>
<text text-anchor="start" x="738.12" y="-18.5" font-family="Helvetica,sans-Serif" font-size="10.00">fr.softsf.sudokufx.common.exception.</text>
<text text-anchor="middle" x="820.62" y="-6.5" font-family="Helvetica,sans-Serif" font-size="10.00">ExceptionTools</text>
</a>
</g>
</g>
<!-- Node1&#45;&gt;Node7 -->
<g id="edge6_Node000001_Node000007" class="edge">
<title>Node1&#45;&gt;Node7</title>
<g id="a_edge6_Node000001_Node000007"><a xlink:title=" ">
<path fill="none" stroke="#63b8ff" d="M535.26,-76.21C590.84,-64.68 673.11,-47.61 735.05,-34.76"/>
<polygon fill="#63b8ff" stroke="#63b8ff" points="735.42,-38.25 744.5,-32.8 734,-31.4 735.42,-38.25"/>
</a>
</g>
</g>
<!-- Node8 -->
<g id="Node000008" class="node">
<title>Node8</title>
<g id="a_Node000008"><a xlink:title=" ">
<polygon fill="#e0e0e0" stroke="#999999" points="1110.12,-32 929.12,-32 929.12,0 1110.12,0 1110.12,-32"/>
<text text-anchor="start" x="937.12" y="-18.5" font-family="Helvetica,sans-Serif" font-size="10.00">fr.softsf.sudokufx.common.exception.</text>
<text text-anchor="middle" x="1019.62" y="-6.5" font-family="Helvetica,sans-Serif" font-size="10.00">JakartaValidator</text>
</a>
</g>
</g>
<!-- Node1&#45;&gt;Node8 -->
<g id="edge7_Node000001_Node000008" class="edge">
<title>Node1&#45;&gt;Node8</title>
<g id="a_edge7_Node000001_Node000008"><a xlink:title=" ">
<path fill="none" stroke="#63b8ff" d="M535.14,-81.62C619.2,-71.43 774.93,-52.19 917.61,-32.4"/>
<polygon fill="#63b8ff" stroke="#63b8ff" points="917.81,-35.91 927.24,-31.06 916.85,-28.98 917.81,-35.91"/>
</a>
</g>
</g>
</g>
</svg>
