<?xml version="1.0" encoding="UTF-8" standalone="no"?>
<!DOCTYPE svg PUBLIC "-//W3C//DTD SVG 1.1//EN"
 "http://www.w3.org/Graphics/SVG/1.1/DTD/svg11.dtd">
<!-- Generated by graphviz version 12.2.1 (20241206.2353)
 -->
<!-- Title: src/main/java/fr/softsf/sudokufx/common/util/sudoku/GrilleResolue.java Pages: 1 -->
<svg width="837pt" height="120pt"
 viewBox="0.00 0.00 837.12 120.00" xmlns="http://www.w3.org/2000/svg" xmlns:xlink="http://www.w3.org/1999/xlink">
<g id="graph0" class="graph" transform="scale(1 1) rotate(0) translate(4 116)">
<title>src/main/java/fr/softsf/sudokufx/common/util/sudoku/GrilleResolue.java</title>
<!-- Node1 -->
<g id="Node000001" class="node">
<title>Node1</title>
<g id="a_Node000001"><a xlink:title=" ">
<polygon fill="#999999" stroke="#666666" points="474.12,-112 341.12,-112 341.12,-68 474.12,-68 474.12,-112"/>
<text text-anchor="start" x="349.12" y="-98.5" font-family="Helvetica,sans-Serif" font-size="10.00">src/main/java/fr/softsf</text>
<text text-anchor="start" x="349.12" y="-86.5" font-family="Helvetica,sans-Serif" font-size="10.00">/sudokufx/common/util</text>
<text text-anchor="middle" x="407.62" y="-74.5" font-family="Helvetica,sans-Serif" font-size="10.00">/sudoku/GrilleResolue.java</text>
</a>
</g>
</g>
<!-- Node2 -->
<g id="Node000002" class="node">
<title>Node2</title>
<g id="a_Node000002"><a xlink:title=" ">
<polygon fill="#e0e0e0" stroke="#999999" points="129.25,-26 0,-26 0,-6 129.25,-6 129.25,-26"/>
<text text-anchor="middle" x="64.62" y="-12.5" font-family="Helvetica,sans-Serif" font-size="10.00">jakarta.annotation.Nonnull</text>
</a>
</g>
</g>
<!-- Node1&#45;&gt;Node2 -->
<g id="edge1_Node000001_Node000002" class="edge">
<title>Node1&#45;&gt;Node2</title>
<g id="a_edge1_Node000001_Node000002"><a xlink:title=" ">
<path fill="none" stroke="#63b8ff" d="M340.68,-74.95C276.66,-61.51 181.23,-41.48 120.99,-28.83"/>
<polygon fill="#63b8ff" stroke="#63b8ff" points="121.79,-25.42 111.29,-26.79 120.35,-32.27 121.79,-25.42"/>
</a>
</g>
</g>
<!-- Node3 -->
<g id="Node000003" class="node">
<title>Node3</title>
<g id="a_Node000003"><a xlink:title=" ">
<polygon fill="#e0e0e0" stroke="#999999" points="309.75,-26 147.5,-26 147.5,-6 309.75,-6 309.75,-26"/>
<text text-anchor="middle" x="228.62" y="-12.5" font-family="Helvetica,sans-Serif" font-size="10.00">jakarta.validation.constraints.Max</text>
</a>
</g>
</g>
<!-- Node1&#45;&gt;Node3 -->
<g id="edge2_Node000001_Node000003" class="edge">
<title>Node1&#45;&gt;Node3</title>
<g id="a_edge2_Node000001_Node000003"><a xlink:title=" ">
<path fill="none" stroke="#63b8ff" d="M354.4,-67.59C324.65,-55.62 288.45,-41.06 262.54,-30.64"/>
<polygon fill="#63b8ff" stroke="#63b8ff" points="264.1,-27.5 253.52,-27.01 261.49,-33.99 264.1,-27.5"/>
</a>
</g>
</g>
<!-- Node4 -->
<g id="Node000004" class="node">
<title>Node4</title>
<g id="a_Node000004"><a xlink:title=" ">
<polygon fill="#e0e0e0" stroke="#999999" points="487.25,-26 328,-26 328,-6 487.25,-6 487.25,-26"/>
<text text-anchor="middle" x="407.62" y="-12.5" font-family="Helvetica,sans-Serif" font-size="10.00">jakarta.validation.constraints.Min</text>
</a>
</g>
</g>
<!-- Node1&#45;&gt;Node4 -->
<g id="edge3_Node000001_Node000004" class="edge">
<title>Node1&#45;&gt;Node4</title>
<g id="a_edge3_Node000001_Node000004"><a xlink:title=" ">
<path fill="none" stroke="#63b8ff" d="M407.62,-67.79C407.62,-58.32 407.62,-47.2 407.62,-37.78"/>
<polygon fill="#63b8ff" stroke="#63b8ff" points="411.13,-37.82 407.63,-27.82 404.13,-37.82 411.13,-37.82"/>
</a>
</g>
</g>
<!-- Node5 -->
<g id="Node000005" class="node">
<title>Node5</title>
<g id="a_Node000005"><a xlink:title=" ">
<polygon fill="#e0e0e0" stroke="#999999" points="648.38,-32 504.88,-32 504.88,0 648.38,0 648.38,-32"/>
<text text-anchor="start" x="512.88" y="-18.5" font-family="Helvetica,sans-Serif" font-size="10.00">jakarta.validation.constraints.</text>
<text text-anchor="middle" x="576.62" y="-6.5" font-family="Helvetica,sans-Serif" font-size="10.00">NotNull</text>
</a>
</g>
</g>
<!-- Node1&#45;&gt;Node5 -->
<g id="edge4_Node000001_Node000005" class="edge">
<title>Node1&#45;&gt;Node5</title>
<g id="a_edge4_Node000001_Node000005"><a xlink:title=" ">
<path fill="none" stroke="#63b8ff" d="M457.87,-67.59C480.62,-57.9 507.34,-46.52 529.68,-37"/>
<polygon fill="#63b8ff" stroke="#63b8ff" points="531.03,-40.23 538.86,-33.09 528.29,-33.79 531.03,-40.23"/>
</a>
</g>
</g>
<!-- Node6 -->
<g id="Node000006" class="node">
<title>Node6</title>
<g id="a_Node000006"><a xlink:title=" ">
<polygon fill="#e0e0e0" stroke="#999999" points="829.12,-26 666.12,-26 666.12,-6 829.12,-6 829.12,-26"/>
<text text-anchor="middle" x="747.62" y="-12.5" font-family="Helvetica,sans-Serif" font-size="10.00">jakarta.validation.constraints.Size</text>
</a>
</g>
</g>
<!-- Node1&#45;&gt;Node6 -->
<g id="edge5_Node000001_Node000006" class="edge">
<title>Node1&#45;&gt;Node6</title>
<g id="a_edge5_Node000001_Node000006"><a xlink:title=" ">
<path fill="none" stroke="#63b8ff" d="M474.39,-74.86C537.89,-61.41 632.31,-41.42 691.89,-28.8"/>
<polygon fill="#63b8ff" stroke="#63b8ff" points="692.41,-32.27 701.47,-26.77 690.96,-25.42 692.41,-32.27"/>
</a>
</g>
</g>
</g>
</svg>
