<?xml version="1.0" encoding="UTF-8" standalone="no"?>
<!DOCTYPE svg PUBLIC "-//W3C//DTD SVG 1.1//EN"
 "http://www.w3.org/Graphics/SVG/1.1/DTD/svg11.dtd">
<!-- Generated by graphviz version 12.2.1 (20241206.2353)
 -->
<!-- Title: src/main/java/fr/softsf/sudokufx/viewmodel/HelpViewModel.java Pages: 1 -->
<!--zoomable 120 -->

<svg id="main" version="1.1" xmlns="http://www.w3.org/2000/svg" xmlns:xlink="http://www.w3.org/1999/xlink" xml:space="preserve" onload="init(evt)">

<style type="text/css"><![CDATA[
.node, .edge {opacity: 0.7;}
.node.selected, .edge.selected {opacity: 1;}
.edge:hover path { stroke: red; }
.edge:hover polygon { stroke: red; fill: red; }
]]></style>

<defs>
  <circle id="rim" cx="0" cy="0" r="7"/>
  <circle id="rim2" cx="0" cy="0" r="3.5"/>
  <g id="zoomPlus">
    <use xlink:href="#rim" fill="#404040"><set attributeName="fill" to="#808080" begin="zoomplus.mouseover" end="zoomplus.mouseout"/></use>
    <path d="M-4,0h8M0,-4v8" fill="none" stroke="white" stroke-width="1.5" pointer-events="none"/>
  </g>
  <g id="zoomMin">
    <use xlink:href="#rim" fill="#404040"><set attributeName="fill" to="#808080" begin="zoomminus.mouseover" end="zoomminus.mouseout"/></use>
    <path d="M-4,0h8" fill="none" stroke="white" stroke-width="1.5" pointer-events="none"/>
  </g>
  <g id="arrowUp" transform="translate(30 24)">
    <use xlink:href="#rim"/>
    <path pointer-events="none" fill="none" stroke="white" stroke-width="1.5" d="M0,-3.0v7 M-2.5,-0.5L0,-3.0L2.5,-0.5"/>
  </g>
  <g id="arrowRight" transform="rotate(90) translate(36 -43)">
    <use xlink:href="#rim"/>
    <path pointer-events="none" fill="none" stroke="white" stroke-width="1.5" d="M0,-3.0v7 M-2.5,-0.5L0,-3.0L2.5,-0.5"/>
  </g>
  <g id="arrowDown" transform="rotate(180) translate(-30 -48)">
    <use xlink:href="#rim"/>
    <path pointer-events="none" fill="none" stroke="white" stroke-width="1.5" d="M0,-3.0v7 M-2.5,-0.5L0,-3.0L2.5,-0.5"/>
  </g>
  <g id="arrowLeft" transform="rotate(270) translate(-36 17)">
    <use xlink:href="#rim"/>
    <path pointer-events="none" fill="none" stroke="white" stroke-width="1.5" d="M0,-3.0v7 M-2.5,-0.5L0,-3.0L2.5,-0.5"/>
  </g>
  <g id="resetDef">
    <use xlink:href="#rim2" fill="#404040"><set attributeName="fill" to="#808080" begin="reset.mouseover" end="reset.mouseout"/></use>
  </g>
</defs>
<script type="application/ecmascript">
var viewWidth = 3350;
var viewHeight = 120;
var sectionId = 'dynsection-0';
</script>
<script type="application/ecmascript" xlink:href="svg.min.js"/>
<svg id="graph" class="graph">
<g id="viewport">
<title>src/main/java/fr/softsf/sudokufx/viewmodel/HelpViewModel.java</title>
<!-- Node1 -->
<g id="Node000001" class="node">
<title>Node1</title>
<g id="a_Node000001"><a xlink:title=" ">
<polygon fill="#999999" stroke="#666666" points="1589.25,-112 1436,-112 1436,-68 1589.25,-68 1589.25,-112"/>
<text text-anchor="start" x="1444" y="-98.5" font-family="Helvetica,sans-Serif" font-size="10.00">src/main/java/fr/softsf</text>
<text text-anchor="start" x="1444" y="-86.5" font-family="Helvetica,sans-Serif" font-size="10.00">/sudokufx/viewmodel/HelpView</text>
<text text-anchor="middle" x="1512.62" y="-74.5" font-family="Helvetica,sans-Serif" font-size="10.00">Model.java</text>
</a>
</g>
</g>
<!-- Node2 -->
<g id="Node000002" class="node">
<title>Node2</title>
<g id="a_Node000002"><a xlink:title=" ">
<polygon fill="#e0e0e0" stroke="#999999" points="63.25,-26 0,-26 0,-6 63.25,-6 63.25,-26"/>
<text text-anchor="middle" x="31.62" y="-12.5" font-family="Helvetica,sans-Serif" font-size="10.00">java.io.File</text>
</a>
</g>
</g>
<!-- Node1&#45;&gt;Node2 -->
<g id="edge1_Node000001_Node000002" class="edge">
<title>Node1&#45;&gt;Node2</title>
<g id="a_edge1_Node000001_Node000002"><a xlink:title=" ">
<path fill="none" stroke="#63b8ff" d="M1435.76,-89.1C1176.72,-88.93 337.09,-84.28 72.62,-32 69.83,-31.45 66.97,-30.73 64.12,-29.92"/>
<polygon fill="#63b8ff" stroke="#63b8ff" points="65.42,-26.66 54.83,-26.86 63.24,-33.31 65.42,-26.66"/>
</a>
</g>
</g>
<!-- Node3 -->
<g id="Node000003" class="node">
<title>Node3</title>
<g id="a_Node000003"><a xlink:title=" ">
<polygon fill="#e0e0e0" stroke="#999999" points="170,-26 81.25,-26 81.25,-6 170,-6 170,-26"/>
<text text-anchor="middle" x="125.62" y="-12.5" font-family="Helvetica,sans-Serif" font-size="10.00">java.nio.file.Path</text>
</a>
</g>
</g>
<!-- Node1&#45;&gt;Node3 -->
<g id="edge2_Node000001_Node000003" class="edge">
<title>Node1&#45;&gt;Node3</title>
<g id="a_edge2_Node000001_Node000003"><a xlink:title=" ">
<path fill="none" stroke="#63b8ff" d="M1435.6,-88.07C1189.38,-84.71 423.24,-71.29 178.62,-32 174.29,-31.3 169.8,-30.37 165.36,-29.32"/>
<polygon fill="#63b8ff" stroke="#63b8ff" points="166.53,-26.01 155.97,-26.87 164.77,-32.78 166.53,-26.01"/>
</a>
</g>
</g>
<!-- Node4 -->
<g id="Node000004" class="node">
<title>Node4</title>
<g id="a_Node000004"><a xlink:title=" ">
<polygon fill="#e0e0e0" stroke="#999999" points="315.12,-26 188.12,-26 188.12,-6 315.12,-6 315.12,-26"/>
<text text-anchor="middle" x="251.62" y="-12.5" font-family="Helvetica,sans-Serif" font-size="10.00">java.text.MessageFormat</text>
</a>
</g>
</g>
<!-- Node1&#45;&gt;Node4 -->
<g id="edge3_Node000001_Node000004" class="edge">
<title>Node1&#45;&gt;Node4</title>
<g id="a_edge3_Node000001_Node000004"><a xlink:title=" ">
<path fill="none" stroke="#63b8ff" d="M1435.83,-89.42C1246.32,-89.56 741.53,-84.51 324.62,-32 317.63,-31.12 310.31,-29.93 303.12,-28.61"/>
<polygon fill="#63b8ff" stroke="#63b8ff" points="303.95,-25.21 293.47,-26.74 302.62,-32.08 303.95,-25.21"/>
</a>
</g>
</g>
<!-- Node5 -->
<g id="Node000005" class="node">
<title>Node5</title>
<g id="a_Node000005"><a xlink:title=" ">
<polygon fill="#e0e0e0" stroke="#999999" points="458,-26 333.25,-26 333.25,-6 458,-6 458,-26"/>
<text text-anchor="middle" x="395.62" y="-12.5" font-family="Helvetica,sans-Serif" font-size="10.00">java.time.LocalDateTime</text>
</a>
</g>
</g>
<!-- Node1&#45;&gt;Node5 -->
<g id="edge4_Node000001_Node000005" class="edge">
<title>Node1&#45;&gt;Node5</title>
<g id="a_edge4_Node000001_Node000005"><a xlink:title=" ">
<path fill="none" stroke="#63b8ff" d="M1435.56,-88.77C1262,-87.37 827.5,-79.03 467.62,-32 460.89,-31.12 453.85,-29.96 446.92,-28.67"/>
<polygon fill="#63b8ff" stroke="#63b8ff" points="447.78,-25.27 437.29,-26.78 446.43,-32.14 447.78,-25.27"/>
</a>
</g>
</g>
<!-- Node6 -->
<g id="Node000006" class="node">
<title>Node6</title>
<g id="a_Node000006"><a xlink:title=" ">
<polygon fill="#e0e0e0" stroke="#999999" points="565,-26 476.25,-26 476.25,-6 565,-6 565,-26"/>
<text text-anchor="middle" x="520.62" y="-12.5" font-family="Helvetica,sans-Serif" font-size="10.00">java.time.ZoneId</text>
</a>
</g>
</g>
<!-- Node1&#45;&gt;Node6 -->
<g id="edge5_Node000001_Node000006" class="edge">
<title>Node1&#45;&gt;Node6</title>
<g id="a_edge5_Node000001_Node000006"><a xlink:title=" ">
<path fill="none" stroke="#63b8ff" d="M1435.72,-89.77C1274.74,-90.19 891.01,-84.95 574.62,-32 570.27,-31.27 565.76,-30.33 561.29,-29.27"/>
<polygon fill="#63b8ff" stroke="#63b8ff" points="562.39,-25.94 551.83,-26.84 560.64,-32.72 562.39,-25.94"/>
</a>
</g>
</g>
<!-- Node7 -->
<g id="Node000007" class="node">
<title>Node7</title>
<g id="a_Node000007"><a xlink:title=" ">
<polygon fill="#e0e0e0" stroke="#999999" points="669.88,-26 583.38,-26 583.38,-6 669.88,-6 669.88,-26"/>
<text text-anchor="middle" x="626.62" y="-12.5" font-family="Helvetica,sans-Serif" font-size="10.00">java.util.Objects</text>
</a>
</g>
</g>
<!-- Node1&#45;&gt;Node7 -->
<g id="edge6_Node000001_Node000007" class="edge">
<title>Node1&#45;&gt;Node7</title>
<g id="a_edge6_Node000001_Node000007"><a xlink:title=" ">
<path fill="none" stroke="#63b8ff" d="M1435.5,-89.18C1287.55,-88.32 954.11,-80.58 678.62,-32 674.54,-31.28 670.33,-30.36 666.14,-29.34"/>
<polygon fill="#63b8ff" stroke="#63b8ff" points="667.28,-26.02 656.71,-26.83 665.47,-32.78 667.28,-26.02"/>
</a>
</g>
</g>
<!-- Node8 -->
<g id="Node000008" class="node">
<title>Node8</title>
<g id="a_Node000008"><a xlink:title=" ">
<polygon fill="#e0e0e0" stroke="#999999" points="815.12,-26 688.12,-26 688.12,-6 815.12,-6 815.12,-26"/>
<text text-anchor="middle" x="751.62" y="-12.5" font-family="Helvetica,sans-Serif" font-size="10.00">javafx.scene.control.Alert</text>
</a>
</g>
</g>
<!-- Node1&#45;&gt;Node8 -->
<g id="edge7_Node000001_Node000008" class="edge">
<title>Node1&#45;&gt;Node8</title>
<g id="a_edge7_Node000001_Node000008"><a xlink:title=" ">
<path fill="none" stroke="#63b8ff" d="M1435.55,-85.72C1307.82,-79.59 1044.42,-64.01 823.62,-32 817.15,-31.06 810.38,-29.9 803.7,-28.64"/>
<polygon fill="#63b8ff" stroke="#63b8ff" points="804.56,-25.24 794.08,-26.74 803.21,-32.11 804.56,-25.24"/>
</a>
</g>
</g>
<!-- Node9 -->
<g id="Node000009" class="node">
<title>Node9</title>
<g id="a_Node000009"><a xlink:title=" ">
<polygon fill="#e0e0e0" stroke="#999999" points="968.25,-26 833,-26 833,-6 968.25,-6 968.25,-26"/>
<text text-anchor="middle" x="900.62" y="-12.5" font-family="Helvetica,sans-Serif" font-size="10.00">javafx.scene.control.Button</text>
</a>
</g>
</g>
<!-- Node1&#45;&gt;Node9 -->
<g id="edge8_Node000001_Node000009" class="edge">
<title>Node1&#45;&gt;Node9</title>
<g id="a_edge8_Node000001_Node000009"><a xlink:title=" ">
<path fill="none" stroke="#63b8ff" d="M1435.72,-82.91C1331.56,-74.17 1139.96,-56.41 977.62,-32 970.9,-30.99 963.87,-29.8 956.91,-28.54"/>
<polygon fill="#63b8ff" stroke="#63b8ff" points="957.67,-25.13 947.19,-26.74 956.38,-32.01 957.67,-25.13"/>
</a>
</g>
</g>
<!-- Node10 -->
<g id="Node000010" class="node">
<title>Node10</title>
<g id="a_Node000010"><a xlink:title=" ">
<polygon fill="#e0e0e0" stroke="#999999" points="1136.75,-26 986.5,-26 986.5,-6 1136.75,-6 1136.75,-26"/>
<text text-anchor="middle" x="1061.62" y="-12.5" font-family="Helvetica,sans-Serif" font-size="10.00">javafx.scene.control.ButtonBar</text>
</a>
</g>
</g>
<!-- Node1&#45;&gt;Node10 -->
<g id="edge9_Node000001_Node000010" class="edge">
<title>Node1&#45;&gt;Node10</title>
<g id="a_edge9_Node000001_Node000010"><a xlink:title=" ">
<path fill="none" stroke="#63b8ff" d="M1435.57,-77.55C1361.25,-66.39 1245.63,-48.69 1145.62,-32 1138.9,-30.88 1131.87,-29.67 1124.88,-28.45"/>
<polygon fill="#63b8ff" stroke="#63b8ff" points="1125.52,-25.01 1115.06,-26.73 1124.31,-31.91 1125.52,-25.01"/>
</a>
</g>
</g>
<!-- Node11 -->
<g id="Node000011" class="node">
<title>Node11</title>
<g id="a_Node000011"><a xlink:title=" ">
<polygon fill="#e0e0e0" stroke="#999999" points="1310.75,-26 1154.5,-26 1154.5,-6 1310.75,-6 1310.75,-26"/>
<text text-anchor="middle" x="1232.62" y="-12.5" font-family="Helvetica,sans-Serif" font-size="10.00">javafx.scene.control.ButtonType</text>
</a>
</g>
</g>
<!-- Node1&#45;&gt;Node11 -->
<g id="edge10_Node000001_Node000011" class="edge">
<title>Node1&#45;&gt;Node11</title>
<g id="a_edge10_Node000001_Node000011"><a xlink:title=" ">
<path fill="none" stroke="#63b8ff" d="M1435.74,-69.23C1385.96,-56.43 1322.7,-40.16 1280.12,-29.21"/>
<polygon fill="#63b8ff" stroke="#63b8ff" points="1281.24,-25.89 1270.69,-26.79 1279.5,-32.67 1281.24,-25.89"/>
</a>
</g>
</g>
<!-- Node12 -->
<g id="Node000012" class="node">
<title>Node12</title>
<g id="a_Node000012"><a xlink:title=" ">
<polygon fill="#e0e0e0" stroke="#999999" points="1534.88,-32 1328.38,-32 1328.38,0 1534.88,0 1534.88,-32"/>
<text text-anchor="start" x="1336.38" y="-18.5" font-family="Helvetica,sans-Serif" font-size="10.00">org.apache.logging.log4j.internal.annotation.</text>
<text text-anchor="middle" x="1431.62" y="-6.5" font-family="Helvetica,sans-Serif" font-size="10.00">SuppressFBWarnings</text>
</a>
</g>
</g>
<!-- Node1&#45;&gt;Node12 -->
<g id="edge11_Node000001_Node000012" class="edge">
<title>Node1&#45;&gt;Node12</title>
<g id="a_edge11_Node000001_Node000012"><a xlink:title=" ">
<path fill="none" stroke="#63b8ff" d="M1488.76,-67.79C1478.87,-59 1467.38,-48.78 1457.31,-39.83"/>
<polygon fill="#63b8ff" stroke="#63b8ff" points="1459.83,-37.39 1450.03,-33.36 1455.18,-42.62 1459.83,-37.39"/>
</a>
</g>
</g>
<!-- Node13 -->
<g id="Node000013" class="node">
<title>Node13</title>
<g id="a_Node000013"><a xlink:title=" ">
<polygon fill="#e0e0e0" stroke="#999999" points="1636,-26 1553.25,-26 1553.25,-6 1636,-6 1636,-26"/>
<text text-anchor="middle" x="1594.62" y="-12.5" font-family="Helvetica,sans-Serif" font-size="10.00">org.slf4j.Logger</text>
</a>
</g>
</g>
<!-- Node1&#45;&gt;Node13 -->
<g id="edge12_Node000001_Node000013" class="edge">
<title>Node1&#45;&gt;Node13</title>
<g id="a_edge12_Node000001_Node000013"><a xlink:title=" ">
<path fill="none" stroke="#63b8ff" d="M1536.78,-67.79C1549.16,-56.92 1564.01,-43.88 1575.57,-33.73"/>
<polygon fill="#63b8ff" stroke="#63b8ff" points="1577.68,-36.54 1582.88,-27.31 1573.06,-31.28 1577.68,-36.54"/>
</a>
</g>
</g>
<!-- Node14 -->
<g id="Node000014" class="node">
<title>Node14</title>
<g id="a_Node000014"><a xlink:title=" ">
<polygon fill="#e0e0e0" stroke="#999999" points="1769.5,-26 1653.75,-26 1653.75,-6 1769.5,-6 1769.5,-26"/>
<text text-anchor="middle" x="1711.62" y="-12.5" font-family="Helvetica,sans-Serif" font-size="10.00">org.slf4j.LoggerFactory</text>
</a>
</g>
</g>
<!-- Node1&#45;&gt;Node14 -->
<g id="edge13_Node000001_Node000014" class="edge">
<title>Node1&#45;&gt;Node14</title>
<g id="a_edge13_Node000001_Node000014"><a xlink:title=" ">
<path fill="none" stroke="#63b8ff" d="M1571.79,-67.59C1605.17,-55.52 1645.84,-40.8 1674.69,-30.36"/>
<polygon fill="#63b8ff" stroke="#63b8ff" points="1675.88,-33.66 1684.09,-26.96 1673.49,-27.07 1675.88,-33.66"/>
</a>
</g>
</g>
<!-- Node15 -->
<g id="Node000015" class="node">
<title>Node15</title>
<g id="a_Node000015"><a xlink:title=" ">
<polygon fill="#e0e0e0" stroke="#999999" points="1943.75,-32 1787.5,-32 1787.5,0 1943.75,0 1943.75,-32"/>
<text text-anchor="start" x="1795.5" y="-18.5" font-family="Helvetica,sans-Serif" font-size="10.00">org.springframework.stereotype.</text>
<text text-anchor="middle" x="1865.62" y="-6.5" font-family="Helvetica,sans-Serif" font-size="10.00">Component</text>
</a>
</g>
</g>
<!-- Node1&#45;&gt;Node15 -->
<g id="edge14_Node000001_Node000015" class="edge">
<title>Node1&#45;&gt;Node15</title>
<g id="a_edge14_Node000001_Node000015"><a xlink:title=" ">
<path fill="none" stroke="#63b8ff" d="M1589.66,-73.29C1645.4,-61.92 1720.8,-46.54 1778.7,-34.73"/>
<polygon fill="#63b8ff" stroke="#63b8ff" points="1779.09,-38.22 1788.19,-32.8 1777.69,-31.36 1779.09,-38.22"/>
</a>
</g>
</g>
<!-- Node16 -->
<g id="Node000016" class="node">
<title>Node16</title>
<g id="a_Node000016"><a xlink:title=" ">
<polygon fill="#e0e0e0" stroke="#999999" points="2129.75,-32 1961.5,-32 1961.5,0 2129.75,0 2129.75,-32"/>
<text text-anchor="start" x="1969.5" y="-18.5" font-family="Helvetica,sans-Serif" font-size="10.00">fr.softsf.sudokufx.common.enums.</text>
<text text-anchor="middle" x="2045.62" y="-6.5" font-family="Helvetica,sans-Serif" font-size="10.00">AppPaths</text>
</a>
</g>
</g>
<!-- Node1&#45;&gt;Node16 -->
<g id="edge15_Node000001_Node000016" class="edge">
<title>Node1&#45;&gt;Node16</title>
<g id="a_edge15_Node000001_Node000016"><a xlink:title=" ">
<path fill="none" stroke="#63b8ff" d="M1589.43,-79.78C1674.91,-69.36 1817.46,-51.49 1950.31,-32.31"/>
<polygon fill="#63b8ff" stroke="#63b8ff" points="1950.6,-35.81 1960,-30.91 1949.6,-28.88 1950.6,-35.81"/>
</a>
</g>
</g>
<!-- Node17 -->
<g id="Node000017" class="node">
<title>Node17</title>
<g id="a_Node000017"><a xlink:title=" ">
<polygon fill="#e0e0e0" stroke="#999999" points="2335.12,-26 2148.12,-26 2148.12,-6 2335.12,-6 2335.12,-26"/>
<text text-anchor="middle" x="2241.62" y="-12.5" font-family="Helvetica,sans-Serif" font-size="10.00">fr.softsf.sudokufx.common.enums.I18n</text>
</a>
</g>
</g>
<!-- Node1&#45;&gt;Node17 -->
<g id="edge16_Node000001_Node000017" class="edge">
<title>Node1&#45;&gt;Node17</title>
<g id="a_edge16_Node000001_Node000017"><a xlink:title=" ">
<path fill="none" stroke="#63b8ff" d="M1589.38,-83.35C1707.55,-74.35 1941.11,-55.36 2138.62,-32 2148.57,-30.82 2159.05,-29.45 2169.35,-28.03"/>
<polygon fill="#63b8ff" stroke="#63b8ff" points="2169.51,-31.54 2178.93,-26.68 2168.53,-24.61 2169.51,-31.54"/>
</a>
</g>
</g>
<!-- Node18 -->
<g id="Node000018" class="node">
<title>Node18</title>
<g id="a_Node000018"><a xlink:title=" ">
<polygon fill="#e0e0e0" stroke="#999999" points="2521.75,-32 2353.5,-32 2353.5,0 2521.75,0 2521.75,-32"/>
<text text-anchor="start" x="2361.5" y="-18.5" font-family="Helvetica,sans-Serif" font-size="10.00">fr.softsf.sudokufx.common.enums.</text>
<text text-anchor="middle" x="2437.62" y="-6.5" font-family="Helvetica,sans-Serif" font-size="10.00">ScreenSize</text>
</a>
</g>
</g>
<!-- Node1&#45;&gt;Node18 -->
<g id="edge17_Node000001_Node000018" class="edge">
<title>Node1&#45;&gt;Node18</title>
<g id="a_edge17_Node000001_Node000018"><a xlink:title=" ">
<path fill="none" stroke="#63b8ff" d="M1589.69,-86.08C1734.88,-80.06 2059.04,-64.17 2341.72,-32.27"/>
<polygon fill="#63b8ff" stroke="#63b8ff" points="2341.98,-35.76 2351.52,-31.15 2341.19,-28.81 2341.98,-35.76"/>
</a>
</g>
</g>
<!-- Node19 -->
<g id="Node000019" class="node">
<title>Node19</title>
<g id="a_Node000019"><a xlink:title=" ">
<polygon fill="#e0e0e0" stroke="#999999" points="2691.5,-32 2539.75,-32 2539.75,0 2691.5,0 2691.5,-32"/>
<text text-anchor="start" x="2547.75" y="-18.5" font-family="Helvetica,sans-Serif" font-size="10.00">fr.softsf.sudokufx.common.util.</text>
<text text-anchor="middle" x="2615.62" y="-6.5" font-family="Helvetica,sans-Serif" font-size="10.00">PathValidator</text>
</a>
</g>
</g>
<!-- Node1&#45;&gt;Node19 -->
<g id="edge18_Node000001_Node000019" class="edge">
<title>Node1&#45;&gt;Node19</title>
<g id="a_edge18_Node000001_Node000019"><a xlink:title=" ">
<path fill="none" stroke="#63b8ff" d="M1589.51,-87.81C1757.88,-84.52 2171.9,-72.78 2528.36,-32.16"/>
<polygon fill="#63b8ff" stroke="#63b8ff" points="2528.65,-35.65 2538.19,-31.03 2527.85,-28.7 2528.65,-35.65"/>
</a>
</g>
</g>
<!-- Node20 -->
<g id="Node000020" class="node">
<title>Node20</title>
<g id="a_Node000020"><a xlink:title=" ">
<polygon fill="#e0e0e0" stroke="#999999" points="2837.88,-32 2709.38,-32 2709.38,0 2837.88,0 2837.88,-32"/>
<text text-anchor="start" x="2717.38" y="-18.5" font-family="Helvetica,sans-Serif" font-size="10.00">fr.softsf.sudokufx.config.</text>
<text text-anchor="middle" x="2773.62" y="-6.5" font-family="Helvetica,sans-Serif" font-size="10.00">JVMApplicationProperties</text>
</a>
</g>
</g>
<!-- Node1&#45;&gt;Node20 -->
<g id="edge19_Node000001_Node000020" class="edge">
<title>Node1&#45;&gt;Node20</title>
<g id="a_edge19_Node000001_Node000020"><a xlink:title=" ">
<path fill="none" stroke="#63b8ff" d="M1589.42,-89.42C1777.26,-89.56 2274.87,-84.6 2697.99,-32.2"/>
<polygon fill="#63b8ff" stroke="#63b8ff" points="2698.24,-35.7 2707.73,-30.98 2697.37,-28.75 2698.24,-35.7"/>
</a>
</g>
</g>
<!-- Node21 -->
<g id="Node000021" class="node">
<title>Node21</title>
<g id="a_Node000021"><a xlink:title=" ">
<polygon fill="#e0e0e0" stroke="#999999" points="2993.75,-32 2855.5,-32 2855.5,0 2993.75,0 2993.75,-32"/>
<text text-anchor="start" x="2863.5" y="-18.5" font-family="Helvetica,sans-Serif" font-size="10.00">fr.softsf.sudokufx.config.os.</text>
<text text-anchor="middle" x="2924.62" y="-6.5" font-family="Helvetica,sans-Serif" font-size="10.00">IOsFolder</text>
</a>
</g>
</g>
<!-- Node1&#45;&gt;Node21 -->
<g id="edge20_Node000001_Node000021" class="edge">
<title>Node1&#45;&gt;Node21</title>
<g id="a_edge20_Node000001_Node000021"><a xlink:title=" ">
<path fill="none" stroke="#63b8ff" d="M1589.64,-89.66C1793.16,-90.57 2362.19,-87.61 2844.02,-32.18"/>
<polygon fill="#63b8ff" stroke="#63b8ff" points="2844.35,-35.67 2853.88,-31.04 2843.54,-28.71 2844.35,-35.67"/>
</a>
</g>
</g>
<!-- Node22 -->
<g id="Node000022" class="node">
<title>Node22</title>
<g id="a_Node000022"><a xlink:title=" ">
<polygon fill="#e0e0e0" stroke="#999999" points="3155,-32 3012.25,-32 3012.25,0 3155,0 3155,-32"/>
<text text-anchor="start" x="3020.25" y="-18.5" font-family="Helvetica,sans-Serif" font-size="10.00">fr.softsf.sudokufx.navigation.</text>
<text text-anchor="middle" x="3083.62" y="-6.5" font-family="Helvetica,sans-Serif" font-size="10.00">Coordinator</text>
</a>
</g>
</g>
<!-- Node1&#45;&gt;Node22 -->
<g id="edge21_Node000001_Node000022" class="edge">
<title>Node1&#45;&gt;Node22</title>
<g id="a_edge21_Node000001_Node000022"><a xlink:title=" ">
<path fill="none" stroke="#63b8ff" d="M1589.58,-87.53C1850.67,-82.32 2702.59,-63.39 3000.92,-32.03"/>
<polygon fill="#63b8ff" stroke="#63b8ff" points="3001.08,-35.53 3010.65,-30.98 3000.33,-28.58 3001.08,-35.53"/>
</a>
</g>
</g>
<!-- Node23 -->
<g id="Node000023" class="node">
<title>Node23</title>
<g id="a_Node000023"><a xlink:title=" ">
<polygon fill="#e0e0e0" stroke="#999999" points="3342.12,-32 3173.12,-32 3173.12,0 3342.12,0 3342.12,-32"/>
<text text-anchor="start" x="3181.12" y="-18.5" font-family="Helvetica,sans-Serif" font-size="10.00">fr.softsf.sudokufx.view.component.</text>
<text text-anchor="middle" x="3257.62" y="-6.5" font-family="Helvetica,sans-Serif" font-size="10.00">MyAlert</text>
</a>
</g>
</g>
<!-- Node1&#45;&gt;Node23 -->
<g id="edge22_Node000001_Node000023" class="edge">
<title>Node1&#45;&gt;Node23</title>
<g id="a_edge22_Node000001_Node000023"><a xlink:title=" ">
<path fill="none" stroke="#63b8ff" d="M1589.42,-87.61C1868.6,-82.37 2830.17,-62.57 3161.58,-32.09"/>
<polygon fill="#63b8ff" stroke="#63b8ff" points="3161.5,-35.61 3171.12,-31.19 3160.84,-28.64 3161.5,-35.61"/>
</a>
</g>
</g>
</g>
</svg>

<g id="navigator" transform="translate(0 0)" fill="#404254">
  <rect fill="#f2f5e9" fill-opacity="0.5" stroke="#606060" stroke-width=".5" x="0" y="0" width="60" height="60"/>
  <use id="zoomplus" xlink:href="#zoomPlus" x="17" y="9" onmousedown="handleZoom(evt,'in')"/>
  <use id="zoomminus" xlink:href="#zoomMin" x="42" y="9" onmousedown="handleZoom(evt,'out')"/>
  <use id="reset" xlink:href="#resetDef" x="30" y="36" onmousedown="handleReset()"/>
   <use id="arrowup" xlink:href="#arrowUp" x="0" y="0" onmousedown="handlePan(0,-1)"/>
  <use id="arrowright" xlink:href="#arrowRight" x="0" y="0" onmousedown="handlePan(1,0)"/>
  <use id="arrowdown" xlink:href="#arrowDown" x="0" y="0" onmousedown="handlePan(0,1)"/>
  <use id="arrowleft" xlink:href="#arrowLeft" x="0" y="0" onmousedown="handlePan(-1,0)"/>
</g>
<svg viewBox="0 0 15 15" width="100%" height="30px" preserveAspectRatio="xMaxYMin meet">
 <g id="arrow_out" transform="scale(0.3 0.3)">
  <a xlink:href="_help_view_model_8java__incl_org.svg" target="_base">
   <rect id="button" ry="5" rx="5" y="6" x="6" height="38" width="38"
        fill="#f2f5e9" fill-opacity="0.5" stroke="#606060" stroke-width="1.0"/>
   <path id="arrow"
     d="M 11.500037,31.436501 C 11.940474,20.09759 22.043105,11.32322 32.158766,21.979434 L 37.068811,17.246167 C 37.068811,17.246167 37.088388,32 37.088388,32 L 22.160133,31.978069 C 22.160133,31.978069 26.997745,27.140456 26.997745,27.140456 C 18.528582,18.264221 13.291696,25.230495 11.500037,31.436501 z"
     style="fill:#404040;"/>
  </a>
 </g>
</svg>

<style type='text/css'>
<![CDATA[
[data-mouse-over-selected='false'] { opacity: 0.7; }
[data-mouse-over-selected='true']  { opacity: 1.0; }
]]>
</style>
<script type="application/ecmascript"><![CDATA[
document.addEventListener('DOMContentLoaded', (event) => {
  highlightEdges();
  highlightAdjacentNodes();
});
]]></script>
</svg>
