<?xml version="1.0" encoding="UTF-8" standalone="no"?>
<!DOCTYPE svg PUBLIC "-//W3C//DTD SVG 1.1//EN"
 "http://www.w3.org/Graphics/SVG/1.1/DTD/svg11.dtd">
<!-- Generated by graphviz version 12.2.1 (20241206.2353)
 -->
<!-- Title: src/main/java/fr/softsf/sudokufx/viewmodel/HelpViewModel.java Pages: 1 -->
<svg width="2193pt" height="120pt"
 viewBox="0.00 0.00 2193.00 120.00" xmlns="http://www.w3.org/2000/svg" xmlns:xlink="http://www.w3.org/1999/xlink">
<g id="graph0" class="graph" transform="scale(1 1) rotate(0) translate(4 116)">
<title>src/main/java/fr/softsf/sudokufx/viewmodel/HelpViewModel.java</title>
<!-- Node1 -->
<g id="Node000001" class="node">
<title>Node1</title>
<g id="a_Node000001"><a xlink:title=" ">
<polygon fill="#999999" stroke="#666666" points="1054.12,-112 900.88,-112 900.88,-68 1054.12,-68 1054.12,-112"/>
<text text-anchor="start" x="908.88" y="-98.5" font-family="Helvetica,sans-Serif" font-size="10.00">src/main/java/fr/softsf</text>
<text text-anchor="start" x="908.88" y="-86.5" font-family="Helvetica,sans-Serif" font-size="10.00">/sudokufx/viewmodel/HelpView</text>
<text text-anchor="middle" x="977.5" y="-74.5" font-family="Helvetica,sans-Serif" font-size="10.00">Model.java</text>
</a>
</g>
</g>
<!-- Node2 -->
<g id="Node000002" class="node">
<title>Node2</title>
<g id="a_Node000002"><a xlink:title=" ">
<polygon fill="#e0e0e0" stroke="#999999" points="127,-26 0,-26 0,-6 127,-6 127,-26"/>
<text text-anchor="middle" x="63.5" y="-12.5" font-family="Helvetica,sans-Serif" font-size="10.00">java.text.MessageFormat</text>
</a>
</g>
</g>
<!-- Node1&#45;&gt;Node2 -->
<g id="edge1_Node000001_Node000002" class="edge">
<title>Node1&#45;&gt;Node2</title>
<g id="a_edge1_Node000001_Node000002"><a xlink:title=" ">
<path fill="none" stroke="#63b8ff" d="M900.62,-87.26C752.25,-83.13 416.36,-70.06 136.5,-32 129.77,-31.08 122.72,-29.91 115.78,-28.63"/>
<polygon fill="#63b8ff" stroke="#63b8ff" points="116.61,-25.23 106.13,-26.75 115.28,-32.1 116.61,-25.23"/>
</a>
</g>
</g>
<!-- Node3 -->
<g id="Node000003" class="node">
<title>Node3</title>
<g id="a_Node000003"><a xlink:title=" ">
<polygon fill="#e0e0e0" stroke="#999999" points="223.62,-26 145.38,-26 145.38,-6 223.62,-6 223.62,-26"/>
<text text-anchor="middle" x="184.5" y="-12.5" font-family="Helvetica,sans-Serif" font-size="10.00">java.time.Year</text>
</a>
</g>
</g>
<!-- Node1&#45;&gt;Node3 -->
<g id="edge2_Node000001_Node000003" class="edge">
<title>Node1&#45;&gt;Node3</title>
<g id="a_edge2_Node000001_Node000003"><a xlink:title=" ">
<path fill="none" stroke="#63b8ff" d="M900.6,-88.83C764.6,-87.26 473.27,-78.21 232.5,-32 229.09,-31.35 225.59,-30.53 222.1,-29.63"/>
<polygon fill="#63b8ff" stroke="#63b8ff" points="223.17,-26.29 212.59,-26.91 221.25,-33.03 223.17,-26.29"/>
</a>
</g>
</g>
<!-- Node4 -->
<g id="Node000004" class="node">
<title>Node4</title>
<g id="a_Node000004"><a xlink:title=" ">
<polygon fill="#e0e0e0" stroke="#999999" points="327.75,-26 241.25,-26 241.25,-6 327.75,-6 327.75,-26"/>
<text text-anchor="middle" x="284.5" y="-12.5" font-family="Helvetica,sans-Serif" font-size="10.00">java.util.Objects</text>
</a>
</g>
</g>
<!-- Node1&#45;&gt;Node4 -->
<g id="edge3_Node000001_Node000004" class="edge">
<title>Node1&#45;&gt;Node4</title>
<g id="a_edge3_Node000001_Node000004"><a xlink:title=" ">
<path fill="none" stroke="#63b8ff" d="M900.38,-86.92C779.33,-82.58 537.75,-69.61 336.5,-32 332.64,-31.28 328.66,-30.39 324.69,-29.42"/>
<polygon fill="#63b8ff" stroke="#63b8ff" points="325.72,-26.07 315.15,-26.87 323.91,-32.83 325.72,-26.07"/>
</a>
</g>
</g>
<!-- Node5 -->
<g id="Node000005" class="node">
<title>Node5</title>
<g id="a_Node000005"><a xlink:title=" ">
<polygon fill="#e0e0e0" stroke="#999999" points="473,-26 346,-26 346,-6 473,-6 473,-26"/>
<text text-anchor="middle" x="409.5" y="-12.5" font-family="Helvetica,sans-Serif" font-size="10.00">javafx.scene.control.Alert</text>
</a>
</g>
</g>
<!-- Node1&#45;&gt;Node5 -->
<g id="edge4_Node000001_Node000005" class="edge">
<title>Node1&#45;&gt;Node5</title>
<g id="a_edge4_Node000001_Node000005"><a xlink:title=" ">
<path fill="none" stroke="#63b8ff" d="M900.73,-82.36C803,-73.41 629.11,-55.81 481.5,-32 475.43,-31.02 469.1,-29.88 462.82,-28.67"/>
<polygon fill="#63b8ff" stroke="#63b8ff" points="463.62,-25.26 453.13,-26.74 462.25,-32.13 463.62,-25.26"/>
</a>
</g>
</g>
<!-- Node6 -->
<g id="Node000006" class="node">
<title>Node6</title>
<g id="a_Node000006"><a xlink:title=" ">
<polygon fill="#e0e0e0" stroke="#999999" points="626.12,-26 490.88,-26 490.88,-6 626.12,-6 626.12,-26"/>
<text text-anchor="middle" x="558.5" y="-12.5" font-family="Helvetica,sans-Serif" font-size="10.00">javafx.scene.control.Button</text>
</a>
</g>
</g>
<!-- Node1&#45;&gt;Node6 -->
<g id="edge5_Node000001_Node000006" class="edge">
<title>Node1&#45;&gt;Node6</title>
<g id="a_edge5_Node000001_Node000006"><a xlink:title=" ">
<path fill="none" stroke="#63b8ff" d="M900.65,-76.81C831.27,-65.65 726.43,-48.43 635.5,-32 629.55,-30.93 623.35,-29.77 617.17,-28.6"/>
<polygon fill="#63b8ff" stroke="#63b8ff" points="618.07,-25.21 607.6,-26.77 616.76,-32.09 618.07,-25.21"/>
</a>
</g>
</g>
<!-- Node7 -->
<g id="Node000007" class="node">
<title>Node7</title>
<g id="a_Node000007"><a xlink:title=" ">
<polygon fill="#e0e0e0" stroke="#999999" points="794.62,-26 644.38,-26 644.38,-6 794.62,-6 794.62,-26"/>
<text text-anchor="middle" x="719.5" y="-12.5" font-family="Helvetica,sans-Serif" font-size="10.00">javafx.scene.control.ButtonBar</text>
</a>
</g>
</g>
<!-- Node1&#45;&gt;Node7 -->
<g id="edge6_Node000001_Node000007" class="edge">
<title>Node1&#45;&gt;Node7</title>
<g id="a_edge6_Node000001_Node000007"><a xlink:title=" ">
<path fill="none" stroke="#63b8ff" d="M900.79,-67.59C856.37,-55.2 801.99,-40.02 764.44,-29.54"/>
<polygon fill="#63b8ff" stroke="#63b8ff" points="765.39,-26.17 754.81,-26.85 763.5,-32.91 765.39,-26.17"/>
</a>
</g>
</g>
<!-- Node8 -->
<g id="Node000008" class="node">
<title>Node8</title>
<g id="a_Node000008"><a xlink:title=" ">
<polygon fill="#e0e0e0" stroke="#999999" points="968.62,-26 812.38,-26 812.38,-6 968.62,-6 968.62,-26"/>
<text text-anchor="middle" x="890.5" y="-12.5" font-family="Helvetica,sans-Serif" font-size="10.00">javafx.scene.control.ButtonType</text>
</a>
</g>
</g>
<!-- Node1&#45;&gt;Node8 -->
<g id="edge7_Node000001_Node000008" class="edge">
<title>Node1&#45;&gt;Node8</title>
<g id="a_edge7_Node000001_Node000008"><a xlink:title=" ">
<path fill="none" stroke="#63b8ff" d="M951.87,-67.79C938.61,-56.81 922.67,-43.62 910.35,-33.43"/>
<polygon fill="#63b8ff" stroke="#63b8ff" points="912.85,-30.96 902.92,-27.28 908.39,-36.35 912.85,-30.96"/>
</a>
</g>
</g>
<!-- Node9 -->
<g id="Node000009" class="node">
<title>Node9</title>
<g id="a_Node000009"><a xlink:title=" ">
<polygon fill="#e0e0e0" stroke="#999999" points="1142.62,-32 986.38,-32 986.38,0 1142.62,0 1142.62,-32"/>
<text text-anchor="start" x="994.38" y="-18.5" font-family="Helvetica,sans-Serif" font-size="10.00">org.springframework.stereotype.</text>
<text text-anchor="middle" x="1064.5" y="-6.5" font-family="Helvetica,sans-Serif" font-size="10.00">Component</text>
</a>
</g>
</g>
<!-- Node1&#45;&gt;Node9 -->
<g id="edge8_Node000001_Node000009" class="edge">
<title>Node1&#45;&gt;Node9</title>
<g id="a_edge8_Node000001_Node000009"><a xlink:title=" ">
<path fill="none" stroke="#63b8ff" d="M1003.13,-67.79C1013.86,-58.91 1026.35,-48.58 1037.24,-39.56"/>
<polygon fill="#63b8ff" stroke="#63b8ff" points="1039.31,-42.39 1044.78,-33.32 1034.85,-37 1039.31,-42.39"/>
</a>
</g>
</g>
<!-- Node10 -->
<g id="Node000010" class="node">
<title>Node10</title>
<g id="a_Node000010"><a xlink:title=" ">
<polygon fill="#e0e0e0" stroke="#999999" points="1348,-26 1161,-26 1161,-6 1348,-6 1348,-26"/>
<text text-anchor="middle" x="1254.5" y="-12.5" font-family="Helvetica,sans-Serif" font-size="10.00">fr.softsf.sudokufx.common.enums.I18n</text>
</a>
</g>
</g>
<!-- Node1&#45;&gt;Node10 -->
<g id="edge9_Node000001_Node000010" class="edge">
<title>Node1&#45;&gt;Node10</title>
<g id="a_edge9_Node000001_Node000010"><a xlink:title=" ">
<path fill="none" stroke="#63b8ff" d="M1054.29,-69.04C1103.28,-56.31 1165.21,-40.21 1207.12,-29.31"/>
<polygon fill="#63b8ff" stroke="#63b8ff" points="1207.86,-32.74 1216.66,-26.84 1206.1,-25.96 1207.86,-32.74"/>
</a>
</g>
</g>
<!-- Node11 -->
<g id="Node000011" class="node">
<title>Node11</title>
<g id="a_Node000011"><a xlink:title=" ">
<polygon fill="#e0e0e0" stroke="#999999" points="1534.62,-32 1366.38,-32 1366.38,0 1534.62,0 1534.62,-32"/>
<text text-anchor="start" x="1374.38" y="-18.5" font-family="Helvetica,sans-Serif" font-size="10.00">fr.softsf.sudokufx.common.enums.</text>
<text text-anchor="middle" x="1450.5" y="-6.5" font-family="Helvetica,sans-Serif" font-size="10.00">ScreenSize</text>
</a>
</g>
</g>
<!-- Node1&#45;&gt;Node11 -->
<g id="edge10_Node000001_Node000011" class="edge">
<title>Node1&#45;&gt;Node11</title>
<g id="a_edge10_Node000001_Node000011"><a xlink:title=" ">
<path fill="none" stroke="#63b8ff" d="M1054.32,-77.73C1128.56,-66.78 1244.51,-49.53 1355,-32.38"/>
<polygon fill="#63b8ff" stroke="#63b8ff" points="1355.52,-35.84 1364.86,-30.85 1354.44,-28.92 1355.52,-35.84"/>
</a>
</g>
</g>
<!-- Node12 -->
<g id="Node000012" class="node">
<title>Node12</title>
<g id="a_Node000012"><a xlink:title=" ">
<polygon fill="#e0e0e0" stroke="#999999" points="1680.75,-32 1552.25,-32 1552.25,0 1680.75,0 1680.75,-32"/>
<text text-anchor="start" x="1560.25" y="-18.5" font-family="Helvetica,sans-Serif" font-size="10.00">fr.softsf.sudokufx.config.</text>
<text text-anchor="middle" x="1616.5" y="-6.5" font-family="Helvetica,sans-Serif" font-size="10.00">JVMApplicationProperties</text>
</a>
</g>
</g>
<!-- Node1&#45;&gt;Node12 -->
<g id="edge11_Node000001_Node000012" class="edge">
<title>Node1&#45;&gt;Node12</title>
<g id="a_edge11_Node000001_Node000012"><a xlink:title=" ">
<path fill="none" stroke="#63b8ff" d="M1054.26,-83.77C1161.15,-75.94 1361.06,-59.27 1540.81,-32.32"/>
<polygon fill="#63b8ff" stroke="#63b8ff" points="1541.22,-35.8 1550.58,-30.84 1540.17,-28.87 1541.22,-35.8"/>
</a>
</g>
</g>
<!-- Node13 -->
<g id="Node000013" class="node">
<title>Node13</title>
<g id="a_Node000013"><a xlink:title=" ">
<polygon fill="#e0e0e0" stroke="#999999" points="1836.62,-32 1698.38,-32 1698.38,0 1836.62,0 1836.62,-32"/>
<text text-anchor="start" x="1706.38" y="-18.5" font-family="Helvetica,sans-Serif" font-size="10.00">fr.softsf.sudokufx.config.os.</text>
<text text-anchor="middle" x="1767.5" y="-6.5" font-family="Helvetica,sans-Serif" font-size="10.00">IOsFolder</text>
</a>
</g>
</g>
<!-- Node1&#45;&gt;Node13 -->
<g id="edge12_Node000001_Node000013" class="edge">
<title>Node1&#45;&gt;Node13</title>
<g id="a_edge12_Node000001_Node000013"><a xlink:title=" ">
<path fill="none" stroke="#63b8ff" d="M1054.45,-85.62C1183.31,-79.35 1451.03,-63.72 1687.03,-32.24"/>
<polygon fill="#63b8ff" stroke="#63b8ff" points="1687.3,-35.74 1696.74,-30.93 1686.36,-28.8 1687.3,-35.74"/>
</a>
</g>
</g>
<!-- Node14 -->
<g id="Node000014" class="node">
<title>Node14</title>
<g id="a_Node000014"><a xlink:title=" ">
<polygon fill="#e0e0e0" stroke="#999999" points="1997.88,-32 1855.12,-32 1855.12,0 1997.88,0 1997.88,-32"/>
<text text-anchor="start" x="1863.12" y="-18.5" font-family="Helvetica,sans-Serif" font-size="10.00">fr.softsf.sudokufx.navigation.</text>
<text text-anchor="middle" x="1926.5" y="-6.5" font-family="Helvetica,sans-Serif" font-size="10.00">Coordinator</text>
</a>
</g>
</g>
<!-- Node1&#45;&gt;Node14 -->
<g id="edge13_Node000001_Node000014" class="edge">
<title>Node1&#45;&gt;Node14</title>
<g id="a_edge13_Node000001_Node000014"><a xlink:title=" ">
<path fill="none" stroke="#63b8ff" d="M1054.42,-86.98C1204.36,-82.39 1546.3,-68.68 1844,-32.08"/>
<polygon fill="#63b8ff" stroke="#63b8ff" points="1844.02,-35.6 1853.52,-30.9 1843.16,-28.65 1844.02,-35.6"/>
</a>
</g>
</g>
<!-- Node15 -->
<g id="Node000015" class="node">
<title>Node15</title>
<g id="a_Node000015"><a xlink:title=" ">
<polygon fill="#e0e0e0" stroke="#999999" points="2185,-32 2016,-32 2016,0 2185,0 2185,-32"/>
<text text-anchor="start" x="2024" y="-18.5" font-family="Helvetica,sans-Serif" font-size="10.00">fr.softsf.sudokufx.view.component.</text>
<text text-anchor="middle" x="2100.5" y="-6.5" font-family="Helvetica,sans-Serif" font-size="10.00">MyAlert</text>
</a>
</g>
</g>
<!-- Node1&#45;&gt;Node15 -->
<g id="edge14_Node000001_Node000015" class="edge">
<title>Node1&#45;&gt;Node15</title>
<g id="a_edge14_Node000001_Node000015"><a xlink:title=" ">
<path fill="none" stroke="#63b8ff" d="M1054.52,-87.44C1224.24,-83.42 1643.32,-70.27 2004.54,-32.13"/>
<polygon fill="#63b8ff" stroke="#63b8ff" points="2004.67,-35.63 2014.25,-31.1 2003.93,-28.67 2004.67,-35.63"/>
</a>
</g>
</g>
</g>
</svg>
