<?xml version="1.0" encoding="UTF-8" standalone="no"?>
<!DOCTYPE svg PUBLIC "-//W3C//DTD SVG 1.1//EN"
 "http://www.w3.org/Graphics/SVG/1.1/DTD/svg11.dtd">
<!-- Generated by graphviz version 12.2.1 (20241206.2353)
 -->
<!-- Title: src/main/java/fr/softsf/sudokufx/configuration/HttpClientConfig.java Pages: 1 -->
<svg width="1372pt" height="120pt"
 viewBox="0.00 0.00 1372.25 120.00" xmlns="http://www.w3.org/2000/svg" xmlns:xlink="http://www.w3.org/1999/xlink">
<g id="graph0" class="graph" transform="scale(1 1) rotate(0) translate(4 116)">
<title>src/main/java/fr/softsf/sudokufx/configuration/HttpClientConfig.java</title>
<!-- Node1 -->
<g id="Node000001" class="node">
<title>Node1</title>
<g id="a_Node000001"><a xlink:title=" ">
<polygon fill="#999999" stroke="#666666" points="640.25,-112 523,-112 523,-68 640.25,-68 640.25,-112"/>
<text text-anchor="start" x="531" y="-98.5" font-family="Helvetica,sans-Serif" font-size="10.00">src/main/java/fr/softsf</text>
<text text-anchor="start" x="531" y="-86.5" font-family="Helvetica,sans-Serif" font-size="10.00">/sudokufx/configuration</text>
<text text-anchor="middle" x="581.62" y="-74.5" font-family="Helvetica,sans-Serif" font-size="10.00">/HttpClientConfig.java</text>
</a>
</g>
</g>
<!-- Node2 -->
<g id="Node000002" class="node">
<title>Node2</title>
<g id="a_Node000002"><a xlink:title=" ">
<polygon fill="#e0e0e0" stroke="#999999" points="117.25,-26 0,-26 0,-6 117.25,-6 117.25,-26"/>
<text text-anchor="middle" x="58.62" y="-12.5" font-family="Helvetica,sans-Serif" font-size="10.00">java.net.http.HttpClient</text>
</a>
</g>
</g>
<!-- Node1&#45;&gt;Node2 -->
<g id="edge1_Node000001_Node000002" class="edge">
<title>Node1&#45;&gt;Node2</title>
<g id="a_edge1_Node000001_Node000002"><a xlink:title=" ">
<path fill="none" stroke="#63b8ff" d="M522.69,-83.46C435.54,-74.85 267.3,-56.66 125.62,-32 120.11,-31.04 114.37,-29.93 108.67,-28.75"/>
<polygon fill="#63b8ff" stroke="#63b8ff" points="109.81,-25.42 99.3,-26.75 108.35,-32.27 109.81,-25.42"/>
</a>
</g>
</g>
<!-- Node3 -->
<g id="Node000003" class="node">
<title>Node3</title>
<g id="a_Node000003"><a xlink:title=" ">
<polygon fill="#e0e0e0" stroke="#999999" points="282.25,-32 135,-32 135,0 282.25,0 282.25,-32"/>
<text text-anchor="start" x="143" y="-18.5" font-family="Helvetica,sans-Serif" font-size="10.00">java.security.KeyManagement</text>
<text text-anchor="middle" x="208.62" y="-6.5" font-family="Helvetica,sans-Serif" font-size="10.00">Exception</text>
</a>
</g>
</g>
<!-- Node1&#45;&gt;Node3 -->
<g id="edge2_Node000001_Node000003" class="edge">
<title>Node1&#45;&gt;Node3</title>
<g id="a_edge2_Node000001_Node000003"><a xlink:title=" ">
<path fill="none" stroke="#63b8ff" d="M522.52,-77.59C460.81,-65.68 363.44,-46.88 293.51,-33.39"/>
<polygon fill="#63b8ff" stroke="#63b8ff" points="294.5,-30.01 284.02,-31.55 293.18,-36.89 294.5,-30.01"/>
</a>
</g>
</g>
<!-- Node4 -->
<g id="Node000004" class="node">
<title>Node4</title>
<g id="a_Node000004"><a xlink:title=" ">
<polygon fill="#e0e0e0" stroke="#999999" points="450.75,-32 300.5,-32 300.5,0 450.75,0 450.75,-32"/>
<text text-anchor="start" x="308.5" y="-18.5" font-family="Helvetica,sans-Serif" font-size="10.00">java.security.NoSuchAlgorithm</text>
<text text-anchor="middle" x="375.62" y="-6.5" font-family="Helvetica,sans-Serif" font-size="10.00">Exception</text>
</a>
</g>
</g>
<!-- Node1&#45;&gt;Node4 -->
<g id="edge3_Node000001_Node000004" class="edge">
<title>Node1&#45;&gt;Node4</title>
<g id="a_edge3_Node000001_Node000004"><a xlink:title=" ">
<path fill="none" stroke="#63b8ff" d="M522.59,-68.37C493.6,-58.23 458.89,-46.1 430.48,-36.17"/>
<polygon fill="#63b8ff" stroke="#63b8ff" points="431.95,-32.98 421.36,-32.98 429.64,-39.59 431.95,-32.98"/>
</a>
</g>
</g>
<!-- Node5 -->
<g id="Node000005" class="node">
<title>Node5</title>
<g id="a_Node000005"><a xlink:title=" ">
<polygon fill="#e0e0e0" stroke="#999999" points="564.38,-26 468.88,-26 468.88,-6 564.38,-6 564.38,-26"/>
<text text-anchor="middle" x="516.62" y="-12.5" font-family="Helvetica,sans-Serif" font-size="10.00">java.time.Duration</text>
</a>
</g>
</g>
<!-- Node1&#45;&gt;Node5 -->
<g id="edge4_Node000001_Node000005" class="edge">
<title>Node1&#45;&gt;Node5</title>
<g id="a_edge4_Node000001_Node000005"><a xlink:title=" ">
<path fill="none" stroke="#63b8ff" d="M562.47,-67.79C552.96,-57.24 541.59,-44.65 532.55,-34.64"/>
<polygon fill="#63b8ff" stroke="#63b8ff" points="535.34,-32.51 526.05,-27.43 530.15,-37.2 535.34,-32.51"/>
</a>
</g>
</g>
<!-- Node6 -->
<g id="Node000006" class="node">
<title>Node6</title>
<g id="a_Node000006"><a xlink:title=" ">
<polygon fill="#e0e0e0" stroke="#999999" points="710.5,-26 582.75,-26 582.75,-6 710.5,-6 710.5,-26"/>
<text text-anchor="middle" x="646.62" y="-12.5" font-family="Helvetica,sans-Serif" font-size="10.00">javax.net.ssl.SSLContext</text>
</a>
</g>
</g>
<!-- Node1&#45;&gt;Node6 -->
<g id="edge5_Node000001_Node000006" class="edge">
<title>Node1&#45;&gt;Node6</title>
<g id="a_edge5_Node000001_Node000006"><a xlink:title=" ">
<path fill="none" stroke="#63b8ff" d="M600.78,-67.79C610.29,-57.24 621.66,-44.65 630.7,-34.64"/>
<polygon fill="#63b8ff" stroke="#63b8ff" points="633.1,-37.2 637.2,-27.43 627.91,-32.51 633.1,-37.2"/>
</a>
</g>
</g>
<!-- Node7 -->
<g id="Node000007" class="node">
<title>Node7</title>
<g id="a_Node000007"><a xlink:title=" ">
<polygon fill="#e0e0e0" stroke="#999999" points="942.25,-26 729,-26 729,-6 942.25,-6 942.25,-26"/>
<text text-anchor="middle" x="835.62" y="-12.5" font-family="Helvetica,sans-Serif" font-size="10.00">org.springframework.context.annotation.Bean</text>
</a>
</g>
</g>
<!-- Node1&#45;&gt;Node7 -->
<g id="edge6_Node000001_Node000007" class="edge">
<title>Node1&#45;&gt;Node7</title>
<g id="a_edge6_Node000001_Node000007"><a xlink:title=" ">
<path fill="none" stroke="#63b8ff" d="M640.54,-72.3C686.58,-59.25 749.58,-41.39 791.39,-29.54"/>
<polygon fill="#63b8ff" stroke="#63b8ff" points="792.2,-32.95 800.86,-26.85 790.29,-26.21 792.2,-32.95"/>
</a>
</g>
</g>
<!-- Node8 -->
<g id="Node000008" class="node">
<title>Node8</title>
<g id="a_Node000008"><a xlink:title=" ">
<polygon fill="#e0e0e0" stroke="#999999" points="1151,-32 960.25,-32 960.25,0 1151,0 1151,-32"/>
<text text-anchor="start" x="968.25" y="-18.5" font-family="Helvetica,sans-Serif" font-size="10.00">org.springframework.context.annotation.</text>
<text text-anchor="middle" x="1055.62" y="-6.5" font-family="Helvetica,sans-Serif" font-size="10.00">Configuration</text>
</a>
</g>
</g>
<!-- Node1&#45;&gt;Node8 -->
<g id="edge7_Node000001_Node000008" class="edge">
<title>Node1&#45;&gt;Node8</title>
<g id="a_edge7_Node000001_Node000008"><a xlink:title=" ">
<path fill="none" stroke="#63b8ff" d="M640.7,-80.03C717.69,-68.33 853.7,-47.67 948.96,-33.2"/>
<polygon fill="#63b8ff" stroke="#63b8ff" points="949.22,-36.7 958.58,-31.74 948.16,-29.78 949.22,-36.7"/>
</a>
</g>
</g>
<!-- Node9 -->
<g id="Node000009" class="node">
<title>Node9</title>
<g id="a_Node000009"><a xlink:title=" ">
<polygon fill="#e0e0e0" stroke="#999999" points="1364.25,-32 1169,-32 1169,0 1364.25,0 1364.25,-32"/>
<text text-anchor="start" x="1177" y="-18.5" font-family="Helvetica,sans-Serif" font-size="10.00">fr.softsf.sudokufx.annotations.</text>
<text text-anchor="middle" x="1266.62" y="-6.5" font-family="Helvetica,sans-Serif" font-size="10.00">ExcludedFromCoverageReportGenerated</text>
</a>
</g>
</g>
<!-- Node1&#45;&gt;Node9 -->
<g id="edge8_Node000001_Node000009" class="edge">
<title>Node1&#45;&gt;Node9</title>
<g id="a_edge8_Node000001_Node000009"><a xlink:title=" ">
<path fill="none" stroke="#63b8ff" d="M640.37,-84.01C742.94,-75.12 961.61,-55.39 1157.31,-32.25"/>
<polygon fill="#63b8ff" stroke="#63b8ff" points="1157.66,-35.73 1167.18,-31.07 1156.84,-28.78 1157.66,-35.73"/>
</a>
</g>
</g>
</g>
</svg>
