<?xml version="1.0" encoding="UTF-8" standalone="no"?>
<!DOCTYPE svg PUBLIC "-//W3C//DTD SVG 1.1//EN"
 "http://www.w3.org/Graphics/SVG/1.1/DTD/svg11.dtd">
<!-- Generated by graphviz version 12.2.1 (20241206.2353)
 -->
<!-- Title: src/main/java/fr/softsf/sudokufx/enums/I18n.java Pages: 1 -->
<svg width="614pt" height="108pt"
 viewBox="0.00 0.00 613.75 108.00" xmlns="http://www.w3.org/2000/svg" xmlns:xlink="http://www.w3.org/1999/xlink">
<g id="graph0" class="graph" transform="scale(1 1) rotate(0) translate(4 104)">
<title>src/main/java/fr/softsf/sudokufx/enums/I18n.java</title>
<!-- Node1 -->
<g id="Node000001" class="node">
<title>Node1</title>
<g id="a_Node000001"><a xlink:title=" ">
<polygon fill="#999999" stroke="#666666" points="342.25,-100 208.5,-100 208.5,-68 342.25,-68 342.25,-100"/>
<text text-anchor="start" x="216.5" y="-86.5" font-family="Helvetica,sans-Serif" font-size="10.00">src/main/java/fr/softsf</text>
<text text-anchor="middle" x="275.38" y="-74.5" font-family="Helvetica,sans-Serif" font-size="10.00">/sudokufx/enums/I18n.java</text>
</a>
</g>
</g>
<!-- Node2 -->
<g id="Node000002" class="node">
<title>Node2</title>
<g id="a_Node000002"><a xlink:title=" ">
<polygon fill="#e0e0e0" stroke="#999999" points="82.75,-26 0,-26 0,-6 82.75,-6 82.75,-26"/>
<text text-anchor="middle" x="41.38" y="-12.5" font-family="Helvetica,sans-Serif" font-size="10.00">org.slf4j.Logger</text>
</a>
</g>
</g>
<!-- Node1&#45;&gt;Node2 -->
<g id="edge1_Node000001_Node000002" class="edge">
<title>Node1&#45;&gt;Node2</title>
<g id="a_edge1_Node000001_Node000002"><a xlink:title=" ">
<path fill="none" stroke="#63b8ff" d="M218.51,-67.57C182.11,-57.61 133.89,-44.27 91.38,-32 88.8,-31.26 86.16,-30.49 83.5,-29.71"/>
<polygon fill="#63b8ff" stroke="#63b8ff" points="84.58,-26.38 74,-26.89 82.6,-33.09 84.58,-26.38"/>
</a>
</g>
</g>
<!-- Node3 -->
<g id="Node000003" class="node">
<title>Node3</title>
<g id="a_Node000003"><a xlink:title=" ">
<polygon fill="#e0e0e0" stroke="#999999" points="216.25,-26 100.5,-26 100.5,-6 216.25,-6 216.25,-26"/>
<text text-anchor="middle" x="158.38" y="-12.5" font-family="Helvetica,sans-Serif" font-size="10.00">org.slf4j.LoggerFactory</text>
</a>
</g>
</g>
<!-- Node1&#45;&gt;Node3 -->
<g id="edge2_Node000001_Node000003" class="edge">
<title>Node1&#45;&gt;Node3</title>
<g id="a_edge2_Node000001_Node000003"><a xlink:title=" ">
<path fill="none" stroke="#63b8ff" d="M247.94,-67.53C229,-56.84 203.93,-42.7 185.13,-32.09"/>
<polygon fill="#63b8ff" stroke="#63b8ff" points="186.89,-29.07 176.46,-27.2 183.45,-35.17 186.89,-29.07"/>
</a>
</g>
</g>
<!-- Node4 -->
<g id="Node000004" class="node">
<title>Node4</title>
<g id="a_Node000004"><a xlink:title=" ">
<polygon fill="#e0e0e0" stroke="#999999" points="316,-26 234.75,-26 234.75,-6 316,-6 316,-26"/>
<text text-anchor="middle" x="275.38" y="-12.5" font-family="Helvetica,sans-Serif" font-size="10.00">java.util.Locale</text>
</a>
</g>
</g>
<!-- Node1&#45;&gt;Node4 -->
<g id="edge3_Node000001_Node000004" class="edge">
<title>Node1&#45;&gt;Node4</title>
<g id="a_edge3_Node000001_Node000004"><a xlink:title=" ">
<path fill="none" stroke="#63b8ff" d="M275.38,-67.69C275.38,-58.8 275.38,-47.46 275.38,-37.77"/>
<polygon fill="#63b8ff" stroke="#63b8ff" points="278.88,-37.83 275.38,-27.83 271.88,-37.83 278.88,-37.83"/>
</a>
</g>
</g>
<!-- Node5 -->
<g id="Node000005" class="node">
<title>Node5</title>
<g id="a_Node000005"><a xlink:title=" ">
<polygon fill="#e0e0e0" stroke="#999999" points="462.62,-32 334.12,-32 334.12,0 462.62,0 462.62,-32"/>
<text text-anchor="start" x="342.12" y="-18.5" font-family="Helvetica,sans-Serif" font-size="10.00">java.util.MissingResource</text>
<text text-anchor="middle" x="398.38" y="-6.5" font-family="Helvetica,sans-Serif" font-size="10.00">Exception</text>
</a>
</g>
</g>
<!-- Node1&#45;&gt;Node5 -->
<g id="edge4_Node000001_Node000005" class="edge">
<title>Node1&#45;&gt;Node5</title>
<g id="a_edge4_Node000001_Node000005"><a xlink:title=" ">
<path fill="none" stroke="#63b8ff" d="M304.21,-67.53C320.79,-58.63 341.83,-47.34 359.81,-37.69"/>
<polygon fill="#63b8ff" stroke="#63b8ff" points="361.23,-40.91 368.38,-33.09 357.92,-34.74 361.23,-40.91"/>
</a>
</g>
</g>
<!-- Node6 -->
<g id="Node000006" class="node">
<title>Node6</title>
<g id="a_Node000006"><a xlink:title=" ">
<polygon fill="#e0e0e0" stroke="#999999" points="605.75,-26 481,-26 481,-6 605.75,-6 605.75,-26"/>
<text text-anchor="middle" x="543.38" y="-12.5" font-family="Helvetica,sans-Serif" font-size="10.00">java.util.ResourceBundle</text>
</a>
</g>
</g>
<!-- Node1&#45;&gt;Node6 -->
<g id="edge5_Node000001_Node000006" class="edge">
<title>Node1&#45;&gt;Node6</title>
<g id="a_edge5_Node000001_Node000006"><a xlink:title=" ">
<path fill="none" stroke="#63b8ff" d="M338.21,-67.53C385.75,-55.82 450.11,-39.97 493.99,-29.16"/>
<polygon fill="#63b8ff" stroke="#63b8ff" points="494.62,-32.61 503.49,-26.82 492.95,-25.81 494.62,-32.61"/>
</a>
</g>
</g>
</g>
</svg>
