<?xml version="1.0" encoding="UTF-8" standalone="no"?>
<!DOCTYPE svg PUBLIC "-//W3C//DTD SVG 1.1//EN"
 "http://www.w3.org/Graphics/SVG/1.1/DTD/svg11.dtd">
<!-- Generated by graphviz version 12.2.1 (20241206.2353)
 -->
<!-- Title: src/main/java/fr/softsf/sudokufx/common/enums/I18n.java Pages: 1 -->
<!--zoomable 120 -->

<svg id="main" version="1.1" xmlns="http://www.w3.org/2000/svg" xmlns:xlink="http://www.w3.org/1999/xlink" xml:space="preserve" onload="init(evt)">

<style type="text/css"><![CDATA[
.node, .edge {opacity: 0.7;}
.node.selected, .edge.selected {opacity: 1;}
.edge:hover path { stroke: red; }
.edge:hover polygon { stroke: red; fill: red; }
]]></style>

<defs>
  <circle id="rim" cx="0" cy="0" r="7"/>
  <circle id="rim2" cx="0" cy="0" r="3.5"/>
  <g id="zoomPlus">
    <use xlink:href="#rim" fill="#404040"><set attributeName="fill" to="#808080" begin="zoomplus.mouseover" end="zoomplus.mouseout"/></use>
    <path d="M-4,0h8M0,-4v8" fill="none" stroke="white" stroke-width="1.5" pointer-events="none"/>
  </g>
  <g id="zoomMin">
    <use xlink:href="#rim" fill="#404040"><set attributeName="fill" to="#808080" begin="zoomminus.mouseover" end="zoomminus.mouseout"/></use>
    <path d="M-4,0h8" fill="none" stroke="white" stroke-width="1.5" pointer-events="none"/>
  </g>
  <g id="arrowUp" transform="translate(30 24)">
    <use xlink:href="#rim"/>
    <path pointer-events="none" fill="none" stroke="white" stroke-width="1.5" d="M0,-3.0v7 M-2.5,-0.5L0,-3.0L2.5,-0.5"/>
  </g>
  <g id="arrowRight" transform="rotate(90) translate(36 -43)">
    <use xlink:href="#rim"/>
    <path pointer-events="none" fill="none" stroke="white" stroke-width="1.5" d="M0,-3.0v7 M-2.5,-0.5L0,-3.0L2.5,-0.5"/>
  </g>
  <g id="arrowDown" transform="rotate(180) translate(-30 -48)">
    <use xlink:href="#rim"/>
    <path pointer-events="none" fill="none" stroke="white" stroke-width="1.5" d="M0,-3.0v7 M-2.5,-0.5L0,-3.0L2.5,-0.5"/>
  </g>
  <g id="arrowLeft" transform="rotate(270) translate(-36 17)">
    <use xlink:href="#rim"/>
    <path pointer-events="none" fill="none" stroke="white" stroke-width="1.5" d="M0,-3.0v7 M-2.5,-0.5L0,-3.0L2.5,-0.5"/>
  </g>
  <g id="resetDef">
    <use xlink:href="#rim2" fill="#404040"><set attributeName="fill" to="#808080" begin="reset.mouseover" end="reset.mouseout"/></use>
  </g>
</defs>
<script type="application/ecmascript">
var viewWidth = 1077;
var viewHeight = 120;
var sectionId = 'dynsection-0';
</script>
<script type="application/ecmascript" xlink:href="svg.min.js"/>
<svg id="graph" class="graph">
<g id="viewport">
<title>src/main/java/fr/softsf/sudokufx/common/enums/I18n.java</title>
<!-- Node1 -->
<g id="Node000001" class="node">
<title>Node1</title>
<g id="a_Node000001"><a xlink:title=" ">
<polygon fill="#999999" stroke="#666666" points="598.38,-112 466.88,-112 466.88,-68 598.38,-68 598.38,-112"/>
<text text-anchor="start" x="474.88" y="-98.5" font-family="Helvetica,sans-Serif" font-size="10.00">src/main/java/fr/softsf</text>
<text text-anchor="start" x="474.88" y="-86.5" font-family="Helvetica,sans-Serif" font-size="10.00">/sudokufx/common/enums</text>
<text text-anchor="middle" x="532.62" y="-74.5" font-family="Helvetica,sans-Serif" font-size="10.00">/I18n.java</text>
</a>
</g>
</g>
<!-- Node2 -->
<g id="Node000002" class="node">
<title>Node2</title>
<g id="a_Node000002"><a xlink:title=" ">
<polygon fill="#e0e0e0" stroke="#999999" points="81.25,-26 0,-26 0,-6 81.25,-6 81.25,-26"/>
<text text-anchor="middle" x="40.62" y="-12.5" font-family="Helvetica,sans-Serif" font-size="10.00">java.util.Locale</text>
</a>
</g>
</g>
<!-- Node1&#45;&gt;Node2 -->
<g id="edge1_Node000001_Node000002" class="edge">
<title>Node1&#45;&gt;Node2</title>
<g id="a_edge1_Node000001_Node000002"><a xlink:title=" ">
<path fill="none" stroke="#63b8ff" d="M466.53,-83.87C379.62,-76.35 222.49,-60.09 90.62,-32 87.23,-31.28 83.74,-30.44 80.25,-29.53"/>
<polygon fill="#63b8ff" stroke="#63b8ff" points="81.27,-26.18 70.69,-26.86 79.39,-32.92 81.27,-26.18"/>
</a>
</g>
</g>
<!-- Node3 -->
<g id="Node000003" class="node">
<title>Node3</title>
<g id="a_Node000003"><a xlink:title=" ">
<polygon fill="#e0e0e0" stroke="#999999" points="227.88,-32 99.38,-32 99.38,0 227.88,0 227.88,-32"/>
<text text-anchor="start" x="107.38" y="-18.5" font-family="Helvetica,sans-Serif" font-size="10.00">java.util.MissingResource</text>
<text text-anchor="middle" x="163.62" y="-6.5" font-family="Helvetica,sans-Serif" font-size="10.00">Exception</text>
</a>
</g>
</g>
<!-- Node1&#45;&gt;Node3 -->
<g id="edge2_Node000001_Node000003" class="edge">
<title>Node1&#45;&gt;Node3</title>
<g id="a_edge2_Node000001_Node000003"><a xlink:title=" ">
<path fill="none" stroke="#63b8ff" d="M466.39,-76.38C409.1,-65.42 323.71,-49 239.29,-32.32"/>
<polygon fill="#63b8ff" stroke="#63b8ff" points="240.17,-28.92 229.68,-30.42 238.81,-35.79 240.17,-28.92"/>
</a>
</g>
</g>
<!-- Node4 -->
<g id="Node000004" class="node">
<title>Node4</title>
<g id="a_Node000004"><a xlink:title=" ">
<polygon fill="#e0e0e0" stroke="#999999" points="371,-26 246.25,-26 246.25,-6 371,-6 371,-26"/>
<text text-anchor="middle" x="308.62" y="-12.5" font-family="Helvetica,sans-Serif" font-size="10.00">java.util.ResourceBundle</text>
</a>
</g>
</g>
<!-- Node1&#45;&gt;Node4 -->
<g id="edge3_Node000001_Node000004" class="edge">
<title>Node1&#45;&gt;Node4</title>
<g id="a_edge3_Node000001_Node000004"><a xlink:title=" ">
<path fill="none" stroke="#63b8ff" d="M466.63,-67.79C428.42,-55.5 381.56,-40.44 348.84,-29.92"/>
<polygon fill="#63b8ff" stroke="#63b8ff" points="349.92,-26.6 339.33,-26.87 347.78,-33.26 349.92,-26.6"/>
</a>
</g>
</g>
<!-- Node5 -->
<g id="Node000005" class="node">
<title>Node5</title>
<g id="a_Node000005"><a xlink:title=" ">
<polygon fill="#e0e0e0" stroke="#999999" points="524.25,-32 389,-32 389,0 524.25,0 524.25,-32"/>
<text text-anchor="start" x="397" y="-18.5" font-family="Helvetica,sans-Serif" font-size="10.00">javafx.beans.property.Read</text>
<text text-anchor="middle" x="456.62" y="-6.5" font-family="Helvetica,sans-Serif" font-size="10.00">OnlyObjectProperty</text>
</a>
</g>
</g>
<!-- Node1&#45;&gt;Node5 -->
<g id="edge4_Node000001_Node000005" class="edge">
<title>Node1&#45;&gt;Node5</title>
<g id="a_edge4_Node000001_Node000005"><a xlink:title=" ">
<path fill="none" stroke="#63b8ff" d="M510.23,-67.79C500.98,-59.02 490.23,-48.84 480.8,-39.91"/>
<polygon fill="#63b8ff" stroke="#63b8ff" points="483.36,-37.5 473.69,-33.17 478.54,-42.59 483.36,-37.5"/>
</a>
</g>
</g>
<!-- Node6 -->
<g id="Node000006" class="node">
<title>Node6</title>
<g id="a_Node000006"><a xlink:title=" ">
<polygon fill="#e0e0e0" stroke="#999999" points="677.25,-32 542,-32 542,0 677.25,0 677.25,-32"/>
<text text-anchor="start" x="550" y="-18.5" font-family="Helvetica,sans-Serif" font-size="10.00">javafx.beans.property.Read</text>
<text text-anchor="middle" x="609.62" y="-6.5" font-family="Helvetica,sans-Serif" font-size="10.00">OnlyObjectWrapper</text>
</a>
</g>
</g>
<!-- Node1&#45;&gt;Node6 -->
<g id="edge5_Node000001_Node000006" class="edge">
<title>Node1&#45;&gt;Node6</title>
<g id="a_edge5_Node000001_Node000006"><a xlink:title=" ">
<path fill="none" stroke="#63b8ff" d="M555.31,-67.79C564.69,-59.02 575.57,-48.84 585.13,-39.91"/>
<polygon fill="#63b8ff" stroke="#63b8ff" points="587.43,-42.55 592.34,-33.16 582.65,-37.43 587.43,-42.55"/>
</a>
</g>
</g>
<!-- Node7 -->
<g id="Node000007" class="node">
<title>Node7</title>
<g id="a_Node000007"><a xlink:title=" ">
<polygon fill="#e0e0e0" stroke="#999999" points="834.12,-32 695.12,-32 695.12,0 834.12,0 834.12,-32"/>
<text text-anchor="start" x="703.12" y="-18.5" font-family="Helvetica,sans-Serif" font-size="10.00">org.apache.commons.lang3.</text>
<text text-anchor="middle" x="764.62" y="-6.5" font-family="Helvetica,sans-Serif" font-size="10.00">StringUtils</text>
</a>
</g>
</g>
<!-- Node1&#45;&gt;Node7 -->
<g id="edge6_Node000001_Node000007" class="edge">
<title>Node1&#45;&gt;Node7</title>
<g id="a_edge6_Node000001_Node000007"><a xlink:title=" ">
<path fill="none" stroke="#63b8ff" d="M598.8,-68.46C632.01,-58.16 671.95,-45.76 704.31,-35.72"/>
<polygon fill="#63b8ff" stroke="#63b8ff" points="705.01,-39.17 713.52,-32.86 702.94,-32.48 705.01,-39.17"/>
</a>
</g>
</g>
<!-- Node8 -->
<g id="Node000008" class="node">
<title>Node8</title>
<g id="a_Node000008"><a xlink:title=" ">
<polygon fill="#e0e0e0" stroke="#999999" points="935,-26 852.25,-26 852.25,-6 935,-6 935,-26"/>
<text text-anchor="middle" x="893.62" y="-12.5" font-family="Helvetica,sans-Serif" font-size="10.00">org.slf4j.Logger</text>
</a>
</g>
</g>
<!-- Node1&#45;&gt;Node8 -->
<g id="edge7_Node000001_Node000008" class="edge">
<title>Node1&#45;&gt;Node8</title>
<g id="a_edge7_Node000001_Node000008"><a xlink:title=" ">
<path fill="none" stroke="#63b8ff" d="M598.59,-79.07C661.85,-69.05 759.84,-52.18 843.62,-32 846.76,-31.24 850,-30.41 853.24,-29.53"/>
<polygon fill="#63b8ff" stroke="#63b8ff" points="854.04,-32.94 862.7,-26.84 852.13,-26.21 854.04,-32.94"/>
</a>
</g>
</g>
<!-- Node9 -->
<g id="Node000009" class="node">
<title>Node9</title>
<g id="a_Node000009"><a xlink:title=" ">
<polygon fill="#e0e0e0" stroke="#999999" points="1068.5,-26 952.75,-26 952.75,-6 1068.5,-6 1068.5,-26"/>
<text text-anchor="middle" x="1010.62" y="-12.5" font-family="Helvetica,sans-Serif" font-size="10.00">org.slf4j.LoggerFactory</text>
</a>
</g>
</g>
<!-- Node1&#45;&gt;Node9 -->
<g id="edge8_Node000001_Node000009" class="edge">
<title>Node1&#45;&gt;Node9</title>
<g id="a_edge8_Node000001_Node000009"><a xlink:title=" ">
<path fill="none" stroke="#63b8ff" d="M598.74,-81.53C680.17,-71.95 822.59,-53.9 943.62,-32 948.92,-31.04 954.43,-29.96 959.91,-28.82"/>
<polygon fill="#63b8ff" stroke="#63b8ff" points="960.53,-32.26 969.58,-26.74 959.06,-25.42 960.53,-32.26"/>
</a>
</g>
</g>
</g>
</svg>

<g id="navigator" transform="translate(0 0)" fill="#404254">
  <rect fill="#f2f5e9" fill-opacity="0.5" stroke="#606060" stroke-width=".5" x="0" y="0" width="60" height="60"/>
  <use id="zoomplus" xlink:href="#zoomPlus" x="17" y="9" onmousedown="handleZoom(evt,'in')"/>
  <use id="zoomminus" xlink:href="#zoomMin" x="42" y="9" onmousedown="handleZoom(evt,'out')"/>
  <use id="reset" xlink:href="#resetDef" x="30" y="36" onmousedown="handleReset()"/>
   <use id="arrowup" xlink:href="#arrowUp" x="0" y="0" onmousedown="handlePan(0,-1)"/>
  <use id="arrowright" xlink:href="#arrowRight" x="0" y="0" onmousedown="handlePan(1,0)"/>
  <use id="arrowdown" xlink:href="#arrowDown" x="0" y="0" onmousedown="handlePan(0,1)"/>
  <use id="arrowleft" xlink:href="#arrowLeft" x="0" y="0" onmousedown="handlePan(-1,0)"/>
</g>
<svg viewBox="0 0 15 15" width="100%" height="30px" preserveAspectRatio="xMaxYMin meet">
 <g id="arrow_out" transform="scale(0.3 0.3)">
  <a xlink:href="_i18n_8java__incl_org.svg" target="_base">
   <rect id="button" ry="5" rx="5" y="6" x="6" height="38" width="38"
        fill="#f2f5e9" fill-opacity="0.5" stroke="#606060" stroke-width="1.0"/>
   <path id="arrow"
     d="M 11.500037,31.436501 C 11.940474,20.09759 22.043105,11.32322 32.158766,21.979434 L 37.068811,17.246167 C 37.068811,17.246167 37.088388,32 37.088388,32 L 22.160133,31.978069 C 22.160133,31.978069 26.997745,27.140456 26.997745,27.140456 C 18.528582,18.264221 13.291696,25.230495 11.500037,31.436501 z"
     style="fill:#404040;"/>
  </a>
 </g>
</svg>

<style type='text/css'>
<![CDATA[
[data-mouse-over-selected='false'] { opacity: 0.7; }
[data-mouse-over-selected='true']  { opacity: 1.0; }
]]>
</style>
<script type="application/ecmascript"><![CDATA[
document.addEventListener('DOMContentLoaded', (event) => {
  highlightEdges();
  highlightAdjacentNodes();
});
]]></script>
</svg>
