<?xml version="1.0" encoding="UTF-8" standalone="no"?>
<!DOCTYPE svg PUBLIC "-//W3C//DTD SVG 1.1//EN"
 "http://www.w3.org/Graphics/SVG/1.1/DTD/svg11.dtd">
<!-- Generated by graphviz version 12.2.1 (20241206.2353)
 -->
<!-- Title: src/main/java/fr/softsf/sudokufx/enums/I18n.java Pages: 1 -->
<svg width="932pt" height="108pt"
 viewBox="0.00 0.00 931.50 108.00" xmlns="http://www.w3.org/2000/svg" xmlns:xlink="http://www.w3.org/1999/xlink">
<g id="graph0" class="graph" transform="scale(1 1) rotate(0) translate(4 104)">
<title>src/main/java/fr/softsf/sudokufx/enums/I18n.java</title>
<!-- Node1 -->
<g id="Node000001" class="node">
<title>Node1</title>
<g id="a_Node000001"><a xlink:title=" ">
<polygon fill="#999999" stroke="#666666" points="526.5,-100 392.75,-100 392.75,-68 526.5,-68 526.5,-100"/>
<text text-anchor="start" x="400.75" y="-86.5" font-family="Helvetica,sans-Serif" font-size="10.00">src/main/java/fr/softsf</text>
<text text-anchor="middle" x="459.62" y="-74.5" font-family="Helvetica,sans-Serif" font-size="10.00">/sudokufx/enums/I18n.java</text>
</a>
</g>
</g>
<!-- Node2 -->
<g id="Node000002" class="node">
<title>Node2</title>
<g id="a_Node000002"><a xlink:title=" ">
<polygon fill="#e0e0e0" stroke="#999999" points="81.25,-26 0,-26 0,-6 81.25,-6 81.25,-26"/>
<text text-anchor="middle" x="40.62" y="-12.5" font-family="Helvetica,sans-Serif" font-size="10.00">java.util.Locale</text>
</a>
</g>
</g>
<!-- Node1&#45;&gt;Node2 -->
<g id="edge1_Node000001_Node000002" class="edge">
<title>Node1&#45;&gt;Node2</title>
<g id="a_edge1_Node000001_Node000002"><a xlink:title=" ">
<path fill="none" stroke="#63b8ff" d="M392.42,-76.85C318.04,-69.33 194.89,-54.7 90.62,-32 87.28,-31.27 83.83,-30.43 80.39,-29.53"/>
<polygon fill="#63b8ff" stroke="#63b8ff" points="81.54,-26.22 70.97,-26.9 79.66,-32.96 81.54,-26.22"/>
</a>
</g>
</g>
<!-- Node3 -->
<g id="Node000003" class="node">
<title>Node3</title>
<g id="a_Node000003"><a xlink:title=" ">
<polygon fill="#e0e0e0" stroke="#999999" points="227.88,-32 99.38,-32 99.38,0 227.88,0 227.88,-32"/>
<text text-anchor="start" x="107.38" y="-18.5" font-family="Helvetica,sans-Serif" font-size="10.00">java.util.MissingResource</text>
<text text-anchor="middle" x="163.62" y="-6.5" font-family="Helvetica,sans-Serif" font-size="10.00">Exception</text>
</a>
</g>
</g>
<!-- Node1&#45;&gt;Node3 -->
<g id="edge2_Node000001_Node000003" class="edge">
<title>Node1&#45;&gt;Node3</title>
<g id="a_edge2_Node000001_Node000003"><a xlink:title=" ">
<path fill="none" stroke="#63b8ff" d="M392.46,-68.02C346.9,-57.87 286.6,-44.42 239.34,-33.88"/>
<polygon fill="#63b8ff" stroke="#63b8ff" points="240.24,-30.5 229.72,-31.74 238.71,-37.33 240.24,-30.5"/>
</a>
</g>
</g>
<!-- Node4 -->
<g id="Node000004" class="node">
<title>Node4</title>
<g id="a_Node000004"><a xlink:title=" ">
<polygon fill="#e0e0e0" stroke="#999999" points="371,-26 246.25,-26 246.25,-6 371,-6 371,-26"/>
<text text-anchor="middle" x="308.62" y="-12.5" font-family="Helvetica,sans-Serif" font-size="10.00">java.util.ResourceBundle</text>
</a>
</g>
</g>
<!-- Node1&#45;&gt;Node4 -->
<g id="edge3_Node000001_Node000004" class="edge">
<title>Node1&#45;&gt;Node4</title>
<g id="a_edge3_Node000001_Node000004"><a xlink:title=" ">
<path fill="none" stroke="#63b8ff" d="M424.22,-67.53C398.97,-56.49 365.3,-41.77 340.81,-31.07"/>
<polygon fill="#63b8ff" stroke="#63b8ff" points="342.22,-27.86 331.66,-27.07 339.42,-34.28 342.22,-27.86"/>
</a>
</g>
</g>
<!-- Node5 -->
<g id="Node000005" class="node">
<title>Node5</title>
<g id="a_Node000005"><a xlink:title=" ">
<polygon fill="#e0e0e0" stroke="#999999" points="529.88,-32 389.38,-32 389.38,0 529.88,0 529.88,-32"/>
<text text-anchor="start" x="397.38" y="-18.5" font-family="Helvetica,sans-Serif" font-size="10.00">javafx.beans.property.Object</text>
<text text-anchor="middle" x="459.62" y="-6.5" font-family="Helvetica,sans-Serif" font-size="10.00">Property</text>
</a>
</g>
</g>
<!-- Node1&#45;&gt;Node5 -->
<g id="edge4_Node000001_Node000005" class="edge">
<title>Node1&#45;&gt;Node5</title>
<g id="a_edge4_Node000001_Node000005"><a xlink:title=" ">
<path fill="none" stroke="#63b8ff" d="M459.62,-67.69C459.62,-60.53 459.62,-51.79 459.62,-43.59"/>
<polygon fill="#63b8ff" stroke="#63b8ff" points="463.13,-43.74 459.63,-33.74 456.13,-43.74 463.13,-43.74"/>
</a>
</g>
</g>
<!-- Node6 -->
<g id="Node000006" class="node">
<title>Node6</title>
<g id="a_Node000006"><a xlink:title=" ">
<polygon fill="#e0e0e0" stroke="#999999" points="689.62,-32 547.62,-32 547.62,0 689.62,0 689.62,-32"/>
<text text-anchor="start" x="555.62" y="-18.5" font-family="Helvetica,sans-Serif" font-size="10.00">javafx.beans.property.Simple</text>
<text text-anchor="middle" x="618.62" y="-6.5" font-family="Helvetica,sans-Serif" font-size="10.00">ObjectProperty</text>
</a>
</g>
</g>
<!-- Node1&#45;&gt;Node6 -->
<g id="edge5_Node000001_Node000006" class="edge">
<title>Node1&#45;&gt;Node6</title>
<g id="a_edge5_Node000001_Node000006"><a xlink:title=" ">
<path fill="none" stroke="#63b8ff" d="M496.9,-67.53C518.95,-58.37 547.1,-46.69 570.78,-36.86"/>
<polygon fill="#63b8ff" stroke="#63b8ff" points="572.01,-40.14 579.91,-33.07 569.33,-33.67 572.01,-40.14"/>
</a>
</g>
</g>
<!-- Node7 -->
<g id="Node000007" class="node">
<title>Node7</title>
<g id="a_Node000007"><a xlink:title=" ">
<polygon fill="#e0e0e0" stroke="#999999" points="790,-26 707.25,-26 707.25,-6 790,-6 790,-26"/>
<text text-anchor="middle" x="748.62" y="-12.5" font-family="Helvetica,sans-Serif" font-size="10.00">org.slf4j.Logger</text>
</a>
</g>
</g>
<!-- Node1&#45;&gt;Node7 -->
<g id="edge6_Node000001_Node000007" class="edge">
<title>Node1&#45;&gt;Node7</title>
<g id="a_edge6_Node000001_Node000007"><a xlink:title=" ">
<path fill="none" stroke="#63b8ff" d="M526.93,-70.16C575,-60.61 641.09,-46.74 698.62,-32 701.57,-31.25 704.6,-30.43 707.64,-29.59"/>
<polygon fill="#63b8ff" stroke="#63b8ff" points="708.49,-32.98 717.14,-26.86 706.56,-26.26 708.49,-32.98"/>
</a>
</g>
</g>
<!-- Node8 -->
<g id="Node000008" class="node">
<title>Node8</title>
<g id="a_Node000008"><a xlink:title=" ">
<polygon fill="#e0e0e0" stroke="#999999" points="923.5,-26 807.75,-26 807.75,-6 923.5,-6 923.5,-26"/>
<text text-anchor="middle" x="865.62" y="-12.5" font-family="Helvetica,sans-Serif" font-size="10.00">org.slf4j.LoggerFactory</text>
</a>
</g>
</g>
<!-- Node1&#45;&gt;Node8 -->
<g id="edge7_Node000001_Node000008" class="edge">
<title>Node1&#45;&gt;Node8</title>
<g id="a_edge7_Node000001_Node000008"><a xlink:title=" ">
<path fill="none" stroke="#63b8ff" d="M526.76,-74.33C595.32,-65.14 704.73,-49.55 798.62,-32 803.84,-31.02 809.27,-29.93 814.68,-28.8"/>
<polygon fill="#63b8ff" stroke="#63b8ff" points="815.17,-32.28 824.21,-26.75 813.69,-25.43 815.17,-32.28"/>
</a>
</g>
</g>
</g>
</svg>
