<?xml version="1.0" encoding="UTF-8" standalone="no"?>
<!DOCTYPE svg PUBLIC "-//W3C//DTD SVG 1.1//EN"
 "http://www.w3.org/Graphics/SVG/1.1/DTD/svg11.dtd">
<!-- Generated by graphviz version 12.2.1 (20241206.2353)
 -->
<!-- Title: src/main/java/fr/softsf/sudokufx/interfaces/mapper/IBackgroundMapper.java Pages: 1 -->
<svg width="626pt" height="120pt"
 viewBox="0.00 0.00 626.00 120.00" xmlns="http://www.w3.org/2000/svg" xmlns:xlink="http://www.w3.org/1999/xlink">
<g id="graph0" class="graph" transform="scale(1 1) rotate(0) translate(4 116)">
<title>src/main/java/fr/softsf/sudokufx/interfaces/mapper/IBackgroundMapper.java</title>
<!-- Node1 -->
<g id="Node000001" class="node">
<title>Node1</title>
<g id="a_Node000001"><a xlink:title=" ">
<polygon fill="#999999" stroke="#666666" points="364.5,-112 224.75,-112 224.75,-68 364.5,-68 364.5,-112"/>
<text text-anchor="start" x="232.75" y="-98.5" font-family="Helvetica,sans-Serif" font-size="10.00">src/main/java/fr/softsf</text>
<text text-anchor="start" x="232.75" y="-86.5" font-family="Helvetica,sans-Serif" font-size="10.00">/sudokufx/interfaces/mapper</text>
<text text-anchor="middle" x="294.62" y="-74.5" font-family="Helvetica,sans-Serif" font-size="10.00">/IBackgroundMapper.java</text>
</a>
</g>
</g>
<!-- Node2 -->
<g id="Node000002" class="node">
<title>Node2</title>
<g id="a_Node000002"><a xlink:title=" ">
<polygon fill="#e0e0e0" stroke="#999999" points="111.25,-26 0,-26 0,-6 111.25,-6 111.25,-26"/>
<text text-anchor="middle" x="55.62" y="-12.5" font-family="Helvetica,sans-Serif" font-size="10.00">org.mapstruct.Mapper</text>
</a>
</g>
</g>
<!-- Node1&#45;&gt;Node2 -->
<g id="edge1_Node000001_Node000002" class="edge">
<title>Node1&#45;&gt;Node2</title>
<g id="a_edge1_Node000001_Node000002"><a xlink:title=" ">
<path fill="none" stroke="#63b8ff" d="M224.53,-67.88C183.39,-55.49 132.77,-40.24 97.73,-29.68"/>
<polygon fill="#63b8ff" stroke="#63b8ff" points="98.97,-26.4 88.38,-26.87 96.95,-33.1 98.97,-26.4"/>
</a>
</g>
</g>
<!-- Node3 -->
<g id="Node000003" class="node">
<title>Node3</title>
<g id="a_Node000003"><a xlink:title=" ">
<polygon fill="#e0e0e0" stroke="#999999" points="278,-26 129.25,-26 129.25,-6 278,-6 278,-26"/>
<text text-anchor="middle" x="203.62" y="-12.5" font-family="Helvetica,sans-Serif" font-size="10.00">org.mapstruct.factory.Mappers</text>
</a>
</g>
</g>
<!-- Node1&#45;&gt;Node3 -->
<g id="edge2_Node000001_Node000003" class="edge">
<title>Node1&#45;&gt;Node3</title>
<g id="a_edge2_Node000001_Node000003"><a xlink:title=" ">
<path fill="none" stroke="#63b8ff" d="M267.81,-67.79C253.94,-56.81 237.27,-43.62 224.39,-33.43"/>
<polygon fill="#63b8ff" stroke="#63b8ff" points="226.59,-30.71 216.58,-27.25 222.25,-36.2 226.59,-30.71"/>
</a>
</g>
</g>
<!-- Node4 -->
<g id="Node000004" class="node">
<title>Node4</title>
<g id="a_Node000004"><a xlink:title=" ">
<polygon fill="#e0e0e0" stroke="#999999" points="475.38,-26 295.88,-26 295.88,-6 475.38,-6 475.38,-26"/>
<text text-anchor="middle" x="385.62" y="-12.5" font-family="Helvetica,sans-Serif" font-size="10.00">fr.softsf.sudokufx.dto.BackgroundDto</text>
</a>
</g>
</g>
<!-- Node1&#45;&gt;Node4 -->
<g id="edge3_Node000001_Node000004" class="edge">
<title>Node1&#45;&gt;Node4</title>
<g id="a_edge3_Node000001_Node000004"><a xlink:title=" ">
<path fill="none" stroke="#63b8ff" d="M321.44,-67.79C335.31,-56.81 351.98,-43.62 364.86,-33.43"/>
<polygon fill="#63b8ff" stroke="#63b8ff" points="367,-36.2 372.67,-27.25 362.66,-30.71 367,-36.2"/>
</a>
</g>
</g>
<!-- Node5 -->
<g id="Node000005" class="node">
<title>Node5</title>
<g id="a_Node000005"><a xlink:title=" ">
<polygon fill="#e0e0e0" stroke="#999999" points="618,-32 493.25,-32 493.25,0 618,0 618,-32"/>
<text text-anchor="start" x="501.25" y="-18.5" font-family="Helvetica,sans-Serif" font-size="10.00">fr.softsf.sudokufx.model.</text>
<text text-anchor="middle" x="555.62" y="-6.5" font-family="Helvetica,sans-Serif" font-size="10.00">Background</text>
</a>
</g>
</g>
<!-- Node1&#45;&gt;Node5 -->
<g id="edge4_Node000001_Node000005" class="edge">
<title>Node1&#45;&gt;Node5</title>
<g id="a_edge4_Node000001_Node000005"><a xlink:title=" ">
<path fill="none" stroke="#63b8ff" d="M364.91,-69.61C403.39,-59 450.81,-45.91 488.74,-35.45"/>
<polygon fill="#63b8ff" stroke="#63b8ff" points="489.51,-38.87 498.22,-32.84 487.65,-32.12 489.51,-38.87"/>
</a>
</g>
</g>
</g>
</svg>
