<?xml version="1.0" encoding="UTF-8" standalone="no"?>
<!DOCTYPE svg PUBLIC "-//W3C//DTD SVG 1.1//EN"
 "http://www.w3.org/Graphics/SVG/1.1/DTD/svg11.dtd">
<!-- Generated by graphviz version 12.2.1 (20241206.2353)
 -->
<!-- Title: src/main/java/fr/softsf/sudokufx/common/interfaces/mapper/IGridMapper.java Pages: 1 -->
<svg width="444pt" height="108pt"
 viewBox="0.00 0.00 444.00 108.00" xmlns="http://www.w3.org/2000/svg" xmlns:xlink="http://www.w3.org/1999/xlink">

<svg id="main" version="1.1" xmlns="http://www.w3.org/2000/svg" xmlns:xlink="http://www.w3.org/1999/xlink" xml:space="preserve">

<style type="text/css"><![CDATA[
.node, .edge {opacity: 0.7;}
.node.selected, .edge.selected {opacity: 1;}
.edge:hover path { stroke: red; }
.edge:hover polygon { stroke: red; fill: red; }
]]></style>
<script type="application/ecmascript" xlink:href="svg.min.js"/>
<svg id="graph" class="graph">
<g id="graph0" class="graph" transform="scale(1 1) rotate(0) translate(4 104)">
<title>src/main/java/fr/softsf/sudokufx/common/interfaces/mapper/IGridMapper.java</title>
<!-- Node1 -->
<g id="Node000001" class="node">
<title>Node1</title>
<g id="a_Node000001"><a xlink:title=" ">
<polygon fill="#999999" stroke="#666666" points="275.12,-100 130.12,-100 130.12,-56 275.12,-56 275.12,-100"/>
<text text-anchor="start" x="138.12" y="-86.5" font-family="Helvetica,sans-Serif" font-size="10.00">src/main/java/fr/softsf</text>
<text text-anchor="start" x="138.12" y="-74.5" font-family="Helvetica,sans-Serif" font-size="10.00">/sudokufx/common/interfaces</text>
<text text-anchor="middle" x="202.62" y="-62.5" font-family="Helvetica,sans-Serif" font-size="10.00">/mapper/IGridMapper.java</text>
</a>
</g>
</g>
<!-- Node2 -->
<g id="Node000002" class="node">
<title>Node2</title>
<g id="a_Node000002"><a xlink:title=" ">
<polygon fill="#e0e0e0" stroke="#999999" points="111.25,-20 0,-20 0,0 111.25,0 111.25,-20"/>
<text text-anchor="middle" x="55.62" y="-6.5" font-family="Helvetica,sans-Serif" font-size="10.00">org.mapstruct.Mapper</text>
</a>
</g>
</g>
<!-- Node1&#45;&gt;Node2 -->
<g id="edge1_Node000001_Node000002" class="edge">
<title>Node1&#45;&gt;Node2</title>
<g id="a_edge1_Node000001_Node000002"><a xlink:title=" ">
<path fill="none" stroke="#63b8ff" d="M154.9,-55.57C132.55,-45.54 106.55,-33.87 86.77,-24.98"/>
<polygon fill="#63b8ff" stroke="#63b8ff" points="88.42,-21.89 77.86,-20.99 85.55,-28.27 88.42,-21.89"/>
</a>
</g>
</g>
<!-- Node3 -->
<g id="Node000003" class="node">
<title>Node3</title>
<g id="a_Node000003"><a xlink:title=" ">
<polygon fill="#e0e0e0" stroke="#999999" points="275.5,-20 129.75,-20 129.75,0 275.5,0 275.5,-20"/>
<text text-anchor="middle" x="202.62" y="-6.5" font-family="Helvetica,sans-Serif" font-size="10.00">fr.softsf.sudokufx.dto.GridDto</text>
</a>
</g>
</g>
<!-- Node1&#45;&gt;Node3 -->
<g id="edge2_Node000001_Node000003" class="edge">
<title>Node1&#45;&gt;Node3</title>
<g id="a_edge2_Node000001_Node000003"><a xlink:title=" ">
<path fill="none" stroke="#63b8ff" d="M202.62,-55.75C202.62,-48.13 202.62,-39.53 202.62,-31.93"/>
<polygon fill="#63b8ff" stroke="#63b8ff" points="206.13,-31.93 202.63,-21.93 199.13,-31.93 206.13,-31.93"/>
</a>
</g>
</g>
<!-- Node4 -->
<g id="Node000004" class="node">
<title>Node4</title>
<g id="a_Node000004"><a xlink:title=" ">
<polygon fill="#e0e0e0" stroke="#999999" points="436,-20 293.25,-20 293.25,0 436,0 436,-20"/>
<text text-anchor="middle" x="364.62" y="-6.5" font-family="Helvetica,sans-Serif" font-size="10.00">fr.softsf.sudokufx.model.Grid</text>
</a>
</g>
</g>
<!-- Node1&#45;&gt;Node4 -->
<g id="edge3_Node000001_Node000004" class="edge">
<title>Node1&#45;&gt;Node4</title>
<g id="a_edge3_Node000001_Node000004"><a xlink:title=" ">
<path fill="none" stroke="#63b8ff" d="M255.22,-55.57C280.2,-45.4 309.3,-33.54 331.2,-24.62"/>
<polygon fill="#63b8ff" stroke="#63b8ff" points="332.3,-27.95 340.24,-20.94 329.65,-21.47 332.3,-27.95"/>
</a>
</g>
</g>
</g>
</svg>
</svg>

<style type='text/css'>
<![CDATA[
[data-mouse-over-selected='false'] { opacity: 0.7; }
[data-mouse-over-selected='true']  { opacity: 1.0; }
]]>
</style>
<script type="application/ecmascript"><![CDATA[
document.addEventListener('DOMContentLoaded', (event) => {
  highlightEdges();
  highlightAdjacentNodes();
});
]]></script>
</svg>
