<?xml version="1.0" encoding="UTF-8" standalone="no"?>
<!DOCTYPE svg PUBLIC "-//W3C//DTD SVG 1.1//EN"
 "http://www.w3.org/Graphics/SVG/1.1/DTD/svg11.dtd">
<!-- Generated by graphviz version 12.2.1 (20241206.2353)
 -->
<!-- Title: src/main/java/fr/softsf/sudokufx/interfaces/mapper/IGameMapper.java Pages: 1 -->
<svg width="761pt" height="108pt"
 viewBox="0.00 0.00 761.12 108.00" xmlns="http://www.w3.org/2000/svg" xmlns:xlink="http://www.w3.org/1999/xlink">
<g id="graph0" class="graph" transform="scale(1 1) rotate(0) translate(4 104)">
<title>src/main/java/fr/softsf/sudokufx/interfaces/mapper/IGameMapper.java</title>
<!-- Node1 -->
<g id="Node000001" class="node">
<title>Node1</title>
<g id="a_Node000001"><a xlink:title=" ">
<polygon fill="#999999" stroke="#666666" points="407.5,-100 267.75,-100 267.75,-56 407.5,-56 407.5,-100"/>
<text text-anchor="start" x="275.75" y="-86.5" font-family="Helvetica,sans-Serif" font-size="10.00">src/main/java/fr/softsf</text>
<text text-anchor="start" x="275.75" y="-74.5" font-family="Helvetica,sans-Serif" font-size="10.00">/sudokufx/interfaces/mapper</text>
<text text-anchor="middle" x="337.62" y="-62.5" font-family="Helvetica,sans-Serif" font-size="10.00">/IGameMapper.java</text>
</a>
</g>
</g>
<!-- Node2 -->
<g id="Node000002" class="node">
<title>Node2</title>
<g id="a_Node000002"><a xlink:title=" ">
<polygon fill="#e0e0e0" stroke="#999999" points="111.25,-20 0,-20 0,0 111.25,0 111.25,-20"/>
<text text-anchor="middle" x="55.62" y="-6.5" font-family="Helvetica,sans-Serif" font-size="10.00">org.mapstruct.Mapper</text>
</a>
</g>
</g>
<!-- Node1&#45;&gt;Node2 -->
<g id="edge1_Node000001_Node000002" class="edge">
<title>Node1&#45;&gt;Node2</title>
<g id="a_edge1_Node000001_Node000002"><a xlink:title=" ">
<path fill="none" stroke="#63b8ff" d="M267.55,-60.6C217.78,-48.95 152.06,-33.57 107.08,-23.04"/>
<polygon fill="#63b8ff" stroke="#63b8ff" points="108.12,-19.69 97.59,-20.82 106.53,-26.51 108.12,-19.69"/>
</a>
</g>
</g>
<!-- Node3 -->
<g id="Node000003" class="node">
<title>Node3</title>
<g id="a_Node000003"><a xlink:title=" ">
<polygon fill="#e0e0e0" stroke="#999999" points="245.5,-20 129.75,-20 129.75,0 245.5,0 245.5,-20"/>
<text text-anchor="middle" x="187.62" y="-6.5" font-family="Helvetica,sans-Serif" font-size="10.00">org.mapstruct.Mapping</text>
</a>
</g>
</g>
<!-- Node1&#45;&gt;Node3 -->
<g id="edge2_Node000001_Node000003" class="edge">
<title>Node1&#45;&gt;Node3</title>
<g id="a_edge2_Node000001_Node000003"><a xlink:title=" ">
<path fill="none" stroke="#63b8ff" d="M288.92,-55.57C266.12,-45.54 239.59,-33.87 219.41,-24.98"/>
<polygon fill="#63b8ff" stroke="#63b8ff" points="220.86,-21.8 210.3,-20.97 218.04,-28.21 220.86,-21.8"/>
</a>
</g>
</g>
<!-- Node4 -->
<g id="Node000004" class="node">
<title>Node4</title>
<g id="a_Node000004"><a xlink:title=" ">
<polygon fill="#e0e0e0" stroke="#999999" points="412,-20 263.25,-20 263.25,0 412,0 412,-20"/>
<text text-anchor="middle" x="337.62" y="-6.5" font-family="Helvetica,sans-Serif" font-size="10.00">org.mapstruct.factory.Mappers</text>
</a>
</g>
</g>
<!-- Node1&#45;&gt;Node4 -->
<g id="edge3_Node000001_Node000004" class="edge">
<title>Node1&#45;&gt;Node4</title>
<g id="a_edge3_Node000001_Node000004"><a xlink:title=" ">
<path fill="none" stroke="#63b8ff" d="M337.62,-55.75C337.62,-48.13 337.62,-39.53 337.62,-31.93"/>
<polygon fill="#63b8ff" stroke="#63b8ff" points="341.13,-31.93 337.63,-21.93 334.13,-31.93 341.13,-31.93"/>
</a>
</g>
</g>
<!-- Node5 -->
<g id="Node000005" class="node">
<title>Node5</title>
<g id="a_Node000005"><a xlink:title=" ">
<polygon fill="#e0e0e0" stroke="#999999" points="583.62,-20 429.62,-20 429.62,0 583.62,0 583.62,-20"/>
<text text-anchor="middle" x="506.62" y="-6.5" font-family="Helvetica,sans-Serif" font-size="10.00">fr.softsf.sudokufx.dto.GameDto</text>
</a>
</g>
</g>
<!-- Node1&#45;&gt;Node5 -->
<g id="edge4_Node000001_Node000005" class="edge">
<title>Node1&#45;&gt;Node5</title>
<g id="a_edge4_Node000001_Node000005"><a xlink:title=" ">
<path fill="none" stroke="#63b8ff" d="M392.49,-55.57C418.67,-45.35 449.18,-33.43 472.07,-24.49"/>
<polygon fill="#63b8ff" stroke="#63b8ff" points="473.19,-27.81 481.23,-20.92 470.65,-21.29 473.19,-27.81"/>
</a>
</g>
</g>
<!-- Node6 -->
<g id="Node000006" class="node">
<title>Node6</title>
<g id="a_Node000006"><a xlink:title=" ">
<polygon fill="#e0e0e0" stroke="#999999" points="753.12,-20 602.12,-20 602.12,0 753.12,0 753.12,-20"/>
<text text-anchor="middle" x="677.62" y="-6.5" font-family="Helvetica,sans-Serif" font-size="10.00">fr.softsf.sudokufx.model.Game</text>
</a>
</g>
</g>
<!-- Node1&#45;&gt;Node6 -->
<g id="edge5_Node000001_Node000006" class="edge">
<title>Node1&#45;&gt;Node6</title>
<g id="a_edge5_Node000001_Node000006"><a xlink:title=" ">
<path fill="none" stroke="#63b8ff" d="M407.66,-63.4C469.66,-51.37 559.18,-33.99 617.87,-22.6"/>
<polygon fill="#63b8ff" stroke="#63b8ff" points="618.18,-26.1 627.33,-20.76 616.85,-19.23 618.18,-26.1"/>
</a>
</g>
</g>
</g>
</svg>
