<?xml version="1.0" encoding="UTF-8" standalone="no"?>
<!DOCTYPE svg PUBLIC "-//W3C//DTD SVG 1.1//EN"
 "http://www.w3.org/Graphics/SVG/1.1/DTD/svg11.dtd">
<!-- Generated by graphviz version 12.2.1 (20241206.2353)
 -->
<!-- Title: src/main/java/fr/softsf/sudokufx/interfaces/mapper/IMenuMapper.java Pages: 1 -->
<svg width="456pt" height="108pt"
 viewBox="0.00 0.00 456.00 108.00" xmlns="http://www.w3.org/2000/svg" xmlns:xlink="http://www.w3.org/1999/xlink">

<svg id="main" version="1.1" xmlns="http://www.w3.org/2000/svg" xmlns:xlink="http://www.w3.org/1999/xlink" xml:space="preserve">

<style type="text/css"><![CDATA[
.node, .edge {opacity: 0.7;}
.node.selected, .edge.selected {opacity: 1;}
.edge:hover path { stroke: red; }
.edge:hover polygon { stroke: red; fill: red; }
]]></style>
<script type="application/ecmascript" xlink:href="svg.min.js"/>
<svg id="graph" class="graph">
<g id="graph0" class="graph" transform="scale(1 1) rotate(0) translate(4 104)">
<title>src/main/java/fr/softsf/sudokufx/interfaces/mapper/IMenuMapper.java</title>
<!-- Node1 -->
<g id="Node000001" class="node">
<title>Node1</title>
<g id="a_Node000001"><a xlink:title=" ">
<polygon fill="#999999" stroke="#666666" points="275.5,-100 135.75,-100 135.75,-56 275.5,-56 275.5,-100"/>
<text text-anchor="start" x="143.75" y="-86.5" font-family="Helvetica,sans-Serif" font-size="10.00">src/main/java/fr/softsf</text>
<text text-anchor="start" x="143.75" y="-74.5" font-family="Helvetica,sans-Serif" font-size="10.00">/sudokufx/interfaces/mapper</text>
<text text-anchor="middle" x="205.62" y="-62.5" font-family="Helvetica,sans-Serif" font-size="10.00">/IMenuMapper.java</text>
</a>
</g>
</g>
<!-- Node2 -->
<g id="Node000002" class="node">
<title>Node2</title>
<g id="a_Node000002"><a xlink:title=" ">
<polygon fill="#e0e0e0" stroke="#999999" points="111.25,-20 0,-20 0,0 111.25,0 111.25,-20"/>
<text text-anchor="middle" x="55.62" y="-6.5" font-family="Helvetica,sans-Serif" font-size="10.00">org.mapstruct.Mapper</text>
</a>
</g>
</g>
<!-- Node1&#45;&gt;Node2 -->
<g id="edge1_Node000001_Node000002" class="edge">
<title>Node1&#45;&gt;Node2</title>
<g id="a_edge1_Node000001_Node000002"><a xlink:title=" ">
<path fill="none" stroke="#63b8ff" d="M156.92,-55.57C134.12,-45.54 107.59,-33.87 87.41,-24.98"/>
<polygon fill="#63b8ff" stroke="#63b8ff" points="88.86,-21.8 78.3,-20.97 86.04,-28.21 88.86,-21.8"/>
</a>
</g>
</g>
<!-- Node3 -->
<g id="Node000003" class="node">
<title>Node3</title>
<g id="a_Node000003"><a xlink:title=" ">
<polygon fill="#e0e0e0" stroke="#999999" points="281.5,-20 129.75,-20 129.75,0 281.5,0 281.5,-20"/>
<text text-anchor="middle" x="205.62" y="-6.5" font-family="Helvetica,sans-Serif" font-size="10.00">fr.softsf.sudokufx.dto.MenuDto</text>
</a>
</g>
</g>
<!-- Node1&#45;&gt;Node3 -->
<g id="edge2_Node000001_Node000003" class="edge">
<title>Node1&#45;&gt;Node3</title>
<g id="a_edge2_Node000001_Node000003"><a xlink:title=" ">
<path fill="none" stroke="#63b8ff" d="M205.62,-55.75C205.62,-48.13 205.62,-39.53 205.62,-31.93"/>
<polygon fill="#63b8ff" stroke="#63b8ff" points="209.13,-31.93 205.63,-21.93 202.13,-31.93 209.13,-31.93"/>
</a>
</g>
</g>
<!-- Node4 -->
<g id="Node000004" class="node">
<title>Node4</title>
<g id="a_Node000004"><a xlink:title=" ">
<polygon fill="#e0e0e0" stroke="#999999" points="448,-20 299.25,-20 299.25,0 448,0 448,-20"/>
<text text-anchor="middle" x="373.62" y="-6.5" font-family="Helvetica,sans-Serif" font-size="10.00">fr.softsf.sudokufx.model.Menu</text>
</a>
</g>
</g>
<!-- Node1&#45;&gt;Node4 -->
<g id="edge3_Node000001_Node000004" class="edge">
<title>Node1&#45;&gt;Node4</title>
<g id="a_edge3_Node000001_Node000004"><a xlink:title=" ">
<path fill="none" stroke="#63b8ff" d="M260.17,-55.57C286.19,-45.35 316.52,-33.43 339.28,-24.49"/>
<polygon fill="#63b8ff" stroke="#63b8ff" points="340.35,-27.83 348.38,-20.92 337.79,-21.32 340.35,-27.83"/>
</a>
</g>
</g>
</g>
</svg>
</svg>

<style type='text/css'>
<![CDATA[
[data-mouse-over-selected='false'] { opacity: 0.7; }
[data-mouse-over-selected='true']  { opacity: 1.0; }
]]>
</style>
<script type="application/ecmascript"><![CDATA[
document.addEventListener('DOMContentLoaded', (event) => {
  highlightEdges();
  highlightAdjacentNodes();
});
]]></script>
</svg>
