<?xml version="1.0" encoding="UTF-8" standalone="no"?>
<!DOCTYPE svg PUBLIC "-//W3C//DTD SVG 1.1//EN"
 "http://www.w3.org/Graphics/SVG/1.1/DTD/svg11.dtd">
<!-- Generated by graphviz version 12.2.1 (20241206.2353)
 -->
<!-- Title: src/main/java/fr/softsf/sudokufx/interfaces/mapper/IPlayerMapper.java Pages: 1 -->
<svg width="736pt" height="120pt"
 viewBox="0.00 0.00 736.00 120.00" xmlns="http://www.w3.org/2000/svg" xmlns:xlink="http://www.w3.org/1999/xlink">
<g id="graph0" class="graph" transform="scale(1 1) rotate(0) translate(4 116)">
<title>src/main/java/fr/softsf/sudokufx/interfaces/mapper/IPlayerMapper.java</title>
<!-- Node1 -->
<g id="Node000001" class="node">
<title>Node1</title>
<g id="a_Node000001"><a xlink:title=" ">
<polygon fill="#999999" stroke="#666666" points="407.5,-112 267.75,-112 267.75,-68 407.5,-68 407.5,-112"/>
<text text-anchor="start" x="275.75" y="-98.5" font-family="Helvetica,sans-Serif" font-size="10.00">src/main/java/fr/softsf</text>
<text text-anchor="start" x="275.75" y="-86.5" font-family="Helvetica,sans-Serif" font-size="10.00">/sudokufx/interfaces/mapper</text>
<text text-anchor="middle" x="337.62" y="-74.5" font-family="Helvetica,sans-Serif" font-size="10.00">/IPlayerMapper.java</text>
</a>
</g>
</g>
<!-- Node2 -->
<g id="Node000002" class="node">
<title>Node2</title>
<g id="a_Node000002"><a xlink:title=" ">
<polygon fill="#e0e0e0" stroke="#999999" points="111.25,-26 0,-26 0,-6 111.25,-6 111.25,-26"/>
<text text-anchor="middle" x="55.62" y="-12.5" font-family="Helvetica,sans-Serif" font-size="10.00">org.mapstruct.Mapper</text>
</a>
</g>
</g>
<!-- Node1&#45;&gt;Node2 -->
<g id="edge1_Node000001_Node000002" class="edge">
<title>Node1&#45;&gt;Node2</title>
<g id="a_edge1_Node000001_Node000002"><a xlink:title=" ">
<path fill="none" stroke="#63b8ff" d="M267.55,-71.11C216.43,-58.06 148.47,-40.71 103.46,-29.21"/>
<polygon fill="#63b8ff" stroke="#63b8ff" points="104.55,-25.88 94,-26.8 102.82,-32.66 104.55,-25.88"/>
</a>
</g>
</g>
<!-- Node3 -->
<g id="Node000003" class="node">
<title>Node3</title>
<g id="a_Node000003"><a xlink:title=" ">
<polygon fill="#e0e0e0" stroke="#999999" points="245.5,-26 129.75,-26 129.75,-6 245.5,-6 245.5,-26"/>
<text text-anchor="middle" x="187.62" y="-12.5" font-family="Helvetica,sans-Serif" font-size="10.00">org.mapstruct.Mapping</text>
</a>
</g>
</g>
<!-- Node1&#45;&gt;Node3 -->
<g id="edge2_Node000001_Node000003" class="edge">
<title>Node1&#45;&gt;Node3</title>
<g id="a_edge2_Node000001_Node000003"><a xlink:title=" ">
<path fill="none" stroke="#63b8ff" d="M293.03,-67.59C268.65,-55.89 239.11,-41.71 217.51,-31.35"/>
<polygon fill="#63b8ff" stroke="#63b8ff" points="219.2,-28.27 208.67,-27.1 216.17,-34.59 219.2,-28.27"/>
</a>
</g>
</g>
<!-- Node4 -->
<g id="Node000004" class="node">
<title>Node4</title>
<g id="a_Node000004"><a xlink:title=" ">
<polygon fill="#e0e0e0" stroke="#999999" points="412,-26 263.25,-26 263.25,-6 412,-6 412,-26"/>
<text text-anchor="middle" x="337.62" y="-12.5" font-family="Helvetica,sans-Serif" font-size="10.00">org.mapstruct.factory.Mappers</text>
</a>
</g>
</g>
<!-- Node1&#45;&gt;Node4 -->
<g id="edge3_Node000001_Node000004" class="edge">
<title>Node1&#45;&gt;Node4</title>
<g id="a_edge3_Node000001_Node000004"><a xlink:title=" ">
<path fill="none" stroke="#63b8ff" d="M337.62,-67.79C337.62,-58.32 337.62,-47.2 337.62,-37.78"/>
<polygon fill="#63b8ff" stroke="#63b8ff" points="341.13,-37.82 337.63,-27.82 334.13,-37.82 341.13,-37.82"/>
</a>
</g>
</g>
<!-- Node5 -->
<g id="Node000005" class="node">
<title>Node5</title>
<g id="a_Node000005"><a xlink:title=" ">
<polygon fill="#e0e0e0" stroke="#999999" points="585.38,-26 429.88,-26 429.88,-6 585.38,-6 585.38,-26"/>
<text text-anchor="middle" x="507.62" y="-12.5" font-family="Helvetica,sans-Serif" font-size="10.00">fr.softsf.sudokufx.dto.PlayerDto</text>
</a>
</g>
</g>
<!-- Node1&#45;&gt;Node5 -->
<g id="edge4_Node000001_Node000005" class="edge">
<title>Node1&#45;&gt;Node5</title>
<g id="a_edge4_Node000001_Node000005"><a xlink:title=" ">
<path fill="none" stroke="#63b8ff" d="M388.17,-67.59C416.18,-55.73 450.2,-41.32 474.75,-30.92"/>
<polygon fill="#63b8ff" stroke="#63b8ff" points="476.08,-34.16 483.92,-27.04 473.35,-27.72 476.08,-34.16"/>
</a>
</g>
</g>
<!-- Node6 -->
<g id="Node000006" class="node">
<title>Node6</title>
<g id="a_Node000006"><a xlink:title=" ">
<polygon fill="#e0e0e0" stroke="#999999" points="728,-32 603.25,-32 603.25,0 728,0 728,-32"/>
<text text-anchor="start" x="611.25" y="-18.5" font-family="Helvetica,sans-Serif" font-size="10.00">fr.softsf.sudokufx.model.</text>
<text text-anchor="middle" x="665.62" y="-6.5" font-family="Helvetica,sans-Serif" font-size="10.00">Player</text>
</a>
</g>
</g>
<!-- Node1&#45;&gt;Node6 -->
<g id="edge5_Node000001_Node000006" class="edge">
<title>Node1&#45;&gt;Node6</title>
<g id="a_edge5_Node000001_Node000006"><a xlink:title=" ">
<path fill="none" stroke="#63b8ff" d="M407.99,-73.55C462.14,-61.67 536.78,-45.28 591.78,-33.21"/>
<polygon fill="#63b8ff" stroke="#63b8ff" points="592.36,-36.67 601.38,-31.1 590.86,-29.83 592.36,-36.67"/>
</a>
</g>
</g>
</g>
</svg>
