<?xml version="1.0" encoding="UTF-8" standalone="no"?>
<!DOCTYPE svg PUBLIC "-//W3C//DTD SVG 1.1//EN"
 "http://www.w3.org/Graphics/SVG/1.1/DTD/svg11.dtd">
<!-- Generated by graphviz version 12.2.1 (20241206.2353)
 -->
<!-- Title: src/main/java/fr/softsf/sudokufx/viewmodel/state/PlayerStateHolder.java Pages: 1 -->
<svg width="1292pt" height="120pt"
 viewBox="0.00 0.00 1292.25 120.00" xmlns="http://www.w3.org/2000/svg" xmlns:xlink="http://www.w3.org/1999/xlink">
<g id="graph0" class="graph" transform="scale(1 1) rotate(0) translate(4 116)">
<title>src/main/java/fr/softsf/sudokufx/viewmodel/state/InMemoryPlayer.java</title>
<!-- Node1 -->
<g id="Node000001" class="node">
<title>Node1</title>
<g id="a_Node000001"><a xlink:title=" ">
<polygon fill="#999999" stroke="#666666" points="679.75,-112 546.75,-112 546.75,-68 679.75,-68 679.75,-112"/>
<text text-anchor="start" x="554.75" y="-98.5" font-family="Helvetica,sans-Serif" font-size="10.00">src/main/java/fr/softsf</text>
<text text-anchor="start" x="554.75" y="-86.5" font-family="Helvetica,sans-Serif" font-size="10.00">/sudokufx/viewmodel/state</text>
<text text-anchor="middle" x="613.25" y="-74.5" font-family="Helvetica,sans-Serif" font-size="10.00">/InMemoryPlayer.java</text>
</a>
</g>
</g>
<!-- Node2 -->
<g id="Node000002" class="node">
<title>Node2</title>
<g id="a_Node000002"><a xlink:title=" ">
<polygon fill="#e0e0e0" stroke="#999999" points="86.5,-26 0,-26 0,-6 86.5,-6 86.5,-26"/>
<text text-anchor="middle" x="43.25" y="-12.5" font-family="Helvetica,sans-Serif" font-size="10.00">java.util.Objects</text>
</a>
</g>
</g>
<!-- Node1&#45;&gt;Node2 -->
<g id="edge1_Node000001_Node000002" class="edge">
<title>Node1&#45;&gt;Node2</title>
<g id="a_edge1_Node000001_Node000002"><a xlink:title=" ">
<path fill="none" stroke="#63b8ff" d="M546.46,-85.32C447.26,-79.02 255.45,-63.68 95.25,-32 91.45,-31.25 87.52,-30.35 83.61,-29.37"/>
<polygon fill="#63b8ff" stroke="#63b8ff" points="84.76,-26.06 74.2,-26.85 82.95,-32.82 84.76,-26.06"/>
</a>
</g>
</g>
<!-- Node3 -->
<g id="Node000003" class="node">
<title>Node3</title>
<g id="a_Node000003"><a xlink:title=" ">
<polygon fill="#e0e0e0" stroke="#999999" points="236,-26 104.5,-26 104.5,-6 236,-6 236,-26"/>
<text text-anchor="middle" x="170.25" y="-12.5" font-family="Helvetica,sans-Serif" font-size="10.00">javafx.application.Platform</text>
</a>
</g>
</g>
<!-- Node1&#45;&gt;Node3 -->
<g id="edge2_Node000001_Node000003" class="edge">
<title>Node1&#45;&gt;Node3</title>
<g id="a_edge2_Node000001_Node000003"><a xlink:title=" ">
<path fill="none" stroke="#63b8ff" d="M546.29,-79.53C472.43,-68.87 350.13,-50.6 245.25,-32 239.28,-30.94 233.06,-29.78 226.87,-28.6"/>
<polygon fill="#63b8ff" stroke="#63b8ff" points="227.77,-25.21 217.29,-26.73 226.43,-32.08 227.77,-25.21"/>
</a>
</g>
</g>
<!-- Node4 -->
<g id="Node000004" class="node">
<title>Node4</title>
<g id="a_Node000004"><a xlink:title=" ">
<polygon fill="#e0e0e0" stroke="#999999" points="394.5,-32 254,-32 254,0 394.5,0 394.5,-32"/>
<text text-anchor="start" x="262" y="-18.5" font-family="Helvetica,sans-Serif" font-size="10.00">javafx.beans.property.Object</text>
<text text-anchor="middle" x="324.25" y="-6.5" font-family="Helvetica,sans-Serif" font-size="10.00">Property</text>
</a>
</g>
</g>
<!-- Node1&#45;&gt;Node4 -->
<g id="edge3_Node000001_Node000004" class="edge">
<title>Node1&#45;&gt;Node4</title>
<g id="a_edge3_Node000001_Node000004"><a xlink:title=" ">
<path fill="none" stroke="#63b8ff" d="M546.58,-72.39C501.92,-61.27 443.13,-46.62 397.21,-35.18"/>
<polygon fill="#63b8ff" stroke="#63b8ff" points="398.15,-31.81 387.6,-32.78 396.46,-38.6 398.15,-31.81"/>
</a>
</g>
</g>
<!-- Node5 -->
<g id="Node000005" class="node">
<title>Node5</title>
<g id="a_Node000005"><a xlink:title=" ">
<polygon fill="#e0e0e0" stroke="#999999" points="554.25,-32 412.25,-32 412.25,0 554.25,0 554.25,-32"/>
<text text-anchor="start" x="420.25" y="-18.5" font-family="Helvetica,sans-Serif" font-size="10.00">javafx.beans.property.Simple</text>
<text text-anchor="middle" x="483.25" y="-6.5" font-family="Helvetica,sans-Serif" font-size="10.00">ObjectProperty</text>
</a>
</g>
</g>
<!-- Node1&#45;&gt;Node5 -->
<g id="edge4_Node000001_Node000005" class="edge">
<title>Node1&#45;&gt;Node5</title>
<g id="a_edge4_Node000001_Node000005"><a xlink:title=" ">
<path fill="none" stroke="#63b8ff" d="M574.6,-67.59C557.74,-58.26 538.03,-47.34 521.25,-38.05"/>
<polygon fill="#63b8ff" stroke="#63b8ff" points="523,-35.01 512.55,-33.23 519.6,-41.14 523,-35.01"/>
</a>
</g>
</g>
<!-- Node6 -->
<g id="Node000006" class="node">
<title>Node6</title>
<g id="a_Node000006"><a xlink:title=" ">
<polygon fill="#e0e0e0" stroke="#999999" points="654.62,-26 571.88,-26 571.88,-6 654.62,-6 654.62,-26"/>
<text text-anchor="middle" x="613.25" y="-12.5" font-family="Helvetica,sans-Serif" font-size="10.00">org.slf4j.Logger</text>
</a>
</g>
</g>
<!-- Node1&#45;&gt;Node6 -->
<g id="edge5_Node000001_Node000006" class="edge">
<title>Node1&#45;&gt;Node6</title>
<g id="a_edge5_Node000001_Node000006"><a xlink:title=" ">
<path fill="none" stroke="#63b8ff" d="M613.25,-67.79C613.25,-58.32 613.25,-47.2 613.25,-37.78"/>
<polygon fill="#63b8ff" stroke="#63b8ff" points="616.75,-37.82 613.25,-27.82 609.75,-37.82 616.75,-37.82"/>
</a>
</g>
</g>
<!-- Node7 -->
<g id="Node000007" class="node">
<title>Node7</title>
<g id="a_Node000007"><a xlink:title=" ">
<polygon fill="#e0e0e0" stroke="#999999" points="788.12,-26 672.38,-26 672.38,-6 788.12,-6 788.12,-26"/>
<text text-anchor="middle" x="730.25" y="-12.5" font-family="Helvetica,sans-Serif" font-size="10.00">org.slf4j.LoggerFactory</text>
</a>
</g>
</g>
<!-- Node1&#45;&gt;Node7 -->
<g id="edge6_Node000001_Node000007" class="edge">
<title>Node1&#45;&gt;Node7</title>
<g id="a_edge6_Node000001_Node000007"><a xlink:title=" ">
<path fill="none" stroke="#63b8ff" d="M648.04,-67.59C666.45,-56.26 688.62,-42.62 705.3,-32.35"/>
<polygon fill="#63b8ff" stroke="#63b8ff" points="706.93,-35.46 713.61,-27.24 703.26,-29.5 706.93,-35.46"/>
</a>
</g>
</g>
<!-- Node8 -->
<g id="Node000008" class="node">
<title>Node8</title>
<g id="a_Node000008"><a xlink:title=" ">
<polygon fill="#e0e0e0" stroke="#999999" points="962.38,-32 806.12,-32 806.12,0 962.38,0 962.38,-32"/>
<text text-anchor="start" x="814.12" y="-18.5" font-family="Helvetica,sans-Serif" font-size="10.00">org.springframework.stereotype.</text>
<text text-anchor="middle" x="884.25" y="-6.5" font-family="Helvetica,sans-Serif" font-size="10.00">Component</text>
</a>
</g>
</g>
<!-- Node1&#45;&gt;Node8 -->
<g id="edge7_Node000001_Node000008" class="edge">
<title>Node1&#45;&gt;Node8</title>
<g id="a_edge7_Node000001_Node000008"><a xlink:title=" ">
<path fill="none" stroke="#63b8ff" d="M680.24,-71.2C721.3,-60.29 773.76,-46.36 815.19,-35.35"/>
<polygon fill="#63b8ff" stroke="#63b8ff" points="816.07,-38.74 824.83,-32.79 814.27,-31.97 816.07,-38.74"/>
</a>
</g>
</g>
<!-- Node9 -->
<g id="Node000009" class="node">
<title>Node9</title>
<g id="a_Node000009"><a xlink:title=" ">
<polygon fill="#e0e0e0" stroke="#999999" points="1136,-26 980.5,-26 980.5,-6 1136,-6 1136,-26"/>
<text text-anchor="middle" x="1058.25" y="-12.5" font-family="Helvetica,sans-Serif" font-size="10.00">fr.softsf.sudokufx.dto.PlayerDto</text>
</a>
</g>
</g>
<!-- Node1&#45;&gt;Node9 -->
<g id="edge8_Node000001_Node000009" class="edge">
<title>Node1&#45;&gt;Node9</title>
<g id="a_edge8_Node000001_Node000009"><a xlink:title=" ">
<path fill="none" stroke="#63b8ff" d="M679.93,-78.65C751.86,-67.41 869.74,-48.83 971.25,-32 978.2,-30.85 985.45,-29.63 992.68,-28.4"/>
<polygon fill="#63b8ff" stroke="#63b8ff" points="993.21,-31.86 1002.48,-26.72 992.03,-24.96 993.21,-31.86"/>
</a>
</g>
</g>
<!-- Node10 -->
<g id="Node000010" class="node">
<title>Node10</title>
<g id="a_Node000010"><a xlink:title=" ">
<polygon fill="#e0e0e0" stroke="#999999" points="1284.25,-32 1154.25,-32 1154.25,0 1284.25,0 1284.25,-32"/>
<text text-anchor="start" x="1162.25" y="-18.5" font-family="Helvetica,sans-Serif" font-size="10.00">fr.softsf.sudokufx.service.</text>
<text text-anchor="middle" x="1219.25" y="-6.5" font-family="Helvetica,sans-Serif" font-size="10.00">PlayerService</text>
</a>
</g>
</g>
<!-- Node1&#45;&gt;Node10 -->
<g id="edge9_Node000001_Node000010" class="edge">
<title>Node1&#45;&gt;Node10</title>
<g id="a_edge9_Node000001_Node000010"><a xlink:title=" ">
<path fill="none" stroke="#63b8ff" d="M679.86,-83.87C778.69,-75.82 970.18,-58.52 1142.61,-32.32"/>
<polygon fill="#63b8ff" stroke="#63b8ff" points="1143.09,-35.79 1152.44,-30.81 1142.03,-28.87 1143.09,-35.79"/>
</a>
</g>
</g>
</g>
</svg>
