<?xml version="1.0" encoding="UTF-8" standalone="no"?>
<!DOCTYPE svg PUBLIC "-//W3C//DTD SVG 1.1//EN"
 "http://www.w3.org/Graphics/SVG/1.1/DTD/svg11.dtd">
<!-- Generated by graphviz version 12.2.1 (20241206.2353)
 -->
<!-- Title: src/test/java/fr/softsf/sudokufx/config/JVMApplicationPropertiesUTest.java Pages: 1 -->
<svg width="776pt" height="120pt"
 viewBox="0.00 0.00 775.50 120.00" xmlns="http://www.w3.org/2000/svg" xmlns:xlink="http://www.w3.org/1999/xlink">
<g id="page0,1_graph0" class="graph" transform="scale(1 1) rotate(0) translate(4 116)">
<title>src/test/java/fr/softsf/sudokufx/config/JVMApplicationPropertiesUTest.java</title>
<!-- Node1 -->
<g id="Node000001" class="node">
<title>Node1</title>
<g id="a_Node000001"><a xlink:title=" ">
<polygon fill="#999999" stroke="#666666" points="429.25,-112 270,-112 270,-68 429.25,-68 429.25,-112"/>
<text text-anchor="start" x="278" y="-98.5" font-family="Helvetica,sans-Serif" font-size="10.00">src/test/java/fr/softsf</text>
<text text-anchor="start" x="278" y="-86.5" font-family="Helvetica,sans-Serif" font-size="10.00">/sudokufx/config/JVMApplication</text>
<text text-anchor="middle" x="349.62" y="-74.5" font-family="Helvetica,sans-Serif" font-size="10.00">PropertiesUTest.java</text>
</a>
</g>
</g>
<!-- Node2 -->
<g id="Node000002" class="node">
<title>Node2</title>
<g id="a_Node000002"><a xlink:title=" ">
<polygon fill="#e0e0e0" stroke="#999999" points="117.25,-26 0,-26 0,-6 117.25,-6 117.25,-26"/>
<text text-anchor="middle" x="58.62" y="-12.5" font-family="Helvetica,sans-Serif" font-size="10.00">org.junit.jupiter.api.Test</text>
</a>
</g>
</g>
<!-- Node1&#45;&gt;Node2 -->
<g id="edge1_Node000001_Node000002" class="edge">
<title>Node1&#45;&gt;Node2</title>
<g id="a_edge1_Node000001_Node000002"><a xlink:title=" ">
<path fill="none" stroke="#63b8ff" d="M269.72,-69.23C217.87,-56.4 151.96,-40.09 107.7,-29.14"/>
<polygon fill="#63b8ff" stroke="#63b8ff" points="108.68,-25.78 98.13,-26.77 106.99,-32.57 108.68,-25.78"/>
</a>
</g>
</g>
<!-- Node3 -->
<g id="Node000003" class="node">
<title>Node3</title>
<g id="a_Node000003"><a xlink:title=" ">
<polygon fill="#e0e0e0" stroke="#999999" points="253.62,-32 135.62,-32 135.62,0 253.62,0 253.62,-32"/>
<text text-anchor="start" x="143.62" y="-18.5" font-family="Helvetica,sans-Serif" font-size="10.00">org.junit.jupiter.params.</text>
<text text-anchor="middle" x="194.62" y="-6.5" font-family="Helvetica,sans-Serif" font-size="10.00">ParameterizedTest</text>
</a>
</g>
</g>
<!-- Node1&#45;&gt;Node3 -->
<g id="edge2_Node000001_Node000003" class="edge">
<title>Node1&#45;&gt;Node3</title>
<g id="a_edge2_Node000001_Node000003"><a xlink:title=" ">
<path fill="none" stroke="#63b8ff" d="M303.54,-67.59C282.87,-57.99 258.61,-46.72 238.24,-37.26"/>
<polygon fill="#63b8ff" stroke="#63b8ff" points="239.9,-34.17 229.36,-33.13 236.95,-40.52 239.9,-34.17"/>
</a>
</g>
</g>
<!-- Node4 -->
<g id="Node000004" class="node">
<title>Node4</title>
<g id="a_Node000004"><a xlink:title=" ">
<polygon fill="#e0e0e0" stroke="#999999" points="427.38,-32 271.88,-32 271.88,0 427.38,0 427.38,-32"/>
<text text-anchor="start" x="279.88" y="-18.5" font-family="Helvetica,sans-Serif" font-size="10.00">org.junit.jupiter.params.provider.</text>
<text text-anchor="middle" x="349.62" y="-6.5" font-family="Helvetica,sans-Serif" font-size="10.00">ValueSource</text>
</a>
</g>
</g>
<!-- Node1&#45;&gt;Node4 -->
<g id="edge3_Node000001_Node000004" class="edge">
<title>Node1&#45;&gt;Node4</title>
<g id="a_edge3_Node000001_Node000004"><a xlink:title=" ">
<path fill="none" stroke="#63b8ff" d="M349.62,-67.79C349.62,-60.18 349.62,-51.52 349.62,-43.52"/>
<polygon fill="#63b8ff" stroke="#63b8ff" points="353.13,-43.64 349.63,-33.64 346.13,-43.64 353.13,-43.64"/>
</a>
</g>
</g>
<!-- Node5 -->
<g id="Node000005" class="node">
<title>Node5</title>
<g id="a_Node000005"><a xlink:title=" ">
<polygon fill="#e0e0e0" stroke="#999999" points="597.5,-32 445.75,-32 445.75,0 597.5,0 597.5,-32"/>
<text text-anchor="start" x="453.75" y="-18.5" font-family="Helvetica,sans-Serif" font-size="10.00">fr.softsf.sudokufx.common.util.</text>
<text text-anchor="middle" x="521.62" y="-6.5" font-family="Helvetica,sans-Serif" font-size="10.00">MyRegex</text>
</a>
</g>
</g>
<!-- Node1&#45;&gt;Node5 -->
<g id="edge4_Node000001_Node000005" class="edge">
<title>Node1&#45;&gt;Node5</title>
<g id="a_edge4_Node000001_Node000005"><a xlink:title=" ">
<path fill="none" stroke="#63b8ff" d="M400.76,-67.59C424.02,-57.86 451.36,-46.41 474.16,-36.87"/>
<polygon fill="#63b8ff" stroke="#63b8ff" points="475.34,-40.17 483.21,-33.08 472.64,-33.71 475.34,-40.17"/>
</a>
</g>
</g>
<!-- Node6 -->
<g id="Node000006" class="node">
<title>Node6</title>
<g id="a_Node000006"><a xlink:title=" ">
<polygon fill="#e0e0e0" stroke="#999999" points="767.5,-26 615.75,-26 615.75,-6 767.5,-6 767.5,-26"/>
<text text-anchor="middle" x="691.62" y="-12.5" font-family="Helvetica,sans-Serif" font-size="10.00">org.junit.jupiter.api.Assertions.*</text>
</a>
</g>
</g>
<!-- Node1&#45;&gt;Node6 -->
<g id="edge5_Node000001_Node000006" class="edge">
<title>Node1&#45;&gt;Node6</title>
<g id="a_edge5_Node000001_Node000006"><a xlink:title=" ">
<path fill="none" stroke="#63b8ff" d="M429.38,-72.21C492.71,-58.88 579.67,-40.57 635.76,-28.76"/>
<polygon fill="#63b8ff" stroke="#63b8ff" points="636.35,-32.21 645.42,-26.73 634.91,-25.36 636.35,-32.21"/>
</a>
</g>
</g>
</g>
</svg>
