<?xml version="1.0" encoding="UTF-8" standalone="no"?>
<!DOCTYPE svg PUBLIC "-//W3C//DTD SVG 1.1//EN"
 "http://www.w3.org/Graphics/SVG/1.1/DTD/svg11.dtd">
<!-- Generated by graphviz version 12.2.1 (20241206.2353)
 -->
<!-- Title: src/main/java/fr/softsf/sudokufx/common/util/LocalUserDataPurger.java Pages: 1 -->
<svg width="882pt" height="120pt"
 viewBox="0.00 0.00 881.88 120.00" xmlns="http://www.w3.org/2000/svg" xmlns:xlink="http://www.w3.org/1999/xlink">
<g id="graph0" class="graph" transform="scale(1 1) rotate(0) translate(4 116)">
<title>src/main/java/fr/softsf/sudokufx/common/util/LocalUserDataPurger.java</title>
<!-- Node1 -->
<g id="Node000001" class="node">
<title>Node1</title>
<g id="a_Node000001"><a xlink:title=" ">
<polygon fill="#999999" stroke="#666666" points="461.62,-112 327.88,-112 327.88,-68 461.62,-68 461.62,-112"/>
<text text-anchor="start" x="335.88" y="-98.5" font-family="Helvetica,sans-Serif" font-size="10.00">src/main/java/fr/softsf</text>
<text text-anchor="start" x="335.88" y="-86.5" font-family="Helvetica,sans-Serif" font-size="10.00">/sudokufx/common/util</text>
<text text-anchor="middle" x="394.75" y="-74.5" font-family="Helvetica,sans-Serif" font-size="10.00">/LocalUserDataPurger.java</text>
</a>
</g>
</g>
<!-- Node2 -->
<g id="Node000002" class="node">
<title>Node2</title>
<g id="a_Node000002"><a xlink:title=" ">
<polygon fill="#e0e0e0" stroke="#999999" points="89.5,-26 0,-26 0,-6 89.5,-6 89.5,-26"/>
<text text-anchor="middle" x="44.75" y="-12.5" font-family="Helvetica,sans-Serif" font-size="10.00">java.nio.file.Files</text>
</a>
</g>
</g>
<!-- Node1&#45;&gt;Node2 -->
<g id="edge1_Node000001_Node000002" class="edge">
<title>Node1&#45;&gt;Node2</title>
<g id="a_edge1_Node000001_Node000002"><a xlink:title=" ">
<path fill="none" stroke="#63b8ff" d="M327.41,-77.63C267.2,-67.09 176.7,-50.3 98.75,-32 95.25,-31.18 91.63,-30.28 88,-29.34"/>
<polygon fill="#63b8ff" stroke="#63b8ff" points="89.22,-26.05 78.66,-26.86 87.42,-32.81 89.22,-26.05"/>
</a>
</g>
</g>
<!-- Node3 -->
<g id="Node000003" class="node">
<title>Node3</title>
<g id="a_Node000003"><a xlink:title=" ">
<polygon fill="#e0e0e0" stroke="#999999" points="196.12,-26 107.38,-26 107.38,-6 196.12,-6 196.12,-26"/>
<text text-anchor="middle" x="151.75" y="-12.5" font-family="Helvetica,sans-Serif" font-size="10.00">java.nio.file.Path</text>
</a>
</g>
</g>
<!-- Node1&#45;&gt;Node3 -->
<g id="edge2_Node000001_Node000003" class="edge">
<title>Node1&#45;&gt;Node3</title>
<g id="a_edge2_Node000001_Node000003"><a xlink:title=" ">
<path fill="none" stroke="#63b8ff" d="M327.38,-69.04C284.87,-56.44 231.24,-40.55 194.49,-29.66"/>
<polygon fill="#63b8ff" stroke="#63b8ff" points="195.7,-26.37 185.11,-26.89 193.71,-33.08 195.7,-26.37"/>
</a>
</g>
</g>
<!-- Node4 -->
<g id="Node000004" class="node">
<title>Node4</title>
<g id="a_Node000004"><a xlink:title=" ">
<polygon fill="#e0e0e0" stroke="#999999" points="317.62,-26 213.88,-26 213.88,-6 317.62,-6 317.62,-26"/>
<text text-anchor="middle" x="265.75" y="-12.5" font-family="Helvetica,sans-Serif" font-size="10.00">java.util.Comparator</text>
</a>
</g>
</g>
<!-- Node1&#45;&gt;Node4 -->
<g id="edge3_Node000001_Node000004" class="edge">
<title>Node1&#45;&gt;Node4</title>
<g id="a_edge3_Node000001_Node000004"><a xlink:title=" ">
<path fill="none" stroke="#63b8ff" d="M356.4,-67.59C335.81,-56.1 310.95,-42.23 292.48,-31.92"/>
<polygon fill="#63b8ff" stroke="#63b8ff" points="294.44,-29 284,-27.19 291.03,-35.12 294.44,-29"/>
</a>
</g>
</g>
<!-- Node5 -->
<g id="Node000005" class="node">
<title>Node5</title>
<g id="a_Node000005"><a xlink:title=" ">
<polygon fill="#e0e0e0" stroke="#999999" points="453.38,-26 336.12,-26 336.12,-6 453.38,-6 453.38,-26"/>
<text text-anchor="middle" x="394.75" y="-12.5" font-family="Helvetica,sans-Serif" font-size="10.00">java.util.stream.Stream</text>
</a>
</g>
</g>
<!-- Node1&#45;&gt;Node5 -->
<g id="edge4_Node000001_Node000005" class="edge">
<title>Node1&#45;&gt;Node5</title>
<g id="a_edge4_Node000001_Node000005"><a xlink:title=" ">
<path fill="none" stroke="#63b8ff" d="M394.75,-67.79C394.75,-58.32 394.75,-47.2 394.75,-37.78"/>
<polygon fill="#63b8ff" stroke="#63b8ff" points="398.25,-37.82 394.75,-27.82 391.25,-37.82 398.25,-37.82"/>
</a>
</g>
</g>
<!-- Node6 -->
<g id="Node000006" class="node">
<title>Node6</title>
<g id="a_Node000006"><a xlink:title=" ">
<polygon fill="#e0e0e0" stroke="#999999" points="554.12,-26 471.38,-26 471.38,-6 554.12,-6 554.12,-26"/>
<text text-anchor="middle" x="512.75" y="-12.5" font-family="Helvetica,sans-Serif" font-size="10.00">org.slf4j.Logger</text>
</a>
</g>
</g>
<!-- Node1&#45;&gt;Node6 -->
<g id="edge5_Node000001_Node000006" class="edge">
<title>Node1&#45;&gt;Node6</title>
<g id="a_edge5_Node000001_Node000006"><a xlink:title=" ">
<path fill="none" stroke="#63b8ff" d="M429.83,-67.59C448.4,-56.26 470.77,-42.62 487.59,-32.35"/>
<polygon fill="#63b8ff" stroke="#63b8ff" points="489.26,-35.43 495.97,-27.24 485.61,-29.46 489.26,-35.43"/>
</a>
</g>
</g>
<!-- Node7 -->
<g id="Node000007" class="node">
<title>Node7</title>
<g id="a_Node000007"><a xlink:title=" ">
<polygon fill="#e0e0e0" stroke="#999999" points="687.62,-26 571.88,-26 571.88,-6 687.62,-6 687.62,-26"/>
<text text-anchor="middle" x="629.75" y="-12.5" font-family="Helvetica,sans-Serif" font-size="10.00">org.slf4j.LoggerFactory</text>
</a>
</g>
</g>
<!-- Node1&#45;&gt;Node7 -->
<g id="edge6_Node000001_Node000007" class="edge">
<title>Node1&#45;&gt;Node7</title>
<g id="a_edge6_Node000001_Node000007"><a xlink:title=" ">
<path fill="none" stroke="#63b8ff" d="M462.09,-68.37C502.72,-55.92 553.21,-40.45 588.1,-29.76"/>
<polygon fill="#63b8ff" stroke="#63b8ff" points="588.87,-33.19 597.4,-26.91 586.82,-26.49 588.87,-33.19"/>
</a>
</g>
</g>
<!-- Node8 -->
<g id="Node000008" class="node">
<title>Node8</title>
<g id="a_Node000008"><a xlink:title=" ">
<polygon fill="#e0e0e0" stroke="#999999" points="873.88,-32 705.62,-32 705.62,0 873.88,0 873.88,-32"/>
<text text-anchor="start" x="713.62" y="-18.5" font-family="Helvetica,sans-Serif" font-size="10.00">fr.softsf.sudokufx.common.enums.</text>
<text text-anchor="middle" x="789.75" y="-6.5" font-family="Helvetica,sans-Serif" font-size="10.00">AppPaths.DATA_FOLDER</text>
</a>
</g>
</g>
<!-- Node1&#45;&gt;Node8 -->
<g id="edge7_Node000001_Node000008" class="edge">
<title>Node1&#45;&gt;Node8</title>
<g id="a_edge7_Node000001_Node000008"><a xlink:title=" ">
<path fill="none" stroke="#63b8ff" d="M461.76,-76.79C525.48,-65.17 622.01,-47.58 693.87,-34.48"/>
<polygon fill="#63b8ff" stroke="#63b8ff" points="694.48,-37.92 703.69,-32.69 693.23,-31.04 694.48,-37.92"/>
</a>
</g>
</g>
</g>
</svg>
