<?xml version="1.0" encoding="UTF-8" standalone="no"?>
<!DOCTYPE svg PUBLIC "-//W3C//DTD SVG 1.1//EN"
 "http://www.w3.org/Graphics/SVG/1.1/DTD/svg11.dtd">
<!-- Generated by graphviz version 12.2.1 (20241206.2353)
 -->
<!-- Title: src/main/java/fr/softsf/sudokufx/viewmodel/MenuPlayerViewModel.java Pages: 1 -->
<svg width="2641pt" height="120pt"
 viewBox="0.00 0.00 2641.38 120.00" xmlns="http://www.w3.org/2000/svg" xmlns:xlink="http://www.w3.org/1999/xlink">
<g id="graph0" class="graph" transform="scale(1 1) rotate(0) translate(4 116)">
<title>src/main/java/fr/softsf/sudokufx/viewmodel/MenuPlayerViewModel.java</title>
<!-- Node1 -->
<g id="Node000001" class="node">
<title>Node1</title>
<g id="a_Node000001"><a xlink:title=" ">
<polygon fill="#999999" stroke="#666666" points="1293,-112 1130,-112 1130,-68 1293,-68 1293,-112"/>
<text text-anchor="start" x="1138" y="-98.5" font-family="Helvetica,sans-Serif" font-size="10.00">src/main/java/fr/softsf</text>
<text text-anchor="start" x="1138" y="-86.5" font-family="Helvetica,sans-Serif" font-size="10.00">/sudokufx/viewmodel/MenuPlayer</text>
<text text-anchor="middle" x="1211.5" y="-74.5" font-family="Helvetica,sans-Serif" font-size="10.00">ViewModel.java</text>
</a>
</g>
</g>
<!-- Node2 -->
<g id="Node000002" class="node">
<title>Node2</title>
<g id="a_Node000002"><a xlink:title=" ">
<polygon fill="#e0e0e0" stroke="#999999" points="127,-26 0,-26 0,-6 127,-6 127,-26"/>
<text text-anchor="middle" x="63.5" y="-12.5" font-family="Helvetica,sans-Serif" font-size="10.00">java.text.MessageFormat</text>
</a>
</g>
</g>
<!-- Node1&#45;&gt;Node2 -->
<g id="edge1_Node000001_Node000002" class="edge">
<title>Node1&#45;&gt;Node2</title>
<g id="a_edge1_Node000001_Node000002"><a xlink:title=" ">
<path fill="none" stroke="#63b8ff" d="M1129.53,-88.83C949.23,-87.53 504.92,-79.35 136.5,-32 129.68,-31.12 122.54,-29.96 115.51,-28.68"/>
<polygon fill="#63b8ff" stroke="#63b8ff" points="116.21,-25.25 105.73,-26.78 114.88,-32.12 116.21,-25.25"/>
</a>
</g>
</g>
<!-- Node3 -->
<g id="Node000003" class="node">
<title>Node3</title>
<g id="a_Node000003"><a xlink:title=" ">
<polygon fill="#e0e0e0" stroke="#999999" points="233.88,-26 145.12,-26 145.12,-6 233.88,-6 233.88,-26"/>
<text text-anchor="middle" x="189.5" y="-12.5" font-family="Helvetica,sans-Serif" font-size="10.00">java.time.Instant</text>
</a>
</g>
</g>
<!-- Node1&#45;&gt;Node3 -->
<g id="edge2_Node000001_Node000003" class="edge">
<title>Node1&#45;&gt;Node3</title>
<g id="a_edge2_Node000001_Node000003"><a xlink:title=" ">
<path fill="none" stroke="#63b8ff" d="M1129.52,-86.47C927.94,-79.87 412.2,-60.66 242.5,-32 238.34,-31.3 234.04,-30.39 229.78,-29.38"/>
<polygon fill="#63b8ff" stroke="#63b8ff" points="230.7,-26 220.14,-26.86 228.94,-32.77 230.7,-26"/>
</a>
</g>
</g>
<!-- Node4 -->
<g id="Node000004" class="node">
<title>Node4</title>
<g id="a_Node000004"><a xlink:title=" ">
<polygon fill="#e0e0e0" stroke="#999999" points="377.25,-26 251.75,-26 251.75,-6 377.25,-6 377.25,-26"/>
<text text-anchor="middle" x="314.5" y="-12.5" font-family="Helvetica,sans-Serif" font-size="10.00">java.util.function.Supplier</text>
</a>
</g>
</g>
<!-- Node1&#45;&gt;Node4 -->
<g id="edge3_Node000001_Node000004" class="edge">
<title>Node1&#45;&gt;Node4</title>
<g id="a_edge3_Node000001_Node000004"><a xlink:title=" ">
<path fill="none" stroke="#63b8ff" d="M1129.74,-87.04C981.13,-82.67 657.08,-69.35 386.5,-32 379.94,-31.09 373.08,-29.94 366.31,-28.67"/>
<polygon fill="#63b8ff" stroke="#63b8ff" points="367.05,-25.25 356.56,-26.75 365.7,-32.12 367.05,-25.25"/>
</a>
</g>
</g>
<!-- Node5 -->
<g id="Node000005" class="node">
<title>Node5</title>
<g id="a_Node000005"><a xlink:title=" ">
<polygon fill="#e0e0e0" stroke="#999999" points="541.38,-26 395.62,-26 395.62,-6 541.38,-6 541.38,-26"/>
<text text-anchor="middle" x="468.5" y="-12.5" font-family="Helvetica,sans-Serif" font-size="10.00">javafx.beans.binding.Bindings</text>
</a>
</g>
</g>
<!-- Node1&#45;&gt;Node5 -->
<g id="edge4_Node000001_Node000005" class="edge">
<title>Node1&#45;&gt;Node5</title>
<g id="a_edge4_Node000001_Node000005"><a xlink:title=" ">
<path fill="none" stroke="#63b8ff" d="M1129.56,-84.44C1004.37,-76.91 758.13,-59.88 550.5,-32 542.98,-30.99 535.11,-29.77 527.33,-28.46"/>
<polygon fill="#63b8ff" stroke="#63b8ff" points="528.02,-25.02 517.57,-26.75 526.82,-31.92 528.02,-25.02"/>
</a>
</g>
</g>
<!-- Node6 -->
<g id="Node000006" class="node">
<title>Node6</title>
<g id="a_Node000006"><a xlink:title=" ">
<polygon fill="#e0e0e0" stroke="#999999" points="693.38,-32 559.62,-32 559.62,0 693.38,0 693.38,-32"/>
<text text-anchor="start" x="567.62" y="-18.5" font-family="Helvetica,sans-Serif" font-size="10.00">javafx.beans.binding.String</text>
<text text-anchor="middle" x="626.5" y="-6.5" font-family="Helvetica,sans-Serif" font-size="10.00">Binding</text>
</a>
</g>
</g>
<!-- Node1&#45;&gt;Node6 -->
<g id="edge5_Node000001_Node000006" class="edge">
<title>Node1&#45;&gt;Node6</title>
<g id="a_edge5_Node000001_Node000006"><a xlink:title=" ">
<path fill="none" stroke="#63b8ff" d="M1129.68,-81.95C1031.24,-73 860.78,-55.99 704.79,-32.27"/>
<polygon fill="#63b8ff" stroke="#63b8ff" points="705.49,-28.84 695.08,-30.78 704.43,-35.76 705.49,-28.84"/>
</a>
</g>
</g>
<!-- Node7 -->
<g id="Node000007" class="node">
<title>Node7</title>
<g id="a_Node000007"><a xlink:title=" ">
<polygon fill="#e0e0e0" stroke="#999999" points="851.75,-32 711.25,-32 711.25,0 851.75,0 851.75,-32"/>
<text text-anchor="start" x="719.25" y="-18.5" font-family="Helvetica,sans-Serif" font-size="10.00">javafx.beans.property.Object</text>
<text text-anchor="middle" x="781.5" y="-6.5" font-family="Helvetica,sans-Serif" font-size="10.00">Property</text>
</a>
</g>
</g>
<!-- Node1&#45;&gt;Node7 -->
<g id="edge6_Node000001_Node000007" class="edge">
<title>Node1&#45;&gt;Node7</title>
<g id="a_edge6_Node000001_Node000007"><a xlink:title=" ">
<path fill="none" stroke="#63b8ff" d="M1129.83,-76.37C1061.27,-65.62 960.43,-49.47 863.33,-32.47"/>
<polygon fill="#63b8ff" stroke="#63b8ff" points="864.06,-29.05 853.61,-30.77 862.85,-35.94 864.06,-29.05"/>
</a>
</g>
</g>
<!-- Node8 -->
<g id="Node000008" class="node">
<title>Node8</title>
<g id="a_Node000008"><a xlink:title=" ">
<polygon fill="#e0e0e0" stroke="#999999" points="1025.62,-26 869.38,-26 869.38,-6 1025.62,-6 1025.62,-26"/>
<text text-anchor="middle" x="947.5" y="-12.5" font-family="Helvetica,sans-Serif" font-size="10.00">javafx.collections.FXCollections</text>
</a>
</g>
</g>
<!-- Node1&#45;&gt;Node8 -->
<g id="edge7_Node000001_Node000008" class="edge">
<title>Node1&#45;&gt;Node8</title>
<g id="a_edge7_Node000001_Node000008"><a xlink:title=" ">
<path fill="none" stroke="#63b8ff" d="M1133.01,-67.59C1087.35,-55.14 1031.43,-39.89 992.99,-29.41"/>
<polygon fill="#63b8ff" stroke="#63b8ff" points="994.17,-26.1 983.6,-26.85 992.33,-32.85 994.17,-26.1"/>
</a>
</g>
</g>
<!-- Node9 -->
<g id="Node000009" class="node">
<title>Node9</title>
<g id="a_Node000009"><a xlink:title=" ">
<polygon fill="#e0e0e0" stroke="#999999" points="1203.5,-26 1043.5,-26 1043.5,-6 1203.5,-6 1203.5,-26"/>
<text text-anchor="middle" x="1123.5" y="-12.5" font-family="Helvetica,sans-Serif" font-size="10.00">javafx.collections.ObservableList</text>
</a>
</g>
</g>
<!-- Node1&#45;&gt;Node9 -->
<g id="edge8_Node000001_Node000009" class="edge">
<title>Node1&#45;&gt;Node9</title>
<g id="a_edge8_Node000001_Node000009"><a xlink:title=" ">
<path fill="none" stroke="#63b8ff" d="M1185.57,-67.79C1172.16,-56.81 1156.03,-43.62 1143.58,-33.43"/>
<polygon fill="#63b8ff" stroke="#63b8ff" points="1146.01,-30.89 1136.05,-27.27 1141.58,-36.31 1146.01,-30.89"/>
</a>
</g>
</g>
<!-- Node10 -->
<g id="Node000010" class="node">
<title>Node10</title>
<g id="a_Node000010"><a xlink:title=" ">
<polygon fill="#e0e0e0" stroke="#999999" points="1377.62,-32 1221.38,-32 1221.38,0 1377.62,0 1377.62,-32"/>
<text text-anchor="start" x="1229.38" y="-18.5" font-family="Helvetica,sans-Serif" font-size="10.00">org.springframework.stereotype.</text>
<text text-anchor="middle" x="1299.5" y="-6.5" font-family="Helvetica,sans-Serif" font-size="10.00">Component</text>
</a>
</g>
</g>
<!-- Node1&#45;&gt;Node10 -->
<g id="edge9_Node000001_Node000010" class="edge">
<title>Node1&#45;&gt;Node10</title>
<g id="a_edge9_Node000001_Node000010"><a xlink:title=" ">
<path fill="none" stroke="#63b8ff" d="M1237.43,-67.79C1248.28,-58.91 1260.91,-48.58 1271.93,-39.56"/>
<polygon fill="#63b8ff" stroke="#63b8ff" points="1274.04,-42.35 1279.57,-33.31 1269.61,-36.93 1274.04,-42.35"/>
</a>
</g>
</g>
<!-- Node11 -->
<g id="Node000011" class="node">
<title>Node11</title>
<g id="a_Node000011"><a xlink:title=" ">
<polygon fill="#e0e0e0" stroke="#999999" points="1559,-32 1396,-32 1396,0 1559,0 1559,-32"/>
<text text-anchor="start" x="1404" y="-18.5" font-family="Helvetica,sans-Serif" font-size="10.00">edu.umd.cs.findbugs.annotations.</text>
<text text-anchor="middle" x="1477.5" y="-6.5" font-family="Helvetica,sans-Serif" font-size="10.00">SuppressFBWarnings</text>
</a>
</g>
</g>
<!-- Node1&#45;&gt;Node11 -->
<g id="edge10_Node000001_Node000011" class="edge">
<title>Node1&#45;&gt;Node11</title>
<g id="a_edge10_Node000001_Node000011"><a xlink:title=" ">
<path fill="none" stroke="#63b8ff" d="M1290.59,-67.59C1328.34,-57.37 1373.06,-45.27 1409.3,-35.46"/>
<polygon fill="#63b8ff" stroke="#63b8ff" points="1410.05,-38.88 1418.79,-32.89 1408.22,-32.13 1410.05,-38.88"/>
</a>
</g>
</g>
<!-- Node12 -->
<g id="Node000012" class="node">
<title>Node12</title>
<g id="a_Node000012"><a xlink:title=" ">
<polygon fill="#e0e0e0" stroke="#999999" points="1764,-26 1577,-26 1577,-6 1764,-6 1764,-26"/>
<text text-anchor="middle" x="1670.5" y="-12.5" font-family="Helvetica,sans-Serif" font-size="10.00">fr.softsf.sudokufx.common.enums.I18n</text>
</a>
</g>
</g>
<!-- Node1&#45;&gt;Node12 -->
<g id="edge11_Node000001_Node000012" class="edge">
<title>Node1&#45;&gt;Node12</title>
<g id="a_edge11_Node000001_Node000012"><a xlink:title=" ">
<path fill="none" stroke="#63b8ff" d="M1293.3,-76.17C1380.07,-62.56 1515.82,-41.26 1598.62,-28.28"/>
<polygon fill="#63b8ff" stroke="#63b8ff" points="1599.11,-31.74 1608.44,-26.73 1598.02,-24.83 1599.11,-31.74"/>
</a>
</g>
</g>
<!-- Node13 -->
<g id="Node000013" class="node">
<title>Node13</title>
<g id="a_Node000013"><a xlink:title=" ">
<polygon fill="#e0e0e0" stroke="#999999" points="1933.38,-26 1781.62,-26 1781.62,-6 1933.38,-6 1933.38,-26"/>
<text text-anchor="middle" x="1857.5" y="-12.5" font-family="Helvetica,sans-Serif" font-size="10.00">fr.softsf.sudokufx.dto.MenuDto</text>
</a>
</g>
</g>
<!-- Node1&#45;&gt;Node13 -->
<g id="edge12_Node000001_Node000013" class="edge">
<title>Node1&#45;&gt;Node13</title>
<g id="a_edge12_Node000001_Node000013"><a xlink:title=" ">
<path fill="none" stroke="#63b8ff" d="M1293.17,-82.67C1402.75,-73.72 1603.29,-55.79 1773.5,-32 1781.18,-30.93 1789.23,-29.67 1797.18,-28.34"/>
<polygon fill="#63b8ff" stroke="#63b8ff" points="1797.54,-31.83 1806.8,-26.68 1796.36,-24.93 1797.54,-31.83"/>
</a>
</g>
</g>
<!-- Node14 -->
<g id="Node000014" class="node">
<title>Node14</title>
<g id="a_Node000014"><a xlink:title=" ">
<polygon fill="#e0e0e0" stroke="#999999" points="2113.25,-26 1951.75,-26 1951.75,-6 2113.25,-6 2113.25,-26"/>
<text text-anchor="middle" x="2032.5" y="-12.5" font-family="Helvetica,sans-Serif" font-size="10.00">fr.softsf.sudokufx.dto.OptionsDto</text>
</a>
</g>
</g>
<!-- Node1&#45;&gt;Node14 -->
<g id="edge13_Node000001_Node000014" class="edge">
<title>Node1&#45;&gt;Node14</title>
<g id="a_edge13_Node000001_Node000014"><a xlink:title=" ">
<path fill="none" stroke="#63b8ff" d="M1293.41,-84.95C1428.83,-77.74 1707.79,-60.65 1942.5,-32 1951.12,-30.95 1960.18,-29.66 1969.1,-28.28"/>
<polygon fill="#63b8ff" stroke="#63b8ff" points="1969.44,-31.77 1978.77,-26.74 1968.34,-24.86 1969.44,-31.77"/>
</a>
</g>
</g>
<!-- Node15 -->
<g id="Node000015" class="node">
<title>Node15</title>
<g id="a_Node000015"><a xlink:title=" ">
<polygon fill="#e0e0e0" stroke="#999999" points="2287.25,-26 2131.75,-26 2131.75,-6 2287.25,-6 2287.25,-26"/>
<text text-anchor="middle" x="2209.5" y="-12.5" font-family="Helvetica,sans-Serif" font-size="10.00">fr.softsf.sudokufx.dto.PlayerDto</text>
</a>
</g>
</g>
<!-- Node1&#45;&gt;Node15 -->
<g id="edge14_Node000001_Node000015" class="edge">
<title>Node1&#45;&gt;Node15</title>
<g id="a_edge14_Node000001_Node000015"><a xlink:title=" ">
<path fill="none" stroke="#63b8ff" d="M1293.43,-86.85C1453.32,-81.99 1817.94,-67.68 2122.5,-32 2130.97,-31.01 2139.86,-29.74 2148.6,-28.36"/>
<polygon fill="#63b8ff" stroke="#63b8ff" points="2149.15,-31.82 2158.45,-26.74 2148.02,-24.91 2149.15,-31.82"/>
</a>
</g>
</g>
<!-- Node16 -->
<g id="Node000016" class="node">
<title>Node16</title>
<g id="a_Node000016"><a xlink:title=" ">
<polygon fill="#e0e0e0" stroke="#999999" points="2445.38,-32 2305.62,-32 2305.62,0 2445.38,0 2445.38,-32"/>
<text text-anchor="start" x="2313.62" y="-18.5" font-family="Helvetica,sans-Serif" font-size="10.00">fr.softsf.sudokufx.dto.Player</text>
<text text-anchor="middle" x="2375.5" y="-6.5" font-family="Helvetica,sans-Serif" font-size="10.00">LanguageDto</text>
</a>
</g>
</g>
<!-- Node1&#45;&gt;Node16 -->
<g id="edge15_Node000001_Node000016" class="edge">
<title>Node1&#45;&gt;Node16</title>
<g id="a_edge15_Node000001_Node000016"><a xlink:title=" ">
<path fill="none" stroke="#63b8ff" d="M1293.49,-88.47C1473.15,-86.48 1915.09,-77.14 2294.17,-32.17"/>
<polygon fill="#63b8ff" stroke="#63b8ff" points="2294.35,-35.67 2303.86,-31.01 2293.52,-28.72 2294.35,-35.67"/>
</a>
</g>
</g>
<!-- Node17 -->
<g id="Node000017" class="node">
<title>Node17</title>
<g id="a_Node000017"><a xlink:title=" ">
<polygon fill="#e0e0e0" stroke="#999999" points="2633.38,-32 2463.62,-32 2463.62,0 2633.38,0 2633.38,-32"/>
<text text-anchor="start" x="2471.62" y="-18.5" font-family="Helvetica,sans-Serif" font-size="10.00">fr.softsf.sudokufx.viewmodel.state.</text>
<text text-anchor="middle" x="2548.5" y="-6.5" font-family="Helvetica,sans-Serif" font-size="10.00">PlayerStateHolder</text>
</a>
</g>
</g>
<!-- Node1&#45;&gt;Node17 -->
<g id="edge16_Node000001_Node000017" class="edge">
<title>Node1&#45;&gt;Node17</title>
<g id="a_edge16_Node000001_Node000017"><a xlink:title=" ">
<path fill="none" stroke="#63b8ff" d="M1293.18,-88.43C1490.57,-86.35 2009.28,-76.83 2451.82,-32.19"/>
<polygon fill="#63b8ff" stroke="#63b8ff" points="2452.15,-35.68 2461.74,-31.19 2451.44,-28.72 2452.15,-35.68"/>
</a>
</g>
</g>
</g>
</svg>
