<?xml version="1.0" encoding="UTF-8" standalone="no"?>
<!DOCTYPE svg PUBLIC "-//W3C//DTD SVG 1.1//EN"
 "http://www.w3.org/Graphics/SVG/1.1/DTD/svg11.dtd">
<!-- Generated by graphviz version 12.2.1 (20241206.2353)
 -->
<!-- Title: src/main/java/fr/softsf/sudokufx/viewmodel/MenuOptionsViewModel.java Pages: 1 -->
<!--zoomable 120 -->

<svg id="main" version="1.1" xmlns="http://www.w3.org/2000/svg" xmlns:xlink="http://www.w3.org/1999/xlink" xml:space="preserve" onload="init(evt)">

<style type="text/css"><![CDATA[
.node, .edge {opacity: 0.7;}
.node.selected, .edge.selected {opacity: 1;}
.edge:hover path { stroke: red; }
.edge:hover polygon { stroke: red; fill: red; }
]]></style>

<defs>
  <circle id="rim" cx="0" cy="0" r="7"/>
  <circle id="rim2" cx="0" cy="0" r="3.5"/>
  <g id="zoomPlus">
    <use xlink:href="#rim" fill="#404040"><set attributeName="fill" to="#808080" begin="zoomplus.mouseover" end="zoomplus.mouseout"/></use>
    <path d="M-4,0h8M0,-4v8" fill="none" stroke="white" stroke-width="1.5" pointer-events="none"/>
  </g>
  <g id="zoomMin">
    <use xlink:href="#rim" fill="#404040"><set attributeName="fill" to="#808080" begin="zoomminus.mouseover" end="zoomminus.mouseout"/></use>
    <path d="M-4,0h8" fill="none" stroke="white" stroke-width="1.5" pointer-events="none"/>
  </g>
  <g id="arrowUp" transform="translate(30 24)">
    <use xlink:href="#rim"/>
    <path pointer-events="none" fill="none" stroke="white" stroke-width="1.5" d="M0,-3.0v7 M-2.5,-0.5L0,-3.0L2.5,-0.5"/>
  </g>
  <g id="arrowRight" transform="rotate(90) translate(36 -43)">
    <use xlink:href="#rim"/>
    <path pointer-events="none" fill="none" stroke="white" stroke-width="1.5" d="M0,-3.0v7 M-2.5,-0.5L0,-3.0L2.5,-0.5"/>
  </g>
  <g id="arrowDown" transform="rotate(180) translate(-30 -48)">
    <use xlink:href="#rim"/>
    <path pointer-events="none" fill="none" stroke="white" stroke-width="1.5" d="M0,-3.0v7 M-2.5,-0.5L0,-3.0L2.5,-0.5"/>
  </g>
  <g id="arrowLeft" transform="rotate(270) translate(-36 17)">
    <use xlink:href="#rim"/>
    <path pointer-events="none" fill="none" stroke="white" stroke-width="1.5" d="M0,-3.0v7 M-2.5,-0.5L0,-3.0L2.5,-0.5"/>
  </g>
  <g id="resetDef">
    <use xlink:href="#rim2" fill="#404040"><set attributeName="fill" to="#808080" begin="reset.mouseover" end="reset.mouseout"/></use>
  </g>
</defs>
<script type="application/ecmascript">
var viewWidth = 5213;
var viewHeight = 120;
var sectionId = 'dynsection-0';
</script>
<script type="application/ecmascript" xlink:href="svg.min.js"/>
<svg id="graph" class="graph">
<g id="viewport">
<title>src/main/java/fr/softsf/sudokufx/viewmodel/MenuOptionsViewModel.java</title>
<!-- Node1 -->
<g id="Node000001" class="node">
<title>Node1</title>
<g id="a_Node000001"><a xlink:title=" ">
<polygon fill="#999999" stroke="#666666" points="2495.12,-112 2326.12,-112 2326.12,-68 2495.12,-68 2495.12,-112"/>
<text text-anchor="start" x="2334.12" y="-98.5" font-family="Helvetica,sans-Serif" font-size="10.00">src/main/java/fr/softsf</text>
<text text-anchor="start" x="2334.12" y="-86.5" font-family="Helvetica,sans-Serif" font-size="10.00">/sudokufx/viewmodel/MenuOptions</text>
<text text-anchor="middle" x="2410.62" y="-74.5" font-family="Helvetica,sans-Serif" font-size="10.00">ViewModel.java</text>
</a>
</g>
</g>
<!-- Node2 -->
<g id="Node000002" class="node">
<title>Node2</title>
<g id="a_Node000002"><a xlink:title=" ">
<polygon fill="#e0e0e0" stroke="#999999" points="63.25,-26 0,-26 0,-6 63.25,-6 63.25,-26"/>
<text text-anchor="middle" x="31.62" y="-12.5" font-family="Helvetica,sans-Serif" font-size="10.00">java.io.File</text>
</a>
</g>
</g>
<!-- Node1&#45;&gt;Node2 -->
<g id="edge1_Node000001_Node000002" class="edge">
<title>Node1&#45;&gt;Node2</title>
<g id="a_edge1_Node000001_Node000002"><a xlink:title=" ">
<path fill="none" stroke="#63b8ff" d="M2325.95,-88.57C1933.02,-86.34 297.01,-74.58 72.62,-32 69.82,-31.47 66.96,-30.77 64.11,-29.96"/>
<polygon fill="#63b8ff" stroke="#63b8ff" points="65.41,-26.71 54.82,-26.92 63.23,-33.36 65.41,-26.71"/>
</a>
</g>
</g>
<!-- Node3 -->
<g id="Node000003" class="node">
<title>Node3</title>
<g id="a_Node000003"><a xlink:title=" ">
<polygon fill="#e0e0e0" stroke="#999999" points="175.62,-26 81.62,-26 81.62,-6 175.62,-6 175.62,-26"/>
<text text-anchor="middle" x="128.62" y="-12.5" font-family="Helvetica,sans-Serif" font-size="10.00">java.nio.file.Paths</text>
</a>
</g>
</g>
<!-- Node1&#45;&gt;Node3 -->
<g id="edge2_Node000001_Node000003" class="edge">
<title>Node1&#45;&gt;Node3</title>
<g id="a_edge2_Node000001_Node000003"><a xlink:title=" ">
<path fill="none" stroke="#63b8ff" d="M2325.66,-88.01C1944.19,-83.41 399,-63.01 184.62,-32 179.86,-31.31 174.93,-30.36 170.05,-29.26"/>
<polygon fill="#63b8ff" stroke="#63b8ff" points="170.89,-25.86 160.34,-26.86 169.21,-32.66 170.89,-25.86"/>
</a>
</g>
</g>
<!-- Node4 -->
<g id="Node000004" class="node">
<title>Node4</title>
<g id="a_Node000004"><a xlink:title=" ">
<polygon fill="#e0e0e0" stroke="#999999" points="321.12,-26 194.12,-26 194.12,-6 321.12,-6 321.12,-26"/>
<text text-anchor="middle" x="257.62" y="-12.5" font-family="Helvetica,sans-Serif" font-size="10.00">java.text.MessageFormat</text>
</a>
</g>
</g>
<!-- Node1&#45;&gt;Node4 -->
<g id="edge3_Node000001_Node000004" class="edge">
<title>Node1&#45;&gt;Node4</title>
<g id="a_edge3_Node000001_Node000004"><a xlink:title=" ">
<path fill="none" stroke="#63b8ff" d="M2325.7,-88.66C1986.33,-86.99 726.72,-77.76 330.62,-32 323.37,-31.16 315.77,-29.96 308.32,-28.61"/>
<polygon fill="#63b8ff" stroke="#63b8ff" points="309.17,-25.21 298.69,-26.74 307.84,-32.08 309.17,-25.21"/>
</a>
</g>
</g>
<!-- Node5 -->
<g id="Node000005" class="node">
<title>Node5</title>
<g id="a_Node000005"><a xlink:title=" ">
<polygon fill="#e0e0e0" stroke="#999999" points="425.88,-26 339.38,-26 339.38,-6 425.88,-6 425.88,-26"/>
<text text-anchor="middle" x="382.62" y="-12.5" font-family="Helvetica,sans-Serif" font-size="10.00">java.util.Objects</text>
</a>
</g>
</g>
<!-- Node1&#45;&gt;Node5 -->
<g id="edge4_Node000001_Node000005" class="edge">
<title>Node1&#45;&gt;Node5</title>
<g id="a_edge4_Node000001_Node000005"><a xlink:title=" ">
<path fill="none" stroke="#63b8ff" d="M2325.68,-89.39C1996.83,-90.47 807.31,-90.17 434.62,-32 430.31,-31.33 425.85,-30.4 421.43,-29.34"/>
<polygon fill="#63b8ff" stroke="#63b8ff" points="422.7,-26.06 412.13,-26.88 420.9,-32.82 422.7,-26.06"/>
</a>
</g>
</g>
<!-- Node6 -->
<g id="Node000006" class="node">
<title>Node6</title>
<g id="a_Node000006"><a xlink:title=" ">
<polygon fill="#e0e0e0" stroke="#999999" points="569.38,-26 443.88,-26 443.88,-6 569.38,-6 569.38,-26"/>
<text text-anchor="middle" x="506.62" y="-12.5" font-family="Helvetica,sans-Serif" font-size="10.00">java.util.function.Supplier</text>
</a>
</g>
</g>
<!-- Node1&#45;&gt;Node6 -->
<g id="edge5_Node000001_Node000006" class="edge">
<title>Node1&#45;&gt;Node6</title>
<g id="a_edge5_Node000001_Node000006"><a xlink:title=" ">
<path fill="none" stroke="#63b8ff" d="M2325.63,-88.32C2012.48,-85.52 923.54,-72.98 578.62,-32 571.55,-31.16 564.14,-29.97 556.88,-28.63"/>
<polygon fill="#63b8ff" stroke="#63b8ff" points="557.63,-25.21 547.14,-26.72 556.28,-32.08 557.63,-25.21"/>
</a>
</g>
</g>
<!-- Node7 -->
<g id="Node000007" class="node">
<title>Node7</title>
<g id="a_Node000007"><a xlink:title=" ">
<polygon fill="#e0e0e0" stroke="#999999" points="711.62,-26 587.62,-26 587.62,-6 711.62,-6 711.62,-26"/>
<text text-anchor="middle" x="649.62" y="-12.5" font-family="Helvetica,sans-Serif" font-size="10.00">javafx.beans.Observable</text>
</a>
</g>
</g>
<!-- Node1&#45;&gt;Node7 -->
<g id="edge6_Node000001_Node000007" class="edge">
<title>Node1&#45;&gt;Node7</title>
<g id="a_edge6_Node000001_Node000007"><a xlink:title=" ">
<path fill="none" stroke="#63b8ff" d="M2325.64,-88.1C2028.4,-84.63 1036.37,-70.38 720.62,-32 713.81,-31.17 706.69,-30.02 699.69,-28.71"/>
<polygon fill="#63b8ff" stroke="#63b8ff" points="700.46,-25.3 689.97,-26.78 699.09,-32.16 700.46,-25.3"/>
</a>
</g>
</g>
<!-- Node8 -->
<g id="Node000008" class="node">
<title>Node8</title>
<g id="a_Node000008"><a xlink:title=" ">
<polygon fill="#e0e0e0" stroke="#999999" points="875.5,-26 729.75,-26 729.75,-6 875.5,-6 875.5,-26"/>
<text text-anchor="middle" x="802.62" y="-12.5" font-family="Helvetica,sans-Serif" font-size="10.00">javafx.beans.binding.Bindings</text>
</a>
</g>
</g>
<!-- Node1&#45;&gt;Node8 -->
<g id="edge7_Node000001_Node000008" class="edge">
<title>Node1&#45;&gt;Node8</title>
<g id="a_edge7_Node000001_Node000008"><a xlink:title=" ">
<path fill="none" stroke="#63b8ff" d="M2326.09,-87.44C2048.63,-82.08 1167.43,-62.99 884.62,-32 876.32,-31.09 867.6,-29.83 859.06,-28.42"/>
<polygon fill="#63b8ff" stroke="#63b8ff" points="859.94,-25.02 849.49,-26.76 858.74,-31.92 859.94,-25.02"/>
</a>
</g>
</g>
<!-- Node9 -->
<g id="Node000009" class="node">
<title>Node9</title>
<g id="a_Node000009"><a xlink:title=" ">
<polygon fill="#e0e0e0" stroke="#999999" points="1027.5,-32 893.75,-32 893.75,0 1027.5,0 1027.5,-32"/>
<text text-anchor="start" x="901.75" y="-18.5" font-family="Helvetica,sans-Serif" font-size="10.00">javafx.beans.binding.String</text>
<text text-anchor="middle" x="960.62" y="-6.5" font-family="Helvetica,sans-Serif" font-size="10.00">Binding</text>
</a>
</g>
</g>
<!-- Node1&#45;&gt;Node9 -->
<g id="edge8_Node000001_Node000009" class="edge">
<title>Node1&#45;&gt;Node9</title>
<g id="a_edge8_Node000001_Node000009"><a xlink:title=" ">
<path fill="none" stroke="#63b8ff" d="M2326,-87.19C2070.79,-81.47 1310.18,-62.42 1039.05,-32.12"/>
<polygon fill="#63b8ff" stroke="#63b8ff" points="1039.51,-28.65 1029.18,-30.99 1038.71,-35.61 1039.51,-28.65"/>
</a>
</g>
</g>
<!-- Node10 -->
<g id="Node000010" class="node">
<title>Node10</title>
<g id="a_Node000010"><a xlink:title=" ">
<polygon fill="#e0e0e0" stroke="#999999" points="1193.25,-32 1046,-32 1046,0 1193.25,0 1193.25,-32"/>
<text text-anchor="start" x="1054" y="-18.5" font-family="Helvetica,sans-Serif" font-size="10.00">javafx.beans.property.Boolean</text>
<text text-anchor="middle" x="1119.62" y="-6.5" font-family="Helvetica,sans-Serif" font-size="10.00">Property</text>
</a>
</g>
</g>
<!-- Node1&#45;&gt;Node10 -->
<g id="edge9_Node000001_Node000010" class="edge">
<title>Node1&#45;&gt;Node10</title>
<g id="a_edge9_Node000001_Node000010"><a xlink:title=" ">
<path fill="none" stroke="#63b8ff" d="M2325.74,-88.83C2129.86,-87.6 1631.08,-79.74 1204.64,-32.11"/>
<polygon fill="#63b8ff" stroke="#63b8ff" points="1205.15,-28.65 1194.82,-31.01 1204.37,-35.6 1205.15,-28.65"/>
</a>
</g>
</g>
<!-- Node11 -->
<g id="Node000011" class="node">
<title>Node11</title>
<g id="a_Node000011"><a xlink:title=" ">
<polygon fill="#e0e0e0" stroke="#999999" points="1353.62,-32 1211.62,-32 1211.62,0 1353.62,0 1353.62,-32"/>
<text text-anchor="start" x="1219.62" y="-18.5" font-family="Helvetica,sans-Serif" font-size="10.00">javafx.beans.property.Simple</text>
<text text-anchor="middle" x="1282.62" y="-6.5" font-family="Helvetica,sans-Serif" font-size="10.00">BooleanProperty</text>
</a>
</g>
</g>
<!-- Node1&#45;&gt;Node11 -->
<g id="edge10_Node000001_Node000011" class="edge">
<title>Node1&#45;&gt;Node11</title>
<g id="a_edge10_Node000001_Node000011"><a xlink:title=" ">
<path fill="none" stroke="#63b8ff" d="M2325.74,-88.15C2148.79,-85.55 1727.54,-75.11 1365.32,-32.22"/>
<polygon fill="#63b8ff" stroke="#63b8ff" points="1365.93,-28.77 1355.59,-31.06 1365.1,-35.72 1365.93,-28.77"/>
</a>
</g>
</g>
<!-- Node12 -->
<g id="Node000012" class="node">
<title>Node12</title>
<g id="a_Node000012"><a xlink:title=" ">
<polygon fill="#e0e0e0" stroke="#999999" points="1513.62,-32 1371.62,-32 1371.62,0 1513.62,0 1513.62,-32"/>
<text text-anchor="start" x="1379.62" y="-18.5" font-family="Helvetica,sans-Serif" font-size="10.00">javafx.beans.property.Simple</text>
<text text-anchor="middle" x="1442.62" y="-6.5" font-family="Helvetica,sans-Serif" font-size="10.00">StringProperty</text>
</a>
</g>
</g>
<!-- Node1&#45;&gt;Node12 -->
<g id="edge11_Node000001_Node000012" class="edge">
<title>Node1&#45;&gt;Node12</title>
<g id="a_edge11_Node000001_Node000012"><a xlink:title=" ">
<path fill="none" stroke="#63b8ff" d="M2325.82,-86.98C2169.38,-82.5 1824.71,-69.13 1525.17,-32.22"/>
<polygon fill="#63b8ff" stroke="#63b8ff" points="1525.94,-28.79 1515.59,-31.03 1525.08,-35.74 1525.94,-28.79"/>
</a>
</g>
</g>
<!-- Node13 -->
<g id="Node000013" class="node">
<title>Node13</title>
<g id="a_Node000013"><a xlink:title=" ">
<polygon fill="#e0e0e0" stroke="#999999" points="1661.62,-32 1531.62,-32 1531.62,0 1661.62,0 1661.62,-32"/>
<text text-anchor="start" x="1539.62" y="-18.5" font-family="Helvetica,sans-Serif" font-size="10.00">javafx.scene.control.Color</text>
<text text-anchor="middle" x="1596.62" y="-6.5" font-family="Helvetica,sans-Serif" font-size="10.00">Picker</text>
</a>
</g>
</g>
<!-- Node1&#45;&gt;Node13 -->
<g id="edge12_Node000001_Node000013" class="edge">
<title>Node1&#45;&gt;Node13</title>
<g id="a_edge12_Node000001_Node000013"><a xlink:title=" ">
<path fill="none" stroke="#63b8ff" d="M2325.64,-85.86C2189.75,-80.08 1915.04,-65.33 1673.05,-32.23"/>
<polygon fill="#63b8ff" stroke="#63b8ff" points="1673.8,-28.8 1663.42,-30.9 1672.85,-35.73 1673.8,-28.8"/>
</a>
</g>
</g>
<!-- Node14 -->
<g id="Node000014" class="node">
<title>Node14</title>
<g id="a_Node000014"><a xlink:title=" ">
<polygon fill="#e0e0e0" stroke="#999999" points="1810,-26 1679.25,-26 1679.25,-6 1810,-6 1810,-26"/>
<text text-anchor="middle" x="1744.62" y="-12.5" font-family="Helvetica,sans-Serif" font-size="10.00">javafx.scene.image.Image</text>
</a>
</g>
</g>
<!-- Node1&#45;&gt;Node14 -->
<g id="edge13_Node000001_Node000014" class="edge">
<title>Node1&#45;&gt;Node14</title>
<g id="a_edge13_Node000001_Node000014"><a xlink:title=" ">
<path fill="none" stroke="#63b8ff" d="M2325.98,-83.63C2210.77,-75.69 1998.36,-58.8 1818.62,-32 1812.15,-31.03 1805.38,-29.87 1798.68,-28.63"/>
<polygon fill="#63b8ff" stroke="#63b8ff" points="1799.5,-25.23 1789.02,-26.77 1798.18,-32.1 1799.5,-25.23"/>
</a>
</g>
</g>
<!-- Node15 -->
<g id="Node000015" class="node">
<title>Node15</title>
<g id="a_Node000015"><a xlink:title=" ">
<polygon fill="#e0e0e0" stroke="#999999" points="1983.38,-26 1827.88,-26 1827.88,-6 1983.38,-6 1983.38,-26"/>
<text text-anchor="middle" x="1905.62" y="-12.5" font-family="Helvetica,sans-Serif" font-size="10.00">javafx.scene.layout.Background</text>
</a>
</g>
</g>
<!-- Node1&#45;&gt;Node15 -->
<g id="edge14_Node000001_Node000015" class="edge">
<title>Node1&#45;&gt;Node15</title>
<g id="a_edge14_Node000001_Node000015"><a xlink:title=" ">
<path fill="none" stroke="#63b8ff" d="M2325.64,-78.3C2241.09,-67.45 2107.72,-49.76 1992.62,-32 1985.38,-30.88 1977.81,-29.66 1970.28,-28.41"/>
<polygon fill="#63b8ff" stroke="#63b8ff" points="1970.88,-24.96 1960.44,-26.75 1969.72,-31.86 1970.88,-24.96"/>
</a>
</g>
</g>
<!-- Node16 -->
<g id="Node000016" class="node">
<title>Node16</title>
<g id="a_Node000016"><a xlink:title=" ">
<polygon fill="#e0e0e0" stroke="#999999" points="2169.75,-26 2001.5,-26 2001.5,-6 2169.75,-6 2169.75,-26"/>
<text text-anchor="middle" x="2085.62" y="-12.5" font-family="Helvetica,sans-Serif" font-size="10.00">javafx.scene.layout.BackgroundFill</text>
</a>
</g>
</g>
<!-- Node1&#45;&gt;Node16 -->
<g id="edge15_Node000001_Node000016" class="edge">
<title>Node1&#45;&gt;Node16</title>
<g id="a_edge15_Node000001_Node000016"><a xlink:title=" ">
<path fill="none" stroke="#63b8ff" d="M2325.66,-70.18C2266.73,-57.12 2190.04,-40.13 2139.39,-28.91"/>
<polygon fill="#63b8ff" stroke="#63b8ff" points="2140.37,-25.54 2129.85,-26.8 2138.85,-32.38 2140.37,-25.54"/>
</a>
</g>
</g>
<!-- Node17 -->
<g id="Node000017" class="node">
<title>Node17</title>
<g id="a_Node000017"><a xlink:title=" ">
<polygon fill="#e0e0e0" stroke="#999999" points="2331.75,-26 2187.5,-26 2187.5,-6 2331.75,-6 2331.75,-26"/>
<text text-anchor="middle" x="2259.62" y="-12.5" font-family="Helvetica,sans-Serif" font-size="10.00">javafx.scene.layout.GridPane</text>
</a>
</g>
</g>
<!-- Node1&#45;&gt;Node17 -->
<g id="edge16_Node000001_Node000017" class="edge">
<title>Node1&#45;&gt;Node17</title>
<g id="a_edge16_Node000001_Node000017"><a xlink:title=" ">
<path fill="none" stroke="#63b8ff" d="M2365.73,-67.59C2341.19,-55.89 2311.45,-41.71 2289.71,-31.35"/>
<polygon fill="#63b8ff" stroke="#63b8ff" points="2291.34,-28.24 2280.81,-27.1 2288.33,-34.56 2291.34,-28.24"/>
</a>
</g>
</g>
<!-- Node18 -->
<g id="Node000018" class="node">
<title>Node18</title>
<g id="a_Node000018"><a xlink:title=" ">
<polygon fill="#e0e0e0" stroke="#999999" points="2471.5,-26 2349.75,-26 2349.75,-6 2471.5,-6 2471.5,-26"/>
<text text-anchor="middle" x="2410.62" y="-12.5" font-family="Helvetica,sans-Serif" font-size="10.00">javafx.scene.paint.Color</text>
</a>
</g>
</g>
<!-- Node1&#45;&gt;Node18 -->
<g id="edge17_Node000001_Node000018" class="edge">
<title>Node1&#45;&gt;Node18</title>
<g id="a_edge17_Node000001_Node000018"><a xlink:title=" ">
<path fill="none" stroke="#63b8ff" d="M2410.62,-67.79C2410.62,-58.32 2410.62,-47.2 2410.62,-37.78"/>
<polygon fill="#63b8ff" stroke="#63b8ff" points="2414.13,-37.82 2410.63,-27.82 2407.13,-37.82 2414.13,-37.82"/>
</a>
</g>
</g>
<!-- Node19 -->
<g id="Node000019" class="node">
<title>Node19</title>
<g id="a_Node000019"><a xlink:title=" ">
<polygon fill="#e0e0e0" stroke="#999999" points="2628.12,-32 2489.12,-32 2489.12,0 2628.12,0 2628.12,-32"/>
<text text-anchor="start" x="2497.12" y="-18.5" font-family="Helvetica,sans-Serif" font-size="10.00">org.apache.commons.lang3.</text>
<text text-anchor="middle" x="2558.62" y="-6.5" font-family="Helvetica,sans-Serif" font-size="10.00">StringUtils</text>
</a>
</g>
</g>
<!-- Node1&#45;&gt;Node19 -->
<g id="edge18_Node000001_Node000019" class="edge">
<title>Node1&#45;&gt;Node19</title>
<g id="a_edge18_Node000001_Node000019"><a xlink:title=" ">
<path fill="none" stroke="#63b8ff" d="M2454.63,-67.59C2474.18,-58.08 2497.1,-46.93 2516.44,-37.52"/>
<polygon fill="#63b8ff" stroke="#63b8ff" points="2517.95,-40.68 2525.41,-33.16 2514.89,-34.39 2517.95,-40.68"/>
</a>
</g>
</g>
<!-- Node20 -->
<g id="Node000020" class="node">
<title>Node20</title>
<g id="a_Node000020"><a xlink:title=" ">
<polygon fill="#e0e0e0" stroke="#999999" points="2729,-26 2646.25,-26 2646.25,-6 2729,-6 2729,-26"/>
<text text-anchor="middle" x="2687.62" y="-12.5" font-family="Helvetica,sans-Serif" font-size="10.00">org.slf4j.Logger</text>
</a>
</g>
</g>
<!-- Node1&#45;&gt;Node20 -->
<g id="edge19_Node000001_Node000020" class="edge">
<title>Node1&#45;&gt;Node20</title>
<g id="a_edge19_Node000001_Node000020"><a xlink:title=" ">
<path fill="none" stroke="#63b8ff" d="M2495.49,-68.66C2538.24,-58.17 2590.81,-44.89 2637.62,-32 2640.38,-31.24 2643.21,-30.44 2646.06,-29.63"/>
<polygon fill="#63b8ff" stroke="#63b8ff" points="2646.95,-33.01 2655.56,-26.85 2644.98,-26.29 2646.95,-33.01"/>
</a>
</g>
</g>
<!-- Node21 -->
<g id="Node000021" class="node">
<title>Node21</title>
<g id="a_Node000021"><a xlink:title=" ">
<polygon fill="#e0e0e0" stroke="#999999" points="2862.5,-26 2746.75,-26 2746.75,-6 2862.5,-6 2862.5,-26"/>
<text text-anchor="middle" x="2804.62" y="-12.5" font-family="Helvetica,sans-Serif" font-size="10.00">org.slf4j.LoggerFactory</text>
</a>
</g>
</g>
<!-- Node1&#45;&gt;Node21 -->
<g id="edge20_Node000001_Node000021" class="edge">
<title>Node1&#45;&gt;Node21</title>
<g id="a_edge20_Node000001_Node000021"><a xlink:title=" ">
<path fill="none" stroke="#63b8ff" d="M2495.52,-75.34C2561.65,-64.43 2655.67,-48.31 2737.62,-32 2742.56,-31.02 2747.69,-29.95 2752.81,-28.86"/>
<polygon fill="#63b8ff" stroke="#63b8ff" points="2753.44,-32.3 2762.47,-26.76 2751.95,-25.46 2753.44,-32.3"/>
</a>
</g>
</g>
<!-- Node22 -->
<g id="Node000022" class="node">
<title>Node22</title>
<g id="a_Node000022"><a xlink:title=" ">
<polygon fill="#e0e0e0" stroke="#999999" points="3036.75,-32 2880.5,-32 2880.5,0 3036.75,0 3036.75,-32"/>
<text text-anchor="start" x="2888.5" y="-18.5" font-family="Helvetica,sans-Serif" font-size="10.00">org.springframework.stereotype.</text>
<text text-anchor="middle" x="2958.62" y="-6.5" font-family="Helvetica,sans-Serif" font-size="10.00">Component</text>
</a>
</g>
</g>
<!-- Node1&#45;&gt;Node22 -->
<g id="edge21_Node000001_Node000022" class="edge">
<title>Node1&#45;&gt;Node22</title>
<g id="a_edge21_Node000001_Node000022"><a xlink:title=" ">
<path fill="none" stroke="#63b8ff" d="M2495.33,-79.75C2585.49,-69.63 2732.58,-52.33 2869.31,-32.3"/>
<polygon fill="#63b8ff" stroke="#63b8ff" points="2869.52,-35.81 2878.9,-30.89 2868.5,-28.88 2869.52,-35.81"/>
</a>
</g>
</g>
<!-- Node23 -->
<g id="Node000023" class="node">
<title>Node23</title>
<g id="a_Node000023"><a xlink:title=" ">
<polygon fill="#e0e0e0" stroke="#999999" points="3242.12,-26 3055.12,-26 3055.12,-6 3242.12,-6 3242.12,-26"/>
<text text-anchor="middle" x="3148.62" y="-12.5" font-family="Helvetica,sans-Serif" font-size="10.00">fr.softsf.sudokufx.common.enums.I18n</text>
</a>
</g>
</g>
<!-- Node1&#45;&gt;Node23 -->
<g id="edge22_Node000001_Node000023" class="edge">
<title>Node1&#45;&gt;Node23</title>
<g id="a_edge22_Node000001_Node000023"><a xlink:title=" ">
<path fill="none" stroke="#63b8ff" d="M2495.52,-82.87C2617.45,-73.74 2849.13,-55.11 3045.62,-32 3055.58,-30.83 3066.05,-29.46 3076.35,-28.04"/>
<polygon fill="#63b8ff" stroke="#63b8ff" points="3076.51,-31.55 3085.93,-26.69 3075.54,-24.62 3076.51,-31.55"/>
</a>
</g>
</g>
<!-- Node24 -->
<g id="Node000024" class="node">
<title>Node24</title>
<g id="a_Node000024"><a xlink:title=" ">
<polygon fill="#e0e0e0" stroke="#999999" points="3441.12,-32 3260.12,-32 3260.12,0 3441.12,0 3441.12,-32"/>
<text text-anchor="start" x="3268.12" y="-18.5" font-family="Helvetica,sans-Serif" font-size="10.00">fr.softsf.sudokufx.common.exception.</text>
<text text-anchor="middle" x="3350.62" y="-6.5" font-family="Helvetica,sans-Serif" font-size="10.00">ExceptionTools</text>
</a>
</g>
</g>
<!-- Node1&#45;&gt;Node24 -->
<g id="edge23_Node000001_Node000024" class="edge">
<title>Node1&#45;&gt;Node24</title>
<g id="a_edge23_Node000001_Node000024"><a xlink:title=" ">
<path fill="none" stroke="#63b8ff" d="M2495.58,-85.57C2645.58,-79 2967.33,-62.61 3248.51,-32.29"/>
<polygon fill="#63b8ff" stroke="#63b8ff" points="3248.69,-35.79 3258.26,-31.23 3247.94,-28.83 3248.69,-35.79"/>
</a>
</g>
</g>
<!-- Node25 -->
<g id="Node000025" class="node">
<title>Node25</title>
<g id="a_Node000025"><a xlink:title=" ">
<polygon fill="#e0e0e0" stroke="#999999" points="3610.5,-32 3458.75,-32 3458.75,0 3610.5,0 3610.5,-32"/>
<text text-anchor="start" x="3466.75" y="-18.5" font-family="Helvetica,sans-Serif" font-size="10.00">fr.softsf.sudokufx.common.util.</text>
<text text-anchor="middle" x="3534.62" y="-6.5" font-family="Helvetica,sans-Serif" font-size="10.00">AudioUtils</text>
</a>
</g>
</g>
<!-- Node1&#45;&gt;Node25 -->
<g id="edge24_Node000001_Node000025" class="edge">
<title>Node1&#45;&gt;Node25</title>
<g id="a_edge24_Node000001_Node000025"><a xlink:title=" ">
<path fill="none" stroke="#63b8ff" d="M2495.51,-87.85C2671.41,-84.7 3088.57,-73.3 3447.28,-32.3"/>
<polygon fill="#63b8ff" stroke="#63b8ff" points="3447.64,-35.79 3457.18,-31.16 3446.84,-28.83 3447.64,-35.79"/>
</a>
</g>
</g>
<!-- Node26 -->
<g id="Node000026" class="node">
<title>Node26</title>
<g id="a_Node000026"><a xlink:title=" ">
<polygon fill="#e0e0e0" stroke="#999999" points="3780.5,-32 3628.75,-32 3628.75,0 3780.5,0 3780.5,-32"/>
<text text-anchor="start" x="3636.75" y="-18.5" font-family="Helvetica,sans-Serif" font-size="10.00">fr.softsf.sudokufx.common.util.</text>
<text text-anchor="middle" x="3704.62" y="-6.5" font-family="Helvetica,sans-Serif" font-size="10.00">ImageMeta</text>
</a>
</g>
</g>
<!-- Node1&#45;&gt;Node26 -->
<g id="edge25_Node000001_Node000026" class="edge">
<title>Node1&#45;&gt;Node26</title>
<g id="a_edge25_Node000001_Node000026"><a xlink:title=" ">
<path fill="none" stroke="#63b8ff" d="M2495.57,-88.71C2691.58,-87.25 3190.72,-78.92 3617.36,-32.15"/>
<polygon fill="#63b8ff" stroke="#63b8ff" points="3617.64,-35.64 3627.19,-31.06 3616.87,-28.68 3617.64,-35.64"/>
</a>
</g>
</g>
<!-- Node27 -->
<g id="Node000027" class="node">
<title>Node27</title>
<g id="a_Node000027"><a xlink:title=" ">
<polygon fill="#e0e0e0" stroke="#999999" points="3950.5,-32 3798.75,-32 3798.75,0 3950.5,0 3950.5,-32"/>
<text text-anchor="start" x="3806.75" y="-18.5" font-family="Helvetica,sans-Serif" font-size="10.00">fr.softsf.sudokufx.common.util.</text>
<text text-anchor="middle" x="3874.62" y="-6.5" font-family="Helvetica,sans-Serif" font-size="10.00">ImageUtils</text>
</a>
</g>
</g>
<!-- Node1&#45;&gt;Node27 -->
<g id="edge26_Node000001_Node000027" class="edge">
<title>Node1&#45;&gt;Node27</title>
<g id="a_edge26_Node000001_Node000027"><a xlink:title=" ">
<path fill="none" stroke="#63b8ff" d="M2495.26,-89.42C2709.85,-89.64 3292.66,-84.98 3787.39,-32.13"/>
<polygon fill="#63b8ff" stroke="#63b8ff" points="3787.62,-35.63 3797.19,-31.08 3786.87,-28.67 3787.62,-35.63"/>
</a>
</g>
</g>
<!-- Node28 -->
<g id="Node000028" class="node">
<title>Node28</title>
<g id="a_Node000028"><a xlink:title=" ">
<polygon fill="#e0e0e0" stroke="#999999" points="4130.38,-26 3968.88,-26 3968.88,-6 4130.38,-6 4130.38,-26"/>
<text text-anchor="middle" x="4049.62" y="-12.5" font-family="Helvetica,sans-Serif" font-size="10.00">fr.softsf.sudokufx.dto.OptionsDto</text>
</a>
</g>
</g>
<!-- Node1&#45;&gt;Node28 -->
<g id="edge27_Node000001_Node000028" class="edge">
<title>Node1&#45;&gt;Node28</title>
<g id="a_edge27_Node000001_Node000028"><a xlink:title=" ">
<path fill="none" stroke="#63b8ff" d="M2495.26,-89.69C2729.02,-90.78 3403.07,-88.38 3959.62,-32 3969.03,-31.05 3978.93,-29.72 3988.6,-28.26"/>
<polygon fill="#63b8ff" stroke="#63b8ff" points="3988.97,-31.74 3998.3,-26.71 3987.87,-24.83 3988.97,-31.74"/>
</a>
</g>
</g>
<!-- Node29 -->
<g id="Node000029" class="node">
<title>Node29</title>
<g id="a_Node000029"><a xlink:title=" ">
<polygon fill="#e0e0e0" stroke="#999999" points="4320.62,-32 4148.62,-32 4148.62,0 4320.62,0 4320.62,-32"/>
<text text-anchor="start" x="4156.62" y="-18.5" font-family="Helvetica,sans-Serif" font-size="10.00">fr.softsf.sudokufx.service.business.</text>
<text text-anchor="middle" x="4234.62" y="-6.5" font-family="Helvetica,sans-Serif" font-size="10.00">OptionsService</text>
</a>
</g>
</g>
<!-- Node1&#45;&gt;Node29 -->
<g id="edge28_Node000001_Node000029" class="edge">
<title>Node1&#45;&gt;Node29</title>
<g id="a_edge28_Node000001_Node000029"><a xlink:title=" ">
<path fill="none" stroke="#63b8ff" d="M2495.41,-87.6C2793.39,-82.44 3792.66,-63.29 4136.98,-32.15"/>
<polygon fill="#63b8ff" stroke="#63b8ff" points="4137.07,-35.66 4146.71,-31.25 4136.43,-28.69 4137.07,-35.66"/>
</a>
</g>
</g>
<!-- Node30 -->
<g id="Node000030" class="node">
<title>Node30</title>
<g id="a_Node000030"><a xlink:title=" ">
<polygon fill="#e0e0e0" stroke="#999999" points="4478.88,-32 4338.38,-32 4338.38,0 4478.88,0 4478.88,-32"/>
<text text-anchor="start" x="4346.38" y="-18.5" font-family="Helvetica,sans-Serif" font-size="10.00">fr.softsf.sudokufx.service.ui.</text>
<text text-anchor="middle" x="4408.62" y="-6.5" font-family="Helvetica,sans-Serif" font-size="10.00">AsyncFileProcessorService</text>
</a>
</g>
</g>
<!-- Node1&#45;&gt;Node30 -->
<g id="edge29_Node000001_Node000030" class="edge">
<title>Node1&#45;&gt;Node30</title>
<g id="a_edge29_Node000001_Node000030"><a xlink:title=" ">
<path fill="none" stroke="#63b8ff" d="M2495.45,-88.26C2814.53,-85.22 3943.48,-71.9 4326.68,-32.18"/>
<polygon fill="#63b8ff" stroke="#63b8ff" points="4326.99,-35.67 4336.57,-31.13 4326.25,-28.71 4326.99,-35.67"/>
</a>
</g>
</g>
<!-- Node31 -->
<g id="Node000031" class="node">
<title>Node31</title>
<g id="a_Node000031"><a xlink:title=" ">
<polygon fill="#e0e0e0" stroke="#999999" points="4637.88,-32 4497.38,-32 4497.38,0 4637.88,0 4637.88,-32"/>
<text text-anchor="start" x="4505.38" y="-18.5" font-family="Helvetica,sans-Serif" font-size="10.00">fr.softsf.sudokufx.service.ui.</text>
<text text-anchor="middle" x="4567.62" y="-6.5" font-family="Helvetica,sans-Serif" font-size="10.00">AudioService</text>
</a>
</g>
</g>
<!-- Node1&#45;&gt;Node31 -->
<g id="edge30_Node000001_Node000031" class="edge">
<title>Node1&#45;&gt;Node31</title>
<g id="a_edge30_Node000001_Node000031"><a xlink:title=" ">
<path fill="none" stroke="#63b8ff" d="M2495.4,-88.46C2831.14,-86.05 4069.08,-74.49 4485.85,-32.03"/>
<polygon fill="#63b8ff" stroke="#63b8ff" points="4485.96,-35.54 4495.54,-31.02 4485.23,-28.57 4485.96,-35.54"/>
</a>
</g>
</g>
<!-- Node32 -->
<g id="Node000032" class="node">
<title>Node32</title>
<g id="a_Node000032"><a xlink:title=" ">
<polygon fill="#e0e0e0" stroke="#999999" points="4796.88,-32 4656.38,-32 4656.38,0 4796.88,0 4796.88,-32"/>
<text text-anchor="start" x="4664.38" y="-18.5" font-family="Helvetica,sans-Serif" font-size="10.00">fr.softsf.sudokufx.service.ui.</text>
<text text-anchor="middle" x="4726.62" y="-6.5" font-family="Helvetica,sans-Serif" font-size="10.00">ToasterService</text>
</a>
</g>
</g>
<!-- Node1&#45;&gt;Node32 -->
<g id="edge31_Node000001_Node000032" class="edge">
<title>Node1&#45;&gt;Node32</title>
<g id="a_edge31_Node000001_Node000032"><a xlink:title=" ">
<path fill="none" stroke="#63b8ff" d="M2495.49,-88.65C2847.46,-86.93 4194.57,-77.53 4644.61,-32.05"/>
<polygon fill="#63b8ff" stroke="#63b8ff" points="4644.95,-35.53 4654.54,-31.02 4644.23,-28.57 4644.95,-35.53"/>
</a>
</g>
</g>
<!-- Node33 -->
<g id="Node000033" class="node">
<title>Node33</title>
<g id="a_Node000033"><a xlink:title=" ">
<polygon fill="#e0e0e0" stroke="#999999" points="5016.62,-32 4814.62,-32 4814.62,0 5016.62,0 5016.62,-32"/>
<text text-anchor="start" x="4822.62" y="-18.5" font-family="Helvetica,sans-Serif" font-size="10.00">fr.softsf.sudokufx.view.component.toaster.</text>
<text text-anchor="middle" x="4915.62" y="-6.5" font-family="Helvetica,sans-Serif" font-size="10.00">ToasterVBox</text>
</a>
</g>
</g>
<!-- Node1&#45;&gt;Node33 -->
<g id="edge32_Node000001_Node000033" class="edge">
<title>Node1&#45;&gt;Node33</title>
<g id="a_edge32_Node000001_Node000033"><a xlink:title=" ">
<path fill="none" stroke="#63b8ff" d="M2495.46,-88.25C2862.91,-84.83 4319.82,-69.19 4803.14,-32.12"/>
<polygon fill="#63b8ff" stroke="#63b8ff" points="4803.17,-35.63 4812.87,-31.36 4802.62,-28.65 4803.17,-35.63"/>
</a>
</g>
</g>
<!-- Node34 -->
<g id="Node000034" class="node">
<title>Node34</title>
<g id="a_Node000034"><a xlink:title=" ">
<polygon fill="#e0e0e0" stroke="#999999" points="5204.5,-32 5034.75,-32 5034.75,0 5204.5,0 5204.5,-32"/>
<text text-anchor="start" x="5042.75" y="-18.5" font-family="Helvetica,sans-Serif" font-size="10.00">fr.softsf.sudokufx.viewmodel.state.</text>
<text text-anchor="middle" x="5119.62" y="-6.5" font-family="Helvetica,sans-Serif" font-size="10.00">PlayerStateHolder</text>
</a>
</g>
</g>
<!-- Node1&#45;&gt;Node34 -->
<g id="edge33_Node000001_Node000034" class="edge">
<title>Node1&#45;&gt;Node34</title>
<g id="a_edge33_Node000001_Node000034"><a xlink:title=" ">
<path fill="none" stroke="#63b8ff" d="M2495.62,-88.71C2884.14,-87.14 4494.51,-77.99 5023.24,-32.11"/>
<polygon fill="#63b8ff" stroke="#63b8ff" points="5023.22,-35.62 5032.88,-31.26 5022.61,-28.65 5023.22,-35.62"/>
</a>
</g>
</g>
</g>
</svg>

<g id="navigator" transform="translate(0 0)" fill="#404254">
  <rect fill="#f2f5e9" fill-opacity="0.5" stroke="#606060" stroke-width=".5" x="0" y="0" width="60" height="60"/>
  <use id="zoomplus" xlink:href="#zoomPlus" x="17" y="9" onmousedown="handleZoom(evt,'in')"/>
  <use id="zoomminus" xlink:href="#zoomMin" x="42" y="9" onmousedown="handleZoom(evt,'out')"/>
  <use id="reset" xlink:href="#resetDef" x="30" y="36" onmousedown="handleReset()"/>
   <use id="arrowup" xlink:href="#arrowUp" x="0" y="0" onmousedown="handlePan(0,-1)"/>
  <use id="arrowright" xlink:href="#arrowRight" x="0" y="0" onmousedown="handlePan(1,0)"/>
  <use id="arrowdown" xlink:href="#arrowDown" x="0" y="0" onmousedown="handlePan(0,1)"/>
  <use id="arrowleft" xlink:href="#arrowLeft" x="0" y="0" onmousedown="handlePan(-1,0)"/>
</g>
<svg viewBox="0 0 15 15" width="100%" height="30px" preserveAspectRatio="xMaxYMin meet">
 <g id="arrow_out" transform="scale(0.3 0.3)">
  <a xlink:href="_menu_options_view_model_8java__incl_org.svg" target="_base">
   <rect id="button" ry="5" rx="5" y="6" x="6" height="38" width="38"
        fill="#f2f5e9" fill-opacity="0.5" stroke="#606060" stroke-width="1.0"/>
   <path id="arrow"
     d="M 11.500037,31.436501 C 11.940474,20.09759 22.043105,11.32322 32.158766,21.979434 L 37.068811,17.246167 C 37.068811,17.246167 37.088388,32 37.088388,32 L 22.160133,31.978069 C 22.160133,31.978069 26.997745,27.140456 26.997745,27.140456 C 18.528582,18.264221 13.291696,25.230495 11.500037,31.436501 z"
     style="fill:#404040;"/>
  </a>
 </g>
</svg>

<style type='text/css'>
<![CDATA[
[data-mouse-over-selected='false'] { opacity: 0.7; }
[data-mouse-over-selected='true']  { opacity: 1.0; }
]]>
</style>
<script type="application/ecmascript"><![CDATA[
document.addEventListener('DOMContentLoaded', (event) => {
  highlightEdges();
  highlightAdjacentNodes();
});
]]></script>
</svg>
