<?xml version="1.0" encoding="UTF-8" standalone="no"?>
<!DOCTYPE svg PUBLIC "-//W3C//DTD SVG 1.1//EN"
 "http://www.w3.org/Graphics/SVG/1.1/DTD/svg11.dtd">
<!-- Generated by graphviz version 12.2.1 (20241206.2353)
 -->
<!-- Title: src/main/java/fr/softsf/sudokufx/viewmodel/MenuSolveViewModel.java Pages: 1 -->
<svg width="1005pt" height="120pt"
 viewBox="0.00 0.00 1005.38 120.00" xmlns="http://www.w3.org/2000/svg" xmlns:xlink="http://www.w3.org/1999/xlink">
<g id="graph0" class="graph" transform="scale(1 1) rotate(0) translate(4 116)">
<title>src/main/java/fr/softsf/sudokufx/viewmodel/MenuSolveViewModel.java</title>
<!-- Node1 -->
<g id="Node000001" class="node">
<title>Node1</title>
<g id="a_Node000001"><a xlink:title=" ">
<polygon fill="#999999" stroke="#666666" points="546.88,-112 386.88,-112 386.88,-68 546.88,-68 546.88,-112"/>
<text text-anchor="start" x="394.88" y="-98.5" font-family="Helvetica,sans-Serif" font-size="10.00">src/main/java/fr/softsf</text>
<text text-anchor="start" x="394.88" y="-86.5" font-family="Helvetica,sans-Serif" font-size="10.00">/sudokufx/viewmodel/MenuSolve</text>
<text text-anchor="middle" x="466.88" y="-74.5" font-family="Helvetica,sans-Serif" font-size="10.00">ViewModel.java</text>
</a>
</g>
</g>
<!-- Node2 -->
<g id="Node000002" class="node">
<title>Node2</title>
<g id="a_Node000002"><a xlink:title=" ">
<polygon fill="#e0e0e0" stroke="#999999" points="145.75,-26 0,-26 0,-6 145.75,-6 145.75,-26"/>
<text text-anchor="middle" x="72.88" y="-12.5" font-family="Helvetica,sans-Serif" font-size="10.00">javafx.beans.binding.Bindings</text>
</a>
</g>
</g>
<!-- Node1&#45;&gt;Node2 -->
<g id="edge1_Node000001_Node000002" class="edge">
<title>Node1&#45;&gt;Node2</title>
<g id="a_edge1_Node000001_Node000002"><a xlink:title=" ">
<path fill="none" stroke="#63b8ff" d="M386.39,-74.3C323.39,-62.79 233.55,-46.38 154.88,-32 148.58,-30.85 142.02,-29.65 135.46,-28.45"/>
<polygon fill="#63b8ff" stroke="#63b8ff" points="136.45,-25.07 125.98,-26.72 135.19,-31.96 136.45,-25.07"/>
</a>
</g>
</g>
<!-- Node3 -->
<g id="Node000003" class="node">
<title>Node3</title>
<g id="a_Node000003"><a xlink:title=" ">
<polygon fill="#e0e0e0" stroke="#999999" points="297.75,-32 164,-32 164,0 297.75,0 297.75,-32"/>
<text text-anchor="start" x="172" y="-18.5" font-family="Helvetica,sans-Serif" font-size="10.00">javafx.beans.binding.String</text>
<text text-anchor="middle" x="230.88" y="-6.5" font-family="Helvetica,sans-Serif" font-size="10.00">Binding</text>
</a>
</g>
</g>
<!-- Node1&#45;&gt;Node3 -->
<g id="edge2_Node000001_Node000003" class="edge">
<title>Node1&#45;&gt;Node3</title>
<g id="a_edge2_Node000001_Node000003"><a xlink:title=" ">
<path fill="none" stroke="#63b8ff" d="M396.71,-67.59C363.65,-57.51 324.56,-45.58 292.64,-35.84"/>
<polygon fill="#63b8ff" stroke="#63b8ff" points="293.7,-32.51 283.11,-32.94 291.66,-39.2 293.7,-32.51"/>
</a>
</g>
</g>
<!-- Node4 -->
<g id="Node000004" class="node">
<title>Node4</title>
<g id="a_Node000004"><a xlink:title=" ">
<polygon fill="#e0e0e0" stroke="#999999" points="457.88,-32 315.88,-32 315.88,0 457.88,0 457.88,-32"/>
<text text-anchor="start" x="323.88" y="-18.5" font-family="Helvetica,sans-Serif" font-size="10.00">javafx.beans.property.Integer</text>
<text text-anchor="middle" x="386.88" y="-6.5" font-family="Helvetica,sans-Serif" font-size="10.00">Property</text>
</a>
</g>
</g>
<!-- Node1&#45;&gt;Node4 -->
<g id="edge3_Node000001_Node000004" class="edge">
<title>Node1&#45;&gt;Node4</title>
<g id="a_edge3_Node000001_Node000004"><a xlink:title=" ">
<path fill="none" stroke="#63b8ff" d="M443.31,-67.79C433.47,-58.93 422.02,-48.63 412.02,-39.63"/>
<polygon fill="#63b8ff" stroke="#63b8ff" points="414.58,-37.23 404.81,-33.14 409.9,-42.43 414.58,-37.23"/>
</a>
</g>
</g>
<!-- Node5 -->
<g id="Node000005" class="node">
<title>Node5</title>
<g id="a_Node000005"><a xlink:title=" ">
<polygon fill="#e0e0e0" stroke="#999999" points="617.88,-32 475.88,-32 475.88,0 617.88,0 617.88,-32"/>
<text text-anchor="start" x="483.88" y="-18.5" font-family="Helvetica,sans-Serif" font-size="10.00">javafx.beans.property.Simple</text>
<text text-anchor="middle" x="546.88" y="-6.5" font-family="Helvetica,sans-Serif" font-size="10.00">IntegerProperty</text>
</a>
</g>
</g>
<!-- Node1&#45;&gt;Node5 -->
<g id="edge4_Node000001_Node000005" class="edge">
<title>Node1&#45;&gt;Node5</title>
<g id="a_edge4_Node000001_Node000005"><a xlink:title=" ">
<path fill="none" stroke="#63b8ff" d="M490.44,-67.79C500.28,-58.93 511.73,-48.63 521.73,-39.63"/>
<polygon fill="#63b8ff" stroke="#63b8ff" points="523.85,-42.43 528.94,-33.14 519.17,-37.23 523.85,-42.43"/>
</a>
</g>
</g>
<!-- Node6 -->
<g id="Node000006" class="node">
<title>Node6</title>
<g id="a_Node000006"><a xlink:title=" ">
<polygon fill="#e0e0e0" stroke="#999999" points="792,-32 635.75,-32 635.75,0 792,0 792,-32"/>
<text text-anchor="start" x="643.75" y="-18.5" font-family="Helvetica,sans-Serif" font-size="10.00">org.springframework.stereotype.</text>
<text text-anchor="middle" x="713.88" y="-6.5" font-family="Helvetica,sans-Serif" font-size="10.00">Component</text>
</a>
</g>
</g>
<!-- Node1&#45;&gt;Node6 -->
<g id="edge5_Node000001_Node000006" class="edge">
<title>Node1&#45;&gt;Node6</title>
<g id="a_edge5_Node000001_Node000006"><a xlink:title=" ">
<path fill="none" stroke="#63b8ff" d="M540.31,-67.59C575.07,-57.46 616.18,-45.48 649.67,-35.72"/>
<polygon fill="#63b8ff" stroke="#63b8ff" points="650.64,-39.08 659.26,-32.92 648.68,-32.36 650.64,-39.08"/>
</a>
</g>
</g>
<!-- Node7 -->
<g id="Node000007" class="node">
<title>Node7</title>
<g id="a_Node000007"><a xlink:title=" ">
<polygon fill="#e0e0e0" stroke="#999999" points="997.38,-26 810.38,-26 810.38,-6 997.38,-6 997.38,-26"/>
<text text-anchor="middle" x="903.88" y="-12.5" font-family="Helvetica,sans-Serif" font-size="10.00">fr.softsf.sudokufx.common.enums.I18n</text>
</a>
</g>
</g>
<!-- Node1&#45;&gt;Node7 -->
<g id="edge6_Node000001_Node000007" class="edge">
<title>Node1&#45;&gt;Node7</title>
<g id="a_edge6_Node000001_Node000007"><a xlink:title=" ">
<path fill="none" stroke="#63b8ff" d="M547.28,-75.75C629.87,-62.15 757.06,-41.19 835.11,-28.33"/>
<polygon fill="#63b8ff" stroke="#63b8ff" points="835.47,-31.82 844.77,-26.74 834.33,-24.91 835.47,-31.82"/>
</a>
</g>
</g>
</g>
</svg>
