<?xml version="1.0" encoding="UTF-8" standalone="no"?>
<!DOCTYPE svg PUBLIC "-//W3C//DTD SVG 1.1//EN"
 "http://www.w3.org/Graphics/SVG/1.1/DTD/svg11.dtd">
<!-- Generated by graphviz version 12.2.1 (20241206.2353)
 -->
<!-- Title: src/main/java/fr/softsf/sudokufx/viewmodel/MenuPlayerViewModel.java Pages: 1 -->
<!--zoomable 120 -->

<svg id="main" version="1.1" xmlns="http://www.w3.org/2000/svg" xmlns:xlink="http://www.w3.org/1999/xlink" xml:space="preserve" onload="init(evt)">

<style type="text/css"><![CDATA[
.node, .edge {opacity: 0.7;}
.node.selected, .edge.selected {opacity: 1;}
.edge:hover path { stroke: red; }
.edge:hover polygon { stroke: red; fill: red; }
]]></style>

<defs>
  <circle id="rim" cx="0" cy="0" r="7"/>
  <circle id="rim2" cx="0" cy="0" r="3.5"/>
  <g id="zoomPlus">
    <use xlink:href="#rim" fill="#404040"><set attributeName="fill" to="#808080" begin="zoomplus.mouseover" end="zoomplus.mouseout"/></use>
    <path d="M-4,0h8M0,-4v8" fill="none" stroke="white" stroke-width="1.5" pointer-events="none"/>
  </g>
  <g id="zoomMin">
    <use xlink:href="#rim" fill="#404040"><set attributeName="fill" to="#808080" begin="zoomminus.mouseover" end="zoomminus.mouseout"/></use>
    <path d="M-4,0h8" fill="none" stroke="white" stroke-width="1.5" pointer-events="none"/>
  </g>
  <g id="arrowUp" transform="translate(30 24)">
    <use xlink:href="#rim"/>
    <path pointer-events="none" fill="none" stroke="white" stroke-width="1.5" d="M0,-3.0v7 M-2.5,-0.5L0,-3.0L2.5,-0.5"/>
  </g>
  <g id="arrowRight" transform="rotate(90) translate(36 -43)">
    <use xlink:href="#rim"/>
    <path pointer-events="none" fill="none" stroke="white" stroke-width="1.5" d="M0,-3.0v7 M-2.5,-0.5L0,-3.0L2.5,-0.5"/>
  </g>
  <g id="arrowDown" transform="rotate(180) translate(-30 -48)">
    <use xlink:href="#rim"/>
    <path pointer-events="none" fill="none" stroke="white" stroke-width="1.5" d="M0,-3.0v7 M-2.5,-0.5L0,-3.0L2.5,-0.5"/>
  </g>
  <g id="arrowLeft" transform="rotate(270) translate(-36 17)">
    <use xlink:href="#rim"/>
    <path pointer-events="none" fill="none" stroke="white" stroke-width="1.5" d="M0,-3.0v7 M-2.5,-0.5L0,-3.0L2.5,-0.5"/>
  </g>
  <g id="resetDef">
    <use xlink:href="#rim2" fill="#404040"><set attributeName="fill" to="#808080" begin="reset.mouseover" end="reset.mouseout"/></use>
  </g>
</defs>
<script type="application/ecmascript">
var viewWidth = 4390;
var viewHeight = 120;
var sectionId = 'dynsection-0';
</script>
<script type="application/ecmascript" xlink:href="svg.min.js"/>
<svg id="graph" class="graph">
<g id="viewport">
<title>src/main/java/fr/softsf/sudokufx/viewmodel/MenuPlayerViewModel.java</title>
<!-- Node1 -->
<g id="Node000001" class="node">
<title>Node1</title>
<g id="a_Node000001"><a xlink:title=" ">
<polygon fill="#999999" stroke="#666666" points="2045,-112 1882,-112 1882,-68 2045,-68 2045,-112"/>
<text text-anchor="start" x="1890" y="-98.5" font-family="Helvetica,sans-Serif" font-size="10.00">src/main/java/fr/softsf</text>
<text text-anchor="start" x="1890" y="-86.5" font-family="Helvetica,sans-Serif" font-size="10.00">/sudokufx/viewmodel/MenuPlayer</text>
<text text-anchor="middle" x="1963.5" y="-74.5" font-family="Helvetica,sans-Serif" font-size="10.00">ViewModel.java</text>
</a>
</g>
</g>
<!-- Node2 -->
<g id="Node000002" class="node">
<title>Node2</title>
<g id="a_Node000002"><a xlink:title=" ">
<polygon fill="#e0e0e0" stroke="#999999" points="127,-26 0,-26 0,-6 127,-6 127,-26"/>
<text text-anchor="middle" x="63.5" y="-12.5" font-family="Helvetica,sans-Serif" font-size="10.00">java.text.MessageFormat</text>
</a>
</g>
</g>
<!-- Node1&#45;&gt;Node2 -->
<g id="edge1_Node000001_Node000002" class="edge">
<title>Node1&#45;&gt;Node2</title>
<g id="a_edge1_Node000001_Node000002"><a xlink:title=" ">
<path fill="none" stroke="#63b8ff" d="M1881.67,-88.31C1573.31,-85.43 481.62,-72.54 136.5,-32 129.42,-31.17 122,-30 114.72,-28.68"/>
<polygon fill="#63b8ff" stroke="#63b8ff" points="115.43,-25.25 104.95,-26.79 114.1,-32.12 115.43,-25.25"/>
</a>
</g>
</g>
<!-- Node3 -->
<g id="Node000003" class="node">
<title>Node3</title>
<g id="a_Node000003"><a xlink:title=" ">
<polygon fill="#e0e0e0" stroke="#999999" points="213.75,-26 145.25,-26 145.25,-6 213.75,-6 213.75,-26"/>
<text text-anchor="middle" x="179.5" y="-12.5" font-family="Helvetica,sans-Serif" font-size="10.00">java.util.List</text>
</a>
</g>
</g>
<!-- Node1&#45;&gt;Node3 -->
<g id="edge2_Node000001_Node000003" class="edge">
<title>Node1&#45;&gt;Node3</title>
<g id="a_edge2_Node000001_Node000003"><a xlink:title=" ">
<path fill="none" stroke="#63b8ff" d="M1881.55,-89.52C1582.08,-90.91 547.68,-91.21 223.5,-32 220.3,-31.42 217.02,-30.64 213.75,-29.76"/>
<polygon fill="#63b8ff" stroke="#63b8ff" points="214.94,-26.46 204.35,-26.86 212.88,-33.15 214.94,-26.46"/>
</a>
</g>
</g>
<!-- Node4 -->
<g id="Node000004" class="node">
<title>Node4</title>
<g id="a_Node000004"><a xlink:title=" ">
<polygon fill="#e0e0e0" stroke="#999999" points="318.75,-26 232.25,-26 232.25,-6 318.75,-6 318.75,-26"/>
<text text-anchor="middle" x="275.5" y="-12.5" font-family="Helvetica,sans-Serif" font-size="10.00">java.util.Objects</text>
</a>
</g>
</g>
<!-- Node1&#45;&gt;Node4 -->
<g id="edge3_Node000001_Node000004" class="edge">
<title>Node1&#45;&gt;Node4</title>
<g id="a_edge3_Node000001_Node000004"><a xlink:title=" ">
<path fill="none" stroke="#63b8ff" d="M1881.87,-88.81C1594.68,-87.71 631.85,-80.44 327.5,-32 323.19,-31.31 318.73,-30.38 314.31,-29.32"/>
<polygon fill="#63b8ff" stroke="#63b8ff" points="315.58,-26.03 305.01,-26.85 313.78,-32.8 315.58,-26.03"/>
</a>
</g>
</g>
<!-- Node5 -->
<g id="Node000005" class="node">
<title>Node5</title>
<g id="a_Node000005"><a xlink:title=" ">
<polygon fill="#e0e0e0" stroke="#999999" points="462.25,-26 336.75,-26 336.75,-6 462.25,-6 462.25,-26"/>
<text text-anchor="middle" x="399.5" y="-12.5" font-family="Helvetica,sans-Serif" font-size="10.00">java.util.function.Supplier</text>
</a>
</g>
</g>
<!-- Node1&#45;&gt;Node5 -->
<g id="edge4_Node000001_Node000005" class="edge">
<title>Node1&#45;&gt;Node5</title>
<g id="a_edge4_Node000001_Node000005"><a xlink:title=" ">
<path fill="none" stroke="#63b8ff" d="M1881.76,-87.68C1611.46,-83.03 747.93,-65.83 471.5,-32 464.51,-31.14 457.2,-29.96 450.02,-28.63"/>
<polygon fill="#63b8ff" stroke="#63b8ff" points="450.89,-25.24 440.4,-26.74 449.54,-32.11 450.89,-25.24"/>
</a>
</g>
</g>
<!-- Node6 -->
<g id="Node000006" class="node">
<title>Node6</title>
<g id="a_Node000006"><a xlink:title=" ">
<polygon fill="#e0e0e0" stroke="#999999" points="626.38,-26 480.62,-26 480.62,-6 626.38,-6 626.38,-26"/>
<text text-anchor="middle" x="553.5" y="-12.5" font-family="Helvetica,sans-Serif" font-size="10.00">javafx.beans.binding.Bindings</text>
</a>
</g>
</g>
<!-- Node1&#45;&gt;Node6 -->
<g id="edge5_Node000001_Node000006" class="edge">
<title>Node1&#45;&gt;Node6</title>
<g id="a_edge5_Node000001_Node000006"><a xlink:title=" ">
<path fill="none" stroke="#63b8ff" d="M1881.59,-89.41C1673.01,-89.59 1105.04,-84.77 635.5,-32 627.2,-31.07 618.48,-29.79 609.94,-28.38"/>
<polygon fill="#63b8ff" stroke="#63b8ff" points="610.82,-24.98 600.37,-26.71 609.62,-31.88 610.82,-24.98"/>
</a>
</g>
</g>
<!-- Node7 -->
<g id="Node000007" class="node">
<title>Node7</title>
<g id="a_Node000007"><a xlink:title=" ">
<polygon fill="#e0e0e0" stroke="#999999" points="778.38,-32 644.62,-32 644.62,0 778.38,0 778.38,-32"/>
<text text-anchor="start" x="652.62" y="-18.5" font-family="Helvetica,sans-Serif" font-size="10.00">javafx.beans.binding.String</text>
<text text-anchor="middle" x="711.5" y="-6.5" font-family="Helvetica,sans-Serif" font-size="10.00">Binding</text>
</a>
</g>
</g>
<!-- Node1&#45;&gt;Node7 -->
<g id="edge6_Node000001_Node000007" class="edge">
<title>Node1&#45;&gt;Node7</title>
<g id="a_edge6_Node000001_Node000007"><a xlink:title=" ">
<path fill="none" stroke="#63b8ff" d="M1881.53,-89.14C1691.28,-88.59 1204.97,-82.07 789.88,-32.16"/>
<polygon fill="#63b8ff" stroke="#63b8ff" points="790.4,-28.7 780.05,-30.97 789.56,-35.65 790.4,-28.7"/>
</a>
</g>
</g>
<!-- Node8 -->
<g id="Node000008" class="node">
<title>Node8</title>
<g id="a_Node000008"><a xlink:title=" ">
<polygon fill="#e0e0e0" stroke="#999999" points="936.75,-32 796.25,-32 796.25,0 936.75,0 936.75,-32"/>
<text text-anchor="start" x="804.25" y="-18.5" font-family="Helvetica,sans-Serif" font-size="10.00">javafx.beans.property.Object</text>
<text text-anchor="middle" x="866.5" y="-6.5" font-family="Helvetica,sans-Serif" font-size="10.00">Property</text>
</a>
</g>
</g>
<!-- Node1&#45;&gt;Node8 -->
<g id="edge7_Node000001_Node000008" class="edge">
<title>Node1&#45;&gt;Node8</title>
<g id="a_edge7_Node000001_Node000008"><a xlink:title=" ">
<path fill="none" stroke="#63b8ff" d="M1881.78,-88C1710.5,-85.13 1301.27,-74.2 948.31,-32.1"/>
<polygon fill="#63b8ff" stroke="#63b8ff" points="948.94,-28.65 938.6,-30.93 948.11,-35.6 948.94,-28.65"/>
</a>
</g>
</g>
<!-- Node9 -->
<g id="Node000009" class="node">
<title>Node9</title>
<g id="a_Node000009"><a xlink:title=" ">
<polygon fill="#e0e0e0" stroke="#999999" points="1103.88,-26 955.12,-26 955.12,-6 1103.88,-6 1103.88,-26"/>
<text text-anchor="middle" x="1029.5" y="-12.5" font-family="Helvetica,sans-Serif" font-size="10.00">javafx.beans.property.Property</text>
</a>
</g>
</g>
<!-- Node1&#45;&gt;Node9 -->
<g id="edge8_Node000001_Node000009" class="edge">
<title>Node1&#45;&gt;Node9</title>
<g id="a_edge8_Node000001_Node000009"><a xlink:title=" ">
<path fill="none" stroke="#63b8ff" d="M1881.66,-86.56C1729.63,-81.37 1393.56,-66.7 1112.5,-32 1104.51,-31.01 1096.12,-29.76 1087.87,-28.4"/>
<polygon fill="#63b8ff" stroke="#63b8ff" points="1088.7,-24.99 1078.26,-26.74 1087.52,-31.89 1088.7,-24.99"/>
</a>
</g>
</g>
<!-- Node10 -->
<g id="Node000010" class="node">
<title>Node10</title>
<g id="a_Node000010"><a xlink:title=" ">
<polygon fill="#e0e0e0" stroke="#999999" points="1257.12,-32 1121.88,-32 1121.88,0 1257.12,0 1257.12,-32"/>
<text text-anchor="start" x="1129.88" y="-18.5" font-family="Helvetica,sans-Serif" font-size="10.00">javafx.beans.property.Read</text>
<text text-anchor="middle" x="1189.5" y="-6.5" font-family="Helvetica,sans-Serif" font-size="10.00">OnlyBooleanProperty</text>
</a>
</g>
</g>
<!-- Node1&#45;&gt;Node10 -->
<g id="edge9_Node000001_Node000010" class="edge">
<title>Node1&#45;&gt;Node10</title>
<g id="a_edge9_Node000001_Node000010"><a xlink:title=" ">
<path fill="none" stroke="#63b8ff" d="M1881.5,-85.32C1752.84,-78.88 1495.54,-63.32 1268.52,-32.33"/>
<polygon fill="#63b8ff" stroke="#63b8ff" points="1269.27,-28.9 1258.89,-31 1268.32,-35.84 1269.27,-28.9"/>
</a>
</g>
</g>
<!-- Node11 -->
<g id="Node000011" class="node">
<title>Node11</title>
<g id="a_Node000011"><a xlink:title=" ">
<polygon fill="#e0e0e0" stroke="#999999" points="1410.12,-32 1274.88,-32 1274.88,0 1410.12,0 1410.12,-32"/>
<text text-anchor="start" x="1282.88" y="-18.5" font-family="Helvetica,sans-Serif" font-size="10.00">javafx.beans.property.Read</text>
<text text-anchor="middle" x="1342.5" y="-6.5" font-family="Helvetica,sans-Serif" font-size="10.00">OnlyBooleanWrapper</text>
</a>
</g>
</g>
<!-- Node1&#45;&gt;Node11 -->
<g id="edge10_Node000001_Node000011" class="edge">
<title>Node1&#45;&gt;Node11</title>
<g id="a_edge10_Node000001_Node000011"><a xlink:title=" ">
<path fill="none" stroke="#63b8ff" d="M1881.95,-82.79C1777.48,-74.32 1590.62,-57.42 1421.75,-32.42"/>
<polygon fill="#63b8ff" stroke="#63b8ff" points="1422.3,-28.96 1411.9,-30.94 1421.27,-35.88 1422.3,-28.96"/>
</a>
</g>
</g>
<!-- Node12 -->
<g id="Node000012" class="node">
<title>Node12</title>
<g id="a_Node000012"><a xlink:title=" ">
<polygon fill="#e0e0e0" stroke="#999999" points="1563.12,-32 1427.88,-32 1427.88,0 1563.12,0 1563.12,-32"/>
<text text-anchor="start" x="1435.88" y="-18.5" font-family="Helvetica,sans-Serif" font-size="10.00">javafx.beans.property.Read</text>
<text text-anchor="middle" x="1495.5" y="-6.5" font-family="Helvetica,sans-Serif" font-size="10.00">OnlyObjectProperty</text>
</a>
</g>
</g>
<!-- Node1&#45;&gt;Node12 -->
<g id="edge11_Node000001_Node000012" class="edge">
<title>Node1&#45;&gt;Node12</title>
<g id="a_edge11_Node000001_Node000012"><a xlink:title=" ">
<path fill="none" stroke="#63b8ff" d="M1881.85,-78.35C1804.99,-68.04 1686.38,-51.43 1574.57,-32.48"/>
<polygon fill="#63b8ff" stroke="#63b8ff" points="1575.36,-29.07 1564.91,-30.84 1574.18,-35.97 1575.36,-29.07"/>
</a>
</g>
</g>
<!-- Node13 -->
<g id="Node000013" class="node">
<title>Node13</title>
<g id="a_Node000013"><a xlink:title=" ">
<polygon fill="#e0e0e0" stroke="#999999" points="1716.12,-32 1580.88,-32 1580.88,0 1716.12,0 1716.12,-32"/>
<text text-anchor="start" x="1588.88" y="-18.5" font-family="Helvetica,sans-Serif" font-size="10.00">javafx.beans.property.Read</text>
<text text-anchor="middle" x="1648.5" y="-6.5" font-family="Helvetica,sans-Serif" font-size="10.00">OnlyObjectWrapper</text>
</a>
</g>
</g>
<!-- Node1&#45;&gt;Node13 -->
<g id="edge12_Node000001_Node000013" class="edge">
<title>Node1&#45;&gt;Node13</title>
<g id="a_edge12_Node000001_Node000013"><a xlink:title=" ">
<path fill="none" stroke="#63b8ff" d="M1881.56,-70.27C1833.97,-59.39 1774.32,-45.76 1727.28,-35.01"/>
<polygon fill="#63b8ff" stroke="#63b8ff" points="1728.22,-31.63 1717.69,-32.82 1726.66,-38.46 1728.22,-31.63"/>
</a>
</g>
</g>
<!-- Node14 -->
<g id="Node000014" class="node">
<title>Node14</title>
<g id="a_Node000014"><a xlink:title=" ">
<polygon fill="#e0e0e0" stroke="#999999" points="1876.5,-32 1734.5,-32 1734.5,0 1876.5,0 1876.5,-32"/>
<text text-anchor="start" x="1742.5" y="-18.5" font-family="Helvetica,sans-Serif" font-size="10.00">javafx.beans.property.Simple</text>
<text text-anchor="middle" x="1805.5" y="-6.5" font-family="Helvetica,sans-Serif" font-size="10.00">StringProperty</text>
</a>
</g>
</g>
<!-- Node1&#45;&gt;Node14 -->
<g id="edge13_Node000001_Node000014" class="edge">
<title>Node1&#45;&gt;Node14</title>
<g id="a_edge13_Node000001_Node000014"><a xlink:title=" ">
<path fill="none" stroke="#63b8ff" d="M1916.52,-67.59C1895.45,-57.99 1870.72,-46.72 1849.96,-37.26"/>
<polygon fill="#63b8ff" stroke="#63b8ff" points="1851.43,-34.09 1840.88,-33.12 1848.53,-40.45 1851.43,-34.09"/>
</a>
</g>
</g>
<!-- Node15 -->
<g id="Node000015" class="node">
<title>Node15</title>
<g id="a_Node000015"><a xlink:title=" ">
<polygon fill="#e0e0e0" stroke="#999999" points="2032.25,-32 1894.75,-32 1894.75,0 2032.25,0 2032.25,-32"/>
<text text-anchor="start" x="1902.75" y="-18.5" font-family="Helvetica,sans-Serif" font-size="10.00">javafx.beans.property.String</text>
<text text-anchor="middle" x="1963.5" y="-6.5" font-family="Helvetica,sans-Serif" font-size="10.00">Property</text>
</a>
</g>
</g>
<!-- Node1&#45;&gt;Node15 -->
<g id="edge14_Node000001_Node000015" class="edge">
<title>Node1&#45;&gt;Node15</title>
<g id="a_edge14_Node000001_Node000015"><a xlink:title=" ">
<path fill="none" stroke="#63b8ff" d="M1963.5,-67.79C1963.5,-60.18 1963.5,-51.52 1963.5,-43.52"/>
<polygon fill="#63b8ff" stroke="#63b8ff" points="1967,-43.64 1963.5,-33.64 1960,-43.64 1967,-43.64"/>
</a>
</g>
</g>
<!-- Node16 -->
<g id="Node000016" class="node">
<title>Node16</title>
<g id="a_Node000016"><a xlink:title=" ">
<polygon fill="#e0e0e0" stroke="#999999" points="2206.62,-26 2050.38,-26 2050.38,-6 2206.62,-6 2206.62,-26"/>
<text text-anchor="middle" x="2128.5" y="-12.5" font-family="Helvetica,sans-Serif" font-size="10.00">javafx.collections.FXCollections</text>
</a>
</g>
</g>
<!-- Node1&#45;&gt;Node16 -->
<g id="edge15_Node000001_Node000016" class="edge">
<title>Node1&#45;&gt;Node16</title>
<g id="a_edge15_Node000001_Node000016"><a xlink:title=" ">
<path fill="none" stroke="#63b8ff" d="M2012.56,-67.59C2039.74,-55.73 2072.76,-41.32 2096.6,-30.92"/>
<polygon fill="#63b8ff" stroke="#63b8ff" points="2097.7,-34.26 2105.46,-27.05 2094.9,-27.84 2097.7,-34.26"/>
</a>
</g>
</g>
<!-- Node17 -->
<g id="Node000017" class="node">
<title>Node17</title>
<g id="a_Node000017"><a xlink:title=" ">
<polygon fill="#e0e0e0" stroke="#999999" points="2384.5,-26 2224.5,-26 2224.5,-6 2384.5,-6 2384.5,-26"/>
<text text-anchor="middle" x="2304.5" y="-12.5" font-family="Helvetica,sans-Serif" font-size="10.00">javafx.collections.ObservableList</text>
</a>
</g>
</g>
<!-- Node1&#45;&gt;Node17 -->
<g id="edge16_Node000001_Node000017" class="edge">
<title>Node1&#45;&gt;Node17</title>
<g id="a_edge16_Node000001_Node000017"><a xlink:title=" ">
<path fill="none" stroke="#63b8ff" d="M2045.18,-71.75C2108.04,-58.48 2193.24,-40.49 2248.54,-28.82"/>
<polygon fill="#63b8ff" stroke="#63b8ff" points="2248.98,-32.3 2258.05,-26.81 2247.54,-25.45 2248.98,-32.3"/>
</a>
</g>
</g>
<!-- Node18 -->
<g id="Node000018" class="node">
<title>Node18</title>
<g id="a_Node000018"><a xlink:title=" ">
<polygon fill="#e0e0e0" stroke="#999999" points="2528.25,-32 2402.75,-32 2402.75,0 2528.25,0 2528.25,-32"/>
<text text-anchor="start" x="2410.75" y="-18.5" font-family="Helvetica,sans-Serif" font-size="10.00">javafx.scene.control.Text</text>
<text text-anchor="middle" x="2465.5" y="-6.5" font-family="Helvetica,sans-Serif" font-size="10.00">Formatter</text>
</a>
</g>
</g>
<!-- Node1&#45;&gt;Node18 -->
<g id="edge17_Node000001_Node000018" class="edge">
<title>Node1&#45;&gt;Node18</title>
<g id="a_edge17_Node000001_Node000018"><a xlink:title=" ">
<path fill="none" stroke="#63b8ff" d="M2045.4,-79.96C2129.66,-70.25 2264.93,-53.51 2391.31,-32.3"/>
<polygon fill="#63b8ff" stroke="#63b8ff" points="2391.57,-35.81 2400.84,-30.69 2390.4,-28.9 2391.57,-35.81"/>
</a>
</g>
</g>
<!-- Node19 -->
<g id="Node000019" class="node">
<title>Node19</title>
<g id="a_Node000019"><a xlink:title=" ">
<polygon fill="#e0e0e0" stroke="#999999" points="2702.62,-32 2546.38,-32 2546.38,0 2702.62,0 2702.62,-32"/>
<text text-anchor="start" x="2554.38" y="-18.5" font-family="Helvetica,sans-Serif" font-size="10.00">org.springframework.stereotype.</text>
<text text-anchor="middle" x="2624.5" y="-6.5" font-family="Helvetica,sans-Serif" font-size="10.00">Component</text>
</a>
</g>
</g>
<!-- Node1&#45;&gt;Node19 -->
<g id="edge18_Node000001_Node000019" class="edge">
<title>Node1&#45;&gt;Node19</title>
<g id="a_edge18_Node000001_Node000019"><a xlink:title=" ">
<path fill="none" stroke="#63b8ff" d="M2045.46,-82.72C2154.75,-73.94 2354.45,-56.43 2534.97,-32.28"/>
<polygon fill="#63b8ff" stroke="#63b8ff" points="2535.34,-35.77 2544.79,-30.96 2534.41,-28.83 2535.34,-35.77"/>
</a>
</g>
</g>
<!-- Node20 -->
<g id="Node000020" class="node">
<title>Node20</title>
<g id="a_Node000020"><a xlink:title=" ">
<polygon fill="#e0e0e0" stroke="#999999" points="2884,-32 2721,-32 2721,0 2884,0 2884,-32"/>
<text text-anchor="start" x="2729" y="-18.5" font-family="Helvetica,sans-Serif" font-size="10.00">edu.umd.cs.findbugs.annotations.</text>
<text text-anchor="middle" x="2802.5" y="-6.5" font-family="Helvetica,sans-Serif" font-size="10.00">SuppressFBWarnings</text>
</a>
</g>
</g>
<!-- Node1&#45;&gt;Node20 -->
<g id="edge19_Node000001_Node000020" class="edge">
<title>Node1&#45;&gt;Node20</title>
<g id="a_edge19_Node000001_Node000020"><a xlink:title=" ">
<path fill="none" stroke="#63b8ff" d="M2045.36,-85.11C2181.1,-78.13 2461.53,-61.54 2709.3,-32.19"/>
<polygon fill="#63b8ff" stroke="#63b8ff" points="2709.68,-35.67 2719.19,-31.01 2708.85,-28.72 2709.68,-35.67"/>
</a>
</g>
</g>
<!-- Node21 -->
<g id="Node000021" class="node">
<title>Node21</title>
<g id="a_Node000021"><a xlink:title=" ">
<polygon fill="#e0e0e0" stroke="#999999" points="3089,-26 2902,-26 2902,-6 3089,-6 3089,-26"/>
<text text-anchor="middle" x="2995.5" y="-12.5" font-family="Helvetica,sans-Serif" font-size="10.00">fr.softsf.sudokufx.common.enums.I18n</text>
</a>
</g>
</g>
<!-- Node1&#45;&gt;Node21 -->
<g id="edge20_Node000001_Node000021" class="edge">
<title>Node1&#45;&gt;Node21</title>
<g id="a_edge20_Node000001_Node000021"><a xlink:title=" ">
<path fill="none" stroke="#63b8ff" d="M2045.49,-86.31C2207.75,-80.48 2581.16,-64.48 2893.5,-32 2903.94,-30.91 2914.95,-29.54 2925.71,-28.06"/>
<polygon fill="#63b8ff" stroke="#63b8ff" points="2925.9,-31.57 2935.32,-26.71 2924.93,-24.64 2925.9,-31.57"/>
</a>
</g>
</g>
<!-- Node22 -->
<g id="Node000022" class="node">
<title>Node22</title>
<g id="a_Node000022"><a xlink:title=" ">
<polygon fill="#e0e0e0" stroke="#999999" points="3275.62,-32 3107.38,-32 3107.38,0 3275.62,0 3275.62,-32"/>
<text text-anchor="start" x="3115.38" y="-18.5" font-family="Helvetica,sans-Serif" font-size="10.00">fr.softsf.sudokufx.common.enums.</text>
<text text-anchor="middle" x="3191.5" y="-6.5" font-family="Helvetica,sans-Serif" font-size="10.00">PlayerConstants</text>
</a>
</g>
</g>
<!-- Node1&#45;&gt;Node22 -->
<g id="edge21_Node000001_Node000022" class="edge">
<title>Node1&#45;&gt;Node22</title>
<g id="a_edge21_Node000001_Node000022"><a xlink:title=" ">
<path fill="none" stroke="#63b8ff" d="M2045.29,-87.97C2230.56,-84.96 2696.59,-73.66 3095.71,-32.22"/>
<polygon fill="#63b8ff" stroke="#63b8ff" points="3095.82,-35.73 3105.4,-31.21 3095.09,-28.77 3095.82,-35.73"/>
</a>
</g>
</g>
<!-- Node23 -->
<g id="Node000023" class="node">
<title>Node23</title>
<g id="a_Node000023"><a xlink:title=" ">
<polygon fill="#e0e0e0" stroke="#999999" points="3461.62,-32 3293.38,-32 3293.38,0 3461.62,0 3461.62,-32"/>
<text text-anchor="start" x="3301.38" y="-18.5" font-family="Helvetica,sans-Serif" font-size="10.00">fr.softsf.sudokufx.common.enums.</text>
<text text-anchor="middle" x="3377.5" y="-6.5" font-family="Helvetica,sans-Serif" font-size="10.00">PlayerNameStatus</text>
</a>
</g>
</g>
<!-- Node1&#45;&gt;Node23 -->
<g id="edge22_Node000001_Node000023" class="edge">
<title>Node1&#45;&gt;Node23</title>
<g id="a_edge22_Node000001_Node000023"><a xlink:title=" ">
<path fill="none" stroke="#63b8ff" d="M2045.29,-88.79C2251.32,-87.53 2808.4,-79.73 3281.74,-32.2"/>
<polygon fill="#63b8ff" stroke="#63b8ff" points="3281.81,-35.72 3291.4,-31.23 3281.1,-28.75 3281.81,-35.72"/>
</a>
</g>
</g>
<!-- Node24 -->
<g id="Node000024" class="node">
<title>Node24</title>
<g id="a_Node000024"><a xlink:title=" ">
<polygon fill="#e0e0e0" stroke="#999999" points="3661,-32 3480,-32 3480,0 3661,0 3661,-32"/>
<text text-anchor="start" x="3488" y="-18.5" font-family="Helvetica,sans-Serif" font-size="10.00">fr.softsf.sudokufx.common.exception.</text>
<text text-anchor="middle" x="3570.5" y="-6.5" font-family="Helvetica,sans-Serif" font-size="10.00">ExceptionTools</text>
</a>
</g>
</g>
<!-- Node1&#45;&gt;Node24 -->
<g id="edge23_Node000001_Node000024" class="edge">
<title>Node1&#45;&gt;Node24</title>
<g id="a_edge23_Node000001_Node000024"><a xlink:title=" ">
<path fill="none" stroke="#63b8ff" d="M2045.39,-89.09C2270.76,-88.67 2919.34,-82.84 3468.21,-32.14"/>
<polygon fill="#63b8ff" stroke="#63b8ff" points="3468.39,-35.63 3478.03,-31.22 3467.75,-28.66 3468.39,-35.63"/>
</a>
</g>
</g>
<!-- Node25 -->
<g id="Node000025" class="node">
<title>Node25</title>
<g id="a_Node000025"><a xlink:title=" ">
<polygon fill="#e0e0e0" stroke="#999999" points="3830.38,-32 3678.62,-32 3678.62,0 3830.38,0 3830.38,-32"/>
<text text-anchor="start" x="3686.62" y="-18.5" font-family="Helvetica,sans-Serif" font-size="10.00">fr.softsf.sudokufx.common.util.</text>
<text text-anchor="middle" x="3754.5" y="-6.5" font-family="Helvetica,sans-Serif" font-size="10.00">MyRegex</text>
</a>
</g>
</g>
<!-- Node1&#45;&gt;Node25 -->
<g id="edge24_Node000001_Node000025" class="edge">
<title>Node1&#45;&gt;Node25</title>
<g id="a_edge24_Node000001_Node000025"><a xlink:title=" ">
<path fill="none" stroke="#63b8ff" d="M2045.44,-87.82C2337.39,-83.38 3327.06,-66.22 3667.23,-32.23"/>
<polygon fill="#63b8ff" stroke="#63b8ff" points="3667.47,-35.72 3677.06,-31.22 3666.75,-28.76 3667.47,-35.72"/>
</a>
</g>
</g>
<!-- Node26 -->
<g id="Node000026" class="node">
<title>Node26</title>
<g id="a_Node000026"><a xlink:title=" ">
<polygon fill="#e0e0e0" stroke="#999999" points="4004.25,-26 3848.75,-26 3848.75,-6 4004.25,-6 4004.25,-26"/>
<text text-anchor="middle" x="3926.5" y="-12.5" font-family="Helvetica,sans-Serif" font-size="10.00">fr.softsf.sudokufx.dto.PlayerDto</text>
</a>
</g>
</g>
<!-- Node1&#45;&gt;Node26 -->
<g id="edge25_Node000001_Node000026" class="edge">
<title>Node1&#45;&gt;Node26</title>
<g id="a_edge25_Node000001_Node000026"><a xlink:title=" ">
<path fill="none" stroke="#63b8ff" d="M2045.33,-88.04C2358.86,-84.14 3483.69,-67.9 3839.5,-32 3848.61,-31.08 3858.2,-29.77 3867.56,-28.31"/>
<polygon fill="#63b8ff" stroke="#63b8ff" points="3868.01,-31.78 3877.31,-26.71 3866.87,-24.88 3868.01,-31.78"/>
</a>
</g>
</g>
<!-- Node27 -->
<g id="Node000027" class="node">
<title>Node27</title>
<g id="a_Node000027"><a xlink:title=" ">
<polygon fill="#e0e0e0" stroke="#999999" points="4194.5,-32 4022.5,-32 4022.5,0 4194.5,0 4194.5,-32"/>
<text text-anchor="start" x="4030.5" y="-18.5" font-family="Helvetica,sans-Serif" font-size="10.00">fr.softsf.sudokufx.service.business.</text>
<text text-anchor="middle" x="4108.5" y="-6.5" font-family="Helvetica,sans-Serif" font-size="10.00">PlayerService</text>
</a>
</g>
</g>
<!-- Node1&#45;&gt;Node27 -->
<g id="edge26_Node000001_Node000027" class="edge">
<title>Node1&#45;&gt;Node27</title>
<g id="a_edge26_Node000001_Node000027"><a xlink:title=" ">
<path fill="none" stroke="#63b8ff" d="M2045.45,-88.13C2374.12,-84.44 3598.52,-68.54 4010.73,-32.15"/>
<polygon fill="#63b8ff" stroke="#63b8ff" points="4010.94,-35.65 4020.58,-31.26 4010.31,-28.68 4010.94,-35.65"/>
</a>
</g>
</g>
<!-- Node28 -->
<g id="Node000028" class="node">
<title>Node28</title>
<g id="a_Node000028"><a xlink:title=" ">
<polygon fill="#e0e0e0" stroke="#999999" points="4382.38,-32 4212.62,-32 4212.62,0 4382.38,0 4382.38,-32"/>
<text text-anchor="start" x="4220.62" y="-18.5" font-family="Helvetica,sans-Serif" font-size="10.00">fr.softsf.sudokufx.viewmodel.state.</text>
<text text-anchor="middle" x="4297.5" y="-6.5" font-family="Helvetica,sans-Serif" font-size="10.00">PlayerStateHolder</text>
</a>
</g>
</g>
<!-- Node1&#45;&gt;Node28 -->
<g id="edge27_Node000001_Node000028" class="edge">
<title>Node1&#45;&gt;Node28</title>
<g id="a_edge27_Node000001_Node000028"><a xlink:title=" ">
<path fill="none" stroke="#63b8ff" d="M2045.21,-88.38C2392.61,-85.5 3749.28,-71.96 4201.1,-32.11"/>
<polygon fill="#63b8ff" stroke="#63b8ff" points="4201.1,-35.63 4210.75,-31.24 4200.48,-28.66 4201.1,-35.63"/>
</a>
</g>
</g>
</g>
</svg>

<g id="navigator" transform="translate(0 0)" fill="#404254">
  <rect fill="#f2f5e9" fill-opacity="0.5" stroke="#606060" stroke-width=".5" x="0" y="0" width="60" height="60"/>
  <use id="zoomplus" xlink:href="#zoomPlus" x="17" y="9" onmousedown="handleZoom(evt,'in')"/>
  <use id="zoomminus" xlink:href="#zoomMin" x="42" y="9" onmousedown="handleZoom(evt,'out')"/>
  <use id="reset" xlink:href="#resetDef" x="30" y="36" onmousedown="handleReset()"/>
   <use id="arrowup" xlink:href="#arrowUp" x="0" y="0" onmousedown="handlePan(0,-1)"/>
  <use id="arrowright" xlink:href="#arrowRight" x="0" y="0" onmousedown="handlePan(1,0)"/>
  <use id="arrowdown" xlink:href="#arrowDown" x="0" y="0" onmousedown="handlePan(0,1)"/>
  <use id="arrowleft" xlink:href="#arrowLeft" x="0" y="0" onmousedown="handlePan(-1,0)"/>
</g>
<svg viewBox="0 0 15 15" width="100%" height="30px" preserveAspectRatio="xMaxYMin meet">
 <g id="arrow_out" transform="scale(0.3 0.3)">
  <a xlink:href="_menu_player_view_model_8java__incl_org.svg" target="_base">
   <rect id="button" ry="5" rx="5" y="6" x="6" height="38" width="38"
        fill="#f2f5e9" fill-opacity="0.5" stroke="#606060" stroke-width="1.0"/>
   <path id="arrow"
     d="M 11.500037,31.436501 C 11.940474,20.09759 22.043105,11.32322 32.158766,21.979434 L 37.068811,17.246167 C 37.068811,17.246167 37.088388,32 37.088388,32 L 22.160133,31.978069 C 22.160133,31.978069 26.997745,27.140456 26.997745,27.140456 C 18.528582,18.264221 13.291696,25.230495 11.500037,31.436501 z"
     style="fill:#404040;"/>
  </a>
 </g>
</svg>

<style type='text/css'>
<![CDATA[
[data-mouse-over-selected='false'] { opacity: 0.7; }
[data-mouse-over-selected='true']  { opacity: 1.0; }
]]>
</style>
<script type="application/ecmascript"><![CDATA[
document.addEventListener('DOMContentLoaded', (event) => {
  highlightEdges();
  highlightAdjacentNodes();
});
]]></script>
</svg>
