<?xml version="1.0" encoding="UTF-8" standalone="no"?>
<!DOCTYPE svg PUBLIC "-//W3C//DTD SVG 1.1//EN"
 "http://www.w3.org/Graphics/SVG/1.1/DTD/svg11.dtd">
<!-- Generated by graphviz version 12.2.1 (20241206.2353)
 -->
<!-- Title: src/main/java/fr/softsf/sudokufx/viewmodel/MenuOptionsViewModel.java Pages: 1 -->
<!--zoomable 120 -->

<svg id="main" version="1.1" xmlns="http://www.w3.org/2000/svg" xmlns:xlink="http://www.w3.org/1999/xlink" xml:space="preserve" onload="init(evt)">

<style type="text/css"><![CDATA[
.node, .edge {opacity: 0.7;}
.node.selected, .edge.selected {opacity: 1;}
.edge:hover path { stroke: red; }
.edge:hover polygon { stroke: red; fill: red; }
]]></style>

<defs>
  <circle id="rim" cx="0" cy="0" r="7"/>
  <circle id="rim2" cx="0" cy="0" r="3.5"/>
  <g id="zoomPlus">
    <use xlink:href="#rim" fill="#404040"><set attributeName="fill" to="#808080" begin="zoomplus.mouseover" end="zoomplus.mouseout"/></use>
    <path d="M-4,0h8M0,-4v8" fill="none" stroke="white" stroke-width="1.5" pointer-events="none"/>
  </g>
  <g id="zoomMin">
    <use xlink:href="#rim" fill="#404040"><set attributeName="fill" to="#808080" begin="zoomminus.mouseover" end="zoomminus.mouseout"/></use>
    <path d="M-4,0h8" fill="none" stroke="white" stroke-width="1.5" pointer-events="none"/>
  </g>
  <g id="arrowUp" transform="translate(30 24)">
    <use xlink:href="#rim"/>
    <path pointer-events="none" fill="none" stroke="white" stroke-width="1.5" d="M0,-3.0v7 M-2.5,-0.5L0,-3.0L2.5,-0.5"/>
  </g>
  <g id="arrowRight" transform="rotate(90) translate(36 -43)">
    <use xlink:href="#rim"/>
    <path pointer-events="none" fill="none" stroke="white" stroke-width="1.5" d="M0,-3.0v7 M-2.5,-0.5L0,-3.0L2.5,-0.5"/>
  </g>
  <g id="arrowDown" transform="rotate(180) translate(-30 -48)">
    <use xlink:href="#rim"/>
    <path pointer-events="none" fill="none" stroke="white" stroke-width="1.5" d="M0,-3.0v7 M-2.5,-0.5L0,-3.0L2.5,-0.5"/>
  </g>
  <g id="arrowLeft" transform="rotate(270) translate(-36 17)">
    <use xlink:href="#rim"/>
    <path pointer-events="none" fill="none" stroke="white" stroke-width="1.5" d="M0,-3.0v7 M-2.5,-0.5L0,-3.0L2.5,-0.5"/>
  </g>
  <g id="resetDef">
    <use xlink:href="#rim2" fill="#404040"><set attributeName="fill" to="#808080" begin="reset.mouseover" end="reset.mouseout"/></use>
  </g>
</defs>
<script type="application/ecmascript">
var viewWidth = 5576;
var viewHeight = 120;
var sectionId = 'dynsection-0';
</script>
<script type="application/ecmascript" xlink:href="svg.min.js"/>
<svg id="graph" class="graph">
<g id="viewport">
<title>src/main/java/fr/softsf/sudokufx/viewmodel/MenuOptionsViewModel.java</title>
<!-- Node1 -->
<g id="Node000001" class="node">
<title>Node1</title>
<g id="a_Node000001"><a xlink:title=" ">
<polygon fill="#999999" stroke="#666666" points="2643.12,-112 2474.12,-112 2474.12,-68 2643.12,-68 2643.12,-112"/>
<text text-anchor="start" x="2482.12" y="-98.5" font-family="Helvetica,sans-Serif" font-size="10.00">src/main/java/fr/softsf</text>
<text text-anchor="start" x="2482.12" y="-86.5" font-family="Helvetica,sans-Serif" font-size="10.00">/sudokufx/viewmodel/MenuOptions</text>
<text text-anchor="middle" x="2558.62" y="-74.5" font-family="Helvetica,sans-Serif" font-size="10.00">ViewModel.java</text>
</a>
</g>
</g>
<!-- Node2 -->
<g id="Node000002" class="node">
<title>Node2</title>
<g id="a_Node000002"><a xlink:title=" ">
<polygon fill="#e0e0e0" stroke="#999999" points="63.25,-26 0,-26 0,-6 63.25,-6 63.25,-26"/>
<text text-anchor="middle" x="31.62" y="-12.5" font-family="Helvetica,sans-Serif" font-size="10.00">java.io.File</text>
</a>
</g>
</g>
<!-- Node1&#45;&gt;Node2 -->
<g id="edge1_Node000001_Node000002" class="edge">
<title>Node1&#45;&gt;Node2</title>
<g id="a_edge1_Node000001_Node000002"><a xlink:title=" ">
<path fill="none" stroke="#63b8ff" d="M2473.74,-88.7C2065.31,-87.04 312.23,-77.29 72.62,-32 69.82,-31.47 66.96,-30.77 64.11,-29.97"/>
<polygon fill="#63b8ff" stroke="#63b8ff" points="65.41,-26.71 54.82,-26.93 63.23,-33.36 65.41,-26.71"/>
</a>
</g>
</g>
<!-- Node3 -->
<g id="Node000003" class="node">
<title>Node3</title>
<g id="a_Node000003"><a xlink:title=" ">
<polygon fill="#e0e0e0" stroke="#999999" points="175.62,-26 81.62,-26 81.62,-6 175.62,-6 175.62,-26"/>
<text text-anchor="middle" x="128.62" y="-12.5" font-family="Helvetica,sans-Serif" font-size="10.00">java.nio.file.Paths</text>
</a>
</g>
</g>
<!-- Node1&#45;&gt;Node3 -->
<g id="edge2_Node000001_Node000003" class="edge">
<title>Node1&#45;&gt;Node3</title>
<g id="a_edge2_Node000001_Node000003"><a xlink:title=" ">
<path fill="none" stroke="#63b8ff" d="M2473.71,-88.16C2076.84,-84.06 414.36,-65.04 184.62,-32 179.67,-31.29 174.53,-30.29 169.46,-29.13"/>
<polygon fill="#63b8ff" stroke="#63b8ff" points="170.6,-25.81 160.05,-26.79 168.91,-32.6 170.6,-25.81"/>
</a>
</g>
</g>
<!-- Node4 -->
<g id="Node000004" class="node">
<title>Node4</title>
<g id="a_Node000004"><a xlink:title=" ">
<polygon fill="#e0e0e0" stroke="#999999" points="321.12,-26 194.12,-26 194.12,-6 321.12,-6 321.12,-26"/>
<text text-anchor="middle" x="257.62" y="-12.5" font-family="Helvetica,sans-Serif" font-size="10.00">java.text.MessageFormat</text>
</a>
</g>
</g>
<!-- Node1&#45;&gt;Node4 -->
<g id="edge3_Node000001_Node000004" class="edge">
<title>Node1&#45;&gt;Node4</title>
<g id="a_edge3_Node000001_Node000004"><a xlink:title=" ">
<path fill="none" stroke="#63b8ff" d="M2473.74,-88.84C2119.46,-87.86 757.33,-80.91 330.62,-32 323.37,-31.17 315.76,-29.97 308.32,-28.62"/>
<polygon fill="#63b8ff" stroke="#63b8ff" points="309.17,-25.22 298.69,-26.75 307.84,-32.09 309.17,-25.22"/>
</a>
</g>
</g>
<!-- Node5 -->
<g id="Node000005" class="node">
<title>Node5</title>
<g id="a_Node000005"><a xlink:title=" ">
<polygon fill="#e0e0e0" stroke="#999999" points="425.88,-26 339.38,-26 339.38,-6 425.88,-6 425.88,-26"/>
<text text-anchor="middle" x="382.62" y="-12.5" font-family="Helvetica,sans-Serif" font-size="10.00">java.util.Objects</text>
</a>
</g>
</g>
<!-- Node1&#45;&gt;Node5 -->
<g id="edge4_Node000001_Node000005" class="edge">
<title>Node1&#45;&gt;Node5</title>
<g id="a_edge4_Node000001_Node000005"><a xlink:title=" ">
<path fill="none" stroke="#63b8ff" d="M2473.85,-88C2103.64,-83.44 638.19,-63.56 434.62,-32 430.31,-31.33 425.85,-30.41 421.43,-29.35"/>
<polygon fill="#63b8ff" stroke="#63b8ff" points="422.7,-26.07 412.13,-26.89 420.9,-32.83 422.7,-26.07"/>
</a>
</g>
</g>
<!-- Node6 -->
<g id="Node000006" class="node">
<title>Node6</title>
<g id="a_Node000006"><a xlink:title=" ">
<polygon fill="#e0e0e0" stroke="#999999" points="569.38,-26 443.88,-26 443.88,-6 569.38,-6 569.38,-26"/>
<text text-anchor="middle" x="506.62" y="-12.5" font-family="Helvetica,sans-Serif" font-size="10.00">java.util.function.Supplier</text>
</a>
</g>
</g>
<!-- Node1&#45;&gt;Node6 -->
<g id="edge5_Node000001_Node000006" class="edge">
<title>Node1&#45;&gt;Node6</title>
<g id="a_edge5_Node000001_Node000006"><a xlink:title=" ">
<path fill="none" stroke="#63b8ff" d="M2473.9,-88.55C2145.21,-86.51 954.1,-76.17 578.62,-32 571.55,-31.17 564.14,-29.99 556.88,-28.65"/>
<polygon fill="#63b8ff" stroke="#63b8ff" points="557.63,-25.23 547.14,-26.73 556.28,-32.1 557.63,-25.23"/>
</a>
</g>
</g>
<!-- Node7 -->
<g id="Node000007" class="node">
<title>Node7</title>
<g id="a_Node000007"><a xlink:title=" ">
<polygon fill="#e0e0e0" stroke="#999999" points="711.62,-26 587.62,-26 587.62,-6 711.62,-6 711.62,-26"/>
<text text-anchor="middle" x="649.62" y="-12.5" font-family="Helvetica,sans-Serif" font-size="10.00">javafx.beans.Observable</text>
</a>
</g>
</g>
<!-- Node1&#45;&gt;Node7 -->
<g id="edge6_Node000001_Node000007" class="edge">
<title>Node1&#45;&gt;Node7</title>
<g id="a_edge6_Node000001_Node000007"><a xlink:title=" ">
<path fill="none" stroke="#63b8ff" d="M2473.88,-88.37C2160.41,-85.71 1066.82,-73.6 720.62,-32 713.65,-31.16 706.34,-29.98 699.18,-28.64"/>
<polygon fill="#63b8ff" stroke="#63b8ff" points="700.08,-25.25 689.59,-26.72 698.72,-32.11 700.08,-25.25"/>
</a>
</g>
</g>
<!-- Node8 -->
<g id="Node000008" class="node">
<title>Node8</title>
<g id="a_Node000008"><a xlink:title=" ">
<polygon fill="#e0e0e0" stroke="#999999" points="875.5,-26 729.75,-26 729.75,-6 875.5,-6 875.5,-26"/>
<text text-anchor="middle" x="802.62" y="-12.5" font-family="Helvetica,sans-Serif" font-size="10.00">javafx.beans.binding.Bindings</text>
</a>
</g>
</g>
<!-- Node1&#45;&gt;Node8 -->
<g id="edge7_Node000001_Node000008" class="edge">
<title>Node1&#45;&gt;Node8</title>
<g id="a_edge7_Node000001_Node000008"><a xlink:title=" ">
<path fill="none" stroke="#63b8ff" d="M2473.72,-87.76C2178.47,-83.19 1197.59,-65.77 884.62,-32 876.22,-31.09 867.38,-29.82 858.75,-28.39"/>
<polygon fill="#63b8ff" stroke="#63b8ff" points="859.51,-24.97 849.06,-26.71 858.31,-31.87 859.51,-24.97"/>
</a>
</g>
</g>
<!-- Node9 -->
<g id="Node000009" class="node">
<title>Node9</title>
<g id="a_Node000009"><a xlink:title=" ">
<polygon fill="#e0e0e0" stroke="#999999" points="1027.5,-32 893.75,-32 893.75,0 1027.5,0 1027.5,-32"/>
<text text-anchor="start" x="901.75" y="-18.5" font-family="Helvetica,sans-Serif" font-size="10.00">javafx.beans.binding.String</text>
<text text-anchor="middle" x="960.62" y="-6.5" font-family="Helvetica,sans-Serif" font-size="10.00">Binding</text>
</a>
</g>
</g>
<!-- Node1&#45;&gt;Node9 -->
<g id="edge8_Node000001_Node000009" class="edge">
<title>Node1&#45;&gt;Node9</title>
<g id="a_edge8_Node000001_Node000009"><a xlink:title=" ">
<path fill="none" stroke="#63b8ff" d="M2473.81,-87.58C2200.01,-82.74 1340.51,-65.31 1039.02,-32.12"/>
<polygon fill="#63b8ff" stroke="#63b8ff" points="1039.51,-28.65 1029.18,-31 1038.72,-35.6 1039.51,-28.65"/>
</a>
</g>
</g>
<!-- Node10 -->
<g id="Node000010" class="node">
<title>Node10</title>
<g id="a_Node000010"><a xlink:title=" ">
<polygon fill="#e0e0e0" stroke="#999999" points="1193.25,-32 1046,-32 1046,0 1193.25,0 1193.25,-32"/>
<text text-anchor="start" x="1054" y="-18.5" font-family="Helvetica,sans-Serif" font-size="10.00">javafx.beans.property.Boolean</text>
<text text-anchor="middle" x="1119.62" y="-6.5" font-family="Helvetica,sans-Serif" font-size="10.00">Property</text>
</a>
</g>
</g>
<!-- Node1&#45;&gt;Node10 -->
<g id="edge9_Node000001_Node000010" class="edge">
<title>Node1&#45;&gt;Node10</title>
<g id="a_edge9_Node000001_Node000010"><a xlink:title=" ">
<path fill="none" stroke="#63b8ff" d="M2473.83,-89.45C2261.53,-89.73 1689.99,-85.13 1204.41,-32.08"/>
<polygon fill="#63b8ff" stroke="#63b8ff" points="1205.14,-28.64 1194.82,-31.02 1204.38,-35.6 1205.14,-28.64"/>
</a>
</g>
</g>
<!-- Node11 -->
<g id="Node000011" class="node">
<title>Node11</title>
<g id="a_Node000011"><a xlink:title=" ">
<polygon fill="#e0e0e0" stroke="#999999" points="1353.62,-32 1211.62,-32 1211.62,0 1353.62,0 1353.62,-32"/>
<text text-anchor="start" x="1219.62" y="-18.5" font-family="Helvetica,sans-Serif" font-size="10.00">javafx.beans.property.Simple</text>
<text text-anchor="middle" x="1282.62" y="-6.5" font-family="Helvetica,sans-Serif" font-size="10.00">BooleanProperty</text>
</a>
</g>
</g>
<!-- Node1&#45;&gt;Node11 -->
<g id="edge10_Node000001_Node000011" class="edge">
<title>Node1&#45;&gt;Node11</title>
<g id="a_edge10_Node000001_Node000011"><a xlink:title=" ">
<path fill="none" stroke="#63b8ff" d="M2473.83,-88.96C2279.34,-88 1786.13,-80.66 1365.26,-32.2"/>
<polygon fill="#63b8ff" stroke="#63b8ff" points="1365.92,-28.75 1355.58,-31.08 1365.11,-35.71 1365.92,-28.75"/>
</a>
</g>
</g>
<!-- Node12 -->
<g id="Node000012" class="node">
<title>Node12</title>
<g id="a_Node000012"><a xlink:title=" ">
<polygon fill="#e0e0e0" stroke="#999999" points="1513.62,-32 1371.62,-32 1371.62,0 1513.62,0 1513.62,-32"/>
<text text-anchor="start" x="1379.62" y="-18.5" font-family="Helvetica,sans-Serif" font-size="10.00">javafx.beans.property.Simple</text>
<text text-anchor="middle" x="1442.62" y="-6.5" font-family="Helvetica,sans-Serif" font-size="10.00">StringProperty</text>
</a>
</g>
</g>
<!-- Node1&#45;&gt;Node12 -->
<g id="edge11_Node000001_Node000012" class="edge">
<title>Node1&#45;&gt;Node12</title>
<g id="a_edge11_Node000001_Node000012"><a xlink:title=" ">
<path fill="none" stroke="#63b8ff" d="M2473.7,-88.07C2298.22,-85.33 1882.87,-74.66 1525.44,-32.24"/>
<polygon fill="#63b8ff" stroke="#63b8ff" points="1525.93,-28.77 1515.59,-31.06 1525.1,-35.72 1525.93,-28.77"/>
</a>
</g>
</g>
<!-- Node13 -->
<g id="Node000013" class="node">
<title>Node13</title>
<g id="a_Node000013"><a xlink:title=" ">
<polygon fill="#e0e0e0" stroke="#999999" points="1661.62,-32 1531.62,-32 1531.62,0 1661.62,0 1661.62,-32"/>
<text text-anchor="start" x="1539.62" y="-18.5" font-family="Helvetica,sans-Serif" font-size="10.00">javafx.scene.control.Color</text>
<text text-anchor="middle" x="1596.62" y="-6.5" font-family="Helvetica,sans-Serif" font-size="10.00">Picker</text>
</a>
</g>
</g>
<!-- Node1&#45;&gt;Node13 -->
<g id="edge12_Node000001_Node000013" class="edge">
<title>Node1&#45;&gt;Node13</title>
<g id="a_edge12_Node000001_Node000013"><a xlink:title=" ">
<path fill="none" stroke="#63b8ff" d="M2473.77,-87.39C2317.24,-83.57 1972.44,-71.26 1672.99,-32.2"/>
<polygon fill="#63b8ff" stroke="#63b8ff" points="1673.79,-28.77 1663.41,-30.93 1672.87,-35.71 1673.79,-28.77"/>
</a>
</g>
</g>
<!-- Node14 -->
<g id="Node000014" class="node">
<title>Node14</title>
<g id="a_Node000014"><a xlink:title=" ">
<polygon fill="#e0e0e0" stroke="#999999" points="1810,-26 1679.25,-26 1679.25,-6 1810,-6 1810,-26"/>
<text text-anchor="middle" x="1744.62" y="-12.5" font-family="Helvetica,sans-Serif" font-size="10.00">javafx.scene.image.Image</text>
</a>
</g>
</g>
<!-- Node1&#45;&gt;Node14 -->
<g id="edge13_Node000001_Node000014" class="edge">
<title>Node1&#45;&gt;Node14</title>
<g id="a_edge13_Node000001_Node000014"><a xlink:title=" ">
<path fill="none" stroke="#63b8ff" d="M2473.64,-85.86C2335.66,-79.99 2054.56,-64.87 1818.62,-32 1811.89,-31.06 1804.85,-29.89 1797.89,-28.61"/>
<polygon fill="#63b8ff" stroke="#63b8ff" points="1798.7,-25.2 1788.22,-26.75 1797.38,-32.08 1798.7,-25.2"/>
</a>
</g>
</g>
<!-- Node15 -->
<g id="Node000015" class="node">
<title>Node15</title>
<g id="a_Node000015"><a xlink:title=" ">
<polygon fill="#e0e0e0" stroke="#999999" points="1983.38,-26 1827.88,-26 1827.88,-6 1983.38,-6 1983.38,-26"/>
<text text-anchor="middle" x="1905.62" y="-12.5" font-family="Helvetica,sans-Serif" font-size="10.00">javafx.scene.layout.Background</text>
</a>
</g>
</g>
<!-- Node1&#45;&gt;Node15 -->
<g id="edge14_Node000001_Node000015" class="edge">
<title>Node1&#45;&gt;Node15</title>
<g id="a_edge14_Node000001_Node000015"><a xlink:title=" ">
<path fill="none" stroke="#63b8ff" d="M2474.02,-82.35C2363.18,-73.21 2162.89,-55.22 1992.62,-32 1984.69,-30.92 1976.37,-29.65 1968.15,-28.32"/>
<polygon fill="#63b8ff" stroke="#63b8ff" points="1968.99,-24.91 1958.55,-26.73 1967.84,-31.82 1968.99,-24.91"/>
</a>
</g>
</g>
<!-- Node16 -->
<g id="Node000016" class="node">
<title>Node16</title>
<g id="a_Node000016"><a xlink:title=" ">
<polygon fill="#e0e0e0" stroke="#999999" points="2169.75,-26 2001.5,-26 2001.5,-6 2169.75,-6 2169.75,-26"/>
<text text-anchor="middle" x="2085.62" y="-12.5" font-family="Helvetica,sans-Serif" font-size="10.00">javafx.scene.layout.BackgroundFill</text>
</a>
</g>
</g>
<!-- Node1&#45;&gt;Node16 -->
<g id="edge15_Node000001_Node000016" class="edge">
<title>Node1&#45;&gt;Node16</title>
<g id="a_edge15_Node000001_Node000016"><a xlink:title=" ">
<path fill="none" stroke="#63b8ff" d="M2473.69,-76.53C2396.65,-65.16 2279.97,-47.77 2178.62,-32 2170.94,-30.8 2162.89,-29.53 2154.89,-28.26"/>
<polygon fill="#63b8ff" stroke="#63b8ff" points="2155.57,-24.82 2145.15,-26.7 2154.47,-31.74 2155.57,-24.82"/>
</a>
</g>
</g>
<!-- Node17 -->
<g id="Node000017" class="node">
<title>Node17</title>
<g id="a_Node000017"><a xlink:title=" ">
<polygon fill="#e0e0e0" stroke="#999999" points="2331.75,-26 2187.5,-26 2187.5,-6 2331.75,-6 2331.75,-26"/>
<text text-anchor="middle" x="2259.62" y="-12.5" font-family="Helvetica,sans-Serif" font-size="10.00">javafx.scene.layout.GridPane</text>
</a>
</g>
</g>
<!-- Node1&#45;&gt;Node17 -->
<g id="edge16_Node000001_Node000017" class="edge">
<title>Node1&#45;&gt;Node17</title>
<g id="a_edge16_Node000001_Node000017"><a xlink:title=" ">
<path fill="none" stroke="#63b8ff" d="M2473.74,-68.56C2420.85,-55.82 2354.6,-39.87 2309.91,-29.11"/>
<polygon fill="#63b8ff" stroke="#63b8ff" points="2310.77,-25.72 2300.23,-26.78 2309.13,-32.52 2310.77,-25.72"/>
</a>
</g>
</g>
<!-- Node18 -->
<g id="Node000018" class="node">
<title>Node18</title>
<g id="a_Node000018"><a xlink:title=" ">
<polygon fill="#e0e0e0" stroke="#999999" points="2471.5,-26 2349.75,-26 2349.75,-6 2471.5,-6 2471.5,-26"/>
<text text-anchor="middle" x="2410.62" y="-12.5" font-family="Helvetica,sans-Serif" font-size="10.00">javafx.scene.paint.Color</text>
</a>
</g>
</g>
<!-- Node1&#45;&gt;Node18 -->
<g id="edge17_Node000001_Node000018" class="edge">
<title>Node1&#45;&gt;Node18</title>
<g id="a_edge17_Node000001_Node000018"><a xlink:title=" ">
<path fill="none" stroke="#63b8ff" d="M2514.62,-67.59C2490.57,-55.89 2461.42,-41.71 2440.11,-31.35"/>
<polygon fill="#63b8ff" stroke="#63b8ff" points="2441.93,-28.34 2431.41,-27.11 2438.87,-34.63 2441.93,-28.34"/>
</a>
</g>
</g>
<!-- Node19 -->
<g id="Node000019" class="node">
<title>Node19</title>
<g id="a_Node000019"><a xlink:title=" ">
<polygon fill="#e0e0e0" stroke="#999999" points="2628.12,-32 2489.12,-32 2489.12,0 2628.12,0 2628.12,-32"/>
<text text-anchor="start" x="2497.12" y="-18.5" font-family="Helvetica,sans-Serif" font-size="10.00">org.apache.commons.lang3.</text>
<text text-anchor="middle" x="2558.62" y="-6.5" font-family="Helvetica,sans-Serif" font-size="10.00">StringUtils</text>
</a>
</g>
</g>
<!-- Node1&#45;&gt;Node19 -->
<g id="edge18_Node000001_Node000019" class="edge">
<title>Node1&#45;&gt;Node19</title>
<g id="a_edge18_Node000001_Node000019"><a xlink:title=" ">
<path fill="none" stroke="#63b8ff" d="M2558.62,-67.79C2558.62,-60.18 2558.62,-51.52 2558.62,-43.52"/>
<polygon fill="#63b8ff" stroke="#63b8ff" points="2562.13,-43.64 2558.63,-33.64 2555.13,-43.64 2562.13,-43.64"/>
</a>
</g>
</g>
<!-- Node20 -->
<g id="Node000020" class="node">
<title>Node20</title>
<g id="a_Node000020"><a xlink:title=" ">
<polygon fill="#e0e0e0" stroke="#999999" points="2729,-26 2646.25,-26 2646.25,-6 2729,-6 2729,-26"/>
<text text-anchor="middle" x="2687.62" y="-12.5" font-family="Helvetica,sans-Serif" font-size="10.00">org.slf4j.Logger</text>
</a>
</g>
</g>
<!-- Node1&#45;&gt;Node20 -->
<g id="edge19_Node000001_Node000020" class="edge">
<title>Node1&#45;&gt;Node20</title>
<g id="a_edge19_Node000001_Node000020"><a xlink:title=" ">
<path fill="none" stroke="#63b8ff" d="M2596.98,-67.59C2617.56,-56.1 2642.42,-42.23 2660.9,-31.92"/>
<polygon fill="#63b8ff" stroke="#63b8ff" points="2662.35,-35.12 2669.38,-27.19 2658.94,-29 2662.35,-35.12"/>
</a>
</g>
</g>
<!-- Node21 -->
<g id="Node000021" class="node">
<title>Node21</title>
<g id="a_Node000021"><a xlink:title=" ">
<polygon fill="#e0e0e0" stroke="#999999" points="2862.5,-26 2746.75,-26 2746.75,-6 2862.5,-6 2862.5,-26"/>
<text text-anchor="middle" x="2804.62" y="-12.5" font-family="Helvetica,sans-Serif" font-size="10.00">org.slf4j.LoggerFactory</text>
</a>
</g>
</g>
<!-- Node1&#45;&gt;Node21 -->
<g id="edge20_Node000001_Node000021" class="edge">
<title>Node1&#45;&gt;Node21</title>
<g id="a_edge20_Node000001_Node000021"><a xlink:title=" ">
<path fill="none" stroke="#63b8ff" d="M2631.77,-67.59C2673.94,-55.25 2725.53,-40.15 2761.31,-29.68"/>
<polygon fill="#63b8ff" stroke="#63b8ff" points="2762.28,-33.04 2770.89,-26.87 2760.31,-26.32 2762.28,-33.04"/>
</a>
</g>
</g>
<!-- Node22 -->
<g id="Node000022" class="node">
<title>Node22</title>
<g id="a_Node000022"><a xlink:title=" ">
<polygon fill="#e0e0e0" stroke="#999999" points="3036.75,-32 2880.5,-32 2880.5,0 3036.75,0 3036.75,-32"/>
<text text-anchor="start" x="2888.5" y="-18.5" font-family="Helvetica,sans-Serif" font-size="10.00">org.springframework.stereotype.</text>
<text text-anchor="middle" x="2958.62" y="-6.5" font-family="Helvetica,sans-Serif" font-size="10.00">Component</text>
</a>
</g>
</g>
<!-- Node1&#45;&gt;Node22 -->
<g id="edge21_Node000001_Node000022" class="edge">
<title>Node1&#45;&gt;Node22</title>
<g id="a_edge21_Node000001_Node000022"><a xlink:title=" ">
<path fill="none" stroke="#63b8ff" d="M2643.45,-73.73C2709.71,-61.8 2801.55,-45.27 2869,-33.13"/>
<polygon fill="#63b8ff" stroke="#63b8ff" points="2869.32,-36.63 2878.54,-31.42 2868.08,-29.74 2869.32,-36.63"/>
</a>
</g>
</g>
<!-- Node23 -->
<g id="Node000023" class="node">
<title>Node23</title>
<g id="a_Node000023"><a xlink:title=" ">
<polygon fill="#e0e0e0" stroke="#999999" points="3242.12,-26 3055.12,-26 3055.12,-6 3242.12,-6 3242.12,-26"/>
<text text-anchor="middle" x="3148.62" y="-12.5" font-family="Helvetica,sans-Serif" font-size="10.00">fr.softsf.sudokufx.common.enums.I18n</text>
</a>
</g>
</g>
<!-- Node1&#45;&gt;Node23 -->
<g id="edge22_Node000001_Node000023" class="edge">
<title>Node1&#45;&gt;Node23</title>
<g id="a_edge22_Node000001_Node000023"><a xlink:title=" ">
<path fill="none" stroke="#63b8ff" d="M2643.61,-79.79C2740.87,-69.07 2904.89,-50.48 3045.62,-32 3054.9,-30.78 3064.63,-29.44 3074.26,-28.08"/>
<polygon fill="#63b8ff" stroke="#63b8ff" points="3074.57,-31.57 3083.98,-26.7 3073.58,-24.64 3074.57,-31.57"/>
</a>
</g>
</g>
<!-- Node24 -->
<g id="Node000024" class="node">
<title>Node24</title>
<g id="a_Node000024"><a xlink:title=" ">
<polygon fill="#e0e0e0" stroke="#999999" points="3428.75,-32 3260.5,-32 3260.5,0 3428.75,0 3428.75,-32"/>
<text text-anchor="start" x="3268.5" y="-18.5" font-family="Helvetica,sans-Serif" font-size="10.00">fr.softsf.sudokufx.common.enums.</text>
<text text-anchor="middle" x="3344.62" y="-6.5" font-family="Helvetica,sans-Serif" font-size="10.00">ToastLevels</text>
</a>
</g>
</g>
<!-- Node1&#45;&gt;Node24 -->
<g id="edge23_Node000001_Node000024" class="edge">
<title>Node1&#45;&gt;Node24</title>
<g id="a_edge23_Node000001_Node000024"><a xlink:title=" ">
<path fill="none" stroke="#63b8ff" d="M2643.38,-84.16C2772.03,-76.34 3024.51,-59.16 3248.69,-32.3"/>
<polygon fill="#63b8ff" stroke="#63b8ff" points="3249.01,-35.79 3258.51,-31.11 3248.17,-28.84 3249.01,-35.79"/>
</a>
</g>
</g>
<!-- Node25 -->
<g id="Node000025" class="node">
<title>Node25</title>
<g id="a_Node000025"><a xlink:title=" ">
<polygon fill="#e0e0e0" stroke="#999999" points="3628.12,-32 3447.12,-32 3447.12,0 3628.12,0 3628.12,-32"/>
<text text-anchor="start" x="3455.12" y="-18.5" font-family="Helvetica,sans-Serif" font-size="10.00">fr.softsf.sudokufx.common.exception.</text>
<text text-anchor="middle" x="3537.62" y="-6.5" font-family="Helvetica,sans-Serif" font-size="10.00">ExceptionTools</text>
</a>
</g>
</g>
<!-- Node1&#45;&gt;Node25 -->
<g id="edge24_Node000001_Node000025" class="edge">
<title>Node1&#45;&gt;Node25</title>
<g id="a_edge24_Node000001_Node000025"><a xlink:title=" ">
<path fill="none" stroke="#63b8ff" d="M2643.37,-85.88C2798.4,-79.65 3138.24,-63.58 3435.21,-32.2"/>
<polygon fill="#63b8ff" stroke="#63b8ff" points="3435.57,-35.68 3445.14,-31.14 3434.83,-28.72 3435.57,-35.68"/>
</a>
</g>
</g>
<!-- Node26 -->
<g id="Node000026" class="node">
<title>Node26</title>
<g id="a_Node000026"><a xlink:title=" ">
<polygon fill="#e0e0e0" stroke="#999999" points="3797.5,-32 3645.75,-32 3645.75,0 3797.5,0 3797.5,-32"/>
<text text-anchor="start" x="3653.75" y="-18.5" font-family="Helvetica,sans-Serif" font-size="10.00">fr.softsf.sudokufx.common.util.</text>
<text text-anchor="middle" x="3721.62" y="-6.5" font-family="Helvetica,sans-Serif" font-size="10.00">AudioUtils</text>
</a>
</g>
</g>
<!-- Node1&#45;&gt;Node26 -->
<g id="edge25_Node000001_Node000026" class="edge">
<title>Node1&#45;&gt;Node26</title>
<g id="a_edge25_Node000001_Node000026"><a xlink:title=" ">
<path fill="none" stroke="#63b8ff" d="M2643.56,-88.09C2824.26,-85.37 3260.27,-74.69 3634.35,-32.29"/>
<polygon fill="#63b8ff" stroke="#63b8ff" points="3634.64,-35.78 3644.18,-31.17 3633.84,-28.83 3634.64,-35.78"/>
</a>
</g>
</g>
<!-- Node27 -->
<g id="Node000027" class="node">
<title>Node27</title>
<g id="a_Node000027"><a xlink:title=" ">
<polygon fill="#e0e0e0" stroke="#999999" points="3967.5,-32 3815.75,-32 3815.75,0 3967.5,0 3967.5,-32"/>
<text text-anchor="start" x="3823.75" y="-18.5" font-family="Helvetica,sans-Serif" font-size="10.00">fr.softsf.sudokufx.common.util.</text>
<text text-anchor="middle" x="3891.62" y="-6.5" font-family="Helvetica,sans-Serif" font-size="10.00">ImageMeta</text>
</a>
</g>
</g>
<!-- Node1&#45;&gt;Node27 -->
<g id="edge26_Node000001_Node000027" class="edge">
<title>Node1&#45;&gt;Node27</title>
<g id="a_edge26_Node000001_Node000027"><a xlink:title=" ">
<path fill="none" stroke="#63b8ff" d="M2643.28,-88.89C2843.51,-87.83 3361.93,-80.32 3804.28,-32.15"/>
<polygon fill="#63b8ff" stroke="#63b8ff" points="3804.63,-35.64 3814.19,-31.06 3803.87,-28.68 3804.63,-35.64"/>
</a>
</g>
</g>
<!-- Node28 -->
<g id="Node000028" class="node">
<title>Node28</title>
<g id="a_Node000028"><a xlink:title=" ">
<polygon fill="#e0e0e0" stroke="#999999" points="4137.5,-32 3985.75,-32 3985.75,0 4137.5,0 4137.5,-32"/>
<text text-anchor="start" x="3993.75" y="-18.5" font-family="Helvetica,sans-Serif" font-size="10.00">fr.softsf.sudokufx.common.util.</text>
<text text-anchor="middle" x="4061.62" y="-6.5" font-family="Helvetica,sans-Serif" font-size="10.00">ImageUtils</text>
</a>
</g>
</g>
<!-- Node1&#45;&gt;Node28 -->
<g id="edge27_Node000001_Node000028" class="edge">
<title>Node1&#45;&gt;Node28</title>
<g id="a_edge27_Node000001_Node000028"><a xlink:title=" ">
<path fill="none" stroke="#63b8ff" d="M2643.23,-89.56C2861.93,-90.15 3464.02,-86.37 3974.42,-32.13"/>
<polygon fill="#63b8ff" stroke="#63b8ff" points="3974.62,-35.63 3984.19,-31.08 3973.88,-28.67 3974.62,-35.63"/>
</a>
</g>
</g>
<!-- Node29 -->
<g id="Node000029" class="node">
<title>Node29</title>
<g id="a_Node000029"><a xlink:title=" ">
<polygon fill="#e0e0e0" stroke="#999999" points="4317.38,-26 4155.88,-26 4155.88,-6 4317.38,-6 4317.38,-26"/>
<text text-anchor="middle" x="4236.62" y="-12.5" font-family="Helvetica,sans-Serif" font-size="10.00">fr.softsf.sudokufx.dto.OptionsDto</text>
</a>
</g>
</g>
<!-- Node1&#45;&gt;Node29 -->
<g id="edge28_Node000001_Node000029" class="edge">
<title>Node1&#45;&gt;Node29</title>
<g id="a_edge28_Node000001_Node000029"><a xlink:title=" ">
<path fill="none" stroke="#63b8ff" d="M2643.57,-87.4C2928.83,-81.81 3851.04,-61.81 4146.62,-32 4156.03,-31.05 4165.93,-29.73 4175.6,-28.26"/>
<polygon fill="#63b8ff" stroke="#63b8ff" points="4175.97,-31.75 4185.3,-26.72 4174.87,-24.83 4175.97,-31.75"/>
</a>
</g>
</g>
<!-- Node30 -->
<g id="Node000030" class="node">
<title>Node30</title>
<g id="a_Node000030"><a xlink:title=" ">
<polygon fill="#e0e0e0" stroke="#999999" points="4507.62,-32 4335.62,-32 4335.62,0 4507.62,0 4507.62,-32"/>
<text text-anchor="start" x="4343.62" y="-18.5" font-family="Helvetica,sans-Serif" font-size="10.00">fr.softsf.sudokufx.service.business.</text>
<text text-anchor="middle" x="4421.62" y="-6.5" font-family="Helvetica,sans-Serif" font-size="10.00">OptionsService</text>
</a>
</g>
</g>
<!-- Node1&#45;&gt;Node30 -->
<g id="edge29_Node000001_Node000030" class="edge">
<title>Node1&#45;&gt;Node30</title>
<g id="a_edge29_Node000001_Node000030"><a xlink:title=" ">
<path fill="none" stroke="#63b8ff" d="M2643.47,-87.67C2945.93,-82.69 3971.59,-63.91 4323.98,-32.15"/>
<polygon fill="#63b8ff" stroke="#63b8ff" points="4324.07,-35.66 4333.71,-31.25 4323.43,-28.69 4324.07,-35.66"/>
</a>
</g>
</g>
<!-- Node31 -->
<g id="Node000031" class="node">
<title>Node31</title>
<g id="a_Node000031"><a xlink:title=" ">
<polygon fill="#e0e0e0" stroke="#999999" points="4665.88,-32 4525.38,-32 4525.38,0 4665.88,0 4665.88,-32"/>
<text text-anchor="start" x="4533.38" y="-18.5" font-family="Helvetica,sans-Serif" font-size="10.00">fr.softsf.sudokufx.service.ui.</text>
<text text-anchor="middle" x="4595.62" y="-6.5" font-family="Helvetica,sans-Serif" font-size="10.00">AsyncFileProcessorService</text>
</a>
</g>
</g>
<!-- Node1&#45;&gt;Node31 -->
<g id="edge30_Node000001_Node000031" class="edge">
<title>Node1&#45;&gt;Node31</title>
<g id="a_edge30_Node000001_Node000031"><a xlink:title=" ">
<path fill="none" stroke="#63b8ff" d="M2643.5,-88.32C2966.83,-85.46 4122.5,-72.65 4513.72,-32.18"/>
<polygon fill="#63b8ff" stroke="#63b8ff" points="4513.99,-35.67 4523.57,-31.13 4513.25,-28.71 4513.99,-35.67"/>
</a>
</g>
</g>
<!-- Node32 -->
<g id="Node000032" class="node">
<title>Node32</title>
<g id="a_Node000032"><a xlink:title=" ">
<polygon fill="#e0e0e0" stroke="#999999" points="4824.88,-32 4684.38,-32 4684.38,0 4824.88,0 4824.88,-32"/>
<text text-anchor="start" x="4692.38" y="-18.5" font-family="Helvetica,sans-Serif" font-size="10.00">fr.softsf.sudokufx.service.ui.</text>
<text text-anchor="middle" x="4754.62" y="-6.5" font-family="Helvetica,sans-Serif" font-size="10.00">AudioService</text>
</a>
</g>
</g>
<!-- Node1&#45;&gt;Node32 -->
<g id="edge31_Node000001_Node000032" class="edge">
<title>Node1&#45;&gt;Node32</title>
<g id="a_edge31_Node000001_Node000032"><a xlink:title=" ">
<path fill="none" stroke="#63b8ff" d="M2643.53,-88.51C2983.43,-86.27 4247.59,-75.23 4672.63,-32.05"/>
<polygon fill="#63b8ff" stroke="#63b8ff" points="4672.96,-35.54 4682.54,-31.02 4672.23,-28.57 4672.96,-35.54"/>
</a>
</g>
</g>
<!-- Node33 -->
<g id="Node000033" class="node">
<title>Node33</title>
<g id="a_Node000033"><a xlink:title=" ">
<polygon fill="#e0e0e0" stroke="#999999" points="5012.12,-32 4843.12,-32 4843.12,0 5012.12,0 5012.12,-32"/>
<text text-anchor="start" x="4851.12" y="-18.5" font-family="Helvetica,sans-Serif" font-size="10.00">fr.softsf.sudokufx.view.component.</text>
<text text-anchor="middle" x="4927.62" y="-6.5" font-family="Helvetica,sans-Serif" font-size="10.00">SpinnerGridPane</text>
</a>
</g>
</g>
<!-- Node1&#45;&gt;Node33 -->
<g id="edge32_Node000001_Node000033" class="edge">
<title>Node1&#45;&gt;Node33</title>
<g id="a_edge32_Node000001_Node000033"><a xlink:title=" ">
<path fill="none" stroke="#63b8ff" d="M2643.42,-88.39C2999.12,-85.59 4373.11,-72.42 4831.32,-32.1"/>
<polygon fill="#63b8ff" stroke="#63b8ff" points="4831.48,-35.6 4841.13,-31.22 4830.85,-28.63 4831.48,-35.6"/>
</a>
</g>
</g>
<!-- Node34 -->
<g id="Node000034" class="node">
<title>Node34</title>
<g id="a_Node000034"><a xlink:title=" ">
<polygon fill="#e0e0e0" stroke="#999999" points="5232.62,-32 5030.62,-32 5030.62,0 5232.62,0 5232.62,-32"/>
<text text-anchor="start" x="5038.62" y="-18.5" font-family="Helvetica,sans-Serif" font-size="10.00">fr.softsf.sudokufx.view.component.toaster.</text>
<text text-anchor="middle" x="5131.62" y="-6.5" font-family="Helvetica,sans-Serif" font-size="10.00">ToasterVBox</text>
</a>
</g>
</g>
<!-- Node1&#45;&gt;Node34 -->
<g id="edge33_Node000001_Node000034" class="edge">
<title>Node1&#45;&gt;Node34</title>
<g id="a_edge33_Node000001_Node000034"><a xlink:title=" ">
<path fill="none" stroke="#63b8ff" d="M2643.33,-88.32C3017.06,-85.12 4521.61,-70.15 5019.17,-32.12"/>
<polygon fill="#63b8ff" stroke="#63b8ff" points="5019.17,-35.63 5028.87,-31.36 5018.63,-28.65 5019.17,-35.63"/>
</a>
</g>
</g>
<!-- Node35 -->
<g id="Node000035" class="node">
<title>Node35</title>
<g id="a_Node000035"><a xlink:title=" ">
<polygon fill="#e0e0e0" stroke="#999999" points="5420.5,-32 5250.75,-32 5250.75,0 5420.5,0 5420.5,-32"/>
<text text-anchor="start" x="5258.75" y="-18.5" font-family="Helvetica,sans-Serif" font-size="10.00">fr.softsf.sudokufx.viewmodel.state.</text>
<text text-anchor="middle" x="5335.62" y="-6.5" font-family="Helvetica,sans-Serif" font-size="10.00">PlayerStateHolder</text>
</a>
</g>
</g>
<!-- Node1&#45;&gt;Node35 -->
<g id="edge34_Node000001_Node000035" class="edge">
<title>Node1&#45;&gt;Node35</title>
<g id="a_edge34_Node000001_Node000035"><a xlink:title=" ">
<path fill="none" stroke="#63b8ff" d="M2643.5,-88.76C3037.97,-87.43 4695.6,-79.12 5238.93,-32.14"/>
<polygon fill="#63b8ff" stroke="#63b8ff" points="5239.22,-35.62 5248.88,-31.26 5238.61,-28.65 5239.22,-35.62"/>
</a>
</g>
</g>
<!-- Node36 -->
<g id="Node000036" class="node">
<title>Node36</title>
<g id="a_Node000036"><a xlink:title=" ">
<polygon fill="#e0e0e0" stroke="#999999" points="5568.25,-26 5439,-26 5439,-6 5568.25,-6 5568.25,-26"/>
<text text-anchor="middle" x="5503.62" y="-12.5" font-family="Helvetica,sans-Serif" font-size="10.00">jakarta.annotation.Nonnull</text>
</a>
</g>
</g>
<!-- Node1&#45;&gt;Node36 -->
<g id="edge35_Node000001_Node000036" class="edge">
<title>Node1&#45;&gt;Node36</title>
<g id="a_edge35_Node000001_Node000036"><a xlink:title=" ">
<path fill="none" stroke="#63b8ff" d="M2643.56,-89.38C3057.85,-90.9 4869.22,-93.85 5429.62,-32 5437.15,-31.17 5445.05,-29.95 5452.77,-28.56"/>
<polygon fill="#63b8ff" stroke="#63b8ff" points="5453.24,-32.03 5462.41,-26.71 5451.92,-25.16 5453.24,-32.03"/>
</a>
</g>
</g>
</g>
</svg>

<g id="navigator" transform="translate(0 0)" fill="#404254">
  <rect fill="#f2f5e9" fill-opacity="0.5" stroke="#606060" stroke-width=".5" x="0" y="0" width="60" height="60"/>
  <use id="zoomplus" xlink:href="#zoomPlus" x="17" y="9" onmousedown="handleZoom(evt,'in')"/>
  <use id="zoomminus" xlink:href="#zoomMin" x="42" y="9" onmousedown="handleZoom(evt,'out')"/>
  <use id="reset" xlink:href="#resetDef" x="30" y="36" onmousedown="handleReset()"/>
   <use id="arrowup" xlink:href="#arrowUp" x="0" y="0" onmousedown="handlePan(0,-1)"/>
  <use id="arrowright" xlink:href="#arrowRight" x="0" y="0" onmousedown="handlePan(1,0)"/>
  <use id="arrowdown" xlink:href="#arrowDown" x="0" y="0" onmousedown="handlePan(0,1)"/>
  <use id="arrowleft" xlink:href="#arrowLeft" x="0" y="0" onmousedown="handlePan(-1,0)"/>
</g>
<svg viewBox="0 0 15 15" width="100%" height="30px" preserveAspectRatio="xMaxYMin meet">
 <g id="arrow_out" transform="scale(0.3 0.3)">
  <a xlink:href="_menu_options_view_model_8java__incl_org.svg" target="_base">
   <rect id="button" ry="5" rx="5" y="6" x="6" height="38" width="38"
        fill="#f2f5e9" fill-opacity="0.5" stroke="#606060" stroke-width="1.0"/>
   <path id="arrow"
     d="M 11.500037,31.436501 C 11.940474,20.09759 22.043105,11.32322 32.158766,21.979434 L 37.068811,17.246167 C 37.068811,17.246167 37.088388,32 37.088388,32 L 22.160133,31.978069 C 22.160133,31.978069 26.997745,27.140456 26.997745,27.140456 C 18.528582,18.264221 13.291696,25.230495 11.500037,31.436501 z"
     style="fill:#404040;"/>
  </a>
 </g>
</svg>

<style type='text/css'>
<![CDATA[
[data-mouse-over-selected='false'] { opacity: 0.7; }
[data-mouse-over-selected='true']  { opacity: 1.0; }
]]>
</style>
<script type="application/ecmascript"><![CDATA[
document.addEventListener('DOMContentLoaded', (event) => {
  highlightEdges();
  highlightAdjacentNodes();
});
]]></script>
</svg>
