<?xml version="1.0" encoding="UTF-8" standalone="no"?>
<!DOCTYPE svg PUBLIC "-//W3C//DTD SVG 1.1//EN"
 "http://www.w3.org/Graphics/SVG/1.1/DTD/svg11.dtd">
<!-- Generated by graphviz version 12.2.1 (20241206.2353)
 -->
<!-- Title: src/main/java/fr/softsf/sudokufx/viewmodel/MenuLevelViewModel.java Pages: 1 -->
<svg width="1658pt" height="120pt"
 viewBox="0.00 0.00 1657.75 120.00" xmlns="http://www.w3.org/2000/svg" xmlns:xlink="http://www.w3.org/1999/xlink">
<g id="graph0" class="graph" transform="scale(1 1) rotate(0) translate(4 116)">
<title>src/main/java/fr/softsf/sudokufx/viewmodel/MenuLevelViewModel.java</title>
<!-- Node1 -->
<g id="Node000001" class="node">
<title>Node1</title>
<g id="a_Node000001"><a xlink:title=" ">
<polygon fill="#999999" stroke="#666666" points="796.5,-112 638,-112 638,-68 796.5,-68 796.5,-112"/>
<text text-anchor="start" x="646" y="-98.5" font-family="Helvetica,sans-Serif" font-size="10.00">src/main/java/fr/softsf</text>
<text text-anchor="start" x="646" y="-86.5" font-family="Helvetica,sans-Serif" font-size="10.00">/sudokufx/viewmodel/MenuLevel</text>
<text text-anchor="middle" x="717.25" y="-74.5" font-family="Helvetica,sans-Serif" font-size="10.00">ViewModel.java</text>
</a>
</g>
</g>
<!-- Node2 -->
<g id="Node000002" class="node">
<title>Node2</title>
<g id="a_Node000002"><a xlink:title=" ">
<polygon fill="#e0e0e0" stroke="#999999" points="86.5,-26 0,-26 0,-6 86.5,-6 86.5,-26"/>
<text text-anchor="middle" x="43.25" y="-12.5" font-family="Helvetica,sans-Serif" font-size="10.00">java.util.Objects</text>
</a>
</g>
</g>
<!-- Node1&#45;&gt;Node2 -->
<g id="edge1_Node000001_Node000002" class="edge">
<title>Node1&#45;&gt;Node2</title>
<g id="a_edge1_Node000001_Node000002"><a xlink:title=" ">
<path fill="none" stroke="#63b8ff" d="M637.54,-86.52C518.56,-81.74 287.87,-68.27 95.25,-32 91.39,-31.27 87.41,-30.39 83.45,-29.41"/>
<polygon fill="#63b8ff" stroke="#63b8ff" points="84.47,-26.06 73.9,-26.86 82.66,-32.82 84.47,-26.06"/>
</a>
</g>
</g>
<!-- Node3 -->
<g id="Node000003" class="node">
<title>Node3</title>
<g id="a_Node000003"><a xlink:title=" ">
<polygon fill="#e0e0e0" stroke="#999999" points="250.12,-26 104.38,-26 104.38,-6 250.12,-6 250.12,-26"/>
<text text-anchor="middle" x="177.25" y="-12.5" font-family="Helvetica,sans-Serif" font-size="10.00">javafx.beans.binding.Bindings</text>
</a>
</g>
</g>
<!-- Node1&#45;&gt;Node3 -->
<g id="edge2_Node000001_Node000003" class="edge">
<title>Node1&#45;&gt;Node3</title>
<g id="a_edge2_Node000001_Node000003"><a xlink:title=" ">
<path fill="none" stroke="#63b8ff" d="M637.63,-80.49C546.12,-70.38 391.51,-52.31 259.25,-32 252.3,-30.93 245.04,-29.73 237.83,-28.48"/>
<polygon fill="#63b8ff" stroke="#63b8ff" points="238.55,-25.06 228.1,-26.76 237.33,-31.95 238.55,-25.06"/>
</a>
</g>
</g>
<!-- Node4 -->
<g id="Node000004" class="node">
<title>Node4</title>
<g id="a_Node000004"><a xlink:title=" ">
<polygon fill="#e0e0e0" stroke="#999999" points="412,-32 268.5,-32 268.5,0 412,0 412,-32"/>
<text text-anchor="start" x="276.5" y="-18.5" font-family="Helvetica,sans-Serif" font-size="10.00">javafx.beans.binding.Boolean</text>
<text text-anchor="middle" x="340.25" y="-6.5" font-family="Helvetica,sans-Serif" font-size="10.00">Binding</text>
</a>
</g>
</g>
<!-- Node1&#45;&gt;Node4 -->
<g id="edge3_Node000001_Node000004" class="edge">
<title>Node1&#45;&gt;Node4</title>
<g id="a_edge3_Node000001_Node000004"><a xlink:title=" ">
<path fill="none" stroke="#63b8ff" d="M637.76,-73.82C574.89,-61.81 487.37,-45.1 423.53,-32.91"/>
<polygon fill="#63b8ff" stroke="#63b8ff" points="424.27,-29.48 413.79,-31.04 422.95,-36.36 424.27,-29.48"/>
</a>
</g>
</g>
<!-- Node5 -->
<g id="Node000005" class="node">
<title>Node5</title>
<g id="a_Node000005"><a xlink:title=" ">
<polygon fill="#e0e0e0" stroke="#999999" points="564.12,-32 430.38,-32 430.38,0 564.12,0 564.12,-32"/>
<text text-anchor="start" x="438.38" y="-18.5" font-family="Helvetica,sans-Serif" font-size="10.00">javafx.beans.binding.String</text>
<text text-anchor="middle" x="497.25" y="-6.5" font-family="Helvetica,sans-Serif" font-size="10.00">Binding</text>
</a>
</g>
</g>
<!-- Node1&#45;&gt;Node5 -->
<g id="edge4_Node000001_Node000005" class="edge">
<title>Node1&#45;&gt;Node5</title>
<g id="a_edge4_Node000001_Node000005"><a xlink:title=" ">
<path fill="none" stroke="#63b8ff" d="M651.84,-67.59C621.15,-57.55 584.9,-45.69 555.21,-35.97"/>
<polygon fill="#63b8ff" stroke="#63b8ff" points="556.63,-32.75 546.04,-32.97 554.45,-39.4 556.63,-32.75"/>
</a>
</g>
</g>
<!-- Node6 -->
<g id="Node000006" class="node">
<title>Node6</title>
<g id="a_Node000006"><a xlink:title=" ">
<polygon fill="#e0e0e0" stroke="#999999" points="698.12,-26 582.38,-26 582.38,-6 698.12,-6 698.12,-26"/>
<text text-anchor="middle" x="640.25" y="-12.5" font-family="Helvetica,sans-Serif" font-size="10.00">javafx.beans.property.*</text>
</a>
</g>
</g>
<!-- Node1&#45;&gt;Node6 -->
<g id="edge5_Node000001_Node000006" class="edge">
<title>Node1&#45;&gt;Node6</title>
<g id="a_edge5_Node000001_Node000006"><a xlink:title=" ">
<path fill="none" stroke="#63b8ff" d="M694.56,-67.79C683.06,-57.03 669.27,-44.14 658.47,-34.03"/>
<polygon fill="#63b8ff" stroke="#63b8ff" points="661.01,-31.62 651.31,-27.35 656.23,-36.73 661.01,-31.62"/>
</a>
</g>
</g>
<!-- Node7 -->
<g id="Node000007" class="node">
<title>Node7</title>
<g id="a_Node000007"><a xlink:title=" ">
<polygon fill="#e0e0e0" stroke="#999999" points="872.38,-32 716.12,-32 716.12,0 872.38,0 872.38,-32"/>
<text text-anchor="start" x="724.12" y="-18.5" font-family="Helvetica,sans-Serif" font-size="10.00">org.springframework.stereotype.</text>
<text text-anchor="middle" x="794.25" y="-6.5" font-family="Helvetica,sans-Serif" font-size="10.00">Component</text>
</a>
</g>
</g>
<!-- Node1&#45;&gt;Node7 -->
<g id="edge6_Node000001_Node000007" class="edge">
<title>Node1&#45;&gt;Node7</title>
<g id="a_edge6_Node000001_Node000007"><a xlink:title=" ">
<path fill="none" stroke="#63b8ff" d="M739.94,-67.79C749.31,-59.02 760.2,-48.84 769.75,-39.91"/>
<polygon fill="#63b8ff" stroke="#63b8ff" points="772.05,-42.55 776.97,-33.16 767.27,-37.43 772.05,-42.55"/>
</a>
</g>
</g>
<!-- Node8 -->
<g id="Node000008" class="node">
<title>Node8</title>
<g id="a_Node000008"><a xlink:title=" ">
<polygon fill="#e0e0e0" stroke="#999999" points="1058.38,-32 890.12,-32 890.12,0 1058.38,0 1058.38,-32"/>
<text text-anchor="start" x="898.12" y="-18.5" font-family="Helvetica,sans-Serif" font-size="10.00">fr.softsf.sudokufx.common.enums.</text>
<text text-anchor="middle" x="974.25" y="-6.5" font-family="Helvetica,sans-Serif" font-size="10.00">DifficultyLevel</text>
</a>
</g>
</g>
<!-- Node1&#45;&gt;Node8 -->
<g id="edge7_Node000001_Node000008" class="edge">
<title>Node1&#45;&gt;Node8</title>
<g id="a_edge7_Node000001_Node000008"><a xlink:title=" ">
<path fill="none" stroke="#63b8ff" d="M793.66,-67.59C829.98,-57.42 872.97,-45.37 907.9,-35.59"/>
<polygon fill="#63b8ff" stroke="#63b8ff" points="908.8,-38.97 917.48,-32.9 906.91,-32.23 908.8,-38.97"/>
</a>
</g>
</g>
<!-- Node9 -->
<g id="Node000009" class="node">
<title>Node9</title>
<g id="a_Node000009"><a xlink:title=" ">
<polygon fill="#e0e0e0" stroke="#999999" points="1263.75,-26 1076.75,-26 1076.75,-6 1263.75,-6 1263.75,-26"/>
<text text-anchor="middle" x="1170.25" y="-12.5" font-family="Helvetica,sans-Serif" font-size="10.00">fr.softsf.sudokufx.common.enums.I18n</text>
</a>
</g>
</g>
<!-- Node1&#45;&gt;Node9 -->
<g id="edge8_Node000001_Node000009" class="edge">
<title>Node1&#45;&gt;Node9</title>
<g id="a_edge8_Node000001_Node000009"><a xlink:title=" ">
<path fill="none" stroke="#63b8ff" d="M796.93,-76.33C882.53,-62.73 1017.27,-41.32 1099.31,-28.27"/>
<polygon fill="#63b8ff" stroke="#63b8ff" points="1099.71,-31.76 1109.04,-26.73 1098.61,-24.84 1099.71,-31.76"/>
</a>
</g>
</g>
<!-- Node10 -->
<g id="Node000010" class="node">
<title>Node10</title>
<g id="a_Node000010"><a xlink:title=" ">
<polygon fill="#e0e0e0" stroke="#999999" points="1462.75,-32 1281.75,-32 1281.75,0 1462.75,0 1462.75,-32"/>
<text text-anchor="start" x="1289.75" y="-18.5" font-family="Helvetica,sans-Serif" font-size="10.00">fr.softsf.sudokufx.common.exception.</text>
<text text-anchor="middle" x="1372.25" y="-6.5" font-family="Helvetica,sans-Serif" font-size="10.00">ExceptionTools</text>
</a>
</g>
</g>
<!-- Node1&#45;&gt;Node10 -->
<g id="edge9_Node000001_Node000010" class="edge">
<title>Node1&#45;&gt;Node10</title>
<g id="a_edge9_Node000001_Node000010"><a xlink:title=" ">
<path fill="none" stroke="#63b8ff" d="M796.57,-82.08C902.3,-72.59 1095.5,-54.3 1270.16,-32.36"/>
<polygon fill="#63b8ff" stroke="#63b8ff" points="1270.39,-35.86 1279.87,-31.13 1269.51,-28.91 1270.39,-35.86"/>
</a>
</g>
</g>
<!-- Node11 -->
<g id="Node000011" class="node">
<title>Node11</title>
<g id="a_Node000011"><a xlink:title=" ">
<polygon fill="#e0e0e0" stroke="#999999" points="1649.75,-32 1480.75,-32 1480.75,0 1649.75,0 1649.75,-32"/>
<text text-anchor="start" x="1488.75" y="-18.5" font-family="Helvetica,sans-Serif" font-size="10.00">fr.softsf.sudokufx.view.component.</text>
<text text-anchor="middle" x="1565.25" y="-6.5" font-family="Helvetica,sans-Serif" font-size="10.00">PossibilityStarsHBox</text>
</a>
</g>
</g>
<!-- Node1&#45;&gt;Node11 -->
<g id="edge10_Node000001_Node000011" class="edge">
<title>Node1&#45;&gt;Node11</title>
<g id="a_edge10_Node000001_Node000011"><a xlink:title=" ">
<path fill="none" stroke="#63b8ff" d="M796.81,-85.21C932.68,-78.25 1218.31,-61.5 1469.47,-32.27"/>
<polygon fill="#63b8ff" stroke="#63b8ff" points="1469.62,-35.78 1479.14,-31.13 1468.8,-28.82 1469.62,-35.78"/>
</a>
</g>
</g>
</g>
</svg>
