<?xml version="1.0" encoding="UTF-8" standalone="no"?>
<!DOCTYPE svg PUBLIC "-//W3C//DTD SVG 1.1//EN"
 "http://www.w3.org/Graphics/SVG/1.1/DTD/svg11.dtd">
<!-- Generated by graphviz version 12.2.1 (20241206.2353)
 -->
<!-- Title: src/main/java/fr/softsf/sudokufx/viewmodel/MenuOptionsViewModel.java Pages: 1 -->
<svg width="5644pt" height="120pt"
 viewBox="0.00 0.00 5643.50 120.00" xmlns="http://www.w3.org/2000/svg" xmlns:xlink="http://www.w3.org/1999/xlink">
<g id="graph0" class="graph" transform="scale(1 1) rotate(0) translate(4 116)">
<title>src/main/java/fr/softsf/sudokufx/viewmodel/MenuOptionsViewModel.java</title>
<!-- Node1 -->
<g id="Node000001" class="node">
<title>Node1</title>
<g id="a_Node000001"><a xlink:title=" ">
<polygon fill="#999999" stroke="#666666" points="2649.12,-112 2480.12,-112 2480.12,-68 2649.12,-68 2649.12,-112"/>
<text text-anchor="start" x="2488.12" y="-98.5" font-family="Helvetica,sans-Serif" font-size="10.00">src/main/java/fr/softsf</text>
<text text-anchor="start" x="2488.12" y="-86.5" font-family="Helvetica,sans-Serif" font-size="10.00">/sudokufx/viewmodel/MenuOptions</text>
<text text-anchor="middle" x="2564.62" y="-74.5" font-family="Helvetica,sans-Serif" font-size="10.00">ViewModel.java</text>
</a>
</g>
</g>
<!-- Node2 -->
<g id="Node000002" class="node">
<title>Node2</title>
<g id="a_Node000002"><a xlink:title=" ">
<polygon fill="#e0e0e0" stroke="#999999" points="63.25,-26 0,-26 0,-6 63.25,-6 63.25,-26"/>
<text text-anchor="middle" x="31.62" y="-12.5" font-family="Helvetica,sans-Serif" font-size="10.00">java.io.File</text>
</a>
</g>
</g>
<!-- Node1&#45;&gt;Node2 -->
<g id="edge1_Node000001_Node000002" class="edge">
<title>Node1&#45;&gt;Node2</title>
<g id="a_edge1_Node000001_Node000002"><a xlink:title=" ">
<path fill="none" stroke="#63b8ff" d="M2479.88,-88.71C2071.09,-87.07 312.88,-77.41 72.62,-32 69.82,-31.47 66.96,-30.77 64.11,-29.97"/>
<polygon fill="#63b8ff" stroke="#63b8ff" points="65.41,-26.71 54.82,-26.93 63.23,-33.36 65.41,-26.71"/>
</a>
</g>
</g>
<!-- Node3 -->
<g id="Node000003" class="node">
<title>Node3</title>
<g id="a_Node000003"><a xlink:title=" ">
<polygon fill="#e0e0e0" stroke="#999999" points="170,-26 81.25,-26 81.25,-6 170,-6 170,-26"/>
<text text-anchor="middle" x="125.62" y="-12.5" font-family="Helvetica,sans-Serif" font-size="10.00">java.nio.file.Path</text>
</a>
</g>
</g>
<!-- Node1&#45;&gt;Node3 -->
<g id="edge2_Node000001_Node000003" class="edge">
<title>Node1&#45;&gt;Node3</title>
<g id="a_edge2_Node000001_Node000003"><a xlink:title=" ">
<path fill="none" stroke="#63b8ff" d="M2479.94,-88.24C2082.21,-84.51 409.41,-66.84 178.62,-32 174.18,-31.33 169.58,-30.4 165.03,-29.33"/>
<polygon fill="#63b8ff" stroke="#63b8ff" points="165.97,-25.95 155.41,-26.82 164.2,-32.73 165.97,-25.95"/>
</a>
</g>
</g>
<!-- Node4 -->
<g id="Node000004" class="node">
<title>Node4</title>
<g id="a_Node000004"><a xlink:title=" ">
<polygon fill="#e0e0e0" stroke="#999999" points="281.62,-26 187.62,-26 187.62,-6 281.62,-6 281.62,-26"/>
<text text-anchor="middle" x="234.62" y="-12.5" font-family="Helvetica,sans-Serif" font-size="10.00">java.nio.file.Paths</text>
</a>
</g>
</g>
<!-- Node1&#45;&gt;Node4 -->
<g id="edge3_Node000001_Node000004" class="edge">
<title>Node1&#45;&gt;Node4</title>
<g id="a_edge3_Node000001_Node000004"><a xlink:title=" ">
<path fill="none" stroke="#63b8ff" d="M2479.77,-88.06C2093.42,-83.63 510,-63.67 290.62,-32 285.67,-31.28 280.53,-30.28 275.46,-29.13"/>
<polygon fill="#63b8ff" stroke="#63b8ff" points="276.6,-25.81 266.05,-26.79 274.91,-32.6 276.6,-25.81"/>
</a>
</g>
</g>
<!-- Node5 -->
<g id="Node000005" class="node">
<title>Node5</title>
<g id="a_Node000005"><a xlink:title=" ">
<polygon fill="#e0e0e0" stroke="#999999" points="427.12,-26 300.12,-26 300.12,-6 427.12,-6 427.12,-26"/>
<text text-anchor="middle" x="363.62" y="-12.5" font-family="Helvetica,sans-Serif" font-size="10.00">java.text.MessageFormat</text>
</a>
</g>
</g>
<!-- Node1&#45;&gt;Node5 -->
<g id="edge4_Node000001_Node000005" class="edge">
<title>Node1&#45;&gt;Node5</title>
<g id="a_edge4_Node000001_Node000005"><a xlink:title=" ">
<path fill="none" stroke="#63b8ff" d="M2479.8,-88.72C2135.65,-87.28 842.67,-78.79 436.62,-32 429.37,-31.16 421.77,-29.97 414.32,-28.61"/>
<polygon fill="#63b8ff" stroke="#63b8ff" points="415.17,-25.21 404.69,-26.74 413.84,-32.08 415.17,-25.21"/>
</a>
</g>
</g>
<!-- Node6 -->
<g id="Node000006" class="node">
<title>Node6</title>
<g id="a_Node000006"><a xlink:title=" ">
<polygon fill="#e0e0e0" stroke="#999999" points="531.88,-26 445.38,-26 445.38,-6 531.88,-6 531.88,-26"/>
<text text-anchor="middle" x="488.62" y="-12.5" font-family="Helvetica,sans-Serif" font-size="10.00">java.util.Objects</text>
</a>
</g>
</g>
<!-- Node1&#45;&gt;Node6 -->
<g id="edge5_Node000001_Node000006" class="edge">
<title>Node1&#45;&gt;Node6</title>
<g id="a_edge5_Node000001_Node000006"><a xlink:title=" ">
<path fill="none" stroke="#63b8ff" d="M2479.9,-89.46C2146.33,-90.83 923.24,-91.59 540.62,-32 536.31,-31.33 531.85,-30.41 527.43,-29.35"/>
<polygon fill="#63b8ff" stroke="#63b8ff" points="528.7,-26.06 518.13,-26.88 526.9,-32.83 528.7,-26.06"/>
</a>
</g>
</g>
<!-- Node7 -->
<g id="Node000007" class="node">
<title>Node7</title>
<g id="a_Node000007"><a xlink:title=" ">
<polygon fill="#e0e0e0" stroke="#999999" points="675.38,-26 549.88,-26 549.88,-6 675.38,-6 675.38,-26"/>
<text text-anchor="middle" x="612.62" y="-12.5" font-family="Helvetica,sans-Serif" font-size="10.00">java.util.function.Supplier</text>
</a>
</g>
</g>
<!-- Node1&#45;&gt;Node7 -->
<g id="edge6_Node000001_Node000007" class="edge">
<title>Node1&#45;&gt;Node7</title>
<g id="a_edge6_Node000001_Node000007"><a xlink:title=" ">
<path fill="none" stroke="#63b8ff" d="M2479.87,-88.4C2161.82,-85.85 1039.5,-74.02 684.62,-32 677.55,-31.16 670.14,-29.98 662.88,-28.64"/>
<polygon fill="#63b8ff" stroke="#63b8ff" points="663.63,-25.22 653.14,-26.72 662.28,-32.09 663.63,-25.22"/>
</a>
</g>
</g>
<!-- Node8 -->
<g id="Node000008" class="node">
<title>Node8</title>
<g id="a_Node000008"><a xlink:title=" ">
<polygon fill="#e0e0e0" stroke="#999999" points="817.62,-26 693.62,-26 693.62,-6 817.62,-6 817.62,-26"/>
<text text-anchor="middle" x="755.62" y="-12.5" font-family="Helvetica,sans-Serif" font-size="10.00">javafx.beans.Observable</text>
</a>
</g>
</g>
<!-- Node1&#45;&gt;Node8 -->
<g id="edge7_Node000001_Node000008" class="edge">
<title>Node1&#45;&gt;Node8</title>
<g id="a_edge7_Node000001_Node000008"><a xlink:title=" ">
<path fill="none" stroke="#63b8ff" d="M2479.86,-88.19C2177.44,-84.99 1152.28,-71.43 826.62,-32 819.81,-31.18 812.68,-30.02 805.68,-28.72"/>
<polygon fill="#63b8ff" stroke="#63b8ff" points="806.46,-25.3 795.97,-26.79 805.09,-32.17 806.46,-25.3"/>
</a>
</g>
</g>
<!-- Node9 -->
<g id="Node000009" class="node">
<title>Node9</title>
<g id="a_Node000009"><a xlink:title=" ">
<polygon fill="#e0e0e0" stroke="#999999" points="981.5,-26 835.75,-26 835.75,-6 981.5,-6 981.5,-26"/>
<text text-anchor="middle" x="908.62" y="-12.5" font-family="Helvetica,sans-Serif" font-size="10.00">javafx.beans.binding.Bindings</text>
</a>
</g>
</g>
<!-- Node1&#45;&gt;Node9 -->
<g id="edge8_Node000001_Node000009" class="edge">
<title>Node1&#45;&gt;Node9</title>
<g id="a_edge8_Node000001_Node000009"><a xlink:title=" ">
<path fill="none" stroke="#63b8ff" d="M2479.91,-87.55C2196.55,-82.45 1283.19,-63.89 990.62,-32 982.22,-31.08 973.39,-29.81 964.75,-28.38"/>
<polygon fill="#63b8ff" stroke="#63b8ff" points="965.51,-24.96 955.06,-26.69 964.31,-31.85 965.51,-24.96"/>
</a>
</g>
</g>
<!-- Node10 -->
<g id="Node000010" class="node">
<title>Node10</title>
<g id="a_Node000010"><a xlink:title=" ">
<polygon fill="#e0e0e0" stroke="#999999" points="1133.5,-32 999.75,-32 999.75,0 1133.5,0 1133.5,-32"/>
<text text-anchor="start" x="1007.75" y="-18.5" font-family="Helvetica,sans-Serif" font-size="10.00">javafx.beans.binding.String</text>
<text text-anchor="middle" x="1066.62" y="-6.5" font-family="Helvetica,sans-Serif" font-size="10.00">Binding</text>
</a>
</g>
</g>
<!-- Node1&#45;&gt;Node10 -->
<g id="edge9_Node000001_Node000010" class="edge">
<title>Node1&#45;&gt;Node10</title>
<g id="a_edge9_Node000001_Node000010"><a xlink:title=" ">
<path fill="none" stroke="#63b8ff" d="M2479.86,-87.33C2218.45,-81.89 1426.02,-63.35 1145.06,-32.12"/>
<polygon fill="#63b8ff" stroke="#63b8ff" points="1145.51,-28.65 1135.18,-30.99 1144.71,-35.61 1145.51,-28.65"/>
</a>
</g>
</g>
<!-- Node11 -->
<g id="Node000011" class="node">
<title>Node11</title>
<g id="a_Node000011"><a xlink:title=" ">
<polygon fill="#e0e0e0" stroke="#999999" points="1287.25,-32 1152,-32 1152,0 1287.25,0 1287.25,-32"/>
<text text-anchor="start" x="1160" y="-18.5" font-family="Helvetica,sans-Serif" font-size="10.00">javafx.beans.property.Read</text>
<text text-anchor="middle" x="1219.62" y="-6.5" font-family="Helvetica,sans-Serif" font-size="10.00">OnlyBooleanProperty</text>
</a>
</g>
</g>
<!-- Node1&#45;&gt;Node11 -->
<g id="edge10_Node000001_Node000011" class="edge">
<title>Node1&#45;&gt;Node11</title>
<g id="a_edge10_Node000001_Node000011"><a xlink:title=" ">
<path fill="none" stroke="#63b8ff" d="M2479.99,-89.57C2277.32,-89.99 1748.16,-85.51 1298.76,-32.27"/>
<polygon fill="#63b8ff" stroke="#63b8ff" points="1299.34,-28.81 1289,-31.1 1298.51,-35.76 1299.34,-28.81"/>
</a>
</g>
</g>
<!-- Node12 -->
<g id="Node000012" class="node">
<title>Node12</title>
<g id="a_Node000012"><a xlink:title=" ">
<polygon fill="#e0e0e0" stroke="#999999" points="1440.25,-32 1305,-32 1305,0 1440.25,0 1440.25,-32"/>
<text text-anchor="start" x="1313" y="-18.5" font-family="Helvetica,sans-Serif" font-size="10.00">javafx.beans.property.Read</text>
<text text-anchor="middle" x="1372.62" y="-6.5" font-family="Helvetica,sans-Serif" font-size="10.00">OnlyBooleanWrapper</text>
</a>
</g>
</g>
<!-- Node1&#45;&gt;Node12 -->
<g id="edge11_Node000001_Node000012" class="edge">
<title>Node1&#45;&gt;Node12</title>
<g id="a_edge11_Node000001_Node000012"><a xlink:title=" ">
<path fill="none" stroke="#63b8ff" d="M2479.92,-88.82C2294.8,-87.53 1840.3,-79.47 1451.69,-32.27"/>
<polygon fill="#63b8ff" stroke="#63b8ff" points="1452.35,-28.83 1442,-31.08 1451.5,-35.77 1452.35,-28.83"/>
</a>
</g>
</g>
<!-- Node13 -->
<g id="Node000013" class="node">
<title>Node13</title>
<g id="a_Node000013"><a xlink:title=" ">
<polygon fill="#e0e0e0" stroke="#999999" points="1593.25,-32 1458,-32 1458,0 1593.25,0 1593.25,-32"/>
<text text-anchor="start" x="1466" y="-18.5" font-family="Helvetica,sans-Serif" font-size="10.00">javafx.beans.property.Read</text>
<text text-anchor="middle" x="1525.62" y="-6.5" font-family="Helvetica,sans-Serif" font-size="10.00">OnlyStringWrapper</text>
</a>
</g>
</g>
<!-- Node1&#45;&gt;Node13 -->
<g id="edge12_Node000001_Node000013" class="edge">
<title>Node1&#45;&gt;Node13</title>
<g id="a_edge12_Node000001_Node000013"><a xlink:title=" ">
<path fill="none" stroke="#63b8ff" d="M2479.67,-87.76C2313.44,-84.51 1933.5,-73.01 1604.75,-32.15"/>
<polygon fill="#63b8ff" stroke="#63b8ff" points="1605.43,-28.71 1595.07,-30.93 1604.55,-35.65 1605.43,-28.71"/>
</a>
</g>
</g>
<!-- Node14 -->
<g id="Node000014" class="node">
<title>Node14</title>
<g id="a_Node000014"><a xlink:title=" ">
<polygon fill="#e0e0e0" stroke="#999999" points="1741.62,-32 1611.62,-32 1611.62,0 1741.62,0 1741.62,-32"/>
<text text-anchor="start" x="1619.62" y="-18.5" font-family="Helvetica,sans-Serif" font-size="10.00">javafx.scene.control.Color</text>
<text text-anchor="middle" x="1676.62" y="-6.5" font-family="Helvetica,sans-Serif" font-size="10.00">Picker</text>
</a>
</g>
</g>
<!-- Node1&#45;&gt;Node14 -->
<g id="edge13_Node000001_Node000014" class="edge">
<title>Node1&#45;&gt;Node14</title>
<g id="a_edge13_Node000001_Node000014"><a xlink:title=" ">
<path fill="none" stroke="#63b8ff" d="M2479.88,-86.69C2333.53,-81.92 2023.85,-68.31 1753.15,-32.23"/>
<polygon fill="#63b8ff" stroke="#63b8ff" points="1753.79,-28.78 1743.42,-30.92 1752.86,-35.72 1753.79,-28.78"/>
</a>
</g>
</g>
<!-- Node15 -->
<g id="Node000015" class="node">
<title>Node15</title>
<g id="a_Node000015"><a xlink:title=" ">
<polygon fill="#e0e0e0" stroke="#999999" points="1890,-26 1759.25,-26 1759.25,-6 1890,-6 1890,-26"/>
<text text-anchor="middle" x="1824.62" y="-12.5" font-family="Helvetica,sans-Serif" font-size="10.00">javafx.scene.image.Image</text>
</a>
</g>
</g>
<!-- Node1&#45;&gt;Node15 -->
<g id="edge14_Node000001_Node000015" class="edge">
<title>Node1&#45;&gt;Node15</title>
<g id="a_edge14_Node000001_Node000015"><a xlink:title=" ">
<path fill="none" stroke="#63b8ff" d="M2479.64,-84.85C2352.7,-77.95 2106.25,-61.83 1898.62,-32 1892.06,-31.06 1885.2,-29.9 1878.41,-28.65"/>
<polygon fill="#63b8ff" stroke="#63b8ff" points="1879.1,-25.22 1868.62,-26.77 1877.78,-32.09 1879.1,-25.22"/>
</a>
</g>
</g>
<!-- Node16 -->
<g id="Node000016" class="node">
<title>Node16</title>
<g id="a_Node000016"><a xlink:title=" ">
<polygon fill="#e0e0e0" stroke="#999999" points="2063.38,-26 1907.88,-26 1907.88,-6 2063.38,-6 2063.38,-26"/>
<text text-anchor="middle" x="1985.62" y="-12.5" font-family="Helvetica,sans-Serif" font-size="10.00">javafx.scene.layout.Background</text>
</a>
</g>
</g>
<!-- Node1&#45;&gt;Node16 -->
<g id="edge15_Node000001_Node000016" class="edge">
<title>Node1&#45;&gt;Node16</title>
<g id="a_edge15_Node000001_Node000016"><a xlink:title=" ">
<path fill="none" stroke="#63b8ff" d="M2479.99,-80.63C2381.82,-70.6 2215.18,-52.53 2072.62,-32 2064.89,-30.89 2056.79,-29.62 2048.77,-28.31"/>
<polygon fill="#63b8ff" stroke="#63b8ff" points="2049.47,-24.88 2039.03,-26.68 2048.32,-31.78 2049.47,-24.88"/>
</a>
</g>
</g>
<!-- Node17 -->
<g id="Node000017" class="node">
<title>Node17</title>
<g id="a_Node000017"><a xlink:title=" ">
<polygon fill="#e0e0e0" stroke="#999999" points="2249.75,-26 2081.5,-26 2081.5,-6 2249.75,-6 2249.75,-26"/>
<text text-anchor="middle" x="2165.62" y="-12.5" font-family="Helvetica,sans-Serif" font-size="10.00">javafx.scene.layout.BackgroundFill</text>
</a>
</g>
</g>
<!-- Node1&#45;&gt;Node17 -->
<g id="edge16_Node000001_Node000017" class="edge">
<title>Node1&#45;&gt;Node17</title>
<g id="a_edge16_Node000001_Node000017"><a xlink:title=" ">
<path fill="none" stroke="#63b8ff" d="M2480.01,-73.73C2404.92,-60.18 2296.91,-40.69 2229.04,-28.44"/>
<polygon fill="#63b8ff" stroke="#63b8ff" points="2230.04,-25.07 2219.58,-26.74 2228.8,-31.96 2230.04,-25.07"/>
</a>
</g>
</g>
<!-- Node18 -->
<g id="Node000018" class="node">
<title>Node18</title>
<g id="a_Node000018"><a xlink:title=" ">
<polygon fill="#e0e0e0" stroke="#999999" points="2411.75,-26 2267.5,-26 2267.5,-6 2411.75,-6 2411.75,-26"/>
<text text-anchor="middle" x="2339.62" y="-12.5" font-family="Helvetica,sans-Serif" font-size="10.00">javafx.scene.layout.GridPane</text>
</a>
</g>
</g>
<!-- Node1&#45;&gt;Node18 -->
<g id="edge17_Node000001_Node000018" class="edge">
<title>Node1&#45;&gt;Node18</title>
<g id="a_edge17_Node000001_Node000018"><a xlink:title=" ">
<path fill="none" stroke="#63b8ff" d="M2497.73,-67.59C2459.49,-55.36 2412.79,-40.41 2380.09,-29.95"/>
<polygon fill="#63b8ff" stroke="#63b8ff" points="2381.18,-26.62 2370.59,-26.91 2379.05,-33.29 2381.18,-26.62"/>
</a>
</g>
</g>
<!-- Node19 -->
<g id="Node000019" class="node">
<title>Node19</title>
<g id="a_Node000019"><a xlink:title=" ">
<polygon fill="#e0e0e0" stroke="#999999" points="2551.5,-26 2429.75,-26 2429.75,-6 2551.5,-6 2551.5,-26"/>
<text text-anchor="middle" x="2490.62" y="-12.5" font-family="Helvetica,sans-Serif" font-size="10.00">javafx.scene.paint.Color</text>
</a>
</g>
</g>
<!-- Node1&#45;&gt;Node19 -->
<g id="edge18_Node000001_Node000019" class="edge">
<title>Node1&#45;&gt;Node19</title>
<g id="a_edge18_Node000001_Node000019"><a xlink:title=" ">
<path fill="none" stroke="#63b8ff" d="M2542.82,-67.79C2531.88,-57.14 2518.78,-44.39 2508.44,-34.34"/>
<polygon fill="#63b8ff" stroke="#63b8ff" points="2510.89,-31.83 2501.28,-27.37 2506.01,-36.85 2510.89,-31.83"/>
</a>
</g>
</g>
<!-- Node20 -->
<g id="Node000020" class="node">
<title>Node20</title>
<g id="a_Node000020"><a xlink:title=" ">
<polygon fill="#e0e0e0" stroke="#999999" points="2708.12,-32 2569.12,-32 2569.12,0 2708.12,0 2708.12,-32"/>
<text text-anchor="start" x="2577.12" y="-18.5" font-family="Helvetica,sans-Serif" font-size="10.00">org.apache.commons.lang3.</text>
<text text-anchor="middle" x="2638.62" y="-6.5" font-family="Helvetica,sans-Serif" font-size="10.00">StringUtils</text>
</a>
</g>
</g>
<!-- Node1&#45;&gt;Node20 -->
<g id="edge19_Node000001_Node000020" class="edge">
<title>Node1&#45;&gt;Node20</title>
<g id="a_edge19_Node000001_Node000020"><a xlink:title=" ">
<path fill="none" stroke="#63b8ff" d="M2586.43,-67.79C2595.44,-59.02 2605.9,-48.84 2615.08,-39.91"/>
<polygon fill="#63b8ff" stroke="#63b8ff" points="2617.27,-42.66 2621.99,-33.18 2612.39,-37.65 2617.27,-42.66"/>
</a>
</g>
</g>
<!-- Node21 -->
<g id="Node000021" class="node">
<title>Node21</title>
<g id="a_Node000021"><a xlink:title=" ">
<polygon fill="#e0e0e0" stroke="#999999" points="2809,-26 2726.25,-26 2726.25,-6 2809,-6 2809,-26"/>
<text text-anchor="middle" x="2767.62" y="-12.5" font-family="Helvetica,sans-Serif" font-size="10.00">org.slf4j.Logger</text>
</a>
</g>
</g>
<!-- Node1&#45;&gt;Node21 -->
<g id="edge20_Node000001_Node000021" class="edge">
<title>Node1&#45;&gt;Node21</title>
<g id="a_edge20_Node000001_Node000021"><a xlink:title=" ">
<path fill="none" stroke="#63b8ff" d="M2624.98,-67.59C2659.18,-55.46 2700.88,-40.67 2730.34,-30.22"/>
<polygon fill="#63b8ff" stroke="#63b8ff" points="2731.31,-33.6 2739.56,-26.95 2728.97,-27 2731.31,-33.6"/>
</a>
</g>
</g>
<!-- Node22 -->
<g id="Node000022" class="node">
<title>Node22</title>
<g id="a_Node000022"><a xlink:title=" ">
<polygon fill="#e0e0e0" stroke="#999999" points="2942.5,-26 2826.75,-26 2826.75,-6 2942.5,-6 2942.5,-26"/>
<text text-anchor="middle" x="2884.62" y="-12.5" font-family="Helvetica,sans-Serif" font-size="10.00">org.slf4j.LoggerFactory</text>
</a>
</g>
</g>
<!-- Node1&#45;&gt;Node22 -->
<g id="edge21_Node000001_Node000022" class="edge">
<title>Node1&#45;&gt;Node22</title>
<g id="a_edge21_Node000001_Node000022"><a xlink:title=" ">
<path fill="none" stroke="#63b8ff" d="M2649.54,-69.89C2707.26,-56.91 2781.83,-40.13 2831.35,-28.99"/>
<polygon fill="#63b8ff" stroke="#63b8ff" points="2831.98,-32.43 2840.96,-26.82 2830.44,-25.6 2831.98,-32.43"/>
</a>
</g>
</g>
<!-- Node23 -->
<g id="Node000023" class="node">
<title>Node23</title>
<g id="a_Node000023"><a xlink:title=" ">
<polygon fill="#e0e0e0" stroke="#999999" points="3116.75,-32 2960.5,-32 2960.5,0 3116.75,0 3116.75,-32"/>
<text text-anchor="start" x="2968.5" y="-18.5" font-family="Helvetica,sans-Serif" font-size="10.00">org.springframework.stereotype.</text>
<text text-anchor="middle" x="3038.62" y="-6.5" font-family="Helvetica,sans-Serif" font-size="10.00">Component</text>
</a>
</g>
</g>
<!-- Node1&#45;&gt;Node23 -->
<g id="edge22_Node000001_Node000023" class="edge">
<title>Node1&#45;&gt;Node23</title>
<g id="a_edge22_Node000001_Node000023"><a xlink:title=" ">
<path fill="none" stroke="#63b8ff" d="M2649.27,-77.14C2725.13,-66.37 2839.76,-49.76 2949.14,-32.38"/>
<polygon fill="#63b8ff" stroke="#63b8ff" points="2949.57,-35.85 2958.89,-30.82 2948.46,-28.94 2949.57,-35.85"/>
</a>
</g>
</g>
<!-- Node24 -->
<g id="Node000024" class="node">
<title>Node24</title>
<g id="a_Node000024"><a xlink:title=" ">
<polygon fill="#e0e0e0" stroke="#999999" points="3298.12,-32 3135.12,-32 3135.12,0 3298.12,0 3298.12,-32"/>
<text text-anchor="start" x="3143.12" y="-18.5" font-family="Helvetica,sans-Serif" font-size="10.00">edu.umd.cs.findbugs.annotations.</text>
<text text-anchor="middle" x="3216.62" y="-6.5" font-family="Helvetica,sans-Serif" font-size="10.00">SuppressFBWarnings</text>
</a>
</g>
</g>
<!-- Node1&#45;&gt;Node24 -->
<g id="edge23_Node000001_Node000024" class="edge">
<title>Node1&#45;&gt;Node24</title>
<g id="a_edge23_Node000001_Node000024"><a xlink:title=" ">
<path fill="none" stroke="#63b8ff" d="M2649.4,-82.04C2757.12,-72.82 2948.99,-55.17 3123.6,-32.22"/>
<polygon fill="#63b8ff" stroke="#63b8ff" points="3123.85,-35.71 3133.31,-30.93 3122.93,-28.77 3123.85,-35.71"/>
</a>
</g>
</g>
<!-- Node25 -->
<g id="Node000025" class="node">
<title>Node25</title>
<g id="a_Node000025"><a xlink:title=" ">
<polygon fill="#e0e0e0" stroke="#999999" points="3503.12,-26 3316.12,-26 3316.12,-6 3503.12,-6 3503.12,-26"/>
<text text-anchor="middle" x="3409.62" y="-12.5" font-family="Helvetica,sans-Serif" font-size="10.00">fr.softsf.sudokufx.common.enums.I18n</text>
</a>
</g>
</g>
<!-- Node1&#45;&gt;Node25 -->
<g id="edge24_Node000001_Node000025" class="edge">
<title>Node1&#45;&gt;Node25</title>
<g id="a_edge24_Node000001_Node000025"><a xlink:title=" ">
<path fill="none" stroke="#63b8ff" d="M2649.49,-84.41C2787.67,-76.51 3069.77,-58.58 3307.62,-32 3317.75,-30.87 3328.41,-29.5 3338.88,-28.05"/>
<polygon fill="#63b8ff" stroke="#63b8ff" points="3339.21,-31.54 3348.62,-26.67 3338.23,-24.61 3339.21,-31.54"/>
</a>
</g>
</g>
<!-- Node26 -->
<g id="Node000026" class="node">
<title>Node26</title>
<g id="a_Node000026"><a xlink:title=" ">
<polygon fill="#e0e0e0" stroke="#999999" points="3702.12,-32 3521.12,-32 3521.12,0 3702.12,0 3702.12,-32"/>
<text text-anchor="start" x="3529.12" y="-18.5" font-family="Helvetica,sans-Serif" font-size="10.00">fr.softsf.sudokufx.common.exception.</text>
<text text-anchor="middle" x="3611.62" y="-6.5" font-family="Helvetica,sans-Serif" font-size="10.00">ExceptionTools</text>
</a>
</g>
</g>
<!-- Node1&#45;&gt;Node26 -->
<g id="edge25_Node000001_Node000026" class="edge">
<title>Node1&#45;&gt;Node26</title>
<g id="a_edge25_Node000001_Node000026"><a xlink:title=" ">
<path fill="none" stroke="#63b8ff" d="M2649.49,-86.47C2813.73,-81.01 3186.64,-65.87 3509.77,-32.25"/>
<polygon fill="#63b8ff" stroke="#63b8ff" points="3509.68,-35.77 3519.26,-31.25 3508.95,-28.81 3509.68,-35.77"/>
</a>
</g>
</g>
<!-- Node27 -->
<g id="Node000027" class="node">
<title>Node27</title>
<g id="a_Node000027"><a xlink:title=" ">
<polygon fill="#e0e0e0" stroke="#999999" points="3871.5,-32 3719.75,-32 3719.75,0 3871.5,0 3871.5,-32"/>
<text text-anchor="start" x="3727.75" y="-18.5" font-family="Helvetica,sans-Serif" font-size="10.00">fr.softsf.sudokufx.common.util.</text>
<text text-anchor="middle" x="3795.62" y="-6.5" font-family="Helvetica,sans-Serif" font-size="10.00">AudioUtils</text>
</a>
</g>
</g>
<!-- Node1&#45;&gt;Node27 -->
<g id="edge26_Node000001_Node000027" class="edge">
<title>Node1&#45;&gt;Node27</title>
<g id="a_edge26_Node000001_Node000027"><a xlink:title=" ">
<path fill="none" stroke="#63b8ff" d="M2649.46,-88.46C2838.23,-86.48 3307.35,-77.13 3708.43,-32.28"/>
<polygon fill="#63b8ff" stroke="#63b8ff" points="3708.63,-35.78 3718.18,-31.18 3707.85,-28.82 3708.63,-35.78"/>
</a>
</g>
</g>
<!-- Node28 -->
<g id="Node000028" class="node">
<title>Node28</title>
<g id="a_Node000028"><a xlink:title=" ">
<polygon fill="#e0e0e0" stroke="#999999" points="4041.5,-32 3889.75,-32 3889.75,0 4041.5,0 4041.5,-32"/>
<text text-anchor="start" x="3897.75" y="-18.5" font-family="Helvetica,sans-Serif" font-size="10.00">fr.softsf.sudokufx.common.util.</text>
<text text-anchor="middle" x="3965.62" y="-6.5" font-family="Helvetica,sans-Serif" font-size="10.00">ImageMeta</text>
</a>
</g>
</g>
<!-- Node1&#45;&gt;Node28 -->
<g id="edge27_Node000001_Node000028" class="edge">
<title>Node1&#45;&gt;Node28</title>
<g id="a_edge27_Node000001_Node000028"><a xlink:title=" ">
<path fill="none" stroke="#63b8ff" d="M2649.6,-89.18C2857.61,-88.78 3409.03,-82.71 3878.28,-32.15"/>
<polygon fill="#63b8ff" stroke="#63b8ff" points="3878.63,-35.63 3888.19,-31.07 3877.87,-28.67 3878.63,-35.63"/>
</a>
</g>
</g>
<!-- Node29 -->
<g id="Node000029" class="node">
<title>Node29</title>
<g id="a_Node000029"><a xlink:title=" ">
<polygon fill="#e0e0e0" stroke="#999999" points="4211.5,-32 4059.75,-32 4059.75,0 4211.5,0 4211.5,-32"/>
<text text-anchor="start" x="4067.75" y="-18.5" font-family="Helvetica,sans-Serif" font-size="10.00">fr.softsf.sudokufx.common.util.</text>
<text text-anchor="middle" x="4135.62" y="-6.5" font-family="Helvetica,sans-Serif" font-size="10.00">ImageUtils</text>
</a>
</g>
</g>
<!-- Node1&#45;&gt;Node29 -->
<g id="edge28_Node000001_Node000029" class="edge">
<title>Node1&#45;&gt;Node29</title>
<g id="a_edge28_Node000001_Node000029"><a xlink:title=" ">
<path fill="none" stroke="#63b8ff" d="M2649.53,-89.78C2875.62,-91 3511.1,-88.77 4048.61,-32.11"/>
<polygon fill="#63b8ff" stroke="#63b8ff" points="4048.62,-35.62 4058.19,-31.09 4047.88,-28.66 4048.62,-35.62"/>
</a>
</g>
</g>
<!-- Node30 -->
<g id="Node000030" class="node">
<title>Node30</title>
<g id="a_Node000030"><a xlink:title=" ">
<polygon fill="#e0e0e0" stroke="#999999" points="4381.5,-32 4229.75,-32 4229.75,0 4381.5,0 4381.5,-32"/>
<text text-anchor="start" x="4237.75" y="-18.5" font-family="Helvetica,sans-Serif" font-size="10.00">fr.softsf.sudokufx.common.util.</text>
<text text-anchor="middle" x="4305.62" y="-6.5" font-family="Helvetica,sans-Serif" font-size="10.00">PathValidator</text>
</a>
</g>
</g>
<!-- Node1&#45;&gt;Node30 -->
<g id="edge29_Node000001_Node000030" class="edge">
<title>Node1&#45;&gt;Node30</title>
<g id="a_edge29_Node000001_Node000030"><a xlink:title=" ">
<path fill="none" stroke="#63b8ff" d="M2649.37,-87.66C2939.05,-82.82 3889.51,-64.88 4218.72,-32.07"/>
<polygon fill="#63b8ff" stroke="#63b8ff" points="4218.6,-35.6 4228.19,-31.1 4217.89,-28.63 4218.6,-35.6"/>
</a>
</g>
</g>
<!-- Node31 -->
<g id="Node000031" class="node">
<title>Node31</title>
<g id="a_Node000031"><a xlink:title=" ">
<polygon fill="#e0e0e0" stroke="#999999" points="4561.38,-26 4399.88,-26 4399.88,-6 4561.38,-6 4561.38,-26"/>
<text text-anchor="middle" x="4480.62" y="-12.5" font-family="Helvetica,sans-Serif" font-size="10.00">fr.softsf.sudokufx.dto.OptionsDto</text>
</a>
</g>
</g>
<!-- Node1&#45;&gt;Node31 -->
<g id="edge30_Node000001_Node000031" class="edge">
<title>Node1&#45;&gt;Node31</title>
<g id="a_edge30_Node000001_Node000031"><a xlink:title=" ">
<path fill="none" stroke="#63b8ff" d="M2649.56,-87.86C2961.86,-83.43 4046.18,-65.93 4390.62,-32 4400.14,-31.06 4410.18,-29.73 4419.95,-28.25"/>
<polygon fill="#63b8ff" stroke="#63b8ff" points="4420.45,-31.71 4429.77,-26.69 4419.35,-24.8 4420.45,-31.71"/>
</a>
</g>
</g>
<!-- Node32 -->
<g id="Node000032" class="node">
<title>Node32</title>
<g id="a_Node000032"><a xlink:title=" ">
<polygon fill="#e0e0e0" stroke="#999999" points="4751.62,-32 4579.62,-32 4579.62,0 4751.62,0 4751.62,-32"/>
<text text-anchor="start" x="4587.62" y="-18.5" font-family="Helvetica,sans-Serif" font-size="10.00">fr.softsf.sudokufx.service.business.</text>
<text text-anchor="middle" x="4665.62" y="-6.5" font-family="Helvetica,sans-Serif" font-size="10.00">OptionsService</text>
</a>
</g>
</g>
<!-- Node1&#45;&gt;Node32 -->
<g id="edge31_Node000001_Node000032" class="edge">
<title>Node1&#45;&gt;Node32</title>
<g id="a_edge31_Node000001_Node000032"><a xlink:title=" ">
<path fill="none" stroke="#63b8ff" d="M2649.55,-88.04C2977.97,-84.1 4165.99,-67.73 4567.85,-32.16"/>
<polygon fill="#63b8ff" stroke="#63b8ff" points="4568.07,-35.65 4577.71,-31.26 4567.43,-28.68 4568.07,-35.65"/>
</a>
</g>
</g>
<!-- Node33 -->
<g id="Node000033" class="node">
<title>Node33</title>
<g id="a_Node000033"><a xlink:title=" ">
<polygon fill="#e0e0e0" stroke="#999999" points="4909.88,-32 4769.38,-32 4769.38,0 4909.88,0 4909.88,-32"/>
<text text-anchor="start" x="4777.38" y="-18.5" font-family="Helvetica,sans-Serif" font-size="10.00">fr.softsf.sudokufx.service.ui.</text>
<text text-anchor="middle" x="4839.62" y="-6.5" font-family="Helvetica,sans-Serif" font-size="10.00">AsyncFileProcessorService</text>
</a>
</g>
</g>
<!-- Node1&#45;&gt;Node33 -->
<g id="edge32_Node000001_Node000033" class="edge">
<title>Node1&#45;&gt;Node33</title>
<g id="a_edge32_Node000001_Node000033"><a xlink:title=" ">
<path fill="none" stroke="#63b8ff" d="M2649.45,-88.63C2997.42,-86.84 4317.36,-77.24 4757.88,-32.15"/>
<polygon fill="#63b8ff" stroke="#63b8ff" points="4757.99,-35.66 4767.57,-31.14 4757.26,-28.7 4757.99,-35.66"/>
</a>
</g>
</g>
<!-- Node34 -->
<g id="Node000034" class="node">
<title>Node34</title>
<g id="a_Node000034"><a xlink:title=" ">
<polygon fill="#e0e0e0" stroke="#999999" points="5068.88,-32 4928.38,-32 4928.38,0 5068.88,0 5068.88,-32"/>
<text text-anchor="start" x="4936.38" y="-18.5" font-family="Helvetica,sans-Serif" font-size="10.00">fr.softsf.sudokufx.service.ui.</text>
<text text-anchor="middle" x="4998.62" y="-6.5" font-family="Helvetica,sans-Serif" font-size="10.00">AudioService</text>
</a>
</g>
</g>
<!-- Node1&#45;&gt;Node34 -->
<g id="edge33_Node000001_Node000034" class="edge">
<title>Node1&#45;&gt;Node34</title>
<g id="a_edge33_Node000001_Node000034"><a xlink:title=" ">
<path fill="none" stroke="#63b8ff" d="M2649.6,-88.78C3013.39,-87.55 4442.16,-79.79 4916.67,-32.04"/>
<polygon fill="#63b8ff" stroke="#63b8ff" points="4916.95,-35.53 4926.54,-31.03 4916.23,-28.57 4916.95,-35.53"/>
</a>
</g>
</g>
<!-- Node35 -->
<g id="Node000035" class="node">
<title>Node35</title>
<g id="a_Node000035"><a xlink:title=" ">
<polygon fill="#e0e0e0" stroke="#999999" points="5227.88,-32 5087.38,-32 5087.38,0 5227.88,0 5227.88,-32"/>
<text text-anchor="start" x="5095.38" y="-18.5" font-family="Helvetica,sans-Serif" font-size="10.00">fr.softsf.sudokufx.service.ui.</text>
<text text-anchor="middle" x="5157.62" y="-6.5" font-family="Helvetica,sans-Serif" font-size="10.00">ToasterService</text>
</a>
</g>
</g>
<!-- Node1&#45;&gt;Node35 -->
<g id="edge34_Node000001_Node000035" class="edge">
<title>Node1&#45;&gt;Node35</title>
<g id="a_edge34_Node000001_Node000035"><a xlink:title=" ">
<path fill="none" stroke="#63b8ff" d="M2649.5,-88.93C3028.32,-88.33 4567.82,-82.84 5075.61,-32.05"/>
<polygon fill="#63b8ff" stroke="#63b8ff" points="5075.95,-35.53 5085.54,-31.03 5075.24,-28.57 5075.95,-35.53"/>
</a>
</g>
</g>
<!-- Node36 -->
<g id="Node000036" class="node">
<title>Node36</title>
<g id="a_Node000036"><a xlink:title=" ">
<polygon fill="#e0e0e0" stroke="#999999" points="5447.62,-32 5245.62,-32 5245.62,0 5447.62,0 5447.62,-32"/>
<text text-anchor="start" x="5253.62" y="-18.5" font-family="Helvetica,sans-Serif" font-size="10.00">fr.softsf.sudokufx.view.component.toaster.</text>
<text text-anchor="middle" x="5346.62" y="-6.5" font-family="Helvetica,sans-Serif" font-size="10.00">ToasterVBox</text>
</a>
</g>
</g>
<!-- Node1&#45;&gt;Node36 -->
<g id="edge35_Node000001_Node000036" class="edge">
<title>Node1&#45;&gt;Node36</title>
<g id="a_edge35_Node000001_Node000036"><a xlink:title=" ">
<path fill="none" stroke="#63b8ff" d="M2649.46,-88.5C3042.8,-85.96 4692.5,-73.09 5233.96,-32.13"/>
<polygon fill="#63b8ff" stroke="#63b8ff" points="5234.17,-35.62 5243.87,-31.37 5233.63,-28.65 5234.17,-35.62"/>
</a>
</g>
</g>
<!-- Node37 -->
<g id="Node000037" class="node">
<title>Node37</title>
<g id="a_Node000037"><a xlink:title=" ">
<polygon fill="#e0e0e0" stroke="#999999" points="5635.5,-32 5465.75,-32 5465.75,0 5635.5,0 5635.5,-32"/>
<text text-anchor="start" x="5473.75" y="-18.5" font-family="Helvetica,sans-Serif" font-size="10.00">fr.softsf.sudokufx.viewmodel.state.</text>
<text text-anchor="middle" x="5550.62" y="-6.5" font-family="Helvetica,sans-Serif" font-size="10.00">PlayerStateHolder</text>
</a>
</g>
</g>
<!-- Node1&#45;&gt;Node37 -->
<g id="edge36_Node000001_Node000037" class="edge">
<title>Node1&#45;&gt;Node37</title>
<g id="a_edge36_Node000001_Node000037"><a xlink:title=" ">
<path fill="none" stroke="#63b8ff" d="M2649.45,-88.92C3062.57,-88.26 4867.51,-82.57 5454.29,-32.1"/>
<polygon fill="#63b8ff" stroke="#63b8ff" points="5454.22,-35.62 5463.88,-31.26 5453.61,-28.65 5454.22,-35.62"/>
</a>
</g>
</g>
</g>
</svg>
