<?xml version="1.0" encoding="UTF-8" standalone="no"?>
<!DOCTYPE svg PUBLIC "-//W3C//DTD SVG 1.1//EN"
 "http://www.w3.org/Graphics/SVG/1.1/DTD/svg11.dtd">
<!-- Generated by graphviz version 12.2.1 (20241206.2353)
 -->
<!-- Title: src/main/java/fr/softsf/sudokufx/viewmodel/MenuPlayerViewModel.java Pages: 1 -->
<svg width="2072pt" height="120pt"
 viewBox="0.00 0.00 2071.62 120.00" xmlns="http://www.w3.org/2000/svg" xmlns:xlink="http://www.w3.org/1999/xlink">
<g id="graph0" class="graph" transform="scale(1 1) rotate(0) translate(4 116)">
<title>src/main/java/fr/softsf/sudokufx/viewmodel/MenuPlayerViewModel.java</title>
<!-- Node1 -->
<g id="Node000001" class="node">
<title>Node1</title>
<g id="a_Node000001"><a xlink:title=" ">
<polygon fill="#999999" stroke="#666666" points="1058,-112 895,-112 895,-68 1058,-68 1058,-112"/>
<text text-anchor="start" x="903" y="-98.5" font-family="Helvetica,sans-Serif" font-size="10.00">src/main/java/fr/softsf</text>
<text text-anchor="start" x="903" y="-86.5" font-family="Helvetica,sans-Serif" font-size="10.00">/sudokufx/viewmodel/MenuPlayer</text>
<text text-anchor="middle" x="976.5" y="-74.5" font-family="Helvetica,sans-Serif" font-size="10.00">ViewModel.java</text>
</a>
</g>
</g>
<!-- Node2 -->
<g id="Node000002" class="node">
<title>Node2</title>
<g id="a_Node000002"><a xlink:title=" ">
<polygon fill="#e0e0e0" stroke="#999999" points="127,-26 0,-26 0,-6 127,-6 127,-26"/>
<text text-anchor="middle" x="63.5" y="-12.5" font-family="Helvetica,sans-Serif" font-size="10.00">java.text.MessageFormat</text>
</a>
</g>
</g>
<!-- Node1&#45;&gt;Node2 -->
<g id="edge1_Node000001_Node000002" class="edge">
<title>Node1&#45;&gt;Node2</title>
<g id="a_edge1_Node000001_Node000002"><a xlink:title=" ">
<path fill="none" stroke="#63b8ff" d="M894.75,-87.11C744.14,-82.82 412.95,-69.61 136.5,-32 129.77,-31.08 122.72,-29.91 115.78,-28.63"/>
<polygon fill="#63b8ff" stroke="#63b8ff" points="116.61,-25.22 106.13,-26.75 115.28,-32.1 116.61,-25.22"/>
</a>
</g>
</g>
<!-- Node3 -->
<g id="Node000003" class="node">
<title>Node3</title>
<g id="a_Node000003"><a xlink:title=" ">
<polygon fill="#e0e0e0" stroke="#999999" points="269.88,-26 145.12,-26 145.12,-6 269.88,-6 269.88,-26"/>
<text text-anchor="middle" x="207.5" y="-12.5" font-family="Helvetica,sans-Serif" font-size="10.00">java.time.LocalDateTime</text>
</a>
</g>
</g>
<!-- Node1&#45;&gt;Node3 -->
<g id="edge2_Node000001_Node000003" class="edge">
<title>Node1&#45;&gt;Node3</title>
<g id="a_edge2_Node000001_Node000003"><a xlink:title=" ">
<path fill="none" stroke="#63b8ff" d="M894.72,-85.68C763.97,-79.63 500.02,-64.31 278.5,-32 272.11,-31.07 265.43,-29.91 258.84,-28.65"/>
<polygon fill="#63b8ff" stroke="#63b8ff" points="259.87,-25.28 249.38,-26.76 258.49,-32.15 259.87,-25.28"/>
</a>
</g>
</g>
<!-- Node4 -->
<g id="Node000004" class="node">
<title>Node4</title>
<g id="a_Node000004"><a xlink:title=" ">
<polygon fill="#e0e0e0" stroke="#999999" points="413.25,-26 287.75,-26 287.75,-6 413.25,-6 413.25,-26"/>
<text text-anchor="middle" x="350.5" y="-12.5" font-family="Helvetica,sans-Serif" font-size="10.00">java.util.function.Supplier</text>
</a>
</g>
</g>
<!-- Node1&#45;&gt;Node4 -->
<g id="edge3_Node000001_Node000004" class="edge">
<title>Node1&#45;&gt;Node4</title>
<g id="a_edge3_Node000001_Node000004"><a xlink:title=" ">
<path fill="none" stroke="#63b8ff" d="M894.96,-83.25C786.63,-75.01 589.46,-57.91 422.5,-32 416.2,-31.02 409.61,-29.85 403.09,-28.61"/>
<polygon fill="#63b8ff" stroke="#63b8ff" points="404.22,-25.26 393.73,-26.75 402.86,-32.13 404.22,-25.26"/>
</a>
</g>
</g>
<!-- Node5 -->
<g id="Node000005" class="node">
<title>Node5</title>
<g id="a_Node000005"><a xlink:title=" ">
<polygon fill="#e0e0e0" stroke="#999999" points="577.38,-26 431.62,-26 431.62,-6 577.38,-6 577.38,-26"/>
<text text-anchor="middle" x="504.5" y="-12.5" font-family="Helvetica,sans-Serif" font-size="10.00">javafx.beans.binding.Bindings</text>
</a>
</g>
</g>
<!-- Node1&#45;&gt;Node5 -->
<g id="edge4_Node000001_Node000005" class="edge">
<title>Node1&#45;&gt;Node5</title>
<g id="a_edge4_Node000001_Node000005"><a xlink:title=" ">
<path fill="none" stroke="#63b8ff" d="M894.57,-77.89C815.56,-66.98 692.68,-49.46 586.5,-32 579.83,-30.9 572.87,-29.71 565.94,-28.49"/>
<polygon fill="#63b8ff" stroke="#63b8ff" points="566.7,-25.07 556.24,-26.75 565.47,-31.96 566.7,-25.07"/>
</a>
</g>
</g>
<!-- Node6 -->
<g id="Node000006" class="node">
<title>Node6</title>
<g id="a_Node000006"><a xlink:title=" ">
<polygon fill="#e0e0e0" stroke="#999999" points="729.38,-32 595.62,-32 595.62,0 729.38,0 729.38,-32"/>
<text text-anchor="start" x="603.62" y="-18.5" font-family="Helvetica,sans-Serif" font-size="10.00">javafx.beans.binding.String</text>
<text text-anchor="middle" x="662.5" y="-6.5" font-family="Helvetica,sans-Serif" font-size="10.00">Binding</text>
</a>
</g>
</g>
<!-- Node1&#45;&gt;Node6 -->
<g id="edge5_Node000001_Node000006" class="edge">
<title>Node1&#45;&gt;Node6</title>
<g id="a_edge5_Node000001_Node000006"><a xlink:title=" ">
<path fill="none" stroke="#63b8ff" d="M894.82,-70.27C847.3,-59.37 787.71,-45.71 740.78,-34.95"/>
<polygon fill="#63b8ff" stroke="#63b8ff" points="741.75,-31.58 731.22,-32.76 740.19,-38.4 741.75,-31.58"/>
</a>
</g>
</g>
<!-- Node7 -->
<g id="Node000007" class="node">
<title>Node7</title>
<g id="a_Node000007"><a xlink:title=" ">
<polygon fill="#e0e0e0" stroke="#999999" points="887.75,-32 747.25,-32 747.25,0 887.75,0 887.75,-32"/>
<text text-anchor="start" x="755.25" y="-18.5" font-family="Helvetica,sans-Serif" font-size="10.00">javafx.beans.property.Object</text>
<text text-anchor="middle" x="817.5" y="-6.5" font-family="Helvetica,sans-Serif" font-size="10.00">Property</text>
</a>
</g>
</g>
<!-- Node1&#45;&gt;Node7 -->
<g id="edge6_Node000001_Node000007" class="edge">
<title>Node1&#45;&gt;Node7</title>
<g id="a_edge6_Node000001_Node000007"><a xlink:title=" ">
<path fill="none" stroke="#63b8ff" d="M929.23,-67.59C907.92,-57.95 882.91,-46.62 861.95,-37.13"/>
<polygon fill="#63b8ff" stroke="#63b8ff" points="863.65,-34.06 853.1,-33.12 860.76,-40.43 863.65,-34.06"/>
</a>
</g>
</g>
<!-- Node8 -->
<g id="Node000008" class="node">
<title>Node8</title>
<g id="a_Node000008"><a xlink:title=" ">
<polygon fill="#e0e0e0" stroke="#999999" points="1047.5,-32 905.5,-32 905.5,0 1047.5,0 1047.5,-32"/>
<text text-anchor="start" x="913.5" y="-18.5" font-family="Helvetica,sans-Serif" font-size="10.00">javafx.beans.property.Simple</text>
<text text-anchor="middle" x="976.5" y="-6.5" font-family="Helvetica,sans-Serif" font-size="10.00">ObjectProperty</text>
</a>
</g>
</g>
<!-- Node1&#45;&gt;Node8 -->
<g id="edge7_Node000001_Node000008" class="edge">
<title>Node1&#45;&gt;Node8</title>
<g id="a_edge7_Node000001_Node000008"><a xlink:title=" ">
<path fill="none" stroke="#63b8ff" d="M976.5,-67.79C976.5,-60.18 976.5,-51.52 976.5,-43.52"/>
<polygon fill="#63b8ff" stroke="#63b8ff" points="980,-43.64 976.5,-33.64 973,-43.64 980,-43.64"/>
</a>
</g>
</g>
<!-- Node9 -->
<g id="Node000009" class="node">
<title>Node9</title>
<g id="a_Node000009"><a xlink:title=" ">
<polygon fill="#e0e0e0" stroke="#999999" points="1221.62,-26 1065.38,-26 1065.38,-6 1221.62,-6 1221.62,-26"/>
<text text-anchor="middle" x="1143.5" y="-12.5" font-family="Helvetica,sans-Serif" font-size="10.00">javafx.collections.FXCollections</text>
</a>
</g>
</g>
<!-- Node1&#45;&gt;Node9 -->
<g id="edge8_Node000001_Node000009" class="edge">
<title>Node1&#45;&gt;Node9</title>
<g id="a_edge8_Node000001_Node000009"><a xlink:title=" ">
<path fill="none" stroke="#63b8ff" d="M1026.15,-67.59C1053.67,-55.73 1087.08,-41.32 1111.21,-30.92"/>
<polygon fill="#63b8ff" stroke="#63b8ff" points="1112.4,-34.22 1120.2,-27.05 1109.63,-27.79 1112.4,-34.22"/>
</a>
</g>
</g>
<!-- Node10 -->
<g id="Node000010" class="node">
<title>Node10</title>
<g id="a_Node000010"><a xlink:title=" ">
<polygon fill="#e0e0e0" stroke="#999999" points="1399.5,-26 1239.5,-26 1239.5,-6 1399.5,-6 1399.5,-26"/>
<text text-anchor="middle" x="1319.5" y="-12.5" font-family="Helvetica,sans-Serif" font-size="10.00">javafx.collections.ObservableList</text>
</a>
</g>
</g>
<!-- Node1&#45;&gt;Node10 -->
<g id="edge9_Node000001_Node000010" class="edge">
<title>Node1&#45;&gt;Node10</title>
<g id="a_edge9_Node000001_Node000010"><a xlink:title=" ">
<path fill="none" stroke="#63b8ff" d="M1058.22,-71.85C1121.62,-58.54 1207.82,-40.44 1263.56,-28.74"/>
<polygon fill="#63b8ff" stroke="#63b8ff" points="1264.08,-32.21 1273.15,-26.73 1262.64,-25.36 1264.08,-32.21"/>
</a>
</g>
</g>
<!-- Node11 -->
<g id="Node000011" class="node">
<title>Node11</title>
<g id="a_Node000011"><a xlink:title=" ">
<polygon fill="#e0e0e0" stroke="#999999" points="1573.62,-32 1417.38,-32 1417.38,0 1573.62,0 1573.62,-32"/>
<text text-anchor="start" x="1425.38" y="-18.5" font-family="Helvetica,sans-Serif" font-size="10.00">org.springframework.stereotype.</text>
<text text-anchor="middle" x="1495.5" y="-6.5" font-family="Helvetica,sans-Serif" font-size="10.00">Component</text>
</a>
</g>
</g>
<!-- Node1&#45;&gt;Node11 -->
<g id="edge10_Node000001_Node000011" class="edge">
<title>Node1&#45;&gt;Node11</title>
<g id="a_edge10_Node000001_Node000011"><a xlink:title=" ">
<path fill="none" stroke="#63b8ff" d="M1058.25,-79.19C1142.76,-68.83 1278.81,-51.53 1406.16,-32.32"/>
<polygon fill="#63b8ff" stroke="#63b8ff" points="1406.41,-35.82 1415.77,-30.87 1405.36,-28.9 1406.41,-35.82"/>
</a>
</g>
</g>
<!-- Node12 -->
<g id="Node000012" class="node">
<title>Node12</title>
<g id="a_Node000012"><a xlink:title=" ">
<polygon fill="#e0e0e0" stroke="#999999" points="1707.38,-26 1591.62,-26 1591.62,-6 1707.38,-6 1707.38,-26"/>
<text text-anchor="middle" x="1649.5" y="-12.5" font-family="Helvetica,sans-Serif" font-size="10.00">fr.softsf.sudokufx.dto.*</text>
</a>
</g>
</g>
<!-- Node1&#45;&gt;Node12 -->
<g id="edge11_Node000001_Node000012" class="edge">
<title>Node1&#45;&gt;Node12</title>
<g id="a_edge11_Node000001_Node000012"><a xlink:title=" ">
<path fill="none" stroke="#63b8ff" d="M1058.27,-84.6C1175.07,-77.57 1396.19,-61.5 1582.5,-32 1588.17,-31.1 1594.07,-30.01 1599.93,-28.83"/>
<polygon fill="#63b8ff" stroke="#63b8ff" points="1600.5,-32.29 1609.56,-26.8 1599.05,-25.44 1600.5,-32.29"/>
</a>
</g>
</g>
<!-- Node13 -->
<g id="Node000013" class="node">
<title>Node13</title>
<g id="a_Node000013"><a xlink:title=" ">
<polygon fill="#e0e0e0" stroke="#999999" points="1871.75,-26 1725.25,-26 1725.25,-6 1871.75,-6 1871.75,-26"/>
<text text-anchor="middle" x="1798.5" y="-12.5" font-family="Helvetica,sans-Serif" font-size="10.00">fr.softsf.sudokufx.enums.I18n</text>
</a>
</g>
</g>
<!-- Node1&#45;&gt;Node13 -->
<g id="edge12_Node000001_Node000013" class="edge">
<title>Node1&#45;&gt;Node13</title>
<g id="a_edge12_Node000001_Node000013"><a xlink:title=" ">
<path fill="none" stroke="#63b8ff" d="M1058.36,-85.48C1195.12,-78.98 1478.5,-62.85 1716.5,-32 1724.21,-31 1732.29,-29.76 1740.25,-28.43"/>
<polygon fill="#63b8ff" stroke="#63b8ff" points="1740.63,-31.91 1749.88,-26.75 1739.42,-25.02 1740.63,-31.91"/>
</a>
</g>
</g>
<!-- Node14 -->
<g id="Node000014" class="node">
<title>Node14</title>
<g id="a_Node000014"><a xlink:title=" ">
<polygon fill="#e0e0e0" stroke="#999999" points="2063.62,-32 1889.38,-32 1889.38,0 2063.62,0 2063.62,-32"/>
<text text-anchor="start" x="1897.38" y="-18.5" font-family="Helvetica,sans-Serif" font-size="10.00">fr.softsf.sudokufx.viewmodel.cache.</text>
<text text-anchor="middle" x="1976.5" y="-6.5" font-family="Helvetica,sans-Serif" font-size="10.00">CachedPlayer</text>
</a>
</g>
</g>
<!-- Node1&#45;&gt;Node14 -->
<g id="edge13_Node000001_Node000014" class="edge">
<title>Node1&#45;&gt;Node14</title>
<g id="a_edge13_Node000001_Node000014"><a xlink:title=" ">
<path fill="none" stroke="#63b8ff" d="M1058.37,-86.36C1215.32,-80.75 1569.62,-65.43 1877.52,-32.26"/>
<polygon fill="#63b8ff" stroke="#63b8ff" points="1877.84,-35.75 1887.41,-31.19 1877.09,-28.79 1877.84,-35.75"/>
</a>
</g>
</g>
</g>
</svg>
