<?xml version="1.0" encoding="UTF-8" standalone="no"?>
<!DOCTYPE svg PUBLIC "-//W3C//DTD SVG 1.1//EN"
 "http://www.w3.org/Graphics/SVG/1.1/DTD/svg11.dtd">
<!-- Generated by graphviz version 12.2.1 (20241206.2353)
 -->
<!-- Title: src/main/java/fr/softsf/sudokufx/viewmodel/MenuOptionsViewModel.java Pages: 1 -->
<!--zoomable 120 -->

<svg id="main" version="1.1" xmlns="http://www.w3.org/2000/svg" xmlns:xlink="http://www.w3.org/1999/xlink" xml:space="preserve" onload="init(evt)">

<style type="text/css"><![CDATA[
.node, .edge {opacity: 0.7;}
.node.selected, .edge.selected {opacity: 1;}
.edge:hover path { stroke: red; }
.edge:hover polygon { stroke: red; fill: red; }
]]></style>

<defs>
  <circle id="rim" cx="0" cy="0" r="7"/>
  <circle id="rim2" cx="0" cy="0" r="3.5"/>
  <g id="zoomPlus">
    <use xlink:href="#rim" fill="#404040"><set attributeName="fill" to="#808080" begin="zoomplus.mouseover" end="zoomplus.mouseout"/></use>
    <path d="M-4,0h8M0,-4v8" fill="none" stroke="white" stroke-width="1.5" pointer-events="none"/>
  </g>
  <g id="zoomMin">
    <use xlink:href="#rim" fill="#404040"><set attributeName="fill" to="#808080" begin="zoomminus.mouseover" end="zoomminus.mouseout"/></use>
    <path d="M-4,0h8" fill="none" stroke="white" stroke-width="1.5" pointer-events="none"/>
  </g>
  <g id="arrowUp" transform="translate(30 24)">
    <use xlink:href="#rim"/>
    <path pointer-events="none" fill="none" stroke="white" stroke-width="1.5" d="M0,-3.0v7 M-2.5,-0.5L0,-3.0L2.5,-0.5"/>
  </g>
  <g id="arrowRight" transform="rotate(90) translate(36 -43)">
    <use xlink:href="#rim"/>
    <path pointer-events="none" fill="none" stroke="white" stroke-width="1.5" d="M0,-3.0v7 M-2.5,-0.5L0,-3.0L2.5,-0.5"/>
  </g>
  <g id="arrowDown" transform="rotate(180) translate(-30 -48)">
    <use xlink:href="#rim"/>
    <path pointer-events="none" fill="none" stroke="white" stroke-width="1.5" d="M0,-3.0v7 M-2.5,-0.5L0,-3.0L2.5,-0.5"/>
  </g>
  <g id="arrowLeft" transform="rotate(270) translate(-36 17)">
    <use xlink:href="#rim"/>
    <path pointer-events="none" fill="none" stroke="white" stroke-width="1.5" d="M0,-3.0v7 M-2.5,-0.5L0,-3.0L2.5,-0.5"/>
  </g>
  <g id="resetDef">
    <use xlink:href="#rim2" fill="#404040"><set attributeName="fill" to="#808080" begin="reset.mouseover" end="reset.mouseout"/></use>
  </g>
</defs>
<script type="application/ecmascript">
var viewWidth = 4628;
var viewHeight = 120;
var sectionId = 'dynsection-0';
</script>
<script type="application/ecmascript" xlink:href="svg.min.js"/>
<svg id="graph" class="graph">
<g id="viewport">
<title>src/main/java/fr/softsf/sudokufx/viewmodel/MenuOptionsViewModel.java</title>
<!-- Node1 -->
<g id="Node000001" class="node">
<title>Node1</title>
<g id="a_Node000001"><a xlink:title=" ">
<polygon fill="#999999" stroke="#666666" points="2300.12,-112 2131.12,-112 2131.12,-68 2300.12,-68 2300.12,-112"/>
<text text-anchor="start" x="2139.12" y="-98.5" font-family="Helvetica,sans-Serif" font-size="10.00">src/main/java/fr/softsf</text>
<text text-anchor="start" x="2139.12" y="-86.5" font-family="Helvetica,sans-Serif" font-size="10.00">/sudokufx/viewmodel/MenuOptions</text>
<text text-anchor="middle" x="2215.62" y="-74.5" font-family="Helvetica,sans-Serif" font-size="10.00">ViewModel.java</text>
</a>
</g>
</g>
<!-- Node2 -->
<g id="Node000002" class="node">
<title>Node2</title>
<g id="a_Node000002"><a xlink:title=" ">
<polygon fill="#e0e0e0" stroke="#999999" points="63.25,-26 0,-26 0,-6 63.25,-6 63.25,-26"/>
<text text-anchor="middle" x="31.62" y="-12.5" font-family="Helvetica,sans-Serif" font-size="10.00">java.io.File</text>
</a>
</g>
</g>
<!-- Node1&#45;&gt;Node2 -->
<g id="edge1_Node000001_Node000002" class="edge">
<title>Node1&#45;&gt;Node2</title>
<g id="a_edge1_Node000001_Node000002"><a xlink:title=" ">
<path fill="none" stroke="#63b8ff" d="M2130.92,-88.41C1758.48,-85.57 275.88,-71.85 71.62,-32 68.98,-31.48 66.29,-30.81 63.61,-30.04"/>
<polygon fill="#63b8ff" stroke="#63b8ff" points="64.86,-26.77 54.27,-26.92 62.64,-33.41 64.86,-26.77"/>
</a>
</g>
</g>
<!-- Node3 -->
<g id="Node000003" class="node">
<title>Node3</title>
<g id="a_Node000003"><a xlink:title=" ">
<polygon fill="#e0e0e0" stroke="#999999" points="208.12,-26 81.12,-26 81.12,-6 208.12,-6 208.12,-26"/>
<text text-anchor="middle" x="144.62" y="-12.5" font-family="Helvetica,sans-Serif" font-size="10.00">java.text.MessageFormat</text>
</a>
</g>
</g>
<!-- Node1&#45;&gt;Node3 -->
<g id="edge2_Node000001_Node000003" class="edge">
<title>Node1&#45;&gt;Node3</title>
<g id="a_edge2_Node000001_Node000003"><a xlink:title=" ">
<path fill="none" stroke="#63b8ff" d="M2130.65,-88.58C1799.62,-86.63 595.92,-76.56 216.62,-32 209.55,-31.17 202.14,-29.99 194.88,-28.65"/>
<polygon fill="#63b8ff" stroke="#63b8ff" points="195.63,-25.23 185.14,-26.73 194.28,-32.1 195.63,-25.23"/>
</a>
</g>
</g>
<!-- Node4 -->
<g id="Node000004" class="node">
<title>Node4</title>
<g id="a_Node000004"><a xlink:title=" ">
<polygon fill="#e0e0e0" stroke="#999999" points="351.38,-26 225.88,-26 225.88,-6 351.38,-6 351.38,-26"/>
<text text-anchor="middle" x="288.62" y="-12.5" font-family="Helvetica,sans-Serif" font-size="10.00">java.util.function.Supplier</text>
</a>
</g>
</g>
<!-- Node1&#45;&gt;Node4 -->
<g id="edge3_Node000001_Node000004" class="edge">
<title>Node1&#45;&gt;Node4</title>
<g id="a_edge3_Node000001_Node000004"><a xlink:title=" ">
<path fill="none" stroke="#63b8ff" d="M2130.65,-88.36C1815.01,-85.68 710.28,-73.47 360.62,-32 353.55,-31.16 346.14,-29.98 338.88,-28.63"/>
<polygon fill="#63b8ff" stroke="#63b8ff" points="339.63,-25.21 329.14,-26.72 338.28,-32.08 339.63,-25.21"/>
</a>
</g>
</g>
<!-- Node5 -->
<g id="Node000005" class="node">
<title>Node5</title>
<g id="a_Node000005"><a xlink:title=" ">
<polygon fill="#e0e0e0" stroke="#999999" points="493.62,-26 369.62,-26 369.62,-6 493.62,-6 493.62,-26"/>
<text text-anchor="middle" x="431.62" y="-12.5" font-family="Helvetica,sans-Serif" font-size="10.00">javafx.beans.Observable</text>
</a>
</g>
</g>
<!-- Node1&#45;&gt;Node5 -->
<g id="edge4_Node000001_Node000005" class="edge">
<title>Node1&#45;&gt;Node5</title>
<g id="a_edge4_Node000001_Node000005"><a xlink:title=" ">
<path fill="none" stroke="#63b8ff" d="M2130.78,-88.14C1831.1,-84.8 823.13,-70.88 502.62,-32 495.81,-31.17 488.69,-30.02 481.68,-28.72"/>
<polygon fill="#63b8ff" stroke="#63b8ff" points="482.46,-25.3 471.97,-26.78 481.09,-32.17 482.46,-25.3"/>
</a>
</g>
</g>
<!-- Node6 -->
<g id="Node000006" class="node">
<title>Node6</title>
<g id="a_Node000006"><a xlink:title=" ">
<polygon fill="#e0e0e0" stroke="#999999" points="657.5,-26 511.75,-26 511.75,-6 657.5,-6 657.5,-26"/>
<text text-anchor="middle" x="584.62" y="-12.5" font-family="Helvetica,sans-Serif" font-size="10.00">javafx.beans.binding.Bindings</text>
</a>
</g>
</g>
<!-- Node1&#45;&gt;Node6 -->
<g id="edge5_Node000001_Node000006" class="edge">
<title>Node1&#45;&gt;Node6</title>
<g id="a_edge5_Node000001_Node000006"><a xlink:title=" ">
<path fill="none" stroke="#63b8ff" d="M2130.8,-87.49C1850.26,-82.25 954.03,-63.41 666.62,-32 658.22,-31.08 649.39,-29.8 640.75,-28.37"/>
<polygon fill="#63b8ff" stroke="#63b8ff" points="641.51,-24.95 631.06,-26.69 640.31,-31.85 641.51,-24.95"/>
</a>
</g>
</g>
<!-- Node7 -->
<g id="Node000007" class="node">
<title>Node7</title>
<g id="a_Node000007"><a xlink:title=" ">
<polygon fill="#e0e0e0" stroke="#999999" points="809.5,-32 675.75,-32 675.75,0 809.5,0 809.5,-32"/>
<text text-anchor="start" x="683.75" y="-18.5" font-family="Helvetica,sans-Serif" font-size="10.00">javafx.beans.binding.String</text>
<text text-anchor="middle" x="742.62" y="-6.5" font-family="Helvetica,sans-Serif" font-size="10.00">Binding</text>
</a>
</g>
</g>
<!-- Node1&#45;&gt;Node7 -->
<g id="edge6_Node000001_Node000007" class="edge">
<title>Node1&#45;&gt;Node7</title>
<g id="a_edge6_Node000001_Node000007"><a xlink:title=" ">
<path fill="none" stroke="#63b8ff" d="M2130.97,-87.26C1872.75,-81.68 1096.51,-62.86 820.85,-32.1"/>
<polygon fill="#63b8ff" stroke="#63b8ff" points="821.51,-28.65 811.18,-30.99 820.71,-35.61 821.51,-28.65"/>
</a>
</g>
</g>
<!-- Node8 -->
<g id="Node000008" class="node">
<title>Node8</title>
<g id="a_Node000008"><a xlink:title=" ">
<polygon fill="#e0e0e0" stroke="#999999" points="975.25,-32 828,-32 828,0 975.25,0 975.25,-32"/>
<text text-anchor="start" x="836" y="-18.5" font-family="Helvetica,sans-Serif" font-size="10.00">javafx.beans.property.Boolean</text>
<text text-anchor="middle" x="901.62" y="-6.5" font-family="Helvetica,sans-Serif" font-size="10.00">Property</text>
</a>
</g>
</g>
<!-- Node1&#45;&gt;Node8 -->
<g id="edge7_Node000001_Node000008" class="edge">
<title>Node1&#45;&gt;Node8</title>
<g id="a_edge7_Node000001_Node000008"><a xlink:title=" ">
<path fill="none" stroke="#63b8ff" d="M2130.99,-88.94C1932.66,-87.95 1422.35,-80.6 986.57,-32.1"/>
<polygon fill="#63b8ff" stroke="#63b8ff" points="987.15,-28.65 976.82,-31.01 986.37,-35.6 987.15,-28.65"/>
</a>
</g>
</g>
<!-- Node9 -->
<g id="Node000009" class="node">
<title>Node9</title>
<g id="a_Node000009"><a xlink:title=" ">
<polygon fill="#e0e0e0" stroke="#999999" points="1135.62,-32 993.62,-32 993.62,0 1135.62,0 1135.62,-32"/>
<text text-anchor="start" x="1001.62" y="-18.5" font-family="Helvetica,sans-Serif" font-size="10.00">javafx.beans.property.Simple</text>
<text text-anchor="middle" x="1064.62" y="-6.5" font-family="Helvetica,sans-Serif" font-size="10.00">BooleanProperty</text>
</a>
</g>
</g>
<!-- Node1&#45;&gt;Node9 -->
<g id="edge8_Node000001_Node000009" class="edge">
<title>Node1&#45;&gt;Node9</title>
<g id="a_edge8_Node000001_Node000009"><a xlink:title=" ">
<path fill="none" stroke="#63b8ff" d="M2130.95,-88.29C1951.32,-85.96 1518.76,-75.98 1147.33,-32.22"/>
<polygon fill="#63b8ff" stroke="#63b8ff" points="1147.93,-28.77 1137.59,-31.06 1147.1,-35.72 1147.93,-28.77"/>
</a>
</g>
</g>
<!-- Node10 -->
<g id="Node000010" class="node">
<title>Node10</title>
<g id="a_Node000010"><a xlink:title=" ">
<polygon fill="#e0e0e0" stroke="#999999" points="1295.62,-32 1153.62,-32 1153.62,0 1295.62,0 1295.62,-32"/>
<text text-anchor="start" x="1161.62" y="-18.5" font-family="Helvetica,sans-Serif" font-size="10.00">javafx.beans.property.Simple</text>
<text text-anchor="middle" x="1224.62" y="-6.5" font-family="Helvetica,sans-Serif" font-size="10.00">StringProperty</text>
</a>
</g>
</g>
<!-- Node1&#45;&gt;Node10 -->
<g id="edge9_Node000001_Node000010" class="edge">
<title>Node1&#45;&gt;Node10</title>
<g id="a_edge9_Node000001_Node000010"><a xlink:title=" ">
<path fill="none" stroke="#63b8ff" d="M2130.84,-87.17C1971.41,-82.97 1615.96,-70 1307.5,-32.26"/>
<polygon fill="#63b8ff" stroke="#63b8ff" points="1307.94,-28.79 1297.59,-31.03 1307.08,-35.73 1307.94,-28.79"/>
</a>
</g>
</g>
<!-- Node11 -->
<g id="Node000011" class="node">
<title>Node11</title>
<g id="a_Node000011"><a xlink:title=" ">
<polygon fill="#e0e0e0" stroke="#999999" points="1443.62,-32 1313.62,-32 1313.62,0 1443.62,0 1443.62,-32"/>
<text text-anchor="start" x="1321.62" y="-18.5" font-family="Helvetica,sans-Serif" font-size="10.00">javafx.scene.control.Color</text>
<text text-anchor="middle" x="1378.62" y="-6.5" font-family="Helvetica,sans-Serif" font-size="10.00">Picker</text>
</a>
</g>
</g>
<!-- Node1&#45;&gt;Node11 -->
<g id="edge10_Node000001_Node000011" class="edge">
<title>Node1&#45;&gt;Node11</title>
<g id="a_edge10_Node000001_Node000011"><a xlink:title=" ">
<path fill="none" stroke="#63b8ff" d="M2130.86,-86.14C1991.71,-80.68 1706.06,-66.26 1455.09,-32.23"/>
<polygon fill="#63b8ff" stroke="#63b8ff" points="1455.8,-28.79 1445.42,-30.9 1454.85,-35.73 1455.8,-28.79"/>
</a>
</g>
</g>
<!-- Node12 -->
<g id="Node000012" class="node">
<title>Node12</title>
<g id="a_Node000012"><a xlink:title=" ">
<polygon fill="#e0e0e0" stroke="#999999" points="1592,-26 1461.25,-26 1461.25,-6 1592,-6 1592,-26"/>
<text text-anchor="middle" x="1526.62" y="-12.5" font-family="Helvetica,sans-Serif" font-size="10.00">javafx.scene.image.Image</text>
</a>
</g>
</g>
<!-- Node1&#45;&gt;Node12 -->
<g id="edge11_Node000001_Node000012" class="edge">
<title>Node1&#45;&gt;Node12</title>
<g id="a_edge11_Node000001_Node000012"><a xlink:title=" ">
<path fill="none" stroke="#63b8ff" d="M2130.72,-84.03C2011.77,-76.41 1788.92,-59.73 1600.62,-32 1594.06,-31.03 1587.2,-29.86 1580.42,-28.61"/>
<polygon fill="#63b8ff" stroke="#63b8ff" points="1581.11,-25.18 1570.63,-26.72 1579.78,-32.05 1581.11,-25.18"/>
</a>
</g>
</g>
<!-- Node13 -->
<g id="Node000013" class="node">
<title>Node13</title>
<g id="a_Node000013"><a xlink:title=" ">
<polygon fill="#e0e0e0" stroke="#999999" points="1765.38,-26 1609.88,-26 1609.88,-6 1765.38,-6 1765.38,-26"/>
<text text-anchor="middle" x="1687.62" y="-12.5" font-family="Helvetica,sans-Serif" font-size="10.00">javafx.scene.layout.Background</text>
</a>
</g>
</g>
<!-- Node1&#45;&gt;Node13 -->
<g id="edge12_Node000001_Node000013" class="edge">
<title>Node1&#45;&gt;Node13</title>
<g id="a_edge12_Node000001_Node000013"><a xlink:title=" ">
<path fill="none" stroke="#63b8ff" d="M2130.93,-79.13C2042.04,-68.52 1898.29,-50.64 1774.62,-32 1767.19,-30.88 1759.41,-29.64 1751.69,-28.36"/>
<polygon fill="#63b8ff" stroke="#63b8ff" points="1752.41,-24.93 1741.97,-26.73 1751.25,-31.84 1752.41,-24.93"/>
</a>
</g>
</g>
<!-- Node14 -->
<g id="Node000014" class="node">
<title>Node14</title>
<g id="a_Node000014"><a xlink:title=" ">
<polygon fill="#e0e0e0" stroke="#999999" points="1951.75,-26 1783.5,-26 1783.5,-6 1951.75,-6 1951.75,-26"/>
<text text-anchor="middle" x="1867.62" y="-12.5" font-family="Helvetica,sans-Serif" font-size="10.00">javafx.scene.layout.BackgroundFill</text>
</a>
</g>
</g>
<!-- Node1&#45;&gt;Node14 -->
<g id="edge13_Node000001_Node000014" class="edge">
<title>Node1&#45;&gt;Node14</title>
<g id="a_edge13_Node000001_Node000014"><a xlink:title=" ">
<path fill="none" stroke="#63b8ff" d="M2130.94,-71.48C2066.76,-58.2 1980.33,-40.32 1924.29,-28.72"/>
<polygon fill="#63b8ff" stroke="#63b8ff" points="1925.15,-25.33 1914.64,-26.73 1923.73,-32.18 1925.15,-25.33"/>
</a>
</g>
</g>
<!-- Node15 -->
<g id="Node000015" class="node">
<title>Node15</title>
<g id="a_Node000015"><a xlink:title=" ">
<polygon fill="#e0e0e0" stroke="#999999" points="2125.38,-32 1969.88,-32 1969.88,0 2125.38,0 2125.38,-32"/>
<text text-anchor="start" x="1977.88" y="-18.5" font-family="Helvetica,sans-Serif" font-size="10.00">javafx.scene.layout.Background</text>
<text text-anchor="middle" x="2047.62" y="-6.5" font-family="Helvetica,sans-Serif" font-size="10.00">Image</text>
</a>
</g>
</g>
<!-- Node1&#45;&gt;Node15 -->
<g id="edge14_Node000001_Node000015" class="edge">
<title>Node1&#45;&gt;Node15</title>
<g id="a_edge14_Node000001_Node000015"><a xlink:title=" ">
<path fill="none" stroke="#63b8ff" d="M2165.67,-67.59C2143.07,-57.9 2116.5,-46.52 2094.29,-37"/>
<polygon fill="#63b8ff" stroke="#63b8ff" points="2095.74,-33.81 2085.17,-33.09 2092.99,-40.25 2095.74,-33.81"/>
</a>
</g>
</g>
<!-- Node16 -->
<g id="Node000016" class="node">
<title>Node16</title>
<g id="a_Node000016"><a xlink:title=" ">
<polygon fill="#e0e0e0" stroke="#999999" points="2287.75,-26 2143.5,-26 2143.5,-6 2287.75,-6 2287.75,-26"/>
<text text-anchor="middle" x="2215.62" y="-12.5" font-family="Helvetica,sans-Serif" font-size="10.00">javafx.scene.layout.GridPane</text>
</a>
</g>
</g>
<!-- Node1&#45;&gt;Node16 -->
<g id="edge15_Node000001_Node000016" class="edge">
<title>Node1&#45;&gt;Node16</title>
<g id="a_edge15_Node000001_Node000016"><a xlink:title=" ">
<path fill="none" stroke="#63b8ff" d="M2215.62,-67.79C2215.62,-58.32 2215.62,-47.2 2215.62,-37.78"/>
<polygon fill="#63b8ff" stroke="#63b8ff" points="2219.13,-37.82 2215.63,-27.82 2212.13,-37.82 2219.13,-37.82"/>
</a>
</g>
</g>
<!-- Node17 -->
<g id="Node000017" class="node">
<title>Node17</title>
<g id="a_Node000017"><a xlink:title=" ">
<polygon fill="#e0e0e0" stroke="#999999" points="2427.5,-26 2305.75,-26 2305.75,-6 2427.5,-6 2427.5,-26"/>
<text text-anchor="middle" x="2366.62" y="-12.5" font-family="Helvetica,sans-Serif" font-size="10.00">javafx.scene.paint.Color</text>
</a>
</g>
</g>
<!-- Node1&#45;&gt;Node17 -->
<g id="edge16_Node000001_Node000017" class="edge">
<title>Node1&#45;&gt;Node17</title>
<g id="a_edge16_Node000001_Node000017"><a xlink:title=" ">
<path fill="none" stroke="#63b8ff" d="M2260.52,-67.59C2285.06,-55.89 2314.8,-41.71 2336.54,-31.35"/>
<polygon fill="#63b8ff" stroke="#63b8ff" points="2337.92,-34.56 2345.44,-27.1 2334.91,-28.24 2337.92,-34.56"/>
</a>
</g>
</g>
<!-- Node18 -->
<g id="Node000018" class="node">
<title>Node18</title>
<g id="a_Node000018"><a xlink:title=" ">
<polygon fill="#e0e0e0" stroke="#999999" points="2584.12,-32 2445.12,-32 2445.12,0 2584.12,0 2584.12,-32"/>
<text text-anchor="start" x="2453.12" y="-18.5" font-family="Helvetica,sans-Serif" font-size="10.00">org.apache.commons.lang3.</text>
<text text-anchor="middle" x="2514.62" y="-6.5" font-family="Helvetica,sans-Serif" font-size="10.00">StringUtils</text>
</a>
</g>
</g>
<!-- Node1&#45;&gt;Node18 -->
<g id="edge17_Node000001_Node000018" class="edge">
<title>Node1&#45;&gt;Node18</title>
<g id="a_edge17_Node000001_Node000018"><a xlink:title=" ">
<path fill="none" stroke="#63b8ff" d="M2300.51,-68.56C2344.25,-58.03 2397.13,-45.29 2439.4,-35.12"/>
<polygon fill="#63b8ff" stroke="#63b8ff" points="2440.08,-38.55 2448.99,-32.81 2438.45,-31.74 2440.08,-38.55"/>
</a>
</g>
</g>
<!-- Node19 -->
<g id="Node000019" class="node">
<title>Node19</title>
<g id="a_Node000019"><a xlink:title=" ">
<polygon fill="#e0e0e0" stroke="#999999" points="2685,-26 2602.25,-26 2602.25,-6 2685,-6 2685,-26"/>
<text text-anchor="middle" x="2643.62" y="-12.5" font-family="Helvetica,sans-Serif" font-size="10.00">org.slf4j.Logger</text>
</a>
</g>
</g>
<!-- Node1&#45;&gt;Node19 -->
<g id="edge18_Node000001_Node000019" class="edge">
<title>Node1&#45;&gt;Node19</title>
<g id="a_edge18_Node000001_Node000019"><a xlink:title=" ">
<path fill="none" stroke="#63b8ff" d="M2300.33,-79.71C2377.36,-70.45 2493.9,-54.36 2593.62,-32 2596.97,-31.25 2600.41,-30.4 2603.85,-29.48"/>
<polygon fill="#63b8ff" stroke="#63b8ff" points="2604.59,-32.91 2613.27,-26.84 2602.69,-26.17 2604.59,-32.91"/>
</a>
</g>
</g>
<!-- Node20 -->
<g id="Node000020" class="node">
<title>Node20</title>
<g id="a_Node000020"><a xlink:title=" ">
<polygon fill="#e0e0e0" stroke="#999999" points="2818.5,-26 2702.75,-26 2702.75,-6 2818.5,-6 2818.5,-26"/>
<text text-anchor="middle" x="2760.62" y="-12.5" font-family="Helvetica,sans-Serif" font-size="10.00">org.slf4j.LoggerFactory</text>
</a>
</g>
</g>
<!-- Node1&#45;&gt;Node20 -->
<g id="edge19_Node000001_Node000020" class="edge">
<title>Node1&#45;&gt;Node20</title>
<g id="a_edge19_Node000001_Node000020"><a xlink:title=" ">
<path fill="none" stroke="#63b8ff" d="M2300.62,-81.49C2396.49,-72.42 2556.88,-55.4 2693.62,-32 2699.14,-31.06 2704.88,-29.96 2710.58,-28.79"/>
<polygon fill="#63b8ff" stroke="#63b8ff" points="2710.9,-32.3 2719.95,-26.79 2709.44,-25.45 2710.9,-32.3"/>
</a>
</g>
</g>
<!-- Node21 -->
<g id="Node000021" class="node">
<title>Node21</title>
<g id="a_Node000021"><a xlink:title=" ">
<polygon fill="#e0e0e0" stroke="#999999" points="2992.75,-32 2836.5,-32 2836.5,0 2992.75,0 2992.75,-32"/>
<text text-anchor="start" x="2844.5" y="-18.5" font-family="Helvetica,sans-Serif" font-size="10.00">org.springframework.stereotype.</text>
<text text-anchor="middle" x="2914.62" y="-6.5" font-family="Helvetica,sans-Serif" font-size="10.00">Component</text>
</a>
</g>
</g>
<!-- Node1&#45;&gt;Node21 -->
<g id="edge20_Node000001_Node000021" class="edge">
<title>Node1&#45;&gt;Node21</title>
<g id="a_edge20_Node000001_Node000021"><a xlink:title=" ">
<path fill="none" stroke="#63b8ff" d="M2300.5,-83.19C2416.62,-74.78 2631.73,-57.53 2825.17,-32.26"/>
<polygon fill="#63b8ff" stroke="#63b8ff" points="2825.46,-35.75 2834.91,-30.98 2824.54,-28.81 2825.46,-35.75"/>
</a>
</g>
</g>
<!-- Node22 -->
<g id="Node000022" class="node">
<title>Node22</title>
<g id="a_Node000022"><a xlink:title=" ">
<polygon fill="#e0e0e0" stroke="#999999" points="3198.12,-26 3011.12,-26 3011.12,-6 3198.12,-6 3198.12,-26"/>
<text text-anchor="middle" x="3104.62" y="-12.5" font-family="Helvetica,sans-Serif" font-size="10.00">fr.softsf.sudokufx.common.enums.I18n</text>
</a>
</g>
</g>
<!-- Node1&#45;&gt;Node22 -->
<g id="edge21_Node000001_Node000022" class="edge">
<title>Node1&#45;&gt;Node22</title>
<g id="a_edge21_Node000001_Node000022"><a xlink:title=" ">
<path fill="none" stroke="#63b8ff" d="M2300.42,-84.86C2444.72,-77.37 2747.11,-59.72 3001.62,-32 3011.85,-30.89 3022.62,-29.53 3033.18,-28.08"/>
<polygon fill="#63b8ff" stroke="#63b8ff" points="3033.62,-31.56 3043.04,-26.71 3032.65,-24.63 3033.62,-31.56"/>
</a>
</g>
</g>
<!-- Node23 -->
<g id="Node000023" class="node">
<title>Node23</title>
<g id="a_Node000023"><a xlink:title=" ">
<polygon fill="#e0e0e0" stroke="#999999" points="3384.75,-32 3216.5,-32 3216.5,0 3384.75,0 3384.75,-32"/>
<text text-anchor="start" x="3224.5" y="-18.5" font-family="Helvetica,sans-Serif" font-size="10.00">fr.softsf.sudokufx.common.enums.</text>
<text text-anchor="middle" x="3300.62" y="-6.5" font-family="Helvetica,sans-Serif" font-size="10.00">ToastLevels</text>
</a>
</g>
</g>
<!-- Node1&#45;&gt;Node23 -->
<g id="edge22_Node000001_Node000023" class="edge">
<title>Node1&#45;&gt;Node23</title>
<g id="a_edge22_Node000001_Node000023"><a xlink:title=" ">
<path fill="none" stroke="#63b8ff" d="M2300.46,-87.06C2470.29,-82.52 2864.23,-68.81 3204.7,-32.25"/>
<polygon fill="#63b8ff" stroke="#63b8ff" points="3204.96,-35.74 3214.52,-31.18 3204.2,-28.78 3204.96,-35.74"/>
</a>
</g>
</g>
<!-- Node24 -->
<g id="Node000024" class="node">
<title>Node24</title>
<g id="a_Node000024"><a xlink:title=" ">
<polygon fill="#e0e0e0" stroke="#999999" points="3554.5,-32 3402.75,-32 3402.75,0 3554.5,0 3554.5,-32"/>
<text text-anchor="start" x="3410.75" y="-18.5" font-family="Helvetica,sans-Serif" font-size="10.00">fr.softsf.sudokufx.common.util.</text>
<text text-anchor="middle" x="3478.62" y="-6.5" font-family="Helvetica,sans-Serif" font-size="10.00">AudioUtils</text>
</a>
</g>
</g>
<!-- Node1&#45;&gt;Node24 -->
<g id="edge23_Node000001_Node000024" class="edge">
<title>Node1&#45;&gt;Node24</title>
<g id="a_edge23_Node000001_Node000024"><a xlink:title=" ">
<path fill="none" stroke="#63b8ff" d="M2300.56,-88.56C2492.99,-86.78 2977.05,-77.82 3391.38,-32.15"/>
<polygon fill="#63b8ff" stroke="#63b8ff" points="3391.64,-35.64 3401.19,-31.06 3390.86,-28.68 3391.64,-35.64"/>
</a>
</g>
</g>
<!-- Node25 -->
<g id="Node000025" class="node">
<title>Node25</title>
<g id="a_Node000025"><a xlink:title=" ">
<polygon fill="#e0e0e0" stroke="#999999" points="3724.5,-32 3572.75,-32 3572.75,0 3724.5,0 3724.5,-32"/>
<text text-anchor="start" x="3580.75" y="-18.5" font-family="Helvetica,sans-Serif" font-size="10.00">fr.softsf.sudokufx.common.util.</text>
<text text-anchor="middle" x="3648.62" y="-6.5" font-family="Helvetica,sans-Serif" font-size="10.00">ImageMeta</text>
</a>
</g>
</g>
<!-- Node1&#45;&gt;Node25 -->
<g id="edge24_Node000001_Node000025" class="edge">
<title>Node1&#45;&gt;Node25</title>
<g id="a_edge24_Node000001_Node000025"><a xlink:title=" ">
<path fill="none" stroke="#63b8ff" d="M2300.3,-89.3C2511.58,-89.22 3079.05,-83.88 3561.32,-32.14"/>
<polygon fill="#63b8ff" stroke="#63b8ff" points="3561.63,-35.63 3571.19,-31.08 3560.87,-28.67 3561.63,-35.63"/>
</a>
</g>
</g>
<!-- Node26 -->
<g id="Node000026" class="node">
<title>Node26</title>
<g id="a_Node000026"><a xlink:title=" ">
<polygon fill="#e0e0e0" stroke="#999999" points="3894.5,-32 3742.75,-32 3742.75,0 3894.5,0 3894.5,-32"/>
<text text-anchor="start" x="3750.75" y="-18.5" font-family="Helvetica,sans-Serif" font-size="10.00">fr.softsf.sudokufx.common.util.</text>
<text text-anchor="middle" x="3818.62" y="-6.5" font-family="Helvetica,sans-Serif" font-size="10.00">ImageUtils</text>
</a>
</g>
</g>
<!-- Node1&#45;&gt;Node26 -->
<g id="edge25_Node000001_Node000026" class="edge">
<title>Node1&#45;&gt;Node26</title>
<g id="a_edge25_Node000001_Node000026"><a xlink:title=" ">
<path fill="none" stroke="#63b8ff" d="M2300.19,-87.35C2573.2,-81.8 3430.23,-62.45 3731.36,-32.11"/>
<polygon fill="#63b8ff" stroke="#63b8ff" points="3731.61,-35.6 3741.19,-31.09 3730.89,-28.64 3731.61,-35.6"/>
</a>
</g>
</g>
<!-- Node27 -->
<g id="Node000027" class="node">
<title>Node27</title>
<g id="a_Node000027"><a xlink:title=" ">
<polygon fill="#e0e0e0" stroke="#999999" points="4052.88,-32 3912.38,-32 3912.38,0 4052.88,0 4052.88,-32"/>
<text text-anchor="start" x="3920.38" y="-18.5" font-family="Helvetica,sans-Serif" font-size="10.00">fr.softsf.sudokufx.service.ui.</text>
<text text-anchor="middle" x="3982.62" y="-6.5" font-family="Helvetica,sans-Serif" font-size="10.00">AsyncFileProcessorService</text>
</a>
</g>
</g>
<!-- Node1&#45;&gt;Node27 -->
<g id="edge26_Node000001_Node000027" class="edge">
<title>Node1&#45;&gt;Node27</title>
<g id="a_edge26_Node000001_Node000027"><a xlink:title=" ">
<path fill="none" stroke="#63b8ff" d="M2300.48,-87.86C2593.94,-83.66 3565.72,-67.47 3900.9,-32.16"/>
<polygon fill="#63b8ff" stroke="#63b8ff" points="3901,-35.67 3910.57,-31.12 3900.25,-28.71 3901,-35.67"/>
</a>
</g>
</g>
<!-- Node28 -->
<g id="Node000028" class="node">
<title>Node28</title>
<g id="a_Node000028"><a xlink:title=" ">
<polygon fill="#e0e0e0" stroke="#999999" points="4211.88,-32 4071.38,-32 4071.38,0 4211.88,0 4211.88,-32"/>
<text text-anchor="start" x="4079.38" y="-18.5" font-family="Helvetica,sans-Serif" font-size="10.00">fr.softsf.sudokufx.service.ui.</text>
<text text-anchor="middle" x="4141.62" y="-6.5" font-family="Helvetica,sans-Serif" font-size="10.00">AudioService</text>
</a>
</g>
</g>
<!-- Node1&#45;&gt;Node28 -->
<g id="edge27_Node000001_Node000028" class="edge">
<title>Node1&#45;&gt;Node28</title>
<g id="a_edge27_Node000001_Node000028"><a xlink:title=" ">
<path fill="none" stroke="#63b8ff" d="M2300.43,-88.12C2611.58,-84.63 3690.93,-70.1 4059.81,-32.04"/>
<polygon fill="#63b8ff" stroke="#63b8ff" points="4059.96,-35.54 4069.54,-31.01 4059.22,-28.58 4059.96,-35.54"/>
</a>
</g>
</g>
<!-- Node29 -->
<g id="Node000029" class="node">
<title>Node29</title>
<g id="a_Node000029"><a xlink:title=" ">
<polygon fill="#e0e0e0" stroke="#999999" points="4399.12,-32 4230.12,-32 4230.12,0 4399.12,0 4399.12,-32"/>
<text text-anchor="start" x="4238.12" y="-18.5" font-family="Helvetica,sans-Serif" font-size="10.00">fr.softsf.sudokufx.view.component.</text>
<text text-anchor="middle" x="4314.62" y="-6.5" font-family="Helvetica,sans-Serif" font-size="10.00">SpinnerGridPane</text>
</a>
</g>
</g>
<!-- Node1&#45;&gt;Node29 -->
<g id="edge28_Node000001_Node000029" class="edge">
<title>Node1&#45;&gt;Node29</title>
<g id="a_edge28_Node000001_Node000029"><a xlink:title=" ">
<path fill="none" stroke="#63b8ff" d="M2300.51,-88.06C2628.78,-84.18 3816.22,-68.02 4218.26,-32.11"/>
<polygon fill="#63b8ff" stroke="#63b8ff" points="4218.49,-35.6 4228.13,-31.21 4217.85,-28.63 4218.49,-35.6"/>
</a>
</g>
</g>
<!-- Node30 -->
<g id="Node000030" class="node">
<title>Node30</title>
<g id="a_Node000030"><a xlink:title=" ">
<polygon fill="#e0e0e0" stroke="#999999" points="4619.62,-32 4417.62,-32 4417.62,0 4619.62,0 4619.62,-32"/>
<text text-anchor="start" x="4425.62" y="-18.5" font-family="Helvetica,sans-Serif" font-size="10.00">fr.softsf.sudokufx.view.component.toaster.</text>
<text text-anchor="middle" x="4518.62" y="-6.5" font-family="Helvetica,sans-Serif" font-size="10.00">ToasterVBox</text>
</a>
</g>
</g>
<!-- Node1&#45;&gt;Node30 -->
<g id="edge29_Node000001_Node000030" class="edge">
<title>Node1&#45;&gt;Node30</title>
<g id="a_edge29_Node000001_Node000030"><a xlink:title=" ">
<path fill="none" stroke="#63b8ff" d="M2300.58,-88.04C2648.3,-83.91 3965.07,-66.36 4406.17,-32.12"/>
<polygon fill="#63b8ff" stroke="#63b8ff" points="4406.17,-35.63 4415.87,-31.35 4405.62,-28.65 4406.17,-35.63"/>
</a>
</g>
</g>
</g>
</svg>

<g id="navigator" transform="translate(0 0)" fill="#404254">
  <rect fill="#f2f5e9" fill-opacity="0.5" stroke="#606060" stroke-width=".5" x="0" y="0" width="60" height="60"/>
  <use id="zoomplus" xlink:href="#zoomPlus" x="17" y="9" onmousedown="handleZoom(evt,'in')"/>
  <use id="zoomminus" xlink:href="#zoomMin" x="42" y="9" onmousedown="handleZoom(evt,'out')"/>
  <use id="reset" xlink:href="#resetDef" x="30" y="36" onmousedown="handleReset()"/>
   <use id="arrowup" xlink:href="#arrowUp" x="0" y="0" onmousedown="handlePan(0,-1)"/>
  <use id="arrowright" xlink:href="#arrowRight" x="0" y="0" onmousedown="handlePan(1,0)"/>
  <use id="arrowdown" xlink:href="#arrowDown" x="0" y="0" onmousedown="handlePan(0,1)"/>
  <use id="arrowleft" xlink:href="#arrowLeft" x="0" y="0" onmousedown="handlePan(-1,0)"/>
</g>
<svg viewBox="0 0 15 15" width="100%" height="30px" preserveAspectRatio="xMaxYMin meet">
 <g id="arrow_out" transform="scale(0.3 0.3)">
  <a xlink:href="_menu_options_view_model_8java__incl_org.svg" target="_base">
   <rect id="button" ry="5" rx="5" y="6" x="6" height="38" width="38"
        fill="#f2f5e9" fill-opacity="0.5" stroke="#606060" stroke-width="1.0"/>
   <path id="arrow"
     d="M 11.500037,31.436501 C 11.940474,20.09759 22.043105,11.32322 32.158766,21.979434 L 37.068811,17.246167 C 37.068811,17.246167 37.088388,32 37.088388,32 L 22.160133,31.978069 C 22.160133,31.978069 26.997745,27.140456 26.997745,27.140456 C 18.528582,18.264221 13.291696,25.230495 11.500037,31.436501 z"
     style="fill:#404040;"/>
  </a>
 </g>
</svg>

<style type='text/css'>
<![CDATA[
[data-mouse-over-selected='false'] { opacity: 0.7; }
[data-mouse-over-selected='true']  { opacity: 1.0; }
]]>
</style>
<script type="application/ecmascript"><![CDATA[
document.addEventListener('DOMContentLoaded', (event) => {
  highlightEdges();
  highlightAdjacentNodes();
});
]]></script>
</svg>
