<?xml version="1.0" encoding="UTF-8" standalone="no"?>
<!DOCTYPE svg PUBLIC "-//W3C//DTD SVG 1.1//EN"
 "http://www.w3.org/Graphics/SVG/1.1/DTD/svg11.dtd">
<!-- Generated by graphviz version 12.2.1 (20241206.2353)
 -->
<!-- Title: src/main/java/fr/softsf/sudokufx/viewmodel/MenuOptionsViewModel.java Pages: 1 -->
<!--zoomable 120 -->

<svg id="main" version="1.1" xmlns="http://www.w3.org/2000/svg" xmlns:xlink="http://www.w3.org/1999/xlink" xml:space="preserve" onload="init(evt)">

<style type="text/css"><![CDATA[
.node, .edge {opacity: 0.7;}
.node.selected, .edge.selected {opacity: 1;}
.edge:hover path { stroke: red; }
.edge:hover polygon { stroke: red; fill: red; }
]]></style>

<defs>
  <circle id="rim" cx="0" cy="0" r="7"/>
  <circle id="rim2" cx="0" cy="0" r="3.5"/>
  <g id="zoomPlus">
    <use xlink:href="#rim" fill="#404040"><set attributeName="fill" to="#808080" begin="zoomplus.mouseover" end="zoomplus.mouseout"/></use>
    <path d="M-4,0h8M0,-4v8" fill="none" stroke="white" stroke-width="1.5" pointer-events="none"/>
  </g>
  <g id="zoomMin">
    <use xlink:href="#rim" fill="#404040"><set attributeName="fill" to="#808080" begin="zoomminus.mouseover" end="zoomminus.mouseout"/></use>
    <path d="M-4,0h8" fill="none" stroke="white" stroke-width="1.5" pointer-events="none"/>
  </g>
  <g id="arrowUp" transform="translate(30 24)">
    <use xlink:href="#rim"/>
    <path pointer-events="none" fill="none" stroke="white" stroke-width="1.5" d="M0,-3.0v7 M-2.5,-0.5L0,-3.0L2.5,-0.5"/>
  </g>
  <g id="arrowRight" transform="rotate(90) translate(36 -43)">
    <use xlink:href="#rim"/>
    <path pointer-events="none" fill="none" stroke="white" stroke-width="1.5" d="M0,-3.0v7 M-2.5,-0.5L0,-3.0L2.5,-0.5"/>
  </g>
  <g id="arrowDown" transform="rotate(180) translate(-30 -48)">
    <use xlink:href="#rim"/>
    <path pointer-events="none" fill="none" stroke="white" stroke-width="1.5" d="M0,-3.0v7 M-2.5,-0.5L0,-3.0L2.5,-0.5"/>
  </g>
  <g id="arrowLeft" transform="rotate(270) translate(-36 17)">
    <use xlink:href="#rim"/>
    <path pointer-events="none" fill="none" stroke="white" stroke-width="1.5" d="M0,-3.0v7 M-2.5,-0.5L0,-3.0L2.5,-0.5"/>
  </g>
  <g id="resetDef">
    <use xlink:href="#rim2" fill="#404040"><set attributeName="fill" to="#808080" begin="reset.mouseover" end="reset.mouseout"/></use>
  </g>
</defs>
<script type="application/ecmascript">
var viewWidth = 4311;
var viewHeight = 120;
var sectionId = 'dynsection-0';
</script>
<script type="application/ecmascript" xlink:href="svg.min.js"/>
<svg id="graph" class="graph">
<g id="viewport">
<title>src/main/java/fr/softsf/sudokufx/viewmodel/MenuOptionsViewModel.java</title>
<!-- Node1 -->
<g id="Node000001" class="node">
<title>Node1</title>
<g id="a_Node000001"><a xlink:title=" ">
<polygon fill="#999999" stroke="#666666" points="2140.12,-112 1971.12,-112 1971.12,-68 2140.12,-68 2140.12,-112"/>
<text text-anchor="start" x="1979.12" y="-98.5" font-family="Helvetica,sans-Serif" font-size="10.00">src/main/java/fr/softsf</text>
<text text-anchor="start" x="1979.12" y="-86.5" font-family="Helvetica,sans-Serif" font-size="10.00">/sudokufx/viewmodel/MenuOptions</text>
<text text-anchor="middle" x="2055.62" y="-74.5" font-family="Helvetica,sans-Serif" font-size="10.00">ViewModel.java</text>
</a>
</g>
</g>
<!-- Node2 -->
<g id="Node000002" class="node">
<title>Node2</title>
<g id="a_Node000002"><a xlink:title=" ">
<polygon fill="#e0e0e0" stroke="#999999" points="63.25,-26 0,-26 0,-6 63.25,-6 63.25,-26"/>
<text text-anchor="middle" x="31.62" y="-12.5" font-family="Helvetica,sans-Serif" font-size="10.00">java.io.File</text>
</a>
</g>
</g>
<!-- Node1&#45;&gt;Node2 -->
<g id="edge1_Node000001_Node000002" class="edge">
<title>Node1&#45;&gt;Node2</title>
<g id="a_edge1_Node000001_Node000002"><a xlink:title=" ">
<path fill="none" stroke="#63b8ff" d="M1970.76,-88.21C1615.76,-84.67 259.45,-68.85 71.62,-32 68.98,-31.48 66.29,-30.81 63.61,-30.04"/>
<polygon fill="#63b8ff" stroke="#63b8ff" points="64.86,-26.77 54.27,-26.91 62.64,-33.41 64.86,-26.77"/>
</a>
</g>
</g>
<!-- Node3 -->
<g id="Node000003" class="node">
<title>Node3</title>
<g id="a_Node000003"><a xlink:title=" ">
<polygon fill="#e0e0e0" stroke="#999999" points="208.12,-26 81.12,-26 81.12,-6 208.12,-6 208.12,-26"/>
<text text-anchor="middle" x="144.62" y="-12.5" font-family="Helvetica,sans-Serif" font-size="10.00">java.text.MessageFormat</text>
</a>
</g>
</g>
<!-- Node1&#45;&gt;Node3 -->
<g id="edge2_Node000001_Node000003" class="edge">
<title>Node1&#45;&gt;Node3</title>
<g id="a_edge2_Node000001_Node000003"><a xlink:title=" ">
<path fill="none" stroke="#63b8ff" d="M1970.84,-88.34C1657.21,-85.57 563.06,-73.14 216.62,-32 209.55,-31.16 202.14,-29.97 194.88,-28.63"/>
<polygon fill="#63b8ff" stroke="#63b8ff" points="195.63,-25.21 185.14,-26.72 194.28,-32.08 195.63,-25.21"/>
</a>
</g>
</g>
<!-- Node4 -->
<g id="Node000004" class="node">
<title>Node4</title>
<g id="a_Node000004"><a xlink:title=" ">
<polygon fill="#e0e0e0" stroke="#999999" points="351.38,-26 225.88,-26 225.88,-6 351.38,-6 351.38,-26"/>
<text text-anchor="middle" x="288.62" y="-12.5" font-family="Helvetica,sans-Serif" font-size="10.00">java.util.function.Supplier</text>
</a>
</g>
</g>
<!-- Node1&#45;&gt;Node4 -->
<g id="edge3_Node000001_Node000004" class="edge">
<title>Node1&#45;&gt;Node4</title>
<g id="a_edge3_Node000001_Node000004"><a xlink:title=" ">
<path fill="none" stroke="#63b8ff" d="M1970.65,-88.07C1672.86,-84.53 677.45,-70.04 360.62,-32 353.64,-31.16 346.32,-29.99 339.14,-28.66"/>
<polygon fill="#63b8ff" stroke="#63b8ff" points="340.01,-25.27 329.52,-26.77 338.66,-32.14 340.01,-25.27"/>
</a>
</g>
</g>
<!-- Node5 -->
<g id="Node000005" class="node">
<title>Node5</title>
<g id="a_Node000005"><a xlink:title=" ">
<polygon fill="#e0e0e0" stroke="#999999" points="493.62,-26 369.62,-26 369.62,-6 493.62,-6 493.62,-26"/>
<text text-anchor="middle" x="431.62" y="-12.5" font-family="Helvetica,sans-Serif" font-size="10.00">javafx.beans.Observable</text>
</a>
</g>
</g>
<!-- Node1&#45;&gt;Node5 -->
<g id="edge4_Node000001_Node000005" class="edge">
<title>Node1&#45;&gt;Node5</title>
<g id="a_edge4_Node000001_Node000005"><a xlink:title=" ">
<path fill="none" stroke="#63b8ff" d="M1971.03,-87.81C1690.22,-83.55 790.49,-67.42 502.62,-32 495.81,-31.16 488.69,-30 481.69,-28.69"/>
<polygon fill="#63b8ff" stroke="#63b8ff" points="482.46,-25.28 471.97,-26.76 481.09,-32.14 482.46,-25.28"/>
</a>
</g>
</g>
<!-- Node6 -->
<g id="Node000006" class="node">
<title>Node6</title>
<g id="a_Node000006"><a xlink:title=" ">
<polygon fill="#e0e0e0" stroke="#999999" points="657.5,-26 511.75,-26 511.75,-6 657.5,-6 657.5,-26"/>
<text text-anchor="middle" x="584.62" y="-12.5" font-family="Helvetica,sans-Serif" font-size="10.00">javafx.beans.binding.Bindings</text>
</a>
</g>
</g>
<!-- Node1&#45;&gt;Node6 -->
<g id="edge5_Node000001_Node000006" class="edge">
<title>Node1&#45;&gt;Node6</title>
<g id="a_edge5_Node000001_Node000006"><a xlink:title=" ">
<path fill="none" stroke="#63b8ff" d="M1970.76,-89.64C1753.24,-90.38 1158.35,-86.79 666.62,-32 658.32,-31.08 649.6,-29.8 641.06,-28.39"/>
<polygon fill="#63b8ff" stroke="#63b8ff" points="641.94,-24.99 631.49,-26.73 640.74,-31.89 641.94,-24.99"/>
</a>
</g>
</g>
<!-- Node7 -->
<g id="Node000007" class="node">
<title>Node7</title>
<g id="a_Node000007"><a xlink:title=" ">
<polygon fill="#e0e0e0" stroke="#999999" points="809.5,-32 675.75,-32 675.75,0 809.5,0 809.5,-32"/>
<text text-anchor="start" x="683.75" y="-18.5" font-family="Helvetica,sans-Serif" font-size="10.00">javafx.beans.binding.String</text>
<text text-anchor="middle" x="742.62" y="-6.5" font-family="Helvetica,sans-Serif" font-size="10.00">Binding</text>
</a>
</g>
</g>
<!-- Node1&#45;&gt;Node7 -->
<g id="edge6_Node000001_Node000007" class="edge">
<title>Node1&#45;&gt;Node7</title>
<g id="a_edge6_Node000001_Node000007"><a xlink:title=" ">
<path fill="none" stroke="#63b8ff" d="M1970.9,-89.43C1771.76,-89.5 1258.35,-84.24 820.97,-32.15"/>
<polygon fill="#63b8ff" stroke="#63b8ff" points="821.52,-28.69 811.18,-30.98 820.69,-35.64 821.52,-28.69"/>
</a>
</g>
</g>
<!-- Node8 -->
<g id="Node000008" class="node">
<title>Node8</title>
<g id="a_Node000008"><a xlink:title=" ">
<polygon fill="#e0e0e0" stroke="#999999" points="975.25,-32 828,-32 828,0 975.25,0 975.25,-32"/>
<text text-anchor="start" x="836" y="-18.5" font-family="Helvetica,sans-Serif" font-size="10.00">javafx.beans.property.Boolean</text>
<text text-anchor="middle" x="901.62" y="-6.5" font-family="Helvetica,sans-Serif" font-size="10.00">Property</text>
</a>
</g>
</g>
<!-- Node1&#45;&gt;Node8 -->
<g id="edge7_Node000001_Node000008" class="edge">
<title>Node1&#45;&gt;Node8</title>
<g id="a_edge7_Node000001_Node000008"><a xlink:title=" ">
<path fill="none" stroke="#63b8ff" d="M1970.63,-88.1C1790.83,-85.4 1358.67,-74.77 986.59,-32.12"/>
<polygon fill="#63b8ff" stroke="#63b8ff" points="987.16,-28.66 976.82,-30.99 986.35,-35.61 987.16,-28.66"/>
</a>
</g>
</g>
<!-- Node9 -->
<g id="Node000009" class="node">
<title>Node9</title>
<g id="a_Node000009"><a xlink:title=" ">
<polygon fill="#e0e0e0" stroke="#999999" points="1135.62,-32 993.62,-32 993.62,0 1135.62,0 1135.62,-32"/>
<text text-anchor="start" x="1001.62" y="-18.5" font-family="Helvetica,sans-Serif" font-size="10.00">javafx.beans.property.Simple</text>
<text text-anchor="middle" x="1064.62" y="-6.5" font-family="Helvetica,sans-Serif" font-size="10.00">BooleanProperty</text>
</a>
</g>
</g>
<!-- Node1&#45;&gt;Node9 -->
<g id="edge8_Node000001_Node000009" class="edge">
<title>Node1&#45;&gt;Node9</title>
<g id="a_edge8_Node000001_Node000009"><a xlink:title=" ">
<path fill="none" stroke="#63b8ff" d="M1970.84,-87.17C1811.41,-82.97 1455.96,-70 1147.5,-32.26"/>
<polygon fill="#63b8ff" stroke="#63b8ff" points="1147.94,-28.79 1137.59,-31.03 1147.08,-35.73 1147.94,-28.79"/>
</a>
</g>
</g>
<!-- Node10 -->
<g id="Node000010" class="node">
<title>Node10</title>
<g id="a_Node000010"><a xlink:title=" ">
<polygon fill="#e0e0e0" stroke="#999999" points="1283.62,-32 1153.62,-32 1153.62,0 1283.62,0 1283.62,-32"/>
<text text-anchor="start" x="1161.62" y="-18.5" font-family="Helvetica,sans-Serif" font-size="10.00">javafx.scene.control.Color</text>
<text text-anchor="middle" x="1218.62" y="-6.5" font-family="Helvetica,sans-Serif" font-size="10.00">Picker</text>
</a>
</g>
</g>
<!-- Node1&#45;&gt;Node10 -->
<g id="edge9_Node000001_Node000010" class="edge">
<title>Node1&#45;&gt;Node10</title>
<g id="a_edge9_Node000001_Node000010"><a xlink:title=" ">
<path fill="none" stroke="#63b8ff" d="M1970.86,-86.14C1831.71,-80.68 1546.06,-66.26 1295.09,-32.23"/>
<polygon fill="#63b8ff" stroke="#63b8ff" points="1295.8,-28.79 1285.42,-30.9 1294.85,-35.73 1295.8,-28.79"/>
</a>
</g>
</g>
<!-- Node11 -->
<g id="Node000011" class="node">
<title>Node11</title>
<g id="a_Node000011"><a xlink:title=" ">
<polygon fill="#e0e0e0" stroke="#999999" points="1432,-26 1301.25,-26 1301.25,-6 1432,-6 1432,-26"/>
<text text-anchor="middle" x="1366.62" y="-12.5" font-family="Helvetica,sans-Serif" font-size="10.00">javafx.scene.image.Image</text>
</a>
</g>
</g>
<!-- Node1&#45;&gt;Node11 -->
<g id="edge10_Node000001_Node000011" class="edge">
<title>Node1&#45;&gt;Node11</title>
<g id="a_edge10_Node000001_Node000011"><a xlink:title=" ">
<path fill="none" stroke="#63b8ff" d="M1970.72,-84.03C1851.77,-76.41 1628.92,-59.73 1440.62,-32 1434.06,-31.03 1427.2,-29.86 1420.42,-28.61"/>
<polygon fill="#63b8ff" stroke="#63b8ff" points="1421.11,-25.18 1410.63,-26.72 1419.78,-32.05 1421.11,-25.18"/>
</a>
</g>
</g>
<!-- Node12 -->
<g id="Node000012" class="node">
<title>Node12</title>
<g id="a_Node000012"><a xlink:title=" ">
<polygon fill="#e0e0e0" stroke="#999999" points="1605.38,-26 1449.88,-26 1449.88,-6 1605.38,-6 1605.38,-26"/>
<text text-anchor="middle" x="1527.62" y="-12.5" font-family="Helvetica,sans-Serif" font-size="10.00">javafx.scene.layout.Background</text>
</a>
</g>
</g>
<!-- Node1&#45;&gt;Node12 -->
<g id="edge11_Node000001_Node000012" class="edge">
<title>Node1&#45;&gt;Node12</title>
<g id="a_edge11_Node000001_Node000012"><a xlink:title=" ">
<path fill="none" stroke="#63b8ff" d="M1970.93,-79.13C1882.04,-68.52 1738.29,-50.64 1614.62,-32 1607.19,-30.88 1599.41,-29.64 1591.69,-28.36"/>
<polygon fill="#63b8ff" stroke="#63b8ff" points="1592.41,-24.93 1581.97,-26.73 1591.25,-31.84 1592.41,-24.93"/>
</a>
</g>
</g>
<!-- Node13 -->
<g id="Node000013" class="node">
<title>Node13</title>
<g id="a_Node000013"><a xlink:title=" ">
<polygon fill="#e0e0e0" stroke="#999999" points="1791.75,-26 1623.5,-26 1623.5,-6 1791.75,-6 1791.75,-26"/>
<text text-anchor="middle" x="1707.62" y="-12.5" font-family="Helvetica,sans-Serif" font-size="10.00">javafx.scene.layout.BackgroundFill</text>
</a>
</g>
</g>
<!-- Node1&#45;&gt;Node13 -->
<g id="edge12_Node000001_Node000013" class="edge">
<title>Node1&#45;&gt;Node13</title>
<g id="a_edge12_Node000001_Node000013"><a xlink:title=" ">
<path fill="none" stroke="#63b8ff" d="M1970.94,-71.48C1906.76,-58.2 1820.33,-40.32 1764.29,-28.72"/>
<polygon fill="#63b8ff" stroke="#63b8ff" points="1765.15,-25.33 1754.64,-26.73 1763.73,-32.18 1765.15,-25.33"/>
</a>
</g>
</g>
<!-- Node14 -->
<g id="Node000014" class="node">
<title>Node14</title>
<g id="a_Node000014"><a xlink:title=" ">
<polygon fill="#e0e0e0" stroke="#999999" points="1965.38,-32 1809.88,-32 1809.88,0 1965.38,0 1965.38,-32"/>
<text text-anchor="start" x="1817.88" y="-18.5" font-family="Helvetica,sans-Serif" font-size="10.00">javafx.scene.layout.Background</text>
<text text-anchor="middle" x="1887.62" y="-6.5" font-family="Helvetica,sans-Serif" font-size="10.00">Image</text>
</a>
</g>
</g>
<!-- Node1&#45;&gt;Node14 -->
<g id="edge13_Node000001_Node000014" class="edge">
<title>Node1&#45;&gt;Node14</title>
<g id="a_edge13_Node000001_Node000014"><a xlink:title=" ">
<path fill="none" stroke="#63b8ff" d="M2005.67,-67.59C1983.07,-57.9 1956.5,-46.52 1934.29,-37"/>
<polygon fill="#63b8ff" stroke="#63b8ff" points="1935.74,-33.81 1925.17,-33.09 1932.99,-40.25 1935.74,-33.81"/>
</a>
</g>
</g>
<!-- Node15 -->
<g id="Node000015" class="node">
<title>Node15</title>
<g id="a_Node000015"><a xlink:title=" ">
<polygon fill="#e0e0e0" stroke="#999999" points="2127.75,-26 1983.5,-26 1983.5,-6 2127.75,-6 2127.75,-26"/>
<text text-anchor="middle" x="2055.62" y="-12.5" font-family="Helvetica,sans-Serif" font-size="10.00">javafx.scene.layout.GridPane</text>
</a>
</g>
</g>
<!-- Node1&#45;&gt;Node15 -->
<g id="edge14_Node000001_Node000015" class="edge">
<title>Node1&#45;&gt;Node15</title>
<g id="a_edge14_Node000001_Node000015"><a xlink:title=" ">
<path fill="none" stroke="#63b8ff" d="M2055.62,-67.79C2055.62,-58.32 2055.62,-47.2 2055.62,-37.78"/>
<polygon fill="#63b8ff" stroke="#63b8ff" points="2059.13,-37.82 2055.63,-27.82 2052.13,-37.82 2059.13,-37.82"/>
</a>
</g>
</g>
<!-- Node16 -->
<g id="Node000016" class="node">
<title>Node16</title>
<g id="a_Node000016"><a xlink:title=" ">
<polygon fill="#e0e0e0" stroke="#999999" points="2267.5,-26 2145.75,-26 2145.75,-6 2267.5,-6 2267.5,-26"/>
<text text-anchor="middle" x="2206.62" y="-12.5" font-family="Helvetica,sans-Serif" font-size="10.00">javafx.scene.paint.Color</text>
</a>
</g>
</g>
<!-- Node1&#45;&gt;Node16 -->
<g id="edge15_Node000001_Node000016" class="edge">
<title>Node1&#45;&gt;Node16</title>
<g id="a_edge15_Node000001_Node000016"><a xlink:title=" ">
<path fill="none" stroke="#63b8ff" d="M2100.52,-67.59C2125.06,-55.89 2154.8,-41.71 2176.54,-31.35"/>
<polygon fill="#63b8ff" stroke="#63b8ff" points="2177.92,-34.56 2185.44,-27.1 2174.91,-28.24 2177.92,-34.56"/>
</a>
</g>
</g>
<!-- Node17 -->
<g id="Node000017" class="node">
<title>Node17</title>
<g id="a_Node000017"><a xlink:title=" ">
<polygon fill="#e0e0e0" stroke="#999999" points="2368,-26 2285.25,-26 2285.25,-6 2368,-6 2368,-26"/>
<text text-anchor="middle" x="2326.62" y="-12.5" font-family="Helvetica,sans-Serif" font-size="10.00">org.slf4j.Logger</text>
</a>
</g>
</g>
<!-- Node1&#45;&gt;Node17 -->
<g id="edge16_Node000001_Node000017" class="edge">
<title>Node1&#45;&gt;Node17</title>
<g id="a_edge16_Node000001_Node000017"><a xlink:title=" ">
<path fill="none" stroke="#63b8ff" d="M2140.57,-67.92C2181.76,-57.48 2231.87,-44.48 2276.62,-32 2279.34,-31.24 2282.13,-30.45 2284.94,-29.64"/>
<polygon fill="#63b8ff" stroke="#63b8ff" points="2285.68,-33.07 2294.29,-26.9 2283.71,-26.35 2285.68,-33.07"/>
</a>
</g>
</g>
<!-- Node18 -->
<g id="Node000018" class="node">
<title>Node18</title>
<g id="a_Node000018"><a xlink:title=" ">
<polygon fill="#e0e0e0" stroke="#999999" points="2501.5,-26 2385.75,-26 2385.75,-6 2501.5,-6 2501.5,-26"/>
<text text-anchor="middle" x="2443.62" y="-12.5" font-family="Helvetica,sans-Serif" font-size="10.00">org.slf4j.LoggerFactory</text>
</a>
</g>
</g>
<!-- Node1&#45;&gt;Node18 -->
<g id="edge17_Node000001_Node000018" class="edge">
<title>Node1&#45;&gt;Node18</title>
<g id="a_edge17_Node000001_Node000018"><a xlink:title=" ">
<path fill="none" stroke="#63b8ff" d="M2140.3,-75.02C2205.13,-64.06 2296.71,-48.03 2376.62,-32 2381.49,-31.02 2386.54,-29.97 2391.6,-28.89"/>
<polygon fill="#63b8ff" stroke="#63b8ff" points="2392.08,-32.36 2401.11,-26.81 2390.59,-25.52 2392.08,-32.36"/>
</a>
</g>
</g>
<!-- Node19 -->
<g id="Node000019" class="node">
<title>Node19</title>
<g id="a_Node000019"><a xlink:title=" ">
<polygon fill="#e0e0e0" stroke="#999999" points="2675.75,-32 2519.5,-32 2519.5,0 2675.75,0 2675.75,-32"/>
<text text-anchor="start" x="2527.5" y="-18.5" font-family="Helvetica,sans-Serif" font-size="10.00">org.springframework.stereotype.</text>
<text text-anchor="middle" x="2597.62" y="-6.5" font-family="Helvetica,sans-Serif" font-size="10.00">Component</text>
</a>
</g>
</g>
<!-- Node1&#45;&gt;Node19 -->
<g id="edge18_Node000001_Node000019" class="edge">
<title>Node1&#45;&gt;Node19</title>
<g id="a_edge18_Node000001_Node000019"><a xlink:title=" ">
<path fill="none" stroke="#63b8ff" d="M2140.48,-79.55C2229.49,-69.38 2373.73,-52.13 2508.09,-32.34"/>
<polygon fill="#63b8ff" stroke="#63b8ff" points="2508.52,-35.81 2517.9,-30.88 2507.5,-28.89 2508.52,-35.81"/>
</a>
</g>
</g>
<!-- Node20 -->
<g id="Node000020" class="node">
<title>Node20</title>
<g id="a_Node000020"><a xlink:title=" ">
<polygon fill="#e0e0e0" stroke="#999999" points="2881.12,-26 2694.12,-26 2694.12,-6 2881.12,-6 2881.12,-26"/>
<text text-anchor="middle" x="2787.62" y="-12.5" font-family="Helvetica,sans-Serif" font-size="10.00">fr.softsf.sudokufx.common.enums.I18n</text>
</a>
</g>
</g>
<!-- Node1&#45;&gt;Node20 -->
<g id="edge19_Node000001_Node000020" class="edge">
<title>Node1&#45;&gt;Node20</title>
<g id="a_edge19_Node000001_Node000020"><a xlink:title=" ">
<path fill="none" stroke="#63b8ff" d="M2140.47,-82.78C2261.45,-73.58 2490.39,-54.93 2684.62,-32 2694.58,-30.83 2705.05,-29.46 2715.35,-28.03"/>
<polygon fill="#63b8ff" stroke="#63b8ff" points="2715.51,-31.54 2724.93,-26.68 2714.54,-24.61 2715.51,-31.54"/>
</a>
</g>
</g>
<!-- Node21 -->
<g id="Node000021" class="node">
<title>Node21</title>
<g id="a_Node000021"><a xlink:title=" ">
<polygon fill="#e0e0e0" stroke="#999999" points="3067.75,-32 2899.5,-32 2899.5,0 3067.75,0 3067.75,-32"/>
<text text-anchor="start" x="2907.5" y="-18.5" font-family="Helvetica,sans-Serif" font-size="10.00">fr.softsf.sudokufx.common.enums.</text>
<text text-anchor="middle" x="2983.62" y="-6.5" font-family="Helvetica,sans-Serif" font-size="10.00">ToastLevels</text>
</a>
</g>
</g>
<!-- Node1&#45;&gt;Node21 -->
<g id="edge20_Node000001_Node000021" class="edge">
<title>Node1&#45;&gt;Node21</title>
<g id="a_edge20_Node000001_Node000021"><a xlink:title=" ">
<path fill="none" stroke="#63b8ff" d="M2140.61,-85.78C2289.83,-79.55 2608.87,-63.71 2887.86,-32.25"/>
<polygon fill="#63b8ff" stroke="#63b8ff" points="2887.98,-35.76 2897.52,-31.15 2887.19,-28.81 2887.98,-35.76"/>
</a>
</g>
</g>
<!-- Node22 -->
<g id="Node000022" class="node">
<title>Node22</title>
<g id="a_Node000022"><a xlink:title=" ">
<polygon fill="#e0e0e0" stroke="#999999" points="3237.5,-32 3085.75,-32 3085.75,0 3237.5,0 3237.5,-32"/>
<text text-anchor="start" x="3093.75" y="-18.5" font-family="Helvetica,sans-Serif" font-size="10.00">fr.softsf.sudokufx.common.util.</text>
<text text-anchor="middle" x="3161.62" y="-6.5" font-family="Helvetica,sans-Serif" font-size="10.00">AudioUtils</text>
</a>
</g>
</g>
<!-- Node1&#45;&gt;Node22 -->
<g id="edge21_Node000001_Node000022" class="edge">
<title>Node1&#45;&gt;Node22</title>
<g id="a_edge21_Node000001_Node000022"><a xlink:title=" ">
<path fill="none" stroke="#63b8ff" d="M2140.29,-87.67C2313.74,-84.22 2722.06,-72.28 3074.49,-32.15"/>
<polygon fill="#63b8ff" stroke="#63b8ff" points="3074.65,-35.65 3084.19,-31.03 3073.85,-28.7 3074.65,-35.65"/>
</a>
</g>
</g>
<!-- Node23 -->
<g id="Node000023" class="node">
<title>Node23</title>
<g id="a_Node000023"><a xlink:title=" ">
<polygon fill="#e0e0e0" stroke="#999999" points="3407.5,-32 3255.75,-32 3255.75,0 3407.5,0 3407.5,-32"/>
<text text-anchor="start" x="3263.75" y="-18.5" font-family="Helvetica,sans-Serif" font-size="10.00">fr.softsf.sudokufx.common.util.</text>
<text text-anchor="middle" x="3331.62" y="-6.5" font-family="Helvetica,sans-Serif" font-size="10.00">ImageMeta</text>
</a>
</g>
</g>
<!-- Node1&#45;&gt;Node23 -->
<g id="edge22_Node000001_Node000023" class="edge">
<title>Node1&#45;&gt;Node23</title>
<g id="a_edge22_Node000001_Node000023"><a xlink:title=" ">
<path fill="none" stroke="#63b8ff" d="M2140.39,-88.63C2334.25,-86.98 2824.9,-78.29 3244.55,-32.13"/>
<polygon fill="#63b8ff" stroke="#63b8ff" points="3244.64,-35.64 3254.19,-31.06 3243.86,-28.68 3244.64,-35.64"/>
</a>
</g>
</g>
<!-- Node24 -->
<g id="Node000024" class="node">
<title>Node24</title>
<g id="a_Node000024"><a xlink:title=" ">
<polygon fill="#e0e0e0" stroke="#999999" points="3577.5,-32 3425.75,-32 3425.75,0 3577.5,0 3577.5,-32"/>
<text text-anchor="start" x="3433.75" y="-18.5" font-family="Helvetica,sans-Serif" font-size="10.00">fr.softsf.sudokufx.common.util.</text>
<text text-anchor="middle" x="3501.62" y="-6.5" font-family="Helvetica,sans-Serif" font-size="10.00">ImageUtils</text>
</a>
</g>
</g>
<!-- Node1&#45;&gt;Node24 -->
<g id="edge23_Node000001_Node000024" class="edge">
<title>Node1&#45;&gt;Node24</title>
<g id="a_edge23_Node000001_Node000024"><a xlink:title=" ">
<path fill="none" stroke="#63b8ff" d="M2140.33,-89.35C2353.07,-89.4 2927.06,-84.33 3414.56,-32.12"/>
<polygon fill="#63b8ff" stroke="#63b8ff" points="3414.63,-35.63 3424.19,-31.08 3413.87,-28.67 3414.63,-35.63"/>
</a>
</g>
</g>
<!-- Node25 -->
<g id="Node000025" class="node">
<title>Node25</title>
<g id="a_Node000025"><a xlink:title=" ">
<polygon fill="#e0e0e0" stroke="#999999" points="3735.88,-32 3595.38,-32 3595.38,0 3735.88,0 3735.88,-32"/>
<text text-anchor="start" x="3603.38" y="-18.5" font-family="Helvetica,sans-Serif" font-size="10.00">fr.softsf.sudokufx.service.ui.</text>
<text text-anchor="middle" x="3665.62" y="-6.5" font-family="Helvetica,sans-Serif" font-size="10.00">AsyncFileProcessorService</text>
</a>
</g>
</g>
<!-- Node1&#45;&gt;Node25 -->
<g id="edge24_Node000001_Node000025" class="edge">
<title>Node1&#45;&gt;Node25</title>
<g id="a_edge24_Node000001_Node000025"><a xlink:title=" ">
<path fill="none" stroke="#63b8ff" d="M2140.45,-87.52C2415.3,-82.48 3280.64,-64.49 3583.66,-32.19"/>
<polygon fill="#63b8ff" stroke="#63b8ff" points="3584.01,-35.68 3593.57,-31.11 3583.24,-28.72 3584.01,-35.68"/>
</a>
</g>
</g>
<!-- Node26 -->
<g id="Node000026" class="node">
<title>Node26</title>
<g id="a_Node000026"><a xlink:title=" ">
<polygon fill="#e0e0e0" stroke="#999999" points="3894.88,-32 3754.38,-32 3754.38,0 3894.88,0 3894.88,-32"/>
<text text-anchor="start" x="3762.38" y="-18.5" font-family="Helvetica,sans-Serif" font-size="10.00">fr.softsf.sudokufx.service.ui.</text>
<text text-anchor="middle" x="3824.62" y="-6.5" font-family="Helvetica,sans-Serif" font-size="10.00">AudioService</text>
</a>
</g>
</g>
<!-- Node1&#45;&gt;Node26 -->
<g id="edge25_Node000001_Node000026" class="edge">
<title>Node1&#45;&gt;Node26</title>
<g id="a_edge25_Node000001_Node000026"><a xlink:title=" ">
<path fill="none" stroke="#63b8ff" d="M2140.53,-87.84C2434.16,-83.56 3406.48,-67.13 3742.83,-32.04"/>
<polygon fill="#63b8ff" stroke="#63b8ff" points="3742.97,-35.54 3752.54,-31 3742.22,-28.58 3742.97,-35.54"/>
</a>
</g>
</g>
<!-- Node27 -->
<g id="Node000027" class="node">
<title>Node27</title>
<g id="a_Node000027"><a xlink:title=" ">
<polygon fill="#e0e0e0" stroke="#999999" points="4082.12,-32 3913.12,-32 3913.12,0 4082.12,0 4082.12,-32"/>
<text text-anchor="start" x="3921.12" y="-18.5" font-family="Helvetica,sans-Serif" font-size="10.00">fr.softsf.sudokufx.view.component.</text>
<text text-anchor="middle" x="3997.62" y="-6.5" font-family="Helvetica,sans-Serif" font-size="10.00">SpinnerGridPane</text>
</a>
</g>
</g>
<!-- Node1&#45;&gt;Node27 -->
<g id="edge26_Node000001_Node000027" class="edge">
<title>Node1&#45;&gt;Node27</title>
<g id="a_edge26_Node000001_Node000027"><a xlink:title=" ">
<path fill="none" stroke="#63b8ff" d="M2140.5,-87.82C2451.87,-83.27 3532.05,-65.47 3901.38,-32.1"/>
<polygon fill="#63b8ff" stroke="#63b8ff" points="3901.49,-35.61 3911.13,-31.2 3900.85,-28.64 3901.49,-35.61"/>
</a>
</g>
</g>
<!-- Node28 -->
<g id="Node000028" class="node">
<title>Node28</title>
<g id="a_Node000028"><a xlink:title=" ">
<polygon fill="#e0e0e0" stroke="#999999" points="4302.62,-32 4100.62,-32 4100.62,0 4302.62,0 4302.62,-32"/>
<text text-anchor="start" x="4108.62" y="-18.5" font-family="Helvetica,sans-Serif" font-size="10.00">fr.softsf.sudokufx.view.component.toaster.</text>
<text text-anchor="middle" x="4201.62" y="-6.5" font-family="Helvetica,sans-Serif" font-size="10.00">ToasterVBox</text>
</a>
</g>
</g>
<!-- Node1&#45;&gt;Node28 -->
<g id="edge27_Node000001_Node000028" class="edge">
<title>Node1&#45;&gt;Node28</title>
<g id="a_edge27_Node000001_Node000028"><a xlink:title=" ">
<path fill="none" stroke="#63b8ff" d="M2140.38,-87.84C2471.67,-83.14 3680.57,-64.18 4089.11,-32.13"/>
<polygon fill="#63b8ff" stroke="#63b8ff" points="4089.18,-35.63 4098.87,-31.34 4088.62,-28.66 4089.18,-35.63"/>
</a>
</g>
</g>
</g>
</svg>

<g id="navigator" transform="translate(0 0)" fill="#404254">
  <rect fill="#f2f5e9" fill-opacity="0.5" stroke="#606060" stroke-width=".5" x="0" y="0" width="60" height="60"/>
  <use id="zoomplus" xlink:href="#zoomPlus" x="17" y="9" onmousedown="handleZoom(evt,'in')"/>
  <use id="zoomminus" xlink:href="#zoomMin" x="42" y="9" onmousedown="handleZoom(evt,'out')"/>
  <use id="reset" xlink:href="#resetDef" x="30" y="36" onmousedown="handleReset()"/>
   <use id="arrowup" xlink:href="#arrowUp" x="0" y="0" onmousedown="handlePan(0,-1)"/>
  <use id="arrowright" xlink:href="#arrowRight" x="0" y="0" onmousedown="handlePan(1,0)"/>
  <use id="arrowdown" xlink:href="#arrowDown" x="0" y="0" onmousedown="handlePan(0,1)"/>
  <use id="arrowleft" xlink:href="#arrowLeft" x="0" y="0" onmousedown="handlePan(-1,0)"/>
</g>
<svg viewBox="0 0 15 15" width="100%" height="30px" preserveAspectRatio="xMaxYMin meet">
 <g id="arrow_out" transform="scale(0.3 0.3)">
  <a xlink:href="_menu_options_view_model_8java__incl_org.svg" target="_base">
   <rect id="button" ry="5" rx="5" y="6" x="6" height="38" width="38"
        fill="#f2f5e9" fill-opacity="0.5" stroke="#606060" stroke-width="1.0"/>
   <path id="arrow"
     d="M 11.500037,31.436501 C 11.940474,20.09759 22.043105,11.32322 32.158766,21.979434 L 37.068811,17.246167 C 37.068811,17.246167 37.088388,32 37.088388,32 L 22.160133,31.978069 C 22.160133,31.978069 26.997745,27.140456 26.997745,27.140456 C 18.528582,18.264221 13.291696,25.230495 11.500037,31.436501 z"
     style="fill:#404040;"/>
  </a>
 </g>
</svg>

<style type='text/css'>
<![CDATA[
[data-mouse-over-selected='false'] { opacity: 0.7; }
[data-mouse-over-selected='true']  { opacity: 1.0; }
]]>
</style>
<script type="application/ecmascript"><![CDATA[
document.addEventListener('DOMContentLoaded', (event) => {
  highlightEdges();
  highlightAdjacentNodes();
});
]]></script>
</svg>
