<?xml version="1.0" encoding="UTF-8" standalone="no"?>
<!DOCTYPE svg PUBLIC "-//W3C//DTD SVG 1.1//EN"
 "http://www.w3.org/Graphics/SVG/1.1/DTD/svg11.dtd">
<!-- Generated by graphviz version 12.2.1 (20241206.2353)
 -->
<!-- Title: src/test/java/fr/softsf/sudokufx/testing/unit/viewmodel/MenuPlayerViewModelUTest.java Pages: 1 -->
<!--zoomable 132 -->

<svg id="main" version="1.1" xmlns="http://www.w3.org/2000/svg" xmlns:xlink="http://www.w3.org/1999/xlink" xml:space="preserve" onload="init(evt)">

<style type="text/css"><![CDATA[
.node, .edge {opacity: 0.7;}
.node.selected, .edge.selected {opacity: 1;}
.edge:hover path { stroke: red; }
.edge:hover polygon { stroke: red; fill: red; }
]]></style>

<defs>
  <circle id="rim" cx="0" cy="0" r="7"/>
  <circle id="rim2" cx="0" cy="0" r="3.5"/>
  <g id="zoomPlus">
    <use xlink:href="#rim" fill="#404040"><set attributeName="fill" to="#808080" begin="zoomplus.mouseover" end="zoomplus.mouseout"/></use>
    <path d="M-4,0h8M0,-4v8" fill="none" stroke="white" stroke-width="1.5" pointer-events="none"/>
  </g>
  <g id="zoomMin">
    <use xlink:href="#rim" fill="#404040"><set attributeName="fill" to="#808080" begin="zoomminus.mouseover" end="zoomminus.mouseout"/></use>
    <path d="M-4,0h8" fill="none" stroke="white" stroke-width="1.5" pointer-events="none"/>
  </g>
  <g id="arrowUp" transform="translate(30 24)">
    <use xlink:href="#rim"/>
    <path pointer-events="none" fill="none" stroke="white" stroke-width="1.5" d="M0,-3.0v7 M-2.5,-0.5L0,-3.0L2.5,-0.5"/>
  </g>
  <g id="arrowRight" transform="rotate(90) translate(36 -43)">
    <use xlink:href="#rim"/>
    <path pointer-events="none" fill="none" stroke="white" stroke-width="1.5" d="M0,-3.0v7 M-2.5,-0.5L0,-3.0L2.5,-0.5"/>
  </g>
  <g id="arrowDown" transform="rotate(180) translate(-30 -48)">
    <use xlink:href="#rim"/>
    <path pointer-events="none" fill="none" stroke="white" stroke-width="1.5" d="M0,-3.0v7 M-2.5,-0.5L0,-3.0L2.5,-0.5"/>
  </g>
  <g id="arrowLeft" transform="rotate(270) translate(-36 17)">
    <use xlink:href="#rim"/>
    <path pointer-events="none" fill="none" stroke="white" stroke-width="1.5" d="M0,-3.0v7 M-2.5,-0.5L0,-3.0L2.5,-0.5"/>
  </g>
  <g id="resetDef">
    <use xlink:href="#rim2" fill="#404040"><set attributeName="fill" to="#808080" begin="reset.mouseover" end="reset.mouseout"/></use>
  </g>
</defs>
<script type="application/ecmascript">
var viewWidth = 4196;
var viewHeight = 132;
var sectionId = 'dynsection-0';
</script>
<script type="application/ecmascript" xlink:href="svg.min.js"/>
<svg id="graph" class="graph">
<g id="viewport">
<title>src/test/java/fr/softsf/sudokufx/testing/unit/viewmodel/MenuPlayerViewModelUTest.java</title>
<!-- Node1 -->
<g id="Node000001" class="node">
<title>Node1</title>
<g id="a_Node000001"><a xlink:title=" ">
<polygon fill="#999999" stroke="#666666" points="1963.62,-124 1795.38,-124 1795.38,-68 1963.62,-68 1963.62,-124"/>
<text text-anchor="start" x="1803.38" y="-110.5" font-family="Helvetica,sans-Serif" font-size="10.00">src/test/java/fr/softsf</text>
<text text-anchor="start" x="1803.38" y="-98.5" font-family="Helvetica,sans-Serif" font-size="10.00">/sudokufx/testing/unit</text>
<text text-anchor="start" x="1803.38" y="-86.5" font-family="Helvetica,sans-Serif" font-size="10.00">/viewmodel/MenuPlayerViewModel</text>
<text text-anchor="middle" x="1879.5" y="-74.5" font-family="Helvetica,sans-Serif" font-size="10.00">UTest.java</text>
</a>
</g>
</g>
<!-- Node2 -->
<g id="Node000002" class="node">
<title>Node2</title>
<g id="a_Node000002"><a xlink:title=" ">
<polygon fill="#e0e0e0" stroke="#999999" points="127,-26 0,-26 0,-6 127,-6 127,-26"/>
<text text-anchor="middle" x="63.5" y="-12.5" font-family="Helvetica,sans-Serif" font-size="10.00">java.text.MessageFormat</text>
</a>
</g>
</g>
<!-- Node1&#45;&gt;Node2 -->
<g id="edge1_Node000001_Node000002" class="edge">
<title>Node1&#45;&gt;Node2</title>
<g id="a_edge1_Node000001_Node000002"><a xlink:title=" ">
<path fill="none" stroke="#63b8ff" d="M1795.01,-93.81C1492.41,-89.26 463.36,-71.21 136.5,-32 129.42,-31.15 122,-29.97 114.72,-28.64"/>
<polygon fill="#63b8ff" stroke="#63b8ff" points="115.43,-25.22 104.95,-26.75 114.1,-32.09 115.43,-25.22"/>
</a>
</g>
</g>
<!-- Node3 -->
<g id="Node000003" class="node">
<title>Node3</title>
<g id="a_Node000003"><a xlink:title=" ">
<polygon fill="#e0e0e0" stroke="#999999" points="233.88,-26 145.12,-26 145.12,-6 233.88,-6 233.88,-26"/>
<text text-anchor="middle" x="189.5" y="-12.5" font-family="Helvetica,sans-Serif" font-size="10.00">java.time.Instant</text>
</a>
</g>
</g>
<!-- Node1&#45;&gt;Node3 -->
<g id="edge2_Node000001_Node000003" class="edge">
<title>Node1&#45;&gt;Node3</title>
<g id="a_edge2_Node000001_Node000003"><a xlink:title=" ">
<path fill="none" stroke="#63b8ff" d="M1794.88,-94.34C1504.08,-91.65 546.99,-79.33 243.5,-32 238.9,-31.28 234.14,-30.31 229.43,-29.2"/>
<polygon fill="#63b8ff" stroke="#63b8ff" points="230.68,-25.91 220.12,-26.81 228.93,-32.69 230.68,-25.91"/>
</a>
</g>
</g>
<!-- Node4 -->
<g id="Node000004" class="node">
<title>Node4</title>
<g id="a_Node000004"><a xlink:title=" ">
<polygon fill="#e0e0e0" stroke="#999999" points="346.88,-26 252.12,-26 252.12,-6 346.88,-6 346.88,-26"/>
<text text-anchor="middle" x="299.5" y="-12.5" font-family="Helvetica,sans-Serif" font-size="10.00">java.util.HashMap</text>
</a>
</g>
</g>
<!-- Node1&#45;&gt;Node4 -->
<g id="edge3_Node000001_Node000004" class="edge">
<title>Node1&#45;&gt;Node4</title>
<g id="a_edge3_Node000001_Node000004"><a xlink:title=" ">
<path fill="none" stroke="#63b8ff" d="M1794.95,-93.96C1517.49,-90.15 636.42,-74.89 355.5,-32 350.8,-31.28 345.93,-30.32 341.1,-29.22"/>
<polygon fill="#63b8ff" stroke="#63b8ff" points="342.07,-25.86 331.52,-26.85 340.39,-32.65 342.07,-25.86"/>
</a>
</g>
</g>
<!-- Node5 -->
<g id="Node000005" class="node">
<title>Node5</title>
<g id="a_Node000005"><a xlink:title=" ">
<polygon fill="#e0e0e0" stroke="#999999" points="446.12,-26 364.88,-26 364.88,-6 446.12,-6 446.12,-26"/>
<text text-anchor="middle" x="405.5" y="-12.5" font-family="Helvetica,sans-Serif" font-size="10.00">java.util.Locale</text>
</a>
</g>
</g>
<!-- Node1&#45;&gt;Node5 -->
<g id="edge4_Node000001_Node000005" class="edge">
<title>Node1&#45;&gt;Node5</title>
<g id="a_edge4_Node000001_Node000005"><a xlink:title=" ">
<path fill="none" stroke="#63b8ff" d="M1795.33,-94.07C1530.22,-90.69 714.71,-76.83 454.5,-32 450.7,-31.35 446.79,-30.48 442.9,-29.5"/>
<polygon fill="#63b8ff" stroke="#63b8ff" points="444.19,-26.23 433.62,-26.9 442.31,-32.97 444.19,-26.23"/>
</a>
</g>
</g>
<!-- Node6 -->
<g id="Node000006" class="node">
<title>Node6</title>
<g id="a_Node000006"><a xlink:title=" ">
<polygon fill="#e0e0e0" stroke="#999999" points="535.25,-26 463.75,-26 463.75,-6 535.25,-6 535.25,-26"/>
<text text-anchor="middle" x="499.5" y="-12.5" font-family="Helvetica,sans-Serif" font-size="10.00">java.util.Map</text>
</a>
</g>
</g>
<!-- Node1&#45;&gt;Node6 -->
<g id="edge5_Node000001_Node000006" class="edge">
<title>Node1&#45;&gt;Node6</title>
<g id="a_edge5_Node000001_Node000006"><a xlink:title=" ">
<path fill="none" stroke="#63b8ff" d="M1795.27,-94.04C1541.36,-90.68 785.99,-77.06 544.5,-32 541.31,-31.41 538.04,-30.64 534.79,-29.77"/>
<polygon fill="#63b8ff" stroke="#63b8ff" points="535.97,-26.47 525.38,-26.93 533.95,-33.17 535.97,-26.47"/>
</a>
</g>
</g>
<!-- Node7 -->
<g id="Node000007" class="node">
<title>Node7</title>
<g id="a_Node000007"><a xlink:title=" ">
<polygon fill="#e0e0e0" stroke="#999999" points="679.25,-26 553.75,-26 553.75,-6 679.25,-6 679.25,-26"/>
<text text-anchor="middle" x="616.5" y="-12.5" font-family="Helvetica,sans-Serif" font-size="10.00">java.util.function.Supplier</text>
</a>
</g>
</g>
<!-- Node1&#45;&gt;Node7 -->
<g id="edge6_Node000001_Node000007" class="edge">
<title>Node1&#45;&gt;Node7</title>
<g id="a_edge6_Node000001_Node000007"><a xlink:title=" ">
<path fill="none" stroke="#63b8ff" d="M1794.99,-94.94C1599.44,-93.85 1100.97,-85.56 688.5,-32 681.69,-31.12 674.55,-29.94 667.54,-28.63"/>
<polygon fill="#63b8ff" stroke="#63b8ff" points="668.28,-25.21 657.79,-26.71 666.92,-32.08 668.28,-25.21"/>
</a>
</g>
</g>
<!-- Node8 -->
<g id="Node000008" class="node">
<title>Node8</title>
<g id="a_Node000008"><a xlink:title=" ">
<polygon fill="#e0e0e0" stroke="#999999" points="831.38,-32 697.62,-32 697.62,0 831.38,0 831.38,-32"/>
<text text-anchor="start" x="705.62" y="-18.5" font-family="Helvetica,sans-Serif" font-size="10.00">javafx.beans.binding.String</text>
<text text-anchor="middle" x="764.5" y="-6.5" font-family="Helvetica,sans-Serif" font-size="10.00">Binding</text>
</a>
</g>
</g>
<!-- Node1&#45;&gt;Node8 -->
<g id="edge7_Node000001_Node000008" class="edge">
<title>Node1&#45;&gt;Node8</title>
<g id="a_edge7_Node000001_Node000008"><a xlink:title=" ">
<path fill="none" stroke="#63b8ff" d="M1794.97,-93.72C1619.32,-90.21 1202.04,-77.55 842.97,-32.2"/>
<polygon fill="#63b8ff" stroke="#63b8ff" points="843.42,-28.73 833.06,-30.93 842.54,-35.67 843.42,-28.73"/>
</a>
</g>
</g>
<!-- Node9 -->
<g id="Node000009" class="node">
<title>Node9</title>
<g id="a_Node000009"><a xlink:title=" ">
<polygon fill="#e0e0e0" stroke="#999999" points="989.75,-32 849.25,-32 849.25,0 989.75,0 989.75,-32"/>
<text text-anchor="start" x="857.25" y="-18.5" font-family="Helvetica,sans-Serif" font-size="10.00">javafx.beans.property.Object</text>
<text text-anchor="middle" x="919.5" y="-6.5" font-family="Helvetica,sans-Serif" font-size="10.00">Property</text>
</a>
</g>
</g>
<!-- Node1&#45;&gt;Node9 -->
<g id="edge8_Node000001_Node000009" class="edge">
<title>Node1&#45;&gt;Node9</title>
<g id="a_edge8_Node000001_Node000009"><a xlink:title=" ">
<path fill="none" stroke="#63b8ff" d="M1795.05,-92.23C1639.68,-86.41 1297.97,-70.3 1001.06,-32.24"/>
<polygon fill="#63b8ff" stroke="#63b8ff" points="1001.94,-28.83 991.57,-31.01 1001.04,-35.77 1001.94,-28.83"/>
</a>
</g>
</g>
<!-- Node10 -->
<g id="Node000010" class="node">
<title>Node10</title>
<g id="a_Node000010"><a xlink:title=" ">
<polygon fill="#e0e0e0" stroke="#999999" points="1149.5,-32 1007.5,-32 1007.5,0 1149.5,0 1149.5,-32"/>
<text text-anchor="start" x="1015.5" y="-18.5" font-family="Helvetica,sans-Serif" font-size="10.00">javafx.beans.property.Simple</text>
<text text-anchor="middle" x="1078.5" y="-6.5" font-family="Helvetica,sans-Serif" font-size="10.00">ObjectProperty</text>
</a>
</g>
</g>
<!-- Node1&#45;&gt;Node10 -->
<g id="edge9_Node000001_Node000010" class="edge">
<title>Node1&#45;&gt;Node10</title>
<g id="a_edge9_Node000001_Node000010"><a xlink:title=" ">
<path fill="none" stroke="#63b8ff" d="M1795.11,-90.32C1662.29,-82.36 1396.19,-64.01 1161.14,-32.28"/>
<polygon fill="#63b8ff" stroke="#63b8ff" points="1161.85,-28.85 1151.47,-30.97 1160.91,-35.78 1161.85,-28.85"/>
</a>
</g>
</g>
<!-- Node11 -->
<g id="Node000011" class="node">
<title>Node11</title>
<g id="a_Node000011"><a xlink:title=" ">
<polygon fill="#e0e0e0" stroke="#999999" points="1327.5,-26 1167.5,-26 1167.5,-6 1327.5,-6 1327.5,-26"/>
<text text-anchor="middle" x="1247.5" y="-12.5" font-family="Helvetica,sans-Serif" font-size="10.00">javafx.collections.ObservableList</text>
</a>
</g>
</g>
<!-- Node1&#45;&gt;Node11 -->
<g id="edge10_Node000001_Node000011" class="edge">
<title>Node1&#45;&gt;Node11</title>
<g id="a_edge10_Node000001_Node000011"><a xlink:title=" ">
<path fill="none" stroke="#63b8ff" d="M1795.14,-86.57C1688.23,-75.58 1498.34,-55.01 1336.5,-32 1328.7,-30.89 1320.53,-29.64 1312.43,-28.34"/>
<polygon fill="#63b8ff" stroke="#63b8ff" points="1313.01,-24.89 1302.58,-26.73 1311.88,-31.8 1313.01,-24.89"/>
</a>
</g>
</g>
<!-- Node12 -->
<g id="Node000012" class="node">
<title>Node12</title>
<g id="a_Node000012"><a xlink:title=" ">
<polygon fill="#e0e0e0" stroke="#999999" points="1487.5,-26 1345.5,-26 1345.5,-6 1487.5,-6 1487.5,-26"/>
<text text-anchor="middle" x="1416.5" y="-12.5" font-family="Helvetica,sans-Serif" font-size="10.00">org.junit.jupiter.api.AfterEach</text>
</a>
</g>
</g>
<!-- Node1&#45;&gt;Node12 -->
<g id="edge11_Node000001_Node000012" class="edge">
<title>Node1&#45;&gt;Node12</title>
<g id="a_edge11_Node000001_Node000012"><a xlink:title=" ">
<path fill="none" stroke="#63b8ff" d="M1794.98,-81.65C1717.31,-69.25 1599.04,-50.04 1496.5,-32 1490.17,-30.89 1483.56,-29.69 1476.98,-28.49"/>
<polygon fill="#63b8ff" stroke="#63b8ff" points="1477.93,-25.1 1467.46,-26.73 1476.66,-31.99 1477.93,-25.1"/>
</a>
</g>
</g>
<!-- Node13 -->
<g id="Node000013" class="node">
<title>Node13</title>
<g id="a_Node000013"><a xlink:title=" ">
<polygon fill="#e0e0e0" stroke="#999999" points="1655.25,-26 1505.75,-26 1505.75,-6 1655.25,-6 1655.25,-26"/>
<text text-anchor="middle" x="1580.5" y="-12.5" font-family="Helvetica,sans-Serif" font-size="10.00">org.junit.jupiter.api.BeforeEach</text>
</a>
</g>
</g>
<!-- Node1&#45;&gt;Node13 -->
<g id="edge12_Node000001_Node000013" class="edge">
<title>Node1&#45;&gt;Node13</title>
<g id="a_edge12_Node000001_Node000013"><a xlink:title=" ">
<path fill="none" stroke="#63b8ff" d="M1795.02,-72.96C1740.85,-58.83 1672.53,-41.01 1627.73,-29.32"/>
<polygon fill="#63b8ff" stroke="#63b8ff" points="1628.62,-25.94 1618.06,-26.8 1626.85,-32.71 1628.62,-25.94"/>
</a>
</g>
</g>
<!-- Node14 -->
<g id="Node000014" class="node">
<title>Node14</title>
<g id="a_Node000014"><a xlink:title=" ">
<polygon fill="#e0e0e0" stroke="#999999" points="1790.12,-26 1672.88,-26 1672.88,-6 1790.12,-6 1790.12,-26"/>
<text text-anchor="middle" x="1731.5" y="-12.5" font-family="Helvetica,sans-Serif" font-size="10.00">org.junit.jupiter.api.Test</text>
</a>
</g>
</g>
<!-- Node1&#45;&gt;Node14 -->
<g id="edge13_Node000001_Node000014" class="edge">
<title>Node1&#45;&gt;Node14</title>
<g id="a_edge13_Node000001_Node000014"><a xlink:title=" ">
<path fill="none" stroke="#63b8ff" d="M1827.32,-67.5C1804.54,-55.49 1778.72,-41.89 1759.63,-31.82"/>
<polygon fill="#63b8ff" stroke="#63b8ff" points="1761.33,-28.76 1750.85,-27.2 1758.06,-34.96 1761.33,-28.76"/>
</a>
</g>
</g>
<!-- Node15 -->
<g id="Node000015" class="node">
<title>Node15</title>
<g id="a_Node000015"><a xlink:title=" ">
<polygon fill="#e0e0e0" stroke="#999999" points="1951.25,-32 1807.75,-32 1807.75,0 1951.25,0 1951.25,-32"/>
<text text-anchor="start" x="1815.75" y="-18.5" font-family="Helvetica,sans-Serif" font-size="10.00">org.junit.jupiter.api.extension.</text>
<text text-anchor="middle" x="1879.5" y="-6.5" font-family="Helvetica,sans-Serif" font-size="10.00">ExtendWith</text>
</a>
</g>
</g>
<!-- Node1&#45;&gt;Node15 -->
<g id="edge14_Node000001_Node000015" class="edge">
<title>Node1&#45;&gt;Node15</title>
<g id="a_edge14_Node000001_Node000015"><a xlink:title=" ">
<path fill="none" stroke="#63b8ff" d="M1879.5,-67.72C1879.5,-59.88 1879.5,-51.34 1879.5,-43.54"/>
<polygon fill="#63b8ff" stroke="#63b8ff" points="1883,-43.62 1879.5,-33.62 1876,-43.62 1883,-43.62"/>
</a>
</g>
</g>
<!-- Node16 -->
<g id="Node000016" class="node">
<title>Node16</title>
<g id="a_Node000016"><a xlink:title=" ">
<polygon fill="#e0e0e0" stroke="#999999" points="2104.12,-32 1968.88,-32 1968.88,0 2104.12,0 2104.12,-32"/>
<text text-anchor="start" x="1976.88" y="-18.5" font-family="Helvetica,sans-Serif" font-size="10.00">org.testfx.framework.junit5.</text>
<text text-anchor="middle" x="2036.5" y="-6.5" font-family="Helvetica,sans-Serif" font-size="10.00">ApplicationExtension</text>
</a>
</g>
</g>
<!-- Node1&#45;&gt;Node16 -->
<g id="edge15_Node000001_Node000016" class="edge">
<title>Node1&#45;&gt;Node16</title>
<g id="a_edge15_Node000001_Node000016"><a xlink:title=" ">
<path fill="none" stroke="#63b8ff" d="M1934.85,-67.5C1954.72,-57.63 1976.77,-46.68 1995.23,-37.5"/>
<polygon fill="#63b8ff" stroke="#63b8ff" points="1996.61,-40.72 2004.01,-33.14 1993.5,-34.46 1996.61,-40.72"/>
</a>
</g>
</g>
<!-- Node17 -->
<g id="Node000017" class="node">
<title>Node17</title>
<g id="a_Node000017"><a xlink:title=" ">
<polygon fill="#e0e0e0" stroke="#999999" points="2309,-26 2122,-26 2122,-6 2309,-6 2309,-26"/>
<text text-anchor="middle" x="2215.5" y="-12.5" font-family="Helvetica,sans-Serif" font-size="10.00">fr.softsf.sudokufx.common.enums.I18n</text>
</a>
</g>
</g>
<!-- Node1&#45;&gt;Node17 -->
<g id="edge16_Node000001_Node000017" class="edge">
<title>Node1&#45;&gt;Node17</title>
<g id="a_edge16_Node000001_Node000017"><a xlink:title=" ">
<path fill="none" stroke="#63b8ff" d="M1963.85,-75.42C2026.7,-60.83 2110.51,-41.37 2163.75,-29.01"/>
<polygon fill="#63b8ff" stroke="#63b8ff" points="2164.53,-32.42 2173.48,-26.75 2162.95,-25.61 2164.53,-32.42"/>
</a>
</g>
</g>
<!-- Node18 -->
<g id="Node000018" class="node">
<title>Node18</title>
<g id="a_Node000018"><a xlink:title=" ">
<polygon fill="#e0e0e0" stroke="#999999" points="2478.38,-26 2326.62,-26 2326.62,-6 2478.38,-6 2478.38,-26"/>
<text text-anchor="middle" x="2402.5" y="-12.5" font-family="Helvetica,sans-Serif" font-size="10.00">fr.softsf.sudokufx.dto.MenuDto</text>
</a>
</g>
</g>
<!-- Node1&#45;&gt;Node18 -->
<g id="edge17_Node000001_Node000018" class="edge">
<title>Node1&#45;&gt;Node18</title>
<g id="a_edge17_Node000001_Node000018"><a xlink:title=" ">
<path fill="none" stroke="#63b8ff" d="M1963.79,-83.77C2052.26,-71.79 2195.35,-51.83 2318.5,-32 2325.41,-30.89 2332.63,-29.67 2339.81,-28.44"/>
<polygon fill="#63b8ff" stroke="#63b8ff" points="2340.28,-31.91 2349.53,-26.74 2339.07,-25.01 2340.28,-31.91"/>
</a>
</g>
</g>
<!-- Node19 -->
<g id="Node000019" class="node">
<title>Node19</title>
<g id="a_Node000019"><a xlink:title=" ">
<polygon fill="#e0e0e0" stroke="#999999" points="2658.25,-26 2496.75,-26 2496.75,-6 2658.25,-6 2658.25,-26"/>
<text text-anchor="middle" x="2577.5" y="-12.5" font-family="Helvetica,sans-Serif" font-size="10.00">fr.softsf.sudokufx.dto.OptionsDto</text>
</a>
</g>
</g>
<!-- Node1&#45;&gt;Node19 -->
<g id="edge18_Node000001_Node000019" class="edge">
<title>Node1&#45;&gt;Node19</title>
<g id="a_edge18_Node000001_Node000019"><a xlink:title=" ">
<path fill="none" stroke="#63b8ff" d="M1963.79,-87.93C2081.34,-77.69 2301.09,-57.17 2487.5,-32 2495.8,-30.88 2504.5,-29.58 2513.09,-28.23"/>
<polygon fill="#63b8ff" stroke="#63b8ff" points="2513.47,-31.72 2522.79,-26.67 2512.36,-24.8 2513.47,-31.72"/>
</a>
</g>
</g>
<!-- Node20 -->
<g id="Node000020" class="node">
<title>Node20</title>
<g id="a_Node000020"><a xlink:title=" ">
<polygon fill="#e0e0e0" stroke="#999999" points="2832.25,-26 2676.75,-26 2676.75,-6 2832.25,-6 2832.25,-26"/>
<text text-anchor="middle" x="2754.5" y="-12.5" font-family="Helvetica,sans-Serif" font-size="10.00">fr.softsf.sudokufx.dto.PlayerDto</text>
</a>
</g>
</g>
<!-- Node1&#45;&gt;Node20 -->
<g id="edge19_Node000001_Node000020" class="edge">
<title>Node1&#45;&gt;Node20</title>
<g id="a_edge19_Node000001_Node000020"><a xlink:title=" ">
<path fill="none" stroke="#63b8ff" d="M1964.01,-90.77C2108.56,-82.97 2412.36,-64.13 2667.5,-32 2675.85,-30.95 2684.63,-29.66 2693.26,-28.28"/>
<polygon fill="#63b8ff" stroke="#63b8ff" points="2693.68,-31.76 2702.98,-26.67 2692.54,-24.85 2693.68,-31.76"/>
</a>
</g>
</g>
<!-- Node21 -->
<g id="Node000021" class="node">
<title>Node21</title>
<g id="a_Node000021"><a xlink:title=" ">
<polygon fill="#e0e0e0" stroke="#999999" points="2990.38,-32 2850.62,-32 2850.62,0 2990.38,0 2990.38,-32"/>
<text text-anchor="start" x="2858.62" y="-18.5" font-family="Helvetica,sans-Serif" font-size="10.00">fr.softsf.sudokufx.dto.Player</text>
<text text-anchor="middle" x="2920.5" y="-6.5" font-family="Helvetica,sans-Serif" font-size="10.00">LanguageDto</text>
</a>
</g>
</g>
<!-- Node1&#45;&gt;Node21 -->
<g id="edge20_Node000001_Node000021" class="edge">
<title>Node1&#45;&gt;Node21</title>
<g id="a_edge20_Node000001_Node000021"><a xlink:title=" ">
<path fill="none" stroke="#63b8ff" d="M1964.12,-92.93C2130.14,-88.12 2510.32,-73.36 2839.17,-32.19"/>
<polygon fill="#63b8ff" stroke="#63b8ff" points="2839.38,-35.69 2848.86,-30.97 2838.5,-28.75 2839.38,-35.69"/>
</a>
</g>
</g>
<!-- Node22 -->
<g id="Node000022" class="node">
<title>Node22</title>
<g id="a_Node000022"><a xlink:title=" ">
<polygon fill="#e0e0e0" stroke="#999999" points="3180.5,-32 3008.5,-32 3008.5,0 3180.5,0 3180.5,-32"/>
<text text-anchor="start" x="3016.5" y="-18.5" font-family="Helvetica,sans-Serif" font-size="10.00">fr.softsf.sudokufx.service.business.</text>
<text text-anchor="middle" x="3094.5" y="-6.5" font-family="Helvetica,sans-Serif" font-size="10.00">PlayerService</text>
</a>
</g>
</g>
<!-- Node1&#45;&gt;Node22 -->
<g id="edge21_Node000001_Node000022" class="edge">
<title>Node1&#45;&gt;Node22</title>
<g id="a_edge21_Node000001_Node000022"><a xlink:title=" ">
<path fill="none" stroke="#63b8ff" d="M1964.03,-93.14C2149.34,-88.44 2605.34,-73.45 2996.81,-32.22"/>
<polygon fill="#63b8ff" stroke="#63b8ff" points="2997,-35.72 3006.58,-31.18 2996.26,-28.76 2997,-35.72"/>
</a>
</g>
</g>
<!-- Node23 -->
<g id="Node000023" class="node">
<title>Node23</title>
<g id="a_Node000023"><a xlink:title=" ">
<polygon fill="#e0e0e0" stroke="#999999" points="3344,-32 3199,-32 3199,0 3344,0 3344,-32"/>
<text text-anchor="start" x="3207" y="-18.5" font-family="Helvetica,sans-Serif" font-size="10.00">fr.softsf.sudokufx.viewmodel.</text>
<text text-anchor="middle" x="3271.5" y="-6.5" font-family="Helvetica,sans-Serif" font-size="10.00">MenuPlayerViewModel</text>
</a>
</g>
</g>
<!-- Node1&#45;&gt;Node23 -->
<g id="edge22_Node000001_Node000023" class="edge">
<title>Node1&#45;&gt;Node23</title>
<g id="a_edge22_Node000001_Node000023"><a xlink:title=" ">
<path fill="none" stroke="#63b8ff" d="M1964.11,-94.82C2171.22,-93.53 2720.24,-85.07 3187.33,-32.13"/>
<polygon fill="#63b8ff" stroke="#63b8ff" points="3187.66,-35.62 3197.19,-31.01 3186.86,-28.67 3187.66,-35.62"/>
</a>
</g>
</g>
<!-- Node24 -->
<g id="Node000024" class="node">
<title>Node24</title>
<g id="a_Node000024"><a xlink:title=" ">
<polygon fill="#e0e0e0" stroke="#999999" points="3531.38,-32 3361.62,-32 3361.62,0 3531.38,0 3531.38,-32"/>
<text text-anchor="start" x="3369.62" y="-18.5" font-family="Helvetica,sans-Serif" font-size="10.00">fr.softsf.sudokufx.viewmodel.state.</text>
<text text-anchor="middle" x="3446.5" y="-6.5" font-family="Helvetica,sans-Serif" font-size="10.00">AbstractPlayerStateTest</text>
</a>
</g>
</g>
<!-- Node1&#45;&gt;Node24 -->
<g id="edge23_Node000001_Node000024" class="edge">
<title>Node1&#45;&gt;Node24</title>
<g id="a_edge23_Node000001_Node000024"><a xlink:title=" ">
<path fill="none" stroke="#63b8ff" d="M1964.08,-94.85C2188.55,-93.7 2817.98,-85.64 3350.04,-32.28"/>
<polygon fill="#63b8ff" stroke="#63b8ff" points="3350.31,-35.77 3359.9,-31.29 3349.6,-28.81 3350.31,-35.77"/>
</a>
</g>
</g>
<!-- Node25 -->
<g id="Node000025" class="node">
<title>Node25</title>
<g id="a_Node000025"><a xlink:title=" ">
<polygon fill="#e0e0e0" stroke="#999999" points="3719.38,-32 3549.62,-32 3549.62,0 3719.38,0 3719.38,-32"/>
<text text-anchor="start" x="3557.62" y="-18.5" font-family="Helvetica,sans-Serif" font-size="10.00">fr.softsf.sudokufx.viewmodel.state.</text>
<text text-anchor="middle" x="3634.5" y="-6.5" font-family="Helvetica,sans-Serif" font-size="10.00">PlayerStateHolder</text>
</a>
</g>
</g>
<!-- Node1&#45;&gt;Node25 -->
<g id="edge24_Node000001_Node000025" class="edge">
<title>Node1&#45;&gt;Node25</title>
<g id="a_edge24_Node000001_Node000025"><a xlink:title=" ">
<path fill="none" stroke="#63b8ff" d="M1964.01,-95.38C2207.17,-95.7 2929.59,-91.29 3538.06,-32.16"/>
<polygon fill="#63b8ff" stroke="#63b8ff" points="3538.13,-35.67 3547.75,-31.21 3537.45,-28.7 3538.13,-35.67"/>
</a>
</g>
</g>
<!-- Node26 -->
<g id="Node000026" class="node">
<title>Node26</title>
<g id="a_Node000026"><a xlink:title=" ">
<polygon fill="#e0e0e0" stroke="#999999" points="3889.38,-26 3737.62,-26 3737.62,-6 3889.38,-6 3889.38,-26"/>
<text text-anchor="middle" x="3813.5" y="-12.5" font-family="Helvetica,sans-Serif" font-size="10.00">org.junit.jupiter.api.Assertions.*</text>
</a>
</g>
</g>
<!-- Node1&#45;&gt;Node26 -->
<g id="edge25_Node000001_Node000026" class="edge">
<title>Node1&#45;&gt;Node26</title>
<g id="a_edge25_Node000001_Node000026"><a xlink:title=" ">
<path fill="none" stroke="#63b8ff" d="M1963.9,-93.7C2278.02,-88.63 3379.31,-68.58 3728.5,-32 3737.3,-31.08 3746.57,-29.78 3755.61,-28.34"/>
<polygon fill="#63b8ff" stroke="#63b8ff" points="3756.13,-31.8 3765.41,-26.69 3754.97,-24.9 3756.13,-31.8"/>
</a>
</g>
</g>
<!-- Node27 -->
<g id="Node000027" class="node">
<title>Node27</title>
<g id="a_Node000027"><a xlink:title=" ">
<polygon fill="#e0e0e0" stroke="#999999" points="4039.25,-26 3907.75,-26 3907.75,-6 4039.25,-6 4039.25,-26"/>
<text text-anchor="middle" x="3973.5" y="-12.5" font-family="Helvetica,sans-Serif" font-size="10.00">org.mockito.Mockito.mock</text>
</a>
</g>
</g>
<!-- Node1&#45;&gt;Node27 -->
<g id="edge26_Node000001_Node000027" class="edge">
<title>Node1&#45;&gt;Node27</title>
<g id="a_edge26_Node000001_Node000027"><a xlink:title=" ">
<path fill="none" stroke="#63b8ff" d="M1963.89,-94.24C2296.17,-90.94 3514.71,-76.06 3898.5,-32 3905.86,-31.16 3913.57,-29.97 3921.13,-28.62"/>
<polygon fill="#63b8ff" stroke="#63b8ff" points="3921.77,-32.07 3930.95,-26.77 3920.47,-25.19 3921.77,-32.07"/>
</a>
</g>
</g>
<!-- Node28 -->
<g id="Node000028" class="node">
<title>Node28</title>
<g id="a_Node000028"><a xlink:title=" ">
<polygon fill="#e0e0e0" stroke="#999999" points="4187.88,-26 4057.12,-26 4057.12,-6 4187.88,-6 4187.88,-26"/>
<text text-anchor="middle" x="4122.5" y="-12.5" font-family="Helvetica,sans-Serif" font-size="10.00">org.mockito.Mockito.when</text>
</a>
</g>
</g>
<!-- Node1&#45;&gt;Node28 -->
<g id="edge27_Node000001_Node000028" class="edge">
<title>Node1&#45;&gt;Node28</title>
<g id="a_edge27_Node000001_Node000028"><a xlink:title=" ">
<path fill="none" stroke="#63b8ff" d="M1963.89,-94.48C2311.51,-92.03 3633.78,-79.7 4048.5,-32 4055.85,-31.15 4063.56,-29.95 4071.11,-28.59"/>
<polygon fill="#63b8ff" stroke="#63b8ff" points="4071.72,-32.04 4080.89,-26.72 4070.41,-25.16 4071.72,-32.04"/>
</a>
</g>
</g>
</g>
</svg>

<g id="navigator" transform="translate(0 0)" fill="#404254">
  <rect fill="#f2f5e9" fill-opacity="0.5" stroke="#606060" stroke-width=".5" x="0" y="0" width="60" height="60"/>
  <use id="zoomplus" xlink:href="#zoomPlus" x="17" y="9" onmousedown="handleZoom(evt,'in')"/>
  <use id="zoomminus" xlink:href="#zoomMin" x="42" y="9" onmousedown="handleZoom(evt,'out')"/>
  <use id="reset" xlink:href="#resetDef" x="30" y="36" onmousedown="handleReset()"/>
   <use id="arrowup" xlink:href="#arrowUp" x="0" y="0" onmousedown="handlePan(0,-1)"/>
  <use id="arrowright" xlink:href="#arrowRight" x="0" y="0" onmousedown="handlePan(1,0)"/>
  <use id="arrowdown" xlink:href="#arrowDown" x="0" y="0" onmousedown="handlePan(0,1)"/>
  <use id="arrowleft" xlink:href="#arrowLeft" x="0" y="0" onmousedown="handlePan(-1,0)"/>
</g>
<svg viewBox="0 0 15 15" width="100%" height="30px" preserveAspectRatio="xMaxYMin meet">
 <g id="arrow_out" transform="scale(0.3 0.3)">
  <a xlink:href="_menu_player_view_model_u_test_8java__incl_org.svg" target="_base">
   <rect id="button" ry="5" rx="5" y="6" x="6" height="38" width="38"
        fill="#f2f5e9" fill-opacity="0.5" stroke="#606060" stroke-width="1.0"/>
   <path id="arrow"
     d="M 11.500037,31.436501 C 11.940474,20.09759 22.043105,11.32322 32.158766,21.979434 L 37.068811,17.246167 C 37.068811,17.246167 37.088388,32 37.088388,32 L 22.160133,31.978069 C 22.160133,31.978069 26.997745,27.140456 26.997745,27.140456 C 18.528582,18.264221 13.291696,25.230495 11.500037,31.436501 z"
     style="fill:#404040;"/>
  </a>
 </g>
</svg>

<style type='text/css'>
<![CDATA[
[data-mouse-over-selected='false'] { opacity: 0.7; }
[data-mouse-over-selected='true']  { opacity: 1.0; }
]]>
</style>
<script type="application/ecmascript"><![CDATA[
document.addEventListener('DOMContentLoaded', (event) => {
  highlightEdges();
  highlightAdjacentNodes();
});
]]></script>
</svg>
