<?xml version="1.0" encoding="UTF-8" standalone="no"?>
<!DOCTYPE svg PUBLIC "-//W3C//DTD SVG 1.1//EN"
 "http://www.w3.org/Graphics/SVG/1.1/DTD/svg11.dtd">
<!-- Generated by graphviz version 12.2.1 (20241206.2353)
 -->
<!-- Title: src/main/java/fr/softsf/sudokufx/viewmodel/MenuOptionsViewModel.java Pages: 1 -->
<!--zoomable 120 -->

<svg id="main" version="1.1" xmlns="http://www.w3.org/2000/svg" xmlns:xlink="http://www.w3.org/1999/xlink" xml:space="preserve" onload="init(evt)">

<style type="text/css"><![CDATA[
.node, .edge {opacity: 0.7;}
.node.selected, .edge.selected {opacity: 1;}
.edge:hover path { stroke: red; }
.edge:hover polygon { stroke: red; fill: red; }
]]></style>

<defs>
  <circle id="rim" cx="0" cy="0" r="7"/>
  <circle id="rim2" cx="0" cy="0" r="3.5"/>
  <g id="zoomPlus">
    <use xlink:href="#rim" fill="#404040"><set attributeName="fill" to="#808080" begin="zoomplus.mouseover" end="zoomplus.mouseout"/></use>
    <path d="M-4,0h8M0,-4v8" fill="none" stroke="white" stroke-width="1.5" pointer-events="none"/>
  </g>
  <g id="zoomMin">
    <use xlink:href="#rim" fill="#404040"><set attributeName="fill" to="#808080" begin="zoomminus.mouseover" end="zoomminus.mouseout"/></use>
    <path d="M-4,0h8" fill="none" stroke="white" stroke-width="1.5" pointer-events="none"/>
  </g>
  <g id="arrowUp" transform="translate(30 24)">
    <use xlink:href="#rim"/>
    <path pointer-events="none" fill="none" stroke="white" stroke-width="1.5" d="M0,-3.0v7 M-2.5,-0.5L0,-3.0L2.5,-0.5"/>
  </g>
  <g id="arrowRight" transform="rotate(90) translate(36 -43)">
    <use xlink:href="#rim"/>
    <path pointer-events="none" fill="none" stroke="white" stroke-width="1.5" d="M0,-3.0v7 M-2.5,-0.5L0,-3.0L2.5,-0.5"/>
  </g>
  <g id="arrowDown" transform="rotate(180) translate(-30 -48)">
    <use xlink:href="#rim"/>
    <path pointer-events="none" fill="none" stroke="white" stroke-width="1.5" d="M0,-3.0v7 M-2.5,-0.5L0,-3.0L2.5,-0.5"/>
  </g>
  <g id="arrowLeft" transform="rotate(270) translate(-36 17)">
    <use xlink:href="#rim"/>
    <path pointer-events="none" fill="none" stroke="white" stroke-width="1.5" d="M0,-3.0v7 M-2.5,-0.5L0,-3.0L2.5,-0.5"/>
  </g>
  <g id="resetDef">
    <use xlink:href="#rim2" fill="#404040"><set attributeName="fill" to="#808080" begin="reset.mouseover" end="reset.mouseout"/></use>
  </g>
</defs>
<script type="application/ecmascript">
var viewWidth = 5672;
var viewHeight = 120;
var sectionId = 'dynsection-0';
</script>
<script type="application/ecmascript" xlink:href="svg.min.js"/>
<svg id="graph" class="graph">
<g id="viewport">
<title>src/main/java/fr/softsf/sudokufx/viewmodel/MenuOptionsViewModel.java</title>
<!-- Node1 -->
<g id="Node000001" class="node">
<title>Node1</title>
<g id="a_Node000001"><a xlink:title=" ">
<polygon fill="#999999" stroke="#666666" points="2697.12,-112 2528.12,-112 2528.12,-68 2697.12,-68 2697.12,-112"/>
<text text-anchor="start" x="2536.12" y="-98.5" font-family="Helvetica,sans-Serif" font-size="10.00">src/main/java/fr/softsf</text>
<text text-anchor="start" x="2536.12" y="-86.5" font-family="Helvetica,sans-Serif" font-size="10.00">/sudokufx/viewmodel/MenuOptions</text>
<text text-anchor="middle" x="2612.62" y="-74.5" font-family="Helvetica,sans-Serif" font-size="10.00">ViewModel.java</text>
</a>
</g>
</g>
<!-- Node2 -->
<g id="Node000002" class="node">
<title>Node2</title>
<g id="a_Node000002"><a xlink:title=" ">
<polygon fill="#e0e0e0" stroke="#999999" points="63.25,-26 0,-26 0,-6 63.25,-6 63.25,-26"/>
<text text-anchor="middle" x="31.62" y="-12.5" font-family="Helvetica,sans-Serif" font-size="10.00">java.io.File</text>
</a>
</g>
</g>
<!-- Node1&#45;&gt;Node2 -->
<g id="edge1_Node000001_Node000002" class="edge">
<title>Node1&#45;&gt;Node2</title>
<g id="a_edge1_Node000001_Node000002"><a xlink:title=" ">
<path fill="none" stroke="#63b8ff" d="M2527.97,-88.75C2114.55,-87.28 317.85,-78.29 72.62,-32 69.82,-31.47 66.96,-30.77 64.11,-29.97"/>
<polygon fill="#63b8ff" stroke="#63b8ff" points="65.41,-26.71 54.82,-26.93 63.23,-33.36 65.41,-26.71"/>
</a>
</g>
</g>
<!-- Node3 -->
<g id="Node000003" class="node">
<title>Node3</title>
<g id="a_Node000003"><a xlink:title=" ">
<polygon fill="#e0e0e0" stroke="#999999" points="175.62,-26 81.62,-26 81.62,-6 175.62,-6 175.62,-26"/>
<text text-anchor="middle" x="128.62" y="-12.5" font-family="Helvetica,sans-Serif" font-size="10.00">java.nio.file.Paths</text>
</a>
</g>
</g>
<!-- Node1&#45;&gt;Node3 -->
<g id="edge2_Node000001_Node000003" class="edge">
<title>Node1&#45;&gt;Node3</title>
<g id="a_edge2_Node000001_Node000003"><a xlink:title=" ">
<path fill="none" stroke="#63b8ff" d="M2527.8,-88.21C2125.55,-84.29 419.98,-65.79 184.62,-32 179.67,-31.29 174.53,-30.29 169.46,-29.14"/>
<polygon fill="#63b8ff" stroke="#63b8ff" points="170.59,-25.81 160.05,-26.8 168.91,-32.61 170.59,-25.81"/>
</a>
</g>
</g>
<!-- Node4 -->
<g id="Node000004" class="node">
<title>Node4</title>
<g id="a_Node000004"><a xlink:title=" ">
<polygon fill="#e0e0e0" stroke="#999999" points="321.12,-26 194.12,-26 194.12,-6 321.12,-6 321.12,-26"/>
<text text-anchor="middle" x="257.62" y="-12.5" font-family="Helvetica,sans-Serif" font-size="10.00">java.text.MessageFormat</text>
</a>
</g>
</g>
<!-- Node1&#45;&gt;Node4 -->
<g id="edge3_Node000001_Node000004" class="edge">
<title>Node1&#45;&gt;Node4</title>
<g id="a_edge3_Node000001_Node000004"><a xlink:title=" ">
<path fill="none" stroke="#63b8ff" d="M2527.82,-88.9C2168.32,-88.16 768.54,-82.06 330.62,-32 323.37,-31.17 315.76,-29.98 308.32,-28.62"/>
<polygon fill="#63b8ff" stroke="#63b8ff" points="309.17,-25.22 298.69,-26.75 307.84,-32.09 309.17,-25.22"/>
</a>
</g>
</g>
<!-- Node5 -->
<g id="Node000005" class="node">
<title>Node5</title>
<g id="a_Node000005"><a xlink:title=" ">
<polygon fill="#e0e0e0" stroke="#999999" points="425.88,-26 339.38,-26 339.38,-6 425.88,-6 425.88,-26"/>
<text text-anchor="middle" x="382.62" y="-12.5" font-family="Helvetica,sans-Serif" font-size="10.00">java.util.Objects</text>
</a>
</g>
</g>
<!-- Node1&#45;&gt;Node5 -->
<g id="edge4_Node000001_Node000005" class="edge">
<title>Node1&#45;&gt;Node5</title>
<g id="a_edge4_Node000001_Node000005"><a xlink:title=" ">
<path fill="none" stroke="#63b8ff" d="M2527.91,-88.06C2151.96,-83.71 643.78,-64.36 434.62,-32 430.26,-31.32 425.74,-30.39 421.28,-29.32"/>
<polygon fill="#63b8ff" stroke="#63b8ff" points="422.42,-26 411.86,-26.81 420.63,-32.77 422.42,-26"/>
</a>
</g>
</g>
<!-- Node6 -->
<g id="Node000006" class="node">
<title>Node6</title>
<g id="a_Node000006"><a xlink:title=" ">
<polygon fill="#e0e0e0" stroke="#999999" points="569.38,-26 443.88,-26 443.88,-6 569.38,-6 569.38,-26"/>
<text text-anchor="middle" x="506.62" y="-12.5" font-family="Helvetica,sans-Serif" font-size="10.00">java.util.function.Supplier</text>
</a>
</g>
</g>
<!-- Node1&#45;&gt;Node6 -->
<g id="edge5_Node000001_Node000006" class="edge">
<title>Node1&#45;&gt;Node6</title>
<g id="a_edge5_Node000001_Node000006"><a xlink:title=" ">
<path fill="none" stroke="#63b8ff" d="M2527.88,-88.63C2193.51,-86.85 965.23,-77.32 578.62,-32 571.55,-31.17 564.14,-29.99 556.88,-28.65"/>
<polygon fill="#63b8ff" stroke="#63b8ff" points="557.63,-25.23 547.14,-26.74 556.28,-32.1 557.63,-25.23"/>
</a>
</g>
</g>
<!-- Node7 -->
<g id="Node000007" class="node">
<title>Node7</title>
<g id="a_Node000007"><a xlink:title=" ">
<polygon fill="#e0e0e0" stroke="#999999" points="711.62,-26 587.62,-26 587.62,-6 711.62,-6 711.62,-26"/>
<text text-anchor="middle" x="649.62" y="-12.5" font-family="Helvetica,sans-Serif" font-size="10.00">javafx.beans.Observable</text>
</a>
</g>
</g>
<!-- Node1&#45;&gt;Node7 -->
<g id="edge6_Node000001_Node000007" class="edge">
<title>Node1&#45;&gt;Node7</title>
<g id="a_edge6_Node000001_Node000007"><a xlink:title=" ">
<path fill="none" stroke="#63b8ff" d="M2527.87,-88.45C2208.52,-86.08 1077.91,-74.78 720.62,-32 713.65,-31.16 706.34,-29.98 699.18,-28.64"/>
<polygon fill="#63b8ff" stroke="#63b8ff" points="700.08,-25.25 689.59,-26.73 698.71,-32.12 700.08,-25.25"/>
</a>
</g>
</g>
<!-- Node8 -->
<g id="Node000008" class="node">
<title>Node8</title>
<g id="a_Node000008"><a xlink:title=" ">
<polygon fill="#e0e0e0" stroke="#999999" points="875.5,-26 729.75,-26 729.75,-6 875.5,-6 875.5,-26"/>
<text text-anchor="middle" x="802.62" y="-12.5" font-family="Helvetica,sans-Serif" font-size="10.00">javafx.beans.binding.Bindings</text>
</a>
</g>
</g>
<!-- Node1&#45;&gt;Node8 -->
<g id="edge7_Node000001_Node000008" class="edge">
<title>Node1&#45;&gt;Node8</title>
<g id="a_edge7_Node000001_Node000008"><a xlink:title=" ">
<path fill="none" stroke="#63b8ff" d="M2527.86,-87.87C2226.65,-83.58 1208.72,-66.79 884.62,-32 876.22,-31.1 867.38,-29.83 858.75,-28.4"/>
<polygon fill="#63b8ff" stroke="#63b8ff" points="859.51,-24.98 849.05,-26.72 858.31,-31.88 859.51,-24.98"/>
</a>
</g>
</g>
<!-- Node9 -->
<g id="Node000009" class="node">
<title>Node9</title>
<g id="a_Node000009"><a xlink:title=" ">
<polygon fill="#e0e0e0" stroke="#999999" points="1027.5,-32 893.75,-32 893.75,0 1027.5,0 1027.5,-32"/>
<text text-anchor="start" x="901.75" y="-18.5" font-family="Helvetica,sans-Serif" font-size="10.00">javafx.beans.binding.String</text>
<text text-anchor="middle" x="960.62" y="-6.5" font-family="Helvetica,sans-Serif" font-size="10.00">Binding</text>
</a>
</g>
</g>
<!-- Node1&#45;&gt;Node9 -->
<g id="edge8_Node000001_Node000009" class="edge">
<title>Node1&#45;&gt;Node9</title>
<g id="a_edge8_Node000001_Node000009"><a xlink:title=" ">
<path fill="none" stroke="#63b8ff" d="M2527.79,-87.71C2247.47,-83.17 1351.57,-66.38 1038.99,-32.11"/>
<polygon fill="#63b8ff" stroke="#63b8ff" points="1039.5,-28.65 1029.17,-31 1038.72,-35.6 1039.5,-28.65"/>
</a>
</g>
</g>
<!-- Node10 -->
<g id="Node000010" class="node">
<title>Node10</title>
<g id="a_Node000010"><a xlink:title=" ">
<polygon fill="#e0e0e0" stroke="#999999" points="1185.88,-32 1045.38,-32 1045.38,0 1185.88,0 1185.88,-32"/>
<text text-anchor="start" x="1053.38" y="-18.5" font-family="Helvetica,sans-Serif" font-size="10.00">javafx.beans.property.Object</text>
<text text-anchor="middle" x="1115.62" y="-6.5" font-family="Helvetica,sans-Serif" font-size="10.00">Property</text>
</a>
</g>
</g>
<!-- Node1&#45;&gt;Node10 -->
<g id="edge9_Node000001_Node000010" class="edge">
<title>Node1&#45;&gt;Node10</title>
<g id="a_edge9_Node000001_Node000010"><a xlink:title=" ">
<path fill="none" stroke="#63b8ff" d="M2527.64,-87.23C2266.52,-81.53 1477.15,-62.34 1197.51,-32.19"/>
<polygon fill="#63b8ff" stroke="#63b8ff" points="1198.01,-28.72 1187.69,-31.1 1197.24,-35.68 1198.01,-28.72"/>
</a>
</g>
</g>
<!-- Node11 -->
<g id="Node000011" class="node">
<title>Node11</title>
<g id="a_Node000011"><a xlink:title=" ">
<polygon fill="#e0e0e0" stroke="#999999" points="1339.25,-32 1204,-32 1204,0 1339.25,0 1339.25,-32"/>
<text text-anchor="start" x="1212" y="-18.5" font-family="Helvetica,sans-Serif" font-size="10.00">javafx.beans.property.Read</text>
<text text-anchor="middle" x="1271.62" y="-6.5" font-family="Helvetica,sans-Serif" font-size="10.00">OnlyBooleanProperty</text>
</a>
</g>
</g>
<!-- Node1&#45;&gt;Node11 -->
<g id="edge10_Node000001_Node000011" class="edge">
<title>Node1&#45;&gt;Node11</title>
<g id="a_edge10_Node000001_Node000011"><a xlink:title=" ">
<path fill="none" stroke="#63b8ff" d="M2527.88,-89.55C2325.57,-89.93 1798.45,-85.35 1350.72,-32.26"/>
<polygon fill="#63b8ff" stroke="#63b8ff" points="1351.35,-28.81 1341,-31.1 1350.51,-35.76 1351.35,-28.81"/>
</a>
</g>
</g>
<!-- Node12 -->
<g id="Node000012" class="node">
<title>Node12</title>
<g id="a_Node000012"><a xlink:title=" ">
<polygon fill="#e0e0e0" stroke="#999999" points="1492.25,-32 1357,-32 1357,0 1492.25,0 1492.25,-32"/>
<text text-anchor="start" x="1365" y="-18.5" font-family="Helvetica,sans-Serif" font-size="10.00">javafx.beans.property.Read</text>
<text text-anchor="middle" x="1424.62" y="-6.5" font-family="Helvetica,sans-Serif" font-size="10.00">OnlyBooleanWrapper</text>
</a>
</g>
</g>
<!-- Node1&#45;&gt;Node12 -->
<g id="edge11_Node000001_Node000012" class="edge">
<title>Node1&#45;&gt;Node12</title>
<g id="a_edge11_Node000001_Node000012"><a xlink:title=" ">
<path fill="none" stroke="#63b8ff" d="M2527.87,-88.8C2343.19,-87.46 1890.65,-79.31 1503.64,-32.27"/>
<polygon fill="#63b8ff" stroke="#63b8ff" points="1504.35,-28.83 1494,-31.08 1503.5,-35.77 1504.35,-28.83"/>
</a>
</g>
</g>
<!-- Node13 -->
<g id="Node000013" class="node">
<title>Node13</title>
<g id="a_Node000013"><a xlink:title=" ">
<polygon fill="#e0e0e0" stroke="#999999" points="1645.25,-32 1510,-32 1510,0 1645.25,0 1645.25,-32"/>
<text text-anchor="start" x="1518" y="-18.5" font-family="Helvetica,sans-Serif" font-size="10.00">javafx.beans.property.Read</text>
<text text-anchor="middle" x="1577.62" y="-6.5" font-family="Helvetica,sans-Serif" font-size="10.00">OnlyStringWrapper</text>
</a>
</g>
</g>
<!-- Node1&#45;&gt;Node13 -->
<g id="edge12_Node000001_Node000013" class="edge">
<title>Node1&#45;&gt;Node13</title>
<g id="a_edge12_Node000001_Node000013"><a xlink:title=" ">
<path fill="none" stroke="#63b8ff" d="M2527.7,-87.73C2361.99,-84.43 1983.91,-72.86 1656.7,-32.14"/>
<polygon fill="#63b8ff" stroke="#63b8ff" points="1657.43,-28.71 1647.07,-30.93 1656.55,-35.65 1657.43,-28.71"/>
</a>
</g>
</g>
<!-- Node14 -->
<g id="Node000014" class="node">
<title>Node14</title>
<g id="a_Node000014"><a xlink:title=" ">
<polygon fill="#e0e0e0" stroke="#999999" points="1805.62,-32 1663.62,-32 1663.62,0 1805.62,0 1805.62,-32"/>
<text text-anchor="start" x="1671.62" y="-18.5" font-family="Helvetica,sans-Serif" font-size="10.00">javafx.beans.property.Simple</text>
<text text-anchor="middle" x="1734.62" y="-6.5" font-family="Helvetica,sans-Serif" font-size="10.00">ObjectProperty</text>
</a>
</g>
</g>
<!-- Node1&#45;&gt;Node14 -->
<g id="edge13_Node000001_Node000014" class="edge">
<title>Node1&#45;&gt;Node14</title>
<g id="a_edge13_Node000001_Node000014"><a xlink:title=" ">
<path fill="none" stroke="#63b8ff" d="M2527.86,-86.12C2383.82,-80.53 2081.96,-65.8 1817.46,-32.27"/>
<polygon fill="#63b8ff" stroke="#63b8ff" points="1817.96,-28.81 1807.59,-31.01 1817.07,-35.75 1817.96,-28.81"/>
</a>
</g>
</g>
<!-- Node15 -->
<g id="Node000015" class="node">
<title>Node15</title>
<g id="a_Node000015"><a xlink:title=" ">
<polygon fill="#e0e0e0" stroke="#999999" points="1939.12,-26 1824.12,-26 1824.12,-6 1939.12,-6 1939.12,-26"/>
<text text-anchor="middle" x="1881.62" y="-12.5" font-family="Helvetica,sans-Serif" font-size="10.00">javafx.concurrent.Task</text>
</a>
</g>
</g>
<!-- Node1&#45;&gt;Node15 -->
<g id="edge14_Node000001_Node000015" class="edge">
<title>Node1&#45;&gt;Node15</title>
<g id="a_edge14_Node000001_Node000015"><a xlink:title=" ">
<path fill="none" stroke="#63b8ff" d="M2527.81,-85.38C2401.15,-79.15 2155.31,-63.86 1948.62,-32 1942.88,-31.11 1936.9,-30.02 1930.97,-28.83"/>
<polygon fill="#63b8ff" stroke="#63b8ff" points="1931.71,-25.41 1921.2,-26.77 1930.26,-32.26 1931.71,-25.41"/>
</a>
</g>
</g>
<!-- Node16 -->
<g id="Node000016" class="node">
<title>Node16</title>
<g id="a_Node000016"><a xlink:title=" ">
<polygon fill="#e0e0e0" stroke="#999999" points="2088,-26 1957.25,-26 1957.25,-6 2088,-6 2088,-26"/>
<text text-anchor="middle" x="2022.62" y="-12.5" font-family="Helvetica,sans-Serif" font-size="10.00">javafx.scene.image.Image</text>
</a>
</g>
</g>
<!-- Node1&#45;&gt;Node16 -->
<g id="edge15_Node000001_Node000016" class="edge">
<title>Node1&#45;&gt;Node16</title>
<g id="a_edge15_Node000001_Node000016"><a xlink:title=" ">
<path fill="none" stroke="#63b8ff" d="M2527.85,-81.99C2425.36,-72.98 2247.78,-55.62 2096.62,-32 2090.24,-31 2083.56,-29.83 2076.95,-28.59"/>
<polygon fill="#63b8ff" stroke="#63b8ff" points="2077.91,-25.21 2067.43,-26.75 2076.58,-32.09 2077.91,-25.21"/>
</a>
</g>
</g>
<!-- Node17 -->
<g id="Node000017" class="node">
<title>Node17</title>
<g id="a_Node000017"><a xlink:title=" ">
<polygon fill="#e0e0e0" stroke="#999999" points="2261.38,-26 2105.88,-26 2105.88,-6 2261.38,-6 2261.38,-26"/>
<text text-anchor="middle" x="2183.62" y="-12.5" font-family="Helvetica,sans-Serif" font-size="10.00">javafx.scene.layout.Background</text>
</a>
</g>
</g>
<!-- Node1&#45;&gt;Node17 -->
<g id="edge16_Node000001_Node000017" class="edge">
<title>Node1&#45;&gt;Node17</title>
<g id="a_edge16_Node000001_Node000017"><a xlink:title=" ">
<path fill="none" stroke="#63b8ff" d="M2527.92,-75.02C2458.7,-63.56 2358.31,-46.87 2270.62,-32 2263.78,-30.84 2256.64,-29.62 2249.51,-28.4"/>
<polygon fill="#63b8ff" stroke="#63b8ff" points="2250.32,-24.99 2239.87,-26.74 2249.14,-31.89 2250.32,-24.99"/>
</a>
</g>
</g>
<!-- Node18 -->
<g id="Node000018" class="node">
<title>Node18</title>
<g id="a_Node000018"><a xlink:title=" ">
<polygon fill="#e0e0e0" stroke="#999999" points="2447.75,-26 2279.5,-26 2279.5,-6 2447.75,-6 2447.75,-26"/>
<text text-anchor="middle" x="2363.62" y="-12.5" font-family="Helvetica,sans-Serif" font-size="10.00">javafx.scene.layout.BackgroundFill</text>
</a>
</g>
</g>
<!-- Node1&#45;&gt;Node18 -->
<g id="edge17_Node000001_Node000018" class="edge">
<title>Node1&#45;&gt;Node18</title>
<g id="a_edge17_Node000001_Node000018"><a xlink:title=" ">
<path fill="none" stroke="#63b8ff" d="M2538.59,-67.59C2495.72,-55.2 2443.24,-40.02 2407,-29.54"/>
<polygon fill="#63b8ff" stroke="#63b8ff" points="2408.33,-26.28 2397.75,-26.87 2406.39,-33.01 2408.33,-26.28"/>
</a>
</g>
</g>
<!-- Node19 -->
<g id="Node000019" class="node">
<title>Node19</title>
<g id="a_Node000019"><a xlink:title=" ">
<polygon fill="#e0e0e0" stroke="#999999" points="2609.75,-26 2465.5,-26 2465.5,-6 2609.75,-6 2609.75,-26"/>
<text text-anchor="middle" x="2537.62" y="-12.5" font-family="Helvetica,sans-Serif" font-size="10.00">javafx.scene.layout.GridPane</text>
</a>
</g>
</g>
<!-- Node1&#45;&gt;Node19 -->
<g id="edge18_Node000001_Node000019" class="edge">
<title>Node1&#45;&gt;Node19</title>
<g id="a_edge18_Node000001_Node000019"><a xlink:title=" ">
<path fill="none" stroke="#63b8ff" d="M2590.53,-67.79C2579.32,-57.03 2565.89,-44.14 2555.37,-34.03"/>
<polygon fill="#63b8ff" stroke="#63b8ff" points="2558.05,-31.76 2548.42,-27.36 2553.21,-36.81 2558.05,-31.76"/>
</a>
</g>
</g>
<!-- Node20 -->
<g id="Node000020" class="node">
<title>Node20</title>
<g id="a_Node000020"><a xlink:title=" ">
<polygon fill="#e0e0e0" stroke="#999999" points="2749.5,-26 2627.75,-26 2627.75,-6 2749.5,-6 2749.5,-26"/>
<text text-anchor="middle" x="2688.62" y="-12.5" font-family="Helvetica,sans-Serif" font-size="10.00">javafx.scene.paint.Color</text>
</a>
</g>
</g>
<!-- Node1&#45;&gt;Node20 -->
<g id="edge19_Node000001_Node000020" class="edge">
<title>Node1&#45;&gt;Node20</title>
<g id="a_edge19_Node000001_Node000020"><a xlink:title=" ">
<path fill="none" stroke="#63b8ff" d="M2635.02,-67.79C2646.37,-57.03 2659.98,-44.14 2670.65,-34.03"/>
<polygon fill="#63b8ff" stroke="#63b8ff" points="2672.85,-36.77 2677.7,-27.35 2668.03,-31.69 2672.85,-36.77"/>
</a>
</g>
</g>
<!-- Node21 -->
<g id="Node000021" class="node">
<title>Node21</title>
<g id="a_Node000021"><a xlink:title=" ">
<polygon fill="#e0e0e0" stroke="#999999" points="2906.12,-32 2767.12,-32 2767.12,0 2906.12,0 2906.12,-32"/>
<text text-anchor="start" x="2775.12" y="-18.5" font-family="Helvetica,sans-Serif" font-size="10.00">org.apache.commons.lang3.</text>
<text text-anchor="middle" x="2836.62" y="-6.5" font-family="Helvetica,sans-Serif" font-size="10.00">StringUtils</text>
</a>
</g>
</g>
<!-- Node1&#45;&gt;Node21 -->
<g id="edge20_Node000001_Node000021" class="edge">
<title>Node1&#45;&gt;Node21</title>
<g id="a_edge20_Node000001_Node000021"><a xlink:title=" ">
<path fill="none" stroke="#63b8ff" d="M2679.23,-67.59C2710.47,-57.55 2747.38,-45.69 2777.61,-35.97"/>
<polygon fill="#63b8ff" stroke="#63b8ff" points="2778.53,-39.35 2786.98,-32.96 2776.38,-32.69 2778.53,-39.35"/>
</a>
</g>
</g>
<!-- Node22 -->
<g id="Node000022" class="node">
<title>Node22</title>
<g id="a_Node000022"><a xlink:title=" ">
<polygon fill="#e0e0e0" stroke="#999999" points="3007,-26 2924.25,-26 2924.25,-6 3007,-6 3007,-26"/>
<text text-anchor="middle" x="2965.62" y="-12.5" font-family="Helvetica,sans-Serif" font-size="10.00">org.slf4j.Logger</text>
</a>
</g>
</g>
<!-- Node1&#45;&gt;Node22 -->
<g id="edge21_Node000001_Node000022" class="edge">
<title>Node1&#45;&gt;Node22</title>
<g id="a_edge21_Node000001_Node000022"><a xlink:title=" ">
<path fill="none" stroke="#63b8ff" d="M2697.38,-75.52C2758.42,-65.21 2842.55,-49.78 2915.62,-32 2918.72,-31.25 2921.91,-30.42 2925.11,-29.55"/>
<polygon fill="#63b8ff" stroke="#63b8ff" points="2925.77,-33 2934.43,-26.9 2923.86,-26.26 2925.77,-33"/>
</a>
</g>
</g>
<!-- Node23 -->
<g id="Node000023" class="node">
<title>Node23</title>
<g id="a_Node000023"><a xlink:title=" ">
<polygon fill="#e0e0e0" stroke="#999999" points="3140.5,-26 3024.75,-26 3024.75,-6 3140.5,-6 3140.5,-26"/>
<text text-anchor="middle" x="3082.62" y="-12.5" font-family="Helvetica,sans-Serif" font-size="10.00">org.slf4j.LoggerFactory</text>
</a>
</g>
</g>
<!-- Node1&#45;&gt;Node23 -->
<g id="edge22_Node000001_Node000023" class="edge">
<title>Node1&#45;&gt;Node23</title>
<g id="a_edge22_Node000001_Node000023"><a xlink:title=" ">
<path fill="none" stroke="#63b8ff" d="M2697.46,-79C2779.23,-68.89 2906.31,-51.93 3015.62,-32 3020.85,-31.05 3026.28,-29.97 3031.69,-28.85"/>
<polygon fill="#63b8ff" stroke="#63b8ff" points="3032.17,-32.32 3041.22,-26.8 3030.71,-25.48 3032.17,-32.32"/>
</a>
</g>
</g>
<!-- Node24 -->
<g id="Node000024" class="node">
<title>Node24</title>
<g id="a_Node000024"><a xlink:title=" ">
<polygon fill="#e0e0e0" stroke="#999999" points="3314.75,-32 3158.5,-32 3158.5,0 3314.75,0 3314.75,-32"/>
<text text-anchor="start" x="3166.5" y="-18.5" font-family="Helvetica,sans-Serif" font-size="10.00">org.springframework.stereotype.</text>
<text text-anchor="middle" x="3236.62" y="-6.5" font-family="Helvetica,sans-Serif" font-size="10.00">Component</text>
</a>
</g>
</g>
<!-- Node1&#45;&gt;Node24 -->
<g id="edge23_Node000001_Node000024" class="edge">
<title>Node1&#45;&gt;Node24</title>
<g id="a_edge23_Node000001_Node000024"><a xlink:title=" ">
<path fill="none" stroke="#63b8ff" d="M2697.47,-81.71C2801.11,-72.42 2982.02,-54.96 3147.06,-32.3"/>
<polygon fill="#63b8ff" stroke="#63b8ff" points="3147.48,-35.78 3156.91,-30.94 3146.52,-28.84 3147.48,-35.78"/>
</a>
</g>
</g>
<!-- Node25 -->
<g id="Node000025" class="node">
<title>Node25</title>
<g id="a_Node000025"><a xlink:title=" ">
<polygon fill="#e0e0e0" stroke="#999999" points="3496.12,-32 3333.12,-32 3333.12,0 3496.12,0 3496.12,-32"/>
<text text-anchor="start" x="3341.12" y="-18.5" font-family="Helvetica,sans-Serif" font-size="10.00">edu.umd.cs.findbugs.annotations.</text>
<text text-anchor="middle" x="3414.62" y="-6.5" font-family="Helvetica,sans-Serif" font-size="10.00">SuppressFBWarnings</text>
</a>
</g>
</g>
<!-- Node1&#45;&gt;Node25 -->
<g id="edge24_Node000001_Node000025" class="edge">
<title>Node1&#45;&gt;Node25</title>
<g id="a_edge24_Node000001_Node000025"><a xlink:title=" ">
<path fill="none" stroke="#63b8ff" d="M2697.4,-84.5C2828.77,-77.01 3089.64,-60.12 3321.45,-32.2"/>
<polygon fill="#63b8ff" stroke="#63b8ff" points="3321.81,-35.68 3331.32,-31 3320.97,-28.73 3321.81,-35.68"/>
</a>
</g>
</g>
<!-- Node26 -->
<g id="Node000026" class="node">
<title>Node26</title>
<g id="a_Node000026"><a xlink:title=" ">
<polygon fill="#e0e0e0" stroke="#999999" points="3701.12,-26 3514.12,-26 3514.12,-6 3701.12,-6 3701.12,-26"/>
<text text-anchor="middle" x="3607.62" y="-12.5" font-family="Helvetica,sans-Serif" font-size="10.00">fr.softsf.sudokufx.common.enums.I18n</text>
</a>
</g>
</g>
<!-- Node1&#45;&gt;Node26 -->
<g id="edge25_Node000001_Node000026" class="edge">
<title>Node1&#45;&gt;Node26</title>
<g id="a_edge25_Node000001_Node000026"><a xlink:title=" ">
<path fill="none" stroke="#63b8ff" d="M2697.47,-85.91C2856.38,-79.61 3209.57,-63.16 3505.62,-32 3516.06,-30.9 3527.07,-29.52 3537.84,-28.04"/>
<polygon fill="#63b8ff" stroke="#63b8ff" points="3538.03,-31.55 3547.44,-26.69 3537.05,-24.62 3538.03,-31.55"/>
</a>
</g>
</g>
<!-- Node27 -->
<g id="Node000027" class="node">
<title>Node27</title>
<g id="a_Node000027"><a xlink:title=" ">
<polygon fill="#e0e0e0" stroke="#999999" points="3900.12,-32 3719.12,-32 3719.12,0 3900.12,0 3900.12,-32"/>
<text text-anchor="start" x="3727.12" y="-18.5" font-family="Helvetica,sans-Serif" font-size="10.00">fr.softsf.sudokufx.common.exception.</text>
<text text-anchor="middle" x="3809.62" y="-6.5" font-family="Helvetica,sans-Serif" font-size="10.00">ExceptionTools</text>
</a>
</g>
</g>
<!-- Node1&#45;&gt;Node27 -->
<g id="edge26_Node000001_Node000027" class="edge">
<title>Node1&#45;&gt;Node27</title>
<g id="a_edge26_Node000001_Node000027"><a xlink:title=" ">
<path fill="none" stroke="#63b8ff" d="M2697.57,-87.44C2880.47,-83.46 3325.34,-70.46 3707.48,-32.26"/>
<polygon fill="#63b8ff" stroke="#63b8ff" points="3707.66,-35.76 3717.26,-31.27 3706.96,-28.79 3707.66,-35.76"/>
</a>
</g>
</g>
<!-- Node28 -->
<g id="Node000028" class="node">
<title>Node28</title>
<g id="a_Node000028"><a xlink:title=" ">
<polygon fill="#e0e0e0" stroke="#999999" points="4069.5,-32 3917.75,-32 3917.75,0 4069.5,0 4069.5,-32"/>
<text text-anchor="start" x="3925.75" y="-18.5" font-family="Helvetica,sans-Serif" font-size="10.00">fr.softsf.sudokufx.common.util.</text>
<text text-anchor="middle" x="3993.62" y="-6.5" font-family="Helvetica,sans-Serif" font-size="10.00">AudioUtils</text>
</a>
</g>
</g>
<!-- Node1&#45;&gt;Node28 -->
<g id="edge27_Node000001_Node000028" class="edge">
<title>Node1&#45;&gt;Node28</title>
<g id="a_edge27_Node000001_Node000028"><a xlink:title=" ">
<path fill="none" stroke="#63b8ff" d="M2697.52,-89.16C2903.42,-88.71 3445.75,-82.5 3906.47,-32.26"/>
<polygon fill="#63b8ff" stroke="#63b8ff" points="3906.62,-35.76 3916.18,-31.19 3905.86,-28.81 3906.62,-35.76"/>
</a>
</g>
</g>
<!-- Node29 -->
<g id="Node000029" class="node">
<title>Node29</title>
<g id="a_Node000029"><a xlink:title=" ">
<polygon fill="#e0e0e0" stroke="#999999" points="4239.5,-32 4087.75,-32 4087.75,0 4239.5,0 4239.5,-32"/>
<text text-anchor="start" x="4095.75" y="-18.5" font-family="Helvetica,sans-Serif" font-size="10.00">fr.softsf.sudokufx.common.util.</text>
<text text-anchor="middle" x="4163.62" y="-6.5" font-family="Helvetica,sans-Serif" font-size="10.00">ImageMeta</text>
</a>
</g>
</g>
<!-- Node1&#45;&gt;Node29 -->
<g id="edge28_Node000001_Node000029" class="edge">
<title>Node1&#45;&gt;Node29</title>
<g id="a_edge28_Node000001_Node000029"><a xlink:title=" ">
<path fill="none" stroke="#63b8ff" d="M2697.61,-89.72C2921.67,-90.75 3547.03,-88.05 4076.39,-32.13"/>
<polygon fill="#63b8ff" stroke="#63b8ff" points="4076.62,-35.63 4086.19,-31.09 4075.88,-28.66 4076.62,-35.63"/>
</a>
</g>
</g>
<!-- Node30 -->
<g id="Node000030" class="node">
<title>Node30</title>
<g id="a_Node000030"><a xlink:title=" ">
<polygon fill="#e0e0e0" stroke="#999999" points="4409.5,-32 4257.75,-32 4257.75,0 4409.5,0 4409.5,-32"/>
<text text-anchor="start" x="4265.75" y="-18.5" font-family="Helvetica,sans-Serif" font-size="10.00">fr.softsf.sudokufx.common.util.</text>
<text text-anchor="middle" x="4333.62" y="-6.5" font-family="Helvetica,sans-Serif" font-size="10.00">ImageUtils</text>
</a>
</g>
</g>
<!-- Node1&#45;&gt;Node30 -->
<g id="edge29_Node000001_Node000030" class="edge">
<title>Node1&#45;&gt;Node30</title>
<g id="a_edge29_Node000001_Node000030"><a xlink:title=" ">
<path fill="none" stroke="#63b8ff" d="M2697.61,-87.61C2985.13,-82.67 3921.08,-64.52 4246.39,-32.1"/>
<polygon fill="#63b8ff" stroke="#63b8ff" points="4246.6,-35.6 4256.19,-31.1 4245.89,-28.63 4246.6,-35.6"/>
</a>
</g>
</g>
<!-- Node31 -->
<g id="Node000031" class="node">
<title>Node31</title>
<g id="a_Node000031"><a xlink:title=" ">
<polygon fill="#e0e0e0" stroke="#999999" points="4589.38,-26 4427.88,-26 4427.88,-6 4589.38,-6 4589.38,-26"/>
<text text-anchor="middle" x="4508.62" y="-12.5" font-family="Helvetica,sans-Serif" font-size="10.00">fr.softsf.sudokufx.dto.OptionsDto</text>
</a>
</g>
</g>
<!-- Node1&#45;&gt;Node31 -->
<g id="edge30_Node000001_Node000031" class="edge">
<title>Node1&#45;&gt;Node31</title>
<g id="a_edge30_Node000001_Node000031"><a xlink:title=" ">
<path fill="none" stroke="#63b8ff" d="M2697.43,-87.83C3007.35,-83.31 4078.25,-65.58 4418.62,-32 4428.14,-31.06 4438.18,-29.73 4447.95,-28.25"/>
<polygon fill="#63b8ff" stroke="#63b8ff" points="4448.45,-31.71 4457.77,-26.68 4447.35,-24.8 4448.45,-31.71"/>
</a>
</g>
</g>
<!-- Node32 -->
<g id="Node000032" class="node">
<title>Node32</title>
<g id="a_Node000032"><a xlink:title=" ">
<polygon fill="#e0e0e0" stroke="#999999" points="4779.62,-32 4607.62,-32 4607.62,0 4779.62,0 4779.62,-32"/>
<text text-anchor="start" x="4615.62" y="-18.5" font-family="Helvetica,sans-Serif" font-size="10.00">fr.softsf.sudokufx.service.business.</text>
<text text-anchor="middle" x="4693.62" y="-6.5" font-family="Helvetica,sans-Serif" font-size="10.00">OptionsService</text>
</a>
</g>
</g>
<!-- Node1&#45;&gt;Node32 -->
<g id="edge31_Node000001_Node000032" class="edge">
<title>Node1&#45;&gt;Node32</title>
<g id="a_edge31_Node000001_Node000032"><a xlink:title=" ">
<path fill="none" stroke="#63b8ff" d="M2697.55,-88.01C3023.88,-83.99 4198.38,-67.4 4595.97,-32.15"/>
<polygon fill="#63b8ff" stroke="#63b8ff" points="4596.07,-35.65 4605.71,-31.26 4595.43,-28.68 4596.07,-35.65"/>
</a>
</g>
</g>
<!-- Node33 -->
<g id="Node000033" class="node">
<title>Node33</title>
<g id="a_Node000033"><a xlink:title=" ">
<polygon fill="#e0e0e0" stroke="#999999" points="4937.88,-32 4797.38,-32 4797.38,0 4937.88,0 4937.88,-32"/>
<text text-anchor="start" x="4805.38" y="-18.5" font-family="Helvetica,sans-Serif" font-size="10.00">fr.softsf.sudokufx.service.ui.</text>
<text text-anchor="middle" x="4867.62" y="-6.5" font-family="Helvetica,sans-Serif" font-size="10.00">AsyncFileProcessorService</text>
</a>
</g>
</g>
<!-- Node1&#45;&gt;Node33 -->
<g id="edge32_Node000001_Node000033" class="edge">
<title>Node1&#45;&gt;Node33</title>
<g id="a_edge32_Node000001_Node000033"><a xlink:title=" ">
<path fill="none" stroke="#63b8ff" d="M2697.56,-88.61C3043.63,-86.73 4349.14,-76.85 4785.67,-32.18"/>
<polygon fill="#63b8ff" stroke="#63b8ff" points="4785.99,-35.66 4795.57,-31.14 4785.26,-28.7 4785.99,-35.66"/>
</a>
</g>
</g>
<!-- Node34 -->
<g id="Node000034" class="node">
<title>Node34</title>
<g id="a_Node000034"><a xlink:title=" ">
<polygon fill="#e0e0e0" stroke="#999999" points="5096.88,-32 4956.38,-32 4956.38,0 5096.88,0 5096.88,-32"/>
<text text-anchor="start" x="4964.38" y="-18.5" font-family="Helvetica,sans-Serif" font-size="10.00">fr.softsf.sudokufx.service.ui.</text>
<text text-anchor="middle" x="5026.62" y="-6.5" font-family="Helvetica,sans-Serif" font-size="10.00">AudioService</text>
</a>
</g>
</g>
<!-- Node1&#45;&gt;Node34 -->
<g id="edge33_Node000001_Node000034" class="edge">
<title>Node1&#45;&gt;Node34</title>
<g id="a_edge33_Node000001_Node000034"><a xlink:title=" ">
<path fill="none" stroke="#63b8ff" d="M2697.49,-88.76C3059.18,-87.45 4474.48,-79.41 4944.77,-32.03"/>
<polygon fill="#63b8ff" stroke="#63b8ff" points="4944.95,-35.53 4954.54,-31.03 4944.23,-28.57 4944.95,-35.53"/>
</a>
</g>
</g>
<!-- Node35 -->
<g id="Node000035" class="node">
<title>Node35</title>
<g id="a_Node000035"><a xlink:title=" ">
<polygon fill="#e0e0e0" stroke="#999999" points="5255.88,-32 5115.38,-32 5115.38,0 5255.88,0 5255.88,-32"/>
<text text-anchor="start" x="5123.38" y="-18.5" font-family="Helvetica,sans-Serif" font-size="10.00">fr.softsf.sudokufx.service.ui.</text>
<text text-anchor="middle" x="5185.62" y="-6.5" font-family="Helvetica,sans-Serif" font-size="10.00">ToasterService</text>
</a>
</g>
</g>
<!-- Node1&#45;&gt;Node35 -->
<g id="edge34_Node000001_Node000035" class="edge">
<title>Node1&#45;&gt;Node35</title>
<g id="a_edge34_Node000001_Node000035"><a xlink:title=" ">
<path fill="none" stroke="#63b8ff" d="M2697.46,-88.91C3074.35,-88.24 4600.17,-82.46 5103.71,-32.04"/>
<polygon fill="#63b8ff" stroke="#63b8ff" points="5103.95,-35.53 5113.54,-31.03 5103.24,-28.57 5103.95,-35.53"/>
</a>
</g>
</g>
<!-- Node36 -->
<g id="Node000036" class="node">
<title>Node36</title>
<g id="a_Node000036"><a xlink:title=" ">
<polygon fill="#e0e0e0" stroke="#999999" points="5475.62,-32 5273.62,-32 5273.62,0 5475.62,0 5475.62,-32"/>
<text text-anchor="start" x="5281.62" y="-18.5" font-family="Helvetica,sans-Serif" font-size="10.00">fr.softsf.sudokufx.view.component.toaster.</text>
<text text-anchor="middle" x="5374.62" y="-6.5" font-family="Helvetica,sans-Serif" font-size="10.00">ToasterVBox</text>
</a>
</g>
</g>
<!-- Node1&#45;&gt;Node36 -->
<g id="edge35_Node000001_Node000036" class="edge">
<title>Node1&#45;&gt;Node36</title>
<g id="a_edge35_Node000001_Node000036"><a xlink:title=" ">
<path fill="none" stroke="#63b8ff" d="M2697.48,-88.48C3089.06,-85.88 4724.88,-72.81 5262.05,-32.12"/>
<polygon fill="#63b8ff" stroke="#63b8ff" points="5262.17,-35.63 5271.87,-31.37 5261.63,-28.65 5262.17,-35.63"/>
</a>
</g>
</g>
<!-- Node37 -->
<g id="Node000037" class="node">
<title>Node37</title>
<g id="a_Node000037"><a xlink:title=" ">
<polygon fill="#e0e0e0" stroke="#999999" points="5663.5,-32 5493.75,-32 5493.75,0 5663.5,0 5663.5,-32"/>
<text text-anchor="start" x="5501.75" y="-18.5" font-family="Helvetica,sans-Serif" font-size="10.00">fr.softsf.sudokufx.viewmodel.state.</text>
<text text-anchor="middle" x="5578.62" y="-6.5" font-family="Helvetica,sans-Serif" font-size="10.00">PlayerStateHolder</text>
</a>
</g>
</g>
<!-- Node1&#45;&gt;Node37 -->
<g id="edge36_Node000001_Node000037" class="edge">
<title>Node1&#45;&gt;Node37</title>
<g id="a_edge36_Node000001_Node000037"><a xlink:title=" ">
<path fill="none" stroke="#63b8ff" d="M2697.55,-88.9C3109.02,-88.18 4899.03,-82.23 5481.94,-32.13"/>
<polygon fill="#63b8ff" stroke="#63b8ff" points="5482.22,-35.62 5491.88,-31.26 5481.61,-28.65 5482.22,-35.62"/>
</a>
</g>
</g>
</g>
</svg>

<g id="navigator" transform="translate(0 0)" fill="#404254">
  <rect fill="#f2f5e9" fill-opacity="0.5" stroke="#606060" stroke-width=".5" x="0" y="0" width="60" height="60"/>
  <use id="zoomplus" xlink:href="#zoomPlus" x="17" y="9" onmousedown="handleZoom(evt,'in')"/>
  <use id="zoomminus" xlink:href="#zoomMin" x="42" y="9" onmousedown="handleZoom(evt,'out')"/>
  <use id="reset" xlink:href="#resetDef" x="30" y="36" onmousedown="handleReset()"/>
   <use id="arrowup" xlink:href="#arrowUp" x="0" y="0" onmousedown="handlePan(0,-1)"/>
  <use id="arrowright" xlink:href="#arrowRight" x="0" y="0" onmousedown="handlePan(1,0)"/>
  <use id="arrowdown" xlink:href="#arrowDown" x="0" y="0" onmousedown="handlePan(0,1)"/>
  <use id="arrowleft" xlink:href="#arrowLeft" x="0" y="0" onmousedown="handlePan(-1,0)"/>
</g>
<svg viewBox="0 0 15 15" width="100%" height="30px" preserveAspectRatio="xMaxYMin meet">
 <g id="arrow_out" transform="scale(0.3 0.3)">
  <a xlink:href="_menu_options_view_model_8java__incl_org.svg" target="_base">
   <rect id="button" ry="5" rx="5" y="6" x="6" height="38" width="38"
        fill="#f2f5e9" fill-opacity="0.5" stroke="#606060" stroke-width="1.0"/>
   <path id="arrow"
     d="M 11.500037,31.436501 C 11.940474,20.09759 22.043105,11.32322 32.158766,21.979434 L 37.068811,17.246167 C 37.068811,17.246167 37.088388,32 37.088388,32 L 22.160133,31.978069 C 22.160133,31.978069 26.997745,27.140456 26.997745,27.140456 C 18.528582,18.264221 13.291696,25.230495 11.500037,31.436501 z"
     style="fill:#404040;"/>
  </a>
 </g>
</svg>

<style type='text/css'>
<![CDATA[
[data-mouse-over-selected='false'] { opacity: 0.7; }
[data-mouse-over-selected='true']  { opacity: 1.0; }
]]>
</style>
<script type="application/ecmascript"><![CDATA[
document.addEventListener('DOMContentLoaded', (event) => {
  highlightEdges();
  highlightAdjacentNodes();
});
]]></script>
</svg>
