<?xml version="1.0" encoding="UTF-8" standalone="no"?>
<!DOCTYPE svg PUBLIC "-//W3C//DTD SVG 1.1//EN"
 "http://www.w3.org/Graphics/SVG/1.1/DTD/svg11.dtd">
<!-- Generated by graphviz version 12.2.1 (20241206.2353)
 -->
<!-- Title: src/main/java/fr/softsf/sudokufx/config/MyLogbackConfig.java Pages: 1 -->
<!--zoomable 108 -->

<svg id="main" version="1.1" xmlns="http://www.w3.org/2000/svg" xmlns:xlink="http://www.w3.org/1999/xlink" xml:space="preserve" onload="init(evt)">

<style type="text/css"><![CDATA[
.node, .edge {opacity: 0.7;}
.node.selected, .edge.selected {opacity: 1;}
.edge:hover path { stroke: red; }
.edge:hover polygon { stroke: red; fill: red; }
]]></style>

<defs>
  <circle id="rim" cx="0" cy="0" r="7"/>
  <circle id="rim2" cx="0" cy="0" r="3.5"/>
  <g id="zoomPlus">
    <use xlink:href="#rim" fill="#404040"><set attributeName="fill" to="#808080" begin="zoomplus.mouseover" end="zoomplus.mouseout"/></use>
    <path d="M-4,0h8M0,-4v8" fill="none" stroke="white" stroke-width="1.5" pointer-events="none"/>
  </g>
  <g id="zoomMin">
    <use xlink:href="#rim" fill="#404040"><set attributeName="fill" to="#808080" begin="zoomminus.mouseover" end="zoomminus.mouseout"/></use>
    <path d="M-4,0h8" fill="none" stroke="white" stroke-width="1.5" pointer-events="none"/>
  </g>
  <g id="arrowUp" transform="translate(30 24)">
    <use xlink:href="#rim"/>
    <path pointer-events="none" fill="none" stroke="white" stroke-width="1.5" d="M0,-3.0v7 M-2.5,-0.5L0,-3.0L2.5,-0.5"/>
  </g>
  <g id="arrowRight" transform="rotate(90) translate(36 -43)">
    <use xlink:href="#rim"/>
    <path pointer-events="none" fill="none" stroke="white" stroke-width="1.5" d="M0,-3.0v7 M-2.5,-0.5L0,-3.0L2.5,-0.5"/>
  </g>
  <g id="arrowDown" transform="rotate(180) translate(-30 -48)">
    <use xlink:href="#rim"/>
    <path pointer-events="none" fill="none" stroke="white" stroke-width="1.5" d="M0,-3.0v7 M-2.5,-0.5L0,-3.0L2.5,-0.5"/>
  </g>
  <g id="arrowLeft" transform="rotate(270) translate(-36 17)">
    <use xlink:href="#rim"/>
    <path pointer-events="none" fill="none" stroke="white" stroke-width="1.5" d="M0,-3.0v7 M-2.5,-0.5L0,-3.0L2.5,-0.5"/>
  </g>
  <g id="resetDef">
    <use xlink:href="#rim2" fill="#404040"><set attributeName="fill" to="#808080" begin="reset.mouseover" end="reset.mouseout"/></use>
  </g>
</defs>
<script type="application/ecmascript">
var viewWidth = 2017;
var viewHeight = 108;
var sectionId = 'dynsection-0';
</script>
<script type="application/ecmascript" xlink:href="svg.min.js"/>
<svg id="graph" class="graph">
<g id="viewport">
<title>src/main/java/fr/softsf/sudokufx/config/MyLogbackConfig.java</title>
<!-- Node1 -->
<g id="Node000001" class="node">
<title>Node1</title>
<g id="a_Node000001"><a xlink:title=" ">
<polygon fill="#999999" stroke="#666666" points="1013.12,-100 822.38,-100 822.38,-68 1013.12,-68 1013.12,-100"/>
<text text-anchor="start" x="830.38" y="-86.5" font-family="Helvetica,sans-Serif" font-size="10.00">src/main/java/fr/softsf</text>
<text text-anchor="middle" x="917.75" y="-74.5" font-family="Helvetica,sans-Serif" font-size="10.00">/sudokufx/config/MyLogbackConfig.java</text>
</a>
</g>
</g>
<!-- Node2 -->
<g id="Node000002" class="node">
<title>Node2</title>
<g id="a_Node000002"><a xlink:title=" ">
<polygon fill="#e0e0e0" stroke="#999999" points="101.5,-26 0,-26 0,-6 101.5,-6 101.5,-26"/>
<text text-anchor="middle" x="50.75" y="-12.5" font-family="Helvetica,sans-Serif" font-size="10.00">java.io.IOException</text>
</a>
</g>
</g>
<!-- Node1&#45;&gt;Node2 -->
<g id="edge1_Node000001_Node000002" class="edge">
<title>Node1&#45;&gt;Node2</title>
<g id="a_edge1_Node000001_Node000002"><a xlink:title=" ">
<path fill="none" stroke="#63b8ff" d="M822.11,-82.56C670.39,-80.62 365.65,-71.58 110.75,-32 105.72,-31.22 100.5,-30.21 95.32,-29.09"/>
<polygon fill="#63b8ff" stroke="#63b8ff" points="96.17,-25.7 85.64,-26.84 94.59,-32.51 96.17,-25.7"/>
</a>
</g>
</g>
<!-- Node3 -->
<g id="Node000003" class="node">
<title>Node3</title>
<g id="a_Node000003"><a xlink:title=" ">
<polygon fill="#e0e0e0" stroke="#999999" points="220.12,-26 119.38,-26 119.38,-6 220.12,-6 220.12,-26"/>
<text text-anchor="middle" x="169.75" y="-12.5" font-family="Helvetica,sans-Serif" font-size="10.00">java.io.InputStream</text>
</a>
</g>
</g>
<!-- Node1&#45;&gt;Node3 -->
<g id="edge2_Node000001_Node000003" class="edge">
<title>Node1&#45;&gt;Node3</title>
<g id="a_edge2_Node000001_Node000003"><a xlink:title=" ">
<path fill="none" stroke="#63b8ff" d="M821.99,-81.06C688.53,-77.19 439.35,-65.71 229.75,-32 224.72,-31.19 219.5,-30.17 214.33,-29.04"/>
<polygon fill="#63b8ff" stroke="#63b8ff" points="215.19,-25.64 204.65,-26.78 213.59,-32.46 215.19,-25.64"/>
</a>
</g>
</g>
<!-- Node4 -->
<g id="Node000004" class="node">
<title>Node4</title>
<g id="a_Node000004"><a xlink:title=" ">
<polygon fill="#e0e0e0" stroke="#999999" points="321.12,-26 238.38,-26 238.38,-6 321.12,-6 321.12,-26"/>
<text text-anchor="middle" x="279.75" y="-12.5" font-family="Helvetica,sans-Serif" font-size="10.00">org.slf4j.Logger</text>
</a>
</g>
</g>
<!-- Node1&#45;&gt;Node4 -->
<g id="edge3_Node000001_Node000004" class="edge">
<title>Node1&#45;&gt;Node4</title>
<g id="a_edge3_Node000001_Node000004"><a xlink:title=" ">
<path fill="none" stroke="#63b8ff" d="M821.96,-80.71C704.89,-76.53 501.22,-64.8 329.75,-32 326.1,-31.3 322.34,-30.44 318.59,-29.49"/>
<polygon fill="#63b8ff" stroke="#63b8ff" points="319.56,-26.13 308.99,-26.84 317.69,-32.88 319.56,-26.13"/>
</a>
</g>
</g>
<!-- Node5 -->
<g id="Node000005" class="node">
<title>Node5</title>
<g id="a_Node000005"><a xlink:title=" ">
<polygon fill="#e0e0e0" stroke="#999999" points="454.62,-26 338.88,-26 338.88,-6 454.62,-6 454.62,-26"/>
<text text-anchor="middle" x="396.75" y="-12.5" font-family="Helvetica,sans-Serif" font-size="10.00">org.slf4j.LoggerFactory</text>
</a>
</g>
</g>
<!-- Node1&#45;&gt;Node5 -->
<g id="edge4_Node000001_Node000005" class="edge">
<title>Node1&#45;&gt;Node5</title>
<g id="a_edge4_Node000001_Node000005"><a xlink:title=" ">
<path fill="none" stroke="#63b8ff" d="M822.11,-75.29C729.95,-67.15 586.76,-52.62 463.75,-32 458.16,-31.06 452.34,-29.96 446.56,-28.78"/>
<polygon fill="#63b8ff" stroke="#63b8ff" points="447.57,-25.41 437.06,-26.76 446.11,-32.26 447.57,-25.41"/>
</a>
</g>
</g>
<!-- Node6 -->
<g id="Node000006" class="node">
<title>Node6</title>
<g id="a_Node000006"><a xlink:title=" ">
<polygon fill="#e0e0e0" stroke="#999999" points="663.12,-32 472.38,-32 472.38,0 663.12,0 663.12,-32"/>
<text text-anchor="start" x="480.38" y="-18.5" font-family="Helvetica,sans-Serif" font-size="10.00">org.springframework.context.annotation.</text>
<text text-anchor="middle" x="567.75" y="-6.5" font-family="Helvetica,sans-Serif" font-size="10.00">Configuration</text>
</a>
</g>
</g>
<!-- Node1&#45;&gt;Node6 -->
<g id="edge5_Node000001_Node000006" class="edge">
<title>Node1&#45;&gt;Node6</title>
<g id="a_edge5_Node000001_Node000006"><a xlink:title=" ">
<path fill="none" stroke="#63b8ff" d="M835.69,-67.53C783.33,-57.65 715.33,-44.83 660.94,-34.57"/>
<polygon fill="#63b8ff" stroke="#63b8ff" points="661.86,-31.19 651.39,-32.77 660.57,-38.06 661.86,-31.19"/>
</a>
</g>
</g>
<!-- Node7 -->
<g id="Node000007" class="node">
<title>Node7</title>
<g id="a_Node000007"><a xlink:title=" ">
<polygon fill="#e0e0e0" stroke="#999999" points="828.75,-32 680.75,-32 680.75,0 828.75,0 828.75,-32"/>
<text text-anchor="start" x="688.75" y="-18.5" font-family="Helvetica,sans-Serif" font-size="10.00">ch.qos.logback.classic.Logger</text>
<text text-anchor="middle" x="754.75" y="-6.5" font-family="Helvetica,sans-Serif" font-size="10.00">Context</text>
</a>
</g>
</g>
<!-- Node1&#45;&gt;Node7 -->
<g id="edge6_Node000001_Node000007" class="edge">
<title>Node1&#45;&gt;Node7</title>
<g id="a_edge6_Node000001_Node000007"><a xlink:title=" ">
<path fill="none" stroke="#63b8ff" d="M879.53,-67.53C856.83,-58.33 827.81,-46.58 803.47,-36.73"/>
<polygon fill="#63b8ff" stroke="#63b8ff" points="804.99,-33.57 794.41,-33.06 802.37,-40.06 804.99,-33.57"/>
</a>
</g>
</g>
<!-- Node8 -->
<g id="Node000008" class="node">
<title>Node8</title>
<g id="a_Node000008"><a xlink:title=" ">
<polygon fill="#e0e0e0" stroke="#999999" points="989.12,-32 846.38,-32 846.38,0 989.12,0 989.12,-32"/>
<text text-anchor="start" x="854.38" y="-18.5" font-family="Helvetica,sans-Serif" font-size="10.00">ch.qos.logback.classic.joran.</text>
<text text-anchor="middle" x="917.75" y="-6.5" font-family="Helvetica,sans-Serif" font-size="10.00">JoranConfigurator</text>
</a>
</g>
</g>
<!-- Node1&#45;&gt;Node8 -->
<g id="edge7_Node000001_Node000008" class="edge">
<title>Node1&#45;&gt;Node8</title>
<g id="a_edge7_Node000001_Node000008"><a xlink:title=" ">
<path fill="none" stroke="#63b8ff" d="M917.75,-67.69C917.75,-60.53 917.75,-51.79 917.75,-43.59"/>
<polygon fill="#63b8ff" stroke="#63b8ff" points="921.25,-43.74 917.75,-33.74 914.25,-43.74 921.25,-43.74"/>
</a>
</g>
</g>
<!-- Node9 -->
<g id="Node000009" class="node">
<title>Node9</title>
<g id="a_Node000009"><a xlink:title=" ">
<polygon fill="#e0e0e0" stroke="#999999" points="1154,-32 1007.5,-32 1007.5,0 1154,0 1154,-32"/>
<text text-anchor="start" x="1015.5" y="-18.5" font-family="Helvetica,sans-Serif" font-size="10.00">ch.qos.logback.core.joran.spi.</text>
<text text-anchor="middle" x="1080.75" y="-6.5" font-family="Helvetica,sans-Serif" font-size="10.00">JoranException</text>
</a>
</g>
</g>
<!-- Node1&#45;&gt;Node9 -->
<g id="edge8_Node000001_Node000009" class="edge">
<title>Node1&#45;&gt;Node9</title>
<g id="a_edge8_Node000001_Node000009"><a xlink:title=" ">
<path fill="none" stroke="#63b8ff" d="M955.97,-67.53C978.67,-58.33 1007.69,-46.58 1032.03,-36.73"/>
<polygon fill="#63b8ff" stroke="#63b8ff" points="1033.13,-40.06 1041.09,-33.06 1030.51,-33.57 1033.13,-40.06"/>
</a>
</g>
</g>
<!-- Node10 -->
<g id="Node000010" class="node">
<title>Node10</title>
<g id="a_Node000010"><a xlink:title=" ">
<polygon fill="#e0e0e0" stroke="#999999" points="1295,-32 1172.5,-32 1172.5,0 1295,0 1295,-32"/>
<text text-anchor="start" x="1180.5" y="-18.5" font-family="Helvetica,sans-Serif" font-size="10.00">ch.qos.logback.core.util.</text>
<text text-anchor="middle" x="1233.75" y="-6.5" font-family="Helvetica,sans-Serif" font-size="10.00">StatusPrinter2</text>
</a>
</g>
</g>
<!-- Node1&#45;&gt;Node10 -->
<g id="edge9_Node000001_Node000010" class="edge">
<title>Node1&#45;&gt;Node10</title>
<g id="a_edge9_Node000001_Node000010"><a xlink:title=" ">
<path fill="none" stroke="#63b8ff" d="M992.28,-67.55C1038.18,-58.01 1098.53,-45.46 1161.27,-32.31"/>
<polygon fill="#63b8ff" stroke="#63b8ff" points="1161.63,-35.81 1170.7,-30.33 1160.19,-28.96 1161.63,-35.81"/>
</a>
</g>
</g>
<!-- Node11 -->
<g id="Node000011" class="node">
<title>Node11</title>
<g id="a_Node000011"><a xlink:title=" ">
<polygon fill="#e0e0e0" stroke="#999999" points="1450.88,-32 1312.62,-32 1312.62,0 1450.88,0 1450.88,-32"/>
<text text-anchor="start" x="1320.62" y="-18.5" font-family="Helvetica,sans-Serif" font-size="10.00">fr.softsf.sudokufx.config.os.</text>
<text text-anchor="middle" x="1381.75" y="-6.5" font-family="Helvetica,sans-Serif" font-size="10.00">IOsFolderFactory</text>
</a>
</g>
</g>
<!-- Node1&#45;&gt;Node11 -->
<g id="edge10_Node000001_Node000011" class="edge">
<title>Node1&#45;&gt;Node11</title>
<g id="a_edge10_Node000001_Node000011"><a xlink:title=" ">
<path fill="none" stroke="#63b8ff" d="M1013.55,-71.93C1089.05,-62.83 1197.24,-48.99 1301.13,-32.37"/>
<polygon fill="#63b8ff" stroke="#63b8ff" points="1301.66,-35.83 1310.97,-30.78 1300.54,-28.92 1301.66,-35.83"/>
</a>
</g>
</g>
<!-- Node12 -->
<g id="Node000012" class="node">
<title>Node12</title>
<g id="a_Node000012"><a xlink:title=" ">
<polygon fill="#e0e0e0" stroke="#999999" points="1636.88,-32 1468.62,-32 1468.62,0 1636.88,0 1636.88,-32"/>
<text text-anchor="start" x="1476.62" y="-18.5" font-family="Helvetica,sans-Serif" font-size="10.00">fr.softsf.sudokufx.common.enums.</text>
<text text-anchor="middle" x="1552.75" y="-6.5" font-family="Helvetica,sans-Serif" font-size="10.00">LogBackTxt.ASCII_LOGO</text>
</a>
</g>
</g>
<!-- Node1&#45;&gt;Node12 -->
<g id="edge11_Node000001_Node000012" class="edge">
<title>Node1&#45;&gt;Node12</title>
<g id="a_edge11_Node000001_Node000012"><a xlink:title=" ">
<path fill="none" stroke="#63b8ff" d="M1013.42,-75.92C1119.44,-67.64 1295.75,-52.58 1457.04,-32.3"/>
<polygon fill="#63b8ff" stroke="#63b8ff" points="1457.16,-35.81 1466.64,-31.08 1456.27,-28.87 1457.16,-35.81"/>
</a>
</g>
</g>
<!-- Node13 -->
<g id="Node000013" class="node">
<title>Node13</title>
<g id="a_Node000013"><a xlink:title=" ">
<polygon fill="#e0e0e0" stroke="#999999" points="1822.88,-32 1654.62,-32 1654.62,0 1822.88,0 1822.88,-32"/>
<text text-anchor="start" x="1662.62" y="-18.5" font-family="Helvetica,sans-Serif" font-size="10.00">fr.softsf.sudokufx.common.enums.</text>
<text text-anchor="middle" x="1738.75" y="-6.5" font-family="Helvetica,sans-Serif" font-size="10.00">LogBackTxt.OPTIMIZING</text>
</a>
</g>
</g>
<!-- Node1&#45;&gt;Node13 -->
<g id="edge12_Node000001_Node000013" class="edge">
<title>Node1&#45;&gt;Node13</title>
<g id="a_edge12_Node000001_Node000013"><a xlink:title=" ">
<path fill="none" stroke="#63b8ff" d="M1013.4,-79.05C1150.56,-72.76 1411.25,-58.55 1642.8,-32.28"/>
<polygon fill="#63b8ff" stroke="#63b8ff" points="1643.11,-35.76 1652.64,-31.15 1642.31,-28.81 1643.11,-35.76"/>
</a>
</g>
</g>
<!-- Node14 -->
<g id="Node000014" class="node">
<title>Node14</title>
<g id="a_Node000014"><a xlink:title=" ">
<polygon fill="#e0e0e0" stroke="#999999" points="2008.88,-32 1840.62,-32 1840.62,0 2008.88,0 2008.88,-32"/>
<text text-anchor="start" x="1848.62" y="-18.5" font-family="Helvetica,sans-Serif" font-size="10.00">fr.softsf.sudokufx.common.enums.</text>
<text text-anchor="middle" x="1924.75" y="-6.5" font-family="Helvetica,sans-Serif" font-size="10.00">Paths.*</text>
</a>
</g>
</g>
<!-- Node1&#45;&gt;Node14 -->
<g id="edge13_Node000001_Node000014" class="edge">
<title>Node1&#45;&gt;Node14</title>
<g id="a_edge13_Node000001_Node000014"><a xlink:title=" ">
<path fill="none" stroke="#63b8ff" d="M1013.42,-80.94C1178.04,-76.67 1525.69,-64.5 1828.93,-32.23"/>
<polygon fill="#63b8ff" stroke="#63b8ff" points="1829.08,-35.74 1838.65,-31.19 1828.33,-28.78 1829.08,-35.74"/>
</a>
</g>
</g>
</g>
</svg>

<g id="navigator" transform="translate(0 0)" fill="#404254">
  <rect fill="#f2f5e9" fill-opacity="0.5" stroke="#606060" stroke-width=".5" x="0" y="0" width="60" height="60"/>
  <use id="zoomplus" xlink:href="#zoomPlus" x="17" y="9" onmousedown="handleZoom(evt,'in')"/>
  <use id="zoomminus" xlink:href="#zoomMin" x="42" y="9" onmousedown="handleZoom(evt,'out')"/>
  <use id="reset" xlink:href="#resetDef" x="30" y="36" onmousedown="handleReset()"/>
   <use id="arrowup" xlink:href="#arrowUp" x="0" y="0" onmousedown="handlePan(0,-1)"/>
  <use id="arrowright" xlink:href="#arrowRight" x="0" y="0" onmousedown="handlePan(1,0)"/>
  <use id="arrowdown" xlink:href="#arrowDown" x="0" y="0" onmousedown="handlePan(0,1)"/>
  <use id="arrowleft" xlink:href="#arrowLeft" x="0" y="0" onmousedown="handlePan(-1,0)"/>
</g>
<svg viewBox="0 0 15 15" width="100%" height="30px" preserveAspectRatio="xMaxYMin meet">
 <g id="arrow_out" transform="scale(0.3 0.3)">
  <a xlink:href="_my_logback_config_8java__incl_org.svg" target="_base">
   <rect id="button" ry="5" rx="5" y="6" x="6" height="38" width="38"
        fill="#f2f5e9" fill-opacity="0.5" stroke="#606060" stroke-width="1.0"/>
   <path id="arrow"
     d="M 11.500037,31.436501 C 11.940474,20.09759 22.043105,11.32322 32.158766,21.979434 L 37.068811,17.246167 C 37.068811,17.246167 37.088388,32 37.088388,32 L 22.160133,31.978069 C 22.160133,31.978069 26.997745,27.140456 26.997745,27.140456 C 18.528582,18.264221 13.291696,25.230495 11.500037,31.436501 z"
     style="fill:#404040;"/>
  </a>
 </g>
</svg>

<style type='text/css'>
<![CDATA[
[data-mouse-over-selected='false'] { opacity: 0.7; }
[data-mouse-over-selected='true']  { opacity: 1.0; }
]]>
</style>
<script type="application/ecmascript"><![CDATA[
document.addEventListener('DOMContentLoaded', (event) => {
  highlightEdges();
  highlightAdjacentNodes();
});
]]></script>
</svg>
