<?xml version="1.0" encoding="UTF-8" standalone="no"?>
<!DOCTYPE svg PUBLIC "-//W3C//DTD SVG 1.1//EN"
 "http://www.w3.org/Graphics/SVG/1.1/DTD/svg11.dtd">
<!-- Generated by graphviz version 12.2.1 (20241206.2353)
 -->
<!-- Title: src/main/java/fr/softsf/sudokufx/view/component/MyAlert.java Pages: 1 -->
<svg width="1711pt" height="120pt"
 viewBox="0.00 0.00 1711.25 120.00" xmlns="http://www.w3.org/2000/svg" xmlns:xlink="http://www.w3.org/1999/xlink">
<g id="page0,1_graph0" class="graph" transform="scale(1 1) rotate(0) translate(4 116)">
<title>src/main/java/fr/softsf/sudokufx/view/component/MyAlert.java</title>
<!-- Node1 -->
<g id="Node000001" class="node">
<title>Node1</title>
<g id="a_Node000001"><a xlink:title=" ">
<polygon fill="#999999" stroke="#666666" points="857.75,-112 724.75,-112 724.75,-68 857.75,-68 857.75,-112"/>
<text text-anchor="start" x="732.75" y="-98.5" font-family="Helvetica,sans-Serif" font-size="10.00">src/main/java/fr/softsf</text>
<text text-anchor="start" x="732.75" y="-86.5" font-family="Helvetica,sans-Serif" font-size="10.00">/sudokufx/view/component</text>
<text text-anchor="middle" x="791.25" y="-74.5" font-family="Helvetica,sans-Serif" font-size="10.00">/MyAlert.java</text>
</a>
</g>
</g>
<!-- Node2 -->
<g id="Node000002" class="node">
<title>Node2</title>
<g id="a_Node000002"><a xlink:title=" ">
<polygon fill="#e0e0e0" stroke="#999999" points="86.5,-26 0,-26 0,-6 86.5,-6 86.5,-26"/>
<text text-anchor="middle" x="43.25" y="-12.5" font-family="Helvetica,sans-Serif" font-size="10.00">java.util.Objects</text>
</a>
</g>
</g>
<!-- Node1&#45;&gt;Node2 -->
<g id="edge1_Node000001_Node000002" class="edge">
<title>Node1&#45;&gt;Node2</title>
<g id="a_edge1_Node000001_Node000002"><a xlink:title=" ">
<path fill="none" stroke="#63b8ff" d="M724.46,-87.94C599.79,-84.99 323.62,-73.86 95.25,-32 91.22,-31.26 87.06,-30.34 82.93,-29.32"/>
<polygon fill="#63b8ff" stroke="#63b8ff" points="84.19,-26.03 73.62,-26.83 82.38,-32.8 84.19,-26.03"/>
</a>
</g>
</g>
<!-- Node3 -->
<g id="Node000003" class="node">
<title>Node3</title>
<g id="a_Node000003"><a xlink:title=" ">
<polygon fill="#e0e0e0" stroke="#999999" points="231.75,-26 104.75,-26 104.75,-6 231.75,-6 231.75,-26"/>
<text text-anchor="middle" x="168.25" y="-12.5" font-family="Helvetica,sans-Serif" font-size="10.00">javafx.scene.control.Alert</text>
</a>
</g>
</g>
<!-- Node1&#45;&gt;Node3 -->
<g id="edge2_Node000001_Node000003" class="edge">
<title>Node1&#45;&gt;Node3</title>
<g id="a_edge2_Node000001_Node000003"><a xlink:title=" ">
<path fill="none" stroke="#63b8ff" d="M724.39,-84.3C620.43,-76.5 413.91,-59 240.25,-32 233.95,-31.02 227.36,-29.85 220.84,-28.6"/>
<polygon fill="#63b8ff" stroke="#63b8ff" points="221.97,-25.26 211.48,-26.75 220.61,-32.13 221.97,-25.26"/>
</a>
</g>
</g>
<!-- Node4 -->
<g id="Node000004" class="node">
<title>Node4</title>
<g id="a_Node000004"><a xlink:title=" ">
<polygon fill="#e0e0e0" stroke="#999999" points="384.88,-26 249.62,-26 249.62,-6 384.88,-6 384.88,-26"/>
<text text-anchor="middle" x="317.25" y="-12.5" font-family="Helvetica,sans-Serif" font-size="10.00">javafx.scene.control.Button</text>
</a>
</g>
</g>
<!-- Node1&#45;&gt;Node4 -->
<g id="edge3_Node000001_Node000004" class="edge">
<title>Node1&#45;&gt;Node4</title>
<g id="a_edge3_Node000001_Node000004"><a xlink:title=" ">
<path fill="none" stroke="#63b8ff" d="M724.54,-80.54C645.34,-70.24 509.37,-51.76 393.25,-32 386.96,-30.93 380.4,-29.74 373.88,-28.52"/>
<polygon fill="#63b8ff" stroke="#63b8ff" points="374.96,-25.16 364.48,-26.72 373.64,-32.04 374.96,-25.16"/>
</a>
</g>
</g>
<!-- Node5 -->
<g id="Node000005" class="node">
<title>Node5</title>
<g id="a_Node000005"><a xlink:title=" ">
<polygon fill="#e0e0e0" stroke="#999999" points="559.75,-26 402.75,-26 402.75,-6 559.75,-6 559.75,-26"/>
<text text-anchor="middle" x="481.25" y="-12.5" font-family="Helvetica,sans-Serif" font-size="10.00">javafx.scene.control.DialogPane</text>
</a>
</g>
</g>
<!-- Node1&#45;&gt;Node5 -->
<g id="edge4_Node000001_Node000005" class="edge">
<title>Node1&#45;&gt;Node5</title>
<g id="a_edge4_Node000001_Node000005"><a xlink:title=" ">
<path fill="none" stroke="#63b8ff" d="M724.37,-73.47C666.99,-60.14 585.5,-41.21 532.99,-29.02"/>
<polygon fill="#63b8ff" stroke="#63b8ff" points="533.93,-25.64 523.4,-26.79 532.35,-32.46 533.93,-25.64"/>
</a>
</g>
</g>
<!-- Node6 -->
<g id="Node000006" class="node">
<title>Node6</title>
<g id="a_Node000006"><a xlink:title=" ">
<polygon fill="#e0e0e0" stroke="#999999" points="708.25,-26 578.25,-26 578.25,-6 708.25,-6 708.25,-26"/>
<text text-anchor="middle" x="643.25" y="-12.5" font-family="Helvetica,sans-Serif" font-size="10.00">javafx.scene.control.Label</text>
</a>
</g>
</g>
<!-- Node1&#45;&gt;Node6 -->
<g id="edge5_Node000001_Node000006" class="edge">
<title>Node1&#45;&gt;Node6</title>
<g id="a_edge5_Node000001_Node000006"><a xlink:title=" ">
<path fill="none" stroke="#63b8ff" d="M747.25,-67.59C723.19,-55.89 694.05,-41.71 672.74,-31.35"/>
<polygon fill="#63b8ff" stroke="#63b8ff" points="674.56,-28.34 664.03,-27.11 671.49,-34.63 674.56,-28.34"/>
</a>
</g>
</g>
<!-- Node7 -->
<g id="Node000007" class="node">
<title>Node7</title>
<g id="a_Node000007"><a xlink:title=" ">
<polygon fill="#e0e0e0" stroke="#999999" points="856.62,-26 725.88,-26 725.88,-6 856.62,-6 856.62,-26"/>
<text text-anchor="middle" x="791.25" y="-12.5" font-family="Helvetica,sans-Serif" font-size="10.00">javafx.scene.image.Image</text>
</a>
</g>
</g>
<!-- Node1&#45;&gt;Node7 -->
<g id="edge6_Node000001_Node000007" class="edge">
<title>Node1&#45;&gt;Node7</title>
<g id="a_edge6_Node000001_Node000007"><a xlink:title=" ">
<path fill="none" stroke="#63b8ff" d="M791.25,-67.79C791.25,-58.32 791.25,-47.2 791.25,-37.78"/>
<polygon fill="#63b8ff" stroke="#63b8ff" points="794.75,-37.82 791.25,-27.82 787.75,-37.82 794.75,-37.82"/>
</a>
</g>
</g>
<!-- Node8 -->
<g id="Node000008" class="node">
<title>Node8</title>
<g id="a_Node000008"><a xlink:title=" ">
<polygon fill="#e0e0e0" stroke="#999999" points="972.12,-26 874.38,-26 874.38,-6 972.12,-6 972.12,-26"/>
<text text-anchor="middle" x="923.25" y="-12.5" font-family="Helvetica,sans-Serif" font-size="10.00">javafx.stage.Stage</text>
</a>
</g>
</g>
<!-- Node1&#45;&gt;Node8 -->
<g id="edge7_Node000001_Node000008" class="edge">
<title>Node1&#45;&gt;Node8</title>
<g id="a_edge7_Node000001_Node000008"><a xlink:title=" ">
<path fill="none" stroke="#63b8ff" d="M830.5,-67.59C851.56,-56.1 877,-42.23 895.9,-31.92"/>
<polygon fill="#63b8ff" stroke="#63b8ff" points="897.5,-35.03 904.6,-27.17 894.14,-28.89 897.5,-35.03"/>
</a>
</g>
</g>
<!-- Node9 -->
<g id="Node000009" class="node">
<title>Node9</title>
<g id="a_Node000009"><a xlink:title=" ">
<polygon fill="#e0e0e0" stroke="#999999" points="1128.75,-26 989.75,-26 989.75,-6 1128.75,-6 1128.75,-26"/>
<text text-anchor="middle" x="1059.25" y="-12.5" font-family="Helvetica,sans-Serif" font-size="10.00">fr.softsf.sudokufx.SudoMain</text>
</a>
</g>
</g>
<!-- Node1&#45;&gt;Node9 -->
<g id="edge8_Node000001_Node000009" class="edge">
<title>Node1&#45;&gt;Node9</title>
<g id="a_edge8_Node000001_Node000009"><a xlink:title=" ">
<path fill="none" stroke="#63b8ff" d="M858.19,-71.02C906.43,-58.06 970.31,-40.89 1012.99,-29.43"/>
<polygon fill="#63b8ff" stroke="#63b8ff" points="1013.69,-32.86 1022.44,-26.89 1011.87,-26.1 1013.69,-32.86"/>
</a>
</g>
</g>
<!-- Node10 -->
<g id="Node000010" class="node">
<title>Node10</title>
<g id="a_Node000010"><a xlink:title=" ">
<polygon fill="#e0e0e0" stroke="#999999" points="1315.38,-32 1147.12,-32 1147.12,0 1315.38,0 1315.38,-32"/>
<text text-anchor="start" x="1155.12" y="-18.5" font-family="Helvetica,sans-Serif" font-size="10.00">fr.softsf.sudokufx.common.enums.</text>
<text text-anchor="middle" x="1231.25" y="-6.5" font-family="Helvetica,sans-Serif" font-size="10.00">AppPaths</text>
</a>
</g>
</g>
<!-- Node1&#45;&gt;Node10 -->
<g id="edge9_Node000001_Node000010" class="edge">
<title>Node1&#45;&gt;Node10</title>
<g id="a_edge9_Node000001_Node000010"><a xlink:title=" ">
<path fill="none" stroke="#63b8ff" d="M858.08,-78.06C931.97,-65.97 1051.64,-46.39 1135.48,-32.67"/>
<polygon fill="#63b8ff" stroke="#63b8ff" points="1136.01,-36.13 1145.32,-31.06 1134.88,-29.22 1136.01,-36.13"/>
</a>
</g>
</g>
<!-- Node11 -->
<g id="Node000011" class="node">
<title>Node11</title>
<g id="a_Node000011"><a xlink:title=" ">
<polygon fill="#e0e0e0" stroke="#999999" points="1465,-26 1333.5,-26 1333.5,-6 1465,-6 1465,-26"/>
<text text-anchor="middle" x="1399.25" y="-12.5" font-family="Helvetica,sans-Serif" font-size="10.00">jakarta.annotation.Nullable</text>
</a>
</g>
</g>
<!-- Node1&#45;&gt;Node11 -->
<g id="edge10_Node000001_Node000011" class="edge">
<title>Node1&#45;&gt;Node11</title>
<g id="a_edge10_Node000001_Node000011"><a xlink:title=" ">
<path fill="none" stroke="#63b8ff" d="M857.98,-83.82C959.16,-75.53 1157.29,-57.57 1324.25,-32 1330.72,-31.01 1337.49,-29.84 1344.19,-28.61"/>
<polygon fill="#63b8ff" stroke="#63b8ff" points="1344.69,-32.07 1353.86,-26.76 1343.38,-25.2 1344.69,-32.07"/>
</a>
</g>
</g>
<!-- Node12 -->
<g id="Node000012" class="node">
<title>Node12</title>
<g id="a_Node000012"><a xlink:title=" ">
<polygon fill="#e0e0e0" stroke="#999999" points="1703.25,-32 1483.25,-32 1483.25,0 1703.25,0 1703.25,-32"/>
<text text-anchor="start" x="1491.25" y="-18.5" font-family="Helvetica,sans-Serif" font-size="10.00">fr.softsf.sudokufx.common.enums.</text>
<text text-anchor="middle" x="1593.25" y="-6.5" font-family="Helvetica,sans-Serif" font-size="10.00">AppPaths.RESOURCES_CSS_ALERT_PATH</text>
</a>
</g>
</g>
<!-- Node1&#45;&gt;Node12 -->
<g id="edge11_Node000001_Node000012" class="edge">
<title>Node1&#45;&gt;Node12</title>
<g id="a_edge11_Node000001_Node000012"><a xlink:title=" ">
<path fill="none" stroke="#63b8ff" d="M858.23,-84.35C978.71,-75.78 1240.21,-56.25 1471.7,-32.24"/>
<polygon fill="#63b8ff" stroke="#63b8ff" points="1471.96,-35.73 1481.55,-31.21 1471.24,-28.77 1471.96,-35.73"/>
</a>
</g>
</g>
</g>
</svg>
