<?xml version="1.0" encoding="UTF-8" standalone="no"?>
<!DOCTYPE svg PUBLIC "-//W3C//DTD SVG 1.1//EN"
 "http://www.w3.org/Graphics/SVG/1.1/DTD/svg11.dtd">
<!-- Generated by graphviz version 12.2.1 (20241206.2353)
 -->
<!-- Title: src/main/java/fr/softsf/sudokufx/common/util/MyDateTime.java Pages: 1 -->
<svg width="650pt" height="120pt"
 viewBox="0.00 0.00 650.38 120.00" xmlns="http://www.w3.org/2000/svg" xmlns:xlink="http://www.w3.org/1999/xlink">
<g id="graph0" class="graph" transform="scale(1 1) rotate(0) translate(4 116)">
<title>src/main/java/fr/softsf/sudokufx/common/util/MyDateTime.java</title>
<!-- Node1 -->
<g id="Node000001" class="node">
<title>Node1</title>
<g id="a_Node000001"><a xlink:title=" ">
<polygon fill="#999999" stroke="#666666" points="369.62,-112 254.62,-112 254.62,-68 369.62,-68 369.62,-112"/>
<text text-anchor="start" x="262.62" y="-98.5" font-family="Helvetica,sans-Serif" font-size="10.00">src/main/java/fr/softsf</text>
<text text-anchor="start" x="262.62" y="-86.5" font-family="Helvetica,sans-Serif" font-size="10.00">/sudokufx/common/util</text>
<text text-anchor="middle" x="312.12" y="-74.5" font-family="Helvetica,sans-Serif" font-size="10.00">/MyDateTime.java</text>
</a>
</g>
</g>
<!-- Node2 -->
<g id="Node000002" class="node">
<title>Node2</title>
<g id="a_Node000002"><a xlink:title=" ">
<polygon fill="#e0e0e0" stroke="#999999" points="84.25,-26 0,-26 0,-6 84.25,-6 84.25,-26"/>
<text text-anchor="middle" x="42.12" y="-12.5" font-family="Helvetica,sans-Serif" font-size="10.00">java.time.Clock</text>
</a>
</g>
</g>
<!-- Node1&#45;&gt;Node2 -->
<g id="edge1_Node000001_Node000002" class="edge">
<title>Node1&#45;&gt;Node2</title>
<g id="a_edge1_Node000001_Node000002"><a xlink:title=" ">
<path fill="none" stroke="#63b8ff" d="M254.19,-74.27C210.2,-62.99 148.25,-46.88 94.12,-32 91.35,-31.24 88.5,-30.44 85.62,-29.63"/>
<polygon fill="#63b8ff" stroke="#63b8ff" points="86.58,-26.27 76,-26.9 84.66,-33 86.58,-26.27"/>
</a>
</g>
</g>
<!-- Node3 -->
<g id="Node000003" class="node">
<title>Node3</title>
<g id="a_Node000003"><a xlink:title=" ">
<polygon fill="#e0e0e0" stroke="#999999" points="227.5,-26 102.75,-26 102.75,-6 227.5,-6 227.5,-26"/>
<text text-anchor="middle" x="165.12" y="-12.5" font-family="Helvetica,sans-Serif" font-size="10.00">java.time.LocalDateTime</text>
</a>
</g>
</g>
<!-- Node1&#45;&gt;Node3 -->
<g id="edge2_Node000001_Node000003" class="edge">
<title>Node1&#45;&gt;Node3</title>
<g id="a_edge2_Node000001_Node000003"><a xlink:title=" ">
<path fill="none" stroke="#63b8ff" d="M268.42,-67.59C244.64,-55.94 215.84,-41.84 194.7,-31.49"/>
<polygon fill="#63b8ff" stroke="#63b8ff" points="196.29,-28.37 185.77,-27.11 193.22,-34.66 196.29,-28.37"/>
</a>
</g>
</g>
<!-- Node4 -->
<g id="Node000004" class="node">
<title>Node4</title>
<g id="a_Node000004"><a xlink:title=" ">
<polygon fill="#e0e0e0" stroke="#999999" points="378.25,-32 246,-32 246,0 378.25,0 378.25,-32"/>
<text text-anchor="start" x="254" y="-18.5" font-family="Helvetica,sans-Serif" font-size="10.00">java.time.format.DateTime</text>
<text text-anchor="middle" x="312.12" y="-6.5" font-family="Helvetica,sans-Serif" font-size="10.00">Formatter</text>
</a>
</g>
</g>
<!-- Node1&#45;&gt;Node4 -->
<g id="edge3_Node000001_Node000004" class="edge">
<title>Node1&#45;&gt;Node4</title>
<g id="a_edge3_Node000001_Node000004"><a xlink:title=" ">
<path fill="none" stroke="#63b8ff" d="M312.12,-67.79C312.12,-60.18 312.12,-51.52 312.12,-43.52"/>
<polygon fill="#63b8ff" stroke="#63b8ff" points="315.63,-43.64 312.13,-33.64 308.63,-43.64 315.63,-43.64"/>
</a>
</g>
</g>
<!-- Node5 -->
<g id="Node000005" class="node">
<title>Node5</title>
<g id="a_Node000005"><a xlink:title=" ">
<polygon fill="#e0e0e0" stroke="#999999" points="477.75,-26 396.5,-26 396.5,-6 477.75,-6 477.75,-26"/>
<text text-anchor="middle" x="437.12" y="-12.5" font-family="Helvetica,sans-Serif" font-size="10.00">java.util.Locale</text>
</a>
</g>
</g>
<!-- Node1&#45;&gt;Node5 -->
<g id="edge4_Node000001_Node000005" class="edge">
<title>Node1&#45;&gt;Node5</title>
<g id="a_edge4_Node000001_Node000005"><a xlink:title=" ">
<path fill="none" stroke="#63b8ff" d="M349.29,-67.59C369.14,-56.16 393.1,-42.36 410.98,-32.06"/>
<polygon fill="#63b8ff" stroke="#63b8ff" points="412.49,-35.23 419.41,-27.2 409,-29.16 412.49,-35.23"/>
</a>
</g>
</g>
<!-- Node6 -->
<g id="Node000006" class="node">
<title>Node6</title>
<g id="a_Node000006"><a xlink:title=" ">
<polygon fill="#e0e0e0" stroke="#999999" points="642.38,-26 495.88,-26 495.88,-6 642.38,-6 642.38,-26"/>
<text text-anchor="middle" x="569.12" y="-12.5" font-family="Helvetica,sans-Serif" font-size="10.00">fr.softsf.sudokufx.enums.I18n</text>
</a>
</g>
</g>
<!-- Node1&#45;&gt;Node6 -->
<g id="edge5_Node000001_Node000006" class="edge">
<title>Node1&#45;&gt;Node6</title>
<g id="a_edge5_Node000001_Node000006"><a xlink:title=" ">
<path fill="none" stroke="#63b8ff" d="M370.12,-72.75C416.87,-59.65 481.65,-41.51 524.44,-29.52"/>
<polygon fill="#63b8ff" stroke="#63b8ff" points="525.22,-32.94 533.9,-26.87 523.33,-26.2 525.22,-32.94"/>
</a>
</g>
</g>
</g>
</svg>
