<?xml version="1.0" encoding="UTF-8" standalone="no"?>
<!DOCTYPE svg PUBLIC "-//W3C//DTD SVG 1.1//EN"
 "http://www.w3.org/Graphics/SVG/1.1/DTD/svg11.dtd">
<!-- Generated by graphviz version 12.2.1 (20241206.2353)
 -->
<!-- Title: src/main/java/fr/softsf/sudokufx/common/util/MyDateTime.java Pages: 1 -->
<!--zoomable 120 -->

<svg id="main" version="1.1" xmlns="http://www.w3.org/2000/svg" xmlns:xlink="http://www.w3.org/1999/xlink" xml:space="preserve" onload="init(evt)">

<style type="text/css"><![CDATA[
.node, .edge {opacity: 0.7;}
.node.selected, .edge.selected {opacity: 1;}
.edge:hover path { stroke: red; }
.edge:hover polygon { stroke: red; fill: red; }
]]></style>

<defs>
  <circle id="rim" cx="0" cy="0" r="7"/>
  <circle id="rim2" cx="0" cy="0" r="3.5"/>
  <g id="zoomPlus">
    <use xlink:href="#rim" fill="#404040"><set attributeName="fill" to="#808080" begin="zoomplus.mouseover" end="zoomplus.mouseout"/></use>
    <path d="M-4,0h8M0,-4v8" fill="none" stroke="white" stroke-width="1.5" pointer-events="none"/>
  </g>
  <g id="zoomMin">
    <use xlink:href="#rim" fill="#404040"><set attributeName="fill" to="#808080" begin="zoomminus.mouseover" end="zoomminus.mouseout"/></use>
    <path d="M-4,0h8" fill="none" stroke="white" stroke-width="1.5" pointer-events="none"/>
  </g>
  <g id="arrowUp" transform="translate(30 24)">
    <use xlink:href="#rim"/>
    <path pointer-events="none" fill="none" stroke="white" stroke-width="1.5" d="M0,-3.0v7 M-2.5,-0.5L0,-3.0L2.5,-0.5"/>
  </g>
  <g id="arrowRight" transform="rotate(90) translate(36 -43)">
    <use xlink:href="#rim"/>
    <path pointer-events="none" fill="none" stroke="white" stroke-width="1.5" d="M0,-3.0v7 M-2.5,-0.5L0,-3.0L2.5,-0.5"/>
  </g>
  <g id="arrowDown" transform="rotate(180) translate(-30 -48)">
    <use xlink:href="#rim"/>
    <path pointer-events="none" fill="none" stroke="white" stroke-width="1.5" d="M0,-3.0v7 M-2.5,-0.5L0,-3.0L2.5,-0.5"/>
  </g>
  <g id="arrowLeft" transform="rotate(270) translate(-36 17)">
    <use xlink:href="#rim"/>
    <path pointer-events="none" fill="none" stroke="white" stroke-width="1.5" d="M0,-3.0v7 M-2.5,-0.5L0,-3.0L2.5,-0.5"/>
  </g>
  <g id="resetDef">
    <use xlink:href="#rim2" fill="#404040"><set attributeName="fill" to="#808080" begin="reset.mouseover" end="reset.mouseout"/></use>
  </g>
</defs>
<script type="application/ecmascript">
var viewWidth = 995;
var viewHeight = 120;
var sectionId = 'dynsection-0';
</script>
<script type="application/ecmascript" xlink:href="svg.min.js"/>
<svg id="graph" class="graph">
<g id="viewport">
<title>src/main/java/fr/softsf/sudokufx/common/util/MyDateTime.java</title>
<!-- Node1 -->
<g id="Node000001" class="node">
<title>Node1</title>
<g id="a_Node000001"><a xlink:title=" ">
<polygon fill="#999999" stroke="#666666" points="494.62,-112 379.62,-112 379.62,-68 494.62,-68 494.62,-112"/>
<text text-anchor="start" x="387.62" y="-98.5" font-family="Helvetica,sans-Serif" font-size="10.00">src/main/java/fr/softsf</text>
<text text-anchor="start" x="387.62" y="-86.5" font-family="Helvetica,sans-Serif" font-size="10.00">/sudokufx/common/util</text>
<text text-anchor="middle" x="437.12" y="-74.5" font-family="Helvetica,sans-Serif" font-size="10.00">/MyDateTime.java</text>
</a>
</g>
</g>
<!-- Node2 -->
<g id="Node000002" class="node">
<title>Node2</title>
<g id="a_Node000002"><a xlink:title=" ">
<polygon fill="#e0e0e0" stroke="#999999" points="84.25,-26 0,-26 0,-6 84.25,-6 84.25,-26"/>
<text text-anchor="middle" x="42.12" y="-12.5" font-family="Helvetica,sans-Serif" font-size="10.00">java.time.Clock</text>
</a>
</g>
</g>
<!-- Node1&#45;&gt;Node2 -->
<g id="edge1_Node000001_Node000002" class="edge">
<title>Node1&#45;&gt;Node2</title>
<g id="a_edge1_Node000001_Node000002"><a xlink:title=" ">
<path fill="none" stroke="#63b8ff" d="M379.38,-81.49C310.89,-72.11 193.47,-54.5 94.12,-32 90.75,-31.24 87.27,-30.38 83.79,-29.48"/>
<polygon fill="#63b8ff" stroke="#63b8ff" points="84.8,-26.12 74.23,-26.88 82.96,-32.88 84.8,-26.12"/>
</a>
</g>
</g>
<!-- Node3 -->
<g id="Node000003" class="node">
<title>Node3</title>
<g id="a_Node000003"><a xlink:title=" ">
<polygon fill="#e0e0e0" stroke="#999999" points="227.5,-26 102.75,-26 102.75,-6 227.5,-6 227.5,-26"/>
<text text-anchor="middle" x="165.12" y="-12.5" font-family="Helvetica,sans-Serif" font-size="10.00">java.time.LocalDateTime</text>
</a>
</g>
</g>
<!-- Node1&#45;&gt;Node3 -->
<g id="edge2_Node000001_Node000003" class="edge">
<title>Node1&#45;&gt;Node3</title>
<g id="a_edge2_Node000001_Node000003"><a xlink:title=" ">
<path fill="none" stroke="#63b8ff" d="M379.44,-73.73C329.45,-60.5 258.04,-41.6 211.64,-29.31"/>
<polygon fill="#63b8ff" stroke="#63b8ff" points="212.72,-25.98 202.16,-26.8 210.93,-32.74 212.72,-25.98"/>
</a>
</g>
</g>
<!-- Node4 -->
<g id="Node000004" class="node">
<title>Node4</title>
<g id="a_Node000004"><a xlink:title=" ">
<polygon fill="#e0e0e0" stroke="#999999" points="378.25,-32 246,-32 246,0 378.25,0 378.25,-32"/>
<text text-anchor="start" x="254" y="-18.5" font-family="Helvetica,sans-Serif" font-size="10.00">java.time.format.DateTime</text>
<text text-anchor="middle" x="312.12" y="-6.5" font-family="Helvetica,sans-Serif" font-size="10.00">Formatter</text>
</a>
</g>
</g>
<!-- Node1&#45;&gt;Node4 -->
<g id="edge3_Node000001_Node000004" class="edge">
<title>Node1&#45;&gt;Node4</title>
<g id="a_edge3_Node000001_Node000004"><a xlink:title=" ">
<path fill="none" stroke="#63b8ff" d="M399.96,-67.59C383.75,-58.26 364.8,-47.34 348.66,-38.05"/>
<polygon fill="#63b8ff" stroke="#63b8ff" points="350.75,-35.21 340.34,-33.25 347.26,-41.28 350.75,-35.21"/>
</a>
</g>
</g>
<!-- Node5 -->
<g id="Node000005" class="node">
<title>Node5</title>
<g id="a_Node000005"><a xlink:title=" ">
<polygon fill="#e0e0e0" stroke="#999999" points="477.75,-26 396.5,-26 396.5,-6 477.75,-6 477.75,-26"/>
<text text-anchor="middle" x="437.12" y="-12.5" font-family="Helvetica,sans-Serif" font-size="10.00">java.util.Locale</text>
</a>
</g>
</g>
<!-- Node1&#45;&gt;Node5 -->
<g id="edge4_Node000001_Node000005" class="edge">
<title>Node1&#45;&gt;Node5</title>
<g id="a_edge4_Node000001_Node000005"><a xlink:title=" ">
<path fill="none" stroke="#63b8ff" d="M437.12,-67.79C437.12,-58.32 437.12,-47.2 437.12,-37.78"/>
<polygon fill="#63b8ff" stroke="#63b8ff" points="440.63,-37.82 437.13,-27.82 433.63,-37.82 440.63,-37.82"/>
</a>
</g>
</g>
<!-- Node6 -->
<g id="Node000006" class="node">
<title>Node6</title>
<g id="a_Node000006"><a xlink:title=" ">
<polygon fill="#e0e0e0" stroke="#999999" points="582.38,-26 495.88,-26 495.88,-6 582.38,-6 582.38,-26"/>
<text text-anchor="middle" x="539.12" y="-12.5" font-family="Helvetica,sans-Serif" font-size="10.00">java.util.Objects</text>
</a>
</g>
</g>
<!-- Node1&#45;&gt;Node6 -->
<g id="edge5_Node000001_Node000006" class="edge">
<title>Node1&#45;&gt;Node6</title>
<g id="a_edge5_Node000001_Node000006"><a xlink:title=" ">
<path fill="none" stroke="#63b8ff" d="M467.45,-67.59C483.2,-56.48 502.11,-43.13 516.55,-32.94"/>
<polygon fill="#63b8ff" stroke="#63b8ff" points="518.35,-35.95 524.5,-27.32 514.32,-30.23 518.35,-35.95"/>
</a>
</g>
</g>
<!-- Node7 -->
<g id="Node000007" class="node">
<title>Node7</title>
<g id="a_Node000007"><a xlink:title=" ">
<polygon fill="#e0e0e0" stroke="#999999" points="787.62,-26 600.62,-26 600.62,-6 787.62,-6 787.62,-26"/>
<text text-anchor="middle" x="694.12" y="-12.5" font-family="Helvetica,sans-Serif" font-size="10.00">fr.softsf.sudokufx.common.enums.I18n</text>
</a>
</g>
</g>
<!-- Node1&#45;&gt;Node7 -->
<g id="edge6_Node000001_Node000007" class="edge">
<title>Node1&#45;&gt;Node7</title>
<g id="a_edge6_Node000001_Node000007"><a xlink:title=" ">
<path fill="none" stroke="#63b8ff" d="M495.12,-72.75C541.87,-59.65 606.65,-41.51 649.44,-29.52"/>
<polygon fill="#63b8ff" stroke="#63b8ff" points="650.22,-32.94 658.9,-26.87 648.33,-26.2 650.22,-32.94"/>
</a>
</g>
</g>
<!-- Node8 -->
<g id="Node000008" class="node">
<title>Node8</title>
<g id="a_Node000008"><a xlink:title=" ">
<polygon fill="#e0e0e0" stroke="#999999" points="986.62,-32 805.62,-32 805.62,0 986.62,0 986.62,-32"/>
<text text-anchor="start" x="813.62" y="-18.5" font-family="Helvetica,sans-Serif" font-size="10.00">fr.softsf.sudokufx.common.exception.</text>
<text text-anchor="middle" x="896.12" y="-6.5" font-family="Helvetica,sans-Serif" font-size="10.00">ExceptionTools</text>
</a>
</g>
</g>
<!-- Node1&#45;&gt;Node8 -->
<g id="edge7_Node000001_Node000008" class="edge">
<title>Node1&#45;&gt;Node8</title>
<g id="a_edge7_Node000001_Node000008"><a xlink:title=" ">
<path fill="none" stroke="#63b8ff" d="M494.79,-79.95C569.8,-68.19 702.09,-47.44 794.2,-32.99"/>
<polygon fill="#63b8ff" stroke="#63b8ff" points="794.68,-36.46 804.02,-31.45 793.6,-29.54 794.68,-36.46"/>
</a>
</g>
</g>
</g>
</svg>

<g id="navigator" transform="translate(0 0)" fill="#404254">
  <rect fill="#f2f5e9" fill-opacity="0.5" stroke="#606060" stroke-width=".5" x="0" y="0" width="60" height="60"/>
  <use id="zoomplus" xlink:href="#zoomPlus" x="17" y="9" onmousedown="handleZoom(evt,'in')"/>
  <use id="zoomminus" xlink:href="#zoomMin" x="42" y="9" onmousedown="handleZoom(evt,'out')"/>
  <use id="reset" xlink:href="#resetDef" x="30" y="36" onmousedown="handleReset()"/>
   <use id="arrowup" xlink:href="#arrowUp" x="0" y="0" onmousedown="handlePan(0,-1)"/>
  <use id="arrowright" xlink:href="#arrowRight" x="0" y="0" onmousedown="handlePan(1,0)"/>
  <use id="arrowdown" xlink:href="#arrowDown" x="0" y="0" onmousedown="handlePan(0,1)"/>
  <use id="arrowleft" xlink:href="#arrowLeft" x="0" y="0" onmousedown="handlePan(-1,0)"/>
</g>
<svg viewBox="0 0 15 15" width="100%" height="30px" preserveAspectRatio="xMaxYMin meet">
 <g id="arrow_out" transform="scale(0.3 0.3)">
  <a xlink:href="_my_date_time_8java__incl_org.svg" target="_base">
   <rect id="button" ry="5" rx="5" y="6" x="6" height="38" width="38"
        fill="#f2f5e9" fill-opacity="0.5" stroke="#606060" stroke-width="1.0"/>
   <path id="arrow"
     d="M 11.500037,31.436501 C 11.940474,20.09759 22.043105,11.32322 32.158766,21.979434 L 37.068811,17.246167 C 37.068811,17.246167 37.088388,32 37.088388,32 L 22.160133,31.978069 C 22.160133,31.978069 26.997745,27.140456 26.997745,27.140456 C 18.528582,18.264221 13.291696,25.230495 11.500037,31.436501 z"
     style="fill:#404040;"/>
  </a>
 </g>
</svg>

<style type='text/css'>
<![CDATA[
[data-mouse-over-selected='false'] { opacity: 0.7; }
[data-mouse-over-selected='true']  { opacity: 1.0; }
]]>
</style>
<script type="application/ecmascript"><![CDATA[
document.addEventListener('DOMContentLoaded', (event) => {
  highlightEdges();
  highlightAdjacentNodes();
});
]]></script>
</svg>
