<?xml version="1.0" encoding="UTF-8" standalone="no"?>
<!DOCTYPE svg PUBLIC "-//W3C//DTD SVG 1.1//EN"
 "http://www.w3.org/Graphics/SVG/1.1/DTD/svg11.dtd">
<!-- Generated by graphviz version 12.2.1 (20241206.2353)
 -->
<!-- Title: src/main/java/fr/softsf/sudokufx/utils/MyDateTime.java Pages: 1 -->
<svg width="560pt" height="108pt"
 viewBox="0.00 0.00 560.25 108.00" xmlns="http://www.w3.org/2000/svg" xmlns:xlink="http://www.w3.org/1999/xlink">
<g id="graph0" class="graph" transform="scale(1 1) rotate(0) translate(4 104)">
<title>src/main/java/fr/softsf/sudokufx/utils/MyDateTime.java</title>
<!-- Node1 -->
<g id="Node000001" class="node">
<title>Node1</title>
<g id="a_Node000001"><a xlink:title=" ">
<polygon fill="#999999" stroke="#666666" points="318.12,-100 158.12,-100 158.12,-68 318.12,-68 318.12,-100"/>
<text text-anchor="start" x="166.12" y="-86.5" font-family="Helvetica,sans-Serif" font-size="10.00">src/main/java/fr/softsf</text>
<text text-anchor="middle" x="238.12" y="-74.5" font-family="Helvetica,sans-Serif" font-size="10.00">/sudokufx/utils/MyDateTime.java</text>
</a>
</g>
</g>
<!-- Node2 -->
<g id="Node000002" class="node">
<title>Node2</title>
<g id="a_Node000002"><a xlink:title=" ">
<polygon fill="#e0e0e0" stroke="#999999" points="84.25,-26 0,-26 0,-6 84.25,-6 84.25,-26"/>
<text text-anchor="middle" x="42.12" y="-12.5" font-family="Helvetica,sans-Serif" font-size="10.00">java.time.Clock</text>
</a>
</g>
</g>
<!-- Node1&#45;&gt;Node2 -->
<g id="edge1_Node000001_Node000002" class="edge">
<title>Node1&#45;&gt;Node2</title>
<g id="a_edge1_Node000001_Node000002"><a xlink:title=" ">
<path fill="none" stroke="#63b8ff" d="M192.17,-67.53C158.37,-56.14 112.92,-40.84 80.93,-30.07"/>
<polygon fill="#63b8ff" stroke="#63b8ff" points="82.25,-26.82 71.65,-26.94 80.01,-33.45 82.25,-26.82"/>
</a>
</g>
</g>
<!-- Node3 -->
<g id="Node000003" class="node">
<title>Node3</title>
<g id="a_Node000003"><a xlink:title=" ">
<polygon fill="#e0e0e0" stroke="#999999" points="227.5,-26 102.75,-26 102.75,-6 227.5,-6 227.5,-26"/>
<text text-anchor="middle" x="165.12" y="-12.5" font-family="Helvetica,sans-Serif" font-size="10.00">java.time.LocalDateTime</text>
</a>
</g>
</g>
<!-- Node1&#45;&gt;Node3 -->
<g id="edge2_Node000001_Node000003" class="edge">
<title>Node1&#45;&gt;Node3</title>
<g id="a_edge2_Node000001_Node000003"><a xlink:title=" ">
<path fill="none" stroke="#63b8ff" d="M221.19,-67.69C210.03,-57.6 195.39,-44.36 183.87,-33.95"/>
<polygon fill="#63b8ff" stroke="#63b8ff" points="186.32,-31.44 176.55,-27.33 181.62,-36.63 186.32,-31.44"/>
</a>
</g>
</g>
<!-- Node4 -->
<g id="Node000004" class="node">
<title>Node4</title>
<g id="a_Node000004"><a xlink:title=" ">
<polygon fill="#e0e0e0" stroke="#999999" points="378.25,-32 246,-32 246,0 378.25,0 378.25,-32"/>
<text text-anchor="start" x="254" y="-18.5" font-family="Helvetica,sans-Serif" font-size="10.00">java.time.format.DateTime</text>
<text text-anchor="middle" x="312.12" y="-6.5" font-family="Helvetica,sans-Serif" font-size="10.00">Formatter</text>
</a>
</g>
</g>
<!-- Node1&#45;&gt;Node4 -->
<g id="edge3_Node000001_Node000004" class="edge">
<title>Node1&#45;&gt;Node4</title>
<g id="a_edge3_Node000001_Node000004"><a xlink:title=" ">
<path fill="none" stroke="#63b8ff" d="M255.29,-67.69C264.47,-59.5 275.96,-49.25 286.21,-40.12"/>
<polygon fill="#63b8ff" stroke="#63b8ff" points="288.54,-42.73 293.67,-33.46 283.88,-37.5 288.54,-42.73"/>
</a>
</g>
</g>
<!-- Node5 -->
<g id="Node000005" class="node">
<title>Node5</title>
<g id="a_Node000005"><a xlink:title=" ">
<polygon fill="#e0e0e0" stroke="#999999" points="552.25,-32 396,-32 396,0 552.25,0 552.25,-32"/>
<text text-anchor="start" x="404" y="-18.5" font-family="Helvetica,sans-Serif" font-size="10.00">org.springframework.stereotype.</text>
<text text-anchor="middle" x="474.12" y="-6.5" font-family="Helvetica,sans-Serif" font-size="10.00">Component</text>
</a>
</g>
</g>
<!-- Node1&#45;&gt;Node5 -->
<g id="edge4_Node000001_Node000005" class="edge">
<title>Node1&#45;&gt;Node5</title>
<g id="a_edge4_Node000001_Node000005"><a xlink:title=" ">
<path fill="none" stroke="#63b8ff" d="M293.46,-67.53C327.66,-57.96 371.75,-45.63 407.82,-35.54"/>
<polygon fill="#63b8ff" stroke="#63b8ff" points="408.59,-38.96 417.27,-32.9 406.7,-32.22 408.59,-38.96"/>
</a>
</g>
</g>
</g>
</svg>
