<?xml version="1.0" encoding="UTF-8" standalone="no"?>
<!DOCTYPE svg PUBLIC "-//W3C//DTD SVG 1.1//EN"
 "http://www.w3.org/Graphics/SVG/1.1/DTD/svg11.dtd">
<!-- Generated by graphviz version 12.2.1 (20241206.2353)
 -->
<!-- Title: src/main/java/fr/softsf/sudokufx/view/component/MyAlert.java Pages: 1 -->
<svg width="1269pt" height="120pt"
 viewBox="0.00 0.00 1269.12 120.00" xmlns="http://www.w3.org/2000/svg" xmlns:xlink="http://www.w3.org/1999/xlink">
<g id="graph0" class="graph" transform="scale(1 1) rotate(0) translate(4 116)">
<title>src/main/java/fr/softsf/sudokufx/view/component/MyAlert.java</title>
<!-- Node1 -->
<g id="Node000001" class="node">
<title>Node1</title>
<g id="a_Node000001"><a xlink:title=" ">
<polygon fill="#999999" stroke="#666666" points="704.75,-112 571.75,-112 571.75,-68 704.75,-68 704.75,-112"/>
<text text-anchor="start" x="579.75" y="-98.5" font-family="Helvetica,sans-Serif" font-size="10.00">src/main/java/fr/softsf</text>
<text text-anchor="start" x="579.75" y="-86.5" font-family="Helvetica,sans-Serif" font-size="10.00">/sudokufx/view/component</text>
<text text-anchor="middle" x="638.25" y="-74.5" font-family="Helvetica,sans-Serif" font-size="10.00">/MyAlert.java</text>
</a>
</g>
</g>
<!-- Node2 -->
<g id="Node000002" class="node">
<title>Node2</title>
<g id="a_Node000002"><a xlink:title=" ">
<polygon fill="#e0e0e0" stroke="#999999" points="86.5,-26 0,-26 0,-6 86.5,-6 86.5,-26"/>
<text text-anchor="middle" x="43.25" y="-12.5" font-family="Helvetica,sans-Serif" font-size="10.00">java.util.Objects</text>
</a>
</g>
</g>
<!-- Node1&#45;&gt;Node2 -->
<g id="edge1_Node000001_Node000002" class="edge">
<title>Node1&#45;&gt;Node2</title>
<g id="a_edge1_Node000001_Node000002"><a xlink:title=" ">
<path fill="none" stroke="#63b8ff" d="M571.66,-85.8C468.7,-79.99 265.04,-65.13 95.25,-32 91.45,-31.26 87.52,-30.37 83.6,-29.39"/>
<polygon fill="#63b8ff" stroke="#63b8ff" points="84.76,-26.08 74.19,-26.87 82.95,-32.84 84.76,-26.08"/>
</a>
</g>
</g>
<!-- Node3 -->
<g id="Node000003" class="node">
<title>Node3</title>
<g id="a_Node000003"><a xlink:title=" ">
<polygon fill="#e0e0e0" stroke="#999999" points="231.75,-26 104.75,-26 104.75,-6 231.75,-6 231.75,-26"/>
<text text-anchor="middle" x="168.25" y="-12.5" font-family="Helvetica,sans-Serif" font-size="10.00">javafx.scene.control.Alert</text>
</a>
</g>
</g>
<!-- Node1&#45;&gt;Node3 -->
<g id="edge2_Node000001_Node000003" class="edge">
<title>Node1&#45;&gt;Node3</title>
<g id="a_edge2_Node000001_Node000003"><a xlink:title=" ">
<path fill="none" stroke="#63b8ff" d="M571.5,-80.75C492.27,-70.65 356.27,-52.37 240.25,-32 234.58,-31 228.67,-29.89 222.79,-28.74"/>
<polygon fill="#63b8ff" stroke="#63b8ff" points="223.55,-25.32 213.05,-26.78 222.17,-32.19 223.55,-25.32"/>
</a>
</g>
</g>
<!-- Node4 -->
<g id="Node000004" class="node">
<title>Node4</title>
<g id="a_Node000004"><a xlink:title=" ">
<polygon fill="#e0e0e0" stroke="#999999" points="406.75,-26 249.75,-26 249.75,-6 406.75,-6 406.75,-26"/>
<text text-anchor="middle" x="328.25" y="-12.5" font-family="Helvetica,sans-Serif" font-size="10.00">javafx.scene.control.DialogPane</text>
</a>
</g>
</g>
<!-- Node1&#45;&gt;Node4 -->
<g id="edge3_Node000001_Node000004" class="edge">
<title>Node1&#45;&gt;Node4</title>
<g id="a_edge3_Node000001_Node000004"><a xlink:title=" ">
<path fill="none" stroke="#63b8ff" d="M571.37,-73.47C513.99,-60.14 432.5,-41.21 379.99,-29.02"/>
<polygon fill="#63b8ff" stroke="#63b8ff" points="380.93,-25.64 370.4,-26.79 379.35,-32.46 380.93,-25.64"/>
</a>
</g>
</g>
<!-- Node5 -->
<g id="Node000005" class="node">
<title>Node5</title>
<g id="a_Node000005"><a xlink:title=" ">
<polygon fill="#e0e0e0" stroke="#999999" points="555.25,-26 425.25,-26 425.25,-6 555.25,-6 555.25,-26"/>
<text text-anchor="middle" x="490.25" y="-12.5" font-family="Helvetica,sans-Serif" font-size="10.00">javafx.scene.control.Label</text>
</a>
</g>
</g>
<!-- Node1&#45;&gt;Node5 -->
<g id="edge4_Node000001_Node000005" class="edge">
<title>Node1&#45;&gt;Node5</title>
<g id="a_edge4_Node000001_Node000005"><a xlink:title=" ">
<path fill="none" stroke="#63b8ff" d="M594.25,-67.59C570.19,-55.89 541.05,-41.71 519.74,-31.35"/>
<polygon fill="#63b8ff" stroke="#63b8ff" points="521.56,-28.34 511.03,-27.11 518.49,-34.63 521.56,-28.34"/>
</a>
</g>
</g>
<!-- Node6 -->
<g id="Node000006" class="node">
<title>Node6</title>
<g id="a_Node000006"><a xlink:title=" ">
<polygon fill="#e0e0e0" stroke="#999999" points="703.62,-26 572.88,-26 572.88,-6 703.62,-6 703.62,-26"/>
<text text-anchor="middle" x="638.25" y="-12.5" font-family="Helvetica,sans-Serif" font-size="10.00">javafx.scene.image.Image</text>
</a>
</g>
</g>
<!-- Node1&#45;&gt;Node6 -->
<g id="edge5_Node000001_Node000006" class="edge">
<title>Node1&#45;&gt;Node6</title>
<g id="a_edge5_Node000001_Node000006"><a xlink:title=" ">
<path fill="none" stroke="#63b8ff" d="M638.25,-67.79C638.25,-58.32 638.25,-47.2 638.25,-37.78"/>
<polygon fill="#63b8ff" stroke="#63b8ff" points="641.75,-37.82 638.25,-27.82 634.75,-37.82 641.75,-37.82"/>
</a>
</g>
</g>
<!-- Node7 -->
<g id="Node000007" class="node">
<title>Node7</title>
<g id="a_Node000007"><a xlink:title=" ">
<polygon fill="#e0e0e0" stroke="#999999" points="843.12,-26 721.38,-26 721.38,-6 843.12,-6 843.12,-26"/>
<text text-anchor="middle" x="782.25" y="-12.5" font-family="Helvetica,sans-Serif" font-size="10.00">javafx.scene.paint.Color</text>
</a>
</g>
</g>
<!-- Node1&#45;&gt;Node7 -->
<g id="edge6_Node000001_Node000007" class="edge">
<title>Node1&#45;&gt;Node7</title>
<g id="a_edge6_Node000001_Node000007"><a xlink:title=" ">
<path fill="none" stroke="#63b8ff" d="M681.06,-67.59C704.36,-55.94 732.57,-41.84 753.27,-31.49"/>
<polygon fill="#63b8ff" stroke="#63b8ff" points="754.62,-34.73 762,-27.12 751.49,-28.47 754.62,-34.73"/>
</a>
</g>
</g>
<!-- Node8 -->
<g id="Node000008" class="node">
<title>Node8</title>
<g id="a_Node000008"><a xlink:title=" ">
<polygon fill="#e0e0e0" stroke="#999999" points="959.12,-26 861.38,-26 861.38,-6 959.12,-6 959.12,-26"/>
<text text-anchor="middle" x="910.25" y="-12.5" font-family="Helvetica,sans-Serif" font-size="10.00">javafx.stage.Stage</text>
</a>
</g>
</g>
<!-- Node1&#45;&gt;Node8 -->
<g id="edge7_Node000001_Node000008" class="edge">
<title>Node1&#45;&gt;Node8</title>
<g id="a_edge7_Node000001_Node000008"><a xlink:title=" ">
<path fill="none" stroke="#63b8ff" d="M705.14,-71.29C754.34,-58.27 819.97,-40.9 863.6,-29.35"/>
<polygon fill="#63b8ff" stroke="#63b8ff" points="864.23,-32.8 873,-26.86 862.44,-26.04 864.23,-32.8"/>
</a>
</g>
</g>
<!-- Node9 -->
<g id="Node000009" class="node">
<title>Node9</title>
<g id="a_Node000009"><a xlink:title=" ">
<polygon fill="#e0e0e0" stroke="#999999" points="1115.75,-26 976.75,-26 976.75,-6 1115.75,-6 1115.75,-26"/>
<text text-anchor="middle" x="1046.25" y="-12.5" font-family="Helvetica,sans-Serif" font-size="10.00">fr.softsf.sudokufx.SudoMain</text>
</a>
</g>
</g>
<!-- Node1&#45;&gt;Node9 -->
<g id="edge8_Node000001_Node000009" class="edge">
<title>Node1&#45;&gt;Node9</title>
<g id="a_edge8_Node000001_Node000009"><a xlink:title=" ">
<path fill="none" stroke="#63b8ff" d="M705,-77.85C771.7,-66.62 877.17,-48.62 968.25,-32 974.27,-30.9 980.55,-29.73 986.81,-28.55"/>
<polygon fill="#63b8ff" stroke="#63b8ff" points="987.35,-32.01 996.52,-26.71 986.05,-25.13 987.35,-32.01"/>
</a>
</g>
</g>
<!-- Node10 -->
<g id="Node000010" class="node">
<title>Node10</title>
<g id="a_Node000010"><a xlink:title=" ">
<polygon fill="#e0e0e0" stroke="#999999" points="1261.12,-32 1133.38,-32 1133.38,0 1261.12,0 1261.12,-32"/>
<text text-anchor="start" x="1141.38" y="-18.5" font-family="Helvetica,sans-Serif" font-size="10.00">fr.softsf.sudokufx.enums.</text>
<text text-anchor="middle" x="1197.25" y="-6.5" font-family="Helvetica,sans-Serif" font-size="10.00">Paths</text>
</a>
</g>
</g>
<!-- Node1&#45;&gt;Node10 -->
<g id="edge9_Node000001_Node000010" class="edge">
<title>Node1&#45;&gt;Node10</title>
<g id="a_edge9_Node000001_Node000010"><a xlink:title=" ">
<path fill="none" stroke="#63b8ff" d="M705.07,-83.08C796.96,-74.51 967.66,-57.09 1121.85,-32.48"/>
<polygon fill="#63b8ff" stroke="#63b8ff" points="1122.12,-35.98 1131.43,-30.94 1121,-29.07 1122.12,-35.98"/>
</a>
</g>
</g>
</g>
</svg>
