<?xml version="1.0" encoding="UTF-8" standalone="no"?>
<!DOCTYPE svg PUBLIC "-//W3C//DTD SVG 1.1//EN"
 "http://www.w3.org/Graphics/SVG/1.1/DTD/svg11.dtd">
<!-- Generated by graphviz version 12.2.1 (20241206.2353)
 -->
<!-- Title: src/main/java/fr/softsf/sudokufx/view/components/MyAlert.java Pages: 1 -->
<svg width="1094pt" height="120pt"
 viewBox="0.00 0.00 1094.12 120.00" xmlns="http://www.w3.org/2000/svg" xmlns:xlink="http://www.w3.org/1999/xlink">
<g id="graph0" class="graph" transform="scale(1 1) rotate(0) translate(4 116)">
<title>src/main/java/fr/softsf/sudokufx/view/components/MyAlert.java</title>
<!-- Node1 -->
<g id="Node000001" class="node">
<title>Node1</title>
<g id="a_Node000001"><a xlink:title=" ">
<polygon fill="#999999" stroke="#666666" points="604.38,-112 466.12,-112 466.12,-68 604.38,-68 604.38,-112"/>
<text text-anchor="start" x="474.12" y="-98.5" font-family="Helvetica,sans-Serif" font-size="10.00">src/main/java/fr/softsf</text>
<text text-anchor="start" x="474.12" y="-86.5" font-family="Helvetica,sans-Serif" font-size="10.00">/sudokufx/view/components</text>
<text text-anchor="middle" x="535.25" y="-74.5" font-family="Helvetica,sans-Serif" font-size="10.00">/MyAlert.java</text>
</a>
</g>
</g>
<!-- Node2 -->
<g id="Node000002" class="node">
<title>Node2</title>
<g id="a_Node000002"><a xlink:title=" ">
<polygon fill="#e0e0e0" stroke="#999999" points="86.5,-26 0,-26 0,-6 86.5,-6 86.5,-26"/>
<text text-anchor="middle" x="43.25" y="-12.5" font-family="Helvetica,sans-Serif" font-size="10.00">java.util.Objects</text>
</a>
</g>
</g>
<!-- Node1&#45;&gt;Node2 -->
<g id="edge1_Node000001_Node000002" class="edge">
<title>Node1&#45;&gt;Node2</title>
<g id="a_edge1_Node000001_Node000002"><a xlink:title=" ">
<path fill="none" stroke="#63b8ff" d="M465.74,-83.29C378.55,-75.37 224.78,-58.91 95.25,-32 91.62,-31.25 87.87,-30.37 84.12,-29.42"/>
<polygon fill="#63b8ff" stroke="#63b8ff" points="85.06,-26.05 74.49,-26.82 83.23,-32.81 85.06,-26.05"/>
</a>
</g>
</g>
<!-- Node3 -->
<g id="Node000003" class="node">
<title>Node3</title>
<g id="a_Node000003"><a xlink:title=" ">
<polygon fill="#e0e0e0" stroke="#999999" points="231.75,-26 104.75,-26 104.75,-6 231.75,-6 231.75,-26"/>
<text text-anchor="middle" x="168.25" y="-12.5" font-family="Helvetica,sans-Serif" font-size="10.00">javafx.scene.control.Alert</text>
</a>
</g>
</g>
<!-- Node1&#45;&gt;Node3 -->
<g id="edge2_Node000001_Node000003" class="edge">
<title>Node1&#45;&gt;Node3</title>
<g id="a_edge2_Node000001_Node000003"><a xlink:title=" ">
<path fill="none" stroke="#63b8ff" d="M465.71,-75.74C406.11,-64.33 317.98,-47.32 241.25,-32 235.98,-30.95 230.49,-29.84 225,-28.73"/>
<polygon fill="#63b8ff" stroke="#63b8ff" points="225.78,-25.31 215.28,-26.74 224.38,-32.17 225.78,-25.31"/>
</a>
</g>
</g>
<!-- Node4 -->
<g id="Node000004" class="node">
<title>Node4</title>
<g id="a_Node000004"><a xlink:title=" ">
<polygon fill="#e0e0e0" stroke="#999999" points="380.25,-26 250.25,-26 250.25,-6 380.25,-6 380.25,-26"/>
<text text-anchor="middle" x="315.25" y="-12.5" font-family="Helvetica,sans-Serif" font-size="10.00">javafx.scene.control.Label</text>
</a>
</g>
</g>
<!-- Node1&#45;&gt;Node4 -->
<g id="edge3_Node000001_Node000004" class="edge">
<title>Node1&#45;&gt;Node4</title>
<g id="a_edge3_Node000001_Node000004"><a xlink:title=" ">
<path fill="none" stroke="#63b8ff" d="M469.84,-67.59C432.45,-55.36 386.79,-40.41 354.82,-29.95"/>
<polygon fill="#63b8ff" stroke="#63b8ff" points="356.15,-26.7 345.56,-26.92 353.97,-33.36 356.15,-26.7"/>
</a>
</g>
</g>
<!-- Node5 -->
<g id="Node000005" class="node">
<title>Node5</title>
<g id="a_Node000005"><a xlink:title=" ">
<polygon fill="#e0e0e0" stroke="#999999" points="528.62,-26 397.88,-26 397.88,-6 528.62,-6 528.62,-26"/>
<text text-anchor="middle" x="463.25" y="-12.5" font-family="Helvetica,sans-Serif" font-size="10.00">javafx.scene.image.Image</text>
</a>
</g>
</g>
<!-- Node1&#45;&gt;Node5 -->
<g id="edge4_Node000001_Node000005" class="edge">
<title>Node1&#45;&gt;Node5</title>
<g id="a_edge4_Node000001_Node000005"><a xlink:title=" ">
<path fill="none" stroke="#63b8ff" d="M514.04,-67.79C503.39,-57.14 490.64,-44.39 480.59,-34.34"/>
<polygon fill="#63b8ff" stroke="#63b8ff" points="483.18,-31.98 473.63,-27.38 478.23,-36.93 483.18,-31.98"/>
</a>
</g>
</g>
<!-- Node6 -->
<g id="Node000006" class="node">
<title>Node6</title>
<g id="a_Node000006"><a xlink:title=" ">
<polygon fill="#e0e0e0" stroke="#999999" points="668.12,-26 546.38,-26 546.38,-6 668.12,-6 668.12,-26"/>
<text text-anchor="middle" x="607.25" y="-12.5" font-family="Helvetica,sans-Serif" font-size="10.00">javafx.scene.paint.Color</text>
</a>
</g>
</g>
<!-- Node1&#45;&gt;Node6 -->
<g id="edge5_Node000001_Node000006" class="edge">
<title>Node1&#45;&gt;Node6</title>
<g id="a_edge5_Node000001_Node000006"><a xlink:title=" ">
<path fill="none" stroke="#63b8ff" d="M556.46,-67.79C567.11,-57.14 579.86,-44.39 589.91,-34.34"/>
<polygon fill="#63b8ff" stroke="#63b8ff" points="592.27,-36.93 596.87,-27.38 587.32,-31.98 592.27,-36.93"/>
</a>
</g>
</g>
<!-- Node7 -->
<g id="Node000007" class="node">
<title>Node7</title>
<g id="a_Node000007"><a xlink:title=" ">
<polygon fill="#e0e0e0" stroke="#999999" points="784.12,-26 686.38,-26 686.38,-6 784.12,-6 784.12,-26"/>
<text text-anchor="middle" x="735.25" y="-12.5" font-family="Helvetica,sans-Serif" font-size="10.00">javafx.stage.Stage</text>
</a>
</g>
</g>
<!-- Node1&#45;&gt;Node7 -->
<g id="edge6_Node000001_Node000007" class="edge">
<title>Node1&#45;&gt;Node7</title>
<g id="a_edge6_Node000001_Node000007"><a xlink:title=" ">
<path fill="none" stroke="#63b8ff" d="M594.72,-67.59C628.41,-55.46 669.49,-40.67 698.51,-30.22"/>
<polygon fill="#63b8ff" stroke="#63b8ff" points="699.36,-33.64 707.58,-26.96 696.99,-27.05 699.36,-33.64"/>
</a>
</g>
</g>
<!-- Node8 -->
<g id="Node000008" class="node">
<title>Node8</title>
<g id="a_Node000008"><a xlink:title=" ">
<polygon fill="#e0e0e0" stroke="#999999" points="940.75,-26 801.75,-26 801.75,-6 940.75,-6 940.75,-26"/>
<text text-anchor="middle" x="871.25" y="-12.5" font-family="Helvetica,sans-Serif" font-size="10.00">fr.softsf.sudokufx.SudoMain</text>
</a>
</g>
</g>
<!-- Node1&#45;&gt;Node8 -->
<g id="edge7_Node000001_Node000008" class="edge">
<title>Node1&#45;&gt;Node8</title>
<g id="a_edge7_Node000001_Node000008"><a xlink:title=" ">
<path fill="none" stroke="#63b8ff" d="M604.87,-74.08C667.58,-60.64 758.53,-41.15 816.27,-28.78"/>
<polygon fill="#63b8ff" stroke="#63b8ff" points="816.83,-32.24 825.88,-26.72 815.36,-25.4 816.83,-32.24"/>
</a>
</g>
</g>
<!-- Node9 -->
<g id="Node000009" class="node">
<title>Node9</title>
<g id="a_Node000009"><a xlink:title=" ">
<polygon fill="#e0e0e0" stroke="#999999" points="1086.12,-32 958.38,-32 958.38,0 1086.12,0 1086.12,-32"/>
<text text-anchor="start" x="966.38" y="-18.5" font-family="Helvetica,sans-Serif" font-size="10.00">fr.softsf.sudokufx.enums.</text>
<text text-anchor="middle" x="1022.25" y="-6.5" font-family="Helvetica,sans-Serif" font-size="10.00">Paths</text>
</a>
</g>
</g>
<!-- Node1&#45;&gt;Node9 -->
<g id="edge8_Node000001_Node000009" class="edge">
<title>Node1&#45;&gt;Node9</title>
<g id="a_edge8_Node000001_Node000009"><a xlink:title=" ">
<path fill="none" stroke="#63b8ff" d="M604.87,-80.93C685.07,-71.29 821.06,-53.93 946.58,-32.58"/>
<polygon fill="#63b8ff" stroke="#63b8ff" points="947.16,-36.03 956.42,-30.89 945.98,-29.13 947.16,-36.03"/>
</a>
</g>
</g>
</g>
</svg>
