<?xml version="1.0" encoding="UTF-8" standalone="no"?>
<!DOCTYPE svg PUBLIC "-//W3C//DTD SVG 1.1//EN"
 "http://www.w3.org/Graphics/SVG/1.1/DTD/svg11.dtd">
<!-- Generated by graphviz version 12.2.1 (20241206.2353)
 -->
<!-- Title: src/main/java/fr/softsf/sudokufx/utils/MyDateTime.java Pages: 1 -->
<svg width="650pt" height="108pt"
 viewBox="0.00 0.00 650.38 108.00" xmlns="http://www.w3.org/2000/svg" xmlns:xlink="http://www.w3.org/1999/xlink">
<g id="graph0" class="graph" transform="scale(1 1) rotate(0) translate(4 104)">
<title>src/main/java/fr/softsf/sudokufx/utils/MyDateTime.java</title>
<!-- Node1 -->
<g id="Node000001" class="node">
<title>Node1</title>
<g id="a_Node000001"><a xlink:title=" ">
<polygon fill="#999999" stroke="#666666" points="392.12,-100 232.12,-100 232.12,-68 392.12,-68 392.12,-100"/>
<text text-anchor="start" x="240.12" y="-86.5" font-family="Helvetica,sans-Serif" font-size="10.00">src/main/java/fr/softsf</text>
<text text-anchor="middle" x="312.12" y="-74.5" font-family="Helvetica,sans-Serif" font-size="10.00">/sudokufx/utils/MyDateTime.java</text>
</a>
</g>
</g>
<!-- Node2 -->
<g id="Node000002" class="node">
<title>Node2</title>
<g id="a_Node000002"><a xlink:title=" ">
<polygon fill="#e0e0e0" stroke="#999999" points="84.25,-26 0,-26 0,-6 84.25,-6 84.25,-26"/>
<text text-anchor="middle" x="42.12" y="-12.5" font-family="Helvetica,sans-Serif" font-size="10.00">java.time.Clock</text>
</a>
</g>
</g>
<!-- Node1&#45;&gt;Node2 -->
<g id="edge1_Node000001_Node000002" class="edge">
<title>Node1&#45;&gt;Node2</title>
<g id="a_edge1_Node000001_Node000002"><a xlink:title=" ">
<path fill="none" stroke="#63b8ff" d="M242.2,-67.59C199.32,-57.91 143.39,-44.86 94.12,-32 91.16,-31.23 88.1,-30.41 85.03,-29.56"/>
<polygon fill="#63b8ff" stroke="#63b8ff" points="85.99,-26.2 75.41,-26.87 84.1,-32.94 85.99,-26.2"/>
</a>
</g>
</g>
<!-- Node3 -->
<g id="Node000003" class="node">
<title>Node3</title>
<g id="a_Node000003"><a xlink:title=" ">
<polygon fill="#e0e0e0" stroke="#999999" points="227.5,-26 102.75,-26 102.75,-6 227.5,-6 227.5,-26"/>
<text text-anchor="middle" x="165.12" y="-12.5" font-family="Helvetica,sans-Serif" font-size="10.00">java.time.LocalDateTime</text>
</a>
</g>
</g>
<!-- Node1&#45;&gt;Node3 -->
<g id="edge2_Node000001_Node000003" class="edge">
<title>Node1&#45;&gt;Node3</title>
<g id="a_edge2_Node000001_Node000003"><a xlink:title=" ">
<path fill="none" stroke="#63b8ff" d="M277.66,-67.53C253.08,-56.49 220.3,-41.77 196.46,-31.07"/>
<polygon fill="#63b8ff" stroke="#63b8ff" points="198.13,-27.98 187.58,-27.08 195.26,-34.37 198.13,-27.98"/>
</a>
</g>
</g>
<!-- Node4 -->
<g id="Node000004" class="node">
<title>Node4</title>
<g id="a_Node000004"><a xlink:title=" ">
<polygon fill="#e0e0e0" stroke="#999999" points="378.25,-32 246,-32 246,0 378.25,0 378.25,-32"/>
<text text-anchor="start" x="254" y="-18.5" font-family="Helvetica,sans-Serif" font-size="10.00">java.time.format.DateTime</text>
<text text-anchor="middle" x="312.12" y="-6.5" font-family="Helvetica,sans-Serif" font-size="10.00">Formatter</text>
</a>
</g>
</g>
<!-- Node1&#45;&gt;Node4 -->
<g id="edge3_Node000001_Node000004" class="edge">
<title>Node1&#45;&gt;Node4</title>
<g id="a_edge3_Node000001_Node000004"><a xlink:title=" ">
<path fill="none" stroke="#63b8ff" d="M312.12,-67.69C312.12,-60.53 312.12,-51.79 312.12,-43.59"/>
<polygon fill="#63b8ff" stroke="#63b8ff" points="315.63,-43.74 312.13,-33.74 308.63,-43.74 315.63,-43.74"/>
</a>
</g>
</g>
<!-- Node5 -->
<g id="Node000005" class="node">
<title>Node5</title>
<g id="a_Node000005"><a xlink:title=" ">
<polygon fill="#e0e0e0" stroke="#999999" points="477.75,-26 396.5,-26 396.5,-6 477.75,-6 477.75,-26"/>
<text text-anchor="middle" x="437.12" y="-12.5" font-family="Helvetica,sans-Serif" font-size="10.00">java.util.Locale</text>
</a>
</g>
</g>
<!-- Node1&#45;&gt;Node5 -->
<g id="edge4_Node000001_Node000005" class="edge">
<title>Node1&#45;&gt;Node5</title>
<g id="a_edge4_Node000001_Node000005"><a xlink:title=" ">
<path fill="none" stroke="#63b8ff" d="M341.43,-67.53C361.86,-56.74 388.96,-42.43 409.1,-31.8"/>
<polygon fill="#63b8ff" stroke="#63b8ff" points="410.66,-34.93 417.87,-27.17 407.39,-28.74 410.66,-34.93"/>
</a>
</g>
</g>
<!-- Node6 -->
<g id="Node000006" class="node">
<title>Node6</title>
<g id="a_Node000006"><a xlink:title=" ">
<polygon fill="#e0e0e0" stroke="#999999" points="642.38,-26 495.88,-26 495.88,-6 642.38,-6 642.38,-26"/>
<text text-anchor="middle" x="569.12" y="-12.5" font-family="Helvetica,sans-Serif" font-size="10.00">fr.softsf.sudokufx.enums.I18n</text>
</a>
</g>
</g>
<!-- Node1&#45;&gt;Node6 -->
<g id="edge5_Node000001_Node000006" class="edge">
<title>Node1&#45;&gt;Node6</title>
<g id="a_edge5_Node000001_Node000006"><a xlink:title=" ">
<path fill="none" stroke="#63b8ff" d="M372.38,-67.53C417.77,-55.87 479.17,-40.1 521.23,-29.3"/>
<polygon fill="#63b8ff" stroke="#63b8ff" points="522.01,-32.71 530.82,-26.84 520.27,-25.93 522.01,-32.71"/>
</a>
</g>
</g>
</g>
</svg>
