<?xml version="1.0" encoding="UTF-8" standalone="no"?>
<!DOCTYPE svg PUBLIC "-//W3C//DTD SVG 1.1//EN"
 "http://www.w3.org/Graphics/SVG/1.1/DTD/svg11.dtd">
<!-- Generated by graphviz version 12.2.1 (20241206.2353)
 -->
<!-- Title: src/main/java/fr/softsf/sudokufx/common/enums/MyRegex.java Pages: 1 -->
<svg width="657pt" height="120pt"
 viewBox="0.00 0.00 656.75 120.00" xmlns="http://www.w3.org/2000/svg" xmlns:xlink="http://www.w3.org/1999/xlink">
<g id="graph0" class="graph" transform="scale(1 1) rotate(0) translate(4 116)">
<title>src/main/java/fr/softsf/sudokufx/common/enums/MyRegex.java</title>
<!-- Node1 -->
<g id="Node000001" class="node">
<title>Node1</title>
<g id="a_Node000001"><a xlink:title=" ">
<polygon fill="#999999" stroke="#666666" points="341,-112 209.5,-112 209.5,-68 341,-68 341,-112"/>
<text text-anchor="start" x="217.5" y="-98.5" font-family="Helvetica,sans-Serif" font-size="10.00">src/main/java/fr/softsf</text>
<text text-anchor="start" x="217.5" y="-86.5" font-family="Helvetica,sans-Serif" font-size="10.00">/sudokufx/common/enums</text>
<text text-anchor="middle" x="275.25" y="-74.5" font-family="Helvetica,sans-Serif" font-size="10.00">/MyRegex.java</text>
</a>
</g>
</g>
<!-- Node2 -->
<g id="Node000002" class="node">
<title>Node2</title>
<g id="a_Node000002"><a xlink:title=" ">
<polygon fill="#e0e0e0" stroke="#999999" points="86.5,-26 0,-26 0,-6 86.5,-6 86.5,-26"/>
<text text-anchor="middle" x="43.25" y="-12.5" font-family="Helvetica,sans-Serif" font-size="10.00">java.util.Objects</text>
</a>
</g>
</g>
<!-- Node1&#45;&gt;Node2 -->
<g id="edge1_Node000001_Node000002" class="edge">
<title>Node1&#45;&gt;Node2</title>
<g id="a_edge1_Node000001_Node000002"><a xlink:title=" ">
<path fill="none" stroke="#63b8ff" d="M209.08,-68.46C168.96,-56.01 119.01,-40.51 84.48,-29.79"/>
<polygon fill="#63b8ff" stroke="#63b8ff" points="85.87,-26.56 75.28,-26.94 83.8,-33.25 85.87,-26.56"/>
</a>
</g>
</g>
<!-- Node3 -->
<g id="Node000003" class="node">
<title>Node3</title>
<g id="a_Node000003"><a xlink:title=" ">
<polygon fill="#e0e0e0" stroke="#999999" points="215.88,-26 104.62,-26 104.62,-6 215.88,-6 215.88,-26"/>
<text text-anchor="middle" x="160.25" y="-12.5" font-family="Helvetica,sans-Serif" font-size="10.00">java.util.regex.Pattern</text>
</a>
</g>
</g>
<!-- Node1&#45;&gt;Node3 -->
<g id="edge2_Node000001_Node000003" class="edge">
<title>Node1&#45;&gt;Node3</title>
<g id="a_edge2_Node000001_Node000003"><a xlink:title=" ">
<path fill="none" stroke="#63b8ff" d="M241.06,-67.59C222.96,-56.26 201.16,-42.62 184.77,-32.35"/>
<polygon fill="#63b8ff" stroke="#63b8ff" points="186.96,-29.59 176.62,-27.25 183.24,-35.52 186.96,-29.59"/>
</a>
</g>
</g>
<!-- Node4 -->
<g id="Node000004" class="node">
<title>Node4</title>
<g id="a_Node000004"><a xlink:title=" ">
<polygon fill="#e0e0e0" stroke="#999999" points="316.62,-26 233.88,-26 233.88,-6 316.62,-6 316.62,-26"/>
<text text-anchor="middle" x="275.25" y="-12.5" font-family="Helvetica,sans-Serif" font-size="10.00">org.slf4j.Logger</text>
</a>
</g>
</g>
<!-- Node1&#45;&gt;Node4 -->
<g id="edge3_Node000001_Node000004" class="edge">
<title>Node1&#45;&gt;Node4</title>
<g id="a_edge3_Node000001_Node000004"><a xlink:title=" ">
<path fill="none" stroke="#63b8ff" d="M275.25,-67.79C275.25,-58.32 275.25,-47.2 275.25,-37.78"/>
<polygon fill="#63b8ff" stroke="#63b8ff" points="278.75,-37.82 275.25,-27.82 271.75,-37.82 278.75,-37.82"/>
</a>
</g>
</g>
<!-- Node5 -->
<g id="Node000005" class="node">
<title>Node5</title>
<g id="a_Node000005"><a xlink:title=" ">
<polygon fill="#e0e0e0" stroke="#999999" points="450.12,-26 334.38,-26 334.38,-6 450.12,-6 450.12,-26"/>
<text text-anchor="middle" x="392.25" y="-12.5" font-family="Helvetica,sans-Serif" font-size="10.00">org.slf4j.LoggerFactory</text>
</a>
</g>
</g>
<!-- Node1&#45;&gt;Node5 -->
<g id="edge4_Node000001_Node000005" class="edge">
<title>Node1&#45;&gt;Node5</title>
<g id="a_edge4_Node000001_Node000005"><a xlink:title=" ">
<path fill="none" stroke="#63b8ff" d="M310.04,-67.59C328.45,-56.26 350.62,-42.62 367.3,-32.35"/>
<polygon fill="#63b8ff" stroke="#63b8ff" points="368.93,-35.46 375.61,-27.24 365.26,-29.5 368.93,-35.46"/>
</a>
</g>
</g>
<!-- Node6 -->
<g id="Node000006" class="node">
<title>Node6</title>
<g id="a_Node000006"><a xlink:title=" ">
<polygon fill="#e0e0e0" stroke="#999999" points="648.75,-32 467.75,-32 467.75,0 648.75,0 648.75,-32"/>
<text text-anchor="start" x="475.75" y="-18.5" font-family="Helvetica,sans-Serif" font-size="10.00">fr.softsf.sudokufx.common.exception.</text>
<text text-anchor="middle" x="558.25" y="-6.5" font-family="Helvetica,sans-Serif" font-size="10.00">ExceptionTools</text>
</a>
</g>
</g>
<!-- Node1&#45;&gt;Node6 -->
<g id="edge5_Node000001_Node000006" class="edge">
<title>Node1&#45;&gt;Node6</title>
<g id="a_edge5_Node000001_Node000006"><a xlink:title=" ">
<path fill="none" stroke="#63b8ff" d="M341.24,-72.21C384.76,-61.14 441.75,-46.64 486.4,-35.28"/>
<polygon fill="#63b8ff" stroke="#63b8ff" points="487.18,-38.69 496.01,-32.84 485.45,-31.91 487.18,-38.69"/>
</a>
</g>
</g>
</g>
</svg>
