<?xml version="1.0" encoding="UTF-8" standalone="no"?>
<!DOCTYPE svg PUBLIC "-//W3C//DTD SVG 1.1//EN"
 "http://www.w3.org/Graphics/SVG/1.1/DTD/svg11.dtd">
<!-- Generated by graphviz version 12.2.1 (20241206.2353)
 -->
<!-- Title: src/main/java/fr/softsf/sudokufx/dto/OptionsDto.java Pages: 1 -->
<svg width="479pt" height="108pt"
 viewBox="0.00 0.00 479.12 108.00" xmlns="http://www.w3.org/2000/svg" xmlns:xlink="http://www.w3.org/1999/xlink">
<g id="graph0" class="graph" transform="scale(1 1) rotate(0) translate(4 104)">
<title>src/main/java/fr/softsf/sudokufx/dto/OptionsDto.java</title>
<!-- Node1 -->
<g id="Node000001" class="node">
<title>Node1</title>
<g id="a_Node000001"><a xlink:title=" ">
<polygon fill="#999999" stroke="#666666" points="293,-100 144.25,-100 144.25,-68 293,-68 293,-100"/>
<text text-anchor="start" x="152.25" y="-86.5" font-family="Helvetica,sans-Serif" font-size="10.00">src/main/java/fr/softsf</text>
<text text-anchor="middle" x="218.62" y="-74.5" font-family="Helvetica,sans-Serif" font-size="10.00">/sudokufx/dto/OptionsDto.java</text>
</a>
</g>
</g>
<!-- Node2 -->
<g id="Node000002" class="node">
<title>Node2</title>
<g id="a_Node000002"><a xlink:title=" ">
<polygon fill="#e0e0e0" stroke="#999999" points="129.25,-26 0,-26 0,-6 129.25,-6 129.25,-26"/>
<text text-anchor="middle" x="64.62" y="-12.5" font-family="Helvetica,sans-Serif" font-size="10.00">jakarta.annotation.Nonnull</text>
</a>
</g>
</g>
<!-- Node1&#45;&gt;Node2 -->
<g id="edge1_Node000001_Node000002" class="edge">
<title>Node1&#45;&gt;Node2</title>
<g id="a_edge1_Node000001_Node000002"><a xlink:title=" ">
<path fill="none" stroke="#63b8ff" d="M182.52,-67.53C156.65,-56.44 122.11,-41.64 97.11,-30.92"/>
<polygon fill="#63b8ff" stroke="#63b8ff" points="98.66,-27.78 88.09,-27.06 95.9,-34.21 98.66,-27.78"/>
</a>
</g>
</g>
<!-- Node3 -->
<g id="Node000003" class="node">
<title>Node3</title>
<g id="a_Node000003"><a xlink:title=" ">
<polygon fill="#e0e0e0" stroke="#999999" points="290.38,-32 146.88,-32 146.88,0 290.38,0 290.38,-32"/>
<text text-anchor="start" x="154.88" y="-18.5" font-family="Helvetica,sans-Serif" font-size="10.00">jakarta.validation.constraints.</text>
<text text-anchor="middle" x="218.62" y="-6.5" font-family="Helvetica,sans-Serif" font-size="10.00">NotNull</text>
</a>
</g>
</g>
<!-- Node1&#45;&gt;Node3 -->
<g id="edge2_Node000001_Node000003" class="edge">
<title>Node1&#45;&gt;Node3</title>
<g id="a_edge2_Node000001_Node000003"><a xlink:title=" ">
<path fill="none" stroke="#63b8ff" d="M218.62,-67.69C218.62,-60.53 218.62,-51.79 218.62,-43.59"/>
<polygon fill="#63b8ff" stroke="#63b8ff" points="222.13,-43.74 218.63,-33.74 215.13,-43.74 222.13,-43.74"/>
</a>
</g>
</g>
<!-- Node4 -->
<g id="Node000004" class="node">
<title>Node4</title>
<g id="a_Node000004"><a xlink:title=" ">
<polygon fill="#e0e0e0" stroke="#999999" points="471.12,-26 308.12,-26 308.12,-6 471.12,-6 471.12,-26"/>
<text text-anchor="middle" x="389.62" y="-12.5" font-family="Helvetica,sans-Serif" font-size="10.00">jakarta.validation.constraints.Size</text>
</a>
</g>
</g>
<!-- Node1&#45;&gt;Node4 -->
<g id="edge3_Node000001_Node000004" class="edge">
<title>Node1&#45;&gt;Node4</title>
<g id="a_edge3_Node000001_Node000004"><a xlink:title=" ">
<path fill="none" stroke="#63b8ff" d="M258.72,-67.53C287.82,-56.29 326.82,-41.24 354.67,-30.49"/>
<polygon fill="#63b8ff" stroke="#63b8ff" points="355.63,-33.87 363.7,-27.01 353.11,-27.34 355.63,-33.87"/>
</a>
</g>
</g>
</g>
</svg>
