<?xml version="1.0" encoding="UTF-8" standalone="no"?>
<!DOCTYPE svg PUBLIC "-//W3C//DTD SVG 1.1//EN"
 "http://www.w3.org/Graphics/SVG/1.1/DTD/svg11.dtd">
<!-- Generated by graphviz version 12.2.1 (20241206.2353)
 -->
<!-- Title: src/main/java/fr/softsf/sudokufx/config/os/OsFolderInitializer.java Pages: 1 -->
<svg width="1085pt" height="120pt"
 viewBox="0.00 0.00 1084.50 120.00" xmlns="http://www.w3.org/2000/svg" xmlns:xlink="http://www.w3.org/1999/xlink">
<g id="graph0" class="graph" transform="scale(1 1) rotate(0) translate(4 116)">
<title>src/main/java/fr/softsf/sudokufx/config/os/OsFolderInitializer.java</title>
<!-- Node1 -->
<g id="Node000001" class="node">
<title>Node1</title>
<g id="a_Node000001"><a xlink:title=" ">
<polygon fill="#999999" stroke="#666666" points="464.75,-112 320.5,-112 320.5,-68 464.75,-68 464.75,-112"/>
<text text-anchor="start" x="328.5" y="-98.5" font-family="Helvetica,sans-Serif" font-size="10.00">src/main/java/fr/softsf</text>
<text text-anchor="start" x="328.5" y="-86.5" font-family="Helvetica,sans-Serif" font-size="10.00">/sudokufx/config/os/OsFolder</text>
<text text-anchor="middle" x="392.62" y="-74.5" font-family="Helvetica,sans-Serif" font-size="10.00">Initializer.java</text>
</a>
</g>
</g>
<!-- Node2 -->
<g id="Node000002" class="node">
<title>Node2</title>
<g id="a_Node000002"><a xlink:title=" ">
<polygon fill="#e0e0e0" stroke="#999999" points="63.25,-26 0,-26 0,-6 63.25,-6 63.25,-26"/>
<text text-anchor="middle" x="31.62" y="-12.5" font-family="Helvetica,sans-Serif" font-size="10.00">java.io.File</text>
</a>
</g>
</g>
<!-- Node1&#45;&gt;Node2 -->
<g id="edge1_Node000001_Node000002" class="edge">
<title>Node1&#45;&gt;Node2</title>
<g id="a_edge1_Node000001_Node000002"><a xlink:title=" ">
<path fill="none" stroke="#63b8ff" d="M320.03,-79.75C254.64,-70.56 156.26,-54.56 72.62,-32 70.48,-31.42 68.3,-30.78 66.1,-30.1"/>
<polygon fill="#63b8ff" stroke="#63b8ff" points="67.28,-26.8 56.68,-26.92 65.04,-33.43 67.28,-26.8"/>
</a>
</g>
</g>
<!-- Node3 -->
<g id="Node000003" class="node">
<title>Node3</title>
<g id="a_Node000003"><a xlink:title=" ">
<polygon fill="#e0e0e0" stroke="#999999" points="170,-26 81.25,-26 81.25,-6 170,-6 170,-26"/>
<text text-anchor="middle" x="125.62" y="-12.5" font-family="Helvetica,sans-Serif" font-size="10.00">java.nio.file.Path</text>
</a>
</g>
</g>
<!-- Node1&#45;&gt;Node3 -->
<g id="edge2_Node000001_Node000003" class="edge">
<title>Node1&#45;&gt;Node3</title>
<g id="a_edge2_Node000001_Node000003"><a xlink:title=" ">
<path fill="none" stroke="#63b8ff" d="M320.12,-69.78C278.9,-58.81 226.34,-44.74 179.62,-32 176.69,-31.2 173.67,-30.37 170.62,-29.53"/>
<polygon fill="#63b8ff" stroke="#63b8ff" points="171.63,-26.18 161.06,-26.89 169.77,-32.93 171.63,-26.18"/>
</a>
</g>
</g>
<!-- Node4 -->
<g id="Node000004" class="node">
<title>Node4</title>
<g id="a_Node000004"><a xlink:title=" ">
<polygon fill="#e0e0e0" stroke="#999999" points="274.88,-26 188.38,-26 188.38,-6 274.88,-6 274.88,-26"/>
<text text-anchor="middle" x="231.62" y="-12.5" font-family="Helvetica,sans-Serif" font-size="10.00">java.util.Objects</text>
</a>
</g>
</g>
<!-- Node1&#45;&gt;Node4 -->
<g id="edge3_Node000001_Node000004" class="edge">
<title>Node1&#45;&gt;Node4</title>
<g id="a_edge3_Node000001_Node000004"><a xlink:title=" ">
<path fill="none" stroke="#63b8ff" d="M344.76,-67.59C318.35,-55.78 286.3,-41.45 263.07,-31.06"/>
<polygon fill="#63b8ff" stroke="#63b8ff" points="264.69,-27.95 254.13,-27.07 261.83,-34.34 264.69,-27.95"/>
</a>
</g>
</g>
<!-- Node5 -->
<g id="Node000005" class="node">
<title>Node5</title>
<g id="a_Node000005"><a xlink:title=" ">
<polygon fill="#e0e0e0" stroke="#999999" points="376,-26 293.25,-26 293.25,-6 376,-6 376,-26"/>
<text text-anchor="middle" x="334.62" y="-12.5" font-family="Helvetica,sans-Serif" font-size="10.00">org.slf4j.Logger</text>
</a>
</g>
</g>
<!-- Node1&#45;&gt;Node5 -->
<g id="edge4_Node000001_Node000005" class="edge">
<title>Node1&#45;&gt;Node5</title>
<g id="a_edge4_Node000001_Node000005"><a xlink:title=" ">
<path fill="none" stroke="#63b8ff" d="M375.54,-67.79C367.22,-57.46 357.31,-45.16 349.33,-35.26"/>
<polygon fill="#63b8ff" stroke="#63b8ff" points="352.07,-33.08 343.08,-27.49 346.62,-37.47 352.07,-33.08"/>
</a>
</g>
</g>
<!-- Node6 -->
<g id="Node000006" class="node">
<title>Node6</title>
<g id="a_Node000006"><a xlink:title=" ">
<polygon fill="#e0e0e0" stroke="#999999" points="509.5,-26 393.75,-26 393.75,-6 509.5,-6 509.5,-26"/>
<text text-anchor="middle" x="451.62" y="-12.5" font-family="Helvetica,sans-Serif" font-size="10.00">org.slf4j.LoggerFactory</text>
</a>
</g>
</g>
<!-- Node1&#45;&gt;Node6 -->
<g id="edge5_Node000001_Node000006" class="edge">
<title>Node1&#45;&gt;Node6</title>
<g id="a_edge5_Node000001_Node000006"><a xlink:title=" ">
<path fill="none" stroke="#63b8ff" d="M410.01,-67.79C418.56,-57.35 428.76,-44.91 436.92,-34.95"/>
<polygon fill="#63b8ff" stroke="#63b8ff" points="439.4,-37.44 443.04,-27.48 433.99,-33 439.4,-37.44"/>
</a>
</g>
</g>
<!-- Node7 -->
<g id="Node000007" class="node">
<title>Node7</title>
<g id="a_Node000007"><a xlink:title=" ">
<polygon fill="#e0e0e0" stroke="#999999" points="708.12,-32 527.12,-32 527.12,0 708.12,0 708.12,-32"/>
<text text-anchor="start" x="535.12" y="-18.5" font-family="Helvetica,sans-Serif" font-size="10.00">fr.softsf.sudokufx.common.exception.</text>
<text text-anchor="middle" x="617.62" y="-6.5" font-family="Helvetica,sans-Serif" font-size="10.00">ExceptionTools</text>
</a>
</g>
</g>
<!-- Node1&#45;&gt;Node7 -->
<g id="edge6_Node000001_Node000007" class="edge">
<title>Node1&#45;&gt;Node7</title>
<g id="a_edge6_Node000001_Node000007"><a xlink:title=" ">
<path fill="none" stroke="#63b8ff" d="M459.52,-67.59C490.9,-57.55 527.98,-45.69 558.34,-35.97"/>
<polygon fill="#63b8ff" stroke="#63b8ff" points="559.3,-39.34 567.76,-32.96 557.17,-32.67 559.3,-39.34"/>
</a>
</g>
</g>
<!-- Node8 -->
<g id="Node000008" class="node">
<title>Node8</title>
<g id="a_Node000008"><a xlink:title=" ">
<polygon fill="#e0e0e0" stroke="#999999" points="907.12,-32 726.12,-32 726.12,0 907.12,0 907.12,-32"/>
<text text-anchor="start" x="734.12" y="-18.5" font-family="Helvetica,sans-Serif" font-size="10.00">fr.softsf.sudokufx.common.exception.</text>
<text text-anchor="middle" x="816.62" y="-6.5" font-family="Helvetica,sans-Serif" font-size="10.00">FolderCreationException</text>
</a>
</g>
</g>
<!-- Node1&#45;&gt;Node8 -->
<g id="edge7_Node000001_Node000008" class="edge">
<title>Node1&#45;&gt;Node8</title>
<g id="a_edge7_Node000001_Node000008"><a xlink:title=" ">
<path fill="none" stroke="#63b8ff" d="M465.03,-76.7C533.68,-65.05 637.47,-47.42 714.51,-34.34"/>
<polygon fill="#63b8ff" stroke="#63b8ff" points="714.91,-37.82 724.18,-32.7 713.74,-30.92 714.91,-37.82"/>
</a>
</g>
</g>
<!-- Node9 -->
<g id="Node000009" class="node">
<title>Node9</title>
<g id="a_Node000009"><a xlink:title=" ">
<polygon fill="#e0e0e0" stroke="#999999" points="1076.5,-32 924.75,-32 924.75,0 1076.5,0 1076.5,-32"/>
<text text-anchor="start" x="932.75" y="-18.5" font-family="Helvetica,sans-Serif" font-size="10.00">fr.softsf.sudokufx.common.util.</text>
<text text-anchor="middle" x="1000.62" y="-6.5" font-family="Helvetica,sans-Serif" font-size="10.00">PathValidator</text>
</a>
</g>
</g>
<!-- Node1&#45;&gt;Node9 -->
<g id="edge8_Node000001_Node000009" class="edge">
<title>Node1&#45;&gt;Node9</title>
<g id="a_edge8_Node000001_Node000009"><a xlink:title=" ">
<path fill="none" stroke="#63b8ff" d="M464.87,-82.72C563.93,-73.75 747.73,-55.86 913.75,-32.36"/>
<polygon fill="#63b8ff" stroke="#63b8ff" points="913.75,-35.9 923.16,-31.02 912.76,-28.97 913.75,-35.9"/>
</a>
</g>
</g>
</g>
</svg>
