<?xml version="1.0" encoding="UTF-8" standalone="no"?>
<!DOCTYPE svg PUBLIC "-//W3C//DTD SVG 1.1//EN"
 "http://www.w3.org/Graphics/SVG/1.1/DTD/svg11.dtd">
<!-- Generated by graphviz version 12.2.1 (20241206.2353)
 -->
<!-- Title: src/main/java/fr/softsf/sudokufx/config/os/OsFoldersConfig.java Pages: 1 -->
<svg width="1002pt" height="120pt"
 viewBox="0.00 0.00 1002.12 120.00" xmlns="http://www.w3.org/2000/svg" xmlns:xlink="http://www.w3.org/1999/xlink">
<g id="graph0" class="graph" transform="scale(1 1) rotate(0) translate(4 116)">
<title>src/main/java/fr/softsf/sudokufx/config/os/OsFoldersConfig.java</title>
<!-- Node1 -->
<g id="Node000001" class="node">
<title>Node1</title>
<g id="a_Node000001"><a xlink:title=" ">
<polygon fill="#999999" stroke="#666666" points="599.38,-112 449.88,-112 449.88,-68 599.38,-68 599.38,-112"/>
<text text-anchor="start" x="457.88" y="-98.5" font-family="Helvetica,sans-Serif" font-size="10.00">src/main/java/fr/softsf</text>
<text text-anchor="start" x="457.88" y="-86.5" font-family="Helvetica,sans-Serif" font-size="10.00">/sudokufx/config/os/OsFolders</text>
<text text-anchor="middle" x="524.62" y="-74.5" font-family="Helvetica,sans-Serif" font-size="10.00">Config.java</text>
</a>
</g>
</g>
<!-- Node2 -->
<g id="Node000002" class="node">
<title>Node2</title>
<g id="a_Node000002"><a xlink:title=" ">
<polygon fill="#e0e0e0" stroke="#999999" points="213.25,-26 0,-26 0,-6 213.25,-6 213.25,-26"/>
<text text-anchor="middle" x="106.62" y="-12.5" font-family="Helvetica,sans-Serif" font-size="10.00">org.springframework.context.annotation.Bean</text>
</a>
</g>
</g>
<!-- Node1&#45;&gt;Node2 -->
<g id="edge1_Node000001_Node000002" class="edge">
<title>Node1&#45;&gt;Node2</title>
<g id="a_edge1_Node000001_Node000002"><a xlink:title=" ">
<path fill="none" stroke="#63b8ff" d="M449.41,-76.04C370.6,-62.47 248.01,-41.35 172.78,-28.39"/>
<polygon fill="#63b8ff" stroke="#63b8ff" points="173.52,-24.97 163.07,-26.72 172.33,-31.87 173.52,-24.97"/>
</a>
</g>
</g>
<!-- Node3 -->
<g id="Node000003" class="node">
<title>Node3</title>
<g id="a_Node000003"><a xlink:title=" ">
<polygon fill="#e0e0e0" stroke="#999999" points="422,-32 231.25,-32 231.25,0 422,0 422,-32"/>
<text text-anchor="start" x="239.25" y="-18.5" font-family="Helvetica,sans-Serif" font-size="10.00">org.springframework.context.annotation.</text>
<text text-anchor="middle" x="326.62" y="-6.5" font-family="Helvetica,sans-Serif" font-size="10.00">Configuration</text>
</a>
</g>
</g>
<!-- Node1&#45;&gt;Node3 -->
<g id="edge2_Node000001_Node000003" class="edge">
<title>Node1&#45;&gt;Node3</title>
<g id="a_edge2_Node000001_Node000003"><a xlink:title=" ">
<path fill="none" stroke="#63b8ff" d="M465.75,-67.59C438.5,-57.68 406.37,-46 379.85,-36.35"/>
<polygon fill="#63b8ff" stroke="#63b8ff" points="381.25,-33.14 370.66,-33.01 378.86,-39.72 381.25,-33.14"/>
</a>
</g>
</g>
<!-- Node4 -->
<g id="Node000004" class="node">
<title>Node4</title>
<g id="a_Node000004"><a xlink:title=" ">
<polygon fill="#e0e0e0" stroke="#999999" points="608.75,-32 440.5,-32 440.5,0 608.75,0 608.75,-32"/>
<text text-anchor="start" x="448.5" y="-18.5" font-family="Helvetica,sans-Serif" font-size="10.00">fr.softsf.sudokufx.common.enums.</text>
<text text-anchor="middle" x="524.62" y="-6.5" font-family="Helvetica,sans-Serif" font-size="10.00">AppPaths</text>
</a>
</g>
</g>
<!-- Node1&#45;&gt;Node4 -->
<g id="edge3_Node000001_Node000004" class="edge">
<title>Node1&#45;&gt;Node4</title>
<g id="a_edge3_Node000001_Node000004"><a xlink:title=" ">
<path fill="none" stroke="#63b8ff" d="M524.62,-67.79C524.62,-60.18 524.62,-51.52 524.62,-43.52"/>
<polygon fill="#63b8ff" stroke="#63b8ff" points="528.13,-43.64 524.63,-33.64 521.13,-43.64 528.13,-43.64"/>
</a>
</g>
</g>
<!-- Node5 -->
<g id="Node000005" class="node">
<title>Node5</title>
<g id="a_Node000005"><a xlink:title=" ">
<polygon fill="#e0e0e0" stroke="#999999" points="794.75,-32 626.5,-32 626.5,0 794.75,0 794.75,-32"/>
<text text-anchor="start" x="634.5" y="-18.5" font-family="Helvetica,sans-Serif" font-size="10.00">fr.softsf.sudokufx.common.enums.</text>
<text text-anchor="middle" x="710.62" y="-6.5" font-family="Helvetica,sans-Serif" font-size="10.00">OsName</text>
</a>
</g>
</g>
<!-- Node1&#45;&gt;Node5 -->
<g id="edge4_Node000001_Node000005" class="edge">
<title>Node1&#45;&gt;Node5</title>
<g id="a_edge4_Node000001_Node000005"><a xlink:title=" ">
<path fill="none" stroke="#63b8ff" d="M579.93,-67.59C605.3,-57.77 635.18,-46.2 659.96,-36.61"/>
<polygon fill="#63b8ff" stroke="#63b8ff" points="661.12,-39.92 669.18,-33.04 658.59,-33.39 661.12,-39.92"/>
</a>
</g>
</g>
<!-- Node6 -->
<g id="Node000006" class="node">
<title>Node6</title>
<g id="a_Node000006"><a xlink:title=" ">
<polygon fill="#e0e0e0" stroke="#999999" points="994.12,-32 813.12,-32 813.12,0 994.12,0 994.12,-32"/>
<text text-anchor="start" x="821.12" y="-18.5" font-family="Helvetica,sans-Serif" font-size="10.00">fr.softsf.sudokufx.common.exception.</text>
<text text-anchor="middle" x="903.62" y="-6.5" font-family="Helvetica,sans-Serif" font-size="10.00">ExceptionTools</text>
</a>
</g>
</g>
<!-- Node1&#45;&gt;Node6 -->
<g id="edge5_Node000001_Node000006" class="edge">
<title>Node1&#45;&gt;Node6</title>
<g id="a_edge5_Node000001_Node000006"><a xlink:title=" ">
<path fill="none" stroke="#63b8ff" d="M599.5,-74.78C660.27,-63.23 746.24,-46.9 811.27,-34.54"/>
<polygon fill="#63b8ff" stroke="#63b8ff" points="811.68,-38.03 820.85,-32.72 810.38,-31.15 811.68,-38.03"/>
</a>
</g>
</g>
</g>
</svg>
