<?xml version="1.0" encoding="UTF-8" standalone="no"?>
<!DOCTYPE svg PUBLIC "-//W3C//DTD SVG 1.1//EN"
 "http://www.w3.org/Graphics/SVG/1.1/DTD/svg11.dtd">
<!-- Generated by graphviz version 12.2.1 (20241206.2353)
 -->
<!-- Title: src/main/java/fr/softsf/sudokufx/config/os/OsFolderFactoryManager.java Pages: 1 -->
<svg width="803pt" height="120pt"
 viewBox="0.00 0.00 802.75 120.00" xmlns="http://www.w3.org/2000/svg" xmlns:xlink="http://www.w3.org/1999/xlink">
<g id="graph0" class="graph" transform="scale(1 1) rotate(0) translate(4 116)">
<title>src/main/java/fr/softsf/sudokufx/config/os/OsFolderFactoryManager.java</title>
<!-- Node1 -->
<g id="Node000001" class="node">
<title>Node1</title>
<g id="a_Node000001"><a xlink:title=" ">
<polygon fill="#999999" stroke="#666666" points="497.75,-112 353.5,-112 353.5,-68 497.75,-68 497.75,-112"/>
<text text-anchor="start" x="361.5" y="-98.5" font-family="Helvetica,sans-Serif" font-size="10.00">src/main/java/fr/softsf</text>
<text text-anchor="start" x="361.5" y="-86.5" font-family="Helvetica,sans-Serif" font-size="10.00">/sudokufx/config/os/OsFolder</text>
<text text-anchor="middle" x="425.62" y="-74.5" font-family="Helvetica,sans-Serif" font-size="10.00">FactoryManager.java</text>
</a>
</g>
</g>
<!-- Node2 -->
<g id="Node000002" class="node">
<title>Node2</title>
<g id="a_Node000002"><a xlink:title=" ">
<polygon fill="#e0e0e0" stroke="#999999" points="213.25,-26 0,-26 0,-6 213.25,-6 213.25,-26"/>
<text text-anchor="middle" x="106.62" y="-12.5" font-family="Helvetica,sans-Serif" font-size="10.00">org.springframework.context.annotation.Bean</text>
</a>
</g>
</g>
<!-- Node1&#45;&gt;Node2 -->
<g id="edge1_Node000001_Node000002" class="edge">
<title>Node1&#45;&gt;Node2</title>
<g id="a_edge1_Node000001_Node000002"><a xlink:title=" ">
<path fill="none" stroke="#63b8ff" d="M353.24,-72.66C294.33,-59.37 212.54,-40.91 159.6,-28.96"/>
<polygon fill="#63b8ff" stroke="#63b8ff" points="160.43,-25.56 149.91,-26.77 158.89,-32.38 160.43,-25.56"/>
</a>
</g>
</g>
<!-- Node3 -->
<g id="Node000003" class="node">
<title>Node3</title>
<g id="a_Node000003"><a xlink:title=" ">
<polygon fill="#e0e0e0" stroke="#999999" points="422,-32 231.25,-32 231.25,0 422,0 422,-32"/>
<text text-anchor="start" x="239.25" y="-18.5" font-family="Helvetica,sans-Serif" font-size="10.00">org.springframework.context.annotation.</text>
<text text-anchor="middle" x="326.62" y="-6.5" font-family="Helvetica,sans-Serif" font-size="10.00">Configuration</text>
</a>
</g>
</g>
<!-- Node1&#45;&gt;Node3 -->
<g id="edge2_Node000001_Node000003" class="edge">
<title>Node1&#45;&gt;Node3</title>
<g id="a_edge2_Node000001_Node000003"><a xlink:title=" ">
<path fill="none" stroke="#63b8ff" d="M396.19,-67.59C383.84,-58.61 369.47,-48.16 357.02,-39.11"/>
<polygon fill="#63b8ff" stroke="#63b8ff" points="359.3,-36.44 349.16,-33.39 355.18,-42.1 359.3,-36.44"/>
</a>
</g>
</g>
<!-- Node4 -->
<g id="Node000004" class="node">
<title>Node4</title>
<g id="a_Node000004"><a xlink:title=" ">
<polygon fill="#e0e0e0" stroke="#999999" points="608.75,-32 440.5,-32 440.5,0 608.75,0 608.75,-32"/>
<text text-anchor="start" x="448.5" y="-18.5" font-family="Helvetica,sans-Serif" font-size="10.00">fr.softsf.sudokufx.common.enums.</text>
<text text-anchor="middle" x="524.62" y="-6.5" font-family="Helvetica,sans-Serif" font-size="10.00">OsName</text>
</a>
</g>
</g>
<!-- Node1&#45;&gt;Node4 -->
<g id="edge3_Node000001_Node000004" class="edge">
<title>Node1&#45;&gt;Node4</title>
<g id="a_edge3_Node000001_Node000004"><a xlink:title=" ">
<path fill="none" stroke="#63b8ff" d="M455.06,-67.59C467.41,-58.61 481.78,-48.16 494.23,-39.11"/>
<polygon fill="#63b8ff" stroke="#63b8ff" points="496.07,-42.1 502.09,-33.39 491.95,-36.44 496.07,-42.1"/>
</a>
</g>
</g>
<!-- Node5 -->
<g id="Node000005" class="node">
<title>Node5</title>
<g id="a_Node000005"><a xlink:title=" ">
<polygon fill="#e0e0e0" stroke="#999999" points="794.75,-32 626.5,-32 626.5,0 794.75,0 794.75,-32"/>
<text text-anchor="start" x="634.5" y="-18.5" font-family="Helvetica,sans-Serif" font-size="10.00">fr.softsf.sudokufx.common.enums.</text>
<text text-anchor="middle" x="710.62" y="-6.5" font-family="Helvetica,sans-Serif" font-size="10.00">Paths</text>
</a>
</g>
</g>
<!-- Node1&#45;&gt;Node5 -->
<g id="edge4_Node000001_Node000005" class="edge">
<title>Node1&#45;&gt;Node5</title>
<g id="a_edge4_Node000001_Node000005"><a xlink:title=" ">
<path fill="none" stroke="#63b8ff" d="M497.91,-70.74C541,-59.85 595.5,-46.09 638.54,-35.21"/>
<polygon fill="#63b8ff" stroke="#63b8ff" points="639.2,-38.65 648.04,-32.81 637.49,-31.87 639.2,-38.65"/>
</a>
</g>
</g>
</g>
</svg>
