<?xml version="1.0" encoding="UTF-8" standalone="no"?>
<!DOCTYPE svg PUBLIC "-//W3C//DTD SVG 1.1//EN"
 "http://www.w3.org/Graphics/SVG/1.1/DTD/svg11.dtd">
<!-- Generated by graphviz version 12.2.1 (20241206.2353)
 -->
<!-- Title: src/main/java/fr/softsf/sudokufx/model/PlayerLanguage.java Pages: 1 -->
<svg width="1685pt" height="108pt"
 viewBox="0.00 0.00 1685.00 108.00" xmlns="http://www.w3.org/2000/svg" xmlns:xlink="http://www.w3.org/1999/xlink">
<g id="graph0" class="graph" transform="scale(1 1) rotate(0) translate(4 104)">
<title>src/main/java/fr/softsf/sudokufx/model/PlayerLanguage.java</title>
<!-- Node1 -->
<g id="Node000001" class="node">
<title>Node1</title>
<g id="a_Node000001"><a xlink:title=" ">
<polygon fill="#999999" stroke="#666666" points="913.12,-100 731.38,-100 731.38,-68 913.12,-68 913.12,-100"/>
<text text-anchor="start" x="739.38" y="-86.5" font-family="Helvetica,sans-Serif" font-size="10.00">src/main/java/fr/softsf</text>
<text text-anchor="middle" x="822.25" y="-74.5" font-family="Helvetica,sans-Serif" font-size="10.00">/sudokufx/model/PlayerLanguage.java</text>
</a>
</g>
</g>
<!-- Node2 -->
<g id="Node000002" class="node">
<title>Node2</title>
<g id="a_Node000002"><a xlink:title=" ">
<polygon fill="#e0e0e0" stroke="#999999" points="86.5,-26 0,-26 0,-6 86.5,-6 86.5,-26"/>
<text text-anchor="middle" x="43.25" y="-12.5" font-family="Helvetica,sans-Serif" font-size="10.00">java.util.Objects</text>
</a>
</g>
</g>
<!-- Node1&#45;&gt;Node2 -->
<g id="edge1_Node000001_Node000002" class="edge">
<title>Node1&#45;&gt;Node2</title>
<g id="a_edge1_Node000001_Node000002"><a xlink:title=" ">
<path fill="none" stroke="#63b8ff" d="M731.11,-82.74C592.66,-80.98 321.52,-72.11 95.25,-32 91.17,-31.28 86.95,-30.36 82.77,-29.33"/>
<polygon fill="#63b8ff" stroke="#63b8ff" points="83.9,-26.01 73.34,-26.82 82.1,-32.78 83.9,-26.01"/>
</a>
</g>
</g>
<!-- Node3 -->
<g id="Node000003" class="node">
<title>Node3</title>
<g id="a_Node000003"><a xlink:title=" ">
<polygon fill="#e0e0e0" stroke="#999999" points="285.75,-32 104.75,-32 104.75,0 285.75,0 285.75,-32"/>
<text text-anchor="start" x="112.75" y="-18.5" font-family="Helvetica,sans-Serif" font-size="10.00">fr.softsf.sudokufx.common.exception.</text>
<text text-anchor="middle" x="195.25" y="-6.5" font-family="Helvetica,sans-Serif" font-size="10.00">ExceptionTools</text>
</a>
</g>
</g>
<!-- Node1&#45;&gt;Node3 -->
<g id="edge2_Node000001_Node000003" class="edge">
<title>Node1&#45;&gt;Node3</title>
<g id="a_edge2_Node000001_Node000003"><a xlink:title=" ">
<path fill="none" stroke="#63b8ff" d="M730.99,-75.69C628.07,-67.11 455.43,-51.69 297.47,-32.36"/>
<polygon fill="#63b8ff" stroke="#63b8ff" points="297.98,-28.9 287.63,-31.15 297.12,-35.85 297.98,-28.9"/>
</a>
</g>
</g>
<!-- Node4 -->
<g id="Node000004" class="node">
<title>Node4</title>
<g id="a_Node000004"><a xlink:title=" ">
<polygon fill="#e0e0e0" stroke="#999999" points="432.88,-26 303.62,-26 303.62,-6 432.88,-6 432.88,-26"/>
<text text-anchor="middle" x="368.25" y="-12.5" font-family="Helvetica,sans-Serif" font-size="10.00">jakarta.annotation.Nonnull</text>
</a>
</g>
</g>
<!-- Node1&#45;&gt;Node4 -->
<g id="edge3_Node000001_Node000004" class="edge">
<title>Node1&#45;&gt;Node4</title>
<g id="a_edge3_Node000001_Node000004"><a xlink:title=" ">
<path fill="none" stroke="#63b8ff" d="M731.14,-72.61C653.79,-63.36 539.95,-48.72 441.25,-32 435.27,-30.99 429.03,-29.84 422.83,-28.65"/>
<polygon fill="#63b8ff" stroke="#63b8ff" points="423.75,-25.26 413.26,-26.75 422.39,-32.13 423.75,-25.26"/>
</a>
</g>
</g>
<!-- Node5 -->
<g id="Node000005" class="node">
<title>Node5</title>
<g id="a_Node000005"><a xlink:title=" ">
<polygon fill="#e0e0e0" stroke="#999999" points="585.88,-26 450.62,-26 450.62,-6 585.88,-6 585.88,-26"/>
<text text-anchor="middle" x="518.25" y="-12.5" font-family="Helvetica,sans-Serif" font-size="10.00">jakarta.persistence.Column</text>
</a>
</g>
</g>
<!-- Node1&#45;&gt;Node5 -->
<g id="edge4_Node000001_Node000005" class="edge">
<title>Node1&#45;&gt;Node5</title>
<g id="a_edge4_Node000001_Node000005"><a xlink:title=" ">
<path fill="none" stroke="#63b8ff" d="M750.98,-67.53C696.6,-55.72 622.8,-39.7 573,-28.89"/>
<polygon fill="#63b8ff" stroke="#63b8ff" points="573.82,-25.48 563.3,-26.78 572.33,-32.32 573.82,-25.48"/>
</a>
</g>
</g>
<!-- Node6 -->
<g id="Node000006" class="node">
<title>Node6</title>
<g id="a_Node000006"><a xlink:title=" ">
<polygon fill="#e0e0e0" stroke="#999999" points="730.75,-26 603.75,-26 603.75,-6 730.75,-6 730.75,-26"/>
<text text-anchor="middle" x="667.25" y="-12.5" font-family="Helvetica,sans-Serif" font-size="10.00">jakarta.persistence.Entity</text>
</a>
</g>
</g>
<!-- Node1&#45;&gt;Node6 -->
<g id="edge5_Node000001_Node000006" class="edge">
<title>Node1&#45;&gt;Node6</title>
<g id="a_edge5_Node000001_Node000006"><a xlink:title=" ">
<path fill="none" stroke="#63b8ff" d="M785.91,-67.53C759.88,-56.44 725.11,-41.64 699.95,-30.92"/>
<polygon fill="#63b8ff" stroke="#63b8ff" points="701.43,-27.75 690.86,-27.05 698.69,-34.19 701.43,-27.75"/>
</a>
</g>
</g>
<!-- Node7 -->
<g id="Node000007" class="node">
<title>Node7</title>
<g id="a_Node000007"><a xlink:title=" ">
<polygon fill="#e0e0e0" stroke="#999999" points="895.5,-32 749,-32 749,0 895.5,0 895.5,-32"/>
<text text-anchor="start" x="757" y="-18.5" font-family="Helvetica,sans-Serif" font-size="10.00">jakarta.persistence.Generated</text>
<text text-anchor="middle" x="822.25" y="-6.5" font-family="Helvetica,sans-Serif" font-size="10.00">Value</text>
</a>
</g>
</g>
<!-- Node1&#45;&gt;Node7 -->
<g id="edge6_Node000001_Node000007" class="edge">
<title>Node1&#45;&gt;Node7</title>
<g id="a_edge6_Node000001_Node000007"><a xlink:title=" ">
<path fill="none" stroke="#63b8ff" d="M822.25,-67.69C822.25,-60.53 822.25,-51.79 822.25,-43.59"/>
<polygon fill="#63b8ff" stroke="#63b8ff" points="825.75,-43.74 822.25,-33.74 818.75,-43.74 825.75,-43.74"/>
</a>
</g>
</g>
<!-- Node8 -->
<g id="Node000008" class="node">
<title>Node8</title>
<g id="a_Node000008"><a xlink:title=" ">
<polygon fill="#e0e0e0" stroke="#999999" points="1083.12,-26 913.38,-26 913.38,-6 1083.12,-6 1083.12,-26"/>
<text text-anchor="middle" x="998.25" y="-12.5" font-family="Helvetica,sans-Serif" font-size="10.00">jakarta.persistence.GenerationType</text>
</a>
</g>
</g>
<!-- Node1&#45;&gt;Node8 -->
<g id="edge7_Node000001_Node000008" class="edge">
<title>Node1&#45;&gt;Node8</title>
<g id="a_edge7_Node000001_Node000008"><a xlink:title=" ">
<path fill="none" stroke="#63b8ff" d="M863.51,-67.53C893.47,-56.29 933.61,-41.24 962.27,-30.49"/>
<polygon fill="#63b8ff" stroke="#63b8ff" points="963.47,-33.78 971.61,-26.99 961.01,-27.23 963.47,-33.78"/>
</a>
</g>
</g>
<!-- Node9 -->
<g id="Node000009" class="node">
<title>Node9</title>
<g id="a_Node000009"><a xlink:title=" ">
<polygon fill="#e0e0e0" stroke="#999999" points="1211.12,-26 1101.38,-26 1101.38,-6 1211.12,-6 1211.12,-26"/>
<text text-anchor="middle" x="1156.25" y="-12.5" font-family="Helvetica,sans-Serif" font-size="10.00">jakarta.persistence.Id</text>
</a>
</g>
</g>
<!-- Node1&#45;&gt;Node9 -->
<g id="edge8_Node000001_Node000009" class="edge">
<title>Node1&#45;&gt;Node9</title>
<g id="a_edge8_Node000001_Node000009"><a xlink:title=" ">
<path fill="none" stroke="#63b8ff" d="M909.38,-67.54C962.37,-57.88 1031.34,-44.88 1092.25,-32 1096.77,-31.04 1101.46,-30.01 1106.16,-28.96"/>
<polygon fill="#63b8ff" stroke="#63b8ff" points="1106.6,-32.45 1115.57,-26.81 1105.04,-25.62 1106.6,-32.45"/>
</a>
</g>
</g>
<!-- Node10 -->
<g id="Node000010" class="node">
<title>Node10</title>
<g id="a_Node000010"><a xlink:title=" ">
<polygon fill="#e0e0e0" stroke="#999999" points="1353.62,-26 1228.88,-26 1228.88,-6 1353.62,-6 1353.62,-26"/>
<text text-anchor="middle" x="1291.25" y="-12.5" font-family="Helvetica,sans-Serif" font-size="10.00">jakarta.persistence.Table</text>
</a>
</g>
</g>
<!-- Node1&#45;&gt;Node10 -->
<g id="edge9_Node000001_Node000010" class="edge">
<title>Node1&#45;&gt;Node10</title>
<g id="a_edge9_Node000001_Node000010"><a xlink:title=" ">
<path fill="none" stroke="#63b8ff" d="M913.45,-73.43C994.32,-64.45 1115.51,-49.75 1220.25,-32 1226.15,-31 1232.31,-29.86 1238.42,-28.65"/>
<polygon fill="#63b8ff" stroke="#63b8ff" points="1238.72,-32.16 1247.83,-26.75 1237.33,-25.3 1238.72,-32.16"/>
</a>
</g>
</g>
<!-- Node11 -->
<g id="Node000011" class="node">
<title>Node11</title>
<g id="a_Node000011"><a xlink:title=" ">
<polygon fill="#e0e0e0" stroke="#999999" points="1515,-32 1371.5,-32 1371.5,0 1515,0 1515,-32"/>
<text text-anchor="start" x="1379.5" y="-18.5" font-family="Helvetica,sans-Serif" font-size="10.00">jakarta.validation.constraints.</text>
<text text-anchor="middle" x="1443.25" y="-6.5" font-family="Helvetica,sans-Serif" font-size="10.00">NotNull</text>
</a>
</g>
</g>
<!-- Node1&#45;&gt;Node11 -->
<g id="edge10_Node000001_Node000011" class="edge">
<title>Node1&#45;&gt;Node11</title>
<g id="a_edge10_Node000001_Node000011"><a xlink:title=" ">
<path fill="none" stroke="#63b8ff" d="M913.3,-76.88C1018.46,-69.26 1196.86,-54.6 1360.09,-32.22"/>
<polygon fill="#63b8ff" stroke="#63b8ff" points="1360.39,-35.71 1369.82,-30.87 1359.43,-28.78 1360.39,-35.71"/>
</a>
</g>
</g>
<!-- Node12 -->
<g id="Node000012" class="node">
<title>Node12</title>
<g id="a_Node000012"><a xlink:title=" ">
<polygon fill="#e0e0e0" stroke="#999999" points="1677,-32 1533.5,-32 1533.5,0 1677,0 1677,-32"/>
<text text-anchor="start" x="1541.5" y="-18.5" font-family="Helvetica,sans-Serif" font-size="10.00">jakarta.validation.constraints.</text>
<text text-anchor="middle" x="1605.25" y="-6.5" font-family="Helvetica,sans-Serif" font-size="10.00">Pattern</text>
</a>
</g>
</g>
<!-- Node1&#45;&gt;Node12 -->
<g id="edge11_Node000001_Node000012" class="edge">
<title>Node1&#45;&gt;Node12</title>
<g id="a_edge11_Node000001_Node000012"><a xlink:title=" ">
<path fill="none" stroke="#63b8ff" d="M913.44,-79.6C1045.43,-73.96 1297.54,-60.49 1521.98,-32.19"/>
<polygon fill="#63b8ff" stroke="#63b8ff" points="1522.35,-35.67 1531.82,-30.94 1521.46,-28.73 1522.35,-35.67"/>
</a>
</g>
</g>
</g>
</svg>
