<?xml version="1.0" encoding="UTF-8" standalone="no"?>
<!DOCTYPE svg PUBLIC "-//W3C//DTD SVG 1.1//EN"
 "http://www.w3.org/Graphics/SVG/1.1/DTD/svg11.dtd">
<!-- Generated by graphviz version 12.2.1 (20241206.2353)
 -->
<!-- Title: src/main/java/fr/softsf/sudokufx/repository/PlayerLanguageRepository.java Pages: 1 -->
<svg width="515pt" height="120pt"
 viewBox="0.00 0.00 515.38 120.00" xmlns="http://www.w3.org/2000/svg" xmlns:xlink="http://www.w3.org/1999/xlink">
<g id="graph0" class="graph" transform="scale(1 1) rotate(0) translate(4 116)">
<title>src/main/java/fr/softsf/sudokufx/repository/PlayerLanguageRepository.java</title>
<!-- Node1 -->
<g id="Node000001" class="node">
<title>Node1</title>
<g id="a_Node000001"><a xlink:title=" ">
<polygon fill="#999999" stroke="#666666" points="374.62,-112 197.38,-112 197.38,-68 374.62,-68 374.62,-112"/>
<text text-anchor="start" x="205.38" y="-98.5" font-family="Helvetica,sans-Serif" font-size="10.00">src/main/java/fr/softsf</text>
<text text-anchor="start" x="205.38" y="-86.5" font-family="Helvetica,sans-Serif" font-size="10.00">/sudokufx/repository/PlayerLanguage</text>
<text text-anchor="middle" x="286" y="-74.5" font-family="Helvetica,sans-Serif" font-size="10.00">Repository.java</text>
</a>
</g>
</g>
<!-- Node2 -->
<g id="Node000002" class="node">
<title>Node2</title>
<g id="a_Node000002"><a xlink:title=" ">
<polygon fill="#e0e0e0" stroke="#999999" points="190,-32 0,-32 0,0 190,0 190,-32"/>
<text text-anchor="start" x="8" y="-18.5" font-family="Helvetica,sans-Serif" font-size="10.00">org.springframework.data.jpa.repository.</text>
<text text-anchor="middle" x="95" y="-6.5" font-family="Helvetica,sans-Serif" font-size="10.00">JpaRepository</text>
</a>
</g>
</g>
<!-- Node1&#45;&gt;Node2 -->
<g id="edge1_Node000001_Node000002" class="edge">
<title>Node1&#45;&gt;Node2</title>
<g id="a_edge1_Node000001_Node000002"><a xlink:title=" ">
<path fill="none" stroke="#63b8ff" d="M229.21,-67.59C203.04,-57.73 172.2,-46.1 146.69,-36.48"/>
<polygon fill="#63b8ff" stroke="#63b8ff" points="148.11,-33.28 137.52,-33.03 145.65,-39.83 148.11,-33.28"/>
</a>
</g>
</g>
<!-- Node3 -->
<g id="Node000003" class="node">
<title>Node3</title>
<g id="a_Node000003"><a xlink:title=" ">
<polygon fill="#e0e0e0" stroke="#999999" points="364.12,-32 207.88,-32 207.88,0 364.12,0 364.12,-32"/>
<text text-anchor="start" x="215.88" y="-18.5" font-family="Helvetica,sans-Serif" font-size="10.00">org.springframework.stereotype.</text>
<text text-anchor="middle" x="286" y="-6.5" font-family="Helvetica,sans-Serif" font-size="10.00">Repository</text>
</a>
</g>
</g>
<!-- Node1&#45;&gt;Node3 -->
<g id="edge2_Node000001_Node000003" class="edge">
<title>Node1&#45;&gt;Node3</title>
<g id="a_edge2_Node000001_Node000003"><a xlink:title=" ">
<path fill="none" stroke="#63b8ff" d="M286,-67.79C286,-60.18 286,-51.52 286,-43.52"/>
<polygon fill="#63b8ff" stroke="#63b8ff" points="289.5,-43.64 286,-33.64 282.5,-43.64 289.5,-43.64"/>
</a>
</g>
</g>
<!-- Node4 -->
<g id="Node000004" class="node">
<title>Node4</title>
<g id="a_Node000004"><a xlink:title=" ">
<polygon fill="#e0e0e0" stroke="#999999" points="507.38,-32 382.62,-32 382.62,0 507.38,0 507.38,-32"/>
<text text-anchor="start" x="390.62" y="-18.5" font-family="Helvetica,sans-Serif" font-size="10.00">fr.softsf.sudokufx.model.</text>
<text text-anchor="middle" x="445" y="-6.5" font-family="Helvetica,sans-Serif" font-size="10.00">PlayerLanguage</text>
</a>
</g>
</g>
<!-- Node1&#45;&gt;Node4 -->
<g id="edge3_Node000001_Node000004" class="edge">
<title>Node1&#45;&gt;Node4</title>
<g id="a_edge3_Node000001_Node000004"><a xlink:title=" ">
<path fill="none" stroke="#63b8ff" d="M333.27,-67.59C354.58,-57.95 379.59,-46.62 400.55,-37.13"/>
<polygon fill="#63b8ff" stroke="#63b8ff" points="401.74,-40.43 409.4,-33.12 398.85,-34.06 401.74,-40.43"/>
</a>
</g>
</g>
</g>
</svg>
