<?xml version="1.0" encoding="UTF-8" standalone="no"?>
<!DOCTYPE svg PUBLIC "-//W3C//DTD SVG 1.1//EN"
 "http://www.w3.org/Graphics/SVG/1.1/DTD/svg11.dtd">
<!-- Generated by graphviz version 12.2.1 (20241206.2353)
 -->
<!-- Title: src/main/java/fr/softsf/sudokufx/viewmodel/state/PlayerStateHolder.java Pages: 1 -->
<svg width="1721pt" height="120pt"
 viewBox="0.00 0.00 1720.88 120.00" xmlns="http://www.w3.org/2000/svg" xmlns:xlink="http://www.w3.org/1999/xlink">
<g id="graph0" class="graph" transform="scale(1 1) rotate(0) translate(4 116)">
<title>src/main/java/fr/softsf/sudokufx/viewmodel/state/PlayerStateHolder.java</title>
<!-- Node1 -->
<g id="Node000001" class="node">
<title>Node1</title>
<g id="a_Node000001"><a xlink:title=" ">
<polygon fill="#999999" stroke="#666666" points="796.75,-112 663.75,-112 663.75,-68 796.75,-68 796.75,-112"/>
<text text-anchor="start" x="671.75" y="-98.5" font-family="Helvetica,sans-Serif" font-size="10.00">src/main/java/fr/softsf</text>
<text text-anchor="start" x="671.75" y="-86.5" font-family="Helvetica,sans-Serif" font-size="10.00">/sudokufx/viewmodel/state</text>
<text text-anchor="middle" x="730.25" y="-74.5" font-family="Helvetica,sans-Serif" font-size="10.00">/PlayerStateHolder.java</text>
</a>
</g>
</g>
<!-- Node2 -->
<g id="Node000002" class="node">
<title>Node2</title>
<g id="a_Node000002"><a xlink:title=" ">
<polygon fill="#e0e0e0" stroke="#999999" points="86.5,-26 0,-26 0,-6 86.5,-6 86.5,-26"/>
<text text-anchor="middle" x="43.25" y="-12.5" font-family="Helvetica,sans-Serif" font-size="10.00">java.util.Objects</text>
</a>
</g>
</g>
<!-- Node1&#45;&gt;Node2 -->
<g id="edge1_Node000001_Node000002" class="edge">
<title>Node1&#45;&gt;Node2</title>
<g id="a_edge1_Node000001_Node000002"><a xlink:title=" ">
<path fill="none" stroke="#63b8ff" d="M663.4,-87.2C547.02,-83.13 300.05,-70.37 95.25,-32 91.39,-31.28 87.41,-30.39 83.45,-29.41"/>
<polygon fill="#63b8ff" stroke="#63b8ff" points="84.47,-26.06 73.9,-26.87 82.66,-32.83 84.47,-26.06"/>
</a>
</g>
</g>
<!-- Node3 -->
<g id="Node000003" class="node">
<title>Node3</title>
<g id="a_Node000003"><a xlink:title=" ">
<polygon fill="#e0e0e0" stroke="#999999" points="236,-26 104.5,-26 104.5,-6 236,-6 236,-26"/>
<text text-anchor="middle" x="170.25" y="-12.5" font-family="Helvetica,sans-Serif" font-size="10.00">javafx.application.Platform</text>
</a>
</g>
</g>
<!-- Node1&#45;&gt;Node3 -->
<g id="edge2_Node000001_Node000003" class="edge">
<title>Node1&#45;&gt;Node3</title>
<g id="a_edge2_Node000001_Node000003"><a xlink:title=" ">
<path fill="none" stroke="#63b8ff" d="M663.33,-82.85C569.56,-73.85 393.88,-55.56 245.25,-32 238.86,-30.99 232.2,-29.82 225.58,-28.59"/>
<polygon fill="#63b8ff" stroke="#63b8ff" points="226.53,-25.21 216.05,-26.76 225.21,-32.08 226.53,-25.21"/>
</a>
</g>
</g>
<!-- Node4 -->
<g id="Node000004" class="node">
<title>Node4</title>
<g id="a_Node000004"><a xlink:title=" ">
<polygon fill="#e0e0e0" stroke="#999999" points="394.5,-32 254,-32 254,0 394.5,0 394.5,-32"/>
<text text-anchor="start" x="262" y="-18.5" font-family="Helvetica,sans-Serif" font-size="10.00">javafx.beans.property.Object</text>
<text text-anchor="middle" x="324.25" y="-6.5" font-family="Helvetica,sans-Serif" font-size="10.00">Property</text>
</a>
</g>
</g>
<!-- Node1&#45;&gt;Node4 -->
<g id="edge3_Node000001_Node000004" class="edge">
<title>Node1&#45;&gt;Node4</title>
<g id="a_edge3_Node000001_Node000004"><a xlink:title=" ">
<path fill="none" stroke="#63b8ff" d="M663.5,-77.67C599.9,-66.8 501.13,-49.75 406.14,-32.51"/>
<polygon fill="#63b8ff" stroke="#63b8ff" points="406.83,-29.08 396.36,-30.74 405.58,-35.97 406.83,-29.08"/>
</a>
</g>
</g>
<!-- Node5 -->
<g id="Node000005" class="node">
<title>Node5</title>
<g id="a_Node000005"><a xlink:title=" ">
<polygon fill="#e0e0e0" stroke="#999999" points="554.25,-32 412.25,-32 412.25,0 554.25,0 554.25,-32"/>
<text text-anchor="start" x="420.25" y="-18.5" font-family="Helvetica,sans-Serif" font-size="10.00">javafx.beans.property.Simple</text>
<text text-anchor="middle" x="483.25" y="-6.5" font-family="Helvetica,sans-Serif" font-size="10.00">ObjectProperty</text>
</a>
</g>
</g>
<!-- Node1&#45;&gt;Node5 -->
<g id="edge4_Node000001_Node000005" class="edge">
<title>Node1&#45;&gt;Node5</title>
<g id="a_edge4_Node000001_Node000005"><a xlink:title=" ">
<path fill="none" stroke="#63b8ff" d="M663.41,-69.52C627.15,-58.95 582.58,-45.96 546.85,-35.54"/>
<polygon fill="#63b8ff" stroke="#63b8ff" points="548.09,-32.26 537.51,-32.82 546.13,-38.98 548.09,-32.26"/>
</a>
</g>
</g>
<!-- Node6 -->
<g id="Node000006" class="node">
<title>Node6</title>
<g id="a_Node000006"><a xlink:title=" ">
<polygon fill="#e0e0e0" stroke="#999999" points="654.62,-26 571.88,-26 571.88,-6 654.62,-6 654.62,-26"/>
<text text-anchor="middle" x="613.25" y="-12.5" font-family="Helvetica,sans-Serif" font-size="10.00">org.slf4j.Logger</text>
</a>
</g>
</g>
<!-- Node1&#45;&gt;Node6 -->
<g id="edge5_Node000001_Node000006" class="edge">
<title>Node1&#45;&gt;Node6</title>
<g id="a_edge5_Node000001_Node000006"><a xlink:title=" ">
<path fill="none" stroke="#63b8ff" d="M695.46,-67.59C677.05,-56.26 654.88,-42.62 638.2,-32.35"/>
<polygon fill="#63b8ff" stroke="#63b8ff" points="640.24,-29.5 629.89,-27.24 636.57,-35.46 640.24,-29.5"/>
</a>
</g>
</g>
<!-- Node7 -->
<g id="Node000007" class="node">
<title>Node7</title>
<g id="a_Node000007"><a xlink:title=" ">
<polygon fill="#e0e0e0" stroke="#999999" points="788.12,-26 672.38,-26 672.38,-6 788.12,-6 788.12,-26"/>
<text text-anchor="middle" x="730.25" y="-12.5" font-family="Helvetica,sans-Serif" font-size="10.00">org.slf4j.LoggerFactory</text>
</a>
</g>
</g>
<!-- Node1&#45;&gt;Node7 -->
<g id="edge6_Node000001_Node000007" class="edge">
<title>Node1&#45;&gt;Node7</title>
<g id="a_edge6_Node000001_Node000007"><a xlink:title=" ">
<path fill="none" stroke="#63b8ff" d="M730.25,-67.79C730.25,-58.32 730.25,-47.2 730.25,-37.78"/>
<polygon fill="#63b8ff" stroke="#63b8ff" points="733.75,-37.82 730.25,-27.82 726.75,-37.82 733.75,-37.82"/>
</a>
</g>
</g>
<!-- Node8 -->
<g id="Node000008" class="node">
<title>Node8</title>
<g id="a_Node000008"><a xlink:title=" ">
<polygon fill="#e0e0e0" stroke="#999999" points="996.62,-32 805.88,-32 805.88,0 996.62,0 996.62,-32"/>
<text text-anchor="start" x="813.88" y="-18.5" font-family="Helvetica,sans-Serif" font-size="10.00">org.springframework.context.annotation.</text>
<text text-anchor="middle" x="901.25" y="-6.5" font-family="Helvetica,sans-Serif" font-size="10.00">DependsOn</text>
</a>
</g>
</g>
<!-- Node1&#45;&gt;Node8 -->
<g id="edge7_Node000001_Node000008" class="edge">
<title>Node1&#45;&gt;Node8</title>
<g id="a_edge7_Node000001_Node000008"><a xlink:title=" ">
<path fill="none" stroke="#63b8ff" d="M781.09,-67.59C804.21,-57.86 831.4,-46.41 854.06,-36.87"/>
<polygon fill="#63b8ff" stroke="#63b8ff" points="855.19,-40.19 863.05,-33.08 852.48,-33.74 855.19,-40.19"/>
</a>
</g>
</g>
<!-- Node9 -->
<g id="Node000009" class="node">
<title>Node9</title>
<g id="a_Node000009"><a xlink:title=" ">
<polygon fill="#e0e0e0" stroke="#999999" points="1171.38,-32 1015.12,-32 1015.12,0 1171.38,0 1171.38,-32"/>
<text text-anchor="start" x="1023.12" y="-18.5" font-family="Helvetica,sans-Serif" font-size="10.00">org.springframework.stereotype.</text>
<text text-anchor="middle" x="1093.25" y="-6.5" font-family="Helvetica,sans-Serif" font-size="10.00">Component</text>
</a>
</g>
</g>
<!-- Node1&#45;&gt;Node9 -->
<g id="edge8_Node000001_Node000009" class="edge">
<title>Node1&#45;&gt;Node9</title>
<g id="a_edge8_Node000001_Node000009"><a xlink:title=" ">
<path fill="none" stroke="#63b8ff" d="M796.83,-75.79C855.07,-64.24 940.12,-47.37 1004.2,-34.66"/>
<polygon fill="#63b8ff" stroke="#63b8ff" points="1004.49,-38.17 1013.62,-32.79 1003.13,-31.31 1004.49,-38.17"/>
</a>
</g>
</g>
<!-- Node10 -->
<g id="Node000010" class="node">
<title>Node10</title>
<g id="a_Node000010"><a xlink:title=" ">
<polygon fill="#e0e0e0" stroke="#999999" points="1345,-26 1189.5,-26 1189.5,-6 1345,-6 1345,-26"/>
<text text-anchor="middle" x="1267.25" y="-12.5" font-family="Helvetica,sans-Serif" font-size="10.00">fr.softsf.sudokufx.dto.PlayerDto</text>
</a>
</g>
</g>
<!-- Node1&#45;&gt;Node10 -->
<g id="edge9_Node000001_Node000010" class="edge">
<title>Node1&#45;&gt;Node10</title>
<g id="a_edge9_Node000001_Node000010"><a xlink:title=" ">
<path fill="none" stroke="#63b8ff" d="M797.09,-81.48C885.09,-71.36 1044.54,-52.28 1180.25,-32 1187.87,-30.86 1195.86,-29.59 1203.77,-28.28"/>
<polygon fill="#63b8ff" stroke="#63b8ff" points="1204.09,-31.78 1213.37,-26.67 1202.93,-24.88 1204.09,-31.78"/>
</a>
</g>
</g>
<!-- Node11 -->
<g id="Node000011" class="node">
<title>Node11</title>
<g id="a_Node000011"><a xlink:title=" ">
<polygon fill="#e0e0e0" stroke="#999999" points="1535.25,-32 1363.25,-32 1363.25,0 1535.25,0 1535.25,-32"/>
<text text-anchor="start" x="1371.25" y="-18.5" font-family="Helvetica,sans-Serif" font-size="10.00">fr.softsf.sudokufx.service.business.</text>
<text text-anchor="middle" x="1449.25" y="-6.5" font-family="Helvetica,sans-Serif" font-size="10.00">PlayerService</text>
</a>
</g>
</g>
<!-- Node1&#45;&gt;Node11 -->
<g id="edge10_Node000001_Node000011" class="edge">
<title>Node1&#45;&gt;Node11</title>
<g id="a_edge10_Node000001_Node000011"><a xlink:title=" ">
<path fill="none" stroke="#63b8ff" d="M796.9,-84.35C909.18,-76.21 1143.42,-57.86 1351.66,-32.27"/>
<polygon fill="#63b8ff" stroke="#63b8ff" points="1351.82,-35.78 1361.31,-31.08 1350.96,-28.83 1351.82,-35.78"/>
</a>
</g>
</g>
<!-- Node12 -->
<g id="Node000012" class="node">
<title>Node12</title>
<g id="a_Node000012"><a xlink:title=" ">
<polygon fill="#e0e0e0" stroke="#999999" points="1712.88,-26 1553.62,-26 1553.62,-6 1712.88,-6 1712.88,-26"/>
<text text-anchor="middle" x="1633.25" y="-12.5" font-family="Helvetica,sans-Serif" font-size="10.00">jakarta.annotation.PostConstruct</text>
</a>
</g>
</g>
<!-- Node1&#45;&gt;Node12 -->
<g id="edge11_Node000001_Node000012" class="edge">
<title>Node1&#45;&gt;Node12</title>
<g id="a_edge11_Node000001_Node000012"><a xlink:title=" ">
<path fill="none" stroke="#63b8ff" d="M797.2,-86.51C936.59,-80.85 1268,-64.87 1544.25,-32 1552.89,-30.97 1561.98,-29.68 1570.9,-28.3"/>
<polygon fill="#63b8ff" stroke="#63b8ff" points="1571.26,-31.78 1580.58,-26.74 1570.15,-24.87 1571.26,-31.78"/>
</a>
</g>
</g>
</g>
</svg>
