<?xml version="1.0" encoding="UTF-8" standalone="no"?>
<!DOCTYPE svg PUBLIC "-//W3C//DTD SVG 1.1//EN"
 "http://www.w3.org/Graphics/SVG/1.1/DTD/svg11.dtd">
<!-- Generated by graphviz version 12.2.1 (20241206.2353)
 -->
<!-- Title: src/main/java/fr/softsf/sudokufx/service/business/PlayerService.java Pages: 1 -->
<svg width="3726pt" height="120pt"
 viewBox="0.00 0.00 3725.88 120.00" xmlns="http://www.w3.org/2000/svg" xmlns:xlink="http://www.w3.org/1999/xlink">
<g id="graph0" class="graph" transform="scale(1 1) rotate(0) translate(4 116)">
<title>src/main/java/fr/softsf/sudokufx/service/business/PlayerService.java</title>
<!-- Node1 -->
<g id="Node000001" class="node">
<title>Node1</title>
<g id="a_Node000001"><a xlink:title=" ">
<polygon fill="#999999" stroke="#666666" points="2090.75,-112 1955.5,-112 1955.5,-68 2090.75,-68 2090.75,-112"/>
<text text-anchor="start" x="1963.5" y="-98.5" font-family="Helvetica,sans-Serif" font-size="10.00">src/main/java/fr/softsf</text>
<text text-anchor="start" x="1963.5" y="-86.5" font-family="Helvetica,sans-Serif" font-size="10.00">/sudokufx/service/business</text>
<text text-anchor="middle" x="2023.12" y="-74.5" font-family="Helvetica,sans-Serif" font-size="10.00">/PlayerService.java</text>
</a>
</g>
</g>
<!-- Node2 -->
<g id="Node000002" class="node">
<title>Node2</title>
<g id="a_Node000002"><a xlink:title=" ">
<polygon fill="#e0e0e0" stroke="#999999" points="156.25,-32 0,-32 0,0 156.25,0 156.25,-32"/>
<text text-anchor="start" x="8" y="-18.5" font-family="Helvetica,sans-Serif" font-size="10.00">org.springframework.stereotype.</text>
<text text-anchor="middle" x="78.12" y="-6.5" font-family="Helvetica,sans-Serif" font-size="10.00">Service</text>
</a>
</g>
</g>
<!-- Node1&#45;&gt;Node2 -->
<g id="edge1_Node000001_Node000002" class="edge">
<title>Node1&#45;&gt;Node2</title>
<g id="a_edge1_Node000001_Node000002"><a xlink:title=" ">
<path fill="none" stroke="#63b8ff" d="M1955.33,-88.19C1667.63,-84.58 545.51,-68.46 167.54,-32.12"/>
<polygon fill="#63b8ff" stroke="#63b8ff" points="168.11,-28.66 157.81,-31.16 167.42,-35.63 168.11,-28.66"/>
</a>
</g>
</g>
<!-- Node3 -->
<g id="Node000003" class="node">
<title>Node3</title>
<g id="a_Node000003"><a xlink:title=" ">
<polygon fill="#e0e0e0" stroke="#999999" points="380.38,-32 173.88,-32 173.88,0 380.38,0 380.38,-32"/>
<text text-anchor="start" x="181.88" y="-18.5" font-family="Helvetica,sans-Serif" font-size="10.00">org.springframework.transaction.annotation.</text>
<text text-anchor="middle" x="277.12" y="-6.5" font-family="Helvetica,sans-Serif" font-size="10.00">Transactional</text>
</a>
</g>
</g>
<!-- Node1&#45;&gt;Node3 -->
<g id="edge2_Node000001_Node000003" class="edge">
<title>Node1&#45;&gt;Node3</title>
<g id="a_edge2_Node000001_Node000003"><a xlink:title=" ">
<path fill="none" stroke="#63b8ff" d="M1955.28,-89.02C1732.65,-88.57 1004.1,-83.09 392.08,-32.2"/>
<polygon fill="#63b8ff" stroke="#63b8ff" points="392.59,-28.73 382.33,-31.38 392,-35.7 392.59,-28.73"/>
</a>
</g>
</g>
<!-- Node4 -->
<g id="Node000004" class="node">
<title>Node4</title>
<g id="a_Node000004"><a xlink:title=" ">
<polygon fill="#e0e0e0" stroke="#999999" points="579.62,-32 398.62,-32 398.62,0 579.62,0 579.62,-32"/>
<text text-anchor="start" x="406.62" y="-18.5" font-family="Helvetica,sans-Serif" font-size="10.00">fr.softsf.sudokufx.common.exception.</text>
<text text-anchor="middle" x="489.12" y="-6.5" font-family="Helvetica,sans-Serif" font-size="10.00">ExceptionTools</text>
</a>
</g>
</g>
<!-- Node1&#45;&gt;Node4 -->
<g id="edge3_Node000001_Node000004" class="edge">
<title>Node1&#45;&gt;Node4</title>
<g id="a_edge3_Node000001_Node000004"><a xlink:title=" ">
<path fill="none" stroke="#63b8ff" d="M1955.34,-88.97C1750.81,-88.3 1121.76,-82.1 591.31,-32.24"/>
<polygon fill="#63b8ff" stroke="#63b8ff" points="591.77,-28.77 581.48,-31.31 591.11,-35.73 591.77,-28.77"/>
</a>
</g>
</g>
<!-- Node5 -->
<g id="Node000005" class="node">
<title>Node5</title>
<g id="a_Node000005"><a xlink:title=" ">
<polygon fill="#e0e0e0" stroke="#999999" points="778.62,-32 597.62,-32 597.62,0 778.62,0 778.62,-32"/>
<text text-anchor="start" x="605.62" y="-18.5" font-family="Helvetica,sans-Serif" font-size="10.00">fr.softsf.sudokufx.common.exception.</text>
<text text-anchor="middle" x="688.12" y="-6.5" font-family="Helvetica,sans-Serif" font-size="10.00">JakartaValidator</text>
</a>
</g>
</g>
<!-- Node1&#45;&gt;Node5 -->
<g id="edge4_Node000001_Node000005" class="edge">
<title>Node1&#45;&gt;Node5</title>
<g id="a_edge4_Node000001_Node000005"><a xlink:title=" ">
<path fill="none" stroke="#63b8ff" d="M1955.28,-88.35C1770.08,-86.06 1240.14,-75.94 790.26,-32.25"/>
<polygon fill="#63b8ff" stroke="#63b8ff" points="790.78,-28.78 780.49,-31.29 790.1,-35.75 790.78,-28.78"/>
</a>
</g>
</g>
<!-- Node6 -->
<g id="Node000006" class="node">
<title>Node6</title>
<g id="a_Node000006"><a xlink:title=" ">
<polygon fill="#e0e0e0" stroke="#999999" points="1013.62,-32 796.62,-32 796.62,0 1013.62,0 1013.62,-32"/>
<text text-anchor="start" x="804.62" y="-18.5" font-family="Helvetica,sans-Serif" font-size="10.00">fr.softsf.sudokufx.common.interfaces.mapper.</text>
<text text-anchor="middle" x="905.12" y="-6.5" font-family="Helvetica,sans-Serif" font-size="10.00">IPlayerMapper</text>
</a>
</g>
</g>
<!-- Node1&#45;&gt;Node6 -->
<g id="edge5_Node000001_Node000006" class="edge">
<title>Node1&#45;&gt;Node6</title>
<g id="a_edge5_Node000001_Node000006"><a xlink:title=" ">
<path fill="none" stroke="#63b8ff" d="M1955.1,-86.75C1795.01,-81.12 1381.71,-64.52 1025.39,-32.16"/>
<polygon fill="#63b8ff" stroke="#63b8ff" points="1025.86,-28.69 1015.58,-31.27 1025.22,-35.66 1025.86,-28.69"/>
</a>
</g>
</g>
<!-- Node7 -->
<g id="Node000007" class="node">
<title>Node7</title>
<g id="a_Node000007"><a xlink:title=" ">
<polygon fill="#e0e0e0" stroke="#999999" points="1186.12,-26 1032.12,-26 1032.12,-6 1186.12,-6 1186.12,-26"/>
<text text-anchor="middle" x="1109.12" y="-12.5" font-family="Helvetica,sans-Serif" font-size="10.00">fr.softsf.sudokufx.dto.GameDto</text>
</a>
</g>
</g>
<!-- Node1&#45;&gt;Node7 -->
<g id="edge6_Node000001_Node000007" class="edge">
<title>Node1&#45;&gt;Node7</title>
<g id="a_edge6_Node000001_Node000007"><a xlink:title=" ">
<path fill="none" stroke="#63b8ff" d="M1955.01,-86.71C1813.19,-81.41 1476.02,-66.07 1195.12,-32 1186.76,-30.98 1177.96,-29.7 1169.33,-28.32"/>
<polygon fill="#63b8ff" stroke="#63b8ff" points="1170.04,-24.89 1159.6,-26.7 1168.89,-31.79 1170.04,-24.89"/>
</a>
</g>
</g>
<!-- Node8 -->
<g id="Node000008" class="node">
<title>Node8</title>
<g id="a_Node000008"><a xlink:title=" ">
<polygon fill="#e0e0e0" stroke="#999999" points="1350,-26 1204.25,-26 1204.25,-6 1350,-6 1350,-26"/>
<text text-anchor="middle" x="1277.12" y="-12.5" font-family="Helvetica,sans-Serif" font-size="10.00">fr.softsf.sudokufx.dto.GridDto</text>
</a>
</g>
</g>
<!-- Node1&#45;&gt;Node8 -->
<g id="edge7_Node000001_Node000008" class="edge">
<title>Node1&#45;&gt;Node8</title>
<g id="a_edge7_Node000001_Node000008"><a xlink:title=" ">
<path fill="none" stroke="#63b8ff" d="M1955.02,-85.3C1834.49,-78.28 1575.86,-61.06 1359.12,-32 1351.61,-30.99 1343.73,-29.77 1335.96,-28.46"/>
<polygon fill="#63b8ff" stroke="#63b8ff" points="1336.64,-25.03 1326.19,-26.76 1335.44,-31.92 1336.64,-25.03"/>
</a>
</g>
</g>
<!-- Node9 -->
<g id="Node000009" class="node">
<title>Node9</title>
<g id="a_Node000009"><a xlink:title=" ">
<polygon fill="#e0e0e0" stroke="#999999" points="1523.88,-26 1368.38,-26 1368.38,-6 1523.88,-6 1523.88,-26"/>
<text text-anchor="middle" x="1446.12" y="-12.5" font-family="Helvetica,sans-Serif" font-size="10.00">fr.softsf.sudokufx.dto.PlayerDto</text>
</a>
</g>
</g>
<!-- Node1&#45;&gt;Node9 -->
<g id="edge8_Node000001_Node000009" class="edge">
<title>Node1&#45;&gt;Node9</title>
<g id="a_edge8_Node000001_Node000009"><a xlink:title=" ">
<path fill="none" stroke="#63b8ff" d="M1955.06,-82.34C1860.12,-72.77 1682.66,-53.85 1532.12,-32 1524.48,-30.89 1516.47,-29.63 1508.54,-28.32"/>
<polygon fill="#63b8ff" stroke="#63b8ff" points="1509.37,-24.91 1498.93,-26.7 1508.21,-31.81 1509.37,-24.91"/>
</a>
</g>
</g>
<!-- Node10 -->
<g id="Node000010" class="node">
<title>Node10</title>
<g id="a_Node000010"><a xlink:title=" ">
<polygon fill="#e0e0e0" stroke="#999999" points="1692.62,-26 1541.62,-26 1541.62,-6 1692.62,-6 1692.62,-26"/>
<text text-anchor="middle" x="1617.12" y="-12.5" font-family="Helvetica,sans-Serif" font-size="10.00">fr.softsf.sudokufx.model.Game</text>
</a>
</g>
</g>
<!-- Node1&#45;&gt;Node10 -->
<g id="edge9_Node000001_Node000010" class="edge">
<title>Node1&#45;&gt;Node10</title>
<g id="a_edge9_Node000001_Node000010"><a xlink:title=" ">
<path fill="none" stroke="#63b8ff" d="M1955.17,-76.95C1879.05,-63.45 1756.58,-41.73 1681.82,-28.47"/>
<polygon fill="#63b8ff" stroke="#63b8ff" points="1682.64,-25.06 1672.18,-26.76 1681.42,-31.96 1682.64,-25.06"/>
</a>
</g>
</g>
<!-- Node11 -->
<g id="Node000011" class="node">
<title>Node11</title>
<g id="a_Node000011"><a xlink:title=" ">
<polygon fill="#e0e0e0" stroke="#999999" points="1853.5,-26 1710.75,-26 1710.75,-6 1853.5,-6 1853.5,-26"/>
<text text-anchor="middle" x="1782.12" y="-12.5" font-family="Helvetica,sans-Serif" font-size="10.00">fr.softsf.sudokufx.model.Grid</text>
</a>
</g>
</g>
<!-- Node1&#45;&gt;Node11 -->
<g id="edge10_Node000001_Node000011" class="edge">
<title>Node1&#45;&gt;Node11</title>
<g id="a_edge10_Node000001_Node000011"><a xlink:title=" ">
<path fill="none" stroke="#63b8ff" d="M1955.03,-68.66C1913.02,-56.11 1860.47,-40.41 1824.39,-29.63"/>
<polygon fill="#63b8ff" stroke="#63b8ff" points="1825.79,-26.39 1815.2,-26.88 1823.78,-33.1 1825.79,-26.39"/>
</a>
</g>
</g>
<!-- Node12 -->
<g id="Node000012" class="node">
<title>Node12</title>
<g id="a_Node000012"><a xlink:title=" ">
<polygon fill="#e0e0e0" stroke="#999999" points="2020.5,-26 1871.75,-26 1871.75,-6 2020.5,-6 2020.5,-26"/>
<text text-anchor="middle" x="1946.12" y="-12.5" font-family="Helvetica,sans-Serif" font-size="10.00">fr.softsf.sudokufx.model.Menu</text>
</a>
</g>
</g>
<!-- Node1&#45;&gt;Node12 -->
<g id="edge11_Node000001_Node000012" class="edge">
<title>Node1&#45;&gt;Node12</title>
<g id="a_edge11_Node000001_Node000012"><a xlink:title=" ">
<path fill="none" stroke="#63b8ff" d="M2000.44,-67.79C1988.93,-57.03 1975.15,-44.14 1964.34,-34.03"/>
<polygon fill="#63b8ff" stroke="#63b8ff" points="1966.88,-31.62 1957.19,-27.35 1962.1,-36.73 1966.88,-31.62"/>
</a>
</g>
</g>
<!-- Node13 -->
<g id="Node000013" class="node">
<title>Node13</title>
<g id="a_Node000013"><a xlink:title=" ">
<polygon fill="#e0e0e0" stroke="#999999" points="2163.5,-32 2038.75,-32 2038.75,0 2163.5,0 2163.5,-32"/>
<text text-anchor="start" x="2046.75" y="-18.5" font-family="Helvetica,sans-Serif" font-size="10.00">fr.softsf.sudokufx.model.</text>
<text text-anchor="middle" x="2101.12" y="-6.5" font-family="Helvetica,sans-Serif" font-size="10.00">Options</text>
</a>
</g>
</g>
<!-- Node1&#45;&gt;Node13 -->
<g id="edge12_Node000001_Node000013" class="edge">
<title>Node1&#45;&gt;Node13</title>
<g id="a_edge12_Node000001_Node000013"><a xlink:title=" ">
<path fill="none" stroke="#63b8ff" d="M2046.11,-67.79C2055.6,-59.02 2066.63,-48.84 2076.31,-39.91"/>
<polygon fill="#63b8ff" stroke="#63b8ff" points="2078.65,-42.51 2083.63,-33.15 2073.9,-37.36 2078.65,-42.51"/>
</a>
</g>
</g>
<!-- Node14 -->
<g id="Node000014" class="node">
<title>Node14</title>
<g id="a_Node000014"><a xlink:title=" ">
<polygon fill="#e0e0e0" stroke="#999999" points="2306.5,-32 2181.75,-32 2181.75,0 2306.5,0 2306.5,-32"/>
<text text-anchor="start" x="2189.75" y="-18.5" font-family="Helvetica,sans-Serif" font-size="10.00">fr.softsf.sudokufx.model.</text>
<text text-anchor="middle" x="2244.12" y="-6.5" font-family="Helvetica,sans-Serif" font-size="10.00">Player</text>
</a>
</g>
</g>
<!-- Node1&#45;&gt;Node14 -->
<g id="edge13_Node000001_Node000014" class="edge">
<title>Node1&#45;&gt;Node14</title>
<g id="a_edge13_Node000001_Node000014"><a xlink:title=" ">
<path fill="none" stroke="#63b8ff" d="M2088.83,-67.59C2119.66,-57.55 2156.08,-45.69 2185.9,-35.97"/>
<polygon fill="#63b8ff" stroke="#63b8ff" points="2186.7,-39.39 2195.12,-32.96 2184.53,-32.73 2186.7,-39.39"/>
</a>
</g>
</g>
<!-- Node15 -->
<g id="Node000015" class="node">
<title>Node15</title>
<g id="a_Node000015"><a xlink:title=" ">
<polygon fill="#e0e0e0" stroke="#999999" points="2449.5,-32 2324.75,-32 2324.75,0 2449.5,0 2449.5,-32"/>
<text text-anchor="start" x="2332.75" y="-18.5" font-family="Helvetica,sans-Serif" font-size="10.00">fr.softsf.sudokufx.model.</text>
<text text-anchor="middle" x="2387.12" y="-6.5" font-family="Helvetica,sans-Serif" font-size="10.00">PlayerLanguage</text>
</a>
</g>
</g>
<!-- Node1&#45;&gt;Node15 -->
<g id="edge14_Node000001_Node000015" class="edge">
<title>Node1&#45;&gt;Node15</title>
<g id="a_edge14_Node000001_Node000015"><a xlink:title=" ">
<path fill="none" stroke="#63b8ff" d="M2091.03,-76C2147.69,-65.09 2230.89,-48.94 2313.22,-32.37"/>
<polygon fill="#63b8ff" stroke="#63b8ff" points="2313.71,-35.84 2322.82,-30.44 2312.33,-28.98 2313.71,-35.84"/>
</a>
</g>
</g>
<!-- Node16 -->
<g id="Node000016" class="node">
<title>Node16</title>
<g id="a_Node000016"><a xlink:title=" ">
<polygon fill="#e0e0e0" stroke="#999999" points="2608.38,-32 2467.88,-32 2467.88,0 2608.38,0 2608.38,-32"/>
<text text-anchor="start" x="2475.88" y="-18.5" font-family="Helvetica,sans-Serif" font-size="10.00">fr.softsf.sudokufx.repository.</text>
<text text-anchor="middle" x="2538.12" y="-6.5" font-family="Helvetica,sans-Serif" font-size="10.00">GameLevelRepository</text>
</a>
</g>
</g>
<!-- Node1&#45;&gt;Node16 -->
<g id="edge15_Node000001_Node000016" class="edge">
<title>Node1&#45;&gt;Node16</title>
<g id="a_edge15_Node000001_Node000016"><a xlink:title=" ">
<path fill="none" stroke="#63b8ff" d="M2091.1,-81.27C2174.59,-71.51 2320.78,-53.57 2456.49,-32.21"/>
<polygon fill="#63b8ff" stroke="#63b8ff" points="2456.67,-35.72 2466,-30.7 2455.57,-28.81 2456.67,-35.72"/>
</a>
</g>
</g>
<!-- Node17 -->
<g id="Node000017" class="node">
<title>Node17</title>
<g id="a_Node000017"><a xlink:title=" ">
<polygon fill="#e0e0e0" stroke="#999999" points="2767.38,-32 2626.88,-32 2626.88,0 2767.38,0 2767.38,-32"/>
<text text-anchor="start" x="2634.88" y="-18.5" font-family="Helvetica,sans-Serif" font-size="10.00">fr.softsf.sudokufx.repository.</text>
<text text-anchor="middle" x="2697.12" y="-6.5" font-family="Helvetica,sans-Serif" font-size="10.00">GameRepository</text>
</a>
</g>
</g>
<!-- Node1&#45;&gt;Node17 -->
<g id="edge16_Node000001_Node000017" class="edge">
<title>Node1&#45;&gt;Node17</title>
<g id="a_edge16_Node000001_Node000017"><a xlink:title=" ">
<path fill="none" stroke="#63b8ff" d="M2091.06,-84.47C2199.6,-76.8 2419.02,-59.5 2615.4,-32.16"/>
<polygon fill="#63b8ff" stroke="#63b8ff" points="2615.6,-35.66 2625.01,-30.81 2614.62,-28.73 2615.6,-35.66"/>
</a>
</g>
</g>
<!-- Node18 -->
<g id="Node000018" class="node">
<title>Node18</title>
<g id="a_Node000018"><a xlink:title=" ">
<polygon fill="#e0e0e0" stroke="#999999" points="2926.38,-32 2785.88,-32 2785.88,0 2926.38,0 2926.38,-32"/>
<text text-anchor="start" x="2793.88" y="-18.5" font-family="Helvetica,sans-Serif" font-size="10.00">fr.softsf.sudokufx.repository.</text>
<text text-anchor="middle" x="2856.12" y="-6.5" font-family="Helvetica,sans-Serif" font-size="10.00">GridRepository</text>
</a>
</g>
</g>
<!-- Node1&#45;&gt;Node18 -->
<g id="edge17_Node000001_Node000018" class="edge">
<title>Node1&#45;&gt;Node18</title>
<g id="a_edge17_Node000001_Node000018"><a xlink:title=" ">
<path fill="none" stroke="#63b8ff" d="M2091.14,-86.36C2221.62,-80.74 2516.26,-65.42 2774.42,-32.12"/>
<polygon fill="#63b8ff" stroke="#63b8ff" points="2774.56,-35.63 2784.02,-30.87 2773.65,-28.69 2774.56,-35.63"/>
</a>
</g>
</g>
<!-- Node19 -->
<g id="Node000019" class="node">
<title>Node19</title>
<g id="a_Node000019"><a xlink:title=" ">
<polygon fill="#e0e0e0" stroke="#999999" points="3085.38,-32 2944.88,-32 2944.88,0 3085.38,0 3085.38,-32"/>
<text text-anchor="start" x="2952.88" y="-18.5" font-family="Helvetica,sans-Serif" font-size="10.00">fr.softsf.sudokufx.repository.</text>
<text text-anchor="middle" x="3015.12" y="-6.5" font-family="Helvetica,sans-Serif" font-size="10.00">MenuRepository</text>
</a>
</g>
</g>
<!-- Node1&#45;&gt;Node19 -->
<g id="edge18_Node000001_Node000019" class="edge">
<title>Node1&#45;&gt;Node19</title>
<g id="a_edge18_Node000001_Node000019"><a xlink:title=" ">
<path fill="none" stroke="#63b8ff" d="M2091.18,-87.6C2241.33,-83.91 2612.42,-71.38 2933.14,-32.13"/>
<polygon fill="#63b8ff" stroke="#63b8ff" points="2933.53,-35.61 2943.03,-30.91 2932.67,-28.66 2933.53,-35.61"/>
</a>
</g>
</g>
<!-- Node20 -->
<g id="Node000020" class="node">
<title>Node20</title>
<g id="a_Node000020"><a xlink:title=" ">
<polygon fill="#e0e0e0" stroke="#999999" points="3244.38,-32 3103.88,-32 3103.88,0 3244.38,0 3244.38,-32"/>
<text text-anchor="start" x="3111.88" y="-18.5" font-family="Helvetica,sans-Serif" font-size="10.00">fr.softsf.sudokufx.repository.</text>
<text text-anchor="middle" x="3174.12" y="-6.5" font-family="Helvetica,sans-Serif" font-size="10.00">OptionsRepository</text>
</a>
</g>
</g>
<!-- Node1&#45;&gt;Node20 -->
<g id="edge19_Node000001_Node000020" class="edge">
<title>Node1&#45;&gt;Node20</title>
<g id="a_edge19_Node000001_Node000020"><a xlink:title=" ">
<path fill="none" stroke="#63b8ff" d="M2091.06,-88.49C2259.15,-86.57 2708.09,-77.38 3092.19,-32.11"/>
<polygon fill="#63b8ff" stroke="#63b8ff" points="3092.51,-35.6 3102.03,-30.94 3091.69,-28.64 3092.51,-35.6"/>
</a>
</g>
</g>
<!-- Node21 -->
<g id="Node000021" class="node">
<title>Node21</title>
<g id="a_Node000021"><a xlink:title=" ">
<polygon fill="#e0e0e0" stroke="#999999" points="3403.38,-32 3262.88,-32 3262.88,0 3403.38,0 3403.38,-32"/>
<text text-anchor="start" x="3270.88" y="-18.5" font-family="Helvetica,sans-Serif" font-size="10.00">fr.softsf.sudokufx.repository.</text>
<text text-anchor="middle" x="3333.12" y="-6.5" font-family="Helvetica,sans-Serif" font-size="10.00">PlayerLanguageRepository</text>
</a>
</g>
</g>
<!-- Node1&#45;&gt;Node21 -->
<g id="edge20_Node000001_Node000021" class="edge">
<title>Node1&#45;&gt;Node21</title>
<g id="a_edge20_Node000001_Node000021"><a xlink:title=" ">
<path fill="none" stroke="#63b8ff" d="M2091.06,-89.16C2275.89,-88.88 2803.4,-83.39 3251.31,-32.08"/>
<polygon fill="#63b8ff" stroke="#63b8ff" points="3251.5,-35.58 3261.03,-30.96 3250.7,-28.63 3251.5,-35.58"/>
</a>
</g>
</g>
<!-- Node22 -->
<g id="Node000022" class="node">
<title>Node22</title>
<g id="a_Node000022"><a xlink:title=" ">
<polygon fill="#e0e0e0" stroke="#999999" points="3562.38,-32 3421.88,-32 3421.88,0 3562.38,0 3562.38,-32"/>
<text text-anchor="start" x="3429.88" y="-18.5" font-family="Helvetica,sans-Serif" font-size="10.00">fr.softsf.sudokufx.repository.</text>
<text text-anchor="middle" x="3492.12" y="-6.5" font-family="Helvetica,sans-Serif" font-size="10.00">PlayerRepository</text>
</a>
</g>
</g>
<!-- Node1&#45;&gt;Node22 -->
<g id="edge21_Node000001_Node000022" class="edge">
<title>Node1&#45;&gt;Node22</title>
<g id="a_edge21_Node000001_Node000022"><a xlink:title=" ">
<path fill="none" stroke="#63b8ff" d="M2090.96,-89.67C2291.35,-90.93 2898.06,-89.43 3410.22,-32.09"/>
<polygon fill="#63b8ff" stroke="#63b8ff" points="3410.49,-35.58 3420.03,-30.98 3409.7,-28.62 3410.49,-35.58"/>
</a>
</g>
</g>
<!-- Node23 -->
<g id="Node000023" class="node">
<title>Node23</title>
<g id="a_Node000023"><a xlink:title=" ">
<polygon fill="#e0e0e0" stroke="#999999" points="3717.88,-32 3580.38,-32 3580.38,0 3717.88,0 3717.88,-32"/>
<text text-anchor="start" x="3588.38" y="-18.5" font-family="Helvetica,sans-Serif" font-size="10.00">jakarta.validation.Constraint</text>
<text text-anchor="middle" x="3649.12" y="-6.5" font-family="Helvetica,sans-Serif" font-size="10.00">ViolationException</text>
</a>
</g>
</g>
<!-- Node1&#45;&gt;Node23 -->
<g id="edge22_Node000001_Node000023" class="edge">
<title>Node1&#45;&gt;Node23</title>
<g id="a_edge22_Node000001_Node000023"><a xlink:title=" ">
<path fill="none" stroke="#63b8ff" d="M2091.12,-87.88C2347.34,-83.46 3255.49,-65.82 3568.56,-32.14"/>
<polygon fill="#63b8ff" stroke="#63b8ff" points="3568.83,-35.63 3578.38,-31.05 3568.06,-28.68 3568.83,-35.63"/>
</a>
</g>
</g>
</g>
</svg>
