<?xml version="1.0" encoding="UTF-8" standalone="no"?>
<!DOCTYPE svg PUBLIC "-//W3C//DTD SVG 1.1//EN"
 "http://www.w3.org/Graphics/SVG/1.1/DTD/svg11.dtd">
<!-- Generated by graphviz version 12.2.1 (20241206.2353)
 -->
<!-- Title: src/main/java/fr/softsf/sudokufx/service/business/PlayerService.java Pages: 1 -->
<svg width="1509pt" height="120pt"
 viewBox="0.00 0.00 1508.88 120.00" xmlns="http://www.w3.org/2000/svg" xmlns:xlink="http://www.w3.org/1999/xlink">
<g id="graph0" class="graph" transform="scale(1 1) rotate(0) translate(4 116)">
<title>src/main/java/fr/softsf/sudokufx/service/business/PlayerService.java</title>
<!-- Node1 -->
<g id="Node000001" class="node">
<title>Node1</title>
<g id="a_Node000001"><a xlink:title=" ">
<polygon fill="#999999" stroke="#666666" points="863.75,-112 728.5,-112 728.5,-68 863.75,-68 863.75,-112"/>
<text text-anchor="start" x="736.5" y="-98.5" font-family="Helvetica,sans-Serif" font-size="10.00">src/main/java/fr/softsf</text>
<text text-anchor="start" x="736.5" y="-86.5" font-family="Helvetica,sans-Serif" font-size="10.00">/sudokufx/service/business</text>
<text text-anchor="middle" x="796.12" y="-74.5" font-family="Helvetica,sans-Serif" font-size="10.00">/PlayerService.java</text>
</a>
</g>
</g>
<!-- Node2 -->
<g id="Node000002" class="node">
<title>Node2</title>
<g id="a_Node000002"><a xlink:title=" ">
<polygon fill="#e0e0e0" stroke="#999999" points="156.25,-32 0,-32 0,0 156.25,0 156.25,-32"/>
<text text-anchor="start" x="8" y="-18.5" font-family="Helvetica,sans-Serif" font-size="10.00">org.springframework.stereotype.</text>
<text text-anchor="middle" x="78.12" y="-6.5" font-family="Helvetica,sans-Serif" font-size="10.00">Service</text>
</a>
</g>
</g>
<!-- Node1&#45;&gt;Node2 -->
<g id="edge1_Node000001_Node000002" class="edge">
<title>Node1&#45;&gt;Node2</title>
<g id="a_edge1_Node000001_Node000002"><a xlink:title=" ">
<path fill="none" stroke="#63b8ff" d="M728.23,-84.67C614.44,-77.02 377.85,-59.42 167.59,-32.26"/>
<polygon fill="#63b8ff" stroke="#63b8ff" points="168.2,-28.81 157.84,-30.99 167.3,-35.75 168.2,-28.81"/>
</a>
</g>
</g>
<!-- Node3 -->
<g id="Node000003" class="node">
<title>Node3</title>
<g id="a_Node000003"><a xlink:title=" ">
<polygon fill="#e0e0e0" stroke="#999999" points="380.38,-32 173.88,-32 173.88,0 380.38,0 380.38,-32"/>
<text text-anchor="start" x="181.88" y="-18.5" font-family="Helvetica,sans-Serif" font-size="10.00">org.springframework.transaction.annotation.</text>
<text text-anchor="middle" x="277.12" y="-6.5" font-family="Helvetica,sans-Serif" font-size="10.00">Transactional</text>
</a>
</g>
</g>
<!-- Node1&#45;&gt;Node3 -->
<g id="edge2_Node000001_Node000003" class="edge">
<title>Node1&#45;&gt;Node3</title>
<g id="a_edge2_Node000001_Node000003"><a xlink:title=" ">
<path fill="none" stroke="#63b8ff" d="M728.01,-79.55C642.65,-67.71 495.1,-47.24 392.12,-32.95"/>
<polygon fill="#63b8ff" stroke="#63b8ff" points="392.62,-29.49 382.23,-31.58 391.65,-36.42 392.62,-29.49"/>
</a>
</g>
</g>
<!-- Node4 -->
<g id="Node000004" class="node">
<title>Node4</title>
<g id="a_Node000004"><a xlink:title=" ">
<polygon fill="#e0e0e0" stroke="#999999" points="579.62,-32 398.62,-32 398.62,0 579.62,0 579.62,-32"/>
<text text-anchor="start" x="406.62" y="-18.5" font-family="Helvetica,sans-Serif" font-size="10.00">fr.softsf.sudokufx.common.exception.</text>
<text text-anchor="middle" x="489.12" y="-6.5" font-family="Helvetica,sans-Serif" font-size="10.00">ExceptionTools</text>
</a>
</g>
</g>
<!-- Node1&#45;&gt;Node4 -->
<g id="edge3_Node000001_Node000004" class="edge">
<title>Node1&#45;&gt;Node4</title>
<g id="a_edge3_Node000001_Node000004"><a xlink:title=" ">
<path fill="none" stroke="#63b8ff" d="M728.37,-73.11C680.44,-61.87 616.07,-46.77 566.18,-35.07"/>
<polygon fill="#63b8ff" stroke="#63b8ff" points="567.13,-31.7 556.6,-32.82 565.53,-38.51 567.13,-31.7"/>
</a>
</g>
</g>
<!-- Node5 -->
<g id="Node000005" class="node">
<title>Node5</title>
<g id="a_Node000005"><a xlink:title=" ">
<polygon fill="#e0e0e0" stroke="#999999" points="778.62,-32 597.62,-32 597.62,0 778.62,0 778.62,-32"/>
<text text-anchor="start" x="605.62" y="-18.5" font-family="Helvetica,sans-Serif" font-size="10.00">fr.softsf.sudokufx.common.exception.</text>
<text text-anchor="middle" x="688.12" y="-6.5" font-family="Helvetica,sans-Serif" font-size="10.00">JakartaValidator</text>
</a>
</g>
</g>
<!-- Node1&#45;&gt;Node5 -->
<g id="edge4_Node000001_Node000005" class="edge">
<title>Node1&#45;&gt;Node5</title>
<g id="a_edge4_Node000001_Node000005"><a xlink:title=" ">
<path fill="none" stroke="#63b8ff" d="M764.01,-67.59C750.4,-58.52 734.56,-47.96 720.88,-38.84"/>
<polygon fill="#63b8ff" stroke="#63b8ff" points="722.89,-35.97 712.63,-33.34 719.01,-41.79 722.89,-35.97"/>
</a>
</g>
</g>
<!-- Node6 -->
<g id="Node000006" class="node">
<title>Node6</title>
<g id="a_Node000006"><a xlink:title=" ">
<polygon fill="#e0e0e0" stroke="#999999" points="1013.62,-32 796.62,-32 796.62,0 1013.62,0 1013.62,-32"/>
<text text-anchor="start" x="804.62" y="-18.5" font-family="Helvetica,sans-Serif" font-size="10.00">fr.softsf.sudokufx.common.interfaces.mapper.</text>
<text text-anchor="middle" x="905.12" y="-6.5" font-family="Helvetica,sans-Serif" font-size="10.00">IPlayerMapper</text>
</a>
</g>
</g>
<!-- Node1&#45;&gt;Node6 -->
<g id="edge5_Node000001_Node000006" class="edge">
<title>Node1&#45;&gt;Node6</title>
<g id="a_edge5_Node000001_Node000006"><a xlink:title=" ">
<path fill="none" stroke="#63b8ff" d="M828.53,-67.59C842.27,-58.52 858.26,-47.96 872.06,-38.84"/>
<polygon fill="#63b8ff" stroke="#63b8ff" points="873.99,-41.76 880.4,-33.33 870.13,-35.92 873.99,-41.76"/>
</a>
</g>
</g>
<!-- Node7 -->
<g id="Node000007" class="node">
<title>Node7</title>
<g id="a_Node000007"><a xlink:title=" ">
<polygon fill="#e0e0e0" stroke="#999999" points="1186.88,-26 1031.38,-26 1031.38,-6 1186.88,-6 1186.88,-26"/>
<text text-anchor="middle" x="1109.12" y="-12.5" font-family="Helvetica,sans-Serif" font-size="10.00">fr.softsf.sudokufx.dto.PlayerDto</text>
</a>
</g>
</g>
<!-- Node1&#45;&gt;Node7 -->
<g id="edge6_Node000001_Node000007" class="edge">
<title>Node1&#45;&gt;Node7</title>
<g id="a_edge6_Node000001_Node000007"><a xlink:title=" ">
<path fill="none" stroke="#63b8ff" d="M864.04,-73.38C922,-60.05 1004.12,-41.15 1057.01,-28.99"/>
<polygon fill="#63b8ff" stroke="#63b8ff" points="1057.72,-32.42 1066.69,-26.76 1056.16,-25.59 1057.72,-32.42"/>
</a>
</g>
</g>
<!-- Node8 -->
<g id="Node000008" class="node">
<title>Node8</title>
<g id="a_Node000008"><a xlink:title=" ">
<polygon fill="#e0e0e0" stroke="#999999" points="1345.38,-32 1204.88,-32 1204.88,0 1345.38,0 1345.38,-32"/>
<text text-anchor="start" x="1212.88" y="-18.5" font-family="Helvetica,sans-Serif" font-size="10.00">fr.softsf.sudokufx.repository.</text>
<text text-anchor="middle" x="1275.12" y="-6.5" font-family="Helvetica,sans-Serif" font-size="10.00">PlayerRepository</text>
</a>
</g>
</g>
<!-- Node1&#45;&gt;Node8 -->
<g id="edge7_Node000001_Node000008" class="edge">
<title>Node1&#45;&gt;Node8</title>
<g id="a_edge7_Node000001_Node000008"><a xlink:title=" ">
<path fill="none" stroke="#63b8ff" d="M864.22,-80.27C941.52,-70.14 1071.69,-52.42 1193.17,-32.45"/>
<polygon fill="#63b8ff" stroke="#63b8ff" points="1193.73,-35.91 1203.03,-30.82 1192.59,-29 1193.73,-35.91"/>
</a>
</g>
</g>
<!-- Node9 -->
<g id="Node000009" class="node">
<title>Node9</title>
<g id="a_Node000009"><a xlink:title=" ">
<polygon fill="#e0e0e0" stroke="#999999" points="1500.88,-32 1363.38,-32 1363.38,0 1500.88,0 1500.88,-32"/>
<text text-anchor="start" x="1371.38" y="-18.5" font-family="Helvetica,sans-Serif" font-size="10.00">jakarta.validation.Constraint</text>
<text text-anchor="middle" x="1432.12" y="-6.5" font-family="Helvetica,sans-Serif" font-size="10.00">ViolationException</text>
</a>
</g>
</g>
<!-- Node1&#45;&gt;Node9 -->
<g id="edge8_Node000001_Node000009" class="edge">
<title>Node1&#45;&gt;Node9</title>
<g id="a_edge8_Node000001_Node000009"><a xlink:title=" ">
<path fill="none" stroke="#63b8ff" d="M864.22,-83.99C967.47,-75.97 1169.98,-58.55 1352.14,-32.21"/>
<polygon fill="#63b8ff" stroke="#63b8ff" points="1352.39,-35.71 1361.78,-30.8 1351.38,-28.78 1352.39,-35.71"/>
</a>
</g>
</g>
</g>
</svg>
