<?xml version="1.0" encoding="UTF-8" standalone="no"?>
<!DOCTYPE svg PUBLIC "-//W3C//DTD SVG 1.1//EN"
 "http://www.w3.org/Graphics/SVG/1.1/DTD/svg11.dtd">
<!-- Generated by graphviz version 12.2.1 (20241206.2353)
 -->
<!-- Title: src/main/java/fr/softsf/sudokufx/model/Player.java Pages: 1 -->
<!--zoomable 108 -->

<svg id="main" version="1.1" xmlns="http://www.w3.org/2000/svg" xmlns:xlink="http://www.w3.org/1999/xlink" xml:space="preserve" onload="init(evt)">

<style type="text/css"><![CDATA[
.node, .edge {opacity: 0.7;}
.node.selected, .edge.selected {opacity: 1;}
.edge:hover path { stroke: red; }
.edge:hover polygon { stroke: red; fill: red; }
]]></style>

<defs>
  <circle id="rim" cx="0" cy="0" r="7"/>
  <circle id="rim2" cx="0" cy="0" r="3.5"/>
  <g id="zoomPlus">
    <use xlink:href="#rim" fill="#404040"><set attributeName="fill" to="#808080" begin="zoomplus.mouseover" end="zoomplus.mouseout"/></use>
    <path d="M-4,0h8M0,-4v8" fill="none" stroke="white" stroke-width="1.5" pointer-events="none"/>
  </g>
  <g id="zoomMin">
    <use xlink:href="#rim" fill="#404040"><set attributeName="fill" to="#808080" begin="zoomminus.mouseover" end="zoomminus.mouseout"/></use>
    <path d="M-4,0h8" fill="none" stroke="white" stroke-width="1.5" pointer-events="none"/>
  </g>
  <g id="arrowUp" transform="translate(30 24)">
    <use xlink:href="#rim"/>
    <path pointer-events="none" fill="none" stroke="white" stroke-width="1.5" d="M0,-3.0v7 M-2.5,-0.5L0,-3.0L2.5,-0.5"/>
  </g>
  <g id="arrowRight" transform="rotate(90) translate(36 -43)">
    <use xlink:href="#rim"/>
    <path pointer-events="none" fill="none" stroke="white" stroke-width="1.5" d="M0,-3.0v7 M-2.5,-0.5L0,-3.0L2.5,-0.5"/>
  </g>
  <g id="arrowDown" transform="rotate(180) translate(-30 -48)">
    <use xlink:href="#rim"/>
    <path pointer-events="none" fill="none" stroke="white" stroke-width="1.5" d="M0,-3.0v7 M-2.5,-0.5L0,-3.0L2.5,-0.5"/>
  </g>
  <g id="arrowLeft" transform="rotate(270) translate(-36 17)">
    <use xlink:href="#rim"/>
    <path pointer-events="none" fill="none" stroke="white" stroke-width="1.5" d="M0,-3.0v7 M-2.5,-0.5L0,-3.0L2.5,-0.5"/>
  </g>
  <g id="resetDef">
    <use xlink:href="#rim2" fill="#404040"><set attributeName="fill" to="#808080" begin="reset.mouseover" end="reset.mouseout"/></use>
  </g>
</defs>
<script type="application/ecmascript">
var viewWidth = 2827;
var viewHeight = 108;
var sectionId = 'dynsection-0';
</script>
<script type="application/ecmascript" xlink:href="svg.min.js"/>
<svg id="graph" class="graph">
<g id="viewport">
<title>src/main/java/fr/softsf/sudokufx/model/Player.java</title>
<!-- Node1 -->
<g id="Node000001" class="node">
<title>Node1</title>
<g id="a_Node000001"><a xlink:title=" ">
<polygon fill="#999999" stroke="#666666" points="1395.25,-100 1255.5,-100 1255.5,-68 1395.25,-68 1395.25,-100"/>
<text text-anchor="start" x="1263.5" y="-86.5" font-family="Helvetica,sans-Serif" font-size="10.00">src/main/java/fr/softsf</text>
<text text-anchor="middle" x="1325.38" y="-74.5" font-family="Helvetica,sans-Serif" font-size="10.00">/sudokufx/model/Player.java</text>
</a>
</g>
</g>
<!-- Node2 -->
<g id="Node000002" class="node">
<title>Node2</title>
<g id="a_Node000002"><a xlink:title=" ">
<polygon fill="#e0e0e0" stroke="#999999" points="124.75,-26 0,-26 0,-6 124.75,-6 124.75,-26"/>
<text text-anchor="middle" x="62.38" y="-12.5" font-family="Helvetica,sans-Serif" font-size="10.00">java.time.LocalDateTime</text>
</a>
</g>
</g>
<!-- Node1&#45;&gt;Node2 -->
<g id="edge1_Node000001_Node000002" class="edge">
<title>Node1&#45;&gt;Node2</title>
<g id="a_edge1_Node000001_Node000002"><a xlink:title=" ">
<path fill="none" stroke="#63b8ff" d="M1255.09,-81.52C1033.69,-76.62 352.49,-59.64 133.38,-32 126.65,-31.15 119.61,-30 112.69,-28.7"/>
<polygon fill="#63b8ff" stroke="#63b8ff" points="113.59,-25.31 103.1,-26.79 112.22,-32.18 113.59,-25.31"/>
</a>
</g>
</g>
<!-- Node3 -->
<g id="Node000003" class="node">
<title>Node3</title>
<g id="a_Node000003"><a xlink:title=" ">
<polygon fill="#e0e0e0" stroke="#999999" points="262.12,-26 142.62,-26 142.62,-6 262.12,-6 262.12,-26"/>
<text text-anchor="middle" x="202.38" y="-12.5" font-family="Helvetica,sans-Serif" font-size="10.00">java.util.LinkedHashSet</text>
</a>
</g>
</g>
<!-- Node1&#45;&gt;Node3 -->
<g id="edge2_Node000001_Node000003" class="edge">
<title>Node1&#45;&gt;Node3</title>
<g id="a_edge2_Node000001_Node000003"><a xlink:title=" ">
<path fill="none" stroke="#63b8ff" d="M1255.02,-83.61C1085.14,-84.2 639.39,-80.56 271.38,-32 264.91,-31.15 258.16,-30 251.51,-28.72"/>
<polygon fill="#63b8ff" stroke="#63b8ff" points="252.48,-25.35 241.98,-26.77 251.08,-32.21 252.48,-25.35"/>
</a>
</g>
</g>
<!-- Node4 -->
<g id="Node000004" class="node">
<title>Node4</title>
<g id="a_Node000004"><a xlink:title=" ">
<polygon fill="#e0e0e0" stroke="#999999" points="348.25,-26 280.5,-26 280.5,-6 348.25,-6 348.25,-26"/>
<text text-anchor="middle" x="314.38" y="-12.5" font-family="Helvetica,sans-Serif" font-size="10.00">java.util.Set</text>
</a>
</g>
</g>
<!-- Node1&#45;&gt;Node4 -->
<g id="edge3_Node000001_Node000004" class="edge">
<title>Node1&#45;&gt;Node4</title>
<g id="a_edge3_Node000001_Node000004"><a xlink:title=" ">
<path fill="none" stroke="#63b8ff" d="M1255.2,-81.87C1062.72,-78.38 529.42,-65.83 357.38,-32 354.42,-31.42 351.4,-30.68 348.39,-29.84"/>
<polygon fill="#63b8ff" stroke="#63b8ff" points="349.73,-26.6 339.14,-26.93 347.63,-33.27 349.73,-26.6"/>
</a>
</g>
</g>
<!-- Node5 -->
<g id="Node000005" class="node">
<title>Node5</title>
<g id="a_Node000005"><a xlink:title=" ">
<polygon fill="#e0e0e0" stroke="#999999" points="494.62,-32 366.12,-32 366.12,0 494.62,0 494.62,-32"/>
<text text-anchor="start" x="374.12" y="-18.5" font-family="Helvetica,sans-Serif" font-size="10.00">org.hibernate.annotations.</text>
<text text-anchor="middle" x="430.38" y="-6.5" font-family="Helvetica,sans-Serif" font-size="10.00">Cascade</text>
</a>
</g>
</g>
<!-- Node1&#45;&gt;Node5 -->
<g id="edge4_Node000001_Node000005" class="edge">
<title>Node1&#45;&gt;Node5</title>
<g id="a_edge4_Node000001_Node000005"><a xlink:title=" ">
<path fill="none" stroke="#63b8ff" d="M1255.05,-81.9C1114.61,-78.98 789.37,-68.68 506.19,-32.1"/>
<polygon fill="#63b8ff" stroke="#63b8ff" points="506.73,-28.64 496.36,-30.81 505.82,-35.58 506.73,-28.64"/>
</a>
</g>
</g>
<!-- Node6 -->
<g id="Node000006" class="node">
<title>Node6</title>
<g id="a_Node000006"><a xlink:title=" ">
<polygon fill="#e0e0e0" stroke="#999999" points="641.62,-32 513.12,-32 513.12,0 641.62,0 641.62,-32"/>
<text text-anchor="start" x="521.12" y="-18.5" font-family="Helvetica,sans-Serif" font-size="10.00">org.hibernate.annotations.</text>
<text text-anchor="middle" x="577.38" y="-6.5" font-family="Helvetica,sans-Serif" font-size="10.00">CascadeType</text>
</a>
</g>
</g>
<!-- Node1&#45;&gt;Node6 -->
<g id="edge5_Node000001_Node000006" class="edge">
<title>Node1&#45;&gt;Node6</title>
<g id="a_edge5_Node000001_Node000006"><a xlink:title=" ">
<path fill="none" stroke="#63b8ff" d="M1255.21,-80.57C1134.33,-75.75 878.88,-62.8 652.94,-32.09"/>
<polygon fill="#63b8ff" stroke="#63b8ff" points="653.75,-28.67 643.37,-30.77 652.8,-35.6 653.75,-28.67"/>
</a>
</g>
</g>
<!-- Node7 -->
<g id="Node000007" class="node">
<title>Node7</title>
<g id="a_Node000007"><a xlink:title=" ">
<polygon fill="#e0e0e0" stroke="#999999" points="788.62,-32 660.12,-32 660.12,0 788.62,0 788.62,-32"/>
<text text-anchor="start" x="668.12" y="-18.5" font-family="Helvetica,sans-Serif" font-size="10.00">org.hibernate.annotations.</text>
<text text-anchor="middle" x="724.38" y="-6.5" font-family="Helvetica,sans-Serif" font-size="10.00">Fetch</text>
</a>
</g>
</g>
<!-- Node1&#45;&gt;Node7 -->
<g id="edge6_Node000001_Node000007" class="edge">
<title>Node1&#45;&gt;Node7</title>
<g id="a_edge6_Node000001_Node000007"><a xlink:title=" ">
<path fill="none" stroke="#63b8ff" d="M1255.19,-78.53C1156.15,-71.71 969.54,-56.97 800.26,-32.17"/>
<polygon fill="#63b8ff" stroke="#63b8ff" points="800.78,-28.71 790.38,-30.71 799.76,-35.63 800.78,-28.71"/>
</a>
</g>
</g>
<!-- Node8 -->
<g id="Node000008" class="node">
<title>Node8</title>
<g id="a_Node000008"><a xlink:title=" ">
<polygon fill="#e0e0e0" stroke="#999999" points="935.62,-32 807.12,-32 807.12,0 935.62,0 935.62,-32"/>
<text text-anchor="start" x="815.12" y="-18.5" font-family="Helvetica,sans-Serif" font-size="10.00">org.hibernate.annotations.</text>
<text text-anchor="middle" x="871.38" y="-6.5" font-family="Helvetica,sans-Serif" font-size="10.00">FetchMode</text>
</a>
</g>
</g>
<!-- Node1&#45;&gt;Node8 -->
<g id="edge7_Node000001_Node000008" class="edge">
<title>Node1&#45;&gt;Node8</title>
<g id="a_edge7_Node000001_Node000008"><a xlink:title=" ">
<path fill="none" stroke="#63b8ff" d="M1255.28,-75.1C1181.15,-66.41 1060.53,-51.33 947.12,-32.4"/>
<polygon fill="#63b8ff" stroke="#63b8ff" points="947.75,-28.96 937.31,-30.75 946.59,-35.86 947.75,-28.96"/>
</a>
</g>
</g>
<!-- Node9 -->
<g id="Node000009" class="node">
<title>Node9</title>
<g id="a_Node000009"><a xlink:title=" ">
<polygon fill="#e0e0e0" stroke="#999999" points="1089,-26 953.75,-26 953.75,-6 1089,-6 1089,-26"/>
<text text-anchor="middle" x="1021.38" y="-12.5" font-family="Helvetica,sans-Serif" font-size="10.00">jakarta.persistence.Column</text>
</a>
</g>
</g>
<!-- Node1&#45;&gt;Node9 -->
<g id="edge8_Node000001_Node000009" class="edge">
<title>Node1&#45;&gt;Node9</title>
<g id="a_edge8_Node000001_Node000009"><a xlink:title=" ">
<path fill="none" stroke="#63b8ff" d="M1255.25,-67.78C1200.64,-55.92 1125.93,-39.7 1075.78,-28.81"/>
<polygon fill="#63b8ff" stroke="#63b8ff" points="1076.83,-25.46 1066.32,-26.76 1075.35,-32.3 1076.83,-25.46"/>
</a>
</g>
</g>
<!-- Node10 -->
<g id="Node000010" class="node">
<title>Node10</title>
<g id="a_Node000010"><a xlink:title=" ">
<polygon fill="#e0e0e0" stroke="#999999" points="1233.88,-26 1106.88,-26 1106.88,-6 1233.88,-6 1233.88,-26"/>
<text text-anchor="middle" x="1170.38" y="-12.5" font-family="Helvetica,sans-Serif" font-size="10.00">jakarta.persistence.Entity</text>
</a>
</g>
</g>
<!-- Node1&#45;&gt;Node10 -->
<g id="edge9_Node000001_Node000010" class="edge">
<title>Node1&#45;&gt;Node10</title>
<g id="a_edge9_Node000001_Node000010"><a xlink:title=" ">
<path fill="none" stroke="#63b8ff" d="M1289.03,-67.53C1263,-56.44 1228.24,-41.64 1203.07,-30.92"/>
<polygon fill="#63b8ff" stroke="#63b8ff" points="1204.56,-27.75 1193.98,-27.05 1201.81,-34.19 1204.56,-27.75"/>
</a>
</g>
</g>
<!-- Node11 -->
<g id="Node000011" class="node">
<title>Node11</title>
<g id="a_Node000011"><a xlink:title=" ">
<polygon fill="#e0e0e0" stroke="#999999" points="1398.62,-32 1252.12,-32 1252.12,0 1398.62,0 1398.62,-32"/>
<text text-anchor="start" x="1260.12" y="-18.5" font-family="Helvetica,sans-Serif" font-size="10.00">jakarta.persistence.Generated</text>
<text text-anchor="middle" x="1325.38" y="-6.5" font-family="Helvetica,sans-Serif" font-size="10.00">Value</text>
</a>
</g>
</g>
<!-- Node1&#45;&gt;Node11 -->
<g id="edge10_Node000001_Node000011" class="edge">
<title>Node1&#45;&gt;Node11</title>
<g id="a_edge10_Node000001_Node000011"><a xlink:title=" ">
<path fill="none" stroke="#63b8ff" d="M1325.38,-67.69C1325.38,-60.53 1325.38,-51.79 1325.38,-43.59"/>
<polygon fill="#63b8ff" stroke="#63b8ff" points="1328.88,-43.74 1325.38,-33.74 1321.88,-43.74 1328.88,-43.74"/>
</a>
</g>
</g>
<!-- Node12 -->
<g id="Node000012" class="node">
<title>Node12</title>
<g id="a_Node000012"><a xlink:title=" ">
<polygon fill="#e0e0e0" stroke="#999999" points="1586.25,-26 1416.5,-26 1416.5,-6 1586.25,-6 1586.25,-26"/>
<text text-anchor="middle" x="1501.38" y="-12.5" font-family="Helvetica,sans-Serif" font-size="10.00">jakarta.persistence.GenerationType</text>
</a>
</g>
</g>
<!-- Node1&#45;&gt;Node12 -->
<g id="edge11_Node000001_Node000012" class="edge">
<title>Node1&#45;&gt;Node12</title>
<g id="a_edge11_Node000001_Node000012"><a xlink:title=" ">
<path fill="none" stroke="#63b8ff" d="M1366.64,-67.53C1396.6,-56.29 1436.74,-41.24 1465.39,-30.49"/>
<polygon fill="#63b8ff" stroke="#63b8ff" points="1466.6,-33.78 1474.73,-26.99 1464.14,-27.23 1466.6,-33.78"/>
</a>
</g>
</g>
<!-- Node13 -->
<g id="Node000013" class="node">
<title>Node13</title>
<g id="a_Node000013"><a xlink:title=" ">
<polygon fill="#e0e0e0" stroke="#999999" points="1714.25,-26 1604.5,-26 1604.5,-6 1714.25,-6 1714.25,-26"/>
<text text-anchor="middle" x="1659.38" y="-12.5" font-family="Helvetica,sans-Serif" font-size="10.00">jakarta.persistence.Id</text>
</a>
</g>
</g>
<!-- Node1&#45;&gt;Node13 -->
<g id="edge12_Node000001_Node000013" class="edge">
<title>Node1&#45;&gt;Node13</title>
<g id="a_edge12_Node000001_Node000013"><a xlink:title=" ">
<path fill="none" stroke="#63b8ff" d="M1395.47,-70.62C1450.07,-60.78 1527.7,-46.31 1595.38,-32 1599.9,-31.04 1604.59,-30.01 1609.29,-28.96"/>
<polygon fill="#63b8ff" stroke="#63b8ff" points="1609.73,-32.45 1618.7,-26.81 1608.17,-25.62 1609.73,-32.45"/>
</a>
</g>
</g>
<!-- Node14 -->
<g id="Node000014" class="node">
<title>Node14</title>
<g id="a_Node000014"><a xlink:title=" ">
<polygon fill="#e0e0e0" stroke="#999999" points="1852.12,-32 1732.62,-32 1732.62,0 1852.12,0 1852.12,-32"/>
<text text-anchor="start" x="1740.62" y="-18.5" font-family="Helvetica,sans-Serif" font-size="10.00">jakarta.persistence.Join</text>
<text text-anchor="middle" x="1792.38" y="-6.5" font-family="Helvetica,sans-Serif" font-size="10.00">Column</text>
</a>
</g>
</g>
<!-- Node1&#45;&gt;Node14 -->
<g id="edge13_Node000001_Node000014" class="edge">
<title>Node1&#45;&gt;Node14</title>
<g id="a_edge13_Node000001_Node000014"><a xlink:title=" ">
<path fill="none" stroke="#63b8ff" d="M1395.75,-75.85C1473.08,-67.57 1601.2,-52.62 1721.03,-32.31"/>
<polygon fill="#63b8ff" stroke="#63b8ff" points="1721.47,-35.79 1730.73,-30.65 1720.29,-28.89 1721.47,-35.79"/>
</a>
</g>
</g>
<!-- Node15 -->
<g id="Node000015" class="node">
<title>Node15</title>
<g id="a_Node000015"><a xlink:title=" ">
<polygon fill="#e0e0e0" stroke="#999999" points="1996.12,-32 1870.62,-32 1870.62,0 1996.12,0 1996.12,-32"/>
<text text-anchor="start" x="1878.62" y="-18.5" font-family="Helvetica,sans-Serif" font-size="10.00">jakarta.persistence.Many</text>
<text text-anchor="middle" x="1933.38" y="-6.5" font-family="Helvetica,sans-Serif" font-size="10.00">ToOne</text>
</a>
</g>
</g>
<!-- Node1&#45;&gt;Node15 -->
<g id="edge14_Node000001_Node000015" class="edge">
<title>Node1&#45;&gt;Node15</title>
<g id="a_edge14_Node000001_Node000015"><a xlink:title=" ">
<path fill="none" stroke="#63b8ff" d="M1395.49,-78.81C1495.95,-72.26 1686.82,-57.77 1858.92,-32.26"/>
<polygon fill="#63b8ff" stroke="#63b8ff" points="1859.36,-35.74 1868.73,-30.79 1858.32,-28.81 1859.36,-35.74"/>
</a>
</g>
</g>
<!-- Node16 -->
<g id="Node000016" class="node">
<title>Node16</title>
<g id="a_Node000016"><a xlink:title=" ">
<polygon fill="#e0e0e0" stroke="#999999" points="2168.38,-26 2014.38,-26 2014.38,-6 2168.38,-6 2168.38,-26"/>
<text text-anchor="middle" x="2091.38" y="-12.5" font-family="Helvetica,sans-Serif" font-size="10.00">jakarta.persistence.OneToMany</text>
</a>
</g>
</g>
<!-- Node1&#45;&gt;Node16 -->
<g id="edge15_Node000001_Node000016" class="edge">
<title>Node1&#45;&gt;Node16</title>
<g id="a_edge15_Node000001_Node000016"><a xlink:title=" ">
<path fill="none" stroke="#63b8ff" d="M1395.59,-80C1519.21,-74.22 1783.63,-59.59 2005.38,-32 2013.64,-30.97 2022.31,-29.69 2030.84,-28.32"/>
<polygon fill="#63b8ff" stroke="#63b8ff" points="2031.15,-31.82 2040.44,-26.73 2030,-24.92 2031.15,-31.82"/>
</a>
</g>
</g>
<!-- Node17 -->
<g id="Node000017" class="node">
<title>Node17</title>
<g id="a_Node000017"><a xlink:title=" ">
<polygon fill="#e0e0e0" stroke="#999999" points="2334.38,-26 2186.38,-26 2186.38,-6 2334.38,-6 2334.38,-26"/>
<text text-anchor="middle" x="2260.38" y="-12.5" font-family="Helvetica,sans-Serif" font-size="10.00">jakarta.persistence.OneToOne</text>
</a>
</g>
</g>
<!-- Node1&#45;&gt;Node17 -->
<g id="edge16_Node000001_Node000017" class="edge">
<title>Node1&#45;&gt;Node17</title>
<g id="a_edge16_Node000001_Node000017"><a xlink:title=" ">
<path fill="none" stroke="#63b8ff" d="M1395.48,-81.62C1541.45,-78.14 1888.45,-66.63 2177.38,-32 2185.47,-31.03 2193.97,-29.77 2202.32,-28.4"/>
<polygon fill="#63b8ff" stroke="#63b8ff" points="2202.8,-31.87 2212.06,-26.72 2201.61,-24.97 2202.8,-31.87"/>
</a>
</g>
</g>
<!-- Node18 -->
<g id="Node000018" class="node">
<title>Node18</title>
<g id="a_Node000018"><a xlink:title=" ">
<polygon fill="#e0e0e0" stroke="#999999" points="2476.75,-26 2352,-26 2352,-6 2476.75,-6 2476.75,-26"/>
<text text-anchor="middle" x="2414.38" y="-12.5" font-family="Helvetica,sans-Serif" font-size="10.00">jakarta.persistence.Table</text>
</a>
</g>
</g>
<!-- Node1&#45;&gt;Node18 -->
<g id="edge17_Node000001_Node000018" class="edge">
<title>Node1&#45;&gt;Node18</title>
<g id="a_edge17_Node000001_Node000018"><a xlink:title=" ">
<path fill="none" stroke="#63b8ff" d="M1395.45,-83.29C1561.06,-83.16 1989.34,-77.97 2343.38,-32 2350.1,-31.13 2357.13,-29.96 2364.05,-28.66"/>
<polygon fill="#63b8ff" stroke="#63b8ff" points="2364.53,-32.13 2373.65,-26.74 2363.16,-25.27 2364.53,-32.13"/>
</a>
</g>
</g>
<!-- Node19 -->
<g id="Node000019" class="node">
<title>Node19</title>
<g id="a_Node000019"><a xlink:title=" ">
<polygon fill="#e0e0e0" stroke="#999999" points="2638.12,-32 2494.62,-32 2494.62,0 2638.12,0 2638.12,-32"/>
<text text-anchor="start" x="2502.62" y="-18.5" font-family="Helvetica,sans-Serif" font-size="10.00">jakarta.validation.constraints.</text>
<text text-anchor="middle" x="2566.38" y="-6.5" font-family="Helvetica,sans-Serif" font-size="10.00">NotNull</text>
</a>
</g>
</g>
<!-- Node1&#45;&gt;Node19 -->
<g id="edge18_Node000001_Node000019" class="edge">
<title>Node1&#45;&gt;Node19</title>
<g id="a_edge18_Node000001_Node000019"><a xlink:title=" ">
<path fill="none" stroke="#63b8ff" d="M1395.6,-83.31C1575.08,-83.37 2065.32,-78.95 2483.06,-32.14"/>
<polygon fill="#63b8ff" stroke="#63b8ff" points="2483.42,-35.63 2492.96,-31.02 2482.63,-28.67 2483.42,-35.63"/>
</a>
</g>
</g>
<!-- Node20 -->
<g id="Node000020" class="node">
<title>Node20</title>
<g id="a_Node000020"><a xlink:title=" ">
<polygon fill="#e0e0e0" stroke="#999999" points="2818.88,-26 2655.88,-26 2655.88,-6 2818.88,-6 2818.88,-26"/>
<text text-anchor="middle" x="2737.38" y="-12.5" font-family="Helvetica,sans-Serif" font-size="10.00">jakarta.validation.constraints.Size</text>
</a>
</g>
</g>
<!-- Node1&#45;&gt;Node20 -->
<g id="edge19_Node000001_Node000020" class="edge">
<title>Node1&#45;&gt;Node20</title>
<g id="a_edge19_Node000001_Node000020"><a xlink:title=" ">
<path fill="none" stroke="#63b8ff" d="M1395.46,-83.41C1592.96,-83.9 2170.68,-80.72 2647.38,-32 2656.78,-31.04 2666.68,-29.71 2676.35,-28.24"/>
<polygon fill="#63b8ff" stroke="#63b8ff" points="2676.72,-31.73 2686.05,-26.7 2675.62,-24.81 2676.72,-31.73"/>
</a>
</g>
</g>
</g>
</svg>

<g id="navigator" transform="translate(0 0)" fill="#404254">
  <rect fill="#f2f5e9" fill-opacity="0.5" stroke="#606060" stroke-width=".5" x="0" y="0" width="60" height="60"/>
  <use id="zoomplus" xlink:href="#zoomPlus" x="17" y="9" onmousedown="handleZoom(evt,'in')"/>
  <use id="zoomminus" xlink:href="#zoomMin" x="42" y="9" onmousedown="handleZoom(evt,'out')"/>
  <use id="reset" xlink:href="#resetDef" x="30" y="36" onmousedown="handleReset()"/>
   <use id="arrowup" xlink:href="#arrowUp" x="0" y="0" onmousedown="handlePan(0,-1)"/>
  <use id="arrowright" xlink:href="#arrowRight" x="0" y="0" onmousedown="handlePan(1,0)"/>
  <use id="arrowdown" xlink:href="#arrowDown" x="0" y="0" onmousedown="handlePan(0,1)"/>
  <use id="arrowleft" xlink:href="#arrowLeft" x="0" y="0" onmousedown="handlePan(-1,0)"/>
</g>
<svg viewBox="0 0 15 15" width="100%" height="30px" preserveAspectRatio="xMaxYMin meet">
 <g id="arrow_out" transform="scale(0.3 0.3)">
  <a xlink:href="_player_8java__incl_org.svg" target="_base">
   <rect id="button" ry="5" rx="5" y="6" x="6" height="38" width="38"
        fill="#f2f5e9" fill-opacity="0.5" stroke="#606060" stroke-width="1.0"/>
   <path id="arrow"
     d="M 11.500037,31.436501 C 11.940474,20.09759 22.043105,11.32322 32.158766,21.979434 L 37.068811,17.246167 C 37.068811,17.246167 37.088388,32 37.088388,32 L 22.160133,31.978069 C 22.160133,31.978069 26.997745,27.140456 26.997745,27.140456 C 18.528582,18.264221 13.291696,25.230495 11.500037,31.436501 z"
     style="fill:#404040;"/>
  </a>
 </g>
</svg>

<style type='text/css'>
<![CDATA[
[data-mouse-over-selected='false'] { opacity: 0.7; }
[data-mouse-over-selected='true']  { opacity: 1.0; }
]]>
</style>
<script type="application/ecmascript"><![CDATA[
document.addEventListener('DOMContentLoaded', (event) => {
  highlightEdges();
  highlightAdjacentNodes();
});
]]></script>
</svg>
