<?xml version="1.0" encoding="UTF-8" standalone="no"?>
<!DOCTYPE svg PUBLIC "-//W3C//DTD SVG 1.1//EN"
 "http://www.w3.org/Graphics/SVG/1.1/DTD/svg11.dtd">
<!-- Generated by graphviz version 12.2.1 (20241206.2353)
 -->
<!-- Title: src/main/java/fr/softsf/sudokufx/config/database/SecretKeyEncryptionServiceAESGCM.java Pages: 1 -->
<svg width="1940pt" height="120pt"
 viewBox="0.00 0.00 1940.00 120.00" xmlns="http://www.w3.org/2000/svg" xmlns:xlink="http://www.w3.org/1999/xlink">
<g id="graph0" class="graph" transform="scale(1 1) rotate(0) translate(4 116)">
<title>src/main/java/fr/softsf/sudokufx/config/database/SecretKeyEncryptionServiceAESGCM.java</title>
<!-- Node1 -->
<g id="Node000001" class="node">
<title>Node1</title>
<g id="a_Node000001"><a xlink:title=" ">
<polygon fill="#999999" stroke="#666666" points="976.88,-112 768.12,-112 768.12,-68 976.88,-68 976.88,-112"/>
<text text-anchor="start" x="776.12" y="-98.5" font-family="Helvetica,sans-Serif" font-size="10.00">src/main/java/fr/softsf</text>
<text text-anchor="start" x="776.12" y="-86.5" font-family="Helvetica,sans-Serif" font-size="10.00">/sudokufx/config/database</text>
<text text-anchor="middle" x="872.5" y="-74.5" font-family="Helvetica,sans-Serif" font-size="10.00">/SecretKeyEncryptionServiceAESGCM.java</text>
</a>
</g>
</g>
<!-- Node2 -->
<g id="Node000002" class="node">
<title>Node2</title>
<g id="a_Node000002"><a xlink:title=" ">
<polygon fill="#e0e0e0" stroke="#999999" points="127,-32 0,-32 0,0 127,0 127,-32"/>
<text text-anchor="start" x="8" y="-18.5" font-family="Helvetica,sans-Serif" font-size="10.00">java.nio.charset.Standard</text>
<text text-anchor="middle" x="63.5" y="-6.5" font-family="Helvetica,sans-Serif" font-size="10.00">Charsets</text>
</a>
</g>
</g>
<!-- Node1&#45;&gt;Node2 -->
<g id="edge1_Node000001_Node000002" class="edge">
<title>Node1&#45;&gt;Node2</title>
<g id="a_edge1_Node000001_Node000002"><a xlink:title=" ">
<path fill="none" stroke="#63b8ff" d="M767.84,-85.03C627.03,-78.76 368.67,-64 138.41,-32.14"/>
<polygon fill="#63b8ff" stroke="#63b8ff" points="139.01,-28.69 128.62,-30.77 138.04,-35.62 139.01,-28.69"/>
</a>
</g>
</g>
<!-- Node3 -->
<g id="Node000003" class="node">
<title>Node3</title>
<g id="a_Node000003"><a xlink:title=" ">
<polygon fill="#e0e0e0" stroke="#999999" points="295.62,-32 145.38,-32 145.38,0 295.62,0 295.62,-32"/>
<text text-anchor="start" x="153.38" y="-18.5" font-family="Helvetica,sans-Serif" font-size="10.00">java.security.NoSuchAlgorithm</text>
<text text-anchor="middle" x="220.5" y="-6.5" font-family="Helvetica,sans-Serif" font-size="10.00">Exception</text>
</a>
</g>
</g>
<!-- Node1&#45;&gt;Node3 -->
<g id="edge2_Node000001_Node000003" class="edge">
<title>Node1&#45;&gt;Node3</title>
<g id="a_edge2_Node000001_Node000003"><a xlink:title=" ">
<path fill="none" stroke="#63b8ff" d="M767.79,-80.91C656.05,-71.73 473.65,-55.17 306.97,-32.28"/>
<polygon fill="#63b8ff" stroke="#63b8ff" points="307.9,-28.88 297.51,-30.97 306.94,-35.81 307.9,-28.88"/>
</a>
</g>
</g>
<!-- Node4 -->
<g id="Node000004" class="node">
<title>Node4</title>
<g id="a_Node000004"><a xlink:title=" ">
<polygon fill="#e0e0e0" stroke="#999999" points="455.12,-26 313.88,-26 313.88,-6 455.12,-6 455.12,-26"/>
<text text-anchor="middle" x="384.5" y="-12.5" font-family="Helvetica,sans-Serif" font-size="10.00">java.security.SecureRandom</text>
</a>
</g>
</g>
<!-- Node1&#45;&gt;Node4 -->
<g id="edge3_Node000001_Node000004" class="edge">
<title>Node1&#45;&gt;Node4</title>
<g id="a_edge3_Node000001_Node000004"><a xlink:title=" ">
<path fill="none" stroke="#63b8ff" d="M767.9,-75.75C685.36,-64.96 567.38,-48.82 464.5,-32 457.98,-30.93 451.17,-29.76 444.4,-28.54"/>
<polygon fill="#63b8ff" stroke="#63b8ff" points="445.04,-25.1 434.58,-26.76 443.79,-31.99 445.04,-25.1"/>
</a>
</g>
</g>
<!-- Node5 -->
<g id="Node000005" class="node">
<title>Node5</title>
<g id="a_Node000005"><a xlink:title=" ">
<polygon fill="#e0e0e0" stroke="#999999" points="559.38,-26 473.62,-26 473.62,-6 559.38,-6 559.38,-26"/>
<text text-anchor="middle" x="516.5" y="-12.5" font-family="Helvetica,sans-Serif" font-size="10.00">java.util.Base64</text>
</a>
</g>
</g>
<!-- Node1&#45;&gt;Node5 -->
<g id="edge4_Node000001_Node000005" class="edge">
<title>Node1&#45;&gt;Node5</title>
<g id="a_edge4_Node000001_Node000005"><a xlink:title=" ">
<path fill="none" stroke="#63b8ff" d="M767.86,-71.92C709,-61.68 634.33,-47.63 568.5,-32 565.18,-31.21 561.75,-30.34 558.32,-29.44"/>
<polygon fill="#63b8ff" stroke="#63b8ff" points="559.47,-26.13 548.9,-26.85 557.62,-32.88 559.47,-26.13"/>
</a>
</g>
</g>
<!-- Node6 -->
<g id="Node000006" class="node">
<title>Node6</title>
<g id="a_Node000006"><a xlink:title=" ">
<polygon fill="#e0e0e0" stroke="#999999" points="663.75,-26 577.25,-26 577.25,-6 663.75,-6 663.75,-26"/>
<text text-anchor="middle" x="620.5" y="-12.5" font-family="Helvetica,sans-Serif" font-size="10.00">java.util.Objects</text>
</a>
</g>
</g>
<!-- Node1&#45;&gt;Node6 -->
<g id="edge5_Node000001_Node000006" class="edge">
<title>Node1&#45;&gt;Node6</title>
<g id="a_edge5_Node000001_Node000006"><a xlink:title=" ">
<path fill="none" stroke="#63b8ff" d="M797.57,-67.59C754.18,-55.2 701.07,-40.02 664.39,-29.54"/>
<polygon fill="#63b8ff" stroke="#63b8ff" points="665.6,-26.25 655.02,-26.86 663.68,-32.98 665.6,-26.25"/>
</a>
</g>
</g>
<!-- Node7 -->
<g id="Node000007" class="node">
<title>Node7</title>
<g id="a_Node000007"><a xlink:title=" ">
<polygon fill="#e0e0e0" stroke="#999999" points="782.88,-26 682.12,-26 682.12,-6 782.88,-6 782.88,-26"/>
<text text-anchor="middle" x="732.5" y="-12.5" font-family="Helvetica,sans-Serif" font-size="10.00">javax.crypto.Cipher</text>
</a>
</g>
</g>
<!-- Node1&#45;&gt;Node7 -->
<g id="edge6_Node000001_Node000007" class="edge">
<title>Node1&#45;&gt;Node7</title>
<g id="a_edge6_Node000001_Node000007"><a xlink:title=" ">
<path fill="none" stroke="#63b8ff" d="M830.87,-67.59C808.33,-56 781.05,-41.97 760.95,-31.63"/>
<polygon fill="#63b8ff" stroke="#63b8ff" points="762.71,-28.6 752.22,-27.14 759.51,-34.83 762.71,-28.6"/>
</a>
</g>
</g>
<!-- Node8 -->
<g id="Node000008" class="node">
<title>Node8</title>
<g id="a_Node000008"><a xlink:title=" ">
<polygon fill="#e0e0e0" stroke="#999999" points="943.88,-32 801.12,-32 801.12,0 943.88,0 943.88,-32"/>
<text text-anchor="start" x="809.12" y="-18.5" font-family="Helvetica,sans-Serif" font-size="10.00">javax.crypto.NoSuchPadding</text>
<text text-anchor="middle" x="872.5" y="-6.5" font-family="Helvetica,sans-Serif" font-size="10.00">Exception</text>
</a>
</g>
</g>
<!-- Node1&#45;&gt;Node8 -->
<g id="edge7_Node000001_Node000008" class="edge">
<title>Node1&#45;&gt;Node8</title>
<g id="a_edge7_Node000001_Node000008"><a xlink:title=" ">
<path fill="none" stroke="#63b8ff" d="M872.5,-67.79C872.5,-60.18 872.5,-51.52 872.5,-43.52"/>
<polygon fill="#63b8ff" stroke="#63b8ff" points="876,-43.64 872.5,-33.64 869,-43.64 876,-43.64"/>
</a>
</g>
</g>
<!-- Node9 -->
<g id="Node000009" class="node">
<title>Node9</title>
<g id="a_Node000009"><a xlink:title=" ">
<polygon fill="#e0e0e0" stroke="#999999" points="1079.5,-26 961.5,-26 961.5,-6 1079.5,-6 1079.5,-26"/>
<text text-anchor="middle" x="1020.5" y="-12.5" font-family="Helvetica,sans-Serif" font-size="10.00">javax.crypto.SecretKey</text>
</a>
</g>
</g>
<!-- Node1&#45;&gt;Node9 -->
<g id="edge8_Node000001_Node000009" class="edge">
<title>Node1&#45;&gt;Node9</title>
<g id="a_edge8_Node000001_Node000009"><a xlink:title=" ">
<path fill="none" stroke="#63b8ff" d="M916.5,-67.59C940.56,-55.89 969.7,-41.71 991.01,-31.35"/>
<polygon fill="#63b8ff" stroke="#63b8ff" points="992.26,-34.63 999.72,-27.11 989.19,-28.34 992.26,-34.63"/>
</a>
</g>
</g>
<!-- Node10 -->
<g id="Node000010" class="node">
<title>Node10</title>
<g id="a_Node000010"><a xlink:title=" ">
<polygon fill="#e0e0e0" stroke="#999999" points="1285,-26 1098,-26 1098,-6 1285,-6 1285,-26"/>
<text text-anchor="middle" x="1191.5" y="-12.5" font-family="Helvetica,sans-Serif" font-size="10.00">javax.crypto.spec.GCMParameterSpec</text>
</a>
</g>
</g>
<!-- Node1&#45;&gt;Node10 -->
<g id="edge9_Node000001_Node000010" class="edge">
<title>Node1&#45;&gt;Node10</title>
<g id="a_edge9_Node000001_Node000010"><a xlink:title=" ">
<path fill="none" stroke="#63b8ff" d="M967.35,-67.59C1023.34,-54.96 1092.12,-39.43 1138.61,-28.94"/>
<polygon fill="#63b8ff" stroke="#63b8ff" points="1139.18,-32.4 1148.16,-26.78 1137.64,-25.57 1139.18,-32.4"/>
</a>
</g>
</g>
<!-- Node11 -->
<g id="Node000011" class="node">
<title>Node11</title>
<g id="a_Node000011"><a xlink:title=" ">
<polygon fill="#e0e0e0" stroke="#999999" points="1385.88,-26 1303.12,-26 1303.12,-6 1385.88,-6 1385.88,-26"/>
<text text-anchor="middle" x="1344.5" y="-12.5" font-family="Helvetica,sans-Serif" font-size="10.00">org.slf4j.Logger</text>
</a>
</g>
</g>
<!-- Node1&#45;&gt;Node11 -->
<g id="edge10_Node000001_Node000011" class="edge">
<title>Node1&#45;&gt;Node11</title>
<g id="a_edge10_Node000001_Node000011"><a xlink:title=" ">
<path fill="none" stroke="#63b8ff" d="M977.35,-79.47C1063.22,-70.55 1187.55,-55.11 1294.5,-32 1297.89,-31.27 1301.38,-30.42 1304.87,-29.5"/>
<polygon fill="#63b8ff" stroke="#63b8ff" points="1305.74,-32.9 1314.42,-26.83 1303.85,-26.16 1305.74,-32.9"/>
</a>
</g>
</g>
<!-- Node12 -->
<g id="Node000012" class="node">
<title>Node12</title>
<g id="a_Node000012"><a xlink:title=" ">
<polygon fill="#e0e0e0" stroke="#999999" points="1519.38,-26 1403.62,-26 1403.62,-6 1519.38,-6 1519.38,-26"/>
<text text-anchor="middle" x="1461.5" y="-12.5" font-family="Helvetica,sans-Serif" font-size="10.00">org.slf4j.LoggerFactory</text>
</a>
</g>
</g>
<!-- Node1&#45;&gt;Node12 -->
<g id="edge11_Node000001_Node000012" class="edge">
<title>Node1&#45;&gt;Node12</title>
<g id="a_edge11_Node000001_Node000012"><a xlink:title=" ">
<path fill="none" stroke="#63b8ff" d="M976.96,-81.04C1082.67,-72.18 1250.61,-55.89 1394.5,-32 1400.09,-31.07 1405.91,-29.97 1411.69,-28.79"/>
<polygon fill="#63b8ff" stroke="#63b8ff" points="1412.14,-32.28 1421.19,-26.78 1410.68,-25.43 1412.14,-32.28"/>
</a>
</g>
</g>
<!-- Node13 -->
<g id="Node000013" class="node">
<title>Node13</title>
<g id="a_Node000013"><a xlink:title=" ">
<polygon fill="#e0e0e0" stroke="#999999" points="1733.12,-32 1537.88,-32 1537.88,0 1733.12,0 1733.12,-32"/>
<text text-anchor="start" x="1545.88" y="-18.5" font-family="Helvetica,sans-Serif" font-size="10.00">fr.softsf.sudokufx.common.annotation.</text>
<text text-anchor="middle" x="1635.5" y="-6.5" font-family="Helvetica,sans-Serif" font-size="10.00">ExcludedFromCoverageReportGenerated</text>
</a>
</g>
</g>
<!-- Node1&#45;&gt;Node13 -->
<g id="edge12_Node000001_Node000013" class="edge">
<title>Node1&#45;&gt;Node13</title>
<g id="a_edge12_Node000001_Node000013"><a xlink:title=" ">
<path fill="none" stroke="#63b8ff" d="M977.2,-81.61C1104.41,-72.24 1325.86,-54.7 1526.22,-32.22"/>
<polygon fill="#63b8ff" stroke="#63b8ff" points="1526.52,-35.71 1536.06,-31.11 1525.73,-28.75 1526.52,-35.71"/>
</a>
</g>
</g>
<!-- Node14 -->
<g id="Node000014" class="node">
<title>Node14</title>
<g id="a_Node000014"><a xlink:title=" ">
<polygon fill="#e0e0e0" stroke="#999999" points="1932,-32 1751,-32 1751,0 1932,0 1932,-32"/>
<text text-anchor="start" x="1759" y="-18.5" font-family="Helvetica,sans-Serif" font-size="10.00">fr.softsf.sudokufx.common.exception.</text>
<text text-anchor="middle" x="1841.5" y="-6.5" font-family="Helvetica,sans-Serif" font-size="10.00">ExceptionTools</text>
</a>
</g>
</g>
<!-- Node1&#45;&gt;Node14 -->
<g id="edge13_Node000001_Node000014" class="edge">
<title>Node1&#45;&gt;Node14</title>
<g id="a_edge13_Node000001_Node000014"><a xlink:title=" ">
<path fill="none" stroke="#63b8ff" d="M977.21,-85.02C1138.71,-78.23 1458.54,-62.26 1739.4,-32.28"/>
<polygon fill="#63b8ff" stroke="#63b8ff" points="1739.56,-35.79 1749.13,-31.24 1738.82,-28.83 1739.56,-35.79"/>
</a>
</g>
</g>
</g>
</svg>
