<?xml version="1.0" encoding="UTF-8" standalone="no"?>
<!DOCTYPE svg PUBLIC "-//W3C//DTD SVG 1.1//EN"
 "http://www.w3.org/Graphics/SVG/1.1/DTD/svg11.dtd">
<!-- Generated by graphviz version 12.2.1 (20241206.2353)
 -->
<!-- Title: src/main/java/fr/softsf/sudokufx/config/database/SecretKeyEncryptionServiceAESGCM.java Pages: 1 -->
<svg width="2120pt" height="120pt"
 viewBox="0.00 0.00 2120.00 120.00" xmlns="http://www.w3.org/2000/svg" xmlns:xlink="http://www.w3.org/1999/xlink">
<g id="graph0" class="graph" transform="scale(1 1) rotate(0) translate(4 116)">
<title>src/main/java/fr/softsf/sudokufx/config/database/SecretKeyEncryptionServiceAESGCM.java</title>
<!-- Node1 -->
<g id="Node000001" class="node">
<title>Node1</title>
<g id="a_Node000001"><a xlink:title=" ">
<polygon fill="#999999" stroke="#666666" points="1050.88,-112 842.12,-112 842.12,-68 1050.88,-68 1050.88,-112"/>
<text text-anchor="start" x="850.12" y="-98.5" font-family="Helvetica,sans-Serif" font-size="10.00">src/main/java/fr/softsf</text>
<text text-anchor="start" x="850.12" y="-86.5" font-family="Helvetica,sans-Serif" font-size="10.00">/sudokufx/config/database</text>
<text text-anchor="middle" x="946.5" y="-74.5" font-family="Helvetica,sans-Serif" font-size="10.00">/SecretKeyEncryptionServiceAESGCM.java</text>
</a>
</g>
</g>
<!-- Node2 -->
<g id="Node000002" class="node">
<title>Node2</title>
<g id="a_Node000002"><a xlink:title=" ">
<polygon fill="#e0e0e0" stroke="#999999" points="127,-32 0,-32 0,0 127,0 127,-32"/>
<text text-anchor="start" x="8" y="-18.5" font-family="Helvetica,sans-Serif" font-size="10.00">java.nio.charset.Standard</text>
<text text-anchor="middle" x="63.5" y="-6.5" font-family="Helvetica,sans-Serif" font-size="10.00">Charsets</text>
</a>
</g>
</g>
<!-- Node1&#45;&gt;Node2 -->
<g id="edge1_Node000001_Node000002" class="edge">
<title>Node1&#45;&gt;Node2</title>
<g id="a_edge1_Node000001_Node000002"><a xlink:title=" ">
<path fill="none" stroke="#63b8ff" d="M841.83,-86.06C689.24,-80.79 396.67,-66.97 138.23,-32.1"/>
<polygon fill="#63b8ff" stroke="#63b8ff" points="139,-28.68 128.62,-30.79 138.05,-35.61 139,-28.68"/>
</a>
</g>
</g>
<!-- Node3 -->
<g id="Node000003" class="node">
<title>Node3</title>
<g id="a_Node000003"><a xlink:title=" ">
<polygon fill="#e0e0e0" stroke="#999999" points="295.62,-32 145.38,-32 145.38,0 295.62,0 295.62,-32"/>
<text text-anchor="start" x="153.38" y="-18.5" font-family="Helvetica,sans-Serif" font-size="10.00">java.security.NoSuchAlgorithm</text>
<text text-anchor="middle" x="220.5" y="-6.5" font-family="Helvetica,sans-Serif" font-size="10.00">Exception</text>
</a>
</g>
</g>
<!-- Node1&#45;&gt;Node3 -->
<g id="edge2_Node000001_Node000003" class="edge">
<title>Node1&#45;&gt;Node3</title>
<g id="a_edge2_Node000001_Node000003"><a xlink:title=" ">
<path fill="none" stroke="#63b8ff" d="M841.66,-82.54C716.72,-74.2 501.45,-57.8 307.29,-32.3"/>
<polygon fill="#63b8ff" stroke="#63b8ff" points="307.88,-28.85 297.51,-31.01 306.96,-35.79 307.88,-28.85"/>
</a>
</g>
</g>
<!-- Node4 -->
<g id="Node000004" class="node">
<title>Node4</title>
<g id="a_Node000004"><a xlink:title=" ">
<polygon fill="#e0e0e0" stroke="#999999" points="455.12,-26 313.88,-26 313.88,-6 455.12,-6 455.12,-26"/>
<text text-anchor="middle" x="384.5" y="-12.5" font-family="Helvetica,sans-Serif" font-size="10.00">java.security.SecureRandom</text>
</a>
</g>
</g>
<!-- Node1&#45;&gt;Node4 -->
<g id="edge3_Node000001_Node000004" class="edge">
<title>Node1&#45;&gt;Node4</title>
<g id="a_edge3_Node000001_Node000004"><a xlink:title=" ">
<path fill="none" stroke="#63b8ff" d="M841.86,-78.69C744.04,-68.56 594.03,-51.78 464.5,-32 457.62,-30.95 450.44,-29.75 443.31,-28.49"/>
<polygon fill="#63b8ff" stroke="#63b8ff" points="444.16,-25.09 433.7,-26.76 442.92,-31.98 444.16,-25.09"/>
</a>
</g>
</g>
<!-- Node5 -->
<g id="Node000005" class="node">
<title>Node5</title>
<g id="a_Node000005"><a xlink:title=" ">
<polygon fill="#e0e0e0" stroke="#999999" points="559.38,-26 473.62,-26 473.62,-6 559.38,-6 559.38,-26"/>
<text text-anchor="middle" x="516.5" y="-12.5" font-family="Helvetica,sans-Serif" font-size="10.00">java.util.Base64</text>
</a>
</g>
</g>
<!-- Node1&#45;&gt;Node5 -->
<g id="edge4_Node000001_Node000005" class="edge">
<title>Node1&#45;&gt;Node5</title>
<g id="a_edge4_Node000001_Node000005"><a xlink:title=" ">
<path fill="none" stroke="#63b8ff" d="M841.94,-76.98C765.68,-67.3 660.08,-52.02 568.5,-32 564.97,-31.23 561.32,-30.35 557.67,-29.41"/>
<polygon fill="#63b8ff" stroke="#63b8ff" points="558.88,-26.11 548.31,-26.87 557.05,-32.87 558.88,-26.11"/>
</a>
</g>
</g>
<!-- Node6 -->
<g id="Node000006" class="node">
<title>Node6</title>
<g id="a_Node000006"><a xlink:title=" ">
<polygon fill="#e0e0e0" stroke="#999999" points="663.75,-26 577.25,-26 577.25,-6 663.75,-6 663.75,-26"/>
<text text-anchor="middle" x="620.5" y="-12.5" font-family="Helvetica,sans-Serif" font-size="10.00">java.util.Objects</text>
</a>
</g>
</g>
<!-- Node1&#45;&gt;Node6 -->
<g id="edge5_Node000001_Node000006" class="edge">
<title>Node1&#45;&gt;Node6</title>
<g id="a_edge5_Node000001_Node000006"><a xlink:title=" ">
<path fill="none" stroke="#63b8ff" d="M841.76,-68.92C790.79,-58.69 728.75,-45.57 673.5,-32 670.22,-31.19 666.83,-30.32 663.43,-29.42"/>
<polygon fill="#63b8ff" stroke="#63b8ff" points="664.66,-26.13 654.1,-26.88 662.83,-32.89 664.66,-26.13"/>
</a>
</g>
</g>
<!-- Node7 -->
<g id="Node000007" class="node">
<title>Node7</title>
<g id="a_Node000007"><a xlink:title=" ">
<polygon fill="#e0e0e0" stroke="#999999" points="782.88,-26 682.12,-26 682.12,-6 782.88,-6 782.88,-26"/>
<text text-anchor="middle" x="732.5" y="-12.5" font-family="Helvetica,sans-Serif" font-size="10.00">javax.crypto.Cipher</text>
</a>
</g>
</g>
<!-- Node1&#45;&gt;Node7 -->
<g id="edge6_Node000001_Node000007" class="edge">
<title>Node1&#45;&gt;Node7</title>
<g id="a_edge6_Node000001_Node000007"><a xlink:title=" ">
<path fill="none" stroke="#63b8ff" d="M882.87,-67.59C846.66,-55.41 802.47,-40.54 771.4,-30.09"/>
<polygon fill="#63b8ff" stroke="#63b8ff" points="772.61,-26.8 762.02,-26.93 770.38,-33.44 772.61,-26.8"/>
</a>
</g>
</g>
<!-- Node8 -->
<g id="Node000008" class="node">
<title>Node8</title>
<g id="a_Node000008"><a xlink:title=" ">
<polygon fill="#e0e0e0" stroke="#999999" points="943.88,-32 801.12,-32 801.12,0 943.88,0 943.88,-32"/>
<text text-anchor="start" x="809.12" y="-18.5" font-family="Helvetica,sans-Serif" font-size="10.00">javax.crypto.NoSuchPadding</text>
<text text-anchor="middle" x="872.5" y="-6.5" font-family="Helvetica,sans-Serif" font-size="10.00">Exception</text>
</a>
</g>
</g>
<!-- Node1&#45;&gt;Node8 -->
<g id="edge7_Node000001_Node000008" class="edge">
<title>Node1&#45;&gt;Node8</title>
<g id="a_edge7_Node000001_Node000008"><a xlink:title=" ">
<path fill="none" stroke="#63b8ff" d="M924.7,-67.79C915.69,-59.02 905.23,-48.84 896.04,-39.91"/>
<polygon fill="#63b8ff" stroke="#63b8ff" points="898.74,-37.65 889.13,-33.18 893.86,-42.66 898.74,-37.65"/>
</a>
</g>
</g>
<!-- Node9 -->
<g id="Node000009" class="node">
<title>Node9</title>
<g id="a_Node000009"><a xlink:title=" ">
<polygon fill="#e0e0e0" stroke="#999999" points="1079.5,-26 961.5,-26 961.5,-6 1079.5,-6 1079.5,-26"/>
<text text-anchor="middle" x="1020.5" y="-12.5" font-family="Helvetica,sans-Serif" font-size="10.00">javax.crypto.SecretKey</text>
</a>
</g>
</g>
<!-- Node1&#45;&gt;Node9 -->
<g id="edge8_Node000001_Node000009" class="edge">
<title>Node1&#45;&gt;Node9</title>
<g id="a_edge8_Node000001_Node000009"><a xlink:title=" ">
<path fill="none" stroke="#63b8ff" d="M968.3,-67.79C979.25,-57.14 992.35,-44.39 1002.68,-34.34"/>
<polygon fill="#63b8ff" stroke="#63b8ff" points="1005.12,-36.85 1009.85,-27.37 1000.24,-31.83 1005.12,-36.85"/>
</a>
</g>
</g>
<!-- Node10 -->
<g id="Node000010" class="node">
<title>Node10</title>
<g id="a_Node000010"><a xlink:title=" ">
<polygon fill="#e0e0e0" stroke="#999999" points="1285,-26 1098,-26 1098,-6 1285,-6 1285,-26"/>
<text text-anchor="middle" x="1191.5" y="-12.5" font-family="Helvetica,sans-Serif" font-size="10.00">javax.crypto.spec.GCMParameterSpec</text>
</a>
</g>
</g>
<!-- Node1&#45;&gt;Node10 -->
<g id="edge9_Node000001_Node000010" class="edge">
<title>Node1&#45;&gt;Node10</title>
<g id="a_edge9_Node000001_Node000010"><a xlink:title=" ">
<path fill="none" stroke="#63b8ff" d="M1019.34,-67.59C1061.35,-55.25 1112.72,-40.15 1148.36,-29.68"/>
<polygon fill="#63b8ff" stroke="#63b8ff" points="1149.29,-33.05 1157.9,-26.87 1147.32,-26.34 1149.29,-33.05"/>
</a>
</g>
</g>
<!-- Node11 -->
<g id="Node000011" class="node">
<title>Node11</title>
<g id="a_Node000011"><a xlink:title=" ">
<polygon fill="#e0e0e0" stroke="#999999" points="1385.88,-26 1303.12,-26 1303.12,-6 1385.88,-6 1385.88,-26"/>
<text text-anchor="middle" x="1344.5" y="-12.5" font-family="Helvetica,sans-Serif" font-size="10.00">org.slf4j.Logger</text>
</a>
</g>
</g>
<!-- Node1&#45;&gt;Node11 -->
<g id="edge10_Node000001_Node000011" class="edge">
<title>Node1&#45;&gt;Node11</title>
<g id="a_edge10_Node000001_Node000011"><a xlink:title=" ">
<path fill="none" stroke="#63b8ff" d="M1051.11,-75.46C1120.57,-65.59 1213.52,-50.7 1294.5,-32 1297.69,-31.26 1300.97,-30.44 1304.26,-29.56"/>
<polygon fill="#63b8ff" stroke="#63b8ff" points="1305.19,-32.93 1313.87,-26.85 1303.29,-26.2 1305.19,-32.93"/>
</a>
</g>
</g>
<!-- Node12 -->
<g id="Node000012" class="node">
<title>Node12</title>
<g id="a_Node000012"><a xlink:title=" ">
<polygon fill="#e0e0e0" stroke="#999999" points="1519.38,-26 1403.62,-26 1403.62,-6 1519.38,-6 1519.38,-26"/>
<text text-anchor="middle" x="1461.5" y="-12.5" font-family="Helvetica,sans-Serif" font-size="10.00">org.slf4j.LoggerFactory</text>
</a>
</g>
</g>
<!-- Node1&#45;&gt;Node12 -->
<g id="edge11_Node000001_Node000012" class="edge">
<title>Node1&#45;&gt;Node12</title>
<g id="a_edge11_Node000001_Node000012"><a xlink:title=" ">
<path fill="none" stroke="#63b8ff" d="M1051.02,-78.51C1142.08,-68.69 1277.5,-52.49 1394.5,-32 1400.01,-31.04 1405.75,-29.92 1411.45,-28.74"/>
<polygon fill="#63b8ff" stroke="#63b8ff" points="1411.77,-32.25 1420.82,-26.74 1410.31,-25.41 1411.77,-32.25"/>
</a>
</g>
</g>
<!-- Node13 -->
<g id="Node000013" class="node">
<title>Node13</title>
<g id="a_Node000013"><a xlink:title=" ">
<polygon fill="#e0e0e0" stroke="#999999" points="1700,-32 1537,-32 1537,0 1700,0 1700,-32"/>
<text text-anchor="start" x="1545" y="-18.5" font-family="Helvetica,sans-Serif" font-size="10.00">edu.umd.cs.findbugs.annotations.</text>
<text text-anchor="middle" x="1618.5" y="-6.5" font-family="Helvetica,sans-Serif" font-size="10.00">SuppressFBWarnings</text>
</a>
</g>
</g>
<!-- Node1&#45;&gt;Node13 -->
<g id="edge12_Node000001_Node000013" class="edge">
<title>Node1&#45;&gt;Node13</title>
<g id="a_edge12_Node000001_Node000013"><a xlink:title=" ">
<path fill="none" stroke="#63b8ff" d="M1051.35,-80.88C1165.56,-71.54 1353.87,-54.72 1525.35,-32.37"/>
<polygon fill="#63b8ff" stroke="#63b8ff" points="1525.66,-35.86 1535.12,-31.08 1524.75,-28.92 1525.66,-35.86"/>
</a>
</g>
</g>
<!-- Node14 -->
<g id="Node000014" class="node">
<title>Node14</title>
<g id="a_Node000014"><a xlink:title=" ">
<polygon fill="#e0e0e0" stroke="#999999" points="1913.12,-32 1717.88,-32 1717.88,0 1913.12,0 1913.12,-32"/>
<text text-anchor="start" x="1725.88" y="-18.5" font-family="Helvetica,sans-Serif" font-size="10.00">fr.softsf.sudokufx.common.annotation.</text>
<text text-anchor="middle" x="1815.5" y="-6.5" font-family="Helvetica,sans-Serif" font-size="10.00">ExcludedFromCoverageReportGenerated</text>
</a>
</g>
</g>
<!-- Node1&#45;&gt;Node14 -->
<g id="edge13_Node000001_Node000014" class="edge">
<title>Node1&#45;&gt;Node14</title>
<g id="a_edge13_Node000001_Node000014"><a xlink:title=" ">
<path fill="none" stroke="#63b8ff" d="M1051.3,-83.37C1196.24,-75.08 1466.31,-57.88 1706.23,-32.31"/>
<polygon fill="#63b8ff" stroke="#63b8ff" points="1706.56,-35.8 1716.13,-31.25 1705.81,-28.84 1706.56,-35.8"/>
</a>
</g>
</g>
<!-- Node15 -->
<g id="Node000015" class="node">
<title>Node15</title>
<g id="a_Node000015"><a xlink:title=" ">
<polygon fill="#e0e0e0" stroke="#999999" points="2112,-32 1931,-32 1931,0 2112,0 2112,-32"/>
<text text-anchor="start" x="1939" y="-18.5" font-family="Helvetica,sans-Serif" font-size="10.00">fr.softsf.sudokufx.common.exception.</text>
<text text-anchor="middle" x="2021.5" y="-6.5" font-family="Helvetica,sans-Serif" font-size="10.00">ExceptionTools</text>
</a>
</g>
</g>
<!-- Node1&#45;&gt;Node15 -->
<g id="edge14_Node000001_Node000015" class="edge">
<title>Node1&#45;&gt;Node15</title>
<g id="a_edge14_Node000001_Node000015"><a xlink:title=" ">
<path fill="none" stroke="#63b8ff" d="M1051.11,-86.05C1227.95,-80.36 1597.4,-65.48 1919.21,-32.29"/>
<polygon fill="#63b8ff" stroke="#63b8ff" points="1919.55,-35.77 1929.13,-31.26 1918.83,-28.81 1919.55,-35.77"/>
</a>
</g>
</g>
</g>
</svg>
