<?xml version="1.0" encoding="UTF-8" standalone="no"?>
<!DOCTYPE svg PUBLIC "-//W3C//DTD SVG 1.1//EN"
 "http://www.w3.org/Graphics/SVG/1.1/DTD/svg11.dtd">
<!-- Generated by graphviz version 12.2.1 (20241206.2353)
 -->
<!-- Title: src/main/java/fr/softsf/sudokufx/service/SoftwareService.java Pages: 1 -->
<svg width="1412pt" height="108pt"
 viewBox="0.00 0.00 1411.75 108.00" xmlns="http://www.w3.org/2000/svg" xmlns:xlink="http://www.w3.org/1999/xlink">
<g id="graph0" class="graph" transform="scale(1 1) rotate(0) translate(4 104)">
<title>src/main/java/fr/softsf/sudokufx/service/SoftwareService.java</title>
<!-- Node1 -->
<g id="Node000001" class="node">
<title>Node1</title>
<g id="a_Node000001"><a xlink:title=" ">
<polygon fill="#999999" stroke="#666666" points="818,-100 628.75,-100 628.75,-68 818,-68 818,-100"/>
<text text-anchor="start" x="636.75" y="-86.5" font-family="Helvetica,sans-Serif" font-size="10.00">src/main/java/fr/softsf</text>
<text text-anchor="middle" x="723.38" y="-74.5" font-family="Helvetica,sans-Serif" font-size="10.00">/sudokufx/service/SoftwareService.java</text>
</a>
</g>
</g>
<!-- Node2 -->
<g id="Node000002" class="node">
<title>Node2</title>
<g id="a_Node000002"><a xlink:title=" ">
<polygon fill="#e0e0e0" stroke="#999999" points="166.75,-26 0,-26 0,-6 166.75,-6 166.75,-26"/>
<text text-anchor="middle" x="83.38" y="-12.5" font-family="Helvetica,sans-Serif" font-size="10.00">fr.softsf.sudokufx.dto.SoftwareDto</text>
</a>
</g>
</g>
<!-- Node1&#45;&gt;Node2 -->
<g id="edge1_Node000001_Node000002" class="edge">
<title>Node1&#45;&gt;Node2</title>
<g id="a_edge1_Node000001_Node000002"><a xlink:title=" ">
<path fill="none" stroke="#63b8ff" d="M628.3,-76.08C519.02,-67.67 334.38,-52.09 176.38,-32 167.71,-30.9 158.6,-29.6 149.63,-28.24"/>
<polygon fill="#63b8ff" stroke="#63b8ff" points="150.28,-24.8 139.86,-26.73 149.2,-31.72 150.28,-24.8"/>
</a>
</g>
</g>
<!-- Node3 -->
<g id="Node000003" class="node">
<title>Node3</title>
<g id="a_Node000003"><a xlink:title=" ">
<polygon fill="#e0e0e0" stroke="#999999" points="361.62,-32 185.12,-32 185.12,0 361.62,0 361.62,-32"/>
<text text-anchor="start" x="193.12" y="-18.5" font-family="Helvetica,sans-Serif" font-size="10.00">fr.softsf.sudokufx.interfaces.mapper.</text>
<text text-anchor="middle" x="273.38" y="-6.5" font-family="Helvetica,sans-Serif" font-size="10.00">ISoftwareMapper</text>
</a>
</g>
</g>
<!-- Node1&#45;&gt;Node3 -->
<g id="edge2_Node000001_Node000003" class="edge">
<title>Node1&#45;&gt;Node3</title>
<g id="a_edge2_Node000001_Node000003"><a xlink:title=" ">
<path fill="none" stroke="#63b8ff" d="M628.48,-69.46C560.38,-59.7 466.11,-46.08 373.35,-32.29"/>
<polygon fill="#63b8ff" stroke="#63b8ff" points="373.95,-28.84 363.54,-30.83 372.92,-35.76 373.95,-28.84"/>
</a>
</g>
</g>
<!-- Node4 -->
<g id="Node000004" class="node">
<title>Node4</title>
<g id="a_Node000004"><a xlink:title=" ">
<polygon fill="#e0e0e0" stroke="#999999" points="504.75,-32 380,-32 380,0 504.75,0 504.75,-32"/>
<text text-anchor="start" x="388" y="-18.5" font-family="Helvetica,sans-Serif" font-size="10.00">fr.softsf.sudokufx.model.</text>
<text text-anchor="middle" x="442.38" y="-6.5" font-family="Helvetica,sans-Serif" font-size="10.00">Software</text>
</a>
</g>
</g>
<!-- Node1&#45;&gt;Node4 -->
<g id="edge3_Node000001_Node000004" class="edge">
<title>Node1&#45;&gt;Node4</title>
<g id="a_edge3_Node000001_Node000004"><a xlink:title=" ">
<path fill="none" stroke="#63b8ff" d="M657.49,-67.53C615.11,-57.57 559.97,-44.62 516.13,-34.32"/>
<polygon fill="#63b8ff" stroke="#63b8ff" points="516.96,-30.92 506.42,-32.04 515.36,-37.74 516.96,-30.92"/>
</a>
</g>
</g>
<!-- Node5 -->
<g id="Node000005" class="node">
<title>Node5</title>
<g id="a_Node000005"><a xlink:title=" ">
<polygon fill="#e0e0e0" stroke="#999999" points="663.62,-32 523.12,-32 523.12,0 663.62,0 663.62,-32"/>
<text text-anchor="start" x="531.12" y="-18.5" font-family="Helvetica,sans-Serif" font-size="10.00">fr.softsf.sudokufx.repository.</text>
<text text-anchor="middle" x="593.38" y="-6.5" font-family="Helvetica,sans-Serif" font-size="10.00">SoftwareRepository</text>
</a>
</g>
</g>
<!-- Node1&#45;&gt;Node5 -->
<g id="edge4_Node000001_Node000005" class="edge">
<title>Node1&#45;&gt;Node5</title>
<g id="a_edge4_Node000001_Node000005"><a xlink:title=" ">
<path fill="none" stroke="#63b8ff" d="M692.9,-67.53C675.29,-58.59 652.93,-47.24 633.87,-37.56"/>
<polygon fill="#63b8ff" stroke="#63b8ff" points="635.51,-34.47 625.01,-33.06 632.35,-40.71 635.51,-34.47"/>
</a>
</g>
</g>
<!-- Node6 -->
<g id="Node000006" class="node">
<title>Node6</title>
<g id="a_Node000006"><a xlink:title=" ">
<polygon fill="#e0e0e0" stroke="#999999" points="764.75,-26 682,-26 682,-6 764.75,-6 764.75,-26"/>
<text text-anchor="middle" x="723.38" y="-12.5" font-family="Helvetica,sans-Serif" font-size="10.00">org.slf4j.Logger</text>
</a>
</g>
</g>
<!-- Node1&#45;&gt;Node6 -->
<g id="edge5_Node000001_Node000006" class="edge">
<title>Node1&#45;&gt;Node6</title>
<g id="a_edge5_Node000001_Node000006"><a xlink:title=" ">
<path fill="none" stroke="#63b8ff" d="M723.38,-67.69C723.38,-58.8 723.38,-47.46 723.38,-37.77"/>
<polygon fill="#63b8ff" stroke="#63b8ff" points="726.88,-37.83 723.38,-27.83 719.88,-37.83 726.88,-37.83"/>
</a>
</g>
</g>
<!-- Node7 -->
<g id="Node000007" class="node">
<title>Node7</title>
<g id="a_Node000007"><a xlink:title=" ">
<polygon fill="#e0e0e0" stroke="#999999" points="898.25,-26 782.5,-26 782.5,-6 898.25,-6 898.25,-26"/>
<text text-anchor="middle" x="840.38" y="-12.5" font-family="Helvetica,sans-Serif" font-size="10.00">org.slf4j.LoggerFactory</text>
</a>
</g>
</g>
<!-- Node1&#45;&gt;Node7 -->
<g id="edge6_Node000001_Node000007" class="edge">
<title>Node1&#45;&gt;Node7</title>
<g id="a_edge6_Node000001_Node000007"><a xlink:title=" ">
<path fill="none" stroke="#63b8ff" d="M750.81,-67.53C769.75,-56.84 794.82,-42.7 813.62,-32.09"/>
<polygon fill="#63b8ff" stroke="#63b8ff" points="815.3,-35.17 822.29,-27.2 811.86,-29.07 815.3,-35.17"/>
</a>
</g>
</g>
<!-- Node8 -->
<g id="Node000008" class="node">
<title>Node8</title>
<g id="a_Node000008"><a xlink:title=" ">
<polygon fill="#e0e0e0" stroke="#999999" points="1072.5,-32 916.25,-32 916.25,0 1072.5,0 1072.5,-32"/>
<text text-anchor="start" x="924.25" y="-18.5" font-family="Helvetica,sans-Serif" font-size="10.00">org.springframework.stereotype.</text>
<text text-anchor="middle" x="994.38" y="-6.5" font-family="Helvetica,sans-Serif" font-size="10.00">Service</text>
</a>
</g>
</g>
<!-- Node1&#45;&gt;Node8 -->
<g id="edge7_Node000001_Node000008" class="edge">
<title>Node1&#45;&gt;Node8</title>
<g id="a_edge7_Node000001_Node000008"><a xlink:title=" ">
<path fill="none" stroke="#63b8ff" d="M786.91,-67.53C826.69,-57.84 878.13,-45.31 919.83,-35.15"/>
<polygon fill="#63b8ff" stroke="#63b8ff" points="920.41,-38.62 929.3,-32.85 918.75,-31.82 920.41,-38.62"/>
</a>
</g>
</g>
<!-- Node9 -->
<g id="Node000009" class="node">
<title>Node9</title>
<g id="a_Node000009"><a xlink:title=" ">
<polygon fill="#e0e0e0" stroke="#999999" points="1296.62,-32 1090.12,-32 1090.12,0 1296.62,0 1296.62,-32"/>
<text text-anchor="start" x="1098.12" y="-18.5" font-family="Helvetica,sans-Serif" font-size="10.00">org.springframework.transaction.annotation.</text>
<text text-anchor="middle" x="1193.38" y="-6.5" font-family="Helvetica,sans-Serif" font-size="10.00">Transactional</text>
</a>
</g>
</g>
<!-- Node1&#45;&gt;Node9 -->
<g id="edge8_Node000001_Node000009" class="edge">
<title>Node1&#45;&gt;Node9</title>
<g id="a_edge8_Node000001_Node000009"><a xlink:title=" ">
<path fill="none" stroke="#63b8ff" d="M818.49,-69.64C893.68,-59.09 998.91,-44.31 1078.74,-33.1"/>
<polygon fill="#63b8ff" stroke="#63b8ff" points="1078.92,-36.61 1088.34,-31.75 1077.95,-29.67 1078.92,-36.61"/>
</a>
</g>
</g>
<!-- Node10 -->
<g id="Node000010" class="node">
<title>Node10</title>
<g id="a_Node000010"><a xlink:title=" ">
<polygon fill="#e0e0e0" stroke="#999999" points="1403.75,-26 1315,-26 1315,-6 1403.75,-6 1403.75,-26"/>
<text text-anchor="middle" x="1359.38" y="-12.5" font-family="Helvetica,sans-Serif" font-size="10.00">java.util.Optional</text>
</a>
</g>
</g>
<!-- Node1&#45;&gt;Node10 -->
<g id="edge9_Node000001_Node000010" class="edge">
<title>Node1&#45;&gt;Node10</title>
<g id="a_edge9_Node000001_Node000010"><a xlink:title=" ">
<path fill="none" stroke="#63b8ff" d="M818.33,-80.03C934.14,-75.17 1135.46,-62.78 1305.38,-32 1309.49,-31.25 1313.76,-30.33 1317.99,-29.32"/>
<polygon fill="#63b8ff" stroke="#63b8ff" points="1318.77,-32.74 1327.58,-26.85 1317.02,-25.96 1318.77,-32.74"/>
</a>
</g>
</g>
</g>
</svg>
