<?xml version="1.0" encoding="UTF-8" standalone="no"?>
<!DOCTYPE svg PUBLIC "-//W3C//DTD SVG 1.1//EN"
 "http://www.w3.org/Graphics/SVG/1.1/DTD/svg11.dtd">
<!-- Generated by graphviz version 12.2.1 (20241206.2353)
 -->
<!-- Title: src/main/java/fr/softsf/sudokufx/view/SplashScreenView.java Pages: 1 -->
<!--zoomable 108 -->

<svg id="main" version="1.1" xmlns="http://www.w3.org/2000/svg" xmlns:xlink="http://www.w3.org/1999/xlink" xml:space="preserve" onload="init(evt)">

<style type="text/css"><![CDATA[
.node, .edge {opacity: 0.7;}
.node.selected, .edge.selected {opacity: 1;}
.edge:hover path { stroke: red; }
.edge:hover polygon { stroke: red; fill: red; }
]]></style>

<defs>
  <circle id="rim" cx="0" cy="0" r="7"/>
  <circle id="rim2" cx="0" cy="0" r="3.5"/>
  <g id="zoomPlus">
    <use xlink:href="#rim" fill="#404040"><set attributeName="fill" to="#808080" begin="zoomplus.mouseover" end="zoomplus.mouseout"/></use>
    <path d="M-4,0h8M0,-4v8" fill="none" stroke="white" stroke-width="1.5" pointer-events="none"/>
  </g>
  <g id="zoomMin">
    <use xlink:href="#rim" fill="#404040"><set attributeName="fill" to="#808080" begin="zoomminus.mouseover" end="zoomminus.mouseout"/></use>
    <path d="M-4,0h8" fill="none" stroke="white" stroke-width="1.5" pointer-events="none"/>
  </g>
  <g id="arrowUp" transform="translate(30 24)">
    <use xlink:href="#rim"/>
    <path pointer-events="none" fill="none" stroke="white" stroke-width="1.5" d="M0,-3.0v7 M-2.5,-0.5L0,-3.0L2.5,-0.5"/>
  </g>
  <g id="arrowRight" transform="rotate(90) translate(36 -43)">
    <use xlink:href="#rim"/>
    <path pointer-events="none" fill="none" stroke="white" stroke-width="1.5" d="M0,-3.0v7 M-2.5,-0.5L0,-3.0L2.5,-0.5"/>
  </g>
  <g id="arrowDown" transform="rotate(180) translate(-30 -48)">
    <use xlink:href="#rim"/>
    <path pointer-events="none" fill="none" stroke="white" stroke-width="1.5" d="M0,-3.0v7 M-2.5,-0.5L0,-3.0L2.5,-0.5"/>
  </g>
  <g id="arrowLeft" transform="rotate(270) translate(-36 17)">
    <use xlink:href="#rim"/>
    <path pointer-events="none" fill="none" stroke="white" stroke-width="1.5" d="M0,-3.0v7 M-2.5,-0.5L0,-3.0L2.5,-0.5"/>
  </g>
  <g id="resetDef">
    <use xlink:href="#rim2" fill="#404040"><set attributeName="fill" to="#808080" begin="reset.mouseover" end="reset.mouseout"/></use>
  </g>
</defs>
<script type="application/ecmascript">
var viewWidth = 4670;
var viewHeight = 108;
var sectionId = 'dynsection-0';
</script>
<script type="application/ecmascript" xlink:href="svg.min.js"/>
<svg id="graph" class="graph">
<g id="viewport">
<title>src/main/java/fr/softsf/sudokufx/view/SplashScreenView.java</title>
<!-- Node1 -->
<g id="Node000001" class="node">
<title>Node1</title>
<g id="a_Node000001"><a xlink:title=" ">
<polygon fill="#999999" stroke="#666666" points="2201,-100 2013.25,-100 2013.25,-68 2201,-68 2201,-100"/>
<text text-anchor="start" x="2021.25" y="-86.5" font-family="Helvetica,sans-Serif" font-size="10.00">src/main/java/fr/softsf</text>
<text text-anchor="middle" x="2107.12" y="-74.5" font-family="Helvetica,sans-Serif" font-size="10.00">/sudokufx/view/SplashScreenView.java</text>
</a>
</g>
</g>
<!-- Node2 -->
<g id="Node000002" class="node">
<title>Node2</title>
<g id="a_Node000002"><a xlink:title=" ">
<polygon fill="#e0e0e0" stroke="#999999" points="78.25,-26 0,-26 0,-6 78.25,-6 78.25,-26"/>
<text text-anchor="middle" x="39.12" y="-12.5" font-family="Helvetica,sans-Serif" font-size="10.00">java.time.Year</text>
</a>
</g>
</g>
<!-- Node1&#45;&gt;Node2 -->
<g id="edge1_Node000001_Node000002" class="edge">
<title>Node1&#45;&gt;Node2</title>
<g id="a_edge1_Node000001_Node000002"><a xlink:title=" ">
<path fill="none" stroke="#63b8ff" d="M2013.06,-82.13C1640.45,-78.46 279.01,-63.03 88.12,-32 84.23,-31.37 80.22,-30.5 76.24,-29.51"/>
<polygon fill="#63b8ff" stroke="#63b8ff" points="77.29,-26.17 66.72,-26.84 75.4,-32.91 77.29,-26.17"/>
</a>
</g>
</g>
<!-- Node3 -->
<g id="Node000003" class="node">
<title>Node3</title>
<g id="a_Node000003"><a xlink:title=" ">
<polygon fill="#e0e0e0" stroke="#999999" points="185.5,-26 96.75,-26 96.75,-6 185.5,-6 185.5,-26"/>
<text text-anchor="middle" x="141.12" y="-12.5" font-family="Helvetica,sans-Serif" font-size="10.00">java.time.ZoneId</text>
</a>
</g>
</g>
<!-- Node1&#45;&gt;Node3 -->
<g id="edge2_Node000001_Node000003" class="edge">
<title>Node1&#45;&gt;Node3</title>
<g id="a_edge2_Node000001_Node000003"><a xlink:title=" ">
<path fill="none" stroke="#63b8ff" d="M2012.91,-83.53C1678.8,-84.92 551.64,-85.45 195.12,-32 190.52,-31.31 185.76,-30.35 181.05,-29.26"/>
<polygon fill="#63b8ff" stroke="#63b8ff" points="182.29,-25.96 171.74,-26.87 180.56,-32.74 182.29,-25.96"/>
</a>
</g>
</g>
<!-- Node4 -->
<g id="Node000004" class="node">
<title>Node4</title>
<g id="a_Node000004"><a xlink:title=" ">
<polygon fill="#e0e0e0" stroke="#999999" points="290.38,-26 203.88,-26 203.88,-6 290.38,-6 290.38,-26"/>
<text text-anchor="middle" x="247.12" y="-12.5" font-family="Helvetica,sans-Serif" font-size="10.00">java.util.Objects</text>
</a>
</g>
</g>
<!-- Node1&#45;&gt;Node4 -->
<g id="edge3_Node000001_Node000004" class="edge">
<title>Node1&#45;&gt;Node4</title>
<g id="a_edge3_Node000001_Node000004"><a xlink:title=" ">
<path fill="none" stroke="#63b8ff" d="M2012.76,-83.48C1690.37,-84.62 634.12,-84.18 299.12,-32 294.81,-31.33 290.35,-30.41 285.93,-29.35"/>
<polygon fill="#63b8ff" stroke="#63b8ff" points="287.2,-26.06 276.63,-26.88 285.4,-32.83 287.2,-26.06"/>
</a>
</g>
</g>
<!-- Node5 -->
<g id="Node000005" class="node">
<title>Node5</title>
<g id="a_Node000005"><a xlink:title=" ">
<polygon fill="#e0e0e0" stroke="#999999" points="442,-26 308.25,-26 308.25,-6 442,-6 442,-26"/>
<text text-anchor="middle" x="375.12" y="-12.5" font-family="Helvetica,sans-Serif" font-size="10.00">javafx.animation.Animation</text>
</a>
</g>
</g>
<!-- Node1&#45;&gt;Node5 -->
<g id="edge4_Node000001_Node000005" class="edge">
<title>Node1&#45;&gt;Node5</title>
<g id="a_edge4_Node000001_Node000005"><a xlink:title=" ">
<path fill="none" stroke="#63b8ff" d="M2012.93,-82.17C1708.97,-79.15 756.17,-67.07 450.12,-32 442.77,-31.16 435.05,-29.97 427.49,-28.63"/>
<polygon fill="#63b8ff" stroke="#63b8ff" points="428.15,-25.19 417.68,-26.78 426.86,-32.07 428.15,-25.19"/>
</a>
</g>
</g>
<!-- Node6 -->
<g id="Node000006" class="node">
<title>Node6</title>
<g id="a_Node000006"><a xlink:title=" ">
<polygon fill="#e0e0e0" stroke="#999999" points="598.62,-26 459.62,-26 459.62,-6 598.62,-6 598.62,-26"/>
<text text-anchor="middle" x="529.12" y="-12.5" font-family="Helvetica,sans-Serif" font-size="10.00">javafx.animation.Interpolator</text>
</a>
</g>
</g>
<!-- Node1&#45;&gt;Node6 -->
<g id="edge5_Node000001_Node000006" class="edge">
<title>Node1&#45;&gt;Node6</title>
<g id="a_edge5_Node000001_Node000006"><a xlink:title=" ">
<path fill="none" stroke="#63b8ff" d="M2012.81,-81.69C1728.43,-77.43 882.13,-62.49 608.12,-32 600.11,-31.11 591.69,-29.86 583.46,-28.45"/>
<polygon fill="#63b8ff" stroke="#63b8ff" points="584.36,-25.06 573.9,-26.73 583.12,-31.94 584.36,-25.06"/>
</a>
</g>
</g>
<!-- Node7 -->
<g id="Node000007" class="node">
<title>Node7</title>
<g id="a_Node000007"><a xlink:title=" ">
<polygon fill="#e0e0e0" stroke="#999999" points="779.25,-26 617,-26 617,-6 779.25,-6 779.25,-26"/>
<text text-anchor="middle" x="698.12" y="-12.5" font-family="Helvetica,sans-Serif" font-size="10.00">javafx.animation.RotateTransition</text>
</a>
</g>
</g>
<!-- Node1&#45;&gt;Node7 -->
<g id="edge6_Node000001_Node000007" class="edge">
<title>Node1&#45;&gt;Node7</title>
<g id="a_edge6_Node000001_Node000007"><a xlink:title=" ">
<path fill="none" stroke="#63b8ff" d="M2012.88,-83.44C1796.09,-83.56 1245.5,-78.77 788.12,-32 778.72,-31.04 768.82,-29.71 759.15,-28.24"/>
<polygon fill="#63b8ff" stroke="#63b8ff" points="759.88,-24.81 749.45,-26.7 758.78,-31.72 759.88,-24.81"/>
</a>
</g>
</g>
<!-- Node8 -->
<g id="Node000008" class="node">
<title>Node8</title>
<g id="a_Node000008"><a xlink:title=" ">
<polygon fill="#e0e0e0" stroke="#999999" points="902.75,-26 797.5,-26 797.5,-6 902.75,-6 902.75,-26"/>
<text text-anchor="middle" x="850.12" y="-12.5" font-family="Helvetica,sans-Serif" font-size="10.00">javafx.geometry.Pos</text>
</a>
</g>
</g>
<!-- Node1&#45;&gt;Node8 -->
<g id="edge7_Node000001_Node000008" class="edge">
<title>Node1&#45;&gt;Node8</title>
<g id="a_edge7_Node000001_Node000008"><a xlink:title=" ">
<path fill="none" stroke="#63b8ff" d="M2012.86,-81.35C1769.43,-76.7 1124.04,-61.87 912.12,-32 906.51,-31.21 900.66,-30.13 894.9,-28.92"/>
<polygon fill="#63b8ff" stroke="#63b8ff" points="896.01,-25.58 885.48,-26.79 894.46,-32.41 896.01,-25.58"/>
</a>
</g>
</g>
<!-- Node9 -->
<g id="Node000009" class="node">
<title>Node9</title>
<g id="a_Node000009"><a xlink:title=" ">
<polygon fill="#e0e0e0" stroke="#999999" points="1025,-26 921.25,-26 921.25,-6 1025,-6 1025,-26"/>
<text text-anchor="middle" x="973.12" y="-12.5" font-family="Helvetica,sans-Serif" font-size="10.00">javafx.scene.Cursor</text>
</a>
</g>
</g>
<!-- Node1&#45;&gt;Node9 -->
<g id="edge8_Node000001_Node000009" class="edge">
<title>Node1&#45;&gt;Node9</title>
<g id="a_edge8_Node000001_Node000009"><a xlink:title=" ">
<path fill="none" stroke="#63b8ff" d="M2013.12,-80.87C1787.78,-75.38 1221.68,-59.25 1034.12,-32 1028.74,-31.22 1023.14,-30.17 1017.61,-28.99"/>
<polygon fill="#63b8ff" stroke="#63b8ff" points="1018.46,-25.6 1007.93,-26.77 1016.89,-32.42 1018.46,-25.6"/>
</a>
</g>
</g>
<!-- Node10 -->
<g id="Node000010" class="node">
<title>Node10</title>
<g id="a_Node000010"><a xlink:title=" ">
<polygon fill="#e0e0e0" stroke="#999999" points="1145.25,-26 1043,-26 1043,-6 1145.25,-6 1145.25,-26"/>
<text text-anchor="middle" x="1094.12" y="-12.5" font-family="Helvetica,sans-Serif" font-size="10.00">javafx.scene.Scene</text>
</a>
</g>
</g>
<!-- Node1&#45;&gt;Node10 -->
<g id="edge9_Node000001_Node000010" class="edge">
<title>Node1&#45;&gt;Node10</title>
<g id="a_edge9_Node000001_Node000010"><a xlink:title=" ">
<path fill="none" stroke="#63b8ff" d="M2012.85,-83.91C1841.07,-84.25 1466.05,-78.89 1154.12,-32 1148.89,-31.21 1143.45,-30.17 1138.07,-29.01"/>
<polygon fill="#63b8ff" stroke="#63b8ff" points="1139.23,-25.68 1128.69,-26.82 1137.64,-32.5 1139.23,-25.68"/>
</a>
</g>
</g>
<!-- Node11 -->
<g id="Node000011" class="node">
<title>Node11</title>
<g id="a_Node000011"><a xlink:title=" ">
<polygon fill="#e0e0e0" stroke="#999999" points="1293.12,-26 1163.12,-26 1163.12,-6 1293.12,-6 1293.12,-26"/>
<text text-anchor="middle" x="1228.12" y="-12.5" font-family="Helvetica,sans-Serif" font-size="10.00">javafx.scene.control.Label</text>
</a>
</g>
</g>
<!-- Node1&#45;&gt;Node11 -->
<g id="edge10_Node000001_Node000011" class="edge">
<title>Node1&#45;&gt;Node11</title>
<g id="a_edge10_Node000001_Node000011"><a xlink:title=" ">
<path fill="none" stroke="#63b8ff" d="M2012.84,-81.2C1862.09,-77.39 1557.74,-65.84 1302.12,-32 1295.3,-31.1 1288.16,-29.93 1281.12,-28.65"/>
<polygon fill="#63b8ff" stroke="#63b8ff" points="1281.8,-25.22 1271.32,-26.78 1280.48,-32.09 1281.8,-25.22"/>
</a>
</g>
</g>
<!-- Node12 -->
<g id="Node000012" class="node">
<title>Node12</title>
<g id="a_Node000012"><a xlink:title=" ">
<polygon fill="#e0e0e0" stroke="#999999" points="1433.38,-32 1310.88,-32 1310.88,0 1433.38,0 1433.38,-32"/>
<text text-anchor="start" x="1318.88" y="-18.5" font-family="Helvetica,sans-Serif" font-size="10.00">javafx.scene.effect.Drop</text>
<text text-anchor="middle" x="1372.12" y="-6.5" font-family="Helvetica,sans-Serif" font-size="10.00">Shadow</text>
</a>
</g>
</g>
<!-- Node1&#45;&gt;Node12 -->
<g id="edge11_Node000001_Node000012" class="edge">
<title>Node1&#45;&gt;Node12</title>
<g id="a_edge11_Node000001_Node000012"><a xlink:title=" ">
<path fill="none" stroke="#63b8ff" d="M2012.96,-79.67C1886.14,-74.31 1653.34,-61.41 1444.78,-32.1"/>
<polygon fill="#63b8ff" stroke="#63b8ff" points="1445.5,-28.66 1435.11,-30.72 1444.52,-35.59 1445.5,-28.66"/>
</a>
</g>
</g>
<!-- Node13 -->
<g id="Node000013" class="node">
<title>Node13</title>
<g id="a_Node000013"><a xlink:title=" ">
<polygon fill="#e0e0e0" stroke="#999999" points="1582.5,-26 1451.75,-26 1451.75,-6 1582.5,-6 1582.5,-26"/>
<text text-anchor="middle" x="1517.12" y="-12.5" font-family="Helvetica,sans-Serif" font-size="10.00">javafx.scene.image.Image</text>
</a>
</g>
</g>
<!-- Node1&#45;&gt;Node13 -->
<g id="edge12_Node000001_Node000013" class="edge">
<title>Node1&#45;&gt;Node13</title>
<g id="a_edge12_Node000001_Node000013"><a xlink:title=" ">
<path fill="none" stroke="#63b8ff" d="M2012.81,-76.47C1909.27,-68.64 1738.31,-53.8 1592.12,-32 1585.56,-31.02 1578.7,-29.85 1571.92,-28.61"/>
<polygon fill="#63b8ff" stroke="#63b8ff" points="1572.59,-25.17 1562.11,-26.74 1571.28,-32.05 1572.59,-25.17"/>
</a>
</g>
</g>
<!-- Node14 -->
<g id="Node000014" class="node">
<title>Node14</title>
<g id="a_Node000014"><a xlink:title=" ">
<polygon fill="#e0e0e0" stroke="#999999" points="1729.38,-26 1600.88,-26 1600.88,-6 1729.38,-6 1729.38,-26"/>
<text text-anchor="middle" x="1665.12" y="-12.5" font-family="Helvetica,sans-Serif" font-size="10.00">javafx.scene.layout.HBox</text>
</a>
</g>
</g>
<!-- Node1&#45;&gt;Node14 -->
<g id="edge13_Node000001_Node000014" class="edge">
<title>Node1&#45;&gt;Node14</title>
<g id="a_edge13_Node000001_Node000014"><a xlink:title=" ">
<path fill="none" stroke="#63b8ff" d="M2012.83,-71.69C1938.12,-62.32 1831.18,-47.97 1738.12,-32 1732.15,-30.97 1725.91,-29.82 1719.71,-28.62"/>
<polygon fill="#63b8ff" stroke="#63b8ff" points="1720.63,-25.24 1710.14,-26.72 1719.27,-32.1 1720.63,-25.24"/>
</a>
</g>
</g>
<!-- Node15 -->
<g id="Node000015" class="node">
<title>Node15</title>
<g id="a_Node000015"><a xlink:title=" ">
<polygon fill="#e0e0e0" stroke="#999999" points="1873.25,-26 1747,-26 1747,-6 1873.25,-6 1873.25,-26"/>
<text text-anchor="middle" x="1810.12" y="-12.5" font-family="Helvetica,sans-Serif" font-size="10.00">javafx.scene.layout.Pane</text>
</a>
</g>
</g>
<!-- Node1&#45;&gt;Node15 -->
<g id="edge14_Node000001_Node000015" class="edge">
<title>Node1&#45;&gt;Node15</title>
<g id="a_edge14_Node000001_Node000015"><a xlink:title=" ">
<path fill="none" stroke="#63b8ff" d="M2037.49,-67.53C1984.48,-55.74 1912.57,-39.77 1863.92,-28.96"/>
<polygon fill="#63b8ff" stroke="#63b8ff" points="1864.69,-25.54 1854.17,-26.79 1863.18,-32.37 1864.69,-25.54"/>
</a>
</g>
</g>
<!-- Node16 -->
<g id="Node000016" class="node">
<title>Node16</title>
<g id="a_Node000016"><a xlink:title=" ">
<polygon fill="#e0e0e0" stroke="#999999" points="2025.38,-26 1890.88,-26 1890.88,-6 2025.38,-6 2025.38,-26"/>
<text text-anchor="middle" x="1958.12" y="-12.5" font-family="Helvetica,sans-Serif" font-size="10.00">javafx.scene.layout.Region</text>
</a>
</g>
</g>
<!-- Node1&#45;&gt;Node16 -->
<g id="edge15_Node000001_Node000016" class="edge">
<title>Node1&#45;&gt;Node16</title>
<g id="a_edge15_Node000001_Node000016"><a xlink:title=" ">
<path fill="none" stroke="#63b8ff" d="M2072.19,-67.53C2047.28,-56.49 2014.05,-41.77 1989.88,-31.07"/>
<polygon fill="#63b8ff" stroke="#63b8ff" points="1991.43,-27.92 1980.87,-27.07 1988.59,-34.32 1991.43,-27.92"/>
</a>
</g>
</g>
<!-- Node17 -->
<g id="Node000017" class="node">
<title>Node17</title>
<g id="a_Node000017"><a xlink:title=" ">
<polygon fill="#e0e0e0" stroke="#999999" points="2171,-26 2043.25,-26 2043.25,-6 2171,-6 2171,-26"/>
<text text-anchor="middle" x="2107.12" y="-12.5" font-family="Helvetica,sans-Serif" font-size="10.00">javafx.scene.layout.VBox</text>
</a>
</g>
</g>
<!-- Node1&#45;&gt;Node17 -->
<g id="edge16_Node000001_Node000017" class="edge">
<title>Node1&#45;&gt;Node17</title>
<g id="a_edge16_Node000001_Node000017"><a xlink:title=" ">
<path fill="none" stroke="#63b8ff" d="M2107.12,-67.69C2107.12,-58.8 2107.12,-47.46 2107.12,-37.77"/>
<polygon fill="#63b8ff" stroke="#63b8ff" points="2110.63,-37.83 2107.13,-27.83 2103.63,-37.83 2110.63,-37.83"/>
</a>
</g>
</g>
<!-- Node18 -->
<g id="Node000018" class="node">
<title>Node18</title>
<g id="a_Node000018"><a xlink:title=" ">
<polygon fill="#e0e0e0" stroke="#999999" points="2311,-26 2189.25,-26 2189.25,-6 2311,-6 2311,-26"/>
<text text-anchor="middle" x="2250.12" y="-12.5" font-family="Helvetica,sans-Serif" font-size="10.00">javafx.scene.paint.Color</text>
</a>
</g>
</g>
<!-- Node1&#45;&gt;Node18 -->
<g id="edge17_Node000001_Node000018" class="edge">
<title>Node1&#45;&gt;Node18</title>
<g id="a_edge17_Node000001_Node000018"><a xlink:title=" ">
<path fill="none" stroke="#63b8ff" d="M2140.65,-67.53C2164.45,-56.54 2196.17,-41.9 2219.33,-31.21"/>
<polygon fill="#63b8ff" stroke="#63b8ff" points="2220.64,-34.46 2228.25,-27.09 2217.71,-28.11 2220.64,-34.46"/>
</a>
</g>
</g>
<!-- Node19 -->
<g id="Node000019" class="node">
<title>Node19</title>
<g id="a_Node000019"><a xlink:title=" ">
<polygon fill="#e0e0e0" stroke="#999999" points="2473.62,-26 2328.62,-26 2328.62,-6 2473.62,-6 2473.62,-26"/>
<text text-anchor="middle" x="2401.12" y="-12.5" font-family="Helvetica,sans-Serif" font-size="10.00">javafx.scene.shape.SVGPath</text>
</a>
</g>
</g>
<!-- Node1&#45;&gt;Node19 -->
<g id="edge18_Node000001_Node000019" class="edge">
<title>Node1&#45;&gt;Node19</title>
<g id="a_edge18_Node000001_Node000019"><a xlink:title=" ">
<path fill="none" stroke="#63b8ff" d="M2176.05,-67.53C2228.53,-55.74 2299.72,-39.77 2347.87,-28.96"/>
<polygon fill="#63b8ff" stroke="#63b8ff" points="2348.52,-32.4 2357.51,-26.79 2346.98,-25.57 2348.52,-32.4"/>
</a>
</g>
</g>
<!-- Node20 -->
<g id="Node000020" class="node">
<title>Node20</title>
<g id="a_Node000020"><a xlink:title=" ">
<polygon fill="#e0e0e0" stroke="#999999" points="2589,-26 2491.25,-26 2491.25,-6 2589,-6 2589,-26"/>
<text text-anchor="middle" x="2540.12" y="-12.5" font-family="Helvetica,sans-Serif" font-size="10.00">javafx.stage.Stage</text>
</a>
</g>
</g>
<!-- Node1&#45;&gt;Node20 -->
<g id="edge19_Node000001_Node000020" class="edge">
<title>Node1&#45;&gt;Node20</title>
<g id="a_edge19_Node000001_Node000020"><a xlink:title=" ">
<path fill="none" stroke="#63b8ff" d="M2201.14,-73.48C2277.52,-64.98 2387.82,-50.93 2483.12,-32 2487.23,-31.18 2491.48,-30.25 2495.72,-29.25"/>
<polygon fill="#63b8ff" stroke="#63b8ff" points="2496.49,-32.66 2505.36,-26.86 2494.81,-25.87 2496.49,-32.66"/>
</a>
</g>
</g>
<!-- Node21 -->
<g id="Node000021" class="node">
<title>Node21</title>
<g id="a_Node000021"><a xlink:title=" ">
<polygon fill="#e0e0e0" stroke="#999999" points="2727.25,-26 2607,-26 2607,-6 2727.25,-6 2727.25,-26"/>
<text text-anchor="middle" x="2667.12" y="-12.5" font-family="Helvetica,sans-Serif" font-size="10.00">javafx.stage.StageStyle</text>
</a>
</g>
</g>
<!-- Node1&#45;&gt;Node21 -->
<g id="edge20_Node000001_Node000021" class="edge">
<title>Node1&#45;&gt;Node21</title>
<g id="a_edge20_Node000001_Node000021"><a xlink:title=" ">
<path fill="none" stroke="#63b8ff" d="M2201.2,-76.34C2300.33,-68.59 2460.82,-53.99 2598.12,-32 2604.03,-31.06 2610.18,-29.93 2616.28,-28.72"/>
<polygon fill="#63b8ff" stroke="#63b8ff" points="2616.56,-32.23 2625.65,-26.78 2615.15,-25.38 2616.56,-32.23"/>
</a>
</g>
</g>
<!-- Node22 -->
<g id="Node000022" class="node">
<title>Node22</title>
<g id="a_Node000022"><a xlink:title=" ">
<polygon fill="#e0e0e0" stroke="#999999" points="2843,-26 2745.25,-26 2745.25,-6 2843,-6 2843,-26"/>
<text text-anchor="middle" x="2794.12" y="-12.5" font-family="Helvetica,sans-Serif" font-size="10.00">javafx.util.Duration</text>
</a>
</g>
</g>
<!-- Node1&#45;&gt;Node22 -->
<g id="edge21_Node000001_Node000022" class="edge">
<title>Node1&#45;&gt;Node22</title>
<g id="a_edge21_Node000001_Node000022"><a xlink:title=" ">
<path fill="none" stroke="#63b8ff" d="M2201.26,-80.42C2324.8,-75.88 2548.01,-63.71 2736.12,-32 2740.8,-31.21 2745.64,-30.23 2750.46,-29.15"/>
<polygon fill="#63b8ff" stroke="#63b8ff" points="2751.14,-32.58 2760.04,-26.84 2749.5,-25.78 2751.14,-32.58"/>
</a>
</g>
</g>
<!-- Node23 -->
<g id="Node000023" class="node">
<title>Node23</title>
<g id="a_Node000023"><a xlink:title=" ">
<polygon fill="#e0e0e0" stroke="#999999" points="3023.62,-32 2860.62,-32 2860.62,0 3023.62,0 3023.62,-32"/>
<text text-anchor="start" x="2868.62" y="-18.5" font-family="Helvetica,sans-Serif" font-size="10.00">edu.umd.cs.findbugs.annotations.</text>
<text text-anchor="middle" x="2942.12" y="-6.5" font-family="Helvetica,sans-Serif" font-size="10.00">SuppressFBWarnings</text>
</a>
</g>
</g>
<!-- Node1&#45;&gt;Node23 -->
<g id="edge22_Node000001_Node000023" class="edge">
<title>Node1&#45;&gt;Node23</title>
<g id="a_edge22_Node000001_Node000023"><a xlink:title=" ">
<path fill="none" stroke="#63b8ff" d="M2201.48,-79.47C2340.93,-73.6 2610.48,-59.77 2848.93,-32.31"/>
<polygon fill="#63b8ff" stroke="#63b8ff" points="2849.22,-35.8 2858.75,-31.17 2848.42,-28.84 2849.22,-35.8"/>
</a>
</g>
</g>
<!-- Node24 -->
<g id="Node000024" class="node">
<title>Node24</title>
<g id="a_Node000024"><a xlink:title=" ">
<polygon fill="#e0e0e0" stroke="#999999" points="3180.62,-26 3041.62,-26 3041.62,-6 3180.62,-6 3180.62,-26"/>
<text text-anchor="middle" x="3111.12" y="-12.5" font-family="Helvetica,sans-Serif" font-size="10.00">fr.softsf.sudokufx.SudoMain</text>
</a>
</g>
</g>
<!-- Node1&#45;&gt;Node24 -->
<g id="edge23_Node000001_Node000024" class="edge">
<title>Node1&#45;&gt;Node24</title>
<g id="a_edge23_Node000001_Node000024"><a xlink:title=" ">
<path fill="none" stroke="#63b8ff" d="M2201.48,-82C2369.36,-79.29 2730.7,-69.23 3033.12,-32 3040.67,-31.07 3048.57,-29.85 3056.34,-28.5"/>
<polygon fill="#63b8ff" stroke="#63b8ff" points="3056.86,-31.96 3066.07,-26.73 3055.61,-25.08 3056.86,-31.96"/>
</a>
</g>
</g>
<!-- Node25 -->
<g id="Node000025" class="node">
<title>Node25</title>
<g id="a_Node000025"><a xlink:title=" ">
<polygon fill="#e0e0e0" stroke="#999999" points="3367.25,-32 3199,-32 3199,0 3367.25,0 3367.25,-32"/>
<text text-anchor="start" x="3207" y="-18.5" font-family="Helvetica,sans-Serif" font-size="10.00">fr.softsf.sudokufx.common.enums.</text>
<text text-anchor="middle" x="3283.12" y="-6.5" font-family="Helvetica,sans-Serif" font-size="10.00">AppIcons</text>
</a>
</g>
</g>
<!-- Node1&#45;&gt;Node25 -->
<g id="edge24_Node000001_Node000025" class="edge">
<title>Node1&#45;&gt;Node25</title>
<g id="a_edge24_Node000001_Node000025"><a xlink:title=" ">
<path fill="none" stroke="#63b8ff" d="M2201.19,-82.14C2387.56,-79.65 2817.03,-70.04 3187.32,-32.22"/>
<polygon fill="#63b8ff" stroke="#63b8ff" points="3187.44,-35.72 3197.03,-31.21 3186.72,-28.76 3187.44,-35.72"/>
</a>
</g>
</g>
<!-- Node26 -->
<g id="Node000026" class="node">
<title>Node26</title>
<g id="a_Node000026"><a xlink:title=" ">
<polygon fill="#e0e0e0" stroke="#999999" points="3572.62,-26 3385.62,-26 3385.62,-6 3572.62,-6 3572.62,-26"/>
<text text-anchor="middle" x="3479.12" y="-12.5" font-family="Helvetica,sans-Serif" font-size="10.00">fr.softsf.sudokufx.common.enums.I18n</text>
</a>
</g>
</g>
<!-- Node1&#45;&gt;Node26 -->
<g id="edge25_Node000001_Node000026" class="edge">
<title>Node1&#45;&gt;Node26</title>
<g id="a_edge25_Node000001_Node000026"><a xlink:title=" ">
<path fill="none" stroke="#63b8ff" d="M2201.27,-82.57C2412.12,-80.89 2938.12,-72.58 3376.12,-32 3387.19,-30.97 3398.88,-29.58 3410.27,-28.04"/>
<polygon fill="#63b8ff" stroke="#63b8ff" points="3410.59,-31.53 3420.01,-26.68 3409.62,-24.6 3410.59,-31.53"/>
</a>
</g>
</g>
<!-- Node27 -->
<g id="Node000027" class="node">
<title>Node27</title>
<g id="a_Node000027"><a xlink:title=" ">
<polygon fill="#e0e0e0" stroke="#999999" points="3772,-32 3590.25,-32 3590.25,0 3772,0 3772,-32"/>
<text text-anchor="start" x="3598.25" y="-18.5" font-family="Helvetica,sans-Serif" font-size="10.00">fr.softsf.sudokufx.common.interfaces.</text>
<text text-anchor="middle" x="3681.12" y="-6.5" font-family="Helvetica,sans-Serif" font-size="10.00">ISplashScreenView</text>
</a>
</g>
</g>
<!-- Node1&#45;&gt;Node27 -->
<g id="edge26_Node000001_Node000027" class="edge">
<title>Node1&#45;&gt;Node27</title>
<g id="a_edge26_Node000001_Node000027"><a xlink:title=" ">
<path fill="none" stroke="#63b8ff" d="M2201.41,-83.52C2433.92,-83.98 3053.43,-80.26 3578.78,-32.25"/>
<polygon fill="#63b8ff" stroke="#63b8ff" points="3578.86,-35.75 3588.5,-31.35 3578.22,-28.78 3578.86,-35.75"/>
</a>
</g>
</g>
<!-- Node28 -->
<g id="Node000028" class="node">
<title>Node28</title>
<g id="a_Node000028"><a xlink:title=" ">
<polygon fill="#e0e0e0" stroke="#999999" points="3918.38,-32 3789.88,-32 3789.88,0 3918.38,0 3918.38,-32"/>
<text text-anchor="start" x="3797.88" y="-18.5" font-family="Helvetica,sans-Serif" font-size="10.00">fr.softsf.sudokufx.config.</text>
<text text-anchor="middle" x="3854.12" y="-6.5" font-family="Helvetica,sans-Serif" font-size="10.00">JVMApplicationProperties</text>
</a>
</g>
</g>
<!-- Node1&#45;&gt;Node28 -->
<g id="edge27_Node000001_Node000028" class="edge">
<title>Node1&#45;&gt;Node28</title>
<g id="a_edge27_Node000001_Node000028"><a xlink:title=" ">
<path fill="none" stroke="#63b8ff" d="M2201.49,-82.26C2504.27,-79.57 3450.19,-68.48 3778.78,-32.11"/>
<polygon fill="#63b8ff" stroke="#63b8ff" points="3778.69,-35.64 3788.23,-31.03 3777.9,-28.68 3778.69,-35.64"/>
</a>
</g>
</g>
<!-- Node29 -->
<g id="Node000029" class="node">
<title>Node29</title>
<g id="a_Node000029"><a xlink:title=" ">
<polygon fill="#e0e0e0" stroke="#999999" points="4118,-32 3936.25,-32 3936.25,0 4118,0 4118,-32"/>
<text text-anchor="start" x="3944.25" y="-18.5" font-family="Helvetica,sans-Serif" font-size="10.00">fr.softsf.sudokufx.common.enums.</text>
<text text-anchor="middle" x="4027.12" y="-6.5" font-family="Helvetica,sans-Serif" font-size="10.00">AppPaths.LOGO_SUDO_PNG_PATH</text>
</a>
</g>
</g>
<!-- Node1&#45;&gt;Node29 -->
<g id="edge28_Node000001_Node000029" class="edge">
<title>Node1&#45;&gt;Node29</title>
<g id="a_edge28_Node000001_Node000029"><a xlink:title=" ">
<path fill="none" stroke="#63b8ff" d="M2201.35,-81.87C2521.17,-77.78 3564.75,-62.49 3924.67,-32.12"/>
<polygon fill="#63b8ff" stroke="#63b8ff" points="3924.73,-35.63 3934.39,-31.28 3924.12,-28.66 3924.73,-35.63"/>
</a>
</g>
</g>
<!-- Node30 -->
<g id="Node000030" class="node">
<title>Node30</title>
<g id="a_Node000030"><a xlink:title=" ">
<polygon fill="#e0e0e0" stroke="#999999" points="4319.75,-32 4136.5,-32 4136.5,0 4319.75,0 4319.75,-32"/>
<text text-anchor="start" x="4144.5" y="-18.5" font-family="Helvetica,sans-Serif" font-size="10.00">fr.softsf.sudokufx.common.enums.</text>
<text text-anchor="middle" x="4228.12" y="-6.5" font-family="Helvetica,sans-Serif" font-size="10.00">AppPaths.RESOURCES_CSS_PATH</text>
</a>
</g>
</g>
<!-- Node1&#45;&gt;Node30 -->
<g id="edge29_Node000001_Node000030" class="edge">
<title>Node1&#45;&gt;Node30</title>
<g id="a_edge29_Node000001_Node000030"><a xlink:title=" ">
<path fill="none" stroke="#63b8ff" d="M2201.36,-82.15C2543.86,-78.83 3723.09,-65.26 4124.88,-32.09"/>
<polygon fill="#63b8ff" stroke="#63b8ff" points="4125.08,-35.59 4134.74,-31.26 4124.48,-28.61 4125.08,-35.59"/>
</a>
</g>
</g>
<!-- Node31 -->
<g id="Node000031" class="node">
<title>Node31</title>
<g id="a_Node000031"><a xlink:title=" ">
<polygon fill="#e0e0e0" stroke="#999999" points="4506.25,-32 4338,-32 4338,0 4506.25,0 4506.25,-32"/>
<text text-anchor="start" x="4346" y="-18.5" font-family="Helvetica,sans-Serif" font-size="10.00">fr.softsf.sudokufx.common.enums.</text>
<text text-anchor="middle" x="4422.12" y="-6.5" font-family="Helvetica,sans-Serif" font-size="10.00">ScreenSize.DISPOSABLE_SIZE</text>
</a>
</g>
</g>
<!-- Node1&#45;&gt;Node31 -->
<g id="edge30_Node000001_Node000031" class="edge">
<title>Node1&#45;&gt;Node31</title>
<g id="a_edge30_Node000001_Node000031"><a xlink:title=" ">
<path fill="none" stroke="#63b8ff" d="M2201.2,-82.56C2565.34,-80.59 3883.53,-70.93 4326.29,-32.16"/>
<polygon fill="#63b8ff" stroke="#63b8ff" points="4326.39,-35.66 4336.03,-31.28 4325.76,-28.69 4326.39,-35.66"/>
</a>
</g>
</g>
<!-- Node32 -->
<g id="Node000032" class="node">
<title>Node32</title>
<g id="a_Node000032"><a xlink:title=" ">
<polygon fill="#e0e0e0" stroke="#999999" points="4661.5,-32 4524.75,-32 4524.75,0 4661.5,0 4661.5,-32"/>
<text text-anchor="start" x="4532.75" y="-18.5" font-family="Helvetica,sans-Serif" font-size="10.00">javafx.scene.layout.Priority.</text>
<text text-anchor="middle" x="4593.12" y="-6.5" font-family="Helvetica,sans-Serif" font-size="10.00">ALWAYS</text>
</a>
</g>
</g>
<!-- Node1&#45;&gt;Node32 -->
<g id="edge31_Node000001_Node000032" class="edge">
<title>Node1&#45;&gt;Node32</title>
<g id="a_edge31_Node000001_Node000032"><a xlink:title=" ">
<path fill="none" stroke="#63b8ff" d="M2201.45,-83.13C2585.28,-83.33 4031.76,-80.84 4513.13,-32.05"/>
<polygon fill="#63b8ff" stroke="#63b8ff" points="4513.23,-35.56 4522.81,-31.04 4512.5,-28.59 4513.23,-35.56"/>
</a>
</g>
</g>
</g>
</svg>

<g id="navigator" transform="translate(0 0)" fill="#404254">
  <rect fill="#f2f5e9" fill-opacity="0.5" stroke="#606060" stroke-width=".5" x="0" y="0" width="60" height="60"/>
  <use id="zoomplus" xlink:href="#zoomPlus" x="17" y="9" onmousedown="handleZoom(evt,'in')"/>
  <use id="zoomminus" xlink:href="#zoomMin" x="42" y="9" onmousedown="handleZoom(evt,'out')"/>
  <use id="reset" xlink:href="#resetDef" x="30" y="36" onmousedown="handleReset()"/>
   <use id="arrowup" xlink:href="#arrowUp" x="0" y="0" onmousedown="handlePan(0,-1)"/>
  <use id="arrowright" xlink:href="#arrowRight" x="0" y="0" onmousedown="handlePan(1,0)"/>
  <use id="arrowdown" xlink:href="#arrowDown" x="0" y="0" onmousedown="handlePan(0,1)"/>
  <use id="arrowleft" xlink:href="#arrowLeft" x="0" y="0" onmousedown="handlePan(-1,0)"/>
</g>
<svg viewBox="0 0 15 15" width="100%" height="30px" preserveAspectRatio="xMaxYMin meet">
 <g id="arrow_out" transform="scale(0.3 0.3)">
  <a xlink:href="_splash_screen_view_8java__incl_org.svg" target="_base">
   <rect id="button" ry="5" rx="5" y="6" x="6" height="38" width="38"
        fill="#f2f5e9" fill-opacity="0.5" stroke="#606060" stroke-width="1.0"/>
   <path id="arrow"
     d="M 11.500037,31.436501 C 11.940474,20.09759 22.043105,11.32322 32.158766,21.979434 L 37.068811,17.246167 C 37.068811,17.246167 37.088388,32 37.088388,32 L 22.160133,31.978069 C 22.160133,31.978069 26.997745,27.140456 26.997745,27.140456 C 18.528582,18.264221 13.291696,25.230495 11.500037,31.436501 z"
     style="fill:#404040;"/>
  </a>
 </g>
</svg>

<style type='text/css'>
<![CDATA[
[data-mouse-over-selected='false'] { opacity: 0.7; }
[data-mouse-over-selected='true']  { opacity: 1.0; }
]]>
</style>
<script type="application/ecmascript"><![CDATA[
document.addEventListener('DOMContentLoaded', (event) => {
  highlightEdges();
  highlightAdjacentNodes();
});
]]></script>
</svg>
