<?xml version="1.0" encoding="UTF-8" standalone="no"?>
<!DOCTYPE svg PUBLIC "-//W3C//DTD SVG 1.1//EN"
 "http://www.w3.org/Graphics/SVG/1.1/DTD/svg11.dtd">
<!-- Generated by graphviz version 12.2.1 (20241206.2353)
 -->
<!-- Title: src/main/java/fr/softsf/sudokufx/view/SplashScreenView.java Pages: 1 -->
<!--zoomable 108 -->

<svg id="main" version="1.1" xmlns="http://www.w3.org/2000/svg" xmlns:xlink="http://www.w3.org/1999/xlink" xml:space="preserve" onload="init(evt)">

<style type="text/css"><![CDATA[
.node, .edge {opacity: 0.7;}
.node.selected, .edge.selected {opacity: 1;}
.edge:hover path { stroke: red; }
.edge:hover polygon { stroke: red; fill: red; }
]]></style>

<defs>
  <circle id="rim" cx="0" cy="0" r="7"/>
  <circle id="rim2" cx="0" cy="0" r="3.5"/>
  <g id="zoomPlus">
    <use xlink:href="#rim" fill="#404040"><set attributeName="fill" to="#808080" begin="zoomplus.mouseover" end="zoomplus.mouseout"/></use>
    <path d="M-4,0h8M0,-4v8" fill="none" stroke="white" stroke-width="1.5" pointer-events="none"/>
  </g>
  <g id="zoomMin">
    <use xlink:href="#rim" fill="#404040"><set attributeName="fill" to="#808080" begin="zoomminus.mouseover" end="zoomminus.mouseout"/></use>
    <path d="M-4,0h8" fill="none" stroke="white" stroke-width="1.5" pointer-events="none"/>
  </g>
  <g id="arrowUp" transform="translate(30 24)">
    <use xlink:href="#rim"/>
    <path pointer-events="none" fill="none" stroke="white" stroke-width="1.5" d="M0,-3.0v7 M-2.5,-0.5L0,-3.0L2.5,-0.5"/>
  </g>
  <g id="arrowRight" transform="rotate(90) translate(36 -43)">
    <use xlink:href="#rim"/>
    <path pointer-events="none" fill="none" stroke="white" stroke-width="1.5" d="M0,-3.0v7 M-2.5,-0.5L0,-3.0L2.5,-0.5"/>
  </g>
  <g id="arrowDown" transform="rotate(180) translate(-30 -48)">
    <use xlink:href="#rim"/>
    <path pointer-events="none" fill="none" stroke="white" stroke-width="1.5" d="M0,-3.0v7 M-2.5,-0.5L0,-3.0L2.5,-0.5"/>
  </g>
  <g id="arrowLeft" transform="rotate(270) translate(-36 17)">
    <use xlink:href="#rim"/>
    <path pointer-events="none" fill="none" stroke="white" stroke-width="1.5" d="M0,-3.0v7 M-2.5,-0.5L0,-3.0L2.5,-0.5"/>
  </g>
  <g id="resetDef">
    <use xlink:href="#rim2" fill="#404040"><set attributeName="fill" to="#808080" begin="reset.mouseover" end="reset.mouseout"/></use>
  </g>
</defs>
<script type="application/ecmascript">
var viewWidth = 4375;
var viewHeight = 108;
var sectionId = 'dynsection-0';
</script>
<script type="application/ecmascript" xlink:href="svg.min.js"/>
<svg id="graph" class="graph">
<g id="viewport">
<title>src/main/java/fr/softsf/sudokufx/view/SplashScreenView.java</title>
<!-- Node1 -->
<g id="Node000001" class="node">
<title>Node1</title>
<g id="a_Node000001"><a xlink:title=" ">
<polygon fill="#999999" stroke="#666666" points="2093,-100 1905.25,-100 1905.25,-68 2093,-68 2093,-100"/>
<text text-anchor="start" x="1913.25" y="-86.5" font-family="Helvetica,sans-Serif" font-size="10.00">src/main/java/fr/softsf</text>
<text text-anchor="middle" x="1999.12" y="-74.5" font-family="Helvetica,sans-Serif" font-size="10.00">/sudokufx/view/SplashScreenView.java</text>
</a>
</g>
</g>
<!-- Node2 -->
<g id="Node000002" class="node">
<title>Node2</title>
<g id="a_Node000002"><a xlink:title=" ">
<polygon fill="#e0e0e0" stroke="#999999" points="78.25,-26 0,-26 0,-6 78.25,-6 78.25,-26"/>
<text text-anchor="middle" x="39.12" y="-12.5" font-family="Helvetica,sans-Serif" font-size="10.00">java.time.Year</text>
</a>
</g>
</g>
<!-- Node1&#45;&gt;Node2 -->
<g id="edge1_Node000001_Node000002" class="edge">
<title>Node1&#45;&gt;Node2</title>
<g id="a_edge1_Node000001_Node000002"><a xlink:title=" ">
<path fill="none" stroke="#63b8ff" d="M1904.87,-82.01C1544.76,-78.03 266.93,-61.9 87.12,-32 83.31,-31.36 79.37,-30.5 75.47,-29.5"/>
<polygon fill="#63b8ff" stroke="#63b8ff" points="76.75,-26.23 66.17,-26.85 74.82,-32.96 76.75,-26.23"/>
</a>
</g>
</g>
<!-- Node3 -->
<g id="Node000003" class="node">
<title>Node3</title>
<g id="a_Node000003"><a xlink:title=" ">
<polygon fill="#e0e0e0" stroke="#999999" points="182.38,-26 95.88,-26 95.88,-6 182.38,-6 182.38,-26"/>
<text text-anchor="middle" x="139.12" y="-12.5" font-family="Helvetica,sans-Serif" font-size="10.00">java.util.Objects</text>
</a>
</g>
</g>
<!-- Node1&#45;&gt;Node3 -->
<g id="edge2_Node000001_Node000003" class="edge">
<title>Node1&#45;&gt;Node3</title>
<g id="a_edge2_Node000001_Node000003"><a xlink:title=" ">
<path fill="none" stroke="#63b8ff" d="M1904.76,-83.48C1582.37,-84.62 526.12,-84.18 191.12,-32 186.81,-31.33 182.35,-30.41 177.93,-29.35"/>
<polygon fill="#63b8ff" stroke="#63b8ff" points="179.2,-26.06 168.63,-26.88 177.4,-32.83 179.2,-26.06"/>
</a>
</g>
</g>
<!-- Node4 -->
<g id="Node000004" class="node">
<title>Node4</title>
<g id="a_Node000004"><a xlink:title=" ">
<polygon fill="#e0e0e0" stroke="#999999" points="334,-26 200.25,-26 200.25,-6 334,-6 334,-26"/>
<text text-anchor="middle" x="267.12" y="-12.5" font-family="Helvetica,sans-Serif" font-size="10.00">javafx.animation.Animation</text>
</a>
</g>
</g>
<!-- Node1&#45;&gt;Node4 -->
<g id="edge3_Node000001_Node000004" class="edge">
<title>Node1&#45;&gt;Node4</title>
<g id="a_edge3_Node000001_Node000004"><a xlink:title=" ">
<path fill="none" stroke="#63b8ff" d="M1904.93,-82.17C1600.97,-79.15 648.17,-67.07 342.12,-32 334.77,-31.16 327.05,-29.97 319.49,-28.63"/>
<polygon fill="#63b8ff" stroke="#63b8ff" points="320.15,-25.19 309.68,-26.78 318.86,-32.07 320.15,-25.19"/>
</a>
</g>
</g>
<!-- Node5 -->
<g id="Node000005" class="node">
<title>Node5</title>
<g id="a_Node000005"><a xlink:title=" ">
<polygon fill="#e0e0e0" stroke="#999999" points="490.62,-26 351.62,-26 351.62,-6 490.62,-6 490.62,-26"/>
<text text-anchor="middle" x="421.12" y="-12.5" font-family="Helvetica,sans-Serif" font-size="10.00">javafx.animation.Interpolator</text>
</a>
</g>
</g>
<!-- Node1&#45;&gt;Node5 -->
<g id="edge4_Node000001_Node000005" class="edge">
<title>Node1&#45;&gt;Node5</title>
<g id="a_edge4_Node000001_Node000005"><a xlink:title=" ">
<path fill="none" stroke="#63b8ff" d="M1904.81,-81.69C1620.43,-77.43 774.13,-62.49 500.12,-32 492.11,-31.11 483.69,-29.86 475.46,-28.45"/>
<polygon fill="#63b8ff" stroke="#63b8ff" points="476.36,-25.06 465.9,-26.73 475.12,-31.94 476.36,-25.06"/>
</a>
</g>
</g>
<!-- Node6 -->
<g id="Node000006" class="node">
<title>Node6</title>
<g id="a_Node000006"><a xlink:title=" ">
<polygon fill="#e0e0e0" stroke="#999999" points="671.25,-26 509,-26 509,-6 671.25,-6 671.25,-26"/>
<text text-anchor="middle" x="590.12" y="-12.5" font-family="Helvetica,sans-Serif" font-size="10.00">javafx.animation.RotateTransition</text>
</a>
</g>
</g>
<!-- Node1&#45;&gt;Node6 -->
<g id="edge5_Node000001_Node000006" class="edge">
<title>Node1&#45;&gt;Node6</title>
<g id="a_edge5_Node000001_Node000006"><a xlink:title=" ">
<path fill="none" stroke="#63b8ff" d="M1904.88,-83.44C1688.09,-83.56 1137.5,-78.77 680.12,-32 670.72,-31.04 660.82,-29.71 651.15,-28.24"/>
<polygon fill="#63b8ff" stroke="#63b8ff" points="651.88,-24.81 641.45,-26.7 650.78,-31.72 651.88,-24.81"/>
</a>
</g>
</g>
<!-- Node7 -->
<g id="Node000007" class="node">
<title>Node7</title>
<g id="a_Node000007"><a xlink:title=" ">
<polygon fill="#e0e0e0" stroke="#999999" points="794.75,-26 689.5,-26 689.5,-6 794.75,-6 794.75,-26"/>
<text text-anchor="middle" x="742.12" y="-12.5" font-family="Helvetica,sans-Serif" font-size="10.00">javafx.geometry.Pos</text>
</a>
</g>
</g>
<!-- Node1&#45;&gt;Node7 -->
<g id="edge6_Node000001_Node000007" class="edge">
<title>Node1&#45;&gt;Node7</title>
<g id="a_edge6_Node000001_Node000007"><a xlink:title=" ">
<path fill="none" stroke="#63b8ff" d="M1904.86,-81.35C1661.43,-76.7 1016.04,-61.87 804.12,-32 798.51,-31.21 792.66,-30.13 786.9,-28.92"/>
<polygon fill="#63b8ff" stroke="#63b8ff" points="788.01,-25.58 777.48,-26.79 786.46,-32.41 788.01,-25.58"/>
</a>
</g>
</g>
<!-- Node8 -->
<g id="Node000008" class="node">
<title>Node8</title>
<g id="a_Node000008"><a xlink:title=" ">
<polygon fill="#e0e0e0" stroke="#999999" points="917,-26 813.25,-26 813.25,-6 917,-6 917,-26"/>
<text text-anchor="middle" x="865.12" y="-12.5" font-family="Helvetica,sans-Serif" font-size="10.00">javafx.scene.Cursor</text>
</a>
</g>
</g>
<!-- Node1&#45;&gt;Node8 -->
<g id="edge7_Node000001_Node000008" class="edge">
<title>Node1&#45;&gt;Node8</title>
<g id="a_edge7_Node000001_Node000008"><a xlink:title=" ">
<path fill="none" stroke="#63b8ff" d="M1905.12,-80.87C1679.78,-75.38 1113.68,-59.25 926.12,-32 920.74,-31.22 915.14,-30.17 909.61,-28.99"/>
<polygon fill="#63b8ff" stroke="#63b8ff" points="910.46,-25.6 899.93,-26.77 908.89,-32.42 910.46,-25.6"/>
</a>
</g>
</g>
<!-- Node9 -->
<g id="Node000009" class="node">
<title>Node9</title>
<g id="a_Node000009"><a xlink:title=" ">
<polygon fill="#e0e0e0" stroke="#999999" points="1037.25,-26 935,-26 935,-6 1037.25,-6 1037.25,-26"/>
<text text-anchor="middle" x="986.12" y="-12.5" font-family="Helvetica,sans-Serif" font-size="10.00">javafx.scene.Scene</text>
</a>
</g>
</g>
<!-- Node1&#45;&gt;Node9 -->
<g id="edge8_Node000001_Node000009" class="edge">
<title>Node1&#45;&gt;Node9</title>
<g id="a_edge8_Node000001_Node000009"><a xlink:title=" ">
<path fill="none" stroke="#63b8ff" d="M1904.85,-83.91C1733.07,-84.25 1358.05,-78.89 1046.12,-32 1040.89,-31.21 1035.45,-30.17 1030.07,-29.01"/>
<polygon fill="#63b8ff" stroke="#63b8ff" points="1031.23,-25.68 1020.69,-26.82 1029.64,-32.5 1031.23,-25.68"/>
</a>
</g>
</g>
<!-- Node10 -->
<g id="Node000010" class="node">
<title>Node10</title>
<g id="a_Node000010"><a xlink:title=" ">
<polygon fill="#e0e0e0" stroke="#999999" points="1185.12,-26 1055.12,-26 1055.12,-6 1185.12,-6 1185.12,-26"/>
<text text-anchor="middle" x="1120.12" y="-12.5" font-family="Helvetica,sans-Serif" font-size="10.00">javafx.scene.control.Label</text>
</a>
</g>
</g>
<!-- Node1&#45;&gt;Node10 -->
<g id="edge9_Node000001_Node000010" class="edge">
<title>Node1&#45;&gt;Node10</title>
<g id="a_edge9_Node000001_Node000010"><a xlink:title=" ">
<path fill="none" stroke="#63b8ff" d="M1904.84,-81.2C1754.09,-77.39 1449.74,-65.84 1194.12,-32 1187.3,-31.1 1180.16,-29.93 1173.12,-28.65"/>
<polygon fill="#63b8ff" stroke="#63b8ff" points="1173.8,-25.22 1163.32,-26.78 1172.48,-32.09 1173.8,-25.22"/>
</a>
</g>
</g>
<!-- Node11 -->
<g id="Node000011" class="node">
<title>Node11</title>
<g id="a_Node000011"><a xlink:title=" ">
<polygon fill="#e0e0e0" stroke="#999999" points="1325.38,-32 1202.88,-32 1202.88,0 1325.38,0 1325.38,-32"/>
<text text-anchor="start" x="1210.88" y="-18.5" font-family="Helvetica,sans-Serif" font-size="10.00">javafx.scene.effect.Drop</text>
<text text-anchor="middle" x="1264.12" y="-6.5" font-family="Helvetica,sans-Serif" font-size="10.00">Shadow</text>
</a>
</g>
</g>
<!-- Node1&#45;&gt;Node11 -->
<g id="edge10_Node000001_Node000011" class="edge">
<title>Node1&#45;&gt;Node11</title>
<g id="a_edge10_Node000001_Node000011"><a xlink:title=" ">
<path fill="none" stroke="#63b8ff" d="M1904.96,-79.67C1778.14,-74.31 1545.34,-61.41 1336.78,-32.1"/>
<polygon fill="#63b8ff" stroke="#63b8ff" points="1337.5,-28.66 1327.11,-30.72 1336.52,-35.59 1337.5,-28.66"/>
</a>
</g>
</g>
<!-- Node12 -->
<g id="Node000012" class="node">
<title>Node12</title>
<g id="a_Node000012"><a xlink:title=" ">
<polygon fill="#e0e0e0" stroke="#999999" points="1474.5,-26 1343.75,-26 1343.75,-6 1474.5,-6 1474.5,-26"/>
<text text-anchor="middle" x="1409.12" y="-12.5" font-family="Helvetica,sans-Serif" font-size="10.00">javafx.scene.image.Image</text>
</a>
</g>
</g>
<!-- Node1&#45;&gt;Node12 -->
<g id="edge11_Node000001_Node000012" class="edge">
<title>Node1&#45;&gt;Node12</title>
<g id="a_edge11_Node000001_Node000012"><a xlink:title=" ">
<path fill="none" stroke="#63b8ff" d="M1904.81,-76.47C1801.27,-68.64 1630.31,-53.8 1484.12,-32 1477.56,-31.02 1470.7,-29.85 1463.92,-28.61"/>
<polygon fill="#63b8ff" stroke="#63b8ff" points="1464.59,-25.17 1454.11,-26.74 1463.28,-32.05 1464.59,-25.17"/>
</a>
</g>
</g>
<!-- Node13 -->
<g id="Node000013" class="node">
<title>Node13</title>
<g id="a_Node000013"><a xlink:title=" ">
<polygon fill="#e0e0e0" stroke="#999999" points="1621.38,-26 1492.88,-26 1492.88,-6 1621.38,-6 1621.38,-26"/>
<text text-anchor="middle" x="1557.12" y="-12.5" font-family="Helvetica,sans-Serif" font-size="10.00">javafx.scene.layout.HBox</text>
</a>
</g>
</g>
<!-- Node1&#45;&gt;Node13 -->
<g id="edge12_Node000001_Node000013" class="edge">
<title>Node1&#45;&gt;Node13</title>
<g id="a_edge12_Node000001_Node000013"><a xlink:title=" ">
<path fill="none" stroke="#63b8ff" d="M1904.83,-71.69C1830.12,-62.32 1723.18,-47.97 1630.12,-32 1624.15,-30.97 1617.91,-29.82 1611.71,-28.62"/>
<polygon fill="#63b8ff" stroke="#63b8ff" points="1612.63,-25.24 1602.14,-26.72 1611.27,-32.1 1612.63,-25.24"/>
</a>
</g>
</g>
<!-- Node14 -->
<g id="Node000014" class="node">
<title>Node14</title>
<g id="a_Node000014"><a xlink:title=" ">
<polygon fill="#e0e0e0" stroke="#999999" points="1765.25,-26 1639,-26 1639,-6 1765.25,-6 1765.25,-26"/>
<text text-anchor="middle" x="1702.12" y="-12.5" font-family="Helvetica,sans-Serif" font-size="10.00">javafx.scene.layout.Pane</text>
</a>
</g>
</g>
<!-- Node1&#45;&gt;Node14 -->
<g id="edge13_Node000001_Node000014" class="edge">
<title>Node1&#45;&gt;Node14</title>
<g id="a_edge13_Node000001_Node000014"><a xlink:title=" ">
<path fill="none" stroke="#63b8ff" d="M1929.49,-67.53C1876.48,-55.74 1804.57,-39.77 1755.92,-28.96"/>
<polygon fill="#63b8ff" stroke="#63b8ff" points="1756.69,-25.54 1746.17,-26.79 1755.18,-32.37 1756.69,-25.54"/>
</a>
</g>
</g>
<!-- Node15 -->
<g id="Node000015" class="node">
<title>Node15</title>
<g id="a_Node000015"><a xlink:title=" ">
<polygon fill="#e0e0e0" stroke="#999999" points="1917.38,-26 1782.88,-26 1782.88,-6 1917.38,-6 1917.38,-26"/>
<text text-anchor="middle" x="1850.12" y="-12.5" font-family="Helvetica,sans-Serif" font-size="10.00">javafx.scene.layout.Region</text>
</a>
</g>
</g>
<!-- Node1&#45;&gt;Node15 -->
<g id="edge14_Node000001_Node000015" class="edge">
<title>Node1&#45;&gt;Node15</title>
<g id="a_edge14_Node000001_Node000015"><a xlink:title=" ">
<path fill="none" stroke="#63b8ff" d="M1964.19,-67.53C1939.28,-56.49 1906.05,-41.77 1881.88,-31.07"/>
<polygon fill="#63b8ff" stroke="#63b8ff" points="1883.43,-27.92 1872.87,-27.07 1880.59,-34.32 1883.43,-27.92"/>
</a>
</g>
</g>
<!-- Node16 -->
<g id="Node000016" class="node">
<title>Node16</title>
<g id="a_Node000016"><a xlink:title=" ">
<polygon fill="#e0e0e0" stroke="#999999" points="2063,-26 1935.25,-26 1935.25,-6 2063,-6 2063,-26"/>
<text text-anchor="middle" x="1999.12" y="-12.5" font-family="Helvetica,sans-Serif" font-size="10.00">javafx.scene.layout.VBox</text>
</a>
</g>
</g>
<!-- Node1&#45;&gt;Node16 -->
<g id="edge15_Node000001_Node000016" class="edge">
<title>Node1&#45;&gt;Node16</title>
<g id="a_edge15_Node000001_Node000016"><a xlink:title=" ">
<path fill="none" stroke="#63b8ff" d="M1999.12,-67.69C1999.12,-58.8 1999.12,-47.46 1999.12,-37.77"/>
<polygon fill="#63b8ff" stroke="#63b8ff" points="2002.63,-37.83 1999.13,-27.83 1995.63,-37.83 2002.63,-37.83"/>
</a>
</g>
</g>
<!-- Node17 -->
<g id="Node000017" class="node">
<title>Node17</title>
<g id="a_Node000017"><a xlink:title=" ">
<polygon fill="#e0e0e0" stroke="#999999" points="2203,-26 2081.25,-26 2081.25,-6 2203,-6 2203,-26"/>
<text text-anchor="middle" x="2142.12" y="-12.5" font-family="Helvetica,sans-Serif" font-size="10.00">javafx.scene.paint.Color</text>
</a>
</g>
</g>
<!-- Node1&#45;&gt;Node17 -->
<g id="edge16_Node000001_Node000017" class="edge">
<title>Node1&#45;&gt;Node17</title>
<g id="a_edge16_Node000001_Node000017"><a xlink:title=" ">
<path fill="none" stroke="#63b8ff" d="M2032.65,-67.53C2056.45,-56.54 2088.17,-41.9 2111.33,-31.21"/>
<polygon fill="#63b8ff" stroke="#63b8ff" points="2112.64,-34.46 2120.25,-27.09 2109.71,-28.11 2112.64,-34.46"/>
</a>
</g>
</g>
<!-- Node18 -->
<g id="Node000018" class="node">
<title>Node18</title>
<g id="a_Node000018"><a xlink:title=" ">
<polygon fill="#e0e0e0" stroke="#999999" points="2365.62,-26 2220.62,-26 2220.62,-6 2365.62,-6 2365.62,-26"/>
<text text-anchor="middle" x="2293.12" y="-12.5" font-family="Helvetica,sans-Serif" font-size="10.00">javafx.scene.shape.SVGPath</text>
</a>
</g>
</g>
<!-- Node1&#45;&gt;Node18 -->
<g id="edge17_Node000001_Node000018" class="edge">
<title>Node1&#45;&gt;Node18</title>
<g id="a_edge17_Node000001_Node000018"><a xlink:title=" ">
<path fill="none" stroke="#63b8ff" d="M2068.05,-67.53C2120.53,-55.74 2191.72,-39.77 2239.87,-28.96"/>
<polygon fill="#63b8ff" stroke="#63b8ff" points="2240.52,-32.4 2249.51,-26.79 2238.98,-25.57 2240.52,-32.4"/>
</a>
</g>
</g>
<!-- Node19 -->
<g id="Node000019" class="node">
<title>Node19</title>
<g id="a_Node000019"><a xlink:title=" ">
<polygon fill="#e0e0e0" stroke="#999999" points="2481,-26 2383.25,-26 2383.25,-6 2481,-6 2481,-26"/>
<text text-anchor="middle" x="2432.12" y="-12.5" font-family="Helvetica,sans-Serif" font-size="10.00">javafx.stage.Stage</text>
</a>
</g>
</g>
<!-- Node1&#45;&gt;Node19 -->
<g id="edge18_Node000001_Node000019" class="edge">
<title>Node1&#45;&gt;Node19</title>
<g id="a_edge18_Node000001_Node000019"><a xlink:title=" ">
<path fill="none" stroke="#63b8ff" d="M2093.14,-73.48C2169.52,-64.98 2279.82,-50.93 2375.12,-32 2379.23,-31.18 2383.48,-30.25 2387.72,-29.25"/>
<polygon fill="#63b8ff" stroke="#63b8ff" points="2388.49,-32.66 2397.36,-26.86 2386.81,-25.87 2388.49,-32.66"/>
</a>
</g>
</g>
<!-- Node20 -->
<g id="Node000020" class="node">
<title>Node20</title>
<g id="a_Node000020"><a xlink:title=" ">
<polygon fill="#e0e0e0" stroke="#999999" points="2619.25,-26 2499,-26 2499,-6 2619.25,-6 2619.25,-26"/>
<text text-anchor="middle" x="2559.12" y="-12.5" font-family="Helvetica,sans-Serif" font-size="10.00">javafx.stage.StageStyle</text>
</a>
</g>
</g>
<!-- Node1&#45;&gt;Node20 -->
<g id="edge19_Node000001_Node000020" class="edge">
<title>Node1&#45;&gt;Node20</title>
<g id="a_edge19_Node000001_Node000020"><a xlink:title=" ">
<path fill="none" stroke="#63b8ff" d="M2093.2,-76.34C2192.33,-68.59 2352.82,-53.99 2490.12,-32 2496.03,-31.06 2502.18,-29.93 2508.28,-28.72"/>
<polygon fill="#63b8ff" stroke="#63b8ff" points="2508.56,-32.23 2517.65,-26.78 2507.15,-25.38 2508.56,-32.23"/>
</a>
</g>
</g>
<!-- Node21 -->
<g id="Node000021" class="node">
<title>Node21</title>
<g id="a_Node000021"><a xlink:title=" ">
<polygon fill="#e0e0e0" stroke="#999999" points="2735,-26 2637.25,-26 2637.25,-6 2735,-6 2735,-26"/>
<text text-anchor="middle" x="2686.12" y="-12.5" font-family="Helvetica,sans-Serif" font-size="10.00">javafx.util.Duration</text>
</a>
</g>
</g>
<!-- Node1&#45;&gt;Node21 -->
<g id="edge20_Node000001_Node000021" class="edge">
<title>Node1&#45;&gt;Node21</title>
<g id="a_edge20_Node000001_Node000021"><a xlink:title=" ">
<path fill="none" stroke="#63b8ff" d="M2093.26,-80.42C2216.8,-75.88 2440.01,-63.71 2628.12,-32 2632.8,-31.21 2637.64,-30.23 2642.46,-29.15"/>
<polygon fill="#63b8ff" stroke="#63b8ff" points="2643.14,-32.58 2652.04,-26.84 2641.5,-25.78 2643.14,-32.58"/>
</a>
</g>
</g>
<!-- Node22 -->
<g id="Node000022" class="node">
<title>Node22</title>
<g id="a_Node000022"><a xlink:title=" ">
<polygon fill="#e0e0e0" stroke="#999999" points="2915.62,-32 2752.62,-32 2752.62,0 2915.62,0 2915.62,-32"/>
<text text-anchor="start" x="2760.62" y="-18.5" font-family="Helvetica,sans-Serif" font-size="10.00">edu.umd.cs.findbugs.annotations.</text>
<text text-anchor="middle" x="2834.12" y="-6.5" font-family="Helvetica,sans-Serif" font-size="10.00">SuppressFBWarnings</text>
</a>
</g>
</g>
<!-- Node1&#45;&gt;Node22 -->
<g id="edge21_Node000001_Node000022" class="edge">
<title>Node1&#45;&gt;Node22</title>
<g id="a_edge21_Node000001_Node000022"><a xlink:title=" ">
<path fill="none" stroke="#63b8ff" d="M2093.48,-79.47C2232.93,-73.6 2502.48,-59.77 2740.93,-32.31"/>
<polygon fill="#63b8ff" stroke="#63b8ff" points="2741.22,-35.8 2750.75,-31.17 2740.42,-28.84 2741.22,-35.8"/>
</a>
</g>
</g>
<!-- Node23 -->
<g id="Node000023" class="node">
<title>Node23</title>
<g id="a_Node000023"><a xlink:title=" ">
<polygon fill="#e0e0e0" stroke="#999999" points="3072.62,-26 2933.62,-26 2933.62,-6 3072.62,-6 3072.62,-26"/>
<text text-anchor="middle" x="3003.12" y="-12.5" font-family="Helvetica,sans-Serif" font-size="10.00">fr.softsf.sudokufx.SudoMain</text>
</a>
</g>
</g>
<!-- Node1&#45;&gt;Node23 -->
<g id="edge22_Node000001_Node000023" class="edge">
<title>Node1&#45;&gt;Node23</title>
<g id="a_edge22_Node000001_Node000023"><a xlink:title=" ">
<path fill="none" stroke="#63b8ff" d="M2093.48,-82C2261.36,-79.29 2622.7,-69.23 2925.12,-32 2932.67,-31.07 2940.57,-29.85 2948.34,-28.5"/>
<polygon fill="#63b8ff" stroke="#63b8ff" points="2948.86,-31.96 2958.07,-26.73 2947.61,-25.08 2948.86,-31.96"/>
</a>
</g>
</g>
<!-- Node24 -->
<g id="Node000024" class="node">
<title>Node24</title>
<g id="a_Node000024"><a xlink:title=" ">
<polygon fill="#e0e0e0" stroke="#999999" points="3277.62,-26 3090.62,-26 3090.62,-6 3277.62,-6 3277.62,-26"/>
<text text-anchor="middle" x="3184.12" y="-12.5" font-family="Helvetica,sans-Serif" font-size="10.00">fr.softsf.sudokufx.common.enums.I18n</text>
</a>
</g>
</g>
<!-- Node1&#45;&gt;Node24 -->
<g id="edge23_Node000001_Node000024" class="edge">
<title>Node1&#45;&gt;Node24</title>
<g id="a_edge23_Node000001_Node000024"><a xlink:title=" ">
<path fill="none" stroke="#63b8ff" d="M2093.15,-81.7C2281.33,-78.41 2717.49,-67.31 3082.12,-32 3092.84,-30.96 3104.14,-29.59 3115.17,-28.09"/>
<polygon fill="#63b8ff" stroke="#63b8ff" points="3115.61,-31.56 3125.03,-26.7 3114.64,-24.63 3115.61,-31.56"/>
</a>
</g>
</g>
<!-- Node25 -->
<g id="Node000025" class="node">
<title>Node25</title>
<g id="a_Node000025"><a xlink:title=" ">
<polygon fill="#e0e0e0" stroke="#999999" points="3477,-32 3295.25,-32 3295.25,0 3477,0 3477,-32"/>
<text text-anchor="start" x="3303.25" y="-18.5" font-family="Helvetica,sans-Serif" font-size="10.00">fr.softsf.sudokufx.common.interfaces.</text>
<text text-anchor="middle" x="3386.12" y="-6.5" font-family="Helvetica,sans-Serif" font-size="10.00">ISplashScreenView</text>
</a>
</g>
</g>
<!-- Node1&#45;&gt;Node25 -->
<g id="edge24_Node000001_Node000025" class="edge">
<title>Node1&#45;&gt;Node25</title>
<g id="a_edge24_Node000001_Node000025"><a xlink:title=" ">
<path fill="none" stroke="#63b8ff" d="M2093.5,-82.84C2304.96,-81.7 2832.99,-74.54 3283.7,-32.26"/>
<polygon fill="#63b8ff" stroke="#63b8ff" points="3283.87,-35.76 3293.5,-31.34 3283.21,-28.79 3283.87,-35.76"/>
</a>
</g>
</g>
<!-- Node26 -->
<g id="Node000026" class="node">
<title>Node26</title>
<g id="a_Node000026"><a xlink:title=" ">
<polygon fill="#e0e0e0" stroke="#999999" points="3623.38,-32 3494.88,-32 3494.88,0 3623.38,0 3623.38,-32"/>
<text text-anchor="start" x="3502.88" y="-18.5" font-family="Helvetica,sans-Serif" font-size="10.00">fr.softsf.sudokufx.config.</text>
<text text-anchor="middle" x="3559.12" y="-6.5" font-family="Helvetica,sans-Serif" font-size="10.00">JVMApplicationProperties</text>
</a>
</g>
</g>
<!-- Node1&#45;&gt;Node26 -->
<g id="edge25_Node000001_Node000026" class="edge">
<title>Node1&#45;&gt;Node26</title>
<g id="a_edge25_Node000001_Node000026"><a xlink:title=" ">
<path fill="none" stroke="#63b8ff" d="M2093.46,-81.84C2372.63,-78.09 3192.78,-64.66 3483.37,-32.16"/>
<polygon fill="#63b8ff" stroke="#63b8ff" points="3483.7,-35.64 3493.23,-31.02 3482.9,-28.69 3483.7,-35.64"/>
</a>
</g>
</g>
<!-- Node27 -->
<g id="Node000027" class="node">
<title>Node27</title>
<g id="a_Node000027"><a xlink:title=" ">
<polygon fill="#e0e0e0" stroke="#999999" points="3823,-32 3641.25,-32 3641.25,0 3823,0 3823,-32"/>
<text text-anchor="start" x="3649.25" y="-18.5" font-family="Helvetica,sans-Serif" font-size="10.00">fr.softsf.sudokufx.common.enums.</text>
<text text-anchor="middle" x="3732.12" y="-6.5" font-family="Helvetica,sans-Serif" font-size="10.00">AppPaths.LOGO_SUDO_PNG_PATH</text>
</a>
</g>
</g>
<!-- Node1&#45;&gt;Node27 -->
<g id="edge26_Node000001_Node000027" class="edge">
<title>Node1&#45;&gt;Node27</title>
<g id="a_edge26_Node000001_Node000027"><a xlink:title=" ">
<path fill="none" stroke="#63b8ff" d="M2093.47,-81.51C2391.03,-76.6 3308.45,-59.66 3629.72,-32.12"/>
<polygon fill="#63b8ff" stroke="#63b8ff" points="3629.73,-35.63 3639.38,-31.27 3629.12,-28.66 3629.73,-35.63"/>
</a>
</g>
</g>
<!-- Node28 -->
<g id="Node000028" class="node">
<title>Node28</title>
<g id="a_Node000028"><a xlink:title=" ">
<polygon fill="#e0e0e0" stroke="#999999" points="4024.75,-32 3841.5,-32 3841.5,0 4024.75,0 4024.75,-32"/>
<text text-anchor="start" x="3849.5" y="-18.5" font-family="Helvetica,sans-Serif" font-size="10.00">fr.softsf.sudokufx.common.enums.</text>
<text text-anchor="middle" x="3933.12" y="-6.5" font-family="Helvetica,sans-Serif" font-size="10.00">AppPaths.RESOURCES_CSS_PATH</text>
</a>
</g>
</g>
<!-- Node1&#45;&gt;Node28 -->
<g id="edge27_Node000001_Node000028" class="edge">
<title>Node1&#45;&gt;Node28</title>
<g id="a_edge27_Node000001_Node000028"><a xlink:title=" ">
<path fill="none" stroke="#63b8ff" d="M2093.46,-81.87C2414.89,-77.78 3466.92,-62.44 3829.93,-32.09"/>
<polygon fill="#63b8ff" stroke="#63b8ff" points="3830.08,-35.59 3839.74,-31.25 3829.48,-28.62 3830.08,-35.59"/>
</a>
</g>
</g>
<!-- Node29 -->
<g id="Node000029" class="node">
<title>Node29</title>
<g id="a_Node000029"><a xlink:title=" ">
<polygon fill="#e0e0e0" stroke="#999999" points="4211.25,-32 4043,-32 4043,0 4211.25,0 4211.25,-32"/>
<text text-anchor="start" x="4051" y="-18.5" font-family="Helvetica,sans-Serif" font-size="10.00">fr.softsf.sudokufx.common.enums.</text>
<text text-anchor="middle" x="4127.12" y="-6.5" font-family="Helvetica,sans-Serif" font-size="10.00">ScreenSize.DISPOSABLE_SIZE</text>
</a>
</g>
</g>
<!-- Node1&#45;&gt;Node29 -->
<g id="edge28_Node000001_Node000029" class="edge">
<title>Node1&#45;&gt;Node29</title>
<g id="a_edge28_Node000001_Node000029"><a xlink:title=" ">
<path fill="none" stroke="#63b8ff" d="M2093.48,-82.33C2437.79,-79.61 3627.06,-67.85 4031.11,-32.17"/>
<polygon fill="#63b8ff" stroke="#63b8ff" points="4031.39,-35.66 4041.03,-31.28 4030.76,-28.69 4031.39,-35.66"/>
</a>
</g>
</g>
<!-- Node30 -->
<g id="Node000030" class="node">
<title>Node30</title>
<g id="a_Node000030"><a xlink:title=" ">
<polygon fill="#e0e0e0" stroke="#999999" points="4366.5,-32 4229.75,-32 4229.75,0 4366.5,0 4366.5,-32"/>
<text text-anchor="start" x="4237.75" y="-18.5" font-family="Helvetica,sans-Serif" font-size="10.00">javafx.scene.layout.Priority.</text>
<text text-anchor="middle" x="4298.12" y="-6.5" font-family="Helvetica,sans-Serif" font-size="10.00">ALWAYS</text>
</a>
</g>
</g>
<!-- Node1&#45;&gt;Node30 -->
<g id="edge29_Node000001_Node000030" class="edge">
<title>Node1&#45;&gt;Node30</title>
<g id="a_edge29_Node000001_Node000030"><a xlink:title=" ">
<path fill="none" stroke="#63b8ff" d="M2093.2,-82.93C2457.31,-82.35 3775.36,-77.19 4218.06,-32.05"/>
<polygon fill="#63b8ff" stroke="#63b8ff" points="4218.23,-35.56 4227.81,-31.04 4217.5,-28.59 4218.23,-35.56"/>
</a>
</g>
</g>
</g>
</svg>

<g id="navigator" transform="translate(0 0)" fill="#404254">
  <rect fill="#f2f5e9" fill-opacity="0.5" stroke="#606060" stroke-width=".5" x="0" y="0" width="60" height="60"/>
  <use id="zoomplus" xlink:href="#zoomPlus" x="17" y="9" onmousedown="handleZoom(evt,'in')"/>
  <use id="zoomminus" xlink:href="#zoomMin" x="42" y="9" onmousedown="handleZoom(evt,'out')"/>
  <use id="reset" xlink:href="#resetDef" x="30" y="36" onmousedown="handleReset()"/>
   <use id="arrowup" xlink:href="#arrowUp" x="0" y="0" onmousedown="handlePan(0,-1)"/>
  <use id="arrowright" xlink:href="#arrowRight" x="0" y="0" onmousedown="handlePan(1,0)"/>
  <use id="arrowdown" xlink:href="#arrowDown" x="0" y="0" onmousedown="handlePan(0,1)"/>
  <use id="arrowleft" xlink:href="#arrowLeft" x="0" y="0" onmousedown="handlePan(-1,0)"/>
</g>
<svg viewBox="0 0 15 15" width="100%" height="30px" preserveAspectRatio="xMaxYMin meet">
 <g id="arrow_out" transform="scale(0.3 0.3)">
  <a xlink:href="_splash_screen_view_8java__incl_org.svg" target="_base">
   <rect id="button" ry="5" rx="5" y="6" x="6" height="38" width="38"
        fill="#f2f5e9" fill-opacity="0.5" stroke="#606060" stroke-width="1.0"/>
   <path id="arrow"
     d="M 11.500037,31.436501 C 11.940474,20.09759 22.043105,11.32322 32.158766,21.979434 L 37.068811,17.246167 C 37.068811,17.246167 37.088388,32 37.088388,32 L 22.160133,31.978069 C 22.160133,31.978069 26.997745,27.140456 26.997745,27.140456 C 18.528582,18.264221 13.291696,25.230495 11.500037,31.436501 z"
     style="fill:#404040;"/>
  </a>
 </g>
</svg>

<style type='text/css'>
<![CDATA[
[data-mouse-over-selected='false'] { opacity: 0.7; }
[data-mouse-over-selected='true']  { opacity: 1.0; }
]]>
</style>
<script type="application/ecmascript"><![CDATA[
document.addEventListener('DOMContentLoaded', (event) => {
  highlightEdges();
  highlightAdjacentNodes();
});
]]></script>
</svg>
