<?xml version="1.0" encoding="UTF-8" standalone="no"?>
<!DOCTYPE svg PUBLIC "-//W3C//DTD SVG 1.1//EN"
 "http://www.w3.org/Graphics/SVG/1.1/DTD/svg11.dtd">
<!-- Generated by graphviz version 12.2.1 (20241206.2353)
 -->
<!-- Title: src/main/java/fr/softsf/sudokufx/view/SplashScreenView.java Pages: 1 -->
<!--zoomable 108 -->

<svg id="main" version="1.1" xmlns="http://www.w3.org/2000/svg" xmlns:xlink="http://www.w3.org/1999/xlink" xml:space="preserve" onload="init(evt)">

<style type="text/css"><![CDATA[
.node, .edge {opacity: 0.7;}
.node.selected, .edge.selected {opacity: 1;}
.edge:hover path { stroke: red; }
.edge:hover polygon { stroke: red; fill: red; }
]]></style>

<defs>
  <circle id="rim" cx="0" cy="0" r="7"/>
  <circle id="rim2" cx="0" cy="0" r="3.5"/>
  <g id="zoomPlus">
    <use xlink:href="#rim" fill="#404040"><set attributeName="fill" to="#808080" begin="zoomplus.mouseover" end="zoomplus.mouseout"/></use>
    <path d="M-4,0h8M0,-4v8" fill="none" stroke="white" stroke-width="1.5" pointer-events="none"/>
  </g>
  <g id="zoomMin">
    <use xlink:href="#rim" fill="#404040"><set attributeName="fill" to="#808080" begin="zoomminus.mouseover" end="zoomminus.mouseout"/></use>
    <path d="M-4,0h8" fill="none" stroke="white" stroke-width="1.5" pointer-events="none"/>
  </g>
  <g id="arrowUp" transform="translate(30 24)">
    <use xlink:href="#rim"/>
    <path pointer-events="none" fill="none" stroke="white" stroke-width="1.5" d="M0,-3.0v7 M-2.5,-0.5L0,-3.0L2.5,-0.5"/>
  </g>
  <g id="arrowRight" transform="rotate(90) translate(36 -43)">
    <use xlink:href="#rim"/>
    <path pointer-events="none" fill="none" stroke="white" stroke-width="1.5" d="M0,-3.0v7 M-2.5,-0.5L0,-3.0L2.5,-0.5"/>
  </g>
  <g id="arrowDown" transform="rotate(180) translate(-30 -48)">
    <use xlink:href="#rim"/>
    <path pointer-events="none" fill="none" stroke="white" stroke-width="1.5" d="M0,-3.0v7 M-2.5,-0.5L0,-3.0L2.5,-0.5"/>
  </g>
  <g id="arrowLeft" transform="rotate(270) translate(-36 17)">
    <use xlink:href="#rim"/>
    <path pointer-events="none" fill="none" stroke="white" stroke-width="1.5" d="M0,-3.0v7 M-2.5,-0.5L0,-3.0L2.5,-0.5"/>
  </g>
  <g id="resetDef">
    <use xlink:href="#rim2" fill="#404040"><set attributeName="fill" to="#808080" begin="reset.mouseover" end="reset.mouseout"/></use>
  </g>
</defs>
<script type="application/ecmascript">
var viewWidth = 4037;
var viewHeight = 108;
var sectionId = 'dynsection-0';
</script>
<script type="application/ecmascript" xlink:href="svg.min.js"/>
<svg id="graph" class="graph">
<g id="viewport">
<title>src/main/java/fr/softsf/sudokufx/view/SplashScreenView.java</title>
<!-- Node1 -->
<g id="Node000001" class="node">
<title>Node1</title>
<g id="a_Node000001"><a xlink:title=" ">
<polygon fill="#999999" stroke="#666666" points="1944,-100 1756.25,-100 1756.25,-68 1944,-68 1944,-100"/>
<text text-anchor="start" x="1764.25" y="-86.5" font-family="Helvetica,sans-Serif" font-size="10.00">src/main/java/fr/softsf</text>
<text text-anchor="middle" x="1850.12" y="-74.5" font-family="Helvetica,sans-Serif" font-size="10.00">/sudokufx/view/SplashScreenView.java</text>
</a>
</g>
</g>
<!-- Node2 -->
<g id="Node000002" class="node">
<title>Node2</title>
<g id="a_Node000002"><a xlink:title=" ">
<polygon fill="#e0e0e0" stroke="#999999" points="78.25,-26 0,-26 0,-6 78.25,-6 78.25,-26"/>
<text text-anchor="middle" x="39.12" y="-12.5" font-family="Helvetica,sans-Serif" font-size="10.00">java.time.Year</text>
</a>
</g>
</g>
<!-- Node1&#45;&gt;Node2 -->
<g id="edge1_Node000001_Node000002" class="edge">
<title>Node1&#45;&gt;Node2</title>
<g id="a_edge1_Node000001_Node000002"><a xlink:title=" ">
<path fill="none" stroke="#63b8ff" d="M1756,-81.78C1414.44,-77.16 251.72,-59.56 87.12,-32 83.47,-31.39 79.7,-30.56 75.96,-29.62"/>
<polygon fill="#63b8ff" stroke="#63b8ff" points="77,-26.28 66.42,-26.91 75.09,-33.01 77,-26.28"/>
</a>
</g>
</g>
<!-- Node3 -->
<g id="Node000003" class="node">
<title>Node3</title>
<g id="a_Node000003"><a xlink:title=" ">
<polygon fill="#e0e0e0" stroke="#999999" points="182.38,-26 95.88,-26 95.88,-6 182.38,-6 182.38,-26"/>
<text text-anchor="middle" x="139.12" y="-12.5" font-family="Helvetica,sans-Serif" font-size="10.00">java.util.Objects</text>
</a>
</g>
</g>
<!-- Node1&#45;&gt;Node3 -->
<g id="edge2_Node000001_Node000003" class="edge">
<title>Node1&#45;&gt;Node3</title>
<g id="a_edge2_Node000001_Node000003"><a xlink:title=" ">
<path fill="none" stroke="#63b8ff" d="M1755.94,-83.19C1451.48,-83.34 495.9,-79.87 191.12,-32 186.81,-31.32 182.35,-30.4 177.93,-29.33"/>
<polygon fill="#63b8ff" stroke="#63b8ff" points="179.2,-26.05 168.64,-26.87 177.4,-32.81 179.2,-26.05"/>
</a>
</g>
</g>
<!-- Node4 -->
<g id="Node000004" class="node">
<title>Node4</title>
<g id="a_Node000004"><a xlink:title=" ">
<polygon fill="#e0e0e0" stroke="#999999" points="334,-26 200.25,-26 200.25,-6 334,-6 334,-26"/>
<text text-anchor="middle" x="267.12" y="-12.5" font-family="Helvetica,sans-Serif" font-size="10.00">javafx.animation.Animation</text>
</a>
</g>
</g>
<!-- Node1&#45;&gt;Node4 -->
<g id="edge3_Node000001_Node000004" class="edge">
<title>Node1&#45;&gt;Node4</title>
<g id="a_edge3_Node000001_Node000004"><a xlink:title=" ">
<path fill="none" stroke="#63b8ff" d="M1755.99,-81.83C1470.61,-77.98 617.86,-64.02 342.12,-32 334.77,-31.15 327.06,-29.95 319.49,-28.61"/>
<polygon fill="#63b8ff" stroke="#63b8ff" points="320.16,-25.17 309.68,-26.75 318.86,-32.05 320.16,-25.17"/>
</a>
</g>
</g>
<!-- Node5 -->
<g id="Node000005" class="node">
<title>Node5</title>
<g id="a_Node000005"><a xlink:title=" ">
<polygon fill="#e0e0e0" stroke="#999999" points="490.62,-26 351.62,-26 351.62,-6 490.62,-6 490.62,-26"/>
<text text-anchor="middle" x="421.12" y="-12.5" font-family="Helvetica,sans-Serif" font-size="10.00">javafx.animation.Interpolator</text>
</a>
</g>
</g>
<!-- Node1&#45;&gt;Node5 -->
<g id="edge4_Node000001_Node000005" class="edge">
<title>Node1&#45;&gt;Node5</title>
<g id="a_edge4_Node000001_Node000005"><a xlink:title=" ">
<path fill="none" stroke="#63b8ff" d="M1755.9,-81.28C1491.14,-76.15 743.96,-59.6 500.12,-32 492.11,-31.09 483.7,-29.83 475.47,-28.42"/>
<polygon fill="#63b8ff" stroke="#63b8ff" points="476.36,-25.03 465.9,-26.7 475.12,-31.92 476.36,-25.03"/>
</a>
</g>
</g>
<!-- Node6 -->
<g id="Node000006" class="node">
<title>Node6</title>
<g id="a_Node000006"><a xlink:title=" ">
<polygon fill="#e0e0e0" stroke="#999999" points="671.25,-26 509,-26 509,-6 671.25,-6 671.25,-26"/>
<text text-anchor="middle" x="590.12" y="-12.5" font-family="Helvetica,sans-Serif" font-size="10.00">javafx.animation.RotateTransition</text>
</a>
</g>
</g>
<!-- Node1&#45;&gt;Node6 -->
<g id="edge5_Node000001_Node000006" class="edge">
<title>Node1&#45;&gt;Node6</title>
<g id="a_edge5_Node000001_Node000006"><a xlink:title=" ">
<path fill="none" stroke="#63b8ff" d="M1755.81,-82.77C1556.59,-81.43 1078.48,-73.72 680.12,-32 670.84,-31.03 661.06,-29.71 651.5,-28.25"/>
<polygon fill="#63b8ff" stroke="#63b8ff" points="652.35,-24.84 641.93,-26.73 651.26,-31.76 652.35,-24.84"/>
</a>
</g>
</g>
<!-- Node7 -->
<g id="Node000007" class="node">
<title>Node7</title>
<g id="a_Node000007"><a xlink:title=" ">
<polygon fill="#e0e0e0" stroke="#999999" points="794.75,-26 689.5,-26 689.5,-6 794.75,-6 794.75,-26"/>
<text text-anchor="middle" x="742.12" y="-12.5" font-family="Helvetica,sans-Serif" font-size="10.00">javafx.geometry.Pos</text>
</a>
</g>
</g>
<!-- Node1&#45;&gt;Node7 -->
<g id="edge6_Node000001_Node000007" class="edge">
<title>Node1&#45;&gt;Node7</title>
<g id="a_edge6_Node000001_Node000007"><a xlink:title=" ">
<path fill="none" stroke="#63b8ff" d="M1756.04,-80.69C1534.77,-74.88 986.33,-58.24 804.12,-32 798.72,-31.22 793.1,-30.19 787.55,-29.02"/>
<polygon fill="#63b8ff" stroke="#63b8ff" points="788.34,-25.61 777.81,-26.83 786.8,-32.44 788.34,-25.61"/>
</a>
</g>
</g>
<!-- Node8 -->
<g id="Node000008" class="node">
<title>Node8</title>
<g id="a_Node000008"><a xlink:title=" ">
<polygon fill="#e0e0e0" stroke="#999999" points="917,-26 813.25,-26 813.25,-6 917,-6 917,-26"/>
<text text-anchor="middle" x="865.12" y="-12.5" font-family="Helvetica,sans-Serif" font-size="10.00">javafx.scene.Cursor</text>
</a>
</g>
</g>
<!-- Node1&#45;&gt;Node8 -->
<g id="edge7_Node000001_Node000008" class="edge">
<title>Node1&#45;&gt;Node8</title>
<g id="a_edge7_Node000001_Node000008"><a xlink:title=" ">
<path fill="none" stroke="#63b8ff" d="M1755.76,-83.56C1587.91,-83.27 1226.85,-76.87 926.12,-32 920.81,-31.21 915.28,-30.16 909.82,-28.99"/>
<polygon fill="#63b8ff" stroke="#63b8ff" points="910.79,-25.63 900.26,-26.8 909.22,-32.45 910.79,-25.63"/>
</a>
</g>
</g>
<!-- Node9 -->
<g id="Node000009" class="node">
<title>Node9</title>
<g id="a_Node000009"><a xlink:title=" ">
<polygon fill="#e0e0e0" stroke="#999999" points="1037.25,-26 935,-26 935,-6 1037.25,-6 1037.25,-26"/>
<text text-anchor="middle" x="986.12" y="-12.5" font-family="Helvetica,sans-Serif" font-size="10.00">javafx.scene.Scene</text>
</a>
</g>
</g>
<!-- Node1&#45;&gt;Node9 -->
<g id="edge8_Node000001_Node000009" class="edge">
<title>Node1&#45;&gt;Node9</title>
<g id="a_edge8_Node000001_Node000009"><a xlink:title=" ">
<path fill="none" stroke="#63b8ff" d="M1755.76,-82.55C1604.93,-80.59 1300.6,-71.54 1046.12,-32 1041.1,-31.22 1035.87,-30.21 1030.7,-29.09"/>
<polygon fill="#63b8ff" stroke="#63b8ff" points="1031.55,-25.7 1021.02,-26.84 1029.96,-32.51 1031.55,-25.7"/>
</a>
</g>
</g>
<!-- Node10 -->
<g id="Node000010" class="node">
<title>Node10</title>
<g id="a_Node000010"><a xlink:title=" ">
<polygon fill="#e0e0e0" stroke="#999999" points="1185.12,-26 1055.12,-26 1055.12,-6 1185.12,-6 1185.12,-26"/>
<text text-anchor="middle" x="1120.12" y="-12.5" font-family="Helvetica,sans-Serif" font-size="10.00">javafx.scene.control.Label</text>
</a>
</g>
</g>
<!-- Node1&#45;&gt;Node10 -->
<g id="edge9_Node000001_Node000010" class="edge">
<title>Node1&#45;&gt;Node10</title>
<g id="a_edge9_Node000001_Node000010"><a xlink:title=" ">
<path fill="none" stroke="#63b8ff" d="M1755.77,-79.3C1627.97,-73.45 1392.96,-59.77 1194.12,-32 1187.39,-31.06 1180.35,-29.88 1173.4,-28.61"/>
<polygon fill="#63b8ff" stroke="#63b8ff" points="1174.2,-25.2 1163.72,-26.75 1172.88,-32.07 1174.2,-25.2"/>
</a>
</g>
</g>
<!-- Node11 -->
<g id="Node000011" class="node">
<title>Node11</title>
<g id="a_Node000011"><a xlink:title=" ">
<polygon fill="#e0e0e0" stroke="#999999" points="1325.38,-32 1202.88,-32 1202.88,0 1325.38,0 1325.38,-32"/>
<text text-anchor="start" x="1210.88" y="-18.5" font-family="Helvetica,sans-Serif" font-size="10.00">javafx.scene.effect.Drop</text>
<text text-anchor="middle" x="1264.12" y="-6.5" font-family="Helvetica,sans-Serif" font-size="10.00">Shadow</text>
</a>
</g>
</g>
<!-- Node1&#45;&gt;Node11 -->
<g id="edge10_Node000001_Node000011" class="edge">
<title>Node1&#45;&gt;Node11</title>
<g id="a_edge10_Node000001_Node000011"><a xlink:title=" ">
<path fill="none" stroke="#63b8ff" d="M1755.76,-76.77C1654.61,-69.39 1489.17,-55.27 1336.59,-32.11"/>
<polygon fill="#63b8ff" stroke="#63b8ff" points="1337.53,-28.71 1327.12,-30.65 1336.47,-35.63 1337.53,-28.71"/>
</a>
</g>
</g>
<!-- Node12 -->
<g id="Node000012" class="node">
<title>Node12</title>
<g id="a_Node000012"><a xlink:title=" ">
<polygon fill="#e0e0e0" stroke="#999999" points="1474.5,-26 1343.75,-26 1343.75,-6 1474.5,-6 1474.5,-26"/>
<text text-anchor="middle" x="1409.12" y="-12.5" font-family="Helvetica,sans-Serif" font-size="10.00">javafx.scene.image.Image</text>
</a>
</g>
</g>
<!-- Node1&#45;&gt;Node12 -->
<g id="edge11_Node000001_Node000012" class="edge">
<title>Node1&#45;&gt;Node12</title>
<g id="a_edge11_Node000001_Node000012"><a xlink:title=" ">
<path fill="none" stroke="#63b8ff" d="M1755.86,-71.42C1681.81,-61.94 1576.16,-47.6 1484.12,-32 1478.07,-30.97 1471.75,-29.83 1465.47,-28.64"/>
<polygon fill="#63b8ff" stroke="#63b8ff" points="1466.23,-25.22 1455.74,-26.76 1464.9,-32.1 1466.23,-25.22"/>
</a>
</g>
</g>
<!-- Node13 -->
<g id="Node000013" class="node">
<title>Node13</title>
<g id="a_Node000013"><a xlink:title=" ">
<polygon fill="#e0e0e0" stroke="#999999" points="1621.38,-26 1492.88,-26 1492.88,-6 1621.38,-6 1621.38,-26"/>
<text text-anchor="middle" x="1557.12" y="-12.5" font-family="Helvetica,sans-Serif" font-size="10.00">javafx.scene.layout.HBox</text>
</a>
</g>
</g>
<!-- Node1&#45;&gt;Node13 -->
<g id="edge12_Node000001_Node000013" class="edge">
<title>Node1&#45;&gt;Node13</title>
<g id="a_edge12_Node000001_Node000013"><a xlink:title=" ">
<path fill="none" stroke="#63b8ff" d="M1781.43,-67.53C1729.13,-55.74 1658.19,-39.77 1610.2,-28.96"/>
<polygon fill="#63b8ff" stroke="#63b8ff" points="1611.12,-25.58 1600.6,-26.79 1609.58,-32.4 1611.12,-25.58"/>
</a>
</g>
</g>
<!-- Node14 -->
<g id="Node000014" class="node">
<title>Node14</title>
<g id="a_Node000014"><a xlink:title=" ">
<polygon fill="#e0e0e0" stroke="#999999" points="1765.25,-26 1639,-26 1639,-6 1765.25,-6 1765.25,-26"/>
<text text-anchor="middle" x="1702.12" y="-12.5" font-family="Helvetica,sans-Serif" font-size="10.00">javafx.scene.layout.Pane</text>
</a>
</g>
</g>
<!-- Node1&#45;&gt;Node14 -->
<g id="edge13_Node000001_Node000014" class="edge">
<title>Node1&#45;&gt;Node14</title>
<g id="a_edge13_Node000001_Node000014"><a xlink:title=" ">
<path fill="none" stroke="#63b8ff" d="M1815.43,-67.53C1790.68,-56.49 1757.67,-41.77 1733.67,-31.07"/>
<polygon fill="#63b8ff" stroke="#63b8ff" points="1735.28,-27.95 1724.72,-27.08 1732.43,-34.35 1735.28,-27.95"/>
</a>
</g>
</g>
<!-- Node15 -->
<g id="Node000015" class="node">
<title>Node15</title>
<g id="a_Node000015"><a xlink:title=" ">
<polygon fill="#e0e0e0" stroke="#999999" points="1917.38,-26 1782.88,-26 1782.88,-6 1917.38,-6 1917.38,-26"/>
<text text-anchor="middle" x="1850.12" y="-12.5" font-family="Helvetica,sans-Serif" font-size="10.00">javafx.scene.layout.Region</text>
</a>
</g>
</g>
<!-- Node1&#45;&gt;Node15 -->
<g id="edge14_Node000001_Node000015" class="edge">
<title>Node1&#45;&gt;Node15</title>
<g id="a_edge14_Node000001_Node000015"><a xlink:title=" ">
<path fill="none" stroke="#63b8ff" d="M1850.12,-67.69C1850.12,-58.8 1850.12,-47.46 1850.12,-37.77"/>
<polygon fill="#63b8ff" stroke="#63b8ff" points="1853.63,-37.83 1850.13,-27.83 1846.63,-37.83 1853.63,-37.83"/>
</a>
</g>
</g>
<!-- Node16 -->
<g id="Node000016" class="node">
<title>Node16</title>
<g id="a_Node000016"><a xlink:title=" ">
<polygon fill="#e0e0e0" stroke="#999999" points="2063,-26 1935.25,-26 1935.25,-6 2063,-6 2063,-26"/>
<text text-anchor="middle" x="1999.12" y="-12.5" font-family="Helvetica,sans-Serif" font-size="10.00">javafx.scene.layout.VBox</text>
</a>
</g>
</g>
<!-- Node1&#45;&gt;Node16 -->
<g id="edge15_Node000001_Node000016" class="edge">
<title>Node1&#45;&gt;Node16</title>
<g id="a_edge15_Node000001_Node000016"><a xlink:title=" ">
<path fill="none" stroke="#63b8ff" d="M1885.06,-67.53C1909.97,-56.49 1943.2,-41.77 1967.37,-31.07"/>
<polygon fill="#63b8ff" stroke="#63b8ff" points="1968.66,-34.32 1976.38,-27.07 1965.82,-27.92 1968.66,-34.32"/>
</a>
</g>
</g>
<!-- Node17 -->
<g id="Node000017" class="node">
<title>Node17</title>
<g id="a_Node000017"><a xlink:title=" ">
<polygon fill="#e0e0e0" stroke="#999999" points="2203,-26 2081.25,-26 2081.25,-6 2203,-6 2203,-26"/>
<text text-anchor="middle" x="2142.12" y="-12.5" font-family="Helvetica,sans-Serif" font-size="10.00">javafx.scene.paint.Color</text>
</a>
</g>
</g>
<!-- Node1&#45;&gt;Node17 -->
<g id="edge16_Node000001_Node000017" class="edge">
<title>Node1&#45;&gt;Node17</title>
<g id="a_edge16_Node000001_Node000017"><a xlink:title=" ">
<path fill="none" stroke="#63b8ff" d="M1918.59,-67.53C1970.71,-55.74 2041.41,-39.77 2089.23,-28.96"/>
<polygon fill="#63b8ff" stroke="#63b8ff" points="2089.81,-32.41 2098.8,-26.79 2088.27,-25.58 2089.81,-32.41"/>
</a>
</g>
</g>
<!-- Node18 -->
<g id="Node000018" class="node">
<title>Node18</title>
<g id="a_Node000018"><a xlink:title=" ">
<polygon fill="#e0e0e0" stroke="#999999" points="2365.62,-26 2220.62,-26 2220.62,-6 2365.62,-6 2365.62,-26"/>
<text text-anchor="middle" x="2293.12" y="-12.5" font-family="Helvetica,sans-Serif" font-size="10.00">javafx.scene.shape.SVGPath</text>
</a>
</g>
</g>
<!-- Node1&#45;&gt;Node18 -->
<g id="edge17_Node000001_Node000018" class="edge">
<title>Node1&#45;&gt;Node18</title>
<g id="a_edge17_Node000001_Node000018"><a xlink:title=" ">
<path fill="none" stroke="#63b8ff" d="M1944.43,-70.85C2017.58,-61.15 2121.45,-46.78 2212.12,-32 2218.81,-30.91 2225.79,-29.71 2232.73,-28.48"/>
<polygon fill="#63b8ff" stroke="#63b8ff" points="2233.21,-31.95 2242.43,-26.73 2231.97,-25.06 2233.21,-31.95"/>
</a>
</g>
</g>
<!-- Node19 -->
<g id="Node000019" class="node">
<title>Node19</title>
<g id="a_Node000019"><a xlink:title=" ">
<polygon fill="#e0e0e0" stroke="#999999" points="2481,-26 2383.25,-26 2383.25,-6 2481,-6 2481,-26"/>
<text text-anchor="middle" x="2432.12" y="-12.5" font-family="Helvetica,sans-Serif" font-size="10.00">javafx.stage.Stage</text>
</a>
</g>
</g>
<!-- Node1&#45;&gt;Node19 -->
<g id="edge18_Node000001_Node000019" class="edge">
<title>Node1&#45;&gt;Node19</title>
<g id="a_edge18_Node000001_Node000019"><a xlink:title=" ">
<path fill="none" stroke="#63b8ff" d="M1944.16,-78.42C2049.7,-72.23 2225.71,-58.74 2375.12,-32 2379.53,-31.21 2384.1,-30.25 2388.64,-29.21"/>
<polygon fill="#63b8ff" stroke="#63b8ff" points="2389.42,-32.62 2398.3,-26.84 2387.76,-25.82 2389.42,-32.62"/>
</a>
</g>
</g>
<!-- Node20 -->
<g id="Node000020" class="node">
<title>Node20</title>
<g id="a_Node000020"><a xlink:title=" ">
<polygon fill="#e0e0e0" stroke="#999999" points="2619.25,-26 2499,-26 2499,-6 2619.25,-6 2619.25,-26"/>
<text text-anchor="middle" x="2559.12" y="-12.5" font-family="Helvetica,sans-Serif" font-size="10.00">javafx.stage.StageStyle</text>
</a>
</g>
</g>
<!-- Node1&#45;&gt;Node20 -->
<g id="edge19_Node000001_Node000020" class="edge">
<title>Node1&#45;&gt;Node20</title>
<g id="a_edge19_Node000001_Node000020"><a xlink:title=" ">
<path fill="none" stroke="#63b8ff" d="M1944.38,-79.46C2069.6,-73.85 2297.44,-60.49 2490.12,-32 2496.19,-31.1 2502.52,-29.98 2508.77,-28.77"/>
<polygon fill="#63b8ff" stroke="#63b8ff" points="2509.31,-32.23 2518.4,-26.79 2507.9,-25.37 2509.31,-32.23"/>
</a>
</g>
</g>
<!-- Node21 -->
<g id="Node000021" class="node">
<title>Node21</title>
<g id="a_Node000021"><a xlink:title=" ">
<polygon fill="#e0e0e0" stroke="#999999" points="2735,-26 2637.25,-26 2637.25,-6 2735,-6 2735,-26"/>
<text text-anchor="middle" x="2686.12" y="-12.5" font-family="Helvetica,sans-Serif" font-size="10.00">javafx.util.Duration</text>
</a>
</g>
</g>
<!-- Node1&#45;&gt;Node21 -->
<g id="edge20_Node000001_Node000021" class="edge">
<title>Node1&#45;&gt;Node21</title>
<g id="a_edge20_Node000001_Node000021"><a xlink:title=" ">
<path fill="none" stroke="#63b8ff" d="M1944.47,-82.5C2091.48,-80.45 2383.72,-71.26 2628.12,-32 2632.86,-31.24 2637.77,-30.27 2642.65,-29.18"/>
<polygon fill="#63b8ff" stroke="#63b8ff" points="2643.46,-32.59 2652.36,-26.85 2641.82,-25.78 2643.46,-32.59"/>
</a>
</g>
</g>
<!-- Node22 -->
<g id="Node000022" class="node">
<title>Node22</title>
<g id="a_Node000022"><a xlink:title=" ">
<polygon fill="#e0e0e0" stroke="#999999" points="2939.62,-26 2752.62,-26 2752.62,-6 2939.62,-6 2939.62,-26"/>
<text text-anchor="middle" x="2846.12" y="-12.5" font-family="Helvetica,sans-Serif" font-size="10.00">fr.softsf.sudokufx.common.enums.I18n</text>
</a>
</g>
</g>
<!-- Node1&#45;&gt;Node22 -->
<g id="edge21_Node000001_Node000022" class="edge">
<title>Node1&#45;&gt;Node22</title>
<g id="a_edge21_Node000001_Node000022"><a xlink:title=" ">
<path fill="none" stroke="#63b8ff" d="M1944.3,-80.38C2107.52,-75.24 2453.36,-61.61 2744.12,-32 2754.7,-30.92 2765.85,-29.54 2776.75,-28.05"/>
<polygon fill="#63b8ff" stroke="#63b8ff" points="2777.07,-31.54 2786.48,-26.68 2776.09,-24.61 2777.07,-31.54"/>
</a>
</g>
</g>
<!-- Node23 -->
<g id="Node000023" class="node">
<title>Node23</title>
<g id="a_Node000023"><a xlink:title=" ">
<polygon fill="#e0e0e0" stroke="#999999" points="3139,-32 2957.25,-32 2957.25,0 3139,0 3139,-32"/>
<text text-anchor="start" x="2965.25" y="-18.5" font-family="Helvetica,sans-Serif" font-size="10.00">fr.softsf.sudokufx.common.interfaces.</text>
<text text-anchor="middle" x="3048.12" y="-6.5" font-family="Helvetica,sans-Serif" font-size="10.00">ISplashScreenView</text>
</a>
</g>
</g>
<!-- Node1&#45;&gt;Node23 -->
<g id="edge22_Node000001_Node000023" class="edge">
<title>Node1&#45;&gt;Node23</title>
<g id="a_edge22_Node000001_Node000023"><a xlink:title=" ">
<path fill="none" stroke="#63b8ff" d="M1944.45,-81.92C2132.92,-79.05 2569.61,-68.79 2945.62,-32.29"/>
<polygon fill="#63b8ff" stroke="#63b8ff" points="2945.89,-35.78 2955.5,-31.32 2945.2,-28.81 2945.89,-35.78"/>
</a>
</g>
</g>
<!-- Node24 -->
<g id="Node000024" class="node">
<title>Node24</title>
<g id="a_Node000024"><a xlink:title=" ">
<polygon fill="#e0e0e0" stroke="#999999" points="3285.38,-32 3156.88,-32 3156.88,0 3285.38,0 3285.38,-32"/>
<text text-anchor="start" x="3164.88" y="-18.5" font-family="Helvetica,sans-Serif" font-size="10.00">fr.softsf.sudokufx.config.</text>
<text text-anchor="middle" x="3221.12" y="-6.5" font-family="Helvetica,sans-Serif" font-size="10.00">JVMApplicationProperties</text>
</a>
</g>
</g>
<!-- Node1&#45;&gt;Node24 -->
<g id="edge23_Node000001_Node000024" class="edge">
<title>Node1&#45;&gt;Node24</title>
<g id="a_edge23_Node000001_Node000024"><a xlink:title=" ">
<path fill="none" stroke="#63b8ff" d="M1944.42,-81.3C2198.32,-76.4 2893.54,-60.82 3145.44,-32.16"/>
<polygon fill="#63b8ff" stroke="#63b8ff" points="3145.71,-35.65 3155.23,-31 3144.89,-28.7 3145.71,-35.65"/>
</a>
</g>
</g>
<!-- Node25 -->
<g id="Node000025" class="node">
<title>Node25</title>
<g id="a_Node000025"><a xlink:title=" ">
<polygon fill="#e0e0e0" stroke="#999999" points="3485,-32 3303.25,-32 3303.25,0 3485,0 3485,-32"/>
<text text-anchor="start" x="3311.25" y="-18.5" font-family="Helvetica,sans-Serif" font-size="10.00">fr.softsf.sudokufx.common.enums.</text>
<text text-anchor="middle" x="3394.12" y="-6.5" font-family="Helvetica,sans-Serif" font-size="10.00">AppPaths.LOGO_SUDO_PNG_PATH</text>
</a>
</g>
</g>
<!-- Node1&#45;&gt;Node25 -->
<g id="edge24_Node000001_Node000025" class="edge">
<title>Node1&#45;&gt;Node25</title>
<g id="a_edge24_Node000001_Node000025"><a xlink:title=" ">
<path fill="none" stroke="#63b8ff" d="M1944.12,-83.37C2172.99,-83.47 2777.49,-78.96 3291.53,-32.16"/>
<polygon fill="#63b8ff" stroke="#63b8ff" points="3291.75,-35.66 3301.38,-31.26 3291.11,-28.69 3291.75,-35.66"/>
</a>
</g>
</g>
<!-- Node26 -->
<g id="Node000026" class="node">
<title>Node26</title>
<g id="a_Node000026"><a xlink:title=" ">
<polygon fill="#e0e0e0" stroke="#999999" points="3686.75,-32 3503.5,-32 3503.5,0 3686.75,0 3686.75,-32"/>
<text text-anchor="start" x="3511.5" y="-18.5" font-family="Helvetica,sans-Serif" font-size="10.00">fr.softsf.sudokufx.common.enums.</text>
<text text-anchor="middle" x="3595.12" y="-6.5" font-family="Helvetica,sans-Serif" font-size="10.00">AppPaths.RESOURCES_CSS_PATH</text>
</a>
</g>
</g>
<!-- Node1&#45;&gt;Node26 -->
<g id="edge25_Node000001_Node000026" class="edge">
<title>Node1&#45;&gt;Node26</title>
<g id="a_edge25_Node000001_Node000026"><a xlink:title=" ">
<path fill="none" stroke="#63b8ff" d="M1944.31,-81.52C2243.02,-76.61 3167.95,-59.61 3491.98,-32.09"/>
<polygon fill="#63b8ff" stroke="#63b8ff" points="3492.08,-35.6 3501.74,-31.24 3491.48,-28.62 3492.08,-35.6"/>
</a>
</g>
</g>
<!-- Node27 -->
<g id="Node000027" class="node">
<title>Node27</title>
<g id="a_Node000027"><a xlink:title=" ">
<polygon fill="#e0e0e0" stroke="#999999" points="3873.25,-32 3705,-32 3705,0 3873.25,0 3873.25,-32"/>
<text text-anchor="start" x="3713" y="-18.5" font-family="Helvetica,sans-Serif" font-size="10.00">fr.softsf.sudokufx.common.enums.</text>
<text text-anchor="middle" x="3789.12" y="-6.5" font-family="Helvetica,sans-Serif" font-size="10.00">ScreenSize.DISPOSABLE_SIZE</text>
</a>
</g>
</g>
<!-- Node1&#45;&gt;Node27 -->
<g id="edge26_Node000001_Node000027" class="edge">
<title>Node1&#45;&gt;Node27</title>
<g id="a_edge26_Node000001_Node000027"><a xlink:title=" ">
<path fill="none" stroke="#63b8ff" d="M1944.29,-82.05C2267.04,-78.52 3328.19,-64.77 3693.16,-32.17"/>
<polygon fill="#63b8ff" stroke="#63b8ff" points="3693.39,-35.67 3703.03,-31.27 3692.75,-28.7 3693.39,-35.67"/>
</a>
</g>
</g>
<!-- Node28 -->
<g id="Node000028" class="node">
<title>Node28</title>
<g id="a_Node000028"><a xlink:title=" ">
<polygon fill="#e0e0e0" stroke="#999999" points="4028.5,-32 3891.75,-32 3891.75,0 4028.5,0 4028.5,-32"/>
<text text-anchor="start" x="3899.75" y="-18.5" font-family="Helvetica,sans-Serif" font-size="10.00">javafx.scene.layout.Priority.</text>
<text text-anchor="middle" x="3960.12" y="-6.5" font-family="Helvetica,sans-Serif" font-size="10.00">ALWAYS</text>
</a>
</g>
</g>
<!-- Node1&#45;&gt;Node28 -->
<g id="edge27_Node000001_Node000028" class="edge">
<title>Node1&#45;&gt;Node28</title>
<g id="a_edge27_Node000001_Node000028"><a xlink:title=" ">
<path fill="none" stroke="#63b8ff" d="M1944.38,-82.7C2288.31,-81.28 3476.23,-73.5 3879.89,-32.07"/>
<polygon fill="#63b8ff" stroke="#63b8ff" points="3880.23,-35.56 3889.81,-31.03 3879.5,-28.6 3880.23,-35.56"/>
</a>
</g>
</g>
</g>
</svg>

<g id="navigator" transform="translate(0 0)" fill="#404254">
  <rect fill="#f2f5e9" fill-opacity="0.5" stroke="#606060" stroke-width=".5" x="0" y="0" width="60" height="60"/>
  <use id="zoomplus" xlink:href="#zoomPlus" x="17" y="9" onmousedown="handleZoom(evt,'in')"/>
  <use id="zoomminus" xlink:href="#zoomMin" x="42" y="9" onmousedown="handleZoom(evt,'out')"/>
  <use id="reset" xlink:href="#resetDef" x="30" y="36" onmousedown="handleReset()"/>
   <use id="arrowup" xlink:href="#arrowUp" x="0" y="0" onmousedown="handlePan(0,-1)"/>
  <use id="arrowright" xlink:href="#arrowRight" x="0" y="0" onmousedown="handlePan(1,0)"/>
  <use id="arrowdown" xlink:href="#arrowDown" x="0" y="0" onmousedown="handlePan(0,1)"/>
  <use id="arrowleft" xlink:href="#arrowLeft" x="0" y="0" onmousedown="handlePan(-1,0)"/>
</g>
<svg viewBox="0 0 15 15" width="100%" height="30px" preserveAspectRatio="xMaxYMin meet">
 <g id="arrow_out" transform="scale(0.3 0.3)">
  <a xlink:href="_splash_screen_view_8java__incl_org.svg" target="_base">
   <rect id="button" ry="5" rx="5" y="6" x="6" height="38" width="38"
        fill="#f2f5e9" fill-opacity="0.5" stroke="#606060" stroke-width="1.0"/>
   <path id="arrow"
     d="M 11.500037,31.436501 C 11.940474,20.09759 22.043105,11.32322 32.158766,21.979434 L 37.068811,17.246167 C 37.068811,17.246167 37.088388,32 37.088388,32 L 22.160133,31.978069 C 22.160133,31.978069 26.997745,27.140456 26.997745,27.140456 C 18.528582,18.264221 13.291696,25.230495 11.500037,31.436501 z"
     style="fill:#404040;"/>
  </a>
 </g>
</svg>

<style type='text/css'>
<![CDATA[
[data-mouse-over-selected='false'] { opacity: 0.7; }
[data-mouse-over-selected='true']  { opacity: 1.0; }
]]>
</style>
<script type="application/ecmascript"><![CDATA[
document.addEventListener('DOMContentLoaded', (event) => {
  highlightEdges();
  highlightAdjacentNodes();
});
]]></script>
</svg>
