<?xml version="1.0" encoding="UTF-8" standalone="no"?>
<!DOCTYPE svg PUBLIC "-//W3C//DTD SVG 1.1//EN"
 "http://www.w3.org/Graphics/SVG/1.1/DTD/svg11.dtd">
<!-- Generated by graphviz version 12.2.1 (20241206.2353)
 -->
<!-- Title: src/main/java/fr/softsf/sudokufx/SudoMain.java Pages: 1 -->
<svg width="3821pt" height="108pt"
 viewBox="0.00 0.00 3820.88 108.00" xmlns="http://www.w3.org/2000/svg" xmlns:xlink="http://www.w3.org/1999/xlink">
<g id="graph0" class="graph" transform="scale(1 1) rotate(0) translate(4 104)">
<title>src/main/java/fr/softsf/sudokufx/SudoMain.java</title>
<!-- Node1 -->
<g id="Node000001" class="node">
<title>Node1</title>
<g id="a_Node000001"><a xlink:title=" ">
<polygon fill="#999999" stroke="#666666" points="1797,-100 1670.75,-100 1670.75,-68 1797,-68 1797,-100"/>
<text text-anchor="start" x="1678.75" y="-86.5" font-family="Helvetica,sans-Serif" font-size="10.00">src/main/java/fr/softsf</text>
<text text-anchor="middle" x="1733.88" y="-74.5" font-family="Helvetica,sans-Serif" font-size="10.00">/sudokufx/SudoMain.java</text>
</a>
</g>
</g>
<!-- Node2 -->
<g id="Node000002" class="node">
<title>Node2</title>
<g id="a_Node000002"><a xlink:title=" ">
<polygon fill="#e0e0e0" stroke="#999999" points="157.75,-32 0,-32 0,0 157.75,0 157.75,-32"/>
<text text-anchor="start" x="8" y="-18.5" font-family="Helvetica,sans-Serif" font-size="10.00">java.sql.SQLInvalidAuthorization</text>
<text text-anchor="middle" x="78.88" y="-6.5" font-family="Helvetica,sans-Serif" font-size="10.00">SpecException</text>
</a>
</g>
</g>
<!-- Node1&#45;&gt;Node2 -->
<g id="edge1_Node000001_Node000002" class="edge">
<title>Node1&#45;&gt;Node2</title>
<g id="a_edge1_Node000001_Node000002"><a xlink:title=" ">
<path fill="none" stroke="#63b8ff" d="M1670.36,-82.09C1418.43,-78.3 488.11,-62.59 169.05,-32.09"/>
<polygon fill="#63b8ff" stroke="#63b8ff" points="169.76,-28.65 159.47,-31.15 169.08,-35.61 169.76,-28.65"/>
</a>
</g>
</g>
<!-- Node3 -->
<g id="Node000003" class="node">
<title>Node3</title>
<g id="a_Node000003"><a xlink:title=" ">
<polygon fill="#e0e0e0" stroke="#999999" points="336.25,-26 175.5,-26 175.5,-6 336.25,-6 336.25,-26"/>
<text text-anchor="middle" x="255.88" y="-12.5" font-family="Helvetica,sans-Serif" font-size="10.00">javafx.animation.PauseTransition</text>
</a>
</g>
</g>
<!-- Node1&#45;&gt;Node3 -->
<g id="edge2_Node000001_Node000003" class="edge">
<title>Node1&#45;&gt;Node3</title>
<g id="a_edge2_Node000001_Node000003"><a xlink:title=" ">
<path fill="none" stroke="#63b8ff" d="M1670.38,-83.56C1473.31,-84.68 854.78,-83.54 345.88,-32 336.47,-31.05 326.57,-29.72 316.9,-28.26"/>
<polygon fill="#63b8ff" stroke="#63b8ff" points="317.63,-24.83 307.2,-26.71 316.53,-31.74 317.63,-24.83"/>
</a>
</g>
</g>
<!-- Node4 -->
<g id="Node000004" class="node">
<title>Node4</title>
<g id="a_Node000004"><a xlink:title=" ">
<polygon fill="#e0e0e0" stroke="#999999" points="497.25,-26 354.5,-26 354.5,-6 497.25,-6 497.25,-26"/>
<text text-anchor="middle" x="425.88" y="-12.5" font-family="Helvetica,sans-Serif" font-size="10.00">javafx.application.Application</text>
</a>
</g>
</g>
<!-- Node1&#45;&gt;Node4 -->
<g id="edge3_Node000001_Node000004" class="edge">
<title>Node1&#45;&gt;Node4</title>
<g id="a_edge3_Node000001_Node000004"><a xlink:title=" ">
<path fill="none" stroke="#63b8ff" d="M1670.36,-83.57C1488.35,-84.53 949.5,-82.54 505.88,-32 497.86,-31.09 489.45,-29.84 481.21,-28.44"/>
<polygon fill="#63b8ff" stroke="#63b8ff" points="482.08,-25.04 471.62,-26.74 480.86,-31.94 482.08,-25.04"/>
</a>
</g>
</g>
<!-- Node5 -->
<g id="Node000005" class="node">
<title>Node5</title>
<g id="a_Node000005"><a xlink:title=" ">
<polygon fill="#e0e0e0" stroke="#999999" points="646.62,-26 515.12,-26 515.12,-6 646.62,-6 646.62,-26"/>
<text text-anchor="middle" x="580.88" y="-12.5" font-family="Helvetica,sans-Serif" font-size="10.00">javafx.application.Platform</text>
</a>
</g>
</g>
<!-- Node1&#45;&gt;Node5 -->
<g id="edge4_Node000001_Node000005" class="edge">
<title>Node1&#45;&gt;Node5</title>
<g id="a_edge4_Node000001_Node000005"><a xlink:title=" ">
<path fill="none" stroke="#63b8ff" d="M1670.35,-83.37C1503.31,-83.63 1038.25,-79.63 654.88,-32 647.79,-31.12 640.37,-29.93 633.08,-28.62"/>
<polygon fill="#63b8ff" stroke="#63b8ff" points="633.76,-25.18 623.28,-26.74 632.44,-32.06 633.76,-25.18"/>
</a>
</g>
</g>
<!-- Node6 -->
<g id="Node000006" class="node">
<title>Node6</title>
<g id="a_Node000006"><a xlink:title=" ">
<polygon fill="#e0e0e0" stroke="#999999" points="779.38,-26 664.38,-26 664.38,-6 779.38,-6 779.38,-26"/>
<text text-anchor="middle" x="721.88" y="-12.5" font-family="Helvetica,sans-Serif" font-size="10.00">javafx.concurrent.Task</text>
</a>
</g>
</g>
<!-- Node1&#45;&gt;Node6 -->
<g id="edge5_Node000001_Node000006" class="edge">
<title>Node1&#45;&gt;Node6</title>
<g id="a_edge5_Node000001_Node000006"><a xlink:title=" ">
<path fill="none" stroke="#63b8ff" d="M1670.49,-83.21C1517.92,-82.91 1118.46,-77.47 788.88,-32 782.75,-31.16 776.36,-30.04 770.05,-28.79"/>
<polygon fill="#63b8ff" stroke="#63b8ff" points="770.87,-25.39 760.37,-26.75 769.43,-32.24 770.87,-25.39"/>
</a>
</g>
</g>
<!-- Node7 -->
<g id="Node000007" class="node">
<title>Node7</title>
<g id="a_Node000007"><a xlink:title=" ">
<polygon fill="#e0e0e0" stroke="#999999" points="920.12,-26 797.62,-26 797.62,-6 920.12,-6 920.12,-26"/>
<text text-anchor="middle" x="858.88" y="-12.5" font-family="Helvetica,sans-Serif" font-size="10.00">javafx.fxml.FXMLLoader</text>
</a>
</g>
</g>
<!-- Node1&#45;&gt;Node7 -->
<g id="edge6_Node000001_Node000007" class="edge">
<title>Node1&#45;&gt;Node7</title>
<g id="a_edge6_Node000001_Node000007"><a xlink:title=" ">
<path fill="none" stroke="#63b8ff" d="M1670.42,-82.16C1534.05,-79.67 1203.2,-69.87 928.88,-32 922.41,-31.11 915.65,-29.95 908.99,-28.67"/>
<polygon fill="#63b8ff" stroke="#63b8ff" points="909.92,-25.29 899.42,-26.74 908.53,-32.15 909.92,-25.29"/>
</a>
</g>
</g>
<!-- Node8 -->
<g id="Node000008" class="node">
<title>Node8</title>
<g id="a_Node000008"><a xlink:title=" ">
<polygon fill="#e0e0e0" stroke="#999999" points="1035.75,-26 938,-26 938,-6 1035.75,-6 1035.75,-26"/>
<text text-anchor="middle" x="986.88" y="-12.5" font-family="Helvetica,sans-Serif" font-size="10.00">javafx.stage.Stage</text>
</a>
</g>
</g>
<!-- Node1&#45;&gt;Node8 -->
<g id="edge7_Node000001_Node000008" class="edge">
<title>Node1&#45;&gt;Node8</title>
<g id="a_edge7_Node000001_Node000008"><a xlink:title=" ">
<path fill="none" stroke="#63b8ff" d="M1670.26,-82.09C1548.19,-79.51 1272.99,-69.63 1044.88,-32 1040.14,-31.22 1035.23,-30.23 1030.36,-29.14"/>
<polygon fill="#63b8ff" stroke="#63b8ff" points="1031.19,-25.74 1020.64,-26.8 1029.55,-32.54 1031.19,-25.74"/>
</a>
</g>
</g>
<!-- Node9 -->
<g id="Node000009" class="node">
<title>Node9</title>
<g id="a_Node000009"><a xlink:title=" ">
<polygon fill="#e0e0e0" stroke="#999999" points="1151.75,-26 1054,-26 1054,-6 1151.75,-6 1151.75,-26"/>
<text text-anchor="middle" x="1102.88" y="-12.5" font-family="Helvetica,sans-Serif" font-size="10.00">javafx.util.Duration</text>
</a>
</g>
</g>
<!-- Node1&#45;&gt;Node9 -->
<g id="edge8_Node000001_Node000009" class="edge">
<title>Node1&#45;&gt;Node9</title>
<g id="a_edge8_Node000001_Node000009"><a xlink:title=" ">
<path fill="none" stroke="#63b8ff" d="M1670.27,-80.75C1564.06,-76.24 1344.18,-63.64 1160.88,-32 1156.21,-31.19 1151.36,-30.2 1146.55,-29.11"/>
<polygon fill="#63b8ff" stroke="#63b8ff" points="1147.51,-25.74 1136.96,-26.79 1145.86,-32.54 1147.51,-25.74"/>
</a>
</g>
</g>
<!-- Node10 -->
<g id="Node000010" class="node">
<title>Node10</title>
<g id="a_Node000010"><a xlink:title=" ">
<polygon fill="#e0e0e0" stroke="#999999" points="1252.25,-26 1169.5,-26 1169.5,-6 1252.25,-6 1252.25,-26"/>
<text text-anchor="middle" x="1210.88" y="-12.5" font-family="Helvetica,sans-Serif" font-size="10.00">org.slf4j.Logger</text>
</a>
</g>
</g>
<!-- Node1&#45;&gt;Node10 -->
<g id="edge9_Node000001_Node000010" class="edge">
<title>Node1&#45;&gt;Node10</title>
<g id="a_edge9_Node000001_Node000010"><a xlink:title=" ">
<path fill="none" stroke="#63b8ff" d="M1670.57,-79.88C1579.3,-74.55 1405.79,-61.29 1260.88,-32 1257.32,-31.28 1253.66,-30.42 1250.01,-29.48"/>
<polygon fill="#63b8ff" stroke="#63b8ff" points="1251.23,-26.19 1240.66,-26.89 1249.36,-32.94 1251.23,-26.19"/>
</a>
</g>
</g>
<!-- Node11 -->
<g id="Node000011" class="node">
<title>Node11</title>
<g id="a_Node000011"><a xlink:title=" ">
<polygon fill="#e0e0e0" stroke="#999999" points="1385.75,-26 1270,-26 1270,-6 1385.75,-6 1385.75,-26"/>
<text text-anchor="middle" x="1327.88" y="-12.5" font-family="Helvetica,sans-Serif" font-size="10.00">org.slf4j.LoggerFactory</text>
</a>
</g>
</g>
<!-- Node1&#45;&gt;Node11 -->
<g id="edge10_Node000001_Node000011" class="edge">
<title>Node1&#45;&gt;Node11</title>
<g id="a_edge10_Node000001_Node000011"><a xlink:title=" ">
<path fill="none" stroke="#63b8ff" d="M1670.35,-74.91C1601.87,-65.86 1489.78,-50.06 1393.88,-32 1388.73,-31.03 1383.38,-29.95 1378.05,-28.81"/>
<polygon fill="#63b8ff" stroke="#63b8ff" points="1379.21,-25.48 1368.69,-26.77 1377.71,-32.32 1379.21,-25.48"/>
</a>
</g>
</g>
<!-- Node12 -->
<g id="Node000012" class="node">
<title>Node12</title>
<g id="a_Node000012"><a xlink:title=" ">
<polygon fill="#e0e0e0" stroke="#999999" points="1620.38,-32 1403.38,-32 1403.38,0 1620.38,0 1620.38,-32"/>
<text text-anchor="start" x="1411.38" y="-18.5" font-family="Helvetica,sans-Serif" font-size="10.00">org.springframework.beans.factory.annotation.</text>
<text text-anchor="middle" x="1511.88" y="-6.5" font-family="Helvetica,sans-Serif" font-size="10.00">Autowired</text>
</a>
</g>
</g>
<!-- Node1&#45;&gt;Node12 -->
<g id="edge11_Node000001_Node000012" class="edge">
<title>Node1&#45;&gt;Node12</title>
<g id="a_edge11_Node000001_Node000012"><a xlink:title=" ">
<path fill="none" stroke="#63b8ff" d="M1681.83,-67.53C1649.79,-58 1608.53,-45.74 1574.69,-35.67"/>
<polygon fill="#63b8ff" stroke="#63b8ff" points="1576.02,-32.42 1565.43,-32.92 1574.02,-39.13 1576.02,-32.42"/>
</a>
</g>
</g>
<!-- Node13 -->
<g id="Node000013" class="node">
<title>Node13</title>
<g id="a_Node000013"><a xlink:title=" ">
<polygon fill="#e0e0e0" stroke="#999999" points="1829.25,-32 1638.5,-32 1638.5,0 1829.25,0 1829.25,-32"/>
<text text-anchor="start" x="1646.5" y="-18.5" font-family="Helvetica,sans-Serif" font-size="10.00">org.springframework.boot.autoconfigure.</text>
<text text-anchor="middle" x="1733.88" y="-6.5" font-family="Helvetica,sans-Serif" font-size="10.00">SpringBootApplication</text>
</a>
</g>
</g>
<!-- Node1&#45;&gt;Node13 -->
<g id="edge12_Node000001_Node000013" class="edge">
<title>Node1&#45;&gt;Node13</title>
<g id="a_edge12_Node000001_Node000013"><a xlink:title=" ">
<path fill="none" stroke="#63b8ff" d="M1733.88,-67.69C1733.88,-60.53 1733.88,-51.79 1733.88,-43.59"/>
<polygon fill="#63b8ff" stroke="#63b8ff" points="1737.38,-43.74 1733.88,-33.74 1730.38,-43.74 1737.38,-43.74"/>
</a>
</g>
</g>
<!-- Node14 -->
<g id="Node000014" class="node">
<title>Node14</title>
<g id="a_Node000014"><a xlink:title=" ">
<polygon fill="#e0e0e0" stroke="#999999" points="2038.25,-32 1847.5,-32 1847.5,0 2038.25,0 2038.25,-32"/>
<text text-anchor="start" x="1855.5" y="-18.5" font-family="Helvetica,sans-Serif" font-size="10.00">org.springframework.context.annotation.</text>
<text text-anchor="middle" x="1942.88" y="-6.5" font-family="Helvetica,sans-Serif" font-size="10.00">ComponentScan</text>
</a>
</g>
</g>
<!-- Node1&#45;&gt;Node14 -->
<g id="edge13_Node000001_Node000014" class="edge">
<title>Node1&#45;&gt;Node14</title>
<g id="a_edge13_Node000001_Node000014"><a xlink:title=" ">
<path fill="none" stroke="#63b8ff" d="M1782.88,-67.53C1812.77,-58.09 1851.21,-45.95 1882.91,-35.94"/>
<polygon fill="#63b8ff" stroke="#63b8ff" points="1883.89,-39.3 1892.38,-32.95 1881.79,-32.62 1883.89,-39.3"/>
</a>
</g>
</g>
<!-- Node15 -->
<g id="Node000015" class="node">
<title>Node15</title>
<g id="a_Node000015"><a xlink:title=" ">
<polygon fill="#e0e0e0" stroke="#999999" points="2185.88,-32 2055.88,-32 2055.88,0 2185.88,0 2185.88,-32"/>
<text text-anchor="start" x="2063.88" y="-18.5" font-family="Helvetica,sans-Serif" font-size="10.00">com.gluonhq.ignite.spring.</text>
<text text-anchor="middle" x="2120.88" y="-6.5" font-family="Helvetica,sans-Serif" font-size="10.00">SpringContext</text>
</a>
</g>
</g>
<!-- Node1&#45;&gt;Node15 -->
<g id="edge14_Node000001_Node000015" class="edge">
<title>Node1&#45;&gt;Node15</title>
<g id="a_edge14_Node000001_Node000015"><a xlink:title=" ">
<path fill="none" stroke="#63b8ff" d="M1797.24,-73.41C1858.09,-64.03 1952.86,-48.99 2044.39,-32.42"/>
<polygon fill="#63b8ff" stroke="#63b8ff" points="2044.83,-35.89 2054.04,-30.66 2043.58,-29.01 2044.83,-35.89"/>
</a>
</g>
</g>
<!-- Node16 -->
<g id="Node000016" class="node">
<title>Node16</title>
<g id="a_Node000016"><a xlink:title=" ">
<polygon fill="#e0e0e0" stroke="#999999" points="2391.38,-26 2204.38,-26 2204.38,-6 2391.38,-6 2391.38,-26"/>
<text text-anchor="middle" x="2297.88" y="-12.5" font-family="Helvetica,sans-Serif" font-size="10.00">fr.softsf.sudokufx.common.enums.I18n</text>
</a>
</g>
</g>
<!-- Node1&#45;&gt;Node16 -->
<g id="edge15_Node000001_Node000016" class="edge">
<title>Node1&#45;&gt;Node16</title>
<g id="a_edge15_Node000001_Node000016"><a xlink:title=" ">
<path fill="none" stroke="#63b8ff" d="M1797.34,-76.68C1886.31,-67.66 2053.1,-50.16 2194.88,-32 2204.28,-30.8 2214.16,-29.45 2223.92,-28.08"/>
<polygon fill="#63b8ff" stroke="#63b8ff" points="2224.38,-31.55 2233.78,-26.68 2223.39,-24.62 2224.38,-31.55"/>
</a>
</g>
</g>
<!-- Node17 -->
<g id="Node000017" class="node">
<title>Node17</title>
<g id="a_Node000017"><a xlink:title=" ">
<polygon fill="#e0e0e0" stroke="#999999" points="2578,-32 2409.75,-32 2409.75,0 2578,0 2578,-32"/>
<text text-anchor="start" x="2417.75" y="-18.5" font-family="Helvetica,sans-Serif" font-size="10.00">fr.softsf.sudokufx.common.enums.</text>
<text text-anchor="middle" x="2493.88" y="-6.5" font-family="Helvetica,sans-Serif" font-size="10.00">LogBackTxt</text>
</a>
</g>
</g>
<!-- Node1&#45;&gt;Node17 -->
<g id="edge16_Node000001_Node000017" class="edge">
<title>Node1&#45;&gt;Node17</title>
<g id="a_edge16_Node000001_Node000017"><a xlink:title=" ">
<path fill="none" stroke="#63b8ff" d="M1797.04,-79.93C1913.75,-73.88 2171.26,-58.74 2398.15,-32.26"/>
<polygon fill="#63b8ff" stroke="#63b8ff" points="2398.24,-35.78 2407.77,-31.13 2397.43,-28.82 2398.24,-35.78"/>
</a>
</g>
</g>
<!-- Node18 -->
<g id="Node000018" class="node">
<title>Node18</title>
<g id="a_Node000018"><a xlink:title=" ">
<polygon fill="#e0e0e0" stroke="#999999" points="2777.38,-32 2596.38,-32 2596.38,0 2777.38,0 2777.38,-32"/>
<text text-anchor="start" x="2604.38" y="-18.5" font-family="Helvetica,sans-Serif" font-size="10.00">fr.softsf.sudokufx.common.exception.</text>
<text text-anchor="middle" x="2686.88" y="-6.5" font-family="Helvetica,sans-Serif" font-size="10.00">ExceptionTools</text>
</a>
</g>
</g>
<!-- Node1&#45;&gt;Node18 -->
<g id="edge17_Node000001_Node000018" class="edge">
<title>Node1&#45;&gt;Node18</title>
<g id="a_edge17_Node000001_Node000018"><a xlink:title=" ">
<path fill="none" stroke="#63b8ff" d="M1797.44,-81.14C1937.62,-76.61 2284.11,-63.13 2584.78,-32.15"/>
<polygon fill="#63b8ff" stroke="#63b8ff" points="2584.81,-35.67 2594.4,-31.15 2584.09,-28.71 2584.81,-35.67"/>
</a>
</g>
</g>
<!-- Node19 -->
<g id="Node000019" class="node">
<title>Node19</title>
<g id="a_Node000019"><a xlink:title=" ">
<polygon fill="#e0e0e0" stroke="#999999" points="2976.75,-32 2795,-32 2795,0 2976.75,0 2976.75,-32"/>
<text text-anchor="start" x="2803" y="-18.5" font-family="Helvetica,sans-Serif" font-size="10.00">fr.softsf.sudokufx.common.interfaces.</text>
<text text-anchor="middle" x="2885.88" y="-6.5" font-family="Helvetica,sans-Serif" font-size="10.00">IMainView</text>
</a>
</g>
</g>
<!-- Node1&#45;&gt;Node19 -->
<g id="edge18_Node000001_Node000019" class="edge">
<title>Node1&#45;&gt;Node19</title>
<g id="a_edge18_Node000001_Node000019"><a xlink:title=" ">
<path fill="none" stroke="#63b8ff" d="M1797.24,-82.18C1959.63,-79.6 2404.05,-69.5 2783.54,-32.27"/>
<polygon fill="#63b8ff" stroke="#63b8ff" points="2783.64,-35.78 2793.25,-31.31 2782.95,-28.81 2783.64,-35.78"/>
</a>
</g>
</g>
<!-- Node20 -->
<g id="Node000020" class="node">
<title>Node20</title>
<g id="a_Node000020"><a xlink:title=" ">
<polygon fill="#e0e0e0" stroke="#999999" points="3176.75,-32 2995,-32 2995,0 3176.75,0 3176.75,-32"/>
<text text-anchor="start" x="3003" y="-18.5" font-family="Helvetica,sans-Serif" font-size="10.00">fr.softsf.sudokufx.common.interfaces.</text>
<text text-anchor="middle" x="3085.88" y="-6.5" font-family="Helvetica,sans-Serif" font-size="10.00">ISplashScreenView</text>
</a>
</g>
</g>
<!-- Node1&#45;&gt;Node20 -->
<g id="edge19_Node000001_Node000020" class="edge">
<title>Node1&#45;&gt;Node20</title>
<g id="a_edge19_Node000001_Node000020"><a xlink:title=" ">
<path fill="none" stroke="#63b8ff" d="M1797.22,-82.84C1979.78,-81.85 2522.79,-75.3 2983.43,-32.16"/>
<polygon fill="#63b8ff" stroke="#63b8ff" points="2983.51,-35.67 2993.13,-31.24 2982.85,-28.7 2983.51,-35.67"/>
</a>
</g>
</g>
<!-- Node21 -->
<g id="Node000021" class="node">
<title>Node21</title>
<g id="a_Node000021"><a xlink:title=" ">
<polygon fill="#e0e0e0" stroke="#999999" points="3346.75,-32 3195,-32 3195,0 3346.75,0 3346.75,-32"/>
<text text-anchor="start" x="3203" y="-18.5" font-family="Helvetica,sans-Serif" font-size="10.00">fr.softsf.sudokufx.common.util.</text>
<text text-anchor="middle" x="3270.88" y="-6.5" font-family="Helvetica,sans-Serif" font-size="10.00">DynamicFontSize</text>
</a>
</g>
</g>
<!-- Node1&#45;&gt;Node21 -->
<g id="edge20_Node000001_Node000021" class="edge">
<title>Node1&#45;&gt;Node21</title>
<g id="a_edge20_Node000001_Node000021"><a xlink:title=" ">
<path fill="none" stroke="#63b8ff" d="M1797.22,-81.95C2036.82,-77.81 2888.56,-61.41 3183.84,-32.08"/>
<polygon fill="#63b8ff" stroke="#63b8ff" points="3183.85,-35.59 3193.44,-31.09 3183.14,-28.63 3183.85,-35.59"/>
</a>
</g>
</g>
<!-- Node22 -->
<g id="Node000022" class="node">
<title>Node22</title>
<g id="a_Node000022"><a xlink:title=" ">
<polygon fill="#e0e0e0" stroke="#999999" points="3516.75,-32 3365,-32 3365,0 3516.75,0 3516.75,-32"/>
<text text-anchor="start" x="3373" y="-18.5" font-family="Helvetica,sans-Serif" font-size="10.00">fr.softsf.sudokufx.common.util.</text>
<text text-anchor="middle" x="3440.88" y="-6.5" font-family="Helvetica,sans-Serif" font-size="10.00">SpringContextInitializer</text>
</a>
</g>
</g>
<!-- Node1&#45;&gt;Node22 -->
<g id="edge21_Node000001_Node000022" class="edge">
<title>Node1&#45;&gt;Node22</title>
<g id="a_edge21_Node000001_Node000022"><a xlink:title=" ">
<path fill="none" stroke="#63b8ff" d="M1797.4,-82.22C2055.02,-78.87 3023.42,-64.43 3353.94,-32.06"/>
<polygon fill="#63b8ff" stroke="#63b8ff" points="3353.85,-35.59 3363.44,-31.11 3353.14,-28.63 3353.85,-35.59"/>
</a>
</g>
</g>
<!-- Node23 -->
<g id="Node000023" class="node">
<title>Node23</title>
<g id="a_Node000023"><a xlink:title=" ">
<polygon fill="#e0e0e0" stroke="#999999" points="3677.25,-32 3534.5,-32 3534.5,0 3677.25,0 3677.25,-32"/>
<text text-anchor="start" x="3542.5" y="-18.5" font-family="Helvetica,sans-Serif" font-size="10.00">fr.softsf.sudokufx.navigation.</text>
<text text-anchor="middle" x="3605.88" y="-6.5" font-family="Helvetica,sans-Serif" font-size="10.00">Coordinator</text>
</a>
</g>
</g>
<!-- Node1&#45;&gt;Node23 -->
<g id="edge22_Node000001_Node000023" class="edge">
<title>Node1&#45;&gt;Node23</title>
<g id="a_edge22_Node000001_Node000023"><a xlink:title=" ">
<path fill="none" stroke="#63b8ff" d="M1797.39,-82.53C2071.75,-80.29 3157.31,-69.3 3523.03,-32.16"/>
<polygon fill="#63b8ff" stroke="#63b8ff" points="3523.34,-35.65 3532.92,-31.13 3522.61,-28.69 3523.34,-35.65"/>
</a>
</g>
</g>
<!-- Node24 -->
<g id="Node000024" class="node">
<title>Node24</title>
<g id="a_Node000024"><a xlink:title=" ">
<polygon fill="#e0e0e0" stroke="#999999" points="3812.88,-32 3694.88,-32 3694.88,0 3812.88,0 3812.88,-32"/>
<text text-anchor="start" x="3702.88" y="-18.5" font-family="Helvetica,sans-Serif" font-size="10.00">fr.softsf.sudokufx.view.</text>
<text text-anchor="middle" x="3753.88" y="-6.5" font-family="Helvetica,sans-Serif" font-size="10.00">SplashScreenView</text>
</a>
</g>
</g>
<!-- Node1&#45;&gt;Node24 -->
<g id="edge23_Node000001_Node000024" class="edge">
<title>Node1&#45;&gt;Node24</title>
<g id="a_edge23_Node000001_Node000024"><a xlink:title=" ">
<path fill="none" stroke="#63b8ff" d="M1797.13,-82.97C2086.25,-82.6 3284.61,-78.3 3683.38,-32.11"/>
<polygon fill="#63b8ff" stroke="#63b8ff" points="3683.63,-35.6 3693.15,-30.94 3682.81,-28.65 3683.63,-35.6"/>
</a>
</g>
</g>
</g>
</svg>
