<?xml version="1.0" encoding="UTF-8" standalone="no"?>
<!DOCTYPE svg PUBLIC "-//W3C//DTD SVG 1.1//EN"
 "http://www.w3.org/Graphics/SVG/1.1/DTD/svg11.dtd">
<!-- Generated by graphviz version 12.2.1 (20241206.2353)
 -->
<!-- Title: src/main/java/fr/softsf/sudokufx/service/ui/ToasterService.java Pages: 1 -->
<!--zoomable 120 -->

<svg id="main" version="1.1" xmlns="http://www.w3.org/2000/svg" xmlns:xlink="http://www.w3.org/1999/xlink" xml:space="preserve" onload="init(evt)">

<style type="text/css"><![CDATA[
.node, .edge {opacity: 0.7;}
.node.selected, .edge.selected {opacity: 1;}
.edge:hover path { stroke: red; }
.edge:hover polygon { stroke: red; fill: red; }
]]></style>

<defs>
  <circle id="rim" cx="0" cy="0" r="7"/>
  <circle id="rim2" cx="0" cy="0" r="3.5"/>
  <g id="zoomPlus">
    <use xlink:href="#rim" fill="#404040"><set attributeName="fill" to="#808080" begin="zoomplus.mouseover" end="zoomplus.mouseout"/></use>
    <path d="M-4,0h8M0,-4v8" fill="none" stroke="white" stroke-width="1.5" pointer-events="none"/>
  </g>
  <g id="zoomMin">
    <use xlink:href="#rim" fill="#404040"><set attributeName="fill" to="#808080" begin="zoomminus.mouseover" end="zoomminus.mouseout"/></use>
    <path d="M-4,0h8" fill="none" stroke="white" stroke-width="1.5" pointer-events="none"/>
  </g>
  <g id="arrowUp" transform="translate(30 24)">
    <use xlink:href="#rim"/>
    <path pointer-events="none" fill="none" stroke="white" stroke-width="1.5" d="M0,-3.0v7 M-2.5,-0.5L0,-3.0L2.5,-0.5"/>
  </g>
  <g id="arrowRight" transform="rotate(90) translate(36 -43)">
    <use xlink:href="#rim"/>
    <path pointer-events="none" fill="none" stroke="white" stroke-width="1.5" d="M0,-3.0v7 M-2.5,-0.5L0,-3.0L2.5,-0.5"/>
  </g>
  <g id="arrowDown" transform="rotate(180) translate(-30 -48)">
    <use xlink:href="#rim"/>
    <path pointer-events="none" fill="none" stroke="white" stroke-width="1.5" d="M0,-3.0v7 M-2.5,-0.5L0,-3.0L2.5,-0.5"/>
  </g>
  <g id="arrowLeft" transform="rotate(270) translate(-36 17)">
    <use xlink:href="#rim"/>
    <path pointer-events="none" fill="none" stroke="white" stroke-width="1.5" d="M0,-3.0v7 M-2.5,-0.5L0,-3.0L2.5,-0.5"/>
  </g>
  <g id="resetDef">
    <use xlink:href="#rim2" fill="#404040"><set attributeName="fill" to="#808080" begin="reset.mouseover" end="reset.mouseout"/></use>
  </g>
</defs>
<script type="application/ecmascript">
var viewWidth = 1912;
var viewHeight = 120;
var sectionId = 'dynsection-0';
</script>
<script type="application/ecmascript" xlink:href="svg.min.js"/>
<svg id="graph" class="graph">
<g id="viewport">
<title>src/main/java/fr/softsf/sudokufx/service/ui/ToasterService.java</title>
<!-- Node1 -->
<g id="Node000001" class="node">
<title>Node1</title>
<g id="a_Node000001"><a xlink:title=" ">
<polygon fill="#999999" stroke="#666666" points="945.75,-112 806.75,-112 806.75,-68 945.75,-68 945.75,-112"/>
<text text-anchor="start" x="814.75" y="-98.5" font-family="Helvetica,sans-Serif" font-size="10.00">src/main/java/fr/softsf</text>
<text text-anchor="start" x="814.75" y="-86.5" font-family="Helvetica,sans-Serif" font-size="10.00">/sudokufx/service/ui/Toaster</text>
<text text-anchor="middle" x="876.25" y="-74.5" font-family="Helvetica,sans-Serif" font-size="10.00">Service.java</text>
</a>
</g>
</g>
<!-- Node2 -->
<g id="Node000002" class="node">
<title>Node2</title>
<g id="a_Node000002"><a xlink:title=" ">
<polygon fill="#e0e0e0" stroke="#999999" points="86.5,-26 0,-26 0,-6 86.5,-6 86.5,-26"/>
<text text-anchor="middle" x="43.25" y="-12.5" font-family="Helvetica,sans-Serif" font-size="10.00">java.util.Objects</text>
</a>
</g>
</g>
<!-- Node1&#45;&gt;Node2 -->
<g id="edge1_Node000001_Node000002" class="edge">
<title>Node1&#45;&gt;Node2</title>
<g id="a_edge1_Node000001_Node000002"><a xlink:title=" ">
<path fill="none" stroke="#63b8ff" d="M806.43,-88.75C669.12,-87.2 354.71,-78.37 95.25,-32 91.22,-31.28 87.06,-30.37 82.92,-29.36"/>
<polygon fill="#63b8ff" stroke="#63b8ff" points="84.18,-26.07 73.61,-26.88 82.38,-32.83 84.18,-26.07"/>
</a>
</g>
</g>
<!-- Node3 -->
<g id="Node000003" class="node">
<title>Node3</title>
<g id="a_Node000003"><a xlink:title=" ">
<polygon fill="#e0e0e0" stroke="#999999" points="236,-26 104.5,-26 104.5,-6 236,-6 236,-26"/>
<text text-anchor="middle" x="170.25" y="-12.5" font-family="Helvetica,sans-Serif" font-size="10.00">javafx.application.Platform</text>
</a>
</g>
</g>
<!-- Node1&#45;&gt;Node3 -->
<g id="edge2_Node000001_Node000003" class="edge">
<title>Node1&#45;&gt;Node3</title>
<g id="a_edge2_Node000001_Node000003"><a xlink:title=" ">
<path fill="none" stroke="#63b8ff" d="M806.28,-85.21C689.41,-78.32 447.28,-61.64 244.25,-32 237.69,-31.04 230.82,-29.88 224.04,-28.62"/>
<polygon fill="#63b8ff" stroke="#63b8ff" points="224.73,-25.19 214.25,-26.74 223.41,-32.06 224.73,-25.19"/>
</a>
</g>
</g>
<!-- Node4 -->
<g id="Node000004" class="node">
<title>Node4</title>
<g id="a_Node000004"><a xlink:title=" ">
<polygon fill="#e0e0e0" stroke="#999999" points="400.88,-32 253.62,-32 253.62,0 400.88,0 400.88,-32"/>
<text text-anchor="start" x="261.62" y="-18.5" font-family="Helvetica,sans-Serif" font-size="10.00">javafx.beans.property.Boolean</text>
<text text-anchor="middle" x="327.25" y="-6.5" font-family="Helvetica,sans-Serif" font-size="10.00">Property</text>
</a>
</g>
</g>
<!-- Node1&#45;&gt;Node4 -->
<g id="edge3_Node000001_Node000004" class="edge">
<title>Node1&#45;&gt;Node4</title>
<g id="a_edge3_Node000001_Node000004"><a xlink:title=" ">
<path fill="none" stroke="#63b8ff" d="M806.6,-81.74C717.59,-72.17 558.48,-54.14 411.96,-32.2"/>
<polygon fill="#63b8ff" stroke="#63b8ff" points="412.89,-28.8 402.48,-30.78 411.84,-35.73 412.89,-28.8"/>
</a>
</g>
</g>
<!-- Node5 -->
<g id="Node000005" class="node">
<title>Node5</title>
<g id="a_Node000005"><a xlink:title=" ">
<polygon fill="#e0e0e0" stroke="#999999" points="559.5,-32 419,-32 419,0 559.5,0 559.5,-32"/>
<text text-anchor="start" x="427" y="-18.5" font-family="Helvetica,sans-Serif" font-size="10.00">javafx.beans.property.Object</text>
<text text-anchor="middle" x="489.25" y="-6.5" font-family="Helvetica,sans-Serif" font-size="10.00">Property</text>
</a>
</g>
</g>
<!-- Node1&#45;&gt;Node5 -->
<g id="edge4_Node000001_Node000005" class="edge">
<title>Node1&#45;&gt;Node5</title>
<g id="a_edge4_Node000001_Node000005"><a xlink:title=" ">
<path fill="none" stroke="#63b8ff" d="M806.51,-76.19C746.63,-65.17 657.69,-48.75 570.99,-32.51"/>
<polygon fill="#63b8ff" stroke="#63b8ff" points="571.84,-29.11 561.37,-30.71 570.55,-35.99 571.84,-29.11"/>
</a>
</g>
</g>
<!-- Node6 -->
<g id="Node000006" class="node">
<title>Node6</title>
<g id="a_Node000006"><a xlink:title=" ">
<polygon fill="#e0e0e0" stroke="#999999" points="712.88,-32 577.62,-32 577.62,0 712.88,0 712.88,-32"/>
<text text-anchor="start" x="585.62" y="-18.5" font-family="Helvetica,sans-Serif" font-size="10.00">javafx.beans.property.Read</text>
<text text-anchor="middle" x="645.25" y="-6.5" font-family="Helvetica,sans-Serif" font-size="10.00">OnlyBooleanProperty</text>
</a>
</g>
</g>
<!-- Node1&#45;&gt;Node6 -->
<g id="edge5_Node000001_Node000006" class="edge">
<title>Node1&#45;&gt;Node6</title>
<g id="a_edge5_Node000001_Node000006"><a xlink:title=" ">
<path fill="none" stroke="#63b8ff" d="M807.57,-67.59C775.21,-57.51 736.95,-45.58 705.7,-35.84"/>
<polygon fill="#63b8ff" stroke="#63b8ff" points="707,-32.58 696.41,-32.95 704.92,-39.26 707,-32.58"/>
</a>
</g>
</g>
<!-- Node7 -->
<g id="Node000007" class="node">
<title>Node7</title>
<g id="a_Node000007"><a xlink:title=" ">
<polygon fill="#e0e0e0" stroke="#999999" points="865.88,-32 730.62,-32 730.62,0 865.88,0 865.88,-32"/>
<text text-anchor="start" x="738.62" y="-18.5" font-family="Helvetica,sans-Serif" font-size="10.00">javafx.beans.property.Read</text>
<text text-anchor="middle" x="798.25" y="-6.5" font-family="Helvetica,sans-Serif" font-size="10.00">OnlyObjectProperty</text>
</a>
</g>
</g>
<!-- Node1&#45;&gt;Node7 -->
<g id="edge6_Node000001_Node000007" class="edge">
<title>Node1&#45;&gt;Node7</title>
<g id="a_edge6_Node000001_Node000007"><a xlink:title=" ">
<path fill="none" stroke="#63b8ff" d="M853.27,-67.79C843.77,-59.02 832.74,-48.84 823.06,-39.91"/>
<polygon fill="#63b8ff" stroke="#63b8ff" points="825.47,-37.36 815.75,-33.15 820.72,-42.51 825.47,-37.36"/>
</a>
</g>
</g>
<!-- Node8 -->
<g id="Node000008" class="node">
<title>Node8</title>
<g id="a_Node000008"><a xlink:title=" ">
<polygon fill="#e0e0e0" stroke="#999999" points="1026.25,-32 884.25,-32 884.25,0 1026.25,0 1026.25,-32"/>
<text text-anchor="start" x="892.25" y="-18.5" font-family="Helvetica,sans-Serif" font-size="10.00">javafx.beans.property.Simple</text>
<text text-anchor="middle" x="955.25" y="-6.5" font-family="Helvetica,sans-Serif" font-size="10.00">BooleanProperty</text>
</a>
</g>
</g>
<!-- Node1&#45;&gt;Node8 -->
<g id="edge7_Node000001_Node000008" class="edge">
<title>Node1&#45;&gt;Node8</title>
<g id="a_edge7_Node000001_Node000008"><a xlink:title=" ">
<path fill="none" stroke="#63b8ff" d="M899.53,-67.79C909.24,-58.93 920.54,-48.63 930.42,-39.63"/>
<polygon fill="#63b8ff" stroke="#63b8ff" points="932.5,-42.47 937.53,-33.15 927.79,-37.3 932.5,-42.47"/>
</a>
</g>
</g>
<!-- Node9 -->
<g id="Node000009" class="node">
<title>Node9</title>
<g id="a_Node000009"><a xlink:title=" ">
<polygon fill="#e0e0e0" stroke="#999999" points="1186.25,-32 1044.25,-32 1044.25,0 1186.25,0 1186.25,-32"/>
<text text-anchor="start" x="1052.25" y="-18.5" font-family="Helvetica,sans-Serif" font-size="10.00">javafx.beans.property.Simple</text>
<text text-anchor="middle" x="1115.25" y="-6.5" font-family="Helvetica,sans-Serif" font-size="10.00">ObjectProperty</text>
</a>
</g>
</g>
<!-- Node1&#45;&gt;Node9 -->
<g id="edge8_Node000001_Node000009" class="edge">
<title>Node1&#45;&gt;Node9</title>
<g id="a_edge8_Node000001_Node000009"><a xlink:title=" ">
<path fill="none" stroke="#63b8ff" d="M946.02,-67.98C979.94,-57.76 1020.36,-45.59 1053.19,-35.69"/>
<polygon fill="#63b8ff" stroke="#63b8ff" points="1054,-39.11 1062.57,-32.87 1051.98,-32.4 1054,-39.11"/>
</a>
</g>
</g>
<!-- Node10 -->
<g id="Node000010" class="node">
<title>Node10</title>
<g id="a_Node000010"><a xlink:title=" ">
<polygon fill="#e0e0e0" stroke="#999999" points="1360.38,-32 1204.12,-32 1204.12,0 1360.38,0 1360.38,-32"/>
<text text-anchor="start" x="1212.12" y="-18.5" font-family="Helvetica,sans-Serif" font-size="10.00">org.springframework.stereotype.</text>
<text text-anchor="middle" x="1282.25" y="-6.5" font-family="Helvetica,sans-Serif" font-size="10.00">Service</text>
</a>
</g>
</g>
<!-- Node1&#45;&gt;Node10 -->
<g id="edge9_Node000001_Node000010" class="edge">
<title>Node1&#45;&gt;Node10</title>
<g id="a_edge9_Node000001_Node000010"><a xlink:title=" ">
<path fill="none" stroke="#63b8ff" d="M946.04,-76.62C1014.19,-64.54 1118.19,-46.09 1192.47,-32.92"/>
<polygon fill="#63b8ff" stroke="#63b8ff" points="1192.94,-36.39 1202.17,-31.2 1191.71,-29.5 1192.94,-36.39"/>
</a>
</g>
</g>
<!-- Node11 -->
<g id="Node000011" class="node">
<title>Node11</title>
<g id="a_Node000011"><a xlink:title=" ">
<polygon fill="#e0e0e0" stroke="#999999" points="1541.75,-32 1378.75,-32 1378.75,0 1541.75,0 1541.75,-32"/>
<text text-anchor="start" x="1386.75" y="-18.5" font-family="Helvetica,sans-Serif" font-size="10.00">edu.umd.cs.findbugs.annotations.</text>
<text text-anchor="middle" x="1460.25" y="-6.5" font-family="Helvetica,sans-Serif" font-size="10.00">SuppressFBWarnings</text>
</a>
</g>
</g>
<!-- Node1&#45;&gt;Node11 -->
<g id="edge10_Node000001_Node000011" class="edge">
<title>Node1&#45;&gt;Node11</title>
<g id="a_edge10_Node000001_Node000011"><a xlink:title=" ">
<path fill="none" stroke="#63b8ff" d="M946.19,-81.99C1039.63,-72.38 1210.61,-53.96 1367.18,-32.25"/>
<polygon fill="#63b8ff" stroke="#63b8ff" points="1367.51,-35.74 1376.93,-30.89 1366.54,-28.8 1367.51,-35.74"/>
</a>
</g>
</g>
<!-- Node12 -->
<g id="Node000012" class="node">
<title>Node12</title>
<g id="a_Node000012"><a xlink:title=" ">
<polygon fill="#e0e0e0" stroke="#999999" points="1728.38,-32 1560.12,-32 1560.12,0 1728.38,0 1728.38,-32"/>
<text text-anchor="start" x="1568.12" y="-18.5" font-family="Helvetica,sans-Serif" font-size="10.00">fr.softsf.sudokufx.common.enums.</text>
<text text-anchor="middle" x="1644.25" y="-6.5" font-family="Helvetica,sans-Serif" font-size="10.00">ToastLevels</text>
</a>
</g>
</g>
<!-- Node1&#45;&gt;Node12 -->
<g id="edge11_Node000001_Node000012" class="edge">
<title>Node1&#45;&gt;Node12</title>
<g id="a_edge11_Node000001_Node000012"><a xlink:title=" ">
<path fill="none" stroke="#63b8ff" d="M945.91,-84.86C1066.51,-77.32 1322.25,-59.63 1548.22,-32.32"/>
<polygon fill="#63b8ff" stroke="#63b8ff" points="1548.64,-35.79 1558.14,-31.11 1547.79,-28.84 1548.64,-35.79"/>
</a>
</g>
</g>
<!-- Node13 -->
<g id="Node000013" class="node">
<title>Node13</title>
<g id="a_Node000013"><a xlink:title=" ">
<polygon fill="#e0e0e0" stroke="#999999" points="1903.75,-26 1746.75,-26 1746.75,-6 1903.75,-6 1903.75,-26"/>
<text text-anchor="middle" x="1825.25" y="-12.5" font-family="Helvetica,sans-Serif" font-size="10.00">fr.softsf.sudokufx.dto.ToastData</text>
</a>
</g>
</g>
<!-- Node1&#45;&gt;Node13 -->
<g id="edge12_Node000001_Node000013" class="edge">
<title>Node1&#45;&gt;Node13</title>
<g id="a_edge12_Node000001_Node000013"><a xlink:title=" ">
<path fill="none" stroke="#63b8ff" d="M946.23,-86.8C1093.18,-81.66 1444.54,-66.54 1737.25,-32 1745.91,-30.98 1755.01,-29.68 1763.94,-28.28"/>
<polygon fill="#63b8ff" stroke="#63b8ff" points="1764.32,-31.76 1773.63,-26.7 1763.19,-24.86 1764.32,-31.76"/>
</a>
</g>
</g>
</g>
</svg>

<g id="navigator" transform="translate(0 0)" fill="#404254">
  <rect fill="#f2f5e9" fill-opacity="0.5" stroke="#606060" stroke-width=".5" x="0" y="0" width="60" height="60"/>
  <use id="zoomplus" xlink:href="#zoomPlus" x="17" y="9" onmousedown="handleZoom(evt,'in')"/>
  <use id="zoomminus" xlink:href="#zoomMin" x="42" y="9" onmousedown="handleZoom(evt,'out')"/>
  <use id="reset" xlink:href="#resetDef" x="30" y="36" onmousedown="handleReset()"/>
   <use id="arrowup" xlink:href="#arrowUp" x="0" y="0" onmousedown="handlePan(0,-1)"/>
  <use id="arrowright" xlink:href="#arrowRight" x="0" y="0" onmousedown="handlePan(1,0)"/>
  <use id="arrowdown" xlink:href="#arrowDown" x="0" y="0" onmousedown="handlePan(0,1)"/>
  <use id="arrowleft" xlink:href="#arrowLeft" x="0" y="0" onmousedown="handlePan(-1,0)"/>
</g>
<svg viewBox="0 0 15 15" width="100%" height="30px" preserveAspectRatio="xMaxYMin meet">
 <g id="arrow_out" transform="scale(0.3 0.3)">
  <a xlink:href="_toaster_service_8java__incl_org.svg" target="_base">
   <rect id="button" ry="5" rx="5" y="6" x="6" height="38" width="38"
        fill="#f2f5e9" fill-opacity="0.5" stroke="#606060" stroke-width="1.0"/>
   <path id="arrow"
     d="M 11.500037,31.436501 C 11.940474,20.09759 22.043105,11.32322 32.158766,21.979434 L 37.068811,17.246167 C 37.068811,17.246167 37.088388,32 37.088388,32 L 22.160133,31.978069 C 22.160133,31.978069 26.997745,27.140456 26.997745,27.140456 C 18.528582,18.264221 13.291696,25.230495 11.500037,31.436501 z"
     style="fill:#404040;"/>
  </a>
 </g>
</svg>

<style type='text/css'>
<![CDATA[
[data-mouse-over-selected='false'] { opacity: 0.7; }
[data-mouse-over-selected='true']  { opacity: 1.0; }
]]>
</style>
<script type="application/ecmascript"><![CDATA[
document.addEventListener('DOMContentLoaded', (event) => {
  highlightEdges();
  highlightAdjacentNodes();
});
]]></script>
</svg>
