<?xml version="1.0" encoding="UTF-8" standalone="no"?>
<!DOCTYPE svg PUBLIC "-//W3C//DTD SVG 1.1//EN"
 "http://www.w3.org/Graphics/SVG/1.1/DTD/svg11.dtd">
<!-- Generated by graphviz version 12.2.1 (20241206.2353)
 -->
<!-- Title: src/main/java/fr/softsf/sudokufx/view/components/toaster/ToasterVBox.java Pages: 1 -->
<!--zoomable 120 -->

<svg id="main" version="1.1" xmlns="http://www.w3.org/2000/svg" xmlns:xlink="http://www.w3.org/1999/xlink" xml:space="preserve" onload="init(evt)">

<style type="text/css"><![CDATA[
.node, .edge {opacity: 0.7;}
.node.selected, .edge.selected {opacity: 1;}
.edge:hover path { stroke: red; }
.edge:hover polygon { stroke: red; fill: red; }
]]></style>

<defs>
  <circle id="rim" cx="0" cy="0" r="7"/>
  <circle id="rim2" cx="0" cy="0" r="3.5"/>
  <g id="zoomPlus">
    <use xlink:href="#rim" fill="#404040"><set attributeName="fill" to="#808080" begin="zoomplus.mouseover" end="zoomplus.mouseout"/></use>
    <path d="M-4,0h8M0,-4v8" fill="none" stroke="white" stroke-width="1.5" pointer-events="none"/>
  </g>
  <g id="zoomMin">
    <use xlink:href="#rim" fill="#404040"><set attributeName="fill" to="#808080" begin="zoomminus.mouseover" end="zoomminus.mouseout"/></use>
    <path d="M-4,0h8" fill="none" stroke="white" stroke-width="1.5" pointer-events="none"/>
  </g>
  <g id="arrowUp" transform="translate(30 24)">
    <use xlink:href="#rim"/>
    <path pointer-events="none" fill="none" stroke="white" stroke-width="1.5" d="M0,-3.0v7 M-2.5,-0.5L0,-3.0L2.5,-0.5"/>
  </g>
  <g id="arrowRight" transform="rotate(90) translate(36 -43)">
    <use xlink:href="#rim"/>
    <path pointer-events="none" fill="none" stroke="white" stroke-width="1.5" d="M0,-3.0v7 M-2.5,-0.5L0,-3.0L2.5,-0.5"/>
  </g>
  <g id="arrowDown" transform="rotate(180) translate(-30 -48)">
    <use xlink:href="#rim"/>
    <path pointer-events="none" fill="none" stroke="white" stroke-width="1.5" d="M0,-3.0v7 M-2.5,-0.5L0,-3.0L2.5,-0.5"/>
  </g>
  <g id="arrowLeft" transform="rotate(270) translate(-36 17)">
    <use xlink:href="#rim"/>
    <path pointer-events="none" fill="none" stroke="white" stroke-width="1.5" d="M0,-3.0v7 M-2.5,-0.5L0,-3.0L2.5,-0.5"/>
  </g>
  <g id="resetDef">
    <use xlink:href="#rim2" fill="#404040"><set attributeName="fill" to="#808080" begin="reset.mouseover" end="reset.mouseout"/></use>
  </g>
</defs>
<script type="application/ecmascript">
var viewWidth = 1824;
var viewHeight = 120;
var sectionId = 'dynsection-0';
</script>
<script type="application/ecmascript" xlink:href="svg.min.js"/>
<svg id="graph" class="graph">
<g id="viewport">
<title>src/main/java/fr/softsf/sudokufx/view/components/toaster/ToasterVBox.java</title>
<!-- Node1 -->
<g id="Node000001" class="node">
<title>Node1</title>
<g id="a_Node000001"><a xlink:title=" ">
<polygon fill="#999999" stroke="#666666" points="984.38,-112 846.12,-112 846.12,-68 984.38,-68 984.38,-112"/>
<text text-anchor="start" x="854.12" y="-98.5" font-family="Helvetica,sans-Serif" font-size="10.00">src/main/java/fr/softsf</text>
<text text-anchor="start" x="854.12" y="-86.5" font-family="Helvetica,sans-Serif" font-size="10.00">/sudokufx/view/components</text>
<text text-anchor="middle" x="915.25" y="-74.5" font-family="Helvetica,sans-Serif" font-size="10.00">/toaster/ToasterVBox.java</text>
</a>
</g>
</g>
<!-- Node2 -->
<g id="Node000002" class="node">
<title>Node2</title>
<g id="a_Node000002"><a xlink:title=" ">
<polygon fill="#e0e0e0" stroke="#999999" points="146.5,-26 0,-26 0,-6 146.5,-6 146.5,-26"/>
<text text-anchor="middle" x="73.25" y="-12.5" font-family="Helvetica,sans-Serif" font-size="10.00">fr.softsf.sudokufx.enums.I18n</text>
</a>
</g>
</g>
<!-- Node1&#45;&gt;Node2 -->
<g id="edge1_Node000001_Node000002" class="edge">
<title>Node1&#45;&gt;Node2</title>
<g id="a_edge1_Node000001_Node000002"><a xlink:title=" ">
<path fill="none" stroke="#63b8ff" d="M845.84,-86.26C711.88,-80.43 408.53,-64.57 155.25,-32 147.44,-31 139.26,-29.74 131.2,-28.39"/>
<polygon fill="#63b8ff" stroke="#63b8ff" points="131.89,-24.96 121.44,-26.69 130.69,-31.85 131.89,-24.96"/>
</a>
</g>
</g>
<!-- Node3 -->
<g id="Node000003" class="node">
<title>Node3</title>
<g id="a_Node000003"><a xlink:title=" ">
<polygon fill="#e0e0e0" stroke="#999999" points="292.12,-32 164.38,-32 164.38,0 292.12,0 292.12,-32"/>
<text text-anchor="start" x="172.38" y="-18.5" font-family="Helvetica,sans-Serif" font-size="10.00">fr.softsf.sudokufx.enums.</text>
<text text-anchor="middle" x="228.25" y="-6.5" font-family="Helvetica,sans-Serif" font-size="10.00">ToastLevels</text>
</a>
</g>
</g>
<!-- Node1&#45;&gt;Node3 -->
<g id="edge2_Node000001_Node000003" class="edge">
<title>Node1&#45;&gt;Node3</title>
<g id="a_edge2_Node000001_Node000003"><a xlink:title=" ">
<path fill="none" stroke="#63b8ff" d="M845.89,-85.06C733.89,-78.14 506.1,-61.81 303.43,-32.22"/>
<polygon fill="#63b8ff" stroke="#63b8ff" points="304.17,-28.79 293.77,-30.79 303.15,-35.71 304.17,-28.79"/>
</a>
</g>
</g>
<!-- Node4 -->
<g id="Node000004" class="node">
<title>Node4</title>
<g id="a_Node000004"><a xlink:title=" ">
<polygon fill="#e0e0e0" stroke="#999999" points="445.88,-26 310.62,-26 310.62,-6 445.88,-6 445.88,-26"/>
<text text-anchor="middle" x="378.25" y="-12.5" font-family="Helvetica,sans-Serif" font-size="10.00">javafx.animation.KeyFrame</text>
</a>
</g>
</g>
<!-- Node1&#45;&gt;Node4 -->
<g id="edge3_Node000001_Node000004" class="edge">
<title>Node1&#45;&gt;Node4</title>
<g id="a_edge3_Node000001_Node000004"><a xlink:title=" ">
<path fill="none" stroke="#63b8ff" d="M845.91,-82C755.51,-72.51 592.6,-54.18 454.25,-32 447.87,-30.98 441.21,-29.81 434.59,-28.59"/>
<polygon fill="#63b8ff" stroke="#63b8ff" points="435.53,-25.2 425.05,-26.78 434.23,-32.08 435.53,-25.2"/>
</a>
</g>
</g>
<!-- Node5 -->
<g id="Node000005" class="node">
<title>Node5</title>
<g id="a_Node000005"><a xlink:title=" ">
<polygon fill="#e0e0e0" stroke="#999999" points="590.75,-26 463.75,-26 463.75,-6 590.75,-6 590.75,-26"/>
<text text-anchor="middle" x="527.25" y="-12.5" font-family="Helvetica,sans-Serif" font-size="10.00">javafx.animation.Timeline</text>
</a>
</g>
</g>
<!-- Node1&#45;&gt;Node5 -->
<g id="edge4_Node000001_Node000005" class="edge">
<title>Node1&#45;&gt;Node5</title>
<g id="a_edge4_Node000001_Node000005"><a xlink:title=" ">
<path fill="none" stroke="#63b8ff" d="M845.8,-77.03C781.71,-65.85 683.93,-48.46 599.25,-32 593.97,-30.97 588.47,-29.88 582.97,-28.76"/>
<polygon fill="#63b8ff" stroke="#63b8ff" points="583.75,-25.35 573.25,-26.77 582.34,-32.21 583.75,-25.35"/>
</a>
</g>
</g>
<!-- Node6 -->
<g id="Node000006" class="node">
<title>Node6</title>
<g id="a_Node000006"><a xlink:title=" ">
<polygon fill="#e0e0e0" stroke="#999999" points="734,-26 608.5,-26 608.5,-6 734,-6 734,-26"/>
<text text-anchor="middle" x="671.25" y="-12.5" font-family="Helvetica,sans-Serif" font-size="10.00">javafx.event.ActionEvent</text>
</a>
</g>
</g>
<!-- Node1&#45;&gt;Node6 -->
<g id="edge5_Node000001_Node000006" class="edge">
<title>Node1&#45;&gt;Node6</title>
<g id="a_edge5_Node000001_Node000006"><a xlink:title=" ">
<path fill="none" stroke="#63b8ff" d="M845.66,-68.46C803.28,-55.96 750.48,-40.38 714.14,-29.66"/>
<polygon fill="#63b8ff" stroke="#63b8ff" points="715.45,-26.39 704.87,-26.92 713.47,-33.11 715.45,-26.39"/>
</a>
</g>
</g>
<!-- Node7 -->
<g id="Node000007" class="node">
<title>Node7</title>
<g id="a_Node000007"><a xlink:title=" ">
<polygon fill="#e0e0e0" stroke="#999999" points="844.88,-26 751.62,-26 751.62,-6 844.88,-6 844.88,-26"/>
<text text-anchor="middle" x="798.25" y="-12.5" font-family="Helvetica,sans-Serif" font-size="10.00">javafx.fxml.FXML</text>
</a>
</g>
</g>
<!-- Node1&#45;&gt;Node7 -->
<g id="edge6_Node000001_Node000007" class="edge">
<title>Node1&#45;&gt;Node7</title>
<g id="a_edge6_Node000001_Node000007"><a xlink:title=" ">
<path fill="none" stroke="#63b8ff" d="M880.46,-67.59C862.05,-56.26 839.88,-42.62 823.2,-32.35"/>
<polygon fill="#63b8ff" stroke="#63b8ff" points="825.24,-29.5 814.89,-27.24 821.57,-35.46 825.24,-29.5"/>
</a>
</g>
</g>
<!-- Node8 -->
<g id="Node000008" class="node">
<title>Node8</title>
<g id="a_Node000008"><a xlink:title=" ">
<polygon fill="#e0e0e0" stroke="#999999" points="967.88,-26 862.62,-26 862.62,-6 967.88,-6 967.88,-26"/>
<text text-anchor="middle" x="915.25" y="-12.5" font-family="Helvetica,sans-Serif" font-size="10.00">javafx.geometry.Pos</text>
</a>
</g>
</g>
<!-- Node1&#45;&gt;Node8 -->
<g id="edge7_Node000001_Node000008" class="edge">
<title>Node1&#45;&gt;Node8</title>
<g id="a_edge7_Node000001_Node000008"><a xlink:title=" ">
<path fill="none" stroke="#63b8ff" d="M915.25,-67.79C915.25,-58.32 915.25,-47.2 915.25,-37.78"/>
<polygon fill="#63b8ff" stroke="#63b8ff" points="918.75,-37.82 915.25,-27.82 911.75,-37.82 918.75,-37.82"/>
</a>
</g>
</g>
<!-- Node9 -->
<g id="Node000009" class="node">
<title>Node9</title>
<g id="a_Node000009"><a xlink:title=" ">
<polygon fill="#e0e0e0" stroke="#999999" points="1084.12,-26 986.38,-26 986.38,-6 1084.12,-6 1084.12,-26"/>
<text text-anchor="middle" x="1035.25" y="-12.5" font-family="Helvetica,sans-Serif" font-size="10.00">javafx.scene.Node</text>
</a>
</g>
</g>
<!-- Node1&#45;&gt;Node9 -->
<g id="edge8_Node000001_Node000009" class="edge">
<title>Node1&#45;&gt;Node9</title>
<g id="a_edge8_Node000001_Node000009"><a xlink:title=" ">
<path fill="none" stroke="#63b8ff" d="M950.93,-67.59C969.81,-56.26 992.56,-42.62 1009.67,-32.35"/>
<polygon fill="#63b8ff" stroke="#63b8ff" points="1011.43,-35.37 1018.21,-27.23 1007.83,-29.37 1011.43,-35.37"/>
</a>
</g>
</g>
<!-- Node10 -->
<g id="Node000010" class="node">
<title>Node10</title>
<g id="a_Node000010"><a xlink:title=" ">
<polygon fill="#e0e0e0" stroke="#999999" points="1237.88,-26 1102.62,-26 1102.62,-6 1237.88,-6 1237.88,-26"/>
<text text-anchor="middle" x="1170.25" y="-12.5" font-family="Helvetica,sans-Serif" font-size="10.00">javafx.scene.control.Tooltip</text>
</a>
</g>
</g>
<!-- Node1&#45;&gt;Node10 -->
<g id="edge9_Node000001_Node000010" class="edge">
<title>Node1&#45;&gt;Node10</title>
<g id="a_edge9_Node000001_Node000010"><a xlink:title=" ">
<path fill="none" stroke="#63b8ff" d="M984.59,-69.42C1029.56,-56.72 1086.81,-40.56 1125.77,-29.56"/>
<polygon fill="#63b8ff" stroke="#63b8ff" points="1126.61,-32.96 1135.28,-26.87 1124.71,-26.22 1126.61,-32.96"/>
</a>
</g>
</g>
<!-- Node11 -->
<g id="Node000011" class="node">
<title>Node11</title>
<g id="a_Node000011"><a xlink:title=" ">
<polygon fill="#e0e0e0" stroke="#999999" points="1396.12,-26 1256.38,-26 1256.38,-6 1396.12,-6 1396.12,-26"/>
<text text-anchor="middle" x="1326.25" y="-12.5" font-family="Helvetica,sans-Serif" font-size="10.00">javafx.scene.input.Clipboard</text>
</a>
</g>
</g>
<!-- Node1&#45;&gt;Node11 -->
<g id="edge10_Node000001_Node000011" class="edge">
<title>Node1&#45;&gt;Node11</title>
<g id="a_edge10_Node000001_Node000011"><a xlink:title=" ">
<path fill="none" stroke="#63b8ff" d="M984.62,-77.46C1051.83,-66.18 1156.61,-48.38 1247.25,-32 1253.26,-30.91 1259.52,-29.76 1265.78,-28.59"/>
<polygon fill="#63b8ff" stroke="#63b8ff" points="1266.3,-32.06 1275.48,-26.77 1265.01,-25.18 1266.3,-32.06"/>
</a>
</g>
</g>
<!-- Node12 -->
<g id="Node000012" class="node">
<title>Node12</title>
<g id="a_Node000012"><a xlink:title=" ">
<polygon fill="#e0e0e0" stroke="#999999" points="1554.12,-32 1414.38,-32 1414.38,0 1554.12,0 1554.12,-32"/>
<text text-anchor="start" x="1422.38" y="-18.5" font-family="Helvetica,sans-Serif" font-size="10.00">javafx.scene.input.Clipboard</text>
<text text-anchor="middle" x="1484.25" y="-6.5" font-family="Helvetica,sans-Serif" font-size="10.00">Content</text>
</a>
</g>
</g>
<!-- Node1&#45;&gt;Node12 -->
<g id="edge11_Node000001_Node000012" class="edge">
<title>Node1&#45;&gt;Node12</title>
<g id="a_edge11_Node000001_Node000012"><a xlink:title=" ">
<path fill="none" stroke="#63b8ff" d="M984.84,-82.49C1077.79,-73.45 1247.83,-55.67 1402.94,-32.29"/>
<polygon fill="#63b8ff" stroke="#63b8ff" points="1403.23,-35.78 1412.59,-30.82 1402.17,-28.86 1403.23,-35.78"/>
</a>
</g>
</g>
<!-- Node13 -->
<g id="Node000013" class="node">
<title>Node13</title>
<g id="a_Node000013"><a xlink:title=" ">
<polygon fill="#e0e0e0" stroke="#999999" points="1700.12,-26 1572.38,-26 1572.38,-6 1700.12,-6 1700.12,-26"/>
<text text-anchor="middle" x="1636.25" y="-12.5" font-family="Helvetica,sans-Serif" font-size="10.00">javafx.scene.layout.VBox</text>
</a>
</g>
</g>
<!-- Node1&#45;&gt;Node13 -->
<g id="edge12_Node000001_Node000013" class="edge">
<title>Node1&#45;&gt;Node13</title>
<g id="a_edge12_Node000001_Node000013"><a xlink:title=" ">
<path fill="none" stroke="#63b8ff" d="M984.6,-85.52C1103.51,-78.97 1353.73,-62.64 1563.25,-32 1569.73,-31.05 1576.5,-29.89 1583.19,-28.64"/>
<polygon fill="#63b8ff" stroke="#63b8ff" points="1583.69,-32.11 1592.83,-26.76 1582.35,-25.24 1583.69,-32.11"/>
</a>
</g>
</g>
<!-- Node14 -->
<g id="Node000014" class="node">
<title>Node14</title>
<g id="a_Node000014"><a xlink:title=" ">
<polygon fill="#e0e0e0" stroke="#999999" points="1816.12,-26 1718.38,-26 1718.38,-6 1816.12,-6 1816.12,-26"/>
<text text-anchor="middle" x="1767.25" y="-12.5" font-family="Helvetica,sans-Serif" font-size="10.00">javafx.util.Duration</text>
</a>
</g>
</g>
<!-- Node1&#45;&gt;Node14 -->
<g id="edge13_Node000001_Node000014" class="edge">
<title>Node1&#45;&gt;Node14</title>
<g id="a_edge13_Node000001_Node000014"><a xlink:title=" ">
<path fill="none" stroke="#63b8ff" d="M984.78,-88.24C1123.47,-85.78 1443.98,-75.45 1709.25,-32 1713.98,-31.22 1718.9,-30.24 1723.77,-29.15"/>
<polygon fill="#63b8ff" stroke="#63b8ff" points="1724.58,-32.56 1733.48,-26.81 1722.94,-25.75 1724.58,-32.56"/>
</a>
</g>
</g>
</g>
</svg>

<g id="navigator" transform="translate(0 0)" fill="#404254">
  <rect fill="#f2f5e9" fill-opacity="0.5" stroke="#606060" stroke-width=".5" x="0" y="0" width="60" height="60"/>
  <use id="zoomplus" xlink:href="#zoomPlus" x="17" y="9" onmousedown="handleZoom(evt,'in')"/>
  <use id="zoomminus" xlink:href="#zoomMin" x="42" y="9" onmousedown="handleZoom(evt,'out')"/>
  <use id="reset" xlink:href="#resetDef" x="30" y="36" onmousedown="handleReset()"/>
   <use id="arrowup" xlink:href="#arrowUp" x="0" y="0" onmousedown="handlePan(0,-1)"/>
  <use id="arrowright" xlink:href="#arrowRight" x="0" y="0" onmousedown="handlePan(1,0)"/>
  <use id="arrowdown" xlink:href="#arrowDown" x="0" y="0" onmousedown="handlePan(0,1)"/>
  <use id="arrowleft" xlink:href="#arrowLeft" x="0" y="0" onmousedown="handlePan(-1,0)"/>
</g>
<svg viewBox="0 0 15 15" width="100%" height="30px" preserveAspectRatio="xMaxYMin meet">
 <g id="arrow_out" transform="scale(0.3 0.3)">
  <a xlink:href="_toaster_v_box_8java__incl_org.svg" target="_base">
   <rect id="button" ry="5" rx="5" y="6" x="6" height="38" width="38"
        fill="#f2f5e9" fill-opacity="0.5" stroke="#606060" stroke-width="1.0"/>
   <path id="arrow"
     d="M 11.500037,31.436501 C 11.940474,20.09759 22.043105,11.32322 32.158766,21.979434 L 37.068811,17.246167 C 37.068811,17.246167 37.088388,32 37.088388,32 L 22.160133,31.978069 C 22.160133,31.978069 26.997745,27.140456 26.997745,27.140456 C 18.528582,18.264221 13.291696,25.230495 11.500037,31.436501 z"
     style="fill:#404040;"/>
  </a>
 </g>
</svg>

<style type='text/css'>
<![CDATA[
[data-mouse-over-selected='false'] { opacity: 0.7; }
[data-mouse-over-selected='true']  { opacity: 1.0; }
]]>
</style>
<script type="application/ecmascript"><![CDATA[
document.addEventListener('DOMContentLoaded', (event) => {
  highlightEdges();
  highlightAdjacentNodes();
});
]]></script>
</svg>
