<?xml version="1.0" encoding="UTF-8" standalone="no"?>
<!DOCTYPE svg PUBLIC "-//W3C//DTD SVG 1.1//EN"
 "http://www.w3.org/Graphics/SVG/1.1/DTD/svg11.dtd">
<!-- Generated by graphviz version 12.2.1 (20241206.2353)
 -->
<!-- Title: src/main/java/fr/softsf/sudokufx/service/ui/ToasterService.java Pages: 1 -->
<svg width="1581pt" height="120pt"
 viewBox="0.00 0.00 1580.75 120.00" xmlns="http://www.w3.org/2000/svg" xmlns:xlink="http://www.w3.org/1999/xlink">
<g id="graph0" class="graph" transform="scale(1 1) rotate(0) translate(4 116)">
<title>src/main/java/fr/softsf/sudokufx/service/ui/ToasterService.java</title>
<!-- Node1 -->
<g id="Node000001" class="node">
<title>Node1</title>
<g id="a_Node000001"><a xlink:title=" ">
<polygon fill="#999999" stroke="#666666" points="796.75,-112 657.75,-112 657.75,-68 796.75,-68 796.75,-112"/>
<text text-anchor="start" x="665.75" y="-98.5" font-family="Helvetica,sans-Serif" font-size="10.00">src/main/java/fr/softsf</text>
<text text-anchor="start" x="665.75" y="-86.5" font-family="Helvetica,sans-Serif" font-size="10.00">/sudokufx/service/ui/Toaster</text>
<text text-anchor="middle" x="727.25" y="-74.5" font-family="Helvetica,sans-Serif" font-size="10.00">Service.java</text>
</a>
</g>
</g>
<!-- Node2 -->
<g id="Node000002" class="node">
<title>Node2</title>
<g id="a_Node000002"><a xlink:title=" ">
<polygon fill="#e0e0e0" stroke="#999999" points="86.5,-26 0,-26 0,-6 86.5,-6 86.5,-26"/>
<text text-anchor="middle" x="43.25" y="-12.5" font-family="Helvetica,sans-Serif" font-size="10.00">java.util.Objects</text>
</a>
</g>
</g>
<!-- Node1&#45;&gt;Node2 -->
<g id="edge1_Node000001_Node000002" class="edge">
<title>Node1&#45;&gt;Node2</title>
<g id="a_edge1_Node000001_Node000002"><a xlink:title=" ">
<path fill="none" stroke="#63b8ff" d="M657.45,-87.05C540.32,-82.82 297.19,-69.87 95.25,-32 91.39,-31.28 87.41,-30.39 83.45,-29.41"/>
<polygon fill="#63b8ff" stroke="#63b8ff" points="84.47,-26.06 73.9,-26.87 82.66,-32.83 84.47,-26.06"/>
</a>
</g>
</g>
<!-- Node3 -->
<g id="Node000003" class="node">
<title>Node3</title>
<g id="a_Node000003"><a xlink:title=" ">
<polygon fill="#e0e0e0" stroke="#999999" points="251.88,-32 104.62,-32 104.62,0 251.88,0 251.88,-32"/>
<text text-anchor="start" x="112.62" y="-18.5" font-family="Helvetica,sans-Serif" font-size="10.00">javafx.beans.property.Boolean</text>
<text text-anchor="middle" x="178.25" y="-6.5" font-family="Helvetica,sans-Serif" font-size="10.00">Property</text>
</a>
</g>
</g>
<!-- Node1&#45;&gt;Node3 -->
<g id="edge2_Node000001_Node000003" class="edge">
<title>Node1&#45;&gt;Node3</title>
<g id="a_edge2_Node000001_Node000003"><a xlink:title=" ">
<path fill="none" stroke="#63b8ff" d="M657.6,-81.74C568.59,-72.17 409.48,-54.14 262.96,-32.2"/>
<polygon fill="#63b8ff" stroke="#63b8ff" points="263.89,-28.8 253.48,-30.78 262.84,-35.73 263.89,-28.8"/>
</a>
</g>
</g>
<!-- Node4 -->
<g id="Node000004" class="node">
<title>Node4</title>
<g id="a_Node000004"><a xlink:title=" ">
<polygon fill="#e0e0e0" stroke="#999999" points="410.5,-32 270,-32 270,0 410.5,0 410.5,-32"/>
<text text-anchor="start" x="278" y="-18.5" font-family="Helvetica,sans-Serif" font-size="10.00">javafx.beans.property.Object</text>
<text text-anchor="middle" x="340.25" y="-6.5" font-family="Helvetica,sans-Serif" font-size="10.00">Property</text>
</a>
</g>
</g>
<!-- Node1&#45;&gt;Node4 -->
<g id="edge3_Node000001_Node000004" class="edge">
<title>Node1&#45;&gt;Node4</title>
<g id="a_edge3_Node000001_Node000004"><a xlink:title=" ">
<path fill="none" stroke="#63b8ff" d="M657.51,-76.19C597.63,-65.17 508.69,-48.75 421.99,-32.51"/>
<polygon fill="#63b8ff" stroke="#63b8ff" points="422.84,-29.11 412.37,-30.71 421.55,-35.99 422.84,-29.11"/>
</a>
</g>
</g>
<!-- Node5 -->
<g id="Node000005" class="node">
<title>Node5</title>
<g id="a_Node000005"><a xlink:title=" ">
<polygon fill="#e0e0e0" stroke="#999999" points="563.88,-32 428.62,-32 428.62,0 563.88,0 563.88,-32"/>
<text text-anchor="start" x="436.62" y="-18.5" font-family="Helvetica,sans-Serif" font-size="10.00">javafx.beans.property.Read</text>
<text text-anchor="middle" x="496.25" y="-6.5" font-family="Helvetica,sans-Serif" font-size="10.00">OnlyBooleanProperty</text>
</a>
</g>
</g>
<!-- Node1&#45;&gt;Node5 -->
<g id="edge4_Node000001_Node000005" class="edge">
<title>Node1&#45;&gt;Node5</title>
<g id="a_edge4_Node000001_Node000005"><a xlink:title=" ">
<path fill="none" stroke="#63b8ff" d="M658.57,-67.59C626.21,-57.51 587.95,-45.58 556.7,-35.84"/>
<polygon fill="#63b8ff" stroke="#63b8ff" points="558,-32.58 547.41,-32.95 555.92,-39.26 558,-32.58"/>
</a>
</g>
</g>
<!-- Node6 -->
<g id="Node000006" class="node">
<title>Node6</title>
<g id="a_Node000006"><a xlink:title=" ">
<polygon fill="#e0e0e0" stroke="#999999" points="716.88,-32 581.62,-32 581.62,0 716.88,0 716.88,-32"/>
<text text-anchor="start" x="589.62" y="-18.5" font-family="Helvetica,sans-Serif" font-size="10.00">javafx.beans.property.Read</text>
<text text-anchor="middle" x="649.25" y="-6.5" font-family="Helvetica,sans-Serif" font-size="10.00">OnlyObjectProperty</text>
</a>
</g>
</g>
<!-- Node1&#45;&gt;Node6 -->
<g id="edge5_Node000001_Node000006" class="edge">
<title>Node1&#45;&gt;Node6</title>
<g id="a_edge5_Node000001_Node000006"><a xlink:title=" ">
<path fill="none" stroke="#63b8ff" d="M704.27,-67.79C694.77,-59.02 683.74,-48.84 674.06,-39.91"/>
<polygon fill="#63b8ff" stroke="#63b8ff" points="676.47,-37.36 666.75,-33.15 671.72,-42.51 676.47,-37.36"/>
</a>
</g>
</g>
<!-- Node7 -->
<g id="Node000007" class="node">
<title>Node7</title>
<g id="a_Node000007"><a xlink:title=" ">
<polygon fill="#e0e0e0" stroke="#999999" points="877.25,-32 735.25,-32 735.25,0 877.25,0 877.25,-32"/>
<text text-anchor="start" x="743.25" y="-18.5" font-family="Helvetica,sans-Serif" font-size="10.00">javafx.beans.property.Simple</text>
<text text-anchor="middle" x="806.25" y="-6.5" font-family="Helvetica,sans-Serif" font-size="10.00">BooleanProperty</text>
</a>
</g>
</g>
<!-- Node1&#45;&gt;Node7 -->
<g id="edge6_Node000001_Node000007" class="edge">
<title>Node1&#45;&gt;Node7</title>
<g id="a_edge6_Node000001_Node000007"><a xlink:title=" ">
<path fill="none" stroke="#63b8ff" d="M750.53,-67.79C760.24,-58.93 771.54,-48.63 781.42,-39.63"/>
<polygon fill="#63b8ff" stroke="#63b8ff" points="783.5,-42.47 788.53,-33.15 778.79,-37.3 783.5,-42.47"/>
</a>
</g>
</g>
<!-- Node8 -->
<g id="Node000008" class="node">
<title>Node8</title>
<g id="a_Node000008"><a xlink:title=" ">
<polygon fill="#e0e0e0" stroke="#999999" points="1037.25,-32 895.25,-32 895.25,0 1037.25,0 1037.25,-32"/>
<text text-anchor="start" x="903.25" y="-18.5" font-family="Helvetica,sans-Serif" font-size="10.00">javafx.beans.property.Simple</text>
<text text-anchor="middle" x="966.25" y="-6.5" font-family="Helvetica,sans-Serif" font-size="10.00">ObjectProperty</text>
</a>
</g>
</g>
<!-- Node1&#45;&gt;Node8 -->
<g id="edge7_Node000001_Node000008" class="edge">
<title>Node1&#45;&gt;Node8</title>
<g id="a_edge7_Node000001_Node000008"><a xlink:title=" ">
<path fill="none" stroke="#63b8ff" d="M797.02,-67.98C830.94,-57.76 871.36,-45.59 904.19,-35.69"/>
<polygon fill="#63b8ff" stroke="#63b8ff" points="905,-39.11 913.57,-32.87 902.98,-32.4 905,-39.11"/>
</a>
</g>
</g>
<!-- Node9 -->
<g id="Node000009" class="node">
<title>Node9</title>
<g id="a_Node000009"><a xlink:title=" ">
<polygon fill="#e0e0e0" stroke="#999999" points="1211.38,-32 1055.12,-32 1055.12,0 1211.38,0 1211.38,-32"/>
<text text-anchor="start" x="1063.12" y="-18.5" font-family="Helvetica,sans-Serif" font-size="10.00">org.springframework.stereotype.</text>
<text text-anchor="middle" x="1133.25" y="-6.5" font-family="Helvetica,sans-Serif" font-size="10.00">Service</text>
</a>
</g>
</g>
<!-- Node1&#45;&gt;Node9 -->
<g id="edge8_Node000001_Node000009" class="edge">
<title>Node1&#45;&gt;Node9</title>
<g id="a_edge8_Node000001_Node000009"><a xlink:title=" ">
<path fill="none" stroke="#63b8ff" d="M797.04,-76.62C865.19,-64.54 969.19,-46.09 1043.47,-32.92"/>
<polygon fill="#63b8ff" stroke="#63b8ff" points="1043.94,-36.39 1053.17,-31.2 1042.71,-29.5 1043.94,-36.39"/>
</a>
</g>
</g>
<!-- Node10 -->
<g id="Node000010" class="node">
<title>Node10</title>
<g id="a_Node000010"><a xlink:title=" ">
<polygon fill="#e0e0e0" stroke="#999999" points="1397.38,-32 1229.12,-32 1229.12,0 1397.38,0 1397.38,-32"/>
<text text-anchor="start" x="1237.12" y="-18.5" font-family="Helvetica,sans-Serif" font-size="10.00">fr.softsf.sudokufx.common.enums.</text>
<text text-anchor="middle" x="1313.25" y="-6.5" font-family="Helvetica,sans-Serif" font-size="10.00">ToastLevels</text>
</a>
</g>
</g>
<!-- Node1&#45;&gt;Node10 -->
<g id="edge9_Node000001_Node000010" class="edge">
<title>Node1&#45;&gt;Node10</title>
<g id="a_edge9_Node000001_Node000010"><a xlink:title=" ">
<path fill="none" stroke="#63b8ff" d="M797.18,-81.91C890.6,-72.22 1061.57,-53.71 1217.43,-32.36"/>
<polygon fill="#63b8ff" stroke="#63b8ff" points="1217.7,-35.85 1227.13,-31.02 1216.74,-28.92 1217.7,-35.85"/>
</a>
</g>
</g>
<!-- Node11 -->
<g id="Node000011" class="node">
<title>Node11</title>
<g id="a_Node000011"><a xlink:title=" ">
<polygon fill="#e0e0e0" stroke="#999999" points="1572.75,-26 1415.75,-26 1415.75,-6 1572.75,-6 1572.75,-26"/>
<text text-anchor="middle" x="1494.25" y="-12.5" font-family="Helvetica,sans-Serif" font-size="10.00">fr.softsf.sudokufx.dto.ToastData</text>
</a>
</g>
</g>
<!-- Node1&#45;&gt;Node11 -->
<g id="edge10_Node000001_Node000011" class="edge">
<title>Node1&#45;&gt;Node11</title>
<g id="a_edge10_Node000001_Node000011"><a xlink:title=" ">
<path fill="none" stroke="#63b8ff" d="M796.86,-85.12C920.06,-77.81 1184.45,-60.16 1406.25,-32 1414.59,-30.94 1423.34,-29.66 1431.96,-28.29"/>
<polygon fill="#63b8ff" stroke="#63b8ff" points="1432.37,-31.77 1441.68,-26.71 1431.25,-24.86 1432.37,-31.77"/>
</a>
</g>
</g>
</g>
</svg>
