<?xml version="1.0" encoding="UTF-8" standalone="no"?>
<!DOCTYPE svg PUBLIC "-//W3C//DTD SVG 1.1//EN"
 "http://www.w3.org/Graphics/SVG/1.1/DTD/svg11.dtd">
<!-- Generated by graphviz version 12.2.1 (20241206.2353)
 -->
<!-- Title: src/main/java/fr/softsf/sudokufx/service/VersionService.java Pages: 1 -->
<!--zoomable 120 -->

<svg id="main" version="1.1" xmlns="http://www.w3.org/2000/svg" xmlns:xlink="http://www.w3.org/1999/xlink" xml:space="preserve" onload="init(evt)">

<style type="text/css"><![CDATA[
.node, .edge {opacity: 0.7;}
.node.selected, .edge.selected {opacity: 1;}
.edge:hover path { stroke: red; }
.edge:hover polygon { stroke: red; fill: red; }
]]></style>

<defs>
  <circle id="rim" cx="0" cy="0" r="7"/>
  <circle id="rim2" cx="0" cy="0" r="3.5"/>
  <g id="zoomPlus">
    <use xlink:href="#rim" fill="#404040"><set attributeName="fill" to="#808080" begin="zoomplus.mouseover" end="zoomplus.mouseout"/></use>
    <path d="M-4,0h8M0,-4v8" fill="none" stroke="white" stroke-width="1.5" pointer-events="none"/>
  </g>
  <g id="zoomMin">
    <use xlink:href="#rim" fill="#404040"><set attributeName="fill" to="#808080" begin="zoomminus.mouseover" end="zoomminus.mouseout"/></use>
    <path d="M-4,0h8" fill="none" stroke="white" stroke-width="1.5" pointer-events="none"/>
  </g>
  <g id="arrowUp" transform="translate(30 24)">
    <use xlink:href="#rim"/>
    <path pointer-events="none" fill="none" stroke="white" stroke-width="1.5" d="M0,-3.0v7 M-2.5,-0.5L0,-3.0L2.5,-0.5"/>
  </g>
  <g id="arrowRight" transform="rotate(90) translate(36 -43)">
    <use xlink:href="#rim"/>
    <path pointer-events="none" fill="none" stroke="white" stroke-width="1.5" d="M0,-3.0v7 M-2.5,-0.5L0,-3.0L2.5,-0.5"/>
  </g>
  <g id="arrowDown" transform="rotate(180) translate(-30 -48)">
    <use xlink:href="#rim"/>
    <path pointer-events="none" fill="none" stroke="white" stroke-width="1.5" d="M0,-3.0v7 M-2.5,-0.5L0,-3.0L2.5,-0.5"/>
  </g>
  <g id="arrowLeft" transform="rotate(270) translate(-36 17)">
    <use xlink:href="#rim"/>
    <path pointer-events="none" fill="none" stroke="white" stroke-width="1.5" d="M0,-3.0v7 M-2.5,-0.5L0,-3.0L2.5,-0.5"/>
  </g>
  <g id="resetDef">
    <use xlink:href="#rim2" fill="#404040"><set attributeName="fill" to="#808080" begin="reset.mouseover" end="reset.mouseout"/></use>
  </g>
</defs>
<script type="application/ecmascript">
var viewWidth = 3004;
var viewHeight = 120;
var sectionId = 'dynsection-0';
</script>
<script type="application/ecmascript" xlink:href="svg.min.js"/>
<svg id="graph" class="graph">
<g id="viewport">
<title>src/main/java/fr/softsf/sudokufx/service/VersionService.java</title>
<!-- Node1 -->
<g id="Node000001" class="node">
<title>Node1</title>
<g id="a_Node000001"><a xlink:title=" ">
<polygon fill="#999999" stroke="#666666" points="1373,-112 1190.5,-112 1190.5,-80 1373,-80 1373,-112"/>
<text text-anchor="start" x="1198.5" y="-98.5" font-family="Helvetica,sans-Serif" font-size="10.00">src/main/java/fr/softsf</text>
<text text-anchor="middle" x="1281.75" y="-86.5" font-family="Helvetica,sans-Serif" font-size="10.00">/sudokufx/service/VersionService.java</text>
</a>
</g>
</g>
<!-- Node2 -->
<g id="Node000002" class="node">
<title>Node2</title>
<g id="a_Node000002"><a xlink:title=" ">
<polygon fill="#e0e0e0" stroke="#999999" points="101.5,-32 0,-32 0,-12 101.5,-12 101.5,-32"/>
<text text-anchor="middle" x="50.75" y="-18.5" font-family="Helvetica,sans-Serif" font-size="10.00">java.io.IOException</text>
</a>
</g>
</g>
<!-- Node1&#45;&gt;Node2 -->
<g id="edge1_Node000001_Node000002" class="edge">
<title>Node1&#45;&gt;Node2</title>
<g id="a_edge1_Node000001_Node000002"><a xlink:title=" ">
<path fill="none" stroke="#63b8ff" d="M1190.05,-94.47C951.7,-92.53 316.94,-83.68 110.75,-44 101.68,-42.26 92.13,-39.41 83.38,-36.36"/>
<polygon fill="#63b8ff" stroke="#63b8ff" points="84.84,-33.17 74.25,-33 82.42,-39.74 84.84,-33.17"/>
</a>
</g>
</g>
<!-- Node3 -->
<g id="Node000003" class="node">
<title>Node3</title>
<g id="a_Node000003"><a xlink:title=" ">
<polygon fill="#e0e0e0" stroke="#999999" points="191.5,-32 120,-32 120,-12 191.5,-12 191.5,-32"/>
<text text-anchor="middle" x="155.75" y="-18.5" font-family="Helvetica,sans-Serif" font-size="10.00">java.net.URI</text>
</a>
</g>
</g>
<!-- Node1&#45;&gt;Node3 -->
<g id="edge2_Node000001_Node000003" class="edge">
<title>Node1&#45;&gt;Node3</title>
<g id="a_edge2_Node000001_Node000003"><a xlink:title=" ">
<path fill="none" stroke="#63b8ff" d="M1190.23,-95.33C964.53,-95.39 386.12,-90.84 199.75,-44 193.59,-42.45 187.27,-40.01 181.4,-37.33"/>
<polygon fill="#63b8ff" stroke="#63b8ff" points="183.34,-34.38 172.82,-33.06 180.22,-40.65 183.34,-34.38"/>
</a>
</g>
</g>
<!-- Node4 -->
<g id="Node000004" class="node">
<title>Node4</title>
<g id="a_Node000004"><a xlink:title=" ">
<polygon fill="#e0e0e0" stroke="#999999" points="326.38,-32 209.12,-32 209.12,-12 326.38,-12 326.38,-32"/>
<text text-anchor="middle" x="267.75" y="-18.5" font-family="Helvetica,sans-Serif" font-size="10.00">java.net.http.HttpClient</text>
</a>
</g>
</g>
<!-- Node1&#45;&gt;Node4 -->
<g id="edge3_Node000001_Node000004" class="edge">
<title>Node1&#45;&gt;Node4</title>
<g id="a_edge3_Node000001_Node000004"><a xlink:title=" ">
<path fill="none" stroke="#63b8ff" d="M1190.15,-92.93C985.8,-87.83 497.97,-72.97 335.75,-44 325.32,-42.14 314.25,-39.17 304.14,-36.04"/>
<polygon fill="#63b8ff" stroke="#63b8ff" points="305.25,-32.72 294.65,-32.96 303.08,-39.38 305.25,-32.72"/>
</a>
</g>
</g>
<!-- Node5 -->
<g id="Node000005" class="node">
<title>Node5</title>
<g id="a_Node000005"><a xlink:title=" ">
<polygon fill="#e0e0e0" stroke="#999999" points="473,-32 344.5,-32 344.5,-12 473,-12 473,-32"/>
<text text-anchor="middle" x="408.75" y="-18.5" font-family="Helvetica,sans-Serif" font-size="10.00">java.net.http.HttpRequest</text>
</a>
</g>
</g>
<!-- Node1&#45;&gt;Node5 -->
<g id="edge4_Node000001_Node000005" class="edge">
<title>Node1&#45;&gt;Node5</title>
<g id="a_edge4_Node000001_Node000005"><a xlink:title=" ">
<path fill="none" stroke="#63b8ff" d="M1190.12,-95.57C1040.66,-95.07 735.59,-88.07 481.75,-44 470.25,-42 457.98,-38.88 446.84,-35.64"/>
<polygon fill="#63b8ff" stroke="#63b8ff" points="448.19,-32.39 437.6,-32.85 446.16,-39.09 448.19,-32.39"/>
</a>
</g>
</g>
<!-- Node6 -->
<g id="Node000006" class="node">
<title>Node6</title>
<g id="a_Node000006"><a xlink:title=" ">
<polygon fill="#e0e0e0" stroke="#999999" points="626.75,-32 490.75,-32 490.75,-12 626.75,-12 626.75,-32"/>
<text text-anchor="middle" x="558.75" y="-18.5" font-family="Helvetica,sans-Serif" font-size="10.00">java.net.http.HttpResponse</text>
</a>
</g>
</g>
<!-- Node1&#45;&gt;Node6 -->
<g id="edge5_Node000001_Node000006" class="edge">
<title>Node1&#45;&gt;Node6</title>
<g id="a_edge5_Node000001_Node000006"><a xlink:title=" ">
<path fill="none" stroke="#63b8ff" d="M1190.14,-93.16C1064.32,-89.41 831.37,-78.09 635.75,-44 623.75,-41.91 610.91,-38.78 599.23,-35.57"/>
<polygon fill="#63b8ff" stroke="#63b8ff" points="600.47,-32.28 589.9,-32.91 598.56,-39.02 600.47,-32.28"/>
</a>
</g>
</g>
<!-- Node7 -->
<g id="Node000007" class="node">
<title>Node7</title>
<g id="a_Node000007"><a xlink:title=" ">
<polygon fill="#e0e0e0" stroke="#999999" points="772.25,-38 645.25,-38 645.25,-6 772.25,-6 772.25,-38"/>
<text text-anchor="start" x="653.25" y="-24.5" font-family="Helvetica,sans-Serif" font-size="10.00">java.net.http.HttpTimeout</text>
<text text-anchor="middle" x="708.75" y="-12.5" font-family="Helvetica,sans-Serif" font-size="10.00">Exception</text>
</a>
</g>
</g>
<!-- Node1&#45;&gt;Node7 -->
<g id="edge6_Node000001_Node000007" class="edge">
<title>Node1&#45;&gt;Node7</title>
<g id="a_edge6_Node000001_Node000007"><a xlink:title=" ">
<path fill="none" stroke="#63b8ff" d="M1190.05,-90.69C1089.03,-84.78 922.12,-71.57 780.75,-44 776.68,-43.21 772.5,-42.28 768.31,-41.28"/>
<polygon fill="#63b8ff" stroke="#63b8ff" points="769.28,-37.91 758.72,-38.82 767.54,-44.69 769.28,-37.91"/>
</a>
</g>
</g>
<!-- Node8 -->
<g id="Node000008" class="node">
<title>Node8</title>
<g id="a_Node000008"><a xlink:title=" ">
<polygon fill="#e0e0e0" stroke="#999999" points="885.5,-32 790,-32 790,-12 885.5,-12 885.5,-32"/>
<text text-anchor="middle" x="837.75" y="-18.5" font-family="Helvetica,sans-Serif" font-size="10.00">java.time.Duration</text>
</a>
</g>
</g>
<!-- Node1&#45;&gt;Node8 -->
<g id="edge7_Node000001_Node000008" class="edge">
<title>Node1&#45;&gt;Node8</title>
<g id="a_edge7_Node000001_Node000008"><a xlink:title=" ">
<path fill="none" stroke="#63b8ff" d="M1190.38,-88.71C1111.28,-81.91 994.26,-68.56 894.75,-44 886.75,-42.02 878.32,-39.3 870.47,-36.46"/>
<polygon fill="#63b8ff" stroke="#63b8ff" points="871.87,-33.25 861.28,-32.98 869.39,-39.8 871.87,-33.25"/>
</a>
</g>
</g>
<!-- Node9 -->
<g id="Node000009" class="node">
<title>Node9</title>
<g id="a_Node000009"><a xlink:title=" ">
<polygon fill="#e0e0e0" stroke="#999999" points="972,-32 903.5,-32 903.5,-12 972,-12 972,-32"/>
<text text-anchor="middle" x="937.75" y="-18.5" font-family="Helvetica,sans-Serif" font-size="10.00">java.util.List</text>
</a>
</g>
</g>
<!-- Node1&#45;&gt;Node9 -->
<g id="edge8_Node000001_Node000009" class="edge">
<title>Node1&#45;&gt;Node9</title>
<g id="a_edge8_Node000001_Node000009"><a xlink:title=" ">
<path fill="none" stroke="#63b8ff" d="M1190.24,-86.39C1129.74,-79.03 1049.25,-66.02 980.75,-44 975.16,-42.2 969.38,-39.8 963.94,-37.26"/>
<polygon fill="#63b8ff" stroke="#63b8ff" points="965.9,-34.32 955.39,-33 962.78,-40.59 965.9,-34.32"/>
</a>
</g>
</g>
<!-- Node10 -->
<g id="Node000010" class="node">
<title>Node10</title>
<g id="a_Node000010"><a xlink:title=" ">
<polygon fill="#e0e0e0" stroke="#999999" points="1105.25,-32 990.25,-32 990.25,-12 1105.25,-12 1105.25,-32"/>
<text text-anchor="middle" x="1047.75" y="-18.5" font-family="Helvetica,sans-Serif" font-size="10.00">javafx.concurrent.Task</text>
</a>
</g>
</g>
<!-- Node1&#45;&gt;Node10 -->
<g id="edge9_Node000001_Node000010" class="edge">
<title>Node1&#45;&gt;Node10</title>
<g id="a_edge9_Node000001_Node000010"><a xlink:title=" ">
<path fill="none" stroke="#63b8ff" d="M1230.93,-79.58C1197.82,-69.52 1153.7,-56.05 1114.75,-44 1106.33,-41.39 1097.32,-38.59 1088.73,-35.9"/>
<polygon fill="#63b8ff" stroke="#63b8ff" points="1089.79,-32.56 1079.2,-32.91 1087.69,-39.24 1089.79,-32.56"/>
</a>
</g>
</g>
<!-- Node11 -->
<g id="Node000011" class="node">
<title>Node11</title>
<g id="a_Node000011"><a xlink:title=" ">
<polygon fill="#e0e0e0" stroke="#999999" points="1206.12,-32 1123.38,-32 1123.38,-12 1206.12,-12 1206.12,-32"/>
<text text-anchor="middle" x="1164.75" y="-18.5" font-family="Helvetica,sans-Serif" font-size="10.00">org.slf4j.Logger</text>
</a>
</g>
</g>
<!-- Node1&#45;&gt;Node11 -->
<g id="edge10_Node000001_Node000011" class="edge">
<title>Node1&#45;&gt;Node11</title>
<g id="a_edge10_Node000001_Node000011"><a xlink:title=" ">
<path fill="none" stroke="#63b8ff" d="M1256.65,-79.55C1236.87,-67.38 1209.42,-50.49 1189.68,-38.34"/>
<polygon fill="#63b8ff" stroke="#63b8ff" points="1191.78,-35.52 1181.43,-33.26 1188.11,-41.49 1191.78,-35.52"/>
</a>
</g>
</g>
<!-- Node12 -->
<g id="Node000012" class="node">
<title>Node12</title>
<g id="a_Node000012"><a xlink:title=" ">
<polygon fill="#e0e0e0" stroke="#999999" points="1339.62,-32 1223.88,-32 1223.88,-12 1339.62,-12 1339.62,-32"/>
<text text-anchor="middle" x="1281.75" y="-18.5" font-family="Helvetica,sans-Serif" font-size="10.00">org.slf4j.LoggerFactory</text>
</a>
</g>
</g>
<!-- Node1&#45;&gt;Node12 -->
<g id="edge11_Node000001_Node000012" class="edge">
<title>Node1&#45;&gt;Node12</title>
<g id="a_edge11_Node000001_Node000012"><a xlink:title=" ">
<path fill="none" stroke="#63b8ff" d="M1281.75,-79.73C1281.75,-69.18 1281.75,-55.03 1281.75,-43.5"/>
<polygon fill="#63b8ff" stroke="#63b8ff" points="1285.25,-43.82 1281.75,-33.82 1278.25,-43.82 1285.25,-43.82"/>
</a>
</g>
</g>
<!-- Node13 -->
<g id="Node000013" class="node">
<title>Node13</title>
<g id="a_Node000013"><a xlink:title=" ">
<polygon fill="#e0e0e0" stroke="#999999" points="1513.88,-38 1357.62,-38 1357.62,-6 1513.88,-6 1513.88,-38"/>
<text text-anchor="start" x="1365.62" y="-24.5" font-family="Helvetica,sans-Serif" font-size="10.00">org.springframework.stereotype.</text>
<text text-anchor="middle" x="1435.75" y="-12.5" font-family="Helvetica,sans-Serif" font-size="10.00">Service</text>
</a>
</g>
</g>
<!-- Node1&#45;&gt;Node13 -->
<g id="edge12_Node000001_Node000013" class="edge">
<title>Node1&#45;&gt;Node13</title>
<g id="a_edge12_Node000001_Node000013"><a xlink:title=" ">
<path fill="none" stroke="#63b8ff" d="M1314.79,-79.55C1337.52,-68.92 1367.95,-54.7 1392.6,-43.18"/>
<polygon fill="#63b8ff" stroke="#63b8ff" points="1393.82,-46.47 1401.4,-39.06 1390.86,-40.13 1393.82,-46.47"/>
</a>
</g>
</g>
<!-- Node14 -->
<g id="Node000014" class="node">
<title>Node14</title>
<g id="a_Node000014"><a xlink:title=" ">
<polygon fill="#e0e0e0" stroke="#999999" points="1693.5,-38 1532,-38 1532,-6 1693.5,-6 1693.5,-38"/>
<text text-anchor="start" x="1540" y="-24.5" font-family="Helvetica,sans-Serif" font-size="10.00">com.fasterxml.jackson.core.type.</text>
<text text-anchor="middle" x="1612.75" y="-12.5" font-family="Helvetica,sans-Serif" font-size="10.00">TypeReference</text>
</a>
</g>
</g>
<!-- Node1&#45;&gt;Node14 -->
<g id="edge13_Node000001_Node000014" class="edge">
<title>Node1&#45;&gt;Node14</title>
<g id="a_edge13_Node000001_Node000014"><a xlink:title=" ">
<path fill="none" stroke="#63b8ff" d="M1356.74,-79.55C1404.35,-69.63 1467.23,-56.35 1522.75,-44 1527.24,-43 1531.86,-41.96 1536.51,-40.9"/>
<polygon fill="#63b8ff" stroke="#63b8ff" points="1536.96,-44.39 1545.93,-38.75 1535.4,-37.57 1536.96,-44.39"/>
</a>
</g>
</g>
<!-- Node15 -->
<g id="Node000015" class="node">
<title>Node15</title>
<g id="a_Node000015"><a xlink:title=" ">
<polygon fill="#e0e0e0" stroke="#999999" points="1869.62,-38 1711.88,-38 1711.88,-6 1869.62,-6 1869.62,-38"/>
<text text-anchor="start" x="1719.88" y="-24.5" font-family="Helvetica,sans-Serif" font-size="10.00">com.fasterxml.jackson.databind.</text>
<text text-anchor="middle" x="1790.75" y="-12.5" font-family="Helvetica,sans-Serif" font-size="10.00">ObjectMapper</text>
</a>
</g>
</g>
<!-- Node1&#45;&gt;Node15 -->
<g id="edge14_Node000001_Node000015" class="edge">
<title>Node1&#45;&gt;Node15</title>
<g id="a_edge14_Node000001_Node000015"><a xlink:title=" ">
<path fill="none" stroke="#63b8ff" d="M1373.35,-86.93C1458.94,-78.68 1590.06,-64.2 1702.75,-44 1707.98,-43.06 1713.37,-42 1718.78,-40.88"/>
<polygon fill="#63b8ff" stroke="#63b8ff" points="1719.36,-44.33 1728.39,-38.8 1717.88,-37.49 1719.36,-44.33"/>
</a>
</g>
</g>
<!-- Node16 -->
<g id="Node000016" class="node">
<title>Node16</title>
<g id="a_Node000016"><a xlink:title=" ">
<polygon fill="#e0e0e0" stroke="#999999" points="2041.75,-38 1887.75,-38 1887.75,-6 2041.75,-6 2041.75,-38"/>
<text text-anchor="start" x="1895.75" y="-24.5" font-family="Helvetica,sans-Serif" font-size="10.00">fr.softsf.sudokufx.configuration.</text>
<text text-anchor="middle" x="1964.75" y="-12.5" font-family="Helvetica,sans-Serif" font-size="10.00">JVMApplicationProperties</text>
</a>
</g>
</g>
<!-- Node1&#45;&gt;Node16 -->
<g id="edge15_Node000001_Node000016" class="edge">
<title>Node1&#45;&gt;Node16</title>
<g id="a_edge15_Node000001_Node000016"><a xlink:title=" ">
<path fill="none" stroke="#63b8ff" d="M1373.32,-91.57C1490.95,-86.15 1701.16,-73.09 1878.75,-44 1884.3,-43.09 1890.01,-42.01 1895.74,-40.84"/>
<polygon fill="#63b8ff" stroke="#63b8ff" points="1896.2,-44.32 1905.23,-38.78 1894.72,-37.47 1896.2,-44.32"/>
</a>
</g>
</g>
<!-- Node17 -->
<g id="Node000017" class="node">
<title>Node17</title>
<g id="a_Node000017"><a xlink:title=" ">
<polygon fill="#e0e0e0" stroke="#999999" points="2201.38,-38 2060.12,-38 2060.12,-6 2201.38,-6 2201.38,-38"/>
<text text-anchor="start" x="2068.12" y="-24.5" font-family="Helvetica,sans-Serif" font-size="10.00">fr.softsf.sudokufx.dto.github.</text>
<text text-anchor="middle" x="2130.75" y="-12.5" font-family="Helvetica,sans-Serif" font-size="10.00">TagDto</text>
</a>
</g>
</g>
<!-- Node1&#45;&gt;Node17 -->
<g id="edge16_Node000001_Node000017" class="edge">
<title>Node1&#45;&gt;Node17</title>
<g id="a_edge16_Node000001_Node000017"><a xlink:title=" ">
<path fill="none" stroke="#63b8ff" d="M1373.24,-94.55C1517.99,-92.57 1808.26,-83.5 2050.75,-44 2055.97,-43.15 2061.34,-42.11 2066.71,-40.95"/>
<polygon fill="#63b8ff" stroke="#63b8ff" points="2067.25,-44.42 2076.22,-38.77 2065.69,-37.6 2067.25,-44.42"/>
</a>
</g>
</g>
<!-- Node18 -->
<g id="Node000018" class="node">
<title>Node18</title>
<g id="a_Node000018"><a xlink:title=" ">
<polygon fill="#e0e0e0" stroke="#999999" points="2366,-32 2219.5,-32 2219.5,-12 2366,-12 2366,-32"/>
<text text-anchor="middle" x="2292.75" y="-18.5" font-family="Helvetica,sans-Serif" font-size="10.00">fr.softsf.sudokufx.enums.I18n</text>
</a>
</g>
</g>
<!-- Node1&#45;&gt;Node18 -->
<g id="edge17_Node000001_Node000018" class="edge">
<title>Node1&#45;&gt;Node18</title>
<g id="a_edge17_Node000001_Node000018"><a xlink:title=" ">
<path fill="none" stroke="#63b8ff" d="M1373.35,-95.89C1540.69,-96.2 1906.62,-90.83 2210.75,-44 2224.01,-41.96 2238.23,-38.7 2251.05,-35.36"/>
<polygon fill="#63b8ff" stroke="#63b8ff" points="2251.7,-38.81 2260.44,-32.82 2249.87,-32.05 2251.7,-38.81"/>
</a>
</g>
</g>
<!-- Node19 -->
<g id="Node000019" class="node">
<title>Node19</title>
<g id="a_Node000019"><a xlink:title=" ">
<polygon fill="#e0e0e0" stroke="#999999" points="2511.62,-38 2383.88,-38 2383.88,-6 2511.62,-6 2511.62,-38"/>
<text text-anchor="start" x="2391.88" y="-24.5" font-family="Helvetica,sans-Serif" font-size="10.00">fr.softsf.sudokufx.enums.</text>
<text text-anchor="middle" x="2447.75" y="-12.5" font-family="Helvetica,sans-Serif" font-size="10.00">MyRegex</text>
</a>
</g>
</g>
<!-- Node1&#45;&gt;Node19 -->
<g id="edge18_Node000001_Node000019" class="edge">
<title>Node1&#45;&gt;Node19</title>
<g id="a_edge18_Node000001_Node000019"><a xlink:title=" ">
<path fill="none" stroke="#63b8ff" d="M1373.39,-93.47C1600.17,-89.25 2183.1,-75.59 2374.75,-44 2379.43,-43.23 2384.24,-42.26 2389.05,-41.16"/>
<polygon fill="#63b8ff" stroke="#63b8ff" points="2389.87,-44.56 2398.74,-38.77 2388.19,-37.77 2389.87,-44.56"/>
</a>
</g>
</g>
<!-- Node20 -->
<g id="Node000020" class="node">
<title>Node20</title>
<g id="a_Node000020"><a xlink:title=" ">
<polygon fill="#e0e0e0" stroke="#999999" points="2646,-38 2529.5,-38 2529.5,-6 2646,-6 2646,-38"/>
<text text-anchor="start" x="2537.5" y="-24.5" font-family="Helvetica,sans-Serif" font-size="10.00">fr.softsf.sudokufx.utils.</text>
<text text-anchor="middle" x="2587.75" y="-12.5" font-family="Helvetica,sans-Serif" font-size="10.00">MyDateTime</text>
</a>
</g>
</g>
<!-- Node1&#45;&gt;Node20 -->
<g id="edge19_Node000001_Node000020" class="edge">
<title>Node1&#45;&gt;Node20</title>
<g id="a_edge19_Node000001_Node000020"><a xlink:title=" ">
<path fill="none" stroke="#63b8ff" d="M1373.27,-94.34C1620.92,-92.06 2300.31,-82.39 2520.75,-44 2524.83,-43.29 2529.01,-42.4 2533.19,-41.38"/>
<polygon fill="#63b8ff" stroke="#63b8ff" points="2533.96,-44.8 2542.73,-38.85 2532.16,-38.04 2533.96,-44.8"/>
</a>
</g>
</g>
<!-- Node21 -->
<g id="Node000021" class="node">
<title>Node21</title>
<g id="a_Node000021"><a xlink:title=" ">
<polygon fill="#e0e0e0" stroke="#999999" points="2831.5,-44 2664,-44 2664,0 2831.5,0 2831.5,-44"/>
<text text-anchor="start" x="2672" y="-30.5" font-family="Helvetica,sans-Serif" font-size="10.00">fr.softsf.sudokufx.enums.</text>
<text text-anchor="start" x="2672" y="-18.5" font-family="Helvetica,sans-Serif" font-size="10.00">Urls.GITHUB_API_REPOSITORY</text>
<text text-anchor="middle" x="2747.75" y="-6.5" font-family="Helvetica,sans-Serif" font-size="10.00">_TAGS_URL</text>
</a>
</g>
</g>
<!-- Node1&#45;&gt;Node21 -->
<g id="edge20_Node000001_Node000021" class="edge">
<title>Node1&#45;&gt;Node21</title>
<g id="a_edge20_Node000001_Node000021"><a xlink:title=" ">
<path fill="none" stroke="#63b8ff" d="M1373.33,-93.81C1635.09,-90.05 2384.32,-76.81 2652.47,-44.13"/>
<polygon fill="#63b8ff" stroke="#63b8ff" points="2652.74,-47.62 2662.22,-42.89 2651.86,-40.67 2652.74,-47.62"/>
</a>
</g>
</g>
<!-- Node22 -->
<g id="Node000022" class="node">
<title>Node22</title>
<g id="a_Node000022"><a xlink:title=" ">
<polygon fill="#e0e0e0" stroke="#999999" points="2995.62,-44 2849.88,-44 2849.88,0 2995.62,0 2995.62,-44"/>
<text text-anchor="start" x="2857.88" y="-30.5" font-family="Helvetica,sans-Serif" font-size="10.00">fr.softsf.sudokufx.enums.</text>
<text text-anchor="start" x="2857.88" y="-18.5" font-family="Helvetica,sans-Serif" font-size="10.00">Urls.GITHUB_REPOSITORY</text>
<text text-anchor="middle" x="2922.75" y="-6.5" font-family="Helvetica,sans-Serif" font-size="10.00">_RELEASES_URL</text>
</a>
</g>
</g>
<!-- Node1&#45;&gt;Node22 -->
<g id="edge21_Node000001_Node000022" class="edge">
<title>Node1&#45;&gt;Node22</title>
<g id="a_edge21_Node000001_Node000022"><a xlink:title=" ">
<path fill="none" stroke="#63b8ff" d="M1373.49,-94.62C1659.43,-93.03 2533.13,-84.99 2838.53,-44.11"/>
<polygon fill="#63b8ff" stroke="#63b8ff" points="2838.67,-47.62 2848.09,-42.78 2837.71,-40.69 2838.67,-47.62"/>
</a>
</g>
</g>
</g>
</svg>

<g id="navigator" transform="translate(0 0)" fill="#404254">
  <rect fill="#f2f5e9" fill-opacity="0.5" stroke="#606060" stroke-width=".5" x="0" y="0" width="60" height="60"/>
  <use id="zoomplus" xlink:href="#zoomPlus" x="17" y="9" onmousedown="handleZoom(evt,'in')"/>
  <use id="zoomminus" xlink:href="#zoomMin" x="42" y="9" onmousedown="handleZoom(evt,'out')"/>
  <use id="reset" xlink:href="#resetDef" x="30" y="36" onmousedown="handleReset()"/>
   <use id="arrowup" xlink:href="#arrowUp" x="0" y="0" onmousedown="handlePan(0,-1)"/>
  <use id="arrowright" xlink:href="#arrowRight" x="0" y="0" onmousedown="handlePan(1,0)"/>
  <use id="arrowdown" xlink:href="#arrowDown" x="0" y="0" onmousedown="handlePan(0,1)"/>
  <use id="arrowleft" xlink:href="#arrowLeft" x="0" y="0" onmousedown="handlePan(-1,0)"/>
</g>
<svg viewBox="0 0 15 15" width="100%" height="30px" preserveAspectRatio="xMaxYMin meet">
 <g id="arrow_out" transform="scale(0.3 0.3)">
  <a xlink:href="_version_service_8java__incl_org.svg" target="_base">
   <rect id="button" ry="5" rx="5" y="6" x="6" height="38" width="38"
        fill="#f2f5e9" fill-opacity="0.5" stroke="#606060" stroke-width="1.0"/>
   <path id="arrow"
     d="M 11.500037,31.436501 C 11.940474,20.09759 22.043105,11.32322 32.158766,21.979434 L 37.068811,17.246167 C 37.068811,17.246167 37.088388,32 37.088388,32 L 22.160133,31.978069 C 22.160133,31.978069 26.997745,27.140456 26.997745,27.140456 C 18.528582,18.264221 13.291696,25.230495 11.500037,31.436501 z"
     style="fill:#404040;"/>
  </a>
 </g>
</svg>

<style type='text/css'>
<![CDATA[
[data-mouse-over-selected='false'] { opacity: 0.7; }
[data-mouse-over-selected='true']  { opacity: 1.0; }
]]>
</style>
<script type="application/ecmascript"><![CDATA[
document.addEventListener('DOMContentLoaded', (event) => {
  highlightEdges();
  highlightAdjacentNodes();
});
]]></script>
</svg>
