<?xml version="1.0" encoding="UTF-8" standalone="no"?>
<!DOCTYPE svg PUBLIC "-//W3C//DTD SVG 1.1//EN"
 "http://www.w3.org/Graphics/SVG/1.1/DTD/svg11.dtd">
<!-- Generated by graphviz version 12.2.1 (20241206.2353)
 -->
<!-- Title: src/main/java/fr/softsf/sudokufx/service/external/VersionService.java Pages: 1 -->
<svg width="2981pt" height="132pt"
 viewBox="0.00 0.00 2980.88 132.00" xmlns="http://www.w3.org/2000/svg" xmlns:xlink="http://www.w3.org/1999/xlink">
<g id="graph0" class="graph" transform="scale(1 1) rotate(0) translate(4 128)">
<title>src/main/java/fr/softsf/sudokufx/service/external/VersionService.java</title>
<!-- Node1 -->
<g id="Node000001" class="node">
<title>Node1</title>
<g id="a_Node000001"><a xlink:title=" ">
<polygon fill="#999999" stroke="#666666" points="1304.12,-124 1173.38,-124 1173.38,-80 1304.12,-80 1304.12,-124"/>
<text text-anchor="start" x="1181.38" y="-110.5" font-family="Helvetica,sans-Serif" font-size="10.00">src/main/java/fr/softsf</text>
<text text-anchor="start" x="1181.38" y="-98.5" font-family="Helvetica,sans-Serif" font-size="10.00">/sudokufx/service/external</text>
<text text-anchor="middle" x="1238.75" y="-86.5" font-family="Helvetica,sans-Serif" font-size="10.00">/VersionService.java</text>
</a>
</g>
</g>
<!-- Node2 -->
<g id="Node000002" class="node">
<title>Node2</title>
<g id="a_Node000002"><a xlink:title=" ">
<polygon fill="#e0e0e0" stroke="#999999" points="71.5,-32 0,-32 0,-12 71.5,-12 71.5,-32"/>
<text text-anchor="middle" x="35.75" y="-18.5" font-family="Helvetica,sans-Serif" font-size="10.00">java.net.URI</text>
</a>
</g>
</g>
<!-- Node1&#45;&gt;Node2 -->
<g id="edge1_Node000001_Node000002" class="edge">
<title>Node1&#45;&gt;Node2</title>
<g id="a_edge1_Node000001_Node000002"><a xlink:title=" ">
<path fill="none" stroke="#63b8ff" d="M1173.02,-101.16C959.79,-101.15 289,-96.81 79.75,-44 73.59,-42.45 67.27,-40 61.4,-37.32"/>
<polygon fill="#63b8ff" stroke="#63b8ff" points="63.34,-34.37 52.83,-33.05 60.22,-40.64 63.34,-34.37"/>
</a>
</g>
</g>
<!-- Node3 -->
<g id="Node000003" class="node">
<title>Node3</title>
<g id="a_Node000003"><a xlink:title=" ">
<polygon fill="#e0e0e0" stroke="#999999" points="206.38,-32 89.12,-32 89.12,-12 206.38,-12 206.38,-32"/>
<text text-anchor="middle" x="147.75" y="-18.5" font-family="Helvetica,sans-Serif" font-size="10.00">java.net.http.HttpClient</text>
</a>
</g>
</g>
<!-- Node1&#45;&gt;Node3 -->
<g id="edge2_Node000001_Node000003" class="edge">
<title>Node1&#45;&gt;Node3</title>
<g id="a_edge2_Node000001_Node000003"><a xlink:title=" ">
<path fill="none" stroke="#63b8ff" d="M1173.2,-99.44C977.69,-94.44 400.79,-77.21 215.75,-44 205.32,-42.13 194.25,-39.16 184.14,-36.03"/>
<polygon fill="#63b8ff" stroke="#63b8ff" points="185.25,-32.71 174.66,-32.95 183.09,-39.37 185.25,-32.71"/>
</a>
</g>
</g>
<!-- Node4 -->
<g id="Node000004" class="node">
<title>Node4</title>
<g id="a_Node000004"><a xlink:title=" ">
<polygon fill="#e0e0e0" stroke="#999999" points="353,-32 224.5,-32 224.5,-12 353,-12 353,-32"/>
<text text-anchor="middle" x="288.75" y="-18.5" font-family="Helvetica,sans-Serif" font-size="10.00">java.net.http.HttpRequest</text>
</a>
</g>
</g>
<!-- Node1&#45;&gt;Node4 -->
<g id="edge3_Node000001_Node000004" class="edge">
<title>Node1&#45;&gt;Node4</title>
<g id="a_edge3_Node000001_Node000004"><a xlink:title=" ">
<path fill="none" stroke="#63b8ff" d="M1173,-101.53C1026.26,-101.67 661.44,-96.22 361.75,-44 350.25,-42 337.98,-38.87 326.84,-35.63"/>
<polygon fill="#63b8ff" stroke="#63b8ff" points="328.19,-32.38 317.6,-32.84 326.16,-39.08 328.19,-32.38"/>
</a>
</g>
</g>
<!-- Node5 -->
<g id="Node000005" class="node">
<title>Node5</title>
<g id="a_Node000005"><a xlink:title=" ">
<polygon fill="#e0e0e0" stroke="#999999" points="506.75,-32 370.75,-32 370.75,-12 506.75,-12 506.75,-32"/>
<text text-anchor="middle" x="438.75" y="-18.5" font-family="Helvetica,sans-Serif" font-size="10.00">java.net.http.HttpResponse</text>
</a>
</g>
</g>
<!-- Node1&#45;&gt;Node5 -->
<g id="edge4_Node000001_Node000005" class="edge">
<title>Node1&#45;&gt;Node5</title>
<g id="a_edge4_Node000001_Node000005"><a xlink:title=" ">
<path fill="none" stroke="#63b8ff" d="M1172.93,-99.93C1045.27,-96.95 755.46,-85.76 515.75,-44 503.75,-41.91 490.91,-38.78 479.23,-35.57"/>
<polygon fill="#63b8ff" stroke="#63b8ff" points="480.47,-32.28 469.9,-32.91 478.56,-39.02 480.47,-32.28"/>
</a>
</g>
</g>
<!-- Node6 -->
<g id="Node000006" class="node">
<title>Node6</title>
<g id="a_Node000006"><a xlink:title=" ">
<polygon fill="#e0e0e0" stroke="#999999" points="652.25,-38 525.25,-38 525.25,-6 652.25,-6 652.25,-38"/>
<text text-anchor="start" x="533.25" y="-24.5" font-family="Helvetica,sans-Serif" font-size="10.00">java.net.http.HttpTimeout</text>
<text text-anchor="middle" x="588.75" y="-12.5" font-family="Helvetica,sans-Serif" font-size="10.00">Exception</text>
</a>
</g>
</g>
<!-- Node1&#45;&gt;Node6 -->
<g id="edge5_Node000001_Node000006" class="edge">
<title>Node1&#45;&gt;Node6</title>
<g id="a_edge5_Node000001_Node000006"><a xlink:title=" ">
<path fill="none" stroke="#63b8ff" d="M1173.17,-98.49C1065.38,-93.49 844.39,-79.52 660.75,-44 656.68,-43.21 652.5,-42.29 648.31,-41.29"/>
<polygon fill="#63b8ff" stroke="#63b8ff" points="649.27,-37.93 638.72,-38.85 647.54,-44.71 649.27,-37.93"/>
</a>
</g>
</g>
<!-- Node7 -->
<g id="Node000007" class="node">
<title>Node7</title>
<g id="a_Node000007"><a xlink:title=" ">
<polygon fill="#e0e0e0" stroke="#999999" points="765.5,-32 670,-32 670,-12 765.5,-12 765.5,-32"/>
<text text-anchor="middle" x="717.75" y="-18.5" font-family="Helvetica,sans-Serif" font-size="10.00">java.time.Duration</text>
</a>
</g>
</g>
<!-- Node1&#45;&gt;Node7 -->
<g id="edge6_Node000001_Node000007" class="edge">
<title>Node1&#45;&gt;Node7</title>
<g id="a_edge6_Node000001_Node000007"><a xlink:title=" ">
<path fill="none" stroke="#63b8ff" d="M1172.96,-97.7C1082.26,-92.08 914.17,-77.77 774.75,-44 766.74,-42.06 758.31,-39.35 750.45,-36.51"/>
<polygon fill="#63b8ff" stroke="#63b8ff" points="751.86,-33.3 741.26,-33.03 749.38,-39.85 751.86,-33.3"/>
</a>
</g>
</g>
<!-- Node8 -->
<g id="Node000008" class="node">
<title>Node8</title>
<g id="a_Node000008"><a xlink:title=" ">
<polygon fill="#e0e0e0" stroke="#999999" points="852,-32 783.5,-32 783.5,-12 852,-12 852,-32"/>
<text text-anchor="middle" x="817.75" y="-18.5" font-family="Helvetica,sans-Serif" font-size="10.00">java.util.List</text>
</a>
</g>
</g>
<!-- Node1&#45;&gt;Node8 -->
<g id="edge7_Node000001_Node000008" class="edge">
<title>Node1&#45;&gt;Node8</title>
<g id="a_edge7_Node000001_Node000008"><a xlink:title=" ">
<path fill="none" stroke="#63b8ff" d="M1173.2,-97.18C1096.73,-91.35 967.2,-77.16 860.75,-44 855.14,-42.25 849.35,-39.87 843.91,-37.34"/>
<polygon fill="#63b8ff" stroke="#63b8ff" points="845.88,-34.4 835.36,-33.08 842.75,-40.67 845.88,-34.4"/>
</a>
</g>
</g>
<!-- Node9 -->
<g id="Node000009" class="node">
<title>Node9</title>
<g id="a_Node000009"><a xlink:title=" ">
<polygon fill="#e0e0e0" stroke="#999999" points="985.25,-32 870.25,-32 870.25,-12 985.25,-12 985.25,-32"/>
<text text-anchor="middle" x="927.75" y="-18.5" font-family="Helvetica,sans-Serif" font-size="10.00">javafx.concurrent.Task</text>
</a>
</g>
</g>
<!-- Node1&#45;&gt;Node9 -->
<g id="edge8_Node000001_Node000009" class="edge">
<title>Node1&#45;&gt;Node9</title>
<g id="a_edge8_Node000001_Node000009"><a xlink:title=" ">
<path fill="none" stroke="#63b8ff" d="M1172.91,-87.01C1123.62,-76.2 1054.65,-60.36 994.75,-44 985.72,-41.53 976.08,-38.66 967.01,-35.84"/>
<polygon fill="#63b8ff" stroke="#63b8ff" points="968.34,-32.59 957.75,-32.92 966.23,-39.26 968.34,-32.59"/>
</a>
</g>
</g>
<!-- Node10 -->
<g id="Node000010" class="node">
<title>Node10</title>
<g id="a_Node000010"><a xlink:title=" ">
<polygon fill="#e0e0e0" stroke="#999999" points="1086.12,-32 1003.38,-32 1003.38,-12 1086.12,-12 1086.12,-32"/>
<text text-anchor="middle" x="1044.75" y="-18.5" font-family="Helvetica,sans-Serif" font-size="10.00">org.slf4j.Logger</text>
</a>
</g>
</g>
<!-- Node1&#45;&gt;Node10 -->
<g id="edge9_Node000001_Node000010" class="edge">
<title>Node1&#45;&gt;Node10</title>
<g id="a_edge9_Node000001_Node000010"><a xlink:title=" ">
<path fill="none" stroke="#63b8ff" d="M1183.94,-79.61C1157.02,-69.03 1124.13,-55.98 1094.75,-44 1088.97,-41.64 1082.84,-39.1 1076.92,-36.63"/>
<polygon fill="#63b8ff" stroke="#63b8ff" points="1078.58,-33.53 1068.01,-32.88 1075.87,-39.98 1078.58,-33.53"/>
</a>
</g>
</g>
<!-- Node11 -->
<g id="Node000011" class="node">
<title>Node11</title>
<g id="a_Node000011"><a xlink:title=" ">
<polygon fill="#e0e0e0" stroke="#999999" points="1219.62,-32 1103.88,-32 1103.88,-12 1219.62,-12 1219.62,-32"/>
<text text-anchor="middle" x="1161.75" y="-18.5" font-family="Helvetica,sans-Serif" font-size="10.00">org.slf4j.LoggerFactory</text>
</a>
</g>
</g>
<!-- Node1&#45;&gt;Node11 -->
<g id="edge10_Node000001_Node000011" class="edge">
<title>Node1&#45;&gt;Node11</title>
<g id="a_edge10_Node000001_Node000011"><a xlink:title=" ">
<path fill="none" stroke="#63b8ff" d="M1217.71,-79.69C1205.5,-67.32 1190.33,-51.95 1178.86,-40.33"/>
<polygon fill="#63b8ff" stroke="#63b8ff" points="1181.5,-38.03 1171.99,-33.37 1176.52,-42.95 1181.5,-38.03"/>
</a>
</g>
</g>
<!-- Node12 -->
<g id="Node000012" class="node">
<title>Node12</title>
<g id="a_Node000012"><a xlink:title=" ">
<polygon fill="#e0e0e0" stroke="#999999" points="1393.88,-38 1237.62,-38 1237.62,-6 1393.88,-6 1393.88,-38"/>
<text text-anchor="start" x="1245.62" y="-24.5" font-family="Helvetica,sans-Serif" font-size="10.00">org.springframework.stereotype.</text>
<text text-anchor="middle" x="1315.75" y="-12.5" font-family="Helvetica,sans-Serif" font-size="10.00">Service</text>
</a>
</g>
</g>
<!-- Node1&#45;&gt;Node12 -->
<g id="edge11_Node000001_Node000012" class="edge">
<title>Node1&#45;&gt;Node12</title>
<g id="a_edge11_Node000001_Node000012"><a xlink:title=" ">
<path fill="none" stroke="#63b8ff" d="M1259.79,-79.69C1270.05,-69.29 1282.41,-56.77 1292.9,-46.15"/>
<polygon fill="#63b8ff" stroke="#63b8ff" points="1295.24,-48.76 1299.77,-39.19 1290.26,-43.84 1295.24,-48.76"/>
</a>
</g>
</g>
<!-- Node13 -->
<g id="Node000013" class="node">
<title>Node13</title>
<g id="a_Node000013"><a xlink:title=" ">
<polygon fill="#e0e0e0" stroke="#999999" points="1573.5,-38 1412,-38 1412,-6 1573.5,-6 1573.5,-38"/>
<text text-anchor="start" x="1420" y="-24.5" font-family="Helvetica,sans-Serif" font-size="10.00">com.fasterxml.jackson.core.type.</text>
<text text-anchor="middle" x="1492.75" y="-12.5" font-family="Helvetica,sans-Serif" font-size="10.00">TypeReference</text>
</a>
</g>
</g>
<!-- Node1&#45;&gt;Node13 -->
<g id="edge12_Node000001_Node000013" class="edge">
<title>Node1&#45;&gt;Node13</title>
<g id="a_edge12_Node000001_Node000013"><a xlink:title=" ">
<path fill="none" stroke="#63b8ff" d="M1304.49,-80.81C1343.86,-68.72 1393.55,-53.46 1432,-41.66"/>
<polygon fill="#63b8ff" stroke="#63b8ff" points="1432.55,-45.15 1441.08,-38.87 1430.49,-38.46 1432.55,-45.15"/>
</a>
</g>
</g>
<!-- Node14 -->
<g id="Node000014" class="node">
<title>Node14</title>
<g id="a_Node000014"><a xlink:title=" ">
<polygon fill="#e0e0e0" stroke="#999999" points="1749.62,-38 1591.88,-38 1591.88,-6 1749.62,-6 1749.62,-38"/>
<text text-anchor="start" x="1599.88" y="-24.5" font-family="Helvetica,sans-Serif" font-size="10.00">com.fasterxml.jackson.databind.</text>
<text text-anchor="middle" x="1670.75" y="-12.5" font-family="Helvetica,sans-Serif" font-size="10.00">ObjectMapper</text>
</a>
</g>
</g>
<!-- Node1&#45;&gt;Node14 -->
<g id="edge13_Node000001_Node000014" class="edge">
<title>Node1&#45;&gt;Node14</title>
<g id="a_edge13_Node000001_Node000014"><a xlink:title=" ">
<path fill="none" stroke="#63b8ff" d="M1304.31,-91.53C1373.71,-81.19 1486.32,-63.47 1582.75,-44 1587.56,-43.03 1592.5,-41.98 1597.47,-40.89"/>
<polygon fill="#63b8ff" stroke="#63b8ff" points="1597.9,-44.39 1606.9,-38.79 1596.37,-37.55 1597.9,-44.39"/>
</a>
</g>
</g>
<!-- Node15 -->
<g id="Node000015" class="node">
<title>Node15</title>
<g id="a_Node000015"><a xlink:title=" ">
<polygon fill="#e0e0e0" stroke="#999999" points="1954.25,-32 1767.25,-32 1767.25,-12 1954.25,-12 1954.25,-32"/>
<text text-anchor="middle" x="1860.75" y="-18.5" font-family="Helvetica,sans-Serif" font-size="10.00">fr.softsf.sudokufx.common.enums.I18n</text>
</a>
</g>
</g>
<!-- Node1&#45;&gt;Node15 -->
<g id="edge14_Node000001_Node000015" class="edge">
<title>Node1&#45;&gt;Node15</title>
<g id="a_edge14_Node000001_Node000015"><a xlink:title=" ">
<path fill="none" stroke="#63b8ff" d="M1304.27,-95.8C1403.13,-87.52 1596.14,-69.59 1758.75,-44 1774.85,-41.47 1792.25,-38.11 1808.05,-34.83"/>
<polygon fill="#63b8ff" stroke="#63b8ff" points="1808.68,-38.28 1817.74,-32.78 1807.24,-31.43 1808.68,-38.28"/>
</a>
</g>
</g>
<!-- Node16 -->
<g id="Node000016" class="node">
<title>Node16</title>
<g id="a_Node000016"><a xlink:title=" ">
<polygon fill="#e0e0e0" stroke="#999999" points="2153.25,-38 1972.25,-38 1972.25,-6 2153.25,-6 2153.25,-38"/>
<text text-anchor="start" x="1980.25" y="-24.5" font-family="Helvetica,sans-Serif" font-size="10.00">fr.softsf.sudokufx.common.exception.</text>
<text text-anchor="middle" x="2062.75" y="-12.5" font-family="Helvetica,sans-Serif" font-size="10.00">ExceptionTools</text>
</a>
</g>
</g>
<!-- Node1&#45;&gt;Node16 -->
<g id="edge15_Node000001_Node000016" class="edge">
<title>Node1&#45;&gt;Node16</title>
<g id="a_edge15_Node000001_Node000016"><a xlink:title=" ">
<path fill="none" stroke="#63b8ff" d="M1304.55,-98.7C1432.23,-93.62 1722.28,-78.95 1963.75,-44 1970.46,-43.03 1977.39,-41.87 1984.34,-40.61"/>
<polygon fill="#63b8ff" stroke="#63b8ff" points="1984.94,-44.06 1994.11,-38.76 1983.63,-37.18 1984.94,-44.06"/>
</a>
</g>
</g>
<!-- Node17 -->
<g id="Node000017" class="node">
<title>Node17</title>
<g id="a_Node000017"><a xlink:title=" ">
<polygon fill="#e0e0e0" stroke="#999999" points="2322.62,-38 2170.88,-38 2170.88,-6 2322.62,-6 2322.62,-38"/>
<text text-anchor="start" x="2178.88" y="-24.5" font-family="Helvetica,sans-Serif" font-size="10.00">fr.softsf.sudokufx.common.util.</text>
<text text-anchor="middle" x="2246.75" y="-12.5" font-family="Helvetica,sans-Serif" font-size="10.00">MyDateTime</text>
</a>
</g>
</g>
<!-- Node1&#45;&gt;Node17 -->
<g id="edge16_Node000001_Node000017" class="edge">
<title>Node1&#45;&gt;Node17</title>
<g id="a_edge16_Node000001_Node000017"><a xlink:title=" ">
<path fill="none" stroke="#63b8ff" d="M1304.45,-101.07C1456.43,-100.33 1843.69,-93.3 2162.75,-44 2168.36,-43.13 2174.15,-42.06 2179.93,-40.87"/>
<polygon fill="#63b8ff" stroke="#63b8ff" points="2180.51,-44.33 2189.53,-38.77 2179.02,-37.49 2180.51,-44.33"/>
</a>
</g>
</g>
<!-- Node18 -->
<g id="Node000018" class="node">
<title>Node18</title>
<g id="a_Node000018"><a xlink:title=" ">
<polygon fill="#e0e0e0" stroke="#999999" points="2469,-38 2340.5,-38 2340.5,-6 2469,-6 2469,-38"/>
<text text-anchor="start" x="2348.5" y="-24.5" font-family="Helvetica,sans-Serif" font-size="10.00">fr.softsf.sudokufx.config.</text>
<text text-anchor="middle" x="2404.75" y="-12.5" font-family="Helvetica,sans-Serif" font-size="10.00">JVMApplicationProperties</text>
</a>
</g>
</g>
<!-- Node1&#45;&gt;Node18 -->
<g id="edge17_Node000001_Node000018" class="edge">
<title>Node1&#45;&gt;Node18</title>
<g id="a_edge17_Node000001_Node000018"><a xlink:title=" ">
<path fill="none" stroke="#63b8ff" d="M1304.37,-99.54C1508.78,-94.68 2132.29,-77.44 2331.75,-44 2336.36,-43.23 2341.09,-42.27 2345.82,-41.18"/>
<polygon fill="#63b8ff" stroke="#63b8ff" points="2346.47,-44.63 2355.34,-38.83 2344.79,-37.83 2346.47,-44.63"/>
</a>
</g>
</g>
<!-- Node19 -->
<g id="Node000019" class="node">
<title>Node19</title>
<g id="a_Node000019"><a xlink:title=" ">
<polygon fill="#e0e0e0" stroke="#999999" points="2628.38,-38 2487.12,-38 2487.12,-6 2628.38,-6 2628.38,-38"/>
<text text-anchor="start" x="2495.12" y="-24.5" font-family="Helvetica,sans-Serif" font-size="10.00">fr.softsf.sudokufx.dto.github.</text>
<text text-anchor="middle" x="2557.75" y="-12.5" font-family="Helvetica,sans-Serif" font-size="10.00">TagDto</text>
</a>
</g>
</g>
<!-- Node1&#45;&gt;Node19 -->
<g id="edge18_Node000001_Node000019" class="edge">
<title>Node1&#45;&gt;Node19</title>
<g id="a_edge18_Node000001_Node000019"><a xlink:title=" ">
<path fill="none" stroke="#63b8ff" d="M1304.36,-99.81C1526.36,-95.48 2248.25,-79 2477.75,-44 2483.06,-43.19 2488.53,-42.17 2493.99,-41.01"/>
<polygon fill="#63b8ff" stroke="#63b8ff" points="2494.69,-44.44 2503.67,-38.82 2493.15,-37.62 2494.69,-44.44"/>
</a>
</g>
</g>
<!-- Node20 -->
<g id="Node000020" class="node">
<title>Node20</title>
<g id="a_Node000020"><a xlink:title=" ">
<polygon fill="#e0e0e0" stroke="#999999" points="2787,-38 2646.5,-38 2646.5,-6 2787,-6 2787,-38"/>
<text text-anchor="start" x="2654.5" y="-24.5" font-family="Helvetica,sans-Serif" font-size="10.00">fr.softsf.sudokufx.service.ui.</text>
<text text-anchor="middle" x="2716.75" y="-12.5" font-family="Helvetica,sans-Serif" font-size="10.00">SpinnerService</text>
</a>
</g>
</g>
<!-- Node1&#45;&gt;Node20 -->
<g id="edge19_Node000001_Node000020" class="edge">
<title>Node1&#45;&gt;Node20</title>
<g id="a_edge19_Node000001_Node000020"><a xlink:title=" ">
<path fill="none" stroke="#63b8ff" d="M1304.34,-100.23C1544.53,-97.13 2375.62,-83.69 2637.75,-44 2643.08,-43.19 2648.57,-42.16 2654.05,-40.99"/>
<polygon fill="#63b8ff" stroke="#63b8ff" points="2654.81,-44.41 2663.77,-38.76 2653.24,-37.59 2654.81,-44.41"/>
</a>
</g>
</g>
<!-- Node21 -->
<g id="Node000021" class="node">
<title>Node21</title>
<g id="a_Node000021"><a xlink:title=" ">
<polygon fill="#e0e0e0" stroke="#999999" points="2972.88,-44 2804.62,-44 2804.62,0 2972.88,0 2972.88,-44"/>
<text text-anchor="start" x="2812.62" y="-30.5" font-family="Helvetica,sans-Serif" font-size="10.00">fr.softsf.sudokufx.common.enums.</text>
<text text-anchor="start" x="2812.62" y="-18.5" font-family="Helvetica,sans-Serif" font-size="10.00">Urls.GITHUB_API_REPOSITORY</text>
<text text-anchor="middle" x="2888.75" y="-6.5" font-family="Helvetica,sans-Serif" font-size="10.00">_TAGS_URL</text>
</a>
</g>
</g>
<!-- Node1&#45;&gt;Node21 -->
<g id="edge20_Node000001_Node000021" class="edge">
<title>Node1&#45;&gt;Node21</title>
<g id="a_edge20_Node000001_Node000021"><a xlink:title=" ">
<path fill="none" stroke="#63b8ff" d="M1304.52,-100.22C1558.67,-96.95 2477.71,-82.75 2792.82,-44.22"/>
<polygon fill="#63b8ff" stroke="#63b8ff" points="2793.24,-47.7 2802.72,-42.98 2792.36,-40.76 2793.24,-47.7"/>
</a>
</g>
</g>
</g>
</svg>
