<?xml version="1.0" encoding="UTF-8" standalone="no"?>
<!DOCTYPE svg PUBLIC "-//W3C//DTD SVG 1.1//EN"
 "http://www.w3.org/Graphics/SVG/1.1/DTD/svg11.dtd">
<!-- Generated by graphviz version 12.2.1 (20241206.2353)
 -->
<!-- Title: src/main/java/fr/softsf/sudokufx/service/external/VersionService.java Pages: 1 -->
<!--zoomable 132 -->

<svg id="main" version="1.1" xmlns="http://www.w3.org/2000/svg" xmlns:xlink="http://www.w3.org/1999/xlink" xml:space="preserve" onload="init(evt)">

<style type="text/css"><![CDATA[
.node, .edge {opacity: 0.7;}
.node.selected, .edge.selected {opacity: 1;}
.edge:hover path { stroke: red; }
.edge:hover polygon { stroke: red; fill: red; }
]]></style>

<defs>
  <circle id="rim" cx="0" cy="0" r="7"/>
  <circle id="rim2" cx="0" cy="0" r="3.5"/>
  <g id="zoomPlus">
    <use xlink:href="#rim" fill="#404040"><set attributeName="fill" to="#808080" begin="zoomplus.mouseover" end="zoomplus.mouseout"/></use>
    <path d="M-4,0h8M0,-4v8" fill="none" stroke="white" stroke-width="1.5" pointer-events="none"/>
  </g>
  <g id="zoomMin">
    <use xlink:href="#rim" fill="#404040"><set attributeName="fill" to="#808080" begin="zoomminus.mouseover" end="zoomminus.mouseout"/></use>
    <path d="M-4,0h8" fill="none" stroke="white" stroke-width="1.5" pointer-events="none"/>
  </g>
  <g id="arrowUp" transform="translate(30 24)">
    <use xlink:href="#rim"/>
    <path pointer-events="none" fill="none" stroke="white" stroke-width="1.5" d="M0,-3.0v7 M-2.5,-0.5L0,-3.0L2.5,-0.5"/>
  </g>
  <g id="arrowRight" transform="rotate(90) translate(36 -43)">
    <use xlink:href="#rim"/>
    <path pointer-events="none" fill="none" stroke="white" stroke-width="1.5" d="M0,-3.0v7 M-2.5,-0.5L0,-3.0L2.5,-0.5"/>
  </g>
  <g id="arrowDown" transform="rotate(180) translate(-30 -48)">
    <use xlink:href="#rim"/>
    <path pointer-events="none" fill="none" stroke="white" stroke-width="1.5" d="M0,-3.0v7 M-2.5,-0.5L0,-3.0L2.5,-0.5"/>
  </g>
  <g id="arrowLeft" transform="rotate(270) translate(-36 17)">
    <use xlink:href="#rim"/>
    <path pointer-events="none" fill="none" stroke="white" stroke-width="1.5" d="M0,-3.0v7 M-2.5,-0.5L0,-3.0L2.5,-0.5"/>
  </g>
  <g id="resetDef">
    <use xlink:href="#rim2" fill="#404040"><set attributeName="fill" to="#808080" begin="reset.mouseover" end="reset.mouseout"/></use>
  </g>
</defs>
<script type="application/ecmascript">
var viewWidth = 2832;
var viewHeight = 132;
var sectionId = 'dynsection-0';
</script>
<script type="application/ecmascript" xlink:href="svg.min.js"/>
<svg id="graph" class="graph">
<g id="viewport">
<title>src/main/java/fr/softsf/sudokufx/service/external/VersionService.java</title>
<!-- Node1 -->
<g id="Node000001" class="node">
<title>Node1</title>
<g id="a_Node000001"><a xlink:title=" ">
<polygon fill="#999999" stroke="#666666" points="1258.75,-124 1128,-124 1128,-80 1258.75,-80 1258.75,-124"/>
<text text-anchor="start" x="1136" y="-110.5" font-family="Helvetica,sans-Serif" font-size="10.00">src/main/java/fr/softsf</text>
<text text-anchor="start" x="1136" y="-98.5" font-family="Helvetica,sans-Serif" font-size="10.00">/sudokufx/service/external</text>
<text text-anchor="middle" x="1193.38" y="-86.5" font-family="Helvetica,sans-Serif" font-size="10.00">/VersionService.java</text>
</a>
</g>
</g>
<!-- Node2 -->
<g id="Node000002" class="node">
<title>Node2</title>
<g id="a_Node000002"><a xlink:title=" ">
<polygon fill="#e0e0e0" stroke="#999999" points="100.75,-32 0,-32 0,-12 100.75,-12 100.75,-32"/>
<text text-anchor="middle" x="50.38" y="-18.5" font-family="Helvetica,sans-Serif" font-size="10.00">java.io.InputStream</text>
</a>
</g>
</g>
<!-- Node1&#45;&gt;Node2 -->
<g id="edge1_Node000001_Node000002" class="edge">
<title>Node1&#45;&gt;Node2</title>
<g id="a_edge1_Node000001_Node000002"><a xlink:title=" ">
<path fill="none" stroke="#63b8ff" d="M1127.84,-100.03C924.46,-96.64 305.96,-83.28 109.38,-44 100.55,-42.24 91.27,-39.42 82.75,-36.41"/>
<polygon fill="#63b8ff" stroke="#63b8ff" points="84.09,-33.18 73.5,-32.96 81.64,-39.74 84.09,-33.18"/>
</a>
</g>
</g>
<!-- Node3 -->
<g id="Node000003" class="node">
<title>Node3</title>
<g id="a_Node000003"><a xlink:title=" ">
<polygon fill="#e0e0e0" stroke="#999999" points="190.12,-32 118.62,-32 118.62,-12 190.12,-12 190.12,-32"/>
<text text-anchor="middle" x="154.38" y="-18.5" font-family="Helvetica,sans-Serif" font-size="10.00">java.net.URI</text>
</a>
</g>
</g>
<!-- Node1&#45;&gt;Node3 -->
<g id="edge2_Node000001_Node000003" class="edge">
<title>Node1&#45;&gt;Node3</title>
<g id="a_edge2_Node000001_Node000003"><a xlink:title=" ">
<path fill="none" stroke="#63b8ff" d="M1127.66,-100.54C935.15,-98.66 374.98,-89.33 198.38,-44 192.23,-42.42 185.9,-39.97 180.04,-37.28"/>
<polygon fill="#63b8ff" stroke="#63b8ff" points="181.97,-34.34 171.46,-33.02 178.86,-40.6 181.97,-34.34"/>
</a>
</g>
</g>
<!-- Node4 -->
<g id="Node000004" class="node">
<title>Node4</title>
<g id="a_Node000004"><a xlink:title=" ">
<polygon fill="#e0e0e0" stroke="#999999" points="325,-32 207.75,-32 207.75,-12 325,-12 325,-32"/>
<text text-anchor="middle" x="266.38" y="-18.5" font-family="Helvetica,sans-Serif" font-size="10.00">java.net.http.HttpClient</text>
</a>
</g>
</g>
<!-- Node1&#45;&gt;Node4 -->
<g id="edge3_Node000001_Node000004" class="edge">
<title>Node1&#45;&gt;Node4</title>
<g id="a_edge3_Node000001_Node000004"><a xlink:title=" ">
<path fill="none" stroke="#63b8ff" d="M1127.53,-101.83C982.78,-102.52 626.47,-98.03 334.38,-44 323.96,-42.07 312.89,-39.08 302.78,-35.95"/>
<polygon fill="#63b8ff" stroke="#63b8ff" points="303.88,-32.63 293.29,-32.88 301.73,-39.29 303.88,-32.63"/>
</a>
</g>
</g>
<!-- Node5 -->
<g id="Node000005" class="node">
<title>Node5</title>
<g id="a_Node000005"><a xlink:title=" ">
<polygon fill="#e0e0e0" stroke="#999999" points="471.62,-32 343.12,-32 343.12,-12 471.62,-12 471.62,-32"/>
<text text-anchor="middle" x="407.38" y="-18.5" font-family="Helvetica,sans-Serif" font-size="10.00">java.net.http.HttpRequest</text>
</a>
</g>
</g>
<!-- Node1&#45;&gt;Node5 -->
<g id="edge4_Node000001_Node000005" class="edge">
<title>Node1&#45;&gt;Node5</title>
<g id="a_edge4_Node000001_Node000005"><a xlink:title=" ">
<path fill="none" stroke="#63b8ff" d="M1127.93,-100.14C1001.68,-97.51 716.17,-86.89 480.38,-44 469.11,-41.95 457.09,-38.88 446.12,-35.71"/>
<polygon fill="#63b8ff" stroke="#63b8ff" points="447.18,-32.37 436.59,-32.84 445.16,-39.07 447.18,-32.37"/>
</a>
</g>
</g>
<!-- Node6 -->
<g id="Node000006" class="node">
<title>Node6</title>
<g id="a_Node000006"><a xlink:title=" ">
<polygon fill="#e0e0e0" stroke="#999999" points="625.38,-32 489.38,-32 489.38,-12 625.38,-12 625.38,-32"/>
<text text-anchor="middle" x="557.38" y="-18.5" font-family="Helvetica,sans-Serif" font-size="10.00">java.net.http.HttpResponse</text>
</a>
</g>
</g>
<!-- Node1&#45;&gt;Node6 -->
<g id="edge5_Node000001_Node000006" class="edge">
<title>Node1&#45;&gt;Node6</title>
<g id="a_edge5_Node000001_Node000006"><a xlink:title=" ">
<path fill="none" stroke="#63b8ff" d="M1127.9,-97.82C1022.99,-91.95 811.08,-76.87 634.38,-44 622.5,-41.79 609.79,-38.65 598.19,-35.47"/>
<polygon fill="#63b8ff" stroke="#63b8ff" points="599.49,-32.21 588.92,-32.85 597.59,-38.94 599.49,-32.21"/>
</a>
</g>
</g>
<!-- Node7 -->
<g id="Node000007" class="node">
<title>Node7</title>
<g id="a_Node000007"><a xlink:title=" ">
<polygon fill="#e0e0e0" stroke="#999999" points="770.88,-38 643.88,-38 643.88,-6 770.88,-6 770.88,-38"/>
<text text-anchor="start" x="651.88" y="-24.5" font-family="Helvetica,sans-Serif" font-size="10.00">java.net.http.HttpTimeout</text>
<text text-anchor="middle" x="707.38" y="-12.5" font-family="Helvetica,sans-Serif" font-size="10.00">Exception</text>
</a>
</g>
</g>
<!-- Node1&#45;&gt;Node7 -->
<g id="edge6_Node000001_Node000007" class="edge">
<title>Node1&#45;&gt;Node7</title>
<g id="a_edge6_Node000001_Node000007"><a xlink:title=" ">
<path fill="none" stroke="#63b8ff" d="M1127.61,-94.96C1045.51,-86.73 901.06,-69.98 779.38,-44 775.57,-43.19 771.67,-42.28 767.75,-41.3"/>
<polygon fill="#63b8ff" stroke="#63b8ff" points="768.73,-37.95 758.17,-38.81 766.96,-44.72 768.73,-37.95"/>
</a>
</g>
</g>
<!-- Node8 -->
<g id="Node000008" class="node">
<title>Node8</title>
<g id="a_Node000008"><a xlink:title=" ">
<polygon fill="#e0e0e0" stroke="#999999" points="884.12,-32 788.62,-32 788.62,-12 884.12,-12 884.12,-32"/>
<text text-anchor="middle" x="836.38" y="-18.5" font-family="Helvetica,sans-Serif" font-size="10.00">java.time.Duration</text>
</a>
</g>
</g>
<!-- Node1&#45;&gt;Node8 -->
<g id="edge7_Node000001_Node000008" class="edge">
<title>Node1&#45;&gt;Node8</title>
<g id="a_edge7_Node000001_Node000008"><a xlink:title=" ">
<path fill="none" stroke="#63b8ff" d="M1127.75,-91.9C1066.27,-82.59 972.14,-66.33 892.38,-44 884.94,-41.92 877.1,-39.27 869.71,-36.57"/>
<polygon fill="#63b8ff" stroke="#63b8ff" points="870.97,-33.3 860.38,-33.02 868.48,-39.85 870.97,-33.3"/>
</a>
</g>
</g>
<!-- Node9 -->
<g id="Node000009" class="node">
<title>Node9</title>
<g id="a_Node000009"><a xlink:title=" ">
<polygon fill="#e0e0e0" stroke="#999999" points="1016.88,-32 901.88,-32 901.88,-12 1016.88,-12 1016.88,-32"/>
<text text-anchor="middle" x="959.38" y="-18.5" font-family="Helvetica,sans-Serif" font-size="10.00">javafx.concurrent.Task</text>
</a>
</g>
</g>
<!-- Node1&#45;&gt;Node9 -->
<g id="edge8_Node000001_Node000009" class="edge">
<title>Node1&#45;&gt;Node9</title>
<g id="a_edge8_Node000001_Node000009"><a xlink:title=" ">
<path fill="none" stroke="#63b8ff" d="M1129.12,-79.58C1087.37,-65.67 1034.28,-47.97 998.69,-36.1"/>
<polygon fill="#63b8ff" stroke="#63b8ff" points="999.82,-32.79 989.22,-32.95 997.6,-39.43 999.82,-32.79"/>
</a>
</g>
</g>
<!-- Node10 -->
<g id="Node000010" class="node">
<title>Node10</title>
<g id="a_Node000010"><a xlink:title=" ">
<polygon fill="#e0e0e0" stroke="#999999" points="1117.75,-32 1035,-32 1035,-12 1117.75,-12 1117.75,-32"/>
<text text-anchor="middle" x="1076.38" y="-18.5" font-family="Helvetica,sans-Serif" font-size="10.00">org.slf4j.Logger</text>
</a>
</g>
</g>
<!-- Node1&#45;&gt;Node10 -->
<g id="edge9_Node000001_Node000010" class="edge">
<title>Node1&#45;&gt;Node10</title>
<g id="a_edge9_Node000001_Node000010"><a xlink:title=" ">
<path fill="none" stroke="#63b8ff" d="M1161.4,-79.69C1142.06,-66.79 1117.81,-50.62 1100.16,-38.86"/>
<polygon fill="#63b8ff" stroke="#63b8ff" points="1102.14,-35.97 1091.88,-33.34 1098.26,-41.79 1102.14,-35.97"/>
</a>
</g>
</g>
<!-- Node11 -->
<g id="Node000011" class="node">
<title>Node11</title>
<g id="a_Node000011"><a xlink:title=" ">
<polygon fill="#e0e0e0" stroke="#999999" points="1251.25,-32 1135.5,-32 1135.5,-12 1251.25,-12 1251.25,-32"/>
<text text-anchor="middle" x="1193.38" y="-18.5" font-family="Helvetica,sans-Serif" font-size="10.00">org.slf4j.LoggerFactory</text>
</a>
</g>
</g>
<!-- Node1&#45;&gt;Node11 -->
<g id="edge10_Node000001_Node000011" class="edge">
<title>Node1&#45;&gt;Node11</title>
<g id="a_edge10_Node000001_Node000011"><a xlink:title=" ">
<path fill="none" stroke="#63b8ff" d="M1193.38,-79.69C1193.38,-68.41 1193.38,-54.64 1193.38,-43.49"/>
<polygon fill="#63b8ff" stroke="#63b8ff" points="1196.88,-43.81 1193.38,-33.81 1189.88,-43.81 1196.88,-43.81"/>
</a>
</g>
</g>
<!-- Node12 -->
<g id="Node000012" class="node">
<title>Node12</title>
<g id="a_Node000012"><a xlink:title=" ">
<polygon fill="#e0e0e0" stroke="#999999" points="1425.5,-38 1269.25,-38 1269.25,-6 1425.5,-6 1425.5,-38"/>
<text text-anchor="start" x="1277.25" y="-24.5" font-family="Helvetica,sans-Serif" font-size="10.00">org.springframework.stereotype.</text>
<text text-anchor="middle" x="1347.38" y="-12.5" font-family="Helvetica,sans-Serif" font-size="10.00">Service</text>
</a>
</g>
</g>
<!-- Node1&#45;&gt;Node12 -->
<g id="edge11_Node000001_Node000012" class="edge">
<title>Node1&#45;&gt;Node12</title>
<g id="a_edge11_Node000001_Node000012"><a xlink:title=" ">
<path fill="none" stroke="#63b8ff" d="M1235.46,-79.69C1257.75,-68.39 1285,-54.59 1307.03,-43.43"/>
<polygon fill="#63b8ff" stroke="#63b8ff" points="1308.37,-46.68 1315.71,-39.04 1305.21,-40.43 1308.37,-46.68"/>
</a>
</g>
</g>
<!-- Node13 -->
<g id="Node000013" class="node">
<title>Node13</title>
<g id="a_Node000013"><a xlink:title=" ">
<polygon fill="#e0e0e0" stroke="#999999" points="1601.25,-38 1443.5,-38 1443.5,-6 1601.25,-6 1601.25,-38"/>
<text text-anchor="start" x="1451.5" y="-24.5" font-family="Helvetica,sans-Serif" font-size="10.00">com.fasterxml.jackson.databind.</text>
<text text-anchor="middle" x="1522.38" y="-12.5" font-family="Helvetica,sans-Serif" font-size="10.00">JsonNode</text>
</a>
</g>
</g>
<!-- Node1&#45;&gt;Node13 -->
<g id="edge12_Node000001_Node000013" class="edge">
<title>Node1&#45;&gt;Node13</title>
<g id="a_edge12_Node000001_Node000013"><a xlink:title=" ">
<path fill="none" stroke="#63b8ff" d="M1259.1,-85.49C1307.56,-74.05 1375.08,-58.09 1434.38,-44 1438.35,-43.05 1442.43,-42.08 1446.55,-41.1"/>
<polygon fill="#63b8ff" stroke="#63b8ff" points="1447.11,-44.57 1456.03,-38.85 1445.49,-37.76 1447.11,-44.57"/>
</a>
</g>
</g>
<!-- Node14 -->
<g id="Node000014" class="node">
<title>Node14</title>
<g id="a_Node000014"><a xlink:title=" ">
<polygon fill="#e0e0e0" stroke="#999999" points="1777.25,-38 1619.5,-38 1619.5,-6 1777.25,-6 1777.25,-38"/>
<text text-anchor="start" x="1627.5" y="-24.5" font-family="Helvetica,sans-Serif" font-size="10.00">com.fasterxml.jackson.databind.</text>
<text text-anchor="middle" x="1698.38" y="-12.5" font-family="Helvetica,sans-Serif" font-size="10.00">ObjectMapper</text>
</a>
</g>
</g>
<!-- Node1&#45;&gt;Node14 -->
<g id="edge13_Node000001_Node000014" class="edge">
<title>Node1&#45;&gt;Node14</title>
<g id="a_edge13_Node000001_Node000014"><a xlink:title=" ">
<path fill="none" stroke="#63b8ff" d="M1259.06,-94.05C1341.49,-84.85 1487.02,-67.09 1610.38,-44 1615.51,-43.04 1620.79,-41.97 1626.1,-40.85"/>
<polygon fill="#63b8ff" stroke="#63b8ff" points="1626.5,-44.34 1635.52,-38.79 1625,-37.51 1626.5,-44.34"/>
</a>
</g>
</g>
<!-- Node15 -->
<g id="Node000015" class="node">
<title>Node15</title>
<g id="a_Node000015"><a xlink:title=" ">
<polygon fill="#e0e0e0" stroke="#999999" points="1957.88,-38 1794.88,-38 1794.88,-6 1957.88,-6 1957.88,-38"/>
<text text-anchor="start" x="1802.88" y="-24.5" font-family="Helvetica,sans-Serif" font-size="10.00">edu.umd.cs.findbugs.annotations.</text>
<text text-anchor="middle" x="1876.38" y="-12.5" font-family="Helvetica,sans-Serif" font-size="10.00">SuppressFBWarnings</text>
</a>
</g>
</g>
<!-- Node1&#45;&gt;Node15 -->
<g id="edge14_Node000001_Node000015" class="edge">
<title>Node1&#45;&gt;Node15</title>
<g id="a_edge14_Node000001_Node000015"><a xlink:title=" ">
<path fill="none" stroke="#63b8ff" d="M1259.12,-97.55C1368.91,-91.16 1596.28,-75.17 1786.38,-44 1792.21,-43.04 1798.24,-41.93 1804.27,-40.71"/>
<polygon fill="#63b8ff" stroke="#63b8ff" points="1804.56,-44.23 1813.63,-38.76 1803.12,-37.38 1804.56,-44.23"/>
</a>
</g>
</g>
<!-- Node16 -->
<g id="Node000016" class="node">
<title>Node16</title>
<g id="a_Node000016"><a xlink:title=" ">
<polygon fill="#e0e0e0" stroke="#999999" points="2162.88,-32 1975.88,-32 1975.88,-12 2162.88,-12 2162.88,-32"/>
<text text-anchor="middle" x="2069.38" y="-18.5" font-family="Helvetica,sans-Serif" font-size="10.00">fr.softsf.sudokufx.common.enums.I18n</text>
</a>
</g>
</g>
<!-- Node1&#45;&gt;Node16 -->
<g id="edge15_Node000001_Node000016" class="edge">
<title>Node1&#45;&gt;Node16</title>
<g id="a_edge15_Node000001_Node000016"><a xlink:title=" ">
<path fill="none" stroke="#63b8ff" d="M1259.17,-99.03C1393.07,-94.39 1706.64,-80.29 1967.38,-44 1984.11,-41.67 2002.21,-38.25 2018.46,-34.83"/>
<polygon fill="#63b8ff" stroke="#63b8ff" points="2018.85,-38.33 2027.89,-32.8 2017.38,-31.48 2018.85,-38.33"/>
</a>
</g>
</g>
<!-- Node17 -->
<g id="Node000017" class="node">
<title>Node17</title>
<g id="a_Node000017"><a xlink:title=" ">
<polygon fill="#e0e0e0" stroke="#999999" points="2332.25,-38 2180.5,-38 2180.5,-6 2332.25,-6 2332.25,-38"/>
<text text-anchor="start" x="2188.5" y="-24.5" font-family="Helvetica,sans-Serif" font-size="10.00">fr.softsf.sudokufx.common.util.</text>
<text text-anchor="middle" x="2256.38" y="-12.5" font-family="Helvetica,sans-Serif" font-size="10.00">MyDateTime</text>
</a>
</g>
</g>
<!-- Node1&#45;&gt;Node17 -->
<g id="edge16_Node000001_Node000017" class="edge">
<title>Node1&#45;&gt;Node17</title>
<g id="a_edge16_Node000001_Node000017"><a xlink:title=" ">
<path fill="none" stroke="#63b8ff" d="M1259.12,-101.39C1417.36,-101.42 1831.56,-96.06 2172.38,-44 2177.99,-43.14 2183.78,-42.08 2189.56,-40.89"/>
<polygon fill="#63b8ff" stroke="#63b8ff" points="2190.14,-44.35 2199.16,-38.8 2188.65,-37.51 2190.14,-44.35"/>
</a>
</g>
</g>
<!-- Node18 -->
<g id="Node000018" class="node">
<title>Node18</title>
<g id="a_Node000018"><a xlink:title=" ">
<polygon fill="#e0e0e0" stroke="#999999" points="2478.62,-38 2350.12,-38 2350.12,-6 2478.62,-6 2478.62,-38"/>
<text text-anchor="start" x="2358.12" y="-24.5" font-family="Helvetica,sans-Serif" font-size="10.00">fr.softsf.sudokufx.config.</text>
<text text-anchor="middle" x="2414.38" y="-12.5" font-family="Helvetica,sans-Serif" font-size="10.00">JVMApplicationProperties</text>
</a>
</g>
</g>
<!-- Node1&#45;&gt;Node18 -->
<g id="edge17_Node000001_Node000018" class="edge">
<title>Node1&#45;&gt;Node18</title>
<g id="a_edge17_Node000001_Node000018"><a xlink:title=" ">
<path fill="none" stroke="#63b8ff" d="M1258.93,-99.73C1470.05,-95.33 2130.75,-79.04 2341.38,-44 2345.98,-43.23 2350.72,-42.28 2355.45,-41.2"/>
<polygon fill="#63b8ff" stroke="#63b8ff" points="2356.1,-44.64 2364.97,-38.85 2354.42,-37.85 2356.1,-44.64"/>
</a>
</g>
</g>
<!-- Node19 -->
<g id="Node000019" class="node">
<title>Node19</title>
<g id="a_Node000019"><a xlink:title=" ">
<polygon fill="#e0e0e0" stroke="#999999" points="2637.62,-38 2497.12,-38 2497.12,-6 2637.62,-6 2637.62,-38"/>
<text text-anchor="start" x="2505.12" y="-24.5" font-family="Helvetica,sans-Serif" font-size="10.00">fr.softsf.sudokufx.service.ui.</text>
<text text-anchor="middle" x="2567.38" y="-12.5" font-family="Helvetica,sans-Serif" font-size="10.00">SpinnerService</text>
</a>
</g>
</g>
<!-- Node1&#45;&gt;Node19 -->
<g id="edge18_Node000001_Node000019" class="edge">
<title>Node1&#45;&gt;Node19</title>
<g id="a_edge18_Node000001_Node000019"><a xlink:title=" ">
<path fill="none" stroke="#63b8ff" d="M1259.1,-99.95C1487.62,-96.02 2246.7,-80.46 2487.38,-44 2492.69,-43.2 2498.15,-42.18 2503.62,-41.03"/>
<polygon fill="#63b8ff" stroke="#63b8ff" points="2504.32,-44.46 2513.3,-38.83 2502.77,-37.63 2504.32,-44.46"/>
</a>
</g>
</g>
<!-- Node20 -->
<g id="Node000020" class="node">
<title>Node20</title>
<g id="a_Node000020"><a xlink:title=" ">
<polygon fill="#e0e0e0" stroke="#999999" points="2823.5,-44 2655.25,-44 2655.25,0 2823.5,0 2823.5,-44"/>
<text text-anchor="start" x="2663.25" y="-30.5" font-family="Helvetica,sans-Serif" font-size="10.00">fr.softsf.sudokufx.common.enums.</text>
<text text-anchor="start" x="2663.25" y="-18.5" font-family="Helvetica,sans-Serif" font-size="10.00">Urls.GITHUB_API_REPOSITORY</text>
<text text-anchor="middle" x="2739.38" y="-6.5" font-family="Helvetica,sans-Serif" font-size="10.00">_TAGS_URL</text>
</a>
</g>
</g>
<!-- Node1&#45;&gt;Node20 -->
<g id="edge19_Node000001_Node000020" class="edge">
<title>Node1&#45;&gt;Node20</title>
<g id="a_edge19_Node000001_Node000020"><a xlink:title=" ">
<path fill="none" stroke="#63b8ff" d="M1258.9,-100.02C1501.67,-96.16 2350.52,-80.4 2643.81,-44.18"/>
<polygon fill="#63b8ff" stroke="#63b8ff" points="2643.87,-47.7 2653.34,-42.97 2642.98,-40.76 2643.87,-47.7"/>
</a>
</g>
</g>
</g>
</svg>

<g id="navigator" transform="translate(0 0)" fill="#404254">
  <rect fill="#f2f5e9" fill-opacity="0.5" stroke="#606060" stroke-width=".5" x="0" y="0" width="60" height="60"/>
  <use id="zoomplus" xlink:href="#zoomPlus" x="17" y="9" onmousedown="handleZoom(evt,'in')"/>
  <use id="zoomminus" xlink:href="#zoomMin" x="42" y="9" onmousedown="handleZoom(evt,'out')"/>
  <use id="reset" xlink:href="#resetDef" x="30" y="36" onmousedown="handleReset()"/>
   <use id="arrowup" xlink:href="#arrowUp" x="0" y="0" onmousedown="handlePan(0,-1)"/>
  <use id="arrowright" xlink:href="#arrowRight" x="0" y="0" onmousedown="handlePan(1,0)"/>
  <use id="arrowdown" xlink:href="#arrowDown" x="0" y="0" onmousedown="handlePan(0,1)"/>
  <use id="arrowleft" xlink:href="#arrowLeft" x="0" y="0" onmousedown="handlePan(-1,0)"/>
</g>
<svg viewBox="0 0 15 15" width="100%" height="30px" preserveAspectRatio="xMaxYMin meet">
 <g id="arrow_out" transform="scale(0.3 0.3)">
  <a xlink:href="_version_service_8java__incl_org.svg" target="_base">
   <rect id="button" ry="5" rx="5" y="6" x="6" height="38" width="38"
        fill="#f2f5e9" fill-opacity="0.5" stroke="#606060" stroke-width="1.0"/>
   <path id="arrow"
     d="M 11.500037,31.436501 C 11.940474,20.09759 22.043105,11.32322 32.158766,21.979434 L 37.068811,17.246167 C 37.068811,17.246167 37.088388,32 37.088388,32 L 22.160133,31.978069 C 22.160133,31.978069 26.997745,27.140456 26.997745,27.140456 C 18.528582,18.264221 13.291696,25.230495 11.500037,31.436501 z"
     style="fill:#404040;"/>
  </a>
 </g>
</svg>

<style type='text/css'>
<![CDATA[
[data-mouse-over-selected='false'] { opacity: 0.7; }
[data-mouse-over-selected='true']  { opacity: 1.0; }
]]>
</style>
<script type="application/ecmascript"><![CDATA[
document.addEventListener('DOMContentLoaded', (event) => {
  highlightEdges();
  highlightAdjacentNodes();
});
]]></script>
</svg>
