<?xml version="1.0" encoding="UTF-8" standalone="no"?>
<!DOCTYPE svg PUBLIC "-//W3C//DTD SVG 1.1//EN"
 "http://www.w3.org/Graphics/SVG/1.1/DTD/svg11.dtd">
<!-- Generated by graphviz version 12.2.1 (20241206.2353)
 -->
<!-- Title: fr.softsf.sudokufx.viewmodel.grid.GridViewModel.handleCellTextChange Pages: 1 -->
<svg width="1016pt" height="265pt"
 viewBox="0.00 0.00 1015.75 264.74" xmlns="http://www.w3.org/2000/svg" xmlns:xlink="http://www.w3.org/1999/xlink">
<g id="graph0" class="graph" transform="scale(1 1) rotate(0) translate(4 260.74)">
<title>fr.softsf.sudokufx.viewmodel.grid.GridViewModel.handleCellTextChange</title>
<!-- Node1 -->
<g id="Node000001" class="node">
<title>Node1</title>
<g id="a_Node000001"><a xlink:title="Handles updates to a cell&#39;s text when the user modifies the grid.">
<polygon fill="#999999" stroke="#666666" points="183.25,-184.74 0,-184.74 0,-152.74 183.25,-152.74 183.25,-184.74"/>
<text text-anchor="start" x="8" y="-171.24" font-family="Helvetica,sans-Serif" font-size="10.00">fr.softsf.sudokufx.viewmodel.grid.</text>
<text text-anchor="middle" x="91.62" y="-159.24" font-family="Helvetica,sans-Serif" font-size="10.00">GridViewModel.handleCellTextChange</text>
</a>
</g>
</g>
<!-- Node2 -->
<g id="Node000002" class="node">
<title>Node2</title>
<g id="a_Node000002"><a xlink:href="classfr_1_1softsf_1_1sudokufx_1_1viewmodel_1_1grid_1_1_grid_view_model.html#a6c7bd2140fad9b3091830f3f81c64827" target="_top" xlink:title="Returns whether the current game has a non&#45;empty default grid.">
<polygon fill="white" stroke="#666666" points="383,-256.74 219.25,-256.74 219.25,-224.74 383,-224.74 383,-256.74"/>
<text text-anchor="start" x="227.25" y="-243.24" font-family="Helvetica,sans-Serif" font-size="10.00">fr.softsf.sudokufx.viewmodel.grid.</text>
<text text-anchor="middle" x="301.12" y="-231.24" font-family="Helvetica,sans-Serif" font-size="10.00">GridViewModel.hasDefaultGrid</text>
</a>
</g>
</g>
<!-- Node1&#45;&gt;Node2 -->
<g id="edge1_Node000001_Node000002" class="edge">
<title>Node1&#45;&gt;Node2</title>
<g id="a_edge1_Node000001_Node000002"><a xlink:title=" ">
<path fill="none" stroke="#63b8ff" d="M135.2,-185.22C159.67,-194.52 191.05,-206.16 219.25,-215.74 224.29,-217.45 229.52,-219.18 234.79,-220.89"/>
<polygon fill="#63b8ff" stroke="#63b8ff" points="233.58,-224.17 244.17,-223.88 235.71,-217.51 233.58,-224.17"/>
</a>
</g>
</g>
<!-- Node3 -->
<g id="Node000003" class="node">
<title>Node3</title>
<g id="a_Node000003"><a xlink:href="classfr_1_1softsf_1_1sudokufx_1_1viewmodel_1_1grid_1_1_grid_view_model.html#ad536719f789ab2bb851aa4b26d44c075" target="_top" xlink:title="Checks if all 81 cells contain valid single&#45;digit values (1&#45;9).">
<polygon fill="white" stroke="#666666" points="608.25,-162.74 419,-162.74 419,-130.74 608.25,-130.74 608.25,-162.74"/>
<text text-anchor="start" x="427" y="-149.24" font-family="Helvetica,sans-Serif" font-size="10.00">fr.softsf.sudokufx.viewmodel.grid.</text>
<text text-anchor="middle" x="513.62" y="-137.24" font-family="Helvetica,sans-Serif" font-size="10.00">GridViewModel.isCompletelyCompleted</text>
</a>
</g>
</g>
<!-- Node1&#45;&gt;Node3 -->
<g id="edge2_Node000001_Node000003" class="edge">
<title>Node1&#45;&gt;Node3</title>
<g id="a_edge2_Node000001_Node000003"><a xlink:title=" ">
<path fill="none" stroke="#63b8ff" d="M183.5,-163.98C249.3,-160.53 338.43,-155.87 407.33,-152.26"/>
<polygon fill="#63b8ff" stroke="#63b8ff" points="407.33,-155.76 417.14,-151.74 406.97,-148.77 407.33,-155.76"/>
</a>
</g>
</g>
<!-- Node6 -->
<g id="Node000006" class="node">
<title>Node6</title>
<g id="a_Node000006"><a xlink:href="classfr_1_1softsf_1_1sudokufx_1_1viewmodel_1_1grid_1_1_grid_view_model.html#aad1610b7e07349137ebf0d3d592a5b09" target="_top" xlink:title="Persists the current grid state for the active player’s selected game.">
<polygon fill="white" stroke="#666666" points="383,-206.74 219.25,-206.74 219.25,-174.74 383,-174.74 383,-206.74"/>
<text text-anchor="start" x="227.25" y="-193.24" font-family="Helvetica,sans-Serif" font-size="10.00">fr.softsf.sudokufx.viewmodel.grid.</text>
<text text-anchor="middle" x="301.12" y="-181.24" font-family="Helvetica,sans-Serif" font-size="10.00">GridViewModel.persistGridValue</text>
</a>
</g>
</g>
<!-- Node1&#45;&gt;Node6 -->
<g id="edge5_Node000001_Node000006" class="edge">
<title>Node1&#45;&gt;Node6</title>
<g id="a_edge5_Node000001_Node000006"><a xlink:title=" ">
<path fill="none" stroke="#63b8ff" d="M183.64,-178.39C191.63,-179.24 199.73,-180.1 207.73,-180.94"/>
<polygon fill="#63b8ff" stroke="#63b8ff" points="207.15,-184.4 217.46,-181.98 207.89,-177.44 207.15,-184.4"/>
</a>
</g>
</g>
<!-- Node7 -->
<g id="Node000007" class="node">
<title>Node7</title>
<g id="a_Node000007"><a xlink:href="classfr_1_1softsf_1_1sudokufx_1_1viewmodel_1_1grid_1_1_grid_view_model.html#a77d49e325684b6bef071fb2461c896cb" target="_top" xlink:title="Validates the grid by attempting to solve it.">
<polygon fill="white" stroke="#666666" points="383,-112.74 219.25,-112.74 219.25,-80.74 383,-80.74 383,-112.74"/>
<text text-anchor="start" x="227.25" y="-99.24" font-family="Helvetica,sans-Serif" font-size="10.00">fr.softsf.sudokufx.viewmodel.grid.</text>
<text text-anchor="middle" x="301.12" y="-87.24" font-family="Helvetica,sans-Serif" font-size="10.00">GridViewModel.verifyGrid</text>
</a>
</g>
</g>
<!-- Node1&#45;&gt;Node7 -->
<g id="edge7_Node000001_Node000007" class="edge">
<title>Node1&#45;&gt;Node7</title>
<g id="a_edge7_Node000001_Node000007"><a xlink:title=" ">
<path fill="none" stroke="#63b8ff" d="M139.97,-152.31C170.27,-141.8 209.8,-128.08 242.01,-116.91"/>
<polygon fill="#63b8ff" stroke="#63b8ff" points="242.9,-120.3 251.2,-113.72 240.6,-113.69 242.9,-120.3"/>
</a>
</g>
</g>
<!-- Node4 -->
<g id="Node000004" class="node">
<title>Node4</title>
<g id="a_Node000004"><a xlink:href="classfr_1_1softsf_1_1sudokufx_1_1viewmodel_1_1grid_1_1_grid_view_model.html#a14e2c0c3e0e51a0fee38c181b39fa6e2" target="_top" xlink:title="Gets a list of all cell text values in row&#45;major order.">
<polygon fill="white" stroke="#666666" points="808,-162.74 644.25,-162.74 644.25,-130.74 808,-130.74 808,-162.74"/>
<text text-anchor="start" x="652.25" y="-149.24" font-family="Helvetica,sans-Serif" font-size="10.00">fr.softsf.sudokufx.viewmodel.grid.</text>
<text text-anchor="middle" x="726.12" y="-137.24" font-family="Helvetica,sans-Serif" font-size="10.00">GridViewModel.getAllValues</text>
</a>
</g>
</g>
<!-- Node3&#45;&gt;Node4 -->
<g id="edge3_Node000003_Node000004" class="edge">
<title>Node3&#45;&gt;Node4</title>
<g id="a_edge3_Node000003_Node000004"><a xlink:title=" ">
<path fill="none" stroke="#63b8ff" d="M608.49,-146.74C616.53,-146.74 624.67,-146.74 632.71,-146.74"/>
<polygon fill="#63b8ff" stroke="#63b8ff" points="632.47,-150.24 642.47,-146.74 632.47,-143.24 632.47,-150.24"/>
</a>
</g>
</g>
<!-- Node5 -->
<g id="Node000005" class="node">
<title>Node5</title>
<g id="a_Node000005"><a xlink:href="classfr_1_1softsf_1_1sudokufx_1_1viewmodel_1_1grid_1_1_grid_view_model.html#ace36956cb99bad46d1144460d8cde157" target="_top" xlink:title="Checks whether the GridViewModel has been initialized via init().">
<polygon fill="white" stroke="#666666" points="1007.75,-162.74 844,-162.74 844,-130.74 1007.75,-130.74 1007.75,-162.74"/>
<text text-anchor="start" x="852" y="-149.24" font-family="Helvetica,sans-Serif" font-size="10.00">fr.softsf.sudokufx.viewmodel.grid.</text>
<text text-anchor="middle" x="925.88" y="-137.24" font-family="Helvetica,sans-Serif" font-size="10.00">GridViewModel.checkInitialized</text>
</a>
</g>
</g>
<!-- Node4&#45;&gt;Node5 -->
<g id="edge4_Node000004_Node000005" class="edge">
<title>Node4&#45;&gt;Node5</title>
<g id="a_edge4_Node000004_Node000005"><a xlink:title=" ">
<path fill="none" stroke="#63b8ff" d="M808.41,-146.74C816.31,-146.74 824.35,-146.74 832.34,-146.74"/>
<polygon fill="#63b8ff" stroke="#63b8ff" points="832.07,-150.24 842.07,-146.74 832.07,-143.24 832.07,-150.24"/>
</a>
</g>
</g>
<!-- Node6&#45;&gt;Node4 -->
<g id="edge6_Node000006_Node000004" class="edge">
<title>Node6&#45;&gt;Node4</title>
<g id="a_edge6_Node000006_Node000004"><a xlink:title=" ">
<path fill="none" stroke="#63b8ff" d="M383.34,-188.99C445.22,-186.86 532.42,-182.15 608.25,-171.74 620.29,-170.09 632.94,-167.88 645.29,-165.47"/>
<polygon fill="#63b8ff" stroke="#63b8ff" points="645.93,-168.91 655.03,-163.5 644.54,-162.05 645.93,-168.91"/>
</a>
</g>
</g>
<!-- Node7&#45;&gt;Node3 -->
<g id="edge11_Node000007_Node000003" class="edge">
<title>Node7&#45;&gt;Node3</title>
<g id="a_edge11_Node000007_Node000003"><a xlink:title=" ">
<path fill="none" stroke="#63b8ff" d="M371.34,-113.18C390.86,-117.82 412.25,-122.9 432.35,-127.67"/>
<polygon fill="#63b8ff" stroke="#63b8ff" points="431.36,-131.03 441.89,-129.94 432.97,-124.22 431.36,-131.03"/>
</a>
</g>
</g>
<!-- Node7&#45;&gt;Node4 -->
<g id="edge9_Node000007_Node000004" class="edge">
<title>Node7&#45;&gt;Node4</title>
<g id="a_edge9_Node000007_Node000004"><a xlink:title=" ">
<path fill="none" stroke="#63b8ff" d="M320.28,-80.29C341.95,-61.88 380.13,-33.14 419,-21.74 499.71,1.93 531.09,11.75 608.25,-21.74 654.77,-41.93 691.22,-90.78 710.34,-121.08"/>
<polygon fill="#63b8ff" stroke="#63b8ff" points="707.16,-122.59 715.36,-129.29 713.13,-118.93 707.16,-122.59"/>
</a>
</g>
</g>
<!-- Node8 -->
<g id="Node000008" class="node">
<title>Node8</title>
<g id="a_Node000008"><a xlink:href="classfr_1_1softsf_1_1sudokufx_1_1viewmodel_1_1grid_1_1_grid_view_model.html#a4fdf2930215eea12812190e33e1ddeca" target="_top" xlink:title="Handles all actions when a grid is successfully completed.">
<polygon fill="white" stroke="#666666" points="595.5,-112.74 431.75,-112.74 431.75,-80.74 595.5,-80.74 595.5,-112.74"/>
<text text-anchor="start" x="439.75" y="-99.24" font-family="Helvetica,sans-Serif" font-size="10.00">fr.softsf.sudokufx.viewmodel.grid.</text>
<text text-anchor="middle" x="513.62" y="-87.24" font-family="Helvetica,sans-Serif" font-size="10.00">GridViewModel.celebrateVictory</text>
</a>
</g>
</g>
<!-- Node7&#45;&gt;Node8 -->
<g id="edge8_Node000007_Node000008" class="edge">
<title>Node7&#45;&gt;Node8</title>
<g id="a_edge8_Node000007_Node000008"><a xlink:title=" ">
<path fill="none" stroke="#63b8ff" d="M383.21,-96.74C395.36,-96.74 407.96,-96.74 420.32,-96.74"/>
<polygon fill="#63b8ff" stroke="#63b8ff" points="420.07,-100.24 430.07,-96.74 420.07,-93.24 420.07,-100.24"/>
</a>
</g>
</g>
<!-- Node9 -->
<g id="Node000009" class="node">
<title>Node9</title>
<g id="a_Node000009"><a xlink:href="classfr_1_1softsf_1_1sudokufx_1_1viewmodel_1_1grid_1_1_grid_view_model.html#af41c64cb771df8f4fa5bbf0c3a34431b" target="_top" xlink:title="Solves the given 9x9 Sudoku grid.">
<polygon fill="white" stroke="#666666" points="596.62,-62.74 430.62,-62.74 430.62,-30.74 596.62,-30.74 596.62,-62.74"/>
<text text-anchor="start" x="438.62" y="-49.24" font-family="Helvetica,sans-Serif" font-size="10.00">fr.softsf.sudokufx.viewmodel.grid.</text>
<text text-anchor="middle" x="513.62" y="-37.24" font-family="Helvetica,sans-Serif" font-size="10.00">GridViewModel.getCurrentSolution</text>
</a>
</g>
</g>
<!-- Node7&#45;&gt;Node9 -->
<g id="edge10_Node000007_Node000009" class="edge">
<title>Node7&#45;&gt;Node9</title>
<g id="a_edge10_Node000007_Node000009"><a xlink:title=" ">
<path fill="none" stroke="#63b8ff" d="M371.34,-80.3C390.86,-75.66 412.25,-70.58 432.35,-65.81"/>
<polygon fill="#63b8ff" stroke="#63b8ff" points="432.97,-69.26 441.89,-63.54 431.36,-62.45 432.97,-69.26"/>
</a>
</g>
</g>
</g>
</svg>
