<?xml version="1.0" encoding="UTF-8" standalone="no"?>
<!DOCTYPE svg PUBLIC "-//W3C//DTD SVG 1.1//EN"
 "http://www.w3.org/Graphics/SVG/1.1/DTD/svg11.dtd">
<!-- Generated by graphviz version 12.2.1 (20241206.2353)
 -->
<!-- Title: fr.softsf.sudokufx.common.util.sudoku.GridMaster.genererLaGrilleAResoudre Pages: 1 -->
<svg width="1658pt" height="314pt"
 viewBox="0.00 0.00 1658.25 314.00" xmlns="http://www.w3.org/2000/svg" xmlns:xlink="http://www.w3.org/1999/xlink">
<g id="graph0" class="graph" transform="scale(1 1) rotate(0) translate(4 310)">
<title>fr.softsf.sudokufx.common.util.sudoku.GridMaster.genererLaGrilleAResoudre</title>
<!-- Node1 -->
<g id="Node000001" class="node">
<title>Node1</title>
<g id="a_Node000001"><a xlink:title="Génère une grille de Sudoku à résoudre en masquant des cases selon le niveau de difficulté.">
<polygon fill="#999999" stroke="#666666" points="186.25,-238 0,-238 0,-206 186.25,-206 186.25,-238"/>
<text text-anchor="start" x="8" y="-224.5" font-family="Helvetica,sans-Serif" font-size="10.00">fr.softsf.sudokufx.common.util.sudoku.</text>
<text text-anchor="middle" x="93.12" y="-212.5" font-family="Helvetica,sans-Serif" font-size="10.00">GridMaster.genererLaGrilleAResoudre</text>
</a>
</g>
</g>
<!-- Node2 -->
<g id="Node000002" class="node">
<title>Node2</title>
<g id="a_Node000002"><a xlink:href="classfr_1_1softsf_1_1sudokufx_1_1common_1_1util_1_1sudoku_1_1_grid_master.html#aa77557d49c6d3377a6409b74f6386595" target="_top" xlink:title="Génère une grille de Sudoku de niveau difficile.">
<polygon fill="white" stroke="#666666" points="435.12,-300 237.62,-300 237.62,-256 435.12,-256 435.12,-300"/>
<text text-anchor="start" x="245.62" y="-286.5" font-family="Helvetica,sans-Serif" font-size="10.00">fr.softsf.sudokufx.common.util.sudoku.</text>
<text text-anchor="start" x="245.62" y="-274.5" font-family="Helvetica,sans-Serif" font-size="10.00">GridMaster.getPossibilitesGrilleAresoudre</text>
<text text-anchor="middle" x="336.38" y="-262.5" font-family="Helvetica,sans-Serif" font-size="10.00">Difficile</text>
</a>
</g>
</g>
<!-- Node1&#45;&gt;Node2 -->
<g id="edge1_Node000001_Node000002" class="edge">
<title>Node1&#45;&gt;Node2</title>
<g id="a_edge1_Node000001_Node000002"><a xlink:title=" ">
<path fill="none" stroke="#63b8ff" d="M165.2,-238.5C184.85,-243.06 206.62,-248.11 227.84,-253.04"/>
<polygon fill="#63b8ff" stroke="#63b8ff" points="226.87,-256.41 237.4,-255.26 228.45,-249.59 226.87,-256.41"/>
</a>
</g>
</g>
<!-- Node13 -->
<g id="Node000013" class="node">
<title>Node13</title>
<g id="a_Node000013"><a xlink:href="classfr_1_1softsf_1_1sudokufx_1_1common_1_1util_1_1sudoku_1_1_grid_master.html#a14a9157214a31a7be5f08c78c129a96d" target="_top" xlink:title="Génère une grille de Sudoku de niveau facile.">
<polygon fill="white" stroke="#666666" points="450.5,-238 222.25,-238 222.25,-206 450.5,-206 450.5,-238"/>
<text text-anchor="start" x="230.25" y="-224.5" font-family="Helvetica,sans-Serif" font-size="10.00">fr.softsf.sudokufx.common.util.sudoku.</text>
<text text-anchor="middle" x="336.38" y="-212.5" font-family="Helvetica,sans-Serif" font-size="10.00">GridMaster.getPossibilitesGrilleAResoudreFacile</text>
</a>
</g>
</g>
<!-- Node1&#45;&gt;Node13 -->
<g id="edge18_Node000001_Node000013" class="edge">
<title>Node1&#45;&gt;Node13</title>
<g id="a_edge18_Node000001_Node000013"><a xlink:title=" ">
<path fill="none" stroke="#63b8ff" d="M186.71,-222C194.57,-222 202.59,-222 210.64,-222"/>
<polygon fill="#63b8ff" stroke="#63b8ff" points="210.51,-225.5 220.51,-222 210.51,-218.5 210.51,-225.5"/>
</a>
</g>
</g>
<!-- Node14 -->
<g id="Node000014" class="node">
<title>Node14</title>
<g id="a_Node000014"><a xlink:href="classfr_1_1softsf_1_1sudokufx_1_1common_1_1util_1_1sudoku_1_1_grid_master.html#ab77d72c8f1612e20c9d7b27f6869b08b" target="_top" xlink:title="Génère une grille de Sudoku de niveau moyen.">
<polygon fill="white" stroke="#666666" points="437.38,-188 235.38,-188 235.38,-144 437.38,-144 437.38,-188"/>
<text text-anchor="start" x="243.38" y="-174.5" font-family="Helvetica,sans-Serif" font-size="10.00">fr.softsf.sudokufx.common.util.sudoku.</text>
<text text-anchor="start" x="243.38" y="-162.5" font-family="Helvetica,sans-Serif" font-size="10.00">GridMaster.getPossibilitesGrilleAResoudre</text>
<text text-anchor="middle" x="336.38" y="-150.5" font-family="Helvetica,sans-Serif" font-size="10.00">Moyenne</text>
</a>
</g>
</g>
<!-- Node1&#45;&gt;Node14 -->
<g id="edge20_Node000001_Node000014" class="edge">
<title>Node1&#45;&gt;Node14</title>
<g id="a_edge20_Node000001_Node000014"><a xlink:title=" ">
<path fill="none" stroke="#63b8ff" d="M165.2,-205.5C184.85,-200.94 206.62,-195.89 227.84,-190.96"/>
<polygon fill="#63b8ff" stroke="#63b8ff" points="228.45,-194.41 237.4,-188.74 226.87,-187.59 228.45,-194.41"/>
</a>
</g>
</g>
<!-- Node3 -->
<g id="Node000003" class="node">
<title>Node3</title>
<g id="a_Node000003"><a xlink:href="classfr_1_1softsf_1_1sudokufx_1_1common_1_1util_1_1sudoku_1_1_grid_master.html#af6461bfbf866d4c2ed591179e96eb56b" target="_top" xlink:title="Génère une grille de Sudoku avec un masquage aléatoire borné selon la difficulté.">
<polygon fill="white" stroke="#666666" points="698.25,-238 486.5,-238 486.5,-206 698.25,-206 698.25,-238"/>
<text text-anchor="start" x="494.5" y="-224.5" font-family="Helvetica,sans-Serif" font-size="10.00">fr.softsf.sudokufx.common.util.sudoku.</text>
<text text-anchor="middle" x="592.38" y="-212.5" font-family="Helvetica,sans-Serif" font-size="10.00">GridMaster.genererGrilleAvecCasesCachees</text>
</a>
</g>
</g>
<!-- Node2&#45;&gt;Node3 -->
<g id="edge2_Node000002_Node000003" class="edge">
<title>Node2&#45;&gt;Node3</title>
<g id="a_edge2_Node000002_Node000003"><a xlink:title=" ">
<path fill="none" stroke="#63b8ff" d="M435.58,-256.35C458.63,-251.27 483.01,-245.89 505.47,-240.94"/>
<polygon fill="#63b8ff" stroke="#63b8ff" points="506.19,-244.37 515.2,-238.79 504.68,-237.53 506.19,-244.37"/>
</a>
</g>
</g>
<!-- Node3&#45;&gt;Node3 -->
<g id="edge3_Node000003_Node000003" class="edge">
<title>Node3&#45;&gt;Node3</title>
<g id="a_edge3_Node000003_Node000003"><a xlink:title=" ">
<path fill="none" stroke="#63b8ff" d="M549.55,-238.44C541.56,-247.58 555.83,-256 592.38,-256 612.65,-256 626.06,-253.41 632.63,-249.54"/>
<polygon fill="#63b8ff" stroke="#63b8ff" points="636.01,-250.45 634.86,-239.92 629.19,-248.87 636.01,-250.45"/>
</a>
</g>
</g>
<!-- Node4 -->
<g id="Node000004" class="node">
<title>Node4</title>
<g id="a_Node000004"><a xlink:href="classfr_1_1softsf_1_1sudokufx_1_1common_1_1util_1_1sudoku_1_1_grid_master.html#aeed90a968624e9b7ccb44958df9ae821" target="_top" xlink:title="Calcule les possibilités pour chaque case de la grille de Sudoku.">
<polygon fill="white" stroke="#666666" points="1179.12,-306 992.88,-306 992.88,-274 1179.12,-274 1179.12,-306"/>
<text text-anchor="start" x="1000.88" y="-292.5" font-family="Helvetica,sans-Serif" font-size="10.00">fr.softsf.sudokufx.common.util.sudoku.</text>
<text text-anchor="middle" x="1086" y="-280.5" font-family="Helvetica,sans-Serif" font-size="10.00">GridMaster.getPossibilites</text>
</a>
</g>
</g>
<!-- Node3&#45;&gt;Node4 -->
<g id="edge4_Node000003_Node000004" class="edge">
<title>Node3&#45;&gt;Node4</title>
<g id="a_edge4_Node000003_Node000004"><a xlink:title=" ">
<path fill="none" stroke="#63b8ff" d="M681.93,-238.46C699.25,-241.47 717.3,-244.46 734.25,-247 817.18,-259.43 911.55,-270.85 981.49,-278.79"/>
<polygon fill="#63b8ff" stroke="#63b8ff" points="980.67,-282.22 991,-279.86 981.46,-275.26 980.67,-282.22"/>
</a>
</g>
</g>
<!-- Node7 -->
<g id="Node000007" class="node">
<title>Node7</title>
<g id="a_Node000007"><a xlink:href="classfr_1_1softsf_1_1sudokufx_1_1common_1_1util_1_1sudoku_1_1_grid_master.html#a7b8b865b518ad50e3d77814a16bf9634" target="_top" xlink:title="Cache des cases dans la grille et calcule la somme des possibilités restantes.">
<polygon fill="white" stroke="#666666" points="930.25,-238 734.25,-238 734.25,-206 930.25,-206 930.25,-238"/>
<text text-anchor="start" x="742.25" y="-224.5" font-family="Helvetica,sans-Serif" font-size="10.00">fr.softsf.sudokufx.common.util.sudoku.</text>
<text text-anchor="middle" x="832.25" y="-212.5" font-family="Helvetica,sans-Serif" font-size="10.00">GridMaster.getPossibilitesGrilleWhileNok</text>
</a>
</g>
</g>
<!-- Node3&#45;&gt;Node7 -->
<g id="edge7_Node000003_Node000007" class="edge">
<title>Node3&#45;&gt;Node7</title>
<g id="a_edge7_Node000003_Node000007"><a xlink:title=" ">
<path fill="none" stroke="#63b8ff" d="M698.75,-222C706.6,-222 714.53,-222 722.4,-222"/>
<polygon fill="#63b8ff" stroke="#63b8ff" points="722.35,-225.5 732.35,-222 722.35,-218.5 722.35,-225.5"/>
</a>
</g>
</g>
<!-- Node10 -->
<g id="Node000010" class="node">
<title>Node10</title>
<g id="a_Node000010"><a xlink:href="classfr_1_1softsf_1_1sudokufx_1_1common_1_1util_1_1sudoku_1_1_grid_master.html#aa3aa3945ebc4549be49be1e0c481f9da" target="_top" xlink:title="Vérifie l&#39;unicité par backtracking en utilisant la propagation de contraintes.">
<polygon fill="white" stroke="#666666" points="925.38,-113 739.12,-113 739.12,-81 925.38,-81 925.38,-113"/>
<text text-anchor="start" x="747.12" y="-99.5" font-family="Helvetica,sans-Serif" font-size="10.00">fr.softsf.sudokufx.common.util.sudoku.</text>
<text text-anchor="middle" x="832.25" y="-87.5" font-family="Helvetica,sans-Serif" font-size="10.00">GridMaster.verifierUnicite</text>
</a>
</g>
</g>
<!-- Node3&#45;&gt;Node10 -->
<g id="edge12_Node000003_Node000010" class="edge">
<title>Node3&#45;&gt;Node10</title>
<g id="a_edge12_Node000003_Node000010"><a xlink:title=" ">
<path fill="none" stroke="#63b8ff" d="M624.47,-205.66C666.86,-183.39 742.86,-143.45 789.98,-118.69"/>
<polygon fill="#63b8ff" stroke="#63b8ff" points="791.58,-121.8 798.8,-114.05 788.32,-115.6 791.58,-121.8"/>
</a>
</g>
</g>
<!-- Node5 -->
<g id="Node000005" class="node">
<title>Node5</title>
<g id="a_Node000005"><a xlink:href="classfr_1_1softsf_1_1sudokufx_1_1common_1_1util_1_1sudoku_1_1_grid_master.html#a27aa242e0289c28db22cd6caa98aec06" target="_top" xlink:title="Initialise le tableau des possibilités pour chaque case.">
<polygon fill="white" stroke="#666666" points="1428,-247 1241.75,-247 1241.75,-215 1428,-215 1428,-247"/>
<text text-anchor="start" x="1249.75" y="-233.5" font-family="Helvetica,sans-Serif" font-size="10.00">fr.softsf.sudokufx.common.util.sudoku.</text>
<text text-anchor="middle" x="1334.88" y="-221.5" font-family="Helvetica,sans-Serif" font-size="10.00">GridMaster.initialiserPossibilites</text>
</a>
</g>
</g>
<!-- Node4&#45;&gt;Node5 -->
<g id="edge5_Node000004_Node000005" class="edge">
<title>Node4&#45;&gt;Node5</title>
<g id="a_edge5_Node000004_Node000005"><a xlink:title=" ">
<path fill="none" stroke="#63b8ff" d="M1167.93,-273.55C1180.61,-270.8 1193.55,-267.9 1205.75,-265 1224.47,-260.55 1244.63,-255.38 1263.3,-250.43"/>
<polygon fill="#63b8ff" stroke="#63b8ff" points="1264.17,-253.82 1272.93,-247.86 1262.36,-247.06 1264.17,-253.82"/>
</a>
</g>
</g>
<!-- Node6 -->
<g id="Node000006" class="node">
<title>Node6</title>
<g id="a_Node000006"><a xlink:href="classfr_1_1softsf_1_1sudokufx_1_1common_1_1util_1_1sudoku_1_1_grid_master.html#a6f8a7a32d9421be5ec0e87fab69bb351" target="_top" xlink:title="Élimine la valeur des possibilités des cases voisines (ligne, colonne, carré).">
<polygon fill="white" stroke="#666666" points="1650.25,-166 1464,-166 1464,-134 1650.25,-134 1650.25,-166"/>
<text text-anchor="start" x="1472" y="-152.5" font-family="Helvetica,sans-Serif" font-size="10.00">fr.softsf.sudokufx.common.util.sudoku.</text>
<text text-anchor="middle" x="1557.12" y="-140.5" font-family="Helvetica,sans-Serif" font-size="10.00">GridMaster.eliminerPossibilite</text>
</a>
</g>
</g>
<!-- Node5&#45;&gt;Node6 -->
<g id="edge6_Node000005_Node000006" class="edge">
<title>Node5&#45;&gt;Node6</title>
<g id="a_edge6_Node000005_Node000006"><a xlink:title=" ">
<path fill="none" stroke="#63b8ff" d="M1380.71,-214.51C1415.4,-201.75 1463.61,-184.02 1500.71,-170.38"/>
<polygon fill="#63b8ff" stroke="#63b8ff" points="1501.75,-173.73 1509.93,-166.99 1499.34,-167.16 1501.75,-173.73"/>
</a>
</g>
</g>
<!-- Node7&#45;&gt;Node4 -->
<g id="edge10_Node000007_Node000004" class="edge">
<title>Node7&#45;&gt;Node4</title>
<g id="a_edge10_Node000007_Node000004"><a xlink:title=" ">
<path fill="none" stroke="#63b8ff" d="M879.98,-238.44C905.32,-247.01 937.29,-257.29 966.25,-265 974.02,-267.07 982.11,-269.07 990.25,-270.99"/>
<polygon fill="#63b8ff" stroke="#63b8ff" points="989.36,-274.38 999.89,-273.21 990.93,-267.56 989.36,-274.38"/>
</a>
</g>
</g>
<!-- Node8 -->
<g id="Node000008" class="node">
<title>Node8</title>
<g id="a_Node000008"><a xlink:href="classfr_1_1softsf_1_1sudokufx_1_1common_1_1util_1_1sudoku_1_1_grid_master.html#aedafc76e589c715c380e2732e0ff04d2" target="_top" xlink:title="Cache un nombre spécifié de cases dans la grille en les remplaçant par zéro.">
<polygon fill="white" stroke="#666666" points="1179.12,-238 992.88,-238 992.88,-206 1179.12,-206 1179.12,-238"/>
<text text-anchor="start" x="1000.88" y="-224.5" font-family="Helvetica,sans-Serif" font-size="10.00">fr.softsf.sudokufx.common.util.sudoku.</text>
<text text-anchor="middle" x="1086" y="-212.5" font-family="Helvetica,sans-Serif" font-size="10.00">GridMaster.cacherLesCases</text>
</a>
</g>
</g>
<!-- Node7&#45;&gt;Node8 -->
<g id="edge8_Node000007_Node000008" class="edge">
<title>Node7&#45;&gt;Node8</title>
<g id="a_edge8_Node000007_Node000008"><a xlink:title=" ">
<path fill="none" stroke="#63b8ff" d="M930.58,-222C947.11,-222 964.33,-222 981.02,-222"/>
<polygon fill="#63b8ff" stroke="#63b8ff" points="980.96,-225.5 990.96,-222 980.96,-218.5 980.96,-225.5"/>
</a>
</g>
</g>
<!-- Node9 -->
<g id="Node000009" class="node">
<title>Node9</title>
<g id="a_Node000009"><a xlink:href="classfr_1_1softsf_1_1sudokufx_1_1common_1_1util_1_1sudoku_1_1_grid_master.html#aa9fd5688b3effcfb97c226e04a5ff380" target="_top" xlink:title="Calcule la somme des possibilités de toutes les cases de la grille de Sudoku.">
<polygon fill="white" stroke="#666666" points="1192.62,-188 979.38,-188 979.38,-156 1192.62,-156 1192.62,-188"/>
<text text-anchor="start" x="987.38" y="-174.5" font-family="Helvetica,sans-Serif" font-size="10.00">fr.softsf.sudokufx.common.util.sudoku.</text>
<text text-anchor="middle" x="1086" y="-162.5" font-family="Helvetica,sans-Serif" font-size="10.00">GridMaster.sommeDesPossibilitesDeLaGrille</text>
</a>
</g>
</g>
<!-- Node7&#45;&gt;Node9 -->
<g id="edge11_Node000007_Node000009" class="edge">
<title>Node7&#45;&gt;Node9</title>
<g id="a_edge11_Node000007_Node000009"><a xlink:title=" ">
<path fill="none" stroke="#63b8ff" d="M916.03,-205.56C940.02,-200.8 966.38,-195.56 991,-190.67"/>
<polygon fill="#63b8ff" stroke="#63b8ff" points="991.56,-194.13 1000.68,-188.75 990.19,-187.26 991.56,-194.13"/>
</a>
</g>
</g>
<!-- Node8&#45;&gt;Node8 -->
<g id="edge9_Node000008_Node000008" class="edge">
<title>Node8&#45;&gt;Node8</title>
<g id="a_edge9_Node000008_Node000008"><a xlink:title=" ">
<path fill="none" stroke="#63b8ff" d="M1041.57,-238.44C1033.28,-247.58 1048.09,-256 1086,-256 1107.03,-256 1120.95,-253.41 1127.77,-249.54"/>
<polygon fill="#63b8ff" stroke="#63b8ff" points="1131.15,-250.46 1130.08,-239.91 1124.34,-248.82 1131.15,-250.46"/>
</a>
</g>
</g>
<!-- Node10&#45;&gt;Node6 -->
<g id="edge15_Node000010_Node000006" class="edge">
<title>Node10&#45;&gt;Node6</title>
<g id="a_edge15_Node000010_Node000006"><a xlink:title=" ">
<path fill="none" stroke="#63b8ff" d="M925.53,-105.57C939.18,-106.77 953.08,-107.95 966.25,-109 1136.51,-122.6 1334.63,-135.84 1452.47,-143.44"/>
<polygon fill="#63b8ff" stroke="#63b8ff" points="1451.9,-146.91 1462.11,-144.06 1452.35,-139.93 1451.9,-146.91"/>
</a>
</g>
</g>
<!-- Node10&#45;&gt;Node10 -->
<g id="edge17_Node000010_Node000010" class="edge">
<title>Node10&#45;&gt;Node10</title>
<g id="a_edge17_Node000010_Node000010"><a xlink:title=" ">
<path fill="none" stroke="#63b8ff" d="M789.43,-113.44C781.43,-122.58 795.71,-131 832.25,-131 852.52,-131 865.94,-128.41 872.51,-124.54"/>
<polygon fill="#63b8ff" stroke="#63b8ff" points="875.89,-125.45 874.73,-114.92 869.07,-123.87 875.89,-125.45"/>
</a>
</g>
</g>
<!-- Node11 -->
<g id="Node000011" class="node">
<title>Node11</title>
<g id="a_Node000011"><a xlink:href="classfr_1_1softsf_1_1sudokufx_1_1common_1_1util_1_1sudoku_1_1_grid_master.html#a3f17ab078f894717a1f3dfaffed0b987" target="_top" xlink:title="Choisit une valeur aléatoire parmi les possibilités données.">
<polygon fill="white" stroke="#666666" points="1179.12,-82 992.88,-82 992.88,-50 1179.12,-50 1179.12,-82"/>
<text text-anchor="start" x="1000.88" y="-68.5" font-family="Helvetica,sans-Serif" font-size="10.00">fr.softsf.sudokufx.common.util.sudoku.</text>
<text text-anchor="middle" x="1086" y="-56.5" font-family="Helvetica,sans-Serif" font-size="10.00">GridMaster.choisirValeurAleatoire</text>
</a>
</g>
</g>
<!-- Node10&#45;&gt;Node11 -->
<g id="edge13_Node000010_Node000011" class="edge">
<title>Node10&#45;&gt;Node11</title>
<g id="a_edge13_Node000010_Node000011"><a xlink:title=" ">
<path fill="none" stroke="#63b8ff" d="M925.56,-85.63C943.69,-83.4 962.82,-81.04 981.3,-78.77"/>
<polygon fill="#63b8ff" stroke="#63b8ff" points="981.7,-82.25 991.2,-77.55 980.84,-75.3 981.7,-82.25"/>
</a>
</g>
</g>
<!-- Node12 -->
<g id="Node000012" class="node">
<title>Node12</title>
<g id="a_Node000012"><a xlink:href="classfr_1_1softsf_1_1sudokufx_1_1common_1_1util_1_1sudoku_1_1_grid_master.html#a973a5ac2260605b8a260934b7e68373d" target="_top" xlink:title="Trouve la case vide avec le moins de possibilités.">
<polygon fill="white" stroke="#666666" points="1205.75,-32 966.25,-32 966.25,0 1205.75,0 1205.75,-32"/>
<text text-anchor="start" x="974.25" y="-18.5" font-family="Helvetica,sans-Serif" font-size="10.00">fr.softsf.sudokufx.common.util.sudoku.</text>
<text text-anchor="middle" x="1086" y="-6.5" font-family="Helvetica,sans-Serif" font-size="10.00">GridMaster.laCaseVideAvecLeMoinsDePossibilites</text>
</a>
</g>
</g>
<!-- Node10&#45;&gt;Node12 -->
<g id="edge16_Node000010_Node000012" class="edge">
<title>Node10&#45;&gt;Node12</title>
<g id="a_edge16_Node000010_Node000012"><a xlink:title=" ">
<path fill="none" stroke="#63b8ff" d="M867.3,-80.53C893.78,-68.25 931.7,-51.8 966.25,-41 972.78,-38.96 979.57,-37.03 986.44,-35.22"/>
<polygon fill="#63b8ff" stroke="#63b8ff" points="986.98,-38.7 995.81,-32.85 985.26,-31.91 986.98,-38.7"/>
</a>
</g>
</g>
<!-- Node11&#45;&gt;Node11 -->
<g id="edge14_Node000011_Node000011" class="edge">
<title>Node11&#45;&gt;Node11</title>
<g id="a_edge14_Node000011_Node000011"><a xlink:title=" ">
<path fill="none" stroke="#63b8ff" d="M1041.57,-82.44C1033.28,-91.58 1048.09,-100 1086,-100 1107.03,-100 1120.95,-97.41 1127.77,-93.54"/>
<polygon fill="#63b8ff" stroke="#63b8ff" points="1131.15,-94.46 1130.08,-83.91 1124.34,-92.82 1131.15,-94.46"/>
</a>
</g>
</g>
<!-- Node13&#45;&gt;Node3 -->
<g id="edge19_Node000013_Node000003" class="edge">
<title>Node13&#45;&gt;Node3</title>
<g id="a_edge19_Node000013_Node000003"><a xlink:title=" ">
<path fill="none" stroke="#63b8ff" d="M450.63,-222C458.63,-222 466.71,-222 474.73,-222"/>
<polygon fill="#63b8ff" stroke="#63b8ff" points="474.51,-225.5 484.51,-222 474.51,-218.5 474.51,-225.5"/>
</a>
</g>
</g>
<!-- Node14&#45;&gt;Node3 -->
<g id="edge21_Node000014_Node000003" class="edge">
<title>Node14&#45;&gt;Node3</title>
<g id="a_edge21_Node000014_Node000003"><a xlink:title=" ">
<path fill="none" stroke="#63b8ff" d="M437.76,-188.13C460.2,-193.08 483.79,-198.28 505.58,-203.08"/>
<polygon fill="#63b8ff" stroke="#63b8ff" points="504.79,-206.49 515.31,-205.23 506.3,-199.66 504.79,-206.49"/>
</a>
</g>
</g>
</g>
</svg>
