<?xml version="1.0" encoding="UTF-8" standalone="no"?>
<!DOCTYPE svg PUBLIC "-//W3C//DTD SVG 1.1//EN"
 "http://www.w3.org/Graphics/SVG/1.1/DTD/svg11.dtd">
<!-- Generated by graphviz version 12.2.1 (20241206.2353)
 -->
<!-- Title: fr.softsf.sudokufx.viewmodel.grid.GridViewModel.getCurrentGridFromModel Pages: 1 -->
<svg width="619pt" height="197pt"
 viewBox="0.00 0.00 619.25 197.00" xmlns="http://www.w3.org/2000/svg" xmlns:xlink="http://www.w3.org/1999/xlink">
<g id="graph0" class="graph" transform="scale(1 1) rotate(0) translate(4 193)">
<title>fr.softsf.sudokufx.viewmodel.grid.GridViewModel.getCurrentGridFromModel</title>
<!-- Node1 -->
<g id="Node000001" class="node">
<title>Node1</title>
<g id="a_Node000001"><a xlink:title="Loads the current Sudoku grid from the model into the ViewModel.">
<polygon fill="#999999" stroke="#666666" points="197.5,-141 0,-141 0,-109 197.5,-109 197.5,-141"/>
<text text-anchor="start" x="8" y="-127.5" font-family="Helvetica,sans-Serif" font-size="10.00">fr.softsf.sudokufx.viewmodel.grid.</text>
<text text-anchor="middle" x="98.75" y="-115.5" font-family="Helvetica,sans-Serif" font-size="10.00">GridViewModel.getCurrentGridFromModel</text>
</a>
</g>
</g>
<!-- Node2 -->
<g id="Node000002" class="node">
<title>Node2</title>
<g id="a_Node000002"><a xlink:href="classfr_1_1softsf_1_1sudokufx_1_1viewmodel_1_1grid_1_1_grid_view_model.html#ace36956cb99bad46d1144460d8cde157" target="_top" xlink:title="Checks whether the GridViewModel has been initialized via init().">
<polygon fill="white" stroke="#666666" points="606.38,-189 442.62,-189 442.62,-157 606.38,-157 606.38,-189"/>
<text text-anchor="start" x="450.62" y="-175.5" font-family="Helvetica,sans-Serif" font-size="10.00">fr.softsf.sudokufx.viewmodel.grid.</text>
<text text-anchor="middle" x="524.5" y="-163.5" font-family="Helvetica,sans-Serif" font-size="10.00">GridViewModel.checkInitialized</text>
</a>
</g>
</g>
<!-- Node1&#45;&gt;Node2 -->
<g id="edge1_Node000001_Node000002" class="edge">
<title>Node1&#45;&gt;Node2</title>
<g id="a_edge1_Node000001_Node000002"><a xlink:title=" ">
<path fill="none" stroke="#63b8ff" d="M133.43,-141.44C159.92,-153.41 198.13,-168.6 233.5,-175 298.76,-186.8 373.64,-185.93 430.96,-182.3"/>
<polygon fill="#63b8ff" stroke="#63b8ff" points="430.93,-185.81 440.67,-181.64 430.46,-178.83 430.93,-185.81"/>
</a>
</g>
</g>
<!-- Node3 -->
<g id="Node000003" class="node">
<title>Node3</title>
<g id="a_Node000003"><a xlink:href="namespacefr_1_1softsf_1_1sudokufx_1_1viewmodel_1_1grid.html#ab18045075b2fc0497b7d6783282145e8" target="_top" xlink:title="Represents the current loaded Sudoku grid, including its difficulty level and the percentage of possi...">
<polygon fill="white" stroke="#666666" points="399.5,-166 235.75,-166 235.75,-134 399.5,-134 399.5,-166"/>
<text text-anchor="start" x="243.75" y="-152.5" font-family="Helvetica,sans-Serif" font-size="10.00">fr.softsf.sudokufx.viewmodel.grid.</text>
<text text-anchor="middle" x="317.62" y="-140.5" font-family="Helvetica,sans-Serif" font-size="10.00">CurrentGrid</text>
</a>
</g>
</g>
<!-- Node1&#45;&gt;Node3 -->
<g id="edge2_Node000001_Node000003" class="edge">
<title>Node1&#45;&gt;Node3</title>
<g id="a_edge2_Node000001_Node000003"><a xlink:title=" ">
<path fill="none" stroke="#63b8ff" d="M197.72,-136.29C206.46,-137.3 215.29,-138.32 223.99,-139.32"/>
<polygon fill="#63b8ff" stroke="#63b8ff" points="223.48,-142.79 233.82,-140.45 224.28,-135.83 223.48,-142.79"/>
</a>
</g>
</g>
<!-- Node4 -->
<g id="Node000004" class="node">
<title>Node4</title>
<g id="a_Node000004"><a xlink:href="enumfr_1_1softsf_1_1sudokufx_1_1common_1_1enums_1_1_difficulty_level.html#a7df76231e8b2c4e2180213007891b807" target="_top" xlink:title="Resolves a DifficultyLevel from its byte representation.">
<polygon fill="white" stroke="#666666" points="401.75,-116 233.5,-116 233.5,-84 401.75,-84 401.75,-116"/>
<text text-anchor="start" x="241.5" y="-102.5" font-family="Helvetica,sans-Serif" font-size="10.00">fr.softsf.sudokufx.common.enums.</text>
<text text-anchor="middle" x="317.62" y="-90.5" font-family="Helvetica,sans-Serif" font-size="10.00">DifficultyLevel.fromGridByte</text>
</a>
</g>
</g>
<!-- Node1&#45;&gt;Node4 -->
<g id="edge3_Node000001_Node000004" class="edge">
<title>Node1&#45;&gt;Node4</title>
<g id="a_edge3_Node000001_Node000004"><a xlink:title=" ">
<path fill="none" stroke="#63b8ff" d="M197.72,-113.71C205.73,-112.78 213.82,-111.85 221.81,-110.93"/>
<polygon fill="#63b8ff" stroke="#63b8ff" points="221.98,-114.43 231.51,-109.81 221.17,-107.48 221.98,-114.43"/>
</a>
</g>
</g>
<!-- Node5 -->
<g id="Node000005" class="node">
<title>Node5</title>
<g id="a_Node000005"><a xlink:href="classfr_1_1softsf_1_1sudokufx_1_1viewmodel_1_1grid_1_1_grid_view_model.html#ab7607876adb740f7f1d55b5016faba0c" target="_top" xlink:title="Sets all 81 cell values and optionally their editability.">
<polygon fill="white" stroke="#666666" points="399.5,-66 235.75,-66 235.75,-34 399.5,-34 399.5,-66"/>
<text text-anchor="start" x="243.75" y="-52.5" font-family="Helvetica,sans-Serif" font-size="10.00">fr.softsf.sudokufx.viewmodel.grid.</text>
<text text-anchor="middle" x="317.62" y="-40.5" font-family="Helvetica,sans-Serif" font-size="10.00">GridViewModel.setValues</text>
</a>
</g>
</g>
<!-- Node1&#45;&gt;Node5 -->
<g id="edge4_Node000001_Node000005" class="edge">
<title>Node1&#45;&gt;Node5</title>
<g id="a_edge4_Node000001_Node000005"><a xlink:title=" ">
<path fill="none" stroke="#63b8ff" d="M141.66,-108.52C167.9,-98.41 202.49,-85.45 233.5,-75 238.59,-73.29 243.87,-71.56 249.19,-69.87"/>
<polygon fill="#63b8ff" stroke="#63b8ff" points="250.19,-73.23 258.68,-66.9 248.09,-66.55 250.19,-73.23"/>
</a>
</g>
</g>
<!-- Node5&#45;&gt;Node2 -->
<g id="edge5_Node000005_Node000002" class="edge">
<title>Node5&#45;&gt;Node2</title>
<g id="a_edge5_Node000005_Node000002"><a xlink:title=" ">
<path fill="none" stroke="#63b8ff" d="M387.14,-66.38C392.3,-68.87 397.24,-71.72 401.75,-75 424.48,-91.53 416.78,-108.28 437.75,-127 448.39,-136.5 461.34,-144.74 473.92,-151.51"/>
<polygon fill="#63b8ff" stroke="#63b8ff" points="472.03,-154.48 482.53,-155.93 475.23,-148.25 472.03,-154.48"/>
</a>
</g>
</g>
<!-- Node6 -->
<g id="Node000006" class="node">
<title>Node6</title>
<g id="a_Node000006"><a xlink:href="classfr_1_1softsf_1_1sudokufx_1_1viewmodel_1_1grid_1_1_grid_cell_view_model.html#a1b2f5aa3c798e4aaf3e845aa59cde94c" target="_top" xlink:title=" ">
<polygon fill="white" stroke="#666666" points="610.88,-100 438.12,-100 438.12,-68 610.88,-68 610.88,-100"/>
<text text-anchor="start" x="446.12" y="-86.5" font-family="Helvetica,sans-Serif" font-size="10.00">fr.softsf.sudokufx.viewmodel.grid.</text>
<text text-anchor="middle" x="524.5" y="-74.5" font-family="Helvetica,sans-Serif" font-size="10.00">GridCellViewModel.editableProperty</text>
</a>
</g>
</g>
<!-- Node5&#45;&gt;Node6 -->
<g id="edge6_Node000005_Node000006" class="edge">
<title>Node5&#45;&gt;Node6</title>
<g id="a_edge6_Node000005_Node000006"><a xlink:title=" ">
<path fill="none" stroke="#63b8ff" d="M399.89,-63.49C408.69,-64.95 417.7,-66.44 426.66,-67.93"/>
<polygon fill="#63b8ff" stroke="#63b8ff" points="426.03,-71.37 436.47,-69.56 427.17,-64.47 426.03,-71.37"/>
</a>
</g>
</g>
<!-- Node7 -->
<g id="Node000007" class="node">
<title>Node7</title>
<g id="a_Node000007"><a xlink:href="classfr_1_1softsf_1_1sudokufx_1_1viewmodel_1_1grid_1_1_grid_cell_view_model.html#ae04f21e5c6df7750f4e8c79d600a9b6b" target="_top" xlink:title=" ">
<polygon fill="white" stroke="#666666" points="611.25,-32 437.75,-32 437.75,0 611.25,0 611.25,-32"/>
<text text-anchor="start" x="445.75" y="-18.5" font-family="Helvetica,sans-Serif" font-size="10.00">fr.softsf.sudokufx.viewmodel.grid.</text>
<text text-anchor="middle" x="524.5" y="-6.5" font-family="Helvetica,sans-Serif" font-size="10.00">GridCellViewModel.rawTextProperty</text>
</a>
</g>
</g>
<!-- Node5&#45;&gt;Node7 -->
<g id="edge8_Node000005_Node000007" class="edge">
<title>Node5&#45;&gt;Node7</title>
<g id="a_edge8_Node000005_Node000007"><a xlink:title=" ">
<path fill="none" stroke="#63b8ff" d="M399.89,-36.51C408.53,-35.08 417.38,-33.61 426.18,-32.15"/>
<polygon fill="#63b8ff" stroke="#63b8ff" points="426.5,-35.65 435.79,-30.56 425.35,-28.74 426.5,-35.65"/>
</a>
</g>
</g>
<!-- Node6&#45;&gt;Node6 -->
<g id="edge7_Node000006_Node000006" class="edge">
<title>Node6&#45;&gt;Node6</title>
<g id="a_edge7_Node000006_Node000006"><a xlink:title=" ">
<path fill="none" stroke="#63b8ff" d="M487.57,-100.44C480.67,-109.58 492.98,-118 524.5,-118 541.98,-118 553.55,-115.41 559.22,-111.54"/>
<polygon fill="#63b8ff" stroke="#63b8ff" points="562.61,-112.42 561.14,-101.93 555.75,-111.05 562.61,-112.42"/>
</a>
</g>
</g>
<!-- Node7&#45;&gt;Node7 -->
<g id="edge9_Node000007_Node000007" class="edge">
<title>Node7&#45;&gt;Node7</title>
<g id="a_edge9_Node000007_Node000007"><a xlink:title=" ">
<path fill="none" stroke="#63b8ff" d="M487.57,-32.44C480.67,-41.58 492.98,-50 524.5,-50 541.98,-50 553.55,-47.41 559.22,-43.54"/>
<polygon fill="#63b8ff" stroke="#63b8ff" points="562.61,-44.42 561.14,-33.93 555.75,-43.05 562.61,-44.42"/>
</a>
</g>
</g>
</g>
</svg>
