<?xml version="1.0" encoding="UTF-8" standalone="no"?>
<!DOCTYPE svg PUBLIC "-//W3C//DTD SVG 1.1//EN"
 "http://www.w3.org/Graphics/SVG/1.1/DTD/svg11.dtd">
<!-- Generated by graphviz version 12.2.1 (20241206.2353)
 -->
<!-- Title: fr.softsf.sudokufx.common.util.sudoku.GridMaster.getPossibilitesGrilleAResoudre Pages: 1 -->
<svg width="983pt" height="251pt"
 viewBox="0.00 0.00 982.50 251.00" xmlns="http://www.w3.org/2000/svg" xmlns:xlink="http://www.w3.org/1999/xlink">
<g id="graph0" class="graph" transform="scale(1 1) rotate(0) translate(4 247)">
<title>fr.softsf.sudokufx.common.util.sudoku.GridMaster.getPossibilitesGrilleAResoudre</title>
<!-- Node1 -->
<g id="Node000001" class="node">
<title>Node1</title>
<g id="a_Node000001"><a xlink:title="Génère une grille de Sudoku.">
<polygon fill="#999999" stroke="#666666" points="202,-150 0,-150 0,-118 202,-118 202,-150"/>
<text text-anchor="start" x="8" y="-136.5" font-family="Helvetica,sans-Serif" font-size="10.00">fr.softsf.sudokufx.common.util.sudoku.</text>
<text text-anchor="middle" x="101" y="-124.5" font-family="Helvetica,sans-Serif" font-size="10.00">GridMaster.getPossibilitesGrilleAResoudre</text>
</a>
</g>
</g>
<!-- Node2 -->
<g id="Node000002" class="node">
<title>Node2</title>
<g id="a_Node000002"><a xlink:href="classfr_1_1softsf_1_1sudokufx_1_1common_1_1util_1_1sudoku_1_1_grid_master.html#af6461bfbf866d4c2ed591179e96eb56b" target="_top" xlink:title="Génère une grille de Sudoku avec un masquage aléatoire borné selon la difficulté cible.">
<polygon fill="white" stroke="#666666" points="449.75,-150 238,-150 238,-118 449.75,-118 449.75,-150"/>
<text text-anchor="start" x="246" y="-136.5" font-family="Helvetica,sans-Serif" font-size="10.00">fr.softsf.sudokufx.common.util.sudoku.</text>
<text text-anchor="middle" x="343.88" y="-124.5" font-family="Helvetica,sans-Serif" font-size="10.00">GridMaster.genererGrilleAvecCasesCachees</text>
</a>
</g>
</g>
<!-- Node1&#45;&gt;Node2 -->
<g id="edge1_Node000001_Node000002" class="edge">
<title>Node1&#45;&gt;Node2</title>
<g id="a_edge1_Node000001_Node000002"><a xlink:title=" ">
<path fill="none" stroke="#63b8ff" d="M202.41,-134C210.31,-134 218.32,-134 226.31,-134"/>
<polygon fill="#63b8ff" stroke="#63b8ff" points="226.07,-137.5 236.07,-134 226.07,-130.5 226.07,-137.5"/>
</a>
</g>
</g>
<!-- Node2&#45;&gt;Node2 -->
<g id="edge4_Node000002_Node000002" class="edge">
<title>Node2&#45;&gt;Node2</title>
<g id="a_edge4_Node000002_Node000002"><a xlink:title=" ">
<path fill="none" stroke="#63b8ff" d="M300.52,-150.44C292.42,-159.58 306.87,-168 343.88,-168 364.4,-168 377.99,-165.41 384.63,-161.54"/>
<polygon fill="#63b8ff" stroke="#63b8ff" points="388.02,-162.45 386.89,-151.92 381.2,-160.85 388.02,-162.45"/>
</a>
</g>
</g>
<!-- Node3 -->
<g id="Node000003" class="node">
<title>Node3</title>
<g id="a_Node000003"><a xlink:href="classfr_1_1softsf_1_1sudokufx_1_1common_1_1util_1_1sudoku_1_1_grid_master.html#aedafc76e589c715c380e2732e0ff04d2" target="_top" xlink:title="Cache un nombre spécifié de cases dans la grille en les remplaçant par zéro.">
<polygon fill="white" stroke="#666666" points="685.5,-225 499.25,-225 499.25,-193 685.5,-193 685.5,-225"/>
<text text-anchor="start" x="507.25" y="-211.5" font-family="Helvetica,sans-Serif" font-size="10.00">fr.softsf.sudokufx.common.util.sudoku.</text>
<text text-anchor="middle" x="592.38" y="-199.5" font-family="Helvetica,sans-Serif" font-size="10.00">GridMaster.cacherLesCases</text>
</a>
</g>
</g>
<!-- Node2&#45;&gt;Node3 -->
<g id="edge2_Node000002_Node000003" class="edge">
<title>Node2&#45;&gt;Node3</title>
<g id="a_edge2_Node000002_Node000003"><a xlink:title=" ">
<path fill="none" stroke="#63b8ff" d="M387.33,-150.43C415.08,-160.83 452.27,-174.13 485.75,-184 492.39,-185.96 499.3,-187.87 506.27,-189.71"/>
<polygon fill="#63b8ff" stroke="#63b8ff" points="505.21,-193.05 515.77,-192.15 506.96,-186.27 505.21,-193.05"/>
</a>
</g>
</g>
<!-- Node4 -->
<g id="Node000004" class="node">
<title>Node4</title>
<g id="a_Node000004"><a xlink:href="classfr_1_1softsf_1_1sudokufx_1_1common_1_1util_1_1sudoku_1_1_grid_master.html#a27aa242e0289c28db22cd6caa98aec06" target="_top" xlink:title="Initialise le tableau des possibilités pour chaque case.">
<polygon fill="white" stroke="#666666" points="685.5,-175 499.25,-175 499.25,-143 685.5,-143 685.5,-175"/>
<text text-anchor="start" x="507.25" y="-161.5" font-family="Helvetica,sans-Serif" font-size="10.00">fr.softsf.sudokufx.common.util.sudoku.</text>
<text text-anchor="middle" x="592.38" y="-149.5" font-family="Helvetica,sans-Serif" font-size="10.00">GridMaster.initialiserPossibilites</text>
</a>
</g>
</g>
<!-- Node2&#45;&gt;Node4 -->
<g id="edge5_Node000002_Node000004" class="edge">
<title>Node2&#45;&gt;Node4</title>
<g id="a_edge5_Node000002_Node000004"><a xlink:title=" ">
<path fill="none" stroke="#63b8ff" d="M450.13,-144.67C462.55,-145.93 475.22,-147.22 487.63,-148.48"/>
<polygon fill="#63b8ff" stroke="#63b8ff" points="487.12,-151.94 497.42,-149.47 487.82,-144.98 487.12,-151.94"/>
</a>
</g>
</g>
<!-- Node6 -->
<g id="Node000006" class="node">
<title>Node6</title>
<g id="a_Node000006"><a xlink:href="classfr_1_1softsf_1_1sudokufx_1_1common_1_1util_1_1sudoku_1_1_grid_master.html#aa9fd5688b3effcfb97c226e04a5ff380" target="_top" xlink:title="Calcule le nombre total de candidats (entropie) sur l&#39;ensemble de la grille.">
<polygon fill="white" stroke="#666666" points="699,-125 485.75,-125 485.75,-93 699,-93 699,-125"/>
<text text-anchor="start" x="493.75" y="-111.5" font-family="Helvetica,sans-Serif" font-size="10.00">fr.softsf.sudokufx.common.util.sudoku.</text>
<text text-anchor="middle" x="592.38" y="-99.5" font-family="Helvetica,sans-Serif" font-size="10.00">GridMaster.sommeDesPossibilitesDeLaGrille</text>
</a>
</g>
</g>
<!-- Node2&#45;&gt;Node6 -->
<g id="edge7_Node000002_Node000006" class="edge">
<title>Node2&#45;&gt;Node6</title>
<g id="a_edge7_Node000002_Node000006"><a xlink:title=" ">
<path fill="none" stroke="#63b8ff" d="M450.13,-123.33C458.04,-122.52 466.06,-121.71 474.04,-120.9"/>
<polygon fill="#63b8ff" stroke="#63b8ff" points="474.19,-124.4 483.79,-119.91 473.49,-117.44 474.19,-124.4"/>
</a>
</g>
</g>
<!-- Node7 -->
<g id="Node000007" class="node">
<title>Node7</title>
<g id="a_Node000007"><a xlink:href="classfr_1_1softsf_1_1sudokufx_1_1common_1_1util_1_1sudoku_1_1_grid_master.html#aa3aa3945ebc4549be49be1e0c481f9da" target="_top" xlink:title="Vérifie l&#39;unicité par backtracking en utilisant la propagation de contraintes.">
<polygon fill="white" stroke="#666666" points="685.5,-57 499.25,-57 499.25,-25 685.5,-25 685.5,-57"/>
<text text-anchor="start" x="507.25" y="-43.5" font-family="Helvetica,sans-Serif" font-size="10.00">fr.softsf.sudokufx.common.util.sudoku.</text>
<text text-anchor="middle" x="592.38" y="-31.5" font-family="Helvetica,sans-Serif" font-size="10.00">GridMaster.verifierUnicite</text>
</a>
</g>
</g>
<!-- Node2&#45;&gt;Node7 -->
<g id="edge8_Node000002_Node000007" class="edge">
<title>Node2&#45;&gt;Node7</title>
<g id="a_edge8_Node000002_Node000007"><a xlink:title=" ">
<path fill="none" stroke="#63b8ff" d="M388.38,-117.59C429.87,-101.93 492.51,-78.3 537.22,-61.43"/>
<polygon fill="#63b8ff" stroke="#63b8ff" points="538.36,-64.74 546.48,-57.94 535.89,-58.19 538.36,-64.74"/>
</a>
</g>
</g>
<!-- Node3&#45;&gt;Node3 -->
<g id="edge3_Node000003_Node000003" class="edge">
<title>Node3&#45;&gt;Node3</title>
<g id="a_edge3_Node000003_Node000003"><a xlink:title=" ">
<path fill="none" stroke="#63b8ff" d="M548.01,-225.44C539.73,-234.58 554.52,-243 592.38,-243 613.37,-243 627.28,-240.41 634.08,-236.54"/>
<polygon fill="#63b8ff" stroke="#63b8ff" points="637.46,-237.45 636.39,-226.91 630.65,-235.82 637.46,-237.45"/>
</a>
</g>
</g>
<!-- Node5 -->
<g id="Node000005" class="node">
<title>Node5</title>
<g id="a_Node000005"><a xlink:href="classfr_1_1softsf_1_1sudokufx_1_1common_1_1util_1_1sudoku_1_1_grid_master.html#aeabb85bac7acd0ff179f259fa13b17ea" target="_top" xlink:title="Élimine une valeur des candidats des cellules voisines (ligne, colonne, bloc).">
<polygon fill="white" stroke="#666666" points="947.88,-162 761.62,-162 761.62,-130 947.88,-130 947.88,-162"/>
<text text-anchor="start" x="769.62" y="-148.5" font-family="Helvetica,sans-Serif" font-size="10.00">fr.softsf.sudokufx.common.util.sudoku.</text>
<text text-anchor="middle" x="854.75" y="-136.5" font-family="Helvetica,sans-Serif" font-size="10.00">GridMaster.eliminerPossibilite</text>
</a>
</g>
</g>
<!-- Node4&#45;&gt;Node5 -->
<g id="edge6_Node000004_Node000005" class="edge">
<title>Node4&#45;&gt;Node5</title>
<g id="a_edge6_Node000004_Node000005"><a xlink:title=" ">
<path fill="none" stroke="#63b8ff" d="M685.91,-154.38C706.72,-153.34 728.94,-152.23 750.18,-151.17"/>
<polygon fill="#63b8ff" stroke="#63b8ff" points="750.19,-154.67 760,-150.68 749.84,-147.68 750.19,-154.67"/>
</a>
</g>
</g>
<!-- Node7&#45;&gt;Node5 -->
<g id="edge11_Node000007_Node000005" class="edge">
<title>Node7&#45;&gt;Node5</title>
<g id="a_edge11_Node000007_Node000005"><a xlink:title=" ">
<path fill="none" stroke="#63b8ff" d="M640.14,-57.48C658.87,-64.73 680.38,-73.9 699,-84 716.12,-93.28 717.5,-100.45 735,-109 748.3,-115.5 762.98,-121.17 777.36,-125.99"/>
<polygon fill="#63b8ff" stroke="#63b8ff" points="776.24,-129.3 786.83,-129.04 778.39,-122.64 776.24,-129.3"/>
</a>
</g>
</g>
<!-- Node7&#45;&gt;Node7 -->
<g id="edge13_Node000007_Node000007" class="edge">
<title>Node7&#45;&gt;Node7</title>
<g id="a_edge13_Node000007_Node000007"><a xlink:title=" ">
<path fill="none" stroke="#63b8ff" d="M548.01,-57.44C539.73,-66.58 554.52,-75 592.38,-75 613.37,-75 627.28,-72.41 634.08,-68.54"/>
<polygon fill="#63b8ff" stroke="#63b8ff" points="637.46,-69.45 636.39,-58.91 630.65,-67.82 637.46,-69.45"/>
</a>
</g>
</g>
<!-- Node8 -->
<g id="Node000008" class="node">
<title>Node8</title>
<g id="a_Node000008"><a xlink:href="classfr_1_1softsf_1_1sudokufx_1_1common_1_1util_1_1sudoku_1_1_grid_master.html#a3f17ab078f894717a1f3dfaffed0b987" target="_top" xlink:title="Choisit une valeur aléatoire parmi les possibilités données.">
<polygon fill="white" stroke="#666666" points="947.88,-82 761.62,-82 761.62,-50 947.88,-50 947.88,-82"/>
<text text-anchor="start" x="769.62" y="-68.5" font-family="Helvetica,sans-Serif" font-size="10.00">fr.softsf.sudokufx.common.util.sudoku.</text>
<text text-anchor="middle" x="854.75" y="-56.5" font-family="Helvetica,sans-Serif" font-size="10.00">GridMaster.choisirValeurAleatoire</text>
</a>
</g>
</g>
<!-- Node7&#45;&gt;Node8 -->
<g id="edge9_Node000007_Node000008" class="edge">
<title>Node7&#45;&gt;Node8</title>
<g id="a_edge9_Node000007_Node000008"><a xlink:title=" ">
<path fill="none" stroke="#63b8ff" d="M685.91,-49.88C706.72,-51.88 728.94,-54.02 750.18,-56.06"/>
<polygon fill="#63b8ff" stroke="#63b8ff" points="749.72,-59.53 760.01,-57 750.39,-52.56 749.72,-59.53"/>
</a>
</g>
</g>
<!-- Node9 -->
<g id="Node000009" class="node">
<title>Node9</title>
<g id="a_Node000009"><a xlink:href="classfr_1_1softsf_1_1sudokufx_1_1common_1_1util_1_1sudoku_1_1_grid_master.html#a973a5ac2260605b8a260934b7e68373d" target="_top" xlink:title="Trouve la case vide avec le moins de possibilités.">
<polygon fill="white" stroke="#666666" points="974.5,-32 735,-32 735,0 974.5,0 974.5,-32"/>
<text text-anchor="start" x="743" y="-18.5" font-family="Helvetica,sans-Serif" font-size="10.00">fr.softsf.sudokufx.common.util.sudoku.</text>
<text text-anchor="middle" x="854.75" y="-6.5" font-family="Helvetica,sans-Serif" font-size="10.00">GridMaster.laCaseVideAvecLeMoinsDePossibilites</text>
</a>
</g>
</g>
<!-- Node7&#45;&gt;Node9 -->
<g id="edge12_Node000007_Node000009" class="edge">
<title>Node7&#45;&gt;Node9</title>
<g id="a_edge12_Node000007_Node000009"><a xlink:title=" ">
<path fill="none" stroke="#63b8ff" d="M685.91,-32.12C698.12,-30.94 710.81,-29.72 723.5,-28.51"/>
<polygon fill="#63b8ff" stroke="#63b8ff" points="723.52,-32.02 733.14,-27.58 722.85,-25.05 723.52,-32.02"/>
</a>
</g>
</g>
<!-- Node8&#45;&gt;Node8 -->
<g id="edge10_Node000008_Node000008" class="edge">
<title>Node8&#45;&gt;Node8</title>
<g id="a_edge10_Node000008_Node000008"><a xlink:title=" ">
<path fill="none" stroke="#63b8ff" d="M807.91,-82.44C799.17,-91.58 814.78,-100 854.75,-100 876.92,-100 891.6,-97.41 898.78,-93.54"/>
<polygon fill="#63b8ff" stroke="#63b8ff" points="902.16,-94.46 901.22,-83.91 895.37,-92.75 902.16,-94.46"/>
</a>
</g>
</g>
</g>
</svg>
