<?xml version="1.0" encoding="UTF-8" standalone="no"?>
<!DOCTYPE svg PUBLIC "-//W3C//DTD SVG 1.1//EN"
 "http://www.w3.org/Graphics/SVG/1.1/DTD/svg11.dtd">
<!-- Generated by graphviz version 12.2.1 (20241206.2353)
 -->
<!-- Title: fr.softsf.sudokufx.config.database.ApplicationKeystore.setupApplicationKeystore Pages: 1 -->
<!--zoomable 252 -->

<svg id="main" version="1.1" xmlns="http://www.w3.org/2000/svg" xmlns:xlink="http://www.w3.org/1999/xlink" xml:space="preserve" onload="init(evt)">

<style type="text/css"><![CDATA[
.node, .edge {opacity: 0.7;}
.node.selected, .edge.selected {opacity: 1;}
.edge:hover path { stroke: red; }
.edge:hover polygon { stroke: red; fill: red; }
]]></style>

<defs>
  <circle id="rim" cx="0" cy="0" r="7"/>
  <circle id="rim2" cx="0" cy="0" r="3.5"/>
  <g id="zoomPlus">
    <use xlink:href="#rim" fill="#404040"><set attributeName="fill" to="#808080" begin="zoomplus.mouseover" end="zoomplus.mouseout"/></use>
    <path d="M-4,0h8M0,-4v8" fill="none" stroke="white" stroke-width="1.5" pointer-events="none"/>
  </g>
  <g id="zoomMin">
    <use xlink:href="#rim" fill="#404040"><set attributeName="fill" to="#808080" begin="zoomminus.mouseover" end="zoomminus.mouseout"/></use>
    <path d="M-4,0h8" fill="none" stroke="white" stroke-width="1.5" pointer-events="none"/>
  </g>
  <g id="arrowUp" transform="translate(30 24)">
    <use xlink:href="#rim"/>
    <path pointer-events="none" fill="none" stroke="white" stroke-width="1.5" d="M0,-3.0v7 M-2.5,-0.5L0,-3.0L2.5,-0.5"/>
  </g>
  <g id="arrowRight" transform="rotate(90) translate(36 -43)">
    <use xlink:href="#rim"/>
    <path pointer-events="none" fill="none" stroke="white" stroke-width="1.5" d="M0,-3.0v7 M-2.5,-0.5L0,-3.0L2.5,-0.5"/>
  </g>
  <g id="arrowDown" transform="rotate(180) translate(-30 -48)">
    <use xlink:href="#rim"/>
    <path pointer-events="none" fill="none" stroke="white" stroke-width="1.5" d="M0,-3.0v7 M-2.5,-0.5L0,-3.0L2.5,-0.5"/>
  </g>
  <g id="arrowLeft" transform="rotate(270) translate(-36 17)">
    <use xlink:href="#rim"/>
    <path pointer-events="none" fill="none" stroke="white" stroke-width="1.5" d="M0,-3.0v7 M-2.5,-0.5L0,-3.0L2.5,-0.5"/>
  </g>
  <g id="resetDef">
    <use xlink:href="#rim2" fill="#404040"><set attributeName="fill" to="#808080" begin="reset.mouseover" end="reset.mouseout"/></use>
  </g>
</defs>
<script type="application/ecmascript">
var viewWidth = 1339;
var viewHeight = 252;
var sectionId = 'dynsection-5';
</script>
<script type="application/ecmascript" xlink:href="svg.min.js"/>
<svg id="graph" class="graph">
<g id="viewport">
<title>fr.softsf.sudokufx.config.database.ApplicationKeystore.setupApplicationKeystore</title>
<!-- Node1 -->
<g id="Node000001" class="node">
<title>Node1</title>
<g id="a_Node000001"><a xlink:title="Configures the keystore by managing the entire process of creating, loading, and encrypting the neces...">
<polygon fill="#999999" stroke="#666666" points="178,-159 0,-159 0,-115 178,-115 178,-159"/>
<text text-anchor="start" x="8" y="-145.5" font-family="Helvetica,sans-Serif" font-size="10.00">fr.softsf.sudokufx.config.database.</text>
<text text-anchor="start" x="8" y="-133.5" font-family="Helvetica,sans-Serif" font-size="10.00">ApplicationKeystore.setupApplication</text>
<text text-anchor="middle" x="89" y="-121.5" font-family="Helvetica,sans-Serif" font-size="10.00">Keystore</text>
</a>
</g>
</g>
<!-- Node2 -->
<g id="Node000002" class="node">
<title>Node2</title>
<g id="a_Node000002"><a xlink:href="classfr_1_1softsf_1_1sudokufx_1_1config_1_1database_1_1_application_keystore.html#a66dfcb0f0fdfe459e86abd12e3afa2a2" target="_top" xlink:title="Create or update the Keystore.">
<polygon fill="white" stroke="#666666" points="428,-228 214,-228 214,-196 428,-196 428,-228"/>
<text text-anchor="start" x="222" y="-214.5" font-family="Helvetica,sans-Serif" font-size="10.00">fr.softsf.sudokufx.config.database.</text>
<text text-anchor="middle" x="321" y="-202.5" font-family="Helvetica,sans-Serif" font-size="10.00">ApplicationKeystore.createOrUpdateKeystore</text>
</a>
</g>
</g>
<!-- Node1&#45;&gt;Node2 -->
<g id="edge1_Node000001_Node000002" class="edge">
<title>Node1&#45;&gt;Node2</title>
<g id="a_edge1_Node000001_Node000002"><a xlink:title=" ">
<path fill="none" stroke="#63b8ff" d="M140.64,-159.45C162.87,-168.77 189.44,-179.2 214,-187 220.18,-188.96 226.6,-190.85 233.09,-192.64"/>
<polygon fill="#63b8ff" stroke="#63b8ff" points="232.02,-195.98 242.59,-195.17 233.83,-189.21 232.02,-195.98"/>
</a>
</g>
</g>
<!-- Node3 -->
<g id="Node000003" class="node">
<title>Node3</title>
<g id="a_Node000003"><a xlink:href="classfr_1_1softsf_1_1sudokufx_1_1config_1_1database_1_1_application_keystore.html#a29d06446266f63c94e41b8eb82b32847" target="_top" xlink:title="Retrieves credentials if the alias exists in the keystore; otherwise, generates and stores them.">
<polygon fill="white" stroke="#666666" points="404.75,-178 237.25,-178 237.25,-146 404.75,-146 404.75,-178"/>
<text text-anchor="start" x="245.25" y="-164.5" font-family="Helvetica,sans-Serif" font-size="10.00">fr.softsf.sudokufx.config.database.</text>
<text text-anchor="middle" x="321" y="-152.5" font-family="Helvetica,sans-Serif" font-size="10.00">ApplicationKeystore.credentials</text>
</a>
</g>
</g>
<!-- Node1&#45;&gt;Node3 -->
<g id="edge2_Node000001_Node000003" class="edge">
<title>Node1&#45;&gt;Node3</title>
<g id="a_edge2_Node000001_Node000003"><a xlink:title=" ">
<path fill="none" stroke="#63b8ff" d="M178.27,-146.59C193.76,-148.28 209.94,-150.04 225.6,-151.74"/>
<polygon fill="#63b8ff" stroke="#63b8ff" points="225.06,-155.2 235.38,-152.8 225.82,-148.24 225.06,-155.2"/>
</a>
</g>
</g>
<!-- Node10 -->
<g id="Node000010" class="node">
<title>Node10</title>
<g id="a_Node000010"><a xlink:href="classfr_1_1softsf_1_1sudokufx_1_1config_1_1database_1_1_application_keystore.html#a8625a13305c544c042426438064b2cb9" target="_top" xlink:title="Load the Keystore.">
<polygon fill="white" stroke="#666666" points="404.75,-128 237.25,-128 237.25,-96 404.75,-96 404.75,-128"/>
<text text-anchor="start" x="245.25" y="-114.5" font-family="Helvetica,sans-Serif" font-size="10.00">fr.softsf.sudokufx.config.database.</text>
<text text-anchor="middle" x="321" y="-102.5" font-family="Helvetica,sans-Serif" font-size="10.00">ApplicationKeystore.loadKeyStore</text>
</a>
</g>
</g>
<!-- Node1&#45;&gt;Node10 -->
<g id="edge10_Node000001_Node000010" class="edge">
<title>Node1&#45;&gt;Node10</title>
<g id="a_edge10_Node000001_Node000010"><a xlink:title=" ">
<path fill="none" stroke="#63b8ff" d="M178.27,-127.41C193.76,-125.72 209.94,-123.96 225.6,-122.26"/>
<polygon fill="#63b8ff" stroke="#63b8ff" points="225.82,-125.76 235.38,-121.2 225.06,-118.8 225.82,-125.76"/>
</a>
</g>
</g>
<!-- Node11 -->
<g id="Node000011" class="node">
<title>Node11</title>
<g id="a_Node000011"><a xlink:href="classfr_1_1softsf_1_1sudokufx_1_1config_1_1database_1_1_application_keystore.html#a5f6403006be0ac7d64a1a12cb8e20f2f" target="_top" xlink:title="Check the symmetric key presence.">
<polygon fill="white" stroke="#666666" points="405.5,-69 236.5,-69 236.5,-37 405.5,-37 405.5,-69"/>
<text text-anchor="start" x="244.5" y="-55.5" font-family="Helvetica,sans-Serif" font-size="10.00">fr.softsf.sudokufx.config.database.</text>
<text text-anchor="middle" x="321" y="-43.5" font-family="Helvetica,sans-Serif" font-size="10.00">ApplicationKeystore.symmetricKey</text>
</a>
</g>
</g>
<!-- Node1&#45;&gt;Node11 -->
<g id="edge11_Node000001_Node000011" class="edge">
<title>Node1&#45;&gt;Node11</title>
<g id="a_edge11_Node000001_Node000011"><a xlink:title=" ">
<path fill="none" stroke="#63b8ff" d="M143.08,-114.61C164.91,-105.66 190.53,-95.48 214,-87 227.27,-82.21 241.58,-77.38 255.28,-72.93"/>
<polygon fill="#63b8ff" stroke="#63b8ff" points="256.2,-76.31 264.65,-69.92 254.06,-69.65 256.2,-76.31"/>
</a>
</g>
</g>
<!-- Node4 -->
<g id="Node000004" class="node">
<title>Node4</title>
<g id="a_Node000004"><a xlink:href="classfr_1_1softsf_1_1sudokufx_1_1config_1_1database_1_1_application_keystore.html#a5df2015a8cf94b6c6c935e72a9e7980c" target="_top" xlink:title="Retrieves and decrypts the credential associated with the given alias from the keystore,...">
<polygon fill="white" stroke="#666666" points="645,-244 476,-244 476,-212 645,-212 645,-244"/>
<text text-anchor="start" x="484" y="-230.5" font-family="Helvetica,sans-Serif" font-size="10.00">fr.softsf.sudokufx.config.database.</text>
<text text-anchor="middle" x="560.5" y="-218.5" font-family="Helvetica,sans-Serif" font-size="10.00">ApplicationKeystore.getCredentials</text>
</a>
</g>
</g>
<!-- Node3&#45;&gt;Node4 -->
<g id="edge3_Node000003_Node000004" class="edge">
<title>Node3&#45;&gt;Node4</title>
<g id="a_edge3_Node000003_Node000004"><a xlink:title=" ">
<path fill="none" stroke="#63b8ff" d="M394.87,-178.47C406,-181.19 417.33,-184.08 428,-187 431.68,-188.01 464.35,-198.19 496.2,-208.16"/>
<polygon fill="#63b8ff" stroke="#63b8ff" points="494.9,-211.42 505.49,-211.06 496.99,-204.74 494.9,-211.42"/>
</a>
</g>
</g>
<!-- Node5 -->
<g id="Node000005" class="node">
<title>Node5</title>
<g id="a_Node000005"><a xlink:href="classfr_1_1softsf_1_1sudokufx_1_1config_1_1database_1_1_application_keystore.html#a4e0c9cd1616de5732520be76f91ebd85" target="_top" xlink:title="Generates and encrypts a credential for the given alias, then stores it securely in the keystore.">
<polygon fill="white" stroke="#666666" points="645,-156 476,-156 476,-124 645,-124 645,-156"/>
<text text-anchor="start" x="484" y="-142.5" font-family="Helvetica,sans-Serif" font-size="10.00">fr.softsf.sudokufx.config.database.</text>
<text text-anchor="middle" x="560.5" y="-130.5" font-family="Helvetica,sans-Serif" font-size="10.00">ApplicationKeystore.setCredentials</text>
</a>
</g>
</g>
<!-- Node3&#45;&gt;Node5 -->
<g id="edge4_Node000003_Node000005" class="edge">
<title>Node3&#45;&gt;Node5</title>
<g id="a_edge4_Node000003_Node000005"><a xlink:title=" ">
<path fill="none" stroke="#63b8ff" d="M405.07,-154.31C424.19,-152.53 444.67,-150.64 464.26,-148.82"/>
<polygon fill="#63b8ff" stroke="#63b8ff" points="464.54,-152.31 474.17,-147.9 463.89,-145.34 464.54,-152.31"/>
</a>
</g>
</g>
<!-- Node7 -->
<g id="Node000007" class="node">
<title>Node7</title>
<g id="a_Node000007"><a xlink:href="classfr_1_1softsf_1_1sudokufx_1_1config_1_1database_1_1_application_keystore.html#a1d981fbc5ac12da9cacc785a8052e318" target="_top" xlink:title="Validates that the given alias is not null, empty, or blank.">
<polygon fill="white" stroke="#666666" points="1102.25,-200 900.25,-200 900.25,-168 1102.25,-168 1102.25,-200"/>
<text text-anchor="start" x="908.25" y="-186.5" font-family="Helvetica,sans-Serif" font-size="10.00">fr.softsf.sudokufx.config.database.</text>
<text text-anchor="middle" x="1001.25" y="-174.5" font-family="Helvetica,sans-Serif" font-size="10.00">ApplicationKeystore.validateAliasNotBlank</text>
</a>
</g>
</g>
<!-- Node3&#45;&gt;Node7 -->
<g id="edge9_Node000003_Node000007" class="edge">
<title>Node3&#45;&gt;Node7</title>
<g id="a_edge9_Node000003_Node000007"><a xlink:title=" ">
<path fill="none" stroke="#63b8ff" d="M405.17,-164.7C526.62,-168.64 752.79,-175.97 888.62,-180.38"/>
<polygon fill="#63b8ff" stroke="#63b8ff" points="888.23,-183.87 898.34,-180.69 888.46,-176.87 888.23,-183.87"/>
</a>
</g>
</g>
<!-- Node6 -->
<g id="Node000006" class="node">
<title>Node6</title>
<g id="a_Node000006"><a xlink:href="classfr_1_1softsf_1_1sudokufx_1_1config_1_1database_1_1_application_keystore.html#a7b8751ac0c7de3f434f5500915e66c28" target="_top" xlink:title="Stores the given secret key in the keystore under the specified alias.">
<polygon fill="white" stroke="#666666" points="864.25,-153 693,-153 693,-121 864.25,-121 864.25,-153"/>
<text text-anchor="start" x="701" y="-139.5" font-family="Helvetica,sans-Serif" font-size="10.00">fr.softsf.sudokufx.config.database.</text>
<text text-anchor="middle" x="778.62" y="-127.5" font-family="Helvetica,sans-Serif" font-size="10.00">ApplicationKeystore.addToKeystore</text>
</a>
</g>
</g>
<!-- Node5&#45;&gt;Node6 -->
<g id="edge5_Node000005_Node000006" class="edge">
<title>Node5&#45;&gt;Node6</title>
<g id="a_edge5_Node000005_Node000006"><a xlink:title=" ">
<path fill="none" stroke="#63b8ff" d="M645.37,-138.84C657.15,-138.67 669.33,-138.5 681.32,-138.34"/>
<polygon fill="#63b8ff" stroke="#63b8ff" points="681.27,-141.84 691.22,-138.2 681.17,-134.84 681.27,-141.84"/>
</a>
</g>
</g>
<!-- Node6&#45;&gt;Node7 -->
<g id="edge6_Node000006_Node000007" class="edge">
<title>Node6&#45;&gt;Node7</title>
<g id="a_edge6_Node000006_Node000007"><a xlink:title=" ">
<path fill="none" stroke="#63b8ff" d="M856.79,-153.44C874.59,-157.23 893.66,-161.29 911.9,-165.18"/>
<polygon fill="#63b8ff" stroke="#63b8ff" points="911.14,-168.6 921.65,-167.26 912.6,-161.75 911.14,-168.6"/>
</a>
</g>
</g>
<!-- Node8 -->
<g id="Node000008" class="node">
<title>Node8</title>
<g id="a_Node000008"><a xlink:href="classfr_1_1softsf_1_1sudokufx_1_1config_1_1database_1_1_application_keystore.html#a9714968659205027206115325bebd480" target="_top" xlink:title="Writes the keystore content to a file.">
<polygon fill="white" stroke="#666666" points="1092.5,-150 910,-150 910,-118 1092.5,-118 1092.5,-150"/>
<text text-anchor="start" x="918" y="-136.5" font-family="Helvetica,sans-Serif" font-size="10.00">fr.softsf.sudokufx.config.database.</text>
<text text-anchor="middle" x="1001.25" y="-124.5" font-family="Helvetica,sans-Serif" font-size="10.00">ApplicationKeystore.writeTheKeystore</text>
</a>
</g>
</g>
<!-- Node6&#45;&gt;Node8 -->
<g id="edge7_Node000006_Node000008" class="edge">
<title>Node6&#45;&gt;Node8</title>
<g id="a_edge7_Node000006_Node000008"><a xlink:title=" ">
<path fill="none" stroke="#63b8ff" d="M864.61,-135.84C875.72,-135.69 887.19,-135.54 898.53,-135.38"/>
<polygon fill="#63b8ff" stroke="#63b8ff" points="898.36,-138.89 908.31,-135.25 898.26,-131.89 898.36,-138.89"/>
</a>
</g>
</g>
<!-- Node9 -->
<g id="Node000009" class="node">
<title>Node9</title>
<g id="a_Node000009"><a xlink:href="classfr_1_1softsf_1_1sudokufx_1_1config_1_1database_1_1_application_keystore.html#a094e3f98d8644135b26b573ee75bd834" target="_top" xlink:title=" ">
<polygon fill="white" stroke="#666666" points="1331.25,-150 1138.25,-150 1138.25,-118 1331.25,-118 1331.25,-150"/>
<text text-anchor="start" x="1146.25" y="-136.5" font-family="Helvetica,sans-Serif" font-size="10.00">fr.softsf.sudokufx.config.database.</text>
<text text-anchor="middle" x="1234.75" y="-124.5" font-family="Helvetica,sans-Serif" font-size="10.00">ApplicationKeystore.ApplicationKeystore</text>
</a>
</g>
</g>
<!-- Node8&#45;&gt;Node9 -->
<g id="edge8_Node000008_Node000009" class="edge">
<title>Node8&#45;&gt;Node9</title>
<g id="a_edge8_Node000008_Node000009"><a xlink:title=" ">
<path fill="none" stroke="#63b8ff" d="M1092.75,-134C1103.88,-134 1115.33,-134 1126.68,-134"/>
<polygon fill="#63b8ff" stroke="#63b8ff" points="1126.45,-137.5 1136.45,-134 1126.45,-130.5 1126.45,-137.5"/>
</a>
</g>
</g>
<!-- Node12 -->
<g id="Node000012" class="node">
<title>Node12</title>
<g id="a_Node000012"><a xlink:href="classfr_1_1softsf_1_1sudokufx_1_1config_1_1database_1_1_application_keystore.html#a408a4b06612f40c1c700c61dfded635b" target="_top" xlink:title="Get the symmetric key and set encryption service.">
<polygon fill="white" stroke="#666666" points="653.25,-106 467.75,-106 467.75,-62 653.25,-62 653.25,-106"/>
<text text-anchor="start" x="475.75" y="-92.5" font-family="Helvetica,sans-Serif" font-size="10.00">fr.softsf.sudokufx.config.database.</text>
<text text-anchor="start" x="475.75" y="-80.5" font-family="Helvetica,sans-Serif" font-size="10.00">ApplicationKeystore.symmetricKeyIsIn</text>
<text text-anchor="middle" x="560.5" y="-68.5" font-family="Helvetica,sans-Serif" font-size="10.00">Keystore</text>
</a>
</g>
</g>
<!-- Node11&#45;&gt;Node12 -->
<g id="edge12_Node000011_Node000012" class="edge">
<title>Node11&#45;&gt;Node12</title>
<g id="a_edge12_Node000011_Node000012"><a xlink:title=" ">
<path fill="none" stroke="#63b8ff" d="M405.73,-63.93C422.17,-66.07 439.58,-68.35 456.56,-70.56"/>
<polygon fill="#63b8ff" stroke="#63b8ff" points="455.77,-73.99 466.14,-71.81 456.67,-67.05 455.77,-73.99"/>
</a>
</g>
</g>
<!-- Node13 -->
<g id="Node000013" class="node">
<title>Node13</title>
<g id="a_Node000013"><a xlink:href="classfr_1_1softsf_1_1sudokufx_1_1config_1_1database_1_1_application_keystore.html#a5b0d0ea827857752fe45ac9bfc4edae3" target="_top" xlink:title="Set the symmetric key and set encryption service.">
<polygon fill="white" stroke="#666666" points="657,-44 464,-44 464,0 657,0 657,-44"/>
<text text-anchor="start" x="472" y="-30.5" font-family="Helvetica,sans-Serif" font-size="10.00">fr.softsf.sudokufx.config.database.</text>
<text text-anchor="start" x="472" y="-18.5" font-family="Helvetica,sans-Serif" font-size="10.00">ApplicationKeystore.symmetricKeyNotIn</text>
<text text-anchor="middle" x="560.5" y="-6.5" font-family="Helvetica,sans-Serif" font-size="10.00">Keystore</text>
</a>
</g>
</g>
<!-- Node11&#45;&gt;Node13 -->
<g id="edge13_Node000011_Node000013" class="edge">
<title>Node11&#45;&gt;Node13</title>
<g id="a_edge13_Node000011_Node000013"><a xlink:title=" ">
<path fill="none" stroke="#63b8ff" d="M399.44,-36.52C416.4,-33.98 434.64,-31.49 452.52,-29.24"/>
<polygon fill="#63b8ff" stroke="#63b8ff" points="452.9,-32.72 462.4,-28.03 452.04,-25.78 452.9,-32.72"/>
</a>
</g>
</g>
<!-- Node13&#45;&gt;Node6 -->
<g id="edge14_Node000013_Node000006" class="edge">
<title>Node13&#45;&gt;Node6</title>
<g id="a_edge14_Node000013_Node000006"><a xlink:title=" ">
<path fill="none" stroke="#63b8ff" d="M637.65,-44.44C644.3,-47.08 650.83,-49.94 657,-53 690.9,-69.84 726,-95.36 749.54,-113.85"/>
<polygon fill="#63b8ff" stroke="#63b8ff" points="747.09,-116.37 757.09,-119.87 751.45,-110.9 747.09,-116.37"/>
</a>
</g>
</g>
<!-- Node13&#45;&gt;Node11 -->
<g id="edge15_Node000013_Node000011" class="edge">
<title>Node13&#45;&gt;Node11</title>
<g id="a_edge15_Node000013_Node000011"><a xlink:title=" ">
<path fill="none" stroke="#63b8ff" d="M463.55,-41.16C448.14,-43.33 432.2,-45.4 416.82,-47.25"/>
<polygon fill="#63b8ff" stroke="#63b8ff" points="416.76,-43.73 407.24,-48.38 417.58,-50.69 416.76,-43.73"/>
</a>
</g>
</g>
</g>
</svg>

<g id="navigator" transform="translate(0 0)" fill="#404254">
  <rect fill="#f2f5e9" fill-opacity="0.5" stroke="#606060" stroke-width=".5" x="0" y="0" width="60" height="60"/>
  <use id="zoomplus" xlink:href="#zoomPlus" x="17" y="9" onmousedown="handleZoom(evt,'in')"/>
  <use id="zoomminus" xlink:href="#zoomMin" x="42" y="9" onmousedown="handleZoom(evt,'out')"/>
  <use id="reset" xlink:href="#resetDef" x="30" y="36" onmousedown="handleReset()"/>
   <use id="arrowup" xlink:href="#arrowUp" x="0" y="0" onmousedown="handlePan(0,-1)"/>
  <use id="arrowright" xlink:href="#arrowRight" x="0" y="0" onmousedown="handlePan(1,0)"/>
  <use id="arrowdown" xlink:href="#arrowDown" x="0" y="0" onmousedown="handlePan(0,1)"/>
  <use id="arrowleft" xlink:href="#arrowLeft" x="0" y="0" onmousedown="handlePan(-1,0)"/>
</g>
<svg viewBox="0 0 15 15" width="100%" height="30px" preserveAspectRatio="xMaxYMin meet">
 <g id="arrow_out" transform="scale(0.3 0.3)">
  <a xlink:href="classfr_1_1softsf_1_1sudokufx_1_1config_1_1database_1_1_application_keystore_a5b35f5af429100ab131dc83ac4b9a2ca_cgraph_org.svg" target="_base">
   <rect id="button" ry="5" rx="5" y="6" x="6" height="38" width="38"
        fill="#f2f5e9" fill-opacity="0.5" stroke="#606060" stroke-width="1.0"/>
   <path id="arrow"
     d="M 11.500037,31.436501 C 11.940474,20.09759 22.043105,11.32322 32.158766,21.979434 L 37.068811,17.246167 C 37.068811,17.246167 37.088388,32 37.088388,32 L 22.160133,31.978069 C 22.160133,31.978069 26.997745,27.140456 26.997745,27.140456 C 18.528582,18.264221 13.291696,25.230495 11.500037,31.436501 z"
     style="fill:#404040;"/>
  </a>
 </g>
</svg>

<style type='text/css'>
<![CDATA[
[data-mouse-over-selected='false'] { opacity: 0.7; }
[data-mouse-over-selected='true']  { opacity: 1.0; }
]]>
</style>
<script type="application/ecmascript"><![CDATA[
document.addEventListener('DOMContentLoaded', (event) => {
  highlightEdges();
  highlightAdjacentNodes();
});
]]></script>
</svg>
