<?xml version="1.0" encoding="UTF-8" standalone="no"?>
<!DOCTYPE svg PUBLIC "-//W3C//DTD SVG 1.1//EN"
 "http://www.w3.org/Graphics/SVG/1.1/DTD/svg11.dtd">
<!-- Generated by graphviz version 12.2.1 (20241206.2353)
 -->
<!-- Title: fr.softsf.sudokufx.common.util.sudoku.GridMaster.creerLesGrilles Pages: 1 -->
<svg width="1908pt" height="320pt"
 viewBox="0.00 0.00 1907.50 320.00" xmlns="http://www.w3.org/2000/svg" xmlns:xlink="http://www.w3.org/1999/xlink">
<g id="graph0" class="graph" transform="scale(1 1) rotate(0) translate(4 316)">
<title>fr.softsf.sudokufx.common.util.sudoku.GridMaster.creerLesGrilles</title>
<!-- Node1 -->
<g id="Node000001" class="node">
<title>Node1</title>
<g id="a_Node000001"><a xlink:title=" ">
<polygon fill="#999999" stroke="#666666" points="186.25,-120 0,-120 0,-88 186.25,-88 186.25,-120"/>
<text text-anchor="start" x="8" y="-106.5" font-family="Helvetica,sans-Serif" font-size="10.00">fr.softsf.sudokufx.common.util.sudoku.</text>
<text text-anchor="middle" x="93.12" y="-94.5" font-family="Helvetica,sans-Serif" font-size="10.00">GridMaster.creerLesGrilles</text>
</a>
</g>
</g>
<!-- Node2 -->
<g id="Node000002" class="node">
<title>Node2</title>
<g id="a_Node000002"><a xlink:href="classfr_1_1softsf_1_1sudokufx_1_1common_1_1util_1_1sudoku_1_1_grid_master.html#a4ee8cc0d8a933568aeb12ca14f8ab649" target="_top" xlink:title="Génère une grille de Sudoku à résoudre en cachant des cases selon le niveau de difficulté.">
<polygon fill="white" stroke="#666666" points="408.5,-222 222.25,-222 222.25,-190 408.5,-190 408.5,-222"/>
<text text-anchor="start" x="230.25" y="-208.5" font-family="Helvetica,sans-Serif" font-size="10.00">fr.softsf.sudokufx.common.util.sudoku.</text>
<text text-anchor="middle" x="315.38" y="-196.5" font-family="Helvetica,sans-Serif" font-size="10.00">GridMaster.genererLaGrilleAResoudre</text>
</a>
</g>
</g>
<!-- Node1&#45;&gt;Node2 -->
<g id="edge1_Node000001_Node000002" class="edge">
<title>Node1&#45;&gt;Node2</title>
<g id="a_edge1_Node000001_Node000002"><a xlink:title=" ">
<path fill="none" stroke="#63b8ff" d="M129.51,-120.39C167.32,-137.9 227.39,-165.71 268.73,-184.86"/>
<polygon fill="#63b8ff" stroke="#63b8ff" points="267.16,-187.99 277.7,-189.02 270.1,-181.64 267.16,-187.99"/>
</a>
</g>
</g>
<!-- Node15 -->
<g id="Node000015" class="node">
<title>Node15</title>
<g id="a_Node000015"><a xlink:href="classfr_1_1softsf_1_1sudokufx_1_1common_1_1util_1_1sudoku_1_1_grid_master.html#af7a1c9df1f82cefc39447ed221fafd76" target="_top" xlink:title="Calcule le pourcentage de possibilités estimé en fonction de la somme des possibilités fournies.">
<polygon fill="white" stroke="#666666" points="1396.88,-32 1193.38,-32 1193.38,0 1396.88,0 1396.88,-32"/>
<text text-anchor="start" x="1201.38" y="-18.5" font-family="Helvetica,sans-Serif" font-size="10.00">fr.softsf.sudokufx.common.util.sudoku.</text>
<text text-anchor="middle" x="1295.12" y="-6.5" font-family="Helvetica,sans-Serif" font-size="10.00">GridMaster.getPourcentageDesPossibilites</text>
</a>
</g>
</g>
<!-- Node1&#45;&gt;Node15 -->
<g id="edge16_Node000001_Node000015" class="edge">
<title>Node1&#45;&gt;Node15</title>
<g id="a_edge16_Node000001_Node000015"><a xlink:title=" ">
<path fill="none" stroke="#63b8ff" d="M186.41,-97.67C279.92,-91.81 428.76,-84 557.62,-84 557.62,-84 557.62,-84 815.62,-84 955.92,-84 1117.07,-54.99 1211.99,-34.87"/>
<polygon fill="#63b8ff" stroke="#63b8ff" points="1212.71,-38.29 1221.75,-32.78 1211.24,-31.45 1212.71,-38.29"/>
</a>
</g>
</g>
<!-- Node16 -->
<g id="Node000016" class="node">
<title>Node16</title>
<g id="a_Node000016"><a xlink:href="namespacefr_1_1softsf_1_1sudokufx_1_1common_1_1util_1_1sudoku.html#af17e5a78bfbdd91b2b1bb84fb7f090c5" target="_top" xlink:title="Record representing the result of a grid generation: the solved grid, the puzzle grid,...">
<polygon fill="white" stroke="#666666" points="408.5,-38 222.25,-38 222.25,-6 408.5,-6 408.5,-38"/>
<text text-anchor="start" x="230.25" y="-24.5" font-family="Helvetica,sans-Serif" font-size="10.00">fr.softsf.sudokufx.common.util.sudoku.</text>
<text text-anchor="middle" x="315.38" y="-12.5" font-family="Helvetica,sans-Serif" font-size="10.00">GrillesCrees</text>
</a>
</g>
</g>
<!-- Node1&#45;&gt;Node16 -->
<g id="edge17_Node000001_Node000016" class="edge">
<title>Node1&#45;&gt;Node16</title>
<g id="a_edge17_Node000001_Node000016"><a xlink:title=" ">
<path fill="none" stroke="#63b8ff" d="M138.43,-87.5C173.3,-74.52 222.08,-56.36 259.44,-42.45"/>
<polygon fill="#63b8ff" stroke="#63b8ff" points="260.57,-45.77 268.72,-39 258.13,-39.21 260.57,-45.77"/>
</a>
</g>
</g>
<!-- Node17 -->
<g id="Node000017" class="node">
<title>Node17</title>
<g id="a_Node000017"><a xlink:href="classfr_1_1softsf_1_1sudokufx_1_1common_1_1util_1_1sudoku_1_1_grid_master.html#a46586f4cd2e786ee47537455a3758793" target="_top" xlink:title=" ">
<polygon fill="white" stroke="#666666" points="1147.62,-144 961.38,-144 961.38,-112 1147.62,-112 1147.62,-144"/>
<text text-anchor="start" x="969.38" y="-130.5" font-family="Helvetica,sans-Serif" font-size="10.00">fr.softsf.sudokufx.common.util.sudoku.</text>
<text text-anchor="middle" x="1054.5" y="-118.5" font-family="Helvetica,sans-Serif" font-size="10.00">GridMaster.resoudreLaGrille</text>
</a>
</g>
</g>
<!-- Node1&#45;&gt;Node17 -->
<g id="edge19_Node000001_Node000017" class="edge">
<title>Node1&#45;&gt;Node17</title>
<g id="a_edge19_Node000001_Node000017"><a xlink:title=" ">
<path fill="none" stroke="#63b8ff" d="M186.55,-106.31C366.26,-110.81 761.65,-120.7 949.91,-125.41"/>
<polygon fill="#63b8ff" stroke="#63b8ff" points="949.59,-128.9 959.68,-125.65 949.77,-121.9 949.59,-128.9"/>
</a>
</g>
</g>
<!-- Node3 -->
<g id="Node000003" class="node">
<title>Node3</title>
<g id="a_Node000003"><a xlink:href="classfr_1_1softsf_1_1sudokufx_1_1common_1_1util_1_1sudoku_1_1_grid_master.html#aa77557d49c6d3377a6409b74f6386595" target="_top" xlink:title="Génère une grille de Sudoku de niveau difficile.">
<polygon fill="white" stroke="#666666" points="657.38,-312 459.88,-312 459.88,-268 657.38,-268 657.38,-312"/>
<text text-anchor="start" x="467.88" y="-298.5" font-family="Helvetica,sans-Serif" font-size="10.00">fr.softsf.sudokufx.common.util.sudoku.</text>
<text text-anchor="start" x="467.88" y="-286.5" font-family="Helvetica,sans-Serif" font-size="10.00">GridMaster.getPossibilitesGrilleAresoudre</text>
<text text-anchor="middle" x="558.62" y="-274.5" font-family="Helvetica,sans-Serif" font-size="10.00">Difficile</text>
</a>
</g>
</g>
<!-- Node2&#45;&gt;Node3 -->
<g id="edge2_Node000002_Node000003" class="edge">
<title>Node2&#45;&gt;Node3</title>
<g id="a_edge2_Node000002_Node000003"><a xlink:title=" ">
<path fill="none" stroke="#63b8ff" d="M352.64,-222.42C378.04,-233.57 412.96,-248.2 444.5,-259 449.78,-260.81 455.23,-262.59 460.75,-264.32"/>
<polygon fill="#63b8ff" stroke="#63b8ff" points="459.39,-267.56 469.98,-267.14 461.44,-260.87 459.39,-267.56"/>
</a>
</g>
</g>
<!-- Node13 -->
<g id="Node000013" class="node">
<title>Node13</title>
<g id="a_Node000013"><a xlink:href="classfr_1_1softsf_1_1sudokufx_1_1common_1_1util_1_1sudoku_1_1_grid_master.html#a14a9157214a31a7be5f08c78c129a96d" target="_top" xlink:title="Génère une grille de Sudoku de niveau facile.">
<polygon fill="white" stroke="#666666" points="672.75,-250 444.5,-250 444.5,-218 672.75,-218 672.75,-250"/>
<text text-anchor="start" x="452.5" y="-236.5" font-family="Helvetica,sans-Serif" font-size="10.00">fr.softsf.sudokufx.common.util.sudoku.</text>
<text text-anchor="middle" x="558.62" y="-224.5" font-family="Helvetica,sans-Serif" font-size="10.00">GridMaster.getPossibilitesGrilleAResoudreFacile</text>
</a>
</g>
</g>
<!-- Node2&#45;&gt;Node13 -->
<g id="edge12_Node000002_Node000013" class="edge">
<title>Node2&#45;&gt;Node13</title>
<g id="a_edge12_Node000002_Node000013"><a xlink:title=" ">
<path fill="none" stroke="#63b8ff" d="M408.96,-216.75C416.82,-217.66 424.84,-218.59 432.89,-219.52"/>
<polygon fill="#63b8ff" stroke="#63b8ff" points="432.43,-222.99 442.77,-220.67 433.24,-216.04 432.43,-222.99"/>
</a>
</g>
</g>
<!-- Node14 -->
<g id="Node000014" class="node">
<title>Node14</title>
<g id="a_Node000014"><a xlink:href="classfr_1_1softsf_1_1sudokufx_1_1common_1_1util_1_1sudoku_1_1_grid_master.html#ab77d72c8f1612e20c9d7b27f6869b08b" target="_top" xlink:title="Génère une grille de Sudoku de niveau moyen.">
<polygon fill="white" stroke="#666666" points="659.62,-200 457.62,-200 457.62,-156 659.62,-156 659.62,-200"/>
<text text-anchor="start" x="465.62" y="-186.5" font-family="Helvetica,sans-Serif" font-size="10.00">fr.softsf.sudokufx.common.util.sudoku.</text>
<text text-anchor="start" x="465.62" y="-174.5" font-family="Helvetica,sans-Serif" font-size="10.00">GridMaster.getPossibilitesGrilleAResoudre</text>
<text text-anchor="middle" x="558.62" y="-162.5" font-family="Helvetica,sans-Serif" font-size="10.00">Moyenne</text>
</a>
</g>
</g>
<!-- Node2&#45;&gt;Node14 -->
<g id="edge14_Node000002_Node000014" class="edge">
<title>Node2&#45;&gt;Node14</title>
<g id="a_edge14_Node000002_Node000014"><a xlink:title=" ">
<path fill="none" stroke="#63b8ff" d="M408.96,-195.25C421.07,-193.85 433.57,-192.4 445.95,-190.96"/>
<polygon fill="#63b8ff" stroke="#63b8ff" points="446.23,-194.45 455.76,-189.82 445.43,-187.5 446.23,-194.45"/>
</a>
</g>
</g>
<!-- Node4 -->
<g id="Node000004" class="node">
<title>Node4</title>
<g id="a_Node000004"><a xlink:href="classfr_1_1softsf_1_1sudokufx_1_1common_1_1util_1_1sudoku_1_1_grid_master.html#ad962ba16fc274782e22bdf56d85f71b1" target="_top" xlink:title="Génère une grille de Sudoku avec un nombre de cases cachées selon les critères spécifiés.">
<polygon fill="white" stroke="#666666" points="920.5,-251 708.75,-251 708.75,-219 920.5,-219 920.5,-251"/>
<text text-anchor="start" x="716.75" y="-237.5" font-family="Helvetica,sans-Serif" font-size="10.00">fr.softsf.sudokufx.common.util.sudoku.</text>
<text text-anchor="middle" x="814.62" y="-225.5" font-family="Helvetica,sans-Serif" font-size="10.00">GridMaster.genererGrilleAvecCasesCachees</text>
</a>
</g>
</g>
<!-- Node3&#45;&gt;Node4 -->
<g id="edge3_Node000003_Node000004" class="edge">
<title>Node3&#45;&gt;Node4</title>
<g id="a_edge3_Node000003_Node000004"><a xlink:title=" ">
<path fill="none" stroke="#63b8ff" d="M657.83,-268.74C680.52,-263.82 704.5,-258.63 726.67,-253.83"/>
<polygon fill="#63b8ff" stroke="#63b8ff" points="727.23,-257.29 736.26,-251.75 725.75,-250.45 727.23,-257.29"/>
</a>
</g>
</g>
<!-- Node5 -->
<g id="Node000005" class="node">
<title>Node5</title>
<g id="a_Node000005"><a xlink:href="classfr_1_1softsf_1_1sudokufx_1_1common_1_1util_1_1sudoku_1_1_grid_master.html#aee57e1ea56d413431a806492e5bfa40f" target="_top" xlink:title="Calcule la durée de temps écoulé entre la dernière et la nouvelle demande de grille en millisecondes.">
<polygon fill="white" stroke="#666666" points="1147.62,-303 961.38,-303 961.38,-271 1147.62,-271 1147.62,-303"/>
<text text-anchor="start" x="969.38" y="-289.5" font-family="Helvetica,sans-Serif" font-size="10.00">fr.softsf.sudokufx.common.util.sudoku.</text>
<text text-anchor="middle" x="1054.5" y="-277.5" font-family="Helvetica,sans-Serif" font-size="10.00">GridMaster.dureeEnMs</text>
</a>
</g>
</g>
<!-- Node4&#45;&gt;Node5 -->
<g id="edge4_Node000004_Node000005" class="edge">
<title>Node4&#45;&gt;Node5</title>
<g id="a_edge4_Node000004_Node000005"><a xlink:title=" ">
<path fill="none" stroke="#63b8ff" d="M890.89,-251.45C915.2,-256.77 942.33,-262.7 967.36,-268.17"/>
<polygon fill="#63b8ff" stroke="#63b8ff" points="966.32,-271.53 976.84,-270.24 967.82,-264.69 966.32,-271.53"/>
</a>
</g>
</g>
<!-- Node6 -->
<g id="Node000006" class="node">
<title>Node6</title>
<g id="a_Node000006"><a xlink:href="classfr_1_1softsf_1_1sudokufx_1_1common_1_1util_1_1sudoku_1_1_grid_master.html#a7b8b865b518ad50e3d77814a16bf9634" target="_top" xlink:title="Cache des cases dans la grille et calcule la somme des possibilités restantes.">
<polygon fill="white" stroke="#666666" points="1152.5,-253 956.5,-253 956.5,-221 1152.5,-221 1152.5,-253"/>
<text text-anchor="start" x="964.5" y="-239.5" font-family="Helvetica,sans-Serif" font-size="10.00">fr.softsf.sudokufx.common.util.sudoku.</text>
<text text-anchor="middle" x="1054.5" y="-227.5" font-family="Helvetica,sans-Serif" font-size="10.00">GridMaster.getPossibilitesGrilleWhileNok</text>
</a>
</g>
</g>
<!-- Node4&#45;&gt;Node6 -->
<g id="edge5_Node000004_Node000006" class="edge">
<title>Node4&#45;&gt;Node6</title>
<g id="a_edge5_Node000004_Node000006"><a xlink:title=" ">
<path fill="none" stroke="#63b8ff" d="M921,-235.89C928.85,-235.95 936.78,-236.02 944.65,-236.08"/>
<polygon fill="#63b8ff" stroke="#63b8ff" points="944.57,-239.58 954.6,-236.17 944.63,-232.58 944.57,-239.58"/>
</a>
</g>
</g>
<!-- Node12 -->
<g id="Node000012" class="node">
<title>Node12</title>
<g id="a_Node000012"><a xlink:href="classfr_1_1softsf_1_1sudokufx_1_1common_1_1util_1_1sudoku_1_1_grid_master.html#af1352e09e11008195aebe23925b02248" target="_top" xlink:title="Génère un nombre entier aléatoire dans un intervalle spécifié.">
<polygon fill="white" stroke="#666666" points="1147.62,-203 961.38,-203 961.38,-171 1147.62,-171 1147.62,-203"/>
<text text-anchor="start" x="969.38" y="-189.5" font-family="Helvetica,sans-Serif" font-size="10.00">fr.softsf.sudokufx.common.util.sudoku.</text>
<text text-anchor="middle" x="1054.5" y="-177.5" font-family="Helvetica,sans-Serif" font-size="10.00">GridMaster.nombreAleatoire</text>
</a>
</g>
</g>
<!-- Node4&#45;&gt;Node12 -->
<g id="edge11_Node000004_Node000012" class="edge">
<title>Node4&#45;&gt;Node12</title>
<g id="a_edge11_Node000004_Node000012"><a xlink:title=" ">
<path fill="none" stroke="#63b8ff" d="M897.16,-218.55C917.68,-214.41 939.85,-209.93 960.87,-205.69"/>
<polygon fill="#63b8ff" stroke="#63b8ff" points="961.48,-209.14 970.59,-203.73 960.1,-202.28 961.48,-209.14"/>
</a>
</g>
</g>
<!-- Node7 -->
<g id="Node000007" class="node">
<title>Node7</title>
<g id="a_Node000007"><a xlink:href="classfr_1_1softsf_1_1sudokufx_1_1common_1_1util_1_1sudoku_1_1_grid_master.html#aedafc76e589c715c380e2732e0ff04d2" target="_top" xlink:title="Cache un nombre spécifié de cases dans la grille en les remplaçant par zéro.">
<polygon fill="white" stroke="#666666" points="1388.25,-312 1202,-312 1202,-280 1388.25,-280 1388.25,-312"/>
<text text-anchor="start" x="1210" y="-298.5" font-family="Helvetica,sans-Serif" font-size="10.00">fr.softsf.sudokufx.common.util.sudoku.</text>
<text text-anchor="middle" x="1295.12" y="-286.5" font-family="Helvetica,sans-Serif" font-size="10.00">GridMaster.cacherLesCases</text>
</a>
</g>
</g>
<!-- Node6&#45;&gt;Node7 -->
<g id="edge6_Node000006_Node000007" class="edge">
<title>Node6&#45;&gt;Node7</title>
<g id="a_edge6_Node000006_Node000007"><a xlink:title=" ">
<path fill="none" stroke="#63b8ff" d="M1119.28,-253.42C1146.51,-260.41 1175.08,-267.7 1188.5,-271 1196.36,-272.94 1204.56,-274.93 1212.76,-276.9"/>
<polygon fill="#63b8ff" stroke="#63b8ff" points="1211.9,-280.29 1222.44,-279.22 1213.53,-273.48 1211.9,-280.29"/>
</a>
</g>
</g>
<!-- Node8 -->
<g id="Node000008" class="node">
<title>Node8</title>
<g id="a_Node000008"><a xlink:href="classfr_1_1softsf_1_1sudokufx_1_1common_1_1util_1_1sudoku_1_1_grid_master.html#aeed90a968624e9b7ccb44958df9ae821" target="_top" xlink:title="Calcule les possibilités pour chaque case de la grille de Sudoku.">
<polygon fill="white" stroke="#666666" points="1388.25,-262 1202,-262 1202,-230 1388.25,-230 1388.25,-262"/>
<text text-anchor="start" x="1210" y="-248.5" font-family="Helvetica,sans-Serif" font-size="10.00">fr.softsf.sudokufx.common.util.sudoku.</text>
<text text-anchor="middle" x="1295.12" y="-236.5" font-family="Helvetica,sans-Serif" font-size="10.00">GridMaster.getPossibilites</text>
</a>
</g>
</g>
<!-- Node6&#45;&gt;Node8 -->
<g id="edge7_Node000006_Node000008" class="edge">
<title>Node6&#45;&gt;Node8</title>
<g id="a_edge7_Node000006_Node000008"><a xlink:title=" ">
<path fill="none" stroke="#63b8ff" d="M1152.9,-240.67C1165.24,-241.14 1177.89,-241.62 1190.32,-242.08"/>
<polygon fill="#63b8ff" stroke="#63b8ff" points="1190.02,-245.58 1200.14,-242.46 1190.28,-238.58 1190.02,-245.58"/>
</a>
</g>
</g>
<!-- Node11 -->
<g id="Node000011" class="node">
<title>Node11</title>
<g id="a_Node000011"><a xlink:href="classfr_1_1softsf_1_1sudokufx_1_1common_1_1util_1_1sudoku_1_1_grid_master.html#aa9fd5688b3effcfb97c226e04a5ff380" target="_top" xlink:title="Calcule la somme des possibilités de toutes les cases de la grille de Sudoku.">
<polygon fill="white" stroke="#666666" points="1401.75,-212 1188.5,-212 1188.5,-180 1401.75,-180 1401.75,-212"/>
<text text-anchor="start" x="1196.5" y="-198.5" font-family="Helvetica,sans-Serif" font-size="10.00">fr.softsf.sudokufx.common.util.sudoku.</text>
<text text-anchor="middle" x="1295.12" y="-186.5" font-family="Helvetica,sans-Serif" font-size="10.00">GridMaster.sommeDesPossibilitesDeLaGrille</text>
</a>
</g>
</g>
<!-- Node6&#45;&gt;Node11 -->
<g id="edge10_Node000006_Node000011" class="edge">
<title>Node6&#45;&gt;Node11</title>
<g id="a_edge10_Node000006_Node000011"><a xlink:title=" ">
<path fill="none" stroke="#63b8ff" d="M1151.53,-220.5C1163.21,-218.49 1175.19,-216.43 1187.02,-214.4"/>
<polygon fill="#63b8ff" stroke="#63b8ff" points="1187.54,-217.86 1196.8,-212.72 1186.36,-210.97 1187.54,-217.86"/>
</a>
</g>
</g>
<!-- Node9 -->
<g id="Node000009" class="node">
<title>Node9</title>
<g id="a_Node000009"><a xlink:href="classfr_1_1softsf_1_1sudokufx_1_1common_1_1util_1_1sudoku_1_1_grid_master.html#a27aa242e0289c28db22cd6caa98aec06" target="_top" xlink:title="Initialise le tableau des possibilités pour chaque case.">
<polygon fill="white" stroke="#666666" points="1650.62,-256 1464.38,-256 1464.38,-224 1650.62,-224 1650.62,-256"/>
<text text-anchor="start" x="1472.38" y="-242.5" font-family="Helvetica,sans-Serif" font-size="10.00">fr.softsf.sudokufx.common.util.sudoku.</text>
<text text-anchor="middle" x="1557.5" y="-230.5" font-family="Helvetica,sans-Serif" font-size="10.00">GridMaster.initialiserPossibilites</text>
</a>
</g>
</g>
<!-- Node8&#45;&gt;Node9 -->
<g id="edge8_Node000008_Node000009" class="edge">
<title>Node8&#45;&gt;Node9</title>
<g id="a_edge8_Node000008_Node000009"><a xlink:title=" ">
<path fill="none" stroke="#63b8ff" d="M1388.66,-243.87C1409.47,-243.39 1431.69,-242.88 1452.93,-242.39"/>
<polygon fill="#63b8ff" stroke="#63b8ff" points="1452.84,-245.89 1462.75,-242.16 1452.68,-238.89 1452.84,-245.89"/>
</a>
</g>
</g>
<!-- Node10 -->
<g id="Node000010" class="node">
<title>Node10</title>
<g id="a_Node000010"><a xlink:href="classfr_1_1softsf_1_1sudokufx_1_1common_1_1util_1_1sudoku_1_1_grid_master.html#aeb3e9bacbc9f3e23515e88a3c887f78e" target="_top" xlink:title="Élimine la valeur des possibilités des cases alentours.">
<polygon fill="white" stroke="#666666" points="1899.5,-219 1713.25,-219 1713.25,-187 1899.5,-187 1899.5,-219"/>
<text text-anchor="start" x="1721.25" y="-205.5" font-family="Helvetica,sans-Serif" font-size="10.00">fr.softsf.sudokufx.common.util.sudoku.</text>
<text text-anchor="middle" x="1806.38" y="-193.5" font-family="Helvetica,sans-Serif" font-size="10.00">GridMaster.eliminerPossibilite</text>
</a>
</g>
</g>
<!-- Node9&#45;&gt;Node10 -->
<g id="edge9_Node000009_Node000010" class="edge">
<title>Node9&#45;&gt;Node10</title>
<g id="a_edge9_Node000009_Node000010"><a xlink:title=" ">
<path fill="none" stroke="#63b8ff" d="M1650.78,-226.17C1667.41,-223.68 1684.84,-221.07 1701.76,-218.53"/>
<polygon fill="#63b8ff" stroke="#63b8ff" points="1701.93,-222.04 1711.3,-217.1 1700.89,-215.12 1701.93,-222.04"/>
</a>
</g>
</g>
<!-- Node13&#45;&gt;Node4 -->
<g id="edge13_Node000013_Node000004" class="edge">
<title>Node13&#45;&gt;Node4</title>
<g id="a_edge13_Node000013_Node000004"><a xlink:title=" ">
<path fill="none" stroke="#63b8ff" d="M672.88,-234.45C680.88,-234.48 688.96,-234.51 696.98,-234.54"/>
<polygon fill="#63b8ff" stroke="#63b8ff" points="696.74,-238.04 706.76,-234.58 696.77,-231.04 696.74,-238.04"/>
</a>
</g>
</g>
<!-- Node14&#45;&gt;Node4 -->
<g id="edge15_Node000014_Node000004" class="edge">
<title>Node14&#45;&gt;Node4</title>
<g id="a_edge15_Node000014_Node000004"><a xlink:title=" ">
<path fill="none" stroke="#63b8ff" d="M659.65,-200.45C682.69,-205.62 706.97,-211.07 729.27,-216.07"/>
<polygon fill="#63b8ff" stroke="#63b8ff" points="728.38,-219.46 738.91,-218.23 729.91,-212.63 728.38,-219.46"/>
</a>
</g>
</g>
<!-- Node16&#45;&gt;Node16 -->
<g id="edge18_Node000016_Node000016" class="edge">
<title>Node16&#45;&gt;Node16</title>
<g id="a_edge18_Node000016_Node000016"><a xlink:title=" ">
<path fill="none" stroke="#63b8ff" d="M275.7,-38.44C268.29,-47.58 281.52,-56 315.38,-56 334.16,-56 346.59,-53.41 352.67,-49.54"/>
<polygon fill="#63b8ff" stroke="#63b8ff" points="356.06,-50.43 354.74,-39.92 349.22,-48.97 356.06,-50.43"/>
</a>
</g>
</g>
<!-- Node17&#45;&gt;Node8 -->
<g id="edge20_Node000017_Node000008" class="edge">
<title>Node17&#45;&gt;Node8</title>
<g id="a_edge20_Node000017_Node000008"><a xlink:title=" ">
<path fill="none" stroke="#63b8ff" d="M1122.11,-144.46C1132.95,-149.01 1143.55,-154.76 1152.5,-162 1176.38,-181.32 1163.64,-202.96 1188.5,-221 1190.05,-222.12 1191.64,-223.19 1193.26,-224.22"/>
<polygon fill="#63b8ff" stroke="#63b8ff" points="1191.18,-227.07 1201.63,-228.85 1194.58,-220.95 1191.18,-227.07"/>
</a>
</g>
</g>
<!-- Node17&#45;&gt;Node11 -->
<g id="edge29_Node000017_Node000011" class="edge">
<title>Node17&#45;&gt;Node11</title>
<g id="a_edge29_Node000017_Node000011"><a xlink:title=" ">
<path fill="none" stroke="#63b8ff" d="M1103.24,-144.46C1128.44,-152.89 1159.99,-163.03 1188.5,-171 1195.49,-172.95 1202.77,-174.89 1210.09,-176.76"/>
<polygon fill="#63b8ff" stroke="#63b8ff" points="1209.18,-180.14 1219.73,-179.18 1210.89,-173.35 1209.18,-180.14"/>
</a>
</g>
</g>
<!-- Node17&#45;&gt;Node15 -->
<g id="edge21_Node000017_Node000015" class="edge">
<title>Node17&#45;&gt;Node15</title>
<g id="a_edge21_Node000017_Node000015"><a xlink:title=" ">
<path fill="none" stroke="#63b8ff" d="M1128.76,-111.61C1137.22,-107.95 1145.36,-103.47 1152.5,-98 1176.29,-79.78 1164.11,-58.41 1188.5,-41 1190.06,-39.89 1191.65,-38.83 1193.29,-37.81"/>
<polygon fill="#63b8ff" stroke="#63b8ff" points="1194.59,-41.09 1201.68,-33.22 1191.23,-34.95 1194.59,-41.09"/>
</a>
</g>
</g>
<!-- Node18 -->
<g id="Node000018" class="node">
<title>Node18</title>
<g id="a_Node000018"><a xlink:href="classfr_1_1softsf_1_1sudokufx_1_1common_1_1util_1_1sudoku_1_1_grid_master.html#ae544691a2f6f2b54de8f88d3babcc221" target="_top" xlink:title="Remplit récursivement la grille Sudoku (backtracking).">
<polygon fill="white" stroke="#666666" points="1388.25,-144 1202,-144 1202,-112 1388.25,-112 1388.25,-144"/>
<text text-anchor="start" x="1210" y="-130.5" font-family="Helvetica,sans-Serif" font-size="10.00">fr.softsf.sudokufx.common.util.sudoku.</text>
<text text-anchor="middle" x="1295.12" y="-118.5" font-family="Helvetica,sans-Serif" font-size="10.00">GridMaster.remplirLaGrille</text>
</a>
</g>
</g>
<!-- Node17&#45;&gt;Node18 -->
<g id="edge22_Node000017_Node000018" class="edge">
<title>Node17&#45;&gt;Node18</title>
<g id="a_edge22_Node000017_Node000018"><a xlink:title=" ">
<path fill="none" stroke="#63b8ff" d="M1148.1,-128C1161.95,-128 1176.31,-128 1190.38,-128"/>
<polygon fill="#63b8ff" stroke="#63b8ff" points="1190.06,-131.5 1200.06,-128 1190.06,-124.5 1190.06,-131.5"/>
</a>
</g>
</g>
<!-- Node22 -->
<g id="Node000022" class="node">
<title>Node22</title>
<g id="a_Node000022"><a xlink:href="classfr_1_1softsf_1_1sudokufx_1_1common_1_1util_1_1sudoku_1_1_grid_master.html#a05e07a5ce8a23c6abf8864b8388e2e50" target="_top" xlink:title="Vérifie la cohérence entre la grille et les possibilités.">
<polygon fill="white" stroke="#666666" points="1400.25,-94 1190,-94 1190,-50 1400.25,-50 1400.25,-94"/>
<text text-anchor="start" x="1198" y="-80.5" font-family="Helvetica,sans-Serif" font-size="10.00">fr.softsf.sudokufx.common.util.sudoku.</text>
<text text-anchor="start" x="1198" y="-68.5" font-family="Helvetica,sans-Serif" font-size="10.00">GridMaster.verifierLaCoherenceEntreLaGrille</text>
<text text-anchor="middle" x="1295.12" y="-56.5" font-family="Helvetica,sans-Serif" font-size="10.00">EtLesPossibilites</text>
</a>
</g>
</g>
<!-- Node17&#45;&gt;Node22 -->
<g id="edge30_Node000017_Node000022" class="edge">
<title>Node17&#45;&gt;Node22</title>
<g id="a_edge30_Node000017_Node000022"><a xlink:title=" ">
<path fill="none" stroke="#63b8ff" d="M1125.8,-111.5C1145.15,-106.96 1166.57,-101.93 1187.47,-97.03"/>
<polygon fill="#63b8ff" stroke="#63b8ff" points="1188.27,-100.44 1197.2,-94.75 1186.67,-93.62 1188.27,-100.44"/>
</a>
</g>
</g>
<!-- Node18&#45;&gt;Node10 -->
<g id="edge25_Node000018_Node000010" class="edge">
<title>Node18&#45;&gt;Node10</title>
<g id="a_edge25_Node000018_Node000010"><a xlink:title=" ">
<path fill="none" stroke="#63b8ff" d="M1346.07,-144.49C1372.96,-152.76 1406.86,-162.22 1437.75,-168 1526.01,-184.53 1627.74,-193.45 1701.77,-198.13"/>
<polygon fill="#63b8ff" stroke="#63b8ff" points="1701.24,-201.61 1711.44,-198.73 1701.68,-194.62 1701.24,-201.61"/>
</a>
</g>
</g>
<!-- Node18&#45;&gt;Node18 -->
<g id="edge28_Node000018_Node000018" class="edge">
<title>Node18&#45;&gt;Node18</title>
<g id="a_edge28_Node000018_Node000018"><a xlink:title=" ">
<path fill="none" stroke="#63b8ff" d="M1252.17,-144.44C1244.15,-153.58 1258.47,-162 1295.12,-162 1315.46,-162 1328.92,-159.41 1335.51,-155.54"/>
<polygon fill="#63b8ff" stroke="#63b8ff" points="1338.89,-156.45 1337.74,-145.92 1332.07,-154.87 1338.89,-156.45"/>
</a>
</g>
</g>
<!-- Node19 -->
<g id="Node000019" class="node">
<title>Node19</title>
<g id="a_Node000019"><a xlink:href="classfr_1_1softsf_1_1sudokufx_1_1common_1_1util_1_1sudoku_1_1_grid_master.html#a3f17ab078f894717a1f3dfaffed0b987" target="_top" xlink:title="Choisit une valeur aléatoire parmi les possibilités données.">
<polygon fill="white" stroke="#666666" points="1650.62,-109 1464.38,-109 1464.38,-77 1650.62,-77 1650.62,-109"/>
<text text-anchor="start" x="1472.38" y="-95.5" font-family="Helvetica,sans-Serif" font-size="10.00">fr.softsf.sudokufx.common.util.sudoku.</text>
<text text-anchor="middle" x="1557.5" y="-83.5" font-family="Helvetica,sans-Serif" font-size="10.00">GridMaster.choisirValeurAleatoire</text>
</a>
</g>
</g>
<!-- Node18&#45;&gt;Node19 -->
<g id="edge23_Node000018_Node000019" class="edge">
<title>Node18&#45;&gt;Node19</title>
<g id="a_edge23_Node000018_Node000019"><a xlink:title=" ">
<path fill="none" stroke="#63b8ff" d="M1388.66,-115.56C1409.47,-112.76 1431.69,-109.78 1452.93,-106.92"/>
<polygon fill="#63b8ff" stroke="#63b8ff" points="1453.32,-110.4 1462.77,-105.6 1452.39,-103.46 1453.32,-110.4"/>
</a>
</g>
</g>
<!-- Node21 -->
<g id="Node000021" class="node">
<title>Node21</title>
<g id="a_Node000021"><a xlink:href="classfr_1_1softsf_1_1sudokufx_1_1common_1_1util_1_1sudoku_1_1_grid_master.html#a973a5ac2260605b8a260934b7e68373d" target="_top" xlink:title="Trouve la case vide avec le moins de possibilités.">
<polygon fill="white" stroke="#666666" points="1677.25,-159 1437.75,-159 1437.75,-127 1677.25,-127 1677.25,-159"/>
<text text-anchor="start" x="1445.75" y="-145.5" font-family="Helvetica,sans-Serif" font-size="10.00">fr.softsf.sudokufx.common.util.sudoku.</text>
<text text-anchor="middle" x="1557.5" y="-133.5" font-family="Helvetica,sans-Serif" font-size="10.00">GridMaster.laCaseVideAvecLeMoinsDePossibilites</text>
</a>
</g>
</g>
<!-- Node18&#45;&gt;Node21 -->
<g id="edge26_Node000018_Node000021" class="edge">
<title>Node18&#45;&gt;Node21</title>
<g id="a_edge26_Node000018_Node000021"><a xlink:title=" ">
<path fill="none" stroke="#63b8ff" d="M1388.66,-133.33C1400.87,-134.03 1413.56,-134.77 1426.25,-135.5"/>
<polygon fill="#63b8ff" stroke="#63b8ff" points="1425.7,-138.97 1435.89,-136.05 1426.1,-131.98 1425.7,-138.97"/>
</a>
</g>
</g>
<!-- Node20 -->
<g id="Node000020" class="node">
<title>Node20</title>
<g id="a_Node000020"><a xlink:href="classfr_1_1softsf_1_1sudokufx_1_1common_1_1util_1_1sudoku_1_1_grid_master.html#a1e8e128a955e4a42b8e690c3c3f0fd9c" target="_top" xlink:title="Compte le nombre de bits à 1 dans un entier.">
<polygon fill="white" stroke="#666666" points="1899.5,-146 1713.25,-146 1713.25,-114 1899.5,-114 1899.5,-146"/>
<text text-anchor="start" x="1721.25" y="-132.5" font-family="Helvetica,sans-Serif" font-size="10.00">fr.softsf.sudokufx.common.util.sudoku.</text>
<text text-anchor="middle" x="1806.38" y="-120.5" font-family="Helvetica,sans-Serif" font-size="10.00">GridMaster.compterBits</text>
</a>
</g>
</g>
<!-- Node19&#45;&gt;Node20 -->
<g id="edge24_Node000019_Node000020" class="edge">
<title>Node19&#45;&gt;Node20</title>
<g id="a_edge24_Node000019_Node000020"><a xlink:title=" ">
<path fill="none" stroke="#63b8ff" d="M1650.78,-106.83C1667.41,-109.32 1684.84,-111.93 1701.76,-114.47"/>
<polygon fill="#63b8ff" stroke="#63b8ff" points="1700.89,-117.88 1711.3,-115.9 1701.93,-110.96 1700.89,-117.88"/>
</a>
</g>
</g>
<!-- Node21&#45;&gt;Node20 -->
<g id="edge27_Node000021_Node000020" class="edge">
<title>Node21&#45;&gt;Node20</title>
<g id="a_edge27_Node000021_Node000020"><a xlink:title=" ">
<path fill="none" stroke="#63b8ff" d="M1677.6,-136.73C1685.55,-136.31 1693.53,-135.89 1701.4,-135.48"/>
<polygon fill="#63b8ff" stroke="#63b8ff" points="1701.52,-138.97 1711.32,-134.95 1701.15,-131.98 1701.52,-138.97"/>
</a>
</g>
</g>
</g>
</svg>
