<?xml version="1.0" encoding="UTF-8" standalone="no"?>
<!DOCTYPE svg PUBLIC "-//W3C//DTD SVG 1.1//EN"
 "http://www.w3.org/Graphics/SVG/1.1/DTD/svg11.dtd">
<!-- Generated by graphviz version 12.2.1 (20241206.2353)
 -->
<!-- Title: fr.softsf.sudokufx.view.DefaultView.initialize Pages: 1 -->
<svg width="782pt" height="614pt"
 viewBox="0.00 0.00 782.25 614.00" xmlns="http://www.w3.org/2000/svg" xmlns:xlink="http://www.w3.org/1999/xlink">
<g id="graph0" class="graph" transform="scale(1 1) rotate(0) translate(4 610)">
<title>fr.softsf.sudokufx.view.DefaultView.initialize</title>
<!-- Node1 -->
<g id="Node000001" class="node">
<title>Node1</title>
<g id="a_Node000001"><a xlink:title="Initializes the default view.">
<polygon fill="#999999" stroke="#666666" points="118,-307 0,-307 0,-275 118,-275 118,-307"/>
<text text-anchor="start" x="8" y="-293.5" font-family="Helvetica,sans-Serif" font-size="10.00">fr.softsf.sudokufx.view.</text>
<text text-anchor="middle" x="59" y="-281.5" font-family="Helvetica,sans-Serif" font-size="10.00">DefaultView.initialize</text>
</a>
</g>
</g>
<!-- Node2 -->
<g id="Node000002" class="node">
<title>Node2</title>
<g id="a_Node000002"><a xlink:href="classfr_1_1softsf_1_1sudokufx_1_1view_1_1_default_view.html#a842f4799fbccb6507d669da06f95554c" target="_top" xlink:title="Initializes bindings between each menu pane&#39;s visibility and managed state and the corresponding valu...">
<polygon fill="white" stroke="#666666" points="332.38,-606 173.12,-606 173.12,-562 332.38,-562 332.38,-606"/>
<text text-anchor="start" x="181.12" y="-592.5" font-family="Helvetica,sans-Serif" font-size="10.00">fr.softsf.sudokufx.view.</text>
<text text-anchor="start" x="181.12" y="-580.5" font-family="Helvetica,sans-Serif" font-size="10.00">DefaultView.activeMenuManager</text>
<text text-anchor="middle" x="252.75" y="-568.5" font-family="Helvetica,sans-Serif" font-size="10.00">Initialization</text>
</a>
</g>
</g>
<!-- Node1&#45;&gt;Node2 -->
<g id="edge1_Node000001_Node000002" class="edge">
<title>Node1&#45;&gt;Node2</title>
<g id="a_edge1_Node000001_Node000002"><a xlink:title=" ">
<path fill="none" stroke="#63b8ff" d="M61.01,-307.49C64.72,-353.27 81.43,-483.1 154,-553 156.84,-555.74 159.93,-558.24 163.19,-560.51"/>
<polygon fill="#63b8ff" stroke="#63b8ff" points="161.14,-563.36 171.5,-565.57 164.78,-557.38 161.14,-563.36"/>
</a>
</g>
</g>
<!-- Node4 -->
<g id="Node000004" class="node">
<title>Node4</title>
<g id="a_Node000004"><a xlink:href="classfr_1_1softsf_1_1sudokufx_1_1view_1_1_default_view.html#a5029633546f4a90d0085421fbf9bb57c" target="_top" xlink:title="Sets up bindings between the options menu UI components and menuBackgroundViewModel.">
<polygon fill="white" stroke="#666666" points="351.5,-544 154,-544 154,-512 351.5,-512 351.5,-544"/>
<text text-anchor="start" x="162" y="-530.5" font-family="Helvetica,sans-Serif" font-size="10.00">fr.softsf.sudokufx.view.</text>
<text text-anchor="middle" x="252.75" y="-518.5" font-family="Helvetica,sans-Serif" font-size="10.00">DefaultView.backgroundMenuInitialization</text>
</a>
</g>
</g>
<!-- Node1&#45;&gt;Node4 -->
<g id="edge3_Node000001_Node000004" class="edge">
<title>Node1&#45;&gt;Node4</title>
<g id="a_edge3_Node000001_Node000004"><a xlink:title=" ">
<path fill="none" stroke="#63b8ff" d="M62.34,-307.42C68.94,-347.34 91.44,-450.1 154,-503 154.97,-503.82 155.96,-504.61 156.98,-505.38"/>
<polygon fill="#63b8ff" stroke="#63b8ff" points="155.06,-508.31 165.36,-510.8 158.86,-502.43 155.06,-508.31"/>
</a>
</g>
</g>
<!-- Node6 -->
<g id="Node000006" class="node">
<title>Node6</title>
<g id="a_Node000006"><a xlink:href="classfr_1_1softsf_1_1sudokufx_1_1view_1_1_default_view.html#a9af1a37feb2a608a4e057ec28e91c74f" target="_top" xlink:title="Adds each cell&#39;s Label and TextArea to the GridPane at positions calculated from their index in a 9x9...">
<polygon fill="white" stroke="#666666" points="322.25,-494 183.25,-494 183.25,-462 322.25,-462 322.25,-494"/>
<text text-anchor="start" x="191.25" y="-480.5" font-family="Helvetica,sans-Serif" font-size="10.00">fr.softsf.sudokufx.view.</text>
<text text-anchor="middle" x="252.75" y="-468.5" font-family="Helvetica,sans-Serif" font-size="10.00">DefaultView.gridInitialization</text>
</a>
</g>
</g>
<!-- Node1&#45;&gt;Node6 -->
<g id="edge5_Node000001_Node000006" class="edge">
<title>Node1&#45;&gt;Node6</title>
<g id="a_edge5_Node000001_Node000006"><a xlink:title=" ">
<path fill="none" stroke="#63b8ff" d="M64.77,-307.44C75.22,-340.39 103.3,-414.64 154,-453 159.59,-457.23 165.83,-460.75 172.36,-463.68"/>
<polygon fill="#63b8ff" stroke="#63b8ff" points="170.84,-466.84 181.43,-467.25 173.41,-460.33 170.84,-466.84"/>
</a>
</g>
</g>
<!-- Node7 -->
<g id="Node000007" class="node">
<title>Node7</title>
<g id="a_Node000007"><a xlink:href="classfr_1_1softsf_1_1sudokufx_1_1view_1_1_default_view.html#aa5a9a05a6dbf8f7dda34e11bc1089a88" target="_top" xlink:title="Initializes the hidden menu by binding its show button&#39;s accessible text and tooltip to the ViewModel...">
<polygon fill="white" stroke="#666666" points="340.62,-444 164.88,-444 164.88,-412 340.62,-412 340.62,-444"/>
<text text-anchor="start" x="172.88" y="-430.5" font-family="Helvetica,sans-Serif" font-size="10.00">fr.softsf.sudokufx.view.</text>
<text text-anchor="middle" x="252.75" y="-418.5" font-family="Helvetica,sans-Serif" font-size="10.00">DefaultView.hiddenMenuInitialization</text>
</a>
</g>
</g>
<!-- Node1&#45;&gt;Node7 -->
<g id="edge6_Node000001_Node000007" class="edge">
<title>Node1&#45;&gt;Node7</title>
<g id="a_edge6_Node000001_Node000007"><a xlink:title=" ">
<path fill="none" stroke="#63b8ff" d="M69.22,-307.5C83.88,-332.17 114.89,-378.4 154,-403 156.03,-404.28 158.12,-405.49 160.26,-406.63"/>
<polygon fill="#63b8ff" stroke="#63b8ff" points="158.69,-409.76 169.22,-410.92 161.71,-403.45 158.69,-409.76"/>
</a>
</g>
</g>
<!-- Node8 -->
<g id="Node000008" class="node">
<title>Node8</title>
<g id="a_Node000008"><a xlink:href="classfr_1_1softsf_1_1sudokufx_1_1view_1_1_default_view.html#a698b4472ecfcd376baf10103eb2c6abf" target="_top" xlink:title="Initializes a Timeline that hides the MINI menu after AUTO_HIDE_MINI_MENU_DELAY_MS milliseconds if it...">
<polygon fill="white" stroke="#666666" points="336.88,-394 168.62,-394 168.62,-350 336.88,-350 336.88,-394"/>
<text text-anchor="start" x="176.62" y="-380.5" font-family="Helvetica,sans-Serif" font-size="10.00">fr.softsf.sudokufx.view.</text>
<text text-anchor="start" x="176.62" y="-368.5" font-family="Helvetica,sans-Serif" font-size="10.00">DefaultView.hideMiniMenuTimeline</text>
<text text-anchor="middle" x="252.75" y="-356.5" font-family="Helvetica,sans-Serif" font-size="10.00">Initialization</text>
</a>
</g>
</g>
<!-- Node1&#45;&gt;Node8 -->
<g id="edge7_Node000001_Node000008" class="edge">
<title>Node1&#45;&gt;Node8</title>
<g id="a_edge7_Node000001_Node000008"><a xlink:title=" ">
<path fill="none" stroke="#63b8ff" d="M87.73,-307.47C106.11,-317.95 131,-331.33 154,-341 157.79,-342.59 161.7,-344.15 165.66,-345.67"/>
<polygon fill="#63b8ff" stroke="#63b8ff" points="164.25,-348.88 174.85,-349.06 166.68,-342.31 164.25,-348.88"/>
</a>
</g>
</g>
<!-- Node9 -->
<g id="Node000009" class="node">
<title>Node9</title>
<g id="a_Node000009"><a xlink:href="classfr_1_1softsf_1_1sudokufx_1_1view_1_1_default_view.html#a8f244e76c83f37d4050b585d3991815e" target="_top" xlink:title="Initializes each difficulty level section in the menu by binding UI components to ViewModel propertie...">
<polygon fill="white" stroke="#666666" points="339.12,-332 166.38,-332 166.38,-300 339.12,-300 339.12,-332"/>
<text text-anchor="start" x="174.38" y="-318.5" font-family="Helvetica,sans-Serif" font-size="10.00">fr.softsf.sudokufx.view.</text>
<text text-anchor="middle" x="252.75" y="-306.5" font-family="Helvetica,sans-Serif" font-size="10.00">DefaultView.levelsMenuInitialization</text>
</a>
</g>
</g>
<!-- Node1&#45;&gt;Node9 -->
<g id="edge8_Node000001_Node000009" class="edge">
<title>Node1&#45;&gt;Node9</title>
<g id="a_edge8_Node000001_Node000009"><a xlink:title=" ">
<path fill="none" stroke="#63b8ff" d="M118.31,-298.6C129.87,-300.11 142.29,-301.73 154.74,-303.35"/>
<polygon fill="#63b8ff" stroke="#63b8ff" points="154.28,-306.82 164.65,-304.64 155.19,-299.88 154.28,-306.82"/>
</a>
</g>
</g>
<!-- Node17 -->
<g id="Node000017" class="node">
<title>Node17</title>
<g id="a_Node000017"><a xlink:href="classfr_1_1softsf_1_1sudokufx_1_1view_1_1_default_view.html#abd0dd12e7969cb6bc61d24f7a4f6ee75" target="_top" xlink:title="Initializes the maxi menu components by binding their labels, accessible texts, and tooltips to the c...">
<polygon fill="white" stroke="#666666" points="336.88,-282 168.62,-282 168.62,-250 336.88,-250 336.88,-282"/>
<text text-anchor="start" x="176.62" y="-268.5" font-family="Helvetica,sans-Serif" font-size="10.00">fr.softsf.sudokufx.view.</text>
<text text-anchor="middle" x="252.75" y="-256.5" font-family="Helvetica,sans-Serif" font-size="10.00">DefaultView.maxiMenuInitialization</text>
</a>
</g>
</g>
<!-- Node1&#45;&gt;Node17 -->
<g id="edge16_Node000001_Node000017" class="edge">
<title>Node1&#45;&gt;Node17</title>
<g id="a_edge16_Node000001_Node000017"><a xlink:title=" ">
<path fill="none" stroke="#63b8ff" d="M118.31,-283.4C130.62,-281.79 143.91,-280.06 157.17,-278.33"/>
<polygon fill="#63b8ff" stroke="#63b8ff" points="157.31,-281.84 166.78,-277.08 156.41,-274.9 157.31,-281.84"/>
</a>
</g>
</g>
<!-- Node18 -->
<g id="Node000018" class="node">
<title>Node18</title>
<g id="a_Node000018"><a xlink:href="classfr_1_1softsf_1_1sudokufx_1_1view_1_1_default_view.html#a102802b83cb4b7d16ad9b5647790a805" target="_top" xlink:title="Initializes the mini menu by binding all buttons&#39; texts and tooltips to their respective ViewModel pr...">
<polygon fill="white" stroke="#666666" points="335.38,-232 170.12,-232 170.12,-200 335.38,-200 335.38,-232"/>
<text text-anchor="start" x="178.12" y="-218.5" font-family="Helvetica,sans-Serif" font-size="10.00">fr.softsf.sudokufx.view.</text>
<text text-anchor="middle" x="252.75" y="-206.5" font-family="Helvetica,sans-Serif" font-size="10.00">DefaultView.miniMenuInitialization</text>
</a>
</g>
</g>
<!-- Node1&#45;&gt;Node18 -->
<g id="edge17_Node000001_Node000018" class="edge">
<title>Node1&#45;&gt;Node18</title>
<g id="a_edge17_Node000001_Node000018"><a xlink:title=" ">
<path fill="none" stroke="#63b8ff" d="M86.74,-274.56C105.13,-263.82 130.39,-250.15 154,-241 158.67,-239.19 163.52,-237.47 168.45,-235.85"/>
<polygon fill="#63b8ff" stroke="#63b8ff" points="169.39,-239.22 177.89,-232.89 167.3,-232.54 169.39,-239.22"/>
</a>
</g>
</g>
<!-- Node19 -->
<g id="Node000019" class="node">
<title>Node19</title>
<g id="a_Node000019"><a xlink:href="classfr_1_1softsf_1_1sudokufx_1_1view_1_1_default_view.html#a364924a9e9ac437e3343ca332ae076fb" target="_top" xlink:title="Binds &quot;New&quot; menu UI elements to the ViewModel for text, accessibility, visibility,...">
<polygon fill="white" stroke="#666666" points="335.38,-182 170.12,-182 170.12,-150 335.38,-150 335.38,-182"/>
<text text-anchor="start" x="178.12" y="-168.5" font-family="Helvetica,sans-Serif" font-size="10.00">fr.softsf.sudokufx.view.</text>
<text text-anchor="middle" x="252.75" y="-156.5" font-family="Helvetica,sans-Serif" font-size="10.00">DefaultView.newMenuInitialization</text>
</a>
</g>
</g>
<!-- Node1&#45;&gt;Node19 -->
<g id="edge18_Node000001_Node000019" class="edge">
<title>Node1&#45;&gt;Node19</title>
<g id="a_edge18_Node000001_Node000019"><a xlink:title=" ">
<path fill="none" stroke="#63b8ff" d="M70.69,-274.81C86.3,-252.49 117.48,-212.56 154,-191 156.32,-189.63 158.72,-188.33 161.17,-187.11"/>
<polygon fill="#63b8ff" stroke="#63b8ff" points="162.47,-190.36 170.16,-183.07 159.6,-183.98 162.47,-190.36"/>
</a>
</g>
</g>
<!-- Node20 -->
<g id="Node000020" class="node">
<title>Node20</title>
<g id="a_Node000020"><a xlink:href="classfr_1_1softsf_1_1sudokufx_1_1view_1_1_default_view.html#a084dbf4edfe7c82d0eee95e6ff0ee807" target="_top" xlink:title="Initializes bindings and event listeners for the player menu components.">
<polygon fill="white" stroke="#666666" points="339.5,-132 166,-132 166,-100 339.5,-100 339.5,-132"/>
<text text-anchor="start" x="174" y="-118.5" font-family="Helvetica,sans-Serif" font-size="10.00">fr.softsf.sudokufx.view.</text>
<text text-anchor="middle" x="252.75" y="-106.5" font-family="Helvetica,sans-Serif" font-size="10.00">DefaultView.playerMenuInitialization</text>
</a>
</g>
</g>
<!-- Node1&#45;&gt;Node20 -->
<g id="edge19_Node000001_Node000020" class="edge">
<title>Node1&#45;&gt;Node20</title>
<g id="a_edge19_Node000001_Node000020"><a xlink:title=" ">
<path fill="none" stroke="#63b8ff" d="M65.57,-274.57C77,-243.47 106.1,-175.98 154,-141 155.56,-139.86 157.16,-138.78 158.8,-137.74"/>
<polygon fill="#63b8ff" stroke="#63b8ff" points="160.21,-140.96 167.27,-133.07 156.83,-134.84 160.21,-140.96"/>
</a>
</g>
</g>
<!-- Node22 -->
<g id="Node000022" class="node">
<title>Node22</title>
<g id="a_Node000022"><a xlink:href="classfr_1_1softsf_1_1sudokufx_1_1view_1_1_default_view.html#a8ac7a557b342700c44773bfd5f047bb1" target="_top" xlink:title="Initializes bindings and event listeners for the save menu components.">
<polygon fill="white" stroke="#666666" points="336.88,-82 168.62,-82 168.62,-50 336.88,-50 336.88,-82"/>
<text text-anchor="start" x="176.62" y="-68.5" font-family="Helvetica,sans-Serif" font-size="10.00">fr.softsf.sudokufx.view.</text>
<text text-anchor="middle" x="252.75" y="-56.5" font-family="Helvetica,sans-Serif" font-size="10.00">DefaultView.saveMenuInitialization</text>
</a>
</g>
</g>
<!-- Node1&#45;&gt;Node22 -->
<g id="edge21_Node000001_Node000022" class="edge">
<title>Node1&#45;&gt;Node22</title>
<g id="a_edge21_Node000001_Node000022"><a xlink:title=" ">
<path fill="none" stroke="#63b8ff" d="M62.81,-274.65C70.28,-236.36 94.27,-140.39 154,-91 155.53,-89.73 157.12,-88.53 158.75,-87.39"/>
<polygon fill="#63b8ff" stroke="#63b8ff" points="160.53,-90.41 167.3,-82.25 156.92,-84.4 160.53,-90.41"/>
</a>
</g>
</g>
<!-- Node23 -->
<g id="Node000023" class="node">
<title>Node23</title>
<g id="a_Node000023"><a xlink:href="classfr_1_1softsf_1_1sudokufx_1_1view_1_1_default_view.html#a52bebe4b665a6628e54138f440f5daa0" target="_top" xlink:title="Sets up bindings between the solve menu UI components and menuSolveViewModel.">
<polygon fill="white" stroke="#666666" points="338,-32 167.5,-32 167.5,0 338,0 338,-32"/>
<text text-anchor="start" x="175.5" y="-18.5" font-family="Helvetica,sans-Serif" font-size="10.00">fr.softsf.sudokufx.view.</text>
<text text-anchor="middle" x="252.75" y="-6.5" font-family="Helvetica,sans-Serif" font-size="10.00">DefaultView.solveMenuInitialization</text>
</a>
</g>
</g>
<!-- Node1&#45;&gt;Node23 -->
<g id="edge23_Node000001_Node000023" class="edge">
<title>Node1&#45;&gt;Node23</title>
<g id="a_edge23_Node000001_Node000023"><a xlink:title=" ">
<path fill="none" stroke="#63b8ff" d="M61.1,-274.72C65.01,-230.18 82.18,-105.37 154,-41 155.26,-39.87 156.57,-38.78 157.92,-37.75"/>
<polygon fill="#63b8ff" stroke="#63b8ff" points="159.61,-40.83 166.06,-32.42 155.77,-34.97 159.61,-40.83"/>
</a>
</g>
</g>
<!-- Node3 -->
<g id="Node000003" class="node">
<title>Node3</title>
<g id="a_Node000003"><a xlink:href="classfr_1_1softsf_1_1sudokufx_1_1view_1_1_default_view.html#a0abee02009b88e1e2260fdae077dc597" target="_top" xlink:title=" ">
<polygon fill="white" stroke="#666666" points="563.25,-600 387.5,-600 387.5,-568 563.25,-568 563.25,-600"/>
<text text-anchor="start" x="395.5" y="-586.5" font-family="Helvetica,sans-Serif" font-size="10.00">fr.softsf.sudokufx.view.</text>
<text text-anchor="middle" x="475.38" y="-574.5" font-family="Helvetica,sans-Serif" font-size="10.00">DefaultView.bindVisibleAndManaged</text>
</a>
</g>
</g>
<!-- Node2&#45;&gt;Node3 -->
<g id="edge2_Node000002_Node000003" class="edge">
<title>Node2&#45;&gt;Node3</title>
<g id="a_edge2_Node000002_Node000003"><a xlink:title=" ">
<path fill="none" stroke="#63b8ff" d="M332.78,-584C346.73,-584 361.41,-584 375.82,-584"/>
<polygon fill="#63b8ff" stroke="#63b8ff" points="375.78,-587.5 385.78,-584 375.78,-580.5 375.78,-587.5"/>
</a>
</g>
</g>
<!-- Node5 -->
<g id="Node000005" class="node">
<title>Node5</title>
<g id="a_Node000005"><a xlink:href="classfr_1_1softsf_1_1sudokufx_1_1view_1_1_default_view.html#a3dd02ff5cf869a084c95b35937827893" target="_top" xlink:title="Applies opaque or transparent styling to the sudoku grid and its cells.">
<polygon fill="white" stroke="#666666" points="551.62,-544 399.12,-544 399.12,-512 551.62,-512 551.62,-544"/>
<text text-anchor="start" x="407.12" y="-530.5" font-family="Helvetica,sans-Serif" font-size="10.00">fr.softsf.sudokufx.view.</text>
<text text-anchor="middle" x="475.38" y="-518.5" font-family="Helvetica,sans-Serif" font-size="10.00">DefaultView.applyOpaqueMode</text>
</a>
</g>
</g>
<!-- Node4&#45;&gt;Node5 -->
<g id="edge4_Node000004_Node000005" class="edge">
<title>Node4&#45;&gt;Node5</title>
<g id="a_edge4_Node000004_Node000005"><a xlink:title=" ">
<path fill="none" stroke="#63b8ff" d="M351.8,-528C363.63,-528 375.64,-528 387.3,-528"/>
<polygon fill="#63b8ff" stroke="#63b8ff" points="387.3,-531.5 397.3,-528 387.3,-524.5 387.3,-531.5"/>
</a>
</g>
</g>
<!-- Node10 -->
<g id="Node000010" class="node">
<title>Node10</title>
<g id="a_Node000010"><a xlink:href="classfr_1_1softsf_1_1sudokufx_1_1view_1_1_default_view.html#a2782545a22496fbb6185093a2737b248" target="_top" xlink:title="Binds UI components related to a specific difficulty level in both the maxi and mini menus.">
<polygon fill="white" stroke="#666666" points="534.38,-332 416.38,-332 416.38,-300 534.38,-300 534.38,-332"/>
<text text-anchor="start" x="424.38" y="-318.5" font-family="Helvetica,sans-Serif" font-size="10.00">fr.softsf.sudokufx.view.</text>
<text text-anchor="middle" x="475.38" y="-306.5" font-family="Helvetica,sans-Serif" font-size="10.00">DefaultView.bindLevel</text>
</a>
</g>
</g>
<!-- Node9&#45;&gt;Node10 -->
<g id="edge9_Node000009_Node000010" class="edge">
<title>Node9&#45;&gt;Node10</title>
<g id="a_edge9_Node000009_Node000010"><a xlink:title=" ">
<path fill="none" stroke="#63b8ff" d="M339.37,-316C361.03,-316 384.04,-316 404.8,-316"/>
<polygon fill="#63b8ff" stroke="#63b8ff" points="404.57,-319.5 414.57,-316 404.57,-312.5 404.57,-319.5"/>
</a>
</g>
</g>
<!-- Node11 -->
<g id="Node000011" class="node">
<title>Node11</title>
<g id="a_Node000011"><a xlink:href="classfr_1_1softsf_1_1sudokufx_1_1view_1_1_default_view.html#ad0d842dec8978f4a7f16e25027a74f3b" target="_top" xlink:title="Binds accessibility properties (accessible text and role description) for the specified difficulty le...">
<polygon fill="white" stroke="#666666" points="770.88,-466 602.62,-466 602.62,-434 770.88,-434 770.88,-466"/>
<text text-anchor="start" x="610.62" y="-452.5" font-family="Helvetica,sans-Serif" font-size="10.00">fr.softsf.sudokufx.view.</text>
<text text-anchor="middle" x="686.75" y="-440.5" font-family="Helvetica,sans-Serif" font-size="10.00">DefaultView.bindLevelAccessibility</text>
</a>
</g>
</g>
<!-- Node10&#45;&gt;Node11 -->
<g id="edge10_Node000010_Node000011" class="edge">
<title>Node10&#45;&gt;Node11</title>
<g id="a_edge10_Node000010_Node000011"><a xlink:title=" ">
<path fill="none" stroke="#63b8ff" d="M490.19,-332.17C511.34,-355.92 554.04,-400.1 599.25,-425 601.92,-426.47 604.68,-427.86 607.51,-429.18"/>
<polygon fill="#63b8ff" stroke="#63b8ff" points="606.01,-432.34 616.59,-433.02 608.74,-425.9 606.01,-432.34"/>
</a>
</g>
</g>
<!-- Node12 -->
<g id="Node000012" class="node">
<title>Node12</title>
<g id="a_Node000012"><a xlink:href="classfr_1_1softsf_1_1sudokufx_1_1view_1_1_default_view.html#a3d5d0a16240ebde5f38e53f35d7aad03" target="_top" xlink:title="Binds the label&#39;s text to the localized name of the specified difficulty level.">
<polygon fill="white" stroke="#666666" points="764.12,-416 609.38,-416 609.38,-384 764.12,-384 764.12,-416"/>
<text text-anchor="start" x="617.38" y="-402.5" font-family="Helvetica,sans-Serif" font-size="10.00">fr.softsf.sudokufx.view.</text>
<text text-anchor="middle" x="686.75" y="-390.5" font-family="Helvetica,sans-Serif" font-size="10.00">DefaultView.bindLevelLabelText</text>
</a>
</g>
</g>
<!-- Node10&#45;&gt;Node12 -->
<g id="edge11_Node000010_Node000012" class="edge">
<title>Node10&#45;&gt;Node12</title>
<g id="a_edge11_Node000010_Node000012"><a xlink:title=" ">
<path fill="none" stroke="#63b8ff" d="M507.06,-332.5C531.54,-345.23 566.97,-362.68 599.25,-375 603.89,-376.77 608.72,-378.49 613.61,-380.14"/>
<polygon fill="#63b8ff" stroke="#63b8ff" points="612.34,-383.41 622.93,-383.17 614.5,-376.75 612.34,-383.41"/>
</a>
</g>
</g>
<!-- Node13 -->
<g id="Node000013" class="node">
<title>Node13</title>
<g id="a_Node000013"><a xlink:href="classfr_1_1softsf_1_1sudokufx_1_1view_1_1_default_view.html#ae6e221d303609c7e310658abb1a58815" target="_top" xlink:title="Binds the pseudo&#45;class &quot;:selected&quot; state of the given buttons to the specified difficulty level.">
<polygon fill="white" stroke="#666666" points="762.25,-366 611.25,-366 611.25,-322 762.25,-322 762.25,-366"/>
<text text-anchor="start" x="619.25" y="-352.5" font-family="Helvetica,sans-Serif" font-size="10.00">fr.softsf.sudokufx.view.</text>
<text text-anchor="start" x="619.25" y="-340.5" font-family="Helvetica,sans-Serif" font-size="10.00">DefaultView.bindLevelSelected</text>
<text text-anchor="middle" x="686.75" y="-328.5" font-family="Helvetica,sans-Serif" font-size="10.00">Styling</text>
</a>
</g>
</g>
<!-- Node10&#45;&gt;Node13 -->
<g id="edge12_Node000010_Node000013" class="edge">
<title>Node10&#45;&gt;Node13</title>
<g id="a_edge12_Node000010_Node000013"><a xlink:title=" ">
<path fill="none" stroke="#63b8ff" d="M534.7,-323.8C554.79,-326.49 577.74,-329.56 599.58,-332.48"/>
<polygon fill="#63b8ff" stroke="#63b8ff" points="599,-335.93 609.37,-333.79 599.93,-328.99 599,-335.93"/>
</a>
</g>
</g>
<!-- Node14 -->
<g id="Node000014" class="node">
<title>Node14</title>
<g id="a_Node000014"><a xlink:href="classfr_1_1softsf_1_1sudokufx_1_1view_1_1_default_view.html#af9c94d119491afaed311aa6eefc1234f" target="_top" xlink:title="Binds the visibility of the stars box to whether the specified difficulty level is selected.">
<polygon fill="white" stroke="#666666" points="773.12,-304 600.38,-304 600.38,-272 773.12,-272 773.12,-304"/>
<text text-anchor="start" x="608.38" y="-290.5" font-family="Helvetica,sans-Serif" font-size="10.00">fr.softsf.sudokufx.view.</text>
<text text-anchor="middle" x="686.75" y="-278.5" font-family="Helvetica,sans-Serif" font-size="10.00">DefaultView.bindLevelStarsVisibility</text>
</a>
</g>
</g>
<!-- Node10&#45;&gt;Node14 -->
<g id="edge13_Node000010_Node000014" class="edge">
<title>Node10&#45;&gt;Node14</title>
<g id="a_edge13_Node000010_Node000014"><a xlink:title=" ">
<path fill="none" stroke="#63b8ff" d="M534.7,-308.2C551.43,-305.96 570.15,-303.46 588.55,-301"/>
<polygon fill="#63b8ff" stroke="#63b8ff" points="589,-304.47 598.45,-299.67 588.07,-297.53 589,-304.47"/>
</a>
</g>
</g>
<!-- Node15 -->
<g id="Node000015" class="node">
<title>Node15</title>
<g id="a_Node000015"><a xlink:href="classfr_1_1softsf_1_1sudokufx_1_1view_1_1_default_view.html#a8056a23171a3cc96672893d680500815" target="_top" xlink:title="Binds the tooltip text properties of both buttons to the accessible text corresponding to the specifi...">
<polygon fill="white" stroke="#666666" points="766.75,-254 606.75,-254 606.75,-222 766.75,-222 766.75,-254"/>
<text text-anchor="start" x="614.75" y="-240.5" font-family="Helvetica,sans-Serif" font-size="10.00">fr.softsf.sudokufx.view.</text>
<text text-anchor="middle" x="686.75" y="-228.5" font-family="Helvetica,sans-Serif" font-size="10.00">DefaultView.bindLevelTooltipText</text>
</a>
</g>
</g>
<!-- Node10&#45;&gt;Node15 -->
<g id="edge14_Node000010_Node000015" class="edge">
<title>Node10&#45;&gt;Node15</title>
<g id="a_edge14_Node000010_Node000015"><a xlink:title=" ">
<path fill="none" stroke="#63b8ff" d="M511.13,-299.62C535.48,-288.48 568.96,-273.86 599.25,-263 604.23,-261.21 609.41,-259.46 614.64,-257.77"/>
<polygon fill="#63b8ff" stroke="#63b8ff" points="615.48,-261.18 623.97,-254.84 613.38,-254.5 615.48,-261.18"/>
</a>
</g>
</g>
<!-- Node16 -->
<g id="Node000016" class="node">
<title>Node16</title>
<g id="a_Node000016"><a xlink:href="classfr_1_1softsf_1_1sudokufx_1_1view_1_1component_1_1_possibility_stars_h_box.html#a7746116cfca8394695053b9c60c076fd" target="_top" xlink:title="Returns the percentage property (0–100) used to calculate the star rating display.">
<polygon fill="white" stroke="#666666" points="774.25,-204 599.25,-204 599.25,-172 774.25,-172 774.25,-204"/>
<text text-anchor="start" x="607.25" y="-190.5" font-family="Helvetica,sans-Serif" font-size="10.00">fr.softsf.sudokufx.view.component.</text>
<text text-anchor="middle" x="686.75" y="-178.5" font-family="Helvetica,sans-Serif" font-size="10.00">PossibilityStarsHBox.getPercentage</text>
</a>
</g>
</g>
<!-- Node10&#45;&gt;Node16 -->
<g id="edge15_Node000010_Node000016" class="edge">
<title>Node10&#45;&gt;Node16</title>
<g id="a_edge15_Node000010_Node000016"><a xlink:title=" ">
<path fill="none" stroke="#63b8ff" d="M491.47,-299.63C513.2,-276.99 555.52,-236.3 599.25,-213 602.1,-211.48 605.04,-210.05 608.06,-208.69"/>
<polygon fill="#63b8ff" stroke="#63b8ff" points="609.21,-212.01 617.13,-204.96 606.55,-205.53 609.21,-212.01"/>
</a>
</g>
</g>
<!-- Node21 -->
<g id="Node000021" class="node">
<title>Node21</title>
<g id="a_Node000021"><a xlink:href="classfr_1_1softsf_1_1sudokufx_1_1view_1_1_default_view.html#a9b219ba0d98d4df2edb74918b2766d16" target="_top" xlink:title="Sets up a rounded clip for a ListView.">
<polygon fill="white" stroke="#666666" points="550.5,-107 400.25,-107 400.25,-75 550.5,-75 550.5,-107"/>
<text text-anchor="start" x="408.25" y="-93.5" font-family="Helvetica,sans-Serif" font-size="10.00">fr.softsf.sudokufx.view.</text>
<text text-anchor="middle" x="475.38" y="-81.5" font-family="Helvetica,sans-Serif" font-size="10.00">DefaultView.setupListViewClip</text>
</a>
</g>
</g>
<!-- Node20&#45;&gt;Node21 -->
<g id="edge20_Node000020_Node000021" class="edge">
<title>Node20&#45;&gt;Node21</title>
<g id="a_edge20_Node000020_Node000021"><a xlink:title=" ">
<path fill="none" stroke="#63b8ff" d="M340,-106.23C356.1,-104.4 372.93,-102.5 389,-100.67"/>
<polygon fill="#63b8ff" stroke="#63b8ff" points="388.95,-104.2 398.49,-99.6 388.16,-97.25 388.95,-104.2"/>
</a>
</g>
</g>
<!-- Node22&#45;&gt;Node21 -->
<g id="edge22_Node000022_Node000021" class="edge">
<title>Node22&#45;&gt;Node21</title>
<g id="a_edge22_Node000022_Node000021"><a xlink:title=" ">
<path fill="none" stroke="#63b8ff" d="M337.16,-75.45C354.08,-77.37 371.89,-79.39 388.88,-81.31"/>
<polygon fill="#63b8ff" stroke="#63b8ff" points="388.07,-84.74 398.4,-82.39 388.86,-77.79 388.07,-84.74"/>
</a>
</g>
</g>
</g>
</svg>
