<?xml version="1.0" encoding="UTF-8" standalone="no"?>
<!DOCTYPE svg PUBLIC "-//W3C//DTD SVG 1.1//EN"
 "http://www.w3.org/Graphics/SVG/1.1/DTD/svg11.dtd">
<!-- Generated by graphviz version 12.2.1 (20241206.2353)
 -->
<!-- Title: fr.softsf.sudokufx.benchmark.BenchGridMaster.measureCreerLesGrilles Pages: 1 -->
<!--zoomable 582 -->

<svg id="main" version="1.1" xmlns="http://www.w3.org/2000/svg" xmlns:xlink="http://www.w3.org/1999/xlink" xml:space="preserve" onload="init(evt)">

<style type="text/css"><![CDATA[
.node, .edge {opacity: 0.7;}
.node.selected, .edge.selected {opacity: 1;}
.edge:hover path { stroke: red; }
.edge:hover polygon { stroke: red; fill: red; }
]]></style>

<defs>
  <circle id="rim" cx="0" cy="0" r="7"/>
  <circle id="rim2" cx="0" cy="0" r="3.5"/>
  <g id="zoomPlus">
    <use xlink:href="#rim" fill="#404040"><set attributeName="fill" to="#808080" begin="zoomplus.mouseover" end="zoomplus.mouseout"/></use>
    <path d="M-4,0h8M0,-4v8" fill="none" stroke="white" stroke-width="1.5" pointer-events="none"/>
  </g>
  <g id="zoomMin">
    <use xlink:href="#rim" fill="#404040"><set attributeName="fill" to="#808080" begin="zoomminus.mouseover" end="zoomminus.mouseout"/></use>
    <path d="M-4,0h8" fill="none" stroke="white" stroke-width="1.5" pointer-events="none"/>
  </g>
  <g id="arrowUp" transform="translate(30 24)">
    <use xlink:href="#rim"/>
    <path pointer-events="none" fill="none" stroke="white" stroke-width="1.5" d="M0,-3.0v7 M-2.5,-0.5L0,-3.0L2.5,-0.5"/>
  </g>
  <g id="arrowRight" transform="rotate(90) translate(36 -43)">
    <use xlink:href="#rim"/>
    <path pointer-events="none" fill="none" stroke="white" stroke-width="1.5" d="M0,-3.0v7 M-2.5,-0.5L0,-3.0L2.5,-0.5"/>
  </g>
  <g id="arrowDown" transform="rotate(180) translate(-30 -48)">
    <use xlink:href="#rim"/>
    <path pointer-events="none" fill="none" stroke="white" stroke-width="1.5" d="M0,-3.0v7 M-2.5,-0.5L0,-3.0L2.5,-0.5"/>
  </g>
  <g id="arrowLeft" transform="rotate(270) translate(-36 17)">
    <use xlink:href="#rim"/>
    <path pointer-events="none" fill="none" stroke="white" stroke-width="1.5" d="M0,-3.0v7 M-2.5,-0.5L0,-3.0L2.5,-0.5"/>
  </g>
  <g id="resetDef">
    <use xlink:href="#rim2" fill="#404040"><set attributeName="fill" to="#808080" begin="reset.mouseover" end="reset.mouseout"/></use>
  </g>
</defs>
<script type="application/ecmascript">
var viewWidth = 2179;
var viewHeight = 582;
var sectionId = 'dynsection-1';
</script>
<script type="application/ecmascript" xlink:href="svg.min.js"/>
<svg id="graph" class="graph">
<g id="viewport">
<title>fr.softsf.sudokufx.benchmark.BenchGridMaster.measureCreerLesGrilles</title>
<!-- Node1 -->
<g id="Node000001" class="node">
<title>Node1</title>
<g id="a_Node000001"><a xlink:title="Mesure la performance de la méthode creerLesGrilles.">
<polygon fill="#999999" stroke="#666666" points="199.75,-162 0,-162 0,-130 199.75,-130 199.75,-162"/>
<text text-anchor="start" x="8" y="-148.5" font-family="Helvetica,sans-Serif" font-size="10.00">fr.softsf.sudokufx.benchmark.</text>
<text text-anchor="middle" x="99.88" y="-136.5" font-family="Helvetica,sans-Serif" font-size="10.00">BenchGridMaster.measureCreerLesGrilles</text>
</a>
</g>
</g>
<!-- Node2 -->
<g id="Node000002" class="node">
<title>Node2</title>
<g id="a_Node000002"><a xlink:href="classfr_1_1softsf_1_1sudokufx_1_1common_1_1util_1_1sudoku_1_1_grid_master.html#a189b01658ea110e5c7ef6d4797cb7e47" target="_top" xlink:title="Crée une paire de grilles (résolue et à résoudre) en fonction du niveau de difficulté et du pourcenta...">
<polygon fill="white" stroke="#666666" points="422,-162 235.75,-162 235.75,-130 422,-130 422,-162"/>
<text text-anchor="start" x="243.75" y="-148.5" font-family="Helvetica,sans-Serif" font-size="10.00">fr.softsf.sudokufx.common.util.sudoku.</text>
<text text-anchor="middle" x="328.88" y="-136.5" font-family="Helvetica,sans-Serif" font-size="10.00">GridMaster.creerLesGrilles</text>
</a>
</g>
</g>
<!-- Node1&#45;&gt;Node2 -->
<g id="edge1_Node000001_Node000002" class="edge">
<title>Node1&#45;&gt;Node2</title>
<g id="a_edge1_Node000001_Node000002"><a xlink:title=" ">
<path fill="none" stroke="#63b8ff" d="M200.11,-146C207.97,-146 215.91,-146 223.8,-146"/>
<polygon fill="#63b8ff" stroke="#63b8ff" points="223.78,-149.5 233.78,-146 223.78,-142.5 223.78,-149.5"/>
</a>
</g>
</g>
<!-- Node3 -->
<g id="Node000003" class="node">
<title>Node3</title>
<g id="a_Node000003"><a xlink:href="classfr_1_1softsf_1_1sudokufx_1_1common_1_1util_1_1sudoku_1_1_grid_master.html#ae62111abf551659353a37d6eff7fe472" target="_top" xlink:title="Génère une grille de Sudoku à résoudre en masquant des cases selon le niveau de difficulté ou un pour...">
<polygon fill="white" stroke="#666666" points="660.38,-399 474.12,-399 474.12,-367 660.38,-367 660.38,-399"/>
<text text-anchor="start" x="482.12" y="-385.5" font-family="Helvetica,sans-Serif" font-size="10.00">fr.softsf.sudokufx.common.util.sudoku.</text>
<text text-anchor="middle" x="567.25" y="-373.5" font-family="Helvetica,sans-Serif" font-size="10.00">GridMaster.genererLaGrilleAResoudre</text>
</a>
</g>
</g>
<!-- Node2&#45;&gt;Node3 -->
<g id="edge2_Node000002_Node000003" class="edge">
<title>Node2&#45;&gt;Node3</title>
<g id="a_edge2_Node000002_Node000003"><a xlink:title=" ">
<path fill="none" stroke="#63b8ff" d="M346.12,-162.29C386.86,-203.13 493.53,-310.09 541.84,-358.53"/>
<polygon fill="#63b8ff" stroke="#63b8ff" points="539.28,-360.92 548.82,-365.52 544.24,-355.97 539.28,-360.92"/>
</a>
</g>
</g>
<!-- Node22 -->
<g id="Node000022" class="node">
<title>Node22</title>
<g id="a_Node000022"><a xlink:href="classfr_1_1softsf_1_1sudokufx_1_1common_1_1util_1_1sudoku_1_1_grid_master.html#a3307d58848c5c2f12ba5f33c2eb6ebb7" target="_top" xlink:title="Calcule le pourcentage de difficultés basé sur la somme des possibilités.">
<polygon fill="white" stroke="#666666" points="1672.75,-83 1456.5,-83 1456.5,-51 1672.75,-51 1672.75,-83"/>
<text text-anchor="start" x="1464.5" y="-69.5" font-family="Helvetica,sans-Serif" font-size="10.00">fr.softsf.sudokufx.common.util.sudoku.</text>
<text text-anchor="middle" x="1564.62" y="-57.5" font-family="Helvetica,sans-Serif" font-size="10.00">GridMaster.getPourcentageDepuisPossibilites</text>
</a>
</g>
</g>
<!-- Node2&#45;&gt;Node22 -->
<g id="edge30_Node000002_Node000022" class="edge">
<title>Node2&#45;&gt;Node22</title>
<g id="a_edge30_Node000002_Node000022"><a xlink:title=" ">
<path fill="none" stroke="#63b8ff" d="M422.16,-146C521.72,-146 684.9,-146 825.62,-146 825.62,-146 825.62,-146 1083.62,-146 1157.57,-146 1354.92,-109.04 1472.27,-85.68"/>
<polygon fill="#63b8ff" stroke="#63b8ff" points="1472.76,-89.15 1481.89,-83.76 1471.39,-82.29 1472.76,-89.15"/>
</a>
</g>
</g>
<!-- Node23 -->
<g id="Node000023" class="node">
<title>Node23</title>
<g id="a_Node000023"><a xlink:href="namespacefr_1_1softsf_1_1sudokufx_1_1common_1_1util_1_1sudoku.html#a9b767d7f5930ee45e7ce2467faedf322" target="_top" xlink:title="Immutable record representing the dual output of a Sudoku grid generation.">
<polygon fill="white" stroke="#666666" points="660.38,-100 474.12,-100 474.12,-68 660.38,-68 660.38,-100"/>
<text text-anchor="start" x="482.12" y="-86.5" font-family="Helvetica,sans-Serif" font-size="10.00">fr.softsf.sudokufx.common.util.sudoku.</text>
<text text-anchor="middle" x="567.25" y="-74.5" font-family="Helvetica,sans-Serif" font-size="10.00">GrillesCrees</text>
</a>
</g>
</g>
<!-- Node2&#45;&gt;Node23 -->
<g id="edge31_Node000002_Node000023" class="edge">
<title>Node2&#45;&gt;Node23</title>
<g id="a_edge31_Node000002_Node000023"><a xlink:title=" ">
<path fill="none" stroke="#63b8ff" d="M392.6,-129.55C423.31,-121.49 460.48,-111.74 492.54,-103.33"/>
<polygon fill="#63b8ff" stroke="#63b8ff" points="493.39,-106.73 502.18,-100.81 491.62,-99.96 493.39,-106.73"/>
</a>
</g>
</g>
<!-- Node24 -->
<g id="Node000024" class="node">
<title>Node24</title>
<g id="a_Node000024"><a xlink:href="classfr_1_1softsf_1_1sudokufx_1_1common_1_1util_1_1sudoku_1_1_grid_master.html#ac7a6a027f90ee968f0be179797d663cf" target="_top" xlink:title="Remplit aléatoirement la première ligne de la grille avec les chiffres de 1 à 9.">
<polygon fill="white" stroke="#666666" points="676.5,-32 458,-32 458,0 676.5,0 676.5,-32"/>
<text text-anchor="start" x="466" y="-18.5" font-family="Helvetica,sans-Serif" font-size="10.00">fr.softsf.sudokufx.common.util.sudoku.</text>
<text text-anchor="middle" x="567.25" y="-6.5" font-family="Helvetica,sans-Serif" font-size="10.00">GridMaster.remplirPremiereLigneAleatoirement</text>
</a>
</g>
</g>
<!-- Node2&#45;&gt;Node24 -->
<g id="edge33_Node000002_Node000024" class="edge">
<title>Node2&#45;&gt;Node24</title>
<g id="a_edge33_Node000002_Node000024"><a xlink:title=" ">
<path fill="none" stroke="#63b8ff" d="M350.74,-129.72C375.38,-111.01 418.09,-80.15 458,-59 473.68,-50.69 491.34,-43.02 507.77,-36.53"/>
<polygon fill="#63b8ff" stroke="#63b8ff" points="508.87,-39.86 516.94,-32.99 506.35,-33.33 508.87,-39.86"/>
</a>
</g>
</g>
<!-- Node25 -->
<g id="Node000025" class="node">
<title>Node25</title>
<g id="a_Node000025"><a xlink:href="classfr_1_1softsf_1_1sudokufx_1_1common_1_1util_1_1sudoku_1_1_grid_master.html#a94424450acb912e32c7548e6659b617a" target="_top" xlink:title="Tente de résoudre la grille de Sudoku fournie en utilisant un algorithme de backtracking optimisé (pr...">
<polygon fill="white" stroke="#666666" points="1415.62,-206 1229.38,-206 1229.38,-174 1415.62,-174 1415.62,-206"/>
<text text-anchor="start" x="1237.38" y="-192.5" font-family="Helvetica,sans-Serif" font-size="10.00">fr.softsf.sudokufx.common.util.sudoku.</text>
<text text-anchor="middle" x="1322.5" y="-180.5" font-family="Helvetica,sans-Serif" font-size="10.00">GridMaster.resoudreLaGrille</text>
</a>
</g>
</g>
<!-- Node2&#45;&gt;Node25 -->
<g id="edge35_Node000002_Node000025" class="edge">
<title>Node2&#45;&gt;Node25</title>
<g id="a_edge35_Node000002_Node000025"><a xlink:title=" ">
<path fill="none" stroke="#63b8ff" d="M422.18,-156.91C434.22,-158.09 446.39,-159.17 458,-160 731.77,-179.69 1055.34,-186.56 1217.65,-188.88"/>
<polygon fill="#63b8ff" stroke="#63b8ff" points="1217.49,-192.37 1227.54,-189.01 1217.59,-185.37 1217.49,-192.37"/>
</a>
</g>
</g>
<!-- Node4 -->
<g id="Node000004" class="node">
<title>Node4</title>
<g id="a_Node000004"><a xlink:href="classfr_1_1softsf_1_1sudokufx_1_1common_1_1util_1_1sudoku_1_1_grid_master.html#af2d45060700f699fc8517cdf138bc7c2" target="_top" xlink:title="Calcule la valeur supérieure du segment actuel en fonction du pas d&#39;incrémentation.">
<polygon fill="white" stroke="#666666" points="939.62,-574 713.62,-574 713.62,-542 939.62,-542 939.62,-574"/>
<text text-anchor="start" x="721.62" y="-560.5" font-family="Helvetica,sans-Serif" font-size="10.00">fr.softsf.sudokufx.common.util.sudoku.</text>
<text text-anchor="middle" x="826.62" y="-548.5" font-family="Helvetica,sans-Serif" font-size="10.00">GridMaster.calculerValeurSuperieureDuSegment</text>
</a>
</g>
</g>
<!-- Node3&#45;&gt;Node4 -->
<g id="edge3_Node000003_Node000004" class="edge">
<title>Node3&#45;&gt;Node4</title>
<g id="a_edge3_Node000003_Node000004"><a xlink:title=" ">
<path fill="none" stroke="#63b8ff" d="M578.78,-399.1C600.05,-430.25 651.37,-498.71 712.5,-533 715.03,-534.42 717.64,-535.76 720.3,-537.02"/>
<polygon fill="#63b8ff" stroke="#63b8ff" points="718.87,-540.22 729.44,-540.94 721.63,-533.78 718.87,-540.22"/>
</a>
</g>
</g>
<!-- Node6 -->
<g id="Node000006" class="node">
<title>Node6</title>
<g id="a_Node000006"><a xlink:href="enumfr_1_1softsf_1_1sudokufx_1_1common_1_1enums_1_1_difficulty_level.html#a7df76231e8b2c4e2180213007891b807" target="_top" xlink:title="Resolves a DifficultyLevel from its byte representation.">
<polygon fill="white" stroke="#666666" points="910.75,-524 742.5,-524 742.5,-492 910.75,-492 910.75,-524"/>
<text text-anchor="start" x="750.5" y="-510.5" font-family="Helvetica,sans-Serif" font-size="10.00">fr.softsf.sudokufx.common.enums.</text>
<text text-anchor="middle" x="826.62" y="-498.5" font-family="Helvetica,sans-Serif" font-size="10.00">DifficultyLevel.fromGridByte</text>
</a>
</g>
</g>
<!-- Node3&#45;&gt;Node6 -->
<g id="edge5_Node000003_Node000006" class="edge">
<title>Node3&#45;&gt;Node6</title>
<g id="a_edge5_Node000003_Node000006"><a xlink:title=" ">
<path fill="none" stroke="#63b8ff" d="M586.42,-399.15C612.47,-421.42 662.79,-461.29 712.5,-483 718.52,-485.63 724.85,-488 731.31,-490.12"/>
<polygon fill="#63b8ff" stroke="#63b8ff" points="730.23,-493.45 740.82,-493.04 732.28,-486.76 730.23,-493.45"/>
</a>
</g>
</g>
<!-- Node7 -->
<g id="Node000007" class="node">
<title>Node7</title>
<g id="a_Node000007"><a xlink:href="classfr_1_1softsf_1_1sudokufx_1_1common_1_1util_1_1sudoku_1_1_grid_master.html#a409da4117c58966b842279006d9546dd" target="_top" xlink:title="Récupère l&#39;intervalle de pourcentages autorisé pour un niveau de difficulté donné.">
<polygon fill="white" stroke="#666666" points="929.5,-424 723.75,-424 723.75,-392 929.5,-392 929.5,-424"/>
<text text-anchor="start" x="731.75" y="-410.5" font-family="Helvetica,sans-Serif" font-size="10.00">fr.softsf.sudokufx.common.util.sudoku.</text>
<text text-anchor="middle" x="826.62" y="-398.5" font-family="Helvetica,sans-Serif" font-size="10.00">GridMaster.getIntervallePourcentageNiveau</text>
</a>
</g>
</g>
<!-- Node3&#45;&gt;Node7 -->
<g id="edge6_Node000003_Node000007" class="edge">
<title>Node3&#45;&gt;Node7</title>
<g id="a_edge6_Node000003_Node000007"><a xlink:title=" ">
<path fill="none" stroke="#63b8ff" d="M660.8,-391.99C677.47,-393.61 695.02,-395.31 712.2,-396.98"/>
<polygon fill="#63b8ff" stroke="#63b8ff" points="711.63,-400.44 721.92,-397.93 712.31,-393.48 711.63,-400.44"/>
</a>
</g>
</g>
<!-- Node8 -->
<g id="Node000008" class="node">
<title>Node8</title>
<g id="a_Node000008"><a xlink:href="classfr_1_1softsf_1_1sudokufx_1_1common_1_1util_1_1sudoku_1_1_grid_master.html#a7da72c06bb28816dc19695add4cbdb27" target="_top" xlink:title="Calcule la somme des possibilités basée sur un pourcentage de difficulté.">
<polygon fill="white" stroke="#666666" points="934.75,-474 718.5,-474 718.5,-442 934.75,-442 934.75,-474"/>
<text text-anchor="start" x="726.5" y="-460.5" font-family="Helvetica,sans-Serif" font-size="10.00">fr.softsf.sudokufx.common.util.sudoku.</text>
<text text-anchor="middle" x="826.62" y="-448.5" font-family="Helvetica,sans-Serif" font-size="10.00">GridMaster.getPossibilitesDepuisPourcentage</text>
</a>
</g>
</g>
<!-- Node3&#45;&gt;Node8 -->
<g id="edge8_Node000003_Node000008" class="edge">
<title>Node3&#45;&gt;Node8</title>
<g id="a_edge8_Node000003_Node000008"><a xlink:title=" ">
<path fill="none" stroke="#63b8ff" d="M611.39,-399.43C639.84,-409.89 678.07,-423.26 712.5,-433 719.65,-435.02 727.1,-436.98 734.6,-438.85"/>
<polygon fill="#63b8ff" stroke="#63b8ff" points="733.59,-442.21 744.14,-441.18 735.25,-435.41 733.59,-442.21"/>
</a>
</g>
</g>
<!-- Node9 -->
<g id="Node000009" class="node">
<title>Node9</title>
<g id="a_Node000009"><a xlink:href="classfr_1_1softsf_1_1sudokufx_1_1common_1_1util_1_1sudoku_1_1_grid_master.html#ad31ef7f7a7317855025cfc0d38e53f57" target="_top" xlink:title="Génère une grille de Sudoku de niveau difficile.">
<polygon fill="white" stroke="#666666" points="925.38,-262 727.88,-262 727.88,-218 925.38,-218 925.38,-262"/>
<text text-anchor="start" x="735.88" y="-248.5" font-family="Helvetica,sans-Serif" font-size="10.00">fr.softsf.sudokufx.common.util.sudoku.</text>
<text text-anchor="start" x="735.88" y="-236.5" font-family="Helvetica,sans-Serif" font-size="10.00">GridMaster.getPossibilitesGrilleAresoudre</text>
<text text-anchor="middle" x="826.62" y="-224.5" font-family="Helvetica,sans-Serif" font-size="10.00">Difficile</text>
</a>
</g>
</g>
<!-- Node3&#45;&gt;Node9 -->
<g id="edge9_Node000003_Node000009" class="edge">
<title>Node3&#45;&gt;Node9</title>
<g id="a_edge9_Node000003_Node000009"><a xlink:title=" ">
<path fill="none" stroke="#63b8ff" d="M584.5,-366.81C609.76,-342.53 660.89,-296.82 712.5,-271 715.54,-269.48 718.67,-268.02 721.86,-266.63"/>
<polygon fill="#63b8ff" stroke="#63b8ff" points="722.88,-269.99 730.82,-262.98 720.24,-263.51 722.88,-269.99"/>
</a>
</g>
</g>
<!-- Node20 -->
<g id="Node000020" class="node">
<title>Node20</title>
<g id="a_Node000020"><a xlink:href="classfr_1_1softsf_1_1sudokufx_1_1common_1_1util_1_1sudoku_1_1_grid_master.html#ae83c327f3d5249d60832f189c5365c4d" target="_top" xlink:title="Génère une grille de Sudoku de niveau moyen.">
<polygon fill="white" stroke="#666666" points="940.75,-374 712.5,-374 712.5,-342 940.75,-342 940.75,-374"/>
<text text-anchor="start" x="720.5" y="-360.5" font-family="Helvetica,sans-Serif" font-size="10.00">fr.softsf.sudokufx.common.util.sudoku.</text>
<text text-anchor="middle" x="826.62" y="-348.5" font-family="Helvetica,sans-Serif" font-size="10.00">GridMaster.getPossibilitesGrilleAResoudreFacile</text>
</a>
</g>
</g>
<!-- Node3&#45;&gt;Node20 -->
<g id="edge26_Node000003_Node000020" class="edge">
<title>Node3&#45;&gt;Node20</title>
<g id="a_edge26_Node000003_Node000020"><a xlink:title=" ">
<path fill="none" stroke="#63b8ff" d="M660.8,-374.01C673.87,-372.74 687.47,-371.42 701.01,-370.1"/>
<polygon fill="#63b8ff" stroke="#63b8ff" points="701.23,-373.6 710.85,-369.15 700.56,-366.63 701.23,-373.6"/>
</a>
</g>
</g>
<!-- Node21 -->
<g id="Node000021" class="node">
<title>Node21</title>
<g id="a_Node000021"><a xlink:href="classfr_1_1softsf_1_1sudokufx_1_1common_1_1util_1_1sudoku_1_1_grid_master.html#ad39a6631de24a15e6bd8e3f71279e758" target="_top" xlink:title="Génère une grille de Sudoku de niveau moyen.">
<polygon fill="white" stroke="#666666" points="927.62,-324 725.62,-324 725.62,-280 927.62,-280 927.62,-324"/>
<text text-anchor="start" x="733.62" y="-310.5" font-family="Helvetica,sans-Serif" font-size="10.00">fr.softsf.sudokufx.common.util.sudoku.</text>
<text text-anchor="start" x="733.62" y="-298.5" font-family="Helvetica,sans-Serif" font-size="10.00">GridMaster.getPossibilitesGrilleAResoudre</text>
<text text-anchor="middle" x="826.62" y="-286.5" font-family="Helvetica,sans-Serif" font-size="10.00">Moyenne</text>
</a>
</g>
</g>
<!-- Node3&#45;&gt;Node21 -->
<g id="edge28_Node000003_Node000021" class="edge">
<title>Node3&#45;&gt;Node21</title>
<g id="a_edge28_Node000003_Node000021"><a xlink:title=" ">
<path fill="none" stroke="#63b8ff" d="M613.15,-366.58C641.49,-356.43 678.96,-343.4 712.5,-333 718.27,-331.21 724.23,-329.42 730.25,-327.65"/>
<polygon fill="#63b8ff" stroke="#63b8ff" points="731.04,-331.06 739.67,-324.92 729.09,-324.34 731.04,-331.06"/>
</a>
</g>
</g>
<!-- Node5 -->
<g id="Node000005" class="node">
<title>Node5</title>
<g id="a_Node000005"><a xlink:href="namespacefr_1_1softsf_1_1sudokufx_1_1common_1_1util_1_1sudoku.html#adc44f4bbb0133e984077a0acaf24cf55" target="_top" xlink:title="Immutable container for level&#45;specific possibility boundaries.">
<polygon fill="white" stroke="#666666" points="1175.75,-433 989.5,-433 989.5,-401 1175.75,-401 1175.75,-433"/>
<text text-anchor="start" x="997.5" y="-419.5" font-family="Helvetica,sans-Serif" font-size="10.00">fr.softsf.sudokufx.common.util.sudoku.</text>
<text text-anchor="middle" x="1082.62" y="-407.5" font-family="Helvetica,sans-Serif" font-size="10.00">LevelPossibilityBounds</text>
</a>
</g>
</g>
<!-- Node4&#45;&gt;Node5 -->
<g id="edge4_Node000004_Node000005" class="edge">
<title>Node4&#45;&gt;Node5</title>
<g id="a_edge4_Node000004_Node000005"><a xlink:title=" ">
<path fill="none" stroke="#63b8ff" d="M919.65,-541.57C926.94,-539.1 934.06,-536.26 940.75,-533 988.04,-509.97 1033.25,-468.02 1059.18,-441.38"/>
<polygon fill="#63b8ff" stroke="#63b8ff" points="1061.47,-444.05 1065.85,-434.4 1056.41,-439.21 1061.47,-444.05"/>
</a>
</g>
</g>
<!-- Node7&#45;&gt;Node5 -->
<g id="edge7_Node000007_Node000005" class="edge">
<title>Node7&#45;&gt;Node5</title>
<g id="a_edge7_Node000007_Node000005"><a xlink:title=" ">
<path fill="none" stroke="#63b8ff" d="M929.84,-411.62C945.59,-412.18 961.87,-412.76 977.66,-413.32"/>
<polygon fill="#63b8ff" stroke="#63b8ff" points="977.43,-416.81 987.54,-413.67 977.67,-409.81 977.43,-416.81"/>
</a>
</g>
</g>
<!-- Node10 -->
<g id="Node000010" class="node">
<title>Node10</title>
<g id="a_Node000010"><a xlink:href="classfr_1_1softsf_1_1sudokufx_1_1common_1_1util_1_1sudoku_1_1_grid_master.html#af6461bfbf866d4c2ed591179e96eb56b" target="_top" xlink:title="Génère une grille de Sudoku avec un masquage aléatoire borné selon la difficulté.">
<polygon fill="white" stroke="#666666" points="1188.5,-360 976.75,-360 976.75,-328 1188.5,-328 1188.5,-360"/>
<text text-anchor="start" x="984.75" y="-346.5" font-family="Helvetica,sans-Serif" font-size="10.00">fr.softsf.sudokufx.common.util.sudoku.</text>
<text text-anchor="middle" x="1082.62" y="-334.5" font-family="Helvetica,sans-Serif" font-size="10.00">GridMaster.genererGrilleAvecCasesCachees</text>
</a>
</g>
</g>
<!-- Node9&#45;&gt;Node10 -->
<g id="edge10_Node000009_Node000010" class="edge">
<title>Node9&#45;&gt;Node10</title>
<g id="a_edge10_Node000009_Node000010"><a xlink:title=" ">
<path fill="none" stroke="#63b8ff" d="M916.52,-262.43C924.79,-265.1 932.97,-267.96 940.75,-271 977.19,-285.25 1016.57,-306.16 1044.4,-321.96"/>
<polygon fill="#63b8ff" stroke="#63b8ff" points="1042.38,-324.83 1052.79,-326.77 1045.86,-318.76 1042.38,-324.83"/>
</a>
</g>
</g>
<!-- Node10&#45;&gt;Node10 -->
<g id="edge11_Node000010_Node000010" class="edge">
<title>Node10&#45;&gt;Node10</title>
<g id="a_edge11_Node000010_Node000010"><a xlink:title=" ">
<path fill="none" stroke="#63b8ff" d="M1039.8,-360.44C1031.81,-369.58 1046.08,-378 1082.62,-378 1102.9,-378 1116.31,-375.41 1122.88,-371.54"/>
<polygon fill="#63b8ff" stroke="#63b8ff" points="1126.26,-372.45 1125.11,-361.92 1119.44,-370.87 1126.26,-372.45"/>
</a>
</g>
</g>
<!-- Node11 -->
<g id="Node000011" class="node">
<title>Node11</title>
<g id="a_Node000011"><a xlink:href="classfr_1_1softsf_1_1sudokufx_1_1common_1_1util_1_1sudoku_1_1_grid_master.html#aeed90a968624e9b7ccb44958df9ae821" target="_top" xlink:title="Calcule les possibilités pour chaque case de la grille de Sudoku.">
<polygon fill="white" stroke="#666666" points="1657.75,-399 1471.5,-399 1471.5,-367 1657.75,-367 1657.75,-399"/>
<text text-anchor="start" x="1479.5" y="-385.5" font-family="Helvetica,sans-Serif" font-size="10.00">fr.softsf.sudokufx.common.util.sudoku.</text>
<text text-anchor="middle" x="1564.62" y="-373.5" font-family="Helvetica,sans-Serif" font-size="10.00">GridMaster.getPossibilites</text>
</a>
</g>
</g>
<!-- Node10&#45;&gt;Node11 -->
<g id="edge12_Node000010_Node000011" class="edge">
<title>Node10&#45;&gt;Node11</title>
<g id="a_edge12_Node000010_Node000011"><a xlink:title=" ">
<path fill="none" stroke="#63b8ff" d="M1188.96,-352.56C1269.48,-359.1 1379.91,-368.07 1460,-374.58"/>
<polygon fill="#63b8ff" stroke="#63b8ff" points="1459.33,-378.04 1469.58,-375.36 1459.9,-371.06 1459.33,-378.04"/>
</a>
</g>
</g>
<!-- Node14 -->
<g id="Node000014" class="node">
<title>Node14</title>
<g id="a_Node000014"><a xlink:href="classfr_1_1softsf_1_1sudokufx_1_1common_1_1util_1_1sudoku_1_1_grid_master.html#a7b8b865b518ad50e3d77814a16bf9634" target="_top" xlink:title="Cache des cases dans la grille et calcule la somme des possibilités restantes.">
<polygon fill="white" stroke="#666666" points="1420.5,-442 1224.5,-442 1224.5,-410 1420.5,-410 1420.5,-442"/>
<text text-anchor="start" x="1232.5" y="-428.5" font-family="Helvetica,sans-Serif" font-size="10.00">fr.softsf.sudokufx.common.util.sudoku.</text>
<text text-anchor="middle" x="1322.5" y="-416.5" font-family="Helvetica,sans-Serif" font-size="10.00">GridMaster.getPossibilitesGrilleWhileNok</text>
</a>
</g>
</g>
<!-- Node10&#45;&gt;Node14 -->
<g id="edge15_Node000010_Node000014" class="edge">
<title>Node10&#45;&gt;Node14</title>
<g id="a_edge15_Node000010_Node000014"><a xlink:title=" ">
<path fill="none" stroke="#63b8ff" d="M1131.48,-360.5C1169.38,-373.56 1222.5,-391.87 1262.94,-405.81"/>
<polygon fill="#63b8ff" stroke="#63b8ff" points="1261.7,-409.09 1272.29,-409.04 1263.98,-402.47 1261.7,-409.09"/>
</a>
</g>
</g>
<!-- Node17 -->
<g id="Node000017" class="node">
<title>Node17</title>
<g id="a_Node000017"><a xlink:href="classfr_1_1softsf_1_1sudokufx_1_1common_1_1util_1_1sudoku_1_1_grid_master.html#aa3aa3945ebc4549be49be1e0c481f9da" target="_top" xlink:title="Vérifie l&#39;unicité par backtracking en utilisant la propagation de contraintes.">
<polygon fill="white" stroke="#666666" points="1657.75,-331 1471.5,-331 1471.5,-299 1657.75,-299 1657.75,-331"/>
<text text-anchor="start" x="1479.5" y="-317.5" font-family="Helvetica,sans-Serif" font-size="10.00">fr.softsf.sudokufx.common.util.sudoku.</text>
<text text-anchor="middle" x="1564.62" y="-305.5" font-family="Helvetica,sans-Serif" font-size="10.00">GridMaster.verifierUnicite</text>
</a>
</g>
</g>
<!-- Node10&#45;&gt;Node17 -->
<g id="edge20_Node000010_Node000017" class="edge">
<title>Node10&#45;&gt;Node17</title>
<g id="a_edge20_Node000010_Node000017"><a xlink:title=" ">
<path fill="none" stroke="#63b8ff" d="M1188.96,-337.64C1269.48,-332.77 1379.91,-326.1 1460,-321.26"/>
<polygon fill="#63b8ff" stroke="#63b8ff" points="1459.81,-324.78 1469.58,-320.68 1459.39,-317.79 1459.81,-324.78"/>
</a>
</g>
</g>
<!-- Node12 -->
<g id="Node000012" class="node">
<title>Node12</title>
<g id="a_Node000012"><a xlink:href="classfr_1_1softsf_1_1sudokufx_1_1common_1_1util_1_1sudoku_1_1_grid_master.html#a27aa242e0289c28db22cd6caa98aec06" target="_top" xlink:title="Initialise le tableau des possibilités pour chaque case.">
<polygon fill="white" stroke="#666666" points="1921.62,-419 1735.38,-419 1735.38,-387 1921.62,-387 1921.62,-419"/>
<text text-anchor="start" x="1743.38" y="-405.5" font-family="Helvetica,sans-Serif" font-size="10.00">fr.softsf.sudokufx.common.util.sudoku.</text>
<text text-anchor="middle" x="1828.5" y="-393.5" font-family="Helvetica,sans-Serif" font-size="10.00">GridMaster.initialiserPossibilites</text>
</a>
</g>
</g>
<!-- Node11&#45;&gt;Node12 -->
<g id="edge13_Node000011_Node000012" class="edge">
<title>Node11&#45;&gt;Node12</title>
<g id="a_edge13_Node000011_Node000012"><a xlink:title=" ">
<path fill="none" stroke="#63b8ff" d="M1657.95,-390.05C1679.27,-391.68 1702.09,-393.42 1723.85,-395.08"/>
<polygon fill="#63b8ff" stroke="#63b8ff" points="1723.38,-398.56 1733.61,-395.83 1723.91,-391.58 1723.38,-398.56"/>
</a>
</g>
</g>
<!-- Node13 -->
<g id="Node000013" class="node">
<title>Node13</title>
<g id="a_Node000013"><a xlink:href="classfr_1_1softsf_1_1sudokufx_1_1common_1_1util_1_1sudoku_1_1_grid_master.html#a6f8a7a32d9421be5ec0e87fab69bb351" target="_top" xlink:title="Élimine la valeur des possibilités des cases voisines (ligne, colonne, carré).">
<polygon fill="white" stroke="#666666" points="2170.5,-375 1984.25,-375 1984.25,-343 2170.5,-343 2170.5,-375"/>
<text text-anchor="start" x="1992.25" y="-361.5" font-family="Helvetica,sans-Serif" font-size="10.00">fr.softsf.sudokufx.common.util.sudoku.</text>
<text text-anchor="middle" x="2077.38" y="-349.5" font-family="Helvetica,sans-Serif" font-size="10.00">GridMaster.eliminerPossibilite</text>
</a>
</g>
</g>
<!-- Node12&#45;&gt;Node13 -->
<g id="edge14_Node000012_Node000013" class="edge">
<title>Node12&#45;&gt;Node13</title>
<g id="a_edge14_Node000012_Node000013"><a xlink:title=" ">
<path fill="none" stroke="#63b8ff" d="M1921.78,-386.55C1938.41,-383.59 1955.84,-380.48 1972.76,-377.47"/>
<polygon fill="#63b8ff" stroke="#63b8ff" points="1973.08,-380.97 1982.31,-375.77 1971.85,-374.07 1973.08,-380.97"/>
</a>
</g>
</g>
<!-- Node14&#45;&gt;Node11 -->
<g id="edge18_Node000014_Node000011" class="edge">
<title>Node14&#45;&gt;Node11</title>
<g id="a_edge18_Node000014_Node000011"><a xlink:title=" ">
<path fill="none" stroke="#63b8ff" d="M1415.31,-409.56C1430.22,-406.89 1445.76,-404.11 1460.91,-401.39"/>
<polygon fill="#63b8ff" stroke="#63b8ff" points="1461.15,-404.91 1470.38,-399.7 1459.92,-398.02 1461.15,-404.91"/>
</a>
</g>
</g>
<!-- Node15 -->
<g id="Node000015" class="node">
<title>Node15</title>
<g id="a_Node000015"><a xlink:href="classfr_1_1softsf_1_1sudokufx_1_1common_1_1util_1_1sudoku_1_1_grid_master.html#aedafc76e589c715c380e2732e0ff04d2" target="_top" xlink:title="Cache un nombre spécifié de cases dans la grille en les remplaçant par zéro.">
<polygon fill="white" stroke="#666666" points="1657.75,-499 1471.5,-499 1471.5,-467 1657.75,-467 1657.75,-499"/>
<text text-anchor="start" x="1479.5" y="-485.5" font-family="Helvetica,sans-Serif" font-size="10.00">fr.softsf.sudokufx.common.util.sudoku.</text>
<text text-anchor="middle" x="1564.62" y="-473.5" font-family="Helvetica,sans-Serif" font-size="10.00">GridMaster.cacherLesCases</text>
</a>
</g>
</g>
<!-- Node14&#45;&gt;Node15 -->
<g id="edge16_Node000014_Node000015" class="edge">
<title>Node14&#45;&gt;Node15</title>
<g id="a_edge16_Node000014_Node000015"><a xlink:title=" ">
<path fill="none" stroke="#63b8ff" d="M1391.48,-442.45C1412.33,-447.47 1435.36,-452.99 1456.5,-458 1464.64,-459.93 1473.13,-461.93 1481.61,-463.92"/>
<polygon fill="#63b8ff" stroke="#63b8ff" points="1480.72,-467.31 1491.26,-466.18 1482.32,-460.49 1480.72,-467.31"/>
</a>
</g>
</g>
<!-- Node16 -->
<g id="Node000016" class="node">
<title>Node16</title>
<g id="a_Node000016"><a xlink:href="classfr_1_1softsf_1_1sudokufx_1_1common_1_1util_1_1sudoku_1_1_grid_master.html#aa9fd5688b3effcfb97c226e04a5ff380" target="_top" xlink:title="Calcule la somme des possibilités de toutes les cases de la grille de Sudoku.">
<polygon fill="white" stroke="#666666" points="1671.25,-449 1458,-449 1458,-417 1671.25,-417 1671.25,-449"/>
<text text-anchor="start" x="1466" y="-435.5" font-family="Helvetica,sans-Serif" font-size="10.00">fr.softsf.sudokufx.common.util.sudoku.</text>
<text text-anchor="middle" x="1564.62" y="-423.5" font-family="Helvetica,sans-Serif" font-size="10.00">GridMaster.sommeDesPossibilitesDeLaGrille</text>
</a>
</g>
</g>
<!-- Node14&#45;&gt;Node16 -->
<g id="edge19_Node000014_Node000016" class="edge">
<title>Node14&#45;&gt;Node16</title>
<g id="a_edge19_Node000014_Node000016"><a xlink:title=" ">
<path fill="none" stroke="#63b8ff" d="M1420.82,-428.84C1429.13,-429.08 1437.6,-429.33 1446.04,-429.57"/>
<polygon fill="#63b8ff" stroke="#63b8ff" points="1445.93,-433.07 1456.02,-429.86 1446.13,-426.07 1445.93,-433.07"/>
</a>
</g>
</g>
<!-- Node15&#45;&gt;Node15 -->
<g id="edge17_Node000015_Node000015" class="edge">
<title>Node15&#45;&gt;Node15</title>
<g id="a_edge17_Node000015_Node000015"><a xlink:title=" ">
<path fill="none" stroke="#63b8ff" d="M1521.4,-499.44C1513.33,-508.58 1527.74,-517 1564.62,-517 1585.09,-517 1598.63,-514.41 1605.26,-510.54"/>
<polygon fill="#63b8ff" stroke="#63b8ff" points="1608.64,-511.45 1607.51,-500.92 1601.82,-509.86 1608.64,-511.45"/>
</a>
</g>
</g>
<!-- Node17&#45;&gt;Node13 -->
<g id="edge23_Node000017_Node000013" class="edge">
<title>Node17&#45;&gt;Node13</title>
<g id="a_edge23_Node000017_Node000013"><a xlink:title=" ">
<path fill="none" stroke="#63b8ff" d="M1649.76,-331.45C1669.08,-334.74 1689.57,-337.84 1708.75,-340 1797.55,-350.01 1899.01,-354.76 1972.82,-357"/>
<polygon fill="#63b8ff" stroke="#63b8ff" points="1972.35,-360.49 1982.45,-357.28 1972.56,-353.49 1972.35,-360.49"/>
</a>
</g>
</g>
<!-- Node17&#45;&gt;Node17 -->
<g id="edge25_Node000017_Node000017" class="edge">
<title>Node17&#45;&gt;Node17</title>
<g id="a_edge25_Node000017_Node000017"><a xlink:title=" ">
<path fill="none" stroke="#63b8ff" d="M1521.4,-331.44C1513.33,-340.58 1527.74,-349 1564.62,-349 1585.09,-349 1598.63,-346.41 1605.26,-342.54"/>
<polygon fill="#63b8ff" stroke="#63b8ff" points="1608.64,-343.45 1607.51,-332.92 1601.82,-341.86 1608.64,-343.45"/>
</a>
</g>
</g>
<!-- Node18 -->
<g id="Node000018" class="node">
<title>Node18</title>
<g id="a_Node000018"><a xlink:href="classfr_1_1softsf_1_1sudokufx_1_1common_1_1util_1_1sudoku_1_1_grid_master.html#a3f17ab078f894717a1f3dfaffed0b987" target="_top" xlink:title="Choisit une valeur aléatoire parmi les possibilités données.">
<polygon fill="white" stroke="#666666" points="1921.62,-263 1735.38,-263 1735.38,-231 1921.62,-231 1921.62,-263"/>
<text text-anchor="start" x="1743.38" y="-249.5" font-family="Helvetica,sans-Serif" font-size="10.00">fr.softsf.sudokufx.common.util.sudoku.</text>
<text text-anchor="middle" x="1828.5" y="-237.5" font-family="Helvetica,sans-Serif" font-size="10.00">GridMaster.choisirValeurAleatoire</text>
</a>
</g>
</g>
<!-- Node17&#45;&gt;Node18 -->
<g id="edge21_Node000017_Node000018" class="edge">
<title>Node17&#45;&gt;Node18</title>
<g id="a_edge21_Node000017_Node000018"><a xlink:title=" ">
<path fill="none" stroke="#63b8ff" d="M1638.04,-298.53C1649.67,-295.76 1661.56,-292.86 1672.75,-290 1701.24,-282.72 1732.53,-274.14 1759.46,-266.57"/>
<polygon fill="#63b8ff" stroke="#63b8ff" points="1760.2,-270 1768.87,-263.91 1758.3,-263.26 1760.2,-270"/>
</a>
</g>
</g>
<!-- Node19 -->
<g id="Node000019" class="node">
<title>Node19</title>
<g id="a_Node000019"><a xlink:href="classfr_1_1softsf_1_1sudokufx_1_1common_1_1util_1_1sudoku_1_1_grid_master.html#a973a5ac2260605b8a260934b7e68373d" target="_top" xlink:title="Trouve la case vide avec le moins de possibilités.">
<polygon fill="white" stroke="#666666" points="1948.25,-331 1708.75,-331 1708.75,-299 1948.25,-299 1948.25,-331"/>
<text text-anchor="start" x="1716.75" y="-317.5" font-family="Helvetica,sans-Serif" font-size="10.00">fr.softsf.sudokufx.common.util.sudoku.</text>
<text text-anchor="middle" x="1828.5" y="-305.5" font-family="Helvetica,sans-Serif" font-size="10.00">GridMaster.laCaseVideAvecLeMoinsDePossibilites</text>
</a>
</g>
</g>
<!-- Node17&#45;&gt;Node19 -->
<g id="edge24_Node000017_Node000019" class="edge">
<title>Node17&#45;&gt;Node19</title>
<g id="a_edge24_Node000017_Node000019"><a xlink:title=" ">
<path fill="none" stroke="#63b8ff" d="M1657.95,-315C1670.72,-315 1684.03,-315 1697.33,-315"/>
<polygon fill="#63b8ff" stroke="#63b8ff" points="1696.97,-318.5 1706.97,-315 1696.97,-311.5 1696.97,-318.5"/>
</a>
</g>
</g>
<!-- Node18&#45;&gt;Node18 -->
<g id="edge22_Node000018_Node000018" class="edge">
<title>Node18&#45;&gt;Node18</title>
<g id="a_edge22_Node000018_Node000018"><a xlink:title=" ">
<path fill="none" stroke="#63b8ff" d="M1784.07,-263.44C1775.78,-272.58 1790.59,-281 1828.5,-281 1849.53,-281 1863.45,-278.41 1870.27,-274.54"/>
<polygon fill="#63b8ff" stroke="#63b8ff" points="1873.65,-275.46 1872.58,-264.91 1866.84,-273.82 1873.65,-275.46"/>
</a>
</g>
</g>
<!-- Node20&#45;&gt;Node10 -->
<g id="edge27_Node000020_Node000010" class="edge">
<title>Node20&#45;&gt;Node10</title>
<g id="a_edge27_Node000020_Node000010"><a xlink:title=" ">
<path fill="none" stroke="#63b8ff" d="M940.88,-351.76C948.88,-351.32 956.96,-350.87 964.98,-350.43"/>
<polygon fill="#63b8ff" stroke="#63b8ff" points="964.97,-353.94 974.76,-349.89 964.58,-346.95 964.97,-353.94"/>
</a>
</g>
</g>
<!-- Node21&#45;&gt;Node10 -->
<g id="edge29_Node000021_Node000010" class="edge">
<title>Node21&#45;&gt;Node10</title>
<g id="a_edge29_Node000021_Node000010"><a xlink:title=" ">
<path fill="none" stroke="#63b8ff" d="M928.01,-318.6C942.02,-320.92 956.48,-323.31 970.66,-325.65"/>
<polygon fill="#63b8ff" stroke="#63b8ff" points="970.04,-329.1 980.47,-327.27 971.18,-322.19 970.04,-329.1"/>
</a>
</g>
</g>
<!-- Node23&#45;&gt;Node23 -->
<g id="edge32_Node000023_Node000023" class="edge">
<title>Node23&#45;&gt;Node23</title>
<g id="a_edge32_Node000023_Node000023"><a xlink:title=" ">
<path fill="none" stroke="#63b8ff" d="M524.69,-100.44C516.75,-109.58 530.94,-118 567.25,-118 587.39,-118 600.73,-115.41 607.25,-111.54"/>
<polygon fill="#63b8ff" stroke="#63b8ff" points="610.64,-112.45 609.47,-101.92 603.82,-110.88 610.64,-112.45"/>
</a>
</g>
</g>
<!-- Node24&#45;&gt;Node24 -->
<g id="edge34_Node000024_Node000024" class="edge">
<title>Node24&#45;&gt;Node24</title>
<g id="a_edge34_Node000024_Node000024"><a xlink:title=" ">
<path fill="none" stroke="#63b8ff" d="M524.69,-32.44C516.75,-41.58 530.94,-50 567.25,-50 587.39,-50 600.73,-47.41 607.25,-43.54"/>
<polygon fill="#63b8ff" stroke="#63b8ff" points="610.64,-44.45 609.47,-33.92 603.82,-42.88 610.64,-44.45"/>
</a>
</g>
</g>
<!-- Node25&#45;&gt;Node11 -->
<g id="edge36_Node000025_Node000011" class="edge">
<title>Node25&#45;&gt;Node11</title>
<g id="a_edge36_Node000025_Node000011"><a xlink:title=" ">
<path fill="none" stroke="#63b8ff" d="M1331.58,-206.4C1349.21,-240.42 1394.61,-318.75 1456.5,-358 1458.52,-359.28 1460.59,-360.49 1462.71,-361.64"/>
<polygon fill="#63b8ff" stroke="#63b8ff" points="1461.07,-364.74 1471.59,-365.93 1464.11,-358.43 1461.07,-364.74"/>
</a>
</g>
</g>
<!-- Node25&#45;&gt;Node16 -->
<g id="edge45_Node000025_Node000016" class="edge">
<title>Node25&#45;&gt;Node16</title>
<g id="a_edge45_Node000025_Node000016"><a xlink:title=" ">
<path fill="none" stroke="#63b8ff" d="M1328.56,-206.47C1342.07,-247.51 1383.03,-354.87 1456.5,-408 1458.04,-409.12 1459.63,-410.18 1461.25,-411.2"/>
<polygon fill="#63b8ff" stroke="#63b8ff" points="1459.13,-414.03 1469.57,-415.81 1462.52,-407.91 1459.13,-414.03"/>
</a>
</g>
</g>
<!-- Node25&#45;&gt;Node22 -->
<g id="edge37_Node000025_Node000022" class="edge">
<title>Node25&#45;&gt;Node22</title>
<g id="a_edge37_Node000025_Node000022"><a xlink:title=" ">
<path fill="none" stroke="#63b8ff" d="M1398.15,-173.69C1406.19,-170.01 1413.85,-165.51 1420.5,-160 1446.83,-138.18 1429.41,-112.87 1456.5,-92 1457.82,-90.98 1459.18,-90 1460.57,-89.06"/>
<polygon fill="#63b8ff" stroke="#63b8ff" points="1462.01,-92.27 1468.84,-84.17 1458.45,-86.25 1462.01,-92.27"/>
</a>
</g>
</g>
<!-- Node26 -->
<g id="Node000026" class="node">
<title>Node26</title>
<g id="a_Node000026"><a xlink:href="namespacefr_1_1softsf_1_1sudokufx_1_1common_1_1util_1_1sudoku.html#aa86aff33589489ef55f1a9747a8f6d5d" target="_top" xlink:title="Immutable record representing a Sudoku grid resolution result.">
<polygon fill="white" stroke="#666666" points="1657.75,-195 1471.5,-195 1471.5,-163 1657.75,-163 1657.75,-195"/>
<text text-anchor="start" x="1479.5" y="-181.5" font-family="Helvetica,sans-Serif" font-size="10.00">fr.softsf.sudokufx.common.util.sudoku.</text>
<text text-anchor="middle" x="1564.62" y="-169.5" font-family="Helvetica,sans-Serif" font-size="10.00">GrilleResolue</text>
</a>
</g>
</g>
<!-- Node25&#45;&gt;Node26 -->
<g id="edge38_Node000025_Node000026" class="edge">
<title>Node25&#45;&gt;Node26</title>
<g id="a_edge38_Node000025_Node000026"><a xlink:title=" ">
<path fill="none" stroke="#63b8ff" d="M1416,-185.76C1430.42,-185.1 1445.4,-184.42 1460.05,-183.74"/>
<polygon fill="#63b8ff" stroke="#63b8ff" points="1459.84,-187.26 1469.67,-183.3 1459.52,-180.27 1459.84,-187.26"/>
</a>
</g>
</g>
<!-- Node27 -->
<g id="Node000027" class="node">
<title>Node27</title>
<g id="a_Node000027"><a xlink:href="classfr_1_1softsf_1_1sudokufx_1_1common_1_1util_1_1sudoku_1_1_grid_master.html#ae544691a2f6f2b54de8f88d3babcc221" target="_top" xlink:title="Remplit récursivement la grille Sudoku (backtracking).">
<polygon fill="white" stroke="#666666" points="1657.75,-263 1471.5,-263 1471.5,-231 1657.75,-231 1657.75,-263"/>
<text text-anchor="start" x="1479.5" y="-249.5" font-family="Helvetica,sans-Serif" font-size="10.00">fr.softsf.sudokufx.common.util.sudoku.</text>
<text text-anchor="middle" x="1564.62" y="-237.5" font-family="Helvetica,sans-Serif" font-size="10.00">GridMaster.remplirLaGrille</text>
</a>
</g>
</g>
<!-- Node25&#45;&gt;Node27 -->
<g id="edge40_Node000025_Node000027" class="edge">
<title>Node25&#45;&gt;Node27</title>
<g id="a_edge40_Node000025_Node000027"><a xlink:title=" ">
<path fill="none" stroke="#63b8ff" d="M1391.48,-206.45C1412.33,-211.47 1435.36,-216.99 1456.5,-222 1464.64,-223.93 1473.13,-225.93 1481.61,-227.92"/>
<polygon fill="#63b8ff" stroke="#63b8ff" points="1480.72,-231.31 1491.26,-230.18 1482.32,-224.49 1480.72,-231.31"/>
</a>
</g>
</g>
<!-- Node28 -->
<g id="Node000028" class="node">
<title>Node28</title>
<g id="a_Node000028"><a xlink:href="classfr_1_1softsf_1_1sudokufx_1_1common_1_1util_1_1sudoku_1_1_grid_master.html#a9f77177ae439a5e7b1cfa0394be13ae8" target="_top" xlink:title="Vérifie que chaque valeur dans la grille est bien une possibilité respectant les règles.">
<polygon fill="white" stroke="#666666" points="1667.12,-145 1462.12,-145 1462.12,-101 1667.12,-101 1667.12,-145"/>
<text text-anchor="start" x="1470.12" y="-131.5" font-family="Helvetica,sans-Serif" font-size="10.00">fr.softsf.sudokufx.common.util.sudoku.</text>
<text text-anchor="start" x="1470.12" y="-119.5" font-family="Helvetica,sans-Serif" font-size="10.00">GridMaster.verifieQueChaqueValeurEstUne</text>
<text text-anchor="middle" x="1564.62" y="-107.5" font-family="Helvetica,sans-Serif" font-size="10.00">Possibilite</text>
</a>
</g>
</g>
<!-- Node25&#45;&gt;Node28 -->
<g id="edge46_Node000025_Node000028" class="edge">
<title>Node25&#45;&gt;Node28</title>
<g id="a_edge46_Node000025_Node000028"><a xlink:title=" ">
<path fill="none" stroke="#63b8ff" d="M1382.55,-173.52C1409.51,-166 1442.06,-156.92 1472.09,-148.54"/>
<polygon fill="#63b8ff" stroke="#63b8ff" points="1472.87,-151.96 1481.56,-145.9 1470.99,-145.21 1472.87,-151.96"/>
</a>
</g>
</g>
<!-- Node26&#45;&gt;Node26 -->
<g id="edge39_Node000026_Node000026" class="edge">
<title>Node26&#45;&gt;Node26</title>
<g id="a_edge39_Node000026_Node000026"><a xlink:title=" ">
<path fill="none" stroke="#63b8ff" d="M1521.4,-195.44C1513.33,-204.58 1527.74,-213 1564.62,-213 1585.09,-213 1598.63,-210.41 1605.26,-206.54"/>
<polygon fill="#63b8ff" stroke="#63b8ff" points="1608.64,-207.45 1607.51,-196.92 1601.82,-205.86 1608.64,-207.45"/>
</a>
</g>
</g>
<!-- Node27&#45;&gt;Node13 -->
<g id="edge42_Node000027_Node000013" class="edge">
<title>Node27&#45;&gt;Node13</title>
<g id="a_edge42_Node000027_Node000013"><a xlink:title=" ">
<path fill="none" stroke="#63b8ff" d="M1645.54,-230.53C1666.05,-226.99 1688.14,-223.79 1708.75,-222 1814.8,-212.81 1850.6,-179.63 1948.25,-222 2000.5,-244.67 2041.16,-300.32 2061.68,-333.29"/>
<polygon fill="#63b8ff" stroke="#63b8ff" points="2058.44,-334.7 2066.61,-341.44 2064.43,-331.08 2058.44,-334.7"/>
</a>
</g>
</g>
<!-- Node27&#45;&gt;Node18 -->
<g id="edge41_Node000027_Node000018" class="edge">
<title>Node27&#45;&gt;Node18</title>
<g id="a_edge41_Node000027_Node000018"><a xlink:title=" ">
<path fill="none" stroke="#63b8ff" d="M1657.95,-247C1679.27,-247 1702.09,-247 1723.85,-247"/>
<polygon fill="#63b8ff" stroke="#63b8ff" points="1723.61,-250.5 1733.61,-247 1723.61,-243.5 1723.61,-250.5"/>
</a>
</g>
</g>
<!-- Node27&#45;&gt;Node19 -->
<g id="edge43_Node000027_Node000019" class="edge">
<title>Node27&#45;&gt;Node19</title>
<g id="a_edge43_Node000027_Node000019"><a xlink:title=" ">
<path fill="none" stroke="#63b8ff" d="M1616.67,-263.48C1643.86,-271.96 1677.95,-282.15 1708.75,-290 1716.84,-292.06 1725.27,-294.09 1733.75,-296.03"/>
<polygon fill="#63b8ff" stroke="#63b8ff" points="1732.88,-299.43 1743.41,-298.21 1734.42,-292.6 1732.88,-299.43"/>
</a>
</g>
</g>
<!-- Node27&#45;&gt;Node27 -->
<g id="edge44_Node000027_Node000027" class="edge">
<title>Node27&#45;&gt;Node27</title>
<g id="a_edge44_Node000027_Node000027"><a xlink:title=" ">
<path fill="none" stroke="#63b8ff" d="M1521.4,-263.44C1513.33,-272.58 1527.74,-281 1564.62,-281 1585.09,-281 1598.63,-278.41 1605.26,-274.54"/>
<polygon fill="#63b8ff" stroke="#63b8ff" points="1608.64,-275.45 1607.51,-264.92 1601.82,-273.86 1608.64,-275.45"/>
</a>
</g>
</g>
</g>
</svg>

<g id="navigator" transform="translate(0 0)" fill="#404254">
  <rect fill="#f2f5e9" fill-opacity="0.5" stroke="#606060" stroke-width=".5" x="0" y="0" width="60" height="60"/>
  <use id="zoomplus" xlink:href="#zoomPlus" x="17" y="9" onmousedown="handleZoom(evt,'in')"/>
  <use id="zoomminus" xlink:href="#zoomMin" x="42" y="9" onmousedown="handleZoom(evt,'out')"/>
  <use id="reset" xlink:href="#resetDef" x="30" y="36" onmousedown="handleReset()"/>
   <use id="arrowup" xlink:href="#arrowUp" x="0" y="0" onmousedown="handlePan(0,-1)"/>
  <use id="arrowright" xlink:href="#arrowRight" x="0" y="0" onmousedown="handlePan(1,0)"/>
  <use id="arrowdown" xlink:href="#arrowDown" x="0" y="0" onmousedown="handlePan(0,1)"/>
  <use id="arrowleft" xlink:href="#arrowLeft" x="0" y="0" onmousedown="handlePan(-1,0)"/>
</g>
<svg viewBox="0 0 15 15" width="100%" height="30px" preserveAspectRatio="xMaxYMin meet">
 <g id="arrow_out" transform="scale(0.3 0.3)">
  <a xlink:href="classfr_1_1softsf_1_1sudokufx_1_1benchmark_1_1_bench_grid_master_aa4c461ca0bc6198cc6dd38f8a86e6761_cgraph_org.svg" target="_base">
   <rect id="button" ry="5" rx="5" y="6" x="6" height="38" width="38"
        fill="#f2f5e9" fill-opacity="0.5" stroke="#606060" stroke-width="1.0"/>
   <path id="arrow"
     d="M 11.500037,31.436501 C 11.940474,20.09759 22.043105,11.32322 32.158766,21.979434 L 37.068811,17.246167 C 37.068811,17.246167 37.088388,32 37.088388,32 L 22.160133,31.978069 C 22.160133,31.978069 26.997745,27.140456 26.997745,27.140456 C 18.528582,18.264221 13.291696,25.230495 11.500037,31.436501 z"
     style="fill:#404040;"/>
  </a>
 </g>
</svg>

<style type='text/css'>
<![CDATA[
[data-mouse-over-selected='false'] { opacity: 0.7; }
[data-mouse-over-selected='true']  { opacity: 1.0; }
]]>
</style>
<script type="application/ecmascript"><![CDATA[
document.addEventListener('DOMContentLoaded', (event) => {
  highlightEdges();
  highlightAdjacentNodes();
});
]]></script>
</svg>
