<?xml version="1.0" encoding="UTF-8" standalone="no"?>
<!DOCTYPE svg PUBLIC "-//W3C//DTD SVG 1.1//EN"
 "http://www.w3.org/Graphics/SVG/1.1/DTD/svg11.dtd">
<!-- Generated by graphviz version 12.2.1 (20241206.2353)
 -->
<!-- Title: fr.softsf.sudokufx.viewmodel.grid.GridViewModel Pages: 1 -->
<svg width="646pt" height="1253pt"
 viewBox="0.00 0.00 645.75 1253.00" xmlns="http://www.w3.org/2000/svg" xmlns:xlink="http://www.w3.org/1999/xlink">
<g id="graph0" class="graph" transform="scale(1 1) rotate(0) translate(4 1249)">
<title>fr.softsf.sudokufx.viewmodel.grid.GridViewModel</title>
<!-- Node1 -->
<g id="Node000001" class="node">
<title>Node1</title>
<g id="a_Node000001"><a xlink:title="ViewModel component managing a 9x9 Sudoku grid.">
<polygon fill="#999999" stroke="none" points="367.75,-404 145.75,-404 145.75,0 367.75,0 367.75,-404"/>
<text text-anchor="start" x="182.88" y="-390.5" font-family="Helvetica,sans-Serif" font-size="10.00">fr.softsf.sudokufx.viewmodel.grid.</text>
<text text-anchor="start" x="223.75" y="-378.5" font-family="Helvetica,sans-Serif" font-size="10.00">GridViewModel</text>
<text text-anchor="start" x="151.25" y="-362.5" font-family="Helvetica,sans-Serif" font-size="10.00">&#45;</text>
<text text-anchor="start" x="159.75" y="-362.5" font-family="Helvetica,sans-Serif" font-size="10.00">final List&lt; GridCellView</text>
<text text-anchor="start" x="159.75" y="-350.5" font-family="Helvetica,sans-Serif" font-size="10.00">Model &gt; cellViewModels</text>
<text text-anchor="start" x="151.25" y="-334.5" font-family="Helvetica,sans-Serif" font-size="10.00">&#45;</text>
<text text-anchor="start" x="159.75" y="-334.5" font-family="Helvetica,sans-Serif" font-size="10.00">final IGridMaster iGridMaster</text>
<text text-anchor="start" x="151.25" y="-318.5" font-family="Helvetica,sans-Serif" font-size="10.00">&#45;</text>
<text text-anchor="start" x="159.75" y="-318.5" font-family="Helvetica,sans-Serif" font-size="10.00">static final int GRID_SIZE</text>
<text text-anchor="start" x="151.25" y="-302.5" font-family="Helvetica,sans-Serif" font-size="10.00">&#45;</text>
<text text-anchor="start" x="159.75" y="-302.5" font-family="Helvetica,sans-Serif" font-size="10.00">static final Logger LOG</text>
<text text-anchor="start" x="151.25" y="-286.5" font-family="Helvetica,sans-Serif" font-size="10.00">&#45;</text>
<text text-anchor="start" x="159.75" y="-286.5" font-family="Helvetica,sans-Serif" font-size="10.00">static final int TOTAL</text>
<text text-anchor="start" x="159.75" y="-274.5" font-family="Helvetica,sans-Serif" font-size="10.00">_CELLS</text>
<text text-anchor="start" x="149.75" y="-258.5" font-family="Helvetica,sans-Serif" font-size="10.00">+</text>
<text text-anchor="start" x="159.75" y="-258.5" font-family="Helvetica,sans-Serif" font-size="10.00">GridViewModel(IGridMaster</text>
<text text-anchor="start" x="159.75" y="-246.5" font-family="Helvetica,sans-Serif" font-size="10.00"> iGridMaster, ActiveMenuOrSubmenu</text>
<text text-anchor="start" x="159.75" y="-234.5" font-family="Helvetica,sans-Serif" font-size="10.00">ViewModel activeMenuOrSubmenuViewModel,</text>
<text text-anchor="start" x="159.75" y="-222.5" font-family="Helvetica,sans-Serif" font-size="10.00"> AudioService audioService)</text>
<text text-anchor="start" x="149.75" y="-206.5" font-family="Helvetica,sans-Serif" font-size="10.00">+</text>
<text text-anchor="start" x="159.75" y="-206.5" font-family="Helvetica,sans-Serif" font-size="10.00">int applyLevel(Difficulty</text>
<text text-anchor="start" x="159.75" y="-194.5" font-family="Helvetica,sans-Serif" font-size="10.00">Level level)</text>
<text text-anchor="start" x="149.75" y="-178.5" font-family="Helvetica,sans-Serif" font-size="10.00">+</text>
<text text-anchor="start" x="159.75" y="-178.5" font-family="Helvetica,sans-Serif" font-size="10.00">void clearGrid()</text>
<text text-anchor="start" x="149.75" y="-162.5" font-family="Helvetica,sans-Serif" font-size="10.00">+</text>
<text text-anchor="start" x="159.75" y="-162.5" font-family="Helvetica,sans-Serif" font-size="10.00">List&lt; String &gt; getAllValues()</text>
<text text-anchor="start" x="149.75" y="-146.5" font-family="Helvetica,sans-Serif" font-size="10.00">+</text>
<text text-anchor="start" x="159.75" y="-146.5" font-family="Helvetica,sans-Serif" font-size="10.00">Optional&lt; GridCellViewModel</text>
<text text-anchor="start" x="159.75" y="-134.5" font-family="Helvetica,sans-Serif" font-size="10.00"> &gt; getCellViewModelById</text>
<text text-anchor="start" x="159.75" y="-122.5" font-family="Helvetica,sans-Serif" font-size="10.00">(int id)</text>
<text text-anchor="start" x="149.75" y="-106.5" font-family="Helvetica,sans-Serif" font-size="10.00">+</text>
<text text-anchor="start" x="159.75" y="-106.5" font-family="Helvetica,sans-Serif" font-size="10.00">List&lt; GridCellViewModel</text>
<text text-anchor="start" x="159.75" y="-94.5" font-family="Helvetica,sans-Serif" font-size="10.00"> &gt; getCellViewModels()</text>
<text text-anchor="start" x="149.75" y="-78.5" font-family="Helvetica,sans-Serif" font-size="10.00">+</text>
<text text-anchor="start" x="159.75" y="-78.5" font-family="Helvetica,sans-Serif" font-size="10.00">void init(ToasterVBox</text>
<text text-anchor="start" x="159.75" y="-66.5" font-family="Helvetica,sans-Serif" font-size="10.00"> toaster)</text>
<text text-anchor="start" x="149.75" y="-50.5" font-family="Helvetica,sans-Serif" font-size="10.00">+</text>
<text text-anchor="start" x="159.75" y="-50.5" font-family="Helvetica,sans-Serif" font-size="10.00">void setValues(List</text>
<text text-anchor="start" x="159.75" y="-38.5" font-family="Helvetica,sans-Serif" font-size="10.00">&lt; String &gt; values)</text>
<text text-anchor="start" x="151.25" y="-22.5" font-family="Helvetica,sans-Serif" font-size="10.00">&#45;</text>
<text text-anchor="start" x="159.75" y="-22.5" font-family="Helvetica,sans-Serif" font-size="10.00">boolean isCompletelyCompleted()</text>
<text text-anchor="start" x="151.25" y="-6.5" font-family="Helvetica,sans-Serif" font-size="10.00">&#45;</text>
<text text-anchor="start" x="159.75" y="-6.5" font-family="Helvetica,sans-Serif" font-size="10.00">void verifyGrid()</text>
<polygon fill="#666666" stroke="#666666" points="145.75,-374 145.75,-374 367.75,-374 367.75,-374 145.75,-374"/>
<polygon fill="#666666" stroke="#666666" points="145.75,-270 145.75,-270 157.75,-270 157.75,-270 145.75,-270"/>
<polygon fill="#666666" stroke="#666666" points="157.75,-270 157.75,-270 367.75,-270 367.75,-270 157.75,-270"/>
<polygon fill="none" stroke="#666666" points="145.75,0 145.75,-404 367.75,-404 367.75,0 145.75,0"/>
</a>
</g>
</g>
<!-- Node2 -->
<g id="Node000002" class="node">
<title>Node2</title>
<g id="a_Node000002"><a xlink:href="classfr_1_1softsf_1_1sudokufx_1_1viewmodel_1_1_active_menu_or_submenu_view_model.html" target="_top" xlink:title="ViewModel component managing the currently active menu or submenu.">
<polygon fill="white" stroke="none" points="159.5,-784 0,-784 0,-668 159.5,-668 159.5,-784"/>
<text text-anchor="start" x="4" y="-770.5" font-family="Helvetica,sans-Serif" font-size="10.00">fr.softsf.sudokufx.viewmodel.</text>
<text text-anchor="start" x="4" y="-758.5" font-family="Helvetica,sans-Serif" font-size="10.00">ActiveMenuOrSubmenuViewModel</text>
<text text-anchor="start" x="9.56" y="-742.5" font-family="Helvetica,sans-Serif" font-size="10.00">&#45;</text>
<text text-anchor="start" x="22.12" y="-742.5" font-family="Helvetica,sans-Serif" font-size="10.00">final ObjectProperty</text>
<text text-anchor="start" x="22.12" y="-730.5" font-family="Helvetica,sans-Serif" font-size="10.00">&lt; ActiveMenu &gt; activeMenu</text>
<text text-anchor="start" x="8.06" y="-714.5" font-family="Helvetica,sans-Serif" font-size="10.00">+</text>
<text text-anchor="start" x="22.12" y="-714.5" font-family="Helvetica,sans-Serif" font-size="10.00">ObjectProperty&lt; ActiveMenu</text>
<text text-anchor="start" x="22.12" y="-702.5" font-family="Helvetica,sans-Serif" font-size="10.00"> &gt; getActiveMenu()</text>
<text text-anchor="start" x="8.06" y="-686.5" font-family="Helvetica,sans-Serif" font-size="10.00">+</text>
<text text-anchor="start" x="22.12" y="-686.5" font-family="Helvetica,sans-Serif" font-size="10.00">void setActiveMenu</text>
<text text-anchor="start" x="22.12" y="-674.5" font-family="Helvetica,sans-Serif" font-size="10.00">(ActiveMenu menu)</text>
<polygon fill="#666666" stroke="#666666" points="0,-754 0,-754 159.5,-754 159.5,-754 0,-754"/>
<polygon fill="#666666" stroke="#666666" points="0,-726 0,-726 20.12,-726 20.12,-726 0,-726"/>
<polygon fill="#666666" stroke="#666666" points="20.12,-726 20.12,-726 159.5,-726 159.5,-726 20.12,-726"/>
<polygon fill="none" stroke="#666666" points="0,-668 0,-784 159.5,-784 159.5,-668 0,-668"/>
</a>
</g>
</g>
<!-- Node2&#45;&gt;Node1 -->
<g id="edge1_Node000001_Node000002" class="edge">
<title>Node2&#45;&gt;Node1</title>
<g id="a_edge1_Node000001_Node000002"><a xlink:title=" ">
<path fill="none" stroke="#63b8ff" d="M81.05,-668.07C84.01,-605.91 93.44,-504.26 123,-422 127.94,-408.24 133.82,-394.42 140.3,-380.76"/>
<polygon fill="none" stroke="#63b8ff" points="140.22,-380.93 139.26,-373.78 145.49,-370.15 146.45,-377.29 140.22,-380.93"/>
</a>
</g>
<text text-anchor="start" x="123" y="-436.5" font-family="Helvetica,sans-Serif" font-size="10.00" fill="grey"> &#45;activeMenuOrSubmenuView</text>
<text text-anchor="middle" x="187.88" y="-424.5" font-family="Helvetica,sans-Serif" font-size="10.00" fill="grey">Model</text>
</g>
<!-- Node3 -->
<g id="Node000003" class="node">
<title>Node3</title>
<g id="a_Node000003"><a xlink:href="classfr_1_1softsf_1_1sudokufx_1_1service_1_1ui_1_1_audio_service.html" target="_top" xlink:title="Service managing audio playback for the application.">
<polygon fill="white" stroke="none" points="335.5,-944 178,-944 178,-508 335.5,-508 335.5,-944"/>
<text text-anchor="start" x="194.5" y="-930.5" font-family="Helvetica,sans-Serif" font-size="10.00">fr.softsf.sudokufx.service.ui.</text>
<text text-anchor="start" x="227.88" y="-918.5" font-family="Helvetica,sans-Serif" font-size="10.00">AudioService</text>
<text text-anchor="start" x="183.5" y="-902.5" font-family="Helvetica,sans-Serif" font-size="10.00">&#45;</text>
<text text-anchor="start" x="192" y="-902.5" font-family="Helvetica,sans-Serif" font-size="10.00">final Map&lt; String,</text>
<text text-anchor="start" x="192" y="-890.5" font-family="Helvetica,sans-Serif" font-size="10.00"> MediaPlayer &gt; effectsPlayers</text>
<text text-anchor="start" x="183.5" y="-874.5" font-family="Helvetica,sans-Serif" font-size="10.00">&#45;</text>
<text text-anchor="start" x="192" y="-874.5" font-family="Helvetica,sans-Serif" font-size="10.00">boolean isMuted</text>
<text text-anchor="start" x="183.5" y="-858.5" font-family="Helvetica,sans-Serif" font-size="10.00">&#45;</text>
<text text-anchor="start" x="192" y="-858.5" font-family="Helvetica,sans-Serif" font-size="10.00">final Map&lt; String,</text>
<text text-anchor="start" x="192" y="-846.5" font-family="Helvetica,sans-Serif" font-size="10.00"> Double &gt; originalEffectVolumes</text>
<text text-anchor="start" x="183.5" y="-830.5" font-family="Helvetica,sans-Serif" font-size="10.00">&#45;</text>
<text text-anchor="start" x="192" y="-830.5" font-family="Helvetica,sans-Serif" font-size="10.00">double originalSongVolume</text>
<text text-anchor="start" x="183.5" y="-814.5" font-family="Helvetica,sans-Serif" font-size="10.00">&#45;</text>
<text text-anchor="start" x="192" y="-814.5" font-family="Helvetica,sans-Serif" font-size="10.00">MediaPlayer songPlayer</text>
<text text-anchor="start" x="183.5" y="-798.5" font-family="Helvetica,sans-Serif" font-size="10.00">&#45;</text>
<text text-anchor="start" x="192" y="-798.5" font-family="Helvetica,sans-Serif" font-size="10.00">static final Logger LOG</text>
<text text-anchor="start" x="183.5" y="-782.5" font-family="Helvetica,sans-Serif" font-size="10.00">&#45;</text>
<text text-anchor="start" x="192" y="-782.5" font-family="Helvetica,sans-Serif" font-size="10.00">static final Set&lt; String</text>
<text text-anchor="start" x="192" y="-770.5" font-family="Helvetica,sans-Serif" font-size="10.00"> &gt; VALID_EFFECT_KEYS</text>
<text text-anchor="start" x="182" y="-754.5" font-family="Helvetica,sans-Serif" font-size="10.00">+</text>
<text text-anchor="start" x="192" y="-754.5" font-family="Helvetica,sans-Serif" font-size="10.00">synchronized boolean</text>
<text text-anchor="start" x="192" y="-742.5" font-family="Helvetica,sans-Serif" font-size="10.00"> isMuted()</text>
<text text-anchor="start" x="182" y="-726.5" font-family="Helvetica,sans-Serif" font-size="10.00">+</text>
<text text-anchor="start" x="192" y="-726.5" font-family="Helvetica,sans-Serif" font-size="10.00">synchronized void muteAll()</text>
<text text-anchor="start" x="182" y="-710.5" font-family="Helvetica,sans-Serif" font-size="10.00">+</text>
<text text-anchor="start" x="192" y="-710.5" font-family="Helvetica,sans-Serif" font-size="10.00">synchronized void playEffect</text>
<text text-anchor="start" x="192" y="-698.5" font-family="Helvetica,sans-Serif" font-size="10.00">(File effectFile, String key)</text>
<text text-anchor="start" x="182" y="-682.5" font-family="Helvetica,sans-Serif" font-size="10.00">+</text>
<text text-anchor="start" x="192" y="-682.5" font-family="Helvetica,sans-Serif" font-size="10.00">synchronized void playSong</text>
<text text-anchor="start" x="192" y="-670.5" font-family="Helvetica,sans-Serif" font-size="10.00">(File songFile)</text>
<text text-anchor="start" x="182" y="-654.5" font-family="Helvetica,sans-Serif" font-size="10.00">+</text>
<text text-anchor="start" x="192" y="-654.5" font-family="Helvetica,sans-Serif" font-size="10.00">synchronized void setEffect</text>
<text text-anchor="start" x="192" y="-642.5" font-family="Helvetica,sans-Serif" font-size="10.00">Volume(String key, double</text>
<text text-anchor="start" x="192" y="-630.5" font-family="Helvetica,sans-Serif" font-size="10.00"> volume)</text>
<text text-anchor="start" x="182" y="-614.5" font-family="Helvetica,sans-Serif" font-size="10.00">+</text>
<text text-anchor="start" x="192" y="-614.5" font-family="Helvetica,sans-Serif" font-size="10.00">synchronized void setMuted</text>
<text text-anchor="start" x="192" y="-602.5" font-family="Helvetica,sans-Serif" font-size="10.00">(boolean isMuted)</text>
<text text-anchor="start" x="182" y="-586.5" font-family="Helvetica,sans-Serif" font-size="10.00">+</text>
<text text-anchor="start" x="192" y="-586.5" font-family="Helvetica,sans-Serif" font-size="10.00">synchronized void setSong</text>
<text text-anchor="start" x="192" y="-574.5" font-family="Helvetica,sans-Serif" font-size="10.00">Volume(double volume)</text>
<text text-anchor="start" x="182" y="-558.5" font-family="Helvetica,sans-Serif" font-size="10.00">+</text>
<text text-anchor="start" x="192" y="-558.5" font-family="Helvetica,sans-Serif" font-size="10.00">synchronized void stopAll()</text>
<text text-anchor="start" x="182" y="-542.5" font-family="Helvetica,sans-Serif" font-size="10.00">+</text>
<text text-anchor="start" x="192" y="-542.5" font-family="Helvetica,sans-Serif" font-size="10.00">synchronized void stopSong()</text>
<text text-anchor="start" x="182" y="-526.5" font-family="Helvetica,sans-Serif" font-size="10.00">+</text>
<text text-anchor="start" x="192" y="-526.5" font-family="Helvetica,sans-Serif" font-size="10.00">synchronized void unmute</text>
<text text-anchor="start" x="192" y="-514.5" font-family="Helvetica,sans-Serif" font-size="10.00">All()</text>
<polygon fill="#666666" stroke="#666666" points="178,-914 178,-914 335.5,-914 335.5,-914 178,-914"/>
<polygon fill="#666666" stroke="#666666" points="178,-766 178,-766 190,-766 190,-766 178,-766"/>
<polygon fill="#666666" stroke="#666666" points="190,-766 190,-766 335.5,-766 335.5,-766 190,-766"/>
<polygon fill="none" stroke="#666666" points="178,-508 178,-944 335.5,-944 335.5,-508 178,-508"/>
</a>
</g>
</g>
<!-- Node3&#45;&gt;Node1 -->
<g id="edge2_Node000001_Node000003" class="edge">
<title>Node3&#45;&gt;Node1</title>
<g id="a_edge2_Node000001_Node000003"><a xlink:title=" ">
<path fill="none" stroke="#63b8ff" d="M256.75,-508.16C256.75,-477.89 256.75,-446.8 256.75,-416.59"/>
<polygon fill="none" stroke="#63b8ff" points="256.75,-416.61 252.75,-410.61 256.75,-404.61 260.75,-410.61 256.75,-416.61"/>
</a>
</g>
<text text-anchor="middle" x="287.88" y="-430.5" font-family="Helvetica,sans-Serif" font-size="10.00" fill="grey"> &#45;audioService</text>
</g>
<!-- Node4 -->
<g id="Node000004" class="node">
<title>Node4</title>
<g id="a_Node000004"><a xlink:href="classfr_1_1softsf_1_1sudokufx_1_1view_1_1component_1_1toaster_1_1_toaster_v_box.html" target="_top" xlink:title="A custom VBox component for displaying toast notifications.">
<polygon fill="white" stroke="none" points="547.75,-988 353.75,-988 353.75,-464 547.75,-464 547.75,-988"/>
<text text-anchor="start" x="357.75" y="-974.5" font-family="Helvetica,sans-Serif" font-size="10.00">fr.softsf.sudokufx.view.component.toaster.</text>
<text text-anchor="start" x="422.62" y="-962.5" font-family="Helvetica,sans-Serif" font-size="10.00">ToasterVBox</text>
<text text-anchor="start" x="364.81" y="-946.5" font-family="Helvetica,sans-Serif" font-size="10.00">&#45;</text>
<text text-anchor="start" x="378.88" y="-946.5" font-family="Helvetica,sans-Serif" font-size="10.00">static final double</text>
<text text-anchor="start" x="378.88" y="-934.5" font-family="Helvetica,sans-Serif" font-size="10.00"> SHORT_TOAST_DURATION_MS</text>
<text text-anchor="start" x="363.31" y="-918.5" font-family="Helvetica,sans-Serif" font-size="10.00">+</text>
<text text-anchor="start" x="378.88" y="-918.5" font-family="Helvetica,sans-Serif" font-size="10.00">ToasterVBox()</text>
<text text-anchor="start" x="363.31" y="-902.5" font-family="Helvetica,sans-Serif" font-size="10.00">+</text>
<text text-anchor="start" x="378.88" y="-902.5" font-family="Helvetica,sans-Serif" font-size="10.00">void addToast(final</text>
<text text-anchor="start" x="378.88" y="-890.5" font-family="Helvetica,sans-Serif" font-size="10.00"> String visibleText,</text>
<text text-anchor="start" x="378.88" y="-878.5" font-family="Helvetica,sans-Serif" font-size="10.00"> final String detailedText,</text>
<text text-anchor="start" x="378.88" y="-866.5" font-family="Helvetica,sans-Serif" font-size="10.00"> final ToastLevels toastLevel,</text>
<text text-anchor="start" x="378.88" y="-854.5" font-family="Helvetica,sans-Serif" font-size="10.00"> final boolean requestFocus)</text>
<text text-anchor="start" x="363.31" y="-838.5" font-family="Helvetica,sans-Serif" font-size="10.00">+</text>
<text text-anchor="start" x="378.88" y="-838.5" font-family="Helvetica,sans-Serif" font-size="10.00">void addToastWithDuration</text>
<text text-anchor="start" x="378.88" y="-826.5" font-family="Helvetica,sans-Serif" font-size="10.00">(final String visibleText,</text>
<text text-anchor="start" x="378.88" y="-814.5" font-family="Helvetica,sans-Serif" font-size="10.00"> final String detailedText,</text>
<text text-anchor="start" x="378.88" y="-802.5" font-family="Helvetica,sans-Serif" font-size="10.00"> final ToastLevels toastLevel,</text>
<text text-anchor="start" x="378.88" y="-790.5" font-family="Helvetica,sans-Serif" font-size="10.00"> final double duration, final</text>
<text text-anchor="start" x="378.88" y="-778.5" font-family="Helvetica,sans-Serif" font-size="10.00"> boolean requestFocus)</text>
<text text-anchor="start" x="363.31" y="-762.5" font-family="Helvetica,sans-Serif" font-size="10.00">+</text>
<text text-anchor="start" x="378.88" y="-762.5" font-family="Helvetica,sans-Serif" font-size="10.00">void removeToast()</text>
<text text-anchor="start" x="364.81" y="-746.5" font-family="Helvetica,sans-Serif" font-size="10.00">&#45;</text>
<text text-anchor="start" x="378.88" y="-746.5" font-family="Helvetica,sans-Serif" font-size="10.00">void copyToClipboard</text>
<text text-anchor="start" x="378.88" y="-734.5" font-family="Helvetica,sans-Serif" font-size="10.00">(final ToasterButton</text>
<text text-anchor="start" x="378.88" y="-722.5" font-family="Helvetica,sans-Serif" font-size="10.00"> button)</text>
<text text-anchor="start" x="364.81" y="-706.5" font-family="Helvetica,sans-Serif" font-size="10.00">&#45;</text>
<text text-anchor="start" x="378.88" y="-706.5" font-family="Helvetica,sans-Serif" font-size="10.00">String getToastInfo</text>
<text text-anchor="start" x="378.88" y="-694.5" font-family="Helvetica,sans-Serif" font-size="10.00">(ToastLevels toastLevel)</text>
<text text-anchor="start" x="364.81" y="-678.5" font-family="Helvetica,sans-Serif" font-size="10.00">&#45;</text>
<text text-anchor="start" x="378.88" y="-678.5" font-family="Helvetica,sans-Serif" font-size="10.00">void removeThisToast</text>
<text text-anchor="start" x="378.88" y="-666.5" font-family="Helvetica,sans-Serif" font-size="10.00">(final ToasterButton</text>
<text text-anchor="start" x="378.88" y="-654.5" font-family="Helvetica,sans-Serif" font-size="10.00"> button)</text>
<text text-anchor="start" x="364.81" y="-638.5" font-family="Helvetica,sans-Serif" font-size="10.00">&#45;</text>
<text text-anchor="start" x="378.88" y="-638.5" font-family="Helvetica,sans-Serif" font-size="10.00">void setAccessibility</text>
<text text-anchor="start" x="378.88" y="-626.5" font-family="Helvetica,sans-Serif" font-size="10.00">(final ToasterButton</text>
<text text-anchor="start" x="378.88" y="-614.5" font-family="Helvetica,sans-Serif" font-size="10.00"> toast, final ToastLevels</text>
<text text-anchor="start" x="378.88" y="-602.5" font-family="Helvetica,sans-Serif" font-size="10.00"> toastLevel, final String text)</text>
<text text-anchor="start" x="364.81" y="-586.5" font-family="Helvetica,sans-Serif" font-size="10.00">&#45;</text>
<text text-anchor="start" x="378.88" y="-586.5" font-family="Helvetica,sans-Serif" font-size="10.00">void setToastStyle</text>
<text text-anchor="start" x="378.88" y="-574.5" font-family="Helvetica,sans-Serif" font-size="10.00">(final ToasterButton</text>
<text text-anchor="start" x="378.88" y="-562.5" font-family="Helvetica,sans-Serif" font-size="10.00"> toast, final ToastLevels</text>
<text text-anchor="start" x="378.88" y="-550.5" font-family="Helvetica,sans-Serif" font-size="10.00"> toastLevel)</text>
<text text-anchor="start" x="364.81" y="-534.5" font-family="Helvetica,sans-Serif" font-size="10.00">&#45;</text>
<text text-anchor="start" x="378.88" y="-534.5" font-family="Helvetica,sans-Serif" font-size="10.00">void temporizeToast</text>
<text text-anchor="start" x="378.88" y="-522.5" font-family="Helvetica,sans-Serif" font-size="10.00">(final ToasterButton</text>
<text text-anchor="start" x="378.88" y="-510.5" font-family="Helvetica,sans-Serif" font-size="10.00"> toast, final double</text>
<text text-anchor="start" x="378.88" y="-498.5" font-family="Helvetica,sans-Serif" font-size="10.00"> duration)</text>
<text text-anchor="start" x="364.81" y="-482.5" font-family="Helvetica,sans-Serif" font-size="10.00">&#45;</text>
<text text-anchor="start" x="378.88" y="-482.5" font-family="Helvetica,sans-Serif" font-size="10.00">void toastActions(final</text>
<text text-anchor="start" x="378.88" y="-470.5" font-family="Helvetica,sans-Serif" font-size="10.00"> ActionEvent event)</text>
<polygon fill="#666666" stroke="#666666" points="353.75,-958 353.75,-958 547.75,-958 547.75,-958 353.75,-958"/>
<polygon fill="#666666" stroke="#666666" points="353.75,-930 353.75,-930 376.88,-930 376.88,-930 353.75,-930"/>
<polygon fill="#666666" stroke="#666666" points="376.88,-930 376.88,-930 547.75,-930 547.75,-930 376.88,-930"/>
<polygon fill="none" stroke="#666666" points="353.75,-464 353.75,-988 547.75,-988 547.75,-464 353.75,-464"/>
</a>
</g>
</g>
<!-- Node4&#45;&gt;Node1 -->
<g id="edge3_Node000001_Node000004" class="edge">
<title>Node4&#45;&gt;Node1</title>
<g id="a_edge3_Node000001_Node000004"><a xlink:title=" ">
<path fill="none" stroke="#63b8ff" d="M353.75,-464C347.75,-447.85 341.75,-431.71 335.84,-415.81"/>
<polygon fill="none" stroke="#63b8ff" points="335.83,-415.79 329.99,-411.56 331.65,-404.54 337.49,-408.77 335.83,-415.79"/>
</a>
</g>
<text text-anchor="middle" x="360.13" y="-430.5" font-family="Helvetica,sans-Serif" font-size="10.00" fill="grey"> &#45;toaster</text>
</g>
<!-- Node5 -->
<g id="Node000005" class="node">
<title>Node5</title>
<g id="a_Node000005"><a xlink:title=" ">
<polygon fill="white" stroke="none" points="425.75,-1122 393.75,-1122 393.75,-1070 425.75,-1070 425.75,-1122"/>
<text text-anchor="start" x="397.75" y="-1108.5" font-family="Helvetica,sans-Serif" font-size="10.00">VBox</text>
<text text-anchor="start" x="408.25" y="-1092.5" font-family="Helvetica,sans-Serif" font-size="10.00"> </text>
<text text-anchor="start" x="408.25" y="-1076.5" font-family="Helvetica,sans-Serif" font-size="10.00"> </text>
<polygon fill="#666666" stroke="#666666" points="393.75,-1104 393.75,-1104 425.75,-1104 425.75,-1104 393.75,-1104"/>
<polygon fill="#666666" stroke="#666666" points="393.75,-1088 393.75,-1088 425.75,-1088 425.75,-1088 393.75,-1088"/>
<polygon fill="none" stroke="#666666" points="393.75,-1070 393.75,-1122 425.75,-1122 425.75,-1070 393.75,-1070"/>
</a>
</g>
</g>
<!-- Node5&#45;&gt;Node4 -->
<g id="edge4_Node000004_Node000005" class="edge">
<title>Node5&#45;&gt;Node4</title>
<g id="a_edge4_Node000004_Node000005"><a xlink:title=" ">
<path fill="none" stroke="#63b8ff" d="M413.78,-1058.84C415.87,-1040.06 418.63,-1015.29 421.7,-987.71"/>
<polygon fill="none" stroke="#63b8ff" points="410.3,-1058.45 412.67,-1068.78 417.26,-1059.23 410.3,-1058.45"/>
</a>
</g>
</g>
<!-- Node6 -->
<g id="Node000006" class="node">
<title>Node6</title>
<g id="a_Node000006"><a xlink:href="classfr_1_1softsf_1_1sudokufx_1_1view_1_1component_1_1toaster_1_1_toaster_button.html" target="_top" xlink:title="A custom button with a display text and a full detail text.">
<polygon fill="white" stroke="none" points="637.75,-1156 443.75,-1156 443.75,-1036 637.75,-1036 637.75,-1156"/>
<text text-anchor="start" x="447.75" y="-1142.5" font-family="Helvetica,sans-Serif" font-size="10.00">fr.softsf.sudokufx.view.component.toaster.</text>
<text text-anchor="start" x="510.38" y="-1130.5" font-family="Helvetica,sans-Serif" font-size="10.00">ToasterButton</text>
<text text-anchor="start" x="464.75" y="-1114.5" font-family="Helvetica,sans-Serif" font-size="10.00">&#45;</text>
<text text-anchor="start" x="488.75" y="-1114.5" font-family="Helvetica,sans-Serif" font-size="10.00">String fullDetailText</text>
<text text-anchor="start" x="463.25" y="-1098.5" font-family="Helvetica,sans-Serif" font-size="10.00">+</text>
<text text-anchor="start" x="488.75" y="-1098.5" font-family="Helvetica,sans-Serif" font-size="10.00">ToasterButton(String</text>
<text text-anchor="start" x="488.75" y="-1086.5" font-family="Helvetica,sans-Serif" font-size="10.00"> text, String fullDetailText)</text>
<text text-anchor="start" x="463.25" y="-1070.5" font-family="Helvetica,sans-Serif" font-size="10.00">+</text>
<text text-anchor="start" x="488.75" y="-1070.5" font-family="Helvetica,sans-Serif" font-size="10.00">String getFullDetailText()</text>
<text text-anchor="start" x="463.25" y="-1054.5" font-family="Helvetica,sans-Serif" font-size="10.00">+</text>
<text text-anchor="start" x="488.75" y="-1054.5" font-family="Helvetica,sans-Serif" font-size="10.00">void setFullDetailText</text>
<text text-anchor="start" x="488.75" y="-1042.5" font-family="Helvetica,sans-Serif" font-size="10.00">(String fullDetailText)</text>
<polygon fill="#666666" stroke="#666666" points="443.75,-1126 443.75,-1126 637.75,-1126 637.75,-1126 443.75,-1126"/>
<polygon fill="#666666" stroke="#666666" points="443.75,-1110 443.75,-1110 486.75,-1110 486.75,-1110 443.75,-1110"/>
<polygon fill="#666666" stroke="#666666" points="486.75,-1110 486.75,-1110 637.75,-1110 637.75,-1110 486.75,-1110"/>
<polygon fill="none" stroke="#666666" points="443.75,-1036 443.75,-1156 637.75,-1156 637.75,-1036 443.75,-1036"/>
</a>
</g>
</g>
<!-- Node6&#45;&gt;Node4 -->
<g id="edge5_Node000004_Node000006" class="edge">
<title>Node6&#45;&gt;Node4</title>
<g id="a_edge5_Node000004_Node000006"><a xlink:title=" ">
<path fill="none" stroke="#63b8ff" d="M526.39,-1036.28C523.7,-1025.29 520.73,-1013.16 517.58,-1000.25"/>
<polygon fill="none" stroke="#63b8ff" points="517.56,-1000.19 512.25,-995.31 514.71,-988.53 520.02,-993.41 517.56,-1000.19"/>
</a>
</g>
<text text-anchor="middle" x="535.18" y="-1008.5" font-family="Helvetica,sans-Serif" font-size="10.00" fill="grey"> &#45;toast</text>
</g>
<!-- Node7 -->
<g id="Node000007" class="node">
<title>Node7</title>
<g id="a_Node000007"><a xlink:title=" ">
<polygon fill="white" stroke="none" points="559,-1245 522.5,-1245 522.5,-1193 559,-1193 559,-1245"/>
<text text-anchor="start" x="526.5" y="-1231.5" font-family="Helvetica,sans-Serif" font-size="10.00">Button</text>
<text text-anchor="start" x="539.25" y="-1215.5" font-family="Helvetica,sans-Serif" font-size="10.00"> </text>
<text text-anchor="start" x="539.25" y="-1199.5" font-family="Helvetica,sans-Serif" font-size="10.00"> </text>
<polygon fill="#666666" stroke="#666666" points="522.5,-1227 522.5,-1227 559,-1227 559,-1227 522.5,-1227"/>
<polygon fill="#666666" stroke="#666666" points="522.5,-1211 522.5,-1211 559,-1211 559,-1211 522.5,-1211"/>
<polygon fill="none" stroke="#666666" points="522.5,-1193 522.5,-1245 559,-1245 559,-1193 522.5,-1193"/>
</a>
</g>
</g>
<!-- Node7&#45;&gt;Node6 -->
<g id="edge6_Node000006_Node000007" class="edge">
<title>Node7&#45;&gt;Node6</title>
<g id="a_edge6_Node000006_Node000007"><a xlink:title=" ">
<path fill="none" stroke="#63b8ff" d="M540.75,-1181.85C540.75,-1173.68 540.75,-1164.81 540.75,-1155.97"/>
<polygon fill="none" stroke="#63b8ff" points="537.25,-1181.71 540.75,-1191.71 544.25,-1181.71 537.25,-1181.71"/>
</a>
</g>
</g>
</g>
</svg>
