<?xml version="1.0" encoding="UTF-8" standalone="no"?>
<!DOCTYPE svg PUBLIC "-//W3C//DTD SVG 1.1//EN"
 "http://www.w3.org/Graphics/SVG/1.1/DTD/svg11.dtd">
<!-- Generated by graphviz version 12.2.1 (20241206.2353)
 -->
<!-- Title: fr.softsf.sudokufx.SudoMain Pages: 1 -->
<!--zoomable 844 -->

<svg id="main" version="1.1" xmlns="http://www.w3.org/2000/svg" xmlns:xlink="http://www.w3.org/1999/xlink" xml:space="preserve" onload="init(evt)">

<style type="text/css"><![CDATA[
.node, .edge {opacity: 0.7;}
.node.selected, .edge.selected {opacity: 1;}
.edge:hover path { stroke: red; }
.edge:hover polygon { stroke: red; fill: red; }
]]></style>

<defs>
  <circle id="rim" cx="0" cy="0" r="7"/>
  <circle id="rim2" cx="0" cy="0" r="3.5"/>
  <g id="zoomPlus">
    <use xlink:href="#rim" fill="#404040"><set attributeName="fill" to="#808080" begin="zoomplus.mouseover" end="zoomplus.mouseout"/></use>
    <path d="M-4,0h8M0,-4v8" fill="none" stroke="white" stroke-width="1.5" pointer-events="none"/>
  </g>
  <g id="zoomMin">
    <use xlink:href="#rim" fill="#404040"><set attributeName="fill" to="#808080" begin="zoomminus.mouseover" end="zoomminus.mouseout"/></use>
    <path d="M-4,0h8" fill="none" stroke="white" stroke-width="1.5" pointer-events="none"/>
  </g>
  <g id="arrowUp" transform="translate(30 24)">
    <use xlink:href="#rim"/>
    <path pointer-events="none" fill="none" stroke="white" stroke-width="1.5" d="M0,-3.0v7 M-2.5,-0.5L0,-3.0L2.5,-0.5"/>
  </g>
  <g id="arrowRight" transform="rotate(90) translate(36 -43)">
    <use xlink:href="#rim"/>
    <path pointer-events="none" fill="none" stroke="white" stroke-width="1.5" d="M0,-3.0v7 M-2.5,-0.5L0,-3.0L2.5,-0.5"/>
  </g>
  <g id="arrowDown" transform="rotate(180) translate(-30 -48)">
    <use xlink:href="#rim"/>
    <path pointer-events="none" fill="none" stroke="white" stroke-width="1.5" d="M0,-3.0v7 M-2.5,-0.5L0,-3.0L2.5,-0.5"/>
  </g>
  <g id="arrowLeft" transform="rotate(270) translate(-36 17)">
    <use xlink:href="#rim"/>
    <path pointer-events="none" fill="none" stroke="white" stroke-width="1.5" d="M0,-3.0v7 M-2.5,-0.5L0,-3.0L2.5,-0.5"/>
  </g>
  <g id="resetDef">
    <use xlink:href="#rim2" fill="#404040"><set attributeName="fill" to="#808080" begin="reset.mouseover" end="reset.mouseout"/></use>
  </g>
</defs>
<script type="application/ecmascript">
var viewWidth = 646;
var viewHeight = 844;
var sectionId = 'dynsection-1';
</script>
<script type="application/ecmascript" xlink:href="svg.min.js"/>
<svg id="graph" class="graph">
<g id="viewport">
<title>fr.softsf.sudokufx.SudoMain</title>
<!-- Node1 -->
<g id="Node000001" class="node">
<title>Node1</title>
<g id="a_Node000001"><a xlink:title="Entry point of the Sudo application.">
<polygon fill="#999999" stroke="none" points="348.88,-288 165.12,-288 165.12,0 348.88,0 348.88,-288"/>
<text text-anchor="start" x="195.5" y="-274.5" font-family="Helvetica,sans-Serif" font-size="10.00">fr.softsf.sudokufx.SudoMain</text>
<text text-anchor="start" x="170.62" y="-258.5" font-family="Helvetica,sans-Serif" font-size="10.00">&#45;</text>
<text text-anchor="start" x="179.12" y="-258.5" font-family="Helvetica,sans-Serif" font-size="10.00">final SpringContext</text>
<text text-anchor="start" x="179.12" y="-246.5" font-family="Helvetica,sans-Serif" font-size="10.00"> context</text>
<text text-anchor="start" x="170.62" y="-230.5" font-family="Helvetica,sans-Serif" font-size="10.00">&#45;</text>
<text text-anchor="start" x="179.12" y="-230.5" font-family="Helvetica,sans-Serif" font-size="10.00">Stage stage</text>
<text text-anchor="start" x="170.62" y="-214.5" font-family="Helvetica,sans-Serif" font-size="10.00">&#45;</text>
<text text-anchor="start" x="179.12" y="-214.5" font-family="Helvetica,sans-Serif" font-size="10.00">static final Logger LOG</text>
<text text-anchor="start" x="169.12" y="-198.5" font-family="Helvetica,sans-Serif" font-size="10.00">+</text>
<text text-anchor="start" x="179.12" y="-198.5" font-family="Helvetica,sans-Serif" font-size="10.00">void start(final Stage</text>
<text text-anchor="start" x="179.12" y="-186.5" font-family="Helvetica,sans-Serif" font-size="10.00"> stage)</text>
<text text-anchor="start" x="169.12" y="-170.5" font-family="Helvetica,sans-Serif" font-size="10.00">+</text>
<text text-anchor="start" x="179.12" y="-170.5" font-family="Helvetica,sans-Serif" font-size="10.00">static void main(String</text>
<text text-anchor="start" x="179.12" y="-158.5" font-family="Helvetica,sans-Serif" font-size="10.00">[] args)</text>
<text text-anchor="start" x="170.62" y="-142.5" font-family="Helvetica,sans-Serif" font-size="10.00">&#45;</text>
<text text-anchor="start" x="179.12" y="-142.5" font-family="Helvetica,sans-Serif" font-size="10.00">PauseTransition createView</text>
<text text-anchor="start" x="179.12" y="-130.5" font-family="Helvetica,sans-Serif" font-size="10.00">Transition(String fxmlName,</text>
<text text-anchor="start" x="179.12" y="-118.5" font-family="Helvetica,sans-Serif" font-size="10.00"> long minimumTimelapse)</text>
<text text-anchor="start" x="170.62" y="-102.5" font-family="Helvetica,sans-Serif" font-size="10.00">&#45;</text>
<text text-anchor="start" x="179.12" y="-102.5" font-family="Helvetica,sans-Serif" font-size="10.00">void handleSpringContext</text>
<text text-anchor="start" x="179.12" y="-90.5" font-family="Helvetica,sans-Serif" font-size="10.00">TaskFailed(Throwable throwable)</text>
<text text-anchor="start" x="170.62" y="-74.5" font-family="Helvetica,sans-Serif" font-size="10.00">&#45;</text>
<text text-anchor="start" x="179.12" y="-74.5" font-family="Helvetica,sans-Serif" font-size="10.00">void handleSpringContext</text>
<text text-anchor="start" x="179.12" y="-62.5" font-family="Helvetica,sans-Serif" font-size="10.00">TaskSuccess(long startTime)</text>
<text text-anchor="start" x="170.62" y="-46.5" font-family="Helvetica,sans-Serif" font-size="10.00">&#45;</text>
<text text-anchor="start" x="179.12" y="-46.5" font-family="Helvetica,sans-Serif" font-size="10.00">void initializeCoordinator()</text>
<text text-anchor="start" x="170.62" y="-30.5" font-family="Helvetica,sans-Serif" font-size="10.00">&#45;</text>
<text text-anchor="start" x="179.12" y="-30.5" font-family="Helvetica,sans-Serif" font-size="10.00">static void sqlInvalidAuthorization</text>
<text text-anchor="start" x="179.12" y="-18.5" font-family="Helvetica,sans-Serif" font-size="10.00">(Exception e, SQLInvalidAuthorization</text>
<text text-anchor="start" x="179.12" y="-6.5" font-family="Helvetica,sans-Serif" font-size="10.00">SpecException sqlException)</text>
<polygon fill="#666666" stroke="#666666" points="165.12,-270 165.12,-270 348.88,-270 348.88,-270 165.12,-270"/>
<polygon fill="#666666" stroke="#666666" points="165.12,-210 165.12,-210 177.12,-210 177.12,-210 165.12,-210"/>
<polygon fill="#666666" stroke="#666666" points="177.12,-210 177.12,-210 348.88,-210 348.88,-210 177.12,-210"/>
<polygon fill="none" stroke="#666666" points="165.12,0 165.12,-288 348.88,-288 348.88,0 165.12,0"/>
</a>
</g>
</g>
<!-- Node2 -->
<g id="Node000002" class="node">
<title>Node2</title>
<g id="a_Node000002"><a xlink:title=" ">
<polygon fill="white" stroke="none" points="56,-518 0,-518 0,-466 56,-466 56,-518"/>
<text text-anchor="start" x="4" y="-504.5" font-family="Helvetica,sans-Serif" font-size="10.00">Application</text>
<text text-anchor="start" x="26.5" y="-488.5" font-family="Helvetica,sans-Serif" font-size="10.00"> </text>
<text text-anchor="start" x="26.5" y="-472.5" font-family="Helvetica,sans-Serif" font-size="10.00"> </text>
<polygon fill="#666666" stroke="#666666" points="0,-500 0,-500 56,-500 56,-500 0,-500"/>
<polygon fill="#666666" stroke="#666666" points="0,-484 0,-484 56,-484 56,-484 0,-484"/>
<polygon fill="none" stroke="#666666" points="0,-466 0,-518 56,-518 56,-466 0,-466"/>
</a>
</g>
</g>
<!-- Node2&#45;&gt;Node1 -->
<g id="edge1_Node000001_Node000002" class="edge">
<title>Node2&#45;&gt;Node1</title>
<g id="a_edge1_Node000001_Node000002"><a xlink:title=" ">
<path fill="none" stroke="#63b8ff" d="M30.97,-454.82C34.94,-422.03 44.09,-373.29 65,-336 90.3,-290.89 129.31,-249.28 165.57,-216.5"/>
<polygon fill="none" stroke="#63b8ff" points="27.51,-454.3 29.9,-464.62 34.47,-455.06 27.51,-454.3"/>
</a>
</g>
</g>
<!-- Node3 -->
<g id="Node000003" class="node">
<title>Node3</title>
<g id="a_Node000003"><a xlink:href="interfacefr_1_1softsf_1_1sudokufx_1_1common_1_1interfaces_1_1_i_splash_screen_view.html" target="_top" xlink:title="Provides basic control over the splash screen visibility and access to its scene.">
<polygon fill="white" stroke="none" points="247.88,-540 74.12,-540 74.12,-444 247.88,-444 247.88,-540"/>
<text text-anchor="start" x="78.12" y="-526.5" font-family="Helvetica,sans-Serif" font-size="10.00">fr.softsf.sudokufx.common.interfaces.</text>
<text text-anchor="start" x="118.25" y="-514.5" font-family="Helvetica,sans-Serif" font-size="10.00">ISplashScreenView</text>
<text text-anchor="start" x="159.5" y="-498.5" font-family="Helvetica,sans-Serif" font-size="10.00"> </text>
<text text-anchor="start" x="82.38" y="-482.5" font-family="Helvetica,sans-Serif" font-size="10.00">+</text>
<text text-anchor="start" x="96.62" y="-482.5" font-family="Helvetica,sans-Serif" font-size="10.00">Scene getSplashScreenScene()</text>
<text text-anchor="start" x="82.38" y="-466.5" font-family="Helvetica,sans-Serif" font-size="10.00">+</text>
<text text-anchor="start" x="96.62" y="-466.5" font-family="Helvetica,sans-Serif" font-size="10.00">void hideSplashScreen()</text>
<text text-anchor="start" x="82.38" y="-450.5" font-family="Helvetica,sans-Serif" font-size="10.00">+</text>
<text text-anchor="start" x="96.62" y="-450.5" font-family="Helvetica,sans-Serif" font-size="10.00">void showSplashScreen()</text>
<polygon fill="#666666" stroke="#666666" points="74.12,-510 74.12,-510 247.88,-510 247.88,-510 74.12,-510"/>
<polygon fill="#666666" stroke="#666666" points="74.12,-494 74.12,-494 247.88,-494 247.88,-494 74.12,-494"/>
<polygon fill="none" stroke="#666666" points="74.12,-444 74.12,-540 247.88,-540 247.88,-444 74.12,-444"/>
</a>
</g>
</g>
<!-- Node3&#45;&gt;Node1 -->
<g id="edge2_Node000001_Node000003" class="edge">
<title>Node3&#45;&gt;Node1</title>
<g id="a_edge2_Node000001_Node000003"><a xlink:title=" ">
<path fill="none" stroke="#63b8ff" d="M173.95,-444.34C184.28,-407.11 199.37,-352.72 213.86,-300.48"/>
<polygon fill="none" stroke="#63b8ff" points="213.88,-300.4 211.63,-293.55 217.09,-288.84 219.34,-295.69 213.88,-300.4"/>
</a>
</g>
<text text-anchor="middle" x="257.25" y="-308.5" font-family="Helvetica,sans-Serif" font-size="10.00" fill="grey"> &#45;iSplashScreenView</text>
</g>
<!-- Node4 -->
<g id="Node000004" class="node">
<title>Node4</title>
<g id="a_Node000004"><a xlink:href="interfacefr_1_1softsf_1_1sudokufx_1_1common_1_1interfaces_1_1_i_main_view.html" target="_top" xlink:title="Interface defining method to open the main stage.">
<polygon fill="white" stroke="none" points="439.88,-536 266.12,-536 266.12,-448 439.88,-448 439.88,-536"/>
<text text-anchor="start" x="270.12" y="-522.5" font-family="Helvetica,sans-Serif" font-size="10.00">fr.softsf.sudokufx.common.interfaces.</text>
<text text-anchor="start" x="330.12" y="-510.5" font-family="Helvetica,sans-Serif" font-size="10.00">IMainView</text>
<text text-anchor="start" x="351.5" y="-494.5" font-family="Helvetica,sans-Serif" font-size="10.00"> </text>
<text text-anchor="start" x="270.44" y="-478.5" font-family="Helvetica,sans-Serif" font-size="10.00">+</text>
<text text-anchor="start" x="280.75" y="-478.5" font-family="Helvetica,sans-Serif" font-size="10.00">void openingMainStage</text>
<text text-anchor="start" x="280.75" y="-466.5" font-family="Helvetica,sans-Serif" font-size="10.00">(ISplashScreenView iSplashScreen</text>
<text text-anchor="start" x="280.75" y="-454.5" font-family="Helvetica,sans-Serif" font-size="10.00">View)</text>
<polygon fill="#666666" stroke="#666666" points="266.12,-506 266.12,-506 439.88,-506 439.88,-506 266.12,-506"/>
<polygon fill="#666666" stroke="#666666" points="266.12,-490 266.12,-490 439.88,-490 439.88,-490 266.12,-490"/>
<polygon fill="none" stroke="#666666" points="266.12,-448 266.12,-536 439.88,-536 439.88,-448 266.12,-448"/>
</a>
</g>
</g>
<!-- Node4&#45;&gt;Node1 -->
<g id="edge3_Node000001_Node000004" class="edge">
<title>Node4&#45;&gt;Node1</title>
<g id="a_edge3_Node000001_Node000004"><a xlink:title=" ">
<path fill="none" stroke="#63b8ff" d="M343.09,-448.2C334.21,-410.59 320.54,-354.45 307,-306 306.48,-304.15 305.96,-302.29 305.43,-300.42"/>
<polygon fill="none" stroke="#63b8ff" points="305.42,-300.37 299.92,-295.7 302.11,-288.83 307.61,-293.5 305.42,-300.37"/>
</a>
</g>
<text text-anchor="middle" x="335.24" y="-308.5" font-family="Helvetica,sans-Serif" font-size="10.00" fill="grey"> &#45;iMainView</text>
</g>
<!-- Node5 -->
<g id="Node000005" class="node">
<title>Node5</title>
<g id="a_Node000005"><a xlink:href="classfr_1_1softsf_1_1sudokufx_1_1navigation_1_1_coordinator.html" target="_top" xlink:title="Coordinator is a Spring&#45;managed component handling navigation and UI logic in a JavaFX application fo...">
<polygon fill="white" stroke="none" points="638.38,-648 457.62,-648 457.62,-336 638.38,-336 638.38,-648"/>
<text text-anchor="start" x="484.62" y="-634.5" font-family="Helvetica,sans-Serif" font-size="10.00">fr.softsf.sudokufx.navigation.</text>
<text text-anchor="start" x="522.88" y="-622.5" font-family="Helvetica,sans-Serif" font-size="10.00">Coordinator</text>
<text text-anchor="start" x="463.12" y="-606.5" font-family="Helvetica,sans-Serif" font-size="10.00">&#45;</text>
<text text-anchor="start" x="471.62" y="-606.5" font-family="Helvetica,sans-Serif" font-size="10.00">Scene defaultScene</text>
<text text-anchor="start" x="463.12" y="-590.5" font-family="Helvetica,sans-Serif" font-size="10.00">&#45;</text>
<text text-anchor="start" x="471.62" y="-590.5" font-family="Helvetica,sans-Serif" font-size="10.00">final FXMLLoader fxmlLoader</text>
<text text-anchor="start" x="463.12" y="-574.5" font-family="Helvetica,sans-Serif" font-size="10.00">&#45;</text>
<text text-anchor="start" x="471.62" y="-574.5" font-family="Helvetica,sans-Serif" font-size="10.00">HostServices hostServices</text>
<text text-anchor="start" x="463.12" y="-558.5" font-family="Helvetica,sans-Serif" font-size="10.00">&#45;</text>
<text text-anchor="start" x="471.62" y="-558.5" font-family="Helvetica,sans-Serif" font-size="10.00">static final Logger LOG</text>
<text text-anchor="start" x="461.62" y="-542.5" font-family="Helvetica,sans-Serif" font-size="10.00">+</text>
<text text-anchor="start" x="471.62" y="-542.5" font-family="Helvetica,sans-Serif" font-size="10.00">Coordinator(FXMLLoader</text>
<text text-anchor="start" x="471.62" y="-530.5" font-family="Helvetica,sans-Serif" font-size="10.00"> fxmlLoader)</text>
<text text-anchor="start" x="461.62" y="-514.5" font-family="Helvetica,sans-Serif" font-size="10.00">+</text>
<text text-anchor="start" x="471.62" y="-514.5" font-family="Helvetica,sans-Serif" font-size="10.00">Scene getDefaultScene()</text>
<text text-anchor="start" x="461.62" y="-498.5" font-family="Helvetica,sans-Serif" font-size="10.00">+</text>
<text text-anchor="start" x="471.62" y="-498.5" font-family="Helvetica,sans-Serif" font-size="10.00">void openGitHubRepository</text>
<text text-anchor="start" x="471.62" y="-486.5" font-family="Helvetica,sans-Serif" font-size="10.00">ReleaseUrl()</text>
<text text-anchor="start" x="461.62" y="-470.5" font-family="Helvetica,sans-Serif" font-size="10.00">+</text>
<text text-anchor="start" x="471.62" y="-470.5" font-family="Helvetica,sans-Serif" font-size="10.00">void setDefaultScene</text>
<text text-anchor="start" x="471.62" y="-458.5" font-family="Helvetica,sans-Serif" font-size="10.00">(Scene scene)</text>
<text text-anchor="start" x="461.62" y="-442.5" font-family="Helvetica,sans-Serif" font-size="10.00">+</text>
<text text-anchor="start" x="471.62" y="-442.5" font-family="Helvetica,sans-Serif" font-size="10.00">void setDynamicFontSize</text>
<text text-anchor="start" x="471.62" y="-430.5" font-family="Helvetica,sans-Serif" font-size="10.00">(DynamicFontSize dynamicFontSize)</text>
<text text-anchor="start" x="461.62" y="-414.5" font-family="Helvetica,sans-Serif" font-size="10.00">+</text>
<text text-anchor="start" x="471.62" y="-414.5" font-family="Helvetica,sans-Serif" font-size="10.00">void setHostServices</text>
<text text-anchor="start" x="471.62" y="-402.5" font-family="Helvetica,sans-Serif" font-size="10.00">(HostServices hostServices)</text>
<text text-anchor="start" x="461.62" y="-386.5" font-family="Helvetica,sans-Serif" font-size="10.00">+</text>
<text text-anchor="start" x="471.62" y="-386.5" font-family="Helvetica,sans-Serif" font-size="10.00">void toggleLanguage()</text>
<text text-anchor="start" x="461.62" y="-370.5" font-family="Helvetica,sans-Serif" font-size="10.00">~</text>
<text text-anchor="start" x="471.62" y="-370.5" font-family="Helvetica,sans-Serif" font-size="10.00">void exitPlatform()</text>
<text text-anchor="start" x="461.62" y="-354.5" font-family="Helvetica,sans-Serif" font-size="10.00">~</text>
<text text-anchor="start" x="471.62" y="-354.5" font-family="Helvetica,sans-Serif" font-size="10.00">public&lt; T &gt; T setRootByFXMLName</text>
<text text-anchor="start" x="471.62" y="-342.5" font-family="Helvetica,sans-Serif" font-size="10.00">(final String fxml)</text>
<polygon fill="#666666" stroke="#666666" points="457.62,-618 457.62,-618 638.38,-618 638.38,-618 457.62,-618"/>
<polygon fill="#666666" stroke="#666666" points="457.62,-554 457.62,-554 469.62,-554 469.62,-554 457.62,-554"/>
<polygon fill="#666666" stroke="#666666" points="469.62,-554 469.62,-554 638.38,-554 638.38,-554 469.62,-554"/>
<polygon fill="none" stroke="#666666" points="457.62,-336 457.62,-648 638.38,-648 638.38,-336 457.62,-336"/>
</a>
</g>
</g>
<!-- Node5&#45;&gt;Node1 -->
<g id="edge4_Node000001_Node000005" class="edge">
<title>Node5&#45;&gt;Node1</title>
<g id="a_edge4_Node000001_Node000005"><a xlink:title=" ">
<path fill="none" stroke="#63b8ff" d="M457.67,-347.06C454.8,-343.3 451.9,-339.61 449,-336 421.48,-301.84 388.52,-267.22 357.74,-237"/>
<polygon fill="none" stroke="#63b8ff" points="357.93,-237.19 350.85,-235.86 349.34,-228.81 356.43,-230.14 357.93,-237.19"/>
</a>
</g>
<text text-anchor="middle" x="457.17" y="-308.5" font-family="Helvetica,sans-Serif" font-size="10.00" fill="grey"> &#45;coordinator</text>
</g>
<!-- Node6 -->
<g id="Node000006" class="node">
<title>Node6</title>
<g id="a_Node000006"><a xlink:href="classfr_1_1softsf_1_1sudokufx_1_1common_1_1util_1_1_dynamic_font_size.html" target="_top" xlink:title="Manages dynamic font sizing based on the dimensions of a JavaFX Scene.">
<polygon fill="white" stroke="none" points="619.88,-836 476.12,-836 476.12,-696 619.88,-696 619.88,-836"/>
<text text-anchor="start" x="480.12" y="-822.5" font-family="Helvetica,sans-Serif" font-size="10.00">fr.softsf.sudokufx.common.util.</text>
<text text-anchor="start" x="509" y="-810.5" font-family="Helvetica,sans-Serif" font-size="10.00">DynamicFontSize</text>
<text text-anchor="start" x="482.5" y="-794.5" font-family="Helvetica,sans-Serif" font-size="10.00">&#45;</text>
<text text-anchor="start" x="491.88" y="-794.5" font-family="Helvetica,sans-Serif" font-size="10.00">double currentFontSize</text>
<text text-anchor="start" x="482.5" y="-778.5" font-family="Helvetica,sans-Serif" font-size="10.00">&#45;</text>
<text text-anchor="start" x="491.88" y="-778.5" font-family="Helvetica,sans-Serif" font-size="10.00">final Scene scene</text>
<text text-anchor="start" x="481" y="-762.5" font-family="Helvetica,sans-Serif" font-size="10.00">+</text>
<text text-anchor="start" x="491.88" y="-762.5" font-family="Helvetica,sans-Serif" font-size="10.00">DynamicFontSize(Scene</text>
<text text-anchor="start" x="491.88" y="-750.5" font-family="Helvetica,sans-Serif" font-size="10.00"> scene)</text>
<text text-anchor="start" x="481" y="-734.5" font-family="Helvetica,sans-Serif" font-size="10.00">+</text>
<text text-anchor="start" x="491.88" y="-734.5" font-family="Helvetica,sans-Serif" font-size="10.00">double getCurrentFontSize()</text>
<text text-anchor="start" x="481" y="-718.5" font-family="Helvetica,sans-Serif" font-size="10.00">+</text>
<text text-anchor="start" x="491.88" y="-718.5" font-family="Helvetica,sans-Serif" font-size="10.00">void updateFontSize()</text>
<text text-anchor="start" x="482.5" y="-702.5" font-family="Helvetica,sans-Serif" font-size="10.00">&#45;</text>
<text text-anchor="start" x="491.88" y="-702.5" font-family="Helvetica,sans-Serif" font-size="10.00">void initialize()</text>
<polygon fill="#666666" stroke="#666666" points="476.12,-806 476.12,-806 619.88,-806 619.88,-806 476.12,-806"/>
<polygon fill="#666666" stroke="#666666" points="476.12,-774 476.12,-774 489.88,-774 489.88,-774 476.12,-774"/>
<polygon fill="#666666" stroke="#666666" points="489.88,-774 489.88,-774 619.88,-774 619.88,-774 489.88,-774"/>
<polygon fill="none" stroke="#666666" points="476.12,-696 476.12,-836 619.88,-836 619.88,-696 476.12,-696"/>
</a>
</g>
</g>
<!-- Node6&#45;&gt;Node5 -->
<g id="edge5_Node000005_Node000006" class="edge">
<title>Node6&#45;&gt;Node5</title>
<g id="a_edge5_Node000005_Node000006"><a xlink:title=" ">
<path fill="none" stroke="#63b8ff" d="M548,-696.01C548,-684.91 548,-673.02 548,-660.77"/>
<polygon fill="none" stroke="#63b8ff" points="548,-660.78 544,-654.78 548,-648.78 552,-654.78 548,-660.78"/>
</a>
</g>
<text text-anchor="middle" x="588.88" y="-668.5" font-family="Helvetica,sans-Serif" font-size="10.00" fill="grey"> &#45;dynamicFontSize</text>
</g>
</g>
</svg>

<g id="navigator" transform="translate(0 0)" fill="#404254">
  <rect fill="#f2f5e9" fill-opacity="0.5" stroke="#606060" stroke-width=".5" x="0" y="0" width="60" height="60"/>
  <use id="zoomplus" xlink:href="#zoomPlus" x="17" y="9" onmousedown="handleZoom(evt,'in')"/>
  <use id="zoomminus" xlink:href="#zoomMin" x="42" y="9" onmousedown="handleZoom(evt,'out')"/>
  <use id="reset" xlink:href="#resetDef" x="30" y="36" onmousedown="handleReset()"/>
   <use id="arrowup" xlink:href="#arrowUp" x="0" y="0" onmousedown="handlePan(0,-1)"/>
  <use id="arrowright" xlink:href="#arrowRight" x="0" y="0" onmousedown="handlePan(1,0)"/>
  <use id="arrowdown" xlink:href="#arrowDown" x="0" y="0" onmousedown="handlePan(0,1)"/>
  <use id="arrowleft" xlink:href="#arrowLeft" x="0" y="0" onmousedown="handlePan(-1,0)"/>
</g>
<svg viewBox="0 0 15 15" width="100%" height="30px" preserveAspectRatio="xMaxYMin meet">
 <g id="arrow_out" transform="scale(0.3 0.3)">
  <a xlink:href="classfr_1_1softsf_1_1sudokufx_1_1_sudo_main__coll__graph_org.svg" target="_base">
   <rect id="button" ry="5" rx="5" y="6" x="6" height="38" width="38"
        fill="#f2f5e9" fill-opacity="0.5" stroke="#606060" stroke-width="1.0"/>
   <path id="arrow"
     d="M 11.500037,31.436501 C 11.940474,20.09759 22.043105,11.32322 32.158766,21.979434 L 37.068811,17.246167 C 37.068811,17.246167 37.088388,32 37.088388,32 L 22.160133,31.978069 C 22.160133,31.978069 26.997745,27.140456 26.997745,27.140456 C 18.528582,18.264221 13.291696,25.230495 11.500037,31.436501 z"
     style="fill:#404040;"/>
  </a>
 </g>
</svg>

<style type='text/css'>
<![CDATA[
[data-mouse-over-selected='false'] { opacity: 0.7; }
[data-mouse-over-selected='true']  { opacity: 1.0; }
]]>
</style>
<script type="application/ecmascript"><![CDATA[
document.addEventListener('DOMContentLoaded', (event) => {
  highlightEdges();
  highlightAdjacentNodes();
});
]]></script>
</svg>
