<?xml version="1.0" encoding="UTF-8" standalone="no"?>
<!DOCTYPE svg PUBLIC "-//W3C//DTD SVG 1.1//EN"
 "http://www.w3.org/Graphics/SVG/1.1/DTD/svg11.dtd">
<!-- Generated by graphviz version 12.2.1 (20241206.2353)
 -->
<!-- Title: fr.softsf.sudokufx.model.GameLevel.GameLevelBuilder Pages: 1 -->
<svg width="148pt" height="144pt"
 viewBox="0.00 0.00 148.00 144.00" xmlns="http://www.w3.org/2000/svg" xmlns:xlink="http://www.w3.org/1999/xlink">
<g id="graph0" class="graph" transform="scale(1 1) rotate(0) translate(4 140)">
<title>fr.softsf.sudokufx.model.GameLevel.GameLevelBuilder</title>
<!-- Node1 -->
<g id="Node000001" class="node">
<title>Node1</title>
<g id="a_Node000001"><a xlink:title="Builder class for creating instances of GameLevel.">
<polygon fill="#999999" stroke="none" points="140,-136 0,-136 0,0 140,0 140,-136"/>
<text text-anchor="start" x="4" y="-122.5" font-family="Helvetica,sans-Serif" font-size="10.00">fr.softsf.sudokufx.model.</text>
<text text-anchor="start" x="4" y="-110.5" font-family="Helvetica,sans-Serif" font-size="10.00">GameLevel.GameLevelBuilder</text>
<text text-anchor="start" x="8.44" y="-94.5" font-family="Helvetica,sans-Serif" font-size="10.00">&#45;</text>
<text text-anchor="start" x="19.88" y="-94.5" font-family="Helvetica,sans-Serif" font-size="10.00">byte level</text>
<text text-anchor="start" x="8.44" y="-78.5" font-family="Helvetica,sans-Serif" font-size="10.00">&#45;</text>
<text text-anchor="start" x="19.88" y="-78.5" font-family="Helvetica,sans-Serif" font-size="10.00">Byte levelid</text>
<text text-anchor="start" x="6.94" y="-62.5" font-family="Helvetica,sans-Serif" font-size="10.00">+</text>
<text text-anchor="start" x="19.88" y="-62.5" font-family="Helvetica,sans-Serif" font-size="10.00">GameLevel build()</text>
<text text-anchor="start" x="6.94" y="-46.5" font-family="Helvetica,sans-Serif" font-size="10.00">+</text>
<text text-anchor="start" x="19.88" y="-46.5" font-family="Helvetica,sans-Serif" font-size="10.00">GameLevelBuilder level</text>
<text text-anchor="start" x="19.88" y="-34.5" font-family="Helvetica,sans-Serif" font-size="10.00">(byte level)</text>
<text text-anchor="start" x="6.94" y="-18.5" font-family="Helvetica,sans-Serif" font-size="10.00">+</text>
<text text-anchor="start" x="19.88" y="-18.5" font-family="Helvetica,sans-Serif" font-size="10.00">GameLevelBuilder levelid</text>
<text text-anchor="start" x="19.88" y="-6.5" font-family="Helvetica,sans-Serif" font-size="10.00">(Byte levelid)</text>
<polygon fill="#666666" stroke="#666666" points="0,-106 0,-106 140,-106 140,-106 0,-106"/>
<polygon fill="#666666" stroke="#666666" points="0,-74 0,-74 17.88,-74 17.88,-74 0,-74"/>
<polygon fill="#666666" stroke="#666666" points="17.88,-74 17.88,-74 140,-74 140,-74 17.88,-74"/>
<polygon fill="none" stroke="#666666" points="0,0 0,-136 140,-136 140,0 0,0"/>
</a>
</g>
</g>
</g>
</svg>
