<?xml version="1.0" encoding="UTF-8" standalone="no"?>
<!DOCTYPE svg PUBLIC "-//W3C//DTD SVG 1.1//EN"
 "http://www.w3.org/Graphics/SVG/1.1/DTD/svg11.dtd">
<!-- Generated by graphviz version 12.2.1 (20241206.2353)
 -->
<!-- Title: fr.softsf.sudokufx.view.component.firework.Firework.FireworkContext Pages: 1 -->
<!--zoomable 110 -->

<svg id="main" version="1.1" xmlns="http://www.w3.org/2000/svg" xmlns:xlink="http://www.w3.org/1999/xlink" xml:space="preserve" onload="init(evt)">

<style type="text/css"><![CDATA[
.node, .edge {opacity: 0.7;}
.node.selected, .edge.selected {opacity: 1;}
.edge:hover path { stroke: red; }
.edge:hover polygon { stroke: red; fill: red; }
]]></style>

<defs>
  <circle id="rim" cx="0" cy="0" r="7"/>
  <circle id="rim2" cx="0" cy="0" r="3.5"/>
  <g id="zoomPlus">
    <use xlink:href="#rim" fill="#404040"><set attributeName="fill" to="#808080" begin="zoomplus.mouseover" end="zoomplus.mouseout"/></use>
    <path d="M-4,0h8M0,-4v8" fill="none" stroke="white" stroke-width="1.5" pointer-events="none"/>
  </g>
  <g id="zoomMin">
    <use xlink:href="#rim" fill="#404040"><set attributeName="fill" to="#808080" begin="zoomminus.mouseover" end="zoomminus.mouseout"/></use>
    <path d="M-4,0h8" fill="none" stroke="white" stroke-width="1.5" pointer-events="none"/>
  </g>
  <g id="arrowUp" transform="translate(30 24)">
    <use xlink:href="#rim"/>
    <path pointer-events="none" fill="none" stroke="white" stroke-width="1.5" d="M0,-3.0v7 M-2.5,-0.5L0,-3.0L2.5,-0.5"/>
  </g>
  <g id="arrowRight" transform="rotate(90) translate(36 -43)">
    <use xlink:href="#rim"/>
    <path pointer-events="none" fill="none" stroke="white" stroke-width="1.5" d="M0,-3.0v7 M-2.5,-0.5L0,-3.0L2.5,-0.5"/>
  </g>
  <g id="arrowDown" transform="rotate(180) translate(-30 -48)">
    <use xlink:href="#rim"/>
    <path pointer-events="none" fill="none" stroke="white" stroke-width="1.5" d="M0,-3.0v7 M-2.5,-0.5L0,-3.0L2.5,-0.5"/>
  </g>
  <g id="arrowLeft" transform="rotate(270) translate(-36 17)">
    <use xlink:href="#rim"/>
    <path pointer-events="none" fill="none" stroke="white" stroke-width="1.5" d="M0,-3.0v7 M-2.5,-0.5L0,-3.0L2.5,-0.5"/>
  </g>
  <g id="resetDef">
    <use xlink:href="#rim2" fill="#404040"><set attributeName="fill" to="#808080" begin="reset.mouseover" end="reset.mouseout"/></use>
  </g>
</defs>
<script type="application/ecmascript">
var viewWidth = 942;
var viewHeight = 110;
var sectionId = 'dynsection-3';
</script>
<script type="application/ecmascript" xlink:href="svg.min.js"/>
<svg id="graph" class="graph">
<g id="viewport">
<title>fr.softsf.sudokufx.view.component.firework.Firework.FireworkContext</title>
<!-- Node1 -->
<g id="Node000001" class="node">
<title>Node1</title>
<g id="a_Node000001"><a xlink:title="Snapshot of the rendering environment including scaling metrics.">
<polygon fill="#999999" stroke="#666666" points="206.5,-71.67 0,-71.67 0,-39.67 206.5,-39.67 206.5,-71.67"/>
<text text-anchor="start" x="8" y="-58.17" font-family="Helvetica,sans-Serif" font-size="10.00">fr.softsf.sudokufx.view.component.firework.</text>
<text text-anchor="middle" x="103.25" y="-46.17" font-family="Helvetica,sans-Serif" font-size="10.00">Firework.FireworkContext</text>
</a>
</g>
</g>
<!-- Node2 -->
<g id="Node000002" class="node">
<title>Node2</title>
<g id="a_Node000002"><a xlink:href="classfr_1_1softsf_1_1sudokufx_1_1view_1_1component_1_1firework_1_1_firework.html#ac6cc6c251a94b02e939acfbce3009d5a" target="_top" xlink:title="Initializes the component and its reusable animation loop.">
<polygon fill="white" stroke="#666666" points="449,-49.67 242.5,-49.67 242.5,-17.67 449,-17.67 449,-49.67"/>
<text text-anchor="start" x="250.5" y="-36.17" font-family="Helvetica,sans-Serif" font-size="10.00">fr.softsf.sudokufx.view.component.firework.</text>
<text text-anchor="middle" x="345.75" y="-24.17" font-family="Helvetica,sans-Serif" font-size="10.00">Firework.Firework</text>
</a>
</g>
</g>
<!-- Node1&#45;&gt;Node2 -->
<g id="edge1_Node000001_Node000002" class="edge">
<title>Node1&#45;&gt;Node2</title>
<g id="a_edge1_Node000001_Node000002"><a xlink:title=" ">
<path fill="none" stroke="#63b8ff" d="M206.94,-46.27C214.84,-45.55 222.84,-44.82 230.8,-44.09"/>
<polygon fill="#63b8ff" stroke="#63b8ff" points="230.87,-47.6 240.51,-43.2 230.23,-40.63 230.87,-47.6"/>
</a>
</g>
</g>
<!-- Node3 -->
<g id="Node000003" class="node">
<title>Node3</title>
<g id="a_Node000003"><a xlink:href="classfr_1_1softsf_1_1sudokufx_1_1view_1_1component_1_1firework_1_1_firework.html#a497b0b27502d30d1844cd54e4dd6fcf0" target="_top" xlink:title="Generates a circular particle burst at a random screen location.">
<polygon fill="white" stroke="#666666" points="691.5,-87.67 485,-87.67 485,-55.67 691.5,-55.67 691.5,-87.67"/>
<text text-anchor="start" x="493" y="-74.17" font-family="Helvetica,sans-Serif" font-size="10.00">fr.softsf.sudokufx.view.component.firework.</text>
<text text-anchor="middle" x="588.25" y="-62.17" font-family="Helvetica,sans-Serif" font-size="10.00">Firework.ignite</text>
</a>
</g>
</g>
<!-- Node2&#45;&gt;Node3 -->
<g id="edge2_Node000002_Node000003" class="edge">
<title>Node2&#45;&gt;Node3</title>
<g id="a_edge2_Node000002_Node000003"><a xlink:title=" ">
<path fill="none" stroke="#63b8ff" d="M449.44,-49.89C457.34,-51.14 465.34,-52.41 473.3,-53.66"/>
<polygon fill="#63b8ff" stroke="#63b8ff" points="472.6,-57.1 483.02,-55.2 473.69,-50.18 472.6,-57.1"/>
</a>
</g>
</g>
<!-- Node5 -->
<g id="Node000005" class="node">
<title>Node5</title>
<g id="a_Node000005"><a xlink:href="classfr_1_1softsf_1_1sudokufx_1_1view_1_1component_1_1firework_1_1_firework.html#ab989e17fd615336c73186f7f80b6c976" target="_top" xlink:title="Updates positions for all active particles and prunes expired ones.">
<polygon fill="white" stroke="#666666" points="691.5,-37.67 485,-37.67 485,-5.67 691.5,-5.67 691.5,-37.67"/>
<text text-anchor="start" x="493" y="-24.17" font-family="Helvetica,sans-Serif" font-size="10.00">fr.softsf.sudokufx.view.component.firework.</text>
<text text-anchor="middle" x="588.25" y="-12.17" font-family="Helvetica,sans-Serif" font-size="10.00">Firework.updateParticles</text>
</a>
</g>
</g>
<!-- Node2&#45;&gt;Node5 -->
<g id="edge6_Node000002_Node000005" class="edge">
<title>Node2&#45;&gt;Node5</title>
<g id="a_edge6_Node000002_Node000005"><a xlink:title=" ">
<path fill="none" stroke="#63b8ff" d="M449.44,-28.54C457.25,-28.16 465.15,-27.76 473.03,-27.37"/>
<polygon fill="#63b8ff" stroke="#63b8ff" points="473.19,-30.86 483.01,-26.87 472.85,-23.87 473.19,-30.86"/>
</a>
</g>
</g>
<!-- Node3&#45;&gt;Node1 -->
<g id="edge3_Node000003_Node000001" class="edge">
<title>Node3&#45;&gt;Node1</title>
<g id="a_edge3_Node000003_Node000001"><a xlink:title=" ">
<path fill="none" stroke="#63b8ff" d="M484.68,-68.27C406.54,-65.68 299.01,-62.12 218.2,-59.44"/>
<polygon fill="#63b8ff" stroke="#63b8ff" points="218.6,-55.95 208.49,-59.12 218.37,-62.95 218.6,-55.95"/>
</a>
</g>
</g>
<!-- Node4 -->
<g id="Node000004" class="node">
<title>Node4</title>
<g id="a_Node000004"><a xlink:href="classfr_1_1softsf_1_1sudokufx_1_1view_1_1component_1_1firework_1_1_firework.html#a238e975882b916d63349843dd54fbd33" target="_top" xlink:title="Captures the current scene metrics and the firework instance.">
<polygon fill="white" stroke="#666666" points="934,-87.67 727.5,-87.67 727.5,-55.67 934,-55.67 934,-87.67"/>
<text text-anchor="start" x="735.5" y="-74.17" font-family="Helvetica,sans-Serif" font-size="10.00">fr.softsf.sudokufx.view.component.firework.</text>
<text text-anchor="middle" x="830.75" y="-62.17" font-family="Helvetica,sans-Serif" font-size="10.00">Firework.getFireworkContext</text>
</a>
</g>
</g>
<!-- Node3&#45;&gt;Node4 -->
<g id="edge4_Node000003_Node000004" class="edge">
<title>Node3&#45;&gt;Node4</title>
<g id="a_edge4_Node000003_Node000004"><a xlink:title=" ">
<path fill="none" stroke="#63b8ff" d="M691.94,-71.67C699.75,-71.67 707.65,-71.67 715.53,-71.67"/>
<polygon fill="#63b8ff" stroke="#63b8ff" points="715.51,-75.17 725.51,-71.67 715.51,-68.17 715.51,-75.17"/>
</a>
</g>
</g>
<!-- Node4&#45;&gt;Node1 -->
<g id="edge5_Node000004_Node000001" class="edge">
<title>Node4&#45;&gt;Node1</title>
<g id="a_edge5_Node000004_Node000001"><a xlink:title=" ">
<path fill="none" stroke="#63b8ff" d="M752.58,-88.14C732.76,-91.67 711.42,-94.88 691.5,-96.67 525.34,-111.57 332.32,-90.8 214.24,-73.79"/>
<polygon fill="#63b8ff" stroke="#63b8ff" points="214.95,-70.36 204.55,-72.37 213.94,-77.28 214.95,-70.36"/>
</a>
</g>
</g>
<!-- Node5&#45;&gt;Node1 -->
<g id="edge7_Node000005_Node000001" class="edge">
<title>Node5&#45;&gt;Node1</title>
<g id="a_edge7_Node000005_Node000001"><a xlink:title=" ">
<path fill="none" stroke="#63b8ff" d="M484.75,-7.1C415.82,0.09 323.16,4.67 242.5,-8.67 211.5,-13.79 178.12,-24.97 151.92,-35.14"/>
<polygon fill="#63b8ff" stroke="#63b8ff" points="150.94,-31.76 142.94,-38.71 153.52,-38.27 150.94,-31.76"/>
</a>
</g>
</g>
<!-- Node5&#45;&gt;Node4 -->
<g id="edge8_Node000005_Node000004" class="edge">
<title>Node5&#45;&gt;Node4</title>
<g id="a_edge8_Node000005_Node000004"><a xlink:title=" ">
<path fill="none" stroke="#63b8ff" d="M668.33,-38.11C691.14,-42.85 716.2,-48.06 739.63,-52.93"/>
<polygon fill="#63b8ff" stroke="#63b8ff" points="738.64,-56.3 749.14,-54.91 740.06,-49.45 738.64,-56.3"/>
</a>
</g>
</g>
<!-- Node6 -->
<g id="Node000006" class="node">
<title>Node6</title>
<g id="a_Node000006"><a xlink:href="classfr_1_1softsf_1_1sudokufx_1_1view_1_1component_1_1firework_1_1_firework_particle.html#ada8ac44a5ea749dd30023ad11ce7d49e" target="_top" xlink:title="Updates physics, position, and opacity.">
<polygon fill="white" stroke="#666666" points="934,-37.67 727.5,-37.67 727.5,-5.67 934,-5.67 934,-37.67"/>
<text text-anchor="start" x="735.5" y="-24.17" font-family="Helvetica,sans-Serif" font-size="10.00">fr.softsf.sudokufx.view.component.firework.</text>
<text text-anchor="middle" x="830.75" y="-12.17" font-family="Helvetica,sans-Serif" font-size="10.00">FireworkParticle.update</text>
</a>
</g>
</g>
<!-- Node5&#45;&gt;Node6 -->
<g id="edge9_Node000005_Node000006" class="edge">
<title>Node5&#45;&gt;Node6</title>
<g id="a_edge9_Node000005_Node000006"><a xlink:title=" ">
<path fill="none" stroke="#63b8ff" d="M691.94,-21.67C699.75,-21.67 707.65,-21.67 715.53,-21.67"/>
<polygon fill="#63b8ff" stroke="#63b8ff" points="715.51,-25.17 725.51,-21.67 715.51,-18.17 715.51,-25.17"/>
</a>
</g>
</g>
</g>
</svg>

<g id="navigator" transform="translate(0 0)" fill="#404254">
  <rect fill="#f2f5e9" fill-opacity="0.5" stroke="#606060" stroke-width=".5" x="0" y="0" width="60" height="60"/>
  <use id="zoomplus" xlink:href="#zoomPlus" x="17" y="9" onmousedown="handleZoom(evt,'in')"/>
  <use id="zoomminus" xlink:href="#zoomMin" x="42" y="9" onmousedown="handleZoom(evt,'out')"/>
  <use id="reset" xlink:href="#resetDef" x="30" y="36" onmousedown="handleReset()"/>
   <use id="arrowup" xlink:href="#arrowUp" x="0" y="0" onmousedown="handlePan(0,-1)"/>
  <use id="arrowright" xlink:href="#arrowRight" x="0" y="0" onmousedown="handlePan(1,0)"/>
  <use id="arrowdown" xlink:href="#arrowDown" x="0" y="0" onmousedown="handlePan(0,1)"/>
  <use id="arrowleft" xlink:href="#arrowLeft" x="0" y="0" onmousedown="handlePan(-1,0)"/>
</g>
<svg viewBox="0 0 15 15" width="100%" height="30px" preserveAspectRatio="xMaxYMin meet">
 <g id="arrow_out" transform="scale(0.3 0.3)">
  <a xlink:href="classfr_1_1softsf_1_1sudokufx_1_1view_1_1component_1_1firework_1_1_firework_adc1e8659376adaf0c3bdc4a8742cd87c_cgraph_org.svg" target="_base">
   <rect id="button" ry="5" rx="5" y="6" x="6" height="38" width="38"
        fill="#f2f5e9" fill-opacity="0.5" stroke="#606060" stroke-width="1.0"/>
   <path id="arrow"
     d="M 11.500037,31.436501 C 11.940474,20.09759 22.043105,11.32322 32.158766,21.979434 L 37.068811,17.246167 C 37.068811,17.246167 37.088388,32 37.088388,32 L 22.160133,31.978069 C 22.160133,31.978069 26.997745,27.140456 26.997745,27.140456 C 18.528582,18.264221 13.291696,25.230495 11.500037,31.436501 z"
     style="fill:#404040;"/>
  </a>
 </g>
</svg>

<style type='text/css'>
<![CDATA[
[data-mouse-over-selected='false'] { opacity: 0.7; }
[data-mouse-over-selected='true']  { opacity: 1.0; }
]]>
</style>
<script type="application/ecmascript"><![CDATA[
document.addEventListener('DOMContentLoaded', (event) => {
  highlightEdges();
  highlightAdjacentNodes();
});
]]></script>
</svg>
