<?xml version="1.0" encoding="UTF-8" standalone="no"?>
<!DOCTYPE svg PUBLIC "-//W3C//DTD SVG 1.1//EN"
 "http://www.w3.org/Graphics/SVG/1.1/DTD/svg11.dtd">
<!-- Generated by graphviz version 12.2.1 (20241206.2353)
 -->
<!-- Title: fr.softsf.sudokufx.view.components.list.ItemListCell Pages: 1 -->
<svg width="190pt" height="452pt"
 viewBox="0.00 0.00 190.00 452.00" xmlns="http://www.w3.org/2000/svg" xmlns:xlink="http://www.w3.org/1999/xlink">
<g id="graph0" class="graph" transform="scale(1 1) rotate(0) translate(4 448)">
<title>fr.softsf.sudokufx.view.components.list.ItemListCell</title>
<!-- Node1 -->
<g id="Node000001" class="node">
<title>Node1</title>
<g id="a_Node000001"><a xlink:title="Custom cell for a ListView&lt;String&gt; that displays an item with a button allowing its removal after use...">
<polygon fill="#999999" stroke="none" points="182,-356 0,-356 0,0 182,0 182,-356"/>
<text text-anchor="start" x="4" y="-342.5" font-family="Helvetica,sans-Serif" font-size="10.00">fr.softsf.sudokufx.view.components.list.</text>
<text text-anchor="start" x="64.75" y="-330.5" font-family="Helvetica,sans-Serif" font-size="10.00">ItemListCell</text>
<text text-anchor="start" x="6.94" y="-314.5" font-family="Helvetica,sans-Serif" font-size="10.00">&#45;</text>
<text text-anchor="start" x="16.88" y="-314.5" font-family="Helvetica,sans-Serif" font-size="10.00">final Button button</text>
<text text-anchor="start" x="6.94" y="-298.5" font-family="Helvetica,sans-Serif" font-size="10.00">&#45;</text>
<text text-anchor="start" x="16.88" y="-298.5" font-family="Helvetica,sans-Serif" font-size="10.00">final String buttonAccessibleText</text>
<text text-anchor="start" x="6.94" y="-282.5" font-family="Helvetica,sans-Serif" font-size="10.00">&#45;</text>
<text text-anchor="start" x="16.88" y="-282.5" font-family="Helvetica,sans-Serif" font-size="10.00">final Alert confirmation</text>
<text text-anchor="start" x="16.88" y="-270.5" font-family="Helvetica,sans-Serif" font-size="10.00">Alert</text>
<text text-anchor="start" x="6.94" y="-254.5" font-family="Helvetica,sans-Serif" font-size="10.00">&#45;</text>
<text text-anchor="start" x="16.88" y="-254.5" font-family="Helvetica,sans-Serif" font-size="10.00">final String confirmation</text>
<text text-anchor="start" x="16.88" y="-242.5" font-family="Helvetica,sans-Serif" font-size="10.00">Message</text>
<text text-anchor="start" x="6.94" y="-226.5" font-family="Helvetica,sans-Serif" font-size="10.00">&#45;</text>
<text text-anchor="start" x="16.88" y="-226.5" font-family="Helvetica,sans-Serif" font-size="10.00">final String confirmation</text>
<text text-anchor="start" x="16.88" y="-214.5" font-family="Helvetica,sans-Serif" font-size="10.00">Title</text>
<text text-anchor="start" x="6.94" y="-198.5" font-family="Helvetica,sans-Serif" font-size="10.00">&#45;</text>
<text text-anchor="start" x="16.88" y="-198.5" font-family="Helvetica,sans-Serif" font-size="10.00">final HBox hBox</text>
<text text-anchor="start" x="6.94" y="-182.5" font-family="Helvetica,sans-Serif" font-size="10.00">&#45;</text>
<text text-anchor="start" x="16.88" y="-182.5" font-family="Helvetica,sans-Serif" font-size="10.00">final Label label</text>
<text text-anchor="start" x="6.94" y="-166.5" font-family="Helvetica,sans-Serif" font-size="10.00">&#45;</text>
<text text-anchor="start" x="16.88" y="-166.5" font-family="Helvetica,sans-Serif" font-size="10.00">final ListView&lt; String</text>
<text text-anchor="start" x="16.88" y="-154.5" font-family="Helvetica,sans-Serif" font-size="10.00"> &gt; listView</text>
<text text-anchor="start" x="6.94" y="-138.5" font-family="Helvetica,sans-Serif" font-size="10.00">&#45;</text>
<text text-anchor="start" x="16.88" y="-138.5" font-family="Helvetica,sans-Serif" font-size="10.00">static final Logger log</text>
<text text-anchor="start" x="5.44" y="-122.5" font-family="Helvetica,sans-Serif" font-size="10.00">+</text>
<text text-anchor="start" x="16.88" y="-122.5" font-family="Helvetica,sans-Serif" font-size="10.00">ItemListCell(ListView</text>
<text text-anchor="start" x="16.88" y="-110.5" font-family="Helvetica,sans-Serif" font-size="10.00">&lt; String &gt; listView, String</text>
<text text-anchor="start" x="16.88" y="-98.5" font-family="Helvetica,sans-Serif" font-size="10.00"> buttonText, String buttonAccessible</text>
<text text-anchor="start" x="16.88" y="-86.5" font-family="Helvetica,sans-Serif" font-size="10.00">Text, String confirmationTitle,</text>
<text text-anchor="start" x="16.88" y="-74.5" font-family="Helvetica,sans-Serif" font-size="10.00"> String confirmationMessage, Alert</text>
<text text-anchor="start" x="16.88" y="-62.5" font-family="Helvetica,sans-Serif" font-size="10.00"> confirmationAlert)</text>
<text text-anchor="start" x="5.81" y="-46.5" font-family="Helvetica,sans-Serif" font-size="10.00">#</text>
<text text-anchor="start" x="16.88" y="-46.5" font-family="Helvetica,sans-Serif" font-size="10.00">void updateItem(String</text>
<text text-anchor="start" x="16.88" y="-34.5" font-family="Helvetica,sans-Serif" font-size="10.00"> item, boolean empty)</text>
<text text-anchor="start" x="6.94" y="-18.5" font-family="Helvetica,sans-Serif" font-size="10.00">&#45;</text>
<text text-anchor="start" x="16.88" y="-18.5" font-family="Helvetica,sans-Serif" font-size="10.00">void confirmAndRemoveItem</text>
<text text-anchor="start" x="16.88" y="-6.5" font-family="Helvetica,sans-Serif" font-size="10.00">(String item)</text>
<polygon fill="#666666" stroke="#666666" points="0,-326 0,-326 182,-326 182,-326 0,-326"/>
<polygon fill="#666666" stroke="#666666" points="0,-134 0,-134 14.88,-134 14.88,-134 0,-134"/>
<polygon fill="#666666" stroke="#666666" points="14.88,-134 14.88,-134 182,-134 182,-134 14.88,-134"/>
<polygon fill="none" stroke="#666666" points="0,0 0,-356 182,-356 182,0 0,0"/>
</a>
</g>
</g>
<!-- Node2 -->
<g id="Node000002" class="node">
<title>Node2</title>
<g id="a_Node000002"><a xlink:title=" ">
<polygon fill="white" stroke="none" points="133.25,-444 48.75,-444 48.75,-392 133.25,-392 133.25,-444"/>
<text text-anchor="start" x="52.75" y="-430.5" font-family="Helvetica,sans-Serif" font-size="10.00">ListCell&lt; String &gt;</text>
<text text-anchor="start" x="89.5" y="-414.5" font-family="Helvetica,sans-Serif" font-size="10.00"> </text>
<text text-anchor="start" x="89.5" y="-398.5" font-family="Helvetica,sans-Serif" font-size="10.00"> </text>
<polygon fill="#666666" stroke="#666666" points="48.75,-426 48.75,-426 133.25,-426 133.25,-426 48.75,-426"/>
<polygon fill="#666666" stroke="#666666" points="48.75,-410 48.75,-410 133.25,-410 133.25,-410 48.75,-410"/>
<polygon fill="none" stroke="#666666" points="48.75,-392 48.75,-444 133.25,-444 133.25,-392 48.75,-392"/>
</a>
</g>
</g>
<!-- Node2&#45;&gt;Node1 -->
<g id="edge1_Node000001_Node000002" class="edge">
<title>Node2&#45;&gt;Node1</title>
<g id="a_edge1_Node000001_Node000002"><a xlink:title=" ">
<path fill="none" stroke="#63b8ff" d="M91,-381.16C91,-373.48 91,-364.88 91,-355.67"/>
<polygon fill="none" stroke="#63b8ff" points="87.5,-380.91 91,-390.91 94.5,-380.91 87.5,-380.91"/>
</a>
</g>
</g>
</g>
</svg>
