<?xml version="1.0" encoding="UTF-8" standalone="no"?>
<!DOCTYPE svg PUBLIC "-//W3C//DTD SVG 1.1//EN"
 "http://www.w3.org/Graphics/SVG/1.1/DTD/svg11.dtd">
<!-- Generated by graphviz version 12.2.1 (20241206.2353)
 -->
<!-- Title: fr.softsf.sudokufx.viewmodel.MenuPlayerViewModel Pages: 1 -->
<svg width="372pt" height="1613pt"
 viewBox="0.00 0.00 371.75 1613.00" xmlns="http://www.w3.org/2000/svg" xmlns:xlink="http://www.w3.org/1999/xlink">
<g id="graph0" class="graph" transform="scale(1 1) rotate(0) translate(4 1609)">
<title>fr.softsf.sudokufx.viewmodel.MenuPlayerViewModel</title>
<!-- Node1 -->
<g id="Node000001" class="node">
<title>Node1</title>
<g id="a_Node000001"><a xlink:title="ViewModel managing player menu UI state and localized accessibility texts.">
<polygon fill="#999999" stroke="none" points="249.88,-916 76.62,-916 76.62,0 249.88,0 249.88,-916"/>
<text text-anchor="start" x="98.75" y="-902.5" font-family="Helvetica,sans-Serif" font-size="10.00">fr.softsf.sudokufx.viewmodel.</text>
<text text-anchor="start" x="113.38" y="-890.5" font-family="Helvetica,sans-Serif" font-size="10.00">MenuPlayerViewModel</text>
<text text-anchor="start" x="82.12" y="-874.5" font-family="Helvetica,sans-Serif" font-size="10.00">&#45;</text>
<text text-anchor="start" x="90.62" y="-874.5" font-family="Helvetica,sans-Serif" font-size="10.00">final StringBinding</text>
<text text-anchor="start" x="90.62" y="-862.5" font-family="Helvetica,sans-Serif" font-size="10.00"> cellButtonAccessibleText</text>
<text text-anchor="start" x="82.12" y="-846.5" font-family="Helvetica,sans-Serif" font-size="10.00">&#45;</text>
<text text-anchor="start" x="90.62" y="-846.5" font-family="Helvetica,sans-Serif" font-size="10.00">final StringBinding</text>
<text text-anchor="start" x="90.62" y="-834.5" font-family="Helvetica,sans-Serif" font-size="10.00"> cellConfirmationMessage</text>
<text text-anchor="start" x="82.12" y="-818.5" font-family="Helvetica,sans-Serif" font-size="10.00">&#45;</text>
<text text-anchor="start" x="90.62" y="-818.5" font-family="Helvetica,sans-Serif" font-size="10.00">final StringBinding</text>
<text text-anchor="start" x="90.62" y="-806.5" font-family="Helvetica,sans-Serif" font-size="10.00"> cellConfirmationTitle</text>
<text text-anchor="start" x="82.12" y="-790.5" font-family="Helvetica,sans-Serif" font-size="10.00">&#45;</text>
<text text-anchor="start" x="90.62" y="-790.5" font-family="Helvetica,sans-Serif" font-size="10.00">final StringBinding</text>
<text text-anchor="start" x="90.62" y="-778.5" font-family="Helvetica,sans-Serif" font-size="10.00"> editAccessibleText</text>
<text text-anchor="start" x="82.12" y="-762.5" font-family="Helvetica,sans-Serif" font-size="10.00">&#45;</text>
<text text-anchor="start" x="90.62" y="-762.5" font-family="Helvetica,sans-Serif" font-size="10.00">final StringBinding</text>
<text text-anchor="start" x="90.62" y="-750.5" font-family="Helvetica,sans-Serif" font-size="10.00"> editRoleDescription</text>
<text text-anchor="start" x="82.12" y="-734.5" font-family="Helvetica,sans-Serif" font-size="10.00">&#45;</text>
<text text-anchor="start" x="90.62" y="-734.5" font-family="Helvetica,sans-Serif" font-size="10.00">final StringBinding</text>
<text text-anchor="start" x="90.62" y="-722.5" font-family="Helvetica,sans-Serif" font-size="10.00"> editTooltip</text>
<text text-anchor="start" x="82.12" y="-706.5" font-family="Helvetica,sans-Serif" font-size="10.00">&#45;</text>
<text text-anchor="start" x="90.62" y="-706.5" font-family="Helvetica,sans-Serif" font-size="10.00">final StringBinding</text>
<text text-anchor="start" x="90.62" y="-694.5" font-family="Helvetica,sans-Serif" font-size="10.00"> maxiPlayerRoleDescription</text>
<text text-anchor="start" x="82.12" y="-678.5" font-family="Helvetica,sans-Serif" font-size="10.00">&#45;</text>
<text text-anchor="start" x="90.62" y="-678.5" font-family="Helvetica,sans-Serif" font-size="10.00">final StringBinding</text>
<text text-anchor="start" x="90.62" y="-666.5" font-family="Helvetica,sans-Serif" font-size="10.00"> maxiPlayerTooltip</text>
<text text-anchor="start" x="82.12" y="-650.5" font-family="Helvetica,sans-Serif" font-size="10.00">&#45;</text>
<text text-anchor="start" x="90.62" y="-650.5" font-family="Helvetica,sans-Serif" font-size="10.00">final StringBinding</text>
<text text-anchor="start" x="90.62" y="-638.5" font-family="Helvetica,sans-Serif" font-size="10.00"> newAccessibleText</text>
<text text-anchor="start" x="82.12" y="-622.5" font-family="Helvetica,sans-Serif" font-size="10.00">&#45;</text>
<text text-anchor="start" x="90.62" y="-622.5" font-family="Helvetica,sans-Serif" font-size="10.00">final StringBinding</text>
<text text-anchor="start" x="90.62" y="-610.5" font-family="Helvetica,sans-Serif" font-size="10.00"> newRoleDescription</text>
<text text-anchor="start" x="90.62" y="-594.5" font-family="Helvetica,sans-Serif" font-size="10.00">and 9 more...</text>
<text text-anchor="start" x="82.12" y="-578.5" font-family="Helvetica,sans-Serif" font-size="10.00">&#45;</text>
<text text-anchor="start" x="90.62" y="-578.5" font-family="Helvetica,sans-Serif" font-size="10.00">static final String</text>
<text text-anchor="start" x="90.62" y="-566.5" font-family="Helvetica,sans-Serif" font-size="10.00"> MENU_ACCESSIBILITY</text>
<text text-anchor="start" x="90.62" y="-554.5" font-family="Helvetica,sans-Serif" font-size="10.00">_ROLE_DESCRIPTION_CLOSED</text>
<text text-anchor="start" x="82.12" y="-538.5" font-family="Helvetica,sans-Serif" font-size="10.00">&#45;</text>
<text text-anchor="start" x="90.62" y="-538.5" font-family="Helvetica,sans-Serif" font-size="10.00">static final String</text>
<text text-anchor="start" x="90.62" y="-526.5" font-family="Helvetica,sans-Serif" font-size="10.00"> MENU_ACCESSIBILITY</text>
<text text-anchor="start" x="90.62" y="-514.5" font-family="Helvetica,sans-Serif" font-size="10.00">_ROLE_DESCRIPTION_OPENED</text>
<text text-anchor="start" x="80.62" y="-498.5" font-family="Helvetica,sans-Serif" font-size="10.00">+</text>
<text text-anchor="start" x="90.62" y="-498.5" font-family="Helvetica,sans-Serif" font-size="10.00">MenuPlayerViewModel</text>
<text text-anchor="start" x="90.62" y="-486.5" font-family="Helvetica,sans-Serif" font-size="10.00">(InMemoryPlayer inMemoryPlayer)</text>
<text text-anchor="start" x="80.62" y="-470.5" font-family="Helvetica,sans-Serif" font-size="10.00">+</text>
<text text-anchor="start" x="90.62" y="-470.5" font-family="Helvetica,sans-Serif" font-size="10.00">StringBinding cellButton</text>
<text text-anchor="start" x="90.62" y="-458.5" font-family="Helvetica,sans-Serif" font-size="10.00">AccessibleTextProperty()</text>
<text text-anchor="start" x="80.62" y="-442.5" font-family="Helvetica,sans-Serif" font-size="10.00">+</text>
<text text-anchor="start" x="90.62" y="-442.5" font-family="Helvetica,sans-Serif" font-size="10.00">StringBinding cellConfirmation</text>
<text text-anchor="start" x="90.62" y="-430.5" font-family="Helvetica,sans-Serif" font-size="10.00">MessageProperty()</text>
<text text-anchor="start" x="80.62" y="-414.5" font-family="Helvetica,sans-Serif" font-size="10.00">+</text>
<text text-anchor="start" x="90.62" y="-414.5" font-family="Helvetica,sans-Serif" font-size="10.00">StringBinding cellConfirmation</text>
<text text-anchor="start" x="90.62" y="-402.5" font-family="Helvetica,sans-Serif" font-size="10.00">TitleProperty()</text>
<text text-anchor="start" x="80.62" y="-386.5" font-family="Helvetica,sans-Serif" font-size="10.00">+</text>
<text text-anchor="start" x="90.62" y="-386.5" font-family="Helvetica,sans-Serif" font-size="10.00">StringBinding editAccessible</text>
<text text-anchor="start" x="90.62" y="-374.5" font-family="Helvetica,sans-Serif" font-size="10.00">TextProperty()</text>
<text text-anchor="start" x="80.62" y="-358.5" font-family="Helvetica,sans-Serif" font-size="10.00">+</text>
<text text-anchor="start" x="90.62" y="-358.5" font-family="Helvetica,sans-Serif" font-size="10.00">StringBinding editRoleDescription</text>
<text text-anchor="start" x="90.62" y="-346.5" font-family="Helvetica,sans-Serif" font-size="10.00">Property()</text>
<text text-anchor="start" x="80.62" y="-330.5" font-family="Helvetica,sans-Serif" font-size="10.00">+</text>
<text text-anchor="start" x="90.62" y="-330.5" font-family="Helvetica,sans-Serif" font-size="10.00">StringBinding editTooltip</text>
<text text-anchor="start" x="90.62" y="-318.5" font-family="Helvetica,sans-Serif" font-size="10.00">Property()</text>
<text text-anchor="start" x="80.62" y="-302.5" font-family="Helvetica,sans-Serif" font-size="10.00">+</text>
<text text-anchor="start" x="90.62" y="-302.5" font-family="Helvetica,sans-Serif" font-size="10.00">ObservableList&lt; PlayerDto</text>
<text text-anchor="start" x="90.62" y="-290.5" font-family="Helvetica,sans-Serif" font-size="10.00"> &gt; getPlayers()</text>
<text text-anchor="start" x="80.62" y="-274.5" font-family="Helvetica,sans-Serif" font-size="10.00">+</text>
<text text-anchor="start" x="90.62" y="-274.5" font-family="Helvetica,sans-Serif" font-size="10.00">StringBinding maxiPlayer</text>
<text text-anchor="start" x="90.62" y="-262.5" font-family="Helvetica,sans-Serif" font-size="10.00">RoleDescriptionProperty()</text>
<text text-anchor="start" x="80.62" y="-246.5" font-family="Helvetica,sans-Serif" font-size="10.00">+</text>
<text text-anchor="start" x="90.62" y="-246.5" font-family="Helvetica,sans-Serif" font-size="10.00">StringBinding maxiPlayer</text>
<text text-anchor="start" x="90.62" y="-234.5" font-family="Helvetica,sans-Serif" font-size="10.00">TooltipProperty()</text>
<text text-anchor="start" x="90.62" y="-218.5" font-family="Helvetica,sans-Serif" font-size="10.00">and 11 more...</text>
<text text-anchor="start" x="82.12" y="-202.5" font-family="Helvetica,sans-Serif" font-size="10.00">&#45;</text>
<text text-anchor="start" x="90.62" y="-202.5" font-family="Helvetica,sans-Serif" font-size="10.00">StringBinding createAppended</text>
<text text-anchor="start" x="90.62" y="-190.5" font-family="Helvetica,sans-Serif" font-size="10.00">StringBinding()</text>
<text text-anchor="start" x="82.12" y="-174.5" font-family="Helvetica,sans-Serif" font-size="10.00">&#45;</text>
<text text-anchor="start" x="90.62" y="-174.5" font-family="Helvetica,sans-Serif" font-size="10.00">StringBinding createFormatted</text>
<text text-anchor="start" x="90.62" y="-162.5" font-family="Helvetica,sans-Serif" font-size="10.00">AndConcatenatedBinding(String</text>
<text text-anchor="start" x="90.62" y="-150.5" font-family="Helvetica,sans-Serif" font-size="10.00"> key, String suffixKey)</text>
<text text-anchor="start" x="82.12" y="-134.5" font-family="Helvetica,sans-Serif" font-size="10.00">&#45;</text>
<text text-anchor="start" x="90.62" y="-134.5" font-family="Helvetica,sans-Serif" font-size="10.00">StringBinding createFormatted</text>
<text text-anchor="start" x="90.62" y="-122.5" font-family="Helvetica,sans-Serif" font-size="10.00">Binding(String key, Supplier</text>
<text text-anchor="start" x="90.62" y="-110.5" font-family="Helvetica,sans-Serif" font-size="10.00">&lt; String &gt; argSupplier)</text>
<text text-anchor="start" x="82.12" y="-94.5" font-family="Helvetica,sans-Serif" font-size="10.00">&#45;</text>
<text text-anchor="start" x="90.62" y="-94.5" font-family="Helvetica,sans-Serif" font-size="10.00">StringBinding createString</text>
<text text-anchor="start" x="90.62" y="-82.5" font-family="Helvetica,sans-Serif" font-size="10.00">Binding(String key)</text>
<text text-anchor="start" x="82.12" y="-66.5" font-family="Helvetica,sans-Serif" font-size="10.00">&#45;</text>
<text text-anchor="start" x="90.62" y="-66.5" font-family="Helvetica,sans-Serif" font-size="10.00">PlayerDto generatePlayer</text>
<text text-anchor="start" x="90.62" y="-54.5" font-family="Helvetica,sans-Serif" font-size="10.00">ForTests(String name)</text>
<text text-anchor="start" x="82.12" y="-38.5" font-family="Helvetica,sans-Serif" font-size="10.00">&#45;</text>
<text text-anchor="start" x="90.62" y="-38.5" font-family="Helvetica,sans-Serif" font-size="10.00">void loadPlayers()</text>
<text text-anchor="start" x="82.12" y="-22.5" font-family="Helvetica,sans-Serif" font-size="10.00">&#45;</text>
<text text-anchor="start" x="90.62" y="-22.5" font-family="Helvetica,sans-Serif" font-size="10.00">String playerName()</text>
<text text-anchor="start" x="82.12" y="-6.5" font-family="Helvetica,sans-Serif" font-size="10.00">&#45;</text>
<text text-anchor="start" x="90.62" y="-6.5" font-family="Helvetica,sans-Serif" font-size="10.00">void setSelectedPlayer()</text>
<polygon fill="#666666" stroke="#666666" points="76.62,-886 76.62,-886 249.88,-886 249.88,-886 76.62,-886"/>
<polygon fill="#666666" stroke="#666666" points="76.62,-510 76.62,-510 88.62,-510 88.62,-510 76.62,-510"/>
<polygon fill="#666666" stroke="#666666" points="88.62,-510 88.62,-510 249.88,-510 249.88,-510 88.62,-510"/>
<polygon fill="none" stroke="#666666" points="76.62,0 76.62,-916 249.88,-916 249.88,0 76.62,0"/>
</a>
</g>
</g>
<!-- Node2 -->
<g id="Node000002" class="node">
<title>Node2</title>
<g id="a_Node000002"><a xlink:href="classfr_1_1softsf_1_1sudokufx_1_1viewmodel_1_1state_1_1_in_memory_player.html" target="_top" xlink:title="Component responsible for holding the current PlayerDto instance in memory.">
<polygon fill="white" stroke="none" points="244.12,-1172 82.38,-1172 82.38,-964 244.12,-964 244.12,-1172"/>
<text text-anchor="start" x="86.38" y="-1158.5" font-family="Helvetica,sans-Serif" font-size="10.00">fr.softsf.sudokufx.viewmodel.state.</text>
<text text-anchor="start" x="127.62" y="-1146.5" font-family="Helvetica,sans-Serif" font-size="10.00">InMemoryPlayer</text>
<text text-anchor="start" x="90.06" y="-1130.5" font-family="Helvetica,sans-Serif" font-size="10.00">&#45;</text>
<text text-anchor="start" x="100.75" y="-1130.5" font-family="Helvetica,sans-Serif" font-size="10.00">final ObjectProperty</text>
<text text-anchor="start" x="100.75" y="-1118.5" font-family="Helvetica,sans-Serif" font-size="10.00">&lt; PlayerDto &gt; currentPlayer</text>
<text text-anchor="start" x="90.06" y="-1102.5" font-family="Helvetica,sans-Serif" font-size="10.00">&#45;</text>
<text text-anchor="start" x="100.75" y="-1102.5" font-family="Helvetica,sans-Serif" font-size="10.00">static final Logger LOG</text>
<text text-anchor="start" x="88.56" y="-1086.5" font-family="Helvetica,sans-Serif" font-size="10.00">+</text>
<text text-anchor="start" x="100.75" y="-1086.5" font-family="Helvetica,sans-Serif" font-size="10.00">InMemoryPlayer(PlayerService</text>
<text text-anchor="start" x="100.75" y="-1074.5" font-family="Helvetica,sans-Serif" font-size="10.00"> playerService)</text>
<text text-anchor="start" x="88.56" y="-1058.5" font-family="Helvetica,sans-Serif" font-size="10.00">+</text>
<text text-anchor="start" x="100.75" y="-1058.5" font-family="Helvetica,sans-Serif" font-size="10.00">ObjectProperty&lt; PlayerDto</text>
<text text-anchor="start" x="100.75" y="-1046.5" font-family="Helvetica,sans-Serif" font-size="10.00"> &gt; currentPlayerProperty()</text>
<text text-anchor="start" x="88.56" y="-1030.5" font-family="Helvetica,sans-Serif" font-size="10.00">+</text>
<text text-anchor="start" x="100.75" y="-1030.5" font-family="Helvetica,sans-Serif" font-size="10.00">PlayerDto getCurrentPlayer()</text>
<text text-anchor="start" x="88.56" y="-1014.5" font-family="Helvetica,sans-Serif" font-size="10.00">+</text>
<text text-anchor="start" x="100.75" y="-1014.5" font-family="Helvetica,sans-Serif" font-size="10.00">void setCurrentPlayer</text>
<text text-anchor="start" x="100.75" y="-1002.5" font-family="Helvetica,sans-Serif" font-size="10.00">(PlayerDto dto)</text>
<text text-anchor="start" x="88.56" y="-986.5" font-family="Helvetica,sans-Serif" font-size="10.00">~</text>
<text text-anchor="start" x="100.75" y="-986.5" font-family="Helvetica,sans-Serif" font-size="10.00">void exitPlatform()</text>
<text text-anchor="start" x="90.06" y="-970.5" font-family="Helvetica,sans-Serif" font-size="10.00">&#45;</text>
<text text-anchor="start" x="100.75" y="-970.5" font-family="Helvetica,sans-Serif" font-size="10.00">void initializePlayer()</text>
<polygon fill="#666666" stroke="#666666" points="82.38,-1142 82.38,-1142 244.12,-1142 244.12,-1142 82.38,-1142"/>
<polygon fill="#666666" stroke="#666666" points="82.38,-1098 82.38,-1098 98.75,-1098 98.75,-1098 82.38,-1098"/>
<polygon fill="#666666" stroke="#666666" points="98.75,-1098 98.75,-1098 244.12,-1098 244.12,-1098 98.75,-1098"/>
<polygon fill="none" stroke="#666666" points="82.38,-964 82.38,-1172 244.12,-1172 244.12,-964 82.38,-964"/>
</a>
</g>
</g>
<!-- Node2&#45;&gt;Node1 -->
<g id="edge1_Node000001_Node000002" class="edge">
<title>Node2&#45;&gt;Node1</title>
<g id="a_edge1_Node000001_Node000002"><a xlink:title=" ">
<path fill="none" stroke="#63b8ff" d="M163.25,-964.21C163.25,-952.9 163.25,-940.93 163.25,-928.42"/>
<polygon fill="none" stroke="#63b8ff" points="163.25,-928.63 159.25,-922.63 163.25,-916.63 167.25,-922.63 163.25,-928.63"/>
</a>
</g>
<text text-anchor="middle" x="201.5" y="-936.5" font-family="Helvetica,sans-Serif" font-size="10.00" fill="grey"> &#45;inMemoryPlayer</text>
</g>
<!-- Node3 -->
<g id="Node000003" class="node">
<title>Node3</title>
<g id="a_Node000003"><a xlink:href="classfr_1_1softsf_1_1sudokufx_1_1service_1_1_player_service.html" target="_top" xlink:title="Service class providing business logic related to Player entities.">
<polygon fill="white" stroke="none" points="244.62,-1352 81.88,-1352 81.88,-1220 244.62,-1220 244.62,-1352"/>
<text text-anchor="start" x="106.25" y="-1338.5" font-family="Helvetica,sans-Serif" font-size="10.00">fr.softsf.sudokufx.service.</text>
<text text-anchor="start" x="132.88" y="-1326.5" font-family="Helvetica,sans-Serif" font-size="10.00">PlayerService</text>
<text text-anchor="start" x="161.75" y="-1310.5" font-family="Helvetica,sans-Serif" font-size="10.00"> </text>
<text text-anchor="start" x="85.88" y="-1294.5" font-family="Helvetica,sans-Serif" font-size="10.00">+</text>
<text text-anchor="start" x="95.88" y="-1294.5" font-family="Helvetica,sans-Serif" font-size="10.00">PlayerService(PlayerRepository</text>
<text text-anchor="start" x="95.88" y="-1282.5" font-family="Helvetica,sans-Serif" font-size="10.00"> playerRepository, IPlayerMapper</text>
<text text-anchor="start" x="95.88" y="-1270.5" font-family="Helvetica,sans-Serif" font-size="10.00"> playerMapper)</text>
<text text-anchor="start" x="85.88" y="-1254.5" font-family="Helvetica,sans-Serif" font-size="10.00">+</text>
<text text-anchor="start" x="95.88" y="-1254.5" font-family="Helvetica,sans-Serif" font-size="10.00">PlayerDto getPlayer()</text>
<text text-anchor="start" x="87.38" y="-1238.5" font-family="Helvetica,sans-Serif" font-size="10.00">&#45;</text>
<text text-anchor="start" x="95.88" y="-1238.5" font-family="Helvetica,sans-Serif" font-size="10.00">PlayerDto validatePlayer</text>
<text text-anchor="start" x="95.88" y="-1226.5" font-family="Helvetica,sans-Serif" font-size="10.00">NameOrThrow(PlayerDto dto)</text>
<polygon fill="#666666" stroke="#666666" points="81.88,-1322 81.88,-1322 244.62,-1322 244.62,-1322 81.88,-1322"/>
<polygon fill="#666666" stroke="#666666" points="81.88,-1306 81.88,-1306 244.62,-1306 244.62,-1306 81.88,-1306"/>
<polygon fill="none" stroke="#666666" points="81.88,-1220 81.88,-1352 244.62,-1352 244.62,-1220 81.88,-1220"/>
</a>
</g>
</g>
<!-- Node3&#45;&gt;Node2 -->
<g id="edge2_Node000002_Node000003" class="edge">
<title>Node3&#45;&gt;Node2</title>
<g id="a_edge2_Node000002_Node000003"><a xlink:title=" ">
<path fill="none" stroke="#63b8ff" d="M163.25,-1220.19C163.25,-1208.85 163.25,-1196.74 163.25,-1184.51"/>
<polygon fill="none" stroke="#63b8ff" points="163.25,-1184.64 159.25,-1178.64 163.25,-1172.64 167.25,-1178.64 163.25,-1184.64"/>
</a>
</g>
<text text-anchor="middle" x="195.88" y="-1192.5" font-family="Helvetica,sans-Serif" font-size="10.00" fill="grey"> &#45;playerService</text>
</g>
<!-- Node4 -->
<g id="Node000004" class="node">
<title>Node4</title>
<g id="a_Node000004"><a xlink:href="interfacefr_1_1softsf_1_1sudokufx_1_1repository_1_1_player_repository.html" target="_top" xlink:title=" ">
<polygon fill="white" stroke="none" points="136.5,-1490 0,-1490 0,-1414 136.5,-1414 136.5,-1490"/>
<text text-anchor="start" x="6" y="-1476.5" font-family="Helvetica,sans-Serif" font-size="10.00">fr.softsf.sudokufx.repository.</text>
<text text-anchor="start" x="30.75" y="-1464.5" font-family="Helvetica,sans-Serif" font-size="10.00">PlayerRepository</text>
<text text-anchor="start" x="66.75" y="-1448.5" font-family="Helvetica,sans-Serif" font-size="10.00"> </text>
<text text-anchor="start" x="4" y="-1432.5" font-family="Helvetica,sans-Serif" font-size="10.00">+</text>
<text text-anchor="start" x="14" y="-1432.5" font-family="Helvetica,sans-Serif" font-size="10.00">List&lt; Player &gt; findSelected</text>
<text text-anchor="start" x="14" y="-1420.5" font-family="Helvetica,sans-Serif" font-size="10.00">PlayerWithSelectedGame()</text>
<polygon fill="#666666" stroke="#666666" points="0,-1460 0,-1460 136.5,-1460 136.5,-1460 0,-1460"/>
<polygon fill="#666666" stroke="#666666" points="0,-1444 0,-1444 136.5,-1444 136.5,-1444 0,-1444"/>
<polygon fill="none" stroke="#666666" points="0,-1414 0,-1490 136.5,-1490 136.5,-1414 0,-1414"/>
</a>
</g>
</g>
<!-- Node4&#45;&gt;Node3 -->
<g id="edge3_Node000003_Node000004" class="edge">
<title>Node4&#45;&gt;Node3</title>
<g id="a_edge3_Node000003_Node000004"><a xlink:title=" ">
<path fill="none" stroke="#63b8ff" d="M89.57,-1414.2C98.4,-1398.94 108.99,-1380.66 119.36,-1362.78"/>
<polygon fill="none" stroke="#63b8ff" points="119.29,-1362.88 118.84,-1355.69 125.31,-1352.5 125.76,-1359.7 119.29,-1362.88"/>
</a>
</g>
<text text-anchor="middle" x="152.65" y="-1372.5" font-family="Helvetica,sans-Serif" font-size="10.00" fill="grey"> &#45;playerRepository</text>
</g>
<!-- Node5 -->
<g id="Node000005" class="node">
<title>Node5</title>
<g id="a_Node000005"><a xlink:title=" ">
<polygon fill="white" stroke="none" points="123.62,-1605 12.88,-1605 12.88,-1541 123.62,-1541 123.62,-1605"/>
<text text-anchor="start" x="16.88" y="-1591.5" font-family="Helvetica,sans-Serif" font-size="10.00">JpaRepository&lt; Player,</text>
<text text-anchor="start" x="51.75" y="-1579.5" font-family="Helvetica,sans-Serif" font-size="10.00"> Long &gt;</text>
<text text-anchor="start" x="66.75" y="-1563.5" font-family="Helvetica,sans-Serif" font-size="10.00"> </text>
<text text-anchor="start" x="66.75" y="-1547.5" font-family="Helvetica,sans-Serif" font-size="10.00"> </text>
<polygon fill="#666666" stroke="#666666" points="12.88,-1575 12.88,-1575 123.62,-1575 123.62,-1575 12.88,-1575"/>
<polygon fill="#666666" stroke="#666666" points="12.88,-1559 12.88,-1559 123.62,-1559 123.62,-1559 12.88,-1559"/>
<polygon fill="none" stroke="#666666" points="12.88,-1541 12.88,-1605 123.62,-1605 123.62,-1541 12.88,-1541"/>
</a>
</g>
</g>
<!-- Node5&#45;&gt;Node4 -->
<g id="edge4_Node000004_Node000005" class="edge">
<title>Node5&#45;&gt;Node4</title>
<g id="a_edge4_Node000004_Node000005"><a xlink:title=" ">
<path fill="none" stroke="#63b8ff" d="M68.25,-1529.91C68.25,-1516.79 68.25,-1502.44 68.25,-1489.72"/>
<polygon fill="none" stroke="#63b8ff" points="64.75,-1529.53 68.25,-1539.53 71.75,-1529.53 64.75,-1529.53"/>
</a>
</g>
</g>
<!-- Node6 -->
<g id="Node000006" class="node">
<title>Node6</title>
<g id="a_Node000006"><a xlink:href="interfacefr_1_1softsf_1_1sudokufx_1_1common_1_1interfaces_1_1mapper_1_1_i_player_mapper.html" target="_top" xlink:title="Mapper interface for converting between Player entity and PlayerDto data transfer object.">
<polygon fill="white" stroke="none" points="363.75,-1504 154.75,-1504 154.75,-1400 363.75,-1400 363.75,-1504"/>
<text text-anchor="start" x="158.75" y="-1490.5" font-family="Helvetica,sans-Serif" font-size="10.00">fr.softsf.sudokufx.common.interfaces.mapper.</text>
<text text-anchor="start" x="227.75" y="-1478.5" font-family="Helvetica,sans-Serif" font-size="10.00">IPlayerMapper</text>
<text text-anchor="start" x="257.75" y="-1462.5" font-family="Helvetica,sans-Serif" font-size="10.00"> </text>
<text text-anchor="start" x="173.69" y="-1446.5" font-family="Helvetica,sans-Serif" font-size="10.00">+</text>
<text text-anchor="start" x="198.62" y="-1446.5" font-family="Helvetica,sans-Serif" font-size="10.00">Player mapPlayerDtoToPlayer</text>
<text text-anchor="start" x="198.62" y="-1434.5" font-family="Helvetica,sans-Serif" font-size="10.00">(PlayerDto dto)</text>
<text text-anchor="start" x="173.69" y="-1418.5" font-family="Helvetica,sans-Serif" font-size="10.00">+</text>
<text text-anchor="start" x="198.62" y="-1418.5" font-family="Helvetica,sans-Serif" font-size="10.00">PlayerDto mapPlayerToDto</text>
<text text-anchor="start" x="198.62" y="-1406.5" font-family="Helvetica,sans-Serif" font-size="10.00">(Player player)</text>
<polygon fill="#666666" stroke="#666666" points="154.75,-1474 154.75,-1474 363.75,-1474 363.75,-1474 154.75,-1474"/>
<polygon fill="#666666" stroke="#666666" points="154.75,-1458 154.75,-1458 363.75,-1458 363.75,-1458 154.75,-1458"/>
<polygon fill="none" stroke="#666666" points="154.75,-1400 154.75,-1504 363.75,-1504 363.75,-1400 154.75,-1400"/>
</a>
</g>
</g>
<!-- Node6&#45;&gt;Node3 -->
<g id="edge5_Node000003_Node000006" class="edge">
<title>Node6&#45;&gt;Node3</title>
<g id="a_edge5_Node000003_Node000006"><a xlink:title=" ">
<path fill="none" stroke="#63b8ff" d="M229.4,-1400.01C222.5,-1388.23 215.02,-1375.44 207.65,-1362.86"/>
<polygon fill="none" stroke="#63b8ff" points="207.74,-1363.01 201.26,-1359.85 201.68,-1352.65 208.16,-1355.81 207.74,-1363.01"/>
</a>
</g>
<text text-anchor="middle" x="249.25" y="-1372.5" font-family="Helvetica,sans-Serif" font-size="10.00" fill="grey"> &#45;playerMapper</text>
</g>
</g>
</svg>
