<?xml version="1.0" encoding="UTF-8" standalone="no"?>
<!DOCTYPE svg PUBLIC "-//W3C//DTD SVG 1.1//EN"
 "http://www.w3.org/Graphics/SVG/1.1/DTD/svg11.dtd">
<!-- Generated by graphviz version 12.2.1 (20241206.2353)
 -->
<!-- Title: fr.softsf.sudokufx.model.Game.GameBuilder Pages: 1 -->
<svg width="511pt" height="1132pt"
 viewBox="0.00 0.00 510.50 1132.00" xmlns="http://www.w3.org/2000/svg" xmlns:xlink="http://www.w3.org/1999/xlink">
<g id="graph0" class="graph" transform="scale(1 1) rotate(0) translate(4 1128)">
<title>fr.softsf.sudokufx.model.Game.GameBuilder</title>
<!-- Node1 -->
<g id="Node000001" class="node">
<title>Node1</title>
<g id="a_Node000001"><a xlink:title=" ">
<polygon fill="#999999" stroke="none" points="325.12,-308 189.38,-308 189.38,0 325.12,0 325.12,-308"/>
<text text-anchor="start" x="202.88" y="-294.5" font-family="Helvetica,sans-Serif" font-size="10.00">fr.softsf.sudokufx.model.</text>
<text text-anchor="start" x="214.5" y="-282.5" font-family="Helvetica,sans-Serif" font-size="10.00">Game.GameBuilder</text>
<text text-anchor="start" x="194.88" y="-266.5" font-family="Helvetica,sans-Serif" font-size="10.00">&#45;</text>
<text text-anchor="start" x="203.38" y="-266.5" font-family="Helvetica,sans-Serif" font-size="10.00">LocalDateTime createdat</text>
<text text-anchor="start" x="194.88" y="-250.5" font-family="Helvetica,sans-Serif" font-size="10.00">&#45;</text>
<text text-anchor="start" x="203.38" y="-250.5" font-family="Helvetica,sans-Serif" font-size="10.00">Long gameid</text>
<text text-anchor="start" x="194.88" y="-234.5" font-family="Helvetica,sans-Serif" font-size="10.00">&#45;</text>
<text text-anchor="start" x="203.38" y="-234.5" font-family="Helvetica,sans-Serif" font-size="10.00">Boolean isselected</text>
<text text-anchor="start" x="194.88" y="-218.5" font-family="Helvetica,sans-Serif" font-size="10.00">&#45;</text>
<text text-anchor="start" x="203.38" y="-218.5" font-family="Helvetica,sans-Serif" font-size="10.00">LocalDateTime updatedat</text>
<text text-anchor="start" x="193.38" y="-202.5" font-family="Helvetica,sans-Serif" font-size="10.00">+</text>
<text text-anchor="start" x="203.38" y="-202.5" font-family="Helvetica,sans-Serif" font-size="10.00">Game build()</text>
<text text-anchor="start" x="193.38" y="-186.5" font-family="Helvetica,sans-Serif" font-size="10.00">+</text>
<text text-anchor="start" x="203.38" y="-186.5" font-family="Helvetica,sans-Serif" font-size="10.00">GameBuilder createdat</text>
<text text-anchor="start" x="203.38" y="-174.5" font-family="Helvetica,sans-Serif" font-size="10.00">(LocalDateTime createdat)</text>
<text text-anchor="start" x="193.38" y="-158.5" font-family="Helvetica,sans-Serif" font-size="10.00">+</text>
<text text-anchor="start" x="203.38" y="-158.5" font-family="Helvetica,sans-Serif" font-size="10.00">GameBuilder gameid</text>
<text text-anchor="start" x="203.38" y="-146.5" font-family="Helvetica,sans-Serif" font-size="10.00">(Long gameid)</text>
<text text-anchor="start" x="193.38" y="-130.5" font-family="Helvetica,sans-Serif" font-size="10.00">+</text>
<text text-anchor="start" x="203.38" y="-130.5" font-family="Helvetica,sans-Serif" font-size="10.00">GameBuilder gridid</text>
<text text-anchor="start" x="203.38" y="-118.5" font-family="Helvetica,sans-Serif" font-size="10.00">(Grid gridid)</text>
<text text-anchor="start" x="193.38" y="-102.5" font-family="Helvetica,sans-Serif" font-size="10.00">+</text>
<text text-anchor="start" x="203.38" y="-102.5" font-family="Helvetica,sans-Serif" font-size="10.00">GameBuilder isselected</text>
<text text-anchor="start" x="203.38" y="-90.5" font-family="Helvetica,sans-Serif" font-size="10.00">(Boolean isselected)</text>
<text text-anchor="start" x="193.38" y="-74.5" font-family="Helvetica,sans-Serif" font-size="10.00">+</text>
<text text-anchor="start" x="203.38" y="-74.5" font-family="Helvetica,sans-Serif" font-size="10.00">GameBuilder levelid</text>
<text text-anchor="start" x="203.38" y="-62.5" font-family="Helvetica,sans-Serif" font-size="10.00">(GameLevel levelid)</text>
<text text-anchor="start" x="193.38" y="-46.5" font-family="Helvetica,sans-Serif" font-size="10.00">+</text>
<text text-anchor="start" x="203.38" y="-46.5" font-family="Helvetica,sans-Serif" font-size="10.00">GameBuilder playerid</text>
<text text-anchor="start" x="203.38" y="-34.5" font-family="Helvetica,sans-Serif" font-size="10.00">(Player playerid)</text>
<text text-anchor="start" x="193.38" y="-18.5" font-family="Helvetica,sans-Serif" font-size="10.00">+</text>
<text text-anchor="start" x="203.38" y="-18.5" font-family="Helvetica,sans-Serif" font-size="10.00">GameBuilder updatedat</text>
<text text-anchor="start" x="203.38" y="-6.5" font-family="Helvetica,sans-Serif" font-size="10.00">(LocalDateTime updatedat)</text>
<polygon fill="#666666" stroke="#666666" points="189.38,-278 189.38,-278 325.12,-278 325.12,-278 189.38,-278"/>
<polygon fill="#666666" stroke="#666666" points="189.38,-214 189.38,-214 201.38,-214 201.38,-214 189.38,-214"/>
<polygon fill="#666666" stroke="#666666" points="201.38,-214 201.38,-214 325.12,-214 325.12,-214 201.38,-214"/>
<polygon fill="none" stroke="#666666" points="189.38,0 189.38,-308 325.12,-308 325.12,0 189.38,0"/>
</a>
</g>
</g>
<!-- Node2 -->
<g id="Node000002" class="node">
<title>Node2</title>
<g id="a_Node000002"><a xlink:href="classfr_1_1softsf_1_1sudokufx_1_1model_1_1_grid.html" target="_top" xlink:title=" ">
<polygon fill="white" stroke="none" points="136.5,-716 0,-716 0,-388 136.5,-388 136.5,-716"/>
<text text-anchor="start" x="4.88" y="-702.5" font-family="Helvetica,sans-Serif" font-size="10.00">fr.softsf.sudokufx.model.Grid</text>
<text text-anchor="start" x="5.5" y="-686.5" font-family="Helvetica,sans-Serif" font-size="10.00">&#45;</text>
<text text-anchor="start" x="14" y="-686.5" font-family="Helvetica,sans-Serif" font-size="10.00">String defaultgridvalue</text>
<text text-anchor="start" x="5.5" y="-670.5" font-family="Helvetica,sans-Serif" font-size="10.00">&#45;</text>
<text text-anchor="start" x="14" y="-670.5" font-family="Helvetica,sans-Serif" font-size="10.00">Long gridid</text>
<text text-anchor="start" x="5.5" y="-654.5" font-family="Helvetica,sans-Serif" font-size="10.00">&#45;</text>
<text text-anchor="start" x="14" y="-654.5" font-family="Helvetica,sans-Serif" font-size="10.00">String gridvalue</text>
<text text-anchor="start" x="5.5" y="-638.5" font-family="Helvetica,sans-Serif" font-size="10.00">&#45;</text>
<text text-anchor="start" x="14" y="-638.5" font-family="Helvetica,sans-Serif" font-size="10.00">Byte possibilities</text>
<text text-anchor="start" x="4" y="-622.5" font-family="Helvetica,sans-Serif" font-size="10.00">+</text>
<text text-anchor="start" x="14" y="-622.5" font-family="Helvetica,sans-Serif" font-size="10.00">Grid()</text>
<text text-anchor="start" x="4" y="-606.5" font-family="Helvetica,sans-Serif" font-size="10.00">+</text>
<text text-anchor="start" x="14" y="-606.5" font-family="Helvetica,sans-Serif" font-size="10.00">Grid(Long gridid,</text>
<text text-anchor="start" x="14" y="-594.5" font-family="Helvetica,sans-Serif" font-size="10.00"> String defaultgridvalue,</text>
<text text-anchor="start" x="14" y="-582.5" font-family="Helvetica,sans-Serif" font-size="10.00"> String gridvalue, Byte</text>
<text text-anchor="start" x="14" y="-570.5" font-family="Helvetica,sans-Serif" font-size="10.00"> possibilities)</text>
<text text-anchor="start" x="4" y="-554.5" font-family="Helvetica,sans-Serif" font-size="10.00">+</text>
<text text-anchor="start" x="14" y="-554.5" font-family="Helvetica,sans-Serif" font-size="10.00">String getDefaultgridvalue()</text>
<text text-anchor="start" x="4" y="-538.5" font-family="Helvetica,sans-Serif" font-size="10.00">+</text>
<text text-anchor="start" x="14" y="-538.5" font-family="Helvetica,sans-Serif" font-size="10.00">Long getGridid()</text>
<text text-anchor="start" x="4" y="-522.5" font-family="Helvetica,sans-Serif" font-size="10.00">+</text>
<text text-anchor="start" x="14" y="-522.5" font-family="Helvetica,sans-Serif" font-size="10.00">String getGridvalue()</text>
<text text-anchor="start" x="4" y="-506.5" font-family="Helvetica,sans-Serif" font-size="10.00">+</text>
<text text-anchor="start" x="14" y="-506.5" font-family="Helvetica,sans-Serif" font-size="10.00">Byte getPossibilities()</text>
<text text-anchor="start" x="4" y="-490.5" font-family="Helvetica,sans-Serif" font-size="10.00">+</text>
<text text-anchor="start" x="14" y="-490.5" font-family="Helvetica,sans-Serif" font-size="10.00">void setDefaultgridvalue</text>
<text text-anchor="start" x="14" y="-478.5" font-family="Helvetica,sans-Serif" font-size="10.00">(String defaultgridvalue)</text>
<text text-anchor="start" x="4" y="-462.5" font-family="Helvetica,sans-Serif" font-size="10.00">+</text>
<text text-anchor="start" x="14" y="-462.5" font-family="Helvetica,sans-Serif" font-size="10.00">void setGridvalue(String</text>
<text text-anchor="start" x="14" y="-450.5" font-family="Helvetica,sans-Serif" font-size="10.00"> gridvalue)</text>
<text text-anchor="start" x="4" y="-434.5" font-family="Helvetica,sans-Serif" font-size="10.00">+</text>
<text text-anchor="start" x="14" y="-434.5" font-family="Helvetica,sans-Serif" font-size="10.00">void setPossibilities</text>
<text text-anchor="start" x="14" y="-422.5" font-family="Helvetica,sans-Serif" font-size="10.00">(Byte possibilities)</text>
<text text-anchor="start" x="4" y="-406.5" font-family="Helvetica,sans-Serif" font-size="10.00">+</text>
<text text-anchor="start" x="14" y="-406.5" font-family="Helvetica,sans-Serif" font-size="10.00">static GridBuilder</text>
<text text-anchor="start" x="14" y="-394.5" font-family="Helvetica,sans-Serif" font-size="10.00"> builder()</text>
<polygon fill="#666666" stroke="#666666" points="0,-698 0,-698 136.5,-698 136.5,-698 0,-698"/>
<polygon fill="#666666" stroke="#666666" points="0,-634 0,-634 12,-634 12,-634 0,-634"/>
<polygon fill="#666666" stroke="#666666" points="12,-634 12,-634 136.5,-634 136.5,-634 12,-634"/>
<polygon fill="none" stroke="#666666" points="0,-388 0,-716 136.5,-716 136.5,-388 0,-388"/>
</a>
</g>
</g>
<!-- Node2&#45;&gt;Node1 -->
<g id="edge1_Node000001_Node000002" class="edge">
<title>Node2&#45;&gt;Node1</title>
<g id="a_edge1_Node000001_Node000002"><a xlink:title=" ">
<path fill="none" stroke="#63b8ff" d="M130.72,-388.04C135.48,-377.13 140.34,-366.36 145.25,-356 156.76,-331.69 169.97,-306.26 183.18,-281.98"/>
<polygon fill="none" stroke="#63b8ff" points="183.24,-281.86 182.62,-274.68 189.01,-271.34 189.64,-278.52 183.24,-281.86"/>
</a>
</g>
<text text-anchor="middle" x="173.65" y="-328.5" font-family="Helvetica,sans-Serif" font-size="10.00" fill="grey"> &#45;gridid</text>
</g>
<!-- Node3 -->
<g id="Node000003" class="node">
<title>Node3</title>
<g id="a_Node000003"><a xlink:href="classfr_1_1softsf_1_1sudokufx_1_1model_1_1_player.html" target="_top" xlink:title=" ">
<polygon fill="white" stroke="none" points="360,-748 154.5,-748 154.5,-356 360,-356 360,-748"/>
<text text-anchor="start" x="202.88" y="-734.5" font-family="Helvetica,sans-Serif" font-size="10.00">fr.softsf.sudokufx.model.</text>
<text text-anchor="start" x="243.38" y="-722.5" font-family="Helvetica,sans-Serif" font-size="10.00">Player</text>
<text text-anchor="start" x="160" y="-706.5" font-family="Helvetica,sans-Serif" font-size="10.00">&#45;</text>
<text text-anchor="start" x="168.5" y="-706.5" font-family="Helvetica,sans-Serif" font-size="10.00">LocalDateTime createdat</text>
<text text-anchor="start" x="160" y="-690.5" font-family="Helvetica,sans-Serif" font-size="10.00">&#45;</text>
<text text-anchor="start" x="168.5" y="-690.5" font-family="Helvetica,sans-Serif" font-size="10.00">Set&lt; Game &gt; games</text>
<text text-anchor="start" x="160" y="-674.5" font-family="Helvetica,sans-Serif" font-size="10.00">&#45;</text>
<text text-anchor="start" x="168.5" y="-674.5" font-family="Helvetica,sans-Serif" font-size="10.00">Boolean isselected</text>
<text text-anchor="start" x="160" y="-658.5" font-family="Helvetica,sans-Serif" font-size="10.00">&#45;</text>
<text text-anchor="start" x="168.5" y="-658.5" font-family="Helvetica,sans-Serif" font-size="10.00">String name</text>
<text text-anchor="start" x="160" y="-642.5" font-family="Helvetica,sans-Serif" font-size="10.00">&#45;</text>
<text text-anchor="start" x="168.5" y="-642.5" font-family="Helvetica,sans-Serif" font-size="10.00">Long playerid</text>
<text text-anchor="start" x="160" y="-626.5" font-family="Helvetica,sans-Serif" font-size="10.00">&#45;</text>
<text text-anchor="start" x="168.5" y="-626.5" font-family="Helvetica,sans-Serif" font-size="10.00">LocalDateTime updatedat</text>
<text text-anchor="start" x="158.5" y="-610.5" font-family="Helvetica,sans-Serif" font-size="10.00">+</text>
<text text-anchor="start" x="168.5" y="-610.5" font-family="Helvetica,sans-Serif" font-size="10.00">Player()</text>
<text text-anchor="start" x="158.5" y="-594.5" font-family="Helvetica,sans-Serif" font-size="10.00">+</text>
<text text-anchor="start" x="168.5" y="-594.5" font-family="Helvetica,sans-Serif" font-size="10.00">Player(Long playerid,</text>
<text text-anchor="start" x="168.5" y="-582.5" font-family="Helvetica,sans-Serif" font-size="10.00"> PlayerLanguage playerlanguageid,</text>
<text text-anchor="start" x="168.5" y="-570.5" font-family="Helvetica,sans-Serif" font-size="10.00"> Background backgroundid, Menu</text>
<text text-anchor="start" x="168.5" y="-558.5" font-family="Helvetica,sans-Serif" font-size="10.00"> menuid, Set&lt; Game &gt; games, String</text>
<text text-anchor="start" x="168.5" y="-546.5" font-family="Helvetica,sans-Serif" font-size="10.00"> name, Boolean isselected, LocalDateTime</text>
<text text-anchor="start" x="168.5" y="-534.5" font-family="Helvetica,sans-Serif" font-size="10.00"> createdat, LocalDateTime updatedat)</text>
<text text-anchor="start" x="158.5" y="-518.5" font-family="Helvetica,sans-Serif" font-size="10.00">+</text>
<text text-anchor="start" x="168.5" y="-518.5" font-family="Helvetica,sans-Serif" font-size="10.00">void addGame(Game game)</text>
<text text-anchor="start" x="158.5" y="-502.5" font-family="Helvetica,sans-Serif" font-size="10.00">+</text>
<text text-anchor="start" x="168.5" y="-502.5" font-family="Helvetica,sans-Serif" font-size="10.00">Background getBackgroundid()</text>
<text text-anchor="start" x="158.5" y="-486.5" font-family="Helvetica,sans-Serif" font-size="10.00">+</text>
<text text-anchor="start" x="168.5" y="-486.5" font-family="Helvetica,sans-Serif" font-size="10.00">LocalDateTime getCreatedat()</text>
<text text-anchor="start" x="158.5" y="-470.5" font-family="Helvetica,sans-Serif" font-size="10.00">+</text>
<text text-anchor="start" x="168.5" y="-470.5" font-family="Helvetica,sans-Serif" font-size="10.00">Set&lt; Game &gt; getGames()</text>
<text text-anchor="start" x="158.5" y="-454.5" font-family="Helvetica,sans-Serif" font-size="10.00">+</text>
<text text-anchor="start" x="168.5" y="-454.5" font-family="Helvetica,sans-Serif" font-size="10.00">Boolean getIsselected()</text>
<text text-anchor="start" x="158.5" y="-438.5" font-family="Helvetica,sans-Serif" font-size="10.00">+</text>
<text text-anchor="start" x="168.5" y="-438.5" font-family="Helvetica,sans-Serif" font-size="10.00">Menu getMenuid()</text>
<text text-anchor="start" x="158.5" y="-422.5" font-family="Helvetica,sans-Serif" font-size="10.00">+</text>
<text text-anchor="start" x="168.5" y="-422.5" font-family="Helvetica,sans-Serif" font-size="10.00">String getName()</text>
<text text-anchor="start" x="158.5" y="-406.5" font-family="Helvetica,sans-Serif" font-size="10.00">+</text>
<text text-anchor="start" x="168.5" y="-406.5" font-family="Helvetica,sans-Serif" font-size="10.00">Long getPlayerid()</text>
<text text-anchor="start" x="168.5" y="-390.5" font-family="Helvetica,sans-Serif" font-size="10.00">and 9 more...</text>
<text text-anchor="start" x="158.5" y="-374.5" font-family="Helvetica,sans-Serif" font-size="10.00">+</text>
<text text-anchor="start" x="168.5" y="-374.5" font-family="Helvetica,sans-Serif" font-size="10.00">static PlayerBuilder</text>
<text text-anchor="start" x="168.5" y="-362.5" font-family="Helvetica,sans-Serif" font-size="10.00"> builder()</text>
<polygon fill="#666666" stroke="#666666" points="154.5,-718 154.5,-718 360,-718 360,-718 154.5,-718"/>
<polygon fill="#666666" stroke="#666666" points="154.5,-622 154.5,-622 166.5,-622 166.5,-622 154.5,-622"/>
<polygon fill="#666666" stroke="#666666" points="166.5,-622 166.5,-622 360,-622 360,-622 166.5,-622"/>
<polygon fill="none" stroke="#666666" points="154.5,-356 154.5,-748 360,-748 360,-356 154.5,-356"/>
</a>
</g>
</g>
<!-- Node3&#45;&gt;Node1 -->
<g id="edge2_Node000001_Node000003" class="edge">
<title>Node3&#45;&gt;Node1</title>
<g id="a_edge2_Node000001_Node000003"><a xlink:title=" ">
<path fill="none" stroke="#63b8ff" d="M257.25,-356.19C257.25,-344.28 257.25,-332.35 257.25,-320.58"/>
<polygon fill="none" stroke="#63b8ff" points="257.25,-320.78 253.25,-314.78 257.25,-308.78 261.25,-314.78 257.25,-320.78"/>
</a>
</g>
<text text-anchor="middle" x="277.12" y="-328.5" font-family="Helvetica,sans-Serif" font-size="10.00" fill="grey"> &#45;playerid</text>
</g>
<!-- Node4 -->
<g id="Node000004" class="node">
<title>Node4</title>
<g id="a_Node000004"><a xlink:href="classfr_1_1softsf_1_1sudokufx_1_1model_1_1_player_language.html" target="_top" xlink:title=" ">
<polygon fill="white" stroke="none" points="160.62,-1052 15.88,-1052 15.88,-868 160.62,-868 160.62,-1052"/>
<text text-anchor="start" x="33.88" y="-1038.5" font-family="Helvetica,sans-Serif" font-size="10.00">fr.softsf.sudokufx.model.</text>
<text text-anchor="start" x="53.38" y="-1026.5" font-family="Helvetica,sans-Serif" font-size="10.00">PlayerLanguage</text>
<text text-anchor="start" x="21.38" y="-1010.5" font-family="Helvetica,sans-Serif" font-size="10.00">&#45;</text>
<text text-anchor="start" x="29.88" y="-1010.5" font-family="Helvetica,sans-Serif" font-size="10.00">String iso</text>
<text text-anchor="start" x="21.38" y="-994.5" font-family="Helvetica,sans-Serif" font-size="10.00">&#45;</text>
<text text-anchor="start" x="29.88" y="-994.5" font-family="Helvetica,sans-Serif" font-size="10.00">Long playerlanguageid</text>
<text text-anchor="start" x="19.88" y="-978.5" font-family="Helvetica,sans-Serif" font-size="10.00">+</text>
<text text-anchor="start" x="29.88" y="-978.5" font-family="Helvetica,sans-Serif" font-size="10.00">PlayerLanguage()</text>
<text text-anchor="start" x="19.88" y="-962.5" font-family="Helvetica,sans-Serif" font-size="10.00">+</text>
<text text-anchor="start" x="29.88" y="-962.5" font-family="Helvetica,sans-Serif" font-size="10.00">PlayerLanguage(Long</text>
<text text-anchor="start" x="29.88" y="-950.5" font-family="Helvetica,sans-Serif" font-size="10.00"> playerlanguageid, String iso)</text>
<text text-anchor="start" x="19.88" y="-934.5" font-family="Helvetica,sans-Serif" font-size="10.00">+</text>
<text text-anchor="start" x="29.88" y="-934.5" font-family="Helvetica,sans-Serif" font-size="10.00">String getIso()</text>
<text text-anchor="start" x="19.88" y="-918.5" font-family="Helvetica,sans-Serif" font-size="10.00">+</text>
<text text-anchor="start" x="29.88" y="-918.5" font-family="Helvetica,sans-Serif" font-size="10.00">Long getPlayerlanguageid()</text>
<text text-anchor="start" x="19.88" y="-902.5" font-family="Helvetica,sans-Serif" font-size="10.00">+</text>
<text text-anchor="start" x="29.88" y="-902.5" font-family="Helvetica,sans-Serif" font-size="10.00">void setIso(String iso)</text>
<text text-anchor="start" x="19.88" y="-886.5" font-family="Helvetica,sans-Serif" font-size="10.00">+</text>
<text text-anchor="start" x="29.88" y="-886.5" font-family="Helvetica,sans-Serif" font-size="10.00">static PlayerLanguageBuilder</text>
<text text-anchor="start" x="29.88" y="-874.5" font-family="Helvetica,sans-Serif" font-size="10.00"> builder()</text>
<polygon fill="#666666" stroke="#666666" points="15.88,-1022 15.88,-1022 160.62,-1022 160.62,-1022 15.88,-1022"/>
<polygon fill="#666666" stroke="#666666" points="15.88,-990 15.88,-990 27.88,-990 27.88,-990 15.88,-990"/>
<polygon fill="#666666" stroke="#666666" points="27.88,-990 27.88,-990 160.62,-990 160.62,-990 27.88,-990"/>
<polygon fill="none" stroke="#666666" points="15.88,-868 15.88,-1052 160.62,-1052 160.62,-868 15.88,-868"/>
</a>
</g>
</g>
<!-- Node4&#45;&gt;Node3 -->
<g id="edge3_Node000003_Node000004" class="edge">
<title>Node4&#45;&gt;Node3</title>
<g id="a_edge3_Node000003_Node000004"><a xlink:title=" ">
<path fill="none" stroke="#63b8ff" d="M126.07,-868.14C139.56,-835.73 155.37,-797.76 171.24,-759.62"/>
<polygon fill="none" stroke="#63b8ff" points="171.21,-759.7 169.82,-752.62 175.82,-748.62 177.21,-755.69 171.21,-759.7"/>
</a>
</g>
<text text-anchor="middle" x="207.06" y="-768.5" font-family="Helvetica,sans-Serif" font-size="10.00" fill="grey"> &#45;playerlanguageid</text>
</g>
<!-- Node5 -->
<g id="Node000005" class="node">
<title>Node5</title>
<g id="a_Node000005"><a xlink:href="classfr_1_1softsf_1_1sudokufx_1_1model_1_1_background.html" target="_top" xlink:title=" ">
<polygon fill="white" stroke="none" points="336,-1124 178.5,-1124 178.5,-796 336,-796 336,-1124"/>
<text text-anchor="start" x="202.88" y="-1110.5" font-family="Helvetica,sans-Serif" font-size="10.00">fr.softsf.sudokufx.model.</text>
<text text-anchor="start" x="231.38" y="-1098.5" font-family="Helvetica,sans-Serif" font-size="10.00">Background</text>
<text text-anchor="start" x="184" y="-1082.5" font-family="Helvetica,sans-Serif" font-size="10.00">&#45;</text>
<text text-anchor="start" x="192.5" y="-1082.5" font-family="Helvetica,sans-Serif" font-size="10.00">Long backgroundid</text>
<text text-anchor="start" x="184" y="-1066.5" font-family="Helvetica,sans-Serif" font-size="10.00">&#45;</text>
<text text-anchor="start" x="192.5" y="-1066.5" font-family="Helvetica,sans-Serif" font-size="10.00">String hexcolor</text>
<text text-anchor="start" x="184" y="-1050.5" font-family="Helvetica,sans-Serif" font-size="10.00">&#45;</text>
<text text-anchor="start" x="192.5" y="-1050.5" font-family="Helvetica,sans-Serif" font-size="10.00">String imagepath</text>
<text text-anchor="start" x="184" y="-1034.5" font-family="Helvetica,sans-Serif" font-size="10.00">&#45;</text>
<text text-anchor="start" x="192.5" y="-1034.5" font-family="Helvetica,sans-Serif" font-size="10.00">Boolean isimage</text>
<text text-anchor="start" x="182.5" y="-1018.5" font-family="Helvetica,sans-Serif" font-size="10.00">+</text>
<text text-anchor="start" x="192.5" y="-1018.5" font-family="Helvetica,sans-Serif" font-size="10.00">Background()</text>
<text text-anchor="start" x="182.5" y="-1002.5" font-family="Helvetica,sans-Serif" font-size="10.00">+</text>
<text text-anchor="start" x="192.5" y="-1002.5" font-family="Helvetica,sans-Serif" font-size="10.00">Background(Long backgroundid,</text>
<text text-anchor="start" x="192.5" y="-990.5" font-family="Helvetica,sans-Serif" font-size="10.00"> String hexcolor, String</text>
<text text-anchor="start" x="192.5" y="-978.5" font-family="Helvetica,sans-Serif" font-size="10.00"> imagepath, Boolean isimage)</text>
<text text-anchor="start" x="182.5" y="-962.5" font-family="Helvetica,sans-Serif" font-size="10.00">+</text>
<text text-anchor="start" x="192.5" y="-962.5" font-family="Helvetica,sans-Serif" font-size="10.00">Long getBackgroundid()</text>
<text text-anchor="start" x="182.5" y="-946.5" font-family="Helvetica,sans-Serif" font-size="10.00">+</text>
<text text-anchor="start" x="192.5" y="-946.5" font-family="Helvetica,sans-Serif" font-size="10.00">String getHexcolor()</text>
<text text-anchor="start" x="182.5" y="-930.5" font-family="Helvetica,sans-Serif" font-size="10.00">+</text>
<text text-anchor="start" x="192.5" y="-930.5" font-family="Helvetica,sans-Serif" font-size="10.00">String getImagepath()</text>
<text text-anchor="start" x="182.5" y="-914.5" font-family="Helvetica,sans-Serif" font-size="10.00">+</text>
<text text-anchor="start" x="192.5" y="-914.5" font-family="Helvetica,sans-Serif" font-size="10.00">Boolean getIsimage()</text>
<text text-anchor="start" x="182.5" y="-898.5" font-family="Helvetica,sans-Serif" font-size="10.00">+</text>
<text text-anchor="start" x="192.5" y="-898.5" font-family="Helvetica,sans-Serif" font-size="10.00">void setHexcolor(String</text>
<text text-anchor="start" x="192.5" y="-886.5" font-family="Helvetica,sans-Serif" font-size="10.00"> hexcolor)</text>
<text text-anchor="start" x="182.5" y="-870.5" font-family="Helvetica,sans-Serif" font-size="10.00">+</text>
<text text-anchor="start" x="192.5" y="-870.5" font-family="Helvetica,sans-Serif" font-size="10.00">void setImagepath(String</text>
<text text-anchor="start" x="192.5" y="-858.5" font-family="Helvetica,sans-Serif" font-size="10.00"> imagepath)</text>
<text text-anchor="start" x="182.5" y="-842.5" font-family="Helvetica,sans-Serif" font-size="10.00">+</text>
<text text-anchor="start" x="192.5" y="-842.5" font-family="Helvetica,sans-Serif" font-size="10.00">void setIsimage(Boolean</text>
<text text-anchor="start" x="192.5" y="-830.5" font-family="Helvetica,sans-Serif" font-size="10.00"> isimage)</text>
<text text-anchor="start" x="182.5" y="-814.5" font-family="Helvetica,sans-Serif" font-size="10.00">+</text>
<text text-anchor="start" x="192.5" y="-814.5" font-family="Helvetica,sans-Serif" font-size="10.00">static BackgroundBuilder</text>
<text text-anchor="start" x="192.5" y="-802.5" font-family="Helvetica,sans-Serif" font-size="10.00"> builder()</text>
<polygon fill="#666666" stroke="#666666" points="178.5,-1094 178.5,-1094 336,-1094 336,-1094 178.5,-1094"/>
<polygon fill="#666666" stroke="#666666" points="178.5,-1030 178.5,-1030 190.5,-1030 190.5,-1030 178.5,-1030"/>
<polygon fill="#666666" stroke="#666666" points="190.5,-1030 190.5,-1030 336,-1030 336,-1030 190.5,-1030"/>
<polygon fill="none" stroke="#666666" points="178.5,-796 178.5,-1124 336,-1124 336,-796 178.5,-796"/>
</a>
</g>
</g>
<!-- Node5&#45;&gt;Node3 -->
<g id="edge4_Node000003_Node000005" class="edge">
<title>Node5&#45;&gt;Node3</title>
<g id="a_edge4_Node000003_Node000005"><a xlink:title=" ">
<path fill="none" stroke="#63b8ff" d="M257.25,-796.2C257.25,-784.54 257.25,-772.69 257.25,-760.82"/>
<polygon fill="none" stroke="#63b8ff" points="257.25,-760.84 253.25,-754.84 257.25,-748.84 261.25,-754.84 257.25,-760.84"/>
</a>
</g>
<text text-anchor="middle" x="289.12" y="-768.5" font-family="Helvetica,sans-Serif" font-size="10.00" fill="grey"> &#45;backgroundid</text>
</g>
<!-- Node6 -->
<g id="Node000006" class="node">
<title>Node6</title>
<g id="a_Node000006"><a xlink:href="classfr_1_1softsf_1_1sudokufx_1_1model_1_1_menu.html" target="_top" xlink:title=" ">
<polygon fill="white" stroke="none" points="494.62,-1046 353.88,-1046 353.88,-874 494.62,-874 494.62,-1046"/>
<text text-anchor="start" x="357.88" y="-1032.5" font-family="Helvetica,sans-Serif" font-size="10.00">fr.softsf.sudokufx.model.Menu</text>
<text text-anchor="start" x="362.12" y="-1016.5" font-family="Helvetica,sans-Serif" font-size="10.00">&#45;</text>
<text text-anchor="start" x="373.38" y="-1016.5" font-family="Helvetica,sans-Serif" font-size="10.00">Byte menuid</text>
<text text-anchor="start" x="362.12" y="-1000.5" font-family="Helvetica,sans-Serif" font-size="10.00">&#45;</text>
<text text-anchor="start" x="373.38" y="-1000.5" font-family="Helvetica,sans-Serif" font-size="10.00">Byte mode</text>
<text text-anchor="start" x="360.62" y="-984.5" font-family="Helvetica,sans-Serif" font-size="10.00">+</text>
<text text-anchor="start" x="373.38" y="-984.5" font-family="Helvetica,sans-Serif" font-size="10.00">Menu()</text>
<text text-anchor="start" x="360.62" y="-968.5" font-family="Helvetica,sans-Serif" font-size="10.00">+</text>
<text text-anchor="start" x="373.38" y="-968.5" font-family="Helvetica,sans-Serif" font-size="10.00">Menu(Byte menuid,</text>
<text text-anchor="start" x="373.38" y="-956.5" font-family="Helvetica,sans-Serif" font-size="10.00"> Byte mode)</text>
<text text-anchor="start" x="360.62" y="-940.5" font-family="Helvetica,sans-Serif" font-size="10.00">+</text>
<text text-anchor="start" x="373.38" y="-940.5" font-family="Helvetica,sans-Serif" font-size="10.00">Byte getMenuid()</text>
<text text-anchor="start" x="360.62" y="-924.5" font-family="Helvetica,sans-Serif" font-size="10.00">+</text>
<text text-anchor="start" x="373.38" y="-924.5" font-family="Helvetica,sans-Serif" font-size="10.00">Byte getMode()</text>
<text text-anchor="start" x="360.62" y="-908.5" font-family="Helvetica,sans-Serif" font-size="10.00">+</text>
<text text-anchor="start" x="373.38" y="-908.5" font-family="Helvetica,sans-Serif" font-size="10.00">void setMode(Byte mode)</text>
<text text-anchor="start" x="360.62" y="-892.5" font-family="Helvetica,sans-Serif" font-size="10.00">+</text>
<text text-anchor="start" x="373.38" y="-892.5" font-family="Helvetica,sans-Serif" font-size="10.00">static MenuBuilder</text>
<text text-anchor="start" x="373.38" y="-880.5" font-family="Helvetica,sans-Serif" font-size="10.00"> builder()</text>
<polygon fill="#666666" stroke="#666666" points="353.88,-1028 353.88,-1028 494.62,-1028 494.62,-1028 353.88,-1028"/>
<polygon fill="#666666" stroke="#666666" points="353.88,-996 353.88,-996 371.38,-996 371.38,-996 353.88,-996"/>
<polygon fill="#666666" stroke="#666666" points="371.38,-996 371.38,-996 494.62,-996 494.62,-996 371.38,-996"/>
<polygon fill="none" stroke="#666666" points="353.88,-874 353.88,-1046 494.62,-1046 494.62,-874 353.88,-874"/>
</a>
</g>
</g>
<!-- Node6&#45;&gt;Node3 -->
<g id="edge5_Node000003_Node000006" class="edge">
<title>Node6&#45;&gt;Node3</title>
<g id="a_edge5_Node000003_Node000006"><a xlink:title=" ">
<path fill="none" stroke="#63b8ff" d="M389.44,-874.38C375.61,-840.75 359.04,-800.46 342.38,-759.95"/>
<polygon fill="none" stroke="#63b8ff" points="342.35,-759.89 336.37,-755.86 337.78,-748.79 343.77,-752.82 342.35,-759.89"/>
</a>
</g>
<text text-anchor="middle" x="364.51" y="-768.5" font-family="Helvetica,sans-Serif" font-size="10.00" fill="grey"> &#45;menuid</text>
</g>
<!-- Node7 -->
<g id="Node000007" class="node">
<title>Node7</title>
<g id="a_Node000007"><a xlink:href="classfr_1_1softsf_1_1sudokufx_1_1model_1_1_game_level.html" target="_top" xlink:title=" ">
<polygon fill="white" stroke="none" points="502.5,-650 378,-650 378,-454 502.5,-454 502.5,-650"/>
<text text-anchor="start" x="385.88" y="-636.5" font-family="Helvetica,sans-Serif" font-size="10.00">fr.softsf.sudokufx.model.</text>
<text text-anchor="start" x="415.5" y="-624.5" font-family="Helvetica,sans-Serif" font-size="10.00">GameLevel</text>
<text text-anchor="start" x="383.5" y="-608.5" font-family="Helvetica,sans-Serif" font-size="10.00">&#45;</text>
<text text-anchor="start" x="392" y="-608.5" font-family="Helvetica,sans-Serif" font-size="10.00">Byte level</text>
<text text-anchor="start" x="383.5" y="-592.5" font-family="Helvetica,sans-Serif" font-size="10.00">&#45;</text>
<text text-anchor="start" x="392" y="-592.5" font-family="Helvetica,sans-Serif" font-size="10.00">Byte levelid</text>
<text text-anchor="start" x="382" y="-576.5" font-family="Helvetica,sans-Serif" font-size="10.00">+</text>
<text text-anchor="start" x="392" y="-576.5" font-family="Helvetica,sans-Serif" font-size="10.00">GameLevel()</text>
<text text-anchor="start" x="382" y="-560.5" font-family="Helvetica,sans-Serif" font-size="10.00">+</text>
<text text-anchor="start" x="392" y="-560.5" font-family="Helvetica,sans-Serif" font-size="10.00">GameLevel(Byte levelid,</text>
<text text-anchor="start" x="392" y="-548.5" font-family="Helvetica,sans-Serif" font-size="10.00"> Byte level)</text>
<text text-anchor="start" x="382" y="-532.5" font-family="Helvetica,sans-Serif" font-size="10.00">+</text>
<text text-anchor="start" x="392" y="-532.5" font-family="Helvetica,sans-Serif" font-size="10.00">Byte getLevel()</text>
<text text-anchor="start" x="382" y="-516.5" font-family="Helvetica,sans-Serif" font-size="10.00">+</text>
<text text-anchor="start" x="392" y="-516.5" font-family="Helvetica,sans-Serif" font-size="10.00">Byte getLevelid()</text>
<text text-anchor="start" x="382" y="-500.5" font-family="Helvetica,sans-Serif" font-size="10.00">+</text>
<text text-anchor="start" x="392" y="-500.5" font-family="Helvetica,sans-Serif" font-size="10.00">void setLevel(Byte</text>
<text text-anchor="start" x="392" y="-488.5" font-family="Helvetica,sans-Serif" font-size="10.00"> level)</text>
<text text-anchor="start" x="382" y="-472.5" font-family="Helvetica,sans-Serif" font-size="10.00">+</text>
<text text-anchor="start" x="392" y="-472.5" font-family="Helvetica,sans-Serif" font-size="10.00">static GameLevelBuilder</text>
<text text-anchor="start" x="392" y="-460.5" font-family="Helvetica,sans-Serif" font-size="10.00"> builder()</text>
<polygon fill="#666666" stroke="#666666" points="378,-620 378,-620 502.5,-620 502.5,-620 378,-620"/>
<polygon fill="#666666" stroke="#666666" points="378,-588 378,-588 390,-588 390,-588 378,-588"/>
<polygon fill="#666666" stroke="#666666" points="390,-588 390,-588 502.5,-588 502.5,-588 390,-588"/>
<polygon fill="none" stroke="#666666" points="378,-454 378,-650 502.5,-650 502.5,-454 378,-454"/>
</a>
</g>
</g>
<!-- Node7&#45;&gt;Node1 -->
<g id="edge6_Node000001_Node000007" class="edge">
<title>Node7&#45;&gt;Node1</title>
<g id="a_edge6_Node000001_Node000007"><a xlink:title=" ">
<path fill="none" stroke="#63b8ff" d="M408.39,-454.06C397.07,-422.37 383.55,-387.29 369.25,-356 357.87,-331.11 344.56,-305.15 331.17,-280.47"/>
<polygon fill="none" stroke="#63b8ff" points="331.21,-280.55 324.82,-277.2 325.45,-270.02 331.84,-273.36 331.21,-280.55"/>
</a>
</g>
<text text-anchor="middle" x="375.45" y="-328.5" font-family="Helvetica,sans-Serif" font-size="10.00" fill="grey"> &#45;levelid</text>
</g>
</g>
</svg>
