<?xml version="1.0" encoding="UTF-8" standalone="no"?>
<!DOCTYPE svg PUBLIC "-//W3C//DTD SVG 1.1//EN"
 "http://www.w3.org/Graphics/SVG/1.1/DTD/svg11.dtd">
<!-- Generated by graphviz version 12.2.1 (20241206.2353)
 -->
<!-- Title: fr.softsf.sudokufx.viewmodel.grid.GridViewModel.setCurrentGridWithLevel Pages: 1 -->
<svg width="610pt" height="252pt"
 viewBox="0.00 0.00 609.50 252.00" xmlns="http://www.w3.org/2000/svg" xmlns:xlink="http://www.w3.org/1999/xlink">
<g id="graph0" class="graph" transform="scale(1 1) rotate(0) translate(4 248)">
<title>fr.softsf.sudokufx.viewmodel.grid.GridViewModel.setCurrentGridWithLevel</title>
<!-- Node1 -->
<g id="Node000001" class="node">
<title>Node1</title>
<g id="a_Node000001"><a xlink:title="Generates a new grid for the given difficulty level, updates the cells, and returns the associated co...">
<polygon fill="#999999" stroke="#666666" points="192.25,-181 0,-181 0,-149 192.25,-149 192.25,-181"/>
<text text-anchor="start" x="8" y="-167.5" font-family="Helvetica,sans-Serif" font-size="10.00">fr.softsf.sudokufx.viewmodel.grid.</text>
<text text-anchor="middle" x="96.12" y="-155.5" font-family="Helvetica,sans-Serif" font-size="10.00">GridViewModel.setCurrentGridWithLevel</text>
</a>
</g>
</g>
<!-- Node2 -->
<g id="Node000002" class="node">
<title>Node2</title>
<g id="a_Node000002"><a xlink:href="classfr_1_1softsf_1_1sudokufx_1_1viewmodel_1_1grid_1_1_grid_view_model.html#ace36956cb99bad46d1144460d8cde157" target="_top" xlink:title="Checks whether the GridViewModel has been initialized via init().">
<polygon fill="white" stroke="#666666" points="596.62,-168 432.88,-168 432.88,-136 596.62,-136 596.62,-168"/>
<text text-anchor="start" x="440.88" y="-154.5" font-family="Helvetica,sans-Serif" font-size="10.00">fr.softsf.sudokufx.viewmodel.grid.</text>
<text text-anchor="middle" x="514.75" y="-142.5" font-family="Helvetica,sans-Serif" font-size="10.00">GridViewModel.checkInitialized</text>
</a>
</g>
</g>
<!-- Node1&#45;&gt;Node2 -->
<g id="edge1_Node000001_Node000002" class="edge">
<title>Node1&#45;&gt;Node2</title>
<g id="a_edge1_Node000001_Node000002"><a xlink:title=" ">
<path fill="none" stroke="#63b8ff" d="M192.71,-162.02C261.43,-159.87 353.59,-157 421.53,-154.88"/>
<polygon fill="#63b8ff" stroke="#63b8ff" points="421.25,-158.39 431.13,-154.58 421.03,-151.39 421.25,-158.39"/>
</a>
</g>
</g>
<!-- Node3 -->
<g id="Node000003" class="node">
<title>Node3</title>
<g id="a_Node000003"><a xlink:href="classfr_1_1softsf_1_1sudokufx_1_1viewmodel_1_1grid_1_1_grid_view_model.html#a85b73068471edb726968c94d30bc79a6" target="_top" xlink:title="Persists a newly generated game for the current player, updating the selected game with grids,...">
<polygon fill="white" stroke="#666666" points="392,-244 228.25,-244 228.25,-212 392,-212 392,-244"/>
<text text-anchor="start" x="236.25" y="-230.5" font-family="Helvetica,sans-Serif" font-size="10.00">fr.softsf.sudokufx.viewmodel.grid.</text>
<text text-anchor="middle" x="310.12" y="-218.5" font-family="Helvetica,sans-Serif" font-size="10.00">GridViewModel.persistNewGame</text>
</a>
</g>
</g>
<!-- Node1&#45;&gt;Node3 -->
<g id="edge2_Node000001_Node000003" class="edge">
<title>Node1&#45;&gt;Node3</title>
<g id="a_edge2_Node000001_Node000003"><a xlink:title=" ">
<path fill="none" stroke="#63b8ff" d="M152.55,-181.47C180.18,-189.68 213.8,-199.67 242.79,-208.29"/>
<polygon fill="#63b8ff" stroke="#63b8ff" points="241.62,-211.59 252.21,-211.09 243.62,-204.88 241.62,-211.59"/>
</a>
</g>
</g>
<!-- Node4 -->
<g id="Node000004" class="node">
<title>Node4</title>
<g id="a_Node000004"><a xlink:href="enumfr_1_1softsf_1_1sudokufx_1_1common_1_1enums_1_1_difficulty_level.html#ab1bebf1bd508380d7ace78f40778e05c" target="_top" xlink:title="Converts this difficulty level to its numeric representation.">
<polygon fill="white" stroke="#666666" points="598.88,-231 430.62,-231 430.62,-199 598.88,-199 598.88,-231"/>
<text text-anchor="start" x="438.62" y="-217.5" font-family="Helvetica,sans-Serif" font-size="10.00">fr.softsf.sudokufx.common.enums.</text>
<text text-anchor="middle" x="514.75" y="-205.5" font-family="Helvetica,sans-Serif" font-size="10.00">DifficultyLevel.toGridNumber</text>
</a>
</g>
</g>
<!-- Node1&#45;&gt;Node4 -->
<g id="edge10_Node000001_Node000004" class="edge">
<title>Node1&#45;&gt;Node4</title>
<g id="a_edge10_Node000001_Node000004"><a xlink:title=" ">
<path fill="none" stroke="#63b8ff" d="M192.71,-176.47C260.64,-184.62 351.45,-195.52 419.16,-203.65"/>
<polygon fill="#63b8ff" stroke="#63b8ff" points="418.39,-207.08 428.74,-204.8 419.23,-200.13 418.39,-207.08"/>
</a>
</g>
</g>
<!-- Node5 -->
<g id="Node000005" class="node">
<title>Node5</title>
<g id="a_Node000005"><a xlink:href="classfr_1_1softsf_1_1sudokufx_1_1viewmodel_1_1grid_1_1_grid_view_model.html#ab7607876adb740f7f1d55b5016faba0c" target="_top" xlink:title="Sets all 81 cell values and optionally their editability.">
<polygon fill="white" stroke="#666666" points="392,-106 228.25,-106 228.25,-74 392,-74 392,-106"/>
<text text-anchor="start" x="236.25" y="-92.5" font-family="Helvetica,sans-Serif" font-size="10.00">fr.softsf.sudokufx.viewmodel.grid.</text>
<text text-anchor="middle" x="310.12" y="-80.5" font-family="Helvetica,sans-Serif" font-size="10.00">GridViewModel.setValues</text>
</a>
</g>
</g>
<!-- Node1&#45;&gt;Node5 -->
<g id="edge4_Node000001_Node000005" class="edge">
<title>Node1&#45;&gt;Node5</title>
<g id="a_edge4_Node000001_Node000005"><a xlink:title=" ">
<path fill="none" stroke="#63b8ff" d="M143.65,-148.54C175.54,-137.26 218.06,-122.22 252.01,-110.21"/>
<polygon fill="#63b8ff" stroke="#63b8ff" points="253.02,-113.56 261.28,-106.93 250.69,-106.96 253.02,-113.56"/>
</a>
</g>
</g>
<!-- Node3&#45;&gt;Node4 -->
<g id="edge3_Node000003_Node000004" class="edge">
<title>Node3&#45;&gt;Node4</title>
<g id="a_edge3_Node000003_Node000004"><a xlink:title=" ">
<path fill="none" stroke="#63b8ff" d="M392.37,-222.79C401.12,-222.23 410.08,-221.65 418.97,-221.08"/>
<polygon fill="#63b8ff" stroke="#63b8ff" points="418.9,-224.59 428.66,-220.46 418.45,-217.61 418.9,-224.59"/>
</a>
</g>
</g>
<!-- Node5&#45;&gt;Node2 -->
<g id="edge5_Node000005_Node000002" class="edge">
<title>Node5&#45;&gt;Node2</title>
<g id="a_edge5_Node000005_Node000002"><a xlink:title=" ">
<path fill="none" stroke="#63b8ff" d="M362.25,-106.46C382.67,-112.97 406.42,-120.44 428,-127 433.75,-128.75 439.72,-130.54 445.72,-132.32"/>
<polygon fill="#63b8ff" stroke="#63b8ff" points="444.47,-135.6 455.05,-135.08 446.45,-128.89 444.47,-135.6"/>
</a>
</g>
</g>
<!-- Node6 -->
<g id="Node000006" class="node">
<title>Node6</title>
<g id="a_Node000006"><a xlink:href="classfr_1_1softsf_1_1sudokufx_1_1viewmodel_1_1grid_1_1_grid_cell_view_model.html#a1b2f5aa3c798e4aaf3e845aa59cde94c" target="_top" xlink:title=" ">
<polygon fill="white" stroke="#666666" points="601.12,-100 428.38,-100 428.38,-68 601.12,-68 601.12,-100"/>
<text text-anchor="start" x="436.38" y="-86.5" font-family="Helvetica,sans-Serif" font-size="10.00">fr.softsf.sudokufx.viewmodel.grid.</text>
<text text-anchor="middle" x="514.75" y="-74.5" font-family="Helvetica,sans-Serif" font-size="10.00">GridCellViewModel.editableProperty</text>
</a>
</g>
</g>
<!-- Node5&#45;&gt;Node6 -->
<g id="edge6_Node000005_Node000006" class="edge">
<title>Node5&#45;&gt;Node6</title>
<g id="a_edge6_Node000005_Node000006"><a xlink:title=" ">
<path fill="none" stroke="#63b8ff" d="M392.37,-87.59C400.38,-87.36 408.56,-87.11 416.71,-86.87"/>
<polygon fill="#63b8ff" stroke="#63b8ff" points="416.77,-90.37 426.66,-86.58 416.56,-83.38 416.77,-90.37"/>
</a>
</g>
</g>
<!-- Node7 -->
<g id="Node000007" class="node">
<title>Node7</title>
<g id="a_Node000007"><a xlink:href="classfr_1_1softsf_1_1sudokufx_1_1viewmodel_1_1grid_1_1_grid_cell_view_model.html#ae04f21e5c6df7750f4e8c79d600a9b6b" target="_top" xlink:title=" ">
<polygon fill="white" stroke="#666666" points="601.5,-32 428,-32 428,0 601.5,0 601.5,-32"/>
<text text-anchor="start" x="436" y="-18.5" font-family="Helvetica,sans-Serif" font-size="10.00">fr.softsf.sudokufx.viewmodel.grid.</text>
<text text-anchor="middle" x="514.75" y="-6.5" font-family="Helvetica,sans-Serif" font-size="10.00">GridCellViewModel.rawTextProperty</text>
</a>
</g>
</g>
<!-- Node5&#45;&gt;Node7 -->
<g id="edge8_Node000005_Node000007" class="edge">
<title>Node5&#45;&gt;Node7</title>
<g id="a_edge8_Node000005_Node000007"><a xlink:title=" ">
<path fill="none" stroke="#63b8ff" d="M356.09,-73.58C386.26,-62.56 426.2,-47.97 458.33,-36.24"/>
<polygon fill="#63b8ff" stroke="#63b8ff" points="459.29,-39.61 467.48,-32.9 456.89,-33.04 459.29,-39.61"/>
</a>
</g>
</g>
<!-- Node6&#45;&gt;Node6 -->
<g id="edge7_Node000006_Node000006" class="edge">
<title>Node6&#45;&gt;Node6</title>
<g id="a_edge7_Node000006_Node000006"><a xlink:title=" ">
<path fill="none" stroke="#63b8ff" d="M478.22,-100.44C471.4,-109.58 483.58,-118 514.75,-118 532.04,-118 543.49,-115.41 549.09,-111.54"/>
<polygon fill="#63b8ff" stroke="#63b8ff" points="552.49,-112.42 550.99,-101.93 545.62,-111.06 552.49,-112.42"/>
</a>
</g>
</g>
<!-- Node7&#45;&gt;Node7 -->
<g id="edge9_Node000007_Node000007" class="edge">
<title>Node7&#45;&gt;Node7</title>
<g id="a_edge9_Node000007_Node000007"><a xlink:title=" ">
<path fill="none" stroke="#63b8ff" d="M478.22,-32.44C471.4,-41.58 483.58,-50 514.75,-50 532.04,-50 543.49,-47.41 549.09,-43.54"/>
<polygon fill="#63b8ff" stroke="#63b8ff" points="552.49,-44.42 550.99,-33.93 545.62,-43.06 552.49,-44.42"/>
</a>
</g>
</g>
</g>
</svg>
