<?xml version="1.0" encoding="UTF-8" standalone="no"?>
<!DOCTYPE svg PUBLIC "-//W3C//DTD SVG 1.1//EN"
 "http://www.w3.org/Graphics/SVG/1.1/DTD/svg11.dtd">
<!-- Generated by graphviz version 12.2.1 (20241206.2353)
 -->
<!-- Title: fr.softsf.sudokufx.view.component.firework.Firework.FireworkContext Pages: 1 -->
<svg width="942pt" height="135pt"
 viewBox="0.00 0.00 942.00 134.55" xmlns="http://www.w3.org/2000/svg" xmlns:xlink="http://www.w3.org/1999/xlink">
<g id="graph0" class="graph" transform="scale(1 1) rotate(0) translate(4 130.55)">
<title>fr.softsf.sudokufx.view.component.firework.Firework.FireworkContext</title>
<!-- Node1 -->
<g id="Node000001" class="node">
<title>Node1</title>
<g id="a_Node000001"><a xlink:title="Snapshot of the rendering environment including scaling metrics.">
<polygon fill="#999999" stroke="#666666" points="206.5,-82.44 0,-82.44 0,-50.44 206.5,-50.44 206.5,-82.44"/>
<text text-anchor="start" x="8" y="-68.94" font-family="Helvetica,sans-Serif" font-size="10.00">fr.softsf.sudokufx.view.component.firework.</text>
<text text-anchor="middle" x="103.25" y="-56.94" font-family="Helvetica,sans-Serif" font-size="10.00">Firework.FireworkContext</text>
</a>
</g>
</g>
<!-- Node2 -->
<g id="Node000002" class="node">
<title>Node2</title>
<g id="a_Node000002"><a xlink:href="classfr_1_1softsf_1_1sudokufx_1_1view_1_1component_1_1firework_1_1_firework.html#ac6cc6c251a94b02e939acfbce3009d5a" target="_top" xlink:title="Initializes the component and its reusable animation loop.">
<polygon fill="white" stroke="#666666" points="449,-51.44 242.5,-51.44 242.5,-19.44 449,-19.44 449,-51.44"/>
<text text-anchor="start" x="250.5" y="-37.94" font-family="Helvetica,sans-Serif" font-size="10.00">fr.softsf.sudokufx.view.component.firework.</text>
<text text-anchor="middle" x="345.75" y="-25.94" font-family="Helvetica,sans-Serif" font-size="10.00">Firework.Firework</text>
</a>
</g>
</g>
<!-- Node1&#45;&gt;Node2 -->
<g id="edge1_Node000001_Node000002" class="edge">
<title>Node1&#45;&gt;Node2</title>
<g id="a_edge1_Node000001_Node000002"><a xlink:title=" ">
<path fill="none" stroke="#63b8ff" d="M206.94,-53.21C214.84,-52.19 222.84,-51.16 230.8,-50.13"/>
<polygon fill="#63b8ff" stroke="#63b8ff" points="231.05,-53.63 240.52,-48.88 230.15,-46.69 231.05,-53.63"/>
</a>
</g>
</g>
<!-- Node2&#45;&gt;Node2 -->
<g id="edge2_Node000002_Node000002" class="edge">
<title>Node2&#45;&gt;Node2</title>
<g id="a_edge2_Node000002_Node000002"><a xlink:title=" ">
<path fill="none" stroke="#63b8ff" d="M302.46,-51.89C294.38,-61.03 308.81,-69.44 345.75,-69.44 366.24,-69.44 379.81,-66.85 386.45,-62.99"/>
<polygon fill="#63b8ff" stroke="#63b8ff" points="389.83,-63.89 388.7,-53.36 383.01,-62.3 389.83,-63.89"/>
</a>
</g>
</g>
<!-- Node3 -->
<g id="Node000003" class="node">
<title>Node3</title>
<g id="a_Node000003"><a xlink:href="classfr_1_1softsf_1_1sudokufx_1_1view_1_1component_1_1firework_1_1_firework.html#a497b0b27502d30d1844cd54e4dd6fcf0" target="_top" xlink:title="Generates a circular particle burst at a random screen location.">
<polygon fill="white" stroke="#666666" points="691.5,-89.44 485,-89.44 485,-57.44 691.5,-57.44 691.5,-89.44"/>
<text text-anchor="start" x="493" y="-75.94" font-family="Helvetica,sans-Serif" font-size="10.00">fr.softsf.sudokufx.view.component.firework.</text>
<text text-anchor="middle" x="588.25" y="-63.94" font-family="Helvetica,sans-Serif" font-size="10.00">Firework.ignite</text>
</a>
</g>
</g>
<!-- Node2&#45;&gt;Node3 -->
<g id="edge3_Node000002_Node000003" class="edge">
<title>Node2&#45;&gt;Node3</title>
<g id="a_edge3_Node000002_Node000003"><a xlink:title=" ">
<path fill="none" stroke="#63b8ff" d="M449.44,-51.67C457.34,-52.92 465.34,-54.18 473.3,-55.44"/>
<polygon fill="#63b8ff" stroke="#63b8ff" points="472.6,-58.87 483.02,-56.98 473.69,-51.96 472.6,-58.87"/>
</a>
</g>
</g>
<!-- Node5 -->
<g id="Node000005" class="node">
<title>Node5</title>
<g id="a_Node000005"><a xlink:href="classfr_1_1softsf_1_1sudokufx_1_1view_1_1component_1_1firework_1_1_firework.html#ab989e17fd615336c73186f7f80b6c976" target="_top" xlink:title="Updates positions for all active particles and prunes expired ones.">
<polygon fill="white" stroke="#666666" points="691.5,-39.44 485,-39.44 485,-7.44 691.5,-7.44 691.5,-39.44"/>
<text text-anchor="start" x="493" y="-25.94" font-family="Helvetica,sans-Serif" font-size="10.00">fr.softsf.sudokufx.view.component.firework.</text>
<text text-anchor="middle" x="588.25" y="-13.94" font-family="Helvetica,sans-Serif" font-size="10.00">Firework.updateParticles</text>
</a>
</g>
</g>
<!-- Node2&#45;&gt;Node5 -->
<g id="edge8_Node000002_Node000005" class="edge">
<title>Node2&#45;&gt;Node5</title>
<g id="a_edge8_Node000002_Node000005"><a xlink:title=" ">
<path fill="none" stroke="#63b8ff" d="M449.44,-30.32C457.25,-29.93 465.15,-29.54 473.03,-29.14"/>
<polygon fill="#63b8ff" stroke="#63b8ff" points="473.19,-32.64 483.01,-28.65 472.85,-25.65 473.19,-32.64"/>
</a>
</g>
</g>
<!-- Node3&#45;&gt;Node1 -->
<g id="edge4_Node000003_Node000001" class="edge">
<title>Node3&#45;&gt;Node1</title>
<g id="a_edge4_Node000003_Node000001"><a xlink:title=" ">
<path fill="none" stroke="#63b8ff" d="M484.63,-78.03C416.05,-80.34 323.83,-81.97 242.5,-78.44 234.56,-78.1 226.36,-77.64 218.12,-77.11"/>
<polygon fill="#63b8ff" stroke="#63b8ff" points="218.59,-73.64 208.37,-76.45 218.11,-80.62 218.59,-73.64"/>
</a>
</g>
</g>
<!-- Node3&#45;&gt;Node3 -->
<g id="edge7_Node000003_Node000003" class="edge">
<title>Node3&#45;&gt;Node3</title>
<g id="a_edge7_Node000003_Node000003"><a xlink:title=" ">
<path fill="none" stroke="#63b8ff" d="M544.96,-89.89C536.88,-99.03 551.31,-107.44 588.25,-107.44 608.74,-107.44 622.31,-104.85 628.95,-100.99"/>
<polygon fill="#63b8ff" stroke="#63b8ff" points="632.33,-101.89 631.2,-91.36 625.51,-100.3 632.33,-101.89"/>
</a>
</g>
</g>
<!-- Node4 -->
<g id="Node000004" class="node">
<title>Node4</title>
<g id="a_Node000004"><a xlink:href="classfr_1_1softsf_1_1sudokufx_1_1view_1_1component_1_1firework_1_1_firework.html#a238e975882b916d63349843dd54fbd33" target="_top" xlink:title="Captures the current scene metrics and the firework instance.">
<polygon fill="white" stroke="#666666" points="934,-89.44 727.5,-89.44 727.5,-57.44 934,-57.44 934,-89.44"/>
<text text-anchor="start" x="735.5" y="-75.94" font-family="Helvetica,sans-Serif" font-size="10.00">fr.softsf.sudokufx.view.component.firework.</text>
<text text-anchor="middle" x="830.75" y="-63.94" font-family="Helvetica,sans-Serif" font-size="10.00">Firework.getFireworkContext</text>
</a>
</g>
</g>
<!-- Node3&#45;&gt;Node4 -->
<g id="edge5_Node000003_Node000004" class="edge">
<title>Node3&#45;&gt;Node4</title>
<g id="a_edge5_Node000003_Node000004"><a xlink:title=" ">
<path fill="none" stroke="#63b8ff" d="M691.94,-73.44C699.75,-73.44 707.65,-73.44 715.53,-73.44"/>
<polygon fill="#63b8ff" stroke="#63b8ff" points="715.51,-76.94 725.51,-73.44 715.51,-69.94 715.51,-76.94"/>
</a>
</g>
</g>
<!-- Node4&#45;&gt;Node1 -->
<g id="edge6_Node000004_Node000001" class="edge">
<title>Node4&#45;&gt;Node1</title>
<g id="a_edge6_Node000004_Node000001"><a xlink:title=" ">
<path fill="none" stroke="#63b8ff" d="M788.47,-89.88C761.39,-99.75 724.92,-111.37 691.5,-116.44 511.61,-143.77 298.27,-109.01 184.76,-85.23"/>
<polygon fill="#63b8ff" stroke="#63b8ff" points="185.75,-81.86 175.24,-83.21 184.29,-88.71 185.75,-81.86"/>
</a>
</g>
</g>
<!-- Node5&#45;&gt;Node1 -->
<g id="edge9_Node000005_Node000001" class="edge">
<title>Node5&#45;&gt;Node1</title>
<g id="a_edge9_Node000005_Node000001"><a xlink:title=" ">
<path fill="none" stroke="#63b8ff" d="M484.86,-7.41C415.77,0.44 322.89,5.22 242.5,-10.44 208.39,-17.09 172.06,-32.15 145.2,-44.99"/>
<polygon fill="#63b8ff" stroke="#63b8ff" points="143.84,-41.75 136.39,-49.29 146.91,-48.04 143.84,-41.75"/>
</a>
</g>
</g>
<!-- Node5&#45;&gt;Node4 -->
<g id="edge10_Node000005_Node000004" class="edge">
<title>Node5&#45;&gt;Node4</title>
<g id="a_edge10_Node000005_Node000004"><a xlink:title=" ">
<path fill="none" stroke="#63b8ff" d="M668.33,-39.88C691.14,-44.63 716.2,-49.84 739.63,-54.71"/>
<polygon fill="#63b8ff" stroke="#63b8ff" points="738.64,-58.08 749.14,-56.68 740.06,-51.22 738.64,-58.08"/>
</a>
</g>
</g>
<!-- Node6 -->
<g id="Node000006" class="node">
<title>Node6</title>
<g id="a_Node000006"><a xlink:href="classfr_1_1softsf_1_1sudokufx_1_1view_1_1component_1_1firework_1_1_firework_particle.html#ada8ac44a5ea749dd30023ad11ce7d49e" target="_top" xlink:title="Updates physics, position, and opacity.">
<polygon fill="white" stroke="#666666" points="934,-39.44 727.5,-39.44 727.5,-7.44 934,-7.44 934,-39.44"/>
<text text-anchor="start" x="735.5" y="-25.94" font-family="Helvetica,sans-Serif" font-size="10.00">fr.softsf.sudokufx.view.component.firework.</text>
<text text-anchor="middle" x="830.75" y="-13.94" font-family="Helvetica,sans-Serif" font-size="10.00">FireworkParticle.update</text>
</a>
</g>
</g>
<!-- Node5&#45;&gt;Node6 -->
<g id="edge11_Node000005_Node000006" class="edge">
<title>Node5&#45;&gt;Node6</title>
<g id="a_edge11_Node000005_Node000006"><a xlink:title=" ">
<path fill="none" stroke="#63b8ff" d="M691.94,-23.44C699.75,-23.44 707.65,-23.44 715.53,-23.44"/>
<polygon fill="#63b8ff" stroke="#63b8ff" points="715.51,-26.94 725.51,-23.44 715.51,-19.94 715.51,-26.94"/>
</a>
</g>
</g>
</g>
</svg>
