<?xml version="1.0" encoding="UTF-8" standalone="no"?>
<!DOCTYPE svg PUBLIC "-//W3C//DTD SVG 1.1//EN"
 "http://www.w3.org/Graphics/SVG/1.1/DTD/svg11.dtd">
<!-- Generated by graphviz version 12.2.1 (20241206.2353)
 -->
<!-- Title: fr.softsf.sudokufx.common.util.sudoku.GridMaster.genererLaGrilleAResoudre Pages: 1 -->
<!--zoomable 164 -->

<svg id="main" version="1.1" xmlns="http://www.w3.org/2000/svg" xmlns:xlink="http://www.w3.org/1999/xlink" xml:space="preserve" onload="init(evt)">

<style type="text/css"><![CDATA[
.node, .edge {opacity: 0.7;}
.node.selected, .edge.selected {opacity: 1;}
.edge:hover path { stroke: red; }
.edge:hover polygon { stroke: red; fill: red; }
]]></style>

<defs>
  <circle id="rim" cx="0" cy="0" r="7"/>
  <circle id="rim2" cx="0" cy="0" r="3.5"/>
  <g id="zoomPlus">
    <use xlink:href="#rim" fill="#404040"><set attributeName="fill" to="#808080" begin="zoomplus.mouseover" end="zoomplus.mouseout"/></use>
    <path d="M-4,0h8M0,-4v8" fill="none" stroke="white" stroke-width="1.5" pointer-events="none"/>
  </g>
  <g id="zoomMin">
    <use xlink:href="#rim" fill="#404040"><set attributeName="fill" to="#808080" begin="zoomminus.mouseover" end="zoomminus.mouseout"/></use>
    <path d="M-4,0h8" fill="none" stroke="white" stroke-width="1.5" pointer-events="none"/>
  </g>
  <g id="arrowUp" transform="translate(30 24)">
    <use xlink:href="#rim"/>
    <path pointer-events="none" fill="none" stroke="white" stroke-width="1.5" d="M0,-3.0v7 M-2.5,-0.5L0,-3.0L2.5,-0.5"/>
  </g>
  <g id="arrowRight" transform="rotate(90) translate(36 -43)">
    <use xlink:href="#rim"/>
    <path pointer-events="none" fill="none" stroke="white" stroke-width="1.5" d="M0,-3.0v7 M-2.5,-0.5L0,-3.0L2.5,-0.5"/>
  </g>
  <g id="arrowDown" transform="rotate(180) translate(-30 -48)">
    <use xlink:href="#rim"/>
    <path pointer-events="none" fill="none" stroke="white" stroke-width="1.5" d="M0,-3.0v7 M-2.5,-0.5L0,-3.0L2.5,-0.5"/>
  </g>
  <g id="arrowLeft" transform="rotate(270) translate(-36 17)">
    <use xlink:href="#rim"/>
    <path pointer-events="none" fill="none" stroke="white" stroke-width="1.5" d="M0,-3.0v7 M-2.5,-0.5L0,-3.0L2.5,-0.5"/>
  </g>
  <g id="resetDef">
    <use xlink:href="#rim2" fill="#404040"><set attributeName="fill" to="#808080" begin="reset.mouseover" end="reset.mouseout"/></use>
  </g>
</defs>
<script type="application/ecmascript">
var viewWidth = 1384;
var viewHeight = 164;
var sectionId = 'dynsection-4';
</script>
<script type="application/ecmascript" xlink:href="svg.min.js"/>
<svg id="graph" class="graph">
<g id="viewport">
<title>fr.softsf.sudokufx.common.util.sudoku.GridMaster.genererLaGrilleAResoudre</title>
<!-- Node1 -->
<g id="Node000001" class="node">
<title>Node1</title>
<g id="a_Node000001"><a xlink:title="Génère une grille de Sudoku à résoudre en masquant des cases selon le niveau de difficulté.">
<polygon fill="#999999" stroke="#666666" points="186.25,-94 0,-94 0,-62 186.25,-62 186.25,-94"/>
<text text-anchor="start" x="8" y="-80.5" font-family="Helvetica,sans-Serif" font-size="10.00">fr.softsf.sudokufx.common.util.sudoku.</text>
<text text-anchor="middle" x="93.12" y="-68.5" font-family="Helvetica,sans-Serif" font-size="10.00">GridMaster.genererLaGrilleAResoudre</text>
</a>
</g>
</g>
<!-- Node2 -->
<g id="Node000002" class="node">
<title>Node2</title>
<g id="a_Node000002"><a xlink:href="classfr_1_1softsf_1_1sudokufx_1_1common_1_1util_1_1sudoku_1_1_grid_master.html#aa77557d49c6d3377a6409b74f6386595" target="_top" xlink:title="Génère une grille de Sudoku de niveau difficile (sinon une grille par défaut est retournée après une ...">
<polygon fill="white" stroke="#666666" points="435.12,-156 237.62,-156 237.62,-112 435.12,-112 435.12,-156"/>
<text text-anchor="start" x="245.62" y="-142.5" font-family="Helvetica,sans-Serif" font-size="10.00">fr.softsf.sudokufx.common.util.sudoku.</text>
<text text-anchor="start" x="245.62" y="-130.5" font-family="Helvetica,sans-Serif" font-size="10.00">GridMaster.getPossibilitesGrilleAresoudre</text>
<text text-anchor="middle" x="336.38" y="-118.5" font-family="Helvetica,sans-Serif" font-size="10.00">Difficile</text>
</a>
</g>
</g>
<!-- Node1&#45;&gt;Node2 -->
<g id="edge1_Node000001_Node000002" class="edge">
<title>Node1&#45;&gt;Node2</title>
<g id="a_edge1_Node000001_Node000002"><a xlink:title=" ">
<path fill="none" stroke="#63b8ff" d="M165.2,-94.5C184.85,-99.06 206.62,-104.11 227.84,-109.04"/>
<polygon fill="#63b8ff" stroke="#63b8ff" points="226.87,-112.41 237.4,-111.26 228.45,-105.59 226.87,-112.41"/>
</a>
</g>
</g>
<!-- Node11 -->
<g id="Node000011" class="node">
<title>Node11</title>
<g id="a_Node000011"><a xlink:href="classfr_1_1softsf_1_1sudokufx_1_1common_1_1util_1_1sudoku_1_1_grid_master.html#a14a9157214a31a7be5f08c78c129a96d" target="_top" xlink:title="Génère une grille de Sudoku de niveau facile (sinon une grille par défaut est retournée après une sec...">
<polygon fill="white" stroke="#666666" points="450.5,-94 222.25,-94 222.25,-62 450.5,-62 450.5,-94"/>
<text text-anchor="start" x="230.25" y="-80.5" font-family="Helvetica,sans-Serif" font-size="10.00">fr.softsf.sudokufx.common.util.sudoku.</text>
<text text-anchor="middle" x="336.38" y="-68.5" font-family="Helvetica,sans-Serif" font-size="10.00">GridMaster.getPossibilitesGrilleAResoudreFacile</text>
</a>
</g>
</g>
<!-- Node1&#45;&gt;Node11 -->
<g id="edge10_Node000001_Node000011" class="edge">
<title>Node1&#45;&gt;Node11</title>
<g id="a_edge10_Node000001_Node000011"><a xlink:title=" ">
<path fill="none" stroke="#63b8ff" d="M186.71,-78C194.57,-78 202.59,-78 210.64,-78"/>
<polygon fill="#63b8ff" stroke="#63b8ff" points="210.51,-81.5 220.51,-78 210.51,-74.5 210.51,-81.5"/>
</a>
</g>
</g>
<!-- Node12 -->
<g id="Node000012" class="node">
<title>Node12</title>
<g id="a_Node000012"><a xlink:href="classfr_1_1softsf_1_1sudokufx_1_1common_1_1util_1_1sudoku_1_1_grid_master.html#ab77d72c8f1612e20c9d7b27f6869b08b" target="_top" xlink:title="Génère une grille de Sudoku de niveau moyen (sinon une grille par défaut est retournée après une seco...">
<polygon fill="white" stroke="#666666" points="437.38,-44 235.38,-44 235.38,0 437.38,0 437.38,-44"/>
<text text-anchor="start" x="243.38" y="-30.5" font-family="Helvetica,sans-Serif" font-size="10.00">fr.softsf.sudokufx.common.util.sudoku.</text>
<text text-anchor="start" x="243.38" y="-18.5" font-family="Helvetica,sans-Serif" font-size="10.00">GridMaster.getPossibilitesGrilleAResoudre</text>
<text text-anchor="middle" x="336.38" y="-6.5" font-family="Helvetica,sans-Serif" font-size="10.00">Moyenne</text>
</a>
</g>
</g>
<!-- Node1&#45;&gt;Node12 -->
<g id="edge14_Node000001_Node000012" class="edge">
<title>Node1&#45;&gt;Node12</title>
<g id="a_edge14_Node000001_Node000012"><a xlink:title=" ">
<path fill="none" stroke="#63b8ff" d="M165.2,-61.5C184.85,-56.94 206.62,-51.89 227.84,-46.96"/>
<polygon fill="#63b8ff" stroke="#63b8ff" points="228.45,-50.41 237.4,-44.74 226.87,-43.59 228.45,-50.41"/>
</a>
</g>
</g>
<!-- Node3 -->
<g id="Node000003" class="node">
<title>Node3</title>
<g id="a_Node000003"><a xlink:href="classfr_1_1softsf_1_1sudokufx_1_1common_1_1util_1_1sudoku_1_1_grid_master.html#aee57e1ea56d413431a806492e5bfa40f" target="_top" xlink:title="Calcule la durée de temps écoulé entre la dernière et la nouvelle demande de grille en millisecondes.">
<polygon fill="white" stroke="#666666" points="677.62,-144 491.38,-144 491.38,-112 677.62,-112 677.62,-144"/>
<text text-anchor="start" x="499.38" y="-130.5" font-family="Helvetica,sans-Serif" font-size="10.00">fr.softsf.sudokufx.common.util.sudoku.</text>
<text text-anchor="middle" x="584.5" y="-118.5" font-family="Helvetica,sans-Serif" font-size="10.00">GridMaster.dureeEnMs</text>
</a>
</g>
</g>
<!-- Node2&#45;&gt;Node3 -->
<g id="edge2_Node000002_Node000003" class="edge">
<title>Node2&#45;&gt;Node3</title>
<g id="a_edge2_Node000002_Node000003"><a xlink:title=" ">
<path fill="none" stroke="#63b8ff" d="M435.36,-131.61C449.99,-131.25 465.12,-130.89 479.87,-130.53"/>
<polygon fill="#63b8ff" stroke="#63b8ff" points="479.63,-134.03 489.54,-130.29 479.46,-127.04 479.63,-134.03"/>
</a>
</g>
</g>
<!-- Node4 -->
<g id="Node000004" class="node">
<title>Node4</title>
<g id="a_Node000004"><a xlink:href="classfr_1_1softsf_1_1sudokufx_1_1common_1_1util_1_1sudoku_1_1_grid_master.html#a7b8b865b518ad50e3d77814a16bf9634" target="_top" xlink:title="Masque des cases dans la grille et calcule la somme des possibilités restantes.">
<polygon fill="white" stroke="#666666" points="682.5,-94 486.5,-94 486.5,-62 682.5,-62 682.5,-94"/>
<text text-anchor="start" x="494.5" y="-80.5" font-family="Helvetica,sans-Serif" font-size="10.00">fr.softsf.sudokufx.common.util.sudoku.</text>
<text text-anchor="middle" x="584.5" y="-68.5" font-family="Helvetica,sans-Serif" font-size="10.00">GridMaster.getPossibilitesGrilleWhileNok</text>
</a>
</g>
</g>
<!-- Node2&#45;&gt;Node4 -->
<g id="edge3_Node000002_Node000004" class="edge">
<title>Node2&#45;&gt;Node4</title>
<g id="a_edge3_Node000002_Node000004"><a xlink:title=" ">
<path fill="none" stroke="#63b8ff" d="M435.36,-111.71C456.83,-106.82 479.37,-101.69 500.21,-96.95"/>
<polygon fill="#63b8ff" stroke="#63b8ff" points="500.81,-100.4 509.79,-94.77 499.26,-93.58 500.81,-100.4"/>
</a>
</g>
</g>
<!-- Node10 -->
<g id="Node000010" class="node">
<title>Node10</title>
<g id="a_Node000010"><a xlink:href="classfr_1_1softsf_1_1sudokufx_1_1common_1_1util_1_1sudoku_1_1_grid_master.html#af1352e09e11008195aebe23925b02248" target="_top" xlink:title="Génère un nombre entier aléatoire dans un intervalle spécifié.">
<polygon fill="white" stroke="#666666" points="677.62,-44 491.38,-44 491.38,-12 677.62,-12 677.62,-44"/>
<text text-anchor="start" x="499.38" y="-30.5" font-family="Helvetica,sans-Serif" font-size="10.00">fr.softsf.sudokufx.common.util.sudoku.</text>
<text text-anchor="middle" x="584.5" y="-18.5" font-family="Helvetica,sans-Serif" font-size="10.00">GridMaster.nombreAleatoire</text>
</a>
</g>
</g>
<!-- Node2&#45;&gt;Node10 -->
<g id="edge9_Node000002_Node000010" class="edge">
<title>Node2&#45;&gt;Node10</title>
<g id="a_edge9_Node000002_Node000010"><a xlink:title=" ">
<path fill="none" stroke="#63b8ff" d="M435.59,-111.77C440.81,-109.17 445.82,-106.25 450.5,-103 472.99,-87.38 463.89,-68.45 486.5,-53 488.13,-51.89 489.8,-50.82 491.52,-49.81"/>
<polygon fill="#63b8ff" stroke="#63b8ff" points="493.12,-52.92 500.36,-45.19 489.88,-46.71 493.12,-52.92"/>
</a>
</g>
</g>
<!-- Node5 -->
<g id="Node000005" class="node">
<title>Node5</title>
<g id="a_Node000005"><a xlink:href="classfr_1_1softsf_1_1sudokufx_1_1common_1_1util_1_1sudoku_1_1_grid_master.html#aedafc76e589c715c380e2732e0ff04d2" target="_top" xlink:title="Cache un nombre spécifié de cases dans la grille en les remplaçant par zéro.">
<polygon fill="white" stroke="#666666" points="918.25,-144 732,-144 732,-112 918.25,-112 918.25,-144"/>
<text text-anchor="start" x="740" y="-130.5" font-family="Helvetica,sans-Serif" font-size="10.00">fr.softsf.sudokufx.common.util.sudoku.</text>
<text text-anchor="middle" x="825.12" y="-118.5" font-family="Helvetica,sans-Serif" font-size="10.00">GridMaster.cacherLesCases</text>
</a>
</g>
</g>
<!-- Node4&#45;&gt;Node5 -->
<g id="edge4_Node000004_Node000005" class="edge">
<title>Node4&#45;&gt;Node5</title>
<g id="a_edge4_Node000004_Node000005"><a xlink:title=" ">
<path fill="none" stroke="#63b8ff" d="M663.97,-94.44C686.5,-99.16 711.24,-104.35 734.39,-109.2"/>
<polygon fill="#63b8ff" stroke="#63b8ff" points="733.63,-112.61 744.13,-111.24 735.06,-105.76 733.63,-112.61"/>
</a>
</g>
</g>
<!-- Node6 -->
<g id="Node000006" class="node">
<title>Node6</title>
<g id="a_Node000006"><a xlink:href="classfr_1_1softsf_1_1sudokufx_1_1common_1_1util_1_1sudoku_1_1_grid_master.html#aeed90a968624e9b7ccb44958df9ae821" target="_top" xlink:title="Calcule les possibilités pour chaque case de la grille de Sudoku.">
<polygon fill="white" stroke="#666666" points="918.25,-94 732,-94 732,-62 918.25,-62 918.25,-94"/>
<text text-anchor="start" x="740" y="-80.5" font-family="Helvetica,sans-Serif" font-size="10.00">fr.softsf.sudokufx.common.util.sudoku.</text>
<text text-anchor="middle" x="825.12" y="-68.5" font-family="Helvetica,sans-Serif" font-size="10.00">GridMaster.getPossibilites</text>
</a>
</g>
</g>
<!-- Node4&#45;&gt;Node6 -->
<g id="edge5_Node000004_Node000006" class="edge">
<title>Node4&#45;&gt;Node6</title>
<g id="a_edge5_Node000004_Node000006"><a xlink:title=" ">
<path fill="none" stroke="#63b8ff" d="M682.9,-78C695.24,-78 707.89,-78 720.32,-78"/>
<polygon fill="#63b8ff" stroke="#63b8ff" points="720.14,-81.5 730.14,-78 720.14,-74.5 720.14,-81.5"/>
</a>
</g>
</g>
<!-- Node9 -->
<g id="Node000009" class="node">
<title>Node9</title>
<g id="a_Node000009"><a xlink:href="classfr_1_1softsf_1_1sudokufx_1_1common_1_1util_1_1sudoku_1_1_grid_master.html#aa9fd5688b3effcfb97c226e04a5ff380" target="_top" xlink:title="Calcule la somme des possibilités de toutes les cases de la grille de Sudoku.">
<polygon fill="white" stroke="#666666" points="931.75,-44 718.5,-44 718.5,-12 931.75,-12 931.75,-44"/>
<text text-anchor="start" x="726.5" y="-30.5" font-family="Helvetica,sans-Serif" font-size="10.00">fr.softsf.sudokufx.common.util.sudoku.</text>
<text text-anchor="middle" x="825.12" y="-18.5" font-family="Helvetica,sans-Serif" font-size="10.00">GridMaster.sommeDesPossibilitesDeLaGrille</text>
</a>
</g>
</g>
<!-- Node4&#45;&gt;Node9 -->
<g id="edge8_Node000004_Node000009" class="edge">
<title>Node4&#45;&gt;Node9</title>
<g id="a_edge8_Node000004_Node000009"><a xlink:title=" ">
<path fill="none" stroke="#63b8ff" d="M663.97,-61.56C686.5,-56.84 711.24,-51.65 734.39,-46.8"/>
<polygon fill="#63b8ff" stroke="#63b8ff" points="735.06,-50.24 744.13,-44.76 733.63,-43.39 735.06,-50.24"/>
</a>
</g>
</g>
<!-- Node7 -->
<g id="Node000007" class="node">
<title>Node7</title>
<g id="a_Node000007"><a xlink:href="classfr_1_1softsf_1_1sudokufx_1_1common_1_1util_1_1sudoku_1_1_grid_master.html#a27aa242e0289c28db22cd6caa98aec06" target="_top" xlink:title="Initialise le tableau des possibilités pour chaque case.">
<polygon fill="white" stroke="#666666" points="1154,-94 967.75,-94 967.75,-62 1154,-62 1154,-94"/>
<text text-anchor="start" x="975.75" y="-80.5" font-family="Helvetica,sans-Serif" font-size="10.00">fr.softsf.sudokufx.common.util.sudoku.</text>
<text text-anchor="middle" x="1060.88" y="-68.5" font-family="Helvetica,sans-Serif" font-size="10.00">GridMaster.initialiserPossibilites</text>
</a>
</g>
</g>
<!-- Node6&#45;&gt;Node7 -->
<g id="edge6_Node000006_Node000007" class="edge">
<title>Node6&#45;&gt;Node7</title>
<g id="a_edge6_Node000006_Node000007"><a xlink:title=" ">
<path fill="none" stroke="#63b8ff" d="M918.51,-78C930.82,-78 943.51,-78 956,-78"/>
<polygon fill="#63b8ff" stroke="#63b8ff" points="955.88,-81.5 965.88,-78 955.88,-74.5 955.88,-81.5"/>
</a>
</g>
</g>
<!-- Node8 -->
<g id="Node000008" class="node">
<title>Node8</title>
<g id="a_Node000008"><a xlink:href="classfr_1_1softsf_1_1sudokufx_1_1common_1_1util_1_1sudoku_1_1_grid_master.html#aeb3e9bacbc9f3e23515e88a3c887f78e" target="_top" xlink:title="Élimine la valeur des possibilités des cases alentours.">
<polygon fill="white" stroke="#666666" points="1376.25,-94 1190,-94 1190,-62 1376.25,-62 1376.25,-94"/>
<text text-anchor="start" x="1198" y="-80.5" font-family="Helvetica,sans-Serif" font-size="10.00">fr.softsf.sudokufx.common.util.sudoku.</text>
<text text-anchor="middle" x="1283.12" y="-68.5" font-family="Helvetica,sans-Serif" font-size="10.00">GridMaster.eliminerPossibilite</text>
</a>
</g>
</g>
<!-- Node7&#45;&gt;Node8 -->
<g id="edge7_Node000007_Node000008" class="edge">
<title>Node7&#45;&gt;Node8</title>
<g id="a_edge7_Node000007_Node000008"><a xlink:title=" ">
<path fill="none" stroke="#63b8ff" d="M1154.32,-78C1162.24,-78 1170.29,-78 1178.29,-78"/>
<polygon fill="#63b8ff" stroke="#63b8ff" points="1178.05,-81.5 1188.05,-78 1178.05,-74.5 1178.05,-81.5"/>
</a>
</g>
</g>
<!-- Node11&#45;&gt;Node3 -->
<g id="edge11_Node000011_Node000003" class="edge">
<title>Node11&#45;&gt;Node3</title>
<g id="a_edge11_Node000011_Node000003"><a xlink:title=" ">
<path fill="none" stroke="#63b8ff" d="M418.31,-94.44C441.65,-99.18 467.29,-104.39 491.27,-109.26"/>
<polygon fill="#63b8ff" stroke="#63b8ff" points="490.54,-112.69 501.04,-111.25 491.93,-105.83 490.54,-112.69"/>
</a>
</g>
</g>
<!-- Node11&#45;&gt;Node4 -->
<g id="edge12_Node000011_Node000004" class="edge">
<title>Node11&#45;&gt;Node4</title>
<g id="a_edge12_Node000011_Node000004"><a xlink:title=" ">
<path fill="none" stroke="#63b8ff" d="M450.71,-78C458.77,-78 466.89,-78 474.92,-78"/>
<polygon fill="#63b8ff" stroke="#63b8ff" points="474.7,-81.5 484.7,-78 474.7,-74.5 474.7,-81.5"/>
</a>
</g>
</g>
<!-- Node11&#45;&gt;Node10 -->
<g id="edge13_Node000011_Node000010" class="edge">
<title>Node11&#45;&gt;Node10</title>
<g id="a_edge13_Node000011_Node000010"><a xlink:title=" ">
<path fill="none" stroke="#63b8ff" d="M418.31,-61.56C441.65,-56.82 467.29,-51.61 491.27,-46.74"/>
<polygon fill="#63b8ff" stroke="#63b8ff" points="491.93,-50.17 501.04,-44.75 490.54,-43.31 491.93,-50.17"/>
</a>
</g>
</g>
<!-- Node12&#45;&gt;Node3 -->
<g id="edge15_Node000012_Node000003" class="edge">
<title>Node12&#45;&gt;Node3</title>
<g id="a_edge15_Node000012_Node000003"><a xlink:title=" ">
<path fill="none" stroke="#63b8ff" d="M435.87,-44.37C440.98,-46.94 445.9,-49.81 450.5,-53 472.99,-68.62 463.89,-87.55 486.5,-103 488.13,-104.11 489.8,-105.18 491.52,-106.19"/>
<polygon fill="#63b8ff" stroke="#63b8ff" points="489.88,-109.29 500.36,-110.81 493.12,-103.08 489.88,-109.29"/>
</a>
</g>
</g>
<!-- Node12&#45;&gt;Node4 -->
<g id="edge16_Node000012_Node000004" class="edge">
<title>Node12&#45;&gt;Node4</title>
<g id="a_edge16_Node000012_Node000004"><a xlink:title=" ">
<path fill="none" stroke="#63b8ff" d="M436.07,-44.45C457.38,-49.3 479.71,-54.38 500.35,-59.08"/>
<polygon fill="#63b8ff" stroke="#63b8ff" points="499.3,-62.43 509.83,-61.24 500.86,-55.61 499.3,-62.43"/>
</a>
</g>
</g>
<!-- Node12&#45;&gt;Node10 -->
<g id="edge17_Node000012_Node000010" class="edge">
<title>Node12&#45;&gt;Node10</title>
<g id="a_edge17_Node000012_Node000010"><a xlink:title=" ">
<path fill="none" stroke="#63b8ff" d="M437.84,-24.45C451.55,-24.78 465.64,-25.13 479.41,-25.46"/>
<polygon fill="#63b8ff" stroke="#63b8ff" points="479.29,-28.96 489.37,-25.71 479.46,-21.96 479.29,-28.96"/>
</a>
</g>
</g>
</g>
</svg>

<g id="navigator" transform="translate(0 0)" fill="#404254">
  <rect fill="#f2f5e9" fill-opacity="0.5" stroke="#606060" stroke-width=".5" x="0" y="0" width="60" height="60"/>
  <use id="zoomplus" xlink:href="#zoomPlus" x="17" y="9" onmousedown="handleZoom(evt,'in')"/>
  <use id="zoomminus" xlink:href="#zoomMin" x="42" y="9" onmousedown="handleZoom(evt,'out')"/>
  <use id="reset" xlink:href="#resetDef" x="30" y="36" onmousedown="handleReset()"/>
   <use id="arrowup" xlink:href="#arrowUp" x="0" y="0" onmousedown="handlePan(0,-1)"/>
  <use id="arrowright" xlink:href="#arrowRight" x="0" y="0" onmousedown="handlePan(1,0)"/>
  <use id="arrowdown" xlink:href="#arrowDown" x="0" y="0" onmousedown="handlePan(0,1)"/>
  <use id="arrowleft" xlink:href="#arrowLeft" x="0" y="0" onmousedown="handlePan(-1,0)"/>
</g>
<svg viewBox="0 0 15 15" width="100%" height="30px" preserveAspectRatio="xMaxYMin meet">
 <g id="arrow_out" transform="scale(0.3 0.3)">
  <a xlink:href="classfr_1_1softsf_1_1sudokufx_1_1common_1_1util_1_1sudoku_1_1_grid_master_a4ee8cc0d8a933568aeb12ca14f8ab649_cgraph_org.svg" target="_base">
   <rect id="button" ry="5" rx="5" y="6" x="6" height="38" width="38"
        fill="#f2f5e9" fill-opacity="0.5" stroke="#606060" stroke-width="1.0"/>
   <path id="arrow"
     d="M 11.500037,31.436501 C 11.940474,20.09759 22.043105,11.32322 32.158766,21.979434 L 37.068811,17.246167 C 37.068811,17.246167 37.088388,32 37.088388,32 L 22.160133,31.978069 C 22.160133,31.978069 26.997745,27.140456 26.997745,27.140456 C 18.528582,18.264221 13.291696,25.230495 11.500037,31.436501 z"
     style="fill:#404040;"/>
  </a>
 </g>
</svg>

<style type='text/css'>
<![CDATA[
[data-mouse-over-selected='false'] { opacity: 0.7; }
[data-mouse-over-selected='true']  { opacity: 1.0; }
]]>
</style>
<script type="application/ecmascript"><![CDATA[
document.addEventListener('DOMContentLoaded', (event) => {
  highlightEdges();
  highlightAdjacentNodes();
});
]]></script>
</svg>
