<?xml version="1.0" encoding="UTF-8" standalone="no"?>
<!DOCTYPE svg PUBLIC "-//W3C//DTD SVG 1.1//EN"
 "http://www.w3.org/Graphics/SVG/1.1/DTD/svg11.dtd">
<!-- Generated by graphviz version 12.2.1 (20241206.2353)
 -->
<!-- Title: fr.softsf.sudokufx.benchmark.BenchGridMaster Pages: 1 -->
<svg width="161pt" height="180pt"
 viewBox="0.00 0.00 161.00 180.00" xmlns="http://www.w3.org/2000/svg" xmlns:xlink="http://www.w3.org/1999/xlink">
<g id="graph0" class="graph" transform="scale(1 1) rotate(0) translate(4 176)">
<title>fr.softsf.sudokufx.benchmark.BenchGridMaster</title>
<!-- Node1 -->
<g id="Node000001" class="node">
<title>Node1</title>
<g id="a_Node000001"><a xlink:title="Classe de benchmark pour mesurer les performances des méthodes principales de la classe GridMaster (g...">
<polygon fill="#999999" stroke="none" points="153,-172 0,-172 0,0 153,0 153,-172"/>
<text text-anchor="start" x="11.25" y="-158.5" font-family="Helvetica,sans-Serif" font-size="10.00">fr.softsf.sudokufx.benchmark.</text>
<text text-anchor="start" x="38.62" y="-146.5" font-family="Helvetica,sans-Serif" font-size="10.00">BenchGridMaster</text>
<text text-anchor="start" x="5.5" y="-130.5" font-family="Helvetica,sans-Serif" font-size="10.00">&#45;</text>
<text text-anchor="start" x="14" y="-130.5" font-family="Helvetica,sans-Serif" font-size="10.00">static final int[]</text>
<text text-anchor="start" x="14" y="-118.5" font-family="Helvetica,sans-Serif" font-size="10.00"> GRILLE_A_BENCHMARKER</text>
<text text-anchor="start" x="5.5" y="-102.5" font-family="Helvetica,sans-Serif" font-size="10.00">&#45;</text>
<text text-anchor="start" x="14" y="-102.5" font-family="Helvetica,sans-Serif" font-size="10.00">static final int NIVEAU</text>
<text text-anchor="start" x="14" y="-90.5" font-family="Helvetica,sans-Serif" font-size="10.00">_DIFFICULTE_MOYEN</text>
<text text-anchor="start" x="5.5" y="-74.5" font-family="Helvetica,sans-Serif" font-size="10.00">&#45;</text>
<text text-anchor="start" x="14" y="-74.5" font-family="Helvetica,sans-Serif" font-size="10.00">static final int NOMBRE</text>
<text text-anchor="start" x="14" y="-62.5" font-family="Helvetica,sans-Serif" font-size="10.00">_CASES</text>
<text text-anchor="start" x="4" y="-46.5" font-family="Helvetica,sans-Serif" font-size="10.00">+</text>
<text text-anchor="start" x="14" y="-46.5" font-family="Helvetica,sans-Serif" font-size="10.00">void measureCreerLesGrilles</text>
<text text-anchor="start" x="14" y="-34.5" font-family="Helvetica,sans-Serif" font-size="10.00">(GridState state, Blackhole bh)</text>
<text text-anchor="start" x="4" y="-18.5" font-family="Helvetica,sans-Serif" font-size="10.00">+</text>
<text text-anchor="start" x="14" y="-18.5" font-family="Helvetica,sans-Serif" font-size="10.00">void measureResoudreLaGrille</text>
<text text-anchor="start" x="14" y="-6.5" font-family="Helvetica,sans-Serif" font-size="10.00">(GridState state, Blackhole bh)</text>
<polygon fill="#666666" stroke="#666666" points="0,-142 0,-142 153,-142 153,-142 0,-142"/>
<polygon fill="#666666" stroke="#666666" points="0,-58 0,-58 12,-58 12,-58 0,-58"/>
<polygon fill="#666666" stroke="#666666" points="12,-58 12,-58 153,-58 153,-58 12,-58"/>
<polygon fill="none" stroke="#666666" points="0,0 0,-172 153,-172 153,0 0,0"/>
</a>
</g>
</g>
</g>
</svg>
