<?xml version="1.0" encoding="UTF-8" standalone="no"?>
<!DOCTYPE svg PUBLIC "-//W3C//DTD SVG 1.1//EN"
 "http://www.w3.org/Graphics/SVG/1.1/DTD/svg11.dtd">
<!-- Generated by graphviz version 12.2.1 (20241206.2353)
 -->
<!-- Title: fr.softsf.sudokufx.viewmodel.grid.GridViewModel.clearGrid Pages: 1 -->
<svg width="581pt" height="155pt"
 viewBox="0.00 0.00 581.00 154.67" xmlns="http://www.w3.org/2000/svg" xmlns:xlink="http://www.w3.org/1999/xlink">
<g id="graph0" class="graph" transform="scale(1 1) rotate(0) translate(4 150.67)">
<title>fr.softsf.sudokufx.viewmodel.grid.GridViewModel.clearGrid</title>
<!-- Node1 -->
<g id="Node000001" class="node">
<title>Node1</title>
<g id="a_Node000001"><a xlink:title="Clears the text in all cells.">
<polygon fill="#999999" stroke="#666666" points="163.75,-132 0,-132 0,-100 163.75,-100 163.75,-132"/>
<text text-anchor="start" x="8" y="-118.5" font-family="Helvetica,sans-Serif" font-size="10.00">fr.softsf.sudokufx.viewmodel.grid.</text>
<text text-anchor="middle" x="81.88" y="-106.5" font-family="Helvetica,sans-Serif" font-size="10.00">GridViewModel.clearGrid</text>
</a>
</g>
</g>
<!-- Node2 -->
<g id="Node000002" class="node">
<title>Node2</title>
<g id="a_Node000002"><a xlink:href="classfr_1_1softsf_1_1sudokufx_1_1viewmodel_1_1grid_1_1_grid_view_model.html#ace36956cb99bad46d1144460d8cde157" target="_top" xlink:title="Checks whether the GridViewModel has been initialized via init().">
<polygon fill="white" stroke="#666666" points="568.12,-132 404.38,-132 404.38,-100 568.12,-100 568.12,-132"/>
<text text-anchor="start" x="412.38" y="-118.5" font-family="Helvetica,sans-Serif" font-size="10.00">fr.softsf.sudokufx.viewmodel.grid.</text>
<text text-anchor="middle" x="486.25" y="-106.5" font-family="Helvetica,sans-Serif" font-size="10.00">GridViewModel.checkInitialized</text>
</a>
</g>
</g>
<!-- Node1&#45;&gt;Node2 -->
<g id="edge1_Node000001_Node000002" class="edge">
<title>Node1&#45;&gt;Node2</title>
<g id="a_edge1_Node000001_Node000002"><a xlink:title=" ">
<path fill="none" stroke="#63b8ff" d="M148.01,-132.47C164.76,-136 182.83,-139.21 199.75,-141 272.12,-148.65 291.1,-148.36 363.5,-141 377.39,-139.59 392.04,-137.29 406.17,-134.65"/>
<polygon fill="#63b8ff" stroke="#63b8ff" points="406.74,-138.11 415.88,-132.76 405.4,-131.24 406.74,-138.11"/>
</a>
</g>
</g>
<!-- Node3 -->
<g id="Node000003" class="node">
<title>Node3</title>
<g id="a_Node000003"><a xlink:href="classfr_1_1softsf_1_1sudokufx_1_1viewmodel_1_1grid_1_1_grid_view_model.html#a14e2c0c3e0e51a0fee38c181b39fa6e2" target="_top" xlink:title="Gets a list of all cell text values in row&#45;major order.">
<polygon fill="white" stroke="#666666" points="363.5,-132 199.75,-132 199.75,-100 363.5,-100 363.5,-132"/>
<text text-anchor="start" x="207.75" y="-118.5" font-family="Helvetica,sans-Serif" font-size="10.00">fr.softsf.sudokufx.viewmodel.grid.</text>
<text text-anchor="middle" x="281.62" y="-106.5" font-family="Helvetica,sans-Serif" font-size="10.00">GridViewModel.getAllValues</text>
</a>
</g>
</g>
<!-- Node1&#45;&gt;Node3 -->
<g id="edge2_Node000001_Node000003" class="edge">
<title>Node1&#45;&gt;Node3</title>
<g id="a_edge2_Node000001_Node000003"><a xlink:title=" ">
<path fill="none" stroke="#63b8ff" d="M164.16,-116C172.06,-116 180.1,-116 188.09,-116"/>
<polygon fill="#63b8ff" stroke="#63b8ff" points="187.82,-119.5 197.82,-116 187.82,-112.5 187.82,-119.5"/>
</a>
</g>
</g>
<!-- Node4 -->
<g id="Node000004" class="node">
<title>Node4</title>
<g id="a_Node000004"><a xlink:href="classfr_1_1softsf_1_1sudokufx_1_1viewmodel_1_1grid_1_1_grid_view_model.html#ab7607876adb740f7f1d55b5016faba0c" target="_top" xlink:title="Sets all 81 cell values and optionally their editability.">
<polygon fill="white" stroke="#666666" points="363.5,-82 199.75,-82 199.75,-50 363.5,-50 363.5,-82"/>
<text text-anchor="start" x="207.75" y="-68.5" font-family="Helvetica,sans-Serif" font-size="10.00">fr.softsf.sudokufx.viewmodel.grid.</text>
<text text-anchor="middle" x="281.62" y="-56.5" font-family="Helvetica,sans-Serif" font-size="10.00">GridViewModel.setValues</text>
</a>
</g>
</g>
<!-- Node1&#45;&gt;Node4 -->
<g id="edge4_Node000001_Node000004" class="edge">
<title>Node1&#45;&gt;Node4</title>
<g id="a_edge4_Node000001_Node000004"><a xlink:title=" ">
<path fill="none" stroke="#63b8ff" d="M147.9,-99.56C165.98,-94.99 185.77,-89.98 204.43,-85.27"/>
<polygon fill="#63b8ff" stroke="#63b8ff" points="205.26,-88.67 214.09,-82.82 203.54,-81.88 205.26,-88.67"/>
</a>
</g>
</g>
<!-- Node3&#45;&gt;Node2 -->
<g id="edge3_Node000003_Node000002" class="edge">
<title>Node3&#45;&gt;Node2</title>
<g id="a_edge3_Node000003_Node000002"><a xlink:title=" ">
<path fill="none" stroke="#63b8ff" d="M363.87,-116C373.37,-116 383.11,-116 392.74,-116"/>
<polygon fill="#63b8ff" stroke="#63b8ff" points="392.47,-119.5 402.47,-116 392.47,-112.5 392.47,-119.5"/>
</a>
</g>
</g>
<!-- Node4&#45;&gt;Node2 -->
<g id="edge5_Node000004_Node000002" class="edge">
<title>Node4&#45;&gt;Node2</title>
<g id="a_edge5_Node000004_Node000002"><a xlink:title=" ">
<path fill="none" stroke="#63b8ff" d="M349.25,-82.44C367.86,-87.03 388.25,-92.06 407.44,-96.8"/>
<polygon fill="#63b8ff" stroke="#63b8ff" points="406.57,-100.19 417.11,-99.19 408.24,-93.39 406.57,-100.19"/>
</a>
</g>
</g>
<!-- Node5 -->
<g id="Node000005" class="node">
<title>Node5</title>
<g id="a_Node000005"><a xlink:href="classfr_1_1softsf_1_1sudokufx_1_1viewmodel_1_1grid_1_1_grid_cell_view_model.html#a1b2f5aa3c798e4aaf3e845aa59cde94c" target="_top" xlink:title=" ">
<polygon fill="white" stroke="#666666" points="572.62,-82 399.88,-82 399.88,-50 572.62,-50 572.62,-82"/>
<text text-anchor="start" x="407.88" y="-68.5" font-family="Helvetica,sans-Serif" font-size="10.00">fr.softsf.sudokufx.viewmodel.grid.</text>
<text text-anchor="middle" x="486.25" y="-56.5" font-family="Helvetica,sans-Serif" font-size="10.00">GridCellViewModel.editableProperty</text>
</a>
</g>
</g>
<!-- Node4&#45;&gt;Node5 -->
<g id="edge6_Node000004_Node000005" class="edge">
<title>Node4&#45;&gt;Node5</title>
<g id="a_edge6_Node000004_Node000005"><a xlink:title=" ">
<path fill="none" stroke="#63b8ff" d="M363.87,-66C371.88,-66 380.06,-66 388.21,-66"/>
<polygon fill="#63b8ff" stroke="#63b8ff" points="388.16,-69.5 398.16,-66 388.16,-62.5 388.16,-69.5"/>
</a>
</g>
</g>
<!-- Node6 -->
<g id="Node000006" class="node">
<title>Node6</title>
<g id="a_Node000006"><a xlink:href="classfr_1_1softsf_1_1sudokufx_1_1viewmodel_1_1grid_1_1_grid_cell_view_model.html#ae04f21e5c6df7750f4e8c79d600a9b6b" target="_top" xlink:title=" ">
<polygon fill="white" stroke="#666666" points="573,-32 399.5,-32 399.5,0 573,0 573,-32"/>
<text text-anchor="start" x="407.5" y="-18.5" font-family="Helvetica,sans-Serif" font-size="10.00">fr.softsf.sudokufx.viewmodel.grid.</text>
<text text-anchor="middle" x="486.25" y="-6.5" font-family="Helvetica,sans-Serif" font-size="10.00">GridCellViewModel.rawTextProperty</text>
</a>
</g>
</g>
<!-- Node4&#45;&gt;Node6 -->
<g id="edge7_Node000004_Node000006" class="edge">
<title>Node4&#45;&gt;Node6</title>
<g id="a_edge7_Node000004_Node000006"><a xlink:title=" ">
<path fill="none" stroke="#63b8ff" d="M349.25,-49.56C367.86,-44.97 388.25,-39.94 407.44,-35.2"/>
<polygon fill="#63b8ff" stroke="#63b8ff" points="408.24,-38.61 417.11,-32.81 406.57,-31.81 408.24,-38.61"/>
</a>
</g>
</g>
</g>
</svg>
