<?xml version="1.0" encoding="UTF-8" standalone="no"?>
<!DOCTYPE svg PUBLIC "-//W3C//DTD SVG 1.1//EN"
 "http://www.w3.org/Graphics/SVG/1.1/DTD/svg11.dtd">
<!-- Generated by graphviz version 12.2.1 (20241206.2353)
 -->
<!-- Title: fr.softsf.sudokufx.service.business.PlayerService.updatePlayer Pages: 1 -->
<!--zoomable 640 -->

<svg id="main" version="1.1" xmlns="http://www.w3.org/2000/svg" xmlns:xlink="http://www.w3.org/1999/xlink" xml:space="preserve" onload="init(evt)">

<style type="text/css"><![CDATA[
.node, .edge {opacity: 0.7;}
.node.selected, .edge.selected {opacity: 1;}
.edge:hover path { stroke: red; }
.edge:hover polygon { stroke: red; fill: red; }
]]></style>

<defs>
  <circle id="rim" cx="0" cy="0" r="7"/>
  <circle id="rim2" cx="0" cy="0" r="3.5"/>
  <g id="zoomPlus">
    <use xlink:href="#rim" fill="#404040"><set attributeName="fill" to="#808080" begin="zoomplus.mouseover" end="zoomplus.mouseout"/></use>
    <path d="M-4,0h8M0,-4v8" fill="none" stroke="white" stroke-width="1.5" pointer-events="none"/>
  </g>
  <g id="zoomMin">
    <use xlink:href="#rim" fill="#404040"><set attributeName="fill" to="#808080" begin="zoomminus.mouseover" end="zoomminus.mouseout"/></use>
    <path d="M-4,0h8" fill="none" stroke="white" stroke-width="1.5" pointer-events="none"/>
  </g>
  <g id="arrowUp" transform="translate(30 24)">
    <use xlink:href="#rim"/>
    <path pointer-events="none" fill="none" stroke="white" stroke-width="1.5" d="M0,-3.0v7 M-2.5,-0.5L0,-3.0L2.5,-0.5"/>
  </g>
  <g id="arrowRight" transform="rotate(90) translate(36 -43)">
    <use xlink:href="#rim"/>
    <path pointer-events="none" fill="none" stroke="white" stroke-width="1.5" d="M0,-3.0v7 M-2.5,-0.5L0,-3.0L2.5,-0.5"/>
  </g>
  <g id="arrowDown" transform="rotate(180) translate(-30 -48)">
    <use xlink:href="#rim"/>
    <path pointer-events="none" fill="none" stroke="white" stroke-width="1.5" d="M0,-3.0v7 M-2.5,-0.5L0,-3.0L2.5,-0.5"/>
  </g>
  <g id="arrowLeft" transform="rotate(270) translate(-36 17)">
    <use xlink:href="#rim"/>
    <path pointer-events="none" fill="none" stroke="white" stroke-width="1.5" d="M0,-3.0v7 M-2.5,-0.5L0,-3.0L2.5,-0.5"/>
  </g>
  <g id="resetDef">
    <use xlink:href="#rim2" fill="#404040"><set attributeName="fill" to="#808080" begin="reset.mouseover" end="reset.mouseout"/></use>
  </g>
</defs>
<script type="application/ecmascript">
var viewWidth = 537;
var viewHeight = 640;
var sectionId = 'dynsection-2';
</script>
<script type="application/ecmascript" xlink:href="svg.min.js"/>
<svg id="graph" class="graph">
<g id="viewport">
<title>fr.softsf.sudokufx.service.business.PlayerService.updatePlayer</title>
<!-- Node1 -->
<g id="Node000001" class="node">
<title>Node1</title>
<g id="a_Node000001"><a xlink:title="Updates an existing player and its associated entities (Game, GameLevel, Grid) in the database based ...">
<polygon fill="#999999" stroke="#666666" points="172,-332 0,-332 0,-300 172,-300 172,-332"/>
<text text-anchor="start" x="8" y="-318.5" font-family="Helvetica,sans-Serif" font-size="10.00">fr.softsf.sudokufx.service.business.</text>
<text text-anchor="middle" x="86" y="-306.5" font-family="Helvetica,sans-Serif" font-size="10.00">PlayerService.updatePlayer</text>
</a>
</g>
</g>
<!-- Node2 -->
<g id="Node000002" class="node">
<title>Node2</title>
<g id="a_Node000002"><a xlink:href="classfr_1_1softsf_1_1sudokufx_1_1model_1_1_game.html#a56b92064eba83dc275bb1b86dd41a986" target="_top" xlink:title="Returns the Grid associated with this game.">
<polygon fill="white" stroke="#666666" points="337.62,-632 212.88,-632 212.88,-600 337.62,-600 337.62,-632"/>
<text text-anchor="start" x="220.88" y="-618.5" font-family="Helvetica,sans-Serif" font-size="10.00">fr.softsf.sudokufx.model.</text>
<text text-anchor="middle" x="275.25" y="-606.5" font-family="Helvetica,sans-Serif" font-size="10.00">Game.getGridid</text>
</a>
</g>
</g>
<!-- Node1&#45;&gt;Node2 -->
<g id="edge1_Node000001_Node000002" class="edge">
<title>Node1&#45;&gt;Node2</title>
<g id="a_edge1_Node000001_Node000002"><a xlink:title=" ">
<path fill="none" stroke="#63b8ff" d="M89.68,-332.48C98.15,-379.52 128.68,-515.83 208,-591 208.76,-591.72 209.55,-592.42 210.35,-593.1"/>
<polygon fill="#63b8ff" stroke="#63b8ff" points="208.22,-595.89 218.41,-598.8 212.26,-590.17 208.22,-595.89"/>
</a>
</g>
</g>
<!-- Node3 -->
<g id="Node000003" class="node">
<title>Node3</title>
<g id="a_Node000003"><a xlink:href="classfr_1_1softsf_1_1sudokufx_1_1model_1_1_game.html#a492a381272a23baea55d28d154fa8080" target="_top" xlink:title="Returns the GameLevel of this game.">
<polygon fill="white" stroke="#666666" points="337.62,-582 212.88,-582 212.88,-550 337.62,-550 337.62,-582"/>
<text text-anchor="start" x="220.88" y="-568.5" font-family="Helvetica,sans-Serif" font-size="10.00">fr.softsf.sudokufx.model.</text>
<text text-anchor="middle" x="275.25" y="-556.5" font-family="Helvetica,sans-Serif" font-size="10.00">Game.getLevelid</text>
</a>
</g>
</g>
<!-- Node1&#45;&gt;Node3 -->
<g id="edge2_Node000001_Node000003" class="edge">
<title>Node1&#45;&gt;Node3</title>
<g id="a_edge2_Node000001_Node000003"><a xlink:title=" ">
<path fill="none" stroke="#63b8ff" d="M91.44,-332.4C103.33,-373.38 139.76,-481.25 208,-541 208.92,-541.81 209.88,-542.59 210.86,-543.35"/>
<polygon fill="#63b8ff" stroke="#63b8ff" points="208.71,-546.13 218.99,-548.72 212.57,-540.29 208.71,-546.13"/>
</a>
</g>
</g>
<!-- Node4 -->
<g id="Node000004" class="node">
<title>Node4</title>
<g id="a_Node000004"><a xlink:href="classfr_1_1softsf_1_1sudokufx_1_1model_1_1_grid.html#ac86f1c843073498a022a4c0295b1097b" target="_top" xlink:title="Sets the default grid values.">
<polygon fill="white" stroke="#666666" points="337.62,-532 212.88,-532 212.88,-500 337.62,-500 337.62,-532"/>
<text text-anchor="start" x="220.88" y="-518.5" font-family="Helvetica,sans-Serif" font-size="10.00">fr.softsf.sudokufx.model.</text>
<text text-anchor="middle" x="275.25" y="-506.5" font-family="Helvetica,sans-Serif" font-size="10.00">Grid.setDefaultgridvalue</text>
</a>
</g>
</g>
<!-- Node1&#45;&gt;Node4 -->
<g id="edge3_Node000001_Node000004" class="edge">
<title>Node1&#45;&gt;Node4</title>
<g id="a_edge3_Node000001_Node000004"><a xlink:title=" ">
<path fill="none" stroke="#63b8ff" d="M94.18,-332.46C109.92,-366.72 150.66,-446.19 208,-491 209.3,-492.02 210.65,-493 212.03,-493.94"/>
<polygon fill="#63b8ff" stroke="#63b8ff" points="209.94,-496.77 220.33,-498.87 213.52,-490.75 209.94,-496.77"/>
</a>
</g>
</g>
<!-- Node6 -->
<g id="Node000006" class="node">
<title>Node6</title>
<g id="a_Node000006"><a xlink:href="classfr_1_1softsf_1_1sudokufx_1_1model_1_1_grid.html#a4e78ed16efa7608347b3f745b512ed8f" target="_top" xlink:title="Sets the current grid values.">
<polygon fill="white" stroke="#666666" points="337.62,-482 212.88,-482 212.88,-450 337.62,-450 337.62,-482"/>
<text text-anchor="start" x="220.88" y="-468.5" font-family="Helvetica,sans-Serif" font-size="10.00">fr.softsf.sudokufx.model.</text>
<text text-anchor="middle" x="275.25" y="-456.5" font-family="Helvetica,sans-Serif" font-size="10.00">Grid.setGridvalue</text>
</a>
</g>
</g>
<!-- Node1&#45;&gt;Node6 -->
<g id="edge5_Node000001_Node000006" class="edge">
<title>Node1&#45;&gt;Node6</title>
<g id="a_edge5_Node000001_Node000006"><a xlink:title=" ">
<path fill="none" stroke="#63b8ff" d="M98.98,-332.43C118.91,-358.7 161.3,-410.32 208,-441 209.81,-442.19 211.69,-443.33 213.61,-444.43"/>
<polygon fill="#63b8ff" stroke="#63b8ff" points="211.7,-447.39 222.19,-448.87 214.91,-441.17 211.7,-447.39"/>
</a>
</g>
</g>
<!-- Node8 -->
<g id="Node000008" class="node">
<title>Node8</title>
<g id="a_Node000008"><a xlink:href="classfr_1_1softsf_1_1sudokufx_1_1model_1_1_game_level.html#a3dbb7779e391585b833acc0f2f030d1c" target="_top" xlink:title="Sets the difficulty value of this game level.">
<polygon fill="white" stroke="#666666" points="337.62,-432 212.88,-432 212.88,-400 337.62,-400 337.62,-432"/>
<text text-anchor="start" x="220.88" y="-418.5" font-family="Helvetica,sans-Serif" font-size="10.00">fr.softsf.sudokufx.model.</text>
<text text-anchor="middle" x="275.25" y="-406.5" font-family="Helvetica,sans-Serif" font-size="10.00">GameLevel.setLevel</text>
</a>
</g>
</g>
<!-- Node1&#45;&gt;Node8 -->
<g id="edge7_Node000001_Node000008" class="edge">
<title>Node1&#45;&gt;Node8</title>
<g id="a_edge7_Node000001_Node000008"><a xlink:title=" ">
<path fill="none" stroke="#63b8ff" d="M110.32,-332.36C134.13,-348.59 172.53,-373.52 208,-391 210.89,-392.43 213.89,-393.82 216.94,-395.18"/>
<polygon fill="#63b8ff" stroke="#63b8ff" points="215.47,-398.36 226.04,-399.05 218.2,-391.91 215.47,-398.36"/>
</a>
</g>
</g>
<!-- Node9 -->
<g id="Node000009" class="node">
<title>Node9</title>
<g id="a_Node000009"><a xlink:href="classfr_1_1softsf_1_1sudokufx_1_1model_1_1_player.html#a0c578d68480f93172709babb1224f573" target="_top" xlink:title="Sets the menu after validation.">
<polygon fill="white" stroke="#666666" points="337.62,-382 212.88,-382 212.88,-350 337.62,-350 337.62,-382"/>
<text text-anchor="start" x="220.88" y="-368.5" font-family="Helvetica,sans-Serif" font-size="10.00">fr.softsf.sudokufx.model.</text>
<text text-anchor="middle" x="275.25" y="-356.5" font-family="Helvetica,sans-Serif" font-size="10.00">Player.setMenuid</text>
</a>
</g>
</g>
<!-- Node1&#45;&gt;Node9 -->
<g id="edge8_Node000001_Node000009" class="edge">
<title>Node1&#45;&gt;Node9</title>
<g id="a_edge8_Node000001_Node000009"><a xlink:title=" ">
<path fill="none" stroke="#63b8ff" d="M148.57,-332.44C165.61,-336.99 184.26,-341.97 201.85,-346.67"/>
<polygon fill="#63b8ff" stroke="#63b8ff" points="200.61,-349.96 211.18,-349.16 202.42,-343.2 200.61,-349.96"/>
</a>
</g>
</g>
<!-- Node11 -->
<g id="Node000011" class="node">
<title>Node11</title>
<g id="a_Node000011"><a xlink:href="classfr_1_1softsf_1_1sudokufx_1_1model_1_1_player.html#af201d3417316b81311308e888df147ac" target="_top" xlink:title="Sets the name after validation.">
<polygon fill="white" stroke="#666666" points="337.62,-332 212.88,-332 212.88,-300 337.62,-300 337.62,-332"/>
<text text-anchor="start" x="220.88" y="-318.5" font-family="Helvetica,sans-Serif" font-size="10.00">fr.softsf.sudokufx.model.</text>
<text text-anchor="middle" x="275.25" y="-306.5" font-family="Helvetica,sans-Serif" font-size="10.00">Player.setName</text>
</a>
</g>
</g>
<!-- Node1&#45;&gt;Node11 -->
<g id="edge10_Node000001_Node000011" class="edge">
<title>Node1&#45;&gt;Node11</title>
<g id="a_edge10_Node000001_Node000011"><a xlink:title=" ">
<path fill="none" stroke="#63b8ff" d="M172.41,-316C182.01,-316 191.72,-316 201.15,-316"/>
<polygon fill="#63b8ff" stroke="#63b8ff" points="200.96,-319.5 210.96,-316 200.96,-312.5 200.96,-319.5"/>
</a>
</g>
</g>
<!-- Node13 -->
<g id="Node000013" class="node">
<title>Node13</title>
<g id="a_Node000013"><a xlink:href="classfr_1_1softsf_1_1sudokufx_1_1model_1_1_player.html#a8d02e23fa141f2d1b08d12d150145112" target="_top" xlink:title="Sets the options after validation.">
<polygon fill="white" stroke="#666666" points="337.62,-282 212.88,-282 212.88,-250 337.62,-250 337.62,-282"/>
<text text-anchor="start" x="220.88" y="-268.5" font-family="Helvetica,sans-Serif" font-size="10.00">fr.softsf.sudokufx.model.</text>
<text text-anchor="middle" x="275.25" y="-256.5" font-family="Helvetica,sans-Serif" font-size="10.00">Player.setOptionsid</text>
</a>
</g>
</g>
<!-- Node1&#45;&gt;Node13 -->
<g id="edge12_Node000001_Node000013" class="edge">
<title>Node1&#45;&gt;Node13</title>
<g id="a_edge12_Node000001_Node000013"><a xlink:title=" ">
<path fill="none" stroke="#63b8ff" d="M148.57,-299.56C165.61,-295.01 184.26,-290.03 201.85,-285.33"/>
<polygon fill="#63b8ff" stroke="#63b8ff" points="202.42,-288.8 211.18,-282.84 200.61,-282.04 202.42,-288.8"/>
</a>
</g>
</g>
<!-- Node15 -->
<g id="Node000015" class="node">
<title>Node15</title>
<g id="a_Node000015"><a xlink:href="classfr_1_1softsf_1_1sudokufx_1_1model_1_1_player.html#a9afc39d38139830bb7545ac2f50574f3" target="_top" xlink:title="Sets the language after validation.">
<polygon fill="white" stroke="#666666" points="342.5,-232 208,-232 208,-200 342.5,-200 342.5,-232"/>
<text text-anchor="start" x="216" y="-218.5" font-family="Helvetica,sans-Serif" font-size="10.00">fr.softsf.sudokufx.model.</text>
<text text-anchor="middle" x="275.25" y="-206.5" font-family="Helvetica,sans-Serif" font-size="10.00">Player.setPlayerlanguageid</text>
</a>
</g>
</g>
<!-- Node1&#45;&gt;Node15 -->
<g id="edge14_Node000001_Node000015" class="edge">
<title>Node1&#45;&gt;Node15</title>
<g id="a_edge14_Node000001_Node000015"><a xlink:title=" ">
<path fill="none" stroke="#63b8ff" d="M110.32,-299.64C134.13,-283.41 172.53,-258.48 208,-241 210.89,-239.57 213.89,-238.18 216.94,-236.82"/>
<polygon fill="#63b8ff" stroke="#63b8ff" points="218.2,-240.09 226.04,-232.95 215.47,-233.64 218.2,-240.09"/>
</a>
</g>
</g>
<!-- Node17 -->
<g id="Node000017" class="node">
<title>Node17</title>
<g id="a_Node000017"><a xlink:href="classfr_1_1softsf_1_1sudokufx_1_1model_1_1_grid.html#affc9639f4c58af1249dc22fa3031d09b" target="_top" xlink:title="Sets the percentage of possibilities for this grid.">
<polygon fill="white" stroke="#666666" points="337.62,-182 212.88,-182 212.88,-150 337.62,-150 337.62,-182"/>
<text text-anchor="start" x="220.88" y="-168.5" font-family="Helvetica,sans-Serif" font-size="10.00">fr.softsf.sudokufx.model.</text>
<text text-anchor="middle" x="275.25" y="-156.5" font-family="Helvetica,sans-Serif" font-size="10.00">Grid.setPossibilities</text>
</a>
</g>
</g>
<!-- Node1&#45;&gt;Node17 -->
<g id="edge16_Node000001_Node000017" class="edge">
<title>Node1&#45;&gt;Node17</title>
<g id="a_edge16_Node000001_Node000017"><a xlink:title=" ">
<path fill="none" stroke="#63b8ff" d="M98.98,-299.57C118.91,-273.3 161.3,-221.68 208,-191 209.81,-189.81 211.69,-188.67 213.61,-187.57"/>
<polygon fill="#63b8ff" stroke="#63b8ff" points="214.91,-190.83 222.19,-183.13 211.7,-184.61 214.91,-190.83"/>
</a>
</g>
</g>
<!-- Node18 -->
<g id="Node000018" class="node">
<title>Node18</title>
<g id="a_Node000018"><a xlink:href="classfr_1_1softsf_1_1sudokufx_1_1model_1_1_player.html#ade99f107878b74490ae3d014ff294f60" target="_top" xlink:title="Sets the selection flag.">
<polygon fill="white" stroke="#666666" points="337.62,-132 212.88,-132 212.88,-100 337.62,-100 337.62,-132"/>
<text text-anchor="start" x="220.88" y="-118.5" font-family="Helvetica,sans-Serif" font-size="10.00">fr.softsf.sudokufx.model.</text>
<text text-anchor="middle" x="275.25" y="-106.5" font-family="Helvetica,sans-Serif" font-size="10.00">Player.setSelected</text>
</a>
</g>
</g>
<!-- Node1&#45;&gt;Node18 -->
<g id="edge17_Node000001_Node000018" class="edge">
<title>Node1&#45;&gt;Node18</title>
<g id="a_edge17_Node000001_Node000018"><a xlink:title=" ">
<path fill="none" stroke="#63b8ff" d="M94.18,-299.54C109.92,-265.28 150.66,-185.81 208,-141 209.3,-139.98 210.65,-139 212.03,-138.06"/>
<polygon fill="#63b8ff" stroke="#63b8ff" points="213.52,-141.25 220.33,-133.13 209.94,-135.23 213.52,-141.25"/>
</a>
</g>
</g>
<!-- Node19 -->
<g id="Node000019" class="node">
<title>Node19</title>
<g id="a_Node000019"><a xlink:href="classfr_1_1softsf_1_1sudokufx_1_1model_1_1_game.html#a3f1136b2325dfb043388d60e8cc3fc78" target="_top" xlink:title="Updates the last modified timestamp.">
<polygon fill="white" stroke="#666666" points="337.62,-82 212.88,-82 212.88,-50 337.62,-50 337.62,-82"/>
<text text-anchor="start" x="220.88" y="-68.5" font-family="Helvetica,sans-Serif" font-size="10.00">fr.softsf.sudokufx.model.</text>
<text text-anchor="middle" x="275.25" y="-56.5" font-family="Helvetica,sans-Serif" font-size="10.00">Game.setUpdatedat</text>
</a>
</g>
</g>
<!-- Node1&#45;&gt;Node19 -->
<g id="edge18_Node000001_Node000019" class="edge">
<title>Node1&#45;&gt;Node19</title>
<g id="a_edge18_Node000001_Node000019"><a xlink:title=" ">
<path fill="none" stroke="#63b8ff" d="M91.44,-299.6C103.33,-258.62 139.76,-150.75 208,-91 208.92,-90.19 209.88,-89.41 210.86,-88.65"/>
<polygon fill="#63b8ff" stroke="#63b8ff" points="212.57,-91.71 218.99,-83.28 208.71,-85.87 212.57,-91.71"/>
</a>
</g>
</g>
<!-- Node21 -->
<g id="Node000021" class="node">
<title>Node21</title>
<g id="a_Node000021"><a xlink:href="classfr_1_1softsf_1_1sudokufx_1_1model_1_1_player.html#a33aa6abba56c524b516fe11cde122739" target="_top" xlink:title="Sets the update timestamp after validation.">
<polygon fill="white" stroke="#666666" points="337.62,-32 212.88,-32 212.88,0 337.62,0 337.62,-32"/>
<text text-anchor="start" x="220.88" y="-18.5" font-family="Helvetica,sans-Serif" font-size="10.00">fr.softsf.sudokufx.model.</text>
<text text-anchor="middle" x="275.25" y="-6.5" font-family="Helvetica,sans-Serif" font-size="10.00">Player.setUpdatedat</text>
</a>
</g>
</g>
<!-- Node1&#45;&gt;Node21 -->
<g id="edge20_Node000001_Node000021" class="edge">
<title>Node1&#45;&gt;Node21</title>
<g id="a_edge20_Node000001_Node000021"><a xlink:title=" ">
<path fill="none" stroke="#63b8ff" d="M89.68,-299.52C98.15,-252.48 128.68,-116.17 208,-41 208.76,-40.28 209.55,-39.58 210.35,-38.9"/>
<polygon fill="#63b8ff" stroke="#63b8ff" points="212.26,-41.83 218.41,-33.2 208.22,-36.11 212.26,-41.83"/>
</a>
</g>
</g>
<!-- Node5 -->
<g id="Node000005" class="node">
<title>Node5</title>
<g id="a_Node000005"><a xlink:href="classfr_1_1softsf_1_1sudokufx_1_1model_1_1_grid.html#af49e1b436868180644535afda35cd5cd" target="_top" xlink:title="Validates that the default grid value is not null.">
<polygon fill="white" stroke="#666666" points="524.25,-532 383,-532 383,-500 524.25,-500 524.25,-532"/>
<text text-anchor="start" x="391" y="-518.5" font-family="Helvetica,sans-Serif" font-size="10.00">fr.softsf.sudokufx.model.</text>
<text text-anchor="middle" x="453.62" y="-506.5" font-family="Helvetica,sans-Serif" font-size="10.00">Grid.validateDefaultgridvalue</text>
</a>
</g>
</g>
<!-- Node4&#45;&gt;Node5 -->
<g id="edge4_Node000004_Node000005" class="edge">
<title>Node4&#45;&gt;Node5</title>
<g id="a_edge4_Node000004_Node000005"><a xlink:title=" ">
<path fill="none" stroke="#63b8ff" d="M337.94,-516C348.63,-516 359.89,-516 371.01,-516"/>
<polygon fill="#63b8ff" stroke="#63b8ff" points="371.01,-519.5 381.01,-516 371.01,-512.5 371.01,-519.5"/>
</a>
</g>
</g>
<!-- Node7 -->
<g id="Node000007" class="node">
<title>Node7</title>
<g id="a_Node000007"><a xlink:href="classfr_1_1softsf_1_1sudokufx_1_1model_1_1_grid.html#a151e63c8afa747ec884b000b6a82f065" target="_top" xlink:title="Validates that the grid value is not null.">
<polygon fill="white" stroke="#666666" points="516,-482 391.25,-482 391.25,-450 516,-450 516,-482"/>
<text text-anchor="start" x="399.25" y="-468.5" font-family="Helvetica,sans-Serif" font-size="10.00">fr.softsf.sudokufx.model.</text>
<text text-anchor="middle" x="453.62" y="-456.5" font-family="Helvetica,sans-Serif" font-size="10.00">Grid.validateGridvalue</text>
</a>
</g>
</g>
<!-- Node6&#45;&gt;Node7 -->
<g id="edge6_Node000006_Node000007" class="edge">
<title>Node6&#45;&gt;Node7</title>
<g id="a_edge6_Node000006_Node000007"><a xlink:title=" ">
<path fill="none" stroke="#63b8ff" d="M337.94,-466C351.36,-466 365.69,-466 379.51,-466"/>
<polygon fill="#63b8ff" stroke="#63b8ff" points="379.46,-469.5 389.46,-466 379.46,-462.5 379.46,-469.5"/>
</a>
</g>
</g>
<!-- Node10 -->
<g id="Node000010" class="node">
<title>Node10</title>
<g id="a_Node000010"><a xlink:href="classfr_1_1softsf_1_1sudokufx_1_1model_1_1_player.html#a7262425d3a1c07b5ffdafba0a6aa51de" target="_top" xlink:title="Validates that the menu is not null.">
<polygon fill="white" stroke="#666666" points="516,-382 391.25,-382 391.25,-350 516,-350 516,-382"/>
<text text-anchor="start" x="399.25" y="-368.5" font-family="Helvetica,sans-Serif" font-size="10.00">fr.softsf.sudokufx.model.</text>
<text text-anchor="middle" x="453.62" y="-356.5" font-family="Helvetica,sans-Serif" font-size="10.00">Player.validateMenu</text>
</a>
</g>
</g>
<!-- Node9&#45;&gt;Node10 -->
<g id="edge9_Node000009_Node000010" class="edge">
<title>Node9&#45;&gt;Node10</title>
<g id="a_edge9_Node000009_Node000010"><a xlink:title=" ">
<path fill="none" stroke="#63b8ff" d="M337.94,-366C351.36,-366 365.69,-366 379.51,-366"/>
<polygon fill="#63b8ff" stroke="#63b8ff" points="379.46,-369.5 389.46,-366 379.46,-362.5 379.46,-369.5"/>
</a>
</g>
</g>
<!-- Node12 -->
<g id="Node000012" class="node">
<title>Node12</title>
<g id="a_Node000012"><a xlink:href="classfr_1_1softsf_1_1sudokufx_1_1model_1_1_player.html#ac7bbd9636074d8e4f6cc3f8ee5f75ab8" target="_top" xlink:title="Validates that the name is not null.">
<polygon fill="white" stroke="#666666" points="516,-332 391.25,-332 391.25,-300 516,-300 516,-332"/>
<text text-anchor="start" x="399.25" y="-318.5" font-family="Helvetica,sans-Serif" font-size="10.00">fr.softsf.sudokufx.model.</text>
<text text-anchor="middle" x="453.62" y="-306.5" font-family="Helvetica,sans-Serif" font-size="10.00">Player.validateName</text>
</a>
</g>
</g>
<!-- Node11&#45;&gt;Node12 -->
<g id="edge11_Node000011_Node000012" class="edge">
<title>Node11&#45;&gt;Node12</title>
<g id="a_edge11_Node000011_Node000012"><a xlink:title=" ">
<path fill="none" stroke="#63b8ff" d="M337.94,-316C351.36,-316 365.69,-316 379.51,-316"/>
<polygon fill="#63b8ff" stroke="#63b8ff" points="379.46,-319.5 389.46,-316 379.46,-312.5 379.46,-319.5"/>
</a>
</g>
</g>
<!-- Node14 -->
<g id="Node000014" class="node">
<title>Node14</title>
<g id="a_Node000014"><a xlink:href="classfr_1_1softsf_1_1sudokufx_1_1model_1_1_player.html#aa248bf09324098ddbaedfb58fc6d73ba" target="_top" xlink:title="Validates that the options are not null.">
<polygon fill="white" stroke="#666666" points="516,-282 391.25,-282 391.25,-250 516,-250 516,-282"/>
<text text-anchor="start" x="399.25" y="-268.5" font-family="Helvetica,sans-Serif" font-size="10.00">fr.softsf.sudokufx.model.</text>
<text text-anchor="middle" x="453.62" y="-256.5" font-family="Helvetica,sans-Serif" font-size="10.00">Player.validateOptions</text>
</a>
</g>
</g>
<!-- Node13&#45;&gt;Node14 -->
<g id="edge13_Node000013_Node000014" class="edge">
<title>Node13&#45;&gt;Node14</title>
<g id="a_edge13_Node000013_Node000014"><a xlink:title=" ">
<path fill="none" stroke="#63b8ff" d="M337.94,-266C351.36,-266 365.69,-266 379.51,-266"/>
<polygon fill="#63b8ff" stroke="#63b8ff" points="379.46,-269.5 389.46,-266 379.46,-262.5 379.46,-269.5"/>
</a>
</g>
</g>
<!-- Node16 -->
<g id="Node000016" class="node">
<title>Node16</title>
<g id="a_Node000016"><a xlink:href="classfr_1_1softsf_1_1sudokufx_1_1model_1_1_player.html#a67f9d00af3ba036ed39f639a271ee9f0" target="_top" xlink:title="Validates that the player language is not null.">
<polygon fill="white" stroke="#666666" points="528.75,-232 378.5,-232 378.5,-200 528.75,-200 528.75,-232"/>
<text text-anchor="start" x="386.5" y="-218.5" font-family="Helvetica,sans-Serif" font-size="10.00">fr.softsf.sudokufx.model.</text>
<text text-anchor="middle" x="453.62" y="-206.5" font-family="Helvetica,sans-Serif" font-size="10.00">Player.validatePlayerLanguage</text>
</a>
</g>
</g>
<!-- Node15&#45;&gt;Node16 -->
<g id="edge15_Node000015_Node000016" class="edge">
<title>Node15&#45;&gt;Node16</title>
<g id="a_edge15_Node000015_Node000016"><a xlink:title=" ">
<path fill="none" stroke="#63b8ff" d="M342.93,-216C350.75,-216 358.82,-216 366.86,-216"/>
<polygon fill="#63b8ff" stroke="#63b8ff" points="366.66,-219.5 376.66,-216 366.66,-212.5 366.66,-219.5"/>
</a>
</g>
</g>
<!-- Node20 -->
<g id="Node000020" class="node">
<title>Node20</title>
<g id="a_Node000020"><a xlink:href="classfr_1_1softsf_1_1sudokufx_1_1model_1_1_game.html#a516b5c422b3c8945a39d4351db9fc9f8" target="_top" xlink:title="Ensures that the update timestamp is not null.">
<polygon fill="white" stroke="#666666" points="516.38,-82 390.88,-82 390.88,-50 516.38,-50 516.38,-82"/>
<text text-anchor="start" x="398.88" y="-68.5" font-family="Helvetica,sans-Serif" font-size="10.00">fr.softsf.sudokufx.model.</text>
<text text-anchor="middle" x="453.62" y="-56.5" font-family="Helvetica,sans-Serif" font-size="10.00">Game.validateUpdatedAt</text>
</a>
</g>
</g>
<!-- Node19&#45;&gt;Node20 -->
<g id="edge19_Node000019_Node000020" class="edge">
<title>Node19&#45;&gt;Node20</title>
<g id="a_edge19_Node000019_Node000020"><a xlink:title=" ">
<path fill="none" stroke="#63b8ff" d="M337.94,-66C351.21,-66 365.36,-66 379.03,-66"/>
<polygon fill="#63b8ff" stroke="#63b8ff" points="378.86,-69.5 388.86,-66 378.86,-62.5 378.86,-69.5"/>
</a>
</g>
</g>
<!-- Node22 -->
<g id="Node000022" class="node">
<title>Node22</title>
<g id="a_Node000022"><a xlink:href="classfr_1_1softsf_1_1sudokufx_1_1model_1_1_player.html#aeb37d6a41a17c7c3762f30a68b29ca54" target="_top" xlink:title="Validates that the update date is not null.">
<polygon fill="white" stroke="#666666" points="517.12,-32 390.12,-32 390.12,0 517.12,0 517.12,-32"/>
<text text-anchor="start" x="398.12" y="-18.5" font-family="Helvetica,sans-Serif" font-size="10.00">fr.softsf.sudokufx.model.</text>
<text text-anchor="middle" x="453.62" y="-6.5" font-family="Helvetica,sans-Serif" font-size="10.00">Player.validateUpdatedAt</text>
</a>
</g>
</g>
<!-- Node21&#45;&gt;Node22 -->
<g id="edge21_Node000021_Node000022" class="edge">
<title>Node21&#45;&gt;Node22</title>
<g id="a_edge21_Node000021_Node000022"><a xlink:title=" ">
<path fill="none" stroke="#63b8ff" d="M337.94,-16C351.05,-16 365.03,-16 378.55,-16"/>
<polygon fill="#63b8ff" stroke="#63b8ff" points="378.26,-19.5 388.26,-16 378.26,-12.5 378.26,-19.5"/>
</a>
</g>
</g>
</g>
</svg>

<g id="navigator" transform="translate(0 0)" fill="#404254">
  <rect fill="#f2f5e9" fill-opacity="0.5" stroke="#606060" stroke-width=".5" x="0" y="0" width="60" height="60"/>
  <use id="zoomplus" xlink:href="#zoomPlus" x="17" y="9" onmousedown="handleZoom(evt,'in')"/>
  <use id="zoomminus" xlink:href="#zoomMin" x="42" y="9" onmousedown="handleZoom(evt,'out')"/>
  <use id="reset" xlink:href="#resetDef" x="30" y="36" onmousedown="handleReset()"/>
   <use id="arrowup" xlink:href="#arrowUp" x="0" y="0" onmousedown="handlePan(0,-1)"/>
  <use id="arrowright" xlink:href="#arrowRight" x="0" y="0" onmousedown="handlePan(1,0)"/>
  <use id="arrowdown" xlink:href="#arrowDown" x="0" y="0" onmousedown="handlePan(0,1)"/>
  <use id="arrowleft" xlink:href="#arrowLeft" x="0" y="0" onmousedown="handlePan(-1,0)"/>
</g>
<svg viewBox="0 0 15 15" width="100%" height="30px" preserveAspectRatio="xMaxYMin meet">
 <g id="arrow_out" transform="scale(0.3 0.3)">
  <a xlink:href="classfr_1_1softsf_1_1sudokufx_1_1service_1_1business_1_1_player_service_a6f6b31510b7e15b031f2feb95df7ed4a_cgraph_org.svg" target="_base">
   <rect id="button" ry="5" rx="5" y="6" x="6" height="38" width="38"
        fill="#f2f5e9" fill-opacity="0.5" stroke="#606060" stroke-width="1.0"/>
   <path id="arrow"
     d="M 11.500037,31.436501 C 11.940474,20.09759 22.043105,11.32322 32.158766,21.979434 L 37.068811,17.246167 C 37.068811,17.246167 37.088388,32 37.088388,32 L 22.160133,31.978069 C 22.160133,31.978069 26.997745,27.140456 26.997745,27.140456 C 18.528582,18.264221 13.291696,25.230495 11.500037,31.436501 z"
     style="fill:#404040;"/>
  </a>
 </g>
</svg>

<style type='text/css'>
<![CDATA[
[data-mouse-over-selected='false'] { opacity: 0.7; }
[data-mouse-over-selected='true']  { opacity: 1.0; }
]]>
</style>
<script type="application/ecmascript"><![CDATA[
document.addEventListener('DOMContentLoaded', (event) => {
  highlightEdges();
  highlightAdjacentNodes();
});
]]></script>
</svg>
