<?xml version="1.0" encoding="UTF-8" standalone="no"?>
<!DOCTYPE svg PUBLIC "-//W3C//DTD SVG 1.1//EN"
 "http://www.w3.org/Graphics/SVG/1.1/DTD/svg11.dtd">
<!-- Generated by graphviz version 12.2.1 (20241206.2353)
 -->
<!-- Title: fr.softsf.sudokufx.view.util.GenericListViewFactory.configurePlayerListView Pages: 1 -->
<!--zoomable 484 -->

<svg id="main" version="1.1" xmlns="http://www.w3.org/2000/svg" xmlns:xlink="http://www.w3.org/1999/xlink" xml:space="preserve" onload="init(evt)">

<style type="text/css"><![CDATA[
.node, .edge {opacity: 0.7;}
.node.selected, .edge.selected {opacity: 1;}
.edge:hover path { stroke: red; }
.edge:hover polygon { stroke: red; fill: red; }
]]></style>

<defs>
  <circle id="rim" cx="0" cy="0" r="7"/>
  <circle id="rim2" cx="0" cy="0" r="3.5"/>
  <g id="zoomPlus">
    <use xlink:href="#rim" fill="#404040"><set attributeName="fill" to="#808080" begin="zoomplus.mouseover" end="zoomplus.mouseout"/></use>
    <path d="M-4,0h8M0,-4v8" fill="none" stroke="white" stroke-width="1.5" pointer-events="none"/>
  </g>
  <g id="zoomMin">
    <use xlink:href="#rim" fill="#404040"><set attributeName="fill" to="#808080" begin="zoomminus.mouseover" end="zoomminus.mouseout"/></use>
    <path d="M-4,0h8" fill="none" stroke="white" stroke-width="1.5" pointer-events="none"/>
  </g>
  <g id="arrowUp" transform="translate(30 24)">
    <use xlink:href="#rim"/>
    <path pointer-events="none" fill="none" stroke="white" stroke-width="1.5" d="M0,-3.0v7 M-2.5,-0.5L0,-3.0L2.5,-0.5"/>
  </g>
  <g id="arrowRight" transform="rotate(90) translate(36 -43)">
    <use xlink:href="#rim"/>
    <path pointer-events="none" fill="none" stroke="white" stroke-width="1.5" d="M0,-3.0v7 M-2.5,-0.5L0,-3.0L2.5,-0.5"/>
  </g>
  <g id="arrowDown" transform="rotate(180) translate(-30 -48)">
    <use xlink:href="#rim"/>
    <path pointer-events="none" fill="none" stroke="white" stroke-width="1.5" d="M0,-3.0v7 M-2.5,-0.5L0,-3.0L2.5,-0.5"/>
  </g>
  <g id="arrowLeft" transform="rotate(270) translate(-36 17)">
    <use xlink:href="#rim"/>
    <path pointer-events="none" fill="none" stroke="white" stroke-width="1.5" d="M0,-3.0v7 M-2.5,-0.5L0,-3.0L2.5,-0.5"/>
  </g>
  <g id="resetDef">
    <use xlink:href="#rim2" fill="#404040"><set attributeName="fill" to="#808080" begin="reset.mouseover" end="reset.mouseout"/></use>
  </g>
</defs>
<script type="application/ecmascript">
var viewWidth = 417;
var viewHeight = 484;
var sectionId = 'dynsection-2';
</script>
<script type="application/ecmascript" xlink:href="svg.min.js"/>
<svg id="graph" class="graph">
<g id="viewport">
<title>fr.softsf.sudokufx.view.util.GenericListViewFactory.configurePlayerListView</title>
<!-- Node1 -->
<g id="Node000001" class="node">
<title>Node1</title>
<g id="a_Node000001"><a xlink:title="Configures the ListView used in the player menu.">
<polygon fill="#999999" stroke="#666666" points="162.25,-224 0,-224 0,-180 162.25,-180 162.25,-224"/>
<text text-anchor="start" x="8" y="-210.5" font-family="Helvetica,sans-Serif" font-size="10.00">fr.softsf.sudokufx.view.util.</text>
<text text-anchor="start" x="8" y="-198.5" font-family="Helvetica,sans-Serif" font-size="10.00">GenericListViewFactory.configure</text>
<text text-anchor="middle" x="81.12" y="-186.5" font-family="Helvetica,sans-Serif" font-size="10.00">PlayerListView</text>
</a>
</g>
</g>
<!-- Node2 -->
<g id="Node000002" class="node">
<title>Node2</title>
<g id="a_Node000002"><a xlink:href="classfr_1_1softsf_1_1sudokufx_1_1viewmodel_1_1_menu_player_view_model.html#acc1ffae6b7e4a182e7e7a1eca17481a3" target="_top" xlink:title=" ">
<polygon fill="white" stroke="#666666" points="408.5,-458 198.25,-458 198.25,-414 408.5,-414 408.5,-458"/>
<text text-anchor="start" x="206.25" y="-444.5" font-family="Helvetica,sans-Serif" font-size="10.00">fr.softsf.sudokufx.viewmodel.</text>
<text text-anchor="start" x="206.25" y="-432.5" font-family="Helvetica,sans-Serif" font-size="10.00">MenuPlayerViewModel.cellButtonAccessible</text>
<text text-anchor="middle" x="303.38" y="-420.5" font-family="Helvetica,sans-Serif" font-size="10.00">TextProperty</text>
</a>
</g>
</g>
<!-- Node1&#45;&gt;Node2 -->
<g id="edge1_Node000001_Node000002" class="edge">
<title>Node1&#45;&gt;Node2</title>
<g id="a_edge1_Node000001_Node000002"><a xlink:title=" ">
<path fill="none" stroke="#63b8ff" d="M88.71,-224.31C102.2,-266.13 137,-356.45 198.25,-405 199.37,-405.89 200.52,-406.75 201.69,-407.59"/>
<polygon fill="#63b8ff" stroke="#63b8ff" points="199.47,-410.33 209.78,-412.74 203.23,-404.42 199.47,-410.33"/>
</a>
</g>
</g>
<!-- Node3 -->
<g id="Node000003" class="node">
<title>Node3</title>
<g id="a_Node000003"><a xlink:href="classfr_1_1softsf_1_1sudokufx_1_1viewmodel_1_1_menu_player_view_model.html#aca9b0ca160159d7c96f67d5a19062e99" target="_top" xlink:title=" ">
<polygon fill="white" stroke="#666666" points="398,-378 208.75,-378 208.75,-334 398,-334 398,-378"/>
<text text-anchor="start" x="216.75" y="-364.5" font-family="Helvetica,sans-Serif" font-size="10.00">fr.softsf.sudokufx.viewmodel.</text>
<text text-anchor="start" x="216.75" y="-352.5" font-family="Helvetica,sans-Serif" font-size="10.00">MenuPlayerViewModel.cellConfirmation</text>
<text text-anchor="middle" x="303.38" y="-340.5" font-family="Helvetica,sans-Serif" font-size="10.00">MessageProperty</text>
</a>
</g>
</g>
<!-- Node1&#45;&gt;Node3 -->
<g id="edge3_Node000001_Node000003" class="edge">
<title>Node1&#45;&gt;Node3</title>
<g id="a_edge3_Node000001_Node000003"><a xlink:title=" ">
<path fill="none" stroke="#63b8ff" d="M97.53,-224.49C117.6,-252.1 155.23,-298.52 198.25,-325 200.26,-326.24 202.32,-327.42 204.42,-328.57"/>
<polygon fill="#63b8ff" stroke="#63b8ff" points="202.66,-331.6 213.17,-332.92 205.78,-325.34 202.66,-331.6"/>
</a>
</g>
</g>
<!-- Node4 -->
<g id="Node000004" class="node">
<title>Node4</title>
<g id="a_Node000004"><a xlink:href="classfr_1_1softsf_1_1sudokufx_1_1viewmodel_1_1_menu_player_view_model.html#a3eafd2b6fcea2b1e01fb6691993d0f64" target="_top" xlink:title=" ">
<polygon fill="white" stroke="#666666" points="398,-298 208.75,-298 208.75,-254 398,-254 398,-298"/>
<text text-anchor="start" x="216.75" y="-284.5" font-family="Helvetica,sans-Serif" font-size="10.00">fr.softsf.sudokufx.viewmodel.</text>
<text text-anchor="start" x="216.75" y="-272.5" font-family="Helvetica,sans-Serif" font-size="10.00">MenuPlayerViewModel.cellConfirmation</text>
<text text-anchor="middle" x="303.38" y="-260.5" font-family="Helvetica,sans-Serif" font-size="10.00">TitleProperty</text>
</a>
</g>
</g>
<!-- Node1&#45;&gt;Node4 -->
<g id="edge5_Node000001_Node000004" class="edge">
<title>Node1&#45;&gt;Node4</title>
<g id="a_edge5_Node000001_Node000004"><a xlink:title=" ">
<path fill="none" stroke="#63b8ff" d="M140.34,-224.4C158.77,-231.27 179.28,-238.67 198.25,-245 203.35,-246.7 208.6,-248.41 213.92,-250.1"/>
<polygon fill="#63b8ff" stroke="#63b8ff" points="212.83,-253.43 223.42,-253.08 214.93,-246.75 212.83,-253.43"/>
</a>
</g>
</g>
<!-- Node5 -->
<g id="Node000005" class="node">
<title>Node5</title>
<g id="a_Node000005"><a xlink:href="classfr_1_1softsf_1_1sudokufx_1_1viewmodel_1_1_menu_player_view_model.html#aae474a3cd1a79843b3162b9ac692ac90" target="_top" xlink:title=" ">
<polygon fill="white" stroke="#666666" points="386,-218 220.75,-218 220.75,-186 386,-186 386,-218"/>
<text text-anchor="start" x="228.75" y="-204.5" font-family="Helvetica,sans-Serif" font-size="10.00">fr.softsf.sudokufx.viewmodel.</text>
<text text-anchor="middle" x="303.38" y="-192.5" font-family="Helvetica,sans-Serif" font-size="10.00">MenuPlayerViewModel.getPlayers</text>
</a>
</g>
</g>
<!-- Node1&#45;&gt;Node5 -->
<g id="edge7_Node000001_Node000005" class="edge">
<title>Node1&#45;&gt;Node5</title>
<g id="a_edge7_Node000001_Node000005"><a xlink:title=" ">
<path fill="none" stroke="#63b8ff" d="M162.58,-202C177.7,-202 193.64,-202 209.12,-202"/>
<polygon fill="#63b8ff" stroke="#63b8ff" points="208.78,-205.5 218.78,-202 208.78,-198.5 208.78,-205.5"/>
</a>
</g>
</g>
<!-- Node6 -->
<g id="Node000006" class="node">
<title>Node6</title>
<g id="a_Node000006"><a xlink:href="classfr_1_1softsf_1_1sudokufx_1_1viewmodel_1_1_menu_player_view_model.html#a71605f1cde24d333d9e5cb4b445c274c" target="_top" xlink:title=" ">
<polygon fill="white" stroke="#666666" points="395,-168 211.75,-168 211.75,-124 395,-124 395,-168"/>
<text text-anchor="start" x="219.75" y="-154.5" font-family="Helvetica,sans-Serif" font-size="10.00">fr.softsf.sudokufx.viewmodel.</text>
<text text-anchor="start" x="219.75" y="-142.5" font-family="Helvetica,sans-Serif" font-size="10.00">MenuPlayerViewModel.selectedPlayer</text>
<text text-anchor="middle" x="303.38" y="-130.5" font-family="Helvetica,sans-Serif" font-size="10.00">Property</text>
</a>
</g>
</g>
<!-- Node1&#45;&gt;Node6 -->
<g id="edge9_Node000001_Node000006" class="edge">
<title>Node1&#45;&gt;Node6</title>
<g id="a_edge9_Node000001_Node000006"><a xlink:title=" ">
<path fill="none" stroke="#63b8ff" d="M162.58,-181.55C175.76,-178.19 189.56,-174.68 203.14,-171.23"/>
<polygon fill="#63b8ff" stroke="#63b8ff" points="203.67,-174.71 212.5,-168.85 201.94,-167.92 203.67,-174.71"/>
</a>
</g>
</g>
<!-- Node7 -->
<g id="Node000007" class="node">
<title>Node7</title>
<g id="a_Node000007"><a xlink:href="classfr_1_1softsf_1_1sudokufx_1_1view_1_1util_1_1_generic_list_view_factory.html#a649020523675d71d2bdf3040a1aa0c13" target="_top" xlink:title="Binds the selection of a ListView bidirectionally with a Property.">
<polygon fill="white" stroke="#666666" points="403.25,-106 203.5,-106 203.5,-62 403.25,-62 403.25,-106"/>
<text text-anchor="start" x="211.5" y="-92.5" font-family="Helvetica,sans-Serif" font-size="10.00">fr.softsf.sudokufx.view.util.</text>
<text text-anchor="start" x="211.5" y="-80.5" font-family="Helvetica,sans-Serif" font-size="10.00">GenericListViewFactory.setupBidirectional</text>
<text text-anchor="middle" x="303.38" y="-68.5" font-family="Helvetica,sans-Serif" font-size="10.00">Selection</text>
</a>
</g>
</g>
<!-- Node1&#45;&gt;Node7 -->
<g id="edge10_Node000001_Node000007" class="edge">
<title>Node1&#45;&gt;Node7</title>
<g id="a_edge10_Node000001_Node000007"><a xlink:title=" ">
<path fill="none" stroke="#63b8ff" d="M106.24,-179.88C128.61,-160.38 163.6,-132.44 198.25,-115 201.13,-113.55 204.1,-112.15 207.11,-110.81"/>
<polygon fill="#63b8ff" stroke="#63b8ff" points="208.28,-114.12 216.16,-107.05 205.59,-107.66 208.28,-114.12"/>
</a>
</g>
</g>
<!-- Node8 -->
<g id="Node000008" class="node">
<title>Node8</title>
<g id="a_Node000008"><a xlink:href="classfr_1_1softsf_1_1sudokufx_1_1view_1_1util_1_1_generic_list_view_factory.html#acae6d879cc76140491e38a8f889fe790" target="_top" xlink:title="Applies rounded clipping to the given ListView using the provided Rectangle.">
<polygon fill="white" stroke="#666666" points="384.5,-44 222.25,-44 222.25,0 384.5,0 384.5,-44"/>
<text text-anchor="start" x="230.25" y="-30.5" font-family="Helvetica,sans-Serif" font-size="10.00">fr.softsf.sudokufx.view.util.</text>
<text text-anchor="start" x="230.25" y="-18.5" font-family="Helvetica,sans-Serif" font-size="10.00">GenericListViewFactory.setupList</text>
<text text-anchor="middle" x="303.38" y="-6.5" font-family="Helvetica,sans-Serif" font-size="10.00">ViewClip</text>
</a>
</g>
</g>
<!-- Node1&#45;&gt;Node8 -->
<g id="edge11_Node000001_Node000008" class="edge">
<title>Node1&#45;&gt;Node8</title>
<g id="a_edge11_Node000001_Node000008"><a xlink:title=" ">
<path fill="none" stroke="#63b8ff" d="M93.56,-179.75C111.47,-147.1 149.23,-86.47 198.25,-53 202.44,-50.14 206.89,-47.54 211.52,-45.18"/>
<polygon fill="#63b8ff" stroke="#63b8ff" points="212.9,-48.39 220.49,-41.01 209.94,-42.05 212.9,-48.39"/>
</a>
</g>
</g>
<!-- Node2&#45;&gt;Node2 -->
<g id="edge2_Node000002_Node000002" class="edge">
<title>Node2&#45;&gt;Node2</title>
<g id="a_edge2_Node000002_Node000002"><a xlink:title=" ">
<path fill="none" stroke="#63b8ff" d="M262.2,-458.21C258.83,-467.8 272.56,-476 303.38,-476 321.67,-476 333.95,-473.11 340.19,-468.75"/>
<polygon fill="#63b8ff" stroke="#63b8ff" points="343.39,-470.19 343.97,-459.61 336.92,-467.52 343.39,-470.19"/>
</a>
</g>
</g>
<!-- Node3&#45;&gt;Node3 -->
<g id="edge4_Node000003_Node000003" class="edge">
<title>Node3&#45;&gt;Node3</title>
<g id="a_edge4_Node000003_Node000003"><a xlink:title=" ">
<path fill="none" stroke="#63b8ff" d="M262.2,-378.21C258.83,-387.8 272.56,-396 303.38,-396 321.67,-396 333.95,-393.11 340.19,-388.75"/>
<polygon fill="#63b8ff" stroke="#63b8ff" points="343.39,-390.19 343.97,-379.61 336.92,-387.52 343.39,-390.19"/>
</a>
</g>
</g>
<!-- Node4&#45;&gt;Node4 -->
<g id="edge6_Node000004_Node000004" class="edge">
<title>Node4&#45;&gt;Node4</title>
<g id="a_edge6_Node000004_Node000004"><a xlink:title=" ">
<path fill="none" stroke="#63b8ff" d="M262.2,-298.21C258.83,-307.8 272.56,-316 303.38,-316 321.67,-316 333.95,-313.11 340.19,-308.75"/>
<polygon fill="#63b8ff" stroke="#63b8ff" points="343.39,-310.19 343.97,-299.61 336.92,-307.52 343.39,-310.19"/>
</a>
</g>
</g>
<!-- Node5&#45;&gt;Node5 -->
<g id="edge8_Node000005_Node000005" class="edge">
<title>Node5&#45;&gt;Node5</title>
<g id="a_edge8_Node000005_Node000005"><a xlink:title=" ">
<path fill="none" stroke="#63b8ff" d="M263.7,-218.44C256.29,-227.58 269.52,-236 303.38,-236 322.16,-236 334.59,-233.41 340.67,-229.54"/>
<polygon fill="#63b8ff" stroke="#63b8ff" points="344.06,-230.43 342.74,-219.92 337.22,-228.97 344.06,-230.43"/>
</a>
</g>
</g>
</g>
</svg>

<g id="navigator" transform="translate(0 0)" fill="#404254">
  <rect fill="#f2f5e9" fill-opacity="0.5" stroke="#606060" stroke-width=".5" x="0" y="0" width="60" height="60"/>
  <use id="zoomplus" xlink:href="#zoomPlus" x="17" y="9" onmousedown="handleZoom(evt,'in')"/>
  <use id="zoomminus" xlink:href="#zoomMin" x="42" y="9" onmousedown="handleZoom(evt,'out')"/>
  <use id="reset" xlink:href="#resetDef" x="30" y="36" onmousedown="handleReset()"/>
   <use id="arrowup" xlink:href="#arrowUp" x="0" y="0" onmousedown="handlePan(0,-1)"/>
  <use id="arrowright" xlink:href="#arrowRight" x="0" y="0" onmousedown="handlePan(1,0)"/>
  <use id="arrowdown" xlink:href="#arrowDown" x="0" y="0" onmousedown="handlePan(0,1)"/>
  <use id="arrowleft" xlink:href="#arrowLeft" x="0" y="0" onmousedown="handlePan(-1,0)"/>
</g>
<svg viewBox="0 0 15 15" width="100%" height="30px" preserveAspectRatio="xMaxYMin meet">
 <g id="arrow_out" transform="scale(0.3 0.3)">
  <a xlink:href="classfr_1_1softsf_1_1sudokufx_1_1view_1_1util_1_1_generic_list_view_factory_a40f2ee33740335955a78e14353e91032_cgraph_org.svg" target="_base">
   <rect id="button" ry="5" rx="5" y="6" x="6" height="38" width="38"
        fill="#f2f5e9" fill-opacity="0.5" stroke="#606060" stroke-width="1.0"/>
   <path id="arrow"
     d="M 11.500037,31.436501 C 11.940474,20.09759 22.043105,11.32322 32.158766,21.979434 L 37.068811,17.246167 C 37.068811,17.246167 37.088388,32 37.088388,32 L 22.160133,31.978069 C 22.160133,31.978069 26.997745,27.140456 26.997745,27.140456 C 18.528582,18.264221 13.291696,25.230495 11.500037,31.436501 z"
     style="fill:#404040;"/>
  </a>
 </g>
</svg>

<style type='text/css'>
<![CDATA[
[data-mouse-over-selected='false'] { opacity: 0.7; }
[data-mouse-over-selected='true']  { opacity: 1.0; }
]]>
</style>
<script type="application/ecmascript"><![CDATA[
document.addEventListener('DOMContentLoaded', (event) => {
  highlightEdges();
  highlightAdjacentNodes();
});
]]></script>
</svg>
