<?xml version="1.0" encoding="UTF-8" standalone="no"?>
<!DOCTYPE svg PUBLIC "-//W3C//DTD SVG 1.1//EN"
 "http://www.w3.org/Graphics/SVG/1.1/DTD/svg11.dtd">
<!-- Generated by graphviz version 12.2.1 (20241206.2353)
 -->
<!-- Title: fr.softsf.sudokufx.viewmodel.MenuOptionsViewModel.handleFileImageChooser Pages: 1 -->
<svg width="1364pt" height="217pt"
 viewBox="0.00 0.00 1364.00 217.29" xmlns="http://www.w3.org/2000/svg" xmlns:xlink="http://www.w3.org/1999/xlink">
<g id="graph0" class="graph" transform="scale(1 1) rotate(0) translate(4 213.29)">
<title>fr.softsf.sudokufx.viewmodel.MenuOptionsViewModel.handleFileImageChooser</title>
<!-- Node1 -->
<g id="Node000001" class="node">
<title>Node1</title>
<g id="a_Node000001"><a xlink:title="Handles image file selection by validating the file format and starting the image loading process.">
<polygon fill="#999999" stroke="#666666" points="196,-162.29 0,-162.29 0,-118.29 196,-118.29 196,-162.29"/>
<text text-anchor="start" x="8" y="-148.79" font-family="Helvetica,sans-Serif" font-size="10.00">fr.softsf.sudokufx.viewmodel.</text>
<text text-anchor="start" x="8" y="-136.79" font-family="Helvetica,sans-Serif" font-size="10.00">MenuOptionsViewModel.handleFileImage</text>
<text text-anchor="middle" x="98" y="-124.79" font-family="Helvetica,sans-Serif" font-size="10.00">Chooser</text>
</a>
</g>
</g>
<!-- Node2 -->
<g id="Node000002" class="node">
<title>Node2</title>
<g id="a_Node000002"><a xlink:href="classfr_1_1softsf_1_1sudokufx_1_1view_1_1component_1_1toaster_1_1_toaster_v_box.html#ad5dd108caa143c370a7e22825923a776" target="_top" xlink:title="Adds a toast notification with an automatically calculated duration based on text length.">
<polygon fill="white" stroke="#666666" points="880,-159.29 678,-159.29 678,-127.29 880,-127.29 880,-159.29"/>
<text text-anchor="start" x="686" y="-145.79" font-family="Helvetica,sans-Serif" font-size="10.00">fr.softsf.sudokufx.view.component.toaster.</text>
<text text-anchor="middle" x="779" y="-133.79" font-family="Helvetica,sans-Serif" font-size="10.00">ToasterVBox.addToast</text>
</a>
</g>
</g>
<!-- Node1&#45;&gt;Node2 -->
<g id="edge1_Node000001_Node000002" class="edge">
<title>Node1&#45;&gt;Node2</title>
<g id="a_edge1_Node000001_Node000002"><a xlink:title=" ">
<path fill="none" stroke="#63b8ff" d="M196.11,-144.16C304.76,-147.96 486,-152.73 642,-149.29 649.96,-149.12 658.18,-148.88 666.45,-148.61"/>
<polygon fill="#63b8ff" stroke="#63b8ff" points="666.37,-152.12 676.24,-148.27 666.12,-145.12 666.37,-152.12"/>
</a>
</g>
</g>
<!-- Node8 -->
<g id="Node000008" class="node">
<title>Node8</title>
<g id="a_Node000008"><a xlink:href="classfr_1_1softsf_1_1sudokufx_1_1viewmodel_1_1_menu_options_view_model.html#a19f6173dce7259d796c9688cf534ac01" target="_top" xlink:title="Starts the asynchronous image loading and resizing task.">
<polygon fill="white" stroke="#666666" points="401.75,-112.29 232,-112.29 232,-80.29 401.75,-80.29 401.75,-112.29"/>
<text text-anchor="start" x="240" y="-98.79" font-family="Helvetica,sans-Serif" font-size="10.00">fr.softsf.sudokufx.viewmodel.</text>
<text text-anchor="middle" x="316.88" y="-86.79" font-family="Helvetica,sans-Serif" font-size="10.00">MenuOptionsViewModel.loadImage</text>
</a>
</g>
</g>
<!-- Node1&#45;&gt;Node8 -->
<g id="edge7_Node000001_Node000008" class="edge">
<title>Node1&#45;&gt;Node8</title>
<g id="a_edge7_Node000001_Node000008"><a xlink:title=" ">
<path fill="none" stroke="#63b8ff" d="M196.34,-120.55C205.36,-118.71 214.49,-116.86 223.47,-115.04"/>
<polygon fill="#63b8ff" stroke="#63b8ff" points="224.16,-118.47 233.26,-113.05 222.77,-111.61 224.16,-118.47"/>
</a>
</g>
</g>
<!-- Node3 -->
<g id="Node000003" class="node">
<title>Node3</title>
<g id="a_Node000003"><a xlink:href="classfr_1_1softsf_1_1sudokufx_1_1view_1_1component_1_1toaster_1_1_toaster_v_box.html#a7df4872b0cf0eeb5cd3a04ce7ccb0fef" target="_top" xlink:title="Sets the accessibility text for the toast based on its level.">
<polygon fill="white" stroke="#666666" points="1118,-159.29 916,-159.29 916,-127.29 1118,-127.29 1118,-159.29"/>
<text text-anchor="start" x="924" y="-145.79" font-family="Helvetica,sans-Serif" font-size="10.00">fr.softsf.sudokufx.view.component.toaster.</text>
<text text-anchor="middle" x="1017" y="-133.79" font-family="Helvetica,sans-Serif" font-size="10.00">ToasterVBox.setAccessibility</text>
</a>
</g>
</g>
<!-- Node2&#45;&gt;Node3 -->
<g id="edge2_Node000002_Node000003" class="edge">
<title>Node2&#45;&gt;Node3</title>
<g id="a_edge2_Node000002_Node000003"><a xlink:title=" ">
<path fill="none" stroke="#63b8ff" d="M880.43,-143.29C888.36,-143.29 896.4,-143.29 904.4,-143.29"/>
<polygon fill="#63b8ff" stroke="#63b8ff" points="904.15,-146.79 914.15,-143.29 904.15,-139.79 904.15,-146.79"/>
</a>
</g>
</g>
<!-- Node5 -->
<g id="Node000005" class="node">
<title>Node5</title>
<g id="a_Node000005"><a xlink:href="classfr_1_1softsf_1_1sudokufx_1_1view_1_1component_1_1toaster_1_1_toaster_v_box.html#a1f7607f18913c940c16c9de28f3e7ae7" target="_top" xlink:title="Sets the style of the toast based on its level.">
<polygon fill="white" stroke="#666666" points="1118,-209.29 916,-209.29 916,-177.29 1118,-177.29 1118,-209.29"/>
<text text-anchor="start" x="924" y="-195.79" font-family="Helvetica,sans-Serif" font-size="10.00">fr.softsf.sudokufx.view.component.toaster.</text>
<text text-anchor="middle" x="1017" y="-183.79" font-family="Helvetica,sans-Serif" font-size="10.00">ToasterVBox.setToastStyle</text>
</a>
</g>
</g>
<!-- Node2&#45;&gt;Node5 -->
<g id="edge4_Node000002_Node000005" class="edge">
<title>Node2&#45;&gt;Node5</title>
<g id="a_edge4_Node000002_Node000005"><a xlink:title=" ">
<path fill="none" stroke="#63b8ff" d="M857.6,-159.73C879.88,-164.46 904.35,-169.64 927.25,-174.49"/>
<polygon fill="#63b8ff" stroke="#63b8ff" points="926.36,-177.88 936.87,-176.53 927.81,-171.03 926.36,-177.88"/>
</a>
</g>
</g>
<!-- Node7 -->
<g id="Node000007" class="node">
<title>Node7</title>
<g id="a_Node000007"><a xlink:href="classfr_1_1softsf_1_1sudokufx_1_1view_1_1component_1_1toaster_1_1_toaster_v_box.html#abd2310564b394c59530d5e7b2a0d0776" target="_top" xlink:title="Sets a timer to automatically remove the toast after a specified duration.">
<polygon fill="white" stroke="#666666" points="1118,-109.29 916,-109.29 916,-77.29 1118,-77.29 1118,-109.29"/>
<text text-anchor="start" x="924" y="-95.79" font-family="Helvetica,sans-Serif" font-size="10.00">fr.softsf.sudokufx.view.component.toaster.</text>
<text text-anchor="middle" x="1017" y="-83.79" font-family="Helvetica,sans-Serif" font-size="10.00">ToasterVBox.temporizeToast</text>
</a>
</g>
</g>
<!-- Node2&#45;&gt;Node7 -->
<g id="edge6_Node000002_Node000007" class="edge">
<title>Node2&#45;&gt;Node7</title>
<g id="a_edge6_Node000002_Node000007"><a xlink:title=" ">
<path fill="none" stroke="#63b8ff" d="M857.6,-126.85C879.88,-122.13 904.35,-116.95 927.25,-112.1"/>
<polygon fill="#63b8ff" stroke="#63b8ff" points="927.81,-115.55 936.87,-110.06 926.36,-108.71 927.81,-115.55"/>
</a>
</g>
</g>
<!-- Node4 -->
<g id="Node000004" class="node">
<title>Node4</title>
<g id="a_Node000004"><a xlink:href="classfr_1_1softsf_1_1sudokufx_1_1view_1_1component_1_1toaster_1_1_toaster_v_box.html#a67957eac2367e7b8018ef0d2ce354bef" target="_top" xlink:title="Retrieves the information text corresponding to the specified toast level.">
<polygon fill="white" stroke="#666666" points="1356,-159.29 1154,-159.29 1154,-127.29 1356,-127.29 1356,-159.29"/>
<text text-anchor="start" x="1162" y="-145.79" font-family="Helvetica,sans-Serif" font-size="10.00">fr.softsf.sudokufx.view.component.toaster.</text>
<text text-anchor="middle" x="1255" y="-133.79" font-family="Helvetica,sans-Serif" font-size="10.00">ToasterVBox.getToastInfo</text>
</a>
</g>
</g>
<!-- Node3&#45;&gt;Node4 -->
<g id="edge3_Node000003_Node000004" class="edge">
<title>Node3&#45;&gt;Node4</title>
<g id="a_edge3_Node000003_Node000004"><a xlink:title=" ">
<path fill="none" stroke="#63b8ff" d="M1118.43,-143.29C1126.36,-143.29 1134.4,-143.29 1142.4,-143.29"/>
<polygon fill="#63b8ff" stroke="#63b8ff" points="1142.15,-146.79 1152.15,-143.29 1142.15,-139.79 1142.15,-146.79"/>
</a>
</g>
</g>
<!-- Node6 -->
<g id="Node000006" class="node">
<title>Node6</title>
<g id="a_Node000006"><a xlink:href="enumfr_1_1softsf_1_1sudokufx_1_1common_1_1enums_1_1_toast_levels.html#a43cd66f6e8b04c4873f35e51fd57a36d" target="_top" xlink:title=" ">
<polygon fill="white" stroke="#666666" points="1339.12,-209.29 1170.88,-209.29 1170.88,-177.29 1339.12,-177.29 1339.12,-209.29"/>
<text text-anchor="start" x="1178.88" y="-195.79" font-family="Helvetica,sans-Serif" font-size="10.00">fr.softsf.sudokufx.common.enums.</text>
<text text-anchor="middle" x="1255" y="-183.79" font-family="Helvetica,sans-Serif" font-size="10.00">ToastLevels.getLevel</text>
</a>
</g>
</g>
<!-- Node5&#45;&gt;Node6 -->
<g id="edge5_Node000005_Node000006" class="edge">
<title>Node5&#45;&gt;Node6</title>
<g id="a_edge5_Node000005_Node000006"><a xlink:title=" ">
<path fill="none" stroke="#63b8ff" d="M1118.43,-193.29C1131.95,-193.29 1145.79,-193.29 1159.22,-193.29"/>
<polygon fill="#63b8ff" stroke="#63b8ff" points="1158.87,-196.79 1168.87,-193.29 1158.87,-189.79 1158.87,-196.79"/>
</a>
</g>
</g>
<!-- Node8&#45;&gt;Node2 -->
<g id="edge8_Node000008_Node000002" class="edge">
<title>Node8&#45;&gt;Node2</title>
<g id="a_edge8_Node000008_Node000002"><a xlink:title=" ">
<path fill="none" stroke="#63b8ff" d="M371.69,-112.73C392.18,-118.32 415.86,-123.98 437.75,-127.29 513.48,-138.74 599.66,-142.7 666.35,-143.82"/>
<polygon fill="#63b8ff" stroke="#63b8ff" points="666.15,-147.32 676.2,-143.96 666.26,-140.32 666.15,-147.32"/>
</a>
</g>
</g>
<!-- Node9 -->
<g id="Node000009" class="node">
<title>Node9</title>
<g id="a_Node000009"><a xlink:href="classfr_1_1softsf_1_1sudokufx_1_1viewmodel_1_1_menu_options_view_model.html#a834a300defa70fe876c0bfb4a93ab8bd" target="_top" xlink:title="Called upon successful completion of the image loading task.">
<polygon fill="white" stroke="#666666" points="631.5,-118.29 448.25,-118.29 448.25,-74.29 631.5,-74.29 631.5,-118.29"/>
<text text-anchor="start" x="456.25" y="-104.79" font-family="Helvetica,sans-Serif" font-size="10.00">fr.softsf.sudokufx.viewmodel.</text>
<text text-anchor="start" x="456.25" y="-92.79" font-family="Helvetica,sans-Serif" font-size="10.00">MenuOptionsViewModel.onImageTask</text>
<text text-anchor="middle" x="539.88" y="-80.79" font-family="Helvetica,sans-Serif" font-size="10.00">Complete</text>
</a>
</g>
</g>
<!-- Node8&#45;&gt;Node9 -->
<g id="edge9_Node000008_Node000009" class="edge">
<title>Node8&#45;&gt;Node9</title>
<g id="a_edge9_Node000008_Node000009"><a xlink:title=" ">
<path fill="none" stroke="#63b8ff" d="M402.06,-96.29C413.31,-96.29 424.95,-96.29 436.47,-96.29"/>
<polygon fill="#63b8ff" stroke="#63b8ff" points="436.42,-99.79 446.42,-96.29 436.42,-92.79 436.42,-99.79"/>
</a>
</g>
</g>
<!-- Node11 -->
<g id="Node000011" class="node">
<title>Node11</title>
<g id="a_Node000011"><a xlink:href="classfr_1_1softsf_1_1sudokufx_1_1view_1_1component_1_1_spinner_grid_pane.html#a170661e162609697b2bd6e2cd9a22b60" target="_top" xlink:title="Shows or hides the spinner.">
<polygon fill="white" stroke="#666666" points="863.5,-56.29 694.5,-56.29 694.5,-24.29 863.5,-24.29 863.5,-56.29"/>
<text text-anchor="start" x="702.5" y="-42.79" font-family="Helvetica,sans-Serif" font-size="10.00">fr.softsf.sudokufx.view.component.</text>
<text text-anchor="middle" x="779" y="-30.79" font-family="Helvetica,sans-Serif" font-size="10.00">SpinnerGridPane.showSpinner</text>
</a>
</g>
</g>
<!-- Node8&#45;&gt;Node11 -->
<g id="edge18_Node000008_Node000011" class="edge">
<title>Node8&#45;&gt;Node11</title>
<g id="a_edge18_Node000008_Node000011"><a xlink:title=" ">
<path fill="none" stroke="#63b8ff" d="M334.78,-79.94C356.53,-60.16 396.44,-27.94 437.75,-15.29 529.28,12.73 640.84,-4.59 710.66,-21.17"/>
<polygon fill="#63b8ff" stroke="#63b8ff" points="709.49,-24.49 720.03,-23.46 711.15,-17.69 709.49,-24.49"/>
</a>
</g>
</g>
<!-- Node12 -->
<g id="Node000012" class="node">
<title>Node12</title>
<g id="a_Node000012"><a xlink:href="classfr_1_1softsf_1_1sudokufx_1_1viewmodel_1_1_menu_options_view_model.html#ab53f60c10a9810b5df500217c14b9539" target="_top" xlink:title="Called when the image loading task fails.">
<polygon fill="white" stroke="#666666" points="642,-56.29 437.75,-56.29 437.75,-24.29 642,-24.29 642,-56.29"/>
<text text-anchor="start" x="445.75" y="-42.79" font-family="Helvetica,sans-Serif" font-size="10.00">fr.softsf.sudokufx.viewmodel.</text>
<text text-anchor="middle" x="539.88" y="-30.79" font-family="Helvetica,sans-Serif" font-size="10.00">MenuOptionsViewModel.onImageTaskError</text>
</a>
</g>
</g>
<!-- Node8&#45;&gt;Node12 -->
<g id="edge14_Node000008_Node000012" class="edge">
<title>Node8&#45;&gt;Node12</title>
<g id="a_edge14_Node000008_Node000012"><a xlink:title=" ">
<path fill="none" stroke="#63b8ff" d="M380.99,-79.84C399.29,-75.1 419.31,-69.96 437.75,-65.29 445.26,-63.39 453.08,-61.43 460.91,-59.48"/>
<polygon fill="#63b8ff" stroke="#63b8ff" points="461.62,-62.91 470.47,-57.1 459.93,-56.12 461.62,-62.91"/>
</a>
</g>
</g>
<!-- Node9&#45;&gt;Node2 -->
<g id="edge10_Node000009_Node000002" class="edge">
<title>Node9&#45;&gt;Node2</title>
<g id="a_edge10_Node000009_Node000002"><a xlink:title=" ">
<path fill="none" stroke="#63b8ff" d="M631.88,-114.33C648.91,-117.71 666.75,-121.24 683.88,-124.64"/>
<polygon fill="#63b8ff" stroke="#63b8ff" points="683.04,-128.04 693.53,-126.55 684.4,-121.17 683.04,-128.04"/>
</a>
</g>
</g>
<!-- Node10 -->
<g id="Node000010" class="node">
<title>Node10</title>
<g id="a_Node000010"><a xlink:href="classfr_1_1softsf_1_1sudokufx_1_1view_1_1component_1_1toaster_1_1_toaster_v_box.html#ac901d34317be26e1fd391a134f42e7bf" target="_top" xlink:title="Schedules the current toast for removal after a short delay.">
<polygon fill="white" stroke="#666666" points="880,-109.29 678,-109.29 678,-77.29 880,-77.29 880,-109.29"/>
<text text-anchor="start" x="686" y="-95.79" font-family="Helvetica,sans-Serif" font-size="10.00">fr.softsf.sudokufx.view.component.toaster.</text>
<text text-anchor="middle" x="779" y="-83.79" font-family="Helvetica,sans-Serif" font-size="10.00">ToasterVBox.removeToast</text>
</a>
</g>
</g>
<!-- Node9&#45;&gt;Node10 -->
<g id="edge11_Node000009_Node000010" class="edge">
<title>Node9&#45;&gt;Node10</title>
<g id="a_edge11_Node000009_Node000010"><a xlink:title=" ">
<path fill="none" stroke="#63b8ff" d="M631.88,-95.14C643.14,-95 654.76,-94.85 666.29,-94.71"/>
<polygon fill="#63b8ff" stroke="#63b8ff" points="666.3,-98.21 676.26,-94.58 666.21,-91.21 666.3,-98.21"/>
</a>
</g>
</g>
<!-- Node9&#45;&gt;Node11 -->
<g id="edge13_Node000009_Node000011" class="edge">
<title>Node9&#45;&gt;Node11</title>
<g id="a_edge13_Node000009_Node000011"><a xlink:title=" ">
<path fill="none" stroke="#63b8ff" d="M631.88,-74.8C653.35,-69.73 676.11,-64.36 697.1,-59.4"/>
<polygon fill="#63b8ff" stroke="#63b8ff" points="697.84,-62.82 706.76,-57.12 696.23,-56.01 697.84,-62.82"/>
</a>
</g>
</g>
<!-- Node10&#45;&gt;Node7 -->
<g id="edge12_Node000010_Node000007" class="edge">
<title>Node10&#45;&gt;Node7</title>
<g id="a_edge12_Node000010_Node000007"><a xlink:title=" ">
<path fill="none" stroke="#63b8ff" d="M880.43,-93.29C888.36,-93.29 896.4,-93.29 904.4,-93.29"/>
<polygon fill="#63b8ff" stroke="#63b8ff" points="904.15,-96.79 914.15,-93.29 904.15,-89.79 904.15,-96.79"/>
</a>
</g>
</g>
<!-- Node12&#45;&gt;Node2 -->
<g id="edge15_Node000012_Node000002" class="edge">
<title>Node12&#45;&gt;Node2</title>
<g id="a_edge15_Node000012_Node000002"><a xlink:title=" ">
<path fill="none" stroke="#63b8ff" d="M627,-56.74C632.27,-59.21 637.32,-62.04 642,-65.29 665.37,-81.57 654.65,-101.99 678,-118.29 679.61,-119.42 681.27,-120.5 682.97,-121.52"/>
<polygon fill="#63b8ff" stroke="#63b8ff" points="681.27,-124.58 691.74,-126.19 684.56,-118.4 681.27,-124.58"/>
</a>
</g>
</g>
<!-- Node12&#45;&gt;Node10 -->
<g id="edge16_Node000012_Node000010" class="edge">
<title>Node12&#45;&gt;Node10</title>
<g id="a_edge16_Node000012_Node000010"><a xlink:title=" ">
<path fill="none" stroke="#63b8ff" d="M614.6,-56.77C639.47,-62.33 667.43,-68.58 693.09,-74.32"/>
<polygon fill="#63b8ff" stroke="#63b8ff" points="692.32,-77.73 702.84,-76.49 693.84,-70.9 692.32,-77.73"/>
</a>
</g>
</g>
<!-- Node12&#45;&gt;Node11 -->
<g id="edge17_Node000012_Node000011" class="edge">
<title>Node12&#45;&gt;Node11</title>
<g id="a_edge17_Node000012_Node000011"><a xlink:title=" ">
<path fill="none" stroke="#63b8ff" d="M642.47,-40.29C655.79,-40.29 669.4,-40.29 682.61,-40.29"/>
<polygon fill="#63b8ff" stroke="#63b8ff" points="682.59,-43.79 692.59,-40.29 682.59,-36.79 682.59,-43.79"/>
</a>
</g>
</g>
</g>
</svg>
