<?xml version="1.0" encoding="UTF-8" standalone="no"?>
<!DOCTYPE svg PUBLIC "-//W3C//DTD SVG 1.1//EN"
 "http://www.w3.org/Graphics/SVG/1.1/DTD/svg11.dtd">
<!-- Generated by graphviz version 12.2.1 (20241206.2353)
 -->
<!-- Title: fr.softsf.sudokufx.service.business.OptionsService Pages: 1 -->
<svg width="559pt" height="439pt"
 viewBox="0.00 0.00 558.75 439.00" xmlns="http://www.w3.org/2000/svg" xmlns:xlink="http://www.w3.org/1999/xlink">
<g id="page0,1_graph0" class="graph" transform="scale(1 1) rotate(0) translate(4 435)">
<title>fr.softsf.sudokufx.service.business.OptionsService</title>
<!-- Node1 -->
<g id="Node000001" class="node">
<title>Node1</title>
<g id="a_Node000001"><a xlink:title="Service for managing Options entities.">
<polygon fill="#999999" stroke="none" points="342.25,-156 168.25,-156 168.25,0 342.25,0 342.25,-156"/>
<text text-anchor="start" x="177.25" y="-142.5" font-family="Helvetica,sans-Serif" font-size="10.00">fr.softsf.sudokufx.service.business.</text>
<text text-anchor="start" x="221.88" y="-130.5" font-family="Helvetica,sans-Serif" font-size="10.00">OptionsService</text>
<text text-anchor="start" x="253.75" y="-114.5" font-family="Helvetica,sans-Serif" font-size="10.00"> </text>
<text text-anchor="start" x="172.25" y="-98.5" font-family="Helvetica,sans-Serif" font-size="10.00">+</text>
<text text-anchor="start" x="182.25" y="-98.5" font-family="Helvetica,sans-Serif" font-size="10.00">OptionsService(OptionsRepository</text>
<text text-anchor="start" x="182.25" y="-86.5" font-family="Helvetica,sans-Serif" font-size="10.00"> optionsRepository, IOptionsMapper</text>
<text text-anchor="start" x="182.25" y="-74.5" font-family="Helvetica,sans-Serif" font-size="10.00"> optionsMapper, JakartaValidator</text>
<text text-anchor="start" x="182.25" y="-62.5" font-family="Helvetica,sans-Serif" font-size="10.00"> jakartaValidator)</text>
<text text-anchor="start" x="172.25" y="-46.5" font-family="Helvetica,sans-Serif" font-size="10.00">+</text>
<text text-anchor="start" x="182.25" y="-46.5" font-family="Helvetica,sans-Serif" font-size="10.00">OptionsDto duplicateOptions</text>
<text text-anchor="start" x="182.25" y="-34.5" font-family="Helvetica,sans-Serif" font-size="10.00">(Long optionsId)</text>
<text text-anchor="start" x="172.25" y="-18.5" font-family="Helvetica,sans-Serif" font-size="10.00">+</text>
<text text-anchor="start" x="182.25" y="-18.5" font-family="Helvetica,sans-Serif" font-size="10.00">OptionsDto updateOptions</text>
<text text-anchor="start" x="182.25" y="-6.5" font-family="Helvetica,sans-Serif" font-size="10.00">(OptionsDto dto)</text>
<polygon fill="#666666" stroke="#666666" points="168.25,-126 168.25,-126 342.25,-126 342.25,-126 168.25,-126"/>
<polygon fill="#666666" stroke="#666666" points="168.25,-110 168.25,-110 342.25,-110 342.25,-110 168.25,-110"/>
<polygon fill="none" stroke="#666666" points="168.25,0 168.25,-156 342.25,-156 342.25,0 168.25,0"/>
</a>
</g>
</g>
<!-- Node2 -->
<g id="Node000002" class="node">
<title>Node2</title>
<g id="a_Node000002"><a xlink:href="interfacefr_1_1softsf_1_1sudokufx_1_1repository_1_1_options_repository.html" target="_top" xlink:title="Repository interface for Options entities.">
<polygon fill="white" stroke="none" points="132.5,-302 0,-302 0,-238 132.5,-238 132.5,-302"/>
<text text-anchor="start" x="4" y="-288.5" font-family="Helvetica,sans-Serif" font-size="10.00">fr.softsf.sudokufx.repository.</text>
<text text-anchor="start" x="25.75" y="-276.5" font-family="Helvetica,sans-Serif" font-size="10.00">OptionsRepository</text>
<text text-anchor="start" x="64.75" y="-260.5" font-family="Helvetica,sans-Serif" font-size="10.00"> </text>
<text text-anchor="start" x="64.75" y="-244.5" font-family="Helvetica,sans-Serif" font-size="10.00"> </text>
<polygon fill="#666666" stroke="#666666" points="0,-272 0,-272 132.5,-272 132.5,-272 0,-272"/>
<polygon fill="#666666" stroke="#666666" points="0,-256 0,-256 132.5,-256 132.5,-256 0,-256"/>
<polygon fill="none" stroke="#666666" points="0,-238 0,-302 132.5,-302 132.5,-238 0,-238"/>
</a>
</g>
</g>
<!-- Node2&#45;&gt;Node1 -->
<g id="edge1_Node000001_Node000002" class="edge">
<title>Node2&#45;&gt;Node1</title>
<g id="a_edge1_Node000001_Node000002"><a xlink:title=" ">
<path fill="none" stroke="#63b8ff" d="M97.04,-238.05C116.87,-218.11 143.72,-191.12 169.66,-165.04"/>
<polygon fill="none" stroke="#63b8ff" points="169.69,-165.01 171.09,-157.94 178.15,-156.5 176.76,-163.58 169.69,-165.01"/>
</a>
</g>
<text text-anchor="start" x="163.75" y="-179.5" font-family="Helvetica,sans-Serif" font-size="10.00" fill="grey">&#45;optionsRepository</text>
</g>
<!-- Node3 -->
<g id="Node000003" class="node">
<title>Node3</title>
<g id="a_Node000003"><a xlink:title=" ">
<polygon fill="white" stroke="none" points="124.62,-431 7.87,-431 7.87,-367 124.62,-367 124.62,-431"/>
<text text-anchor="start" x="11.88" y="-417.5" font-family="Helvetica,sans-Serif" font-size="10.00">JpaRepository&lt; Options,</text>
<text text-anchor="start" x="49.75" y="-405.5" font-family="Helvetica,sans-Serif" font-size="10.00"> Long &gt;</text>
<text text-anchor="start" x="64.75" y="-389.5" font-family="Helvetica,sans-Serif" font-size="10.00"> </text>
<text text-anchor="start" x="64.75" y="-373.5" font-family="Helvetica,sans-Serif" font-size="10.00"> </text>
<polygon fill="#666666" stroke="#666666" points="7.88,-401 7.88,-401 124.62,-401 124.62,-401 7.88,-401"/>
<polygon fill="#666666" stroke="#666666" points="7.88,-385 7.88,-385 124.62,-385 124.62,-385 7.88,-385"/>
<polygon fill="none" stroke="#666666" points="7.88,-367 7.88,-431 124.62,-431 124.62,-367 7.88,-367"/>
</a>
</g>
</g>
<!-- Node3&#45;&gt;Node2 -->
<g id="edge2_Node000002_Node000003" class="edge">
<title>Node3&#45;&gt;Node2</title>
<g id="a_edge2_Node000002_Node000003"><a xlink:title=" ">
<path fill="none" stroke="#63b8ff" d="M66.25,-355.82C66.25,-338.2 66.25,-318.11 66.25,-301.9"/>
<polygon fill="none" stroke="#63b8ff" points="62.75,-355.74 66.25,-365.74 69.75,-355.74 62.75,-355.74"/>
</a>
</g>
</g>
<!-- Node4 -->
<g id="Node000004" class="node">
<title>Node4</title>
<g id="a_Node000004"><a xlink:href="interfacefr_1_1softsf_1_1sudokufx_1_1common_1_1interfaces_1_1mapper_1_1_i_options_mapper.html" target="_top" xlink:title="This interface defines methods for mapping objects of type Options to objects of type OptionsDto and ...">
<polygon fill="white" stroke="none" points="359.75,-322 150.75,-322 150.75,-218 359.75,-218 359.75,-322"/>
<text text-anchor="start" x="154.75" y="-308.5" font-family="Helvetica,sans-Serif" font-size="10.00">fr.softsf.sudokufx.common.interfaces.mapper.</text>
<text text-anchor="start" x="220.75" y="-296.5" font-family="Helvetica,sans-Serif" font-size="10.00">IOptionsMapper</text>
<text text-anchor="start" x="253.75" y="-280.5" font-family="Helvetica,sans-Serif" font-size="10.00"> </text>
<text text-anchor="start" x="165.19" y="-264.5" font-family="Helvetica,sans-Serif" font-size="10.00">+</text>
<text text-anchor="start" x="185.62" y="-264.5" font-family="Helvetica,sans-Serif" font-size="10.00">Options mapOptionsDtoToOptions</text>
<text text-anchor="start" x="185.62" y="-252.5" font-family="Helvetica,sans-Serif" font-size="10.00">(OptionsDto dto)</text>
<text text-anchor="start" x="165.19" y="-236.5" font-family="Helvetica,sans-Serif" font-size="10.00">+</text>
<text text-anchor="start" x="185.62" y="-236.5" font-family="Helvetica,sans-Serif" font-size="10.00">OptionsDto mapOptionsToDto</text>
<text text-anchor="start" x="185.62" y="-224.5" font-family="Helvetica,sans-Serif" font-size="10.00">(Options options)</text>
<polygon fill="#666666" stroke="#666666" points="150.75,-292 150.75,-292 359.75,-292 359.75,-292 150.75,-292"/>
<polygon fill="#666666" stroke="#666666" points="150.75,-276 150.75,-276 359.75,-276 359.75,-276 150.75,-276"/>
<polygon fill="none" stroke="#666666" points="150.75,-218 150.75,-322 359.75,-322 359.75,-218 150.75,-218"/>
</a>
</g>
</g>
<!-- Node4&#45;&gt;Node1 -->
<g id="edge3_Node000001_Node000004" class="edge">
<title>Node4&#45;&gt;Node1</title>
<g id="a_edge3_Node000001_Node000004"><a xlink:title=" ">
<path fill="none" stroke="#63b8ff" d="M255.25,-218.08C255.25,-202.84 255.25,-185.66 255.25,-168.7"/>
<polygon fill="none" stroke="#63b8ff" points="255.25,-168.71 251.25,-162.71 255.25,-156.71 259.25,-162.71 255.25,-168.71"/>
</a>
</g>
<text text-anchor="start" x="258.25" y="-179.5" font-family="Helvetica,sans-Serif" font-size="10.00" fill="grey">&#45;optionsMapper</text>
</g>
<!-- Node5 -->
<g id="Node000005" class="node">
<title>Node5</title>
<g id="a_Node000005"><a xlink:href="classfr_1_1softsf_1_1sudokufx_1_1common_1_1exception_1_1_jakarta_validator.html" target="_top" xlink:title="Spring component for validating objects using Jakarta Bean Validation.">
<polygon fill="white" stroke="none" points="550.75,-330 377.75,-330 377.75,-210 550.75,-210 550.75,-330"/>
<text text-anchor="start" x="381.75" y="-316.5" font-family="Helvetica,sans-Serif" font-size="10.00">fr.softsf.sudokufx.common.exception.</text>
<text text-anchor="start" x="429.38" y="-304.5" font-family="Helvetica,sans-Serif" font-size="10.00">JakartaValidator</text>
<text text-anchor="start" x="394.44" y="-288.5" font-family="Helvetica,sans-Serif" font-size="10.00">&#45;</text>
<text text-anchor="start" x="414.12" y="-288.5" font-family="Helvetica,sans-Serif" font-size="10.00">final Validator validator</text>
<text text-anchor="start" x="394.44" y="-272.5" font-family="Helvetica,sans-Serif" font-size="10.00">&#45;</text>
<text text-anchor="start" x="414.12" y="-272.5" font-family="Helvetica,sans-Serif" font-size="10.00">static final Logger LOG</text>
<text text-anchor="start" x="392.94" y="-256.5" font-family="Helvetica,sans-Serif" font-size="10.00">+</text>
<text text-anchor="start" x="414.12" y="-256.5" font-family="Helvetica,sans-Serif" font-size="10.00">JakartaValidator(Validator</text>
<text text-anchor="start" x="414.12" y="-244.5" font-family="Helvetica,sans-Serif" font-size="10.00"> validator)</text>
<text text-anchor="start" x="392.94" y="-228.5" font-family="Helvetica,sans-Serif" font-size="10.00">~</text>
<text text-anchor="start" x="414.12" y="-228.5" font-family="Helvetica,sans-Serif" font-size="10.00">public&lt; T &gt; T validateOr</text>
<text text-anchor="start" x="414.12" y="-216.5" font-family="Helvetica,sans-Serif" font-size="10.00">Throw(T obj)</text>
<polygon fill="#666666" stroke="#666666" points="377.75,-300 377.75,-300 550.75,-300 550.75,-300 377.75,-300"/>
<polygon fill="#666666" stroke="#666666" points="377.75,-268 377.75,-268 412.12,-268 412.12,-268 377.75,-268"/>
<polygon fill="#666666" stroke="#666666" points="412.12,-268 412.12,-268 550.75,-268 550.75,-268 412.12,-268"/>
<polygon fill="none" stroke="#666666" points="377.75,-210 377.75,-330 550.75,-330 550.75,-210 377.75,-210"/>
</a>
</g>
</g>
<!-- Node5&#45;&gt;Node1 -->
<g id="edge4_Node000001_Node000005" class="edge">
<title>Node5&#45;&gt;Node1</title>
<g id="a_edge4_Node000001_Node000005"><a xlink:title=" ">
<path fill="none" stroke="#63b8ff" d="M399.55,-210.18C383.57,-195.65 366.13,-179.8 349.07,-164.29"/>
<polygon fill="none" stroke="#63b8ff" points="349.19,-164.4 342.06,-163.32 340.31,-156.33 347.44,-157.4 349.19,-164.4"/>
</a>
</g>
<text text-anchor="start" x="381.47" y="-179.5" font-family="Helvetica,sans-Serif" font-size="10.00" fill="grey">&#45;jakartaValidator</text>
</g>
</g>
</svg>
