<?xml version="1.0" encoding="UTF-8" standalone="no"?>
<!DOCTYPE svg PUBLIC "-//W3C//DTD SVG 1.1//EN"
 "http://www.w3.org/Graphics/SVG/1.1/DTD/svg11.dtd">
<!-- Generated by graphviz version 12.2.1 (20241206.2353)
 -->
<!-- Title: fr.softsf.sudokufx.viewmodel.grid.GridCellViewModel.setupListeners Pages: 1 -->
<svg width="819pt" height="280pt"
 viewBox="0.00 0.00 819.00 279.92" xmlns="http://www.w3.org/2000/svg" xmlns:xlink="http://www.w3.org/1999/xlink">
<g id="graph0" class="graph" transform="scale(1 1) rotate(0) translate(4 275.92)">
<title>fr.softsf.sudokufx.viewmodel.grid.GridCellViewModel.setupListeners</title>
<!-- Node1 -->
<g id="Node000001" class="node">
<title>Node1</title>
<g id="a_Node000001"><a xlink:title="Configures UI listeners and formatting logic:">
<polygon fill="#999999" stroke="#666666" points="166,-166 0,-166 0,-134 166,-134 166,-166"/>
<text text-anchor="start" x="8" y="-152.5" font-family="Helvetica,sans-Serif" font-size="10.00">fr.softsf.sudokufx.viewmodel.grid.</text>
<text text-anchor="middle" x="83" y="-140.5" font-family="Helvetica,sans-Serif" font-size="10.00">GridCellViewModel.setupListeners</text>
</a>
</g>
</g>
<!-- Node2 -->
<g id="Node000002" class="node">
<title>Node2</title>
<g id="a_Node000002"><a xlink:href="classfr_1_1softsf_1_1sudokufx_1_1viewmodel_1_1grid_1_1_grid_cell_view_model.html#a38d783156f2f2ad694cfbec5062de472" target="_top" xlink:title="Applies a computed border style to a JavaFX node, based on content length, focus state,...">
<polygon fill="white" stroke="#666666" points="608.25,-213 431.75,-213 431.75,-181 608.25,-181 608.25,-213"/>
<text text-anchor="start" x="439.75" y="-199.5" font-family="Helvetica,sans-Serif" font-size="10.00">fr.softsf.sudokufx.viewmodel.grid.</text>
<text text-anchor="middle" x="520" y="-187.5" font-family="Helvetica,sans-Serif" font-size="10.00">GridCellViewModel.applyBorderStyle</text>
</a>
</g>
</g>
<!-- Node1&#45;&gt;Node2 -->
<g id="edge1_Node000001_Node000002" class="edge">
<title>Node1&#45;&gt;Node2</title>
<g id="a_edge1_Node000001_Node000002"><a xlink:title=" ">
<path fill="none" stroke="#63b8ff" d="M96.26,-166.49C115.57,-190.89 155.66,-235.62 202,-253 282.63,-283.24 311.59,-271.22 395.75,-253 426.16,-246.41 458.09,-231.66 481.82,-218.95"/>
<polygon fill="#63b8ff" stroke="#63b8ff" points="483.38,-222.09 490.46,-214.2 480.01,-215.95 483.38,-222.09"/>
</a>
</g>
</g>
<!-- Node4 -->
<g id="Node000004" class="node">
<title>Node4</title>
<g id="a_Node000004"><a xlink:href="classfr_1_1softsf_1_1sudokufx_1_1viewmodel_1_1grid_1_1_grid_cell_view_model.html#ae0d01b28db4394dc49b5f5a0c1a3f2ec" target="_top" xlink:title="Inserts line breaks every 3 digits in the filtered string, with a maximum of two line breaks,...">
<polygon fill="white" stroke="#666666" points="381.88,-244 215.88,-244 215.88,-212 381.88,-212 381.88,-244"/>
<text text-anchor="start" x="223.88" y="-230.5" font-family="Helvetica,sans-Serif" font-size="10.00">fr.softsf.sudokufx.viewmodel.grid.</text>
<text text-anchor="middle" x="298.88" y="-218.5" font-family="Helvetica,sans-Serif" font-size="10.00">GridCellViewModel.formatMultiline</text>
</a>
</g>
</g>
<!-- Node1&#45;&gt;Node4 -->
<g id="edge3_Node000001_Node000004" class="edge">
<title>Node1&#45;&gt;Node4</title>
<g id="a_edge3_Node000001_Node000004"><a xlink:title=" ">
<path fill="none" stroke="#63b8ff" d="M116.71,-166.47C140.07,-177.79 172.45,-192.59 202,-203 207.29,-204.86 212.79,-206.66 218.35,-208.37"/>
<polygon fill="#63b8ff" stroke="#63b8ff" points="217.07,-211.64 227.65,-211.13 219.06,-204.93 217.07,-211.64"/>
</a>
</g>
</g>
<!-- Node5 -->
<g id="Node000005" class="node">
<title>Node5</title>
<g id="a_Node000005"><a xlink:href="classfr_1_1softsf_1_1sudokufx_1_1viewmodel_1_1grid_1_1_grid_cell_view_model.html#aac96cce43da018085f8e390d31aeeb33" target="_top" xlink:title="Filters the input string to digits 1–9, removes duplicates, sorts ascending, and limits to 9 characte...">
<polygon fill="white" stroke="#666666" points="381.88,-194 215.88,-194 215.88,-162 381.88,-162 381.88,-194"/>
<text text-anchor="start" x="223.88" y="-180.5" font-family="Helvetica,sans-Serif" font-size="10.00">fr.softsf.sudokufx.viewmodel.grid.</text>
<text text-anchor="middle" x="298.88" y="-168.5" font-family="Helvetica,sans-Serif" font-size="10.00">GridCellViewModel.normalizeInput</text>
</a>
</g>
</g>
<!-- Node1&#45;&gt;Node5 -->
<g id="edge4_Node000001_Node000005" class="edge">
<title>Node1&#45;&gt;Node5</title>
<g id="a_edge4_Node000001_Node000005"><a xlink:title=" ">
<path fill="none" stroke="#63b8ff" d="M166.38,-160.79C178.85,-162.42 191.79,-164.11 204.47,-165.77"/>
<polygon fill="#63b8ff" stroke="#63b8ff" points="203.66,-169.2 214.03,-167.02 204.57,-162.26 203.66,-169.2"/>
</a>
</g>
</g>
<!-- Node6 -->
<g id="Node000006" class="node">
<title>Node6</title>
<g id="a_Node000006"><a xlink:href="classfr_1_1softsf_1_1sudokufx_1_1viewmodel_1_1grid_1_1_grid_cell_view_model.html#a2a551d4792b3263e749994098c3b3748" target="_top" xlink:title="Updates CSS style classes on label and text area to reflect the editable state.">
<polygon fill="white" stroke="#666666" points="385.62,-82 212.12,-82 212.12,-50 385.62,-50 385.62,-82"/>
<text text-anchor="start" x="220.12" y="-68.5" font-family="Helvetica,sans-Serif" font-size="10.00">fr.softsf.sudokufx.viewmodel.grid.</text>
<text text-anchor="middle" x="298.88" y="-56.5" font-family="Helvetica,sans-Serif" font-size="10.00">GridCellViewModel.setEditableStyle</text>
</a>
</g>
</g>
<!-- Node1&#45;&gt;Node6 -->
<g id="edge5_Node000001_Node000006" class="edge">
<title>Node1&#45;&gt;Node6</title>
<g id="a_edge5_Node000001_Node000006"><a xlink:title=" ">
<path fill="none" stroke="#63b8ff" d="M112.34,-133.72C135.79,-120.78 170.27,-102.92 202,-91 206.88,-89.17 211.94,-87.42 217.08,-85.76"/>
<polygon fill="#63b8ff" stroke="#63b8ff" points="217.73,-89.22 226.25,-82.93 215.66,-82.54 217.73,-89.22"/>
</a>
</g>
</g>
<!-- Node8 -->
<g id="Node000008" class="node">
<title>Node8</title>
<g id="a_Node000008"><a xlink:href="classfr_1_1softsf_1_1sudokufx_1_1viewmodel_1_1grid_1_1_grid_cell_view_model.html#ac95db9585f2ba2ed12d60dd5cca39461" target="_top" xlink:title="Switches from read&#45;only mode (Label visible) to edit mode (TextArea visible), focusing the TextArea a...">
<polygon fill="white" stroke="#666666" points="390.12,-32 207.62,-32 207.62,0 390.12,0 390.12,-32"/>
<text text-anchor="start" x="215.62" y="-18.5" font-family="Helvetica,sans-Serif" font-size="10.00">fr.softsf.sudokufx.viewmodel.grid.</text>
<text text-anchor="middle" x="298.88" y="-6.5" font-family="Helvetica,sans-Serif" font-size="10.00">GridCellViewModel.switchToEditMode</text>
</a>
</g>
</g>
<!-- Node1&#45;&gt;Node8 -->
<g id="edge7_Node000001_Node000008" class="edge">
<title>Node1&#45;&gt;Node8</title>
<g id="a_edge7_Node000001_Node000008"><a xlink:title=" ">
<path fill="none" stroke="#63b8ff" d="M97.05,-133.65C117.06,-109.68 157.71,-65.22 202,-41 204.67,-39.54 207.42,-38.17 210.24,-36.87"/>
<polygon fill="#63b8ff" stroke="#63b8ff" points="211.41,-40.17 219.29,-33.08 208.71,-33.71 211.41,-40.17"/>
</a>
</g>
</g>
<!-- Node9 -->
<g id="Node000009" class="node">
<title>Node9</title>
<g id="a_Node000009"><a xlink:href="classfr_1_1softsf_1_1sudokufx_1_1viewmodel_1_1grid_1_1_grid_cell_view_model.html#a9544acad3febede6981c9d8440674d3c" target="_top" xlink:title="Updates the label&#39;s font size CSS class and border style based on the current text content.">
<polygon fill="white" stroke="#666666" points="395.75,-144 202,-144 202,-100 395.75,-100 395.75,-144"/>
<text text-anchor="start" x="210" y="-130.5" font-family="Helvetica,sans-Serif" font-size="10.00">fr.softsf.sudokufx.viewmodel.grid.</text>
<text text-anchor="start" x="210" y="-118.5" font-family="Helvetica,sans-Serif" font-size="10.00">GridCellViewModel.updateLabelFontSize</text>
<text text-anchor="middle" x="298.88" y="-106.5" font-family="Helvetica,sans-Serif" font-size="10.00">AndBorderOnTextChange</text>
</a>
</g>
</g>
<!-- Node1&#45;&gt;Node9 -->
<g id="edge9_Node000001_Node000009" class="edge">
<title>Node1&#45;&gt;Node9</title>
<g id="a_edge9_Node000001_Node000009"><a xlink:title=" ">
<path fill="none" stroke="#63b8ff" d="M166.38,-139.21C174.22,-138.19 182.25,-137.14 190.28,-136.09"/>
<polygon fill="#63b8ff" stroke="#63b8ff" points="190.65,-139.57 200.11,-134.8 189.74,-132.63 190.65,-139.57"/>
</a>
</g>
</g>
<!-- Node3 -->
<g id="Node000003" class="node">
<title>Node3</title>
<g id="a_Node000003"><a xlink:href="classfr_1_1softsf_1_1sudokufx_1_1viewmodel_1_1grid_1_1_grid_cell_view_model.html#a02837ccd8bb4343e172b8fe4d7854b25" target="_top" xlink:title="Builds the CSS style for a Sudoku grid cell.">
<polygon fill="white" stroke="#666666" points="811,-213 644.25,-213 644.25,-181 811,-181 811,-213"/>
<text text-anchor="start" x="652.25" y="-199.5" font-family="Helvetica,sans-Serif" font-size="10.00">fr.softsf.sudokufx.viewmodel.grid.</text>
<text text-anchor="middle" x="727.62" y="-187.5" font-family="Helvetica,sans-Serif" font-size="10.00">GridCellViewModel.getBorderStyle</text>
</a>
</g>
</g>
<!-- Node2&#45;&gt;Node3 -->
<g id="edge2_Node000002_Node000003" class="edge">
<title>Node2&#45;&gt;Node3</title>
<g id="a_edge2_Node000002_Node000003"><a xlink:title=" ">
<path fill="none" stroke="#63b8ff" d="M608.5,-197C616.45,-197 624.53,-197 632.53,-197"/>
<polygon fill="#63b8ff" stroke="#63b8ff" points="632.26,-200.5 642.26,-197 632.26,-193.5 632.26,-200.5"/>
</a>
</g>
</g>
<!-- Node7 -->
<g id="Node000007" class="node">
<title>Node7</title>
<g id="a_Node000007"><a xlink:href="classfr_1_1softsf_1_1sudokufx_1_1viewmodel_1_1grid_1_1_grid_cell_view_model.html#ab27ee3baeb1c9260e8617a680a5ef215" target="_top" xlink:title=" ">
<polygon fill="white" stroke="#666666" points="601.88,-57 438.12,-57 438.12,-25 601.88,-25 601.88,-57"/>
<text text-anchor="start" x="446.12" y="-43.5" font-family="Helvetica,sans-Serif" font-size="10.00">fr.softsf.sudokufx.viewmodel.grid.</text>
<text text-anchor="middle" x="520" y="-31.5" font-family="Helvetica,sans-Serif" font-size="10.00">GridCellViewModel.isEditable</text>
</a>
</g>
</g>
<!-- Node6&#45;&gt;Node7 -->
<g id="edge6_Node000006_Node000007" class="edge">
<title>Node6&#45;&gt;Node7</title>
<g id="a_edge6_Node000006_Node000007"><a xlink:title=" ">
<path fill="none" stroke="#63b8ff" d="M385.85,-56.19C399.25,-54.66 413.13,-53.08 426.66,-51.53"/>
<polygon fill="#63b8ff" stroke="#63b8ff" points="426.88,-55.03 436.42,-50.42 426.09,-48.08 426.88,-55.03"/>
</a>
</g>
</g>
<!-- Node8&#45;&gt;Node7 -->
<g id="edge8_Node000008_Node000007" class="edge">
<title>Node8&#45;&gt;Node7</title>
<g id="a_edge8_Node000008_Node000007"><a xlink:title=" ">
<path fill="none" stroke="#63b8ff" d="M390.58,-26.35C402.45,-27.7 414.62,-29.09 426.52,-30.45"/>
<polygon fill="#63b8ff" stroke="#63b8ff" points="425.98,-33.91 436.32,-31.57 426.78,-26.96 425.98,-33.91"/>
</a>
</g>
</g>
<!-- Node9&#45;&gt;Node2 -->
<g id="edge10_Node000009_Node000002" class="edge">
<title>Node9&#45;&gt;Node2</title>
<g id="a_edge10_Node000009_Node000002"><a xlink:title=" ">
<path fill="none" stroke="#63b8ff" d="M370.12,-144.44C378.77,-147.29 387.47,-150.18 395.75,-153 417.91,-160.54 442.2,-169.14 463.32,-176.72"/>
<polygon fill="#63b8ff" stroke="#63b8ff" points="462.02,-179.97 472.61,-180.07 464.39,-173.39 462.02,-179.97"/>
</a>
</g>
</g>
</g>
</svg>
