<?xml version="1.0" encoding="UTF-8" standalone="no"?>
<!DOCTYPE svg PUBLIC "-//W3C//DTD SVG 1.1//EN"
 "http://www.w3.org/Graphics/SVG/1.1/DTD/svg11.dtd">
<!-- Generated by graphviz version 12.2.1 (20241206.2353)
 -->
<!-- Title: fr.softsf.sudokufx.service.business.OptionsService Pages: 1 -->
<svg width="559pt" height="411pt"
 viewBox="0.00 0.00 558.75 411.00" xmlns="http://www.w3.org/2000/svg" xmlns:xlink="http://www.w3.org/1999/xlink">
<g id="graph0" class="graph" transform="scale(1 1) rotate(0) translate(4 407)">
<title>fr.softsf.sudokufx.service.business.OptionsService</title>
<!-- Node1 -->
<g id="Node000001" class="node">
<title>Node1</title>
<g id="a_Node000001"><a xlink:title="Service for managing Options entities.">
<polygon fill="#999999" stroke="none" points="342.25,-128 168.25,-128 168.25,0 342.25,0 342.25,-128"/>
<text text-anchor="start" x="177.25" y="-114.5" font-family="Helvetica,sans-Serif" font-size="10.00">fr.softsf.sudokufx.service.business.</text>
<text text-anchor="start" x="221.88" y="-102.5" font-family="Helvetica,sans-Serif" font-size="10.00">OptionsService</text>
<text text-anchor="start" x="253.75" y="-86.5" font-family="Helvetica,sans-Serif" font-size="10.00"> </text>
<text text-anchor="start" x="172.25" y="-70.5" font-family="Helvetica,sans-Serif" font-size="10.00">+</text>
<text text-anchor="start" x="182.25" y="-70.5" font-family="Helvetica,sans-Serif" font-size="10.00">OptionsService(OptionsRepository</text>
<text text-anchor="start" x="182.25" y="-58.5" font-family="Helvetica,sans-Serif" font-size="10.00"> optionsRepository, IOptionsMapper</text>
<text text-anchor="start" x="182.25" y="-46.5" font-family="Helvetica,sans-Serif" font-size="10.00"> optionsMapper, JakartaValidator</text>
<text text-anchor="start" x="182.25" y="-34.5" font-family="Helvetica,sans-Serif" font-size="10.00"> jakartaValidator)</text>
<text text-anchor="start" x="172.25" y="-18.5" font-family="Helvetica,sans-Serif" font-size="10.00">+</text>
<text text-anchor="start" x="182.25" y="-18.5" font-family="Helvetica,sans-Serif" font-size="10.00">OptionsDto updateOptions</text>
<text text-anchor="start" x="182.25" y="-6.5" font-family="Helvetica,sans-Serif" font-size="10.00">(OptionsDto dto)</text>
<polygon fill="#666666" stroke="#666666" points="168.25,-98 168.25,-98 342.25,-98 342.25,-98 168.25,-98"/>
<polygon fill="#666666" stroke="#666666" points="168.25,-82 168.25,-82 342.25,-82 342.25,-82 168.25,-82"/>
<polygon fill="none" stroke="#666666" points="168.25,0 168.25,-128 342.25,-128 342.25,0 168.25,0"/>
</a>
</g>
</g>
<!-- Node2 -->
<g id="Node000002" class="node">
<title>Node2</title>
<g id="a_Node000002"><a xlink:href="interfacefr_1_1softsf_1_1sudokufx_1_1repository_1_1_options_repository.html" target="_top" xlink:title="Repository interface for Options entities.">
<polygon fill="white" stroke="none" points="132.5,-274 0,-274 0,-210 132.5,-210 132.5,-274"/>
<text text-anchor="start" x="4" y="-260.5" font-family="Helvetica,sans-Serif" font-size="10.00">fr.softsf.sudokufx.repository.</text>
<text text-anchor="start" x="25.75" y="-248.5" font-family="Helvetica,sans-Serif" font-size="10.00">OptionsRepository</text>
<text text-anchor="start" x="64.75" y="-232.5" font-family="Helvetica,sans-Serif" font-size="10.00"> </text>
<text text-anchor="start" x="64.75" y="-216.5" font-family="Helvetica,sans-Serif" font-size="10.00"> </text>
<polygon fill="#666666" stroke="#666666" points="0,-244 0,-244 132.5,-244 132.5,-244 0,-244"/>
<polygon fill="#666666" stroke="#666666" points="0,-228 0,-228 132.5,-228 132.5,-228 0,-228"/>
<polygon fill="none" stroke="#666666" points="0,-210 0,-274 132.5,-274 132.5,-210 0,-210"/>
</a>
</g>
</g>
<!-- Node2&#45;&gt;Node1 -->
<g id="edge1_Node000001_Node000002" class="edge">
<title>Node2&#45;&gt;Node1</title>
<g id="a_edge1_Node000001_Node000002"><a xlink:title=" ">
<path fill="none" stroke="#63b8ff" d="M96.96,-210.22C115.91,-191.42 140.84,-167.04 163.5,-146 166.89,-142.85 170.37,-139.65 173.9,-136.43"/>
<polygon fill="none" stroke="#63b8ff" points="173.76,-136.56 175.51,-129.56 182.65,-128.49 180.89,-135.49 173.76,-136.56"/>
</a>
</g>
<text text-anchor="start" x="166.5" y="-151.5" font-family="Helvetica,sans-Serif" font-size="10.00" fill="grey">&#45;optionsRepository</text>
</g>
<!-- Node3 -->
<g id="Node000003" class="node">
<title>Node3</title>
<g id="a_Node000003"><a xlink:title=" ">
<polygon fill="white" stroke="none" points="124.62,-403 7.87,-403 7.87,-339 124.62,-339 124.62,-403"/>
<text text-anchor="start" x="11.88" y="-389.5" font-family="Helvetica,sans-Serif" font-size="10.00">JpaRepository&lt; Options,</text>
<text text-anchor="start" x="49.75" y="-377.5" font-family="Helvetica,sans-Serif" font-size="10.00"> Long &gt;</text>
<text text-anchor="start" x="64.75" y="-361.5" font-family="Helvetica,sans-Serif" font-size="10.00"> </text>
<text text-anchor="start" x="64.75" y="-345.5" font-family="Helvetica,sans-Serif" font-size="10.00"> </text>
<polygon fill="#666666" stroke="#666666" points="7.88,-373 7.88,-373 124.62,-373 124.62,-373 7.88,-373"/>
<polygon fill="#666666" stroke="#666666" points="7.88,-357 7.88,-357 124.62,-357 124.62,-357 7.88,-357"/>
<polygon fill="none" stroke="#666666" points="7.88,-339 7.88,-403 124.62,-403 124.62,-339 7.88,-339"/>
</a>
</g>
</g>
<!-- Node3&#45;&gt;Node2 -->
<g id="edge2_Node000002_Node000003" class="edge">
<title>Node3&#45;&gt;Node2</title>
<g id="a_edge2_Node000002_Node000003"><a xlink:title=" ">
<path fill="none" stroke="#63b8ff" d="M66.25,-327.82C66.25,-310.2 66.25,-290.11 66.25,-273.9"/>
<polygon fill="none" stroke="#63b8ff" points="62.75,-327.74 66.25,-337.74 69.75,-327.74 62.75,-327.74"/>
</a>
</g>
</g>
<!-- Node4 -->
<g id="Node000004" class="node">
<title>Node4</title>
<g id="a_Node000004"><a xlink:href="interfacefr_1_1softsf_1_1sudokufx_1_1common_1_1interfaces_1_1mapper_1_1_i_options_mapper.html" target="_top" xlink:title="This interface defines methods for mapping objects of type Options to objects of type OptionsDto and ...">
<polygon fill="white" stroke="none" points="359.75,-294 150.75,-294 150.75,-190 359.75,-190 359.75,-294"/>
<text text-anchor="start" x="154.75" y="-280.5" font-family="Helvetica,sans-Serif" font-size="10.00">fr.softsf.sudokufx.common.interfaces.mapper.</text>
<text text-anchor="start" x="220.75" y="-268.5" font-family="Helvetica,sans-Serif" font-size="10.00">IOptionsMapper</text>
<text text-anchor="start" x="253.75" y="-252.5" font-family="Helvetica,sans-Serif" font-size="10.00"> </text>
<text text-anchor="start" x="165.19" y="-236.5" font-family="Helvetica,sans-Serif" font-size="10.00">+</text>
<text text-anchor="start" x="185.62" y="-236.5" font-family="Helvetica,sans-Serif" font-size="10.00">Options mapOptionsDtoToOptions</text>
<text text-anchor="start" x="185.62" y="-224.5" font-family="Helvetica,sans-Serif" font-size="10.00">(OptionsDto dto)</text>
<text text-anchor="start" x="165.19" y="-208.5" font-family="Helvetica,sans-Serif" font-size="10.00">+</text>
<text text-anchor="start" x="185.62" y="-208.5" font-family="Helvetica,sans-Serif" font-size="10.00">OptionsDto mapOptionsToDto</text>
<text text-anchor="start" x="185.62" y="-196.5" font-family="Helvetica,sans-Serif" font-size="10.00">(Options options)</text>
<polygon fill="#666666" stroke="#666666" points="150.75,-264 150.75,-264 359.75,-264 359.75,-264 150.75,-264"/>
<polygon fill="#666666" stroke="#666666" points="150.75,-248 150.75,-248 359.75,-248 359.75,-248 150.75,-248"/>
<polygon fill="none" stroke="#666666" points="150.75,-190 150.75,-294 359.75,-294 359.75,-190 150.75,-190"/>
</a>
</g>
</g>
<!-- Node4&#45;&gt;Node1 -->
<g id="edge3_Node000001_Node000004" class="edge">
<title>Node4&#45;&gt;Node1</title>
<g id="a_edge3_Node000001_Node000004"><a xlink:title=" ">
<path fill="none" stroke="#63b8ff" d="M255.25,-190.09C255.25,-174.64 255.25,-157.32 255.25,-140.61"/>
<polygon fill="none" stroke="#63b8ff" points="255.25,-140.89 251.25,-134.89 255.25,-128.89 259.25,-134.89 255.25,-140.89"/>
</a>
</g>
<text text-anchor="start" x="258.25" y="-151.5" font-family="Helvetica,sans-Serif" font-size="10.00" fill="grey">&#45;optionsMapper</text>
</g>
<!-- Node5 -->
<g id="Node000005" class="node">
<title>Node5</title>
<g id="a_Node000005"><a xlink:href="classfr_1_1softsf_1_1sudokufx_1_1common_1_1exception_1_1_jakarta_validator.html" target="_top" xlink:title="Spring component for validating objects using Jakarta Bean Validation.">
<polygon fill="white" stroke="none" points="550.75,-302 377.75,-302 377.75,-182 550.75,-182 550.75,-302"/>
<text text-anchor="start" x="381.75" y="-288.5" font-family="Helvetica,sans-Serif" font-size="10.00">fr.softsf.sudokufx.common.exception.</text>
<text text-anchor="start" x="429.38" y="-276.5" font-family="Helvetica,sans-Serif" font-size="10.00">JakartaValidator</text>
<text text-anchor="start" x="394.44" y="-260.5" font-family="Helvetica,sans-Serif" font-size="10.00">&#45;</text>
<text text-anchor="start" x="414.12" y="-260.5" font-family="Helvetica,sans-Serif" font-size="10.00">final Validator validator</text>
<text text-anchor="start" x="394.44" y="-244.5" font-family="Helvetica,sans-Serif" font-size="10.00">&#45;</text>
<text text-anchor="start" x="414.12" y="-244.5" font-family="Helvetica,sans-Serif" font-size="10.00">static final Logger LOG</text>
<text text-anchor="start" x="392.94" y="-228.5" font-family="Helvetica,sans-Serif" font-size="10.00">+</text>
<text text-anchor="start" x="414.12" y="-228.5" font-family="Helvetica,sans-Serif" font-size="10.00">JakartaValidator(Validator</text>
<text text-anchor="start" x="414.12" y="-216.5" font-family="Helvetica,sans-Serif" font-size="10.00"> validator)</text>
<text text-anchor="start" x="392.94" y="-200.5" font-family="Helvetica,sans-Serif" font-size="10.00">~</text>
<text text-anchor="start" x="414.12" y="-200.5" font-family="Helvetica,sans-Serif" font-size="10.00">public&lt; T &gt; T validateOr</text>
<text text-anchor="start" x="414.12" y="-188.5" font-family="Helvetica,sans-Serif" font-size="10.00">Throw(T obj)</text>
<polygon fill="#666666" stroke="#666666" points="377.75,-272 377.75,-272 550.75,-272 550.75,-272 377.75,-272"/>
<polygon fill="#666666" stroke="#666666" points="377.75,-240 377.75,-240 412.12,-240 412.12,-240 377.75,-240"/>
<polygon fill="#666666" stroke="#666666" points="412.12,-240 412.12,-240 550.75,-240 550.75,-240 412.12,-240"/>
<polygon fill="none" stroke="#666666" points="377.75,-182 377.75,-302 550.75,-302 550.75,-182 377.75,-182"/>
</a>
</g>
</g>
<!-- Node5&#45;&gt;Node1 -->
<g id="edge4_Node000001_Node000005" class="edge">
<title>Node5&#45;&gt;Node1</title>
<g id="a_edge4_Node000001_Node000005"><a xlink:title=" ">
<path fill="none" stroke="#63b8ff" d="M394.37,-182.15C376.84,-167.39 357.86,-151.41 339.71,-136.12"/>
<polygon fill="none" stroke="#63b8ff" points="339.6,-136.03 332.43,-135.22 330.42,-128.3 337.58,-129.1 339.6,-136.03"/>
</a>
</g>
<text text-anchor="start" x="375.26" y="-151.5" font-family="Helvetica,sans-Serif" font-size="10.00" fill="grey">&#45;jakartaValidator</text>
</g>
</g>
</svg>
