<?xml version="1.0" encoding="UTF-8" standalone="no"?>
<!DOCTYPE svg PUBLIC "-//W3C//DTD SVG 1.1//EN"
 "http://www.w3.org/Graphics/SVG/1.1/DTD/svg11.dtd">
<!-- Generated by graphviz version 12.2.1 (20241206.2353)
 -->
<!-- Title: fr.softsf.sudokufx.view.util.GenericListViewFactory.configurePlayerListView Pages: 1 -->
<svg width="417pt" height="412pt"
 viewBox="0.00 0.00 416.50 412.00" xmlns="http://www.w3.org/2000/svg" xmlns:xlink="http://www.w3.org/1999/xlink">

<svg id="main" version="1.1" xmlns="http://www.w3.org/2000/svg" xmlns:xlink="http://www.w3.org/1999/xlink" xml:space="preserve">

<style type="text/css"><![CDATA[
.node, .edge {opacity: 0.7;}
.node.selected, .edge.selected {opacity: 1;}
.edge:hover path { stroke: red; }
.edge:hover polygon { stroke: red; fill: red; }
]]></style>
<script type="application/ecmascript" xlink:href="svg.min.js"/>
<svg id="graph" class="graph">
<g id="graph0" class="graph" transform="scale(1 1) rotate(0) translate(4 408)">
<title>fr.softsf.sudokufx.view.util.GenericListViewFactory.configurePlayerListView</title>
<!-- Node1 -->
<g id="Node000001" class="node">
<title>Node1</title>
<g id="a_Node000001"><a xlink:title="Configures the ListView used in the player menu.">
<polygon fill="#999999" stroke="#666666" points="162.25,-224 0,-224 0,-180 162.25,-180 162.25,-224"/>
<text text-anchor="start" x="8" y="-210.5" font-family="Helvetica,sans-Serif" font-size="10.00">fr.softsf.sudokufx.view.util.</text>
<text text-anchor="start" x="8" y="-198.5" font-family="Helvetica,sans-Serif" font-size="10.00">GenericListViewFactory.configure</text>
<text text-anchor="middle" x="81.12" y="-186.5" font-family="Helvetica,sans-Serif" font-size="10.00">PlayerListView</text>
</a>
</g>
</g>
<!-- Node2 -->
<g id="Node000002" class="node">
<title>Node2</title>
<g id="a_Node000002"><a xlink:href="classfr_1_1softsf_1_1sudokufx_1_1viewmodel_1_1_menu_player_view_model.html#acc1ffae6b7e4a182e7e7a1eca17481a3" target="_top" xlink:title=" ">
<polygon fill="white" stroke="#666666" points="408.5,-404 198.25,-404 198.25,-360 408.5,-360 408.5,-404"/>
<text text-anchor="start" x="206.25" y="-390.5" font-family="Helvetica,sans-Serif" font-size="10.00">fr.softsf.sudokufx.viewmodel.</text>
<text text-anchor="start" x="206.25" y="-378.5" font-family="Helvetica,sans-Serif" font-size="10.00">MenuPlayerViewModel.cellButtonAccessible</text>
<text text-anchor="middle" x="303.38" y="-366.5" font-family="Helvetica,sans-Serif" font-size="10.00">TextProperty</text>
</a>
</g>
</g>
<!-- Node1&#45;&gt;Node2 -->
<g id="edge1_Node000001_Node000002" class="edge">
<title>Node1&#45;&gt;Node2</title>
<g id="a_edge1_Node000001_Node000002"><a xlink:title=" ">
<path fill="none" stroke="#63b8ff" d="M93.56,-224.25C111.47,-256.9 149.23,-317.53 198.25,-351 199.83,-352.08 201.45,-353.12 203.1,-354.13"/>
<polygon fill="#63b8ff" stroke="#63b8ff" points="201.1,-357.02 211.55,-358.78 204.47,-350.89 201.1,-357.02"/>
</a>
</g>
</g>
<!-- Node3 -->
<g id="Node000003" class="node">
<title>Node3</title>
<g id="a_Node000003"><a xlink:href="classfr_1_1softsf_1_1sudokufx_1_1viewmodel_1_1_menu_player_view_model.html#aca9b0ca160159d7c96f67d5a19062e99" target="_top" xlink:title=" ">
<polygon fill="white" stroke="#666666" points="398,-342 208.75,-342 208.75,-298 398,-298 398,-342"/>
<text text-anchor="start" x="216.75" y="-328.5" font-family="Helvetica,sans-Serif" font-size="10.00">fr.softsf.sudokufx.viewmodel.</text>
<text text-anchor="start" x="216.75" y="-316.5" font-family="Helvetica,sans-Serif" font-size="10.00">MenuPlayerViewModel.cellConfirmation</text>
<text text-anchor="middle" x="303.38" y="-304.5" font-family="Helvetica,sans-Serif" font-size="10.00">MessageProperty</text>
</a>
</g>
</g>
<!-- Node1&#45;&gt;Node3 -->
<g id="edge2_Node000001_Node000003" class="edge">
<title>Node1&#45;&gt;Node3</title>
<g id="a_edge2_Node000001_Node000003"><a xlink:title=" ">
<path fill="none" stroke="#63b8ff" d="M106.24,-224.12C128.61,-243.62 163.6,-271.56 198.25,-289 201.13,-290.45 204.1,-291.85 207.11,-293.19"/>
<polygon fill="#63b8ff" stroke="#63b8ff" points="205.59,-296.34 216.16,-296.95 208.28,-289.88 205.59,-296.34"/>
</a>
</g>
</g>
<!-- Node4 -->
<g id="Node000004" class="node">
<title>Node4</title>
<g id="a_Node000004"><a xlink:href="classfr_1_1softsf_1_1sudokufx_1_1viewmodel_1_1_menu_player_view_model.html#a3eafd2b6fcea2b1e01fb6691993d0f64" target="_top" xlink:title=" ">
<polygon fill="white" stroke="#666666" points="398,-280 208.75,-280 208.75,-236 398,-236 398,-280"/>
<text text-anchor="start" x="216.75" y="-266.5" font-family="Helvetica,sans-Serif" font-size="10.00">fr.softsf.sudokufx.viewmodel.</text>
<text text-anchor="start" x="216.75" y="-254.5" font-family="Helvetica,sans-Serif" font-size="10.00">MenuPlayerViewModel.cellConfirmation</text>
<text text-anchor="middle" x="303.38" y="-242.5" font-family="Helvetica,sans-Serif" font-size="10.00">TitleProperty</text>
</a>
</g>
</g>
<!-- Node1&#45;&gt;Node4 -->
<g id="edge3_Node000001_Node000004" class="edge">
<title>Node1&#45;&gt;Node4</title>
<g id="a_edge3_Node000001_Node000004"><a xlink:title=" ">
<path fill="none" stroke="#63b8ff" d="M162.58,-222.45C175.76,-225.81 189.56,-229.32 203.14,-232.77"/>
<polygon fill="#63b8ff" stroke="#63b8ff" points="201.94,-236.08 212.5,-235.15 203.67,-229.29 201.94,-236.08"/>
</a>
</g>
</g>
<!-- Node5 -->
<g id="Node000005" class="node">
<title>Node5</title>
<g id="a_Node000005"><a xlink:href="classfr_1_1softsf_1_1sudokufx_1_1viewmodel_1_1_menu_player_view_model.html#aae474a3cd1a79843b3162b9ac692ac90" target="_top" xlink:title=" ">
<polygon fill="white" stroke="#666666" points="386,-218 220.75,-218 220.75,-186 386,-186 386,-218"/>
<text text-anchor="start" x="228.75" y="-204.5" font-family="Helvetica,sans-Serif" font-size="10.00">fr.softsf.sudokufx.viewmodel.</text>
<text text-anchor="middle" x="303.38" y="-192.5" font-family="Helvetica,sans-Serif" font-size="10.00">MenuPlayerViewModel.getPlayers</text>
</a>
</g>
</g>
<!-- Node1&#45;&gt;Node5 -->
<g id="edge4_Node000001_Node000005" class="edge">
<title>Node1&#45;&gt;Node5</title>
<g id="a_edge4_Node000001_Node000005"><a xlink:title=" ">
<path fill="none" stroke="#63b8ff" d="M162.58,-202C177.7,-202 193.64,-202 209.12,-202"/>
<polygon fill="#63b8ff" stroke="#63b8ff" points="208.78,-205.5 218.78,-202 208.78,-198.5 208.78,-205.5"/>
</a>
</g>
</g>
<!-- Node6 -->
<g id="Node000006" class="node">
<title>Node6</title>
<g id="a_Node000006"><a xlink:href="classfr_1_1softsf_1_1sudokufx_1_1viewmodel_1_1_menu_player_view_model.html#a71605f1cde24d333d9e5cb4b445c274c" target="_top" xlink:title=" ">
<polygon fill="white" stroke="#666666" points="395,-168 211.75,-168 211.75,-124 395,-124 395,-168"/>
<text text-anchor="start" x="219.75" y="-154.5" font-family="Helvetica,sans-Serif" font-size="10.00">fr.softsf.sudokufx.viewmodel.</text>
<text text-anchor="start" x="219.75" y="-142.5" font-family="Helvetica,sans-Serif" font-size="10.00">MenuPlayerViewModel.selectedPlayer</text>
<text text-anchor="middle" x="303.38" y="-130.5" font-family="Helvetica,sans-Serif" font-size="10.00">Property</text>
</a>
</g>
</g>
<!-- Node1&#45;&gt;Node6 -->
<g id="edge5_Node000001_Node000006" class="edge">
<title>Node1&#45;&gt;Node6</title>
<g id="a_edge5_Node000001_Node000006"><a xlink:title=" ">
<path fill="none" stroke="#63b8ff" d="M162.58,-181.55C175.76,-178.19 189.56,-174.68 203.14,-171.23"/>
<polygon fill="#63b8ff" stroke="#63b8ff" points="203.67,-174.71 212.5,-168.85 201.94,-167.92 203.67,-174.71"/>
</a>
</g>
</g>
<!-- Node7 -->
<g id="Node000007" class="node">
<title>Node7</title>
<g id="a_Node000007"><a xlink:href="classfr_1_1softsf_1_1sudokufx_1_1view_1_1util_1_1_generic_list_view_factory.html#a649020523675d71d2bdf3040a1aa0c13" target="_top" xlink:title="Binds the selection of a ListView bidirectionally with a Property.">
<polygon fill="white" stroke="#666666" points="403.25,-106 203.5,-106 203.5,-62 403.25,-62 403.25,-106"/>
<text text-anchor="start" x="211.5" y="-92.5" font-family="Helvetica,sans-Serif" font-size="10.00">fr.softsf.sudokufx.view.util.</text>
<text text-anchor="start" x="211.5" y="-80.5" font-family="Helvetica,sans-Serif" font-size="10.00">GenericListViewFactory.setupBidirectional</text>
<text text-anchor="middle" x="303.38" y="-68.5" font-family="Helvetica,sans-Serif" font-size="10.00">Selection</text>
</a>
</g>
</g>
<!-- Node1&#45;&gt;Node7 -->
<g id="edge6_Node000001_Node000007" class="edge">
<title>Node1&#45;&gt;Node7</title>
<g id="a_edge6_Node000001_Node000007"><a xlink:title=" ">
<path fill="none" stroke="#63b8ff" d="M106.24,-179.88C128.61,-160.38 163.6,-132.44 198.25,-115 201.13,-113.55 204.1,-112.15 207.11,-110.81"/>
<polygon fill="#63b8ff" stroke="#63b8ff" points="208.28,-114.12 216.16,-107.05 205.59,-107.66 208.28,-114.12"/>
</a>
</g>
</g>
<!-- Node8 -->
<g id="Node000008" class="node">
<title>Node8</title>
<g id="a_Node000008"><a xlink:href="classfr_1_1softsf_1_1sudokufx_1_1view_1_1util_1_1_generic_list_view_factory.html#acae6d879cc76140491e38a8f889fe790" target="_top" xlink:title="Applies rounded clipping to the given ListView using the provided Rectangle.">
<polygon fill="white" stroke="#666666" points="384.5,-44 222.25,-44 222.25,0 384.5,0 384.5,-44"/>
<text text-anchor="start" x="230.25" y="-30.5" font-family="Helvetica,sans-Serif" font-size="10.00">fr.softsf.sudokufx.view.util.</text>
<text text-anchor="start" x="230.25" y="-18.5" font-family="Helvetica,sans-Serif" font-size="10.00">GenericListViewFactory.setupList</text>
<text text-anchor="middle" x="303.38" y="-6.5" font-family="Helvetica,sans-Serif" font-size="10.00">ViewClip</text>
</a>
</g>
</g>
<!-- Node1&#45;&gt;Node8 -->
<g id="edge7_Node000001_Node000008" class="edge">
<title>Node1&#45;&gt;Node8</title>
<g id="a_edge7_Node000001_Node000008"><a xlink:title=" ">
<path fill="none" stroke="#63b8ff" d="M93.56,-179.75C111.47,-147.1 149.23,-86.47 198.25,-53 202.44,-50.14 206.89,-47.54 211.52,-45.18"/>
<polygon fill="#63b8ff" stroke="#63b8ff" points="212.9,-48.39 220.49,-41.01 209.94,-42.05 212.9,-48.39"/>
</a>
</g>
</g>
</g>
</svg>
</svg>

<style type='text/css'>
<![CDATA[
[data-mouse-over-selected='false'] { opacity: 0.7; }
[data-mouse-over-selected='true']  { opacity: 1.0; }
]]>
</style>
<script type="application/ecmascript"><![CDATA[
document.addEventListener('DOMContentLoaded', (event) => {
  highlightEdges();
  highlightAdjacentNodes();
});
]]></script>
</svg>
