<?xml version="1.0" encoding="UTF-8" standalone="no"?>
<!DOCTYPE svg PUBLIC "-//W3C//DTD SVG 1.1//EN"
 "http://www.w3.org/Graphics/SVG/1.1/DTD/svg11.dtd">
<!-- Generated by graphviz version 12.2.1 (20241206.2353)
 -->
<!-- Title: fr.softsf.sudokufx.view.DefaultView.initialize Pages: 1 -->
<svg width="782pt" height="664pt"
 viewBox="0.00 0.00 781.50 664.00" xmlns="http://www.w3.org/2000/svg" xmlns:xlink="http://www.w3.org/1999/xlink">
<g id="graph0" class="graph" transform="scale(1 1) rotate(0) translate(4 660)">
<title>fr.softsf.sudokufx.view.DefaultView.initialize</title>
<!-- Node1 -->
<g id="Node000001" class="node">
<title>Node1</title>
<g id="a_Node000001"><a xlink:title="Initializes the default view.">
<polygon fill="#999999" stroke="#666666" points="118,-332 0,-332 0,-300 118,-300 118,-332"/>
<text text-anchor="start" x="8" y="-318.5" font-family="Helvetica,sans-Serif" font-size="10.00">fr.softsf.sudokufx.view.</text>
<text text-anchor="middle" x="59" y="-306.5" font-family="Helvetica,sans-Serif" font-size="10.00">DefaultView.initialize</text>
</a>
</g>
</g>
<!-- Node2 -->
<g id="Node000002" class="node">
<title>Node2</title>
<g id="a_Node000002"><a xlink:href="classfr_1_1softsf_1_1sudokufx_1_1view_1_1_default_view.html#a842f4799fbccb6507d669da06f95554c" target="_top" xlink:title="Initializes bindings between each menu pane&#39;s visibility and managed state and the corresponding valu...">
<polygon fill="white" stroke="#666666" points="332,-656 172.75,-656 172.75,-612 332,-612 332,-656"/>
<text text-anchor="start" x="180.75" y="-642.5" font-family="Helvetica,sans-Serif" font-size="10.00">fr.softsf.sudokufx.view.</text>
<text text-anchor="start" x="180.75" y="-630.5" font-family="Helvetica,sans-Serif" font-size="10.00">DefaultView.activeMenuManager</text>
<text text-anchor="middle" x="252.38" y="-618.5" font-family="Helvetica,sans-Serif" font-size="10.00">Initialization</text>
</a>
</g>
</g>
<!-- Node1&#45;&gt;Node2 -->
<g id="edge1_Node000001_Node000002" class="edge">
<title>Node1&#45;&gt;Node2</title>
<g id="a_edge1_Node000001_Node000002"><a xlink:title=" ">
<path fill="none" stroke="#63b8ff" d="M60.41,-332.27C62.53,-380.64 75.45,-525.1 154,-603 156.79,-605.77 159.83,-608.29 163.06,-610.59"/>
<polygon fill="#63b8ff" stroke="#63b8ff" points="160.94,-613.4 171.28,-615.69 164.63,-607.45 160.94,-613.4"/>
</a>
</g>
</g>
<!-- Node4 -->
<g id="Node000004" class="node">
<title>Node4</title>
<g id="a_Node000004"><a xlink:href="classfr_1_1softsf_1_1sudokufx_1_1view_1_1_default_view.html#a9af1a37feb2a608a4e057ec28e91c74f" target="_top" xlink:title="Adds each cell&#39;s Label and TextArea to the GridPane at positions calculated from their index in a 9x9...">
<polygon fill="white" stroke="#666666" points="321.88,-594 182.88,-594 182.88,-562 321.88,-562 321.88,-594"/>
<text text-anchor="start" x="190.88" y="-580.5" font-family="Helvetica,sans-Serif" font-size="10.00">fr.softsf.sudokufx.view.</text>
<text text-anchor="middle" x="252.38" y="-568.5" font-family="Helvetica,sans-Serif" font-size="10.00">DefaultView.gridInitialization</text>
</a>
</g>
</g>
<!-- Node1&#45;&gt;Node4 -->
<g id="edge3_Node000001_Node000004" class="edge">
<title>Node1&#45;&gt;Node4</title>
<g id="a_edge3_Node000001_Node000004"><a xlink:title=" ">
<path fill="none" stroke="#63b8ff" d="M61.49,-332.38C66.31,-375.42 85.42,-492.57 154,-553 159.37,-557.73 165.52,-561.59 172.06,-564.73"/>
<polygon fill="#63b8ff" stroke="#63b8ff" points="170.63,-567.93 181.21,-568.52 173.31,-561.46 170.63,-567.93"/>
</a>
</g>
</g>
<!-- Node5 -->
<g id="Node000005" class="node">
<title>Node5</title>
<g id="a_Node000005"><a xlink:href="classfr_1_1softsf_1_1sudokufx_1_1view_1_1_default_view.html#aa5a9a05a6dbf8f7dda34e11bc1089a88" target="_top" xlink:title="Initializes the hidden menu by binding its show button&#39;s accessible text and tooltip to the ViewModel...">
<polygon fill="white" stroke="#666666" points="340.25,-544 164.5,-544 164.5,-512 340.25,-512 340.25,-544"/>
<text text-anchor="start" x="172.5" y="-530.5" font-family="Helvetica,sans-Serif" font-size="10.00">fr.softsf.sudokufx.view.</text>
<text text-anchor="middle" x="252.38" y="-518.5" font-family="Helvetica,sans-Serif" font-size="10.00">DefaultView.hiddenMenuInitialization</text>
</a>
</g>
</g>
<!-- Node1&#45;&gt;Node5 -->
<g id="edge4_Node000001_Node000005" class="edge">
<title>Node1&#45;&gt;Node5</title>
<g id="a_edge4_Node000001_Node000005"><a xlink:title=" ">
<path fill="none" stroke="#63b8ff" d="M63.4,-332.38C71.87,-368.92 97.41,-457.41 154,-503 155.15,-503.92 156.32,-504.81 157.53,-505.67"/>
<polygon fill="#63b8ff" stroke="#63b8ff" points="155.59,-508.59 165.94,-510.84 159.25,-502.62 155.59,-508.59"/>
</a>
</g>
</g>
<!-- Node6 -->
<g id="Node000006" class="node">
<title>Node6</title>
<g id="a_Node000006"><a xlink:href="classfr_1_1softsf_1_1sudokufx_1_1view_1_1_default_view.html#a698b4472ecfcd376baf10103eb2c6abf" target="_top" xlink:title="Initializes a Timeline that hides the MINI menu after AUTO_HIDE_MINI_MENU_DELAY_MS milliseconds if it...">
<polygon fill="white" stroke="#666666" points="336.5,-494 168.25,-494 168.25,-450 336.5,-450 336.5,-494"/>
<text text-anchor="start" x="176.25" y="-480.5" font-family="Helvetica,sans-Serif" font-size="10.00">fr.softsf.sudokufx.view.</text>
<text text-anchor="start" x="176.25" y="-468.5" font-family="Helvetica,sans-Serif" font-size="10.00">DefaultView.hideMiniMenuTimeline</text>
<text text-anchor="middle" x="252.38" y="-456.5" font-family="Helvetica,sans-Serif" font-size="10.00">Initialization</text>
</a>
</g>
</g>
<!-- Node1&#45;&gt;Node6 -->
<g id="edge5_Node000001_Node000006" class="edge">
<title>Node1&#45;&gt;Node6</title>
<g id="a_edge5_Node000001_Node000006"><a xlink:title=" ">
<path fill="none" stroke="#63b8ff" d="M68,-332.37C81.85,-359.03 112.81,-411.77 154,-441 155.54,-442.09 157.12,-443.15 158.74,-444.17"/>
<polygon fill="#63b8ff" stroke="#63b8ff" points="156.59,-446.98 167.02,-448.88 160.06,-440.89 156.59,-446.98"/>
</a>
</g>
</g>
<!-- Node7 -->
<g id="Node000007" class="node">
<title>Node7</title>
<g id="a_Node000007"><a xlink:href="classfr_1_1softsf_1_1sudokufx_1_1view_1_1_default_view.html#a8f244e76c83f37d4050b585d3991815e" target="_top" xlink:title="Initializes each difficulty level section in the menu by binding UI components to ViewModel propertie...">
<polygon fill="white" stroke="#666666" points="338.75,-432 166,-432 166,-400 338.75,-400 338.75,-432"/>
<text text-anchor="start" x="174" y="-418.5" font-family="Helvetica,sans-Serif" font-size="10.00">fr.softsf.sudokufx.view.</text>
<text text-anchor="middle" x="252.38" y="-406.5" font-family="Helvetica,sans-Serif" font-size="10.00">DefaultView.levelsMenuInitialization</text>
</a>
</g>
</g>
<!-- Node1&#45;&gt;Node7 -->
<g id="edge6_Node000001_Node000007" class="edge">
<title>Node1&#45;&gt;Node7</title>
<g id="a_edge6_Node000001_Node000007"><a xlink:title=" ">
<path fill="none" stroke="#63b8ff" d="M76.14,-332.49C93.76,-349.56 123.54,-375.82 154,-391 157.24,-392.62 160.6,-394.13 164.03,-395.56"/>
<polygon fill="#63b8ff" stroke="#63b8ff" points="162.5,-398.72 173.09,-399.02 165,-392.18 162.5,-398.72"/>
</a>
</g>
</g>
<!-- Node15 -->
<g id="Node000015" class="node">
<title>Node15</title>
<g id="a_Node000015"><a xlink:href="classfr_1_1softsf_1_1sudokufx_1_1view_1_1_default_view.html#abd0dd12e7969cb6bc61d24f7a4f6ee75" target="_top" xlink:title="Initializes the maxi menu components by binding their labels, accessible texts, and tooltips to the c...">
<polygon fill="white" stroke="#666666" points="336.5,-382 168.25,-382 168.25,-350 336.5,-350 336.5,-382"/>
<text text-anchor="start" x="176.25" y="-368.5" font-family="Helvetica,sans-Serif" font-size="10.00">fr.softsf.sudokufx.view.</text>
<text text-anchor="middle" x="252.38" y="-356.5" font-family="Helvetica,sans-Serif" font-size="10.00">DefaultView.maxiMenuInitialization</text>
</a>
</g>
</g>
<!-- Node1&#45;&gt;Node15 -->
<g id="edge14_Node000001_Node000015" class="edge">
<title>Node1&#45;&gt;Node15</title>
<g id="a_edge14_Node000001_Node000015"><a xlink:title=" ">
<path fill="none" stroke="#63b8ff" d="M118.4,-331.61C130.18,-334.74 142.48,-337.99 154,-341 161.06,-342.85 168.42,-344.76 175.78,-346.66"/>
<polygon fill="#63b8ff" stroke="#63b8ff" points="174.91,-350.05 185.46,-349.16 176.66,-343.27 174.91,-350.05"/>
</a>
</g>
</g>
<!-- Node16 -->
<g id="Node000016" class="node">
<title>Node16</title>
<g id="a_Node000016"><a xlink:href="classfr_1_1softsf_1_1sudokufx_1_1view_1_1_default_view.html#a102802b83cb4b7d16ad9b5647790a805" target="_top" xlink:title="Initializes the mini menu by binding all buttons&#39; texts and tooltips to their respective ViewModel pr...">
<polygon fill="white" stroke="#666666" points="335,-332 169.75,-332 169.75,-300 335,-300 335,-332"/>
<text text-anchor="start" x="177.75" y="-318.5" font-family="Helvetica,sans-Serif" font-size="10.00">fr.softsf.sudokufx.view.</text>
<text text-anchor="middle" x="252.38" y="-306.5" font-family="Helvetica,sans-Serif" font-size="10.00">DefaultView.miniMenuInitialization</text>
</a>
</g>
</g>
<!-- Node1&#45;&gt;Node16 -->
<g id="edge15_Node000001_Node000016" class="edge">
<title>Node1&#45;&gt;Node16</title>
<g id="a_edge15_Node000001_Node000016"><a xlink:title=" ">
<path fill="none" stroke="#63b8ff" d="M118.46,-316C131,-316 144.54,-316 158.03,-316"/>
<polygon fill="#63b8ff" stroke="#63b8ff" points="157.81,-319.5 167.81,-316 157.81,-312.5 157.81,-319.5"/>
</a>
</g>
</g>
<!-- Node17 -->
<g id="Node000017" class="node">
<title>Node17</title>
<g id="a_Node000017"><a xlink:href="classfr_1_1softsf_1_1sudokufx_1_1view_1_1_default_view.html#a364924a9e9ac437e3343ca332ae076fb" target="_top" xlink:title="Binds &quot;New&quot; menu UI elements to the ViewModel for text, accessibility, visibility,...">
<polygon fill="white" stroke="#666666" points="335,-282 169.75,-282 169.75,-250 335,-250 335,-282"/>
<text text-anchor="start" x="177.75" y="-268.5" font-family="Helvetica,sans-Serif" font-size="10.00">fr.softsf.sudokufx.view.</text>
<text text-anchor="middle" x="252.38" y="-256.5" font-family="Helvetica,sans-Serif" font-size="10.00">DefaultView.newMenuInitialization</text>
</a>
</g>
</g>
<!-- Node1&#45;&gt;Node17 -->
<g id="edge16_Node000001_Node000017" class="edge">
<title>Node1&#45;&gt;Node17</title>
<g id="a_edge16_Node000001_Node000017"><a xlink:title=" ">
<path fill="none" stroke="#63b8ff" d="M118.4,-300.39C130.18,-297.26 142.48,-294.01 154,-291 161.06,-289.15 168.42,-287.24 175.78,-285.34"/>
<polygon fill="#63b8ff" stroke="#63b8ff" points="176.66,-288.73 185.46,-282.84 174.91,-281.95 176.66,-288.73"/>
</a>
</g>
</g>
<!-- Node18 -->
<g id="Node000018" class="node">
<title>Node18</title>
<g id="a_Node000018"><a xlink:href="classfr_1_1softsf_1_1sudokufx_1_1view_1_1_default_view.html#a0df8e0cbd22b33b0ede8a2d9f4307107" target="_top" xlink:title="Initializes and binds all UI components of the options menu to the MenuOptionsViewModel.">
<polygon fill="white" stroke="#666666" points="341.75,-232 163,-232 163,-200 341.75,-200 341.75,-232"/>
<text text-anchor="start" x="171" y="-218.5" font-family="Helvetica,sans-Serif" font-size="10.00">fr.softsf.sudokufx.view.</text>
<text text-anchor="middle" x="252.38" y="-206.5" font-family="Helvetica,sans-Serif" font-size="10.00">DefaultView.optionsMenuInitialization</text>
</a>
</g>
</g>
<!-- Node1&#45;&gt;Node18 -->
<g id="edge17_Node000001_Node000018" class="edge">
<title>Node1&#45;&gt;Node18</title>
<g id="a_edge17_Node000001_Node000018"><a xlink:title=" ">
<path fill="none" stroke="#63b8ff" d="M76.14,-299.51C93.76,-282.44 123.54,-256.18 154,-241 157.24,-239.38 160.6,-237.87 164.03,-236.44"/>
<polygon fill="#63b8ff" stroke="#63b8ff" points="165,-239.82 173.09,-232.98 162.5,-233.28 165,-239.82"/>
</a>
</g>
</g>
<!-- Node20 -->
<g id="Node000020" class="node">
<title>Node20</title>
<g id="a_Node000020"><a xlink:href="classfr_1_1softsf_1_1sudokufx_1_1view_1_1_default_view.html#a084dbf4edfe7c82d0eee95e6ff0ee807" target="_top" xlink:title="Initializes bindings and event listeners for the player menu components.">
<polygon fill="white" stroke="#666666" points="339.12,-182 165.62,-182 165.62,-150 339.12,-150 339.12,-182"/>
<text text-anchor="start" x="173.62" y="-168.5" font-family="Helvetica,sans-Serif" font-size="10.00">fr.softsf.sudokufx.view.</text>
<text text-anchor="middle" x="252.38" y="-156.5" font-family="Helvetica,sans-Serif" font-size="10.00">DefaultView.playerMenuInitialization</text>
</a>
</g>
</g>
<!-- Node1&#45;&gt;Node20 -->
<g id="edge19_Node000001_Node000020" class="edge">
<title>Node1&#45;&gt;Node20</title>
<g id="a_edge19_Node000001_Node000020"><a xlink:title=" ">
<path fill="none" stroke="#63b8ff" d="M67.6,-299.8C81.08,-272.9 111.77,-219.19 154,-191 155.85,-189.76 157.76,-188.59 159.71,-187.47"/>
<polygon fill="#63b8ff" stroke="#63b8ff" points="161.13,-190.68 168.48,-183.04 157.98,-184.43 161.13,-190.68"/>
</a>
</g>
</g>
<!-- Node22 -->
<g id="Node000022" class="node">
<title>Node22</title>
<g id="a_Node000022"><a xlink:href="classfr_1_1softsf_1_1sudokufx_1_1view_1_1_default_view.html#a8ac7a557b342700c44773bfd5f047bb1" target="_top" xlink:title="Initializes bindings and event listeners for the save menu components.">
<polygon fill="white" stroke="#666666" points="336.5,-132 168.25,-132 168.25,-100 336.5,-100 336.5,-132"/>
<text text-anchor="start" x="176.25" y="-118.5" font-family="Helvetica,sans-Serif" font-size="10.00">fr.softsf.sudokufx.view.</text>
<text text-anchor="middle" x="252.38" y="-106.5" font-family="Helvetica,sans-Serif" font-size="10.00">DefaultView.saveMenuInitialization</text>
</a>
</g>
</g>
<!-- Node1&#45;&gt;Node22 -->
<g id="edge21_Node000001_Node000022" class="edge">
<title>Node1&#45;&gt;Node22</title>
<g id="a_edge21_Node000001_Node000022"><a xlink:title=" ">
<path fill="none" stroke="#63b8ff" d="M64.01,-299.61C73.41,-264.77 100.25,-183.11 154,-141 155.33,-139.96 156.7,-138.96 158.1,-138"/>
<polygon fill="#63b8ff" stroke="#63b8ff" points="159.68,-141.13 166.51,-133.03 156.12,-135.11 159.68,-141.13"/>
</a>
</g>
</g>
<!-- Node23 -->
<g id="Node000023" class="node">
<title>Node23</title>
<g id="a_Node000023"><a xlink:href="classfr_1_1softsf_1_1sudokufx_1_1view_1_1_default_view.html#a52bebe4b665a6628e54138f440f5daa0" target="_top" xlink:title="Sets up bindings between the solve menu UI components and menuSolveViewModel.">
<polygon fill="white" stroke="#666666" points="337.62,-82 167.12,-82 167.12,-50 337.62,-50 337.62,-82"/>
<text text-anchor="start" x="175.12" y="-68.5" font-family="Helvetica,sans-Serif" font-size="10.00">fr.softsf.sudokufx.view.</text>
<text text-anchor="middle" x="252.38" y="-56.5" font-family="Helvetica,sans-Serif" font-size="10.00">DefaultView.solveMenuInitialization</text>
</a>
</g>
</g>
<!-- Node1&#45;&gt;Node23 -->
<g id="edge23_Node000001_Node000023" class="edge">
<title>Node1&#45;&gt;Node23</title>
<g id="a_edge23_Node000001_Node000023"><a xlink:title=" ">
<path fill="none" stroke="#63b8ff" d="M61.89,-299.53C67.57,-257.9 88.37,-147.78 154,-91 155.11,-90.04 156.26,-89.11 157.43,-88.22"/>
<polygon fill="#63b8ff" stroke="#63b8ff" points="159.2,-91.24 165.69,-82.86 155.39,-85.37 159.2,-91.24"/>
</a>
</g>
</g>
<!-- Node24 -->
<g id="Node000024" class="node">
<title>Node24</title>
<g id="a_Node000024"><a xlink:href="classfr_1_1softsf_1_1sudokufx_1_1view_1_1_default_view.html#a1e4ae6123de59ddd72be7dac0ec1a652" target="_top" xlink:title="Registers a listener on the primary stage to stop all audio when the application window is closed.">
<polygon fill="white" stroke="#666666" points="350.75,-32 154,-32 154,0 350.75,0 350.75,-32"/>
<text text-anchor="start" x="162" y="-18.5" font-family="Helvetica,sans-Serif" font-size="10.00">fr.softsf.sudokufx.view.</text>
<text text-anchor="middle" x="252.38" y="-6.5" font-family="Helvetica,sans-Serif" font-size="10.00">DefaultView.stopAudioOnExitInitialization</text>
</a>
</g>
</g>
<!-- Node1&#45;&gt;Node24 -->
<g id="edge24_Node000001_Node000024" class="edge">
<title>Node1&#45;&gt;Node24</title>
<g id="a_edge24_Node000001_Node000024"><a xlink:title=" ">
<path fill="none" stroke="#63b8ff" d="M60.48,-299.52C62.79,-251.91 76.21,-112.94 154,-41 154.78,-40.27 155.59,-39.57 156.41,-38.88"/>
<polygon fill="#63b8ff" stroke="#63b8ff" points="158.39,-41.77 164.54,-33.14 154.35,-36.05 158.39,-41.77"/>
</a>
</g>
</g>
<!-- Node3 -->
<g id="Node000003" class="node">
<title>Node3</title>
<g id="a_Node000003"><a xlink:href="classfr_1_1softsf_1_1sudokufx_1_1view_1_1_default_view.html#a0abee02009b88e1e2260fdae077dc597" target="_top" xlink:title=" ">
<polygon fill="white" stroke="#666666" points="562.5,-650 386.75,-650 386.75,-618 562.5,-618 562.5,-650"/>
<text text-anchor="start" x="394.75" y="-636.5" font-family="Helvetica,sans-Serif" font-size="10.00">fr.softsf.sudokufx.view.</text>
<text text-anchor="middle" x="474.62" y="-624.5" font-family="Helvetica,sans-Serif" font-size="10.00">DefaultView.bindVisibleAndManaged</text>
</a>
</g>
</g>
<!-- Node2&#45;&gt;Node3 -->
<g id="edge2_Node000002_Node000003" class="edge">
<title>Node2&#45;&gt;Node3</title>
<g id="a_edge2_Node000002_Node000003"><a xlink:title=" ">
<path fill="none" stroke="#63b8ff" d="M332.27,-634C346.1,-634 360.65,-634 374.93,-634"/>
<polygon fill="#63b8ff" stroke="#63b8ff" points="374.8,-637.5 384.8,-634 374.8,-630.5 374.8,-637.5"/>
</a>
</g>
</g>
<!-- Node8 -->
<g id="Node000008" class="node">
<title>Node8</title>
<g id="a_Node000008"><a xlink:href="classfr_1_1softsf_1_1sudokufx_1_1view_1_1_default_view.html#a2782545a22496fbb6185093a2737b248" target="_top" xlink:title="Binds UI components related to a specific difficulty level in both the maxi and mini menus.">
<polygon fill="white" stroke="#666666" points="533.62,-432 415.62,-432 415.62,-400 533.62,-400 533.62,-432"/>
<text text-anchor="start" x="423.62" y="-418.5" font-family="Helvetica,sans-Serif" font-size="10.00">fr.softsf.sudokufx.view.</text>
<text text-anchor="middle" x="474.62" y="-406.5" font-family="Helvetica,sans-Serif" font-size="10.00">DefaultView.bindLevel</text>
</a>
</g>
</g>
<!-- Node7&#45;&gt;Node8 -->
<g id="edge7_Node000007_Node000008" class="edge">
<title>Node7&#45;&gt;Node8</title>
<g id="a_edge7_Node000007_Node000008"><a xlink:title=" ">
<path fill="none" stroke="#63b8ff" d="M339.16,-416C360.56,-416 383.26,-416 403.79,-416"/>
<polygon fill="#63b8ff" stroke="#63b8ff" points="403.76,-419.5 413.76,-416 403.76,-412.5 403.76,-419.5"/>
</a>
</g>
</g>
<!-- Node9 -->
<g id="Node000009" class="node">
<title>Node9</title>
<g id="a_Node000009"><a xlink:href="classfr_1_1softsf_1_1sudokufx_1_1view_1_1_default_view.html#ad0d842dec8978f4a7f16e25027a74f3b" target="_top" xlink:title="Binds accessibility properties (accessible text and role description) for the specified difficulty le...">
<polygon fill="white" stroke="#666666" points="770.12,-566 601.88,-566 601.88,-534 770.12,-534 770.12,-566"/>
<text text-anchor="start" x="609.88" y="-552.5" font-family="Helvetica,sans-Serif" font-size="10.00">fr.softsf.sudokufx.view.</text>
<text text-anchor="middle" x="686" y="-540.5" font-family="Helvetica,sans-Serif" font-size="10.00">DefaultView.bindLevelAccessibility</text>
</a>
</g>
</g>
<!-- Node8&#45;&gt;Node9 -->
<g id="edge8_Node000008_Node000009" class="edge">
<title>Node8&#45;&gt;Node9</title>
<g id="a_edge8_Node000008_Node000009"><a xlink:title=" ">
<path fill="none" stroke="#63b8ff" d="M489.44,-432.17C510.59,-455.92 553.29,-500.1 598.5,-525 601.17,-526.47 603.93,-527.86 606.76,-529.18"/>
<polygon fill="#63b8ff" stroke="#63b8ff" points="605.26,-532.34 615.84,-533.02 607.99,-525.9 605.26,-532.34"/>
</a>
</g>
</g>
<!-- Node10 -->
<g id="Node000010" class="node">
<title>Node10</title>
<g id="a_Node000010"><a xlink:href="classfr_1_1softsf_1_1sudokufx_1_1view_1_1_default_view.html#a3d5d0a16240ebde5f38e53f35d7aad03" target="_top" xlink:title="Binds the label&#39;s text to the localized name of the specified difficulty level.">
<polygon fill="white" stroke="#666666" points="763.38,-516 608.62,-516 608.62,-484 763.38,-484 763.38,-516"/>
<text text-anchor="start" x="616.62" y="-502.5" font-family="Helvetica,sans-Serif" font-size="10.00">fr.softsf.sudokufx.view.</text>
<text text-anchor="middle" x="686" y="-490.5" font-family="Helvetica,sans-Serif" font-size="10.00">DefaultView.bindLevelLabelText</text>
</a>
</g>
</g>
<!-- Node8&#45;&gt;Node10 -->
<g id="edge9_Node000008_Node000010" class="edge">
<title>Node8&#45;&gt;Node10</title>
<g id="a_edge9_Node000008_Node000010"><a xlink:title=" ">
<path fill="none" stroke="#63b8ff" d="M506.31,-432.5C530.79,-445.23 566.22,-462.68 598.5,-475 603.14,-476.77 607.97,-478.49 612.86,-480.14"/>
<polygon fill="#63b8ff" stroke="#63b8ff" points="611.59,-483.41 622.18,-483.17 613.75,-476.75 611.59,-483.41"/>
</a>
</g>
</g>
<!-- Node11 -->
<g id="Node000011" class="node">
<title>Node11</title>
<g id="a_Node000011"><a xlink:href="classfr_1_1softsf_1_1sudokufx_1_1view_1_1_default_view.html#ae6e221d303609c7e310658abb1a58815" target="_top" xlink:title="Binds the pseudo&#45;class &quot;:selected&quot; state of the given buttons to the specified difficulty level.">
<polygon fill="white" stroke="#666666" points="761.5,-466 610.5,-466 610.5,-422 761.5,-422 761.5,-466"/>
<text text-anchor="start" x="618.5" y="-452.5" font-family="Helvetica,sans-Serif" font-size="10.00">fr.softsf.sudokufx.view.</text>
<text text-anchor="start" x="618.5" y="-440.5" font-family="Helvetica,sans-Serif" font-size="10.00">DefaultView.bindLevelSelected</text>
<text text-anchor="middle" x="686" y="-428.5" font-family="Helvetica,sans-Serif" font-size="10.00">Styling</text>
</a>
</g>
</g>
<!-- Node8&#45;&gt;Node11 -->
<g id="edge10_Node000008_Node000011" class="edge">
<title>Node8&#45;&gt;Node11</title>
<g id="a_edge10_Node000008_Node000011"><a xlink:title=" ">
<path fill="none" stroke="#63b8ff" d="M533.95,-423.8C554.04,-426.49 576.99,-429.56 598.83,-432.48"/>
<polygon fill="#63b8ff" stroke="#63b8ff" points="598.25,-435.93 608.62,-433.79 599.18,-428.99 598.25,-435.93"/>
</a>
</g>
</g>
<!-- Node12 -->
<g id="Node000012" class="node">
<title>Node12</title>
<g id="a_Node000012"><a xlink:href="classfr_1_1softsf_1_1sudokufx_1_1view_1_1_default_view.html#af9c94d119491afaed311aa6eefc1234f" target="_top" xlink:title="Binds the visibility of the stars box to whether the specified difficulty level is selected.">
<polygon fill="white" stroke="#666666" points="772.38,-404 599.62,-404 599.62,-372 772.38,-372 772.38,-404"/>
<text text-anchor="start" x="607.62" y="-390.5" font-family="Helvetica,sans-Serif" font-size="10.00">fr.softsf.sudokufx.view.</text>
<text text-anchor="middle" x="686" y="-378.5" font-family="Helvetica,sans-Serif" font-size="10.00">DefaultView.bindLevelStarsVisibility</text>
</a>
</g>
</g>
<!-- Node8&#45;&gt;Node12 -->
<g id="edge11_Node000008_Node000012" class="edge">
<title>Node8&#45;&gt;Node12</title>
<g id="a_edge11_Node000008_Node000012"><a xlink:title=" ">
<path fill="none" stroke="#63b8ff" d="M533.95,-408.2C550.68,-405.96 569.4,-403.46 587.8,-401"/>
<polygon fill="#63b8ff" stroke="#63b8ff" points="588.25,-404.47 597.7,-399.67 587.32,-397.53 588.25,-404.47"/>
</a>
</g>
</g>
<!-- Node13 -->
<g id="Node000013" class="node">
<title>Node13</title>
<g id="a_Node000013"><a xlink:href="classfr_1_1softsf_1_1sudokufx_1_1view_1_1_default_view.html#a8056a23171a3cc96672893d680500815" target="_top" xlink:title="Binds the tooltip text properties of both buttons to the accessible text corresponding to the specifi...">
<polygon fill="white" stroke="#666666" points="766,-354 606,-354 606,-322 766,-322 766,-354"/>
<text text-anchor="start" x="614" y="-340.5" font-family="Helvetica,sans-Serif" font-size="10.00">fr.softsf.sudokufx.view.</text>
<text text-anchor="middle" x="686" y="-328.5" font-family="Helvetica,sans-Serif" font-size="10.00">DefaultView.bindLevelTooltipText</text>
</a>
</g>
</g>
<!-- Node8&#45;&gt;Node13 -->
<g id="edge12_Node000008_Node000013" class="edge">
<title>Node8&#45;&gt;Node13</title>
<g id="a_edge12_Node000008_Node000013"><a xlink:title=" ">
<path fill="none" stroke="#63b8ff" d="M510.38,-399.62C534.73,-388.48 568.21,-373.86 598.5,-363 603.48,-361.21 608.66,-359.46 613.89,-357.77"/>
<polygon fill="#63b8ff" stroke="#63b8ff" points="614.73,-361.18 623.22,-354.84 612.63,-354.5 614.73,-361.18"/>
</a>
</g>
</g>
<!-- Node14 -->
<g id="Node000014" class="node">
<title>Node14</title>
<g id="a_Node000014"><a xlink:href="classfr_1_1softsf_1_1sudokufx_1_1view_1_1component_1_1_possibility_stars_h_box.html#a7746116cfca8394695053b9c60c076fd" target="_top" xlink:title="Returns the percentage property (0–100) used to calculate the star rating display.">
<polygon fill="white" stroke="#666666" points="773.5,-304 598.5,-304 598.5,-272 773.5,-272 773.5,-304"/>
<text text-anchor="start" x="606.5" y="-290.5" font-family="Helvetica,sans-Serif" font-size="10.00">fr.softsf.sudokufx.view.component.</text>
<text text-anchor="middle" x="686" y="-278.5" font-family="Helvetica,sans-Serif" font-size="10.00">PossibilityStarsHBox.getPercentage</text>
</a>
</g>
</g>
<!-- Node8&#45;&gt;Node14 -->
<g id="edge13_Node000008_Node000014" class="edge">
<title>Node8&#45;&gt;Node14</title>
<g id="a_edge13_Node000008_Node000014"><a xlink:title=" ">
<path fill="none" stroke="#63b8ff" d="M490.72,-399.63C512.45,-376.99 554.77,-336.3 598.5,-313 601.35,-311.48 604.29,-310.05 607.31,-308.69"/>
<polygon fill="#63b8ff" stroke="#63b8ff" points="608.46,-312.01 616.38,-304.96 605.8,-305.53 608.46,-312.01"/>
</a>
</g>
</g>
<!-- Node19 -->
<g id="Node000019" class="node">
<title>Node19</title>
<g id="a_Node000019"><a xlink:href="classfr_1_1softsf_1_1sudokufx_1_1view_1_1_default_view.html#a3dd02ff5cf869a084c95b35937827893" target="_top" xlink:title="Applies opaque or transparent styling to the sudoku grid and its cells.">
<polygon fill="white" stroke="#666666" points="550.88,-232 398.38,-232 398.38,-200 550.88,-200 550.88,-232"/>
<text text-anchor="start" x="406.38" y="-218.5" font-family="Helvetica,sans-Serif" font-size="10.00">fr.softsf.sudokufx.view.</text>
<text text-anchor="middle" x="474.62" y="-206.5" font-family="Helvetica,sans-Serif" font-size="10.00">DefaultView.applyOpaqueMode</text>
</a>
</g>
</g>
<!-- Node18&#45;&gt;Node19 -->
<g id="edge18_Node000018_Node000019" class="edge">
<title>Node18&#45;&gt;Node19</title>
<g id="a_edge18_Node000018_Node000019"><a xlink:title=" ">
<path fill="none" stroke="#63b8ff" d="M342.01,-216C356.77,-216 372.07,-216 386.79,-216"/>
<polygon fill="#63b8ff" stroke="#63b8ff" points="386.4,-219.5 396.4,-216 386.4,-212.5 386.4,-219.5"/>
</a>
</g>
</g>
<!-- Node21 -->
<g id="Node000021" class="node">
<title>Node21</title>
<g id="a_Node000021"><a xlink:href="classfr_1_1softsf_1_1sudokufx_1_1view_1_1_default_view.html#a9b219ba0d98d4df2edb74918b2766d16" target="_top" xlink:title="Sets up a rounded clip for a ListView.">
<polygon fill="white" stroke="#666666" points="549.75,-157 399.5,-157 399.5,-125 549.75,-125 549.75,-157"/>
<text text-anchor="start" x="407.5" y="-143.5" font-family="Helvetica,sans-Serif" font-size="10.00">fr.softsf.sudokufx.view.</text>
<text text-anchor="middle" x="474.62" y="-131.5" font-family="Helvetica,sans-Serif" font-size="10.00">DefaultView.setupListViewClip</text>
</a>
</g>
</g>
<!-- Node20&#45;&gt;Node21 -->
<g id="edge20_Node000020_Node000021" class="edge">
<title>Node20&#45;&gt;Node21</title>
<g id="a_edge20_Node000020_Node000021"><a xlink:title=" ">
<path fill="none" stroke="#63b8ff" d="M339.48,-156.23C355.3,-154.43 371.82,-152.56 387.64,-150.76"/>
<polygon fill="#63b8ff" stroke="#63b8ff" points="387.98,-154.24 397.52,-149.64 387.19,-147.29 387.98,-154.24"/>
</a>
</g>
</g>
<!-- Node22&#45;&gt;Node21 -->
<g id="edge22_Node000022_Node000021" class="edge">
<title>Node22&#45;&gt;Node21</title>
<g id="a_edge22_Node000022_Node000021"><a xlink:title=" ">
<path fill="none" stroke="#63b8ff" d="M336.96,-125.49C353.57,-127.37 371.04,-129.36 387.72,-131.25"/>
<polygon fill="#63b8ff" stroke="#63b8ff" points="387.3,-134.72 397.63,-132.37 388.09,-127.77 387.3,-134.72"/>
</a>
</g>
</g>
</g>
</svg>
