<?xml version="1.0" encoding="UTF-8" standalone="no"?>
<!DOCTYPE svg PUBLIC "-//W3C//DTD SVG 1.1//EN"
 "http://www.w3.org/Graphics/SVG/1.1/DTD/svg11.dtd">
<!-- Generated by graphviz version 12.2.1 (20241206.2353)
 -->
<!-- Title: fr.softsf.sudokufx.service.business.OptionsService Pages: 1 -->
<!--zoomable 405 -->

<svg id="main" version="1.1" xmlns="http://www.w3.org/2000/svg" xmlns:xlink="http://www.w3.org/1999/xlink" xml:space="preserve" onload="init(evt)">

<style type="text/css"><![CDATA[
.node, .edge {opacity: 0.7;}
.node.selected, .edge.selected {opacity: 1;}
.edge:hover path { stroke: red; }
.edge:hover polygon { stroke: red; fill: red; }
]]></style>

<defs>
  <circle id="rim" cx="0" cy="0" r="7"/>
  <circle id="rim2" cx="0" cy="0" r="3.5"/>
  <g id="zoomPlus">
    <use xlink:href="#rim" fill="#404040"><set attributeName="fill" to="#808080" begin="zoomplus.mouseover" end="zoomplus.mouseout"/></use>
    <path d="M-4,0h8M0,-4v8" fill="none" stroke="white" stroke-width="1.5" pointer-events="none"/>
  </g>
  <g id="zoomMin">
    <use xlink:href="#rim" fill="#404040"><set attributeName="fill" to="#808080" begin="zoomminus.mouseover" end="zoomminus.mouseout"/></use>
    <path d="M-4,0h8" fill="none" stroke="white" stroke-width="1.5" pointer-events="none"/>
  </g>
  <g id="arrowUp" transform="translate(30 24)">
    <use xlink:href="#rim"/>
    <path pointer-events="none" fill="none" stroke="white" stroke-width="1.5" d="M0,-3.0v7 M-2.5,-0.5L0,-3.0L2.5,-0.5"/>
  </g>
  <g id="arrowRight" transform="rotate(90) translate(36 -43)">
    <use xlink:href="#rim"/>
    <path pointer-events="none" fill="none" stroke="white" stroke-width="1.5" d="M0,-3.0v7 M-2.5,-0.5L0,-3.0L2.5,-0.5"/>
  </g>
  <g id="arrowDown" transform="rotate(180) translate(-30 -48)">
    <use xlink:href="#rim"/>
    <path pointer-events="none" fill="none" stroke="white" stroke-width="1.5" d="M0,-3.0v7 M-2.5,-0.5L0,-3.0L2.5,-0.5"/>
  </g>
  <g id="arrowLeft" transform="rotate(270) translate(-36 17)">
    <use xlink:href="#rim"/>
    <path pointer-events="none" fill="none" stroke="white" stroke-width="1.5" d="M0,-3.0v7 M-2.5,-0.5L0,-3.0L2.5,-0.5"/>
  </g>
  <g id="resetDef">
    <use xlink:href="#rim2" fill="#404040"><set attributeName="fill" to="#808080" begin="reset.mouseover" end="reset.mouseout"/></use>
  </g>
</defs>
<script type="application/ecmascript">
var viewWidth = 559;
var viewHeight = 405;
var sectionId = 'dynsection-0';
</script>
<script type="application/ecmascript" xlink:href="svg.min.js"/>
<svg id="graph" class="graph">
<g id="viewport">
<title>fr.softsf.sudokufx.service.business.OptionsService</title>
<!-- Node1 -->
<g id="Node000001" class="node">
<title>Node1</title>
<g id="a_Node000001"><a xlink:title="Service for managing Options entities.">
<polygon fill="#999999" stroke="none" points="342.25,-128 168.25,-128 168.25,0 342.25,0 342.25,-128"/>
<text text-anchor="start" x="177.25" y="-114.5" font-family="Helvetica,sans-Serif" font-size="10.00">fr.softsf.sudokufx.service.business.</text>
<text text-anchor="start" x="221.88" y="-102.5" font-family="Helvetica,sans-Serif" font-size="10.00">OptionsService</text>
<text text-anchor="start" x="253.75" y="-86.5" font-family="Helvetica,sans-Serif" font-size="10.00"> </text>
<text text-anchor="start" x="172.25" y="-70.5" font-family="Helvetica,sans-Serif" font-size="10.00">+</text>
<text text-anchor="start" x="182.25" y="-70.5" font-family="Helvetica,sans-Serif" font-size="10.00">OptionsService(OptionsRepository</text>
<text text-anchor="start" x="182.25" y="-58.5" font-family="Helvetica,sans-Serif" font-size="10.00"> optionsRepository, IOptionsMapper</text>
<text text-anchor="start" x="182.25" y="-46.5" font-family="Helvetica,sans-Serif" font-size="10.00"> optionsMapper, JakartaValidator</text>
<text text-anchor="start" x="182.25" y="-34.5" font-family="Helvetica,sans-Serif" font-size="10.00"> jakartaValidator)</text>
<text text-anchor="start" x="172.25" y="-18.5" font-family="Helvetica,sans-Serif" font-size="10.00">+</text>
<text text-anchor="start" x="182.25" y="-18.5" font-family="Helvetica,sans-Serif" font-size="10.00">OptionsDto updateOptions</text>
<text text-anchor="start" x="182.25" y="-6.5" font-family="Helvetica,sans-Serif" font-size="10.00">(OptionsDto dto)</text>
<polygon fill="#666666" stroke="#666666" points="168.25,-98 168.25,-98 342.25,-98 342.25,-98 168.25,-98"/>
<polygon fill="#666666" stroke="#666666" points="168.25,-82 168.25,-82 342.25,-82 342.25,-82 168.25,-82"/>
<polygon fill="none" stroke="#666666" points="168.25,0 168.25,-128 342.25,-128 342.25,0 168.25,0"/>
</a>
</g>
</g>
<!-- Node2 -->
<g id="Node000002" class="node">
<title>Node2</title>
<g id="a_Node000002"><a xlink:href="interfacefr_1_1softsf_1_1sudokufx_1_1repository_1_1_options_repository.html" target="_top" xlink:title="Repository interface for Options entities.">
<polygon fill="white" stroke="none" points="132.5,-268 0,-268 0,-204 132.5,-204 132.5,-268"/>
<text text-anchor="start" x="4" y="-254.5" font-family="Helvetica,sans-Serif" font-size="10.00">fr.softsf.sudokufx.repository.</text>
<text text-anchor="start" x="25.75" y="-242.5" font-family="Helvetica,sans-Serif" font-size="10.00">OptionsRepository</text>
<text text-anchor="start" x="64.75" y="-226.5" font-family="Helvetica,sans-Serif" font-size="10.00"> </text>
<text text-anchor="start" x="64.75" y="-210.5" font-family="Helvetica,sans-Serif" font-size="10.00"> </text>
<polygon fill="#666666" stroke="#666666" points="0,-238 0,-238 132.5,-238 132.5,-238 0,-238"/>
<polygon fill="#666666" stroke="#666666" points="0,-222 0,-222 132.5,-222 132.5,-222 0,-222"/>
<polygon fill="none" stroke="#666666" points="0,-204 0,-268 132.5,-268 132.5,-204 0,-204"/>
</a>
</g>
</g>
<!-- Node2&#45;&gt;Node1 -->
<g id="edge1_Node000001_Node000002" class="edge">
<title>Node2&#45;&gt;Node1</title>
<g id="a_edge1_Node000001_Node000002"><a xlink:title=" ">
<path fill="none" stroke="#63b8ff" d="M100.48,-204.21C121.51,-185.3 149.38,-160.23 175.67,-136.58"/>
<polygon fill="none" stroke="#63b8ff" points="175.67,-136.58 177.46,-129.59 184.6,-128.55 182.81,-135.54 175.67,-136.58"/>
</a>
</g>
<text text-anchor="middle" x="203.12" y="-148.5" font-family="Helvetica,sans-Serif" font-size="10.00" fill="grey"> &#45;optionsRepository</text>
</g>
<!-- Node3 -->
<g id="Node000003" class="node">
<title>Node3</title>
<g id="a_Node000003"><a xlink:title=" ">
<polygon fill="white" stroke="none" points="124.62,-397 7.87,-397 7.87,-333 124.62,-333 124.62,-397"/>
<text text-anchor="start" x="11.88" y="-383.5" font-family="Helvetica,sans-Serif" font-size="10.00">JpaRepository&lt; Options,</text>
<text text-anchor="start" x="49.75" y="-371.5" font-family="Helvetica,sans-Serif" font-size="10.00"> Long &gt;</text>
<text text-anchor="start" x="64.75" y="-355.5" font-family="Helvetica,sans-Serif" font-size="10.00"> </text>
<text text-anchor="start" x="64.75" y="-339.5" font-family="Helvetica,sans-Serif" font-size="10.00"> </text>
<polygon fill="#666666" stroke="#666666" points="7.88,-367 7.88,-367 124.62,-367 124.62,-367 7.88,-367"/>
<polygon fill="#666666" stroke="#666666" points="7.88,-351 7.88,-351 124.62,-351 124.62,-351 7.88,-351"/>
<polygon fill="none" stroke="#666666" points="7.88,-333 7.88,-397 124.62,-397 124.62,-333 7.88,-333"/>
</a>
</g>
</g>
<!-- Node3&#45;&gt;Node2 -->
<g id="edge2_Node000002_Node000003" class="edge">
<title>Node3&#45;&gt;Node2</title>
<g id="a_edge2_Node000002_Node000003"><a xlink:title=" ">
<path fill="none" stroke="#63b8ff" d="M66.25,-321.82C66.25,-304.2 66.25,-284.11 66.25,-267.9"/>
<polygon fill="none" stroke="#63b8ff" points="62.75,-321.74 66.25,-331.74 69.75,-321.74 62.75,-321.74"/>
</a>
</g>
</g>
<!-- Node4 -->
<g id="Node000004" class="node">
<title>Node4</title>
<g id="a_Node000004"><a xlink:href="interfacefr_1_1softsf_1_1sudokufx_1_1common_1_1interfaces_1_1mapper_1_1_i_options_mapper.html" target="_top" xlink:title="This interface defines methods for mapping objects of type Options to objects of type OptionsDto and ...">
<polygon fill="white" stroke="none" points="359.75,-288 150.75,-288 150.75,-184 359.75,-184 359.75,-288"/>
<text text-anchor="start" x="154.75" y="-274.5" font-family="Helvetica,sans-Serif" font-size="10.00">fr.softsf.sudokufx.common.interfaces.mapper.</text>
<text text-anchor="start" x="220.75" y="-262.5" font-family="Helvetica,sans-Serif" font-size="10.00">IOptionsMapper</text>
<text text-anchor="start" x="253.75" y="-246.5" font-family="Helvetica,sans-Serif" font-size="10.00"> </text>
<text text-anchor="start" x="165.19" y="-230.5" font-family="Helvetica,sans-Serif" font-size="10.00">+</text>
<text text-anchor="start" x="185.62" y="-230.5" font-family="Helvetica,sans-Serif" font-size="10.00">Options mapOptionsDtoToOptions</text>
<text text-anchor="start" x="185.62" y="-218.5" font-family="Helvetica,sans-Serif" font-size="10.00">(OptionsDto dto)</text>
<text text-anchor="start" x="165.19" y="-202.5" font-family="Helvetica,sans-Serif" font-size="10.00">+</text>
<text text-anchor="start" x="185.62" y="-202.5" font-family="Helvetica,sans-Serif" font-size="10.00">OptionsDto mapOptionsToDto</text>
<text text-anchor="start" x="185.62" y="-190.5" font-family="Helvetica,sans-Serif" font-size="10.00">(Options options)</text>
<polygon fill="#666666" stroke="#666666" points="150.75,-258 150.75,-258 359.75,-258 359.75,-258 150.75,-258"/>
<polygon fill="#666666" stroke="#666666" points="150.75,-242 150.75,-242 359.75,-242 359.75,-242 150.75,-242"/>
<polygon fill="none" stroke="#666666" points="150.75,-184 150.75,-288 359.75,-288 359.75,-184 150.75,-184"/>
</a>
</g>
</g>
<!-- Node4&#45;&gt;Node1 -->
<g id="edge3_Node000001_Node000004" class="edge">
<title>Node4&#45;&gt;Node1</title>
<g id="a_edge3_Node000001_Node000004"><a xlink:title=" ">
<path fill="none" stroke="#63b8ff" d="M255.25,-184.45C255.25,-170.68 255.25,-155.45 255.25,-140.6"/>
<polygon fill="none" stroke="#63b8ff" points="255.25,-140.61 251.25,-134.61 255.25,-128.61 259.25,-134.61 255.25,-140.61"/>
</a>
</g>
<text text-anchor="middle" x="290.12" y="-148.5" font-family="Helvetica,sans-Serif" font-size="10.00" fill="grey"> &#45;optionsMapper</text>
</g>
<!-- Node5 -->
<g id="Node000005" class="node">
<title>Node5</title>
<g id="a_Node000005"><a xlink:href="classfr_1_1softsf_1_1sudokufx_1_1common_1_1exception_1_1_jakarta_validator.html" target="_top" xlink:title="Spring component for validating objects using Jakarta Bean Validation.">
<polygon fill="white" stroke="none" points="550.75,-296 377.75,-296 377.75,-176 550.75,-176 550.75,-296"/>
<text text-anchor="start" x="381.75" y="-282.5" font-family="Helvetica,sans-Serif" font-size="10.00">fr.softsf.sudokufx.common.exception.</text>
<text text-anchor="start" x="429.38" y="-270.5" font-family="Helvetica,sans-Serif" font-size="10.00">JakartaValidator</text>
<text text-anchor="start" x="394.44" y="-254.5" font-family="Helvetica,sans-Serif" font-size="10.00">&#45;</text>
<text text-anchor="start" x="414.12" y="-254.5" font-family="Helvetica,sans-Serif" font-size="10.00">final Validator validator</text>
<text text-anchor="start" x="394.44" y="-238.5" font-family="Helvetica,sans-Serif" font-size="10.00">&#45;</text>
<text text-anchor="start" x="414.12" y="-238.5" font-family="Helvetica,sans-Serif" font-size="10.00">static final Logger LOG</text>
<text text-anchor="start" x="392.94" y="-222.5" font-family="Helvetica,sans-Serif" font-size="10.00">+</text>
<text text-anchor="start" x="414.12" y="-222.5" font-family="Helvetica,sans-Serif" font-size="10.00">JakartaValidator(Validator</text>
<text text-anchor="start" x="414.12" y="-210.5" font-family="Helvetica,sans-Serif" font-size="10.00"> validator)</text>
<text text-anchor="start" x="392.94" y="-194.5" font-family="Helvetica,sans-Serif" font-size="10.00">~</text>
<text text-anchor="start" x="414.12" y="-194.5" font-family="Helvetica,sans-Serif" font-size="10.00">public&lt; T &gt; T validateOr</text>
<text text-anchor="start" x="414.12" y="-182.5" font-family="Helvetica,sans-Serif" font-size="10.00">Throw(T obj)</text>
<polygon fill="#666666" stroke="#666666" points="377.75,-266 377.75,-266 550.75,-266 550.75,-266 377.75,-266"/>
<polygon fill="#666666" stroke="#666666" points="377.75,-234 377.75,-234 412.12,-234 412.12,-234 377.75,-234"/>
<polygon fill="#666666" stroke="#666666" points="412.12,-234 412.12,-234 550.75,-234 550.75,-234 412.12,-234"/>
<polygon fill="none" stroke="#666666" points="377.75,-176 377.75,-296 550.75,-296 550.75,-176 377.75,-176"/>
</a>
</g>
</g>
<!-- Node5&#45;&gt;Node1 -->
<g id="edge4_Node000001_Node000005" class="edge">
<title>Node5&#45;&gt;Node1</title>
<g id="a_edge4_Node000001_Node000005"><a xlink:title=" ">
<path fill="none" stroke="#63b8ff" d="M391.74,-176.02C375.92,-163.15 359.02,-149.41 342.69,-136.13"/>
<polygon fill="none" stroke="#63b8ff" points="342.63,-136.07 335.45,-135.39 333.32,-128.5 340.49,-129.18 342.63,-136.07"/>
</a>
</g>
<text text-anchor="middle" x="402.39" y="-148.5" font-family="Helvetica,sans-Serif" font-size="10.00" fill="grey"> &#45;jakartaValidator</text>
</g>
</g>
</svg>

<g id="navigator" transform="translate(0 0)" fill="#404254">
  <rect fill="#f2f5e9" fill-opacity="0.5" stroke="#606060" stroke-width=".5" x="0" y="0" width="60" height="60"/>
  <use id="zoomplus" xlink:href="#zoomPlus" x="17" y="9" onmousedown="handleZoom(evt,'in')"/>
  <use id="zoomminus" xlink:href="#zoomMin" x="42" y="9" onmousedown="handleZoom(evt,'out')"/>
  <use id="reset" xlink:href="#resetDef" x="30" y="36" onmousedown="handleReset()"/>
   <use id="arrowup" xlink:href="#arrowUp" x="0" y="0" onmousedown="handlePan(0,-1)"/>
  <use id="arrowright" xlink:href="#arrowRight" x="0" y="0" onmousedown="handlePan(1,0)"/>
  <use id="arrowdown" xlink:href="#arrowDown" x="0" y="0" onmousedown="handlePan(0,1)"/>
  <use id="arrowleft" xlink:href="#arrowLeft" x="0" y="0" onmousedown="handlePan(-1,0)"/>
</g>
<svg viewBox="0 0 15 15" width="100%" height="30px" preserveAspectRatio="xMaxYMin meet">
 <g id="arrow_out" transform="scale(0.3 0.3)">
  <a xlink:href="classfr_1_1softsf_1_1sudokufx_1_1service_1_1business_1_1_options_service__coll__graph_org.svg" target="_base">
   <rect id="button" ry="5" rx="5" y="6" x="6" height="38" width="38"
        fill="#f2f5e9" fill-opacity="0.5" stroke="#606060" stroke-width="1.0"/>
   <path id="arrow"
     d="M 11.500037,31.436501 C 11.940474,20.09759 22.043105,11.32322 32.158766,21.979434 L 37.068811,17.246167 C 37.068811,17.246167 37.088388,32 37.088388,32 L 22.160133,31.978069 C 22.160133,31.978069 26.997745,27.140456 26.997745,27.140456 C 18.528582,18.264221 13.291696,25.230495 11.500037,31.436501 z"
     style="fill:#404040;"/>
  </a>
 </g>
</svg>

<style type='text/css'>
<![CDATA[
[data-mouse-over-selected='false'] { opacity: 0.7; }
[data-mouse-over-selected='true']  { opacity: 1.0; }
]]>
</style>
<script type="application/ecmascript"><![CDATA[
document.addEventListener('DOMContentLoaded', (event) => {
  highlightEdges();
  highlightAdjacentNodes();
});
]]></script>
</svg>
