<?xml version="1.0" encoding="UTF-8" standalone="no"?>
<!DOCTYPE svg PUBLIC "-//W3C//DTD SVG 1.1//EN"
 "http://www.w3.org/Graphics/SVG/1.1/DTD/svg11.dtd">
<!-- Generated by graphviz version 12.2.1 (20241206.2353)
 -->
<!-- Title: fr.softsf.sudokufx.viewmodel.MenuPlayerViewModel.MenuPlayerViewModel Pages: 1 -->
<svg width="668pt" height="388pt"
 viewBox="0.00 0.00 668.00 388.00" xmlns="http://www.w3.org/2000/svg" xmlns:xlink="http://www.w3.org/1999/xlink">
<g id="graph0" class="graph" transform="scale(1 1) rotate(0) translate(4 384)">
<title>fr.softsf.sudokufx.viewmodel.MenuPlayerViewModel.MenuPlayerViewModel</title>
<!-- Node1 -->
<g id="Node000001" class="node">
<title>Node1</title>
<g id="a_Node000001"><a xlink:title=" ">
<polygon fill="#999999" stroke="#666666" points="218.5,-188 0,-188 0,-156 218.5,-156 218.5,-188"/>
<text text-anchor="start" x="8" y="-174.5" font-family="Helvetica,sans-Serif" font-size="10.00">fr.softsf.sudokufx.viewmodel.</text>
<text text-anchor="middle" x="109.25" y="-162.5" font-family="Helvetica,sans-Serif" font-size="10.00">MenuPlayerViewModel.MenuPlayerViewModel</text>
</a>
</g>
</g>
<!-- Node1&#45;&gt;Node1 -->
<g id="edge1_Node000001_Node000001" class="edge">
<title>Node1&#45;&gt;Node1</title>
<g id="a_edge1_Node000001_Node000001"><a xlink:title=" ">
<path fill="none" stroke="#63b8ff" d="M65.62,-188.44C57.48,-197.58 72.02,-206 109.25,-206 129.9,-206 143.57,-203.41 150.26,-199.54"/>
<polygon fill="#63b8ff" stroke="#63b8ff" points="153.64,-200.45 152.53,-189.92 146.83,-198.85 153.64,-200.45"/>
</a>
</g>
</g>
<!-- Node2 -->
<g id="Node000002" class="node">
<title>Node2</title>
<g id="a_Node000002"><a xlink:href="classfr_1_1softsf_1_1sudokufx_1_1viewmodel_1_1_menu_player_view_model.html#ab85707b9c1970d47449a515c65882ba9" target="_top" xlink:title="Creates a localized binding by concatenating two keys.">
<polygon fill="white" stroke="#666666" points="448.25,-380 259,-380 259,-336 448.25,-336 448.25,-380"/>
<text text-anchor="start" x="267" y="-366.5" font-family="Helvetica,sans-Serif" font-size="10.00">fr.softsf.sudokufx.viewmodel.</text>
<text text-anchor="start" x="267" y="-354.5" font-family="Helvetica,sans-Serif" font-size="10.00">MenuPlayerViewModel.createAppended</text>
<text text-anchor="middle" x="353.62" y="-342.5" font-family="Helvetica,sans-Serif" font-size="10.00">StringBinding</text>
</a>
</g>
</g>
<!-- Node1&#45;&gt;Node2 -->
<g id="edge2_Node000001_Node000002" class="edge">
<title>Node1&#45;&gt;Node2</title>
<g id="a_edge2_Node000001_Node000002"><a xlink:title=" ">
<path fill="none" stroke="#63b8ff" d="M120.93,-188.17C142.46,-219.53 194.22,-288.9 254.5,-327 256.37,-328.18 258.29,-329.32 260.24,-330.42"/>
<polygon fill="#63b8ff" stroke="#63b8ff" points="258.47,-333.45 268.97,-334.89 261.67,-327.22 258.47,-333.45"/>
</a>
</g>
</g>
<!-- Node3 -->
<g id="Node000003" class="node">
<title>Node3</title>
<g id="a_Node000003"><a xlink:href="classfr_1_1softsf_1_1sudokufx_1_1viewmodel_1_1_menu_player_view_model.html#a74c09c6a0ee599311a4d665b4e86488b" target="_top" xlink:title="Creates a localized binding combining a formatted message and suffix.">
<polygon fill="white" stroke="#666666" points="448.62,-318 258.62,-318 258.62,-274 448.62,-274 448.62,-318"/>
<text text-anchor="start" x="266.62" y="-304.5" font-family="Helvetica,sans-Serif" font-size="10.00">fr.softsf.sudokufx.viewmodel.</text>
<text text-anchor="start" x="266.62" y="-292.5" font-family="Helvetica,sans-Serif" font-size="10.00">MenuPlayerViewModel.createFormatted</text>
<text text-anchor="middle" x="353.62" y="-280.5" font-family="Helvetica,sans-Serif" font-size="10.00">AndConcatenatedBinding</text>
</a>
</g>
</g>
<!-- Node1&#45;&gt;Node3 -->
<g id="edge3_Node000001_Node000003" class="edge">
<title>Node1&#45;&gt;Node3</title>
<g id="a_edge3_Node000001_Node000003"><a xlink:title=" ">
<path fill="none" stroke="#63b8ff" d="M131.67,-188.43C158.94,-208.71 208.12,-243.2 254.5,-265 257.63,-266.47 260.85,-267.9 264.13,-269.28"/>
<polygon fill="#63b8ff" stroke="#63b8ff" points="262.76,-272.5 273.35,-272.96 265.36,-266 262.76,-272.5"/>
</a>
</g>
</g>
<!-- Node5 -->
<g id="Node000005" class="node">
<title>Node5</title>
<g id="a_Node000005"><a xlink:href="classfr_1_1softsf_1_1sudokufx_1_1viewmodel_1_1_menu_player_view_model.html#af4331b2f8f2bcf2558e9d281688015f2" target="_top" xlink:title="Creates a formatted localized binding with player name argument.">
<polygon fill="white" stroke="#666666" points="448.62,-256 258.62,-256 258.62,-212 448.62,-212 448.62,-256"/>
<text text-anchor="start" x="266.62" y="-242.5" font-family="Helvetica,sans-Serif" font-size="10.00">fr.softsf.sudokufx.viewmodel.</text>
<text text-anchor="start" x="266.62" y="-230.5" font-family="Helvetica,sans-Serif" font-size="10.00">MenuPlayerViewModel.createFormatted</text>
<text text-anchor="middle" x="353.62" y="-218.5" font-family="Helvetica,sans-Serif" font-size="10.00">Binding</text>
</a>
</g>
</g>
<!-- Node1&#45;&gt;Node5 -->
<g id="edge5_Node000001_Node000005" class="edge">
<title>Node1&#45;&gt;Node5</title>
<g id="a_edge5_Node000001_Node000005"><a xlink:title=" ">
<path fill="none" stroke="#63b8ff" d="M174.57,-188.45C198.85,-194.66 227.07,-201.88 253.79,-208.72"/>
<polygon fill="#63b8ff" stroke="#63b8ff" points="252.71,-212.06 263.27,-211.14 254.45,-205.27 252.71,-212.06"/>
</a>
</g>
</g>
<!-- Node6 -->
<g id="Node000006" class="node">
<title>Node6</title>
<g id="a_Node000006"><a xlink:href="classfr_1_1softsf_1_1sudokufx_1_1viewmodel_1_1_menu_player_view_model.html#ad991246df2f102a8432071881b5fd5a7" target="_top" xlink:title="Creates a simple localized binding for a given key.">
<polygon fill="white" stroke="#666666" points="439.25,-194 268,-194 268,-150 439.25,-150 439.25,-194"/>
<text text-anchor="start" x="276" y="-180.5" font-family="Helvetica,sans-Serif" font-size="10.00">fr.softsf.sudokufx.viewmodel.</text>
<text text-anchor="start" x="276" y="-168.5" font-family="Helvetica,sans-Serif" font-size="10.00">MenuPlayerViewModel.createString</text>
<text text-anchor="middle" x="353.62" y="-156.5" font-family="Helvetica,sans-Serif" font-size="10.00">Binding</text>
</a>
</g>
</g>
<!-- Node1&#45;&gt;Node6 -->
<g id="edge6_Node000001_Node000006" class="edge">
<title>Node1&#45;&gt;Node6</title>
<g id="a_edge6_Node000001_Node000006"><a xlink:title=" ">
<path fill="none" stroke="#63b8ff" d="M218.68,-172C231.22,-172 243.95,-172 256.32,-172"/>
<polygon fill="#63b8ff" stroke="#63b8ff" points="256.05,-175.5 266.05,-172 256.05,-168.5 256.05,-175.5"/>
</a>
</g>
</g>
<!-- Node7 -->
<g id="Node000007" class="node">
<title>Node7</title>
<g id="a_Node000007"><a xlink:href="classfr_1_1softsf_1_1sudokufx_1_1viewmodel_1_1_menu_player_view_model.html#ae780866cb629a7b3fb902530ee8b4098" target="_top" xlink:title="Loads players into the observable list.">
<polygon fill="white" stroke="#666666" points="438.5,-132 268.75,-132 268.75,-100 438.5,-100 438.5,-132"/>
<text text-anchor="start" x="276.75" y="-118.5" font-family="Helvetica,sans-Serif" font-size="10.00">fr.softsf.sudokufx.viewmodel.</text>
<text text-anchor="middle" x="353.62" y="-106.5" font-family="Helvetica,sans-Serif" font-size="10.00">MenuPlayerViewModel.loadPlayers</text>
</a>
</g>
</g>
<!-- Node1&#45;&gt;Node7 -->
<g id="edge7_Node000001_Node000007" class="edge">
<title>Node1&#45;&gt;Node7</title>
<g id="a_edge7_Node000001_Node000007"><a xlink:title=" ">
<path fill="none" stroke="#63b8ff" d="M181.66,-155.5C209.52,-149.06 241.63,-141.65 270.44,-134.99"/>
<polygon fill="#63b8ff" stroke="#63b8ff" points="270.88,-138.48 279.83,-132.82 269.3,-131.66 270.88,-138.48"/>
</a>
</g>
</g>
<!-- Node8 -->
<g id="Node000008" class="node">
<title>Node8</title>
<g id="a_Node000008"><a xlink:href="classfr_1_1softsf_1_1sudokufx_1_1viewmodel_1_1_menu_player_view_model.html#a8f8c1ded5be3fc82046472ea3fca63bb" target="_top" xlink:title="Executes the provided action within a guarded block to prevent reentrant updates and state corruption...">
<polygon fill="white" stroke="#666666" points="438.12,-82 269.12,-82 269.12,-50 438.12,-50 438.12,-82"/>
<text text-anchor="start" x="277.12" y="-68.5" font-family="Helvetica,sans-Serif" font-size="10.00">fr.softsf.sudokufx.viewmodel.</text>
<text text-anchor="middle" x="353.62" y="-56.5" font-family="Helvetica,sans-Serif" font-size="10.00">MenuPlayerViewModel.runGuarded</text>
</a>
</g>
</g>
<!-- Node1&#45;&gt;Node8 -->
<g id="edge8_Node000001_Node000008" class="edge">
<title>Node1&#45;&gt;Node8</title>
<g id="a_edge8_Node000001_Node000008"><a xlink:title=" ">
<path fill="none" stroke="#63b8ff" d="M134.79,-155.57C162.72,-137.51 210.23,-108.71 254.5,-91 258.91,-89.24 263.48,-87.57 268.12,-85.99"/>
<polygon fill="#63b8ff" stroke="#63b8ff" points="269.17,-89.33 277.63,-82.95 267.04,-82.66 269.17,-89.33"/>
</a>
</g>
</g>
<!-- Node9 -->
<g id="Node000009" class="node">
<title>Node9</title>
<g id="a_Node000009"><a xlink:href="classfr_1_1softsf_1_1sudokufx_1_1viewmodel_1_1_menu_player_view_model.html#add46cd4d4ea1ec7cb88a67a5f54f0a71" target="_top" xlink:title="Sets the selected player to the one marked as selected or first in the list.">
<polygon fill="white" stroke="#666666" points="452.75,-32 254.5,-32 254.5,0 452.75,0 452.75,-32"/>
<text text-anchor="start" x="262.5" y="-18.5" font-family="Helvetica,sans-Serif" font-size="10.00">fr.softsf.sudokufx.viewmodel.</text>
<text text-anchor="middle" x="353.62" y="-6.5" font-family="Helvetica,sans-Serif" font-size="10.00">MenuPlayerViewModel.setSelectedPlayer</text>
</a>
</g>
</g>
<!-- Node1&#45;&gt;Node9 -->
<g id="edge9_Node000001_Node000009" class="edge">
<title>Node1&#45;&gt;Node9</title>
<g id="a_edge9_Node000001_Node000009"><a xlink:title=" ">
<path fill="none" stroke="#63b8ff" d="M123.52,-155.56C146.95,-127.65 198.49,-71.12 254.5,-41 257.33,-39.48 260.26,-38.05 263.25,-36.7"/>
<polygon fill="#63b8ff" stroke="#63b8ff" points="264.33,-40.04 272.25,-33.01 261.67,-33.56 264.33,-40.04"/>
</a>
</g>
</g>
<!-- Node4 -->
<g id="Node000004" class="node">
<title>Node4</title>
<g id="a_Node000004"><a xlink:href="classfr_1_1softsf_1_1sudokufx_1_1viewmodel_1_1_menu_player_view_model.html#a062c453d8d6794a32f0f8246057d0604" target="_top" xlink:title="Returns the name of the currently selected player.">
<polygon fill="white" stroke="#666666" points="660,-312 488.75,-312 488.75,-280 660,-280 660,-312"/>
<text text-anchor="start" x="496.75" y="-298.5" font-family="Helvetica,sans-Serif" font-size="10.00">fr.softsf.sudokufx.viewmodel.</text>
<text text-anchor="middle" x="574.38" y="-286.5" font-family="Helvetica,sans-Serif" font-size="10.00">MenuPlayerViewModel.playerName</text>
</a>
</g>
</g>
<!-- Node3&#45;&gt;Node4 -->
<g id="edge4_Node000003_Node000004" class="edge">
<title>Node3&#45;&gt;Node4</title>
<g id="a_edge4_Node000003_Node000004"><a xlink:title=" ">
<path fill="none" stroke="#63b8ff" d="M448.98,-296C458.27,-296 467.71,-296 477.02,-296"/>
<polygon fill="#63b8ff" stroke="#63b8ff" points="476.78,-299.5 486.78,-296 476.78,-292.5 476.78,-299.5"/>
</a>
</g>
</g>
</g>
</svg>
