<?xml version="1.0" encoding="UTF-8" standalone="no"?>
<!DOCTYPE svg PUBLIC "-//W3C//DTD SVG 1.1//EN"
 "http://www.w3.org/Graphics/SVG/1.1/DTD/svg11.dtd">
<!-- Generated by graphviz version 12.2.1 (20241206.2353)
 -->
<!-- Title: fr.softsf.sudokufx.common.util.sudoku.GridMaster.remplirLaGrille Pages: 1 -->
<svg width="692pt" height="140pt"
 viewBox="0.00 0.00 692.00 140.00" xmlns="http://www.w3.org/2000/svg" xmlns:xlink="http://www.w3.org/1999/xlink">
<g id="graph0" class="graph" transform="scale(1 1) rotate(0) translate(4 136)">
<title>fr.softsf.sudokufx.common.util.sudoku.GridMaster.remplirLaGrille</title>
<!-- Node1 -->
<g id="Node000001" class="node">
<title>Node1</title>
<g id="a_Node000001"><a xlink:title="Remplit récursivement la grille Sudoku (backtracking).">
<polygon fill="#999999" stroke="#666666" points="186.25,-82 0,-82 0,-50 186.25,-50 186.25,-82"/>
<text text-anchor="start" x="8" y="-68.5" font-family="Helvetica,sans-Serif" font-size="10.00">fr.softsf.sudokufx.common.util.sudoku.</text>
<text text-anchor="middle" x="93.12" y="-56.5" font-family="Helvetica,sans-Serif" font-size="10.00">GridMaster.remplirLaGrille</text>
</a>
</g>
</g>
<!-- Node1&#45;&gt;Node1 -->
<g id="edge6_Node000001_Node000001" class="edge">
<title>Node1&#45;&gt;Node1</title>
<g id="a_edge6_Node000001_Node000001"><a xlink:title=" ">
<path fill="none" stroke="#63b8ff" d="M48.69,-82.44C40.4,-91.58 55.21,-100 93.12,-100 114.16,-100 128.08,-97.41 134.89,-93.54"/>
<polygon fill="#63b8ff" stroke="#63b8ff" points="138.27,-94.46 137.2,-83.91 131.47,-92.82 138.27,-94.46"/>
</a>
</g>
</g>
<!-- Node2 -->
<g id="Node000002" class="node">
<title>Node2</title>
<g id="a_Node000002"><a xlink:href="classfr_1_1softsf_1_1sudokufx_1_1common_1_1util_1_1sudoku_1_1_grid_master.html#a3f17ab078f894717a1f3dfaffed0b987" target="_top" xlink:title="Choisit une valeur aléatoire parmi les possibilités données.">
<polygon fill="white" stroke="#666666" points="435.12,-132 248.88,-132 248.88,-100 435.12,-100 435.12,-132"/>
<text text-anchor="start" x="256.88" y="-118.5" font-family="Helvetica,sans-Serif" font-size="10.00">fr.softsf.sudokufx.common.util.sudoku.</text>
<text text-anchor="middle" x="342" y="-106.5" font-family="Helvetica,sans-Serif" font-size="10.00">GridMaster.choisirValeurAleatoire</text>
</a>
</g>
</g>
<!-- Node1&#45;&gt;Node2 -->
<g id="edge1_Node000001_Node000002" class="edge">
<title>Node1&#45;&gt;Node2</title>
<g id="a_edge1_Node000001_Node000002"><a xlink:title=" ">
<path fill="none" stroke="#63b8ff" d="M175.3,-82.44C198.72,-87.18 224.44,-92.39 248.49,-97.26"/>
<polygon fill="#63b8ff" stroke="#63b8ff" points="247.79,-100.69 258.29,-99.25 249.18,-93.83 247.79,-100.69"/>
</a>
</g>
</g>
<!-- Node4 -->
<g id="Node000004" class="node">
<title>Node4</title>
<g id="a_Node000004"><a xlink:href="classfr_1_1softsf_1_1sudokufx_1_1common_1_1util_1_1sudoku_1_1_grid_master.html#aeb3e9bacbc9f3e23515e88a3c887f78e" target="_top" xlink:title="Élimine la valeur des possibilités des cases alentours.">
<polygon fill="white" stroke="#666666" points="435.12,-82 248.88,-82 248.88,-50 435.12,-50 435.12,-82"/>
<text text-anchor="start" x="256.88" y="-68.5" font-family="Helvetica,sans-Serif" font-size="10.00">fr.softsf.sudokufx.common.util.sudoku.</text>
<text text-anchor="middle" x="342" y="-56.5" font-family="Helvetica,sans-Serif" font-size="10.00">GridMaster.eliminerPossibilite</text>
</a>
</g>
</g>
<!-- Node1&#45;&gt;Node4 -->
<g id="edge3_Node000001_Node000004" class="edge">
<title>Node1&#45;&gt;Node4</title>
<g id="a_edge3_Node000001_Node000004"><a xlink:title=" ">
<path fill="none" stroke="#63b8ff" d="M186.4,-66C203.03,-66 220.46,-66 237.39,-66"/>
<polygon fill="#63b8ff" stroke="#63b8ff" points="236.91,-69.5 246.91,-66 236.91,-62.5 236.91,-69.5"/>
</a>
</g>
</g>
<!-- Node5 -->
<g id="Node000005" class="node">
<title>Node5</title>
<g id="a_Node000005"><a xlink:href="classfr_1_1softsf_1_1sudokufx_1_1common_1_1util_1_1sudoku_1_1_grid_master.html#a973a5ac2260605b8a260934b7e68373d" target="_top" xlink:title="Trouve la case vide avec le moins de possibilités.">
<polygon fill="white" stroke="#666666" points="461.75,-32 222.25,-32 222.25,0 461.75,0 461.75,-32"/>
<text text-anchor="start" x="230.25" y="-18.5" font-family="Helvetica,sans-Serif" font-size="10.00">fr.softsf.sudokufx.common.util.sudoku.</text>
<text text-anchor="middle" x="342" y="-6.5" font-family="Helvetica,sans-Serif" font-size="10.00">GridMaster.laCaseVideAvecLeMoinsDePossibilites</text>
</a>
</g>
</g>
<!-- Node1&#45;&gt;Node5 -->
<g id="edge4_Node000001_Node000005" class="edge">
<title>Node1&#45;&gt;Node5</title>
<g id="a_edge4_Node000001_Node000005"><a xlink:title=" ">
<path fill="none" stroke="#63b8ff" d="M175.3,-49.56C198.72,-44.82 224.44,-39.61 248.49,-34.74"/>
<polygon fill="#63b8ff" stroke="#63b8ff" points="249.18,-38.17 258.29,-32.75 247.79,-31.31 249.18,-38.17"/>
</a>
</g>
</g>
<!-- Node3 -->
<g id="Node000003" class="node">
<title>Node3</title>
<g id="a_Node000003"><a xlink:href="classfr_1_1softsf_1_1sudokufx_1_1common_1_1util_1_1sudoku_1_1_grid_master.html#a1e8e128a955e4a42b8e690c3c3f0fd9c" target="_top" xlink:title="Compte le nombre de bits à 1 dans un entier.">
<polygon fill="white" stroke="#666666" points="684,-82 497.75,-82 497.75,-50 684,-50 684,-82"/>
<text text-anchor="start" x="505.75" y="-68.5" font-family="Helvetica,sans-Serif" font-size="10.00">fr.softsf.sudokufx.common.util.sudoku.</text>
<text text-anchor="middle" x="590.88" y="-56.5" font-family="Helvetica,sans-Serif" font-size="10.00">GridMaster.compterBits</text>
</a>
</g>
</g>
<!-- Node2&#45;&gt;Node3 -->
<g id="edge2_Node000002_Node000003" class="edge">
<title>Node2&#45;&gt;Node3</title>
<g id="a_edge2_Node000002_Node000003"><a xlink:title=" ">
<path fill="none" stroke="#63b8ff" d="M424.18,-99.56C447.59,-94.82 473.32,-89.61 497.36,-84.74"/>
<polygon fill="#63b8ff" stroke="#63b8ff" points="498.06,-88.17 507.16,-82.75 496.67,-81.31 498.06,-88.17"/>
</a>
</g>
</g>
<!-- Node5&#45;&gt;Node3 -->
<g id="edge5_Node000005_Node000003" class="edge">
<title>Node5&#45;&gt;Node3</title>
<g id="a_edge5_Node000005_Node000003"><a xlink:title=" ">
<path fill="none" stroke="#63b8ff" d="M424.18,-32.44C447.59,-37.18 473.32,-42.39 497.36,-47.26"/>
<polygon fill="#63b8ff" stroke="#63b8ff" points="496.67,-50.69 507.16,-49.25 498.06,-43.83 496.67,-50.69"/>
</a>
</g>
</g>
</g>
</svg>
