<?xml version="1.0" encoding="UTF-8" standalone="no"?>
<!DOCTYPE svg PUBLIC "-//W3C//DTD SVG 1.1//EN"
 "http://www.w3.org/Graphics/SVG/1.1/DTD/svg11.dtd">
<!-- Generated by graphviz version 12.2.1 (20241206.2353)
 -->
<!-- Title: fr.softsf.sudokufx.viewmodel.MenuOptionsViewModel.MenuOptionsViewModel Pages: 1 -->
<!--zoomable 702 -->

<svg id="main" version="1.1" xmlns="http://www.w3.org/2000/svg" xmlns:xlink="http://www.w3.org/1999/xlink" xml:space="preserve" onload="init(evt)">

<style type="text/css"><![CDATA[
.node, .edge {opacity: 0.7;}
.node.selected, .edge.selected {opacity: 1;}
.edge:hover path { stroke: red; }
.edge:hover polygon { stroke: red; fill: red; }
]]></style>

<defs>
  <circle id="rim" cx="0" cy="0" r="7"/>
  <circle id="rim2" cx="0" cy="0" r="3.5"/>
  <g id="zoomPlus">
    <use xlink:href="#rim" fill="#404040"><set attributeName="fill" to="#808080" begin="zoomplus.mouseover" end="zoomplus.mouseout"/></use>
    <path d="M-4,0h8M0,-4v8" fill="none" stroke="white" stroke-width="1.5" pointer-events="none"/>
  </g>
  <g id="zoomMin">
    <use xlink:href="#rim" fill="#404040"><set attributeName="fill" to="#808080" begin="zoomminus.mouseover" end="zoomminus.mouseout"/></use>
    <path d="M-4,0h8" fill="none" stroke="white" stroke-width="1.5" pointer-events="none"/>
  </g>
  <g id="arrowUp" transform="translate(30 24)">
    <use xlink:href="#rim"/>
    <path pointer-events="none" fill="none" stroke="white" stroke-width="1.5" d="M0,-3.0v7 M-2.5,-0.5L0,-3.0L2.5,-0.5"/>
  </g>
  <g id="arrowRight" transform="rotate(90) translate(36 -43)">
    <use xlink:href="#rim"/>
    <path pointer-events="none" fill="none" stroke="white" stroke-width="1.5" d="M0,-3.0v7 M-2.5,-0.5L0,-3.0L2.5,-0.5"/>
  </g>
  <g id="arrowDown" transform="rotate(180) translate(-30 -48)">
    <use xlink:href="#rim"/>
    <path pointer-events="none" fill="none" stroke="white" stroke-width="1.5" d="M0,-3.0v7 M-2.5,-0.5L0,-3.0L2.5,-0.5"/>
  </g>
  <g id="arrowLeft" transform="rotate(270) translate(-36 17)">
    <use xlink:href="#rim"/>
    <path pointer-events="none" fill="none" stroke="white" stroke-width="1.5" d="M0,-3.0v7 M-2.5,-0.5L0,-3.0L2.5,-0.5"/>
  </g>
  <g id="resetDef">
    <use xlink:href="#rim2" fill="#404040"><set attributeName="fill" to="#808080" begin="reset.mouseover" end="reset.mouseout"/></use>
  </g>
</defs>
<script type="application/ecmascript">
var viewWidth = 938;
var viewHeight = 702;
var sectionId = 'dynsection-1';
</script>
<script type="application/ecmascript" xlink:href="svg.min.js"/>
<svg id="graph" class="graph">
<g id="viewport">
<title>fr.softsf.sudokufx.viewmodel.MenuOptionsViewModel.MenuOptionsViewModel</title>
<!-- Node1 -->
<g id="Node000001" class="node">
<title>Node1</title>
<g id="a_Node000001"><a xlink:title=" ">
<polygon fill="#999999" stroke="#666666" points="182.5,-390 0,-390 0,-346 182.5,-346 182.5,-390"/>
<text text-anchor="start" x="8" y="-376.5" font-family="Helvetica,sans-Serif" font-size="10.00">fr.softsf.sudokufx.viewmodel.</text>
<text text-anchor="start" x="8" y="-364.5" font-family="Helvetica,sans-Serif" font-size="10.00">MenuOptionsViewModel.MenuOptions</text>
<text text-anchor="middle" x="91.25" y="-352.5" font-family="Helvetica,sans-Serif" font-size="10.00">ViewModel</text>
</a>
</g>
</g>
<!-- Node2 -->
<g id="Node000002" class="node">
<title>Node2</title>
<g id="a_Node000002"><a xlink:href="classfr_1_1softsf_1_1sudokufx_1_1viewmodel_1_1_menu_options_view_model.html#ab375565a060bffec779b340dc14f7c43" target="_top" xlink:title="Creates a localized binding combining a formatted message and a suffix.">
<polygon fill="white" stroke="#666666" points="677.25,-468 481.25,-468 481.25,-424 677.25,-424 677.25,-468"/>
<text text-anchor="start" x="489.25" y="-454.5" font-family="Helvetica,sans-Serif" font-size="10.00">fr.softsf.sudokufx.viewmodel.</text>
<text text-anchor="start" x="489.25" y="-442.5" font-family="Helvetica,sans-Serif" font-size="10.00">MenuOptionsViewModel.createFormatted</text>
<text text-anchor="middle" x="579.25" y="-430.5" font-family="Helvetica,sans-Serif" font-size="10.00">AndConcatenatedBinding</text>
</a>
</g>
</g>
<!-- Node1&#45;&gt;Node2 -->
<g id="edge1_Node000001_Node000002" class="edge">
<title>Node1&#45;&gt;Node2</title>
<g id="a_edge1_Node000001_Node000002"><a xlink:title=" ">
<path fill="none" stroke="#63b8ff" d="M130.06,-390.37C154.43,-403.58 187.28,-419.2 218.5,-427 301.01,-447.63 397.36,-451.7 469.57,-450.99"/>
<polygon fill="#63b8ff" stroke="#63b8ff" points="469.48,-454.49 479.44,-450.85 469.39,-447.49 469.48,-454.49"/>
</a>
</g>
</g>
<!-- Node4 -->
<g id="Node000004" class="node">
<title>Node4</title>
<g id="a_Node000004"><a xlink:href="classfr_1_1softsf_1_1sudokufx_1_1viewmodel_1_1_menu_options_view_model.html#a218b89fb8384b0edf79c7c1d70f9b292" target="_top" xlink:title="Creates a formatted localized binding with one dynamic argument.">
<polygon fill="white" stroke="#666666" points="677.25,-604 481.25,-604 481.25,-560 677.25,-560 677.25,-604"/>
<text text-anchor="start" x="489.25" y="-590.5" font-family="Helvetica,sans-Serif" font-size="10.00">fr.softsf.sudokufx.viewmodel.</text>
<text text-anchor="start" x="489.25" y="-578.5" font-family="Helvetica,sans-Serif" font-size="10.00">MenuOptionsViewModel.createFormatted</text>
<text text-anchor="middle" x="579.25" y="-566.5" font-family="Helvetica,sans-Serif" font-size="10.00">Binding</text>
</a>
</g>
</g>
<!-- Node1&#45;&gt;Node4 -->
<g id="edge3_Node000001_Node000004" class="edge">
<title>Node1&#45;&gt;Node4</title>
<g id="a_edge3_Node000001_Node000004"><a xlink:title=" ">
<path fill="none" stroke="#63b8ff" d="M95.79,-390.31C105.19,-441.02 135.93,-564.48 218.5,-615 310.6,-671.36 441.51,-636.99 517.39,-608.44"/>
<polygon fill="#63b8ff" stroke="#63b8ff" points="518.24,-611.86 526.31,-605 515.72,-605.33 518.24,-611.86"/>
</a>
</g>
</g>
<!-- Node5 -->
<g id="Node000005" class="node">
<title>Node5</title>
<g id="a_Node000005"><a xlink:href="classfr_1_1softsf_1_1sudokufx_1_1viewmodel_1_1_menu_options_view_model.html#acc42c19bd4c6eafc97a5826eb787c906" target="_top" xlink:title="Creates a StringBinding that returns the localized string for the given key, updating automatically w...">
<polygon fill="white" stroke="#666666" points="420.5,-194 243.25,-194 243.25,-150 420.5,-150 420.5,-194"/>
<text text-anchor="start" x="251.25" y="-180.5" font-family="Helvetica,sans-Serif" font-size="10.00">fr.softsf.sudokufx.viewmodel.</text>
<text text-anchor="start" x="251.25" y="-168.5" font-family="Helvetica,sans-Serif" font-size="10.00">MenuOptionsViewModel.createString</text>
<text text-anchor="middle" x="331.88" y="-156.5" font-family="Helvetica,sans-Serif" font-size="10.00">Binding</text>
</a>
</g>
</g>
<!-- Node1&#45;&gt;Node5 -->
<g id="edge5_Node000001_Node000005" class="edge">
<title>Node1&#45;&gt;Node5</title>
<g id="a_edge5_Node000001_Node000005"><a xlink:title=" ">
<path fill="none" stroke="#63b8ff" d="M103.23,-345.58C121.88,-309.87 163.18,-240.31 218.5,-203 222.93,-200.01 227.65,-197.31 232.54,-194.86"/>
<polygon fill="#63b8ff" stroke="#63b8ff" points="233.76,-198.15 241.42,-190.83 230.86,-191.78 233.76,-198.15"/>
</a>
</g>
</g>
<!-- Node6 -->
<g id="Node000006" class="node">
<title>Node6</title>
<g id="a_Node000006"><a xlink:href="classfr_1_1softsf_1_1sudokufx_1_1viewmodel_1_1_menu_options_view_model.html#a8920334361b12271411cb8f6b2e32a8a" target="_top" xlink:title="Creates the accessibility label for the mute button, based on the current mute state.">
<polygon fill="white" stroke="#666666" points="444.88,-556 218.88,-556 218.88,-524 444.88,-524 444.88,-556"/>
<text text-anchor="start" x="226.88" y="-542.5" font-family="Helvetica,sans-Serif" font-size="10.00">fr.softsf.sudokufx.viewmodel.</text>
<text text-anchor="middle" x="331.88" y="-530.5" font-family="Helvetica,sans-Serif" font-size="10.00">MenuOptionsViewModel.initMuteAccessibleText</text>
</a>
</g>
</g>
<!-- Node1&#45;&gt;Node6 -->
<g id="edge6_Node000001_Node000006" class="edge">
<title>Node1&#45;&gt;Node6</title>
<g id="a_edge6_Node000001_Node000006"><a xlink:title=" ">
<path fill="none" stroke="#63b8ff" d="M104.96,-390.4C124.79,-423.17 166.28,-483.69 218.5,-515 220.69,-516.32 222.95,-517.56 225.25,-518.74"/>
<polygon fill="#63b8ff" stroke="#63b8ff" points="223.72,-521.89 234.27,-522.88 226.64,-515.53 223.72,-521.89"/>
</a>
</g>
</g>
<!-- Node8 -->
<g id="Node000008" class="node">
<title>Node8</title>
<g id="a_Node000008"><a xlink:href="classfr_1_1softsf_1_1sudokufx_1_1viewmodel_1_1_menu_options_view_model.html#affb61921e2b3545de6b96d4fbb216fff" target="_top" xlink:title="Creates the icon name for the mute button, depending on whether mute is active or not.">
<polygon fill="white" stroke="#666666" points="420.88,-132 242.88,-132 242.88,-100 420.88,-100 420.88,-132"/>
<text text-anchor="start" x="250.88" y="-118.5" font-family="Helvetica,sans-Serif" font-size="10.00">fr.softsf.sudokufx.viewmodel.</text>
<text text-anchor="middle" x="331.88" y="-106.5" font-family="Helvetica,sans-Serif" font-size="10.00">MenuOptionsViewModel.initMuteIcon</text>
</a>
</g>
</g>
<!-- Node1&#45;&gt;Node8 -->
<g id="edge9_Node000001_Node000008" class="edge">
<title>Node1&#45;&gt;Node8</title>
<g id="a_edge9_Node000001_Node000008"><a xlink:title=" ">
<path fill="none" stroke="#63b8ff" d="M98.03,-345.5C111.1,-299.38 147.48,-193.99 218.5,-141 222.78,-137.81 227.39,-135.01 232.22,-132.55"/>
<polygon fill="#63b8ff" stroke="#63b8ff" points="233.31,-135.9 241.01,-128.61 230.45,-129.51 233.31,-135.9"/>
</a>
</g>
</g>
<!-- Node9 -->
<g id="Node000009" class="node">
<title>Node9</title>
<g id="a_Node000009"><a xlink:href="classfr_1_1softsf_1_1sudokufx_1_1viewmodel_1_1_menu_options_view_model.html#af241419d9819c8b2012c3a0d3638ac2f" target="_top" xlink:title="Creates the visible label for the mute button, reflecting the current mute state.">
<polygon fill="white" stroke="#666666" points="420.88,-82 242.88,-82 242.88,-50 420.88,-50 420.88,-82"/>
<text text-anchor="start" x="250.88" y="-68.5" font-family="Helvetica,sans-Serif" font-size="10.00">fr.softsf.sudokufx.viewmodel.</text>
<text text-anchor="middle" x="331.88" y="-56.5" font-family="Helvetica,sans-Serif" font-size="10.00">MenuOptionsViewModel.initMuteText</text>
</a>
</g>
</g>
<!-- Node1&#45;&gt;Node9 -->
<g id="edge10_Node000001_Node000009" class="edge">
<title>Node1&#45;&gt;Node9</title>
<g id="a_edge10_Node000001_Node000009"><a xlink:title=" ">
<path fill="none" stroke="#63b8ff" d="M95.59,-345.59C104.75,-292.48 135.35,-158.38 218.5,-91 222.74,-87.56 227.36,-84.58 232.22,-81.98"/>
<polygon fill="#63b8ff" stroke="#63b8ff" points="233.55,-85.22 241.13,-77.82 230.59,-78.88 233.55,-85.22"/>
</a>
</g>
</g>
<!-- Node11 -->
<g id="Node000011" class="node">
<title>Node11</title>
<g id="a_Node000011"><a xlink:href="classfr_1_1softsf_1_1sudokufx_1_1viewmodel_1_1_menu_options_view_model.html#ab5fddee7152e0b956c92a65fe426051c" target="_top" xlink:title="Creates the tooltip for the mute button, combining dynamic mute info and submenu role.">
<polygon fill="white" stroke="#666666" points="425.75,-506 238,-506 238,-474 425.75,-474 425.75,-506"/>
<text text-anchor="start" x="246" y="-492.5" font-family="Helvetica,sans-Serif" font-size="10.00">fr.softsf.sudokufx.viewmodel.</text>
<text text-anchor="middle" x="331.88" y="-480.5" font-family="Helvetica,sans-Serif" font-size="10.00">MenuOptionsViewModel.initMuteTooltip</text>
</a>
</g>
</g>
<!-- Node1&#45;&gt;Node11 -->
<g id="edge12_Node000001_Node000011" class="edge">
<title>Node1&#45;&gt;Node11</title>
<g id="a_edge12_Node000001_Node000011"><a xlink:title=" ">
<path fill="none" stroke="#63b8ff" d="M117.05,-390.41C141.29,-411.21 180.07,-441.66 218.5,-460 226.32,-463.73 234.67,-467.05 243.16,-470"/>
<polygon fill="#63b8ff" stroke="#63b8ff" points="241.92,-473.28 252.51,-473.06 244.1,-466.63 241.92,-473.28"/>
</a>
</g>
</g>
<!-- Node12 -->
<g id="Node000012" class="node">
<title>Node12</title>
<g id="a_Node000012"><a xlink:href="classfr_1_1softsf_1_1sudokufx_1_1viewmodel_1_1_menu_options_view_model.html#ac0e36364f613ccaed2292028fcdbbd60" target="_top" xlink:title="Creates the accessibility label for the opacity button, based on the inverse of the current grid opac...">
<polygon fill="white" stroke="#666666" points="417.5,-418 246.25,-418 246.25,-374 417.5,-374 417.5,-418"/>
<text text-anchor="start" x="254.25" y="-404.5" font-family="Helvetica,sans-Serif" font-size="10.00">fr.softsf.sudokufx.viewmodel.</text>
<text text-anchor="start" x="254.25" y="-392.5" font-family="Helvetica,sans-Serif" font-size="10.00">MenuOptionsViewModel.initOpacity</text>
<text text-anchor="middle" x="331.88" y="-380.5" font-family="Helvetica,sans-Serif" font-size="10.00">AccessibleText</text>
</a>
</g>
</g>
<!-- Node1&#45;&gt;Node12 -->
<g id="edge15_Node000001_Node000012" class="edge">
<title>Node1&#45;&gt;Node12</title>
<g id="a_edge15_Node000001_Node000012"><a xlink:title=" ">
<path fill="none" stroke="#63b8ff" d="M182.8,-378.63C199.78,-380.62 217.59,-382.71 234.73,-384.72"/>
<polygon fill="#63b8ff" stroke="#63b8ff" points="234.05,-388.16 244.39,-385.85 234.86,-381.21 234.05,-388.16"/>
</a>
</g>
</g>
<!-- Node14 -->
<g id="Node000014" class="node">
<title>Node14</title>
<g id="a_Node000014"><a xlink:href="classfr_1_1softsf_1_1sudokufx_1_1viewmodel_1_1_menu_options_view_model.html#a03b4d5761d94e8005122e095d1e586c5" target="_top" xlink:title="Creates the icon name for the opacity button, depending on whether opacity is enabled or not.">
<polygon fill="white" stroke="#666666" points="426.88,-32 236.88,-32 236.88,0 426.88,0 426.88,-32"/>
<text text-anchor="start" x="244.88" y="-18.5" font-family="Helvetica,sans-Serif" font-size="10.00">fr.softsf.sudokufx.viewmodel.</text>
<text text-anchor="middle" x="331.88" y="-6.5" font-family="Helvetica,sans-Serif" font-size="10.00">MenuOptionsViewModel.initOpacityIcon</text>
</a>
</g>
</g>
<!-- Node1&#45;&gt;Node14 -->
<g id="edge18_Node000001_Node000014" class="edge">
<title>Node1&#45;&gt;Node14</title>
<g id="a_edge18_Node000001_Node000014"><a xlink:title=" ">
<path fill="none" stroke="#63b8ff" d="M93.86,-345.68C99.4,-286.26 123.02,-123.17 218.5,-41 221.14,-38.73 223.94,-36.65 226.88,-34.75"/>
<polygon fill="#63b8ff" stroke="#63b8ff" points="228.31,-37.95 235.31,-30 224.87,-31.85 228.31,-37.95"/>
</a>
</g>
</g>
<!-- Node15 -->
<g id="Node000015" class="node">
<title>Node15</title>
<g id="a_Node000015"><a xlink:href="classfr_1_1softsf_1_1sudokufx_1_1viewmodel_1_1_menu_options_view_model.html#aa1571dd95cf44f265efbd2bd5e07a95f" target="_top" xlink:title="Creates the visible label for the opacity button, reflecting the current grid opacity value.">
<polygon fill="white" stroke="#666666" points="426.88,-244 236.88,-244 236.88,-212 426.88,-212 426.88,-244"/>
<text text-anchor="start" x="244.88" y="-230.5" font-family="Helvetica,sans-Serif" font-size="10.00">fr.softsf.sudokufx.viewmodel.</text>
<text text-anchor="middle" x="331.88" y="-218.5" font-family="Helvetica,sans-Serif" font-size="10.00">MenuOptionsViewModel.initOpacityText</text>
</a>
</g>
</g>
<!-- Node1&#45;&gt;Node15 -->
<g id="edge19_Node000001_Node000015" class="edge">
<title>Node1&#45;&gt;Node15</title>
<g id="a_edge19_Node000001_Node000015"><a xlink:title=" ">
<path fill="none" stroke="#63b8ff" d="M110.28,-345.65C132.77,-319.32 173.77,-276.22 218.5,-253 221.55,-251.42 224.7,-249.93 227.92,-248.54"/>
<polygon fill="#63b8ff" stroke="#63b8ff" points="228.97,-251.89 236.99,-244.97 226.4,-245.38 228.97,-251.89"/>
</a>
</g>
</g>
<!-- Node16 -->
<g id="Node000016" class="node">
<title>Node16</title>
<g id="a_Node000016"><a xlink:href="classfr_1_1softsf_1_1sudokufx_1_1viewmodel_1_1_menu_options_view_model.html#aeb626611d7bd2c093f2043b67f4476b4" target="_top" xlink:title="Creates the tooltip for the opacity button, combining dynamic label and submenu role.">
<polygon fill="white" stroke="#666666" points="417.5,-306 246.25,-306 246.25,-262 417.5,-262 417.5,-306"/>
<text text-anchor="start" x="254.25" y="-292.5" font-family="Helvetica,sans-Serif" font-size="10.00">fr.softsf.sudokufx.viewmodel.</text>
<text text-anchor="start" x="254.25" y="-280.5" font-family="Helvetica,sans-Serif" font-size="10.00">MenuOptionsViewModel.initOpacity</text>
<text text-anchor="middle" x="331.88" y="-268.5" font-family="Helvetica,sans-Serif" font-size="10.00">Tooltip</text>
</a>
</g>
</g>
<!-- Node1&#45;&gt;Node16 -->
<g id="edge21_Node000001_Node000016" class="edge">
<title>Node1&#45;&gt;Node16</title>
<g id="a_edge21_Node000001_Node000016"><a xlink:title=" ">
<path fill="none" stroke="#63b8ff" d="M141.45,-345.62C164.57,-335.55 192.67,-323.94 218.5,-315 223.86,-313.14 229.39,-311.32 235,-309.55"/>
<polygon fill="#63b8ff" stroke="#63b8ff" points="235.87,-312.95 244.39,-306.65 233.81,-306.26 235.87,-312.95"/>
</a>
</g>
</g>
<!-- Node17 -->
<g id="Node000017" class="node">
<title>Node17</title>
<g id="a_Node000017"><a xlink:href="classfr_1_1softsf_1_1sudokufx_1_1viewmodel_1_1_menu_options_view_model.html#a6d84c23dacad6dd546e8574da7d69b46" target="_top" xlink:title="Creates the accessibility label for the song button, depending on whether the song field is empty.">
<polygon fill="white" stroke="#666666" points="445.25,-606 218.5,-606 218.5,-574 445.25,-574 445.25,-606"/>
<text text-anchor="start" x="226.5" y="-592.5" font-family="Helvetica,sans-Serif" font-size="10.00">fr.softsf.sudokufx.viewmodel.</text>
<text text-anchor="middle" x="331.88" y="-580.5" font-family="Helvetica,sans-Serif" font-size="10.00">MenuOptionsViewModel.initSongAccessibleText</text>
</a>
</g>
</g>
<!-- Node1&#45;&gt;Node17 -->
<g id="edge24_Node000001_Node000017" class="edge">
<title>Node1&#45;&gt;Node17</title>
<g id="a_edge24_Node000001_Node000017"><a xlink:title=" ">
<path fill="none" stroke="#63b8ff" d="M99.99,-390.41C115.52,-431.85 154.57,-520.33 218.5,-565 220.11,-566.12 221.75,-567.19 223.43,-568.22"/>
<polygon fill="#63b8ff" stroke="#63b8ff" points="221.63,-571.22 232.1,-572.87 224.95,-565.06 221.63,-571.22"/>
</a>
</g>
</g>
<!-- Node18 -->
<g id="Node000018" class="node">
<title>Node18</title>
<g id="a_Node000018"><a xlink:href="classfr_1_1softsf_1_1sudokufx_1_1viewmodel_1_1_menu_options_view_model.html#a7c45bfa11fa017fafba683a9c63c60b2" target="_top" xlink:title="Creates the visible label for the song button, adapting to whether a song is present or not.">
<polygon fill="white" stroke="#666666" points="421.25,-694 242.5,-694 242.5,-662 421.25,-662 421.25,-694"/>
<text text-anchor="start" x="250.5" y="-680.5" font-family="Helvetica,sans-Serif" font-size="10.00">fr.softsf.sudokufx.viewmodel.</text>
<text text-anchor="middle" x="331.88" y="-668.5" font-family="Helvetica,sans-Serif" font-size="10.00">MenuOptionsViewModel.initSongText</text>
</a>
</g>
</g>
<!-- Node1&#45;&gt;Node18 -->
<g id="edge26_Node000001_Node000018" class="edge">
<title>Node1&#45;&gt;Node18</title>
<g id="a_edge26_Node000001_Node000018"><a xlink:title=" ">
<path fill="none" stroke="#63b8ff" d="M95.7,-390.42C105.1,-443.59 136.19,-578.1 218.5,-648 222.66,-651.53 227.19,-654.65 231.97,-657.41"/>
<polygon fill="#63b8ff" stroke="#63b8ff" points="230.25,-660.46 240.74,-661.88 233.43,-654.22 230.25,-660.46"/>
</a>
</g>
</g>
<!-- Node19 -->
<g id="Node000019" class="node">
<title>Node19</title>
<g id="a_Node000019"><a xlink:href="classfr_1_1softsf_1_1sudokufx_1_1viewmodel_1_1_menu_options_view_model.html#a7ef223f7e057ce1c5d33dd4aebe3f337" target="_top" xlink:title="Creates the tooltip for the song button, combining dynamic song info and submenu role.">
<polygon fill="white" stroke="#666666" points="426.12,-356 237.62,-356 237.62,-324 426.12,-324 426.12,-356"/>
<text text-anchor="start" x="245.62" y="-342.5" font-family="Helvetica,sans-Serif" font-size="10.00">fr.softsf.sudokufx.viewmodel.</text>
<text text-anchor="middle" x="331.88" y="-330.5" font-family="Helvetica,sans-Serif" font-size="10.00">MenuOptionsViewModel.initSongTooltip</text>
</a>
</g>
</g>
<!-- Node1&#45;&gt;Node19 -->
<g id="edge28_Node000001_Node000019" class="edge">
<title>Node1&#45;&gt;Node19</title>
<g id="a_edge28_Node000001_Node000019"><a xlink:title=" ">
<path fill="none" stroke="#63b8ff" d="M182.8,-357.37C196.85,-355.73 211.46,-354.01 225.79,-352.33"/>
<polygon fill="#63b8ff" stroke="#63b8ff" points="226.18,-355.81 235.71,-351.17 225.37,-348.86 226.18,-355.81"/>
</a>
</g>
</g>
<!-- Node3 -->
<g id="Node000003" class="node">
<title>Node3</title>
<g id="a_Node000003"><a xlink:href="classfr_1_1softsf_1_1sudokufx_1_1viewmodel_1_1_menu_options_view_model.html#a359e959bd335e531fe59f4eb942c0813" target="_top" xlink:title="Utility: always observe the locale in addition to custom dependencies.">
<polygon fill="white" stroke="#666666" points="929.5,-530 713.25,-530 713.25,-498 929.5,-498 929.5,-530"/>
<text text-anchor="start" x="721.25" y="-516.5" font-family="Helvetica,sans-Serif" font-size="10.00">fr.softsf.sudokufx.viewmodel.</text>
<text text-anchor="middle" x="821.38" y="-504.5" font-family="Helvetica,sans-Serif" font-size="10.00">MenuOptionsViewModel.concatDependencies</text>
</a>
</g>
</g>
<!-- Node2&#45;&gt;Node3 -->
<g id="edge2_Node000002_Node000003" class="edge">
<title>Node2&#45;&gt;Node3</title>
<g id="a_edge2_Node000002_Node000003"><a xlink:title=" ">
<path fill="none" stroke="#63b8ff" d="M659.54,-468.45C689.34,-476.89 722.94,-486.41 751.7,-494.55"/>
<polygon fill="#63b8ff" stroke="#63b8ff" points="750.43,-497.83 761,-497.19 752.34,-491.09 750.43,-497.83"/>
</a>
</g>
</g>
<!-- Node4&#45;&gt;Node3 -->
<g id="edge4_Node000004_Node000003" class="edge">
<title>Node4&#45;&gt;Node3</title>
<g id="a_edge4_Node000004_Node000003"><a xlink:title=" ">
<path fill="none" stroke="#63b8ff" d="M659.54,-559.55C689.34,-551.11 722.94,-541.59 751.7,-533.45"/>
<polygon fill="#63b8ff" stroke="#63b8ff" points="752.34,-536.91 761,-530.81 750.43,-530.17 752.34,-536.91"/>
</a>
</g>
</g>
<!-- Node6&#45;&gt;Node4 -->
<g id="edge7_Node000006_Node000004" class="edge">
<title>Node6&#45;&gt;Node4</title>
<g id="a_edge7_Node000006_Node000004"><a xlink:title=" ">
<path fill="none" stroke="#63b8ff" d="M429.15,-556.48C442.47,-558.76 456.23,-561.11 469.75,-563.43"/>
<polygon fill="#63b8ff" stroke="#63b8ff" points="469.11,-566.87 479.55,-565.11 470.29,-559.97 469.11,-566.87"/>
</a>
</g>
</g>
<!-- Node7 -->
<g id="Node000007" class="node">
<title>Node7</title>
<g id="a_Node000007"><a xlink:href="classfr_1_1softsf_1_1sudokufx_1_1viewmodel_1_1_menu_options_view_model.html#ab492d58498724756aa0082dafe071aa4" target="_top" xlink:title="Returns the localized information about the current mute state.">
<polygon fill="white" stroke="#666666" points="660.75,-534 497.75,-534 497.75,-502 660.75,-502 660.75,-534"/>
<text text-anchor="start" x="505.75" y="-520.5" font-family="Helvetica,sans-Serif" font-size="10.00">fr.softsf.sudokufx.viewmodel.</text>
<text text-anchor="middle" x="579.25" y="-508.5" font-family="Helvetica,sans-Serif" font-size="10.00">MenuOptionsViewModel.muteInfo</text>
</a>
</g>
</g>
<!-- Node6&#45;&gt;Node7 -->
<g id="edge8_Node000006_Node000007" class="edge">
<title>Node6&#45;&gt;Node7</title>
<g id="a_edge8_Node000006_Node000007"><a xlink:title=" ">
<path fill="none" stroke="#63b8ff" d="M445.15,-529.93C458.95,-528.7 472.93,-527.44 486.38,-526.24"/>
<polygon fill="#63b8ff" stroke="#63b8ff" points="486.39,-529.75 496.03,-525.37 485.76,-522.78 486.39,-529.75"/>
</a>
</g>
</g>
<!-- Node10 -->
<g id="Node000010" class="node">
<title>Node10</title>
<g id="a_Node000010"><a xlink:href="classfr_1_1softsf_1_1sudokufx_1_1viewmodel_1_1_menu_options_view_model.html#a6e733cf8be577984de3b8b21b9a3c696" target="_top" xlink:title="Returns the localized text corresponding to the mute state.">
<polygon fill="white" stroke="#666666" points="661.88,-82 496.62,-82 496.62,-50 661.88,-50 661.88,-82"/>
<text text-anchor="start" x="504.62" y="-68.5" font-family="Helvetica,sans-Serif" font-size="10.00">fr.softsf.sudokufx.viewmodel.</text>
<text text-anchor="middle" x="579.25" y="-56.5" font-family="Helvetica,sans-Serif" font-size="10.00">MenuOptionsViewModel.muteText</text>
</a>
</g>
</g>
<!-- Node9&#45;&gt;Node10 -->
<g id="edge11_Node000009_Node000010" class="edge">
<title>Node9&#45;&gt;Node10</title>
<g id="a_edge11_Node000009_Node000010"><a xlink:title=" ">
<path fill="none" stroke="#63b8ff" d="M421.11,-66C441.87,-66 464.05,-66 485.01,-66"/>
<polygon fill="#63b8ff" stroke="#63b8ff" points="485,-69.5 495,-66 485,-62.5 485,-69.5"/>
</a>
</g>
</g>
<!-- Node11&#45;&gt;Node2 -->
<g id="edge13_Node000011_Node000002" class="edge">
<title>Node11&#45;&gt;Node2</title>
<g id="a_edge13_Node000011_Node000002"><a xlink:title=" ">
<path fill="none" stroke="#63b8ff" d="M424.59,-473.55C439.38,-470.9 454.81,-468.13 469.94,-465.42"/>
<polygon fill="#63b8ff" stroke="#63b8ff" points="470.18,-468.93 479.41,-463.72 468.95,-462.04 470.18,-468.93"/>
</a>
</g>
</g>
<!-- Node11&#45;&gt;Node7 -->
<g id="edge14_Node000011_Node000007" class="edge">
<title>Node11&#45;&gt;Node7</title>
<g id="a_edge14_Node000011_Node000007"><a xlink:title=" ">
<path fill="none" stroke="#63b8ff" d="M425.99,-500.63C445.8,-502.89 466.71,-505.27 486.47,-507.53"/>
<polygon fill="#63b8ff" stroke="#63b8ff" points="485.8,-510.97 496.13,-508.63 486.59,-504.02 485.8,-510.97"/>
</a>
</g>
</g>
<!-- Node12&#45;&gt;Node4 -->
<g id="edge16_Node000012_Node000004" class="edge">
<title>Node12&#45;&gt;Node4</title>
<g id="a_edge16_Node000012_Node000004"><a xlink:title=" ">
<path fill="none" stroke="#63b8ff" d="M382.81,-418.43C404.16,-429.95 428.07,-445.66 445.25,-465 470.61,-493.55 453.58,-516.69 481.25,-543 485.42,-546.96 490.04,-550.54 494.94,-553.77"/>
<polygon fill="#63b8ff" stroke="#63b8ff" points="492.98,-556.68 503.36,-558.79 496.56,-550.67 492.98,-556.68"/>
</a>
</g>
</g>
<!-- Node13 -->
<g id="Node000013" class="node">
<title>Node13</title>
<g id="a_Node000013"><a xlink:href="classfr_1_1softsf_1_1sudokufx_1_1viewmodel_1_1_menu_options_view_model.html#a89500f671995a3ab11b253bf65cafdfb" target="_top" xlink:title="Returns the localized text corresponding to the grid opacity state.">
<polygon fill="white" stroke="#666666" points="675.75,-300 482.75,-300 482.75,-268 675.75,-268 675.75,-300"/>
<text text-anchor="start" x="490.75" y="-286.5" font-family="Helvetica,sans-Serif" font-size="10.00">fr.softsf.sudokufx.viewmodel.</text>
<text text-anchor="middle" x="579.25" y="-274.5" font-family="Helvetica,sans-Serif" font-size="10.00">MenuOptionsViewModel.gridOpacityText</text>
</a>
</g>
</g>
<!-- Node12&#45;&gt;Node13 -->
<g id="edge17_Node000012_Node000013" class="edge">
<title>Node12&#45;&gt;Node13</title>
<g id="a_edge17_Node000012_Node000013"><a xlink:title=" ">
<path fill="none" stroke="#63b8ff" d="M417.82,-375.3C427.21,-372.21 436.52,-368.77 445.25,-365 481.78,-349.21 520.27,-324.8 546.39,-306.9"/>
<polygon fill="#63b8ff" stroke="#63b8ff" points="548.31,-309.83 554.52,-301.25 544.31,-304.08 548.31,-309.83"/>
</a>
</g>
</g>
<!-- Node15&#45;&gt;Node13 -->
<g id="edge20_Node000015_Node000013" class="edge">
<title>Node15&#45;&gt;Node13</title>
<g id="a_edge20_Node000015_Node000013"><a xlink:title=" ">
<path fill="none" stroke="#63b8ff" d="M407.25,-244.43C419.93,-247.27 432.97,-250.2 445.25,-253 462.03,-256.82 479.99,-260.97 497.11,-264.95"/>
<polygon fill="#63b8ff" stroke="#63b8ff" points="496.21,-268.34 506.75,-267.19 497.8,-261.52 496.21,-268.34"/>
</a>
</g>
</g>
<!-- Node16&#45;&gt;Node2 -->
<g id="edge22_Node000016_Node000002" class="edge">
<title>Node16&#45;&gt;Node2</title>
<g id="a_edge22_Node000016_Node000002"><a xlink:title=" ">
<path fill="none" stroke="#63b8ff" d="M417.92,-302.41C427.44,-305.93 436.75,-310.09 445.25,-315 489.89,-340.77 530.4,-385.08 554.68,-414.95"/>
<polygon fill="#63b8ff" stroke="#63b8ff" points="551.76,-416.91 560.74,-422.54 557.23,-412.54 551.76,-416.91"/>
</a>
</g>
</g>
<!-- Node16&#45;&gt;Node13 -->
<g id="edge23_Node000016_Node000013" class="edge">
<title>Node16&#45;&gt;Node13</title>
<g id="a_edge23_Node000016_Node000013"><a xlink:title=" ">
<path fill="none" stroke="#63b8ff" d="M417.66,-284C434.9,-284 453.25,-284 471.15,-284"/>
<polygon fill="#63b8ff" stroke="#63b8ff" points="471.01,-287.5 481.01,-284 471.01,-280.5 471.01,-287.5"/>
</a>
</g>
</g>
<!-- Node17&#45;&gt;Node4 -->
<g id="edge25_Node000017_Node000004" class="edge">
<title>Node17&#45;&gt;Node4</title>
<g id="a_edge25_Node000017_Node000004"><a xlink:title=" ">
<path fill="none" stroke="#63b8ff" d="M445.51,-586.33C453.56,-586.07 461.67,-585.8 469.69,-585.54"/>
<polygon fill="#63b8ff" stroke="#63b8ff" points="469.58,-589.05 479.46,-585.22 469.35,-582.05 469.58,-589.05"/>
</a>
</g>
</g>
<!-- Node18&#45;&gt;Node4 -->
<g id="edge27_Node000018_Node000004" class="edge">
<title>Node18&#45;&gt;Node4</title>
<g id="a_edge27_Node000018_Node000004"><a xlink:title=" ">
<path fill="none" stroke="#63b8ff" d="M403.1,-661.57C417.22,-657.62 431.84,-653.06 445.25,-648 473.53,-637.33 503.8,-622.59 528.31,-609.75"/>
<polygon fill="#63b8ff" stroke="#63b8ff" points="529.91,-612.86 537.1,-605.08 526.63,-606.68 529.91,-612.86"/>
</a>
</g>
</g>
<!-- Node19&#45;&gt;Node2 -->
<g id="edge29_Node000019_Node000002" class="edge">
<title>Node19&#45;&gt;Node2</title>
<g id="a_edge29_Node000019_Node000002"><a xlink:title=" ">
<path fill="none" stroke="#63b8ff" d="M420.25,-356.45C428.81,-358.95 437.28,-361.79 445.25,-365 478.6,-378.44 513.2,-399.78 538.75,-417.18"/>
<polygon fill="#63b8ff" stroke="#63b8ff" points="536.61,-419.96 546.83,-422.77 540.6,-414.2 536.61,-419.96"/>
</a>
</g>
</g>
</g>
</svg>

<g id="navigator" transform="translate(0 0)" fill="#404254">
  <rect fill="#f2f5e9" fill-opacity="0.5" stroke="#606060" stroke-width=".5" x="0" y="0" width="60" height="60"/>
  <use id="zoomplus" xlink:href="#zoomPlus" x="17" y="9" onmousedown="handleZoom(evt,'in')"/>
  <use id="zoomminus" xlink:href="#zoomMin" x="42" y="9" onmousedown="handleZoom(evt,'out')"/>
  <use id="reset" xlink:href="#resetDef" x="30" y="36" onmousedown="handleReset()"/>
   <use id="arrowup" xlink:href="#arrowUp" x="0" y="0" onmousedown="handlePan(0,-1)"/>
  <use id="arrowright" xlink:href="#arrowRight" x="0" y="0" onmousedown="handlePan(1,0)"/>
  <use id="arrowdown" xlink:href="#arrowDown" x="0" y="0" onmousedown="handlePan(0,1)"/>
  <use id="arrowleft" xlink:href="#arrowLeft" x="0" y="0" onmousedown="handlePan(-1,0)"/>
</g>
<svg viewBox="0 0 15 15" width="100%" height="30px" preserveAspectRatio="xMaxYMin meet">
 <g id="arrow_out" transform="scale(0.3 0.3)">
  <a xlink:href="classfr_1_1softsf_1_1sudokufx_1_1viewmodel_1_1_menu_options_view_model_a1554981be31a866f51e84ff15c5cfea4_cgraph_org.svg" target="_base">
   <rect id="button" ry="5" rx="5" y="6" x="6" height="38" width="38"
        fill="#f2f5e9" fill-opacity="0.5" stroke="#606060" stroke-width="1.0"/>
   <path id="arrow"
     d="M 11.500037,31.436501 C 11.940474,20.09759 22.043105,11.32322 32.158766,21.979434 L 37.068811,17.246167 C 37.068811,17.246167 37.088388,32 37.088388,32 L 22.160133,31.978069 C 22.160133,31.978069 26.997745,27.140456 26.997745,27.140456 C 18.528582,18.264221 13.291696,25.230495 11.500037,31.436501 z"
     style="fill:#404040;"/>
  </a>
 </g>
</svg>

<style type='text/css'>
<![CDATA[
[data-mouse-over-selected='false'] { opacity: 0.7; }
[data-mouse-over-selected='true']  { opacity: 1.0; }
]]>
</style>
<script type="application/ecmascript"><![CDATA[
document.addEventListener('DOMContentLoaded', (event) => {
  highlightEdges();
  highlightAdjacentNodes();
});
]]></script>
</svg>
