<?xml version="1.0" encoding="UTF-8" standalone="no"?>
<!DOCTYPE svg PUBLIC "-//W3C//DTD SVG 1.1//EN"
 "http://www.w3.org/Graphics/SVG/1.1/DTD/svg11.dtd">
<!-- Generated by graphviz version 12.2.1 (20241206.2353)
 -->
<!-- Title: fr.softsf.sudokufx.config.database.AbstractDataSourceConfig.flyway Pages: 1 -->
<svg width="662pt" height="58pt"
 viewBox="0.00 0.00 662.00 58.00" xmlns="http://www.w3.org/2000/svg" xmlns:xlink="http://www.w3.org/1999/xlink">
<g id="graph0" class="graph" transform="scale(1 1) rotate(0) translate(4 54)">
<title>fr.softsf.sudokufx.config.database.AbstractDataSourceConfig.flyway</title>
<!-- Node1 -->
<g id="Node000001" class="node">
<title>Node1</title>
<g id="a_Node000001"><a xlink:title="Configures Flyway database migration tool.">
<polygon fill="#999999" stroke="#666666" points="167.5,-32 0,-32 0,0 167.5,0 167.5,-32"/>
<text text-anchor="start" x="8" y="-18.5" font-family="Helvetica,sans-Serif" font-size="10.00">fr.softsf.sudokufx.config.database.</text>
<text text-anchor="middle" x="83.75" y="-6.5" font-family="Helvetica,sans-Serif" font-size="10.00">AbstractDataSourceConfig.flyway</text>
</a>
</g>
</g>
<!-- Node1&#45;&gt;Node1 -->
<g id="edge1_Node000001_Node000001" class="edge">
<title>Node1&#45;&gt;Node1</title>
<g id="a_edge1_Node000001_Node000001"><a xlink:title=" ">
<path fill="none" stroke="#63b8ff" d="M43.54,-32.44C36.03,-41.58 49.43,-50 83.75,-50 102.78,-50 115.38,-47.41 121.55,-43.54"/>
<polygon fill="#63b8ff" stroke="#63b8ff" points="124.94,-44.44 123.64,-33.92 118.1,-42.95 124.94,-44.44"/>
</a>
</g>
</g>
<!-- Node2 -->
<g id="Node000002" class="node">
<title>Node2</title>
<g id="a_Node000002"><a xlink:href="classfr_1_1softsf_1_1sudokufx_1_1config_1_1database_1_1_abstract_data_source_config.html#acf5476219fa6336c29a1f5966a6d9073" target="_top" xlink:title="Creates and configures the main HikariDataSource for the application.">
<polygon fill="white" stroke="#666666" points="414.5,-32 203.5,-32 203.5,0 414.5,0 414.5,-32"/>
<text text-anchor="start" x="211.5" y="-18.5" font-family="Helvetica,sans-Serif" font-size="10.00">fr.softsf.sudokufx.config.database.</text>
<text text-anchor="middle" x="309" y="-6.5" font-family="Helvetica,sans-Serif" font-size="10.00">AbstractDataSourceConfig.hikariDataSource</text>
</a>
</g>
</g>
<!-- Node1&#45;&gt;Node2 -->
<g id="edge2_Node000001_Node000002" class="edge">
<title>Node1&#45;&gt;Node2</title>
<g id="a_edge2_Node000001_Node000002"><a xlink:title=" ">
<path fill="none" stroke="#63b8ff" d="M167.88,-16C175.72,-16 183.75,-16 191.82,-16"/>
<polygon fill="#63b8ff" stroke="#63b8ff" points="191.72,-19.5 201.72,-16 191.72,-12.5 191.72,-19.5"/>
</a>
</g>
</g>
<!-- Node2&#45;&gt;Node2 -->
<g id="edge4_Node000002_Node000002" class="edge">
<title>Node2&#45;&gt;Node2</title>
<g id="a_edge4_Node000002_Node000002"><a xlink:title=" ">
<path fill="none" stroke="#63b8ff" d="M268.79,-32.44C261.28,-41.58 274.68,-50 309,-50 328.03,-50 340.63,-47.41 346.8,-43.54"/>
<polygon fill="#63b8ff" stroke="#63b8ff" points="350.19,-44.44 348.89,-33.92 343.35,-42.95 350.19,-44.44"/>
</a>
</g>
</g>
<!-- Node3 -->
<g id="Node000003" class="node">
<title>Node3</title>
<g id="a_Node000003"><a xlink:href="classfr_1_1softsf_1_1sudokufx_1_1config_1_1database_1_1_abstract_data_source_config.html#a376871112b0401da26f1a5a3936b1e74" target="_top" xlink:title="Configure et retourne un HikariConfig avec les paramètres de connexion et pool.">
<polygon fill="white" stroke="#666666" points="654,-32 450.5,-32 450.5,0 654,0 654,-32"/>
<text text-anchor="start" x="458.5" y="-18.5" font-family="Helvetica,sans-Serif" font-size="10.00">fr.softsf.sudokufx.config.database.</text>
<text text-anchor="middle" x="552.25" y="-6.5" font-family="Helvetica,sans-Serif" font-size="10.00">AbstractDataSourceConfig.getHikariConfig</text>
</a>
</g>
</g>
<!-- Node2&#45;&gt;Node3 -->
<g id="edge3_Node000002_Node000003" class="edge">
<title>Node2&#45;&gt;Node3</title>
<g id="a_edge3_Node000002_Node000003"><a xlink:title=" ">
<path fill="none" stroke="#63b8ff" d="M414.76,-16C422.71,-16 430.76,-16 438.76,-16"/>
<polygon fill="#63b8ff" stroke="#63b8ff" points="438.5,-19.5 448.5,-16 438.5,-12.5 438.5,-19.5"/>
</a>
</g>
</g>
</g>
</svg>
