<?xml version="1.0" encoding="UTF-8" standalone="no"?>
<!DOCTYPE svg PUBLIC "-//W3C//DTD SVG 1.1//EN"
 "http://www.w3.org/Graphics/SVG/1.1/DTD/svg11.dtd">
<!-- Generated by graphviz version 12.2.1 (20241206.2353)
 -->
<!-- Title: fr.softsf.sudokufx.service.ui.AsyncFileProcessorService Pages: 1 -->
<svg width="181pt" height="132pt"
 viewBox="0.00 0.00 181.25 132.00" xmlns="http://www.w3.org/2000/svg" xmlns:xlink="http://www.w3.org/1999/xlink">
<g id="graph0" class="graph" transform="scale(1 1) rotate(0) translate(4 128)">
<title>fr.softsf.sudokufx.service.ui.AsyncFileProcessorService</title>
<!-- Node1 -->
<g id="Node000001" class="node">
<title>Node1</title>
<g id="a_Node000001"><a xlink:title=" ">
<polygon fill="#999999" stroke="none" points="173.25,-124 0,-124 0,0 173.25,0 173.25,-124"/>
<text text-anchor="start" x="24.38" y="-110.5" font-family="Helvetica,sans-Serif" font-size="10.00">fr.softsf.sudokufx.service.ui.</text>
<text text-anchor="start" x="26.25" y="-98.5" font-family="Helvetica,sans-Serif" font-size="10.00">AsyncFileProcessorService</text>
<text text-anchor="start" x="5.5" y="-82.5" font-family="Helvetica,sans-Serif" font-size="10.00">&#45;</text>
<text text-anchor="start" x="14" y="-82.5" font-family="Helvetica,sans-Serif" font-size="10.00">static final Logger LOG</text>
<text text-anchor="start" x="4" y="-66.5" font-family="Helvetica,sans-Serif" font-size="10.00">~</text>
<text text-anchor="start" x="14" y="-66.5" font-family="Helvetica,sans-Serif" font-size="10.00">public&lt; T &gt; void process</text>
<text text-anchor="start" x="14" y="-54.5" font-family="Helvetica,sans-Serif" font-size="10.00">FileAsync(File selectedFile,</text>
<text text-anchor="start" x="14" y="-42.5" font-family="Helvetica,sans-Serif" font-size="10.00"> SpinnerGridPane spinner,</text>
<text text-anchor="start" x="14" y="-30.5" font-family="Helvetica,sans-Serif" font-size="10.00"> ToasterVBox toaster, Function</text>
<text text-anchor="start" x="14" y="-18.5" font-family="Helvetica,sans-Serif" font-size="10.00">&lt; File, T &gt; taskFunction, Consumer</text>
<text text-anchor="start" x="14" y="-6.5" font-family="Helvetica,sans-Serif" font-size="10.00">&lt; T &gt; onSuccess)</text>
<polygon fill="#666666" stroke="#666666" points="0,-94 0,-94 173.25,-94 173.25,-94 0,-94"/>
<polygon fill="#666666" stroke="#666666" points="0,-78 0,-78 12,-78 12,-78 0,-78"/>
<polygon fill="#666666" stroke="#666666" points="12,-78 12,-78 173.25,-78 173.25,-78 12,-78"/>
<polygon fill="none" stroke="#666666" points="0,0 0,-124 173.25,-124 173.25,0 0,0"/>
</a>
</g>
</g>
</g>
</svg>
