<?xml version="1.0" encoding="UTF-8" standalone="no"?>
<!DOCTYPE svg PUBLIC "-//W3C//DTD SVG 1.1//EN"
 "http://www.w3.org/Graphics/SVG/1.1/DTD/svg11.dtd">
<!-- Generated by graphviz version 12.2.1 (20241206.2353)
 -->
<!-- Title: fr.softsf.sudokufx.viewmodel.MenuPlayerViewModel Pages: 1 -->
<svg width="563pt" height="1641pt"
 viewBox="0.00 0.00 562.75 1641.00" xmlns="http://www.w3.org/2000/svg" xmlns:xlink="http://www.w3.org/1999/xlink">
<g id="graph0" class="graph" transform="scale(1 1) rotate(0) translate(4 1637)">
<title>fr.softsf.sudokufx.viewmodel.MenuPlayerViewModel</title>
<!-- Node1 -->
<g id="Node000001" class="node">
<title>Node1</title>
<g id="a_Node000001"><a xlink:title="ViewModel managing player menu UI state and localized accessibility texts.">
<polygon fill="#999999" stroke="none" points="345.88,-944 172.62,-944 172.62,0 345.88,0 345.88,-944"/>
<text text-anchor="start" x="194.75" y="-930.5" font-family="Helvetica,sans-Serif" font-size="10.00">fr.softsf.sudokufx.viewmodel.</text>
<text text-anchor="start" x="209.38" y="-918.5" font-family="Helvetica,sans-Serif" font-size="10.00">MenuPlayerViewModel</text>
<text text-anchor="start" x="176.62" y="-902.5" font-family="Helvetica,sans-Serif" font-size="10.00">+</text>
<text text-anchor="start" x="186.62" y="-902.5" font-family="Helvetica,sans-Serif" font-size="10.00">static final int TEST</text>
<text text-anchor="start" x="186.62" y="-890.5" font-family="Helvetica,sans-Serif" font-size="10.00">_NUMBER_LOADED_PLAYERS</text>
<text text-anchor="start" x="178.12" y="-874.5" font-family="Helvetica,sans-Serif" font-size="10.00">&#45;</text>
<text text-anchor="start" x="186.62" y="-874.5" font-family="Helvetica,sans-Serif" font-size="10.00">final StringBinding</text>
<text text-anchor="start" x="186.62" y="-862.5" font-family="Helvetica,sans-Serif" font-size="10.00"> cellButtonAccessibleText</text>
<text text-anchor="start" x="178.12" y="-846.5" font-family="Helvetica,sans-Serif" font-size="10.00">&#45;</text>
<text text-anchor="start" x="186.62" y="-846.5" font-family="Helvetica,sans-Serif" font-size="10.00">final StringBinding</text>
<text text-anchor="start" x="186.62" y="-834.5" font-family="Helvetica,sans-Serif" font-size="10.00"> cellConfirmationMessage</text>
<text text-anchor="start" x="178.12" y="-818.5" font-family="Helvetica,sans-Serif" font-size="10.00">&#45;</text>
<text text-anchor="start" x="186.62" y="-818.5" font-family="Helvetica,sans-Serif" font-size="10.00">final StringBinding</text>
<text text-anchor="start" x="186.62" y="-806.5" font-family="Helvetica,sans-Serif" font-size="10.00"> cellConfirmationTitle</text>
<text text-anchor="start" x="178.12" y="-790.5" font-family="Helvetica,sans-Serif" font-size="10.00">&#45;</text>
<text text-anchor="start" x="186.62" y="-790.5" font-family="Helvetica,sans-Serif" font-size="10.00">final StringBinding</text>
<text text-anchor="start" x="186.62" y="-778.5" font-family="Helvetica,sans-Serif" font-size="10.00"> editAccessibleText</text>
<text text-anchor="start" x="178.12" y="-762.5" font-family="Helvetica,sans-Serif" font-size="10.00">&#45;</text>
<text text-anchor="start" x="186.62" y="-762.5" font-family="Helvetica,sans-Serif" font-size="10.00">final StringBinding</text>
<text text-anchor="start" x="186.62" y="-750.5" font-family="Helvetica,sans-Serif" font-size="10.00"> editRoleDescription</text>
<text text-anchor="start" x="178.12" y="-734.5" font-family="Helvetica,sans-Serif" font-size="10.00">&#45;</text>
<text text-anchor="start" x="186.62" y="-734.5" font-family="Helvetica,sans-Serif" font-size="10.00">final StringBinding</text>
<text text-anchor="start" x="186.62" y="-722.5" font-family="Helvetica,sans-Serif" font-size="10.00"> editTooltip</text>
<text text-anchor="start" x="178.12" y="-706.5" font-family="Helvetica,sans-Serif" font-size="10.00">&#45;</text>
<text text-anchor="start" x="186.62" y="-706.5" font-family="Helvetica,sans-Serif" font-size="10.00">final StringBinding</text>
<text text-anchor="start" x="186.62" y="-694.5" font-family="Helvetica,sans-Serif" font-size="10.00"> maxiPlayerRoleDescription</text>
<text text-anchor="start" x="178.12" y="-678.5" font-family="Helvetica,sans-Serif" font-size="10.00">&#45;</text>
<text text-anchor="start" x="186.62" y="-678.5" font-family="Helvetica,sans-Serif" font-size="10.00">final StringBinding</text>
<text text-anchor="start" x="186.62" y="-666.5" font-family="Helvetica,sans-Serif" font-size="10.00"> maxiPlayerTooltip</text>
<text text-anchor="start" x="178.12" y="-650.5" font-family="Helvetica,sans-Serif" font-size="10.00">&#45;</text>
<text text-anchor="start" x="186.62" y="-650.5" font-family="Helvetica,sans-Serif" font-size="10.00">final StringBinding</text>
<text text-anchor="start" x="186.62" y="-638.5" font-family="Helvetica,sans-Serif" font-size="10.00"> newAccessibleText</text>
<text text-anchor="start" x="178.12" y="-622.5" font-family="Helvetica,sans-Serif" font-size="10.00">&#45;</text>
<text text-anchor="start" x="186.62" y="-622.5" font-family="Helvetica,sans-Serif" font-size="10.00">final StringBinding</text>
<text text-anchor="start" x="186.62" y="-610.5" font-family="Helvetica,sans-Serif" font-size="10.00"> newRoleDescription</text>
<text text-anchor="start" x="186.62" y="-594.5" font-family="Helvetica,sans-Serif" font-size="10.00">and 9 more...</text>
<text text-anchor="start" x="178.12" y="-578.5" font-family="Helvetica,sans-Serif" font-size="10.00">&#45;</text>
<text text-anchor="start" x="186.62" y="-578.5" font-family="Helvetica,sans-Serif" font-size="10.00">static final String</text>
<text text-anchor="start" x="186.62" y="-566.5" font-family="Helvetica,sans-Serif" font-size="10.00"> MENU_ACCESSIBILITY</text>
<text text-anchor="start" x="186.62" y="-554.5" font-family="Helvetica,sans-Serif" font-size="10.00">_ROLE_DESCRIPTION_CLOSED</text>
<text text-anchor="start" x="178.12" y="-538.5" font-family="Helvetica,sans-Serif" font-size="10.00">&#45;</text>
<text text-anchor="start" x="186.62" y="-538.5" font-family="Helvetica,sans-Serif" font-size="10.00">static final String</text>
<text text-anchor="start" x="186.62" y="-526.5" font-family="Helvetica,sans-Serif" font-size="10.00"> MENU_ACCESSIBILITY</text>
<text text-anchor="start" x="186.62" y="-514.5" font-family="Helvetica,sans-Serif" font-size="10.00">_ROLE_DESCRIPTION_OPENED</text>
<text text-anchor="start" x="176.62" y="-498.5" font-family="Helvetica,sans-Serif" font-size="10.00">+</text>
<text text-anchor="start" x="186.62" y="-498.5" font-family="Helvetica,sans-Serif" font-size="10.00">MenuPlayerViewModel</text>
<text text-anchor="start" x="186.62" y="-486.5" font-family="Helvetica,sans-Serif" font-size="10.00">(InMemoryPlayer inMemoryPlayer)</text>
<text text-anchor="start" x="176.62" y="-470.5" font-family="Helvetica,sans-Serif" font-size="10.00">+</text>
<text text-anchor="start" x="186.62" y="-470.5" font-family="Helvetica,sans-Serif" font-size="10.00">StringBinding cellButton</text>
<text text-anchor="start" x="186.62" y="-458.5" font-family="Helvetica,sans-Serif" font-size="10.00">AccessibleTextProperty()</text>
<text text-anchor="start" x="176.62" y="-442.5" font-family="Helvetica,sans-Serif" font-size="10.00">+</text>
<text text-anchor="start" x="186.62" y="-442.5" font-family="Helvetica,sans-Serif" font-size="10.00">StringBinding cellConfirmation</text>
<text text-anchor="start" x="186.62" y="-430.5" font-family="Helvetica,sans-Serif" font-size="10.00">MessageProperty()</text>
<text text-anchor="start" x="176.62" y="-414.5" font-family="Helvetica,sans-Serif" font-size="10.00">+</text>
<text text-anchor="start" x="186.62" y="-414.5" font-family="Helvetica,sans-Serif" font-size="10.00">StringBinding cellConfirmation</text>
<text text-anchor="start" x="186.62" y="-402.5" font-family="Helvetica,sans-Serif" font-size="10.00">TitleProperty()</text>
<text text-anchor="start" x="176.62" y="-386.5" font-family="Helvetica,sans-Serif" font-size="10.00">+</text>
<text text-anchor="start" x="186.62" y="-386.5" font-family="Helvetica,sans-Serif" font-size="10.00">StringBinding editAccessible</text>
<text text-anchor="start" x="186.62" y="-374.5" font-family="Helvetica,sans-Serif" font-size="10.00">TextProperty()</text>
<text text-anchor="start" x="176.62" y="-358.5" font-family="Helvetica,sans-Serif" font-size="10.00">+</text>
<text text-anchor="start" x="186.62" y="-358.5" font-family="Helvetica,sans-Serif" font-size="10.00">StringBinding editRoleDescription</text>
<text text-anchor="start" x="186.62" y="-346.5" font-family="Helvetica,sans-Serif" font-size="10.00">Property()</text>
<text text-anchor="start" x="176.62" y="-330.5" font-family="Helvetica,sans-Serif" font-size="10.00">+</text>
<text text-anchor="start" x="186.62" y="-330.5" font-family="Helvetica,sans-Serif" font-size="10.00">StringBinding editTooltip</text>
<text text-anchor="start" x="186.62" y="-318.5" font-family="Helvetica,sans-Serif" font-size="10.00">Property()</text>
<text text-anchor="start" x="176.62" y="-302.5" font-family="Helvetica,sans-Serif" font-size="10.00">+</text>
<text text-anchor="start" x="186.62" y="-302.5" font-family="Helvetica,sans-Serif" font-size="10.00">ObservableList&lt; PlayerDto</text>
<text text-anchor="start" x="186.62" y="-290.5" font-family="Helvetica,sans-Serif" font-size="10.00"> &gt; getPlayers()</text>
<text text-anchor="start" x="176.62" y="-274.5" font-family="Helvetica,sans-Serif" font-size="10.00">+</text>
<text text-anchor="start" x="186.62" y="-274.5" font-family="Helvetica,sans-Serif" font-size="10.00">StringBinding maxiPlayer</text>
<text text-anchor="start" x="186.62" y="-262.5" font-family="Helvetica,sans-Serif" font-size="10.00">RoleDescriptionProperty()</text>
<text text-anchor="start" x="176.62" y="-246.5" font-family="Helvetica,sans-Serif" font-size="10.00">+</text>
<text text-anchor="start" x="186.62" y="-246.5" font-family="Helvetica,sans-Serif" font-size="10.00">StringBinding maxiPlayer</text>
<text text-anchor="start" x="186.62" y="-234.5" font-family="Helvetica,sans-Serif" font-size="10.00">TooltipProperty()</text>
<text text-anchor="start" x="186.62" y="-218.5" font-family="Helvetica,sans-Serif" font-size="10.00">and 11 more...</text>
<text text-anchor="start" x="178.12" y="-202.5" font-family="Helvetica,sans-Serif" font-size="10.00">&#45;</text>
<text text-anchor="start" x="186.62" y="-202.5" font-family="Helvetica,sans-Serif" font-size="10.00">StringBinding createAppended</text>
<text text-anchor="start" x="186.62" y="-190.5" font-family="Helvetica,sans-Serif" font-size="10.00">StringBinding()</text>
<text text-anchor="start" x="178.12" y="-174.5" font-family="Helvetica,sans-Serif" font-size="10.00">&#45;</text>
<text text-anchor="start" x="186.62" y="-174.5" font-family="Helvetica,sans-Serif" font-size="10.00">StringBinding createFormatted</text>
<text text-anchor="start" x="186.62" y="-162.5" font-family="Helvetica,sans-Serif" font-size="10.00">AndConcatenatedBinding(String</text>
<text text-anchor="start" x="186.62" y="-150.5" font-family="Helvetica,sans-Serif" font-size="10.00"> key, String suffixKey)</text>
<text text-anchor="start" x="178.12" y="-134.5" font-family="Helvetica,sans-Serif" font-size="10.00">&#45;</text>
<text text-anchor="start" x="186.62" y="-134.5" font-family="Helvetica,sans-Serif" font-size="10.00">StringBinding createFormatted</text>
<text text-anchor="start" x="186.62" y="-122.5" font-family="Helvetica,sans-Serif" font-size="10.00">Binding(String key, Supplier</text>
<text text-anchor="start" x="186.62" y="-110.5" font-family="Helvetica,sans-Serif" font-size="10.00">&lt; String &gt; argSupplier)</text>
<text text-anchor="start" x="178.12" y="-94.5" font-family="Helvetica,sans-Serif" font-size="10.00">&#45;</text>
<text text-anchor="start" x="186.62" y="-94.5" font-family="Helvetica,sans-Serif" font-size="10.00">StringBinding createString</text>
<text text-anchor="start" x="186.62" y="-82.5" font-family="Helvetica,sans-Serif" font-size="10.00">Binding(String key)</text>
<text text-anchor="start" x="178.12" y="-66.5" font-family="Helvetica,sans-Serif" font-size="10.00">&#45;</text>
<text text-anchor="start" x="186.62" y="-66.5" font-family="Helvetica,sans-Serif" font-size="10.00">PlayerDto generatePlayer</text>
<text text-anchor="start" x="186.62" y="-54.5" font-family="Helvetica,sans-Serif" font-size="10.00">ForTests(String name)</text>
<text text-anchor="start" x="178.12" y="-38.5" font-family="Helvetica,sans-Serif" font-size="10.00">&#45;</text>
<text text-anchor="start" x="186.62" y="-38.5" font-family="Helvetica,sans-Serif" font-size="10.00">void loadPlayers()</text>
<text text-anchor="start" x="178.12" y="-22.5" font-family="Helvetica,sans-Serif" font-size="10.00">&#45;</text>
<text text-anchor="start" x="186.62" y="-22.5" font-family="Helvetica,sans-Serif" font-size="10.00">String playerName()</text>
<text text-anchor="start" x="178.12" y="-6.5" font-family="Helvetica,sans-Serif" font-size="10.00">&#45;</text>
<text text-anchor="start" x="186.62" y="-6.5" font-family="Helvetica,sans-Serif" font-size="10.00">void setSelectedPlayer()</text>
<polygon fill="#666666" stroke="#666666" points="172.62,-914 172.62,-914 345.88,-914 345.88,-914 172.62,-914"/>
<polygon fill="#666666" stroke="#666666" points="172.62,-510 172.62,-510 184.62,-510 184.62,-510 172.62,-510"/>
<polygon fill="#666666" stroke="#666666" points="184.62,-510 184.62,-510 345.88,-510 345.88,-510 184.62,-510"/>
<polygon fill="none" stroke="#666666" points="172.62,0 172.62,-944 345.88,-944 345.88,0 172.62,0"/>
</a>
</g>
</g>
<!-- Node2 -->
<g id="Node000002" class="node">
<title>Node2</title>
<g id="a_Node000002"><a xlink:href="classfr_1_1softsf_1_1sudokufx_1_1viewmodel_1_1state_1_1_in_memory_player.html" target="_top" xlink:title="Component responsible for holding the current PlayerDto instance in memory.">
<polygon fill="white" stroke="none" points="340.12,-1200 178.38,-1200 178.38,-992 340.12,-992 340.12,-1200"/>
<text text-anchor="start" x="182.38" y="-1186.5" font-family="Helvetica,sans-Serif" font-size="10.00">fr.softsf.sudokufx.viewmodel.state.</text>
<text text-anchor="start" x="223.62" y="-1174.5" font-family="Helvetica,sans-Serif" font-size="10.00">InMemoryPlayer</text>
<text text-anchor="start" x="186.06" y="-1158.5" font-family="Helvetica,sans-Serif" font-size="10.00">&#45;</text>
<text text-anchor="start" x="196.75" y="-1158.5" font-family="Helvetica,sans-Serif" font-size="10.00">final ObjectProperty</text>
<text text-anchor="start" x="196.75" y="-1146.5" font-family="Helvetica,sans-Serif" font-size="10.00">&lt; PlayerDto &gt; currentPlayer</text>
<text text-anchor="start" x="186.06" y="-1130.5" font-family="Helvetica,sans-Serif" font-size="10.00">&#45;</text>
<text text-anchor="start" x="196.75" y="-1130.5" font-family="Helvetica,sans-Serif" font-size="10.00">static final Logger LOG</text>
<text text-anchor="start" x="184.56" y="-1114.5" font-family="Helvetica,sans-Serif" font-size="10.00">+</text>
<text text-anchor="start" x="196.75" y="-1114.5" font-family="Helvetica,sans-Serif" font-size="10.00">InMemoryPlayer(PlayerService</text>
<text text-anchor="start" x="196.75" y="-1102.5" font-family="Helvetica,sans-Serif" font-size="10.00"> playerService)</text>
<text text-anchor="start" x="184.56" y="-1086.5" font-family="Helvetica,sans-Serif" font-size="10.00">+</text>
<text text-anchor="start" x="196.75" y="-1086.5" font-family="Helvetica,sans-Serif" font-size="10.00">ObjectProperty&lt; PlayerDto</text>
<text text-anchor="start" x="196.75" y="-1074.5" font-family="Helvetica,sans-Serif" font-size="10.00"> &gt; currentPlayerProperty()</text>
<text text-anchor="start" x="184.56" y="-1058.5" font-family="Helvetica,sans-Serif" font-size="10.00">+</text>
<text text-anchor="start" x="196.75" y="-1058.5" font-family="Helvetica,sans-Serif" font-size="10.00">PlayerDto getCurrentPlayer()</text>
<text text-anchor="start" x="184.56" y="-1042.5" font-family="Helvetica,sans-Serif" font-size="10.00">+</text>
<text text-anchor="start" x="196.75" y="-1042.5" font-family="Helvetica,sans-Serif" font-size="10.00">void setCurrentPlayer</text>
<text text-anchor="start" x="196.75" y="-1030.5" font-family="Helvetica,sans-Serif" font-size="10.00">(PlayerDto dto)</text>
<text text-anchor="start" x="184.56" y="-1014.5" font-family="Helvetica,sans-Serif" font-size="10.00">~</text>
<text text-anchor="start" x="196.75" y="-1014.5" font-family="Helvetica,sans-Serif" font-size="10.00">void exitPlatform()</text>
<text text-anchor="start" x="186.06" y="-998.5" font-family="Helvetica,sans-Serif" font-size="10.00">&#45;</text>
<text text-anchor="start" x="196.75" y="-998.5" font-family="Helvetica,sans-Serif" font-size="10.00">void initializePlayer()</text>
<polygon fill="#666666" stroke="#666666" points="178.38,-1170 178.38,-1170 340.12,-1170 340.12,-1170 178.38,-1170"/>
<polygon fill="#666666" stroke="#666666" points="178.38,-1126 178.38,-1126 194.75,-1126 194.75,-1126 178.38,-1126"/>
<polygon fill="#666666" stroke="#666666" points="194.75,-1126 194.75,-1126 340.12,-1126 340.12,-1126 194.75,-1126"/>
<polygon fill="none" stroke="#666666" points="178.38,-992 178.38,-1200 340.12,-1200 340.12,-992 178.38,-992"/>
</a>
</g>
</g>
<!-- Node2&#45;&gt;Node1 -->
<g id="edge1_Node000001_Node000002" class="edge">
<title>Node2&#45;&gt;Node1</title>
<g id="a_edge1_Node000001_Node000002"><a xlink:title=" ">
<path fill="none" stroke="#63b8ff" d="M259.25,-992.29C259.25,-981.15 259.25,-969.35 259.25,-957.02"/>
<polygon fill="none" stroke="#63b8ff" points="259.25,-956.88 255.25,-950.88 259.25,-944.88 263.25,-950.88 259.25,-956.88"/>
</a>
</g>
<text text-anchor="middle" x="297.5" y="-964.5" font-family="Helvetica,sans-Serif" font-size="10.00" fill="grey"> &#45;inMemoryPlayer</text>
</g>
<!-- Node3 -->
<g id="Node000003" class="node">
<title>Node3</title>
<g id="a_Node000003"><a xlink:href="classfr_1_1softsf_1_1sudokufx_1_1service_1_1_player_service.html" target="_top" xlink:title="Service class providing business logic related to Player entities.">
<polygon fill="white" stroke="none" points="340.62,-1364 177.88,-1364 177.88,-1248 340.62,-1248 340.62,-1364"/>
<text text-anchor="start" x="202.25" y="-1350.5" font-family="Helvetica,sans-Serif" font-size="10.00">fr.softsf.sudokufx.service.</text>
<text text-anchor="start" x="228.88" y="-1338.5" font-family="Helvetica,sans-Serif" font-size="10.00">PlayerService</text>
<text text-anchor="start" x="257.75" y="-1322.5" font-family="Helvetica,sans-Serif" font-size="10.00"> </text>
<text text-anchor="start" x="181.88" y="-1306.5" font-family="Helvetica,sans-Serif" font-size="10.00">+</text>
<text text-anchor="start" x="191.88" y="-1306.5" font-family="Helvetica,sans-Serif" font-size="10.00">PlayerService(PlayerRepository</text>
<text text-anchor="start" x="191.88" y="-1294.5" font-family="Helvetica,sans-Serif" font-size="10.00"> playerRepository, IPlayerMapper</text>
<text text-anchor="start" x="191.88" y="-1282.5" font-family="Helvetica,sans-Serif" font-size="10.00"> playerMapper, JakartaValidator</text>
<text text-anchor="start" x="191.88" y="-1270.5" font-family="Helvetica,sans-Serif" font-size="10.00"> jakartaValidator)</text>
<text text-anchor="start" x="181.88" y="-1254.5" font-family="Helvetica,sans-Serif" font-size="10.00">+</text>
<text text-anchor="start" x="191.88" y="-1254.5" font-family="Helvetica,sans-Serif" font-size="10.00">PlayerDto getPlayer()</text>
<polygon fill="#666666" stroke="#666666" points="177.88,-1334 177.88,-1334 340.62,-1334 340.62,-1334 177.88,-1334"/>
<polygon fill="#666666" stroke="#666666" points="177.88,-1318 177.88,-1318 340.62,-1318 340.62,-1318 177.88,-1318"/>
<polygon fill="none" stroke="#666666" points="177.88,-1248 177.88,-1364 340.62,-1364 340.62,-1248 177.88,-1248"/>
</a>
</g>
</g>
<!-- Node3&#45;&gt;Node2 -->
<g id="edge2_Node000002_Node000003" class="edge">
<title>Node3&#45;&gt;Node2</title>
<g id="a_edge2_Node000002_Node000003"><a xlink:title=" ">
<path fill="none" stroke="#63b8ff" d="M259.25,-1248.16C259.25,-1237 259.25,-1224.93 259.25,-1212.63"/>
<polygon fill="none" stroke="#63b8ff" points="259.25,-1212.66 255.25,-1206.66 259.25,-1200.66 263.25,-1206.66 259.25,-1212.66"/>
</a>
</g>
<text text-anchor="middle" x="291.88" y="-1220.5" font-family="Helvetica,sans-Serif" font-size="10.00" fill="grey"> &#45;playerService</text>
</g>
<!-- Node4 -->
<g id="Node000004" class="node">
<title>Node4</title>
<g id="a_Node000004"><a xlink:href="interfacefr_1_1softsf_1_1sudokufx_1_1repository_1_1_player_repository.html" target="_top" xlink:title=" ">
<polygon fill="white" stroke="none" points="136.5,-1510 0,-1510 0,-1434 136.5,-1434 136.5,-1510"/>
<text text-anchor="start" x="6" y="-1496.5" font-family="Helvetica,sans-Serif" font-size="10.00">fr.softsf.sudokufx.repository.</text>
<text text-anchor="start" x="30.75" y="-1484.5" font-family="Helvetica,sans-Serif" font-size="10.00">PlayerRepository</text>
<text text-anchor="start" x="66.75" y="-1468.5" font-family="Helvetica,sans-Serif" font-size="10.00"> </text>
<text text-anchor="start" x="4" y="-1452.5" font-family="Helvetica,sans-Serif" font-size="10.00">+</text>
<text text-anchor="start" x="14" y="-1452.5" font-family="Helvetica,sans-Serif" font-size="10.00">List&lt; Player &gt; findSelected</text>
<text text-anchor="start" x="14" y="-1440.5" font-family="Helvetica,sans-Serif" font-size="10.00">PlayerWithSelectedGame()</text>
<polygon fill="#666666" stroke="#666666" points="0,-1480 0,-1480 136.5,-1480 136.5,-1480 0,-1480"/>
<polygon fill="#666666" stroke="#666666" points="0,-1464 0,-1464 136.5,-1464 136.5,-1464 0,-1464"/>
<polygon fill="none" stroke="#666666" points="0,-1434 0,-1510 136.5,-1510 136.5,-1434 0,-1434"/>
</a>
</g>
</g>
<!-- Node4&#45;&gt;Node3 -->
<g id="edge3_Node000003_Node000004" class="edge">
<title>Node4&#45;&gt;Node3</title>
<g id="a_edge3_Node000003_Node000004"><a xlink:title=" ">
<path fill="none" stroke="#63b8ff" d="M111.11,-1434.2C132.38,-1415.94 158.71,-1393.33 183.24,-1372.26"/>
<polygon fill="none" stroke="#63b8ff" points="183.11,-1372.37 185.06,-1365.43 192.22,-1364.56 190.27,-1371.5 183.11,-1372.37"/>
</a>
</g>
<text text-anchor="middle" x="209.23" y="-1384.5" font-family="Helvetica,sans-Serif" font-size="10.00" fill="grey"> &#45;playerRepository</text>
</g>
<!-- Node5 -->
<g id="Node000005" class="node">
<title>Node5</title>
<g id="a_Node000005"><a xlink:title=" ">
<polygon fill="white" stroke="none" points="123.62,-1633 12.88,-1633 12.88,-1569 123.62,-1569 123.62,-1633"/>
<text text-anchor="start" x="16.88" y="-1619.5" font-family="Helvetica,sans-Serif" font-size="10.00">JpaRepository&lt; Player,</text>
<text text-anchor="start" x="51.75" y="-1607.5" font-family="Helvetica,sans-Serif" font-size="10.00"> Long &gt;</text>
<text text-anchor="start" x="66.75" y="-1591.5" font-family="Helvetica,sans-Serif" font-size="10.00"> </text>
<text text-anchor="start" x="66.75" y="-1575.5" font-family="Helvetica,sans-Serif" font-size="10.00"> </text>
<polygon fill="#666666" stroke="#666666" points="12.88,-1603 12.88,-1603 123.62,-1603 123.62,-1603 12.88,-1603"/>
<polygon fill="#666666" stroke="#666666" points="12.88,-1587 12.88,-1587 123.62,-1587 123.62,-1587 12.88,-1587"/>
<polygon fill="none" stroke="#666666" points="12.88,-1569 12.88,-1633 123.62,-1633 123.62,-1569 12.88,-1569"/>
</a>
</g>
</g>
<!-- Node5&#45;&gt;Node4 -->
<g id="edge4_Node000004_Node000005" class="edge">
<title>Node5&#45;&gt;Node4</title>
<g id="a_edge4_Node000004_Node000005"><a xlink:title=" ">
<path fill="none" stroke="#63b8ff" d="M68.25,-1557.82C68.25,-1542.28 68.25,-1524.81 68.25,-1509.79"/>
<polygon fill="none" stroke="#63b8ff" points="64.75,-1557.74 68.25,-1567.74 71.75,-1557.74 64.75,-1557.74"/>
</a>
</g>
</g>
<!-- Node6 -->
<g id="Node000006" class="node">
<title>Node6</title>
<g id="a_Node000006"><a xlink:href="interfacefr_1_1softsf_1_1sudokufx_1_1common_1_1interfaces_1_1mapper_1_1_i_player_mapper.html" target="_top" xlink:title="Mapper interface for converting between Player entity and PlayerDto data transfer object.">
<polygon fill="white" stroke="none" points="363.75,-1524 154.75,-1524 154.75,-1420 363.75,-1420 363.75,-1524"/>
<text text-anchor="start" x="158.75" y="-1510.5" font-family="Helvetica,sans-Serif" font-size="10.00">fr.softsf.sudokufx.common.interfaces.mapper.</text>
<text text-anchor="start" x="227.75" y="-1498.5" font-family="Helvetica,sans-Serif" font-size="10.00">IPlayerMapper</text>
<text text-anchor="start" x="257.75" y="-1482.5" font-family="Helvetica,sans-Serif" font-size="10.00"> </text>
<text text-anchor="start" x="173.69" y="-1466.5" font-family="Helvetica,sans-Serif" font-size="10.00">+</text>
<text text-anchor="start" x="198.62" y="-1466.5" font-family="Helvetica,sans-Serif" font-size="10.00">Player mapPlayerDtoToPlayer</text>
<text text-anchor="start" x="198.62" y="-1454.5" font-family="Helvetica,sans-Serif" font-size="10.00">(PlayerDto dto)</text>
<text text-anchor="start" x="173.69" y="-1438.5" font-family="Helvetica,sans-Serif" font-size="10.00">+</text>
<text text-anchor="start" x="198.62" y="-1438.5" font-family="Helvetica,sans-Serif" font-size="10.00">PlayerDto mapPlayerToDto</text>
<text text-anchor="start" x="198.62" y="-1426.5" font-family="Helvetica,sans-Serif" font-size="10.00">(Player player)</text>
<polygon fill="#666666" stroke="#666666" points="154.75,-1494 154.75,-1494 363.75,-1494 363.75,-1494 154.75,-1494"/>
<polygon fill="#666666" stroke="#666666" points="154.75,-1478 154.75,-1478 363.75,-1478 363.75,-1478 154.75,-1478"/>
<polygon fill="none" stroke="#666666" points="154.75,-1420 154.75,-1524 363.75,-1524 363.75,-1420 154.75,-1420"/>
</a>
</g>
</g>
<!-- Node6&#45;&gt;Node3 -->
<g id="edge5_Node000003_Node000006" class="edge">
<title>Node6&#45;&gt;Node3</title>
<g id="a_edge5_Node000003_Node000006"><a xlink:title=" ">
<path fill="none" stroke="#63b8ff" d="M259.25,-1420.01C259.25,-1406.26 259.25,-1391.16 259.25,-1376.58"/>
<polygon fill="none" stroke="#63b8ff" points="259.25,-1376.86 255.25,-1370.86 259.25,-1364.86 263.25,-1370.86 259.25,-1376.86"/>
</a>
</g>
<text text-anchor="middle" x="291.5" y="-1384.5" font-family="Helvetica,sans-Serif" font-size="10.00" fill="grey"> &#45;playerMapper</text>
</g>
<!-- Node7 -->
<g id="Node000007" class="node">
<title>Node7</title>
<g id="a_Node000007"><a xlink:href="classfr_1_1softsf_1_1sudokufx_1_1common_1_1exception_1_1_jakarta_validator.html" target="_top" xlink:title="Spring component for validating objects using Jakarta Bean Validation.">
<polygon fill="white" stroke="none" points="554.75,-1532 381.75,-1532 381.75,-1412 554.75,-1412 554.75,-1532"/>
<text text-anchor="start" x="385.75" y="-1518.5" font-family="Helvetica,sans-Serif" font-size="10.00">fr.softsf.sudokufx.common.exception.</text>
<text text-anchor="start" x="433.38" y="-1506.5" font-family="Helvetica,sans-Serif" font-size="10.00">JakartaValidator</text>
<text text-anchor="start" x="398.44" y="-1490.5" font-family="Helvetica,sans-Serif" font-size="10.00">&#45;</text>
<text text-anchor="start" x="418.12" y="-1490.5" font-family="Helvetica,sans-Serif" font-size="10.00">final Validator validator</text>
<text text-anchor="start" x="398.44" y="-1474.5" font-family="Helvetica,sans-Serif" font-size="10.00">&#45;</text>
<text text-anchor="start" x="418.12" y="-1474.5" font-family="Helvetica,sans-Serif" font-size="10.00">static final Logger LOG</text>
<text text-anchor="start" x="396.94" y="-1458.5" font-family="Helvetica,sans-Serif" font-size="10.00">+</text>
<text text-anchor="start" x="418.12" y="-1458.5" font-family="Helvetica,sans-Serif" font-size="10.00">JakartaValidator(Validator</text>
<text text-anchor="start" x="418.12" y="-1446.5" font-family="Helvetica,sans-Serif" font-size="10.00"> validator)</text>
<text text-anchor="start" x="396.94" y="-1430.5" font-family="Helvetica,sans-Serif" font-size="10.00">~</text>
<text text-anchor="start" x="418.12" y="-1430.5" font-family="Helvetica,sans-Serif" font-size="10.00">public&lt; T &gt; T validateOr</text>
<text text-anchor="start" x="418.12" y="-1418.5" font-family="Helvetica,sans-Serif" font-size="10.00">Throw(T obj)</text>
<polygon fill="#666666" stroke="#666666" points="381.75,-1502 381.75,-1502 554.75,-1502 554.75,-1502 381.75,-1502"/>
<polygon fill="#666666" stroke="#666666" points="381.75,-1470 381.75,-1470 416.12,-1470 416.12,-1470 381.75,-1470"/>
<polygon fill="#666666" stroke="#666666" points="416.12,-1470 416.12,-1470 554.75,-1470 554.75,-1470 416.12,-1470"/>
<polygon fill="none" stroke="#666666" points="381.75,-1412 381.75,-1532 554.75,-1532 554.75,-1412 381.75,-1412"/>
</a>
</g>
</g>
<!-- Node7&#45;&gt;Node3 -->
<g id="edge6_Node000003_Node000007" class="edge">
<title>Node7&#45;&gt;Node3</title>
<g id="a_edge6_Node000003_Node000007"><a xlink:title=" ">
<path fill="none" stroke="#63b8ff" d="M393.09,-1412.02C376.36,-1398.9 358.54,-1384.91 341.54,-1371.58"/>
<polygon fill="none" stroke="#63b8ff" points="341.8,-1371.77 334.61,-1371.22 332.35,-1364.36 339.54,-1364.92 341.8,-1371.77"/>
</a>
</g>
<text text-anchor="middle" x="406.39" y="-1384.5" font-family="Helvetica,sans-Serif" font-size="10.00" fill="grey"> &#45;jakartaValidator</text>
</g>
</g>
</svg>
