<?xml version="1.0" encoding="UTF-8" standalone="no"?>
<!DOCTYPE svg PUBLIC "-//W3C//DTD SVG 1.1//EN"
 "http://www.w3.org/Graphics/SVG/1.1/DTD/svg11.dtd">
<!-- Generated by graphviz version 12.2.1 (20241206.2353)
 -->
<!-- Title: fr.softsf.sudokufx.common.util.sudoku.GridViewModelUTest.givenPlayerWithDefaultGrid_whenGetCurrentSolvedGridFromModel_thenSolvedGridAndCurrentGridReturned Pages: 1 -->
<!--zoomable 805 -->

<svg id="main" version="1.1" xmlns="http://www.w3.org/2000/svg" xmlns:xlink="http://www.w3.org/1999/xlink" xml:space="preserve" onload="init(evt)">

<style type="text/css"><![CDATA[
.node, .edge {opacity: 0.7;}
.node.selected, .edge.selected {opacity: 1;}
.edge:hover path { stroke: red; }
.edge:hover polygon { stroke: red; fill: red; }
]]></style>

<defs>
  <circle id="rim" cx="0" cy="0" r="7"/>
  <circle id="rim2" cx="0" cy="0" r="3.5"/>
  <g id="zoomPlus">
    <use xlink:href="#rim" fill="#404040"><set attributeName="fill" to="#808080" begin="zoomplus.mouseover" end="zoomplus.mouseout"/></use>
    <path d="M-4,0h8M0,-4v8" fill="none" stroke="white" stroke-width="1.5" pointer-events="none"/>
  </g>
  <g id="zoomMin">
    <use xlink:href="#rim" fill="#404040"><set attributeName="fill" to="#808080" begin="zoomminus.mouseover" end="zoomminus.mouseout"/></use>
    <path d="M-4,0h8" fill="none" stroke="white" stroke-width="1.5" pointer-events="none"/>
  </g>
  <g id="arrowUp" transform="translate(30 24)">
    <use xlink:href="#rim"/>
    <path pointer-events="none" fill="none" stroke="white" stroke-width="1.5" d="M0,-3.0v7 M-2.5,-0.5L0,-3.0L2.5,-0.5"/>
  </g>
  <g id="arrowRight" transform="rotate(90) translate(36 -43)">
    <use xlink:href="#rim"/>
    <path pointer-events="none" fill="none" stroke="white" stroke-width="1.5" d="M0,-3.0v7 M-2.5,-0.5L0,-3.0L2.5,-0.5"/>
  </g>
  <g id="arrowDown" transform="rotate(180) translate(-30 -48)">
    <use xlink:href="#rim"/>
    <path pointer-events="none" fill="none" stroke="white" stroke-width="1.5" d="M0,-3.0v7 M-2.5,-0.5L0,-3.0L2.5,-0.5"/>
  </g>
  <g id="arrowLeft" transform="rotate(270) translate(-36 17)">
    <use xlink:href="#rim"/>
    <path pointer-events="none" fill="none" stroke="white" stroke-width="1.5" d="M0,-3.0v7 M-2.5,-0.5L0,-3.0L2.5,-0.5"/>
  </g>
  <g id="resetDef">
    <use xlink:href="#rim2" fill="#404040"><set attributeName="fill" to="#808080" begin="reset.mouseover" end="reset.mouseout"/></use>
  </g>
</defs>
<script type="application/ecmascript">
var viewWidth = 1743;
var viewHeight = 805;
var sectionId = 'dynsection-5';
</script>
<script type="application/ecmascript" xlink:href="svg.min.js"/>
<svg id="graph" class="graph">
<g id="viewport">
<title>fr.softsf.sudokufx.common.util.sudoku.GridViewModelUTest.givenPlayerWithDefaultGrid_whenGetCurrentSolvedGridFromModel_thenSolvedGridAndCurrentGridReturned</title>
<!-- Node1 -->
<g id="Node000001" class="node">
<title>Node1</title>
<g id="a_Node000001"><a xlink:title=" ">
<polygon fill="#999999" stroke="#666666" points="214,-632.77 0,-632.77 0,-576.77 214,-576.77 214,-632.77"/>
<text text-anchor="start" x="8" y="-619.27" font-family="Helvetica,sans-Serif" font-size="10.00">fr.softsf.sudokufx.common.util.sudoku.</text>
<text text-anchor="start" x="8" y="-607.27" font-family="Helvetica,sans-Serif" font-size="10.00">GridViewModelUTest.givenPlayerWithDefault</text>
<text text-anchor="start" x="8" y="-595.27" font-family="Helvetica,sans-Serif" font-size="10.00">Grid_whenGetCurrentSolvedGridFromModel</text>
<text text-anchor="middle" x="107" y="-583.27" font-family="Helvetica,sans-Serif" font-size="10.00">_thenSolvedGridAndCurrentGridReturned</text>
</a>
</g>
</g>
<!-- Node2 -->
<g id="Node000002" class="node">
<title>Node2</title>
<g id="a_Node000002"><a xlink:href="enumfr_1_1softsf_1_1sudokufx_1_1common_1_1enums_1_1_difficulty_level.html#a7df76231e8b2c4e2180213007891b807" target="_top" xlink:title="Resolves a DifficultyLevel from its byte representation.">
<polygon fill="white" stroke="#666666" points="1105.62,-796.77 937.38,-796.77 937.38,-764.77 1105.62,-764.77 1105.62,-796.77"/>
<text text-anchor="start" x="945.38" y="-783.27" font-family="Helvetica,sans-Serif" font-size="10.00">fr.softsf.sudokufx.common.enums.</text>
<text text-anchor="middle" x="1021.5" y="-771.27" font-family="Helvetica,sans-Serif" font-size="10.00">DifficultyLevel.fromGridByte</text>
</a>
</g>
</g>
<!-- Node1&#45;&gt;Node2 -->
<g id="edge1_Node000001_Node000002" class="edge">
<title>Node1&#45;&gt;Node2</title>
<g id="a_edge1_Node000001_Node000002"><a xlink:title=" ">
<path fill="none" stroke="#63b8ff" d="M214.22,-625.78C226.29,-628.15 238.41,-630.52 250,-632.77 493.51,-680.17 780.53,-735.04 925.89,-762.76"/>
<polygon fill="#63b8ff" stroke="#63b8ff" points="924.99,-766.15 935.47,-764.58 926.3,-759.27 924.99,-766.15"/>
</a>
</g>
</g>
<!-- Node3 -->
<g id="Node000003" class="node">
<title>Node3</title>
<g id="a_Node000003"><a xlink:href="classfr_1_1softsf_1_1sudokufx_1_1viewmodel_1_1grid_1_1_grid_view_model.html#a14e2c0c3e0e51a0fee38c181b39fa6e2" target="_top" xlink:title="Gets a list of all cell text values in row&#45;major order.">
<polygon fill="white" stroke="#666666" points="1535.5,-538.77 1371.75,-538.77 1371.75,-506.77 1535.5,-506.77 1535.5,-538.77"/>
<text text-anchor="start" x="1379.75" y="-525.27" font-family="Helvetica,sans-Serif" font-size="10.00">fr.softsf.sudokufx.viewmodel.grid.</text>
<text text-anchor="middle" x="1453.62" y="-513.27" font-family="Helvetica,sans-Serif" font-size="10.00">GridViewModel.getAllValues</text>
</a>
</g>
</g>
<!-- Node1&#45;&gt;Node3 -->
<g id="edge2_Node000001_Node000003" class="edge">
<title>Node1&#45;&gt;Node3</title>
<g id="a_edge2_Node000001_Node000003"><a xlink:title=" ">
<path fill="none" stroke="#63b8ff" d="M214.31,-587.89C301.64,-575.48 428.7,-560.77 540.38,-560.77 540.38,-560.77 540.38,-560.77 1022.5,-560.77 1139.38,-560.77 1273.44,-546.68 1360.4,-535.66"/>
<polygon fill="#63b8ff" stroke="#63b8ff" points="1360.58,-539.16 1370.05,-534.42 1359.69,-532.22 1360.58,-539.16"/>
</a>
</g>
</g>
<!-- Node5 -->
<g id="Node000005" class="node">
<title>Node5</title>
<g id="a_Node000005"><a xlink:href="classfr_1_1softsf_1_1sudokufx_1_1viewmodel_1_1grid_1_1_grid_view_model.html#a293a2d059c297f4ff13190d0b7695452" target="_top" xlink:title="Loads the solved Sudoku grid from the model into the ViewModel.">
<polygon fill="white" stroke="#666666" points="896.5,-664.77 669,-664.77 669,-632.77 896.5,-632.77 896.5,-664.77"/>
<text text-anchor="start" x="677" y="-651.27" font-family="Helvetica,sans-Serif" font-size="10.00">fr.softsf.sudokufx.viewmodel.grid.</text>
<text text-anchor="middle" x="782.75" y="-639.27" font-family="Helvetica,sans-Serif" font-size="10.00">GridViewModel.getCurrentSolvedGridFromModel</text>
</a>
</g>
</g>
<!-- Node1&#45;&gt;Node5 -->
<g id="edge4_Node000001_Node000005" class="edge">
<title>Node1&#45;&gt;Node5</title>
<g id="a_edge4_Node000001_Node000005"><a xlink:title=" ">
<path fill="none" stroke="#63b8ff" d="M214.39,-611.72C334.61,-619.57 530.08,-632.34 657.29,-640.65"/>
<polygon fill="#63b8ff" stroke="#63b8ff" points="656.9,-644.13 667.11,-641.29 657.35,-637.14 656.9,-644.13"/>
</a>
</g>
</g>
<!-- Node11 -->
<g id="Node000011" class="node">
<title>Node11</title>
<g id="a_Node000011"><a xlink:href="classfr_1_1softsf_1_1sudokufx_1_1viewmodel_1_1grid_1_1_grid_view_model.html#a159c0e18f45f9bd105fb03964f5f9374" target="_top" xlink:title="Instantiates the 81 GridCellViewModel and binds text change listeners.">
<polygon fill="white" stroke="#666666" points="413.75,-165.77 250,-165.77 250,-133.77 413.75,-133.77 413.75,-165.77"/>
<text text-anchor="start" x="258" y="-152.27" font-family="Helvetica,sans-Serif" font-size="10.00">fr.softsf.sudokufx.viewmodel.grid.</text>
<text text-anchor="middle" x="331.88" y="-140.27" font-family="Helvetica,sans-Serif" font-size="10.00">GridViewModel.init</text>
</a>
</g>
</g>
<!-- Node1&#45;&gt;Node11 -->
<g id="edge16_Node000001_Node000011" class="edge">
<title>Node1&#45;&gt;Node11</title>
<g id="a_edge16_Node000001_Node000011"><a xlink:title=" ">
<path fill="none" stroke="#63b8ff" d="M121.94,-576.31C162.26,-494 278.62,-256.45 317.81,-176.44"/>
<polygon fill="#63b8ff" stroke="#63b8ff" points="320.89,-178.11 322.15,-167.59 314.61,-175.03 320.89,-178.11"/>
</a>
</g>
</g>
<!-- Node4 -->
<g id="Node000004" class="node">
<title>Node4</title>
<g id="a_Node000004"><a xlink:href="classfr_1_1softsf_1_1sudokufx_1_1viewmodel_1_1grid_1_1_grid_view_model.html#ace36956cb99bad46d1144460d8cde157" target="_top" xlink:title="Checks whether the GridViewModel has been initialized via init().">
<polygon fill="white" stroke="#666666" points="1735.25,-538.77 1571.5,-538.77 1571.5,-506.77 1735.25,-506.77 1735.25,-538.77"/>
<text text-anchor="start" x="1579.5" y="-525.27" font-family="Helvetica,sans-Serif" font-size="10.00">fr.softsf.sudokufx.viewmodel.grid.</text>
<text text-anchor="middle" x="1653.38" y="-513.27" font-family="Helvetica,sans-Serif" font-size="10.00">GridViewModel.checkInitialized</text>
</a>
</g>
</g>
<!-- Node3&#45;&gt;Node4 -->
<g id="edge3_Node000003_Node000004" class="edge">
<title>Node3&#45;&gt;Node4</title>
<g id="a_edge3_Node000003_Node000004"><a xlink:title=" ">
<path fill="none" stroke="#63b8ff" d="M1535.91,-522.77C1543.81,-522.77 1551.85,-522.77 1559.84,-522.77"/>
<polygon fill="#63b8ff" stroke="#63b8ff" points="1559.57,-526.27 1569.57,-522.77 1559.57,-519.27 1559.57,-526.27"/>
</a>
</g>
</g>
<!-- Node5&#45;&gt;Node2 -->
<g id="edge7_Node000005_Node000002" class="edge">
<title>Node5&#45;&gt;Node2</title>
<g id="a_edge7_Node000005_Node000002"><a xlink:title=" ">
<path fill="none" stroke="#63b8ff" d="M811.48,-665.23C834.84,-679.5 868.78,-701.2 896.5,-722.77 913.63,-736.1 913.55,-745.19 932.5,-755.77 935.14,-757.25 937.87,-758.64 940.67,-759.96"/>
<polygon fill="#63b8ff" stroke="#63b8ff" points="939.08,-763.08 949.65,-763.8 941.83,-756.64 939.08,-763.08"/>
</a>
</g>
</g>
<!-- Node5&#45;&gt;Node3 -->
<g id="edge8_Node000005_Node000003" class="edge">
<title>Node5&#45;&gt;Node3</title>
<g id="a_edge8_Node000005_Node000003"><a xlink:title=" ">
<path fill="none" stroke="#63b8ff" d="M896.88,-654C1034.85,-658.8 1259.13,-661.08 1335.75,-629.77 1377.26,-612.82 1413.29,-574.08 1433.99,-548.17"/>
<polygon fill="#63b8ff" stroke="#63b8ff" points="1436.6,-550.51 1439.97,-540.46 1431.08,-546.21 1436.6,-550.51"/>
</a>
</g>
</g>
<!-- Node5&#45;&gt;Node4 -->
<g id="edge5_Node000005_Node000004" class="edge">
<title>Node5&#45;&gt;Node4</title>
<g id="a_edge5_Node000005_Node000004"><a xlink:title=" ">
<path fill="none" stroke="#63b8ff" d="M889.39,-665.25C1001.7,-679.32 1183.72,-692.21 1335.75,-656.77 1440.77,-632.29 1555.24,-575.63 1613.53,-544.4"/>
<polygon fill="#63b8ff" stroke="#63b8ff" points="1614.94,-547.62 1622.07,-539.78 1611.61,-541.46 1614.94,-547.62"/>
</a>
</g>
</g>
<!-- Node6 -->
<g id="Node000006" class="node">
<title>Node6</title>
<g id="a_Node000006"><a xlink:href="namespacefr_1_1softsf_1_1sudokufx_1_1viewmodel_1_1grid.html#ab18045075b2fc0497b7d6783282145e8" target="_top" xlink:title="Represents the current loaded Sudoku grid, including its difficulty level and the percentage of possi...">
<polygon fill="white" stroke="#666666" points="1103.38,-746.77 939.62,-746.77 939.62,-714.77 1103.38,-714.77 1103.38,-746.77"/>
<text text-anchor="start" x="947.62" y="-733.27" font-family="Helvetica,sans-Serif" font-size="10.00">fr.softsf.sudokufx.viewmodel.grid.</text>
<text text-anchor="middle" x="1021.5" y="-721.27" font-family="Helvetica,sans-Serif" font-size="10.00">CurrentGrid</text>
</a>
</g>
</g>
<!-- Node5&#45;&gt;Node6 -->
<g id="edge6_Node000005_Node000006" class="edge">
<title>Node5&#45;&gt;Node6</title>
<g id="a_edge6_Node000005_Node000006"><a xlink:title=" ">
<path fill="none" stroke="#63b8ff" d="M830.61,-665.26C859.88,-675.53 898.37,-688.99 932.5,-700.77 941.81,-703.99 951.69,-707.38 961.32,-710.67"/>
<polygon fill="#63b8ff" stroke="#63b8ff" points="960.04,-713.93 970.63,-713.85 962.3,-707.3 960.04,-713.93"/>
</a>
</g>
</g>
<!-- Node7 -->
<g id="Node000007" class="node">
<title>Node7</title>
<g id="a_Node000007"><a xlink:href="classfr_1_1softsf_1_1sudokufx_1_1viewmodel_1_1grid_1_1_grid_view_model.html#af41c64cb771df8f4fa5bbf0c3a34431b" target="_top" xlink:title="Solves the given 9x9 Sudoku grid.">
<polygon fill="white" stroke="#666666" points="1324.12,-620.77 1158.12,-620.77 1158.12,-588.77 1324.12,-588.77 1324.12,-620.77"/>
<text text-anchor="start" x="1166.12" y="-607.27" font-family="Helvetica,sans-Serif" font-size="10.00">fr.softsf.sudokufx.viewmodel.grid.</text>
<text text-anchor="middle" x="1241.12" y="-595.27" font-family="Helvetica,sans-Serif" font-size="10.00">GridViewModel.getCurrentSolution</text>
</a>
</g>
</g>
<!-- Node5&#45;&gt;Node7 -->
<g id="edge9_Node000005_Node000007" class="edge">
<title>Node5&#45;&gt;Node7</title>
<g id="a_edge9_Node000005_Node000007"><a xlink:title=" ">
<path fill="none" stroke="#63b8ff" d="M896.85,-637.87C973.65,-630.46 1074.01,-620.79 1146.36,-613.81"/>
<polygon fill="#63b8ff" stroke="#63b8ff" points="1146.59,-617.31 1156.21,-612.86 1145.92,-610.34 1146.59,-617.31"/>
</a>
</g>
</g>
<!-- Node8 -->
<g id="Node000008" class="node">
<title>Node8</title>
<g id="a_Node000008"><a xlink:href="classfr_1_1softsf_1_1sudokufx_1_1viewmodel_1_1grid_1_1_grid_view_model.html#ab7607876adb740f7f1d55b5016faba0c" target="_top" xlink:title="Sets all 81 cell values and optionally their editability.">
<polygon fill="white" stroke="#666666" points="1103.38,-347.77 939.62,-347.77 939.62,-315.77 1103.38,-315.77 1103.38,-347.77"/>
<text text-anchor="start" x="947.62" y="-334.27" font-family="Helvetica,sans-Serif" font-size="10.00">fr.softsf.sudokufx.viewmodel.grid.</text>
<text text-anchor="middle" x="1021.5" y="-322.27" font-family="Helvetica,sans-Serif" font-size="10.00">GridViewModel.setValues</text>
</a>
</g>
</g>
<!-- Node5&#45;&gt;Node8 -->
<g id="edge10_Node000005_Node000008" class="edge">
<title>Node5&#45;&gt;Node8</title>
<g id="a_edge10_Node000005_Node000008"><a xlink:title=" ">
<path fill="none" stroke="#63b8ff" d="M794.45,-632.38C818.24,-596.16 877.76,-506.9 932.5,-435.77 953.99,-407.85 980.26,-377.21 998.48,-356.47"/>
<polygon fill="#63b8ff" stroke="#63b8ff" points="1001,-358.9 1004.99,-349.09 995.75,-354.27 1001,-358.9"/>
</a>
</g>
</g>
<!-- Node8&#45;&gt;Node4 -->
<g id="edge11_Node000008_Node000004" class="edge">
<title>Node8&#45;&gt;Node4</title>
<g id="a_edge11_Node000008_Node000004"><a xlink:title=" ">
<path fill="none" stroke="#63b8ff" d="M1103.62,-321.52C1167.84,-316.07 1259.16,-314.32 1335.75,-335.77 1453.47,-368.75 1572.25,-457.03 1624.63,-499.42"/>
<polygon fill="#63b8ff" stroke="#63b8ff" points="1622.2,-501.96 1632.16,-505.58 1626.63,-496.54 1622.2,-501.96"/>
</a>
</g>
</g>
<!-- Node9 -->
<g id="Node000009" class="node">
<title>Node9</title>
<g id="a_Node000009"><a xlink:href="classfr_1_1softsf_1_1sudokufx_1_1viewmodel_1_1grid_1_1_grid_cell_view_model.html#a1b2f5aa3c798e4aaf3e845aa59cde94c" target="_top" xlink:title=" ">
<polygon fill="white" stroke="#666666" points="1327.5,-248.77 1154.75,-248.77 1154.75,-216.77 1327.5,-216.77 1327.5,-248.77"/>
<text text-anchor="start" x="1162.75" y="-235.27" font-family="Helvetica,sans-Serif" font-size="10.00">fr.softsf.sudokufx.viewmodel.grid.</text>
<text text-anchor="middle" x="1241.12" y="-223.27" font-family="Helvetica,sans-Serif" font-size="10.00">GridCellViewModel.editableProperty</text>
</a>
</g>
</g>
<!-- Node8&#45;&gt;Node9 -->
<g id="edge12_Node000008_Node000009" class="edge">
<title>Node8&#45;&gt;Node9</title>
<g id="a_edge12_Node000008_Node000009"><a xlink:title=" ">
<path fill="none" stroke="#63b8ff" d="M1087.05,-315.39C1095.05,-312.79 1103.03,-309.91 1110.5,-306.77 1144.46,-292.51 1180.66,-271.27 1206.16,-255.2"/>
<polygon fill="#63b8ff" stroke="#63b8ff" points="1207.89,-258.25 1214.44,-249.92 1204.12,-252.35 1207.89,-258.25"/>
</a>
</g>
</g>
<!-- Node10 -->
<g id="Node000010" class="node">
<title>Node10</title>
<g id="a_Node000010"><a xlink:href="classfr_1_1softsf_1_1sudokufx_1_1viewmodel_1_1grid_1_1_grid_cell_view_model.html#ae04f21e5c6df7750f4e8c79d600a9b6b" target="_top" xlink:title=" ">
<polygon fill="white" stroke="#666666" points="1327.88,-179.77 1154.38,-179.77 1154.38,-147.77 1327.88,-147.77 1327.88,-179.77"/>
<text text-anchor="start" x="1162.38" y="-166.27" font-family="Helvetica,sans-Serif" font-size="10.00">fr.softsf.sudokufx.viewmodel.grid.</text>
<text text-anchor="middle" x="1241.12" y="-154.27" font-family="Helvetica,sans-Serif" font-size="10.00">GridCellViewModel.rawTextProperty</text>
</a>
</g>
</g>
<!-- Node8&#45;&gt;Node10 -->
<g id="edge14_Node000008_Node000010" class="edge">
<title>Node8&#45;&gt;Node10</title>
<g id="a_edge14_Node000008_Node000010"><a xlink:title=" ">
<path fill="none" stroke="#63b8ff" d="M1099,-315.31C1103.13,-312.85 1107.01,-310.02 1110.5,-306.77 1144.78,-274.88 1114.93,-242.34 1146.5,-207.77 1154.85,-198.64 1165.48,-191.23 1176.57,-185.28"/>
<polygon fill="#63b8ff" stroke="#63b8ff" points="1178.05,-188.46 1185.47,-180.9 1174.95,-182.18 1178.05,-188.46"/>
</a>
</g>
</g>
<!-- Node9&#45;&gt;Node9 -->
<g id="edge13_Node000009_Node000009" class="edge">
<title>Node9&#45;&gt;Node9</title>
<g id="a_edge13_Node000009_Node000009"><a xlink:title=" ">
<path fill="none" stroke="#63b8ff" d="M1203.19,-249.22C1196.11,-258.36 1208.75,-266.77 1241.12,-266.77 1259.08,-266.77 1270.97,-264.18 1276.79,-260.32"/>
<polygon fill="#63b8ff" stroke="#63b8ff" points="1280.18,-261.2 1278.76,-250.7 1273.32,-259.79 1280.18,-261.2"/>
</a>
</g>
</g>
<!-- Node10&#45;&gt;Node10 -->
<g id="edge15_Node000010_Node000010" class="edge">
<title>Node10&#45;&gt;Node10</title>
<g id="a_edge15_Node000010_Node000010"><a xlink:title=" ">
<path fill="none" stroke="#63b8ff" d="M1203.19,-180.22C1196.11,-189.36 1208.75,-197.77 1241.12,-197.77 1259.08,-197.77 1270.97,-195.18 1276.79,-191.32"/>
<polygon fill="#63b8ff" stroke="#63b8ff" points="1280.18,-192.2 1278.76,-181.7 1273.32,-190.79 1280.18,-192.2"/>
</a>
</g>
</g>
<!-- Node12 -->
<g id="Node000012" class="node">
<title>Node12</title>
<g id="a_Node000012"><a xlink:href="classfr_1_1softsf_1_1sudokufx_1_1viewmodel_1_1grid_1_1_grid_cell_view_model.html#a25813c6885f49b2be4c3dafa6e9878c8" target="_top" xlink:title=" ">
<polygon fill="white" stroke="#666666" points="1323,-39.77 1159.25,-39.77 1159.25,-7.77 1323,-7.77 1323,-39.77"/>
<text text-anchor="start" x="1167.25" y="-26.27" font-family="Helvetica,sans-Serif" font-size="10.00">fr.softsf.sudokufx.viewmodel.grid.</text>
<text text-anchor="middle" x="1241.12" y="-14.27" font-family="Helvetica,sans-Serif" font-size="10.00">GridCellViewModel.getTextArea</text>
</a>
</g>
</g>
<!-- Node11&#45;&gt;Node12 -->
<g id="edge17_Node000011_Node000012" class="edge">
<title>Node11&#45;&gt;Node12</title>
<g id="a_edge17_Node000011_Node000012"><a xlink:title=" ">
<path fill="none" stroke="#63b8ff" d="M383.47,-133.32C485.79,-101.02 725.18,-30.32 932.5,-5.77 1011.06,3.53 1031.58,-0.32 1110.5,-5.77 1122.56,-6.61 1135.21,-7.87 1147.68,-9.35"/>
<polygon fill="#63b8ff" stroke="#63b8ff" points="1147.2,-12.82 1157.55,-10.58 1148.06,-5.87 1147.2,-12.82"/>
</a>
</g>
</g>
<!-- Node13 -->
<g id="Node000013" class="node">
<title>Node13</title>
<g id="a_Node000013"><a xlink:href="classfr_1_1softsf_1_1sudokufx_1_1viewmodel_1_1grid_1_1_grid_view_model.html#add773c382452e7476099209f6898f991" target="_top" xlink:title="Synchronizes the grid state and manages side effects based on the current application mode.">
<polygon fill="white" stroke="#666666" points="633,-165.77 449.75,-165.77 449.75,-133.77 633,-133.77 633,-165.77"/>
<text text-anchor="start" x="457.75" y="-152.27" font-family="Helvetica,sans-Serif" font-size="10.00">fr.softsf.sudokufx.viewmodel.grid.</text>
<text text-anchor="middle" x="541.38" y="-140.27" font-family="Helvetica,sans-Serif" font-size="10.00">GridViewModel.handleCellTextChange</text>
</a>
</g>
</g>
<!-- Node11&#45;&gt;Node13 -->
<g id="edge19_Node000011_Node000013" class="edge">
<title>Node11&#45;&gt;Node13</title>
<g id="a_edge19_Node000011_Node000013"><a xlink:title=" ">
<path fill="none" stroke="#63b8ff" d="M413.99,-149.77C421.87,-149.77 429.94,-149.77 437.99,-149.77"/>
<polygon fill="#63b8ff" stroke="#63b8ff" points="437.83,-153.27 447.83,-149.77 437.83,-146.27 437.83,-153.27"/>
</a>
</g>
</g>
<!-- Node12&#45;&gt;Node12 -->
<g id="edge18_Node000012_Node000012" class="edge">
<title>Node12&#45;&gt;Node12</title>
<g id="a_edge18_Node000012_Node000012"><a xlink:title=" ">
<path fill="none" stroke="#63b8ff" d="M1203.19,-40.22C1196.11,-49.36 1208.75,-57.77 1241.12,-57.77 1259.08,-57.77 1270.97,-55.18 1276.79,-51.32"/>
<polygon fill="#63b8ff" stroke="#63b8ff" points="1280.18,-52.2 1278.76,-41.7 1273.32,-50.79 1280.18,-52.2"/>
</a>
</g>
</g>
<!-- Node14 -->
<g id="Node000014" class="node">
<title>Node14</title>
<g id="a_Node000014"><a xlink:href="classfr_1_1softsf_1_1sudokufx_1_1viewmodel_1_1grid_1_1_grid_view_model.html#a3be7edba49a294b63514cac2edba058e" target="_top" xlink:title="Synchronizes the grid state during manual solving.">
<polygon fill="white" stroke="#666666" points="872.88,-165.77 692.62,-165.77 692.62,-133.77 872.88,-133.77 872.88,-165.77"/>
<text text-anchor="start" x="700.62" y="-152.27" font-family="Helvetica,sans-Serif" font-size="10.00">fr.softsf.sudokufx.viewmodel.grid.</text>
<text text-anchor="middle" x="782.75" y="-140.27" font-family="Helvetica,sans-Serif" font-size="10.00">GridViewModel.applySolveModeState</text>
</a>
</g>
</g>
<!-- Node13&#45;&gt;Node14 -->
<g id="edge20_Node000013_Node000014" class="edge">
<title>Node13&#45;&gt;Node14</title>
<g id="a_edge20_Node000013_Node000014"><a xlink:title=" ">
<path fill="none" stroke="#63b8ff" d="M633.21,-149.77C648.75,-149.77 664.98,-149.77 680.76,-149.77"/>
<polygon fill="#63b8ff" stroke="#63b8ff" points="680.65,-153.27 690.65,-149.77 680.65,-146.27 680.65,-153.27"/>
</a>
</g>
</g>
<!-- Node18 -->
<g id="Node000018" class="node">
<title>Node18</title>
<g id="a_Node000018"><a xlink:href="classfr_1_1softsf_1_1sudokufx_1_1viewmodel_1_1grid_1_1_grid_view_model.html#ac30ea1feb669d014d0d0a58bd85cfc87" target="_top" xlink:title="Handles grid persistence and completion verification during regular gameplay.">
<polygon fill="white" stroke="#666666" points="876.62,-391.77 688.88,-391.77 688.88,-359.77 876.62,-359.77 876.62,-391.77"/>
<text text-anchor="start" x="696.88" y="-378.27" font-family="Helvetica,sans-Serif" font-size="10.00">fr.softsf.sudokufx.viewmodel.grid.</text>
<text text-anchor="middle" x="782.75" y="-366.27" font-family="Helvetica,sans-Serif" font-size="10.00">GridViewModel.applyStandardPlayFlow</text>
</a>
</g>
</g>
<!-- Node13&#45;&gt;Node18 -->
<g id="edge34_Node000013_Node000018" class="edge">
<title>Node13&#45;&gt;Node18</title>
<g id="a_edge34_Node000013_Node000018"><a xlink:title=" ">
<path fill="none" stroke="#63b8ff" d="M559.59,-166.03C601.15,-205.27 707.17,-305.36 756.18,-351.63"/>
<polygon fill="#63b8ff" stroke="#63b8ff" points="753.59,-354 763.27,-358.32 758.4,-348.91 753.59,-354"/>
</a>
</g>
</g>
<!-- Node24 -->
<g id="Node000024" class="node">
<title>Node24</title>
<g id="a_Node000024"><a xlink:href="classfr_1_1softsf_1_1sudokufx_1_1viewmodel_1_1grid_1_1_grid_view_model.html#ad1b7ef7994bef2d64edd271bf77a9cbc" target="_top" xlink:title="Checks if the current UI context is set to the Solve menu.">
<polygon fill="white" stroke="#666666" points="867.25,-115.77 698.25,-115.77 698.25,-83.77 867.25,-83.77 867.25,-115.77"/>
<text text-anchor="start" x="706.25" y="-102.27" font-family="Helvetica,sans-Serif" font-size="10.00">fr.softsf.sudokufx.viewmodel.grid.</text>
<text text-anchor="middle" x="782.75" y="-90.27" font-family="Helvetica,sans-Serif" font-size="10.00">GridViewModel.isSolveModeActive</text>
</a>
</g>
</g>
<!-- Node13&#45;&gt;Node24 -->
<g id="edge46_Node000013_Node000024" class="edge">
<title>Node13&#45;&gt;Node24</title>
<g id="a_edge46_Node000013_Node000024"><a xlink:title=" ">
<path fill="none" stroke="#63b8ff" d="M621.09,-133.33C643.69,-128.61 668.51,-123.43 691.73,-118.58"/>
<polygon fill="#63b8ff" stroke="#63b8ff" points="692.44,-122 701.51,-116.53 691,-115.15 692.44,-122"/>
</a>
</g>
</g>
<!-- Node14&#45;&gt;Node9 -->
<g id="edge21_Node000014_Node000009" class="edge">
<title>Node14&#45;&gt;Node9</title>
<g id="a_edge21_Node000014_Node000009"><a xlink:title=" ">
<path fill="none" stroke="#63b8ff" d="M810.8,-166.26C839.74,-182.94 887.56,-207.78 932.5,-218.77 1001.55,-235.67 1081.87,-238.79 1143.12,-237.88"/>
<polygon fill="#63b8ff" stroke="#63b8ff" points="1142.88,-241.39 1152.81,-237.7 1142.75,-234.39 1142.88,-241.39"/>
</a>
</g>
</g>
<!-- Node14&#45;&gt;Node10 -->
<g id="edge25_Node000014_Node000010" class="edge">
<title>Node14&#45;&gt;Node10</title>
<g id="a_edge25_Node000014_Node000010"><a xlink:title=" ">
<path fill="none" stroke="#63b8ff" d="M873.37,-152.52C951.1,-154.91 1063.34,-158.35 1143.15,-160.8"/>
<polygon fill="#63b8ff" stroke="#63b8ff" points="1142.57,-164.28 1152.67,-161.09 1142.79,-157.29 1142.57,-164.28"/>
</a>
</g>
</g>
<!-- Node14&#45;&gt;Node12 -->
<g id="edge24_Node000014_Node000012" class="edge">
<title>Node14&#45;&gt;Node12</title>
<g id="a_edge24_Node000014_Node000012"><a xlink:title=" ">
<path fill="none" stroke="#63b8ff" d="M873.31,-137.86C881.63,-134.47 889.53,-130.18 896.5,-124.77 924.45,-103.09 903.29,-73.73 932.5,-53.77 995.01,-11.06 1082.06,-6.32 1147.61,-10.66"/>
<polygon fill="#63b8ff" stroke="#63b8ff" points="1147.02,-14.13 1157.25,-11.39 1147.54,-7.15 1147.02,-14.13"/>
</a>
</g>
</g>
<!-- Node15 -->
<g id="Node000015" class="node">
<title>Node15</title>
<g id="a_Node000015"><a xlink:href="classfr_1_1softsf_1_1sudokufx_1_1viewmodel_1_1grid_1_1_grid_cell_view_model.html#a206f89cb24905ebf71e7ddbb27998a7d" target="_top" xlink:title=" ">
<polygon fill="white" stroke="#666666" points="1323,-109.77 1159.25,-109.77 1159.25,-77.77 1323,-77.77 1323,-109.77"/>
<text text-anchor="start" x="1167.25" y="-96.27" font-family="Helvetica,sans-Serif" font-size="10.00">fr.softsf.sudokufx.viewmodel.grid.</text>
<text text-anchor="middle" x="1241.12" y="-84.27" font-family="Helvetica,sans-Serif" font-size="10.00">GridCellViewModel.getLabel</text>
</a>
</g>
</g>
<!-- Node14&#45;&gt;Node15 -->
<g id="edge22_Node000014_Node000015" class="edge">
<title>Node14&#45;&gt;Node15</title>
<g id="a_edge22_Node000014_Node000015"><a xlink:title=" ">
<path fill="none" stroke="#63b8ff" d="M873.36,-135.82C881.47,-132.82 889.33,-129.19 896.5,-124.77 918.02,-111.53 909.67,-91.59 932.5,-80.77 1010.36,-43.88 1112.12,-58.59 1176.82,-74.56"/>
<polygon fill="#63b8ff" stroke="#63b8ff" points="1175.64,-77.87 1186.2,-76.96 1177.38,-71.09 1175.64,-77.87"/>
</a>
</g>
</g>
<!-- Node16 -->
<g id="Node000016" class="node">
<title>Node16</title>
<g id="a_Node000016"><a xlink:href="classfr_1_1softsf_1_1sudokufx_1_1viewmodel_1_1grid_1_1_grid_view_model.html#a784d6f09a416df51f857b06ef14d4df5" target="_top" xlink:title="Utility method to reset a cell to its initial editable state.">
<polygon fill="white" stroke="#666666" points="1106.38,-121.77 936.62,-121.77 936.62,-89.77 1106.38,-89.77 1106.38,-121.77"/>
<text text-anchor="start" x="944.62" y="-108.27" font-family="Helvetica,sans-Serif" font-size="10.00">fr.softsf.sudokufx.viewmodel.grid.</text>
<text text-anchor="middle" x="1021.5" y="-96.27" font-family="Helvetica,sans-Serif" font-size="10.00">GridViewModel.resetCellToEditable</text>
</a>
</g>
</g>
<!-- Node14&#45;&gt;Node16 -->
<g id="edge26_Node000014_Node000016" class="edge">
<title>Node14&#45;&gt;Node16</title>
<g id="a_edge26_Node000014_Node000016"><a xlink:title=" ">
<path fill="none" stroke="#63b8ff" d="M872.24,-133.33C889.65,-130.09 907.97,-126.69 925.57,-123.42"/>
<polygon fill="#63b8ff" stroke="#63b8ff" points="925.75,-126.94 934.94,-121.68 924.47,-120.06 925.75,-126.94"/>
</a>
</g>
</g>
<!-- Node17 -->
<g id="Node000017" class="node">
<title>Node17</title>
<g id="a_Node000017"><a xlink:href="classfr_1_1softsf_1_1sudokufx_1_1viewmodel_1_1grid_1_1_grid_view_model.html#a14ed923537d42b9a3273e937ac7b7073" target="_top" xlink:title="Calculates the solution based on anchored cells and updates editable cells.">
<polygon fill="white" stroke="#666666" points="1110.5,-209.77 932.5,-209.77 932.5,-177.77 1110.5,-177.77 1110.5,-209.77"/>
<text text-anchor="start" x="940.5" y="-196.27" font-family="Helvetica,sans-Serif" font-size="10.00">fr.softsf.sudokufx.viewmodel.grid.</text>
<text text-anchor="middle" x="1021.5" y="-184.27" font-family="Helvetica,sans-Serif" font-size="10.00">GridViewModel.updateSolveProgress</text>
</a>
</g>
</g>
<!-- Node14&#45;&gt;Node17 -->
<g id="edge31_Node000014_Node000017" class="edge">
<title>Node14&#45;&gt;Node17</title>
<g id="a_edge31_Node000014_Node000017"><a xlink:title=" ">
<path fill="none" stroke="#63b8ff" d="M872.24,-166.22C888.14,-169.18 904.81,-172.27 921,-175.28"/>
<polygon fill="#63b8ff" stroke="#63b8ff" points="920.15,-178.68 930.63,-177.07 921.43,-171.8 920.15,-178.68"/>
</a>
</g>
</g>
<!-- Node15&#45;&gt;Node15 -->
<g id="edge23_Node000015_Node000015" class="edge">
<title>Node15&#45;&gt;Node15</title>
<g id="a_edge23_Node000015_Node000015"><a xlink:title=" ">
<path fill="none" stroke="#63b8ff" d="M1203.19,-110.22C1196.11,-119.36 1208.75,-127.77 1241.12,-127.77 1259.08,-127.77 1270.97,-125.18 1276.79,-121.32"/>
<polygon fill="#63b8ff" stroke="#63b8ff" points="1280.18,-122.2 1278.76,-111.7 1273.32,-120.79 1280.18,-122.2"/>
</a>
</g>
</g>
<!-- Node16&#45;&gt;Node9 -->
<g id="edge27_Node000016_Node000009" class="edge">
<title>Node16&#45;&gt;Node9</title>
<g id="a_edge27_Node000016_Node000009"><a xlink:title=" ">
<path fill="none" stroke="#63b8ff" d="M1048.12,-122.21C1066.21,-134.27 1090.67,-151.49 1110.5,-168.77 1128.04,-184.06 1126.57,-194.78 1146.5,-206.77 1149.44,-208.54 1152.51,-210.2 1155.66,-211.74"/>
<polygon fill="#63b8ff" stroke="#63b8ff" points="1154.02,-214.84 1164.58,-215.69 1156.85,-208.44 1154.02,-214.84"/>
</a>
</g>
</g>
<!-- Node16&#45;&gt;Node10 -->
<g id="edge30_Node000016_Node000010" class="edge">
<title>Node16&#45;&gt;Node10</title>
<g id="a_edge30_Node000016_Node000010"><a xlink:title=" ">
<path fill="none" stroke="#63b8ff" d="M1084.28,-122.24C1110.24,-129.16 1140.61,-137.25 1167.62,-144.45"/>
<polygon fill="#63b8ff" stroke="#63b8ff" points="1166.54,-147.78 1177.1,-146.98 1168.34,-141.02 1166.54,-147.78"/>
</a>
</g>
</g>
<!-- Node16&#45;&gt;Node12 -->
<g id="edge29_Node000016_Node000012" class="edge">
<title>Node16&#45;&gt;Node12</title>
<g id="a_edge29_Node000016_Node000012"><a xlink:title=" ">
<path fill="none" stroke="#63b8ff" d="M1066.28,-89.28C1100.73,-76.3 1148.93,-58.13 1185.84,-44.23"/>
<polygon fill="#63b8ff" stroke="#63b8ff" points="1186.88,-47.58 1195,-40.78 1184.41,-41.03 1186.88,-47.58"/>
</a>
</g>
</g>
<!-- Node16&#45;&gt;Node15 -->
<g id="edge28_Node000016_Node000015" class="edge">
<title>Node16&#45;&gt;Node15</title>
<g id="a_edge28_Node000016_Node000015"><a xlink:title=" ">
<path fill="none" stroke="#63b8ff" d="M1106.64,-101.13C1120.1,-100.39 1134.08,-99.62 1147.72,-98.87"/>
<polygon fill="#63b8ff" stroke="#63b8ff" points="1147.77,-102.37 1157.56,-98.33 1147.38,-95.38 1147.77,-102.37"/>
</a>
</g>
</g>
<!-- Node17&#45;&gt;Node9 -->
<g id="edge32_Node000017_Node000009" class="edge">
<title>Node17&#45;&gt;Node9</title>
<g id="a_edge32_Node000017_Node000009"><a xlink:title=" ">
<path fill="none" stroke="#63b8ff" d="M1110.7,-209.58C1121.37,-211.49 1132.31,-213.45 1143.1,-215.39"/>
<polygon fill="#63b8ff" stroke="#63b8ff" points="1142.32,-218.8 1152.78,-217.12 1143.55,-211.91 1142.32,-218.8"/>
</a>
</g>
</g>
<!-- Node17&#45;&gt;Node10 -->
<g id="edge33_Node000017_Node000010" class="edge">
<title>Node17&#45;&gt;Node10</title>
<g id="a_edge33_Node000017_Node000010"><a xlink:title=" ">
<path fill="none" stroke="#63b8ff" d="M1110.7,-181.61C1121.28,-180.16 1132.13,-178.66 1142.84,-177.19"/>
<polygon fill="#63b8ff" stroke="#63b8ff" points="1142.99,-180.7 1152.41,-175.86 1142.03,-173.76 1142.99,-180.7"/>
</a>
</g>
</g>
<!-- Node19 -->
<g id="Node000019" class="node">
<title>Node19</title>
<g id="a_Node000019"><a xlink:href="classfr_1_1softsf_1_1sudokufx_1_1viewmodel_1_1grid_1_1_grid_view_model.html#a6c7bd2140fad9b3091830f3f81c64827" target="_top" xlink:title="Returns whether the current game has a non&#45;empty default grid.">
<polygon fill="white" stroke="#666666" points="1103.38,-297.77 939.62,-297.77 939.62,-265.77 1103.38,-265.77 1103.38,-297.77"/>
<text text-anchor="start" x="947.62" y="-284.27" font-family="Helvetica,sans-Serif" font-size="10.00">fr.softsf.sudokufx.viewmodel.grid.</text>
<text text-anchor="middle" x="1021.5" y="-272.27" font-family="Helvetica,sans-Serif" font-size="10.00">GridViewModel.hasDefaultGrid</text>
</a>
</g>
</g>
<!-- Node18&#45;&gt;Node19 -->
<g id="edge35_Node000018_Node000019" class="edge">
<title>Node18&#45;&gt;Node19</title>
<g id="a_edge35_Node000018_Node000019"><a xlink:title=" ">
<path fill="none" stroke="#63b8ff" d="M815.34,-359.35C845.03,-344.33 891,-322.18 932.5,-306.77 937.23,-305.02 942.15,-303.31 947.13,-301.67"/>
<polygon fill="#63b8ff" stroke="#63b8ff" points="948.17,-305.01 956.64,-298.64 946.05,-298.34 948.17,-305.01"/>
</a>
</g>
</g>
<!-- Node20 -->
<g id="Node000020" class="node">
<title>Node20</title>
<g id="a_Node000020"><a xlink:href="classfr_1_1softsf_1_1sudokufx_1_1viewmodel_1_1grid_1_1_grid_view_model.html#ad536719f789ab2bb851aa4b26d44c075" target="_top" xlink:title="Checks if all 81 cells contain valid single&#45;digit values (1&#45;9).">
<polygon fill="white" stroke="#666666" points="1335.75,-426.77 1146.5,-426.77 1146.5,-394.77 1335.75,-394.77 1335.75,-426.77"/>
<text text-anchor="start" x="1154.5" y="-413.27" font-family="Helvetica,sans-Serif" font-size="10.00">fr.softsf.sudokufx.viewmodel.grid.</text>
<text text-anchor="middle" x="1241.12" y="-401.27" font-family="Helvetica,sans-Serif" font-size="10.00">GridViewModel.isCompletelyCompleted</text>
</a>
</g>
</g>
<!-- Node18&#45;&gt;Node20 -->
<g id="edge36_Node000018_Node000020" class="edge">
<title>Node18&#45;&gt;Node20</title>
<g id="a_edge36_Node000018_Node000020"><a xlink:title=" ">
<path fill="none" stroke="#63b8ff" d="M876.93,-382.92C951.85,-388.67 1057.08,-396.74 1135,-402.71"/>
<polygon fill="#63b8ff" stroke="#63b8ff" points="1134.54,-406.19 1144.78,-403.46 1135.08,-399.21 1134.54,-406.19"/>
</a>
</g>
</g>
<!-- Node21 -->
<g id="Node000021" class="node">
<title>Node21</title>
<g id="a_Node000021"><a xlink:href="classfr_1_1softsf_1_1sudokufx_1_1viewmodel_1_1grid_1_1_grid_view_model.html#aad1610b7e07349137ebf0d3d592a5b09" target="_top" xlink:title="Persists the current grid state for the active player’s selected game.">
<polygon fill="white" stroke="#666666" points="1323,-376.77 1159.25,-376.77 1159.25,-344.77 1323,-344.77 1323,-376.77"/>
<text text-anchor="start" x="1167.25" y="-363.27" font-family="Helvetica,sans-Serif" font-size="10.00">fr.softsf.sudokufx.viewmodel.grid.</text>
<text text-anchor="middle" x="1241.12" y="-351.27" font-family="Helvetica,sans-Serif" font-size="10.00">GridViewModel.persistGridValue</text>
</a>
</g>
</g>
<!-- Node18&#45;&gt;Node21 -->
<g id="edge38_Node000018_Node000021" class="edge">
<title>Node18&#45;&gt;Node21</title>
<g id="a_edge38_Node000018_Node000021"><a xlink:title=" ">
<path fill="none" stroke="#63b8ff" d="M876.93,-372.71C955.95,-370.11 1068.69,-366.41 1147.54,-363.82"/>
<polygon fill="#63b8ff" stroke="#63b8ff" points="1147.52,-367.32 1157.4,-363.49 1147.29,-360.32 1147.52,-367.32"/>
</a>
</g>
</g>
<!-- Node22 -->
<g id="Node000022" class="node">
<title>Node22</title>
<g id="a_Node000022"><a xlink:href="classfr_1_1softsf_1_1sudokufx_1_1viewmodel_1_1grid_1_1_grid_view_model.html#a77d49e325684b6bef071fb2461c896cb" target="_top" xlink:title="Validates the grid by attempting to solve it.">
<polygon fill="white" stroke="#666666" points="1103.38,-476.77 939.62,-476.77 939.62,-444.77 1103.38,-444.77 1103.38,-476.77"/>
<text text-anchor="start" x="947.62" y="-463.27" font-family="Helvetica,sans-Serif" font-size="10.00">fr.softsf.sudokufx.viewmodel.grid.</text>
<text text-anchor="middle" x="1021.5" y="-451.27" font-family="Helvetica,sans-Serif" font-size="10.00">GridViewModel.verifyGrid</text>
</a>
</g>
</g>
<!-- Node18&#45;&gt;Node22 -->
<g id="edge40_Node000018_Node000022" class="edge">
<title>Node18&#45;&gt;Node22</title>
<g id="a_edge40_Node000018_Node000022"><a xlink:title=" ">
<path fill="none" stroke="#63b8ff" d="M829.68,-392.26C868.07,-406.05 922.97,-425.76 964.04,-440.5"/>
<polygon fill="#63b8ff" stroke="#63b8ff" points="962.68,-443.73 973.27,-443.82 965.05,-437.15 962.68,-443.73"/>
</a>
</g>
</g>
<!-- Node20&#45;&gt;Node3 -->
<g id="edge37_Node000020_Node000003" class="edge">
<title>Node20&#45;&gt;Node3</title>
<g id="a_edge37_Node000020_Node000003"><a xlink:title=" ">
<path fill="none" stroke="#63b8ff" d="M1314.69,-427.18C1321.95,-429.7 1329.09,-432.55 1335.75,-435.77 1369.98,-452.32 1404.3,-479.43 1426.81,-498.99"/>
<polygon fill="#63b8ff" stroke="#63b8ff" points="1424.46,-501.59 1434.27,-505.59 1429.1,-496.35 1424.46,-501.59"/>
</a>
</g>
</g>
<!-- Node21&#45;&gt;Node3 -->
<g id="edge39_Node000021_Node000003" class="edge">
<title>Node21&#45;&gt;Node3</title>
<g id="a_edge39_Node000021_Node000003"><a xlink:title=" ">
<path fill="none" stroke="#63b8ff" d="M1319.37,-377.27C1325.09,-379.73 1330.63,-382.54 1335.75,-385.77 1380.89,-414.24 1417.8,-465.66 1437.38,-496.76"/>
<polygon fill="#63b8ff" stroke="#63b8ff" points="1434.33,-498.49 1442.55,-505.18 1440.3,-494.83 1434.33,-498.49"/>
</a>
</g>
</g>
<!-- Node22&#45;&gt;Node3 -->
<g id="edge43_Node000022_Node000003" class="edge">
<title>Node22&#45;&gt;Node3</title>
<g id="a_edge43_Node000022_Node000003"><a xlink:title=" ">
<path fill="none" stroke="#63b8ff" d="M1061.11,-477.21C1085.21,-486.7 1117.12,-497.88 1146.5,-503.77 1217.28,-517.97 1298.94,-522.45 1360.11,-523.54"/>
<polygon fill="#63b8ff" stroke="#63b8ff" points="1359.72,-527.03 1369.77,-523.68 1359.82,-520.03 1359.72,-527.03"/>
</a>
</g>
</g>
<!-- Node22&#45;&gt;Node7 -->
<g id="edge44_Node000022_Node000007" class="edge">
<title>Node22&#45;&gt;Node7</title>
<g id="a_edge44_Node000022_Node000007"><a xlink:title=" ">
<path fill="none" stroke="#63b8ff" d="M1047.04,-477.01C1085.9,-502.72 1161.7,-552.88 1205.89,-582.12"/>
<polygon fill="#63b8ff" stroke="#63b8ff" points="1203.81,-584.94 1214.08,-587.54 1207.67,-579.1 1203.81,-584.94"/>
</a>
</g>
</g>
<!-- Node22&#45;&gt;Node20 -->
<g id="edge45_Node000022_Node000020" class="edge">
<title>Node22&#45;&gt;Node20</title>
<g id="a_edge45_Node000022_Node000020"><a xlink:title=" ">
<path fill="none" stroke="#63b8ff" d="M1094.06,-444.33C1114.33,-439.68 1136.56,-434.57 1157.42,-429.77"/>
<polygon fill="#63b8ff" stroke="#63b8ff" points="1158.08,-433.21 1167.05,-427.56 1156.52,-426.39 1158.08,-433.21"/>
</a>
</g>
</g>
<!-- Node23 -->
<g id="Node000023" class="node">
<title>Node23</title>
<g id="a_Node000023"><a xlink:href="classfr_1_1softsf_1_1sudokufx_1_1viewmodel_1_1grid_1_1_grid_view_model.html#a4fdf2930215eea12812190e33e1ddeca" target="_top" xlink:title="Handles all actions when a grid is successfully completed.">
<polygon fill="white" stroke="#666666" points="1323,-476.77 1159.25,-476.77 1159.25,-444.77 1323,-444.77 1323,-476.77"/>
<text text-anchor="start" x="1167.25" y="-463.27" font-family="Helvetica,sans-Serif" font-size="10.00">fr.softsf.sudokufx.viewmodel.grid.</text>
<text text-anchor="middle" x="1241.12" y="-451.27" font-family="Helvetica,sans-Serif" font-size="10.00">GridViewModel.celebrateVictory</text>
</a>
</g>
</g>
<!-- Node22&#45;&gt;Node23 -->
<g id="edge41_Node000022_Node000023" class="edge">
<title>Node22&#45;&gt;Node23</title>
<g id="a_edge41_Node000022_Node000023"><a xlink:title=" ">
<path fill="none" stroke="#63b8ff" d="M1103.84,-460.77C1118.04,-460.77 1132.9,-460.77 1147.37,-460.77"/>
<polygon fill="#63b8ff" stroke="#63b8ff" points="1147.37,-464.27 1157.37,-460.77 1147.36,-457.27 1147.37,-464.27"/>
</a>
</g>
</g>
<!-- Node23&#45;&gt;Node23 -->
<g id="edge42_Node000023_Node000023" class="edge">
<title>Node23&#45;&gt;Node23</title>
<g id="a_edge42_Node000023_Node000023"><a xlink:title=" ">
<path fill="none" stroke="#63b8ff" d="M1203.19,-477.22C1196.11,-486.36 1208.75,-494.77 1241.12,-494.77 1259.08,-494.77 1270.97,-492.18 1276.79,-488.32"/>
<polygon fill="#63b8ff" stroke="#63b8ff" points="1280.18,-489.2 1278.76,-478.7 1273.32,-487.79 1280.18,-489.2"/>
</a>
</g>
</g>
</g>
</svg>

<g id="navigator" transform="translate(0 0)" fill="#404254">
  <rect fill="#f2f5e9" fill-opacity="0.5" stroke="#606060" stroke-width=".5" x="0" y="0" width="60" height="60"/>
  <use id="zoomplus" xlink:href="#zoomPlus" x="17" y="9" onmousedown="handleZoom(evt,'in')"/>
  <use id="zoomminus" xlink:href="#zoomMin" x="42" y="9" onmousedown="handleZoom(evt,'out')"/>
  <use id="reset" xlink:href="#resetDef" x="30" y="36" onmousedown="handleReset()"/>
   <use id="arrowup" xlink:href="#arrowUp" x="0" y="0" onmousedown="handlePan(0,-1)"/>
  <use id="arrowright" xlink:href="#arrowRight" x="0" y="0" onmousedown="handlePan(1,0)"/>
  <use id="arrowdown" xlink:href="#arrowDown" x="0" y="0" onmousedown="handlePan(0,1)"/>
  <use id="arrowleft" xlink:href="#arrowLeft" x="0" y="0" onmousedown="handlePan(-1,0)"/>
</g>
<svg viewBox="0 0 15 15" width="100%" height="30px" preserveAspectRatio="xMaxYMin meet">
 <g id="arrow_out" transform="scale(0.3 0.3)">
  <a xlink:href="classfr_1_1softsf_1_1sudokufx_1_1common_1_1util_1_1sudoku_1_1_grid_view_model_u_test_a65ca2a634eb6241fc86679d3734c4476_cgraph_org.svg" target="_base">
   <rect id="button" ry="5" rx="5" y="6" x="6" height="38" width="38"
        fill="#f2f5e9" fill-opacity="0.5" stroke="#606060" stroke-width="1.0"/>
   <path id="arrow"
     d="M 11.500037,31.436501 C 11.940474,20.09759 22.043105,11.32322 32.158766,21.979434 L 37.068811,17.246167 C 37.068811,17.246167 37.088388,32 37.088388,32 L 22.160133,31.978069 C 22.160133,31.978069 26.997745,27.140456 26.997745,27.140456 C 18.528582,18.264221 13.291696,25.230495 11.500037,31.436501 z"
     style="fill:#404040;"/>
  </a>
 </g>
</svg>

<style type='text/css'>
<![CDATA[
[data-mouse-over-selected='false'] { opacity: 0.7; }
[data-mouse-over-selected='true']  { opacity: 1.0; }
]]>
</style>
<script type="application/ecmascript"><![CDATA[
document.addEventListener('DOMContentLoaded', (event) => {
  highlightEdges();
  highlightAdjacentNodes();
});
]]></script>
</svg>
