<?xml version="1.0" encoding="UTF-8" standalone="no"?>
<!DOCTYPE svg PUBLIC "-//W3C//DTD SVG 1.1//EN"
 "http://www.w3.org/Graphics/SVG/1.1/DTD/svg11.dtd">
<!-- Generated by graphviz version 12.2.1 (20241206.2353)
 -->
<!-- Title: fr.softsf.sudokufx.viewmodel.state.PlayerStateHolder Pages: 1 -->
<!--zoomable 701 -->

<svg id="main" version="1.1" xmlns="http://www.w3.org/2000/svg" xmlns:xlink="http://www.w3.org/1999/xlink" xml:space="preserve" onload="init(evt)">

<style type="text/css"><![CDATA[
.node, .edge {opacity: 0.7;}
.node.selected, .edge.selected {opacity: 1;}
.edge:hover path { stroke: red; }
.edge:hover polygon { stroke: red; fill: red; }
]]></style>

<defs>
  <circle id="rim" cx="0" cy="0" r="7"/>
  <circle id="rim2" cx="0" cy="0" r="3.5"/>
  <g id="zoomPlus">
    <use xlink:href="#rim" fill="#404040"><set attributeName="fill" to="#808080" begin="zoomplus.mouseover" end="zoomplus.mouseout"/></use>
    <path d="M-4,0h8M0,-4v8" fill="none" stroke="white" stroke-width="1.5" pointer-events="none"/>
  </g>
  <g id="zoomMin">
    <use xlink:href="#rim" fill="#404040"><set attributeName="fill" to="#808080" begin="zoomminus.mouseover" end="zoomminus.mouseout"/></use>
    <path d="M-4,0h8" fill="none" stroke="white" stroke-width="1.5" pointer-events="none"/>
  </g>
  <g id="arrowUp" transform="translate(30 24)">
    <use xlink:href="#rim"/>
    <path pointer-events="none" fill="none" stroke="white" stroke-width="1.5" d="M0,-3.0v7 M-2.5,-0.5L0,-3.0L2.5,-0.5"/>
  </g>
  <g id="arrowRight" transform="rotate(90) translate(36 -43)">
    <use xlink:href="#rim"/>
    <path pointer-events="none" fill="none" stroke="white" stroke-width="1.5" d="M0,-3.0v7 M-2.5,-0.5L0,-3.0L2.5,-0.5"/>
  </g>
  <g id="arrowDown" transform="rotate(180) translate(-30 -48)">
    <use xlink:href="#rim"/>
    <path pointer-events="none" fill="none" stroke="white" stroke-width="1.5" d="M0,-3.0v7 M-2.5,-0.5L0,-3.0L2.5,-0.5"/>
  </g>
  <g id="arrowLeft" transform="rotate(270) translate(-36 17)">
    <use xlink:href="#rim"/>
    <path pointer-events="none" fill="none" stroke="white" stroke-width="1.5" d="M0,-3.0v7 M-2.5,-0.5L0,-3.0L2.5,-0.5"/>
  </g>
  <g id="resetDef">
    <use xlink:href="#rim2" fill="#404040"><set attributeName="fill" to="#808080" begin="reset.mouseover" end="reset.mouseout"/></use>
  </g>
</defs>
<script type="application/ecmascript">
var viewWidth = 1167;
var viewHeight = 701;
var sectionId = 'dynsection-1';
</script>
<script type="application/ecmascript" xlink:href="svg.min.js"/>
<svg id="graph" class="graph">
<g id="viewport">
<title>fr.softsf.sudokufx.viewmodel.state.PlayerStateHolder</title>
<!-- Node1 -->
<g id="Node000001" class="node">
<title>Node1</title>
<g id="a_Node000001"><a xlink:title="Holds the current PlayerDto for the application.">
<polygon fill="#999999" stroke="none" points="604.12,-196 442.38,-196 442.38,0 604.12,0 604.12,-196"/>
<text text-anchor="start" x="446.38" y="-182.5" font-family="Helvetica,sans-Serif" font-size="10.00">fr.softsf.sudokufx.viewmodel.state.</text>
<text text-anchor="start" x="483.5" y="-170.5" font-family="Helvetica,sans-Serif" font-size="10.00">PlayerStateHolder</text>
<text text-anchor="start" x="451.56" y="-154.5" font-family="Helvetica,sans-Serif" font-size="10.00">&#45;</text>
<text text-anchor="start" x="463.75" y="-154.5" font-family="Helvetica,sans-Serif" font-size="10.00">final ObjectProperty</text>
<text text-anchor="start" x="463.75" y="-142.5" font-family="Helvetica,sans-Serif" font-size="10.00">&lt; PlayerDto &gt; currentPlayer</text>
<text text-anchor="start" x="451.56" y="-126.5" font-family="Helvetica,sans-Serif" font-size="10.00">&#45;</text>
<text text-anchor="start" x="463.75" y="-126.5" font-family="Helvetica,sans-Serif" font-size="10.00">static final Logger LOG</text>
<text text-anchor="start" x="450.06" y="-110.5" font-family="Helvetica,sans-Serif" font-size="10.00">+</text>
<text text-anchor="start" x="463.75" y="-110.5" font-family="Helvetica,sans-Serif" font-size="10.00">PlayerStateHolder</text>
<text text-anchor="start" x="463.75" y="-98.5" font-family="Helvetica,sans-Serif" font-size="10.00">(PlayerService playerService)</text>
<text text-anchor="start" x="450.06" y="-82.5" font-family="Helvetica,sans-Serif" font-size="10.00">+</text>
<text text-anchor="start" x="463.75" y="-82.5" font-family="Helvetica,sans-Serif" font-size="10.00">ObjectProperty&lt; PlayerDto</text>
<text text-anchor="start" x="463.75" y="-70.5" font-family="Helvetica,sans-Serif" font-size="10.00"> &gt; currentPlayerProperty()</text>
<text text-anchor="start" x="450.06" y="-54.5" font-family="Helvetica,sans-Serif" font-size="10.00">+</text>
<text text-anchor="start" x="463.75" y="-54.5" font-family="Helvetica,sans-Serif" font-size="10.00">PlayerDto getCurrentPlayer()</text>
<text text-anchor="start" x="450.06" y="-38.5" font-family="Helvetica,sans-Serif" font-size="10.00">+</text>
<text text-anchor="start" x="463.75" y="-38.5" font-family="Helvetica,sans-Serif" font-size="10.00">void init()</text>
<text text-anchor="start" x="450.06" y="-22.5" font-family="Helvetica,sans-Serif" font-size="10.00">+</text>
<text text-anchor="start" x="463.75" y="-22.5" font-family="Helvetica,sans-Serif" font-size="10.00">void refreshCurrentPlayer()</text>
<text text-anchor="start" x="450.06" y="-6.5" font-family="Helvetica,sans-Serif" font-size="10.00">~</text>
<text text-anchor="start" x="463.75" y="-6.5" font-family="Helvetica,sans-Serif" font-size="10.00">void exitPlatform()</text>
<polygon fill="#666666" stroke="#666666" points="442.38,-166 442.38,-166 604.12,-166 604.12,-166 442.38,-166"/>
<polygon fill="#666666" stroke="#666666" points="442.38,-122 442.38,-122 461.75,-122 461.75,-122 442.38,-122"/>
<polygon fill="#666666" stroke="#666666" points="461.75,-122 461.75,-122 604.12,-122 604.12,-122 461.75,-122"/>
<polygon fill="none" stroke="#666666" points="442.38,0 442.38,-196 604.12,-196 604.12,0 442.38,0"/>
</a>
</g>
</g>
<!-- Node2 -->
<g id="Node000002" class="node">
<title>Node2</title>
<g id="a_Node000002"><a xlink:href="classfr_1_1softsf_1_1sudokufx_1_1service_1_1business_1_1_player_service.html" target="_top" xlink:title="Service for managing Player entities.">
<polygon fill="white" stroke="none" points="649.62,-418 396.88,-418 396.88,-250 649.62,-250 649.62,-418"/>
<text text-anchor="start" x="445.25" y="-404.5" font-family="Helvetica,sans-Serif" font-size="10.00">fr.softsf.sudokufx.service.business.</text>
<text text-anchor="start" x="492.88" y="-392.5" font-family="Helvetica,sans-Serif" font-size="10.00">PlayerService</text>
<text text-anchor="start" x="521.75" y="-376.5" font-family="Helvetica,sans-Serif" font-size="10.00"> </text>
<text text-anchor="start" x="400.88" y="-360.5" font-family="Helvetica,sans-Serif" font-size="10.00">+</text>
<text text-anchor="start" x="410.88" y="-360.5" font-family="Helvetica,sans-Serif" font-size="10.00">PlayerService(PlayerRepository</text>
<text text-anchor="start" x="410.88" y="-348.5" font-family="Helvetica,sans-Serif" font-size="10.00"> playerRepository, PlayerLanguageRepository</text>
<text text-anchor="start" x="410.88" y="-336.5" font-family="Helvetica,sans-Serif" font-size="10.00"> playerLanguageRepository, OptionsRepository</text>
<text text-anchor="start" x="410.88" y="-324.5" font-family="Helvetica,sans-Serif" font-size="10.00"> optionsRepository, MenuRepository menuRepository,</text>
<text text-anchor="start" x="410.88" y="-312.5" font-family="Helvetica,sans-Serif" font-size="10.00"> GameRepository gameRepository, IPlayerMapper</text>
<text text-anchor="start" x="410.88" y="-300.5" font-family="Helvetica,sans-Serif" font-size="10.00"> playerMapper, JakartaValidator jakartaValidator)</text>
<text text-anchor="start" x="400.88" y="-284.5" font-family="Helvetica,sans-Serif" font-size="10.00">+</text>
<text text-anchor="start" x="410.88" y="-284.5" font-family="Helvetica,sans-Serif" font-size="10.00">PlayerDto getPlayer()</text>
<text text-anchor="start" x="400.88" y="-268.5" font-family="Helvetica,sans-Serif" font-size="10.00">+</text>
<text text-anchor="start" x="410.88" y="-268.5" font-family="Helvetica,sans-Serif" font-size="10.00">PlayerDto updatePlayer</text>
<text text-anchor="start" x="410.88" y="-256.5" font-family="Helvetica,sans-Serif" font-size="10.00">(PlayerDto dto)</text>
<polygon fill="#666666" stroke="#666666" points="396.88,-388 396.88,-388 649.62,-388 649.62,-388 396.88,-388"/>
<polygon fill="#666666" stroke="#666666" points="396.88,-372 396.88,-372 649.62,-372 649.62,-372 396.88,-372"/>
<polygon fill="none" stroke="#666666" points="396.88,-250 396.88,-418 649.62,-418 649.62,-250 396.88,-250"/>
</a>
</g>
</g>
<!-- Node2&#45;&gt;Node1 -->
<g id="edge1_Node000001_Node000002" class="edge">
<title>Node2&#45;&gt;Node1</title>
<g id="a_edge1_Node000001_Node000002"><a xlink:title=" ">
<path fill="none" stroke="#63b8ff" d="M523.25,-250.17C523.25,-236.68 523.25,-222.53 523.25,-208.52"/>
<polygon fill="none" stroke="#63b8ff" points="523.25,-208.62 519.25,-202.62 523.25,-196.62 527.25,-202.62 523.25,-208.62"/>
</a>
</g>
<text text-anchor="start" x="526.25" y="-219.5" font-family="Helvetica,sans-Serif" font-size="10.00" fill="grey">&#45;playerService</text>
</g>
<!-- Node3 -->
<g id="Node000003" class="node">
<title>Node3</title>
<g id="a_Node000003"><a xlink:href="interfacefr_1_1softsf_1_1sudokufx_1_1repository_1_1_player_repository.html" target="_top" xlink:title="Repository interface for Player entities.">
<polygon fill="white" stroke="none" points="136.5,-570 0,-570 0,-494 136.5,-494 136.5,-570"/>
<text text-anchor="start" x="6" y="-556.5" font-family="Helvetica,sans-Serif" font-size="10.00">fr.softsf.sudokufx.repository.</text>
<text text-anchor="start" x="30.75" y="-544.5" font-family="Helvetica,sans-Serif" font-size="10.00">PlayerRepository</text>
<text text-anchor="start" x="66.75" y="-528.5" font-family="Helvetica,sans-Serif" font-size="10.00"> </text>
<text text-anchor="start" x="4" y="-512.5" font-family="Helvetica,sans-Serif" font-size="10.00">+</text>
<text text-anchor="start" x="14" y="-512.5" font-family="Helvetica,sans-Serif" font-size="10.00">List&lt; Player &gt; findSelected</text>
<text text-anchor="start" x="14" y="-500.5" font-family="Helvetica,sans-Serif" font-size="10.00">PlayerWithSelectedGame()</text>
<polygon fill="#666666" stroke="#666666" points="0,-540 0,-540 136.5,-540 136.5,-540 0,-540"/>
<polygon fill="#666666" stroke="#666666" points="0,-524 0,-524 136.5,-524 136.5,-524 0,-524"/>
<polygon fill="none" stroke="#666666" points="0,-494 0,-570 136.5,-570 136.5,-494 0,-494"/>
</a>
</g>
</g>
<!-- Node3&#45;&gt;Node2 -->
<g id="edge2_Node000002_Node000003" class="edge">
<title>Node3&#45;&gt;Node2</title>
<g id="a_edge2_Node000002_Node000003"><a xlink:title=" ">
<path fill="none" stroke="#63b8ff" d="M106.02,-494.08C127.82,-474.49 156.63,-451.36 185.75,-436 247.62,-403.37 321.58,-379.73 384.47,-363.57"/>
<polygon fill="none" stroke="#63b8ff" points="384.38,-363.59 389.22,-358.25 396.02,-360.66 391.18,-366 384.38,-363.59"/>
</a>
</g>
<text text-anchor="start" x="188.75" y="-441.5" font-family="Helvetica,sans-Serif" font-size="10.00" fill="grey">&#45;playerRepository</text>
</g>
<!-- Node4 -->
<g id="Node000004" class="node">
<title>Node4</title>
<g id="a_Node000004"><a xlink:title=" ">
<polygon fill="white" stroke="none" points="123.62,-693 12.88,-693 12.88,-629 123.62,-629 123.62,-693"/>
<text text-anchor="start" x="16.88" y="-679.5" font-family="Helvetica,sans-Serif" font-size="10.00">JpaRepository&lt; Player,</text>
<text text-anchor="start" x="51.75" y="-667.5" font-family="Helvetica,sans-Serif" font-size="10.00"> Long &gt;</text>
<text text-anchor="start" x="66.75" y="-651.5" font-family="Helvetica,sans-Serif" font-size="10.00"> </text>
<text text-anchor="start" x="66.75" y="-635.5" font-family="Helvetica,sans-Serif" font-size="10.00"> </text>
<polygon fill="#666666" stroke="#666666" points="12.88,-663 12.88,-663 123.62,-663 123.62,-663 12.88,-663"/>
<polygon fill="#666666" stroke="#666666" points="12.88,-647 12.88,-647 123.62,-647 123.62,-647 12.88,-647"/>
<polygon fill="none" stroke="#666666" points="12.88,-629 12.88,-693 123.62,-693 123.62,-629 12.88,-629"/>
</a>
</g>
</g>
<!-- Node4&#45;&gt;Node3 -->
<g id="edge3_Node000003_Node000004" class="edge">
<title>Node4&#45;&gt;Node3</title>
<g id="a_edge3_Node000003_Node000004"><a xlink:title=" ">
<path fill="none" stroke="#63b8ff" d="M68.25,-617.82C68.25,-602.28 68.25,-584.81 68.25,-569.79"/>
<polygon fill="none" stroke="#63b8ff" points="64.75,-617.74 68.25,-627.74 71.75,-617.74 64.75,-617.74"/>
</a>
</g>
</g>
<!-- Node5 -->
<g id="Node000005" class="node">
<title>Node5</title>
<g id="a_Node000005"><a xlink:href="interfacefr_1_1softsf_1_1sudokufx_1_1repository_1_1_player_language_repository.html" target="_top" xlink:title="Repository interface for PlayerLanguage entities.">
<polygon fill="white" stroke="none" points="287.62,-570 154.88,-570 154.88,-494 287.62,-494 287.62,-570"/>
<text text-anchor="start" x="159" y="-556.5" font-family="Helvetica,sans-Serif" font-size="10.00">fr.softsf.sudokufx.repository.</text>
<text text-anchor="start" x="162.75" y="-544.5" font-family="Helvetica,sans-Serif" font-size="10.00">PlayerLanguageRepository</text>
<text text-anchor="start" x="219.75" y="-528.5" font-family="Helvetica,sans-Serif" font-size="10.00"> </text>
<text text-anchor="start" x="158.88" y="-512.5" font-family="Helvetica,sans-Serif" font-size="10.00">+</text>
<text text-anchor="start" x="168.88" y="-512.5" font-family="Helvetica,sans-Serif" font-size="10.00">Optional&lt; PlayerLanguage</text>
<text text-anchor="start" x="168.88" y="-500.5" font-family="Helvetica,sans-Serif" font-size="10.00"> &gt; findByIso(String iso)</text>
<polygon fill="#666666" stroke="#666666" points="154.88,-540 154.88,-540 287.62,-540 287.62,-540 154.88,-540"/>
<polygon fill="#666666" stroke="#666666" points="154.88,-524 154.88,-524 287.62,-524 287.62,-524 154.88,-524"/>
<polygon fill="none" stroke="#666666" points="154.88,-494 154.88,-570 287.62,-570 287.62,-494 154.88,-494"/>
</a>
</g>
</g>
<!-- Node5&#45;&gt;Node2 -->
<g id="edge4_Node000002_Node000005" class="edge">
<title>Node5&#45;&gt;Node2</title>
<g id="a_edge4_Node000002_Node000005"><a xlink:title=" ">
<path fill="none" stroke="#63b8ff" d="M241.55,-494.36C253.76,-474.98 270.8,-451.95 290.75,-436 318.73,-413.63 352.42,-395.27 385.37,-380.64"/>
<polygon fill="none" stroke="#63b8ff" points="385.14,-380.74 389.06,-374.69 396.15,-375.98 392.23,-382.03 385.14,-380.74"/>
</a>
</g>
<text text-anchor="start" x="293.75" y="-441.5" font-family="Helvetica,sans-Serif" font-size="10.00" fill="grey">&#45;playerLanguageRepository</text>
</g>
<!-- Node6 -->
<g id="Node000006" class="node">
<title>Node6</title>
<g id="a_Node000006"><a xlink:title=" ">
<polygon fill="white" stroke="none" points="296.62,-693 143.88,-693 143.88,-629 296.62,-629 296.62,-693"/>
<text text-anchor="start" x="147.88" y="-679.5" font-family="Helvetica,sans-Serif" font-size="10.00">JpaRepository&lt; PlayerLanguage,</text>
<text text-anchor="start" x="203.75" y="-667.5" font-family="Helvetica,sans-Serif" font-size="10.00"> Long &gt;</text>
<text text-anchor="start" x="218.75" y="-651.5" font-family="Helvetica,sans-Serif" font-size="10.00"> </text>
<text text-anchor="start" x="218.75" y="-635.5" font-family="Helvetica,sans-Serif" font-size="10.00"> </text>
<polygon fill="#666666" stroke="#666666" points="143.88,-663 143.88,-663 296.62,-663 296.62,-663 143.88,-663"/>
<polygon fill="#666666" stroke="#666666" points="143.88,-647 143.88,-647 296.62,-647 296.62,-647 143.88,-647"/>
<polygon fill="none" stroke="#666666" points="143.88,-629 143.88,-693 296.62,-693 296.62,-629 143.88,-629"/>
</a>
</g>
</g>
<!-- Node6&#45;&gt;Node5 -->
<g id="edge5_Node000005_Node000006" class="edge">
<title>Node6&#45;&gt;Node5</title>
<g id="a_edge5_Node000005_Node000006"><a xlink:title=" ">
<path fill="none" stroke="#63b8ff" d="M220.58,-617.82C220.7,-602.28 220.84,-584.81 220.96,-569.79"/>
<polygon fill="none" stroke="#63b8ff" points="217.08,-617.72 220.5,-627.74 224.08,-617.77 217.08,-617.72"/>
</a>
</g>
</g>
<!-- Node7 -->
<g id="Node000007" class="node">
<title>Node7</title>
<g id="a_Node000007"><a xlink:href="interfacefr_1_1softsf_1_1sudokufx_1_1repository_1_1_options_repository.html" target="_top" xlink:title="Repository interface for Options entities.">
<polygon fill="white" stroke="none" points="438.5,-564 306,-564 306,-500 438.5,-500 438.5,-564"/>
<text text-anchor="start" x="310" y="-550.5" font-family="Helvetica,sans-Serif" font-size="10.00">fr.softsf.sudokufx.repository.</text>
<text text-anchor="start" x="331.75" y="-538.5" font-family="Helvetica,sans-Serif" font-size="10.00">OptionsRepository</text>
<text text-anchor="start" x="370.75" y="-522.5" font-family="Helvetica,sans-Serif" font-size="10.00"> </text>
<text text-anchor="start" x="370.75" y="-506.5" font-family="Helvetica,sans-Serif" font-size="10.00"> </text>
<polygon fill="#666666" stroke="#666666" points="306,-534 306,-534 438.5,-534 438.5,-534 306,-534"/>
<polygon fill="#666666" stroke="#666666" points="306,-518 306,-518 438.5,-518 438.5,-518 306,-518"/>
<polygon fill="none" stroke="#666666" points="306,-500 306,-564 438.5,-564 438.5,-500 306,-500"/>
</a>
</g>
</g>
<!-- Node7&#45;&gt;Node2 -->
<g id="edge6_Node000002_Node000007" class="edge">
<title>Node7&#45;&gt;Node2</title>
<g id="a_edge6_Node000002_Node000007"><a xlink:title=" ">
<path fill="none" stroke="#63b8ff" d="M389.59,-500.13C400.75,-481.08 416.02,-456.46 431.5,-436 433.57,-433.26 435.7,-430.51 437.88,-427.75"/>
<polygon fill="none" stroke="#63b8ff" points="437.84,-427.81 438.5,-420.63 445.38,-418.47 444.72,-425.65 437.84,-427.81"/>
</a>
</g>
<text text-anchor="start" x="434.5" y="-441.5" font-family="Helvetica,sans-Serif" font-size="10.00" fill="grey">&#45;optionsRepository</text>
</g>
<!-- Node8 -->
<g id="Node000008" class="node">
<title>Node8</title>
<g id="a_Node000008"><a xlink:title=" ">
<polygon fill="white" stroke="none" points="431.62,-693 314.88,-693 314.88,-629 431.62,-629 431.62,-693"/>
<text text-anchor="start" x="318.88" y="-679.5" font-family="Helvetica,sans-Serif" font-size="10.00">JpaRepository&lt; Options,</text>
<text text-anchor="start" x="356.75" y="-667.5" font-family="Helvetica,sans-Serif" font-size="10.00"> Long &gt;</text>
<text text-anchor="start" x="371.75" y="-651.5" font-family="Helvetica,sans-Serif" font-size="10.00"> </text>
<text text-anchor="start" x="371.75" y="-635.5" font-family="Helvetica,sans-Serif" font-size="10.00"> </text>
<polygon fill="#666666" stroke="#666666" points="314.88,-663 314.88,-663 431.62,-663 431.62,-663 314.88,-663"/>
<polygon fill="#666666" stroke="#666666" points="314.88,-647 314.88,-647 431.62,-647 431.62,-647 314.88,-647"/>
<polygon fill="none" stroke="#666666" points="314.88,-629 314.88,-693 431.62,-693 431.62,-629 314.88,-629"/>
</a>
</g>
</g>
<!-- Node8&#45;&gt;Node7 -->
<g id="edge7_Node000007_Node000008" class="edge">
<title>Node8&#45;&gt;Node7</title>
<g id="a_edge7_Node000007_Node000008"><a xlink:title=" ">
<path fill="none" stroke="#63b8ff" d="M372.92,-617.82C372.78,-600.2 372.62,-580.11 372.49,-563.9"/>
<polygon fill="none" stroke="#63b8ff" points="369.42,-617.77 373,-627.74 376.42,-617.72 369.42,-617.77"/>
</a>
</g>
</g>
<!-- Node9 -->
<g id="Node000009" class="node">
<title>Node9</title>
<g id="a_Node000009"><a xlink:href="interfacefr_1_1softsf_1_1sudokufx_1_1repository_1_1_menu_repository.html" target="_top" xlink:title="Repository interface for Menu entities.">
<polygon fill="white" stroke="none" points="589.5,-564 457,-564 457,-500 589.5,-500 589.5,-564"/>
<text text-anchor="start" x="461" y="-550.5" font-family="Helvetica,sans-Serif" font-size="10.00">fr.softsf.sudokufx.repository.</text>
<text text-anchor="start" x="487.62" y="-538.5" font-family="Helvetica,sans-Serif" font-size="10.00">MenuRepository</text>
<text text-anchor="start" x="521.75" y="-522.5" font-family="Helvetica,sans-Serif" font-size="10.00"> </text>
<text text-anchor="start" x="521.75" y="-506.5" font-family="Helvetica,sans-Serif" font-size="10.00"> </text>
<polygon fill="#666666" stroke="#666666" points="457,-534 457,-534 589.5,-534 589.5,-534 457,-534"/>
<polygon fill="#666666" stroke="#666666" points="457,-518 457,-518 589.5,-518 589.5,-518 457,-518"/>
<polygon fill="none" stroke="#666666" points="457,-500 457,-564 589.5,-564 589.5,-500 457,-500"/>
</a>
</g>
</g>
<!-- Node9&#45;&gt;Node2 -->
<g id="edge8_Node000002_Node000009" class="edge">
<title>Node9&#45;&gt;Node2</title>
<g id="a_edge8_Node000002_Node000009"><a xlink:title=" ">
<path fill="none" stroke="#63b8ff" d="M523.25,-500.38C523.25,-481.4 523.25,-455.9 523.25,-430.61"/>
<polygon fill="none" stroke="#63b8ff" points="523.25,-430.74 519.25,-424.74 523.25,-418.74 527.25,-424.74 523.25,-430.74"/>
</a>
</g>
<text text-anchor="start" x="526.25" y="-441.5" font-family="Helvetica,sans-Serif" font-size="10.00" fill="grey">&#45;menuRepository</text>
</g>
<!-- Node10 -->
<g id="Node000010" class="node">
<title>Node10</title>
<g id="a_Node000010"><a xlink:title=" ">
<polygon fill="white" stroke="none" points="576.75,-693 469.75,-693 469.75,-629 576.75,-629 576.75,-693"/>
<text text-anchor="start" x="473.75" y="-679.5" font-family="Helvetica,sans-Serif" font-size="10.00">JpaRepository&lt; Menu,</text>
<text text-anchor="start" x="507.12" y="-667.5" font-family="Helvetica,sans-Serif" font-size="10.00"> Byte &gt;</text>
<text text-anchor="start" x="521.75" y="-651.5" font-family="Helvetica,sans-Serif" font-size="10.00"> </text>
<text text-anchor="start" x="521.75" y="-635.5" font-family="Helvetica,sans-Serif" font-size="10.00"> </text>
<polygon fill="#666666" stroke="#666666" points="469.75,-663 469.75,-663 576.75,-663 576.75,-663 469.75,-663"/>
<polygon fill="#666666" stroke="#666666" points="469.75,-647 469.75,-647 576.75,-647 576.75,-647 469.75,-647"/>
<polygon fill="none" stroke="#666666" points="469.75,-629 469.75,-693 576.75,-693 576.75,-629 469.75,-629"/>
</a>
</g>
</g>
<!-- Node10&#45;&gt;Node9 -->
<g id="edge9_Node000009_Node000010" class="edge">
<title>Node10&#45;&gt;Node9</title>
<g id="a_edge9_Node000009_Node000010"><a xlink:title=" ">
<path fill="none" stroke="#63b8ff" d="M523.25,-617.82C523.25,-600.2 523.25,-580.11 523.25,-563.9"/>
<polygon fill="none" stroke="#63b8ff" points="519.75,-617.74 523.25,-627.74 526.75,-617.74 519.75,-617.74"/>
</a>
</g>
</g>
<!-- Node11 -->
<g id="Node000011" class="node">
<title>Node11</title>
<g id="a_Node000011"><a xlink:href="interfacefr_1_1softsf_1_1sudokufx_1_1repository_1_1_game_repository.html" target="_top" xlink:title="Repository interface for Game entities.">
<polygon fill="white" stroke="none" points="740.5,-564 608,-564 608,-500 740.5,-500 740.5,-564"/>
<text text-anchor="start" x="612" y="-550.5" font-family="Helvetica,sans-Serif" font-size="10.00">fr.softsf.sudokufx.repository.</text>
<text text-anchor="start" x="637.5" y="-538.5" font-family="Helvetica,sans-Serif" font-size="10.00">GameRepository</text>
<text text-anchor="start" x="672.75" y="-522.5" font-family="Helvetica,sans-Serif" font-size="10.00"> </text>
<text text-anchor="start" x="672.75" y="-506.5" font-family="Helvetica,sans-Serif" font-size="10.00"> </text>
<polygon fill="#666666" stroke="#666666" points="608,-534 608,-534 740.5,-534 740.5,-534 608,-534"/>
<polygon fill="#666666" stroke="#666666" points="608,-518 608,-518 740.5,-518 740.5,-518 608,-518"/>
<polygon fill="none" stroke="#666666" points="608,-500 608,-564 740.5,-564 740.5,-500 608,-500"/>
</a>
</g>
</g>
<!-- Node11&#45;&gt;Node2 -->
<g id="edge10_Node000002_Node000011" class="edge">
<title>Node11&#45;&gt;Node2</title>
<g id="a_edge10_Node000002_Node000011"><a xlink:title=" ">
<path fill="none" stroke="#63b8ff" d="M653.43,-500.18C640.5,-481.37 623.33,-456.98 607.25,-436 605.18,-433.29 603.06,-430.56 600.91,-427.81"/>
<polygon fill="none" stroke="#63b8ff" points="601,-427.92 594.14,-425.7 593.56,-418.51 600.42,-420.74 601,-427.92"/>
</a>
</g>
<text text-anchor="start" x="623.59" y="-441.5" font-family="Helvetica,sans-Serif" font-size="10.00" fill="grey">&#45;gameRepository</text>
</g>
<!-- Node12 -->
<g id="Node000012" class="node">
<title>Node12</title>
<g id="a_Node000012"><a xlink:title=" ">
<polygon fill="white" stroke="none" points="728.88,-693 619.62,-693 619.62,-629 728.88,-629 728.88,-693"/>
<text text-anchor="start" x="623.62" y="-679.5" font-family="Helvetica,sans-Serif" font-size="10.00">JpaRepository&lt; Game,</text>
<text text-anchor="start" x="657.75" y="-667.5" font-family="Helvetica,sans-Serif" font-size="10.00"> Long &gt;</text>
<text text-anchor="start" x="672.75" y="-651.5" font-family="Helvetica,sans-Serif" font-size="10.00"> </text>
<text text-anchor="start" x="672.75" y="-635.5" font-family="Helvetica,sans-Serif" font-size="10.00"> </text>
<polygon fill="#666666" stroke="#666666" points="619.62,-663 619.62,-663 728.88,-663 728.88,-663 619.62,-663"/>
<polygon fill="#666666" stroke="#666666" points="619.62,-647 619.62,-647 728.88,-647 728.88,-647 619.62,-647"/>
<polygon fill="none" stroke="#666666" points="619.62,-629 619.62,-693 728.88,-693 728.88,-629 619.62,-629"/>
</a>
</g>
</g>
<!-- Node12&#45;&gt;Node11 -->
<g id="edge11_Node000011_Node000012" class="edge">
<title>Node12&#45;&gt;Node11</title>
<g id="a_edge11_Node000011_Node000012"><a xlink:title=" ">
<path fill="none" stroke="#63b8ff" d="M674.25,-617.82C674.25,-600.2 674.25,-580.11 674.25,-563.9"/>
<polygon fill="none" stroke="#63b8ff" points="670.75,-617.74 674.25,-627.74 677.75,-617.74 670.75,-617.74"/>
</a>
</g>
</g>
<!-- Node13 -->
<g id="Node000013" class="node">
<title>Node13</title>
<g id="a_Node000013"><a xlink:href="interfacefr_1_1softsf_1_1sudokufx_1_1common_1_1interfaces_1_1mapper_1_1_i_player_mapper.html" target="_top" xlink:title="Mapper interface for converting between Player entity and PlayerDto data transfer object.">
<polygon fill="white" stroke="none" points="967.75,-584 758.75,-584 758.75,-480 967.75,-480 967.75,-584"/>
<text text-anchor="start" x="762.75" y="-570.5" font-family="Helvetica,sans-Serif" font-size="10.00">fr.softsf.sudokufx.common.interfaces.mapper.</text>
<text text-anchor="start" x="831.75" y="-558.5" font-family="Helvetica,sans-Serif" font-size="10.00">IPlayerMapper</text>
<text text-anchor="start" x="861.75" y="-542.5" font-family="Helvetica,sans-Serif" font-size="10.00"> </text>
<text text-anchor="start" x="777.69" y="-526.5" font-family="Helvetica,sans-Serif" font-size="10.00">+</text>
<text text-anchor="start" x="802.62" y="-526.5" font-family="Helvetica,sans-Serif" font-size="10.00">Player mapPlayerDtoToPlayer</text>
<text text-anchor="start" x="802.62" y="-514.5" font-family="Helvetica,sans-Serif" font-size="10.00">(PlayerDto dto)</text>
<text text-anchor="start" x="777.69" y="-498.5" font-family="Helvetica,sans-Serif" font-size="10.00">+</text>
<text text-anchor="start" x="802.62" y="-498.5" font-family="Helvetica,sans-Serif" font-size="10.00">PlayerDto mapPlayerToDto</text>
<text text-anchor="start" x="802.62" y="-486.5" font-family="Helvetica,sans-Serif" font-size="10.00">(Player player)</text>
<polygon fill="#666666" stroke="#666666" points="758.75,-554 758.75,-554 967.75,-554 967.75,-554 758.75,-554"/>
<polygon fill="#666666" stroke="#666666" points="758.75,-538 758.75,-538 967.75,-538 967.75,-538 758.75,-538"/>
<polygon fill="none" stroke="#666666" points="758.75,-480 758.75,-584 967.75,-584 967.75,-480 758.75,-480"/>
</a>
</g>
</g>
<!-- Node13&#45;&gt;Node2 -->
<g id="edge12_Node000002_Node000013" class="edge">
<title>Node13&#45;&gt;Node2</title>
<g id="a_edge12_Node000002_Node000013"><a xlink:title=" ">
<path fill="none" stroke="#63b8ff" d="M779.93,-480.17C755.93,-465.72 729.64,-450.09 705.25,-436 690.77,-427.63 675.58,-418.99 660.41,-410.45"/>
<polygon fill="none" stroke="#63b8ff" points="660.63,-410.57 653.44,-411.12 650.17,-404.69 657.36,-404.14 660.63,-410.57"/>
</a>
</g>
<text text-anchor="start" x="738.71" y="-441.5" font-family="Helvetica,sans-Serif" font-size="10.00" fill="grey">&#45;playerMapper</text>
</g>
<!-- Node14 -->
<g id="Node000014" class="node">
<title>Node14</title>
<g id="a_Node000014"><a xlink:href="classfr_1_1softsf_1_1sudokufx_1_1common_1_1exception_1_1_jakarta_validator.html" target="_top" xlink:title="Spring component for validating objects using Jakarta Bean Validation.">
<polygon fill="white" stroke="none" points="1158.75,-592 985.75,-592 985.75,-472 1158.75,-472 1158.75,-592"/>
<text text-anchor="start" x="989.75" y="-578.5" font-family="Helvetica,sans-Serif" font-size="10.00">fr.softsf.sudokufx.common.exception.</text>
<text text-anchor="start" x="1037.38" y="-566.5" font-family="Helvetica,sans-Serif" font-size="10.00">JakartaValidator</text>
<text text-anchor="start" x="1002.44" y="-550.5" font-family="Helvetica,sans-Serif" font-size="10.00">&#45;</text>
<text text-anchor="start" x="1022.12" y="-550.5" font-family="Helvetica,sans-Serif" font-size="10.00">final Validator validator</text>
<text text-anchor="start" x="1002.44" y="-534.5" font-family="Helvetica,sans-Serif" font-size="10.00">&#45;</text>
<text text-anchor="start" x="1022.12" y="-534.5" font-family="Helvetica,sans-Serif" font-size="10.00">static final Logger LOG</text>
<text text-anchor="start" x="1000.94" y="-518.5" font-family="Helvetica,sans-Serif" font-size="10.00">+</text>
<text text-anchor="start" x="1022.12" y="-518.5" font-family="Helvetica,sans-Serif" font-size="10.00">JakartaValidator(Validator</text>
<text text-anchor="start" x="1022.12" y="-506.5" font-family="Helvetica,sans-Serif" font-size="10.00"> validator)</text>
<text text-anchor="start" x="1000.94" y="-490.5" font-family="Helvetica,sans-Serif" font-size="10.00">~</text>
<text text-anchor="start" x="1022.12" y="-490.5" font-family="Helvetica,sans-Serif" font-size="10.00">public&lt; T &gt; T validateOr</text>
<text text-anchor="start" x="1022.12" y="-478.5" font-family="Helvetica,sans-Serif" font-size="10.00">Throw(T obj)</text>
<polygon fill="#666666" stroke="#666666" points="985.75,-562 985.75,-562 1158.75,-562 1158.75,-562 985.75,-562"/>
<polygon fill="#666666" stroke="#666666" points="985.75,-530 985.75,-530 1020.12,-530 1020.12,-530 985.75,-530"/>
<polygon fill="#666666" stroke="#666666" points="1020.12,-530 1020.12,-530 1158.75,-530 1158.75,-530 1020.12,-530"/>
<polygon fill="none" stroke="#666666" points="985.75,-472 985.75,-592 1158.75,-592 1158.75,-472 985.75,-472"/>
</a>
</g>
</g>
<!-- Node14&#45;&gt;Node2 -->
<g id="edge13_Node000002_Node000014" class="edge">
<title>Node14&#45;&gt;Node2</title>
<g id="a_edge13_Node000002_Node000014"><a xlink:title=" ">
<path fill="none" stroke="#63b8ff" d="M985.78,-476.04C982.93,-474.63 980.08,-473.28 977.25,-472 875.22,-425.89 753.46,-390.11 661.74,-366.69"/>
<polygon fill="none" stroke="#63b8ff" points="661.79,-366.71 655,-369.11 650.16,-363.76 656.96,-361.36 661.79,-366.71"/>
</a>
</g>
<text text-anchor="start" x="932.98" y="-441.5" font-family="Helvetica,sans-Serif" font-size="10.00" fill="grey">&#45;jakartaValidator</text>
</g>
</g>
</svg>

<g id="navigator" transform="translate(0 0)" fill="#404254">
  <rect fill="#f2f5e9" fill-opacity="0.5" stroke="#606060" stroke-width=".5" x="0" y="0" width="60" height="60"/>
  <use id="zoomplus" xlink:href="#zoomPlus" x="17" y="9" onmousedown="handleZoom(evt,'in')"/>
  <use id="zoomminus" xlink:href="#zoomMin" x="42" y="9" onmousedown="handleZoom(evt,'out')"/>
  <use id="reset" xlink:href="#resetDef" x="30" y="36" onmousedown="handleReset()"/>
   <use id="arrowup" xlink:href="#arrowUp" x="0" y="0" onmousedown="handlePan(0,-1)"/>
  <use id="arrowright" xlink:href="#arrowRight" x="0" y="0" onmousedown="handlePan(1,0)"/>
  <use id="arrowdown" xlink:href="#arrowDown" x="0" y="0" onmousedown="handlePan(0,1)"/>
  <use id="arrowleft" xlink:href="#arrowLeft" x="0" y="0" onmousedown="handlePan(-1,0)"/>
</g>
<svg viewBox="0 0 15 15" width="100%" height="30px" preserveAspectRatio="xMaxYMin meet">
 <g id="arrow_out" transform="scale(0.3 0.3)">
  <a xlink:href="classfr_1_1softsf_1_1sudokufx_1_1viewmodel_1_1state_1_1_player_state_holder__coll__graph_org.svg" target="_base">
   <rect id="button" ry="5" rx="5" y="6" x="6" height="38" width="38"
        fill="#f2f5e9" fill-opacity="0.5" stroke="#606060" stroke-width="1.0"/>
   <path id="arrow"
     d="M 11.500037,31.436501 C 11.940474,20.09759 22.043105,11.32322 32.158766,21.979434 L 37.068811,17.246167 C 37.068811,17.246167 37.088388,32 37.088388,32 L 22.160133,31.978069 C 22.160133,31.978069 26.997745,27.140456 26.997745,27.140456 C 18.528582,18.264221 13.291696,25.230495 11.500037,31.436501 z"
     style="fill:#404040;"/>
  </a>
 </g>
</svg>

<style type='text/css'>
<![CDATA[
[data-mouse-over-selected='false'] { opacity: 0.7; }
[data-mouse-over-selected='true']  { opacity: 1.0; }
]]>
</style>
<script type="application/ecmascript"><![CDATA[
document.addEventListener('DOMContentLoaded', (event) => {
  highlightEdges();
  highlightAdjacentNodes();
});
]]></script>
</svg>
