<?xml version="1.0" encoding="UTF-8" standalone="no"?>
<!DOCTYPE svg PUBLIC "-//W3C//DTD SVG 1.1//EN"
 "http://www.w3.org/Graphics/SVG/1.1/DTD/svg11.dtd">
<!-- Generated by graphviz version 12.2.1 (20241206.2353)
 -->
<!-- Title: fr.softsf.sudokufx.common.sudoku.utils.GridMaster.resoudreLaGrille Pages: 1 -->
<svg width="821pt" height="270pt"
 viewBox="0.00 0.00 820.50 270.00" xmlns="http://www.w3.org/2000/svg" xmlns:xlink="http://www.w3.org/1999/xlink">
<g id="graph0" class="graph" transform="scale(1 1) rotate(0) translate(4 266)">
<title>fr.softsf.sudokufx.common.sudoku.utils.GridMaster.resoudreLaGrille</title>
<!-- Node1 -->
<g id="Node000001" class="node">
<title>Node1</title>
<g id="a_Node000001"><a xlink:title=" ">
<polygon fill="#999999" stroke="#666666" points="151,-144 0,-144 0,-112 151,-112 151,-144"/>
<text text-anchor="start" x="8" y="-130.5" font-family="Helvetica,sans-Serif" font-size="10.00">fr.softsf.sudokufx.util.sudoku.</text>
<text text-anchor="middle" x="75.5" y="-118.5" font-family="Helvetica,sans-Serif" font-size="10.00">GridMaster.resoudreLaGrille</text>
</a>
</g>
</g>
<!-- Node2 -->
<g id="Node000002" class="node">
<title>Node2</title>
<g id="a_Node000002"><a xlink:href="classfr_1_1softsf_1_1sudokufx_1_1utils_1_1sudoku_1_1_grid_master.html#a46d1bfadcbb911b5a718508185da341f" target="_top" xlink:title="Calcule les possibilités pour chaque case de la grille de Sudoku.">
<polygon fill="white" stroke="#666666" points="369.12,-262 218.12,-262 218.12,-230 369.12,-230 369.12,-262"/>
<text text-anchor="start" x="226.12" y="-248.5" font-family="Helvetica,sans-Serif" font-size="10.00">fr.softsf.sudokufx.util.sudoku.</text>
<text text-anchor="middle" x="293.62" y="-236.5" font-family="Helvetica,sans-Serif" font-size="10.00">GridMaster.getPossibilites</text>
</a>
</g>
</g>
<!-- Node1&#45;&gt;Node2 -->
<g id="edge1_Node000001_Node000002" class="edge">
<title>Node1&#45;&gt;Node2</title>
<g id="a_edge1_Node000001_Node000002"><a xlink:title=" ">
<path fill="none" stroke="#63b8ff" d="M91.25,-144.48C110.98,-165.48 148.02,-201.4 187,-221 193.3,-224.17 200.01,-226.94 206.88,-229.37"/>
<polygon fill="#63b8ff" stroke="#63b8ff" points="205.74,-232.68 216.33,-232.45 207.91,-226.03 205.74,-232.68"/>
</a>
</g>
</g>
<!-- Node5 -->
<g id="Node000005" class="node">
<title>Node5</title>
<g id="a_Node000005"><a xlink:href="classfr_1_1softsf_1_1sudokufx_1_1utils_1_1sudoku_1_1_grid_master.html#ac9a7f4937fa6dd8e52fb0af186958004" target="_top" xlink:title="Calcule le pourcentage de possibilités estimé en fonction de la somme des possibilités fournies.">
<polygon fill="white" stroke="#666666" points="395.38,-212 191.88,-212 191.88,-180 395.38,-180 395.38,-212"/>
<text text-anchor="start" x="199.88" y="-198.5" font-family="Helvetica,sans-Serif" font-size="10.00">fr.softsf.sudokufx.util.sudoku.</text>
<text text-anchor="middle" x="293.62" y="-186.5" font-family="Helvetica,sans-Serif" font-size="10.00">GridMaster.getPourcentageDesPossibilites</text>
</a>
</g>
</g>
<!-- Node1&#45;&gt;Node5 -->
<g id="edge4_Node000001_Node000005" class="edge">
<title>Node1&#45;&gt;Node5</title>
<g id="a_edge4_Node000001_Node000005"><a xlink:title=" ">
<path fill="none" stroke="#63b8ff" d="M114.9,-144.46C135.94,-153.09 162.63,-163.41 187,-171 193.22,-172.94 199.7,-174.81 206.23,-176.59"/>
<polygon fill="#63b8ff" stroke="#63b8ff" points="205.24,-179.95 215.8,-179.13 207.03,-173.18 205.24,-179.95"/>
</a>
</g>
</g>
<!-- Node6 -->
<g id="Node000006" class="node">
<title>Node6</title>
<g id="a_Node000006"><a xlink:href="classfr_1_1softsf_1_1sudokufx_1_1utils_1_1sudoku_1_1_grid_master.html#ad07acfe4c763044df860c349c6c565ef" target="_top" xlink:title="Remplit récursivement la grille Sudoku (backtracking).">
<polygon fill="white" stroke="#666666" points="369.12,-144 218.12,-144 218.12,-112 369.12,-112 369.12,-144"/>
<text text-anchor="start" x="226.12" y="-130.5" font-family="Helvetica,sans-Serif" font-size="10.00">fr.softsf.sudokufx.util.sudoku.</text>
<text text-anchor="middle" x="293.62" y="-118.5" font-family="Helvetica,sans-Serif" font-size="10.00">GridMaster.remplirLaGrille</text>
</a>
</g>
</g>
<!-- Node1&#45;&gt;Node6 -->
<g id="edge5_Node000001_Node000006" class="edge">
<title>Node1&#45;&gt;Node6</title>
<g id="a_edge5_Node000001_Node000006"><a xlink:title=" ">
<path fill="none" stroke="#63b8ff" d="M151.48,-128C169.17,-128 188.16,-128 206.3,-128"/>
<polygon fill="#63b8ff" stroke="#63b8ff" points="206.26,-131.5 216.26,-128 206.26,-124.5 206.26,-131.5"/>
</a>
</g>
</g>
<!-- Node10 -->
<g id="Node000010" class="node">
<title>Node10</title>
<g id="a_Node000010"><a xlink:href="classfr_1_1softsf_1_1sudokufx_1_1utils_1_1sudoku_1_1_grid_master.html#a700c8e5d20670ded6ac4b56312846839" target="_top" xlink:title="Calcule la somme des possibilités de toutes les cases de la grille de Sudoku.">
<polygon fill="white" stroke="#666666" points="400.25,-94 187,-94 187,-62 400.25,-62 400.25,-94"/>
<text text-anchor="start" x="195" y="-80.5" font-family="Helvetica,sans-Serif" font-size="10.00">fr.softsf.sudokufx.util.sudoku.</text>
<text text-anchor="middle" x="293.62" y="-68.5" font-family="Helvetica,sans-Serif" font-size="10.00">GridMaster.sommeDesPossibilitesDeLaGrille</text>
</a>
</g>
</g>
<!-- Node1&#45;&gt;Node10 -->
<g id="edge12_Node000001_Node000010" class="edge">
<title>Node1&#45;&gt;Node10</title>
<g id="a_edge12_Node000001_Node000010"><a xlink:title=" ">
<path fill="none" stroke="#63b8ff" d="M147.57,-111.56C167.69,-106.9 189.77,-101.8 210.49,-97"/>
<polygon fill="#63b8ff" stroke="#63b8ff" points="211.09,-100.46 220.04,-94.79 209.51,-93.64 211.09,-100.46"/>
</a>
</g>
</g>
<!-- Node11 -->
<g id="Node000011" class="node">
<title>Node11</title>
<g id="a_Node000011"><a xlink:href="classfr_1_1softsf_1_1sudokufx_1_1utils_1_1sudoku_1_1_grid_master.html#a5ead122504d9cd11a071e47ccd4610b3" target="_top" xlink:title="Vérifie la cohérence entre la grille et les possibilités.">
<polygon fill="white" stroke="#666666" points="382.25,-44 205,-44 205,0 382.25,0 382.25,-44"/>
<text text-anchor="start" x="213" y="-30.5" font-family="Helvetica,sans-Serif" font-size="10.00">fr.softsf.sudokufx.util.sudoku.</text>
<text text-anchor="start" x="213" y="-18.5" font-family="Helvetica,sans-Serif" font-size="10.00">GridMaster.verifierLaCoherenceEntre</text>
<text text-anchor="middle" x="293.62" y="-6.5" font-family="Helvetica,sans-Serif" font-size="10.00">LaGrilleEtLesPossibilites</text>
</a>
</g>
</g>
<!-- Node1&#45;&gt;Node11 -->
<g id="edge13_Node000001_Node000011" class="edge">
<title>Node1&#45;&gt;Node11</title>
<g id="a_edge13_Node000001_Node000011"><a xlink:title=" ">
<path fill="none" stroke="#63b8ff" d="M96.51,-111.57C117.8,-94.81 153.03,-69.03 187,-53 190.28,-51.45 193.66,-49.96 197.1,-48.53"/>
<polygon fill="#63b8ff" stroke="#63b8ff" points="198.14,-51.88 206.17,-44.97 195.58,-45.37 198.14,-51.88"/>
</a>
</g>
</g>
<!-- Node3 -->
<g id="Node000003" class="node">
<title>Node3</title>
<g id="a_Node000003"><a xlink:href="classfr_1_1softsf_1_1sudokufx_1_1utils_1_1sudoku_1_1_grid_master.html#ad1a85240278a682b9cf73c8d8ec6398d" target="_top" xlink:title="Initialise le tableau des possibilités pour chaque case.">
<polygon fill="white" stroke="#666666" points="608.62,-256 453.12,-256 453.12,-224 608.62,-224 608.62,-256"/>
<text text-anchor="start" x="461.12" y="-242.5" font-family="Helvetica,sans-Serif" font-size="10.00">fr.softsf.sudokufx.util.sudoku.</text>
<text text-anchor="middle" x="530.88" y="-230.5" font-family="Helvetica,sans-Serif" font-size="10.00">GridMaster.initialiserPossibilites</text>
</a>
</g>
</g>
<!-- Node2&#45;&gt;Node3 -->
<g id="edge2_Node000002_Node000003" class="edge">
<title>Node2&#45;&gt;Node3</title>
<g id="a_edge2_Node000002_Node000003"><a xlink:title=" ">
<path fill="none" stroke="#63b8ff" d="M369.38,-244.09C392.28,-243.51 417.68,-242.86 441.39,-242.26"/>
<polygon fill="#63b8ff" stroke="#63b8ff" points="441.46,-245.76 451.37,-242 441.28,-238.76 441.46,-245.76"/>
</a>
</g>
</g>
<!-- Node4 -->
<g id="Node000004" class="node">
<title>Node4</title>
<g id="a_Node000004"><a xlink:href="classfr_1_1softsf_1_1sudokufx_1_1utils_1_1sudoku_1_1_grid_master.html#aab28df678a8069dd22b13a687bb2ba5b" target="_top" xlink:title="Élimine la valeur des possibilités des cases alentours.">
<polygon fill="white" stroke="#666666" points="812.5,-220 661.5,-220 661.5,-188 812.5,-188 812.5,-220"/>
<text text-anchor="start" x="669.5" y="-206.5" font-family="Helvetica,sans-Serif" font-size="10.00">fr.softsf.sudokufx.util.sudoku.</text>
<text text-anchor="middle" x="737" y="-194.5" font-family="Helvetica,sans-Serif" font-size="10.00">GridMaster.eliminerPossibilite</text>
</a>
</g>
</g>
<!-- Node3&#45;&gt;Node4 -->
<g id="edge3_Node000003_Node000004" class="edge">
<title>Node3&#45;&gt;Node4</title>
<g id="a_edge3_Node000003_Node000004"><a xlink:title=" ">
<path fill="none" stroke="#63b8ff" d="M609.05,-226.39C622.36,-224.04 636.29,-221.59 649.82,-219.2"/>
<polygon fill="#63b8ff" stroke="#63b8ff" points="650.35,-222.66 659.59,-217.48 649.14,-215.77 650.35,-222.66"/>
</a>
</g>
</g>
<!-- Node6&#45;&gt;Node4 -->
<g id="edge8_Node000006_Node000004" class="edge">
<title>Node6&#45;&gt;Node4</title>
<g id="a_edge8_Node000006_Node000004"><a xlink:title=" ">
<path fill="none" stroke="#63b8ff" d="M345.62,-144.48C372.36,-152.59 405.81,-161.91 436.25,-168 507.59,-182.27 589.69,-191.65 649.91,-197.24"/>
<polygon fill="#63b8ff" stroke="#63b8ff" points="649.49,-200.72 659.76,-198.14 650.12,-193.75 649.49,-200.72"/>
</a>
</g>
</g>
<!-- Node6&#45;&gt;Node6 -->
<g id="edge11_Node000006_Node000006" class="edge">
<title>Node6&#45;&gt;Node6</title>
<g id="a_edge11_Node000006_Node000006"><a xlink:title=" ">
<path fill="none" stroke="#63b8ff" d="M254.68,-144.44C247.41,-153.58 260.4,-162 293.62,-162 312.06,-162 324.26,-159.41 330.23,-155.54"/>
<polygon fill="#63b8ff" stroke="#63b8ff" points="333.62,-156.43 332.25,-145.92 326.77,-154.99 333.62,-156.43"/>
</a>
</g>
</g>
<!-- Node7 -->
<g id="Node000007" class="node">
<title>Node7</title>
<g id="a_Node000007"><a xlink:href="classfr_1_1softsf_1_1sudokufx_1_1utils_1_1sudoku_1_1_grid_master.html#a95ced6119d7d08726742be7d90c37948" target="_top" xlink:title="Choisit une valeur aléatoire parmi les possibilités données.">
<polygon fill="white" stroke="#666666" points="611.25,-159 450.5,-159 450.5,-127 611.25,-127 611.25,-159"/>
<text text-anchor="start" x="458.5" y="-145.5" font-family="Helvetica,sans-Serif" font-size="10.00">fr.softsf.sudokufx.util.sudoku.</text>
<text text-anchor="middle" x="530.88" y="-133.5" font-family="Helvetica,sans-Serif" font-size="10.00">GridMaster.choisirValeurAleatoire</text>
</a>
</g>
</g>
<!-- Node6&#45;&gt;Node7 -->
<g id="edge6_Node000006_Node000007" class="edge">
<title>Node6&#45;&gt;Node7</title>
<g id="a_edge6_Node000006_Node000007"><a xlink:title=" ">
<path fill="none" stroke="#63b8ff" d="M369.38,-132.77C391.37,-134.17 415.66,-135.72 438.56,-137.18"/>
<polygon fill="#63b8ff" stroke="#63b8ff" points="438.31,-140.67 448.52,-137.81 438.76,-133.68 438.31,-140.67"/>
</a>
</g>
</g>
<!-- Node9 -->
<g id="Node000009" class="node">
<title>Node9</title>
<g id="a_Node000009"><a xlink:href="classfr_1_1softsf_1_1sudokufx_1_1utils_1_1sudoku_1_1_grid_master.html#a2bfd5ca8d30b4f51db2a81d8c9a5b641" target="_top" xlink:title="Trouve la case vide avec le moins de possibilités.">
<polygon fill="white" stroke="#666666" points="625.5,-109 436.25,-109 436.25,-65 625.5,-65 625.5,-109"/>
<text text-anchor="start" x="444.25" y="-95.5" font-family="Helvetica,sans-Serif" font-size="10.00">fr.softsf.sudokufx.util.sudoku.</text>
<text text-anchor="start" x="444.25" y="-83.5" font-family="Helvetica,sans-Serif" font-size="10.00">GridMaster.laCaseVideAvecLeMoinsDe</text>
<text text-anchor="middle" x="530.88" y="-71.5" font-family="Helvetica,sans-Serif" font-size="10.00">Possibilites</text>
</a>
</g>
</g>
<!-- Node6&#45;&gt;Node9 -->
<g id="edge9_Node000006_Node000009" class="edge">
<title>Node6&#45;&gt;Node9</title>
<g id="a_edge9_Node000006_Node000009"><a xlink:title=" ">
<path fill="none" stroke="#63b8ff" d="M369.38,-114.97C386.96,-111.91 406.01,-108.59 424.65,-105.34"/>
<polygon fill="#63b8ff" stroke="#63b8ff" points="425.12,-108.81 434.37,-103.64 423.92,-101.91 425.12,-108.81"/>
</a>
</g>
</g>
<!-- Node8 -->
<g id="Node000008" class="node">
<title>Node8</title>
<g id="a_Node000008"><a xlink:href="classfr_1_1softsf_1_1sudokufx_1_1utils_1_1sudoku_1_1_grid_master.html#afa58a9e419a56117d305014b687b8079" target="_top" xlink:title="Compte le nombre de bits à 1 dans un entier.">
<polygon fill="white" stroke="#666666" points="812.5,-144 661.5,-144 661.5,-112 812.5,-112 812.5,-144"/>
<text text-anchor="start" x="669.5" y="-130.5" font-family="Helvetica,sans-Serif" font-size="10.00">fr.softsf.sudokufx.util.sudoku.</text>
<text text-anchor="middle" x="737" y="-118.5" font-family="Helvetica,sans-Serif" font-size="10.00">GridMaster.compterBits</text>
</a>
</g>
</g>
<!-- Node7&#45;&gt;Node8 -->
<g id="edge7_Node000007_Node000008" class="edge">
<title>Node7&#45;&gt;Node8</title>
<g id="a_edge7_Node000007_Node000008"><a xlink:title=" ">
<path fill="none" stroke="#63b8ff" d="M611.67,-137.14C624.3,-136.21 637.4,-135.25 650.16,-134.31"/>
<polygon fill="#63b8ff" stroke="#63b8ff" points="650.04,-137.83 659.75,-133.6 649.52,-130.85 650.04,-137.83"/>
</a>
</g>
</g>
<!-- Node9&#45;&gt;Node8 -->
<g id="edge10_Node000009_Node000008" class="edge">
<title>Node9&#45;&gt;Node8</title>
<g id="a_edge10_Node000009_Node000008"><a xlink:title=" ">
<path fill="none" stroke="#63b8ff" d="M625.87,-105.88C633.91,-107.49 642.01,-109.12 649.98,-110.72"/>
<polygon fill="#63b8ff" stroke="#63b8ff" points="649.16,-114.13 659.65,-112.67 650.54,-107.26 649.16,-114.13"/>
</a>
</g>
</g>
</g>
</svg>
