<?xml version="1.0" encoding="UTF-8" standalone="no"?>
<!DOCTYPE svg PUBLIC "-//W3C//DTD SVG 1.1//EN"
 "http://www.w3.org/Graphics/SVG/1.1/DTD/svg11.dtd">
<!-- Generated by graphviz version 12.2.1 (20241206.2353)
 -->
<!-- Title: fr.softsf.sudokufx.view.DefaultView.levelsMenuInitialization Pages: 1 -->
<!--zoomable 302 -->

<svg id="main" version="1.1" xmlns="http://www.w3.org/2000/svg" xmlns:xlink="http://www.w3.org/1999/xlink" xml:space="preserve" onload="init(evt)">

<style type="text/css"><![CDATA[
.node, .edge {opacity: 0.7;}
.node.selected, .edge.selected {opacity: 1;}
.edge:hover path { stroke: red; }
.edge:hover polygon { stroke: red; fill: red; }
]]></style>

<defs>
  <circle id="rim" cx="0" cy="0" r="7"/>
  <circle id="rim2" cx="0" cy="0" r="3.5"/>
  <g id="zoomPlus">
    <use xlink:href="#rim" fill="#404040"><set attributeName="fill" to="#808080" begin="zoomplus.mouseover" end="zoomplus.mouseout"/></use>
    <path d="M-4,0h8M0,-4v8" fill="none" stroke="white" stroke-width="1.5" pointer-events="none"/>
  </g>
  <g id="zoomMin">
    <use xlink:href="#rim" fill="#404040"><set attributeName="fill" to="#808080" begin="zoomminus.mouseover" end="zoomminus.mouseout"/></use>
    <path d="M-4,0h8" fill="none" stroke="white" stroke-width="1.5" pointer-events="none"/>
  </g>
  <g id="arrowUp" transform="translate(30 24)">
    <use xlink:href="#rim"/>
    <path pointer-events="none" fill="none" stroke="white" stroke-width="1.5" d="M0,-3.0v7 M-2.5,-0.5L0,-3.0L2.5,-0.5"/>
  </g>
  <g id="arrowRight" transform="rotate(90) translate(36 -43)">
    <use xlink:href="#rim"/>
    <path pointer-events="none" fill="none" stroke="white" stroke-width="1.5" d="M0,-3.0v7 M-2.5,-0.5L0,-3.0L2.5,-0.5"/>
  </g>
  <g id="arrowDown" transform="rotate(180) translate(-30 -48)">
    <use xlink:href="#rim"/>
    <path pointer-events="none" fill="none" stroke="white" stroke-width="1.5" d="M0,-3.0v7 M-2.5,-0.5L0,-3.0L2.5,-0.5"/>
  </g>
  <g id="arrowLeft" transform="rotate(270) translate(-36 17)">
    <use xlink:href="#rim"/>
    <path pointer-events="none" fill="none" stroke="white" stroke-width="1.5" d="M0,-3.0v7 M-2.5,-0.5L0,-3.0L2.5,-0.5"/>
  </g>
  <g id="resetDef">
    <use xlink:href="#rim2" fill="#404040"><set attributeName="fill" to="#808080" begin="reset.mouseover" end="reset.mouseout"/></use>
  </g>
</defs>
<script type="application/ecmascript">
var viewWidth = 546;
var viewHeight = 302;
var sectionId = 'dynsection-5';
</script>
<script type="application/ecmascript" xlink:href="svg.min.js"/>
<svg id="graph" class="graph">
<g id="viewport">
<title>fr.softsf.sudokufx.view.DefaultView.levelsMenuInitialization</title>
<!-- Node1 -->
<g id="Node000001" class="node">
<title>Node1</title>
<g id="a_Node000001"><a xlink:title="Initializes each difficulty level section in the menu by binding UI components to ViewModel propertie...">
<polygon fill="#999999" stroke="#666666" points="172.75,-160 0,-160 0,-128 172.75,-128 172.75,-160"/>
<text text-anchor="start" x="8" y="-146.5" font-family="Helvetica,sans-Serif" font-size="10.00">fr.softsf.sudokufx.view.</text>
<text text-anchor="middle" x="86.38" y="-134.5" font-family="Helvetica,sans-Serif" font-size="10.00">DefaultView.levelsMenuInitialization</text>
</a>
</g>
</g>
<!-- Node2 -->
<g id="Node000002" class="node">
<title>Node2</title>
<g id="a_Node000002"><a xlink:href="classfr_1_1softsf_1_1sudokufx_1_1view_1_1_default_view.html#a2782545a22496fbb6185093a2737b248" target="_top" xlink:title="Binds UI components related to a specific difficulty level in both the maxi and mini menus.">
<polygon fill="white" stroke="#666666" points="326.75,-160 208.75,-160 208.75,-128 326.75,-128 326.75,-160"/>
<text text-anchor="start" x="216.75" y="-146.5" font-family="Helvetica,sans-Serif" font-size="10.00">fr.softsf.sudokufx.view.</text>
<text text-anchor="middle" x="267.75" y="-134.5" font-family="Helvetica,sans-Serif" font-size="10.00">DefaultView.bindLevel</text>
</a>
</g>
</g>
<!-- Node1&#45;&gt;Node2 -->
<g id="edge1_Node000001_Node000002" class="edge">
<title>Node1&#45;&gt;Node2</title>
<g id="a_edge1_Node000001_Node000002"><a xlink:title=" ">
<path fill="none" stroke="#63b8ff" d="M173.12,-144C181.17,-144 189.26,-144 197.14,-144"/>
<polygon fill="#63b8ff" stroke="#63b8ff" points="196.97,-147.5 206.97,-144 196.97,-140.5 196.97,-147.5"/>
</a>
</g>
</g>
<!-- Node3 -->
<g id="Node000003" class="node">
<title>Node3</title>
<g id="a_Node000003"><a xlink:href="classfr_1_1softsf_1_1sudokufx_1_1view_1_1_default_view.html#ad0d842dec8978f4a7f16e25027a74f3b" target="_top" xlink:title="Binds accessibility properties (accessible text and role description) for the specified difficulty le...">
<polygon fill="white" stroke="#666666" points="534.38,-294 366.12,-294 366.12,-262 534.38,-262 534.38,-294"/>
<text text-anchor="start" x="374.12" y="-280.5" font-family="Helvetica,sans-Serif" font-size="10.00">fr.softsf.sudokufx.view.</text>
<text text-anchor="middle" x="450.25" y="-268.5" font-family="Helvetica,sans-Serif" font-size="10.00">DefaultView.bindLevelAccessibility</text>
</a>
</g>
</g>
<!-- Node2&#45;&gt;Node3 -->
<g id="edge2_Node000002_Node000003" class="edge">
<title>Node2&#45;&gt;Node3</title>
<g id="a_edge2_Node000002_Node000003"><a xlink:title=" ">
<path fill="none" stroke="#63b8ff" d="M278.42,-160.3C293.45,-184.2 324.68,-228.58 362.75,-253 364.75,-254.29 366.83,-255.51 368.95,-256.67"/>
<polygon fill="#63b8ff" stroke="#63b8ff" points="367.34,-259.77 377.86,-261 370.4,-253.48 367.34,-259.77"/>
</a>
</g>
</g>
<!-- Node4 -->
<g id="Node000004" class="node">
<title>Node4</title>
<g id="a_Node000004"><a xlink:href="classfr_1_1softsf_1_1sudokufx_1_1view_1_1_default_view.html#a3d5d0a16240ebde5f38e53f35d7aad03" target="_top" xlink:title="Binds the label&#39;s text to the localized name of the specified difficulty level.">
<polygon fill="white" stroke="#666666" points="527.62,-244 372.88,-244 372.88,-212 527.62,-212 527.62,-244"/>
<text text-anchor="start" x="380.88" y="-230.5" font-family="Helvetica,sans-Serif" font-size="10.00">fr.softsf.sudokufx.view.</text>
<text text-anchor="middle" x="450.25" y="-218.5" font-family="Helvetica,sans-Serif" font-size="10.00">DefaultView.bindLevelLabelText</text>
</a>
</g>
</g>
<!-- Node2&#45;&gt;Node4 -->
<g id="edge3_Node000002_Node000004" class="edge">
<title>Node2&#45;&gt;Node4</title>
<g id="a_edge3_Node000002_Node000004"><a xlink:title=" ">
<path fill="none" stroke="#63b8ff" d="M290.93,-160.42C309.37,-173.45 336.72,-191.35 362.75,-203 366.46,-204.66 370.32,-206.25 374.24,-207.75"/>
<polygon fill="#63b8ff" stroke="#63b8ff" points="372.74,-210.93 383.33,-211.02 375.11,-204.34 372.74,-210.93"/>
</a>
</g>
</g>
<!-- Node5 -->
<g id="Node000005" class="node">
<title>Node5</title>
<g id="a_Node000005"><a xlink:href="classfr_1_1softsf_1_1sudokufx_1_1view_1_1_default_view.html#ae6e221d303609c7e310658abb1a58815" target="_top" xlink:title="Binds the pseudo&#45;class &quot;:selected&quot; state of the given buttons to the specified difficulty level.">
<polygon fill="white" stroke="#666666" points="525.75,-194 374.75,-194 374.75,-150 525.75,-150 525.75,-194"/>
<text text-anchor="start" x="382.75" y="-180.5" font-family="Helvetica,sans-Serif" font-size="10.00">fr.softsf.sudokufx.view.</text>
<text text-anchor="start" x="382.75" y="-168.5" font-family="Helvetica,sans-Serif" font-size="10.00">DefaultView.bindLevelSelected</text>
<text text-anchor="middle" x="450.25" y="-156.5" font-family="Helvetica,sans-Serif" font-size="10.00">Styling</text>
</a>
</g>
</g>
<!-- Node2&#45;&gt;Node5 -->
<g id="edge4_Node000002_Node000005" class="edge">
<title>Node2&#45;&gt;Node5</title>
<g id="a_edge4_Node000002_Node000005"><a xlink:title=" ">
<path fill="none" stroke="#63b8ff" d="M326.85,-153.01C338.45,-154.81 350.87,-156.74 363.18,-158.65"/>
<polygon fill="#63b8ff" stroke="#63b8ff" points="362.51,-162.09 372.93,-160.16 363.59,-155.17 362.51,-162.09"/>
</a>
</g>
</g>
<!-- Node6 -->
<g id="Node000006" class="node">
<title>Node6</title>
<g id="a_Node000006"><a xlink:href="classfr_1_1softsf_1_1sudokufx_1_1view_1_1_default_view.html#af9c94d119491afaed311aa6eefc1234f" target="_top" xlink:title="Binds the visibility of the stars box to whether the specified difficulty level is selected.">
<polygon fill="white" stroke="#666666" points="536.62,-132 363.88,-132 363.88,-100 536.62,-100 536.62,-132"/>
<text text-anchor="start" x="371.88" y="-118.5" font-family="Helvetica,sans-Serif" font-size="10.00">fr.softsf.sudokufx.view.</text>
<text text-anchor="middle" x="450.25" y="-106.5" font-family="Helvetica,sans-Serif" font-size="10.00">DefaultView.bindLevelStarsVisibility</text>
</a>
</g>
</g>
<!-- Node2&#45;&gt;Node6 -->
<g id="edge5_Node000002_Node000006" class="edge">
<title>Node2&#45;&gt;Node6</title>
<g id="a_edge5_Node000002_Node000006"><a xlink:title=" ">
<path fill="none" stroke="#63b8ff" d="M326.85,-134.99C335.12,-133.71 343.79,-132.36 352.55,-131"/>
<polygon fill="#63b8ff" stroke="#63b8ff" points="352.81,-134.5 362.16,-129.51 351.74,-127.58 352.81,-134.5"/>
</a>
</g>
</g>
<!-- Node7 -->
<g id="Node000007" class="node">
<title>Node7</title>
<g id="a_Node000007"><a xlink:href="classfr_1_1softsf_1_1sudokufx_1_1view_1_1_default_view.html#a8056a23171a3cc96672893d680500815" target="_top" xlink:title="Binds the tooltip text properties of both buttons to the accessible text corresponding to the specifi...">
<polygon fill="white" stroke="#666666" points="530.25,-82 370.25,-82 370.25,-50 530.25,-50 530.25,-82"/>
<text text-anchor="start" x="378.25" y="-68.5" font-family="Helvetica,sans-Serif" font-size="10.00">fr.softsf.sudokufx.view.</text>
<text text-anchor="middle" x="450.25" y="-56.5" font-family="Helvetica,sans-Serif" font-size="10.00">DefaultView.bindLevelTooltipText</text>
</a>
</g>
</g>
<!-- Node2&#45;&gt;Node7 -->
<g id="edge6_Node000002_Node000007" class="edge">
<title>Node2&#45;&gt;Node7</title>
<g id="a_edge6_Node000002_Node000007"><a xlink:title=" ">
<path fill="none" stroke="#63b8ff" d="M293.87,-127.71C312.35,-116.26 338.39,-101.22 362.75,-91 366.77,-89.31 370.94,-87.7 375.18,-86.16"/>
<polygon fill="#63b8ff" stroke="#63b8ff" points="376.08,-89.55 384.39,-82.98 373.8,-82.93 376.08,-89.55"/>
</a>
</g>
</g>
<!-- Node8 -->
<g id="Node000008" class="node">
<title>Node8</title>
<g id="a_Node000008"><a xlink:href="classfr_1_1softsf_1_1sudokufx_1_1view_1_1components_1_1_possibility_stars_h_box.html#a1b3c68f479c79fd4b696a0accebbb014" target="_top" xlink:title="Returns the percentage property (0–100) used to calculate the star rating display.">
<polygon fill="white" stroke="#666666" points="537.75,-32 362.75,-32 362.75,0 537.75,0 537.75,-32"/>
<text text-anchor="start" x="370.75" y="-18.5" font-family="Helvetica,sans-Serif" font-size="10.00">fr.softsf.sudokufx.view.components.</text>
<text text-anchor="middle" x="450.25" y="-6.5" font-family="Helvetica,sans-Serif" font-size="10.00">PossibilityStarsHBox.getPercentage</text>
</a>
</g>
</g>
<!-- Node2&#45;&gt;Node8 -->
<g id="edge7_Node000002_Node000008" class="edge">
<title>Node2&#45;&gt;Node8</title>
<g id="a_edge7_Node000002_Node000008"><a xlink:title=" ">
<path fill="none" stroke="#63b8ff" d="M279.16,-127.86C294.65,-105.12 325.95,-63.88 362.75,-41 364.77,-39.74 366.86,-38.55 369,-37.41"/>
<polygon fill="#63b8ff" stroke="#63b8ff" points="370.43,-40.6 377.95,-33.15 367.42,-34.28 370.43,-40.6"/>
</a>
</g>
</g>
</g>
</svg>

<g id="navigator" transform="translate(0 0)" fill="#404254">
  <rect fill="#f2f5e9" fill-opacity="0.5" stroke="#606060" stroke-width=".5" x="0" y="0" width="60" height="60"/>
  <use id="zoomplus" xlink:href="#zoomPlus" x="17" y="9" onmousedown="handleZoom(evt,'in')"/>
  <use id="zoomminus" xlink:href="#zoomMin" x="42" y="9" onmousedown="handleZoom(evt,'out')"/>
  <use id="reset" xlink:href="#resetDef" x="30" y="36" onmousedown="handleReset()"/>
   <use id="arrowup" xlink:href="#arrowUp" x="0" y="0" onmousedown="handlePan(0,-1)"/>
  <use id="arrowright" xlink:href="#arrowRight" x="0" y="0" onmousedown="handlePan(1,0)"/>
  <use id="arrowdown" xlink:href="#arrowDown" x="0" y="0" onmousedown="handlePan(0,1)"/>
  <use id="arrowleft" xlink:href="#arrowLeft" x="0" y="0" onmousedown="handlePan(-1,0)"/>
</g>
<svg viewBox="0 0 15 15" width="100%" height="30px" preserveAspectRatio="xMaxYMin meet">
 <g id="arrow_out" transform="scale(0.3 0.3)">
  <a xlink:href="classfr_1_1softsf_1_1sudokufx_1_1view_1_1_default_view_a8f244e76c83f37d4050b585d3991815e_cgraph_org.svg" target="_base">
   <rect id="button" ry="5" rx="5" y="6" x="6" height="38" width="38"
        fill="#f2f5e9" fill-opacity="0.5" stroke="#606060" stroke-width="1.0"/>
   <path id="arrow"
     d="M 11.500037,31.436501 C 11.940474,20.09759 22.043105,11.32322 32.158766,21.979434 L 37.068811,17.246167 C 37.068811,17.246167 37.088388,32 37.088388,32 L 22.160133,31.978069 C 22.160133,31.978069 26.997745,27.140456 26.997745,27.140456 C 18.528582,18.264221 13.291696,25.230495 11.500037,31.436501 z"
     style="fill:#404040;"/>
  </a>
 </g>
</svg>

<style type='text/css'>
<![CDATA[
[data-mouse-over-selected='false'] { opacity: 0.7; }
[data-mouse-over-selected='true']  { opacity: 1.0; }
]]>
</style>
<script type="application/ecmascript"><![CDATA[
document.addEventListener('DOMContentLoaded', (event) => {
  highlightEdges();
  highlightAdjacentNodes();
});
]]></script>
</svg>
