<?xml version="1.0" encoding="UTF-8" standalone="no"?>
<!DOCTYPE svg PUBLIC "-//W3C//DTD SVG 1.1//EN"
 "http://www.w3.org/Graphics/SVG/1.1/DTD/svg11.dtd">
<!-- Generated by graphviz version 12.2.1 (20241206.2353)
 -->
<!-- Title: fr.softsf.sudokufx.viewmodel.grid.GridViewModel.init Pages: 1 -->
<!--zoomable 550 -->

<svg id="main" version="1.1" xmlns="http://www.w3.org/2000/svg" xmlns:xlink="http://www.w3.org/1999/xlink" xml:space="preserve" onload="init(evt)">

<style type="text/css"><![CDATA[
.node, .edge {opacity: 0.7;}
.node.selected, .edge.selected {opacity: 1;}
.edge:hover path { stroke: red; }
.edge:hover polygon { stroke: red; fill: red; }
]]></style>

<defs>
  <circle id="rim" cx="0" cy="0" r="7"/>
  <circle id="rim2" cx="0" cy="0" r="3.5"/>
  <g id="zoomPlus">
    <use xlink:href="#rim" fill="#404040"><set attributeName="fill" to="#808080" begin="zoomplus.mouseover" end="zoomplus.mouseout"/></use>
    <path d="M-4,0h8M0,-4v8" fill="none" stroke="white" stroke-width="1.5" pointer-events="none"/>
  </g>
  <g id="zoomMin">
    <use xlink:href="#rim" fill="#404040"><set attributeName="fill" to="#808080" begin="zoomminus.mouseover" end="zoomminus.mouseout"/></use>
    <path d="M-4,0h8" fill="none" stroke="white" stroke-width="1.5" pointer-events="none"/>
  </g>
  <g id="arrowUp" transform="translate(30 24)">
    <use xlink:href="#rim"/>
    <path pointer-events="none" fill="none" stroke="white" stroke-width="1.5" d="M0,-3.0v7 M-2.5,-0.5L0,-3.0L2.5,-0.5"/>
  </g>
  <g id="arrowRight" transform="rotate(90) translate(36 -43)">
    <use xlink:href="#rim"/>
    <path pointer-events="none" fill="none" stroke="white" stroke-width="1.5" d="M0,-3.0v7 M-2.5,-0.5L0,-3.0L2.5,-0.5"/>
  </g>
  <g id="arrowDown" transform="rotate(180) translate(-30 -48)">
    <use xlink:href="#rim"/>
    <path pointer-events="none" fill="none" stroke="white" stroke-width="1.5" d="M0,-3.0v7 M-2.5,-0.5L0,-3.0L2.5,-0.5"/>
  </g>
  <g id="arrowLeft" transform="rotate(270) translate(-36 17)">
    <use xlink:href="#rim"/>
    <path pointer-events="none" fill="none" stroke="white" stroke-width="1.5" d="M0,-3.0v7 M-2.5,-0.5L0,-3.0L2.5,-0.5"/>
  </g>
  <g id="resetDef">
    <use xlink:href="#rim2" fill="#404040"><set attributeName="fill" to="#808080" begin="reset.mouseover" end="reset.mouseout"/></use>
  </g>
</defs>
<script type="application/ecmascript">
var viewWidth = 1454;
var viewHeight = 550;
var sectionId = 'dynsection-12';
</script>
<script type="application/ecmascript" xlink:href="svg.min.js"/>
<svg id="graph" class="graph">
<g id="viewport">
<title>fr.softsf.sudokufx.viewmodel.grid.GridViewModel.init</title>
<!-- Node1 -->
<g id="Node000001" class="node">
<title>Node1</title>
<g id="a_Node000001"><a xlink:title="Instantiates the 81 GridCellViewModel and binds text change listeners.">
<polygon fill="#999999" stroke="#666666" points="163.75,-248.39 0,-248.39 0,-216.39 163.75,-216.39 163.75,-248.39"/>
<text text-anchor="start" x="8" y="-234.89" font-family="Helvetica,sans-Serif" font-size="10.00">fr.softsf.sudokufx.viewmodel.grid.</text>
<text text-anchor="middle" x="81.88" y="-222.89" font-family="Helvetica,sans-Serif" font-size="10.00">GridViewModel.init</text>
</a>
</g>
</g>
<!-- Node2 -->
<g id="Node000002" class="node">
<title>Node2</title>
<g id="a_Node000002"><a xlink:href="classfr_1_1softsf_1_1sudokufx_1_1viewmodel_1_1grid_1_1_grid_cell_view_model.html#a25813c6885f49b2be4c3dafa6e9878c8" target="_top" xlink:title=" ">
<polygon fill="white" stroke="#666666" points="1033.25,-242.39 869.5,-242.39 869.5,-210.39 1033.25,-210.39 1033.25,-242.39"/>
<text text-anchor="start" x="877.5" y="-228.89" font-family="Helvetica,sans-Serif" font-size="10.00">fr.softsf.sudokufx.viewmodel.grid.</text>
<text text-anchor="middle" x="951.38" y="-216.89" font-family="Helvetica,sans-Serif" font-size="10.00">GridCellViewModel.getTextArea</text>
</a>
</g>
</g>
<!-- Node1&#45;&gt;Node2 -->
<g id="edge1_Node000001_Node000002" class="edge">
<title>Node1&#45;&gt;Node2</title>
<g id="a_edge1_Node000001_Node000002"><a xlink:title=" ">
<path fill="none" stroke="#63b8ff" d="M163.98,-234.74C175.97,-235.01 188.18,-235.24 199.75,-235.39 380.62,-237.71 425.88,-237.75 606.75,-235.39 691.82,-234.27 788.71,-231.61 857.87,-229.47"/>
<polygon fill="#63b8ff" stroke="#63b8ff" points="857.76,-232.97 867.64,-229.16 857.54,-225.97 857.76,-232.97"/>
</a>
</g>
</g>
<!-- Node3 -->
<g id="Node000003" class="node">
<title>Node3</title>
<g id="a_Node000003"><a xlink:href="classfr_1_1softsf_1_1sudokufx_1_1viewmodel_1_1grid_1_1_grid_view_model.html#add773c382452e7476099209f6898f991" target="_top" xlink:title="Synchronizes the grid state and manages side effects based on the current application mode.">
<polygon fill="white" stroke="#666666" points="383,-226.39 199.75,-226.39 199.75,-194.39 383,-194.39 383,-226.39"/>
<text text-anchor="start" x="207.75" y="-212.89" font-family="Helvetica,sans-Serif" font-size="10.00">fr.softsf.sudokufx.viewmodel.grid.</text>
<text text-anchor="middle" x="291.38" y="-200.89" font-family="Helvetica,sans-Serif" font-size="10.00">GridViewModel.handleCellTextChange</text>
</a>
</g>
</g>
<!-- Node1&#45;&gt;Node3 -->
<g id="edge3_Node000001_Node000003" class="edge">
<title>Node1&#45;&gt;Node3</title>
<g id="a_edge3_Node000001_Node000003"><a xlink:title=" ">
<path fill="none" stroke="#63b8ff" d="M163.99,-223.79C171.87,-222.95 179.94,-222.1 187.99,-221.24"/>
<polygon fill="#63b8ff" stroke="#63b8ff" points="188.26,-224.73 197.84,-220.2 187.53,-217.77 188.26,-224.73"/>
</a>
</g>
</g>
<!-- Node2&#45;&gt;Node2 -->
<g id="edge2_Node000002_Node000002" class="edge">
<title>Node2&#45;&gt;Node2</title>
<g id="a_edge2_Node000002_Node000002"><a xlink:title=" ">
<path fill="none" stroke="#63b8ff" d="M913.44,-242.83C906.36,-251.97 919,-260.39 951.38,-260.39 969.33,-260.39 981.22,-257.8 987.04,-253.93"/>
<polygon fill="#63b8ff" stroke="#63b8ff" points="990.43,-254.81 989.01,-244.31 983.57,-253.4 990.43,-254.81"/>
</a>
</g>
</g>
<!-- Node4 -->
<g id="Node000004" class="node">
<title>Node4</title>
<g id="a_Node000004"><a xlink:href="classfr_1_1softsf_1_1sudokufx_1_1viewmodel_1_1grid_1_1_grid_view_model.html#a3be7edba49a294b63514cac2edba058e" target="_top" xlink:title="Synchronizes the grid state during manual solving.">
<polygon fill="white" stroke="#666666" points="603,-150.39 422.75,-150.39 422.75,-118.39 603,-118.39 603,-150.39"/>
<text text-anchor="start" x="430.75" y="-136.89" font-family="Helvetica,sans-Serif" font-size="10.00">fr.softsf.sudokufx.viewmodel.grid.</text>
<text text-anchor="middle" x="512.88" y="-124.89" font-family="Helvetica,sans-Serif" font-size="10.00">GridViewModel.applySolveModeState</text>
</a>
</g>
</g>
<!-- Node3&#45;&gt;Node4 -->
<g id="edge4_Node000003_Node000004" class="edge">
<title>Node3&#45;&gt;Node4</title>
<g id="a_edge4_Node000003_Node000004"><a xlink:title=" ">
<path fill="none" stroke="#63b8ff" d="M340,-193.9C373.37,-182.34 418.16,-166.83 453.65,-154.55"/>
<polygon fill="#63b8ff" stroke="#63b8ff" points="454.61,-157.92 462.91,-151.34 452.31,-151.3 454.61,-157.92"/>
</a>
</g>
</g>
<!-- Node10 -->
<g id="Node000010" class="node">
<title>Node10</title>
<g id="a_Node000010"><a xlink:href="classfr_1_1softsf_1_1sudokufx_1_1viewmodel_1_1grid_1_1_grid_view_model.html#ac30ea1feb669d014d0d0a58bd85cfc87" target="_top" xlink:title="Handles grid persistence and completion verification during regular gameplay.">
<polygon fill="white" stroke="#666666" points="606.75,-364.39 419,-364.39 419,-332.39 606.75,-332.39 606.75,-364.39"/>
<text text-anchor="start" x="427" y="-350.89" font-family="Helvetica,sans-Serif" font-size="10.00">fr.softsf.sudokufx.viewmodel.grid.</text>
<text text-anchor="middle" x="512.88" y="-338.89" font-family="Helvetica,sans-Serif" font-size="10.00">GridViewModel.applyStandardPlayFlow</text>
</a>
</g>
</g>
<!-- Node3&#45;&gt;Node10 -->
<g id="edge20_Node000003_Node000010" class="edge">
<title>Node3&#45;&gt;Node10</title>
<g id="a_edge20_Node000003_Node000010"><a xlink:title=" ">
<path fill="none" stroke="#63b8ff" d="M318.42,-226.76C357.69,-251.45 432.18,-298.28 476.38,-326.07"/>
<polygon fill="#63b8ff" stroke="#63b8ff" points="474.26,-328.87 484.59,-331.23 477.98,-322.94 474.26,-328.87"/>
</a>
</g>
</g>
<!-- Node19 -->
<g id="Node000019" class="node">
<title>Node19</title>
<g id="a_Node000019"><a xlink:href="classfr_1_1softsf_1_1sudokufx_1_1viewmodel_1_1grid_1_1_grid_view_model.html#ad1b7ef7994bef2d64edd271bf77a9cbc" target="_top" xlink:title="Checks if the current UI context is set to the Solve menu.">
<polygon fill="white" stroke="#666666" points="597.38,-226.39 428.38,-226.39 428.38,-194.39 597.38,-194.39 597.38,-226.39"/>
<text text-anchor="start" x="436.38" y="-212.89" font-family="Helvetica,sans-Serif" font-size="10.00">fr.softsf.sudokufx.viewmodel.grid.</text>
<text text-anchor="middle" x="512.88" y="-200.89" font-family="Helvetica,sans-Serif" font-size="10.00">GridViewModel.isSolveModeActive</text>
</a>
</g>
</g>
<!-- Node3&#45;&gt;Node19 -->
<g id="edge33_Node000003_Node000019" class="edge">
<title>Node3&#45;&gt;Node19</title>
<g id="a_edge33_Node000003_Node000019"><a xlink:title=" ">
<path fill="none" stroke="#63b8ff" d="M383.24,-210.39C394.27,-210.39 405.56,-210.39 416.65,-210.39"/>
<polygon fill="#63b8ff" stroke="#63b8ff" points="416.6,-213.89 426.6,-210.39 416.6,-206.89 416.6,-213.89"/>
</a>
</g>
</g>
<!-- Node4&#45;&gt;Node2 -->
<g id="edge9_Node000004_Node000002" class="edge">
<title>Node4&#45;&gt;Node2</title>
<g id="a_edge9_Node000004_Node000002"><a xlink:title=" ">
<path fill="none" stroke="#63b8ff" d="M558.71,-150.88C583.27,-159.43 614.39,-169.5 642.75,-176.39 714.15,-193.71 796.37,-206.73 857.83,-215.13"/>
<polygon fill="#63b8ff" stroke="#63b8ff" points="857.18,-218.57 867.56,-216.44 858.11,-211.64 857.18,-218.57"/>
</a>
</g>
</g>
<!-- Node5 -->
<g id="Node000005" class="node">
<title>Node5</title>
<g id="a_Node000005"><a xlink:href="classfr_1_1softsf_1_1sudokufx_1_1viewmodel_1_1grid_1_1_grid_cell_view_model.html#a1b2f5aa3c798e4aaf3e845aa59cde94c" target="_top" xlink:title=" ">
<polygon fill="white" stroke="#666666" points="1037.75,-106.39 865,-106.39 865,-74.39 1037.75,-74.39 1037.75,-106.39"/>
<text text-anchor="start" x="873" y="-92.89" font-family="Helvetica,sans-Serif" font-size="10.00">fr.softsf.sudokufx.viewmodel.grid.</text>
<text text-anchor="middle" x="951.38" y="-80.89" font-family="Helvetica,sans-Serif" font-size="10.00">GridCellViewModel.editableProperty</text>
</a>
</g>
</g>
<!-- Node4&#45;&gt;Node5 -->
<g id="edge5_Node000004_Node000005" class="edge">
<title>Node4&#45;&gt;Node5</title>
<g id="a_edge5_Node000004_Node000005"><a xlink:title=" ">
<path fill="none" stroke="#63b8ff" d="M589.93,-117.93C607.23,-114.67 625.57,-111.57 642.75,-109.39 712.81,-100.47 792.41,-95.69 853.08,-93.16"/>
<polygon fill="#63b8ff" stroke="#63b8ff" points="853.2,-96.66 863.05,-92.76 852.92,-89.67 853.2,-96.66"/>
</a>
</g>
</g>
<!-- Node6 -->
<g id="Node000006" class="node">
<title>Node6</title>
<g id="a_Node000006"><a xlink:href="classfr_1_1softsf_1_1sudokufx_1_1viewmodel_1_1grid_1_1_grid_cell_view_model.html#a206f89cb24905ebf71e7ddbb27998a7d" target="_top" xlink:title=" ">
<polygon fill="white" stroke="#666666" points="1033.25,-174.39 869.5,-174.39 869.5,-142.39 1033.25,-142.39 1033.25,-174.39"/>
<text text-anchor="start" x="877.5" y="-160.89" font-family="Helvetica,sans-Serif" font-size="10.00">fr.softsf.sudokufx.viewmodel.grid.</text>
<text text-anchor="middle" x="951.38" y="-148.89" font-family="Helvetica,sans-Serif" font-size="10.00">GridCellViewModel.getLabel</text>
</a>
</g>
</g>
<!-- Node4&#45;&gt;Node6 -->
<g id="edge7_Node000004_Node000006" class="edge">
<title>Node4&#45;&gt;Node6</title>
<g id="a_edge7_Node000004_Node000006"><a xlink:title=" ">
<path fill="none" stroke="#63b8ff" d="M585.77,-150.86C604.24,-154.39 624.15,-157.6 642.75,-159.39 714.82,-166.31 796.82,-165.62 858.03,-163.44"/>
<polygon fill="#63b8ff" stroke="#63b8ff" points="857.84,-166.95 867.7,-163.07 857.57,-159.96 857.84,-166.95"/>
</a>
</g>
</g>
<!-- Node7 -->
<g id="Node000007" class="node">
<title>Node7</title>
<g id="a_Node000007"><a xlink:href="classfr_1_1softsf_1_1sudokufx_1_1viewmodel_1_1grid_1_1_grid_cell_view_model.html#ae04f21e5c6df7750f4e8c79d600a9b6b" target="_top" xlink:title=" ">
<polygon fill="white" stroke="#666666" points="1038.12,-38.39 864.62,-38.39 864.62,-6.39 1038.12,-6.39 1038.12,-38.39"/>
<text text-anchor="start" x="872.62" y="-24.89" font-family="Helvetica,sans-Serif" font-size="10.00">fr.softsf.sudokufx.viewmodel.grid.</text>
<text text-anchor="middle" x="951.38" y="-12.89" font-family="Helvetica,sans-Serif" font-size="10.00">GridCellViewModel.rawTextProperty</text>
</a>
</g>
</g>
<!-- Node4&#45;&gt;Node7 -->
<g id="edge10_Node000004_Node000007" class="edge">
<title>Node4&#45;&gt;Node7</title>
<g id="a_edge10_Node000004_Node000007"><a xlink:title=" ">
<path fill="none" stroke="#63b8ff" d="M525.89,-118.03C546.39,-91.7 590.95,-40.88 642.75,-21.39 709.69,3.8 790.77,2.37 852.89,-4.73"/>
<polygon fill="#63b8ff" stroke="#63b8ff" points="852.4,-8.2 862.75,-5.94 853.25,-1.25 852.4,-8.2"/>
</a>
</g>
</g>
<!-- Node8 -->
<g id="Node000008" class="node">
<title>Node8</title>
<g id="a_Node000008"><a xlink:href="classfr_1_1softsf_1_1sudokufx_1_1viewmodel_1_1grid_1_1_grid_view_model.html#a784d6f09a416df51f857b06ef14d4df5" target="_top" xlink:title="Resets a cell to its default editable state and clears content.">
<polygon fill="white" stroke="#666666" points="816.62,-150.39 646.88,-150.39 646.88,-118.39 816.62,-118.39 816.62,-150.39"/>
<text text-anchor="start" x="654.88" y="-136.89" font-family="Helvetica,sans-Serif" font-size="10.00">fr.softsf.sudokufx.viewmodel.grid.</text>
<text text-anchor="middle" x="731.75" y="-124.89" font-family="Helvetica,sans-Serif" font-size="10.00">GridViewModel.resetCellToEditable</text>
</a>
</g>
</g>
<!-- Node4&#45;&gt;Node8 -->
<g id="edge12_Node000004_Node000008" class="edge">
<title>Node4&#45;&gt;Node8</title>
<g id="a_edge12_Node000004_Node000008"><a xlink:title=" ">
<path fill="none" stroke="#63b8ff" d="M603.34,-134.39C613.88,-134.39 624.66,-134.39 635.28,-134.39"/>
<polygon fill="#63b8ff" stroke="#63b8ff" points="635.21,-137.89 645.21,-134.39 635.21,-130.89 635.21,-137.89"/>
</a>
</g>
</g>
<!-- Node9 -->
<g id="Node000009" class="node">
<title>Node9</title>
<g id="a_Node000009"><a xlink:href="classfr_1_1softsf_1_1sudokufx_1_1viewmodel_1_1grid_1_1_grid_view_model.html#a14ed923537d42b9a3273e937ac7b7073" target="_top" xlink:title="Calculates the solution based on anchored cells and updates editable cells.">
<polygon fill="white" stroke="#666666" points="820.75,-62.39 642.75,-62.39 642.75,-30.39 820.75,-30.39 820.75,-62.39"/>
<text text-anchor="start" x="650.75" y="-48.89" font-family="Helvetica,sans-Serif" font-size="10.00">fr.softsf.sudokufx.viewmodel.grid.</text>
<text text-anchor="middle" x="731.75" y="-36.89" font-family="Helvetica,sans-Serif" font-size="10.00">GridViewModel.updateSolveProgress</text>
</a>
</g>
</g>
<!-- Node4&#45;&gt;Node9 -->
<g id="edge17_Node000004_Node000009" class="edge">
<title>Node4&#45;&gt;Node9</title>
<g id="a_edge17_Node000004_Node000009"><a xlink:title=" ">
<path fill="none" stroke="#63b8ff" d="M547.96,-117.99C573.72,-105.85 610.11,-89.26 642.75,-76.39 651.18,-73.06 660.15,-69.75 669.01,-66.61"/>
<polygon fill="#63b8ff" stroke="#63b8ff" points="670.01,-69.97 678.3,-63.37 667.71,-63.36 670.01,-69.97"/>
</a>
</g>
</g>
<!-- Node5&#45;&gt;Node5 -->
<g id="edge6_Node000005_Node000005" class="edge">
<title>Node5&#45;&gt;Node5</title>
<g id="a_edge6_Node000005_Node000005"><a xlink:title=" ">
<path fill="none" stroke="#63b8ff" d="M913.44,-106.83C906.36,-115.97 919,-124.39 951.38,-124.39 969.33,-124.39 981.22,-121.8 987.04,-117.93"/>
<polygon fill="#63b8ff" stroke="#63b8ff" points="990.43,-118.81 989.01,-108.31 983.57,-117.4 990.43,-118.81"/>
</a>
</g>
</g>
<!-- Node6&#45;&gt;Node6 -->
<g id="edge8_Node000006_Node000006" class="edge">
<title>Node6&#45;&gt;Node6</title>
<g id="a_edge8_Node000006_Node000006"><a xlink:title=" ">
<path fill="none" stroke="#63b8ff" d="M913.44,-174.83C906.36,-183.97 919,-192.39 951.38,-192.39 969.33,-192.39 981.22,-189.8 987.04,-185.93"/>
<polygon fill="#63b8ff" stroke="#63b8ff" points="990.43,-186.81 989.01,-176.31 983.57,-185.4 990.43,-186.81"/>
</a>
</g>
</g>
<!-- Node7&#45;&gt;Node7 -->
<g id="edge11_Node000007_Node000007" class="edge">
<title>Node7&#45;&gt;Node7</title>
<g id="a_edge11_Node000007_Node000007"><a xlink:title=" ">
<path fill="none" stroke="#63b8ff" d="M913.44,-38.83C906.36,-47.97 919,-56.39 951.38,-56.39 969.33,-56.39 981.22,-53.8 987.04,-49.93"/>
<polygon fill="#63b8ff" stroke="#63b8ff" points="990.43,-50.81 989.01,-40.31 983.57,-49.4 990.43,-50.81"/>
</a>
</g>
</g>
<!-- Node8&#45;&gt;Node2 -->
<g id="edge15_Node000008_Node000002" class="edge">
<title>Node8&#45;&gt;Node2</title>
<g id="a_edge15_Node000008_Node000002"><a xlink:title=" ">
<path fill="none" stroke="#63b8ff" d="M758.49,-150.62C782.99,-165.5 821.27,-187.29 856.75,-201.39 861.15,-203.13 865.71,-204.8 870.34,-206.38"/>
<polygon fill="#63b8ff" stroke="#63b8ff" points="869.22,-209.69 879.82,-209.44 871.38,-203.03 869.22,-209.69"/>
</a>
</g>
</g>
<!-- Node8&#45;&gt;Node5 -->
<g id="edge13_Node000008_Node000005" class="edge">
<title>Node8&#45;&gt;Node5</title>
<g id="a_edge13_Node000008_Node000005"><a xlink:title=" ">
<path fill="none" stroke="#63b8ff" d="M814.09,-117.94C828.33,-115.06 843.24,-112.05 857.76,-109.11"/>
<polygon fill="#63b8ff" stroke="#63b8ff" points="858.17,-112.6 867.28,-107.19 856.79,-105.74 858.17,-112.6"/>
</a>
</g>
</g>
<!-- Node8&#45;&gt;Node6 -->
<g id="edge14_Node000008_Node000006" class="edge">
<title>Node8&#45;&gt;Node6</title>
<g id="a_edge14_Node000008_Node000006"><a xlink:title=" ">
<path fill="none" stroke="#63b8ff" d="M816.89,-143.66C830.35,-145.15 844.33,-146.69 857.97,-148.2"/>
<polygon fill="#63b8ff" stroke="#63b8ff" points="857.49,-151.66 867.82,-149.28 858.26,-144.71 857.49,-151.66"/>
</a>
</g>
</g>
<!-- Node8&#45;&gt;Node7 -->
<g id="edge16_Node000008_Node000007" class="edge">
<title>Node8&#45;&gt;Node7</title>
<g id="a_edge16_Node000008_Node000007"><a xlink:title=" ">
<path fill="none" stroke="#63b8ff" d="M760.49,-118.14C785.4,-103.75 823.13,-82.43 856.75,-65.39 871.66,-57.83 888.15,-50.06 903.1,-43.24"/>
<polygon fill="#63b8ff" stroke="#63b8ff" points="904.11,-46.62 911.77,-39.31 901.22,-40.25 904.11,-46.62"/>
</a>
</g>
</g>
<!-- Node9&#45;&gt;Node5 -->
<g id="edge18_Node000009_Node000005" class="edge">
<title>Node9&#45;&gt;Node5</title>
<g id="a_edge18_Node000009_Node000005"><a xlink:title=" ">
<path fill="none" stroke="#63b8ff" d="M814.09,-62.83C828.33,-65.71 843.24,-68.73 857.76,-71.66"/>
<polygon fill="#63b8ff" stroke="#63b8ff" points="856.79,-75.03 867.28,-73.59 858.17,-68.17 856.79,-75.03"/>
</a>
</g>
</g>
<!-- Node9&#45;&gt;Node7 -->
<g id="edge19_Node000009_Node000007" class="edge">
<title>Node9&#45;&gt;Node7</title>
<g id="a_edge19_Node000009_Node000007"><a xlink:title=" ">
<path fill="none" stroke="#63b8ff" d="M820.95,-36.66C831.42,-35.5 842.16,-34.32 852.75,-33.15"/>
<polygon fill="#63b8ff" stroke="#63b8ff" points="853.1,-36.63 862.66,-32.06 852.34,-29.68 853.1,-36.63"/>
</a>
</g>
</g>
<!-- Node11 -->
<g id="Node000011" class="node">
<title>Node11</title>
<g id="a_Node000011"><a xlink:href="classfr_1_1softsf_1_1sudokufx_1_1viewmodel_1_1grid_1_1_grid_view_model.html#a6c7bd2140fad9b3091830f3f81c64827" target="_top" xlink:title="Returns whether the current game has a non&#45;empty default grid.">
<polygon fill="white" stroke="#666666" points="813.62,-364.39 649.88,-364.39 649.88,-332.39 813.62,-332.39 813.62,-364.39"/>
<text text-anchor="start" x="657.88" y="-350.89" font-family="Helvetica,sans-Serif" font-size="10.00">fr.softsf.sudokufx.viewmodel.grid.</text>
<text text-anchor="middle" x="731.75" y="-338.89" font-family="Helvetica,sans-Serif" font-size="10.00">GridViewModel.hasDefaultGrid</text>
</a>
</g>
</g>
<!-- Node10&#45;&gt;Node11 -->
<g id="edge21_Node000010_Node000011" class="edge">
<title>Node10&#45;&gt;Node11</title>
<g id="a_edge21_Node000010_Node000011"><a xlink:title=" ">
<path fill="none" stroke="#63b8ff" d="M607.11,-348.39C617.37,-348.39 627.81,-348.39 638.07,-348.39"/>
<polygon fill="#63b8ff" stroke="#63b8ff" points="638.03,-351.89 648.03,-348.39 638.03,-344.89 638.03,-351.89"/>
</a>
</g>
</g>
<!-- Node12 -->
<g id="Node000012" class="node">
<title>Node12</title>
<g id="a_Node000012"><a xlink:href="classfr_1_1softsf_1_1sudokufx_1_1viewmodel_1_1grid_1_1_grid_view_model.html#ad536719f789ab2bb851aa4b26d44c075" target="_top" xlink:title="Checks if all 81 cells contain valid single&#45;digit values (1&#45;9).">
<polygon fill="white" stroke="#666666" points="1046,-386.39 856.75,-386.39 856.75,-354.39 1046,-354.39 1046,-386.39"/>
<text text-anchor="start" x="864.75" y="-372.89" font-family="Helvetica,sans-Serif" font-size="10.00">fr.softsf.sudokufx.viewmodel.grid.</text>
<text text-anchor="middle" x="951.38" y="-360.89" font-family="Helvetica,sans-Serif" font-size="10.00">GridViewModel.isCompletelyCompleted</text>
</a>
</g>
</g>
<!-- Node10&#45;&gt;Node12 -->
<g id="edge22_Node000010_Node000012" class="edge">
<title>Node10&#45;&gt;Node12</title>
<g id="a_edge22_Node000010_Node000012"><a xlink:title=" ">
<path fill="none" stroke="#63b8ff" d="M585.77,-364.86C604.24,-368.39 624.15,-371.6 642.75,-373.39 709.93,-379.84 785.73,-379.19 845.29,-376.88"/>
<polygon fill="#63b8ff" stroke="#63b8ff" points="845.23,-380.39 855.08,-376.48 844.94,-373.39 845.23,-380.39"/>
</a>
</g>
</g>
<!-- Node15 -->
<g id="Node000015" class="node">
<title>Node15</title>
<g id="a_Node000015"><a xlink:href="classfr_1_1softsf_1_1sudokufx_1_1viewmodel_1_1grid_1_1_grid_view_model.html#aad1610b7e07349137ebf0d3d592a5b09" target="_top" xlink:title="Persists the current grid state for the active player’s selected game.">
<polygon fill="white" stroke="#666666" points="813.62,-314.39 649.88,-314.39 649.88,-282.39 813.62,-282.39 813.62,-314.39"/>
<text text-anchor="start" x="657.88" y="-300.89" font-family="Helvetica,sans-Serif" font-size="10.00">fr.softsf.sudokufx.viewmodel.grid.</text>
<text text-anchor="middle" x="731.75" y="-288.89" font-family="Helvetica,sans-Serif" font-size="10.00">GridViewModel.persistGridValue</text>
</a>
</g>
</g>
<!-- Node10&#45;&gt;Node15 -->
<g id="edge25_Node000010_Node000015" class="edge">
<title>Node10&#45;&gt;Node15</title>
<g id="a_edge25_Node000010_Node000015"><a xlink:title=" ">
<path fill="none" stroke="#63b8ff" d="M585.19,-331.94C605.39,-327.29 627.54,-322.18 648.33,-317.39"/>
<polygon fill="#63b8ff" stroke="#63b8ff" points="648.96,-320.83 657.92,-315.18 647.39,-314.01 648.96,-320.83"/>
</a>
</g>
</g>
<!-- Node16 -->
<g id="Node000016" class="node">
<title>Node16</title>
<g id="a_Node000016"><a xlink:href="classfr_1_1softsf_1_1sudokufx_1_1viewmodel_1_1grid_1_1_grid_view_model.html#a77d49e325684b6bef071fb2461c896cb" target="_top" xlink:title="Validates the grid by attempting to solve it.">
<polygon fill="white" stroke="#666666" points="813.62,-452.39 649.88,-452.39 649.88,-420.39 813.62,-420.39 813.62,-452.39"/>
<text text-anchor="start" x="657.88" y="-438.89" font-family="Helvetica,sans-Serif" font-size="10.00">fr.softsf.sudokufx.viewmodel.grid.</text>
<text text-anchor="middle" x="731.75" y="-426.89" font-family="Helvetica,sans-Serif" font-size="10.00">GridViewModel.verifyGrid</text>
</a>
</g>
</g>
<!-- Node10&#45;&gt;Node16 -->
<g id="edge27_Node000010_Node000016" class="edge">
<title>Node10&#45;&gt;Node16</title>
<g id="a_edge27_Node000010_Node000016"><a xlink:title=" ">
<path fill="none" stroke="#63b8ff" d="M547.96,-364.79C573.72,-376.92 610.11,-393.51 642.75,-406.39 651.18,-409.71 660.15,-413.02 669.01,-416.17"/>
<polygon fill="#63b8ff" stroke="#63b8ff" points="667.71,-419.42 678.3,-419.41 670.01,-412.81 667.71,-419.42"/>
</a>
</g>
</g>
<!-- Node13 -->
<g id="Node000013" class="node">
<title>Node13</title>
<g id="a_Node000013"><a xlink:href="classfr_1_1softsf_1_1sudokufx_1_1viewmodel_1_1grid_1_1_grid_view_model.html#a14e2c0c3e0e51a0fee38c181b39fa6e2" target="_top" xlink:title="Gets a list of all cell text values in row&#45;major order.">
<polygon fill="white" stroke="#666666" points="1245.75,-386.39 1082,-386.39 1082,-354.39 1245.75,-354.39 1245.75,-386.39"/>
<text text-anchor="start" x="1090" y="-372.89" font-family="Helvetica,sans-Serif" font-size="10.00">fr.softsf.sudokufx.viewmodel.grid.</text>
<text text-anchor="middle" x="1163.88" y="-360.89" font-family="Helvetica,sans-Serif" font-size="10.00">GridViewModel.getAllValues</text>
</a>
</g>
</g>
<!-- Node12&#45;&gt;Node13 -->
<g id="edge23_Node000012_Node000013" class="edge">
<title>Node12&#45;&gt;Node13</title>
<g id="a_edge23_Node000012_Node000013"><a xlink:title=" ">
<path fill="none" stroke="#63b8ff" d="M1046.24,-370.39C1054.28,-370.39 1062.42,-370.39 1070.46,-370.39"/>
<polygon fill="#63b8ff" stroke="#63b8ff" points="1070.22,-373.89 1080.22,-370.39 1070.22,-366.89 1070.22,-373.89"/>
</a>
</g>
</g>
<!-- Node14 -->
<g id="Node000014" class="node">
<title>Node14</title>
<g id="a_Node000014"><a xlink:href="classfr_1_1softsf_1_1sudokufx_1_1viewmodel_1_1grid_1_1_grid_view_model.html#ace36956cb99bad46d1144460d8cde157" target="_top" xlink:title="Checks whether the GridViewModel has been initialized via init().">
<polygon fill="white" stroke="#666666" points="1445.5,-386.39 1281.75,-386.39 1281.75,-354.39 1445.5,-354.39 1445.5,-386.39"/>
<text text-anchor="start" x="1289.75" y="-372.89" font-family="Helvetica,sans-Serif" font-size="10.00">fr.softsf.sudokufx.viewmodel.grid.</text>
<text text-anchor="middle" x="1363.62" y="-360.89" font-family="Helvetica,sans-Serif" font-size="10.00">GridViewModel.checkInitialized</text>
</a>
</g>
</g>
<!-- Node13&#45;&gt;Node14 -->
<g id="edge24_Node000013_Node000014" class="edge">
<title>Node13&#45;&gt;Node14</title>
<g id="a_edge24_Node000013_Node000014"><a xlink:title=" ">
<path fill="none" stroke="#63b8ff" d="M1246.16,-370.39C1254.06,-370.39 1262.1,-370.39 1270.09,-370.39"/>
<polygon fill="#63b8ff" stroke="#63b8ff" points="1269.82,-373.89 1279.82,-370.39 1269.82,-366.89 1269.82,-373.89"/>
</a>
</g>
</g>
<!-- Node15&#45;&gt;Node13 -->
<g id="edge26_Node000015_Node000013" class="edge">
<title>Node15&#45;&gt;Node13</title>
<g id="a_edge26_Node000015_Node000013"><a xlink:title=" ">
<path fill="none" stroke="#63b8ff" d="M814.11,-309.19C877.47,-317.94 967.55,-331.12 1046,-345.39 1056.38,-347.27 1067.25,-349.4 1078,-351.59"/>
<polygon fill="#63b8ff" stroke="#63b8ff" points="1077.15,-354.99 1087.65,-353.58 1078.56,-348.13 1077.15,-354.99"/>
</a>
</g>
</g>
<!-- Node16&#45;&gt;Node12 -->
<g id="edge32_Node000016_Node000012" class="edge">
<title>Node16&#45;&gt;Node12</title>
<g id="a_edge32_Node000016_Node000012"><a xlink:title=" ">
<path fill="none" stroke="#63b8ff" d="M787.1,-419.9C816.95,-410.85 854.16,-399.57 885.51,-390.06"/>
<polygon fill="#63b8ff" stroke="#63b8ff" points="886.33,-393.47 894.89,-387.21 884.3,-386.77 886.33,-393.47"/>
</a>
</g>
</g>
<!-- Node16&#45;&gt;Node13 -->
<g id="edge30_Node000016_Node000013" class="edge">
<title>Node16&#45;&gt;Node13</title>
<g id="a_edge30_Node000016_Node000013"><a xlink:title=" ">
<path fill="none" stroke="#63b8ff" d="M813.82,-427.59C877.23,-420.28 967.49,-408.9 1046,-395.39 1056.81,-393.52 1068.14,-391.37 1079.32,-389.11"/>
<polygon fill="#63b8ff" stroke="#63b8ff" points="1079.84,-392.58 1088.94,-387.14 1078.44,-385.72 1079.84,-392.58"/>
</a>
</g>
</g>
<!-- Node17 -->
<g id="Node000017" class="node">
<title>Node17</title>
<g id="a_Node000017"><a xlink:href="classfr_1_1softsf_1_1sudokufx_1_1viewmodel_1_1grid_1_1_grid_view_model.html#a4fdf2930215eea12812190e33e1ddeca" target="_top" xlink:title="Handles all actions when a grid is successfully completed.">
<polygon fill="white" stroke="#666666" points="1033.25,-524.39 869.5,-524.39 869.5,-492.39 1033.25,-492.39 1033.25,-524.39"/>
<text text-anchor="start" x="877.5" y="-510.89" font-family="Helvetica,sans-Serif" font-size="10.00">fr.softsf.sudokufx.viewmodel.grid.</text>
<text text-anchor="middle" x="951.38" y="-498.89" font-family="Helvetica,sans-Serif" font-size="10.00">GridViewModel.celebrateVictory</text>
</a>
</g>
</g>
<!-- Node16&#45;&gt;Node17 -->
<g id="edge28_Node000016_Node000017" class="edge">
<title>Node16&#45;&gt;Node17</title>
<g id="a_edge28_Node000016_Node000017"><a xlink:title=" ">
<path fill="none" stroke="#63b8ff" d="M772.87,-452.78C796.97,-462.33 828.37,-474.24 856.75,-483.39 862.5,-485.24 868.49,-487.07 874.52,-488.83"/>
<polygon fill="#63b8ff" stroke="#63b8ff" points="873.37,-492.15 883.95,-491.54 875.3,-485.42 873.37,-492.15"/>
</a>
</g>
</g>
<!-- Node18 -->
<g id="Node000018" class="node">
<title>Node18</title>
<g id="a_Node000018"><a xlink:href="classfr_1_1softsf_1_1sudokufx_1_1viewmodel_1_1grid_1_1_grid_view_model.html#af41c64cb771df8f4fa5bbf0c3a34431b" target="_top" xlink:title="Solves the given 9x9 Sudoku grid.">
<polygon fill="white" stroke="#666666" points="1034.38,-474.39 868.38,-474.39 868.38,-442.39 1034.38,-442.39 1034.38,-474.39"/>
<text text-anchor="start" x="876.38" y="-460.89" font-family="Helvetica,sans-Serif" font-size="10.00">fr.softsf.sudokufx.viewmodel.grid.</text>
<text text-anchor="middle" x="951.38" y="-448.89" font-family="Helvetica,sans-Serif" font-size="10.00">GridViewModel.getCurrentSolution</text>
</a>
</g>
</g>
<!-- Node16&#45;&gt;Node18 -->
<g id="edge31_Node000016_Node000018" class="edge">
<title>Node16&#45;&gt;Node18</title>
<g id="a_edge31_Node000016_Node000018"><a xlink:title=" ">
<path fill="none" stroke="#63b8ff" d="M814.09,-444.61C828,-446.02 842.55,-447.49 856.75,-448.92"/>
<polygon fill="#63b8ff" stroke="#63b8ff" points="856.23,-452.39 866.54,-449.91 856.94,-445.42 856.23,-452.39"/>
</a>
</g>
</g>
<!-- Node17&#45;&gt;Node17 -->
<g id="edge29_Node000017_Node000017" class="edge">
<title>Node17&#45;&gt;Node17</title>
<g id="a_edge29_Node000017_Node000017"><a xlink:title=" ">
<path fill="none" stroke="#63b8ff" d="M913.44,-524.83C906.36,-533.97 919,-542.39 951.38,-542.39 969.33,-542.39 981.22,-539.8 987.04,-535.93"/>
<polygon fill="#63b8ff" stroke="#63b8ff" points="990.43,-536.81 989.01,-526.31 983.57,-535.4 990.43,-536.81"/>
</a>
</g>
</g>
</g>
</svg>

<g id="navigator" transform="translate(0 0)" fill="#404254">
  <rect fill="#f2f5e9" fill-opacity="0.5" stroke="#606060" stroke-width=".5" x="0" y="0" width="60" height="60"/>
  <use id="zoomplus" xlink:href="#zoomPlus" x="17" y="9" onmousedown="handleZoom(evt,'in')"/>
  <use id="zoomminus" xlink:href="#zoomMin" x="42" y="9" onmousedown="handleZoom(evt,'out')"/>
  <use id="reset" xlink:href="#resetDef" x="30" y="36" onmousedown="handleReset()"/>
   <use id="arrowup" xlink:href="#arrowUp" x="0" y="0" onmousedown="handlePan(0,-1)"/>
  <use id="arrowright" xlink:href="#arrowRight" x="0" y="0" onmousedown="handlePan(1,0)"/>
  <use id="arrowdown" xlink:href="#arrowDown" x="0" y="0" onmousedown="handlePan(0,1)"/>
  <use id="arrowleft" xlink:href="#arrowLeft" x="0" y="0" onmousedown="handlePan(-1,0)"/>
</g>
<svg viewBox="0 0 15 15" width="100%" height="30px" preserveAspectRatio="xMaxYMin meet">
 <g id="arrow_out" transform="scale(0.3 0.3)">
  <a xlink:href="classfr_1_1softsf_1_1sudokufx_1_1viewmodel_1_1grid_1_1_grid_view_model_a159c0e18f45f9bd105fb03964f5f9374_cgraph_org.svg" target="_base">
   <rect id="button" ry="5" rx="5" y="6" x="6" height="38" width="38"
        fill="#f2f5e9" fill-opacity="0.5" stroke="#606060" stroke-width="1.0"/>
   <path id="arrow"
     d="M 11.500037,31.436501 C 11.940474,20.09759 22.043105,11.32322 32.158766,21.979434 L 37.068811,17.246167 C 37.068811,17.246167 37.088388,32 37.088388,32 L 22.160133,31.978069 C 22.160133,31.978069 26.997745,27.140456 26.997745,27.140456 C 18.528582,18.264221 13.291696,25.230495 11.500037,31.436501 z"
     style="fill:#404040;"/>
  </a>
 </g>
</svg>

<style type='text/css'>
<![CDATA[
[data-mouse-over-selected='false'] { opacity: 0.7; }
[data-mouse-over-selected='true']  { opacity: 1.0; }
]]>
</style>
<script type="application/ecmascript"><![CDATA[
document.addEventListener('DOMContentLoaded', (event) => {
  highlightEdges();
  highlightAdjacentNodes();
});
]]></script>
</svg>
