<?xml version="1.0" encoding="UTF-8" standalone="no"?>
<!DOCTYPE svg PUBLIC "-//W3C//DTD SVG 1.1//EN"
 "http://www.w3.org/Graphics/SVG/1.1/DTD/svg11.dtd">
<!-- Generated by graphviz version 12.2.1 (20241206.2353)
 -->
<!-- Title: fr.softsf.sudokufx.service.PlayerService Pages: 1 -->
<svg width="372pt" height="393pt"
 viewBox="0.00 0.00 371.75 393.00" xmlns="http://www.w3.org/2000/svg" xmlns:xlink="http://www.w3.org/1999/xlink">

<svg id="main" version="1.1" xmlns="http://www.w3.org/2000/svg" xmlns:xlink="http://www.w3.org/1999/xlink" xml:space="preserve">

<style type="text/css"><![CDATA[
.node, .edge {opacity: 0.7;}
.node.selected, .edge.selected {opacity: 1;}
.edge:hover path { stroke: red; }
.edge:hover polygon { stroke: red; fill: red; }
]]></style>
<script type="application/ecmascript" xlink:href="svg.min.js"/>
<svg id="graph" class="graph">
<g id="graph0" class="graph" transform="scale(1 1) rotate(0) translate(4 389)">
<title>fr.softsf.sudokufx.service.PlayerService</title>
<!-- Node1 -->
<g id="Node000001" class="node">
<title>Node1</title>
<g id="a_Node000001"><a xlink:title="Service class providing business logic related to Player entities.">
<polygon fill="#999999" stroke="none" points="244.62,-132 81.88,-132 81.88,0 244.62,0 244.62,-132"/>
<text text-anchor="start" x="106.25" y="-118.5" font-family="Helvetica,sans-Serif" font-size="10.00">fr.softsf.sudokufx.service.</text>
<text text-anchor="start" x="132.88" y="-106.5" font-family="Helvetica,sans-Serif" font-size="10.00">PlayerService</text>
<text text-anchor="start" x="161.75" y="-90.5" font-family="Helvetica,sans-Serif" font-size="10.00"> </text>
<text text-anchor="start" x="85.88" y="-74.5" font-family="Helvetica,sans-Serif" font-size="10.00">+</text>
<text text-anchor="start" x="95.88" y="-74.5" font-family="Helvetica,sans-Serif" font-size="10.00">PlayerService(PlayerRepository</text>
<text text-anchor="start" x="95.88" y="-62.5" font-family="Helvetica,sans-Serif" font-size="10.00"> playerRepository, IPlayerMapper</text>
<text text-anchor="start" x="95.88" y="-50.5" font-family="Helvetica,sans-Serif" font-size="10.00"> playerMapper)</text>
<text text-anchor="start" x="85.88" y="-34.5" font-family="Helvetica,sans-Serif" font-size="10.00">+</text>
<text text-anchor="start" x="95.88" y="-34.5" font-family="Helvetica,sans-Serif" font-size="10.00">PlayerDto getPlayer()</text>
<text text-anchor="start" x="87.38" y="-18.5" font-family="Helvetica,sans-Serif" font-size="10.00">&#45;</text>
<text text-anchor="start" x="95.88" y="-18.5" font-family="Helvetica,sans-Serif" font-size="10.00">PlayerDto validatePlayer</text>
<text text-anchor="start" x="95.88" y="-6.5" font-family="Helvetica,sans-Serif" font-size="10.00">NameOrThrow(PlayerDto dto)</text>
<polygon fill="#666666" stroke="#666666" points="81.88,-102 81.88,-102 244.62,-102 244.62,-102 81.88,-102"/>
<polygon fill="#666666" stroke="#666666" points="81.88,-86 81.88,-86 244.62,-86 244.62,-86 81.88,-86"/>
<polygon fill="none" stroke="#666666" points="81.88,0 81.88,-132 244.62,-132 244.62,0 81.88,0"/>
</a>
</g>
</g>
<!-- Node2 -->
<g id="Node000002" class="node">
<title>Node2</title>
<g id="a_Node000002"><a xlink:href="interfacefr_1_1softsf_1_1sudokufx_1_1repository_1_1_player_repository.html" target="_top" xlink:title=" ">
<polygon fill="white" stroke="none" points="136.5,-270 0,-270 0,-194 136.5,-194 136.5,-270"/>
<text text-anchor="start" x="6" y="-256.5" font-family="Helvetica,sans-Serif" font-size="10.00">fr.softsf.sudokufx.repository.</text>
<text text-anchor="start" x="30.75" y="-244.5" font-family="Helvetica,sans-Serif" font-size="10.00">PlayerRepository</text>
<text text-anchor="start" x="66.75" y="-228.5" font-family="Helvetica,sans-Serif" font-size="10.00"> </text>
<text text-anchor="start" x="4" y="-212.5" font-family="Helvetica,sans-Serif" font-size="10.00">+</text>
<text text-anchor="start" x="14" y="-212.5" font-family="Helvetica,sans-Serif" font-size="10.00">List&lt; Player &gt; findSelected</text>
<text text-anchor="start" x="14" y="-200.5" font-family="Helvetica,sans-Serif" font-size="10.00">PlayerWithSelectedGame()</text>
<polygon fill="#666666" stroke="#666666" points="0,-240 0,-240 136.5,-240 136.5,-240 0,-240"/>
<polygon fill="#666666" stroke="#666666" points="0,-224 0,-224 136.5,-224 136.5,-224 0,-224"/>
<polygon fill="none" stroke="#666666" points="0,-194 0,-270 136.5,-270 136.5,-194 0,-194"/>
</a>
</g>
</g>
<!-- Node2&#45;&gt;Node1 -->
<g id="edge1_Node000001_Node000002" class="edge">
<title>Node2&#45;&gt;Node1</title>
<g id="a_edge1_Node000001_Node000002"><a xlink:title=" ">
<path fill="none" stroke="#63b8ff" d="M89.57,-194.2C98.4,-178.94 108.99,-160.66 119.36,-142.78"/>
<polygon fill="none" stroke="#63b8ff" points="119.29,-142.88 118.84,-135.69 125.31,-132.5 125.76,-139.7 119.29,-142.88"/>
</a>
</g>
<text text-anchor="middle" x="152.65" y="-152.5" font-family="Helvetica,sans-Serif" font-size="10.00" fill="grey"> &#45;playerRepository</text>
</g>
<!-- Node3 -->
<g id="Node000003" class="node">
<title>Node3</title>
<g id="a_Node000003"><a xlink:title=" ">
<polygon fill="white" stroke="none" points="123.62,-385 12.88,-385 12.88,-321 123.62,-321 123.62,-385"/>
<text text-anchor="start" x="16.88" y="-371.5" font-family="Helvetica,sans-Serif" font-size="10.00">JpaRepository&lt; Player,</text>
<text text-anchor="start" x="51.75" y="-359.5" font-family="Helvetica,sans-Serif" font-size="10.00"> Long &gt;</text>
<text text-anchor="start" x="66.75" y="-343.5" font-family="Helvetica,sans-Serif" font-size="10.00"> </text>
<text text-anchor="start" x="66.75" y="-327.5" font-family="Helvetica,sans-Serif" font-size="10.00"> </text>
<polygon fill="#666666" stroke="#666666" points="12.88,-355 12.88,-355 123.62,-355 123.62,-355 12.88,-355"/>
<polygon fill="#666666" stroke="#666666" points="12.88,-339 12.88,-339 123.62,-339 123.62,-339 12.88,-339"/>
<polygon fill="none" stroke="#666666" points="12.88,-321 12.88,-385 123.62,-385 123.62,-321 12.88,-321"/>
</a>
</g>
</g>
<!-- Node3&#45;&gt;Node2 -->
<g id="edge2_Node000002_Node000003" class="edge">
<title>Node3&#45;&gt;Node2</title>
<g id="a_edge2_Node000002_Node000003"><a xlink:title=" ">
<path fill="none" stroke="#63b8ff" d="M68.25,-309.91C68.25,-296.79 68.25,-282.44 68.25,-269.72"/>
<polygon fill="none" stroke="#63b8ff" points="64.75,-309.53 68.25,-319.53 71.75,-309.53 64.75,-309.53"/>
</a>
</g>
</g>
<!-- Node4 -->
<g id="Node000004" class="node">
<title>Node4</title>
<g id="a_Node000004"><a xlink:href="interfacefr_1_1softsf_1_1sudokufx_1_1common_1_1interfaces_1_1mapper_1_1_i_player_mapper.html" target="_top" xlink:title="Mapper interface for converting between Player entity and PlayerDto data transfer object.">
<polygon fill="white" stroke="none" points="363.75,-284 154.75,-284 154.75,-180 363.75,-180 363.75,-284"/>
<text text-anchor="start" x="158.75" y="-270.5" font-family="Helvetica,sans-Serif" font-size="10.00">fr.softsf.sudokufx.common.interfaces.mapper.</text>
<text text-anchor="start" x="227.75" y="-258.5" font-family="Helvetica,sans-Serif" font-size="10.00">IPlayerMapper</text>
<text text-anchor="start" x="257.75" y="-242.5" font-family="Helvetica,sans-Serif" font-size="10.00"> </text>
<text text-anchor="start" x="173.69" y="-226.5" font-family="Helvetica,sans-Serif" font-size="10.00">+</text>
<text text-anchor="start" x="198.62" y="-226.5" font-family="Helvetica,sans-Serif" font-size="10.00">Player mapPlayerDtoToPlayer</text>
<text text-anchor="start" x="198.62" y="-214.5" font-family="Helvetica,sans-Serif" font-size="10.00">(PlayerDto dto)</text>
<text text-anchor="start" x="173.69" y="-198.5" font-family="Helvetica,sans-Serif" font-size="10.00">+</text>
<text text-anchor="start" x="198.62" y="-198.5" font-family="Helvetica,sans-Serif" font-size="10.00">PlayerDto mapPlayerToDto</text>
<text text-anchor="start" x="198.62" y="-186.5" font-family="Helvetica,sans-Serif" font-size="10.00">(Player player)</text>
<polygon fill="#666666" stroke="#666666" points="154.75,-254 154.75,-254 363.75,-254 363.75,-254 154.75,-254"/>
<polygon fill="#666666" stroke="#666666" points="154.75,-238 154.75,-238 363.75,-238 363.75,-238 154.75,-238"/>
<polygon fill="none" stroke="#666666" points="154.75,-180 154.75,-284 363.75,-284 363.75,-180 154.75,-180"/>
</a>
</g>
</g>
<!-- Node4&#45;&gt;Node1 -->
<g id="edge3_Node000001_Node000004" class="edge">
<title>Node4&#45;&gt;Node1</title>
<g id="a_edge3_Node000001_Node000004"><a xlink:title=" ">
<path fill="none" stroke="#63b8ff" d="M229.4,-180.01C222.5,-168.23 215.02,-155.44 207.65,-142.86"/>
<polygon fill="none" stroke="#63b8ff" points="207.74,-143.01 201.26,-139.85 201.68,-132.65 208.16,-135.81 207.74,-143.01"/>
</a>
</g>
<text text-anchor="middle" x="249.25" y="-152.5" font-family="Helvetica,sans-Serif" font-size="10.00" fill="grey"> &#45;playerMapper</text>
</g>
</g>
</svg>
</svg>

<style type='text/css'>
<![CDATA[
[data-mouse-over-selected='false'] { opacity: 0.7; }
[data-mouse-over-selected='true']  { opacity: 1.0; }
]]>
</style>
<script type="application/ecmascript"><![CDATA[
document.addEventListener('DOMContentLoaded', (event) => {
  highlightEdges();
  highlightAdjacentNodes();
});
]]></script>
</svg>
