<?xml version="1.0" encoding="UTF-8" standalone="no"?>
<!DOCTYPE svg PUBLIC "-//W3C//DTD SVG 1.1//EN"
 "http://www.w3.org/Graphics/SVG/1.1/DTD/svg11.dtd">
<!-- Generated by graphviz version 12.2.1 (20241206.2353)
 -->
<!-- Title: fr.softsf.sudokufx.common.exception.JakartaValidator Pages: 1 -->
<svg width="181pt" height="128pt"
 viewBox="0.00 0.00 181.00 128.00" xmlns="http://www.w3.org/2000/svg" xmlns:xlink="http://www.w3.org/1999/xlink">
<g id="graph0" class="graph" transform="scale(1 1) rotate(0) translate(4 124)">
<title>fr.softsf.sudokufx.common.exception.JakartaValidator</title>
<!-- Node1 -->
<g id="Node000001" class="node">
<title>Node1</title>
<g id="a_Node000001"><a xlink:title="Spring component for validating objects using Jakarta Bean Validation.">
<polygon fill="#999999" stroke="none" points="173,-120 0,-120 0,0 173,0 173,-120"/>
<text text-anchor="start" x="4" y="-106.5" font-family="Helvetica,sans-Serif" font-size="10.00">fr.softsf.sudokufx.common.exception.</text>
<text text-anchor="start" x="51.62" y="-94.5" font-family="Helvetica,sans-Serif" font-size="10.00">JakartaValidator</text>
<text text-anchor="start" x="16.69" y="-78.5" font-family="Helvetica,sans-Serif" font-size="10.00">&#45;</text>
<text text-anchor="start" x="36.38" y="-78.5" font-family="Helvetica,sans-Serif" font-size="10.00">final Validator validator</text>
<text text-anchor="start" x="16.69" y="-62.5" font-family="Helvetica,sans-Serif" font-size="10.00">&#45;</text>
<text text-anchor="start" x="36.38" y="-62.5" font-family="Helvetica,sans-Serif" font-size="10.00">static final Logger LOG</text>
<text text-anchor="start" x="15.19" y="-46.5" font-family="Helvetica,sans-Serif" font-size="10.00">+</text>
<text text-anchor="start" x="36.38" y="-46.5" font-family="Helvetica,sans-Serif" font-size="10.00">JakartaValidator(Validator</text>
<text text-anchor="start" x="36.38" y="-34.5" font-family="Helvetica,sans-Serif" font-size="10.00"> validator)</text>
<text text-anchor="start" x="15.19" y="-18.5" font-family="Helvetica,sans-Serif" font-size="10.00">~</text>
<text text-anchor="start" x="36.38" y="-18.5" font-family="Helvetica,sans-Serif" font-size="10.00">public&lt; T &gt; T validateOr</text>
<text text-anchor="start" x="36.38" y="-6.5" font-family="Helvetica,sans-Serif" font-size="10.00">Throw(T obj)</text>
<polygon fill="#666666" stroke="#666666" points="0,-90 0,-90 173,-90 173,-90 0,-90"/>
<polygon fill="#666666" stroke="#666666" points="0,-58 0,-58 34.38,-58 34.38,-58 0,-58"/>
<polygon fill="#666666" stroke="#666666" points="34.38,-58 34.38,-58 173,-58 173,-58 34.38,-58"/>
<polygon fill="none" stroke="#666666" points="0,0 0,-120 173,-120 173,0 0,0"/>
</a>
</g>
</g>
</g>
</svg>
