<?xml version="1.0" encoding="UTF-8" standalone="no"?>
<!DOCTYPE svg PUBLIC "-//W3C//DTD SVG 1.1//EN"
 "http://www.w3.org/Graphics/SVG/1.1/DTD/svg11.dtd">
<!-- Generated by graphviz version 12.2.1 (20241206.2353)
 -->
<!-- Title: fr.softsf.sudokufx.service.PlayerService Pages: 1 -->
<svg width="368pt" height="377pt"
 viewBox="0.00 0.00 367.75 377.00" xmlns="http://www.w3.org/2000/svg" xmlns:xlink="http://www.w3.org/1999/xlink">

<svg id="main" version="1.1" xmlns="http://www.w3.org/2000/svg" xmlns:xlink="http://www.w3.org/1999/xlink" xml:space="preserve">

<style type="text/css"><![CDATA[
.node, .edge {opacity: 0.7;}
.node.selected, .edge.selected {opacity: 1;}
.edge:hover path { stroke: red; }
.edge:hover polygon { stroke: red; fill: red; }
]]></style>
<script type="application/ecmascript" xlink:href="svg.min.js"/>
<svg id="graph" class="graph">
<g id="graph0" class="graph" transform="scale(1 1) rotate(0) translate(4 373)">
<title>fr.softsf.sudokufx.service.PlayerService</title>
<!-- Node1 -->
<g id="Node000001" class="node">
<title>Node1</title>
<g id="a_Node000001"><a xlink:title="Service class providing business logic related to Player entities.">
<polygon fill="#999999" stroke="none" points="241.62,-116 78.88,-116 78.88,0 241.62,0 241.62,-116"/>
<text text-anchor="start" x="103.25" y="-102.5" font-family="Helvetica,sans-Serif" font-size="10.00">fr.softsf.sudokufx.service.</text>
<text text-anchor="start" x="129.88" y="-90.5" font-family="Helvetica,sans-Serif" font-size="10.00">PlayerService</text>
<text text-anchor="start" x="84.38" y="-74.5" font-family="Helvetica,sans-Serif" font-size="10.00">&#45;</text>
<text text-anchor="start" x="92.88" y="-74.5" font-family="Helvetica,sans-Serif" font-size="10.00">static final Logger LOG</text>
<text text-anchor="start" x="82.88" y="-58.5" font-family="Helvetica,sans-Serif" font-size="10.00">+</text>
<text text-anchor="start" x="92.88" y="-58.5" font-family="Helvetica,sans-Serif" font-size="10.00">PlayerService(PlayerRepository</text>
<text text-anchor="start" x="92.88" y="-46.5" font-family="Helvetica,sans-Serif" font-size="10.00"> playerRepository, IPlayerMapper</text>
<text text-anchor="start" x="92.88" y="-34.5" font-family="Helvetica,sans-Serif" font-size="10.00"> playerMapper)</text>
<text text-anchor="start" x="82.88" y="-18.5" font-family="Helvetica,sans-Serif" font-size="10.00">+</text>
<text text-anchor="start" x="92.88" y="-18.5" font-family="Helvetica,sans-Serif" font-size="10.00">Optional&lt; PlayerDto</text>
<text text-anchor="start" x="92.88" y="-6.5" font-family="Helvetica,sans-Serif" font-size="10.00"> &gt; getPlayer()</text>
<polygon fill="#666666" stroke="#666666" points="78.88,-86 78.88,-86 241.62,-86 241.62,-86 78.88,-86"/>
<polygon fill="#666666" stroke="#666666" points="78.88,-70 78.88,-70 90.88,-70 90.88,-70 78.88,-70"/>
<polygon fill="#666666" stroke="#666666" points="90.88,-70 90.88,-70 241.62,-70 241.62,-70 90.88,-70"/>
<polygon fill="none" stroke="#666666" points="78.88,0 78.88,-116 241.62,-116 241.62,0 78.88,0"/>
</a>
</g>
</g>
<!-- Node2 -->
<g id="Node000002" class="node">
<title>Node2</title>
<g id="a_Node000002"><a xlink:href="interfacefr_1_1softsf_1_1sudokufx_1_1repository_1_1_player_repository.html" target="_top" xlink:title=" ">
<polygon fill="white" stroke="none" points="132.5,-254 0,-254 0,-178 132.5,-178 132.5,-254"/>
<text text-anchor="start" x="4" y="-240.5" font-family="Helvetica,sans-Serif" font-size="10.00">fr.softsf.sudokufx.repository.</text>
<text text-anchor="start" x="28.75" y="-228.5" font-family="Helvetica,sans-Serif" font-size="10.00">PlayerRepository</text>
<text text-anchor="start" x="64.75" y="-212.5" font-family="Helvetica,sans-Serif" font-size="10.00"> </text>
<text text-anchor="start" x="4.31" y="-196.5" font-family="Helvetica,sans-Serif" font-size="10.00">+</text>
<text text-anchor="start" x="14.62" y="-196.5" font-family="Helvetica,sans-Serif" font-size="10.00">List&lt; Player &gt; findPlayers</text>
<text text-anchor="start" x="14.62" y="-184.5" font-family="Helvetica,sans-Serif" font-size="10.00">WithSelectedGames()</text>
<polygon fill="#666666" stroke="#666666" points="0,-224 0,-224 132.5,-224 132.5,-224 0,-224"/>
<polygon fill="#666666" stroke="#666666" points="0,-208 0,-208 132.5,-208 132.5,-208 0,-208"/>
<polygon fill="none" stroke="#666666" points="0,-178 0,-254 132.5,-254 132.5,-178 0,-178"/>
</a>
</g>
</g>
<!-- Node2&#45;&gt;Node1 -->
<g id="edge1_Node000001_Node000002" class="edge">
<title>Node2&#45;&gt;Node1</title>
<g id="a_edge1_Node000001_Node000002"><a xlink:title=" ">
<path fill="none" stroke="#63b8ff" d="M88.53,-178.03C97.79,-162.66 108.84,-144.32 119.46,-126.69"/>
<polygon fill="none" stroke="#63b8ff" points="119.34,-126.89 119.01,-119.69 125.53,-116.61 125.86,-123.82 119.34,-126.89"/>
</a>
</g>
<text text-anchor="middle" x="153" y="-136.5" font-family="Helvetica,sans-Serif" font-size="10.00" fill="grey"> &#45;playerRepository</text>
</g>
<!-- Node3 -->
<g id="Node000003" class="node">
<title>Node3</title>
<g id="a_Node000003"><a xlink:title=" ">
<polygon fill="white" stroke="none" points="121.62,-369 10.88,-369 10.88,-305 121.62,-305 121.62,-369"/>
<text text-anchor="start" x="14.88" y="-355.5" font-family="Helvetica,sans-Serif" font-size="10.00">JpaRepository&lt; Player,</text>
<text text-anchor="start" x="49.75" y="-343.5" font-family="Helvetica,sans-Serif" font-size="10.00"> Long &gt;</text>
<text text-anchor="start" x="64.75" y="-327.5" font-family="Helvetica,sans-Serif" font-size="10.00"> </text>
<text text-anchor="start" x="64.75" y="-311.5" font-family="Helvetica,sans-Serif" font-size="10.00"> </text>
<polygon fill="#666666" stroke="#666666" points="10.88,-339 10.88,-339 121.62,-339 121.62,-339 10.88,-339"/>
<polygon fill="#666666" stroke="#666666" points="10.88,-323 10.88,-323 121.62,-323 121.62,-323 10.88,-323"/>
<polygon fill="none" stroke="#666666" points="10.88,-305 10.88,-369 121.62,-369 121.62,-305 10.88,-305"/>
</a>
</g>
</g>
<!-- Node3&#45;&gt;Node2 -->
<g id="edge2_Node000002_Node000003" class="edge">
<title>Node3&#45;&gt;Node2</title>
<g id="a_edge2_Node000002_Node000003"><a xlink:title=" ">
<path fill="none" stroke="#63b8ff" d="M66.25,-293.91C66.25,-280.79 66.25,-266.44 66.25,-253.72"/>
<polygon fill="none" stroke="#63b8ff" points="62.75,-293.53 66.25,-303.53 69.75,-293.53 62.75,-293.53"/>
</a>
</g>
</g>
<!-- Node4 -->
<g id="Node000004" class="node">
<title>Node4</title>
<g id="a_Node000004"><a xlink:href="interfacefr_1_1softsf_1_1sudokufx_1_1common_1_1interfaces_1_1mapper_1_1_i_player_mapper.html" target="_top" xlink:title="Mapper interface for converting between Player entity and PlayerDto data transfer object.">
<polygon fill="white" stroke="none" points="359.75,-268 150.75,-268 150.75,-164 359.75,-164 359.75,-268"/>
<text text-anchor="start" x="154.75" y="-254.5" font-family="Helvetica,sans-Serif" font-size="10.00">fr.softsf.sudokufx.common.interfaces.mapper.</text>
<text text-anchor="start" x="223.75" y="-242.5" font-family="Helvetica,sans-Serif" font-size="10.00">IPlayerMapper</text>
<text text-anchor="start" x="253.75" y="-226.5" font-family="Helvetica,sans-Serif" font-size="10.00"> </text>
<text text-anchor="start" x="169.69" y="-210.5" font-family="Helvetica,sans-Serif" font-size="10.00">+</text>
<text text-anchor="start" x="194.62" y="-210.5" font-family="Helvetica,sans-Serif" font-size="10.00">Player mapPlayerDtoToPlayer</text>
<text text-anchor="start" x="194.62" y="-198.5" font-family="Helvetica,sans-Serif" font-size="10.00">(PlayerDto dto)</text>
<text text-anchor="start" x="169.69" y="-182.5" font-family="Helvetica,sans-Serif" font-size="10.00">+</text>
<text text-anchor="start" x="194.62" y="-182.5" font-family="Helvetica,sans-Serif" font-size="10.00">PlayerDto mapPlayerToDto</text>
<text text-anchor="start" x="194.62" y="-170.5" font-family="Helvetica,sans-Serif" font-size="10.00">(Player player)</text>
<polygon fill="#666666" stroke="#666666" points="150.75,-238 150.75,-238 359.75,-238 359.75,-238 150.75,-238"/>
<polygon fill="#666666" stroke="#666666" points="150.75,-222 150.75,-222 359.75,-222 359.75,-222 150.75,-222"/>
<polygon fill="none" stroke="#666666" points="150.75,-164 150.75,-268 359.75,-268 359.75,-164 150.75,-164"/>
</a>
</g>
</g>
<!-- Node4&#45;&gt;Node1 -->
<g id="edge3_Node000001_Node000004" class="edge">
<title>Node4&#45;&gt;Node1</title>
<g id="a_edge3_Node000001_Node000004"><a xlink:title=" ">
<path fill="none" stroke="#63b8ff" d="M224.41,-164.35C217.11,-152.38 209.22,-139.42 201.55,-126.82"/>
<polygon fill="none" stroke="#63b8ff" points="201.6,-126.9 195.06,-123.85 195.36,-116.65 201.89,-119.69 201.6,-126.9"/>
</a>
</g>
<text text-anchor="middle" x="242.85" y="-136.5" font-family="Helvetica,sans-Serif" font-size="10.00" fill="grey"> &#45;playerMapper</text>
</g>
</g>
</svg>
</svg>

<style type='text/css'>
<![CDATA[
[data-mouse-over-selected='false'] { opacity: 0.7; }
[data-mouse-over-selected='true']  { opacity: 1.0; }
]]>
</style>
<script type="application/ecmascript"><![CDATA[
document.addEventListener('DOMContentLoaded', (event) => {
  highlightEdges();
  highlightAdjacentNodes();
});
]]></script>
</svg>
