<?xml version="1.0" encoding="UTF-8" standalone="no"?>
<!DOCTYPE svg PUBLIC "-//W3C//DTD SVG 1.1//EN"
 "http://www.w3.org/Graphics/SVG/1.1/DTD/svg11.dtd">
<!-- Generated by graphviz version 12.2.1 (20241206.2353)
 -->
<!-- Title: fr.softsf.sudokufx.viewmodel.grid.GridViewModel.init Pages: 1 -->
<svg width="797pt" height="222pt"
 viewBox="0.00 0.00 796.50 222.00" xmlns="http://www.w3.org/2000/svg" xmlns:xlink="http://www.w3.org/1999/xlink">
<g id="graph0" class="graph" transform="scale(1 1) rotate(0) translate(4 218)">
<title>fr.softsf.sudokufx.viewmodel.grid.GridViewModel.init</title>
<!-- Node1 -->
<g id="Node000001" class="node">
<title>Node1</title>
<g id="a_Node000001"><a xlink:title="Initializes the 9x9 Sudoku grid by creating 81 GridCellViewModel instances with unique IDs and row/co...">
<polygon fill="#999999" stroke="#666666" points="163.75,-148 0,-148 0,-116 163.75,-116 163.75,-148"/>
<text text-anchor="start" x="8" y="-134.5" font-family="Helvetica,sans-Serif" font-size="10.00">fr.softsf.sudokufx.viewmodel.grid.</text>
<text text-anchor="middle" x="81.88" y="-122.5" font-family="Helvetica,sans-Serif" font-size="10.00">GridViewModel.init</text>
</a>
</g>
</g>
<!-- Node2 -->
<g id="Node000002" class="node">
<title>Node2</title>
<g id="a_Node000002"><a xlink:href="classfr_1_1softsf_1_1sudokufx_1_1viewmodel_1_1grid_1_1_grid_cell_view_model.html#a25813c6885f49b2be4c3dafa6e9878c8" target="_top" xlink:title=" ">
<polygon fill="white" stroke="#666666" points="363.5,-214 199.75,-214 199.75,-182 363.5,-182 363.5,-214"/>
<text text-anchor="start" x="207.75" y="-200.5" font-family="Helvetica,sans-Serif" font-size="10.00">fr.softsf.sudokufx.viewmodel.grid.</text>
<text text-anchor="middle" x="281.62" y="-188.5" font-family="Helvetica,sans-Serif" font-size="10.00">GridCellViewModel.getTextArea</text>
</a>
</g>
</g>
<!-- Node1&#45;&gt;Node2 -->
<g id="edge1_Node000001_Node000002" class="edge">
<title>Node1&#45;&gt;Node2</title>
<g id="a_edge1_Node000001_Node000002"><a xlink:title=" ">
<path fill="none" stroke="#63b8ff" d="M132.27,-148.48C159.15,-157.46 192.6,-168.62 220.94,-178.08"/>
<polygon fill="#63b8ff" stroke="#63b8ff" points="219.49,-181.29 230.09,-181.13 221.71,-174.65 219.49,-181.29"/>
</a>
</g>
</g>
<!-- Node3 -->
<g id="Node000003" class="node">
<title>Node3</title>
<g id="a_Node000003"><a xlink:href="classfr_1_1softsf_1_1sudokufx_1_1viewmodel_1_1grid_1_1_grid_view_model.html#ad536719f789ab2bb851aa4b26d44c075" target="_top" xlink:title="Checks if all 81 cells contain valid single&#45;digit values (1&#45;9).">
<polygon fill="white" stroke="#666666" points="588.75,-170 399.5,-170 399.5,-138 588.75,-138 588.75,-170"/>
<text text-anchor="start" x="407.5" y="-156.5" font-family="Helvetica,sans-Serif" font-size="10.00">fr.softsf.sudokufx.viewmodel.grid.</text>
<text text-anchor="middle" x="494.12" y="-144.5" font-family="Helvetica,sans-Serif" font-size="10.00">GridViewModel.isCompletelyCompleted</text>
</a>
</g>
</g>
<!-- Node1&#45;&gt;Node3 -->
<g id="edge2_Node000001_Node000003" class="edge">
<title>Node1&#45;&gt;Node3</title>
<g id="a_edge2_Node000001_Node000003"><a xlink:title=" ">
<path fill="none" stroke="#63b8ff" d="M163.93,-136.35C228.08,-139.79 318.15,-144.62 387.87,-148.36"/>
<polygon fill="#63b8ff" stroke="#63b8ff" points="387.63,-151.85 397.81,-148.89 388.01,-144.86 387.63,-151.85"/>
</a>
</g>
</g>
<!-- Node5 -->
<g id="Node000005" class="node">
<title>Node5</title>
<g id="a_Node000005"><a xlink:href="classfr_1_1softsf_1_1sudokufx_1_1viewmodel_1_1grid_1_1_grid_view_model.html#aad1610b7e07349137ebf0d3d592a5b09" target="_top" xlink:title="Persists the current grid state for the active player’s selected game.">
<polygon fill="white" stroke="#666666" points="576,-32 412.25,-32 412.25,0 576,0 576,-32"/>
<text text-anchor="start" x="420.25" y="-18.5" font-family="Helvetica,sans-Serif" font-size="10.00">fr.softsf.sudokufx.viewmodel.grid.</text>
<text text-anchor="middle" x="494.12" y="-6.5" font-family="Helvetica,sans-Serif" font-size="10.00">GridViewModel.persistGridValue</text>
</a>
</g>
</g>
<!-- Node1&#45;&gt;Node5 -->
<g id="edge4_Node000001_Node000005" class="edge">
<title>Node1&#45;&gt;Node5</title>
<g id="a_edge4_Node000001_Node000005"><a xlink:title=" ">
<path fill="none" stroke="#63b8ff" d="M119.72,-115.51C142.47,-105.75 172.44,-93.65 199.75,-85 266.06,-64 342.61,-46.21 400.89,-33.95"/>
<polygon fill="#63b8ff" stroke="#63b8ff" points="401.36,-37.43 410.44,-31.96 399.93,-30.57 401.36,-37.43"/>
</a>
</g>
</g>
<!-- Node6 -->
<g id="Node000006" class="node">
<title>Node6</title>
<g id="a_Node000006"><a xlink:href="classfr_1_1softsf_1_1sudokufx_1_1viewmodel_1_1grid_1_1_grid_view_model.html#a77d49e325684b6bef071fb2461c896cb" target="_top" xlink:title="Validates the grid by attempting to solve it.">
<polygon fill="white" stroke="#666666" points="363.5,-126 199.75,-126 199.75,-94 363.5,-94 363.5,-126"/>
<text text-anchor="start" x="207.75" y="-112.5" font-family="Helvetica,sans-Serif" font-size="10.00">fr.softsf.sudokufx.viewmodel.grid.</text>
<text text-anchor="middle" x="281.62" y="-100.5" font-family="Helvetica,sans-Serif" font-size="10.00">GridViewModel.verifyGrid</text>
</a>
</g>
</g>
<!-- Node1&#45;&gt;Node6 -->
<g id="edge6_Node000001_Node000006" class="edge">
<title>Node1&#45;&gt;Node6</title>
<g id="a_edge6_Node000001_Node000006"><a xlink:title=" ">
<path fill="none" stroke="#63b8ff" d="M164.16,-122.96C172.06,-122.08 180.1,-121.18 188.09,-120.29"/>
<polygon fill="#63b8ff" stroke="#63b8ff" points="188.28,-123.8 197.83,-119.21 187.5,-116.84 188.28,-123.8"/>
</a>
</g>
</g>
<!-- Node4 -->
<g id="Node000004" class="node">
<title>Node4</title>
<g id="a_Node000004"><a xlink:href="classfr_1_1softsf_1_1sudokufx_1_1viewmodel_1_1grid_1_1_grid_view_model.html#a14e2c0c3e0e51a0fee38c181b39fa6e2" target="_top" xlink:title="Gets a list of all cell text values in row&#45;major order.">
<polygon fill="white" stroke="#666666" points="788.5,-126 624.75,-126 624.75,-94 788.5,-94 788.5,-126"/>
<text text-anchor="start" x="632.75" y="-112.5" font-family="Helvetica,sans-Serif" font-size="10.00">fr.softsf.sudokufx.viewmodel.grid.</text>
<text text-anchor="middle" x="706.62" y="-100.5" font-family="Helvetica,sans-Serif" font-size="10.00">GridViewModel.getAllValues</text>
</a>
</g>
</g>
<!-- Node3&#45;&gt;Node4 -->
<g id="edge3_Node000003_Node000004" class="edge">
<title>Node3&#45;&gt;Node4</title>
<g id="a_edge3_Node000003_Node000004"><a xlink:title=" ">
<path fill="none" stroke="#63b8ff" d="M573.81,-137.55C587.44,-134.7 601.72,-131.72 615.63,-128.81"/>
<polygon fill="#63b8ff" stroke="#63b8ff" points="616.13,-132.28 625.21,-126.81 614.7,-125.43 616.13,-132.28"/>
</a>
</g>
</g>
<!-- Node5&#45;&gt;Node4 -->
<g id="edge5_Node000005_Node000004" class="edge">
<title>Node5&#45;&gt;Node4</title>
<g id="a_edge5_Node000005_Node000004"><a xlink:title=" ">
<path fill="none" stroke="#63b8ff" d="M564.86,-32.35C573.03,-34.93 581.15,-37.81 588.75,-41 618.66,-53.54 650.19,-72.54 672.95,-87.43"/>
<polygon fill="#63b8ff" stroke="#63b8ff" points="670.92,-90.28 681.19,-92.9 674.79,-84.45 670.92,-90.28"/>
</a>
</g>
</g>
<!-- Node6&#45;&gt;Node3 -->
<g id="edge9_Node000006_Node000003" class="edge">
<title>Node6&#45;&gt;Node3</title>
<g id="a_edge9_Node000006_Node000003"><a xlink:title=" ">
<path fill="none" stroke="#63b8ff" d="M361.31,-126.45C374.94,-129.3 389.22,-132.28 403.13,-135.19"/>
<polygon fill="#63b8ff" stroke="#63b8ff" points="402.2,-138.57 412.71,-137.19 403.63,-131.72 402.2,-138.57"/>
</a>
</g>
</g>
<!-- Node6&#45;&gt;Node4 -->
<g id="edge8_Node000006_Node000004" class="edge">
<title>Node6&#45;&gt;Node4</title>
<g id="a_edge8_Node000006_Node000004"><a xlink:title=" ">
<path fill="none" stroke="#63b8ff" d="M363.68,-110C434.99,-110 538.75,-110 613.25,-110"/>
<polygon fill="#63b8ff" stroke="#63b8ff" points="612.97,-113.5 622.97,-110 612.97,-106.5 612.97,-113.5"/>
</a>
</g>
</g>
<!-- Node7 -->
<g id="Node000007" class="node">
<title>Node7</title>
<g id="a_Node000007"><a xlink:href="classfr_1_1softsf_1_1sudokufx_1_1viewmodel_1_1grid_1_1_grid_view_model.html#a4fdf2930215eea12812190e33e1ddeca" target="_top" xlink:title="Handles all actions when a grid is successfully completed.">
<polygon fill="white" stroke="#666666" points="576,-82 412.25,-82 412.25,-50 576,-50 576,-82"/>
<text text-anchor="start" x="420.25" y="-68.5" font-family="Helvetica,sans-Serif" font-size="10.00">fr.softsf.sudokufx.viewmodel.grid.</text>
<text text-anchor="middle" x="494.12" y="-56.5" font-family="Helvetica,sans-Serif" font-size="10.00">GridViewModel.celebrateVictory</text>
</a>
</g>
</g>
<!-- Node6&#45;&gt;Node7 -->
<g id="edge7_Node000006_Node000007" class="edge">
<title>Node6&#45;&gt;Node7</title>
<g id="a_edge7_Node000006_Node000007"><a xlink:title=" ">
<path fill="none" stroke="#63b8ff" d="M361.31,-93.55C374.94,-90.7 389.22,-87.72 403.13,-84.81"/>
<polygon fill="#63b8ff" stroke="#63b8ff" points="403.63,-88.28 412.71,-82.81 402.2,-81.43 403.63,-88.28"/>
</a>
</g>
</g>
</g>
</svg>
