<?xml version="1.0" encoding="UTF-8" standalone="no"?>
<!DOCTYPE svg PUBLIC "-//W3C//DTD SVG 1.1//EN"
 "http://www.w3.org/Graphics/SVG/1.1/DTD/svg11.dtd">
<!-- Generated by graphviz version 12.2.1 (20241206.2353)
 -->
<!-- Title: fr.softsf.sudokufx.config.database.ApplicationKeystore.writeTheKeystore Pages: 1 -->
<svg width="420pt" height="58pt"
 viewBox="0.00 0.00 419.50 58.00" xmlns="http://www.w3.org/2000/svg" xmlns:xlink="http://www.w3.org/1999/xlink">
<g id="graph0" class="graph" transform="scale(1 1) rotate(0) translate(4 54)">
<title>fr.softsf.sudokufx.config.database.ApplicationKeystore.writeTheKeystore</title>
<!-- Node1 -->
<g id="Node000001" class="node">
<title>Node1</title>
<g id="a_Node000001"><a xlink:title="Writes the keystore content to a file.">
<polygon fill="#999999" stroke="#666666" points="182.5,-32 0,-32 0,0 182.5,0 182.5,-32"/>
<text text-anchor="start" x="8" y="-18.5" font-family="Helvetica,sans-Serif" font-size="10.00">fr.softsf.sudokufx.config.database.</text>
<text text-anchor="middle" x="91.25" y="-6.5" font-family="Helvetica,sans-Serif" font-size="10.00">ApplicationKeystore.writeTheKeystore</text>
</a>
</g>
</g>
<!-- Node1&#45;&gt;Node1 -->
<g id="edge2_Node000001_Node000001" class="edge">
<title>Node1&#45;&gt;Node1</title>
<g id="a_edge2_Node000001_Node000001"><a xlink:title=" ">
<path fill="none" stroke="#63b8ff" d="M51.3,-32.44C43.85,-41.58 57.16,-50 91.25,-50 110.16,-50 122.67,-47.41 128.8,-43.54"/>
<polygon fill="#63b8ff" stroke="#63b8ff" points="132.19,-44.44 130.88,-33.92 125.35,-42.96 132.19,-44.44"/>
</a>
</g>
</g>
<!-- Node2 -->
<g id="Node000002" class="node">
<title>Node2</title>
<g id="a_Node000002"><a xlink:href="classfr_1_1softsf_1_1sudokufx_1_1config_1_1database_1_1_application_keystore.html#a094e3f98d8644135b26b573ee75bd834" target="_top" xlink:title=" ">
<polygon fill="white" stroke="#666666" points="411.5,-32 218.5,-32 218.5,0 411.5,0 411.5,-32"/>
<text text-anchor="start" x="226.5" y="-18.5" font-family="Helvetica,sans-Serif" font-size="10.00">fr.softsf.sudokufx.config.database.</text>
<text text-anchor="middle" x="315" y="-6.5" font-family="Helvetica,sans-Serif" font-size="10.00">ApplicationKeystore.ApplicationKeystore</text>
</a>
</g>
</g>
<!-- Node1&#45;&gt;Node2 -->
<g id="edge1_Node000001_Node000002" class="edge">
<title>Node1&#45;&gt;Node2</title>
<g id="a_edge1_Node000001_Node000002"><a xlink:title=" ">
<path fill="none" stroke="#63b8ff" d="M182.76,-16C190.66,-16 198.7,-16 206.71,-16"/>
<polygon fill="#63b8ff" stroke="#63b8ff" points="206.49,-19.5 216.49,-16 206.49,-12.5 206.49,-19.5"/>
</a>
</g>
</g>
</g>
</svg>
