<?xml version="1.0" encoding="UTF-8" standalone="no"?>
<!DOCTYPE svg PUBLIC "-//W3C//DTD SVG 1.1//EN"
 "http://www.w3.org/Graphics/SVG/1.1/DTD/svg11.dtd">
<!-- Generated by graphviz version 12.2.1 (20241206.2353)
 -->
<!-- Title: fr.softsf.sudokufx.viewmodel.grid.GridViewModel.updateSolveProgress Pages: 1 -->
<svg width="396pt" height="126pt"
 viewBox="0.00 0.00 395.50 126.00" xmlns="http://www.w3.org/2000/svg" xmlns:xlink="http://www.w3.org/1999/xlink">
<g id="graph0" class="graph" transform="scale(1 1) rotate(0) translate(4 122)">
<title>fr.softsf.sudokufx.viewmodel.grid.GridViewModel.updateSolveProgress</title>
<!-- Node1 -->
<g id="Node000001" class="node">
<title>Node1</title>
<g id="a_Node000001"><a xlink:title="Calculates the solution based on anchored cells and updates editable cells.">
<polygon fill="#999999" stroke="#666666" points="178,-66 0,-66 0,-34 178,-34 178,-66"/>
<text text-anchor="start" x="8" y="-52.5" font-family="Helvetica,sans-Serif" font-size="10.00">fr.softsf.sudokufx.viewmodel.grid.</text>
<text text-anchor="middle" x="89" y="-40.5" font-family="Helvetica,sans-Serif" font-size="10.00">GridViewModel.updateSolveProgress</text>
</a>
</g>
</g>
<!-- Node2 -->
<g id="Node000002" class="node">
<title>Node2</title>
<g id="a_Node000002"><a xlink:href="classfr_1_1softsf_1_1sudokufx_1_1viewmodel_1_1grid_1_1_grid_cell_view_model.html#a1b2f5aa3c798e4aaf3e845aa59cde94c" target="_top" xlink:title=" ">
<polygon fill="white" stroke="#666666" points="387.12,-100 214.38,-100 214.38,-68 387.12,-68 387.12,-100"/>
<text text-anchor="start" x="222.38" y="-86.5" font-family="Helvetica,sans-Serif" font-size="10.00">fr.softsf.sudokufx.viewmodel.grid.</text>
<text text-anchor="middle" x="300.75" y="-74.5" font-family="Helvetica,sans-Serif" font-size="10.00">GridCellViewModel.editableProperty</text>
</a>
</g>
</g>
<!-- Node1&#45;&gt;Node2 -->
<g id="edge1_Node000001_Node000002" class="edge">
<title>Node1&#45;&gt;Node2</title>
<g id="a_edge1_Node000001_Node000002"><a xlink:title=" ">
<path fill="none" stroke="#63b8ff" d="M178.34,-64.32C186.5,-65.64 194.8,-66.99 203.03,-68.32"/>
<polygon fill="#63b8ff" stroke="#63b8ff" points="202.26,-71.74 212.69,-69.89 203.38,-64.83 202.26,-71.74"/>
</a>
</g>
</g>
<!-- Node3 -->
<g id="Node000003" class="node">
<title>Node3</title>
<g id="a_Node000003"><a xlink:href="classfr_1_1softsf_1_1sudokufx_1_1viewmodel_1_1grid_1_1_grid_cell_view_model.html#ae04f21e5c6df7750f4e8c79d600a9b6b" target="_top" xlink:title=" ">
<polygon fill="white" stroke="#666666" points="387.5,-32 214,-32 214,0 387.5,0 387.5,-32"/>
<text text-anchor="start" x="222" y="-18.5" font-family="Helvetica,sans-Serif" font-size="10.00">fr.softsf.sudokufx.viewmodel.grid.</text>
<text text-anchor="middle" x="300.75" y="-6.5" font-family="Helvetica,sans-Serif" font-size="10.00">GridCellViewModel.rawTextProperty</text>
</a>
</g>
</g>
<!-- Node1&#45;&gt;Node3 -->
<g id="edge3_Node000001_Node000003" class="edge">
<title>Node1&#45;&gt;Node3</title>
<g id="a_edge3_Node000001_Node000003"><a xlink:title=" ">
<path fill="none" stroke="#63b8ff" d="M178.34,-35.68C186.26,-34.4 194.3,-33.09 202.29,-31.8"/>
<polygon fill="#63b8ff" stroke="#63b8ff" points="202.71,-35.28 212.03,-30.22 201.59,-28.37 202.71,-35.28"/>
</a>
</g>
</g>
<!-- Node2&#45;&gt;Node2 -->
<g id="edge2_Node000002_Node000002" class="edge">
<title>Node2&#45;&gt;Node2</title>
<g id="a_edge2_Node000002_Node000002"><a xlink:title=" ">
<path fill="none" stroke="#63b8ff" d="M262.95,-100.44C255.89,-109.58 268.49,-118 300.75,-118 318.64,-118 330.49,-115.41 336.29,-111.54"/>
<polygon fill="#63b8ff" stroke="#63b8ff" points="339.68,-112.42 338.25,-101.93 332.82,-111.02 339.68,-112.42"/>
</a>
</g>
</g>
<!-- Node3&#45;&gt;Node3 -->
<g id="edge4_Node000003_Node000003" class="edge">
<title>Node3&#45;&gt;Node3</title>
<g id="a_edge4_Node000003_Node000003"><a xlink:title=" ">
<path fill="none" stroke="#63b8ff" d="M262.95,-32.44C255.89,-41.58 268.49,-50 300.75,-50 318.64,-50 330.49,-47.41 336.29,-43.54"/>
<polygon fill="#63b8ff" stroke="#63b8ff" points="339.68,-44.42 338.25,-33.93 332.82,-43.02 339.68,-44.42"/>
</a>
</g>
</g>
</g>
</svg>
