<?xml version="1.0" encoding="UTF-8" standalone="no"?>
<!DOCTYPE svg PUBLIC "-//W3C//DTD SVG 1.1//EN"
 "http://www.w3.org/Graphics/SVG/1.1/DTD/svg11.dtd">
<!-- Generated by graphviz version 12.2.1 (20241206.2353)
 -->
<!-- Title: fr.softsf.sudokufx.service.business.PlayerService.switchAndSelectNewPlayer Pages: 1 -->
<svg width="746pt" height="90pt"
 viewBox="0.00 0.00 746.25 90.00" xmlns="http://www.w3.org/2000/svg" xmlns:xlink="http://www.w3.org/1999/xlink">
<g id="page0,1_graph0" class="graph" transform="scale(1 1) rotate(0) translate(4 86)">
<title>fr.softsf.sudokufx.service.business.PlayerService.switchAndSelectNewPlayer</title>
<!-- Node1 -->
<g id="Node000001" class="node">
<title>Node1</title>
<g id="a_Node000001"><a xlink:title="Atomically switches the selected player status.">
<polygon fill="#999999" stroke="#666666" points="201.25,-57 0,-57 0,-25 201.25,-25 201.25,-57"/>
<text text-anchor="start" x="8" y="-43.5" font-family="Helvetica,sans-Serif" font-size="10.00">fr.softsf.sudokufx.service.business.</text>
<text text-anchor="middle" x="100.62" y="-31.5" font-family="Helvetica,sans-Serif" font-size="10.00">PlayerService.switchAndSelectNewPlayer</text>
</a>
</g>
</g>
<!-- Node2 -->
<g id="Node000002" class="node">
<title>Node2</title>
<g id="a_Node000002"><a xlink:href="classfr_1_1softsf_1_1sudokufx_1_1service_1_1business_1_1_player_service.html#aba49426ee6f1106aeb7cac16ebd06e91" target="_top" xlink:title="Internal utility to update player selection state and persist changes.">
<polygon fill="white" stroke="#666666" points="414.5,-57 237.25,-57 237.25,-25 414.5,-25 414.5,-57"/>
<text text-anchor="start" x="245.25" y="-43.5" font-family="Helvetica,sans-Serif" font-size="10.00">fr.softsf.sudokufx.service.business.</text>
<text text-anchor="middle" x="325.88" y="-31.5" font-family="Helvetica,sans-Serif" font-size="10.00">PlayerService.updatePlayerSelection</text>
</a>
</g>
</g>
<!-- Node1&#45;&gt;Node2 -->
<g id="edge1_Node000001_Node000002" class="edge">
<title>Node1&#45;&gt;Node2</title>
<g id="a_edge1_Node000001_Node000002"><a xlink:title=" ">
<path fill="none" stroke="#63b8ff" d="M201.5,-41C209.55,-41 217.68,-41 225.72,-41"/>
<polygon fill="#63b8ff" stroke="#63b8ff" points="225.5,-44.5 235.5,-41 225.5,-37.5 225.5,-44.5"/>
</a>
</g>
</g>
<!-- Node3 -->
<g id="Node000003" class="node">
<title>Node3</title>
<g id="a_Node000003"><a xlink:href="classfr_1_1softsf_1_1sudokufx_1_1model_1_1_player.html#ade99f107878b74490ae3d014ff294f60" target="_top" xlink:title="Sets the selection flag.">
<polygon fill="white" stroke="#666666" points="575.25,-82 450.5,-82 450.5,-50 575.25,-50 575.25,-82"/>
<text text-anchor="start" x="458.5" y="-68.5" font-family="Helvetica,sans-Serif" font-size="10.00">fr.softsf.sudokufx.model.</text>
<text text-anchor="middle" x="512.88" y="-56.5" font-family="Helvetica,sans-Serif" font-size="10.00">Player.setSelected</text>
</a>
</g>
</g>
<!-- Node2&#45;&gt;Node3 -->
<g id="edge2_Node000002_Node000003" class="edge">
<title>Node2&#45;&gt;Node3</title>
<g id="a_edge2_Node000002_Node000003"><a xlink:title=" ">
<path fill="none" stroke="#63b8ff" d="M414.77,-52.88C422.79,-53.96 430.85,-55.05 438.72,-56.11"/>
<polygon fill="#63b8ff" stroke="#63b8ff" points="438.2,-59.58 448.58,-57.45 439.14,-52.64 438.2,-59.58"/>
</a>
</g>
</g>
<!-- Node4 -->
<g id="Node000004" class="node">
<title>Node4</title>
<g id="a_Node000004"><a xlink:href="classfr_1_1softsf_1_1sudokufx_1_1model_1_1_player.html#a33aa6abba56c524b516fe11cde122739" target="_top" xlink:title="Sets the update timestamp after validation.">
<polygon fill="white" stroke="#666666" points="575.25,-32 450.5,-32 450.5,0 575.25,0 575.25,-32"/>
<text text-anchor="start" x="458.5" y="-18.5" font-family="Helvetica,sans-Serif" font-size="10.00">fr.softsf.sudokufx.model.</text>
<text text-anchor="middle" x="512.88" y="-6.5" font-family="Helvetica,sans-Serif" font-size="10.00">Player.setUpdatedat</text>
</a>
</g>
</g>
<!-- Node2&#45;&gt;Node4 -->
<g id="edge3_Node000002_Node000004" class="edge">
<title>Node2&#45;&gt;Node4</title>
<g id="a_edge3_Node000002_Node000004"><a xlink:title=" ">
<path fill="none" stroke="#63b8ff" d="M414.77,-29.12C422.79,-28.04 430.85,-26.95 438.72,-25.89"/>
<polygon fill="#63b8ff" stroke="#63b8ff" points="439.14,-29.36 448.58,-24.55 438.2,-22.42 439.14,-29.36"/>
</a>
</g>
</g>
<!-- Node5 -->
<g id="Node000005" class="node">
<title>Node5</title>
<g id="a_Node000005"><a xlink:href="classfr_1_1softsf_1_1sudokufx_1_1model_1_1_player.html#aeb37d6a41a17c7c3762f30a68b29ca54" target="_top" xlink:title="Validates that the update date is not null.">
<polygon fill="white" stroke="#666666" points="738.25,-32 611.25,-32 611.25,0 738.25,0 738.25,-32"/>
<text text-anchor="start" x="619.25" y="-18.5" font-family="Helvetica,sans-Serif" font-size="10.00">fr.softsf.sudokufx.model.</text>
<text text-anchor="middle" x="674.75" y="-6.5" font-family="Helvetica,sans-Serif" font-size="10.00">Player.validateUpdatedAt</text>
</a>
</g>
</g>
<!-- Node4&#45;&gt;Node5 -->
<g id="edge4_Node000004_Node000005" class="edge">
<title>Node4&#45;&gt;Node5</title>
<g id="a_edge4_Node000004_Node000005"><a xlink:title=" ">
<path fill="none" stroke="#63b8ff" d="M575.69,-16C583.42,-16 591.39,-16 599.29,-16"/>
<polygon fill="#63b8ff" stroke="#63b8ff" points="599.27,-19.5 609.27,-16 599.27,-12.5 599.27,-19.5"/>
</a>
</g>
</g>
</g>
</svg>
