<?xml version="1.0" encoding="UTF-8" standalone="no"?>
<!DOCTYPE svg PUBLIC "-//W3C//DTD SVG 1.1//EN"
 "http://www.w3.org/Graphics/SVG/1.1/DTD/svg11.dtd">
<!-- Generated by graphviz version 12.2.1 (20241206.2353)
 -->
<!-- Title: fr.softsf.sudokufx.viewmodel.grid.GridViewModel.init Pages: 1 -->
<svg width="597pt" height="140pt"
 viewBox="0.00 0.00 596.75 140.00" xmlns="http://www.w3.org/2000/svg" xmlns:xlink="http://www.w3.org/1999/xlink">
<g id="graph0" class="graph" transform="scale(1 1) rotate(0) translate(4 136)">
<title>fr.softsf.sudokufx.viewmodel.grid.GridViewModel.init</title>
<!-- Node1 -->
<g id="Node000001" class="node">
<title>Node1</title>
<g id="a_Node000001"><a xlink:title="Initializes the 9x9 Sudoku grid by creating 81 GridCellViewModel instances, each with a unique ID and...">
<polygon fill="#999999" stroke="#666666" points="163.75,-82 0,-82 0,-50 163.75,-50 163.75,-82"/>
<text text-anchor="start" x="8" y="-68.5" font-family="Helvetica,sans-Serif" font-size="10.00">fr.softsf.sudokufx.viewmodel.grid.</text>
<text text-anchor="middle" x="81.88" y="-56.5" font-family="Helvetica,sans-Serif" font-size="10.00">GridViewModel.init</text>
</a>
</g>
</g>
<!-- Node2 -->
<g id="Node000002" class="node">
<title>Node2</title>
<g id="a_Node000002"><a xlink:href="classfr_1_1softsf_1_1sudokufx_1_1viewmodel_1_1grid_1_1_grid_cell_view_model.html#a25813c6885f49b2be4c3dafa6e9878c8" target="_top" xlink:title=" ">
<polygon fill="white" stroke="#666666" points="376.25,-132 212.5,-132 212.5,-100 376.25,-100 376.25,-132"/>
<text text-anchor="start" x="220.5" y="-118.5" font-family="Helvetica,sans-Serif" font-size="10.00">fr.softsf.sudokufx.viewmodel.grid.</text>
<text text-anchor="middle" x="294.38" y="-106.5" font-family="Helvetica,sans-Serif" font-size="10.00">GridCellViewModel.getTextArea</text>
</a>
</g>
</g>
<!-- Node1&#45;&gt;Node2 -->
<g id="edge1_Node000001_Node000002" class="edge">
<title>Node1&#45;&gt;Node2</title>
<g id="a_edge1_Node000001_Node000002"><a xlink:title=" ">
<path fill="none" stroke="#63b8ff" d="M152.09,-82.44C171.61,-87.08 193,-92.16 213.1,-96.93"/>
<polygon fill="#63b8ff" stroke="#63b8ff" points="212.11,-100.29 222.64,-99.2 213.72,-93.48 212.11,-100.29"/>
</a>
</g>
</g>
<!-- Node3 -->
<g id="Node000003" class="node">
<title>Node3</title>
<g id="a_Node000003"><a xlink:href="classfr_1_1softsf_1_1sudokufx_1_1viewmodel_1_1grid_1_1_grid_view_model.html#ad536719f789ab2bb851aa4b26d44c075" target="_top" xlink:title="Checks if all 81 cells contain valid single&#45;digit values (1&#45;9).">
<polygon fill="white" stroke="#666666" points="389,-82 199.75,-82 199.75,-50 389,-50 389,-82"/>
<text text-anchor="start" x="207.75" y="-68.5" font-family="Helvetica,sans-Serif" font-size="10.00">fr.softsf.sudokufx.viewmodel.grid.</text>
<text text-anchor="middle" x="294.38" y="-56.5" font-family="Helvetica,sans-Serif" font-size="10.00">GridViewModel.isCompletelyCompleted</text>
</a>
</g>
</g>
<!-- Node1&#45;&gt;Node3 -->
<g id="edge2_Node000001_Node000003" class="edge">
<title>Node1&#45;&gt;Node3</title>
<g id="a_edge2_Node000001_Node000003"><a xlink:title=" ">
<path fill="none" stroke="#63b8ff" d="M163.96,-66C171.83,-66 179.89,-66 187.96,-66"/>
<polygon fill="#63b8ff" stroke="#63b8ff" points="187.83,-69.5 197.83,-66 187.83,-62.5 187.83,-69.5"/>
</a>
</g>
</g>
<!-- Node5 -->
<g id="Node000005" class="node">
<title>Node5</title>
<g id="a_Node000005"><a xlink:href="classfr_1_1softsf_1_1sudokufx_1_1viewmodel_1_1grid_1_1_grid_view_model.html#a77d49e325684b6bef071fb2461c896cb" target="_top" xlink:title="Verifies the current grid state by attempting to solve it.">
<polygon fill="white" stroke="#666666" points="376.25,-32 212.5,-32 212.5,0 376.25,0 376.25,-32"/>
<text text-anchor="start" x="220.5" y="-18.5" font-family="Helvetica,sans-Serif" font-size="10.00">fr.softsf.sudokufx.viewmodel.grid.</text>
<text text-anchor="middle" x="294.38" y="-6.5" font-family="Helvetica,sans-Serif" font-size="10.00">GridViewModel.verifyGrid</text>
</a>
</g>
</g>
<!-- Node1&#45;&gt;Node5 -->
<g id="edge4_Node000001_Node000005" class="edge">
<title>Node1&#45;&gt;Node5</title>
<g id="a_edge4_Node000001_Node000005"><a xlink:title=" ">
<path fill="none" stroke="#63b8ff" d="M152.09,-49.56C171.61,-44.92 193,-39.84 213.1,-35.07"/>
<polygon fill="#63b8ff" stroke="#63b8ff" points="213.72,-38.52 222.64,-32.8 212.11,-31.71 213.72,-38.52"/>
</a>
</g>
</g>
<!-- Node4 -->
<g id="Node000004" class="node">
<title>Node4</title>
<g id="a_Node000004"><a xlink:href="classfr_1_1softsf_1_1sudokufx_1_1viewmodel_1_1grid_1_1_grid_view_model.html#a14e2c0c3e0e51a0fee38c181b39fa6e2" target="_top" xlink:title="Gets a list of all cell text values in row&#45;major order.">
<polygon fill="white" stroke="#666666" points="588.75,-57 425,-57 425,-25 588.75,-25 588.75,-57"/>
<text text-anchor="start" x="433" y="-43.5" font-family="Helvetica,sans-Serif" font-size="10.00">fr.softsf.sudokufx.viewmodel.grid.</text>
<text text-anchor="middle" x="506.88" y="-31.5" font-family="Helvetica,sans-Serif" font-size="10.00">GridViewModel.getAllValues</text>
</a>
</g>
</g>
<!-- Node3&#45;&gt;Node4 -->
<g id="edge3_Node000003_Node000004" class="edge">
<title>Node3&#45;&gt;Node4</title>
<g id="a_edge3_Node000003_Node000004"><a xlink:title=" ">
<path fill="none" stroke="#63b8ff" d="M389.24,-54.85C397.28,-53.9 405.42,-52.93 413.46,-51.98"/>
<polygon fill="#63b8ff" stroke="#63b8ff" points="413.71,-55.47 423.23,-50.82 412.89,-48.52 413.71,-55.47"/>
</a>
</g>
</g>
<!-- Node5&#45;&gt;Node4 -->
<g id="edge5_Node000005_Node000004" class="edge">
<title>Node5&#45;&gt;Node4</title>
<g id="a_edge5_Node000005_Node000004"><a xlink:title=" ">
<path fill="none" stroke="#63b8ff" d="M376.46,-25.63C388.61,-27.07 401.21,-28.57 413.57,-30.04"/>
<polygon fill="#63b8ff" stroke="#63b8ff" points="412.99,-33.49 423.33,-31.2 413.81,-26.54 412.99,-33.49"/>
</a>
</g>
</g>
</g>
</svg>
