<?xml version="1.0" encoding="UTF-8" standalone="no"?>
<!DOCTYPE svg PUBLIC "-//W3C//DTD SVG 1.1//EN"
 "http://www.w3.org/Graphics/SVG/1.1/DTD/svg11.dtd">
<!-- Generated by graphviz version 12.2.1 (20241206.2353)
 -->
<!-- Title: fr.softsf.sudokufx.viewmodel.grid.GridViewModel.applyGeneratedGrid Pages: 1 -->
<svg width="615pt" height="259pt"
 viewBox="0.00 0.00 614.75 259.00" xmlns="http://www.w3.org/2000/svg" xmlns:xlink="http://www.w3.org/1999/xlink">
<g id="graph0" class="graph" transform="scale(1 1) rotate(0) translate(4 255)">
<title>fr.softsf.sudokufx.viewmodel.grid.GridViewModel.applyGeneratedGrid</title>
<!-- Node1 -->
<g id="Node000001" class="node">
<title>Node1</title>
<g id="a_Node000001"><a xlink:title="Applies the generated grid data to the player state and UI cells.">
<polygon fill="#999999" stroke="#666666" points="171.25,-201 0,-201 0,-169 171.25,-169 171.25,-201"/>
<text text-anchor="start" x="8" y="-187.5" font-family="Helvetica,sans-Serif" font-size="10.00">fr.softsf.sudokufx.viewmodel.grid.</text>
<text text-anchor="middle" x="85.62" y="-175.5" font-family="Helvetica,sans-Serif" font-size="10.00">GridViewModel.applyGeneratedGrid</text>
</a>
</g>
</g>
<!-- Node2 -->
<g id="Node000002" class="node">
<title>Node2</title>
<g id="a_Node000002"><a xlink:href="classfr_1_1softsf_1_1sudokufx_1_1viewmodel_1_1grid_1_1_grid_view_model.html#a9b97547be6bd1bf9961ff859ae23afd7" target="_top" xlink:title="Handles UI notifications when grid generation fails.">
<polygon fill="white" stroke="#666666" points="397.25,-251 207.25,-251 207.25,-219 397.25,-219 397.25,-251"/>
<text text-anchor="start" x="215.25" y="-237.5" font-family="Helvetica,sans-Serif" font-size="10.00">fr.softsf.sudokufx.viewmodel.grid.</text>
<text text-anchor="middle" x="302.25" y="-225.5" font-family="Helvetica,sans-Serif" font-size="10.00">GridViewModel.handleGenerationFailure</text>
</a>
</g>
</g>
<!-- Node1&#45;&gt;Node2 -->
<g id="edge1_Node000001_Node000002" class="edge">
<title>Node1&#45;&gt;Node2</title>
<g id="a_edge1_Node000001_Node000002"><a xlink:title=" ">
<path fill="none" stroke="#63b8ff" d="M157.2,-201.44C177.19,-206.1 199.11,-211.2 219.69,-216"/>
<polygon fill="#63b8ff" stroke="#63b8ff" points="218.63,-219.35 229.16,-218.21 220.21,-212.53 218.63,-219.35"/>
</a>
</g>
</g>
<!-- Node3 -->
<g id="Node000003" class="node">
<title>Node3</title>
<g id="a_Node000003"><a xlink:href="classfr_1_1softsf_1_1sudokufx_1_1viewmodel_1_1grid_1_1_grid_view_model.html#a85b73068471edb726968c94d30bc79a6" target="_top" xlink:title="Persists a newly generated game for the current player, updating the selected game with grids,...">
<polygon fill="white" stroke="#666666" points="384.12,-201 220.38,-201 220.38,-169 384.12,-169 384.12,-201"/>
<text text-anchor="start" x="228.38" y="-187.5" font-family="Helvetica,sans-Serif" font-size="10.00">fr.softsf.sudokufx.viewmodel.grid.</text>
<text text-anchor="middle" x="302.25" y="-175.5" font-family="Helvetica,sans-Serif" font-size="10.00">GridViewModel.persistNewGame</text>
</a>
</g>
</g>
<!-- Node1&#45;&gt;Node3 -->
<g id="edge2_Node000001_Node000003" class="edge">
<title>Node1&#45;&gt;Node3</title>
<g id="a_edge2_Node000001_Node000003"><a xlink:title=" ">
<path fill="none" stroke="#63b8ff" d="M171.45,-185C183.74,-185 196.44,-185 208.87,-185"/>
<polygon fill="#63b8ff" stroke="#63b8ff" points="208.68,-188.5 218.68,-185 208.68,-181.5 208.68,-188.5"/>
</a>
</g>
</g>
<!-- Node5 -->
<g id="Node000005" class="node">
<title>Node5</title>
<g id="a_Node000005"><a xlink:href="classfr_1_1softsf_1_1sudokufx_1_1viewmodel_1_1grid_1_1_grid_view_model.html#ab7607876adb740f7f1d55b5016faba0c" target="_top" xlink:title="Sets all 81 cell values and optionally their editability.">
<polygon fill="white" stroke="#666666" points="384.12,-134 220.38,-134 220.38,-102 384.12,-102 384.12,-134"/>
<text text-anchor="start" x="228.38" y="-120.5" font-family="Helvetica,sans-Serif" font-size="10.00">fr.softsf.sudokufx.viewmodel.grid.</text>
<text text-anchor="middle" x="302.25" y="-108.5" font-family="Helvetica,sans-Serif" font-size="10.00">GridViewModel.setValues</text>
</a>
</g>
</g>
<!-- Node1&#45;&gt;Node5 -->
<g id="edge4_Node000001_Node000005" class="edge">
<title>Node1&#45;&gt;Node5</title>
<g id="a_edge4_Node000001_Node000005"><a xlink:title=" ">
<path fill="none" stroke="#63b8ff" d="M139.4,-168.52C169.16,-159.24 206.53,-147.57 237.87,-137.79"/>
<polygon fill="#63b8ff" stroke="#63b8ff" points="238.73,-141.18 247.23,-134.86 236.64,-134.5 238.73,-141.18"/>
</a>
</g>
</g>
<!-- Node4 -->
<g id="Node000004" class="node">
<title>Node4</title>
<g id="a_Node000004"><a xlink:href="enumfr_1_1softsf_1_1sudokufx_1_1common_1_1enums_1_1_difficulty_level.html#ab1bebf1bd508380d7ace78f40778e05c" target="_top" xlink:title="Converts this difficulty level to its numeric representation.">
<polygon fill="white" stroke="#666666" points="604.12,-218 435.88,-218 435.88,-186 604.12,-186 604.12,-218"/>
<text text-anchor="start" x="443.88" y="-204.5" font-family="Helvetica,sans-Serif" font-size="10.00">fr.softsf.sudokufx.common.enums.</text>
<text text-anchor="middle" x="520" y="-192.5" font-family="Helvetica,sans-Serif" font-size="10.00">DifficultyLevel.toGridNumber</text>
</a>
</g>
</g>
<!-- Node3&#45;&gt;Node4 -->
<g id="edge3_Node000003_Node000004" class="edge">
<title>Node3&#45;&gt;Node4</title>
<g id="a_edge3_Node000003_Node000004"><a xlink:title=" ">
<path fill="none" stroke="#63b8ff" d="M384.51,-191.4C397.57,-192.43 411.19,-193.51 424.54,-194.56"/>
<polygon fill="#63b8ff" stroke="#63b8ff" points="423.91,-198.02 434.15,-195.31 424.46,-191.04 423.91,-198.02"/>
</a>
</g>
</g>
<!-- Node6 -->
<g id="Node000006" class="node">
<title>Node6</title>
<g id="a_Node000006"><a xlink:href="classfr_1_1softsf_1_1sudokufx_1_1viewmodel_1_1grid_1_1_grid_view_model.html#ace36956cb99bad46d1144460d8cde157" target="_top" xlink:title="Checks whether the GridViewModel has been initialized via init().">
<polygon fill="white" stroke="#666666" points="601.88,-168 438.12,-168 438.12,-136 601.88,-136 601.88,-168"/>
<text text-anchor="start" x="446.12" y="-154.5" font-family="Helvetica,sans-Serif" font-size="10.00">fr.softsf.sudokufx.viewmodel.grid.</text>
<text text-anchor="middle" x="520" y="-142.5" font-family="Helvetica,sans-Serif" font-size="10.00">GridViewModel.checkInitialized</text>
</a>
</g>
</g>
<!-- Node5&#45;&gt;Node6 -->
<g id="edge5_Node000005_Node000006" class="edge">
<title>Node5&#45;&gt;Node6</title>
<g id="a_edge5_Node000005_Node000006"><a xlink:title=" ">
<path fill="none" stroke="#63b8ff" d="M384.51,-130.81C398.27,-132.97 412.65,-135.24 426.67,-137.45"/>
<polygon fill="#63b8ff" stroke="#63b8ff" points="425.9,-140.87 436.32,-138.97 426.99,-133.96 425.9,-140.87"/>
</a>
</g>
</g>
<!-- Node7 -->
<g id="Node000007" class="node">
<title>Node7</title>
<g id="a_Node000007"><a xlink:href="classfr_1_1softsf_1_1sudokufx_1_1viewmodel_1_1grid_1_1_grid_cell_view_model.html#a1b2f5aa3c798e4aaf3e845aa59cde94c" target="_top" xlink:title=" ">
<polygon fill="white" stroke="#666666" points="606.38,-100 433.62,-100 433.62,-68 606.38,-68 606.38,-100"/>
<text text-anchor="start" x="441.62" y="-86.5" font-family="Helvetica,sans-Serif" font-size="10.00">fr.softsf.sudokufx.viewmodel.grid.</text>
<text text-anchor="middle" x="520" y="-74.5" font-family="Helvetica,sans-Serif" font-size="10.00">GridCellViewModel.editableProperty</text>
</a>
</g>
</g>
<!-- Node5&#45;&gt;Node7 -->
<g id="edge6_Node000005_Node000007" class="edge">
<title>Node5&#45;&gt;Node7</title>
<g id="a_edge6_Node000005_Node000007"><a xlink:title=" ">
<path fill="none" stroke="#63b8ff" d="M384.51,-105.19C396.67,-103.28 409.32,-101.28 421.77,-99.32"/>
<polygon fill="#63b8ff" stroke="#63b8ff" points="422.31,-102.78 431.64,-97.77 421.22,-95.87 422.31,-102.78"/>
</a>
</g>
</g>
<!-- Node8 -->
<g id="Node000008" class="node">
<title>Node8</title>
<g id="a_Node000008"><a xlink:href="classfr_1_1softsf_1_1sudokufx_1_1viewmodel_1_1grid_1_1_grid_cell_view_model.html#ae04f21e5c6df7750f4e8c79d600a9b6b" target="_top" xlink:title=" ">
<polygon fill="white" stroke="#666666" points="606.75,-32 433.25,-32 433.25,0 606.75,0 606.75,-32"/>
<text text-anchor="start" x="441.25" y="-18.5" font-family="Helvetica,sans-Serif" font-size="10.00">fr.softsf.sudokufx.viewmodel.grid.</text>
<text text-anchor="middle" x="520" y="-6.5" font-family="Helvetica,sans-Serif" font-size="10.00">GridCellViewModel.rawTextProperty</text>
</a>
</g>
</g>
<!-- Node5&#45;&gt;Node8 -->
<g id="edge8_Node000005_Node000008" class="edge">
<title>Node5&#45;&gt;Node8</title>
<g id="a_edge8_Node000005_Node000008"><a xlink:title=" ">
<path fill="none" stroke="#63b8ff" d="M337.91,-101.61C374.87,-84.14 433.54,-56.4 474.03,-37.26"/>
<polygon fill="#63b8ff" stroke="#63b8ff" points="475.51,-40.43 483.05,-32.99 472.52,-34.1 475.51,-40.43"/>
</a>
</g>
</g>
<!-- Node7&#45;&gt;Node7 -->
<g id="edge7_Node000007_Node000007" class="edge">
<title>Node7&#45;&gt;Node7</title>
<g id="a_edge7_Node000007_Node000007"><a xlink:title=" ">
<path fill="none" stroke="#63b8ff" d="M481.13,-100.44C473.87,-109.58 486.83,-118 520,-118 538.4,-118 550.58,-115.41 556.54,-111.54"/>
<polygon fill="#63b8ff" stroke="#63b8ff" points="559.93,-112.43 558.56,-101.92 553.08,-110.99 559.93,-112.43"/>
</a>
</g>
</g>
<!-- Node8&#45;&gt;Node8 -->
<g id="edge9_Node000008_Node000008" class="edge">
<title>Node8&#45;&gt;Node8</title>
<g id="a_edge9_Node000008_Node000008"><a xlink:title=" ">
<path fill="none" stroke="#63b8ff" d="M481.13,-32.44C473.87,-41.58 486.83,-50 520,-50 538.4,-50 550.58,-47.41 556.54,-43.54"/>
<polygon fill="#63b8ff" stroke="#63b8ff" points="559.93,-44.43 558.56,-33.92 553.08,-42.99 559.93,-44.43"/>
</a>
</g>
</g>
</g>
</svg>
