<?xml version="1.0" encoding="UTF-8" standalone="no"?>
<!DOCTYPE svg PUBLIC "-//W3C//DTD SVG 1.1//EN"
 "http://www.w3.org/Graphics/SVG/1.1/DTD/svg11.dtd">
<!-- Generated by graphviz version 12.2.1 (20241206.2353)
 -->
<!-- Title: fr.softsf.sudokufx.common.util.sudoku.GridMaster.resoudreLaGrille Pages: 1 -->
<svg width="941pt" height="338pt"
 viewBox="0.00 0.00 941.25 338.00" xmlns="http://www.w3.org/2000/svg" xmlns:xlink="http://www.w3.org/1999/xlink">
<g id="graph0" class="graph" transform="scale(1 1) rotate(0) translate(4 334)">
<title>fr.softsf.sudokufx.common.util.sudoku.GridMaster.resoudreLaGrille</title>
<!-- Node1 -->
<g id="Node000001" class="node">
<title>Node1</title>
<g id="a_Node000001"><a xlink:title="Tente de résoudre la grille de Sudoku fournie en utilisant un algorithme de backtracking optimisé (pr...">
<polygon fill="#999999" stroke="#666666" points="186.25,-178 0,-178 0,-146 186.25,-146 186.25,-178"/>
<text text-anchor="start" x="8" y="-164.5" font-family="Helvetica,sans-Serif" font-size="10.00">fr.softsf.sudokufx.common.util.sudoku.</text>
<text text-anchor="middle" x="93.12" y="-152.5" font-family="Helvetica,sans-Serif" font-size="10.00">GridMaster.resoudreLaGrille</text>
</a>
</g>
</g>
<!-- Node2 -->
<g id="Node000002" class="node">
<title>Node2</title>
<g id="a_Node000002"><a xlink:href="classfr_1_1softsf_1_1sudokufx_1_1common_1_1util_1_1sudoku_1_1_grid_master.html#aeed90a968624e9b7ccb44958df9ae821" target="_top" xlink:title="Calcule les possibilités pour chaque case de la grille de Sudoku.">
<polygon fill="white" stroke="#666666" points="422,-330 235.75,-330 235.75,-298 422,-298 422,-330"/>
<text text-anchor="start" x="243.75" y="-316.5" font-family="Helvetica,sans-Serif" font-size="10.00">fr.softsf.sudokufx.common.util.sudoku.</text>
<text text-anchor="middle" x="328.88" y="-304.5" font-family="Helvetica,sans-Serif" font-size="10.00">GridMaster.getPossibilites</text>
</a>
</g>
</g>
<!-- Node1&#45;&gt;Node2 -->
<g id="edge1_Node000001_Node000002" class="edge">
<title>Node1&#45;&gt;Node2</title>
<g id="a_edge1_Node000001_Node000002"><a xlink:title=" ">
<path fill="none" stroke="#63b8ff" d="M105.55,-178.07C125.8,-205.33 170.77,-260.43 222.25,-289 224.9,-290.47 227.63,-291.86 230.43,-293.16"/>
<polygon fill="#63b8ff" stroke="#63b8ff" points="228.83,-296.28 239.4,-296.95 231.55,-289.83 228.83,-296.28"/>
</a>
</g>
</g>
<!-- Node5 -->
<g id="Node000005" class="node">
<title>Node5</title>
<g id="a_Node000005"><a xlink:href="classfr_1_1softsf_1_1sudokufx_1_1common_1_1util_1_1sudoku_1_1_grid_master.html#af7a1c9df1f82cefc39447ed221fafd76" target="_top" xlink:title="Calcule le pourcentage de possibilités estimé en fonction de la somme des possibilités.">
<polygon fill="white" stroke="#666666" points="430.62,-280 227.12,-280 227.12,-248 430.62,-248 430.62,-280"/>
<text text-anchor="start" x="235.12" y="-266.5" font-family="Helvetica,sans-Serif" font-size="10.00">fr.softsf.sudokufx.common.util.sudoku.</text>
<text text-anchor="middle" x="328.88" y="-254.5" font-family="Helvetica,sans-Serif" font-size="10.00">GridMaster.getPourcentageDesPossibilites</text>
</a>
</g>
</g>
<!-- Node1&#45;&gt;Node5 -->
<g id="edge4_Node000001_Node000005" class="edge">
<title>Node1&#45;&gt;Node5</title>
<g id="a_edge4_Node000001_Node000005"><a xlink:title=" ">
<path fill="none" stroke="#63b8ff" d="M116.6,-178.47C141.34,-195.86 182.83,-222.95 222.25,-239 226.79,-240.85 231.5,-242.58 236.29,-244.2"/>
<polygon fill="#63b8ff" stroke="#63b8ff" points="234.87,-247.42 245.46,-247.11 236.98,-240.75 234.87,-247.42"/>
</a>
</g>
</g>
<!-- Node6 -->
<g id="Node000006" class="node">
<title>Node6</title>
<g id="a_Node000006"><a xlink:href="namespacefr_1_1softsf_1_1sudokufx_1_1common_1_1util_1_1sudoku.html#ad9235162514fff9999f723bb791d4da1" target="_top" xlink:title="Record representing the result of solving a Sudoku grid.">
<polygon fill="white" stroke="#666666" points="422,-212 235.75,-212 235.75,-180 422,-180 422,-212"/>
<text text-anchor="start" x="243.75" y="-198.5" font-family="Helvetica,sans-Serif" font-size="10.00">fr.softsf.sudokufx.common.util.sudoku.</text>
<text text-anchor="middle" x="328.88" y="-186.5" font-family="Helvetica,sans-Serif" font-size="10.00">GrilleResolue</text>
</a>
</g>
</g>
<!-- Node1&#45;&gt;Node6 -->
<g id="edge5_Node000001_Node000006" class="edge">
<title>Node1&#45;&gt;Node6</title>
<g id="a_edge5_Node000001_Node000006"><a xlink:title=" ">
<path fill="none" stroke="#63b8ff" d="M186.51,-175.44C198.95,-177.25 211.77,-179.11 224.38,-180.95"/>
<polygon fill="#63b8ff" stroke="#63b8ff" points="223.5,-184.35 233.9,-182.33 224.51,-177.43 223.5,-184.35"/>
</a>
</g>
</g>
<!-- Node7 -->
<g id="Node000007" class="node">
<title>Node7</title>
<g id="a_Node000007"><a xlink:href="classfr_1_1softsf_1_1sudokufx_1_1common_1_1util_1_1sudoku_1_1_grid_master.html#ae544691a2f6f2b54de8f88d3babcc221" target="_top" xlink:title="Remplit récursivement la grille Sudoku (backtracking).">
<polygon fill="white" stroke="#666666" points="422,-144 235.75,-144 235.75,-112 422,-112 422,-144"/>
<text text-anchor="start" x="243.75" y="-130.5" font-family="Helvetica,sans-Serif" font-size="10.00">fr.softsf.sudokufx.common.util.sudoku.</text>
<text text-anchor="middle" x="328.88" y="-118.5" font-family="Helvetica,sans-Serif" font-size="10.00">GridMaster.remplirLaGrille</text>
</a>
</g>
</g>
<!-- Node1&#45;&gt;Node7 -->
<g id="edge7_Node000001_Node000007" class="edge">
<title>Node1&#45;&gt;Node7</title>
<g id="a_edge7_Node000001_Node000007"><a xlink:title=" ">
<path fill="none" stroke="#63b8ff" d="M186.51,-148.56C198.95,-146.75 211.77,-144.89 224.38,-143.05"/>
<polygon fill="#63b8ff" stroke="#63b8ff" points="224.51,-146.57 233.9,-141.67 223.5,-139.65 224.51,-146.57"/>
</a>
</g>
</g>
<!-- Node10 -->
<g id="Node000010" class="node">
<title>Node10</title>
<g id="a_Node000010"><a xlink:href="classfr_1_1softsf_1_1sudokufx_1_1common_1_1util_1_1sudoku_1_1_grid_master.html#aa9fd5688b3effcfb97c226e04a5ff380" target="_top" xlink:title="Calcule la somme des possibilités de toutes les cases de la grille de Sudoku.">
<polygon fill="white" stroke="#666666" points="435.5,-94 222.25,-94 222.25,-62 435.5,-62 435.5,-94"/>
<text text-anchor="start" x="230.25" y="-80.5" font-family="Helvetica,sans-Serif" font-size="10.00">fr.softsf.sudokufx.common.util.sudoku.</text>
<text text-anchor="middle" x="328.88" y="-68.5" font-family="Helvetica,sans-Serif" font-size="10.00">GridMaster.sommeDesPossibilitesDeLaGrille</text>
</a>
</g>
</g>
<!-- Node1&#45;&gt;Node10 -->
<g id="edge13_Node000001_Node000010" class="edge">
<title>Node1&#45;&gt;Node10</title>
<g id="a_edge13_Node000001_Node000010"><a xlink:title=" ">
<path fill="none" stroke="#63b8ff" d="M125.26,-145.53C150.77,-132.57 188.1,-114.77 222.25,-103 227.87,-101.06 233.72,-99.22 239.64,-97.48"/>
<polygon fill="#63b8ff" stroke="#63b8ff" points="240.22,-100.96 248.89,-94.88 238.32,-94.22 240.22,-100.96"/>
</a>
</g>
</g>
<!-- Node11 -->
<g id="Node000011" class="node">
<title>Node11</title>
<g id="a_Node000011"><a xlink:href="classfr_1_1softsf_1_1sudokufx_1_1common_1_1util_1_1sudoku_1_1_grid_master.html#a9f77177ae439a5e7b1cfa0394be13ae8" target="_top" xlink:title="Vérifie que chaque valeur dans la grille est bien une possibilité respectant les règles.">
<polygon fill="white" stroke="#666666" points="431.38,-44 226.38,-44 226.38,0 431.38,0 431.38,-44"/>
<text text-anchor="start" x="234.38" y="-30.5" font-family="Helvetica,sans-Serif" font-size="10.00">fr.softsf.sudokufx.common.util.sudoku.</text>
<text text-anchor="start" x="234.38" y="-18.5" font-family="Helvetica,sans-Serif" font-size="10.00">GridMaster.verifieQueChaqueValeurEstUne</text>
<text text-anchor="middle" x="328.88" y="-6.5" font-family="Helvetica,sans-Serif" font-size="10.00">Possibilite</text>
</a>
</g>
</g>
<!-- Node1&#45;&gt;Node11 -->
<g id="edge14_Node000001_Node000011" class="edge">
<title>Node1&#45;&gt;Node11</title>
<g id="a_edge14_Node000001_Node000011"><a xlink:title=" ">
<path fill="none" stroke="#63b8ff" d="M108.7,-145.88C130.95,-122.21 175.74,-78.12 222.25,-53 224.79,-51.63 227.39,-50.31 230.05,-49.05"/>
<polygon fill="#63b8ff" stroke="#63b8ff" points="231.4,-52.28 239.13,-45.04 228.57,-45.88 231.4,-52.28"/>
</a>
</g>
</g>
<!-- Node3 -->
<g id="Node000003" class="node">
<title>Node3</title>
<g id="a_Node000003"><a xlink:href="classfr_1_1softsf_1_1sudokufx_1_1common_1_1util_1_1sudoku_1_1_grid_master.html#a27aa242e0289c28db22cd6caa98aec06" target="_top" xlink:title="Initialise le tableau des possibilités pour chaque case.">
<polygon fill="white" stroke="#666666" points="684.38,-316 498.12,-316 498.12,-284 684.38,-284 684.38,-316"/>
<text text-anchor="start" x="506.12" y="-302.5" font-family="Helvetica,sans-Serif" font-size="10.00">fr.softsf.sudokufx.common.util.sudoku.</text>
<text text-anchor="middle" x="591.25" y="-290.5" font-family="Helvetica,sans-Serif" font-size="10.00">GridMaster.initialiserPossibilites</text>
</a>
</g>
</g>
<!-- Node2&#45;&gt;Node3 -->
<g id="edge2_Node000002_Node000003" class="edge">
<title>Node2&#45;&gt;Node3</title>
<g id="a_edge2_Node000002_Node000003"><a xlink:title=" ">
<path fill="none" stroke="#63b8ff" d="M422.41,-309.02C443.22,-307.91 465.44,-306.71 486.68,-305.57"/>
<polygon fill="#63b8ff" stroke="#63b8ff" points="486.71,-309.07 496.5,-305.04 486.33,-302.08 486.71,-309.07"/>
</a>
</g>
</g>
<!-- Node4 -->
<g id="Node000004" class="node">
<title>Node4</title>
<g id="a_Node000004"><a xlink:href="classfr_1_1softsf_1_1sudokufx_1_1common_1_1util_1_1sudoku_1_1_grid_master.html#a6f8a7a32d9421be5ec0e87fab69bb351" target="_top" xlink:title="Élimine la valeur des possibilités des cases voisines (ligne, colonne, carré).">
<polygon fill="white" stroke="#666666" points="933.25,-287 747,-287 747,-255 933.25,-255 933.25,-287"/>
<text text-anchor="start" x="755" y="-273.5" font-family="Helvetica,sans-Serif" font-size="10.00">fr.softsf.sudokufx.common.util.sudoku.</text>
<text text-anchor="middle" x="840.12" y="-261.5" font-family="Helvetica,sans-Serif" font-size="10.00">GridMaster.eliminerPossibilite</text>
</a>
</g>
</g>
<!-- Node3&#45;&gt;Node4 -->
<g id="edge3_Node000003_Node000004" class="edge">
<title>Node3&#45;&gt;Node4</title>
<g id="a_edge3_Node000003_Node000004"><a xlink:title=" ">
<path fill="none" stroke="#63b8ff" d="M684.53,-289.16C701.16,-287.21 718.59,-285.16 735.51,-283.17"/>
<polygon fill="#63b8ff" stroke="#63b8ff" points="735.52,-286.69 745.04,-282.05 734.7,-279.74 735.52,-286.69"/>
</a>
</g>
</g>
<!-- Node6&#45;&gt;Node6 -->
<g id="edge6_Node000006_Node000006" class="edge">
<title>Node6&#45;&gt;Node6</title>
<g id="a_edge6_Node000006_Node000006"><a xlink:title=" ">
<path fill="none" stroke="#63b8ff" d="M286.79,-212.44C278.93,-221.58 292.96,-230 328.88,-230 348.8,-230 361.98,-227.41 368.44,-223.54"/>
<polygon fill="#63b8ff" stroke="#63b8ff" points="371.82,-224.45 370.63,-213.92 365,-222.89 371.82,-224.45"/>
</a>
</g>
</g>
<!-- Node7&#45;&gt;Node4 -->
<g id="edge10_Node000007_Node000004" class="edge">
<title>Node7&#45;&gt;Node4</title>
<g id="a_edge10_Node000007_Node000004"><a xlink:title=" ">
<path fill="none" stroke="#63b8ff" d="M376.64,-144.48C395.37,-151.73 416.88,-160.9 435.5,-171 452.62,-180.28 453.59,-188.34 471.5,-196 556.24,-232.24 659.6,-251.33 735.12,-261.16"/>
<polygon fill="#63b8ff" stroke="#63b8ff" points="734.67,-264.63 745.03,-262.41 735.54,-257.68 734.67,-264.63"/>
</a>
</g>
</g>
<!-- Node7&#45;&gt;Node7 -->
<g id="edge12_Node000007_Node000007" class="edge">
<title>Node7&#45;&gt;Node7</title>
<g id="a_edge12_Node000007_Node000007"><a xlink:title=" ">
<path fill="none" stroke="#63b8ff" d="M286.79,-144.44C278.93,-153.58 292.96,-162 328.88,-162 348.8,-162 361.98,-159.41 368.44,-155.54"/>
<polygon fill="#63b8ff" stroke="#63b8ff" points="371.82,-156.45 370.63,-145.92 365,-154.89 371.82,-156.45"/>
</a>
</g>
</g>
<!-- Node8 -->
<g id="Node000008" class="node">
<title>Node8</title>
<g id="a_Node000008"><a xlink:href="classfr_1_1softsf_1_1sudokufx_1_1common_1_1util_1_1sudoku_1_1_grid_master.html#a3f17ab078f894717a1f3dfaffed0b987" target="_top" xlink:title="Choisit une valeur aléatoire parmi les possibilités données.">
<polygon fill="white" stroke="#666666" points="684.38,-169 498.12,-169 498.12,-137 684.38,-137 684.38,-169"/>
<text text-anchor="start" x="506.12" y="-155.5" font-family="Helvetica,sans-Serif" font-size="10.00">fr.softsf.sudokufx.common.util.sudoku.</text>
<text text-anchor="middle" x="591.25" y="-143.5" font-family="Helvetica,sans-Serif" font-size="10.00">GridMaster.choisirValeurAleatoire</text>
</a>
</g>
</g>
<!-- Node7&#45;&gt;Node8 -->
<g id="edge8_Node000007_Node000008" class="edge">
<title>Node7&#45;&gt;Node8</title>
<g id="a_edge8_Node000007_Node000008"><a xlink:title=" ">
<path fill="none" stroke="#63b8ff" d="M422.41,-136.88C443.22,-138.88 465.44,-141.02 486.68,-143.06"/>
<polygon fill="#63b8ff" stroke="#63b8ff" points="486.22,-146.53 496.51,-144 486.89,-139.56 486.22,-146.53"/>
</a>
</g>
</g>
<!-- Node9 -->
<g id="Node000009" class="node">
<title>Node9</title>
<g id="a_Node000009"><a xlink:href="classfr_1_1softsf_1_1sudokufx_1_1common_1_1util_1_1sudoku_1_1_grid_master.html#a973a5ac2260605b8a260934b7e68373d" target="_top" xlink:title="Trouve la case vide avec le moins de possibilités.">
<polygon fill="white" stroke="#666666" points="711,-119 471.5,-119 471.5,-87 711,-87 711,-119"/>
<text text-anchor="start" x="479.5" y="-105.5" font-family="Helvetica,sans-Serif" font-size="10.00">fr.softsf.sudokufx.common.util.sudoku.</text>
<text text-anchor="middle" x="591.25" y="-93.5" font-family="Helvetica,sans-Serif" font-size="10.00">GridMaster.laCaseVideAvecLeMoinsDePossibilites</text>
</a>
</g>
</g>
<!-- Node7&#45;&gt;Node9 -->
<g id="edge11_Node000007_Node000009" class="edge">
<title>Node7&#45;&gt;Node9</title>
<g id="a_edge11_Node000007_Node000009"><a xlink:title=" ">
<path fill="none" stroke="#63b8ff" d="M422.41,-119.12C434.62,-117.94 447.31,-116.72 460,-115.51"/>
<polygon fill="#63b8ff" stroke="#63b8ff" points="460.02,-119.02 469.64,-114.58 459.35,-112.05 460.02,-119.02"/>
</a>
</g>
</g>
<!-- Node8&#45;&gt;Node8 -->
<g id="edge9_Node000008_Node000008" class="edge">
<title>Node8&#45;&gt;Node8</title>
<g id="a_edge9_Node000008_Node000008"><a xlink:title=" ">
<path fill="none" stroke="#63b8ff" d="M546.82,-169.44C538.53,-178.58 553.34,-187 591.25,-187 612.28,-187 626.2,-184.41 633.02,-180.54"/>
<polygon fill="#63b8ff" stroke="#63b8ff" points="636.4,-181.46 635.33,-170.91 629.59,-179.82 636.4,-181.46"/>
</a>
</g>
</g>
</g>
</svg>
