<?xml version="1.0" encoding="UTF-8" standalone="no"?>
<!DOCTYPE svg PUBLIC "-//W3C//DTD SVG 1.1//EN"
 "http://www.w3.org/Graphics/SVG/1.1/DTD/svg11.dtd">
<!-- Generated by graphviz version 12.2.1 (20241206.2353)
 -->
<!-- Title: fr.softsf.sudokufx.model.Options.Options Pages: 1 -->
<svg width="294pt" height="90pt"
 viewBox="0.00 0.00 294.25 90.00" xmlns="http://www.w3.org/2000/svg" xmlns:xlink="http://www.w3.org/1999/xlink">
<g id="graph0" class="graph" transform="scale(1 1) rotate(0) translate(4 86)">
<title>fr.softsf.sudokufx.model.Options.Options</title>
<!-- Node1 -->
<g id="Node000001" class="node">
<title>Node1</title>
<g id="a_Node000001"><a xlink:title=" ">
<polygon fill="#999999" stroke="#666666" points="124.75,-57 0,-57 0,-25 124.75,-25 124.75,-57"/>
<text text-anchor="start" x="8" y="-43.5" font-family="Helvetica,sans-Serif" font-size="10.00">fr.softsf.sudokufx.model.</text>
<text text-anchor="middle" x="62.38" y="-31.5" font-family="Helvetica,sans-Serif" font-size="10.00">Options.Options</text>
</a>
</g>
</g>
<!-- Node2 -->
<g id="Node000002" class="node">
<title>Node2</title>
<g id="a_Node000002"><a xlink:href="classfr_1_1softsf_1_1sudokufx_1_1model_1_1_options.html#a775885a0e9448ee0eaf4a7938c678def" target="_top" xlink:title="Validates hex color format (#RRGGBBAA).">
<polygon fill="white" stroke="#666666" points="286.25,-82 160.75,-82 160.75,-50 286.25,-50 286.25,-82"/>
<text text-anchor="start" x="168.75" y="-68.5" font-family="Helvetica,sans-Serif" font-size="10.00">fr.softsf.sudokufx.model.</text>
<text text-anchor="middle" x="223.5" y="-56.5" font-family="Helvetica,sans-Serif" font-size="10.00">Options.validateHexcolor</text>
</a>
</g>
</g>
<!-- Node1&#45;&gt;Node2 -->
<g id="edge1_Node000001_Node000002" class="edge">
<title>Node1&#45;&gt;Node2</title>
<g id="a_edge1_Node000001_Node000002"><a xlink:title=" ">
<path fill="none" stroke="#63b8ff" d="M124.9,-50.67C132.8,-51.91 140.96,-53.19 149.03,-54.46"/>
<polygon fill="#63b8ff" stroke="#63b8ff" points="148.44,-57.91 158.86,-56 149.52,-50.99 148.44,-57.91"/>
</a>
</g>
</g>
<!-- Node3 -->
<g id="Node000003" class="node">
<title>Node3</title>
<g id="a_Node000003"><a xlink:href="classfr_1_1softsf_1_1sudokufx_1_1model_1_1_options.html#a771e507dc7b5e3256b5a2e38753ab0c9" target="_top" xlink:title="Validates that a path is not null and does not exceed the allowed length.">
<polygon fill="white" stroke="#666666" points="285.88,-32 161.12,-32 161.12,0 285.88,0 285.88,-32"/>
<text text-anchor="start" x="169.12" y="-18.5" font-family="Helvetica,sans-Serif" font-size="10.00">fr.softsf.sudokufx.model.</text>
<text text-anchor="middle" x="223.5" y="-6.5" font-family="Helvetica,sans-Serif" font-size="10.00">Options.validatePath</text>
</a>
</g>
</g>
<!-- Node1&#45;&gt;Node3 -->
<g id="edge2_Node000001_Node000003" class="edge">
<title>Node1&#45;&gt;Node3</title>
<g id="a_edge2_Node000001_Node000003"><a xlink:title=" ">
<path fill="none" stroke="#63b8ff" d="M124.9,-31.33C133.01,-30.06 141.4,-28.74 149.68,-27.44"/>
<polygon fill="#63b8ff" stroke="#63b8ff" points="150.05,-30.93 159.38,-25.92 148.96,-24.01 150.05,-30.93"/>
</a>
</g>
</g>
</g>
</svg>
