<?xml version="1.0" encoding="UTF-8" standalone="no"?>
<!DOCTYPE svg PUBLIC "-//W3C//DTD SVG 1.1//EN"
 "http://www.w3.org/Graphics/SVG/1.1/DTD/svg11.dtd">
<!-- Generated by graphviz version 12.2.1 (20241206.2353)
 -->
<!-- Title: fr.softsf.sudokufx.view.DefaultView Pages: 1 -->
<!--zoomable 1433 -->

<svg id="main" version="1.1" xmlns="http://www.w3.org/2000/svg" xmlns:xlink="http://www.w3.org/1999/xlink" xml:space="preserve" onload="init(evt)">

<style type="text/css"><![CDATA[
.node, .edge {opacity: 0.7;}
.node.selected, .edge.selected {opacity: 1;}
.edge:hover path { stroke: red; }
.edge:hover polygon { stroke: red; fill: red; }
]]></style>

<defs>
  <circle id="rim" cx="0" cy="0" r="7"/>
  <circle id="rim2" cx="0" cy="0" r="3.5"/>
  <g id="zoomPlus">
    <use xlink:href="#rim" fill="#404040"><set attributeName="fill" to="#808080" begin="zoomplus.mouseover" end="zoomplus.mouseout"/></use>
    <path d="M-4,0h8M0,-4v8" fill="none" stroke="white" stroke-width="1.5" pointer-events="none"/>
  </g>
  <g id="zoomMin">
    <use xlink:href="#rim" fill="#404040"><set attributeName="fill" to="#808080" begin="zoomminus.mouseover" end="zoomminus.mouseout"/></use>
    <path d="M-4,0h8" fill="none" stroke="white" stroke-width="1.5" pointer-events="none"/>
  </g>
  <g id="arrowUp" transform="translate(30 24)">
    <use xlink:href="#rim"/>
    <path pointer-events="none" fill="none" stroke="white" stroke-width="1.5" d="M0,-3.0v7 M-2.5,-0.5L0,-3.0L2.5,-0.5"/>
  </g>
  <g id="arrowRight" transform="rotate(90) translate(36 -43)">
    <use xlink:href="#rim"/>
    <path pointer-events="none" fill="none" stroke="white" stroke-width="1.5" d="M0,-3.0v7 M-2.5,-0.5L0,-3.0L2.5,-0.5"/>
  </g>
  <g id="arrowDown" transform="rotate(180) translate(-30 -48)">
    <use xlink:href="#rim"/>
    <path pointer-events="none" fill="none" stroke="white" stroke-width="1.5" d="M0,-3.0v7 M-2.5,-0.5L0,-3.0L2.5,-0.5"/>
  </g>
  <g id="arrowLeft" transform="rotate(270) translate(-36 17)">
    <use xlink:href="#rim"/>
    <path pointer-events="none" fill="none" stroke="white" stroke-width="1.5" d="M0,-3.0v7 M-2.5,-0.5L0,-3.0L2.5,-0.5"/>
  </g>
  <g id="resetDef">
    <use xlink:href="#rim2" fill="#404040"><set attributeName="fill" to="#808080" begin="reset.mouseover" end="reset.mouseout"/></use>
  </g>
</defs>
<script type="application/ecmascript">
var viewWidth = 733;
var viewHeight = 1433;
var sectionId = 'dynsection-1';
</script>
<script type="application/ecmascript" xlink:href="svg.min.js"/>
<svg id="graph" class="graph">
<g id="viewport">
<title>fr.softsf.sudokufx.view.DefaultView</title>
<!-- Node1 -->
<g id="Node000001" class="node">
<title>Node1</title>
<g id="a_Node000001"><a xlink:title="Default view class of the Sudoku application.">
<polygon fill="#999999" stroke="none" points="405.38,-828 217.12,-828 217.12,0 405.38,0 405.38,-828"/>
<text text-anchor="start" x="260.25" y="-814.5" font-family="Helvetica,sans-Serif" font-size="10.00">fr.softsf.sudokufx.view.</text>
<text text-anchor="start" x="284.62" y="-802.5" font-family="Helvetica,sans-Serif" font-size="10.00">DefaultView</text>
<text text-anchor="start" x="221.12" y="-786.5" font-family="Helvetica,sans-Serif" font-size="10.00">+</text>
<text text-anchor="start" x="231.12" y="-786.5" font-family="Helvetica,sans-Serif" font-size="10.00">static final String</text>
<text text-anchor="start" x="231.12" y="-774.5" font-family="Helvetica,sans-Serif" font-size="10.00"> MENU_ACCESSIBILITY</text>
<text text-anchor="start" x="231.12" y="-762.5" font-family="Helvetica,sans-Serif" font-size="10.00">_ROLE_DESCRIPTION_SUBMENU</text>
<text text-anchor="start" x="231.12" y="-750.5" font-family="Helvetica,sans-Serif" font-size="10.00">_OPTION</text>
<text text-anchor="start" x="222.62" y="-734.5" font-family="Helvetica,sans-Serif" font-size="10.00">&#45;</text>
<text text-anchor="start" x="231.12" y="-734.5" font-family="Helvetica,sans-Serif" font-size="10.00">Button menuBackgroundButton</text>
<text text-anchor="start" x="231.12" y="-722.5" font-family="Helvetica,sans-Serif" font-size="10.00">Background</text>
<text text-anchor="start" x="222.62" y="-706.5" font-family="Helvetica,sans-Serif" font-size="10.00">&#45;</text>
<text text-anchor="start" x="231.12" y="-706.5" font-family="Helvetica,sans-Serif" font-size="10.00">Label menuBackgroundButton</text>
<text text-anchor="start" x="231.12" y="-694.5" font-family="Helvetica,sans-Serif" font-size="10.00">BackgroundText</text>
<text text-anchor="start" x="222.62" y="-678.5" font-family="Helvetica,sans-Serif" font-size="10.00">&#45;</text>
<text text-anchor="start" x="231.12" y="-678.5" font-family="Helvetica,sans-Serif" font-size="10.00">ColorPicker menuBackground</text>
<text text-anchor="start" x="231.12" y="-666.5" font-family="Helvetica,sans-Serif" font-size="10.00">ButtonColor</text>
<text text-anchor="start" x="222.62" y="-650.5" font-family="Helvetica,sans-Serif" font-size="10.00">&#45;</text>
<text text-anchor="start" x="231.12" y="-650.5" font-family="Helvetica,sans-Serif" font-size="10.00">Button menuBackgroundButton</text>
<text text-anchor="start" x="231.12" y="-638.5" font-family="Helvetica,sans-Serif" font-size="10.00">Image</text>
<text text-anchor="start" x="222.62" y="-622.5" font-family="Helvetica,sans-Serif" font-size="10.00">&#45;</text>
<text text-anchor="start" x="231.12" y="-622.5" font-family="Helvetica,sans-Serif" font-size="10.00">Label menuBackgroundButton</text>
<text text-anchor="start" x="231.12" y="-610.5" font-family="Helvetica,sans-Serif" font-size="10.00">ImageText</text>
<text text-anchor="start" x="222.62" y="-594.5" font-family="Helvetica,sans-Serif" font-size="10.00">&#45;</text>
<text text-anchor="start" x="231.12" y="-594.5" font-family="Helvetica,sans-Serif" font-size="10.00">Button menuBackgroundButton</text>
<text text-anchor="start" x="231.12" y="-582.5" font-family="Helvetica,sans-Serif" font-size="10.00">Reduce</text>
<text text-anchor="start" x="222.62" y="-566.5" font-family="Helvetica,sans-Serif" font-size="10.00">&#45;</text>
<text text-anchor="start" x="231.12" y="-566.5" font-family="Helvetica,sans-Serif" font-size="10.00">Label menuBackgroundButton</text>
<text text-anchor="start" x="231.12" y="-554.5" font-family="Helvetica,sans-Serif" font-size="10.00">ReduceText</text>
<text text-anchor="start" x="222.62" y="-538.5" font-family="Helvetica,sans-Serif" font-size="10.00">&#45;</text>
<text text-anchor="start" x="231.12" y="-538.5" font-family="Helvetica,sans-Serif" font-size="10.00">Button menuHiddenButtonShow</text>
<text text-anchor="start" x="222.62" y="-522.5" font-family="Helvetica,sans-Serif" font-size="10.00">&#45;</text>
<text text-anchor="start" x="231.12" y="-522.5" font-family="Helvetica,sans-Serif" font-size="10.00">Button menuMaxiButtonBackground</text>
<text text-anchor="start" x="222.62" y="-506.5" font-family="Helvetica,sans-Serif" font-size="10.00">&#45;</text>
<text text-anchor="start" x="231.12" y="-506.5" font-family="Helvetica,sans-Serif" font-size="10.00">Label menuMaxiButtonBackgroundText</text>
<text text-anchor="start" x="231.12" y="-490.5" font-family="Helvetica,sans-Serif" font-size="10.00">and 61 more...</text>
<text text-anchor="start" x="222.62" y="-474.5" font-family="Helvetica,sans-Serif" font-size="10.00">&#45;</text>
<text text-anchor="start" x="231.12" y="-474.5" font-family="Helvetica,sans-Serif" font-size="10.00">static final Alert</text>
<text text-anchor="start" x="231.12" y="-462.5" font-family="Helvetica,sans-Serif" font-size="10.00"> CONFIRMATION_ALERT</text>
<text text-anchor="start" x="222.62" y="-446.5" font-family="Helvetica,sans-Serif" font-size="10.00">&#45;</text>
<text text-anchor="start" x="231.12" y="-446.5" font-family="Helvetica,sans-Serif" font-size="10.00">static final double</text>
<text text-anchor="start" x="231.12" y="-434.5" font-family="Helvetica,sans-Serif" font-size="10.00"> FADE_IN_IN_SECONDS</text>
<text text-anchor="start" x="231.12" y="-422.5" font-family="Helvetica,sans-Serif" font-size="10.00">_AFTER_SPLASHSCREEN</text>
<text text-anchor="start" x="222.62" y="-406.5" font-family="Helvetica,sans-Serif" font-size="10.00">&#45;</text>
<text text-anchor="start" x="231.12" y="-406.5" font-family="Helvetica,sans-Serif" font-size="10.00">static final String</text>
<text text-anchor="start" x="231.12" y="-394.5" font-family="Helvetica,sans-Serif" font-size="10.00"> MENU_ACCESSIBILITY</text>
<text text-anchor="start" x="231.12" y="-382.5" font-family="Helvetica,sans-Serif" font-size="10.00">_ROLE_DESCRIPTION_CLOSED</text>
<text text-anchor="start" x="222.62" y="-366.5" font-family="Helvetica,sans-Serif" font-size="10.00">&#45;</text>
<text text-anchor="start" x="231.12" y="-366.5" font-family="Helvetica,sans-Serif" font-size="10.00">static final String</text>
<text text-anchor="start" x="231.12" y="-354.5" font-family="Helvetica,sans-Serif" font-size="10.00"> MENU_ACCESSIBILITY</text>
<text text-anchor="start" x="231.12" y="-342.5" font-family="Helvetica,sans-Serif" font-size="10.00">_ROLE_DESCRIPTION_OPENED</text>
<text text-anchor="start" x="222.62" y="-326.5" font-family="Helvetica,sans-Serif" font-size="10.00">&#45;</text>
<text text-anchor="start" x="231.12" y="-326.5" font-family="Helvetica,sans-Serif" font-size="10.00">static final String</text>
<text text-anchor="start" x="231.12" y="-314.5" font-family="Helvetica,sans-Serif" font-size="10.00"> MENU_ACCESSIBILITY</text>
<text text-anchor="start" x="231.12" y="-302.5" font-family="Helvetica,sans-Serif" font-size="10.00">_ROLE_DESCRIPTION_SELECTED</text>
<text text-anchor="start" x="221.12" y="-286.5" font-family="Helvetica,sans-Serif" font-size="10.00">+</text>
<text text-anchor="start" x="231.12" y="-286.5" font-family="Helvetica,sans-Serif" font-size="10.00">void openingMainStage</text>
<text text-anchor="start" x="231.12" y="-274.5" font-family="Helvetica,sans-Serif" font-size="10.00">(final ISplashScreenView</text>
<text text-anchor="start" x="231.12" y="-262.5" font-family="Helvetica,sans-Serif" font-size="10.00"> iSplashScreenView)</text>
<text text-anchor="start" x="222.62" y="-246.5" font-family="Helvetica,sans-Serif" font-size="10.00">&#45;</text>
<text text-anchor="start" x="231.12" y="-246.5" font-family="Helvetica,sans-Serif" font-size="10.00">void confirmationAlertStyle()</text>
<text text-anchor="start" x="222.62" y="-230.5" font-family="Helvetica,sans-Serif" font-size="10.00">&#45;</text>
<text text-anchor="start" x="231.12" y="-230.5" font-family="Helvetica,sans-Serif" font-size="10.00">void handleFileImageChooser</text>
<text text-anchor="start" x="231.12" y="-218.5" font-family="Helvetica,sans-Serif" font-size="10.00">(ActionEvent event)</text>
<text text-anchor="start" x="222.62" y="-202.5" font-family="Helvetica,sans-Serif" font-size="10.00">&#45;</text>
<text text-anchor="start" x="231.12" y="-202.5" font-family="Helvetica,sans-Serif" font-size="10.00">void initialize()</text>
<text text-anchor="start" x="222.62" y="-186.5" font-family="Helvetica,sans-Serif" font-size="10.00">&#45;</text>
<text text-anchor="start" x="231.12" y="-186.5" font-family="Helvetica,sans-Serif" font-size="10.00">Color intToColor(int</text>
<text text-anchor="start" x="231.12" y="-174.5" font-family="Helvetica,sans-Serif" font-size="10.00"> colorValue)</text>
<text text-anchor="start" x="222.62" y="-158.5" font-family="Helvetica,sans-Serif" font-size="10.00">&#45;</text>
<text text-anchor="start" x="231.12" y="-158.5" font-family="Helvetica,sans-Serif" font-size="10.00">void openingConfigureStage()</text>
<text text-anchor="start" x="222.62" y="-142.5" font-family="Helvetica,sans-Serif" font-size="10.00">&#45;</text>
<text text-anchor="start" x="231.12" y="-142.5" font-family="Helvetica,sans-Serif" font-size="10.00">void openingFadeIn</text>
<text text-anchor="start" x="231.12" y="-130.5" font-family="Helvetica,sans-Serif" font-size="10.00">(final Node node)</text>
<text text-anchor="start" x="222.62" y="-114.5" font-family="Helvetica,sans-Serif" font-size="10.00">&#45;</text>
<text text-anchor="start" x="231.12" y="-114.5" font-family="Helvetica,sans-Serif" font-size="10.00">void openingMaximizePrimary</text>
<text text-anchor="start" x="231.12" y="-102.5" font-family="Helvetica,sans-Serif" font-size="10.00">Stage()</text>
<text text-anchor="start" x="222.62" y="-86.5" font-family="Helvetica,sans-Serif" font-size="10.00">&#45;</text>
<text text-anchor="start" x="231.12" y="-86.5" font-family="Helvetica,sans-Serif" font-size="10.00">void openingShowStage()</text>
<text text-anchor="start" x="222.62" y="-70.5" font-family="Helvetica,sans-Serif" font-size="10.00">&#45;</text>
<text text-anchor="start" x="231.12" y="-70.5" font-family="Helvetica,sans-Serif" font-size="10.00">void setMenuHBoxPossibilities</text>
<text text-anchor="start" x="231.12" y="-58.5" font-family="Helvetica,sans-Serif" font-size="10.00">FromPercentage(HBox starsContainer,</text>
<text text-anchor="start" x="231.12" y="-46.5" font-family="Helvetica,sans-Serif" font-size="10.00"> int percentage)</text>
<text text-anchor="start" x="222.62" y="-30.5" font-family="Helvetica,sans-Serif" font-size="10.00">&#45;</text>
<text text-anchor="start" x="231.12" y="-30.5" font-family="Helvetica,sans-Serif" font-size="10.00">void setupListViewClip</text>
<text text-anchor="start" x="231.12" y="-18.5" font-family="Helvetica,sans-Serif" font-size="10.00">(ListView&lt;?&gt; listView,</text>
<text text-anchor="start" x="231.12" y="-6.5" font-family="Helvetica,sans-Serif" font-size="10.00"> Rectangle clipView)</text>
<polygon fill="#666666" stroke="#666666" points="217.12,-798 217.12,-798 405.38,-798 405.38,-798 217.12,-798"/>
<polygon fill="#666666" stroke="#666666" points="217.12,-298 217.12,-298 229.12,-298 229.12,-298 217.12,-298"/>
<polygon fill="#666666" stroke="#666666" points="229.12,-298 229.12,-298 405.38,-298 405.38,-298 229.12,-298"/>
<polygon fill="none" stroke="#666666" points="217.12,0 217.12,-828 405.38,-828 405.38,0 217.12,0"/>
</a>
</g>
</g>
<!-- Node2 -->
<g id="Node000002" class="node">
<title>Node2</title>
<g id="a_Node000002"><a xlink:href="interfacefr_1_1softsf_1_1sudokufx_1_1interfaces_1_1_i_main_view.html" target="_top" xlink:title="Interface defining method to open the main stage.">
<polygon fill="white" stroke="none" points="172.5,-1150 0,-1150 0,-1062 172.5,-1062 172.5,-1150"/>
<text text-anchor="start" x="23.62" y="-1136.5" font-family="Helvetica,sans-Serif" font-size="10.00">fr.softsf.sudokufx.interfaces.</text>
<text text-anchor="start" x="63.38" y="-1124.5" font-family="Helvetica,sans-Serif" font-size="10.00">IMainView</text>
<text text-anchor="start" x="84.75" y="-1108.5" font-family="Helvetica,sans-Serif" font-size="10.00"> </text>
<text text-anchor="start" x="4" y="-1092.5" font-family="Helvetica,sans-Serif" font-size="10.00">+</text>
<text text-anchor="start" x="14" y="-1092.5" font-family="Helvetica,sans-Serif" font-size="10.00">void openingMainStage</text>
<text text-anchor="start" x="14" y="-1080.5" font-family="Helvetica,sans-Serif" font-size="10.00">(ISplashScreenView iSplashScreen</text>
<text text-anchor="start" x="14" y="-1068.5" font-family="Helvetica,sans-Serif" font-size="10.00">View)</text>
<polygon fill="#666666" stroke="#666666" points="0,-1120 0,-1120 172.5,-1120 172.5,-1120 0,-1120"/>
<polygon fill="#666666" stroke="#666666" points="0,-1104 0,-1104 172.5,-1104 172.5,-1104 0,-1104"/>
<polygon fill="none" stroke="#666666" points="0,-1062 0,-1150 172.5,-1150 172.5,-1062 0,-1062"/>
</a>
</g>
</g>
<!-- Node2&#45;&gt;Node1 -->
<g id="edge1_Node000001_Node000002" class="edge">
<title>Node2&#45;&gt;Node1</title>
<g id="a_edge1_Node000001_Node000002"><a xlink:title=" ">
<path fill="none" stroke="#63b8ff" d="M103.69,-1051.52C128.16,-976.48 174.49,-834.41 217.17,-703.5"/>
<polygon fill="none" stroke="#63b8ff" points="100.48,-1050.07 100.71,-1060.66 107.14,-1052.24 100.48,-1050.07"/>
</a>
</g>
</g>
<!-- Node3 -->
<g id="Node000003" class="node">
<title>Node3</title>
<g id="a_Node000003"><a xlink:href="interfacefr_1_1softsf_1_1sudokufx_1_1interfaces_1_1_i_scene_provider.html" target="_top" xlink:title="Interface ISceneProvider.">
<polygon fill="white" stroke="none" points="323.88,-1138 190.62,-1138 190.62,-1074 323.88,-1074 323.88,-1138"/>
<text text-anchor="start" x="194.62" y="-1124.5" font-family="Helvetica,sans-Serif" font-size="10.00">fr.softsf.sudokufx.interfaces.</text>
<text text-anchor="start" x="223.88" y="-1112.5" font-family="Helvetica,sans-Serif" font-size="10.00">ISceneProvider</text>
<text text-anchor="start" x="255.75" y="-1096.5" font-family="Helvetica,sans-Serif" font-size="10.00"> </text>
<text text-anchor="start" x="195.88" y="-1080.5" font-family="Helvetica,sans-Serif" font-size="10.00">+</text>
<text text-anchor="start" x="207.12" y="-1080.5" font-family="Helvetica,sans-Serif" font-size="10.00">default Scene getScene()</text>
<polygon fill="#666666" stroke="#666666" points="190.62,-1108 190.62,-1108 323.88,-1108 323.88,-1108 190.62,-1108"/>
<polygon fill="#666666" stroke="#666666" points="190.62,-1092 190.62,-1092 323.88,-1092 323.88,-1092 190.62,-1092"/>
<polygon fill="none" stroke="#666666" points="190.62,-1074 190.62,-1138 323.88,-1138 323.88,-1074 190.62,-1074"/>
</a>
</g>
</g>
<!-- Node3&#45;&gt;Node1 -->
<g id="edge2_Node000001_Node000003" class="edge">
<title>Node3&#45;&gt;Node1</title>
<g id="a_edge2_Node000001_Node000003"><a xlink:title=" ">
<path fill="none" stroke="#63b8ff" d="M260.56,-1062.74C264.47,-1012.69 271.42,-923.91 278.94,-827.82"/>
<polygon fill="none" stroke="#63b8ff" points="257.08,-1062.26 259.79,-1072.5 264.06,-1062.81 257.08,-1062.26"/>
</a>
</g>
</g>
<!-- Node4 -->
<g id="Node000004" class="node">
<title>Node4</title>
<g id="a_Node000004"><a xlink:href="classfr_1_1softsf_1_1sudokufx_1_1view_1_1components_1_1toaster_1_1_toaster_v_box.html" target="_top" xlink:title="A custom VBox component for displaying toast notifications.">
<polygon fill="white" stroke="none" points="540.88,-1336 341.62,-1336 341.62,-876 540.88,-876 540.88,-1336"/>
<text text-anchor="start" x="345.62" y="-1322.5" font-family="Helvetica,sans-Serif" font-size="10.00">fr.softsf.sudokufx.view.components.toaster.</text>
<text text-anchor="start" x="413.12" y="-1310.5" font-family="Helvetica,sans-Serif" font-size="10.00">ToasterVBox</text>
<text text-anchor="start" x="439.75" y="-1294.5" font-family="Helvetica,sans-Serif" font-size="10.00"> </text>
<text text-anchor="start" x="359.25" y="-1278.5" font-family="Helvetica,sans-Serif" font-size="10.00">+</text>
<text text-anchor="start" x="382.88" y="-1278.5" font-family="Helvetica,sans-Serif" font-size="10.00">ToasterVBox()</text>
<text text-anchor="start" x="359.25" y="-1262.5" font-family="Helvetica,sans-Serif" font-size="10.00">+</text>
<text text-anchor="start" x="382.88" y="-1262.5" font-family="Helvetica,sans-Serif" font-size="10.00">void addToast(final</text>
<text text-anchor="start" x="382.88" y="-1250.5" font-family="Helvetica,sans-Serif" font-size="10.00"> String visibleText,</text>
<text text-anchor="start" x="382.88" y="-1238.5" font-family="Helvetica,sans-Serif" font-size="10.00"> final String detailedText,</text>
<text text-anchor="start" x="382.88" y="-1226.5" font-family="Helvetica,sans-Serif" font-size="10.00"> final ToastLevels toastLevel)</text>
<text text-anchor="start" x="359.25" y="-1210.5" font-family="Helvetica,sans-Serif" font-size="10.00">+</text>
<text text-anchor="start" x="382.88" y="-1210.5" font-family="Helvetica,sans-Serif" font-size="10.00">void addToastWithDuration</text>
<text text-anchor="start" x="382.88" y="-1198.5" font-family="Helvetica,sans-Serif" font-size="10.00">(final String visibleText,</text>
<text text-anchor="start" x="382.88" y="-1186.5" font-family="Helvetica,sans-Serif" font-size="10.00"> final String detailedText,</text>
<text text-anchor="start" x="382.88" y="-1174.5" font-family="Helvetica,sans-Serif" font-size="10.00"> final ToastLevels toastLevel,</text>
<text text-anchor="start" x="382.88" y="-1162.5" font-family="Helvetica,sans-Serif" font-size="10.00"> final double duration)</text>
<text text-anchor="start" x="360.75" y="-1146.5" font-family="Helvetica,sans-Serif" font-size="10.00">&#45;</text>
<text text-anchor="start" x="382.88" y="-1146.5" font-family="Helvetica,sans-Serif" font-size="10.00">void copyToClipboard</text>
<text text-anchor="start" x="382.88" y="-1134.5" font-family="Helvetica,sans-Serif" font-size="10.00">(final ToasterButton</text>
<text text-anchor="start" x="382.88" y="-1122.5" font-family="Helvetica,sans-Serif" font-size="10.00"> button)</text>
<text text-anchor="start" x="360.75" y="-1106.5" font-family="Helvetica,sans-Serif" font-size="10.00">&#45;</text>
<text text-anchor="start" x="382.88" y="-1106.5" font-family="Helvetica,sans-Serif" font-size="10.00">String getToastInfo</text>
<text text-anchor="start" x="382.88" y="-1094.5" font-family="Helvetica,sans-Serif" font-size="10.00">(ToastLevels toastLevel)</text>
<text text-anchor="start" x="360.75" y="-1078.5" font-family="Helvetica,sans-Serif" font-size="10.00">&#45;</text>
<text text-anchor="start" x="382.88" y="-1078.5" font-family="Helvetica,sans-Serif" font-size="10.00">void removeToast(final</text>
<text text-anchor="start" x="382.88" y="-1066.5" font-family="Helvetica,sans-Serif" font-size="10.00"> ToasterButton button)</text>
<text text-anchor="start" x="360.75" y="-1050.5" font-family="Helvetica,sans-Serif" font-size="10.00">&#45;</text>
<text text-anchor="start" x="382.88" y="-1050.5" font-family="Helvetica,sans-Serif" font-size="10.00">void setAccessibility</text>
<text text-anchor="start" x="382.88" y="-1038.5" font-family="Helvetica,sans-Serif" font-size="10.00">(final ToasterButton</text>
<text text-anchor="start" x="382.88" y="-1026.5" font-family="Helvetica,sans-Serif" font-size="10.00"> toast, final ToastLevels</text>
<text text-anchor="start" x="382.88" y="-1014.5" font-family="Helvetica,sans-Serif" font-size="10.00"> toastLevel, final String text)</text>
<text text-anchor="start" x="360.75" y="-998.5" font-family="Helvetica,sans-Serif" font-size="10.00">&#45;</text>
<text text-anchor="start" x="382.88" y="-998.5" font-family="Helvetica,sans-Serif" font-size="10.00">void setToastStyle</text>
<text text-anchor="start" x="382.88" y="-986.5" font-family="Helvetica,sans-Serif" font-size="10.00">(final ToasterButton</text>
<text text-anchor="start" x="382.88" y="-974.5" font-family="Helvetica,sans-Serif" font-size="10.00"> toast, final ToastLevels</text>
<text text-anchor="start" x="382.88" y="-962.5" font-family="Helvetica,sans-Serif" font-size="10.00"> toastLevel)</text>
<text text-anchor="start" x="360.75" y="-946.5" font-family="Helvetica,sans-Serif" font-size="10.00">&#45;</text>
<text text-anchor="start" x="382.88" y="-946.5" font-family="Helvetica,sans-Serif" font-size="10.00">void temporizeToast</text>
<text text-anchor="start" x="382.88" y="-934.5" font-family="Helvetica,sans-Serif" font-size="10.00">(final ToasterButton</text>
<text text-anchor="start" x="382.88" y="-922.5" font-family="Helvetica,sans-Serif" font-size="10.00"> toast, final double</text>
<text text-anchor="start" x="382.88" y="-910.5" font-family="Helvetica,sans-Serif" font-size="10.00"> duration)</text>
<text text-anchor="start" x="360.75" y="-894.5" font-family="Helvetica,sans-Serif" font-size="10.00">&#45;</text>
<text text-anchor="start" x="382.88" y="-894.5" font-family="Helvetica,sans-Serif" font-size="10.00">void toastActions(final</text>
<text text-anchor="start" x="382.88" y="-882.5" font-family="Helvetica,sans-Serif" font-size="10.00"> ActionEvent event)</text>
<polygon fill="#666666" stroke="#666666" points="341.62,-1306 341.62,-1306 540.88,-1306 540.88,-1306 341.62,-1306"/>
<polygon fill="#666666" stroke="#666666" points="341.62,-1290 341.62,-1290 540.88,-1290 540.88,-1290 341.62,-1290"/>
<polygon fill="none" stroke="#666666" points="341.62,-876 341.62,-1336 540.88,-1336 540.88,-876 341.62,-876"/>
</a>
</g>
</g>
<!-- Node4&#45;&gt;Node1 -->
<g id="edge3_Node000001_Node000004" class="edge">
<title>Node4&#45;&gt;Node1</title>
<g id="a_edge3_Node000001_Node000004"><a xlink:title=" ">
<path fill="none" stroke="#63b8ff" d="M398.14,-876.2C395.93,-864.48 393.69,-852.56 391.42,-840.5"/>
<polygon fill="none" stroke="#63b8ff" points="391.43,-840.56 386.39,-835.4 389.21,-828.77 394.25,-833.92 391.43,-840.56"/>
</a>
</g>
<text text-anchor="middle" x="411.61" y="-848.5" font-family="Helvetica,sans-Serif" font-size="10.00" fill="grey"> &#45;toaster</text>
</g>
<!-- Node5 -->
<g id="Node000005" class="node">
<title>Node5</title>
<g id="a_Node000005"><a xlink:title=" ">
<polygon fill="white" stroke="none" points="457.25,-1425 425.25,-1425 425.25,-1373 457.25,-1373 457.25,-1425"/>
<text text-anchor="start" x="429.25" y="-1411.5" font-family="Helvetica,sans-Serif" font-size="10.00">VBox</text>
<text text-anchor="start" x="439.75" y="-1395.5" font-family="Helvetica,sans-Serif" font-size="10.00"> </text>
<text text-anchor="start" x="439.75" y="-1379.5" font-family="Helvetica,sans-Serif" font-size="10.00"> </text>
<polygon fill="#666666" stroke="#666666" points="425.25,-1407 425.25,-1407 457.25,-1407 457.25,-1407 425.25,-1407"/>
<polygon fill="#666666" stroke="#666666" points="425.25,-1391 425.25,-1391 457.25,-1391 457.25,-1391 425.25,-1391"/>
<polygon fill="none" stroke="#666666" points="425.25,-1373 425.25,-1425 457.25,-1425 457.25,-1373 425.25,-1373"/>
</a>
</g>
</g>
<!-- Node5&#45;&gt;Node4 -->
<g id="edge4_Node000004_Node000005" class="edge">
<title>Node5&#45;&gt;Node4</title>
<g id="a_edge4_Node000004_Node000005"><a xlink:title=" ">
<path fill="none" stroke="#63b8ff" d="M441.25,-1361.81C441.25,-1354.03 441.25,-1345.26 441.25,-1335.79"/>
<polygon fill="none" stroke="#63b8ff" points="437.75,-1361.68 441.25,-1371.68 444.75,-1361.68 437.75,-1361.68"/>
</a>
</g>
</g>
<!-- Node6 -->
<g id="Node000006" class="node">
<title>Node6</title>
<g id="a_Node000006"><a xlink:href="classfr_1_1softsf_1_1sudokufx_1_1view_1_1components_1_1_spinner_grid_pane.html" target="_top" xlink:title="A custom JavaFX GridPane that displays a two&#45;phase animated spinner using Unicode icons.">
<polygon fill="white" stroke="none" points="725.38,-1174 559.12,-1174 559.12,-1038 725.38,-1038 725.38,-1174"/>
<text text-anchor="start" x="563.12" y="-1160.5" font-family="Helvetica,sans-Serif" font-size="10.00">fr.softsf.sudokufx.view.components.</text>
<text text-anchor="start" x="605.5" y="-1148.5" font-family="Helvetica,sans-Serif" font-size="10.00">SpinnerGridPane</text>
<text text-anchor="start" x="564.94" y="-1132.5" font-family="Helvetica,sans-Serif" font-size="10.00">&#45;</text>
<text text-anchor="start" x="573.75" y="-1132.5" font-family="Helvetica,sans-Serif" font-size="10.00">final Animation spinnerAnimation1</text>
<text text-anchor="start" x="564.94" y="-1116.5" font-family="Helvetica,sans-Serif" font-size="10.00">&#45;</text>
<text text-anchor="start" x="573.75" y="-1116.5" font-family="Helvetica,sans-Serif" font-size="10.00">final Animation spinnerAnimation2</text>
<text text-anchor="start" x="563.44" y="-1100.5" font-family="Helvetica,sans-Serif" font-size="10.00">+</text>
<text text-anchor="start" x="573.75" y="-1100.5" font-family="Helvetica,sans-Serif" font-size="10.00">SpinnerGridPane()</text>
<text text-anchor="start" x="563.44" y="-1084.5" font-family="Helvetica,sans-Serif" font-size="10.00">+</text>
<text text-anchor="start" x="573.75" y="-1084.5" font-family="Helvetica,sans-Serif" font-size="10.00">void showSpinner(boolean b)</text>
<text text-anchor="start" x="564.94" y="-1068.5" font-family="Helvetica,sans-Serif" font-size="10.00">&#45;</text>
<text text-anchor="start" x="573.75" y="-1068.5" font-family="Helvetica,sans-Serif" font-size="10.00">Animation createPulse</text>
<text text-anchor="start" x="573.75" y="-1056.5" font-family="Helvetica,sans-Serif" font-size="10.00">(Text text, Duration</text>
<text text-anchor="start" x="573.75" y="-1044.5" font-family="Helvetica,sans-Serif" font-size="10.00"> delay)</text>
<polygon fill="#666666" stroke="#666666" points="559.12,-1144 559.12,-1144 725.38,-1144 725.38,-1144 559.12,-1144"/>
<polygon fill="#666666" stroke="#666666" points="559.12,-1112 559.12,-1112 571.75,-1112 571.75,-1112 559.12,-1112"/>
<polygon fill="#666666" stroke="#666666" points="571.75,-1112 571.75,-1112 725.38,-1112 725.38,-1112 571.75,-1112"/>
<polygon fill="none" stroke="#666666" points="559.12,-1038 559.12,-1174 725.38,-1174 725.38,-1038 559.12,-1038"/>
</a>
</g>
</g>
<!-- Node6&#45;&gt;Node1 -->
<g id="edge5_Node000001_Node000006" class="edge">
<title>Node6&#45;&gt;Node1</title>
<g id="a_edge5_Node000001_Node000006"><a xlink:title=" ">
<path fill="none" stroke="#63b8ff" d="M617.35,-1038.14C599.71,-992.09 574.91,-929.74 550.25,-876 507.61,-783.07 455.85,-682 411.41,-598.25"/>
<polygon fill="none" stroke="#63b8ff" points="411.39,-598.2 405.04,-594.78 405.75,-587.6 412.1,-591.03 411.39,-598.2"/>
</a>
</g>
<text text-anchor="middle" x="557.24" y="-848.5" font-family="Helvetica,sans-Serif" font-size="10.00" fill="grey"> &#45;spinner</text>
</g>
<!-- Node7 -->
<g id="Node000007" class="node">
<title>Node7</title>
<g id="a_Node000007"><a xlink:title=" ">
<polygon fill="white" stroke="none" points="666.5,-1425 618,-1425 618,-1373 666.5,-1373 666.5,-1425"/>
<text text-anchor="start" x="622" y="-1411.5" font-family="Helvetica,sans-Serif" font-size="10.00">GridPane</text>
<text text-anchor="start" x="640.75" y="-1395.5" font-family="Helvetica,sans-Serif" font-size="10.00"> </text>
<text text-anchor="start" x="640.75" y="-1379.5" font-family="Helvetica,sans-Serif" font-size="10.00"> </text>
<polygon fill="#666666" stroke="#666666" points="618,-1407 618,-1407 666.5,-1407 666.5,-1407 618,-1407"/>
<polygon fill="#666666" stroke="#666666" points="618,-1391 618,-1391 666.5,-1391 666.5,-1391 618,-1391"/>
<polygon fill="none" stroke="#666666" points="618,-1373 618,-1425 666.5,-1425 666.5,-1373 618,-1373"/>
</a>
</g>
</g>
<!-- Node7&#45;&gt;Node6 -->
<g id="edge6_Node000006_Node000007" class="edge">
<title>Node7&#45;&gt;Node6</title>
<g id="a_edge6_Node000006_Node000007"><a xlink:title=" ">
<path fill="none" stroke="#63b8ff" d="M642.25,-1361.8C642.25,-1314.91 642.25,-1232.3 642.25,-1173.86"/>
<polygon fill="none" stroke="#63b8ff" points="638.75,-1361.68 642.25,-1371.68 645.75,-1361.68 638.75,-1361.68"/>
</a>
</g>
</g>
</g>
</svg>

<g id="navigator" transform="translate(0 0)" fill="#404254">
  <rect fill="#f2f5e9" fill-opacity="0.5" stroke="#606060" stroke-width=".5" x="0" y="0" width="60" height="60"/>
  <use id="zoomplus" xlink:href="#zoomPlus" x="17" y="9" onmousedown="handleZoom(evt,'in')"/>
  <use id="zoomminus" xlink:href="#zoomMin" x="42" y="9" onmousedown="handleZoom(evt,'out')"/>
  <use id="reset" xlink:href="#resetDef" x="30" y="36" onmousedown="handleReset()"/>
   <use id="arrowup" xlink:href="#arrowUp" x="0" y="0" onmousedown="handlePan(0,-1)"/>
  <use id="arrowright" xlink:href="#arrowRight" x="0" y="0" onmousedown="handlePan(1,0)"/>
  <use id="arrowdown" xlink:href="#arrowDown" x="0" y="0" onmousedown="handlePan(0,1)"/>
  <use id="arrowleft" xlink:href="#arrowLeft" x="0" y="0" onmousedown="handlePan(-1,0)"/>
</g>
<svg viewBox="0 0 15 15" width="100%" height="30px" preserveAspectRatio="xMaxYMin meet">
 <g id="arrow_out" transform="scale(0.3 0.3)">
  <a xlink:href="classfr_1_1softsf_1_1sudokufx_1_1view_1_1_default_view__coll__graph_org.svg" target="_base">
   <rect id="button" ry="5" rx="5" y="6" x="6" height="38" width="38"
        fill="#f2f5e9" fill-opacity="0.5" stroke="#606060" stroke-width="1.0"/>
   <path id="arrow"
     d="M 11.500037,31.436501 C 11.940474,20.09759 22.043105,11.32322 32.158766,21.979434 L 37.068811,17.246167 C 37.068811,17.246167 37.088388,32 37.088388,32 L 22.160133,31.978069 C 22.160133,31.978069 26.997745,27.140456 26.997745,27.140456 C 18.528582,18.264221 13.291696,25.230495 11.500037,31.436501 z"
     style="fill:#404040;"/>
  </a>
 </g>
</svg>

<style type='text/css'>
<![CDATA[
[data-mouse-over-selected='false'] { opacity: 0.7; }
[data-mouse-over-selected='true']  { opacity: 1.0; }
]]>
</style>
<script type="application/ecmascript"><![CDATA[
document.addEventListener('DOMContentLoaded', (event) => {
  highlightEdges();
  highlightAdjacentNodes();
});
]]></script>
</svg>
