<?xml version="1.0" encoding="UTF-8" standalone="no"?>
<!DOCTYPE svg PUBLIC "-//W3C//DTD SVG 1.1//EN"
 "http://www.w3.org/Graphics/SVG/1.1/DTD/svg11.dtd">
<!-- Generated by graphviz version 12.2.1 (20241206.2353)
 -->
<!-- Title: fr.softsf.sudokufx.configuration.database.AbstractDataSourceConfig Pages: 1 -->
<!--zoomable 372 -->

<svg id="main" version="1.1" xmlns="http://www.w3.org/2000/svg" xmlns:xlink="http://www.w3.org/1999/xlink" xml:space="preserve" onload="init(evt)">

<style type="text/css"><![CDATA[
.node, .edge {opacity: 0.7;}
.node.selected, .edge.selected {opacity: 1;}
.edge:hover path { stroke: red; }
.edge:hover polygon { stroke: red; fill: red; }
]]></style>

<defs>
  <circle id="rim" cx="0" cy="0" r="7"/>
  <circle id="rim2" cx="0" cy="0" r="3.5"/>
  <g id="zoomPlus">
    <use xlink:href="#rim" fill="#404040"><set attributeName="fill" to="#808080" begin="zoomplus.mouseover" end="zoomplus.mouseout"/></use>
    <path d="M-4,0h8M0,-4v8" fill="none" stroke="white" stroke-width="1.5" pointer-events="none"/>
  </g>
  <g id="zoomMin">
    <use xlink:href="#rim" fill="#404040"><set attributeName="fill" to="#808080" begin="zoomminus.mouseover" end="zoomminus.mouseout"/></use>
    <path d="M-4,0h8" fill="none" stroke="white" stroke-width="1.5" pointer-events="none"/>
  </g>
  <g id="arrowUp" transform="translate(30 24)">
    <use xlink:href="#rim"/>
    <path pointer-events="none" fill="none" stroke="white" stroke-width="1.5" d="M0,-3.0v7 M-2.5,-0.5L0,-3.0L2.5,-0.5"/>
  </g>
  <g id="arrowRight" transform="rotate(90) translate(36 -43)">
    <use xlink:href="#rim"/>
    <path pointer-events="none" fill="none" stroke="white" stroke-width="1.5" d="M0,-3.0v7 M-2.5,-0.5L0,-3.0L2.5,-0.5"/>
  </g>
  <g id="arrowDown" transform="rotate(180) translate(-30 -48)">
    <use xlink:href="#rim"/>
    <path pointer-events="none" fill="none" stroke="white" stroke-width="1.5" d="M0,-3.0v7 M-2.5,-0.5L0,-3.0L2.5,-0.5"/>
  </g>
  <g id="arrowLeft" transform="rotate(270) translate(-36 17)">
    <use xlink:href="#rim"/>
    <path pointer-events="none" fill="none" stroke="white" stroke-width="1.5" d="M0,-3.0v7 M-2.5,-0.5L0,-3.0L2.5,-0.5"/>
  </g>
  <g id="resetDef">
    <use xlink:href="#rim2" fill="#404040"><set attributeName="fill" to="#808080" begin="reset.mouseover" end="reset.mouseout"/></use>
  </g>
</defs>
<script type="application/ecmascript">
var viewWidth = 641;
var viewHeight = 372;
var sectionId = 'dynsection-0';
</script>
<script type="application/ecmascript" xlink:href="svg.min.js"/>
<svg id="graph" class="graph">
<g id="viewport">
<title>fr.softsf.sudokufx.configuration.database.AbstractDataSourceConfig</title>
<!-- Node1 -->
<g id="Node000001" class="node">
<title>Node1</title>
<g id="a_Node000001"><a xlink:title="Abstract configuration class for setting up the application&#39;s data source.">
<polygon fill="#999999" stroke="none" points="410.75,-364 222,-364 222,-124 410.75,-124 410.75,-364"/>
<text text-anchor="start" x="226" y="-350.5" font-family="Helvetica,sans-Serif" font-size="10.00">fr.softsf.sudokufx.configuration.database.</text>
<text text-anchor="start" x="257.88" y="-338.5" font-family="Helvetica,sans-Serif" font-size="10.00">AbstractDataSourceConfig</text>
<text text-anchor="start" x="230.25" y="-322.5" font-family="Helvetica,sans-Serif" font-size="10.00">&#45;</text>
<text text-anchor="start" x="241.5" y="-322.5" font-family="Helvetica,sans-Serif" font-size="10.00">String jdbcUrl</text>
<text text-anchor="start" x="230.25" y="-306.5" font-family="Helvetica,sans-Serif" font-size="10.00">&#45;</text>
<text text-anchor="start" x="241.5" y="-306.5" font-family="Helvetica,sans-Serif" font-size="10.00">String poolName</text>
<text text-anchor="start" x="228.75" y="-290.5" font-family="Helvetica,sans-Serif" font-size="10.00">+</text>
<text text-anchor="start" x="241.5" y="-290.5" font-family="Helvetica,sans-Serif" font-size="10.00">void setJdbcUrl(String</text>
<text text-anchor="start" x="241.5" y="-278.5" font-family="Helvetica,sans-Serif" font-size="10.00"> jdbcUrl)</text>
<text text-anchor="start" x="228.75" y="-262.5" font-family="Helvetica,sans-Serif" font-size="10.00">+</text>
<text text-anchor="start" x="241.5" y="-262.5" font-family="Helvetica,sans-Serif" font-size="10.00">void setPoolName(String</text>
<text text-anchor="start" x="241.5" y="-250.5" font-family="Helvetica,sans-Serif" font-size="10.00"> poolName)</text>
<text text-anchor="start" x="228.75" y="-234.5" font-family="Helvetica,sans-Serif" font-size="10.00">~</text>
<text text-anchor="start" x="241.5" y="-234.5" font-family="Helvetica,sans-Serif" font-size="10.00">Flyway flyway(final</text>
<text text-anchor="start" x="241.5" y="-222.5" font-family="Helvetica,sans-Serif" font-size="10.00"> HikariDataSource hikariData</text>
<text text-anchor="start" x="241.5" y="-210.5" font-family="Helvetica,sans-Serif" font-size="10.00">Source)</text>
<text text-anchor="start" x="228.75" y="-194.5" font-family="Helvetica,sans-Serif" font-size="10.00">~</text>
<text text-anchor="start" x="241.5" y="-194.5" font-family="Helvetica,sans-Serif" font-size="10.00">HikariDataSource hikariData</text>
<text text-anchor="start" x="241.5" y="-182.5" font-family="Helvetica,sans-Serif" font-size="10.00">Source(final IKeystore iKeystore,</text>
<text text-anchor="start" x="241.5" y="-170.5" font-family="Helvetica,sans-Serif" font-size="10.00"> IOsFolderFactory iOsFolderFactory)</text>
<text text-anchor="start" x="228.75" y="-154.5" font-family="Helvetica,sans-Serif" font-size="10.00">~</text>
<text text-anchor="start" x="241.5" y="-154.5" font-family="Helvetica,sans-Serif" font-size="10.00">int logbackInitialization</text>
<text text-anchor="start" x="241.5" y="-142.5" font-family="Helvetica,sans-Serif" font-size="10.00">(final MyLogbackConfig</text>
<text text-anchor="start" x="241.5" y="-130.5" font-family="Helvetica,sans-Serif" font-size="10.00"> myLogbackConfig)</text>
<polygon fill="#666666" stroke="#666666" points="222,-334 222,-334 410.75,-334 410.75,-334 222,-334"/>
<polygon fill="#666666" stroke="#666666" points="222,-302 222,-302 239.5,-302 239.5,-302 222,-302"/>
<polygon fill="#666666" stroke="#666666" points="239.5,-302 239.5,-302 410.75,-302 410.75,-302 239.5,-302"/>
<polygon fill="none" stroke="#666666" points="222,-124 222,-364 410.75,-364 410.75,-124 222,-124"/>
</a>
</g>
</g>
<!-- Node2 -->
<g id="Node000002" class="node">
<title>Node2</title>
<g id="a_Node000002"><a xlink:href="classfr_1_1softsf_1_1sudokufx_1_1configuration_1_1database_1_1_data_source_config_cds.html" target="_top" xlink:title="Overrides Abstract DataSource hikariDataSource for the CDS profile.">
<polygon fill="white" stroke="none" points="198.75,-88 0,-88 0,0 198.75,0 198.75,-88"/>
<text text-anchor="start" x="9" y="-74.5" font-family="Helvetica,sans-Serif" font-size="10.00">fr.softsf.sudokufx.configuration.database.</text>
<text text-anchor="start" x="50.25" y="-62.5" font-family="Helvetica,sans-Serif" font-size="10.00">DataSourceConfigCds</text>
<text text-anchor="start" x="97.88" y="-46.5" font-family="Helvetica,sans-Serif" font-size="10.00"> </text>
<text text-anchor="start" x="4" y="-30.5" font-family="Helvetica,sans-Serif" font-size="10.00">~</text>
<text text-anchor="start" x="14" y="-30.5" font-family="Helvetica,sans-Serif" font-size="10.00">HikariDataSource hikariData</text>
<text text-anchor="start" x="14" y="-18.5" font-family="Helvetica,sans-Serif" font-size="10.00">Source(final IKeystore iKeystore,</text>
<text text-anchor="start" x="14" y="-6.5" font-family="Helvetica,sans-Serif" font-size="10.00"> final IOsFolderFactory iOsFolderFactory)</text>
<polygon fill="#666666" stroke="#666666" points="0,-58 0,-58 198.75,-58 198.75,-58 0,-58"/>
<polygon fill="#666666" stroke="#666666" points="0,-42 0,-42 198.75,-42 198.75,-42 0,-42"/>
<polygon fill="none" stroke="#666666" points="0,0 0,-88 198.75,-88 198.75,0 0,0"/>
</a>
</g>
</g>
<!-- Node1&#45;&gt;Node2 -->
<g id="edge1_Node000001_Node000002" class="edge">
<title>Node1&#45;&gt;Node2</title>
<g id="a_edge1_Node000001_Node000002"><a xlink:title=" ">
<path fill="none" stroke="#63b8ff" d="M213.82,-149.43C190.24,-127.91 166.29,-106.05 146.43,-87.93"/>
<polygon fill="none" stroke="#63b8ff" points="211.28,-151.84 221.02,-156 216,-146.67 211.28,-151.84"/>
</a>
</g>
</g>
<!-- Node3 -->
<g id="Node000003" class="node">
<title>Node3</title>
<g id="a_Node000003"><a xlink:href="classfr_1_1softsf_1_1sudokufx_1_1configuration_1_1database_1_1_data_source_config_default.html" target="_top" xlink:title="Overrides Abstract DataSource hikariDataSource for the default profile.">
<polygon fill="white" stroke="none" points="415.75,-88 217,-88 217,0 415.75,0 415.75,-88"/>
<text text-anchor="start" x="226" y="-74.5" font-family="Helvetica,sans-Serif" font-size="10.00">fr.softsf.sudokufx.configuration.database.</text>
<text text-anchor="start" x="260.5" y="-62.5" font-family="Helvetica,sans-Serif" font-size="10.00">DataSourceConfigDefault</text>
<text text-anchor="start" x="314.88" y="-46.5" font-family="Helvetica,sans-Serif" font-size="10.00"> </text>
<text text-anchor="start" x="221" y="-30.5" font-family="Helvetica,sans-Serif" font-size="10.00">~</text>
<text text-anchor="start" x="231" y="-30.5" font-family="Helvetica,sans-Serif" font-size="10.00">HikariDataSource hikariData</text>
<text text-anchor="start" x="231" y="-18.5" font-family="Helvetica,sans-Serif" font-size="10.00">Source(final IKeystore iKeystore,</text>
<text text-anchor="start" x="231" y="-6.5" font-family="Helvetica,sans-Serif" font-size="10.00"> final IOsFolderFactory iOsFolderFactory)</text>
<polygon fill="#666666" stroke="#666666" points="217,-58 217,-58 415.75,-58 415.75,-58 217,-58"/>
<polygon fill="#666666" stroke="#666666" points="217,-42 217,-42 415.75,-42 415.75,-42 217,-42"/>
<polygon fill="none" stroke="#666666" points="217,0 217,-88 415.75,-88 415.75,0 217,0"/>
</a>
</g>
</g>
<!-- Node1&#45;&gt;Node3 -->
<g id="edge2_Node000001_Node000003" class="edge">
<title>Node1&#45;&gt;Node3</title>
<g id="a_edge2_Node000001_Node000003"><a xlink:title=" ">
<path fill="none" stroke="#63b8ff" d="M316.38,-112.84C316.38,-104.08 316.38,-95.69 316.38,-87.97"/>
<polygon fill="none" stroke="#63b8ff" points="312.88,-112.59 316.38,-122.59 319.88,-112.59 312.88,-112.59"/>
</a>
</g>
</g>
<!-- Node4 -->
<g id="Node000004" class="node">
<title>Node4</title>
<g id="a_Node000004"><a xlink:href="classfr_1_1softsf_1_1sudokufx_1_1configuration_1_1database_1_1_data_source_config_test.html" target="_top" xlink:title="Overrides Abstract DataSource hikariDataSource for the test profile.">
<polygon fill="white" stroke="none" points="632.75,-88 434,-88 434,0 632.75,0 632.75,-88"/>
<text text-anchor="start" x="443" y="-74.5" font-family="Helvetica,sans-Serif" font-size="10.00">fr.softsf.sudokufx.configuration.database.</text>
<text text-anchor="start" x="483.88" y="-62.5" font-family="Helvetica,sans-Serif" font-size="10.00">DataSourceConfigTest</text>
<text text-anchor="start" x="531.88" y="-46.5" font-family="Helvetica,sans-Serif" font-size="10.00"> </text>
<text text-anchor="start" x="438" y="-30.5" font-family="Helvetica,sans-Serif" font-size="10.00">~</text>
<text text-anchor="start" x="448" y="-30.5" font-family="Helvetica,sans-Serif" font-size="10.00">HikariDataSource hikariData</text>
<text text-anchor="start" x="448" y="-18.5" font-family="Helvetica,sans-Serif" font-size="10.00">Source(final IKeystore iKeystore,</text>
<text text-anchor="start" x="448" y="-6.5" font-family="Helvetica,sans-Serif" font-size="10.00"> final IOsFolderFactory iOsFolderFactory)</text>
<polygon fill="#666666" stroke="#666666" points="434,-58 434,-58 632.75,-58 632.75,-58 434,-58"/>
<polygon fill="#666666" stroke="#666666" points="434,-42 434,-42 632.75,-42 632.75,-42 434,-42"/>
<polygon fill="none" stroke="#666666" points="434,0 434,-88 632.75,-88 632.75,0 434,0"/>
</a>
</g>
</g>
<!-- Node1&#45;&gt;Node4 -->
<g id="edge3_Node000001_Node000004" class="edge">
<title>Node1&#45;&gt;Node4</title>
<g id="a_edge3_Node000001_Node000004"><a xlink:title=" ">
<path fill="none" stroke="#63b8ff" d="M418.93,-149.43C442.51,-127.91 466.46,-106.05 486.32,-87.93"/>
<polygon fill="none" stroke="#63b8ff" points="416.75,-146.67 411.73,-156 421.47,-151.84 416.75,-146.67"/>
</a>
</g>
</g>
</g>
</svg>

<g id="navigator" transform="translate(0 0)" fill="#404254">
  <rect fill="#f2f5e9" fill-opacity="0.5" stroke="#606060" stroke-width=".5" x="0" y="0" width="60" height="60"/>
  <use id="zoomplus" xlink:href="#zoomPlus" x="17" y="9" onmousedown="handleZoom(evt,'in')"/>
  <use id="zoomminus" xlink:href="#zoomMin" x="42" y="9" onmousedown="handleZoom(evt,'out')"/>
  <use id="reset" xlink:href="#resetDef" x="30" y="36" onmousedown="handleReset()"/>
   <use id="arrowup" xlink:href="#arrowUp" x="0" y="0" onmousedown="handlePan(0,-1)"/>
  <use id="arrowright" xlink:href="#arrowRight" x="0" y="0" onmousedown="handlePan(1,0)"/>
  <use id="arrowdown" xlink:href="#arrowDown" x="0" y="0" onmousedown="handlePan(0,1)"/>
  <use id="arrowleft" xlink:href="#arrowLeft" x="0" y="0" onmousedown="handlePan(-1,0)"/>
</g>
<svg viewBox="0 0 15 15" width="100%" height="30px" preserveAspectRatio="xMaxYMin meet">
 <g id="arrow_out" transform="scale(0.3 0.3)">
  <a xlink:href="classfr_1_1softsf_1_1sudokufx_1_1configuration_1_1database_1_1_abstract_data_source_config__inherit__graph_org.svg" target="_base">
   <rect id="button" ry="5" rx="5" y="6" x="6" height="38" width="38"
        fill="#f2f5e9" fill-opacity="0.5" stroke="#606060" stroke-width="1.0"/>
   <path id="arrow"
     d="M 11.500037,31.436501 C 11.940474,20.09759 22.043105,11.32322 32.158766,21.979434 L 37.068811,17.246167 C 37.068811,17.246167 37.088388,32 37.088388,32 L 22.160133,31.978069 C 22.160133,31.978069 26.997745,27.140456 26.997745,27.140456 C 18.528582,18.264221 13.291696,25.230495 11.500037,31.436501 z"
     style="fill:#404040;"/>
  </a>
 </g>
</svg>

<style type='text/css'>
<![CDATA[
[data-mouse-over-selected='false'] { opacity: 0.7; }
[data-mouse-over-selected='true']  { opacity: 1.0; }
]]>
</style>
<script type="application/ecmascript"><![CDATA[
document.addEventListener('DOMContentLoaded', (event) => {
  highlightEdges();
  highlightAdjacentNodes();
});
]]></script>
</svg>
