<?xml version="1.0" encoding="UTF-8" standalone="no"?>
<!DOCTYPE svg PUBLIC "-//W3C//DTD SVG 1.1//EN"
 "http://www.w3.org/Graphics/SVG/1.1/DTD/svg11.dtd">
<!-- Generated by graphviz version 12.2.1 (20241206.2353)
 -->
<!-- Title: fr.softsf.sudokufx.viewmodel.grid.GridCellViewModel.GridCellViewModel Pages: 1 -->
<!--zoomable 330 -->

<svg id="main" version="1.1" xmlns="http://www.w3.org/2000/svg" xmlns:xlink="http://www.w3.org/1999/xlink" xml:space="preserve" onload="init(evt)">

<style type="text/css"><![CDATA[
.node, .edge {opacity: 0.7;}
.node.selected, .edge.selected {opacity: 1;}
.edge:hover path { stroke: red; }
.edge:hover polygon { stroke: red; fill: red; }
]]></style>

<defs>
  <circle id="rim" cx="0" cy="0" r="7"/>
  <circle id="rim2" cx="0" cy="0" r="3.5"/>
  <g id="zoomPlus">
    <use xlink:href="#rim" fill="#404040"><set attributeName="fill" to="#808080" begin="zoomplus.mouseover" end="zoomplus.mouseout"/></use>
    <path d="M-4,0h8M0,-4v8" fill="none" stroke="white" stroke-width="1.5" pointer-events="none"/>
  </g>
  <g id="zoomMin">
    <use xlink:href="#rim" fill="#404040"><set attributeName="fill" to="#808080" begin="zoomminus.mouseover" end="zoomminus.mouseout"/></use>
    <path d="M-4,0h8" fill="none" stroke="white" stroke-width="1.5" pointer-events="none"/>
  </g>
  <g id="arrowUp" transform="translate(30 24)">
    <use xlink:href="#rim"/>
    <path pointer-events="none" fill="none" stroke="white" stroke-width="1.5" d="M0,-3.0v7 M-2.5,-0.5L0,-3.0L2.5,-0.5"/>
  </g>
  <g id="arrowRight" transform="rotate(90) translate(36 -43)">
    <use xlink:href="#rim"/>
    <path pointer-events="none" fill="none" stroke="white" stroke-width="1.5" d="M0,-3.0v7 M-2.5,-0.5L0,-3.0L2.5,-0.5"/>
  </g>
  <g id="arrowDown" transform="rotate(180) translate(-30 -48)">
    <use xlink:href="#rim"/>
    <path pointer-events="none" fill="none" stroke="white" stroke-width="1.5" d="M0,-3.0v7 M-2.5,-0.5L0,-3.0L2.5,-0.5"/>
  </g>
  <g id="arrowLeft" transform="rotate(270) translate(-36 17)">
    <use xlink:href="#rim"/>
    <path pointer-events="none" fill="none" stroke="white" stroke-width="1.5" d="M0,-3.0v7 M-2.5,-0.5L0,-3.0L2.5,-0.5"/>
  </g>
  <g id="resetDef">
    <use xlink:href="#rim2" fill="#404040"><set attributeName="fill" to="#808080" begin="reset.mouseover" end="reset.mouseout"/></use>
  </g>
</defs>
<script type="application/ecmascript">
var viewWidth = 1080;
var viewHeight = 330;
var sectionId = 'dynsection-1';
</script>
<script type="application/ecmascript" xlink:href="svg.min.js"/>
<svg id="graph" class="graph">
<g id="viewport">
<title>fr.softsf.sudokufx.viewmodel.grid.GridCellViewModel.GridCellViewModel</title>
<!-- Node1 -->
<g id="Node000001" class="node">
<title>Node1</title>
<g id="a_Node000001"><a xlink:title=" ">
<polygon fill="#999999" stroke="#666666" points="185.5,-127 0,-127 0,-95 185.5,-95 185.5,-127"/>
<text text-anchor="start" x="8" y="-113.5" font-family="Helvetica,sans-Serif" font-size="10.00">fr.softsf.sudokufx.viewmodel.grid.</text>
<text text-anchor="middle" x="92.75" y="-101.5" font-family="Helvetica,sans-Serif" font-size="10.00">GridCellViewModel.GridCellViewModel</text>
</a>
</g>
</g>
<!-- Node2 -->
<g id="Node000002" class="node">
<title>Node2</title>
<g id="a_Node000002"><a xlink:href="classfr_1_1softsf_1_1sudokufx_1_1viewmodel_1_1grid_1_1_grid_cell_view_model.html#a38d783156f2f2ad694cfbec5062de472" target="_top" xlink:title="Applies a computed border style to a JavaFX node, based on content length, focus state,...">
<polygon fill="white" stroke="#666666" points="869.5,-314 693,-314 693,-282 869.5,-282 869.5,-314"/>
<text text-anchor="start" x="701" y="-300.5" font-family="Helvetica,sans-Serif" font-size="10.00">fr.softsf.sudokufx.viewmodel.grid.</text>
<text text-anchor="middle" x="781.25" y="-288.5" font-family="Helvetica,sans-Serif" font-size="10.00">GridCellViewModel.applyBorderStyle</text>
</a>
</g>
</g>
<!-- Node1&#45;&gt;Node2 -->
<g id="edge1_Node000001_Node000002" class="edge">
<title>Node1&#45;&gt;Node2</title>
<g id="a_edge1_Node000001_Node000002"><a xlink:title=" ">
<path fill="none" stroke="#63b8ff" d="M115.07,-127.42C169.38,-168.07 318.9,-272.76 463.25,-309 534.8,-326.96 618.27,-323.11 681.59,-315.36"/>
<polygon fill="#63b8ff" stroke="#63b8ff" points="681.8,-318.87 691.27,-314.12 680.9,-311.92 681.8,-318.87"/>
</a>
</g>
</g>
<!-- Node4 -->
<g id="Node000004" class="node">
<title>Node4</title>
<g id="a_Node000004"><a xlink:href="classfr_1_1softsf_1_1sudokufx_1_1viewmodel_1_1grid_1_1_grid_cell_view_model.html#a0d1630abe71ae622f3522fbed9855750" target="_top" xlink:title="Formats a raw digit string (1–9) into a 3&#45;line spaced grid display.">
<polygon fill="white" stroke="#666666" points="642,-32 478.25,-32 478.25,0 642,0 642,-32"/>
<text text-anchor="start" x="486.25" y="-18.5" font-family="Helvetica,sans-Serif" font-size="10.00">fr.softsf.sudokufx.viewmodel.grid.</text>
<text text-anchor="middle" x="560.12" y="-6.5" font-family="Helvetica,sans-Serif" font-size="10.00">GridCellViewModel.formatText</text>
</a>
</g>
</g>
<!-- Node1&#45;&gt;Node4 -->
<g id="edge3_Node000001_Node000004" class="edge">
<title>Node1&#45;&gt;Node4</title>
<g id="a_edge3_Node000001_Node000004"><a xlink:title=" ">
<path fill="none" stroke="#63b8ff" d="M185.81,-96.51C253,-85.43 346.13,-69.03 427.25,-51 447.83,-46.42 470.05,-40.8 490.27,-35.41"/>
<polygon fill="#63b8ff" stroke="#63b8ff" points="491.07,-38.82 499.81,-32.84 489.25,-32.06 491.07,-38.82"/>
</a>
</g>
</g>
<!-- Node7 -->
<g id="Node000007" class="node">
<title>Node7</title>
<g id="a_Node000007"><a xlink:href="classfr_1_1softsf_1_1sudokufx_1_1viewmodel_1_1grid_1_1_grid_cell_view_model.html#aadd59b021db2e0fdad7e24de4a6a7cd8" target="_top" xlink:title="Binds the label&#39;s accessible text to a localized, formatted string reflecting the cell&#39;s value and 1&#45;...">
<polygon fill="white" stroke="#666666" points="427.25,-42 221.5,-42 221.5,-10 427.25,-10 427.25,-42"/>
<text text-anchor="start" x="229.5" y="-28.5" font-family="Helvetica,sans-Serif" font-size="10.00">fr.softsf.sudokufx.viewmodel.grid.</text>
<text text-anchor="middle" x="324.38" y="-16.5" font-family="Helvetica,sans-Serif" font-size="10.00">GridCellViewModel.setLabelAccessibleText</text>
</a>
</g>
</g>
<!-- Node1&#45;&gt;Node7 -->
<g id="edge6_Node000001_Node000007" class="edge">
<title>Node1&#45;&gt;Node7</title>
<g id="a_edge6_Node000001_Node000007"><a xlink:title=" ">
<path fill="none" stroke="#63b8ff" d="M138.3,-94.51C175.45,-80.76 228.56,-61.1 268.36,-46.36"/>
<polygon fill="#63b8ff" stroke="#63b8ff" points="269.37,-49.72 277.53,-42.97 266.94,-43.16 269.37,-49.72"/>
</a>
</g>
</g>
<!-- Node8 -->
<g id="Node000008" class="node">
<title>Node8</title>
<g id="a_Node000008"><a xlink:href="classfr_1_1softsf_1_1sudokufx_1_1viewmodel_1_1grid_1_1_grid_cell_view_model.html#aaf198f919d0c3422e9f0150483873163" target="_top" xlink:title="Configures UI listeners and formatting logic:">
<polygon fill="white" stroke="#666666" points="407.38,-158 241.38,-158 241.38,-126 407.38,-126 407.38,-158"/>
<text text-anchor="start" x="249.38" y="-144.5" font-family="Helvetica,sans-Serif" font-size="10.00">fr.softsf.sudokufx.viewmodel.grid.</text>
<text text-anchor="middle" x="324.38" y="-132.5" font-family="Helvetica,sans-Serif" font-size="10.00">GridCellViewModel.setupListeners</text>
</a>
</g>
</g>
<!-- Node1&#45;&gt;Node8 -->
<g id="edge8_Node000001_Node000008" class="edge">
<title>Node1&#45;&gt;Node8</title>
<g id="a_edge8_Node000001_Node000008"><a xlink:title=" ">
<path fill="none" stroke="#63b8ff" d="M185.82,-123.43C200.34,-125.39 215.36,-127.42 229.91,-129.38"/>
<polygon fill="#63b8ff" stroke="#63b8ff" points="229.05,-132.8 239.43,-130.67 229.98,-125.86 229.05,-132.8"/>
</a>
</g>
</g>
<!-- Node3 -->
<g id="Node000003" class="node">
<title>Node3</title>
<g id="a_Node000003"><a xlink:href="classfr_1_1softsf_1_1sudokufx_1_1viewmodel_1_1grid_1_1_grid_cell_view_model.html#a02837ccd8bb4343e172b8fe4d7854b25" target="_top" xlink:title="Builds the CSS style for a Sudoku grid cell.">
<polygon fill="white" stroke="#666666" points="1072.25,-314 905.5,-314 905.5,-282 1072.25,-282 1072.25,-314"/>
<text text-anchor="start" x="913.5" y="-300.5" font-family="Helvetica,sans-Serif" font-size="10.00">fr.softsf.sudokufx.viewmodel.grid.</text>
<text text-anchor="middle" x="988.88" y="-288.5" font-family="Helvetica,sans-Serif" font-size="10.00">GridCellViewModel.getBorderStyle</text>
</a>
</g>
</g>
<!-- Node2&#45;&gt;Node3 -->
<g id="edge2_Node000002_Node000003" class="edge">
<title>Node2&#45;&gt;Node3</title>
<g id="a_edge2_Node000002_Node000003"><a xlink:title=" ">
<path fill="none" stroke="#63b8ff" d="M869.75,-298C877.7,-298 885.78,-298 893.78,-298"/>
<polygon fill="#63b8ff" stroke="#63b8ff" points="893.51,-301.5 903.51,-298 893.51,-294.5 893.51,-301.5"/>
</a>
</g>
</g>
<!-- Node5 -->
<g id="Node000005" class="node">
<title>Node5</title>
<g id="a_Node000005"><a xlink:href="classfr_1_1softsf_1_1sudokufx_1_1viewmodel_1_1grid_1_1_grid_cell_view_model.html#ae0d01b28db4394dc49b5f5a0c1a3f2ec" target="_top" xlink:title="Inserts line breaks every 3 digits in the filtered string, with a maximum of two line breaks,...">
<polygon fill="white" stroke="#666666" points="864.25,-101 698.25,-101 698.25,-69 864.25,-69 864.25,-101"/>
<text text-anchor="start" x="706.25" y="-87.5" font-family="Helvetica,sans-Serif" font-size="10.00">fr.softsf.sudokufx.viewmodel.grid.</text>
<text text-anchor="middle" x="781.25" y="-75.5" font-family="Helvetica,sans-Serif" font-size="10.00">GridCellViewModel.formatMultiline</text>
</a>
</g>
</g>
<!-- Node4&#45;&gt;Node5 -->
<g id="edge4_Node000004_Node000005" class="edge">
<title>Node4&#45;&gt;Node5</title>
<g id="a_edge4_Node000004_Node000005"><a xlink:title=" ">
<path fill="none" stroke="#63b8ff" d="M613.33,-32.44C644.49,-42.25 684.28,-54.78 717.19,-65.14"/>
<polygon fill="#63b8ff" stroke="#63b8ff" points="716.03,-68.45 726.62,-68.11 718.13,-61.77 716.03,-68.45"/>
</a>
</g>
</g>
<!-- Node6 -->
<g id="Node000006" class="node">
<title>Node6</title>
<g id="a_Node000006"><a xlink:href="classfr_1_1softsf_1_1sudokufx_1_1viewmodel_1_1grid_1_1_grid_cell_view_model.html#aac96cce43da018085f8e390d31aeeb33" target="_top" xlink:title="Filters the input string to digits 1–9, removes duplicates, sorts ascending, and limits to 9 characte...">
<polygon fill="white" stroke="#666666" points="864.25,-38 698.25,-38 698.25,-6 864.25,-6 864.25,-38"/>
<text text-anchor="start" x="706.25" y="-24.5" font-family="Helvetica,sans-Serif" font-size="10.00">fr.softsf.sudokufx.viewmodel.grid.</text>
<text text-anchor="middle" x="781.25" y="-12.5" font-family="Helvetica,sans-Serif" font-size="10.00">GridCellViewModel.normalizeInput</text>
</a>
</g>
</g>
<!-- Node4&#45;&gt;Node6 -->
<g id="edge5_Node000004_Node000006" class="edge">
<title>Node4&#45;&gt;Node6</title>
<g id="a_edge5_Node000004_Node000006"><a xlink:title=" ">
<path fill="none" stroke="#63b8ff" d="M642.41,-18.23C656.87,-18.62 672.04,-19.04 686.8,-19.44"/>
<polygon fill="#63b8ff" stroke="#63b8ff" points="686.4,-22.93 696.49,-19.71 686.59,-15.93 686.4,-22.93"/>
</a>
</g>
</g>
<!-- Node7&#45;&gt;Node4 -->
<g id="edge7_Node000007_Node000004" class="edge">
<title>Node7&#45;&gt;Node4</title>
<g id="a_edge7_Node000007_Node000004"><a xlink:title=" ">
<path fill="none" stroke="#63b8ff" d="M427.56,-21.63C440.58,-21.07 453.84,-20.5 466.69,-19.95"/>
<polygon fill="#63b8ff" stroke="#63b8ff" points="466.51,-23.47 476.35,-19.54 466.21,-16.47 466.51,-23.47"/>
</a>
</g>
</g>
<!-- Node8&#45;&gt;Node2 -->
<g id="edge9_Node000008_Node000002" class="edge">
<title>Node8&#45;&gt;Node2</title>
<g id="a_edge9_Node000008_Node000002"><a xlink:title=" ">
<path fill="none" stroke="#63b8ff" d="M335.83,-158.44C356.13,-188.7 404.12,-252.52 463.25,-279 531.49,-309.56 616.38,-313.07 681.14,-309.62"/>
<polygon fill="#63b8ff" stroke="#63b8ff" points="681.3,-313.12 691.07,-309.02 680.87,-306.13 681.3,-313.12"/>
</a>
</g>
</g>
<!-- Node8&#45;&gt;Node5 -->
<g id="edge10_Node000008_Node000005" class="edge">
<title>Node8&#45;&gt;Node5</title>
<g id="a_edge10_Node000008_Node000005"><a xlink:title=" ">
<path fill="none" stroke="#63b8ff" d="M407.59,-126C425.87,-122.75 445.18,-119.55 463.25,-117 538.17,-106.44 623.53,-98.03 686.79,-92.49"/>
<polygon fill="#63b8ff" stroke="#63b8ff" points="686.77,-96 696.43,-91.65 686.16,-89.03 686.77,-96"/>
</a>
</g>
</g>
<!-- Node8&#45;&gt;Node6 -->
<g id="edge11_Node000008_Node000006" class="edge">
<title>Node8&#45;&gt;Node6</title>
<g id="a_edge11_Node000008_Node000006"><a xlink:title=" ">
<path fill="none" stroke="#63b8ff" d="M366.24,-125.59C393.43,-115.07 430.12,-101.62 463.25,-92 537.54,-70.43 623.3,-51.86 686.87,-39.29"/>
<polygon fill="#63b8ff" stroke="#63b8ff" points="687.45,-42.74 696.58,-37.38 686.1,-35.87 687.45,-42.74"/>
</a>
</g>
</g>
<!-- Node9 -->
<g id="Node000009" class="node">
<title>Node9</title>
<g id="a_Node000009"><a xlink:href="classfr_1_1softsf_1_1sudokufx_1_1viewmodel_1_1grid_1_1_grid_cell_view_model.html#a2a551d4792b3263e749994098c3b3748" target="_top" xlink:title="Updates CSS style classes on label and text area to reflect the editable state.">
<polygon fill="white" stroke="#666666" points="646.88,-158 473.38,-158 473.38,-126 646.88,-126 646.88,-158"/>
<text text-anchor="start" x="481.38" y="-144.5" font-family="Helvetica,sans-Serif" font-size="10.00">fr.softsf.sudokufx.viewmodel.grid.</text>
<text text-anchor="middle" x="560.12" y="-132.5" font-family="Helvetica,sans-Serif" font-size="10.00">GridCellViewModel.setEditableStyle</text>
</a>
</g>
</g>
<!-- Node8&#45;&gt;Node9 -->
<g id="edge12_Node000008_Node000009" class="edge">
<title>Node8&#45;&gt;Node9</title>
<g id="a_edge12_Node000008_Node000009"><a xlink:title=" ">
<path fill="none" stroke="#63b8ff" d="M407.79,-142C425.23,-142 443.8,-142 461.73,-142"/>
<polygon fill="#63b8ff" stroke="#63b8ff" points="461.59,-145.5 471.59,-142 461.59,-138.5 461.59,-145.5"/>
</a>
</g>
</g>
<!-- Node11 -->
<g id="Node000011" class="node">
<title>Node11</title>
<g id="a_Node000011"><a xlink:href="classfr_1_1softsf_1_1sudokufx_1_1viewmodel_1_1grid_1_1_grid_cell_view_model.html#ac95db9585f2ba2ed12d60dd5cca39461" target="_top" xlink:title="Switches from read&#45;only mode (Label visible) to edit mode (TextArea visible), focusing the TextArea a...">
<polygon fill="white" stroke="#666666" points="651.38,-208 468.88,-208 468.88,-176 651.38,-176 651.38,-208"/>
<text text-anchor="start" x="476.88" y="-194.5" font-family="Helvetica,sans-Serif" font-size="10.00">fr.softsf.sudokufx.viewmodel.grid.</text>
<text text-anchor="middle" x="560.12" y="-182.5" font-family="Helvetica,sans-Serif" font-size="10.00">GridCellViewModel.switchToEditMode</text>
</a>
</g>
</g>
<!-- Node8&#45;&gt;Node11 -->
<g id="edge14_Node000008_Node000011" class="edge">
<title>Node8&#45;&gt;Node11</title>
<g id="a_edge14_Node000008_Node000011"><a xlink:title=" ">
<path fill="none" stroke="#63b8ff" d="M402.24,-158.44C424.31,-163.16 448.54,-168.35 471.22,-173.2"/>
<polygon fill="#63b8ff" stroke="#63b8ff" points="470.23,-176.56 480.74,-175.23 471.69,-169.72 470.23,-176.56"/>
</a>
</g>
</g>
<!-- Node12 -->
<g id="Node000012" class="node">
<title>Node12</title>
<g id="a_Node000012"><a xlink:href="classfr_1_1softsf_1_1sudokufx_1_1viewmodel_1_1grid_1_1_grid_cell_view_model.html#a9544acad3febede6981c9d8440674d3c" target="_top" xlink:title="Updates the label&#39;s font size CSS class and border style based on the current text content.">
<polygon fill="white" stroke="#666666" points="657,-270 463.25,-270 463.25,-226 657,-226 657,-270"/>
<text text-anchor="start" x="471.25" y="-256.5" font-family="Helvetica,sans-Serif" font-size="10.00">fr.softsf.sudokufx.viewmodel.grid.</text>
<text text-anchor="start" x="471.25" y="-244.5" font-family="Helvetica,sans-Serif" font-size="10.00">GridCellViewModel.updateLabelFontSize</text>
<text text-anchor="middle" x="560.12" y="-232.5" font-family="Helvetica,sans-Serif" font-size="10.00">AndBorderOnTextChange</text>
</a>
</g>
</g>
<!-- Node8&#45;&gt;Node12 -->
<g id="edge16_Node000008_Node000012" class="edge">
<title>Node8&#45;&gt;Node12</title>
<g id="a_edge16_Node000008_Node000012"><a xlink:title=" ">
<path fill="none" stroke="#63b8ff" d="M352.1,-158.48C379.35,-174.81 423.19,-199.8 463.25,-217 466.86,-218.55 470.57,-220.06 474.33,-221.54"/>
<polygon fill="#63b8ff" stroke="#63b8ff" points="473.06,-224.8 483.65,-225.05 475.53,-218.25 473.06,-224.8"/>
</a>
</g>
</g>
<!-- Node10 -->
<g id="Node000010" class="node">
<title>Node10</title>
<g id="a_Node000010"><a xlink:href="classfr_1_1softsf_1_1sudokufx_1_1viewmodel_1_1grid_1_1_grid_cell_view_model.html#ab27ee3baeb1c9260e8617a680a5ef215" target="_top" xlink:title=" ">
<polygon fill="white" stroke="#666666" points="863.12,-183 699.38,-183 699.38,-151 863.12,-151 863.12,-183"/>
<text text-anchor="start" x="707.38" y="-169.5" font-family="Helvetica,sans-Serif" font-size="10.00">fr.softsf.sudokufx.viewmodel.grid.</text>
<text text-anchor="middle" x="781.25" y="-157.5" font-family="Helvetica,sans-Serif" font-size="10.00">GridCellViewModel.isEditable</text>
</a>
</g>
</g>
<!-- Node9&#45;&gt;Node10 -->
<g id="edge13_Node000009_Node000010" class="edge">
<title>Node9&#45;&gt;Node10</title>
<g id="a_edge13_Node000009_Node000010"><a xlink:title=" ">
<path fill="none" stroke="#63b8ff" d="M647.1,-151.81C660.5,-153.34 674.38,-154.92 687.91,-156.47"/>
<polygon fill="#63b8ff" stroke="#63b8ff" points="687.34,-159.92 697.67,-157.58 688.13,-152.97 687.34,-159.92"/>
</a>
</g>
</g>
<!-- Node11&#45;&gt;Node10 -->
<g id="edge15_Node000011_Node000010" class="edge">
<title>Node11&#45;&gt;Node10</title>
<g id="a_edge15_Node000011_Node000010"><a xlink:title=" ">
<path fill="none" stroke="#63b8ff" d="M651.83,-181.65C663.7,-180.3 675.87,-178.91 687.77,-177.55"/>
<polygon fill="#63b8ff" stroke="#63b8ff" points="688.03,-181.04 697.57,-176.43 687.23,-174.09 688.03,-181.04"/>
</a>
</g>
</g>
<!-- Node12&#45;&gt;Node2 -->
<g id="edge17_Node000012_Node000002" class="edge">
<title>Node12&#45;&gt;Node2</title>
<g id="a_edge17_Node000012_Node000002"><a xlink:title=" ">
<path fill="none" stroke="#63b8ff" d="M657.24,-269.93C670.62,-272.99 684.28,-276.1 697.39,-279.09"/>
<polygon fill="#63b8ff" stroke="#63b8ff" points="696.26,-282.43 706.79,-281.24 697.82,-275.6 696.26,-282.43"/>
</a>
</g>
</g>
</g>
</svg>

<g id="navigator" transform="translate(0 0)" fill="#404254">
  <rect fill="#f2f5e9" fill-opacity="0.5" stroke="#606060" stroke-width=".5" x="0" y="0" width="60" height="60"/>
  <use id="zoomplus" xlink:href="#zoomPlus" x="17" y="9" onmousedown="handleZoom(evt,'in')"/>
  <use id="zoomminus" xlink:href="#zoomMin" x="42" y="9" onmousedown="handleZoom(evt,'out')"/>
  <use id="reset" xlink:href="#resetDef" x="30" y="36" onmousedown="handleReset()"/>
   <use id="arrowup" xlink:href="#arrowUp" x="0" y="0" onmousedown="handlePan(0,-1)"/>
  <use id="arrowright" xlink:href="#arrowRight" x="0" y="0" onmousedown="handlePan(1,0)"/>
  <use id="arrowdown" xlink:href="#arrowDown" x="0" y="0" onmousedown="handlePan(0,1)"/>
  <use id="arrowleft" xlink:href="#arrowLeft" x="0" y="0" onmousedown="handlePan(-1,0)"/>
</g>
<svg viewBox="0 0 15 15" width="100%" height="30px" preserveAspectRatio="xMaxYMin meet">
 <g id="arrow_out" transform="scale(0.3 0.3)">
  <a xlink:href="classfr_1_1softsf_1_1sudokufx_1_1viewmodel_1_1grid_1_1_grid_cell_view_model_a6dd80845ee5865e89cbe229b0ee933c3_cgraph_org.svg" target="_base">
   <rect id="button" ry="5" rx="5" y="6" x="6" height="38" width="38"
        fill="#f2f5e9" fill-opacity="0.5" stroke="#606060" stroke-width="1.0"/>
   <path id="arrow"
     d="M 11.500037,31.436501 C 11.940474,20.09759 22.043105,11.32322 32.158766,21.979434 L 37.068811,17.246167 C 37.068811,17.246167 37.088388,32 37.088388,32 L 22.160133,31.978069 C 22.160133,31.978069 26.997745,27.140456 26.997745,27.140456 C 18.528582,18.264221 13.291696,25.230495 11.500037,31.436501 z"
     style="fill:#404040;"/>
  </a>
 </g>
</svg>

<style type='text/css'>
<![CDATA[
[data-mouse-over-selected='false'] { opacity: 0.7; }
[data-mouse-over-selected='true']  { opacity: 1.0; }
]]>
</style>
<script type="application/ecmascript"><![CDATA[
document.addEventListener('DOMContentLoaded', (event) => {
  highlightEdges();
  highlightAdjacentNodes();
});
]]></script>
</svg>
