<?xml version="1.0" encoding="UTF-8" standalone="no"?>
<!DOCTYPE svg PUBLIC "-//W3C//DTD SVG 1.1//EN"
 "http://www.w3.org/Graphics/SVG/1.1/DTD/svg11.dtd">
<!-- Generated by graphviz version 12.2.1 (20241206.2353)
 -->
<!-- Title: fr.softsf.sudokufx.view.main.MainView.initialize Pages: 1 -->
<!--zoomable 744 -->

<svg id="main" version="1.1" xmlns="http://www.w3.org/2000/svg" xmlns:xlink="http://www.w3.org/1999/xlink" xml:space="preserve" onload="init(evt)">

<style type="text/css"><![CDATA[
.node, .edge {opacity: 0.7;}
.node.selected, .edge.selected {opacity: 1;}
.edge:hover path { stroke: red; }
.edge:hover polygon { stroke: red; fill: red; }
]]></style>

<defs>
  <circle id="rim" cx="0" cy="0" r="7"/>
  <circle id="rim2" cx="0" cy="0" r="3.5"/>
  <g id="zoomPlus">
    <use xlink:href="#rim" fill="#404040"><set attributeName="fill" to="#808080" begin="zoomplus.mouseover" end="zoomplus.mouseout"/></use>
    <path d="M-4,0h8M0,-4v8" fill="none" stroke="white" stroke-width="1.5" pointer-events="none"/>
  </g>
  <g id="zoomMin">
    <use xlink:href="#rim" fill="#404040"><set attributeName="fill" to="#808080" begin="zoomminus.mouseover" end="zoomminus.mouseout"/></use>
    <path d="M-4,0h8" fill="none" stroke="white" stroke-width="1.5" pointer-events="none"/>
  </g>
  <g id="arrowUp" transform="translate(30 24)">
    <use xlink:href="#rim"/>
    <path pointer-events="none" fill="none" stroke="white" stroke-width="1.5" d="M0,-3.0v7 M-2.5,-0.5L0,-3.0L2.5,-0.5"/>
  </g>
  <g id="arrowRight" transform="rotate(90) translate(36 -43)">
    <use xlink:href="#rim"/>
    <path pointer-events="none" fill="none" stroke="white" stroke-width="1.5" d="M0,-3.0v7 M-2.5,-0.5L0,-3.0L2.5,-0.5"/>
  </g>
  <g id="arrowDown" transform="rotate(180) translate(-30 -48)">
    <use xlink:href="#rim"/>
    <path pointer-events="none" fill="none" stroke="white" stroke-width="1.5" d="M0,-3.0v7 M-2.5,-0.5L0,-3.0L2.5,-0.5"/>
  </g>
  <g id="arrowLeft" transform="rotate(270) translate(-36 17)">
    <use xlink:href="#rim"/>
    <path pointer-events="none" fill="none" stroke="white" stroke-width="1.5" d="M0,-3.0v7 M-2.5,-0.5L0,-3.0L2.5,-0.5"/>
  </g>
  <g id="resetDef">
    <use xlink:href="#rim2" fill="#404040"><set attributeName="fill" to="#808080" begin="reset.mouseover" end="reset.mouseout"/></use>
  </g>
</defs>
<script type="application/ecmascript">
var viewWidth = 808;
var viewHeight = 744;
var sectionId = 'dynsection-9';
</script>
<script type="application/ecmascript" xlink:href="svg.min.js"/>
<svg id="graph" class="graph">
<g id="viewport">
<title>fr.softsf.sudokufx.view.main.MainView.initialize</title>
<!-- Node1 -->
<g id="Node000001" class="node">
<title>Node1</title>
<g id="a_Node000001"><a xlink:title="Initializes the main view.">
<polygon fill="#999999" stroke="#666666" points="142,-382 0,-382 0,-350 142,-350 142,-382"/>
<text text-anchor="start" x="8" y="-368.5" font-family="Helvetica,sans-Serif" font-size="10.00">fr.softsf.sudokufx.view.main.</text>
<text text-anchor="middle" x="71" y="-356.5" font-family="Helvetica,sans-Serif" font-size="10.00">MainView.initialize</text>
</a>
</g>
</g>
<!-- Node2 -->
<g id="Node000002" class="node">
<title>Node2</title>
<g id="a_Node000002"><a xlink:href="classfr_1_1softsf_1_1sudokufx_1_1view_1_1main_1_1_main_view.html#a1343a98d2023ae2f641b7bebd6ad9976" target="_top" xlink:title="Initializes bindings between each menu pane&#39;s visibility and managed state and the corresponding valu...">
<polygon fill="white" stroke="#666666" points="383,-733 182.5,-733 182.5,-701 383,-701 383,-733"/>
<text text-anchor="start" x="190.5" y="-719.5" font-family="Helvetica,sans-Serif" font-size="10.00">fr.softsf.sudokufx.view.main.</text>
<text text-anchor="middle" x="282.75" y="-707.5" font-family="Helvetica,sans-Serif" font-size="10.00">MainView.activeMenuManagerInitialization</text>
</a>
</g>
</g>
<!-- Node1&#45;&gt;Node2 -->
<g id="edge1_Node000001_Node000002" class="edge">
<title>Node1&#45;&gt;Node2</title>
<g id="a_edge1_Node000001_Node000002"><a xlink:title=" ">
<path fill="none" stroke="#63b8ff" d="M72.12,-382.38C73.45,-435.47 85.12,-604.38 178,-691 179.23,-692.15 180.5,-693.25 181.82,-694.3"/>
<polygon fill="#63b8ff" stroke="#63b8ff" points="179.51,-696.96 189.73,-699.73 183.47,-691.19 179.51,-696.96"/>
</a>
</g>
</g>
<!-- Node4 -->
<g id="Node000004" class="node">
<title>Node4</title>
<g id="a_Node000004"><a xlink:href="classfr_1_1softsf_1_1sudokufx_1_1view_1_1main_1_1_main_view.html#ac88a722293c271e57a26d51c3cf01ffc" target="_top" xlink:title="Initializes the 9x9 Sudoku grid UI and loads the current grid values from the model if they exist.">
<polygon fill="white" stroke="#666666" points="353.75,-682 211.75,-682 211.75,-650 353.75,-650 353.75,-682"/>
<text text-anchor="start" x="219.75" y="-668.5" font-family="Helvetica,sans-Serif" font-size="10.00">fr.softsf.sudokufx.view.main.</text>
<text text-anchor="middle" x="282.75" y="-656.5" font-family="Helvetica,sans-Serif" font-size="10.00">MainView.gridInitialization</text>
</a>
</g>
</g>
<!-- Node1&#45;&gt;Node4 -->
<g id="edge3_Node000001_Node000004" class="edge">
<title>Node1&#45;&gt;Node4</title>
<g id="a_edge3_Node000001_Node000004"><a xlink:title=" ">
<path fill="none" stroke="#63b8ff" d="M73.18,-382.25C77.54,-429.83 97,-570.01 178,-641 184.66,-646.84 192.45,-651.37 200.72,-654.88"/>
<polygon fill="#63b8ff" stroke="#63b8ff" points="199.39,-658.11 209.98,-658.27 201.8,-651.54 199.39,-658.11"/>
</a>
</g>
</g>
<!-- Node6 -->
<g id="Node000006" class="node">
<title>Node6</title>
<g id="a_Node000006"><a xlink:href="classfr_1_1softsf_1_1sudokufx_1_1view_1_1main_1_1_main_view.html#ac70998c26718d8e4b12d0197942e1be9" target="_top" xlink:title="Initializes the hidden menu by binding its show button&#39;s accessible text and tooltip to the ViewModel...">
<polygon fill="white" stroke="#666666" points="365.38,-632 200.12,-632 200.12,-600 365.38,-600 365.38,-632"/>
<text text-anchor="start" x="208.12" y="-618.5" font-family="Helvetica,sans-Serif" font-size="10.00">fr.softsf.sudokufx.view.main.</text>
<text text-anchor="middle" x="282.75" y="-606.5" font-family="Helvetica,sans-Serif" font-size="10.00">MainView.hiddenMenuInitialization</text>
</a>
</g>
</g>
<!-- Node1&#45;&gt;Node6 -->
<g id="edge5_Node000001_Node000006" class="edge">
<title>Node1&#45;&gt;Node6</title>
<g id="a_edge5_Node000001_Node000006"><a xlink:title=" ">
<path fill="none" stroke="#63b8ff" d="M74.72,-382.27C82.55,-423.91 109.2,-534.96 178,-591 181.54,-593.88 185.35,-596.44 189.36,-598.71"/>
<polygon fill="#63b8ff" stroke="#63b8ff" points="187.79,-601.84 198.31,-603.11 190.88,-595.55 187.79,-601.84"/>
</a>
</g>
</g>
<!-- Node7 -->
<g id="Node000007" class="node">
<title>Node7</title>
<g id="a_Node000007"><a xlink:href="classfr_1_1softsf_1_1sudokufx_1_1view_1_1main_1_1_main_view.html#a3a91238dd9fbbfd65f850f1906685c60" target="_top" xlink:title="Initializes a Timeline that hides the MINI menu after AUTO_HIDE_MINI_MENU_DELAY_MS milliseconds if it...">
<polygon fill="white" stroke="#666666" points="387.5,-582 178,-582 178,-550 387.5,-550 387.5,-582"/>
<text text-anchor="start" x="186" y="-568.5" font-family="Helvetica,sans-Serif" font-size="10.00">fr.softsf.sudokufx.view.main.</text>
<text text-anchor="middle" x="282.75" y="-556.5" font-family="Helvetica,sans-Serif" font-size="10.00">MainView.hideMiniMenuTimelineInitialization</text>
</a>
</g>
</g>
<!-- Node1&#45;&gt;Node7 -->
<g id="edge6_Node000001_Node000007" class="edge">
<title>Node1&#45;&gt;Node7</title>
<g id="a_edge6_Node000001_Node000007"><a xlink:title=" ">
<path fill="none" stroke="#63b8ff" d="M77.11,-382.49C88.86,-417.5 121.23,-499.49 178,-541 179.54,-542.13 181.13,-543.21 182.75,-544.23"/>
<polygon fill="#63b8ff" stroke="#63b8ff" points="180.67,-547.08 191.11,-548.88 184.07,-540.96 180.67,-547.08"/>
</a>
</g>
</g>
<!-- Node8 -->
<g id="Node000008" class="node">
<title>Node8</title>
<g id="a_Node000008"><a xlink:href="classfr_1_1softsf_1_1sudokufx_1_1view_1_1main_1_1_main_view.html#aaf10a0f151e5b327c746c1b7174081ef" target="_top" xlink:title="Initializes each difficulty level section in the menu by binding UI components to ViewModel propertie...">
<polygon fill="white" stroke="#666666" points="363.88,-532 201.62,-532 201.62,-500 363.88,-500 363.88,-532"/>
<text text-anchor="start" x="209.62" y="-518.5" font-family="Helvetica,sans-Serif" font-size="10.00">fr.softsf.sudokufx.view.main.</text>
<text text-anchor="middle" x="282.75" y="-506.5" font-family="Helvetica,sans-Serif" font-size="10.00">MainView.levelsMenuInitialization</text>
</a>
</g>
</g>
<!-- Node1&#45;&gt;Node8 -->
<g id="edge7_Node000001_Node000008" class="edge">
<title>Node1&#45;&gt;Node8</title>
<g id="a_edge7_Node000001_Node000008"><a xlink:title=" ">
<path fill="none" stroke="#63b8ff" d="M81.08,-382.27C97.02,-409.26 132.69,-463.1 178,-491 182.04,-493.49 186.31,-495.73 190.72,-497.74"/>
<polygon fill="#63b8ff" stroke="#63b8ff" points="189.25,-500.92 199.83,-501.48 191.9,-494.45 189.25,-500.92"/>
</a>
</g>
</g>
<!-- Node16 -->
<g id="Node000016" class="node">
<title>Node16</title>
<g id="a_Node000016"><a xlink:href="classfr_1_1softsf_1_1sudokufx_1_1view_1_1main_1_1_main_view.html#ae7c8bc6f1d6298d2a0e8069c2dd65c0f" target="_top" xlink:title="Initializes the maxi menu components by binding their labels, accessible texts, and tooltips to the c...">
<polygon fill="white" stroke="#666666" points="361.62,-482 203.88,-482 203.88,-450 361.62,-450 361.62,-482"/>
<text text-anchor="start" x="211.88" y="-468.5" font-family="Helvetica,sans-Serif" font-size="10.00">fr.softsf.sudokufx.view.main.</text>
<text text-anchor="middle" x="282.75" y="-456.5" font-family="Helvetica,sans-Serif" font-size="10.00">MainView.maxiMenuInitialization</text>
</a>
</g>
</g>
<!-- Node1&#45;&gt;Node16 -->
<g id="edge15_Node000001_Node000016" class="edge">
<title>Node1&#45;&gt;Node16</title>
<g id="a_edge15_Node000001_Node000016"><a xlink:title=" ">
<path fill="none" stroke="#63b8ff" d="M90.56,-382.49C110.72,-399.56 144.54,-425.81 178,-441 182.81,-443.18 187.83,-445.19 192.96,-447.03"/>
<polygon fill="#63b8ff" stroke="#63b8ff" points="191.58,-450.26 202.18,-450.11 193.8,-443.62 191.58,-450.26"/>
</a>
</g>
</g>
<!-- Node17 -->
<g id="Node000017" class="node">
<title>Node17</title>
<g id="a_Node000017"><a xlink:href="classfr_1_1softsf_1_1sudokufx_1_1view_1_1main_1_1_main_view.html#a7a4626dc62d90505d1254613e1d92d55" target="_top" xlink:title="Initializes the mini menu by binding all buttons&#39; texts and tooltips to their respective ViewModel pr...">
<polygon fill="white" stroke="#666666" points="360.12,-432 205.38,-432 205.38,-400 360.12,-400 360.12,-432"/>
<text text-anchor="start" x="213.38" y="-418.5" font-family="Helvetica,sans-Serif" font-size="10.00">fr.softsf.sudokufx.view.main.</text>
<text text-anchor="middle" x="282.75" y="-406.5" font-family="Helvetica,sans-Serif" font-size="10.00">MainView.miniMenuInitialization</text>
</a>
</g>
</g>
<!-- Node1&#45;&gt;Node17 -->
<g id="edge16_Node000001_Node000017" class="edge">
<title>Node1&#45;&gt;Node17</title>
<g id="a_edge16_Node000001_Node000017"><a xlink:title=" ">
<path fill="none" stroke="#63b8ff" d="M140.97,-382.44C160.41,-387.08 181.73,-392.16 201.76,-396.93"/>
<polygon fill="#63b8ff" stroke="#63b8ff" points="200.73,-400.28 211.27,-399.2 202.35,-393.47 200.73,-400.28"/>
</a>
</g>
</g>
<!-- Node18 -->
<g id="Node000018" class="node">
<title>Node18</title>
<g id="a_Node000018"><a xlink:href="classfr_1_1softsf_1_1sudokufx_1_1view_1_1main_1_1_main_view.html#a81f5511143e1d17c0ce7be039d87c819" target="_top" xlink:title="Binds &quot;New&quot; menu UI elements to the ViewModel for text, accessibility, visibility,...">
<polygon fill="white" stroke="#666666" points="360.12,-382 205.38,-382 205.38,-350 360.12,-350 360.12,-382"/>
<text text-anchor="start" x="213.38" y="-368.5" font-family="Helvetica,sans-Serif" font-size="10.00">fr.softsf.sudokufx.view.main.</text>
<text text-anchor="middle" x="282.75" y="-356.5" font-family="Helvetica,sans-Serif" font-size="10.00">MainView.newMenuInitialization</text>
</a>
</g>
</g>
<!-- Node1&#45;&gt;Node18 -->
<g id="edge17_Node000001_Node000018" class="edge">
<title>Node1&#45;&gt;Node18</title>
<g id="a_edge17_Node000001_Node000018"><a xlink:title=" ">
<path fill="none" stroke="#63b8ff" d="M142.43,-366C158.93,-366 176.7,-366 193.86,-366"/>
<polygon fill="#63b8ff" stroke="#63b8ff" points="193.51,-369.5 203.51,-366 193.51,-362.5 193.51,-369.5"/>
</a>
</g>
</g>
<!-- Node19 -->
<g id="Node000019" class="node">
<title>Node19</title>
<g id="a_Node000019"><a xlink:href="classfr_1_1softsf_1_1sudokufx_1_1view_1_1main_1_1_main_view.html#a640abc39ab4c9e393253742341427eb4" target="_top" xlink:title="Initializes and binds all UI components of the options menu to the MenuOptionsViewModel.">
<polygon fill="white" stroke="#666666" points="366.88,-332 198.62,-332 198.62,-300 366.88,-300 366.88,-332"/>
<text text-anchor="start" x="206.62" y="-318.5" font-family="Helvetica,sans-Serif" font-size="10.00">fr.softsf.sudokufx.view.main.</text>
<text text-anchor="middle" x="282.75" y="-306.5" font-family="Helvetica,sans-Serif" font-size="10.00">MainView.optionsMenuInitialization</text>
</a>
</g>
</g>
<!-- Node1&#45;&gt;Node19 -->
<g id="edge18_Node000001_Node000019" class="edge">
<title>Node1&#45;&gt;Node19</title>
<g id="a_edge18_Node000001_Node000019"><a xlink:title=" ">
<path fill="none" stroke="#63b8ff" d="M140.97,-349.56C160.41,-344.92 181.73,-339.84 201.76,-335.07"/>
<polygon fill="#63b8ff" stroke="#63b8ff" points="202.35,-338.53 211.27,-332.8 200.73,-331.72 202.35,-338.53"/>
</a>
</g>
</g>
<!-- Node21 -->
<g id="Node000021" class="node">
<title>Node21</title>
<g id="a_Node000021"><a xlink:href="classfr_1_1softsf_1_1sudokufx_1_1view_1_1main_1_1_main_view.html#a8214e802af406ccfc0129318f77bf170" target="_top" xlink:title="Initializes bindings and event listeners for the player menu components.">
<polygon fill="white" stroke="#666666" points="364.25,-282 201.25,-282 201.25,-250 364.25,-250 364.25,-282"/>
<text text-anchor="start" x="209.25" y="-268.5" font-family="Helvetica,sans-Serif" font-size="10.00">fr.softsf.sudokufx.view.main.</text>
<text text-anchor="middle" x="282.75" y="-256.5" font-family="Helvetica,sans-Serif" font-size="10.00">MainView.playerMenuInitialization</text>
</a>
</g>
</g>
<!-- Node1&#45;&gt;Node21 -->
<g id="edge20_Node000001_Node000021" class="edge">
<title>Node1&#45;&gt;Node21</title>
<g id="a_edge20_Node000001_Node000021"><a xlink:title=" ">
<path fill="none" stroke="#63b8ff" d="M90.56,-349.51C110.72,-332.44 144.54,-306.19 178,-291 181.97,-289.2 186.08,-287.52 190.28,-285.95"/>
<polygon fill="#63b8ff" stroke="#63b8ff" points="191.13,-289.36 199.43,-282.78 188.84,-282.75 191.13,-289.36"/>
</a>
</g>
</g>
<!-- Node22 -->
<g id="Node000022" class="node">
<title>Node22</title>
<g id="a_Node000022"><a xlink:href="classfr_1_1softsf_1_1sudokufx_1_1view_1_1main_1_1_main_view.html#aebaf39d672a3997a3b90c42333b0689b" target="_top" xlink:title="Initializes bindings and event listeners for the save menu components.">
<polygon fill="white" stroke="#666666" points="361.62,-232 203.88,-232 203.88,-200 361.62,-200 361.62,-232"/>
<text text-anchor="start" x="211.88" y="-218.5" font-family="Helvetica,sans-Serif" font-size="10.00">fr.softsf.sudokufx.view.main.</text>
<text text-anchor="middle" x="282.75" y="-206.5" font-family="Helvetica,sans-Serif" font-size="10.00">MainView.saveMenuInitialization</text>
</a>
</g>
</g>
<!-- Node1&#45;&gt;Node22 -->
<g id="edge21_Node000001_Node000022" class="edge">
<title>Node1&#45;&gt;Node22</title>
<g id="a_edge21_Node000001_Node000022"><a xlink:title=" ">
<path fill="none" stroke="#63b8ff" d="M81.08,-349.73C97.02,-322.74 132.69,-268.9 178,-241 182.64,-238.14 187.58,-235.62 192.69,-233.38"/>
<polygon fill="#63b8ff" stroke="#63b8ff" points="193.95,-236.64 201.97,-229.72 191.38,-230.13 193.95,-236.64"/>
</a>
</g>
</g>
<!-- Node23 -->
<g id="Node000023" class="node">
<title>Node23</title>
<g id="a_Node000023"><a xlink:href="classfr_1_1softsf_1_1sudokufx_1_1view_1_1main_1_1_main_view.html#afc29c6470627f78c17cd71121df17d21" target="_top" xlink:title="Sets up bindings between the solve menu UI components and menuSolveViewModel.">
<polygon fill="white" stroke="#666666" points="362.75,-182 202.75,-182 202.75,-150 362.75,-150 362.75,-182"/>
<text text-anchor="start" x="210.75" y="-168.5" font-family="Helvetica,sans-Serif" font-size="10.00">fr.softsf.sudokufx.view.main.</text>
<text text-anchor="middle" x="282.75" y="-156.5" font-family="Helvetica,sans-Serif" font-size="10.00">MainView.solveMenuInitialization</text>
</a>
</g>
</g>
<!-- Node1&#45;&gt;Node23 -->
<g id="edge22_Node000001_Node000023" class="edge">
<title>Node1&#45;&gt;Node23</title>
<g id="a_edge22_Node000001_Node000023"><a xlink:title=" ">
<path fill="none" stroke="#63b8ff" d="M77.11,-349.51C88.86,-314.5 121.23,-232.51 178,-191 182.35,-187.82 187.05,-185.04 191.97,-182.61"/>
<polygon fill="#63b8ff" stroke="#63b8ff" points="193.17,-185.9 200.94,-178.7 190.37,-179.49 193.17,-185.9"/>
</a>
</g>
</g>
<!-- Node24 -->
<g id="Node000024" class="node">
<title>Node24</title>
<g id="a_Node000024"><a xlink:href="classfr_1_1softsf_1_1sudokufx_1_1view_1_1main_1_1_main_view.html#aa73cee45a3fae93369d5d33cb8ce90c6" target="_top" xlink:title="Establishes a unidirectional binding between the SpinnerGridPane visibility and the SpinnerViewModel ...">
<polygon fill="white" stroke="#666666" points="354.88,-132 210.62,-132 210.62,-100 354.88,-100 354.88,-132"/>
<text text-anchor="start" x="218.62" y="-118.5" font-family="Helvetica,sans-Serif" font-size="10.00">fr.softsf.sudokufx.view.main.</text>
<text text-anchor="middle" x="282.75" y="-106.5" font-family="Helvetica,sans-Serif" font-size="10.00">MainView.spinnerInitialization</text>
</a>
</g>
</g>
<!-- Node1&#45;&gt;Node24 -->
<g id="edge23_Node000001_Node000024" class="edge">
<title>Node1&#45;&gt;Node24</title>
<g id="a_edge23_Node000001_Node000024"><a xlink:title=" ">
<path fill="none" stroke="#63b8ff" d="M74.72,-349.73C82.55,-308.09 109.2,-197.04 178,-141 184.42,-135.77 191.76,-131.61 199.5,-128.29"/>
<polygon fill="#63b8ff" stroke="#63b8ff" points="200.7,-131.58 208.84,-124.81 198.25,-125.02 200.7,-131.58"/>
</a>
</g>
</g>
<!-- Node25 -->
<g id="Node000025" class="node">
<title>Node25</title>
<g id="a_Node000025"><a xlink:href="classfr_1_1softsf_1_1sudokufx_1_1view_1_1main_1_1_main_view.html#a1b8c6fff77d4f65ca424cc6a2c943b19" target="_top" xlink:title="Registers a listener on the primary stage to stop all audio when the application window is closed.">
<polygon fill="white" stroke="#666666" points="375.88,-82 189.62,-82 189.62,-50 375.88,-50 375.88,-82"/>
<text text-anchor="start" x="197.62" y="-68.5" font-family="Helvetica,sans-Serif" font-size="10.00">fr.softsf.sudokufx.view.main.</text>
<text text-anchor="middle" x="282.75" y="-56.5" font-family="Helvetica,sans-Serif" font-size="10.00">MainView.stopAudioOnExitInitialization</text>
</a>
</g>
</g>
<!-- Node1&#45;&gt;Node25 -->
<g id="edge24_Node000001_Node000025" class="edge">
<title>Node1&#45;&gt;Node25</title>
<g id="a_edge24_Node000001_Node000025"><a xlink:title=" ">
<path fill="none" stroke="#63b8ff" d="M73.18,-349.75C77.54,-302.17 97,-161.99 178,-91 178.94,-90.18 179.9,-89.38 180.89,-88.6"/>
<polygon fill="#63b8ff" stroke="#63b8ff" points="182.65,-91.64 188.99,-83.15 178.74,-85.83 182.65,-91.64"/>
</a>
</g>
</g>
<!-- Node26 -->
<g id="Node000026" class="node">
<title>Node26</title>
<g id="a_Node000026"><a xlink:href="classfr_1_1softsf_1_1sudokufx_1_1view_1_1main_1_1_main_view.html#ad474475f22dddcdfa8ccfc64bddef3dc" target="_top" xlink:title="Initializes the toaster by subscribing to the ToasterService.">
<polygon fill="white" stroke="#666666" points="354.12,-32 211.38,-32 211.38,0 354.12,0 354.12,-32"/>
<text text-anchor="start" x="219.38" y="-18.5" font-family="Helvetica,sans-Serif" font-size="10.00">fr.softsf.sudokufx.view.main.</text>
<text text-anchor="middle" x="282.75" y="-6.5" font-family="Helvetica,sans-Serif" font-size="10.00">MainView.toasterInitialization</text>
</a>
</g>
</g>
<!-- Node1&#45;&gt;Node26 -->
<g id="edge25_Node000001_Node000026" class="edge">
<title>Node1&#45;&gt;Node26</title>
<g id="a_edge25_Node000001_Node000026"><a xlink:title=" ">
<path fill="none" stroke="#63b8ff" d="M72.09,-349.59C73.32,-296.39 84.72,-127.2 178,-41 184.51,-34.99 192.2,-30.35 200.41,-26.78"/>
<polygon fill="#63b8ff" stroke="#63b8ff" points="201.48,-30.12 209.62,-23.34 199.03,-23.56 201.48,-30.12"/>
</a>
</g>
</g>
<!-- Node3 -->
<g id="Node000003" class="node">
<title>Node3</title>
<g id="a_Node000003"><a xlink:href="classfr_1_1softsf_1_1sudokufx_1_1view_1_1main_1_1_main_view.html#a8c2b1b6c63e1cc2a2c777ce0a8ceebb9" target="_top" xlink:title=" ">
<polygon fill="white" stroke="#666666" points="588.75,-736 423.5,-736 423.5,-704 588.75,-704 588.75,-736"/>
<text text-anchor="start" x="431.5" y="-722.5" font-family="Helvetica,sans-Serif" font-size="10.00">fr.softsf.sudokufx.view.main.</text>
<text text-anchor="middle" x="506.12" y="-710.5" font-family="Helvetica,sans-Serif" font-size="10.00">MainView.bindVisibleAndManaged</text>
</a>
</g>
</g>
<!-- Node2&#45;&gt;Node3 -->
<g id="edge2_Node000002_Node000003" class="edge">
<title>Node2&#45;&gt;Node3</title>
<g id="a_edge2_Node000002_Node000003"><a xlink:title=" ">
<path fill="none" stroke="#63b8ff" d="M383.43,-718.35C392.89,-718.48 402.47,-718.61 411.87,-718.74"/>
<polygon fill="#63b8ff" stroke="#63b8ff" points="411.67,-722.23 421.72,-718.87 411.76,-715.23 411.67,-722.23"/>
</a>
</g>
</g>
<!-- Node5 -->
<g id="Node000005" class="node">
<title>Node5</title>
<g id="a_Node000005"><a xlink:href="classfr_1_1softsf_1_1sudokufx_1_1view_1_1main_1_1_main_view.html#a805ba50257c2565844220d96b618c2c9" target="_top" xlink:title="Loads the current user&#45;entered grid from the model and updates the selected level and completion perc...">
<polygon fill="white" stroke="#666666" points="588.38,-686 423.88,-686 423.88,-642 588.38,-642 588.38,-686"/>
<text text-anchor="start" x="431.88" y="-672.5" font-family="Helvetica,sans-Serif" font-size="10.00">fr.softsf.sudokufx.view.main.</text>
<text text-anchor="start" x="431.88" y="-660.5" font-family="Helvetica,sans-Serif" font-size="10.00">MainView.restoreCurrentGridLevel</text>
<text text-anchor="middle" x="506.12" y="-648.5" font-family="Helvetica,sans-Serif" font-size="10.00">FromModel</text>
</a>
</g>
</g>
<!-- Node4&#45;&gt;Node5 -->
<g id="edge4_Node000004_Node000005" class="edge">
<title>Node4&#45;&gt;Node5</title>
<g id="a_edge4_Node000004_Node000005"><a xlink:title=" ">
<path fill="none" stroke="#63b8ff" d="M354.1,-665.36C372.62,-665.2 392.89,-665.01 412.39,-664.84"/>
<polygon fill="#63b8ff" stroke="#63b8ff" points="412.28,-668.34 422.25,-664.75 412.22,-661.34 412.28,-668.34"/>
</a>
</g>
</g>
<!-- Node9 -->
<g id="Node000009" class="node">
<title>Node9</title>
<g id="a_Node000009"><a xlink:href="classfr_1_1softsf_1_1sudokufx_1_1view_1_1main_1_1_main_view.html#a706b53dd0716935b0976068f04d748c4" target="_top" xlink:title="Binds UI components related to a specific difficulty level in both the maxi and mini menus.">
<polygon fill="white" stroke="#666666" points="577.12,-532 435.12,-532 435.12,-500 577.12,-500 577.12,-532"/>
<text text-anchor="start" x="443.12" y="-518.5" font-family="Helvetica,sans-Serif" font-size="10.00">fr.softsf.sudokufx.view.main.</text>
<text text-anchor="middle" x="506.12" y="-506.5" font-family="Helvetica,sans-Serif" font-size="10.00">MainView.bindLevel</text>
</a>
</g>
</g>
<!-- Node8&#45;&gt;Node9 -->
<g id="edge8_Node000008_Node000009" class="edge">
<title>Node8&#45;&gt;Node9</title>
<g id="a_edge8_Node000008_Node000009"><a xlink:title=" ">
<path fill="none" stroke="#63b8ff" d="M364.3,-516C383.53,-516 404.08,-516 423.37,-516"/>
<polygon fill="#63b8ff" stroke="#63b8ff" points="423.36,-519.5 433.36,-516 423.36,-512.5 423.36,-519.5"/>
</a>
</g>
</g>
<!-- Node10 -->
<g id="Node000010" class="node">
<title>Node10</title>
<g id="a_Node000010"><a xlink:href="classfr_1_1softsf_1_1sudokufx_1_1view_1_1main_1_1_main_view.html#a7caecbd9de214c2c554a4056960ceca0" target="_top" xlink:title="Binds accessibility properties (accessible text and role description) for the specified difficulty le...">
<polygon fill="white" stroke="#666666" points="791.12,-657 633.38,-657 633.38,-625 791.12,-625 791.12,-657"/>
<text text-anchor="start" x="641.38" y="-643.5" font-family="Helvetica,sans-Serif" font-size="10.00">fr.softsf.sudokufx.view.main.</text>
<text text-anchor="middle" x="712.25" y="-631.5" font-family="Helvetica,sans-Serif" font-size="10.00">MainView.bindLevelAccessibility</text>
</a>
</g>
</g>
<!-- Node9&#45;&gt;Node10 -->
<g id="edge9_Node000009_Node000010" class="edge">
<title>Node9&#45;&gt;Node10</title>
<g id="a_edge9_Node000009_Node000010"><a xlink:title=" ">
<path fill="none" stroke="#63b8ff" d="M521.88,-532.28C542.73,-554.34 582.96,-593.55 624.75,-616 627.59,-617.53 630.53,-618.97 633.55,-620.33"/>
<polygon fill="#63b8ff" stroke="#63b8ff" points="632.03,-623.49 642.6,-624.08 634.7,-617.02 632.03,-623.49"/>
</a>
</g>
</g>
<!-- Node11 -->
<g id="Node000011" class="node">
<title>Node11</title>
<g id="a_Node000011"><a xlink:href="classfr_1_1softsf_1_1sudokufx_1_1view_1_1main_1_1_main_view.html#a0f55758246f2163248dc5f8b797dfd35" target="_top" xlink:title="Binds the label&#39;s text to the localized name of the specified difficulty level.">
<polygon fill="white" stroke="#666666" points="784.38,-607 640.12,-607 640.12,-575 784.38,-575 784.38,-607"/>
<text text-anchor="start" x="648.12" y="-593.5" font-family="Helvetica,sans-Serif" font-size="10.00">fr.softsf.sudokufx.view.main.</text>
<text text-anchor="middle" x="712.25" y="-581.5" font-family="Helvetica,sans-Serif" font-size="10.00">MainView.bindLevelLabelText</text>
</a>
</g>
</g>
<!-- Node9&#45;&gt;Node11 -->
<g id="edge10_Node000009_Node000011" class="edge">
<title>Node9&#45;&gt;Node11</title>
<g id="a_edge10_Node000009_Node000011"><a xlink:title=" ">
<path fill="none" stroke="#63b8ff" d="M542.72,-532.46C565.82,-542.81 596.73,-556.04 624.75,-566 629.73,-567.77 634.91,-569.51 640.15,-571.2"/>
<polygon fill="#63b8ff" stroke="#63b8ff" points="638.89,-574.47 649.48,-574.13 640.98,-567.79 638.89,-574.47"/>
</a>
</g>
</g>
<!-- Node12 -->
<g id="Node000012" class="node">
<title>Node12</title>
<g id="a_Node000012"><a xlink:href="classfr_1_1softsf_1_1sudokufx_1_1view_1_1main_1_1_main_view.html#afb3f11d45da403642574d63feff83fa6" target="_top" xlink:title="Binds the pseudo&#45;class &quot;:selected&quot; state of the given buttons to the specified difficulty level.">
<polygon fill="white" stroke="#666666" points="797.5,-557 627,-557 627,-525 797.5,-525 797.5,-557"/>
<text text-anchor="start" x="635" y="-543.5" font-family="Helvetica,sans-Serif" font-size="10.00">fr.softsf.sudokufx.view.main.</text>
<text text-anchor="middle" x="712.25" y="-531.5" font-family="Helvetica,sans-Serif" font-size="10.00">MainView.bindLevelSelectedStyling</text>
</a>
</g>
</g>
<!-- Node9&#45;&gt;Node12 -->
<g id="edge11_Node000009_Node000012" class="edge">
<title>Node9&#45;&gt;Node12</title>
<g id="a_edge11_Node000009_Node000012"><a xlink:title=" ">
<path fill="none" stroke="#63b8ff" d="M577.37,-524.6C589.68,-526.11 602.68,-527.7 615.54,-529.28"/>
<polygon fill="#63b8ff" stroke="#63b8ff" points="614.93,-532.73 625.28,-530.47 615.78,-525.78 614.93,-532.73"/>
</a>
</g>
</g>
<!-- Node13 -->
<g id="Node000013" class="node">
<title>Node13</title>
<g id="a_Node000013"><a xlink:href="classfr_1_1softsf_1_1sudokufx_1_1view_1_1main_1_1_main_view.html#a280b2edb14468c04a0006653c1f75367" target="_top" xlink:title="Binds the visibility of the stars box to whether the specified difficulty level is selected.">
<polygon fill="white" stroke="#666666" points="793.38,-507 631.12,-507 631.12,-475 793.38,-475 793.38,-507"/>
<text text-anchor="start" x="639.12" y="-493.5" font-family="Helvetica,sans-Serif" font-size="10.00">fr.softsf.sudokufx.view.main.</text>
<text text-anchor="middle" x="712.25" y="-481.5" font-family="Helvetica,sans-Serif" font-size="10.00">MainView.bindLevelStarsVisibility</text>
</a>
</g>
</g>
<!-- Node9&#45;&gt;Node13 -->
<g id="edge12_Node000009_Node000013" class="edge">
<title>Node9&#45;&gt;Node13</title>
<g id="a_edge12_Node000009_Node000013"><a xlink:title=" ">
<path fill="none" stroke="#63b8ff" d="M577.37,-507.4C590.93,-505.74 605.32,-503.97 619.45,-502.24"/>
<polygon fill="#63b8ff" stroke="#63b8ff" points="619.7,-505.74 629.2,-501.05 618.85,-498.79 619.7,-505.74"/>
</a>
</g>
</g>
<!-- Node14 -->
<g id="Node000014" class="node">
<title>Node14</title>
<g id="a_Node000014"><a xlink:href="classfr_1_1softsf_1_1sudokufx_1_1view_1_1main_1_1_main_view.html#a5ebf700eadaca00234fe04813df0b09f" target="_top" xlink:title="Binds the tooltip text properties of both buttons to the accessible text corresponding to the specifi...">
<polygon fill="white" stroke="#666666" points="787,-457 637.5,-457 637.5,-425 787,-425 787,-457"/>
<text text-anchor="start" x="645.5" y="-443.5" font-family="Helvetica,sans-Serif" font-size="10.00">fr.softsf.sudokufx.view.main.</text>
<text text-anchor="middle" x="712.25" y="-431.5" font-family="Helvetica,sans-Serif" font-size="10.00">MainView.bindLevelTooltipText</text>
</a>
</g>
</g>
<!-- Node9&#45;&gt;Node14 -->
<g id="edge13_Node000009_Node000014" class="edge">
<title>Node9&#45;&gt;Node14</title>
<g id="a_edge13_Node000009_Node000014"><a xlink:title=" ">
<path fill="none" stroke="#63b8ff" d="M542.72,-499.54C565.82,-489.19 596.73,-475.96 624.75,-466 629.73,-464.23 634.91,-462.49 640.15,-460.8"/>
<polygon fill="#63b8ff" stroke="#63b8ff" points="640.98,-464.21 649.48,-457.87 638.89,-457.53 640.98,-464.21"/>
</a>
</g>
</g>
<!-- Node15 -->
<g id="Node000015" class="node">
<title>Node15</title>
<g id="a_Node000015"><a xlink:href="classfr_1_1softsf_1_1sudokufx_1_1view_1_1component_1_1_possibility_stars_h_box.html#a7746116cfca8394695053b9c60c076fd" target="_top" xlink:title="Returns the percentage property (0–100) used to calculate the star rating display.">
<polygon fill="white" stroke="#666666" points="799.75,-407 624.75,-407 624.75,-375 799.75,-375 799.75,-407"/>
<text text-anchor="start" x="632.75" y="-393.5" font-family="Helvetica,sans-Serif" font-size="10.00">fr.softsf.sudokufx.view.component.</text>
<text text-anchor="middle" x="712.25" y="-381.5" font-family="Helvetica,sans-Serif" font-size="10.00">PossibilityStarsHBox.getPercentage</text>
</a>
</g>
</g>
<!-- Node9&#45;&gt;Node15 -->
<g id="edge14_Node000009_Node000015" class="edge">
<title>Node9&#45;&gt;Node15</title>
<g id="a_edge14_Node000009_Node000015"><a xlink:title=" ">
<path fill="none" stroke="#63b8ff" d="M521.88,-499.72C542.73,-477.66 582.96,-438.45 624.75,-416 627.59,-414.47 630.53,-413.03 633.55,-411.67"/>
<polygon fill="#63b8ff" stroke="#63b8ff" points="634.7,-414.98 642.6,-407.92 632.03,-408.51 634.7,-414.98"/>
</a>
</g>
</g>
<!-- Node20 -->
<g id="Node000020" class="node">
<title>Node20</title>
<g id="a_Node000020"><a xlink:href="classfr_1_1softsf_1_1sudokufx_1_1view_1_1main_1_1_main_view.html#a16c95b9af64c251644c1a8ed1c83e875" target="_top" xlink:title="Applies opaque or transparent styling to the sudoku grid and its cells by setting the OPAQUE_MODE_PSE...">
<polygon fill="white" stroke="#666666" points="577.12,-332 435.12,-332 435.12,-300 577.12,-300 577.12,-332"/>
<text text-anchor="start" x="443.12" y="-318.5" font-family="Helvetica,sans-Serif" font-size="10.00">fr.softsf.sudokufx.view.main.</text>
<text text-anchor="middle" x="506.12" y="-306.5" font-family="Helvetica,sans-Serif" font-size="10.00">MainView.applyOpaqueMode</text>
</a>
</g>
</g>
<!-- Node19&#45;&gt;Node20 -->
<g id="edge19_Node000019_Node000020" class="edge">
<title>Node19&#45;&gt;Node20</title>
<g id="a_edge19_Node000019_Node000020"><a xlink:title=" ">
<path fill="none" stroke="#63b8ff" d="M367.13,-316C385.6,-316 405.16,-316 423.55,-316"/>
<polygon fill="#63b8ff" stroke="#63b8ff" points="423.33,-319.5 433.33,-316 423.33,-312.5 423.33,-319.5"/>
</a>
</g>
</g>
</g>
</svg>

<g id="navigator" transform="translate(0 0)" fill="#404254">
  <rect fill="#f2f5e9" fill-opacity="0.5" stroke="#606060" stroke-width=".5" x="0" y="0" width="60" height="60"/>
  <use id="zoomplus" xlink:href="#zoomPlus" x="17" y="9" onmousedown="handleZoom(evt,'in')"/>
  <use id="zoomminus" xlink:href="#zoomMin" x="42" y="9" onmousedown="handleZoom(evt,'out')"/>
  <use id="reset" xlink:href="#resetDef" x="30" y="36" onmousedown="handleReset()"/>
   <use id="arrowup" xlink:href="#arrowUp" x="0" y="0" onmousedown="handlePan(0,-1)"/>
  <use id="arrowright" xlink:href="#arrowRight" x="0" y="0" onmousedown="handlePan(1,0)"/>
  <use id="arrowdown" xlink:href="#arrowDown" x="0" y="0" onmousedown="handlePan(0,1)"/>
  <use id="arrowleft" xlink:href="#arrowLeft" x="0" y="0" onmousedown="handlePan(-1,0)"/>
</g>
<svg viewBox="0 0 15 15" width="100%" height="30px" preserveAspectRatio="xMaxYMin meet">
 <g id="arrow_out" transform="scale(0.3 0.3)">
  <a xlink:href="classfr_1_1softsf_1_1sudokufx_1_1view_1_1main_1_1_main_view_afccc317d7f06806de15357b5fd1e5684_cgraph_org.svg" target="_base">
   <rect id="button" ry="5" rx="5" y="6" x="6" height="38" width="38"
        fill="#f2f5e9" fill-opacity="0.5" stroke="#606060" stroke-width="1.0"/>
   <path id="arrow"
     d="M 11.500037,31.436501 C 11.940474,20.09759 22.043105,11.32322 32.158766,21.979434 L 37.068811,17.246167 C 37.068811,17.246167 37.088388,32 37.088388,32 L 22.160133,31.978069 C 22.160133,31.978069 26.997745,27.140456 26.997745,27.140456 C 18.528582,18.264221 13.291696,25.230495 11.500037,31.436501 z"
     style="fill:#404040;"/>
  </a>
 </g>
</svg>

<style type='text/css'>
<![CDATA[
[data-mouse-over-selected='false'] { opacity: 0.7; }
[data-mouse-over-selected='true']  { opacity: 1.0; }
]]>
</style>
<script type="application/ecmascript"><![CDATA[
document.addEventListener('DOMContentLoaded', (event) => {
  highlightEdges();
  highlightAdjacentNodes();
});
]]></script>
</svg>
