<?xml version="1.0" encoding="UTF-8" standalone="no"?>
<!DOCTYPE svg PUBLIC "-//W3C//DTD SVG 1.1//EN"
 "http://www.w3.org/Graphics/SVG/1.1/DTD/svg11.dtd">
<!-- Generated by graphviz version 12.2.1 (20241206.2353)
 -->
<!-- Title: fr.softsf.sudokufx.view.component.MyAlert.MyAlert Pages: 1 -->
<svg width="587pt" height="40pt"
 viewBox="0.00 0.00 587.00 40.00" xmlns="http://www.w3.org/2000/svg" xmlns:xlink="http://www.w3.org/1999/xlink">
<g id="graph0" class="graph" transform="scale(1 1) rotate(0) translate(4 36)">
<title>fr.softsf.sudokufx.view.component.MyAlert.MyAlert</title>
<!-- Node1 -->
<g id="Node000001" class="node">
<title>Node1</title>
<g id="a_Node000001"><a xlink:title="Creates a styled alert with a fixed size.">
<polygon fill="#999999" stroke="#666666" points="169,-32 0,-32 0,0 169,0 169,-32"/>
<text text-anchor="start" x="8" y="-18.5" font-family="Helvetica,sans-Serif" font-size="10.00">fr.softsf.sudokufx.view.component.</text>
<text text-anchor="middle" x="84.5" y="-6.5" font-family="Helvetica,sans-Serif" font-size="10.00">MyAlert.MyAlert</text>
</a>
</g>
</g>
<!-- Node2 -->
<g id="Node000002" class="node">
<title>Node2</title>
<g id="a_Node000002"><a xlink:href="classfr_1_1softsf_1_1sudokufx_1_1view_1_1component_1_1_my_alert.html#ad7031bb3b9367f715a320aff5bbe1d3d" target="_top" xlink:title="Initializes the alert with optional size and visual styling.">
<polygon fill="white" stroke="#666666" points="374,-32 205,-32 205,0 374,0 374,-32"/>
<text text-anchor="start" x="213" y="-18.5" font-family="Helvetica,sans-Serif" font-size="10.00">fr.softsf.sudokufx.view.component.</text>
<text text-anchor="middle" x="289.5" y="-6.5" font-family="Helvetica,sans-Serif" font-size="10.00">MyAlert.initDialog</text>
</a>
</g>
</g>
<!-- Node1&#45;&gt;Node2 -->
<g id="edge1_Node000001_Node000002" class="edge">
<title>Node1&#45;&gt;Node2</title>
<g id="a_edge1_Node000001_Node000002"><a xlink:title=" ">
<path fill="none" stroke="#63b8ff" d="M169.24,-16C177.18,-16 185.28,-16 193.32,-16"/>
<polygon fill="#63b8ff" stroke="#63b8ff" points="193.11,-19.5 203.11,-16 193.11,-12.5 193.11,-19.5"/>
</a>
</g>
</g>
<!-- Node3 -->
<g id="Node000003" class="node">
<title>Node3</title>
<g id="a_Node000003"><a xlink:href="classfr_1_1softsf_1_1sudokufx_1_1view_1_1component_1_1_my_alert.html#abee4f35ed1cce61e36758fc35a035826" target="_top" xlink:title="Sets the cursor to HAND for all buttons in the alert&#39;s dialog pane.">
<polygon fill="white" stroke="#666666" points="579,-32 410,-32 410,0 579,0 579,-32"/>
<text text-anchor="start" x="418" y="-18.5" font-family="Helvetica,sans-Serif" font-size="10.00">fr.softsf.sudokufx.view.component.</text>
<text text-anchor="middle" x="494.5" y="-6.5" font-family="Helvetica,sans-Serif" font-size="10.00">MyAlert.applyHandCursorToButton</text>
</a>
</g>
</g>
<!-- Node2&#45;&gt;Node3 -->
<g id="edge2_Node000002_Node000003" class="edge">
<title>Node2&#45;&gt;Node3</title>
<g id="a_edge2_Node000002_Node000003"><a xlink:title=" ">
<path fill="none" stroke="#63b8ff" d="M374.24,-16C382.18,-16 390.28,-16 398.32,-16"/>
<polygon fill="#63b8ff" stroke="#63b8ff" points="398.11,-19.5 408.11,-16 398.11,-12.5 398.11,-19.5"/>
</a>
</g>
</g>
</g>
</svg>
