<?xml version="1.0" encoding="UTF-8" standalone="no"?>
<!DOCTYPE svg PUBLIC "-//W3C//DTD SVG 1.1//EN"
 "http://www.w3.org/Graphics/SVG/1.1/DTD/svg11.dtd">
<!-- Generated by graphviz version 12.2.1 (20241206.2353)
 -->
<!-- Title: fr.softsf.sudokufx.viewmodel.grid.GridCellViewModel.GridCellViewModel Pages: 1 -->
<!--zoomable 330 -->

<svg id="main" version="1.1" xmlns="http://www.w3.org/2000/svg" xmlns:xlink="http://www.w3.org/1999/xlink" xml:space="preserve" onload="init(evt)">

<style type="text/css"><![CDATA[
.node, .edge {opacity: 0.7;}
.node.selected, .edge.selected {opacity: 1;}
.edge:hover path { stroke: red; }
.edge:hover polygon { stroke: red; fill: red; }
]]></style>

<defs>
  <circle id="rim" cx="0" cy="0" r="7"/>
  <circle id="rim2" cx="0" cy="0" r="3.5"/>
  <g id="zoomPlus">
    <use xlink:href="#rim" fill="#404040"><set attributeName="fill" to="#808080" begin="zoomplus.mouseover" end="zoomplus.mouseout"/></use>
    <path d="M-4,0h8M0,-4v8" fill="none" stroke="white" stroke-width="1.5" pointer-events="none"/>
  </g>
  <g id="zoomMin">
    <use xlink:href="#rim" fill="#404040"><set attributeName="fill" to="#808080" begin="zoomminus.mouseover" end="zoomminus.mouseout"/></use>
    <path d="M-4,0h8" fill="none" stroke="white" stroke-width="1.5" pointer-events="none"/>
  </g>
  <g id="arrowUp" transform="translate(30 24)">
    <use xlink:href="#rim"/>
    <path pointer-events="none" fill="none" stroke="white" stroke-width="1.5" d="M0,-3.0v7 M-2.5,-0.5L0,-3.0L2.5,-0.5"/>
  </g>
  <g id="arrowRight" transform="rotate(90) translate(36 -43)">
    <use xlink:href="#rim"/>
    <path pointer-events="none" fill="none" stroke="white" stroke-width="1.5" d="M0,-3.0v7 M-2.5,-0.5L0,-3.0L2.5,-0.5"/>
  </g>
  <g id="arrowDown" transform="rotate(180) translate(-30 -48)">
    <use xlink:href="#rim"/>
    <path pointer-events="none" fill="none" stroke="white" stroke-width="1.5" d="M0,-3.0v7 M-2.5,-0.5L0,-3.0L2.5,-0.5"/>
  </g>
  <g id="arrowLeft" transform="rotate(270) translate(-36 17)">
    <use xlink:href="#rim"/>
    <path pointer-events="none" fill="none" stroke="white" stroke-width="1.5" d="M0,-3.0v7 M-2.5,-0.5L0,-3.0L2.5,-0.5"/>
  </g>
  <g id="resetDef">
    <use xlink:href="#rim2" fill="#404040"><set attributeName="fill" to="#808080" begin="reset.mouseover" end="reset.mouseout"/></use>
  </g>
</defs>
<script type="application/ecmascript">
var viewWidth = 828;
var viewHeight = 330;
var sectionId = 'dynsection-1';
</script>
<script type="application/ecmascript" xlink:href="svg.min.js"/>
<svg id="graph" class="graph">
<g id="viewport">
<title>fr.softsf.sudokufx.viewmodel.grid.GridCellViewModel.GridCellViewModel</title>
<!-- Node1 -->
<g id="Node000001" class="node">
<title>Node1</title>
<g id="a_Node000001"><a xlink:title=" ">
<polygon fill="#999999" stroke="#666666" points="185.5,-260 0,-260 0,-228 185.5,-228 185.5,-260"/>
<text text-anchor="start" x="8" y="-246.5" font-family="Helvetica,sans-Serif" font-size="10.00">fr.softsf.sudokufx.viewmodel.grid.</text>
<text text-anchor="middle" x="92.75" y="-234.5" font-family="Helvetica,sans-Serif" font-size="10.00">GridCellViewModel.GridCellViewModel</text>
</a>
</g>
</g>
<!-- Node2 -->
<g id="Node000002" class="node">
<title>Node2</title>
<g id="a_Node000002"><a xlink:href="classfr_1_1softsf_1_1sudokufx_1_1viewmodel_1_1grid_1_1_grid_cell_view_model.html#a0d1630abe71ae622f3522fbed9855750" target="_top" xlink:title="Formats a raw digit string (1–9) into a 3&#45;line spaced grid display.">
<polygon fill="white" stroke="#666666" points="386.38,-260 222.62,-260 222.62,-228 386.38,-228 386.38,-260"/>
<text text-anchor="start" x="230.62" y="-246.5" font-family="Helvetica,sans-Serif" font-size="10.00">fr.softsf.sudokufx.viewmodel.grid.</text>
<text text-anchor="middle" x="304.5" y="-234.5" font-family="Helvetica,sans-Serif" font-size="10.00">GridCellViewModel.formatText</text>
</a>
</g>
</g>
<!-- Node1&#45;&gt;Node2 -->
<g id="edge1_Node000001_Node000002" class="edge">
<title>Node1&#45;&gt;Node2</title>
<g id="a_edge1_Node000001_Node000002"><a xlink:title=" ">
<path fill="none" stroke="#63b8ff" d="M185.75,-244C194.15,-244 202.66,-244 211.06,-244"/>
<polygon fill="#63b8ff" stroke="#63b8ff" points="210.92,-247.5 220.92,-244 210.92,-240.5 210.92,-247.5"/>
</a>
</g>
</g>
<!-- Node5 -->
<g id="Node000005" class="node">
<title>Node5</title>
<g id="a_Node000005"><a xlink:href="classfr_1_1softsf_1_1sudokufx_1_1viewmodel_1_1grid_1_1_grid_cell_view_model.html#a02837ccd8bb4343e172b8fe4d7854b25" target="_top" xlink:title="Computes the dynamic CSS border style for a Sudoku grid cell based on its position,...">
<polygon fill="white" stroke="#666666" points="820,-188 653.25,-188 653.25,-156 820,-156 820,-188"/>
<text text-anchor="start" x="661.25" y="-174.5" font-family="Helvetica,sans-Serif" font-size="10.00">fr.softsf.sudokufx.viewmodel.grid.</text>
<text text-anchor="middle" x="736.62" y="-162.5" font-family="Helvetica,sans-Serif" font-size="10.00">GridCellViewModel.getBorderStyle</text>
</a>
</g>
</g>
<!-- Node1&#45;&gt;Node5 -->
<g id="edge4_Node000001_Node000005" class="edge">
<title>Node1&#45;&gt;Node5</title>
<g id="a_edge4_Node000001_Node000005"><a xlink:title=" ">
<path fill="none" stroke="#63b8ff" d="M135.46,-260.45C226.81,-293.81 449.79,-360.62 617.25,-291 662.5,-272.19 699.38,-226.74 719.36,-197.77"/>
<polygon fill="#63b8ff" stroke="#63b8ff" points="722.22,-199.79 724.87,-189.53 716.4,-195.9 722.22,-199.79"/>
</a>
</g>
</g>
<!-- Node6 -->
<g id="Node000006" class="node">
<title>Node6</title>
<g id="a_Node000006"><a xlink:href="classfr_1_1softsf_1_1sudokufx_1_1viewmodel_1_1grid_1_1_grid_cell_view_model.html#aaf198f919d0c3422e9f0150483873163" target="_top" xlink:title="Configures UI listeners and formatting logic:">
<polygon fill="white" stroke="#666666" points="387.5,-188 221.5,-188 221.5,-156 387.5,-156 387.5,-188"/>
<text text-anchor="start" x="229.5" y="-174.5" font-family="Helvetica,sans-Serif" font-size="10.00">fr.softsf.sudokufx.viewmodel.grid.</text>
<text text-anchor="middle" x="304.5" y="-162.5" font-family="Helvetica,sans-Serif" font-size="10.00">GridCellViewModel.setupListeners</text>
</a>
</g>
</g>
<!-- Node1&#45;&gt;Node6 -->
<g id="edge5_Node000001_Node000006" class="edge">
<title>Node1&#45;&gt;Node6</title>
<g id="a_edge5_Node000001_Node000006"><a xlink:title=" ">
<path fill="none" stroke="#63b8ff" d="M141.61,-227.57C172.24,-217.06 212.2,-203.34 244.75,-192.17"/>
<polygon fill="#63b8ff" stroke="#63b8ff" points="245.73,-195.53 254.05,-188.97 243.46,-188.91 245.73,-195.53"/>
</a>
</g>
</g>
<!-- Node3 -->
<g id="Node000003" class="node">
<title>Node3</title>
<g id="a_Node000003"><a xlink:href="classfr_1_1softsf_1_1sudokufx_1_1viewmodel_1_1grid_1_1_grid_cell_view_model.html#ae0d01b28db4394dc49b5f5a0c1a3f2ec" target="_top" xlink:title="Inserts line breaks every 3 digits in the filtered string, with a maximum of two line breaks,...">
<polygon fill="white" stroke="#666666" points="603.38,-232 437.38,-232 437.38,-200 603.38,-200 603.38,-232"/>
<text text-anchor="start" x="445.38" y="-218.5" font-family="Helvetica,sans-Serif" font-size="10.00">fr.softsf.sudokufx.viewmodel.grid.</text>
<text text-anchor="middle" x="520.38" y="-206.5" font-family="Helvetica,sans-Serif" font-size="10.00">GridCellViewModel.formatMultiline</text>
</a>
</g>
</g>
<!-- Node2&#45;&gt;Node3 -->
<g id="edge2_Node000002_Node000003" class="edge">
<title>Node2&#45;&gt;Node3</title>
<g id="a_edge2_Node000002_Node000003"><a xlink:title=" ">
<path fill="none" stroke="#63b8ff" d="M386.66,-233.37C399.46,-231.7 412.78,-229.96 425.83,-228.25"/>
<polygon fill="#63b8ff" stroke="#63b8ff" points="426.24,-231.72 435.7,-226.95 425.33,-224.78 426.24,-231.72"/>
</a>
</g>
</g>
<!-- Node4 -->
<g id="Node000004" class="node">
<title>Node4</title>
<g id="a_Node000004"><a xlink:href="classfr_1_1softsf_1_1sudokufx_1_1viewmodel_1_1grid_1_1_grid_cell_view_model.html#aac96cce43da018085f8e390d31aeeb33" target="_top" xlink:title="Filters the input string to digits 1–9, removes duplicates, sorts ascending, and limits to 9 characte...">
<polygon fill="white" stroke="#666666" points="603.38,-282 437.38,-282 437.38,-250 603.38,-250 603.38,-282"/>
<text text-anchor="start" x="445.38" y="-268.5" font-family="Helvetica,sans-Serif" font-size="10.00">fr.softsf.sudokufx.viewmodel.grid.</text>
<text text-anchor="middle" x="520.38" y="-256.5" font-family="Helvetica,sans-Serif" font-size="10.00">GridCellViewModel.normalizeInput</text>
</a>
</g>
</g>
<!-- Node2&#45;&gt;Node4 -->
<g id="edge3_Node000002_Node000004" class="edge">
<title>Node2&#45;&gt;Node4</title>
<g id="a_edge3_Node000002_Node000004"><a xlink:title=" ">
<path fill="none" stroke="#63b8ff" d="M386.66,-252.35C399.46,-253.66 412.78,-255.03 425.83,-256.38"/>
<polygon fill="#63b8ff" stroke="#63b8ff" points="425.39,-259.85 435.7,-257.39 426.11,-252.89 425.39,-259.85"/>
</a>
</g>
</g>
<!-- Node6&#45;&gt;Node3 -->
<g id="edge6_Node000006_Node000003" class="edge">
<title>Node6&#45;&gt;Node3</title>
<g id="a_edge6_Node000006_Node000003"><a xlink:title=" ">
<path fill="none" stroke="#63b8ff" d="M385.44,-188.45C399.3,-191.3 413.8,-194.28 427.94,-197.19"/>
<polygon fill="#63b8ff" stroke="#63b8ff" points="427.19,-200.61 437.69,-199.2 428.6,-193.75 427.19,-200.61"/>
</a>
</g>
</g>
<!-- Node6&#45;&gt;Node4 -->
<g id="edge8_Node000006_Node000004" class="edge">
<title>Node6&#45;&gt;Node4</title>
<g id="a_edge8_Node000006_Node000004"><a xlink:title=" ">
<path fill="none" stroke="#63b8ff" d="M334.46,-188.33C350.21,-197.28 369.99,-208.64 387.5,-219 403.64,-228.55 406.24,-233.67 423.5,-241 427.57,-242.73 431.79,-244.36 436.08,-245.9"/>
<polygon fill="#63b8ff" stroke="#63b8ff" points="434.86,-249.18 445.45,-249.06 437.09,-242.55 434.86,-249.18"/>
</a>
</g>
</g>
<!-- Node6&#45;&gt;Node5 -->
<g id="edge7_Node000006_Node000005" class="edge">
<title>Node6&#45;&gt;Node5</title>
<g id="a_edge7_Node000006_Node000005"><a xlink:title=" ">
<path fill="none" stroke="#63b8ff" d="M387.92,-172C460.43,-172 565.94,-172 641.69,-172"/>
<polygon fill="#63b8ff" stroke="#63b8ff" points="641.6,-175.5 651.6,-172 641.6,-168.5 641.6,-175.5"/>
</a>
</g>
</g>
<!-- Node7 -->
<g id="Node000007" class="node">
<title>Node7</title>
<g id="a_Node000007"><a xlink:href="classfr_1_1softsf_1_1sudokufx_1_1viewmodel_1_1grid_1_1_grid_cell_view_model.html#a2a551d4792b3263e749994098c3b3748" target="_top" xlink:title="Updates CSS style classes on label and text area to reflect the editable state.">
<polygon fill="white" stroke="#666666" points="607.12,-32 433.62,-32 433.62,0 607.12,0 607.12,-32"/>
<text text-anchor="start" x="441.62" y="-18.5" font-family="Helvetica,sans-Serif" font-size="10.00">fr.softsf.sudokufx.viewmodel.grid.</text>
<text text-anchor="middle" x="520.38" y="-6.5" font-family="Helvetica,sans-Serif" font-size="10.00">GridCellViewModel.setEditableStyle</text>
</a>
</g>
</g>
<!-- Node6&#45;&gt;Node7 -->
<g id="edge9_Node000006_Node000007" class="edge">
<title>Node6&#45;&gt;Node7</title>
<g id="a_edge9_Node000006_Node000007"><a xlink:title=" ">
<path fill="none" stroke="#63b8ff" d="M315.65,-155.51C333.74,-127.53 374.33,-70.9 423.5,-41 425.79,-39.6 428.17,-38.29 430.59,-37.04"/>
<polygon fill="#63b8ff" stroke="#63b8ff" points="431.87,-40.31 439.49,-32.96 428.95,-33.95 431.87,-40.31"/>
</a>
</g>
</g>
<!-- Node9 -->
<g id="Node000009" class="node">
<title>Node9</title>
<g id="a_Node000009"><a xlink:href="classfr_1_1softsf_1_1sudokufx_1_1viewmodel_1_1grid_1_1_grid_cell_view_model.html#ac95db9585f2ba2ed12d60dd5cca39461" target="_top" xlink:title="Switches from read&#45;only mode (Label visible) to edit mode (TextArea visible), focusing the TextArea a...">
<polygon fill="white" stroke="#666666" points="611.62,-82 429.12,-82 429.12,-50 611.62,-50 611.62,-82"/>
<text text-anchor="start" x="437.12" y="-68.5" font-family="Helvetica,sans-Serif" font-size="10.00">fr.softsf.sudokufx.viewmodel.grid.</text>
<text text-anchor="middle" x="520.38" y="-56.5" font-family="Helvetica,sans-Serif" font-size="10.00">GridCellViewModel.switchToEditMode</text>
</a>
</g>
</g>
<!-- Node6&#45;&gt;Node9 -->
<g id="edge11_Node000006_Node000009" class="edge">
<title>Node6&#45;&gt;Node9</title>
<g id="a_edge11_Node000006_Node000009"><a xlink:title=" ">
<path fill="none" stroke="#63b8ff" d="M324.68,-155.69C347.04,-137.45 385.75,-108.24 423.5,-91 427.09,-89.36 430.81,-87.81 434.6,-86.36"/>
<polygon fill="#63b8ff" stroke="#63b8ff" points="435.78,-89.65 444.02,-83 433.42,-83.06 435.78,-89.65"/>
</a>
</g>
</g>
<!-- Node10 -->
<g id="Node000010" class="node">
<title>Node10</title>
<g id="a_Node000010"><a xlink:href="classfr_1_1softsf_1_1sudokufx_1_1viewmodel_1_1grid_1_1_grid_cell_view_model.html#a9544acad3febede6981c9d8440674d3c" target="_top" xlink:title="Updates the label&#39;s font size CSS class and border style based on the current text content.">
<polygon fill="white" stroke="#666666" points="617.25,-144 423.5,-144 423.5,-100 617.25,-100 617.25,-144"/>
<text text-anchor="start" x="431.5" y="-130.5" font-family="Helvetica,sans-Serif" font-size="10.00">fr.softsf.sudokufx.viewmodel.grid.</text>
<text text-anchor="start" x="431.5" y="-118.5" font-family="Helvetica,sans-Serif" font-size="10.00">GridCellViewModel.updateLabelFontSize</text>
<text text-anchor="middle" x="520.38" y="-106.5" font-family="Helvetica,sans-Serif" font-size="10.00">AndBorderOnTextChange</text>
</a>
</g>
</g>
<!-- Node6&#45;&gt;Node10 -->
<g id="edge13_Node000006_Node000010" class="edge">
<title>Node6&#45;&gt;Node10</title>
<g id="a_edge13_Node000006_Node000010"><a xlink:title=" ">
<path fill="none" stroke="#63b8ff" d="M375.83,-155.56C387.6,-152.81 400.04,-149.9 412.48,-146.99"/>
<polygon fill="#63b8ff" stroke="#63b8ff" points="412.99,-150.47 421.93,-144.78 411.39,-143.65 412.99,-150.47"/>
</a>
</g>
</g>
<!-- Node8 -->
<g id="Node000008" class="node">
<title>Node8</title>
<g id="a_Node000008"><a xlink:href="classfr_1_1softsf_1_1sudokufx_1_1viewmodel_1_1grid_1_1_grid_cell_view_model.html#ab27ee3baeb1c9260e8617a680a5ef215" target="_top" xlink:title=" ">
<polygon fill="white" stroke="#666666" points="818.5,-57 654.75,-57 654.75,-25 818.5,-25 818.5,-57"/>
<text text-anchor="start" x="662.75" y="-43.5" font-family="Helvetica,sans-Serif" font-size="10.00">fr.softsf.sudokufx.viewmodel.grid.</text>
<text text-anchor="middle" x="736.62" y="-31.5" font-family="Helvetica,sans-Serif" font-size="10.00">GridCellViewModel.isEditable</text>
</a>
</g>
</g>
<!-- Node7&#45;&gt;Node8 -->
<g id="edge10_Node000007_Node000008" class="edge">
<title>Node7&#45;&gt;Node8</title>
<g id="a_edge10_Node000007_Node000008"><a xlink:title=" ">
<path fill="none" stroke="#63b8ff" d="M607.59,-26.06C619.31,-27.43 631.38,-28.84 643.2,-30.22"/>
<polygon fill="#63b8ff" stroke="#63b8ff" points="642.6,-33.67 652.94,-31.35 643.41,-26.72 642.6,-33.67"/>
</a>
</g>
</g>
<!-- Node9&#45;&gt;Node8 -->
<g id="edge12_Node000009_Node000008" class="edge">
<title>Node9&#45;&gt;Node8</title>
<g id="a_edge12_Node000009_Node000008"><a xlink:title=" ">
<path fill="none" stroke="#63b8ff" d="M611.93,-55.43C622.33,-54.22 632.94,-52.98 643.36,-51.77"/>
<polygon fill="#63b8ff" stroke="#63b8ff" points="643.55,-55.27 653.07,-50.63 642.73,-48.32 643.55,-55.27"/>
</a>
</g>
</g>
<!-- Node10&#45;&gt;Node5 -->
<g id="edge14_Node000010_Node000005" class="edge">
<title>Node10&#45;&gt;Node5</title>
<g id="a_edge14_Node000010_Node000005"><a xlink:title=" ">
<path fill="none" stroke="#63b8ff" d="M617.53,-144.44C629.8,-147.3 642.26,-150.21 654.26,-153.01"/>
<polygon fill="#63b8ff" stroke="#63b8ff" points="653.12,-156.34 663.65,-155.2 654.71,-149.52 653.12,-156.34"/>
</a>
</g>
</g>
</g>
</svg>

<g id="navigator" transform="translate(0 0)" fill="#404254">
  <rect fill="#f2f5e9" fill-opacity="0.5" stroke="#606060" stroke-width=".5" x="0" y="0" width="60" height="60"/>
  <use id="zoomplus" xlink:href="#zoomPlus" x="17" y="9" onmousedown="handleZoom(evt,'in')"/>
  <use id="zoomminus" xlink:href="#zoomMin" x="42" y="9" onmousedown="handleZoom(evt,'out')"/>
  <use id="reset" xlink:href="#resetDef" x="30" y="36" onmousedown="handleReset()"/>
   <use id="arrowup" xlink:href="#arrowUp" x="0" y="0" onmousedown="handlePan(0,-1)"/>
  <use id="arrowright" xlink:href="#arrowRight" x="0" y="0" onmousedown="handlePan(1,0)"/>
  <use id="arrowdown" xlink:href="#arrowDown" x="0" y="0" onmousedown="handlePan(0,1)"/>
  <use id="arrowleft" xlink:href="#arrowLeft" x="0" y="0" onmousedown="handlePan(-1,0)"/>
</g>
<svg viewBox="0 0 15 15" width="100%" height="30px" preserveAspectRatio="xMaxYMin meet">
 <g id="arrow_out" transform="scale(0.3 0.3)">
  <a xlink:href="classfr_1_1softsf_1_1sudokufx_1_1viewmodel_1_1grid_1_1_grid_cell_view_model_a6dd80845ee5865e89cbe229b0ee933c3_cgraph_org.svg" target="_base">
   <rect id="button" ry="5" rx="5" y="6" x="6" height="38" width="38"
        fill="#f2f5e9" fill-opacity="0.5" stroke="#606060" stroke-width="1.0"/>
   <path id="arrow"
     d="M 11.500037,31.436501 C 11.940474,20.09759 22.043105,11.32322 32.158766,21.979434 L 37.068811,17.246167 C 37.068811,17.246167 37.088388,32 37.088388,32 L 22.160133,31.978069 C 22.160133,31.978069 26.997745,27.140456 26.997745,27.140456 C 18.528582,18.264221 13.291696,25.230495 11.500037,31.436501 z"
     style="fill:#404040;"/>
  </a>
 </g>
</svg>

<style type='text/css'>
<![CDATA[
[data-mouse-over-selected='false'] { opacity: 0.7; }
[data-mouse-over-selected='true']  { opacity: 1.0; }
]]>
</style>
<script type="application/ecmascript"><![CDATA[
document.addEventListener('DOMContentLoaded', (event) => {
  highlightEdges();
  highlightAdjacentNodes();
});
]]></script>
</svg>
