<?xml version="1.0" encoding="UTF-8" standalone="no"?>
<!DOCTYPE svg PUBLIC "-//W3C//DTD SVG 1.1//EN"
 "http://www.w3.org/Graphics/SVG/1.1/DTD/svg11.dtd">
<!-- Generated by graphviz version 12.2.1 (20241206.2353)
 -->
<!-- Title: fr.softsf.sudokufx.config.database.AbstractDataSourceConfig Pages: 1 -->
<svg width="742pt" height="348pt"
 viewBox="0.00 0.00 742.00 348.00" xmlns="http://www.w3.org/2000/svg" xmlns:xlink="http://www.w3.org/1999/xlink">
<g id="graph0" class="graph" transform="scale(1 1) rotate(0) translate(4 344)">
<title>fr.softsf.sudokufx.config.database.AbstractDataSourceConfig</title>
<!-- Node1 -->
<g id="Node000001" class="node">
<title>Node1</title>
<g id="a_Node000001"><a xlink:title="Abstract configuration class for setting up the application&#39;s data source.">
<polygon fill="#999999" stroke="none" points="464,-340 302,-340 302,-124 464,-124 464,-340"/>
<text text-anchor="start" x="307.25" y="-326.5" font-family="Helvetica,sans-Serif" font-size="10.00">fr.softsf.sudokufx.config.database.</text>
<text text-anchor="start" x="324.5" y="-314.5" font-family="Helvetica,sans-Serif" font-size="10.00">AbstractDataSourceConfig</text>
<text text-anchor="start" x="307.5" y="-298.5" font-family="Helvetica,sans-Serif" font-size="10.00">&#45;</text>
<text text-anchor="start" x="316" y="-298.5" font-family="Helvetica,sans-Serif" font-size="10.00">String jdbcUrl</text>
<text text-anchor="start" x="307.5" y="-282.5" font-family="Helvetica,sans-Serif" font-size="10.00">&#45;</text>
<text text-anchor="start" x="316" y="-282.5" font-family="Helvetica,sans-Serif" font-size="10.00">String poolName</text>
<text text-anchor="start" x="306" y="-266.5" font-family="Helvetica,sans-Serif" font-size="10.00">+</text>
<text text-anchor="start" x="316" y="-266.5" font-family="Helvetica,sans-Serif" font-size="10.00">void setJdbcUrl(String</text>
<text text-anchor="start" x="316" y="-254.5" font-family="Helvetica,sans-Serif" font-size="10.00"> jdbcUrl)</text>
<text text-anchor="start" x="306" y="-238.5" font-family="Helvetica,sans-Serif" font-size="10.00">+</text>
<text text-anchor="start" x="316" y="-238.5" font-family="Helvetica,sans-Serif" font-size="10.00">void setPoolName(String</text>
<text text-anchor="start" x="316" y="-226.5" font-family="Helvetica,sans-Serif" font-size="10.00"> poolName)</text>
<text text-anchor="start" x="306" y="-210.5" font-family="Helvetica,sans-Serif" font-size="10.00">~</text>
<text text-anchor="start" x="316" y="-210.5" font-family="Helvetica,sans-Serif" font-size="10.00">Flyway flyway(final</text>
<text text-anchor="start" x="316" y="-198.5" font-family="Helvetica,sans-Serif" font-size="10.00"> DataSource hikariDataSource)</text>
<text text-anchor="start" x="306" y="-182.5" font-family="Helvetica,sans-Serif" font-size="10.00">~</text>
<text text-anchor="start" x="316" y="-182.5" font-family="Helvetica,sans-Serif" font-size="10.00">HikariDataSource hikariData</text>
<text text-anchor="start" x="316" y="-170.5" font-family="Helvetica,sans-Serif" font-size="10.00">Source(final IKeystore iKeystore,</text>
<text text-anchor="start" x="316" y="-158.5" font-family="Helvetica,sans-Serif" font-size="10.00"> IOsFolder iOsFolder)</text>
<text text-anchor="start" x="307.5" y="-142.5" font-family="Helvetica,sans-Serif" font-size="10.00">&#45;</text>
<text text-anchor="start" x="316" y="-142.5" font-family="Helvetica,sans-Serif" font-size="10.00">HikariConfig getHikariConfig</text>
<text text-anchor="start" x="316" y="-130.5" font-family="Helvetica,sans-Serif" font-size="10.00">(IKeystore iKeystore)</text>
<polygon fill="#666666" stroke="#666666" points="302,-310 302,-310 464,-310 464,-310 302,-310"/>
<polygon fill="#666666" stroke="#666666" points="302,-278 302,-278 314,-278 314,-278 302,-278"/>
<polygon fill="#666666" stroke="#666666" points="314,-278 314,-278 464,-278 464,-278 314,-278"/>
<polygon fill="none" stroke="#666666" points="302,-124 302,-340 464,-340 464,-124 302,-124"/>
</a>
</g>
</g>
<!-- Node2 -->
<g id="Node000002" class="node">
<title>Node2</title>
<g id="a_Node000002"><a xlink:href="classfr_1_1softsf_1_1sudokufx_1_1config_1_1database_1_1_abstract_data_source_config_u_test_1_1_test_data_source_config.html" target="_top" xlink:title=" ">
<polygon fill="white" stroke="none" points="194,-82 0,-82 0,-6 194,-6 194,-82"/>
<text text-anchor="start" x="4" y="-68.5" font-family="Helvetica,sans-Serif" font-size="10.00">fr.softsf.sudokufx.config.database.</text>
<text text-anchor="start" x="4" y="-56.5" font-family="Helvetica,sans-Serif" font-size="10.00">AbstractDataSourceConfigUTest.TestData</text>
<text text-anchor="start" x="67.38" y="-44.5" font-family="Helvetica,sans-Serif" font-size="10.00">SourceConfig</text>
<text text-anchor="start" x="95.5" y="-28.5" font-family="Helvetica,sans-Serif" font-size="10.00"> </text>
<text text-anchor="start" x="95.5" y="-12.5" font-family="Helvetica,sans-Serif" font-size="10.00"> </text>
<polygon fill="#666666" stroke="#666666" points="0,-40 0,-40 194,-40 194,-40 0,-40"/>
<polygon fill="#666666" stroke="#666666" points="0,-24 0,-24 194,-24 194,-24 0,-24"/>
<polygon fill="none" stroke="#666666" points="0,-6 0,-82 194,-82 194,-6 0,-6"/>
</a>
</g>
</g>
<!-- Node1&#45;&gt;Node2 -->
<g id="edge1_Node000001_Node000002" class="edge">
<title>Node1&#45;&gt;Node2</title>
<g id="a_edge1_Node000001_Node000002"><a xlink:title=" ">
<path fill="none" stroke="#63b8ff" d="M292.6,-172.21C247.05,-142.59 193.23,-107.58 153.59,-81.8"/>
<polygon fill="none" stroke="#63b8ff" points="290.63,-175.1 300.92,-177.62 294.45,-169.23 290.63,-175.1"/>
</a>
</g>
</g>
<!-- Node3 -->
<g id="Node000003" class="node">
<title>Node3</title>
<g id="a_Node000003"><a xlink:href="classfr_1_1softsf_1_1sudokufx_1_1config_1_1database_1_1_data_source_config_cds.html" target="_top" xlink:title="Overrides Abstract DataSource hikariDataSource for the CDS profile.">
<polygon fill="white" stroke="none" points="374,-88 212,-88 212,0 374,0 374,-88"/>
<text text-anchor="start" x="217.25" y="-74.5" font-family="Helvetica,sans-Serif" font-size="10.00">fr.softsf.sudokufx.config.database.</text>
<text text-anchor="start" x="243.88" y="-62.5" font-family="Helvetica,sans-Serif" font-size="10.00">DataSourceConfigCds</text>
<text text-anchor="start" x="291.5" y="-46.5" font-family="Helvetica,sans-Serif" font-size="10.00"> </text>
<text text-anchor="start" x="216" y="-30.5" font-family="Helvetica,sans-Serif" font-size="10.00">~</text>
<text text-anchor="start" x="226" y="-30.5" font-family="Helvetica,sans-Serif" font-size="10.00">HikariDataSource hikariData</text>
<text text-anchor="start" x="226" y="-18.5" font-family="Helvetica,sans-Serif" font-size="10.00">Source(final IKeystore iKeystore,</text>
<text text-anchor="start" x="226" y="-6.5" font-family="Helvetica,sans-Serif" font-size="10.00"> final IOsFolder iOsFolder)</text>
<polygon fill="#666666" stroke="#666666" points="212,-58 212,-58 374,-58 374,-58 212,-58"/>
<polygon fill="#666666" stroke="#666666" points="212,-42 212,-42 374,-42 374,-42 212,-42"/>
<polygon fill="none" stroke="#666666" points="212,0 212,-88 374,-88 374,0 212,0"/>
</a>
</g>
</g>
<!-- Node1&#45;&gt;Node3 -->
<g id="edge2_Node000001_Node000003" class="edge">
<title>Node1&#45;&gt;Node3</title>
<g id="a_edge2_Node000001_Node000003"><a xlink:title=" ">
<path fill="none" stroke="#63b8ff" d="M326.41,-114.05C321.96,-104.85 317.67,-95.98 313.73,-87.84"/>
<polygon fill="none" stroke="#63b8ff" points="323.13,-115.31 330.64,-122.79 329.43,-112.26 323.13,-115.31"/>
</a>
</g>
</g>
<!-- Node4 -->
<g id="Node000004" class="node">
<title>Node4</title>
<g id="a_Node000004"><a xlink:href="classfr_1_1softsf_1_1sudokufx_1_1config_1_1database_1_1_data_source_config_default.html" target="_top" xlink:title="Overrides Abstract DataSource hikariDataSource for the default profile.">
<polygon fill="white" stroke="none" points="554,-88 392,-88 392,0 554,0 554,-88"/>
<text text-anchor="start" x="397.25" y="-74.5" font-family="Helvetica,sans-Serif" font-size="10.00">fr.softsf.sudokufx.config.database.</text>
<text text-anchor="start" x="417.12" y="-62.5" font-family="Helvetica,sans-Serif" font-size="10.00">DataSourceConfigDefault</text>
<text text-anchor="start" x="471.5" y="-46.5" font-family="Helvetica,sans-Serif" font-size="10.00"> </text>
<text text-anchor="start" x="396" y="-30.5" font-family="Helvetica,sans-Serif" font-size="10.00">~</text>
<text text-anchor="start" x="406" y="-30.5" font-family="Helvetica,sans-Serif" font-size="10.00">HikariDataSource hikariData</text>
<text text-anchor="start" x="406" y="-18.5" font-family="Helvetica,sans-Serif" font-size="10.00">Source(final IKeystore iKeystore,</text>
<text text-anchor="start" x="406" y="-6.5" font-family="Helvetica,sans-Serif" font-size="10.00"> final IOsFolder iOsFolder)</text>
<polygon fill="#666666" stroke="#666666" points="392,-58 392,-58 554,-58 554,-58 392,-58"/>
<polygon fill="#666666" stroke="#666666" points="392,-42 392,-42 554,-42 554,-42 392,-42"/>
<polygon fill="none" stroke="#666666" points="392,0 392,-88 554,-88 554,0 392,0"/>
</a>
</g>
</g>
<!-- Node1&#45;&gt;Node4 -->
<g id="edge3_Node000001_Node000004" class="edge">
<title>Node1&#45;&gt;Node4</title>
<g id="a_edge3_Node000001_Node000004"><a xlink:title=" ">
<path fill="none" stroke="#63b8ff" d="M439.59,-114.05C444.04,-104.85 448.33,-95.98 452.27,-87.84"/>
<polygon fill="none" stroke="#63b8ff" points="436.57,-112.26 435.36,-122.79 442.87,-115.31 436.57,-112.26"/>
</a>
</g>
</g>
<!-- Node5 -->
<g id="Node000005" class="node">
<title>Node5</title>
<g id="a_Node000005"><a xlink:href="classfr_1_1softsf_1_1sudokufx_1_1config_1_1database_1_1_data_source_config_test.html" target="_top" xlink:title="Overrides Abstract DataSource hikariDataSource for the test profile.">
<polygon fill="white" stroke="none" points="734,-88 572,-88 572,0 734,0 734,-88"/>
<text text-anchor="start" x="577.25" y="-74.5" font-family="Helvetica,sans-Serif" font-size="10.00">fr.softsf.sudokufx.config.database.</text>
<text text-anchor="start" x="603.5" y="-62.5" font-family="Helvetica,sans-Serif" font-size="10.00">DataSourceConfigTest</text>
<text text-anchor="start" x="651.5" y="-46.5" font-family="Helvetica,sans-Serif" font-size="10.00"> </text>
<text text-anchor="start" x="576" y="-30.5" font-family="Helvetica,sans-Serif" font-size="10.00">~</text>
<text text-anchor="start" x="586" y="-30.5" font-family="Helvetica,sans-Serif" font-size="10.00">HikariDataSource hikariData</text>
<text text-anchor="start" x="586" y="-18.5" font-family="Helvetica,sans-Serif" font-size="10.00">Source(final IKeystore iKeystore,</text>
<text text-anchor="start" x="586" y="-6.5" font-family="Helvetica,sans-Serif" font-size="10.00"> final IOsFolder iOsFolder)</text>
<polygon fill="#666666" stroke="#666666" points="572,-58 572,-58 734,-58 734,-58 572,-58"/>
<polygon fill="#666666" stroke="#666666" points="572,-42 572,-42 734,-42 734,-42 572,-42"/>
<polygon fill="none" stroke="#666666" points="572,0 572,-88 734,-88 734,0 572,0"/>
</a>
</g>
</g>
<!-- Node1&#45;&gt;Node5 -->
<g id="edge4_Node000001_Node000005" class="edge">
<title>Node1&#45;&gt;Node5</title>
<g id="a_edge4_Node000001_Node000005"><a xlink:title=" ">
<path fill="none" stroke="#63b8ff" d="M472.83,-169.12C511.51,-142.47 555.79,-111.97 590.77,-87.87"/>
<polygon fill="none" stroke="#63b8ff" points="471.14,-166.03 464.89,-174.59 475.11,-171.8 471.14,-166.03"/>
</a>
</g>
</g>
</g>
</svg>
