<?xml version="1.0" encoding="UTF-8" standalone="no"?>
<!DOCTYPE svg PUBLIC "-//W3C//DTD SVG 1.1//EN"
 "http://www.w3.org/Graphics/SVG/1.1/DTD/svg11.dtd">
<!-- Generated by graphviz version 12.2.1 (20241206.2353)
 -->
<!-- Title: fr.softsf.sudokufx.model.Player.PlayerBuilder Pages: 1 -->
<!--zoomable 1088 -->

<svg id="main" version="1.1" xmlns="http://www.w3.org/2000/svg" xmlns:xlink="http://www.w3.org/1999/xlink" xml:space="preserve" onload="init(evt)">

<style type="text/css"><![CDATA[
.node, .edge {opacity: 0.7;}
.node.selected, .edge.selected {opacity: 1;}
.edge:hover path { stroke: red; }
.edge:hover polygon { stroke: red; fill: red; }
]]></style>

<defs>
  <circle id="rim" cx="0" cy="0" r="7"/>
  <circle id="rim2" cx="0" cy="0" r="3.5"/>
  <g id="zoomPlus">
    <use xlink:href="#rim" fill="#404040"><set attributeName="fill" to="#808080" begin="zoomplus.mouseover" end="zoomplus.mouseout"/></use>
    <path d="M-4,0h8M0,-4v8" fill="none" stroke="white" stroke-width="1.5" pointer-events="none"/>
  </g>
  <g id="zoomMin">
    <use xlink:href="#rim" fill="#404040"><set attributeName="fill" to="#808080" begin="zoomminus.mouseover" end="zoomminus.mouseout"/></use>
    <path d="M-4,0h8" fill="none" stroke="white" stroke-width="1.5" pointer-events="none"/>
  </g>
  <g id="arrowUp" transform="translate(30 24)">
    <use xlink:href="#rim"/>
    <path pointer-events="none" fill="none" stroke="white" stroke-width="1.5" d="M0,-3.0v7 M-2.5,-0.5L0,-3.0L2.5,-0.5"/>
  </g>
  <g id="arrowRight" transform="rotate(90) translate(36 -43)">
    <use xlink:href="#rim"/>
    <path pointer-events="none" fill="none" stroke="white" stroke-width="1.5" d="M0,-3.0v7 M-2.5,-0.5L0,-3.0L2.5,-0.5"/>
  </g>
  <g id="arrowDown" transform="rotate(180) translate(-30 -48)">
    <use xlink:href="#rim"/>
    <path pointer-events="none" fill="none" stroke="white" stroke-width="1.5" d="M0,-3.0v7 M-2.5,-0.5L0,-3.0L2.5,-0.5"/>
  </g>
  <g id="arrowLeft" transform="rotate(270) translate(-36 17)">
    <use xlink:href="#rim"/>
    <path pointer-events="none" fill="none" stroke="white" stroke-width="1.5" d="M0,-3.0v7 M-2.5,-0.5L0,-3.0L2.5,-0.5"/>
  </g>
  <g id="resetDef">
    <use xlink:href="#rim2" fill="#404040"><set attributeName="fill" to="#808080" begin="reset.mouseover" end="reset.mouseout"/></use>
  </g>
</defs>
<script type="application/ecmascript">
var viewWidth = 503;
var viewHeight = 1088;
var sectionId = 'dynsection-0';
</script>
<script type="application/ecmascript" xlink:href="svg.min.js"/>
<svg id="graph" class="graph">
<g id="viewport">
<title>fr.softsf.sudokufx.model.Player.PlayerBuilder</title>
<!-- Node1 -->
<g id="Node000001" class="node">
<title>Node1</title>
<g id="a_Node000001"><a xlink:title=" ">
<polygon fill="#999999" stroke="none" points="334.12,-396 164.62,-396 164.62,0 334.12,0 334.12,-396"/>
<text text-anchor="start" x="195" y="-382.5" font-family="Helvetica,sans-Serif" font-size="10.00">fr.softsf.sudokufx.model.</text>
<text text-anchor="start" x="205.12" y="-370.5" font-family="Helvetica,sans-Serif" font-size="10.00">Player.PlayerBuilder</text>
<text text-anchor="start" x="170.12" y="-354.5" font-family="Helvetica,sans-Serif" font-size="10.00">&#45;</text>
<text text-anchor="start" x="178.62" y="-354.5" font-family="Helvetica,sans-Serif" font-size="10.00">LocalDateTime createdat</text>
<text text-anchor="start" x="170.12" y="-338.5" font-family="Helvetica,sans-Serif" font-size="10.00">&#45;</text>
<text text-anchor="start" x="178.62" y="-338.5" font-family="Helvetica,sans-Serif" font-size="10.00">Set&lt; Game &gt; games</text>
<text text-anchor="start" x="170.12" y="-322.5" font-family="Helvetica,sans-Serif" font-size="10.00">&#45;</text>
<text text-anchor="start" x="178.62" y="-322.5" font-family="Helvetica,sans-Serif" font-size="10.00">Boolean isselected</text>
<text text-anchor="start" x="170.12" y="-306.5" font-family="Helvetica,sans-Serif" font-size="10.00">&#45;</text>
<text text-anchor="start" x="178.62" y="-306.5" font-family="Helvetica,sans-Serif" font-size="10.00">String name</text>
<text text-anchor="start" x="170.12" y="-290.5" font-family="Helvetica,sans-Serif" font-size="10.00">&#45;</text>
<text text-anchor="start" x="178.62" y="-290.5" font-family="Helvetica,sans-Serif" font-size="10.00">Long playerid</text>
<text text-anchor="start" x="170.12" y="-274.5" font-family="Helvetica,sans-Serif" font-size="10.00">&#45;</text>
<text text-anchor="start" x="178.62" y="-274.5" font-family="Helvetica,sans-Serif" font-size="10.00">LocalDateTime updatedat</text>
<text text-anchor="start" x="168.62" y="-258.5" font-family="Helvetica,sans-Serif" font-size="10.00">+</text>
<text text-anchor="start" x="178.62" y="-258.5" font-family="Helvetica,sans-Serif" font-size="10.00">PlayerBuilder backgroundid</text>
<text text-anchor="start" x="178.62" y="-246.5" font-family="Helvetica,sans-Serif" font-size="10.00">(Background backgroundid)</text>
<text text-anchor="start" x="168.62" y="-230.5" font-family="Helvetica,sans-Serif" font-size="10.00">+</text>
<text text-anchor="start" x="178.62" y="-230.5" font-family="Helvetica,sans-Serif" font-size="10.00">Player build()</text>
<text text-anchor="start" x="168.62" y="-214.5" font-family="Helvetica,sans-Serif" font-size="10.00">+</text>
<text text-anchor="start" x="178.62" y="-214.5" font-family="Helvetica,sans-Serif" font-size="10.00">PlayerBuilder createdat</text>
<text text-anchor="start" x="178.62" y="-202.5" font-family="Helvetica,sans-Serif" font-size="10.00">(LocalDateTime createdat)</text>
<text text-anchor="start" x="168.62" y="-186.5" font-family="Helvetica,sans-Serif" font-size="10.00">+</text>
<text text-anchor="start" x="178.62" y="-186.5" font-family="Helvetica,sans-Serif" font-size="10.00">PlayerBuilder games</text>
<text text-anchor="start" x="178.62" y="-174.5" font-family="Helvetica,sans-Serif" font-size="10.00">(Set&lt; Game &gt; games)</text>
<text text-anchor="start" x="168.62" y="-158.5" font-family="Helvetica,sans-Serif" font-size="10.00">+</text>
<text text-anchor="start" x="178.62" y="-158.5" font-family="Helvetica,sans-Serif" font-size="10.00">PlayerBuilder isselected</text>
<text text-anchor="start" x="178.62" y="-146.5" font-family="Helvetica,sans-Serif" font-size="10.00">(Boolean isselected)</text>
<text text-anchor="start" x="168.62" y="-130.5" font-family="Helvetica,sans-Serif" font-size="10.00">+</text>
<text text-anchor="start" x="178.62" y="-130.5" font-family="Helvetica,sans-Serif" font-size="10.00">PlayerBuilder menuid</text>
<text text-anchor="start" x="178.62" y="-118.5" font-family="Helvetica,sans-Serif" font-size="10.00">(Menu menuid)</text>
<text text-anchor="start" x="168.62" y="-102.5" font-family="Helvetica,sans-Serif" font-size="10.00">+</text>
<text text-anchor="start" x="178.62" y="-102.5" font-family="Helvetica,sans-Serif" font-size="10.00">PlayerBuilder name</text>
<text text-anchor="start" x="178.62" y="-90.5" font-family="Helvetica,sans-Serif" font-size="10.00">(String name)</text>
<text text-anchor="start" x="168.62" y="-74.5" font-family="Helvetica,sans-Serif" font-size="10.00">+</text>
<text text-anchor="start" x="178.62" y="-74.5" font-family="Helvetica,sans-Serif" font-size="10.00">PlayerBuilder playerid</text>
<text text-anchor="start" x="178.62" y="-62.5" font-family="Helvetica,sans-Serif" font-size="10.00">(Long playerid)</text>
<text text-anchor="start" x="168.62" y="-46.5" font-family="Helvetica,sans-Serif" font-size="10.00">+</text>
<text text-anchor="start" x="178.62" y="-46.5" font-family="Helvetica,sans-Serif" font-size="10.00">PlayerBuilder playerlanguageid</text>
<text text-anchor="start" x="178.62" y="-34.5" font-family="Helvetica,sans-Serif" font-size="10.00">(PlayerLanguage playerlanguageid)</text>
<text text-anchor="start" x="168.62" y="-18.5" font-family="Helvetica,sans-Serif" font-size="10.00">+</text>
<text text-anchor="start" x="178.62" y="-18.5" font-family="Helvetica,sans-Serif" font-size="10.00">PlayerBuilder updatedat</text>
<text text-anchor="start" x="178.62" y="-6.5" font-family="Helvetica,sans-Serif" font-size="10.00">(LocalDateTime updatedat)</text>
<polygon fill="#666666" stroke="#666666" points="164.62,-366 164.62,-366 334.12,-366 334.12,-366 164.62,-366"/>
<polygon fill="#666666" stroke="#666666" points="164.62,-270 164.62,-270 176.62,-270 176.62,-270 164.62,-270"/>
<polygon fill="#666666" stroke="#666666" points="176.62,-270 176.62,-270 334.12,-270 334.12,-270 176.62,-270"/>
<polygon fill="none" stroke="#666666" points="164.62,0 164.62,-396 334.12,-396 334.12,0 164.62,0"/>
</a>
</g>
</g>
<!-- Node2 -->
<g id="Node000002" class="node">
<title>Node2</title>
<g id="a_Node000002"><a xlink:href="classfr_1_1softsf_1_1sudokufx_1_1model_1_1_player_language.html" target="_top" xlink:title=" ">
<polygon fill="white" stroke="none" points="144.75,-854 0,-854 0,-670 144.75,-670 144.75,-854"/>
<text text-anchor="start" x="18" y="-840.5" font-family="Helvetica,sans-Serif" font-size="10.00">fr.softsf.sudokufx.model.</text>
<text text-anchor="start" x="37.5" y="-828.5" font-family="Helvetica,sans-Serif" font-size="10.00">PlayerLanguage</text>
<text text-anchor="start" x="5.5" y="-812.5" font-family="Helvetica,sans-Serif" font-size="10.00">&#45;</text>
<text text-anchor="start" x="14" y="-812.5" font-family="Helvetica,sans-Serif" font-size="10.00">String iso</text>
<text text-anchor="start" x="5.5" y="-796.5" font-family="Helvetica,sans-Serif" font-size="10.00">&#45;</text>
<text text-anchor="start" x="14" y="-796.5" font-family="Helvetica,sans-Serif" font-size="10.00">Long playerlanguageid</text>
<text text-anchor="start" x="4" y="-780.5" font-family="Helvetica,sans-Serif" font-size="10.00">+</text>
<text text-anchor="start" x="14" y="-780.5" font-family="Helvetica,sans-Serif" font-size="10.00">PlayerLanguage()</text>
<text text-anchor="start" x="4" y="-764.5" font-family="Helvetica,sans-Serif" font-size="10.00">+</text>
<text text-anchor="start" x="14" y="-764.5" font-family="Helvetica,sans-Serif" font-size="10.00">PlayerLanguage(Long</text>
<text text-anchor="start" x="14" y="-752.5" font-family="Helvetica,sans-Serif" font-size="10.00"> playerlanguageid, String iso)</text>
<text text-anchor="start" x="4" y="-736.5" font-family="Helvetica,sans-Serif" font-size="10.00">+</text>
<text text-anchor="start" x="14" y="-736.5" font-family="Helvetica,sans-Serif" font-size="10.00">String getIso()</text>
<text text-anchor="start" x="4" y="-720.5" font-family="Helvetica,sans-Serif" font-size="10.00">+</text>
<text text-anchor="start" x="14" y="-720.5" font-family="Helvetica,sans-Serif" font-size="10.00">Long getPlayerlanguageid()</text>
<text text-anchor="start" x="4" y="-704.5" font-family="Helvetica,sans-Serif" font-size="10.00">+</text>
<text text-anchor="start" x="14" y="-704.5" font-family="Helvetica,sans-Serif" font-size="10.00">void setIso(String iso)</text>
<text text-anchor="start" x="4" y="-688.5" font-family="Helvetica,sans-Serif" font-size="10.00">+</text>
<text text-anchor="start" x="14" y="-688.5" font-family="Helvetica,sans-Serif" font-size="10.00">static PlayerLanguageBuilder</text>
<text text-anchor="start" x="14" y="-676.5" font-family="Helvetica,sans-Serif" font-size="10.00"> builder()</text>
<polygon fill="#666666" stroke="#666666" points="0,-824 0,-824 144.75,-824 144.75,-824 0,-824"/>
<polygon fill="#666666" stroke="#666666" points="0,-792 0,-792 12,-792 12,-792 0,-792"/>
<polygon fill="#666666" stroke="#666666" points="12,-792 12,-792 144.75,-792 144.75,-792 12,-792"/>
<polygon fill="none" stroke="#666666" points="0,-670 0,-854 144.75,-854 144.75,-670 0,-670"/>
</a>
</g>
</g>
<!-- Node2&#45;&gt;Node1 -->
<g id="edge1_Node000001_Node000002" class="edge">
<title>Node2&#45;&gt;Node1</title>
<g id="a_edge1_Node000001_Node000002"><a xlink:title=" ">
<path fill="none" stroke="#63b8ff" d="M92.41,-670.32C107.28,-606.46 129.11,-519.28 153.38,-444 157.19,-432.18 161.27,-420.1 165.53,-407.97"/>
<polygon fill="none" stroke="#63b8ff" points="165.52,-407.97 163.76,-400.98 169.53,-396.66 171.3,-403.65 165.52,-407.97"/>
</a>
</g>
<text text-anchor="middle" x="201.78" y="-416.5" font-family="Helvetica,sans-Serif" font-size="10.00" fill="grey"> &#45;playerlanguageid</text>
</g>
<!-- Node3 -->
<g id="Node000003" class="node">
<title>Node3</title>
<g id="a_Node000003"><a xlink:href="classfr_1_1softsf_1_1sudokufx_1_1model_1_1_background.html" target="_top" xlink:title=" ">
<polygon fill="white" stroke="none" points="336.38,-1080 162.38,-1080 162.38,-444 336.38,-444 336.38,-1080"/>
<text text-anchor="start" x="195" y="-1066.5" font-family="Helvetica,sans-Serif" font-size="10.00">fr.softsf.sudokufx.model.</text>
<text text-anchor="start" x="223.5" y="-1054.5" font-family="Helvetica,sans-Serif" font-size="10.00">Background</text>
<text text-anchor="start" x="167.88" y="-1038.5" font-family="Helvetica,sans-Serif" font-size="10.00">&#45;</text>
<text text-anchor="start" x="176.38" y="-1038.5" font-family="Helvetica,sans-Serif" font-size="10.00">Long backgroundid</text>
<text text-anchor="start" x="167.88" y="-1022.5" font-family="Helvetica,sans-Serif" font-size="10.00">&#45;</text>
<text text-anchor="start" x="176.38" y="-1022.5" font-family="Helvetica,sans-Serif" font-size="10.00">String hexcolor</text>
<text text-anchor="start" x="167.88" y="-1006.5" font-family="Helvetica,sans-Serif" font-size="10.00">&#45;</text>
<text text-anchor="start" x="176.38" y="-1006.5" font-family="Helvetica,sans-Serif" font-size="10.00">String imagepath</text>
<text text-anchor="start" x="167.88" y="-990.5" font-family="Helvetica,sans-Serif" font-size="10.00">&#45;</text>
<text text-anchor="start" x="176.38" y="-990.5" font-family="Helvetica,sans-Serif" font-size="10.00">boolean isimage</text>
<text text-anchor="start" x="167.88" y="-974.5" font-family="Helvetica,sans-Serif" font-size="10.00">&#45;</text>
<text text-anchor="start" x="176.38" y="-974.5" font-family="Helvetica,sans-Serif" font-size="10.00">static final String</text>
<text text-anchor="start" x="176.38" y="-962.5" font-family="Helvetica,sans-Serif" font-size="10.00"> DEFAULT_HEX_COLOR</text>
<text text-anchor="start" x="167.88" y="-946.5" font-family="Helvetica,sans-Serif" font-size="10.00">&#45;</text>
<text text-anchor="start" x="176.38" y="-946.5" font-family="Helvetica,sans-Serif" font-size="10.00">static final String</text>
<text text-anchor="start" x="176.38" y="-934.5" font-family="Helvetica,sans-Serif" font-size="10.00"> EMPTY_PATH</text>
<text text-anchor="start" x="167.88" y="-918.5" font-family="Helvetica,sans-Serif" font-size="10.00">&#45;</text>
<text text-anchor="start" x="176.38" y="-918.5" font-family="Helvetica,sans-Serif" font-size="10.00">static final Pattern</text>
<text text-anchor="start" x="176.38" y="-906.5" font-family="Helvetica,sans-Serif" font-size="10.00"> HEX_COLOR_PATTERN</text>
<text text-anchor="start" x="167.88" y="-890.5" font-family="Helvetica,sans-Serif" font-size="10.00">&#45;</text>
<text text-anchor="start" x="176.38" y="-890.5" font-family="Helvetica,sans-Serif" font-size="10.00">static final String</text>
<text text-anchor="start" x="176.38" y="-878.5" font-family="Helvetica,sans-Serif" font-size="10.00"> HEXCOLOR_MUST_NOT_BE</text>
<text text-anchor="start" x="176.38" y="-866.5" font-family="Helvetica,sans-Serif" font-size="10.00">_NULL_OR_BLANK</text>
<text text-anchor="start" x="167.88" y="-850.5" font-family="Helvetica,sans-Serif" font-size="10.00">&#45;</text>
<text text-anchor="start" x="176.38" y="-850.5" font-family="Helvetica,sans-Serif" font-size="10.00">static final String</text>
<text text-anchor="start" x="176.38" y="-838.5" font-family="Helvetica,sans-Serif" font-size="10.00"> IMAGEPATH_MUST_NOT</text>
<text text-anchor="start" x="176.38" y="-826.5" font-family="Helvetica,sans-Serif" font-size="10.00">_BE_NULL</text>
<text text-anchor="start" x="167.88" y="-810.5" font-family="Helvetica,sans-Serif" font-size="10.00">&#45;</text>
<text text-anchor="start" x="176.38" y="-810.5" font-family="Helvetica,sans-Serif" font-size="10.00">static final String</text>
<text text-anchor="start" x="176.38" y="-798.5" font-family="Helvetica,sans-Serif" font-size="10.00"> INVALID_HEX_COLOR_FORMAT</text>
<text text-anchor="start" x="166.38" y="-782.5" font-family="Helvetica,sans-Serif" font-size="10.00">+</text>
<text text-anchor="start" x="176.38" y="-782.5" font-family="Helvetica,sans-Serif" font-size="10.00">Background(Long backgroundid,</text>
<text text-anchor="start" x="176.38" y="-770.5" font-family="Helvetica,sans-Serif" font-size="10.00"> @Nonnull @NotNull String</text>
<text text-anchor="start" x="176.38" y="-758.5" font-family="Helvetica,sans-Serif" font-size="10.00"> hexcolor, @Nonnull @NotNull</text>
<text text-anchor="start" x="176.38" y="-746.5" font-family="Helvetica,sans-Serif" font-size="10.00"> String imagepath, boolean isimage)</text>
<text text-anchor="start" x="166.38" y="-730.5" font-family="Helvetica,sans-Serif" font-size="10.00">+</text>
<text text-anchor="start" x="176.38" y="-730.5" font-family="Helvetica,sans-Serif" font-size="10.00">boolean equals(Object obj)</text>
<text text-anchor="start" x="166.38" y="-714.5" font-family="Helvetica,sans-Serif" font-size="10.00">+</text>
<text text-anchor="start" x="176.38" y="-714.5" font-family="Helvetica,sans-Serif" font-size="10.00">Long getBackgroundid()</text>
<text text-anchor="start" x="166.38" y="-698.5" font-family="Helvetica,sans-Serif" font-size="10.00">+</text>
<text text-anchor="start" x="176.38" y="-698.5" font-family="Helvetica,sans-Serif" font-size="10.00">String getHexcolor()</text>
<text text-anchor="start" x="166.38" y="-682.5" font-family="Helvetica,sans-Serif" font-size="10.00">+</text>
<text text-anchor="start" x="176.38" y="-682.5" font-family="Helvetica,sans-Serif" font-size="10.00">String getImagepath()</text>
<text text-anchor="start" x="166.38" y="-666.5" font-family="Helvetica,sans-Serif" font-size="10.00">+</text>
<text text-anchor="start" x="176.38" y="-666.5" font-family="Helvetica,sans-Serif" font-size="10.00">boolean getIsimage()</text>
<text text-anchor="start" x="166.38" y="-650.5" font-family="Helvetica,sans-Serif" font-size="10.00">+</text>
<text text-anchor="start" x="176.38" y="-650.5" font-family="Helvetica,sans-Serif" font-size="10.00">int hashCode()</text>
<text text-anchor="start" x="166.38" y="-634.5" font-family="Helvetica,sans-Serif" font-size="10.00">+</text>
<text text-anchor="start" x="176.38" y="-634.5" font-family="Helvetica,sans-Serif" font-size="10.00">void setHexcolor(@Nonnull</text>
<text text-anchor="start" x="176.38" y="-622.5" font-family="Helvetica,sans-Serif" font-size="10.00"> String hexcolor)</text>
<text text-anchor="start" x="166.38" y="-606.5" font-family="Helvetica,sans-Serif" font-size="10.00">+</text>
<text text-anchor="start" x="176.38" y="-606.5" font-family="Helvetica,sans-Serif" font-size="10.00">void setImagepath(</text>
<text text-anchor="start" x="176.38" y="-594.5" font-family="Helvetica,sans-Serif" font-size="10.00">@Nonnull String imagepath)</text>
<text text-anchor="start" x="166.38" y="-578.5" font-family="Helvetica,sans-Serif" font-size="10.00">+</text>
<text text-anchor="start" x="176.38" y="-578.5" font-family="Helvetica,sans-Serif" font-size="10.00">void setIsimage(boolean</text>
<text text-anchor="start" x="176.38" y="-566.5" font-family="Helvetica,sans-Serif" font-size="10.00"> isimage)</text>
<text text-anchor="start" x="166.38" y="-550.5" font-family="Helvetica,sans-Serif" font-size="10.00">+</text>
<text text-anchor="start" x="176.38" y="-550.5" font-family="Helvetica,sans-Serif" font-size="10.00">String toString()</text>
<text text-anchor="start" x="166.38" y="-534.5" font-family="Helvetica,sans-Serif" font-size="10.00">+</text>
<text text-anchor="start" x="176.38" y="-534.5" font-family="Helvetica,sans-Serif" font-size="10.00">static BackgroundBuilder</text>
<text text-anchor="start" x="176.38" y="-522.5" font-family="Helvetica,sans-Serif" font-size="10.00"> builder()</text>
<text text-anchor="start" x="166.75" y="-506.5" font-family="Helvetica,sans-Serif" font-size="10.00">#</text>
<text text-anchor="start" x="176.38" y="-506.5" font-family="Helvetica,sans-Serif" font-size="10.00">Background()</text>
<text text-anchor="start" x="167.88" y="-490.5" font-family="Helvetica,sans-Serif" font-size="10.00">&#45;</text>
<text text-anchor="start" x="176.38" y="-490.5" font-family="Helvetica,sans-Serif" font-size="10.00">static String validateHexcolor</text>
<text text-anchor="start" x="176.38" y="-478.5" font-family="Helvetica,sans-Serif" font-size="10.00">(String hexcolor)</text>
<text text-anchor="start" x="167.88" y="-462.5" font-family="Helvetica,sans-Serif" font-size="10.00">&#45;</text>
<text text-anchor="start" x="176.38" y="-462.5" font-family="Helvetica,sans-Serif" font-size="10.00">static String validateImagepath</text>
<text text-anchor="start" x="176.38" y="-450.5" font-family="Helvetica,sans-Serif" font-size="10.00">(String imagepath)</text>
<polygon fill="#666666" stroke="#666666" points="162.38,-1050 162.38,-1050 336.38,-1050 336.38,-1050 162.38,-1050"/>
<polygon fill="#666666" stroke="#666666" points="162.38,-794 162.38,-794 174.38,-794 174.38,-794 162.38,-794"/>
<polygon fill="#666666" stroke="#666666" points="174.38,-794 174.38,-794 336.38,-794 336.38,-794 174.38,-794"/>
<polygon fill="none" stroke="#666666" points="162.38,-444 162.38,-1080 336.38,-1080 336.38,-444 162.38,-444"/>
</a>
</g>
</g>
<!-- Node3&#45;&gt;Node1 -->
<g id="edge2_Node000001_Node000003" class="edge">
<title>Node3&#45;&gt;Node1</title>
<g id="a_edge2_Node000001_Node000003"><a xlink:title=" ">
<path fill="none" stroke="#63b8ff" d="M249.38,-444.28C249.38,-432.19 249.38,-420.2 249.38,-408.39"/>
<polygon fill="none" stroke="#63b8ff" points="249.38,-408.55 245.38,-402.55 249.38,-396.55 253.38,-402.55 249.38,-408.55"/>
</a>
</g>
<text text-anchor="middle" x="281.25" y="-416.5" font-family="Helvetica,sans-Serif" font-size="10.00" fill="grey"> &#45;backgroundid</text>
</g>
<!-- Node4 -->
<g id="Node000004" class="node">
<title>Node4</title>
<g id="a_Node000004"><a xlink:href="classfr_1_1softsf_1_1sudokufx_1_1model_1_1_menu.html" target="_top" xlink:title=" ">
<polygon fill="white" stroke="none" points="494.75,-848 354,-848 354,-676 494.75,-676 494.75,-848"/>
<text text-anchor="start" x="358" y="-834.5" font-family="Helvetica,sans-Serif" font-size="10.00">fr.softsf.sudokufx.model.Menu</text>
<text text-anchor="start" x="362.25" y="-818.5" font-family="Helvetica,sans-Serif" font-size="10.00">&#45;</text>
<text text-anchor="start" x="373.5" y="-818.5" font-family="Helvetica,sans-Serif" font-size="10.00">Byte menuid</text>
<text text-anchor="start" x="362.25" y="-802.5" font-family="Helvetica,sans-Serif" font-size="10.00">&#45;</text>
<text text-anchor="start" x="373.5" y="-802.5" font-family="Helvetica,sans-Serif" font-size="10.00">Byte mode</text>
<text text-anchor="start" x="360.75" y="-786.5" font-family="Helvetica,sans-Serif" font-size="10.00">+</text>
<text text-anchor="start" x="373.5" y="-786.5" font-family="Helvetica,sans-Serif" font-size="10.00">Menu()</text>
<text text-anchor="start" x="360.75" y="-770.5" font-family="Helvetica,sans-Serif" font-size="10.00">+</text>
<text text-anchor="start" x="373.5" y="-770.5" font-family="Helvetica,sans-Serif" font-size="10.00">Menu(Byte menuid,</text>
<text text-anchor="start" x="373.5" y="-758.5" font-family="Helvetica,sans-Serif" font-size="10.00"> Byte mode)</text>
<text text-anchor="start" x="360.75" y="-742.5" font-family="Helvetica,sans-Serif" font-size="10.00">+</text>
<text text-anchor="start" x="373.5" y="-742.5" font-family="Helvetica,sans-Serif" font-size="10.00">Byte getMenuid()</text>
<text text-anchor="start" x="360.75" y="-726.5" font-family="Helvetica,sans-Serif" font-size="10.00">+</text>
<text text-anchor="start" x="373.5" y="-726.5" font-family="Helvetica,sans-Serif" font-size="10.00">Byte getMode()</text>
<text text-anchor="start" x="360.75" y="-710.5" font-family="Helvetica,sans-Serif" font-size="10.00">+</text>
<text text-anchor="start" x="373.5" y="-710.5" font-family="Helvetica,sans-Serif" font-size="10.00">void setMode(Byte mode)</text>
<text text-anchor="start" x="360.75" y="-694.5" font-family="Helvetica,sans-Serif" font-size="10.00">+</text>
<text text-anchor="start" x="373.5" y="-694.5" font-family="Helvetica,sans-Serif" font-size="10.00">static MenuBuilder</text>
<text text-anchor="start" x="373.5" y="-682.5" font-family="Helvetica,sans-Serif" font-size="10.00"> builder()</text>
<polygon fill="#666666" stroke="#666666" points="354,-830 354,-830 494.75,-830 494.75,-830 354,-830"/>
<polygon fill="#666666" stroke="#666666" points="354,-798 354,-798 371.5,-798 371.5,-798 354,-798"/>
<polygon fill="#666666" stroke="#666666" points="371.5,-798 371.5,-798 494.75,-798 494.75,-798 371.5,-798"/>
<polygon fill="none" stroke="#666666" points="354,-676 354,-848 494.75,-848 494.75,-676 354,-676"/>
</a>
</g>
</g>
<!-- Node4&#45;&gt;Node1 -->
<g id="edge3_Node000001_Node000004" class="edge">
<title>Node4&#45;&gt;Node1</title>
<g id="a_edge3_Node000001_Node000004"><a xlink:title=" ">
<path fill="none" stroke="#63b8ff" d="M406.35,-676.07C391.94,-611.76 370.11,-521.54 345.38,-444 341.6,-432.17 337.54,-420.08 333.31,-407.94"/>
<polygon fill="none" stroke="#63b8ff" points="333.31,-407.94 327.54,-403.62 329.32,-396.63 335.09,-400.96 333.31,-407.94"/>
</a>
</g>
<text text-anchor="middle" x="357.48" y="-416.5" font-family="Helvetica,sans-Serif" font-size="10.00" fill="grey"> &#45;menuid</text>
</g>
</g>
</svg>

<g id="navigator" transform="translate(0 0)" fill="#404254">
  <rect fill="#f2f5e9" fill-opacity="0.5" stroke="#606060" stroke-width=".5" x="0" y="0" width="60" height="60"/>
  <use id="zoomplus" xlink:href="#zoomPlus" x="17" y="9" onmousedown="handleZoom(evt,'in')"/>
  <use id="zoomminus" xlink:href="#zoomMin" x="42" y="9" onmousedown="handleZoom(evt,'out')"/>
  <use id="reset" xlink:href="#resetDef" x="30" y="36" onmousedown="handleReset()"/>
   <use id="arrowup" xlink:href="#arrowUp" x="0" y="0" onmousedown="handlePan(0,-1)"/>
  <use id="arrowright" xlink:href="#arrowRight" x="0" y="0" onmousedown="handlePan(1,0)"/>
  <use id="arrowdown" xlink:href="#arrowDown" x="0" y="0" onmousedown="handlePan(0,1)"/>
  <use id="arrowleft" xlink:href="#arrowLeft" x="0" y="0" onmousedown="handlePan(-1,0)"/>
</g>
<svg viewBox="0 0 15 15" width="100%" height="30px" preserveAspectRatio="xMaxYMin meet">
 <g id="arrow_out" transform="scale(0.3 0.3)">
  <a xlink:href="classfr_1_1softsf_1_1sudokufx_1_1model_1_1_player_1_1_player_builder__coll__graph_org.svg" target="_base">
   <rect id="button" ry="5" rx="5" y="6" x="6" height="38" width="38"
        fill="#f2f5e9" fill-opacity="0.5" stroke="#606060" stroke-width="1.0"/>
   <path id="arrow"
     d="M 11.500037,31.436501 C 11.940474,20.09759 22.043105,11.32322 32.158766,21.979434 L 37.068811,17.246167 C 37.068811,17.246167 37.088388,32 37.088388,32 L 22.160133,31.978069 C 22.160133,31.978069 26.997745,27.140456 26.997745,27.140456 C 18.528582,18.264221 13.291696,25.230495 11.500037,31.436501 z"
     style="fill:#404040;"/>
  </a>
 </g>
</svg>

<style type='text/css'>
<![CDATA[
[data-mouse-over-selected='false'] { opacity: 0.7; }
[data-mouse-over-selected='true']  { opacity: 1.0; }
]]>
</style>
<script type="application/ecmascript"><![CDATA[
document.addEventListener('DOMContentLoaded', (event) => {
  highlightEdges();
  highlightAdjacentNodes();
});
]]></script>
</svg>
