<?xml version="1.0" encoding="UTF-8" standalone="no"?>
<!DOCTYPE svg PUBLIC "-//W3C//DTD SVG 1.1//EN"
 "http://www.w3.org/Graphics/SVG/1.1/DTD/svg11.dtd">
<!-- Generated by graphviz version 12.2.1 (20241206.2353)
 -->
<!-- Title: fr.softsf.sudokufx.viewmodel.MenuPlayerViewModel.playerName Pages: 1 -->
<svg width="586pt" height="116pt"
 viewBox="0.00 0.00 586.25 116.00" xmlns="http://www.w3.org/2000/svg" xmlns:xlink="http://www.w3.org/1999/xlink">
<g id="graph0" class="graph" transform="scale(1 1) rotate(0) translate(4 112)">
<title>fr.softsf.sudokufx.viewmodel.MenuPlayerViewModel.playerName</title>
<!-- Node1 -->
<g id="Node000001" class="node">
<title>Node1</title>
<g id="a_Node000001"><a xlink:title="Returns the name of the currently selected player or empty if none.">
<polygon fill="#999999" stroke="#666666" points="171.25,-76 0,-76 0,-44 171.25,-44 171.25,-76"/>
<text text-anchor="start" x="8" y="-62.5" font-family="Helvetica,sans-Serif" font-size="10.00">fr.softsf.sudokufx.viewmodel.</text>
<text text-anchor="middle" x="85.62" y="-50.5" font-family="Helvetica,sans-Serif" font-size="10.00">MenuPlayerViewModel.playerName</text>
</a>
</g>
</g>
<!-- Node2 -->
<g id="Node000002" class="node">
<title>Node2</title>
<g id="a_Node000002"><a xlink:href="namespacefr_1_1softsf_1_1sudokufx_1_1dto.html#a78c64f9aa988ddc79b6231cb035950b5" target="_top" xlink:title=" ">
<polygon fill="white" stroke="#666666" points="362.75,-70 207.25,-70 207.25,-50 362.75,-50 362.75,-70"/>
<text text-anchor="middle" x="285" y="-56.5" font-family="Helvetica,sans-Serif" font-size="10.00">fr.softsf.sudokufx.dto.PlayerDto</text>
</a>
</g>
</g>
<!-- Node1&#45;&gt;Node2 -->
<g id="edge1_Node000001_Node000002" class="edge">
<title>Node1&#45;&gt;Node2</title>
<g id="a_edge1_Node000001_Node000002"><a xlink:title=" ">
<path fill="none" stroke="#63b8ff" d="M171.48,-60C179.5,-60 187.65,-60 195.71,-60"/>
<polygon fill="#63b8ff" stroke="#63b8ff" points="195.5,-63.5 205.5,-60 195.5,-56.5 195.5,-63.5"/>
</a>
</g>
</g>
<!-- Node2&#45;&gt;Node2 -->
<g id="edge4_Node000002_Node000002" class="edge">
<title>Node2&#45;&gt;Node2</title>
<g id="a_edge4_Node000002_Node000002"><a xlink:title=" ">
<path fill="none" stroke="#63b8ff" d="M253.32,-70.34C239.78,-78.98 250.34,-88 285,-88 304.49,-88 316.36,-85.14 320.61,-81.11"/>
<polygon fill="#63b8ff" stroke="#63b8ff" points="323.91,-79.95 317.2,-71.76 317.34,-82.35 323.91,-79.95"/>
</a>
</g>
</g>
<!-- Node3 -->
<g id="Node000003" class="node">
<title>Node3</title>
<g id="a_Node000003"><a xlink:href="namespacefr_1_1softsf_1_1sudokufx_1_1dto.html#a74a25e6890e40c0776edc15742133036" target="_top" xlink:title=" ">
<polygon fill="white" stroke="#666666" points="578.25,-108 398.75,-108 398.75,-88 578.25,-88 578.25,-108"/>
<text text-anchor="middle" x="488.5" y="-94.5" font-family="Helvetica,sans-Serif" font-size="10.00">fr.softsf.sudokufx.dto.BackgroundDto</text>
</a>
</g>
</g>
<!-- Node2&#45;&gt;Node3 -->
<g id="edge2_Node000002_Node000003" class="edge">
<title>Node2&#45;&gt;Node3</title>
<g id="a_edge2_Node000002_Node000003"><a xlink:title=" ">
<path fill="none" stroke="#63b8ff" d="M341.59,-70.48C366.15,-75.12 395.22,-80.6 420.92,-85.44"/>
<polygon fill="#63b8ff" stroke="#63b8ff" points="420.12,-88.86 430.6,-87.27 421.42,-81.98 420.12,-88.86"/>
</a>
</g>
</g>
<!-- Node4 -->
<g id="Node000004" class="node">
<title>Node4</title>
<g id="a_Node000004"><a xlink:href="namespacefr_1_1softsf_1_1sudokufx_1_1dto.html#a4b93797829452798604adaaaf4b0da89" target="_top" xlink:title=" ">
<polygon fill="white" stroke="#666666" points="564.38,-70 412.62,-70 412.62,-50 564.38,-50 564.38,-70"/>
<text text-anchor="middle" x="488.5" y="-56.5" font-family="Helvetica,sans-Serif" font-size="10.00">fr.softsf.sudokufx.dto.MenuDto</text>
</a>
</g>
</g>
<!-- Node2&#45;&gt;Node4 -->
<g id="edge3_Node000002_Node000004" class="edge">
<title>Node2&#45;&gt;Node4</title>
<g id="a_edge3_Node000002_Node000004"><a xlink:title=" ">
<path fill="none" stroke="#63b8ff" d="M363.04,-60C375.38,-60 388.21,-60 400.75,-60"/>
<polygon fill="#63b8ff" stroke="#63b8ff" points="400.65,-63.5 410.65,-60 400.65,-56.5 400.65,-63.5"/>
</a>
</g>
</g>
<!-- Node5 -->
<g id="Node000005" class="node">
<title>Node5</title>
<g id="a_Node000005"><a xlink:href="namespacefr_1_1softsf_1_1sudokufx_1_1dto.html#a57e3465d00d6e83a9d0fd8c03223868d" target="_top" xlink:title=" ">
<polygon fill="white" stroke="#666666" points="558.38,-32 418.62,-32 418.62,0 558.38,0 558.38,-32"/>
<text text-anchor="start" x="426.62" y="-18.5" font-family="Helvetica,sans-Serif" font-size="10.00">fr.softsf.sudokufx.dto.Player</text>
<text text-anchor="middle" x="488.5" y="-6.5" font-family="Helvetica,sans-Serif" font-size="10.00">LanguageDto</text>
</a>
</g>
</g>
<!-- Node2&#45;&gt;Node5 -->
<g id="edge5_Node000002_Node000005" class="edge">
<title>Node2&#45;&gt;Node5</title>
<g id="a_edge5_Node000002_Node000005"><a xlink:title=" ">
<path fill="none" stroke="#63b8ff" d="M334.01,-49.52C356.01,-44.71 382.69,-38.89 407.59,-33.45"/>
<polygon fill="#63b8ff" stroke="#63b8ff" points="408.01,-36.94 417.03,-31.39 406.51,-30.1 408.01,-36.94"/>
</a>
</g>
</g>
</g>
</svg>
