<?xml version="1.0" encoding="UTF-8" standalone="no"?>
<!DOCTYPE svg PUBLIC "-//W3C//DTD SVG 1.1//EN"
 "http://www.w3.org/Graphics/SVG/1.1/DTD/svg11.dtd">
<!-- Generated by graphviz version 2.43.0 (0)
 -->
<!-- Title: fr.softsf.sudokufx.config.database.DataSourceConfigCds Pages: 1 -->
<svg width="188pt" height="379pt"
 viewBox="0.00 0.00 188.00 379.00" xmlns="http://www.w3.org/2000/svg" xmlns:xlink="http://www.w3.org/1999/xlink">
<g id="graph0" class="graph" transform="scale(1 1) rotate(0) translate(4 375)">
<title>fr.softsf.sudokufx.config.database.DataSourceConfigCds</title>
<!-- Node1 -->
<g id="Node000001" class="node">
<title>Node1</title>
<g id="a_Node000001"><a xlink:title="Overrides Abstract DataSource hikariDataSource for the CDS profile.">
<polygon fill="#999999" stroke="transparent" points="180,-82 0,-82 0,0 180,0 180,-82"/>
<text text-anchor="start" x="6.5" y="-70" font-family="Helvetica,sans-Serif" font-size="10.00">fr.softsf.sudokufx.config.database.</text>
<text text-anchor="start" x="37" y="-59" font-family="Helvetica,sans-Serif" font-size="10.00">DataSourceConfigCds</text>
<text text-anchor="start" x="88" y="-44" font-family="Helvetica,sans-Serif" font-size="10.00"> </text>
<text text-anchor="start" x="4" y="-29" font-family="Helvetica,sans-Serif" font-size="10.00">~</text>
<text text-anchor="start" x="17" y="-29" font-family="Helvetica,sans-Serif" font-size="10.00">HikariDataSource hikariData</text>
<text text-anchor="start" x="17" y="-18" font-family="Helvetica,sans-Serif" font-size="10.00">Source(final IKeystore iKeystore,</text>
<text text-anchor="start" x="17" y="-7" font-family="Helvetica,sans-Serif" font-size="10.00"> final IOsFolder iOsFolder)</text>
<polygon fill="#666666" stroke="#666666" points="0,-54 0,-54 180,-54 180,-54 0,-54"/>
<polygon fill="#666666" stroke="#666666" points="0,-39 0,-39 180,-39 180,-39 0,-39"/>
<polygon fill="none" stroke="#666666" points="0,0 0,-82 180,-82 180,0 0,0"/>
</a>
</g>
</g>
<!-- Node2 -->
<g id="Node000002" class="node">
<title>Node2</title>
<g id="a_Node000002"><a xlink:href="classfr_1_1softsf_1_1sudokufx_1_1config_1_1database_1_1AbstractDataSourceConfig.html" target="_top" xlink:title="Abstract configuration class for setting up the application&#39;s data source.">
<polygon fill="white" stroke="transparent" points="180,-371 0,-371 0,-118 180,-118 180,-371"/>
<text text-anchor="start" x="6.5" y="-358.5" font-family="Helvetica,sans-Serif" font-size="10.00">fr.softsf.sudokufx.config.database.</text>
<text text-anchor="start" x="26" y="-347.5" font-family="Helvetica,sans-Serif" font-size="10.00">AbstractDataSourceConfig</text>
<text text-anchor="start" x="6.5" y="-332.5" font-family="Helvetica,sans-Serif" font-size="10.00">&#45;</text>
<text text-anchor="start" x="17" y="-332.5" font-family="Helvetica,sans-Serif" font-size="10.00">String jdbcUrl</text>
<text text-anchor="start" x="6.5" y="-317.5" font-family="Helvetica,sans-Serif" font-size="10.00">&#45;</text>
<text text-anchor="start" x="17" y="-317.5" font-family="Helvetica,sans-Serif" font-size="10.00">String poolName</text>
<text text-anchor="start" x="6.5" y="-302.5" font-family="Helvetica,sans-Serif" font-size="10.00">&#45;</text>
<text text-anchor="start" x="17" y="-302.5" font-family="Helvetica,sans-Serif" font-size="10.00">static final String</text>
<text text-anchor="start" x="17" y="-291.5" font-family="Helvetica,sans-Serif" font-size="10.00"> SQL_VALIDATE_LEVEL_COUNT</text>
<text text-anchor="start" x="4" y="-276.5" font-family="Helvetica,sans-Serif" font-size="10.00">+</text>
<text text-anchor="start" x="17" y="-276.5" font-family="Helvetica,sans-Serif" font-size="10.00">void setJdbcUrl(String</text>
<text text-anchor="start" x="17" y="-265.5" font-family="Helvetica,sans-Serif" font-size="10.00"> jdbcUrl)</text>
<text text-anchor="start" x="4" y="-250.5" font-family="Helvetica,sans-Serif" font-size="10.00">+</text>
<text text-anchor="start" x="17" y="-250.5" font-family="Helvetica,sans-Serif" font-size="10.00">void setPoolName(String</text>
<text text-anchor="start" x="17" y="-239.5" font-family="Helvetica,sans-Serif" font-size="10.00"> poolName)</text>
<text text-anchor="start" x="4" y="-224.5" font-family="Helvetica,sans-Serif" font-size="10.00">~</text>
<text text-anchor="start" x="17" y="-224.5" font-family="Helvetica,sans-Serif" font-size="10.00">Flyway flyway(final</text>
<text text-anchor="start" x="17" y="-213.5" font-family="Helvetica,sans-Serif" font-size="10.00"> DataSource hikariDataSource)</text>
<text text-anchor="start" x="4" y="-198.5" font-family="Helvetica,sans-Serif" font-size="10.00">~</text>
<text text-anchor="start" x="17" y="-198.5" font-family="Helvetica,sans-Serif" font-size="10.00">HikariDataSource hikariData</text>
<text text-anchor="start" x="17" y="-187.5" font-family="Helvetica,sans-Serif" font-size="10.00">Source(final IKeystore iKeystore,</text>
<text text-anchor="start" x="17" y="-176.5" font-family="Helvetica,sans-Serif" font-size="10.00"> IOsFolder iOsFolder)</text>
<text text-anchor="start" x="6.5" y="-161.5" font-family="Helvetica,sans-Serif" font-size="10.00">&#45;</text>
<text text-anchor="start" x="17" y="-161.5" font-family="Helvetica,sans-Serif" font-size="10.00">HikariConfig getHikariConfig</text>
<text text-anchor="start" x="17" y="-150.5" font-family="Helvetica,sans-Serif" font-size="10.00">(IKeystore iKeystore)</text>
<text text-anchor="start" x="6.5" y="-135.5" font-family="Helvetica,sans-Serif" font-size="10.00">&#45;</text>
<text text-anchor="start" x="17" y="-135.5" font-family="Helvetica,sans-Serif" font-size="10.00">void validateDatabaseState</text>
<text text-anchor="start" x="17" y="-124.5" font-family="Helvetica,sans-Serif" font-size="10.00">(DataSource dataSource)</text>
<polygon fill="#666666" stroke="#666666" points="0,-342.5 0,-342.5 180,-342.5 180,-342.5 0,-342.5"/>
<polygon fill="#666666" stroke="#666666" points="0,-286.5 0,-286.5 15,-286.5 15,-286.5 0,-286.5"/>
<polygon fill="#666666" stroke="#666666" points="15,-286.5 15,-286.5 180,-286.5 180,-286.5 15,-286.5"/>
<polygon fill="none" stroke="#666666" points="0,-118 0,-371 180,-371 180,-118 0,-118"/>
</a>
</g>
</g>
<!-- Node2&#45;&gt;Node1 -->
<g id="edge1_Node000001_Node000002" class="edge">
<title>Node2&#45;&gt;Node1</title>
<g id="a_edge1_Node000001_Node000002"><a xlink:title=" ">
<path fill="none" stroke="#63b8ff" d="M90,-107.85C90,-98.75 90,-90.07 90,-82.19"/>
<polygon fill="none" stroke="#63b8ff" points="86.5,-107.89 90,-117.89 93.5,-107.89 86.5,-107.89"/>
</a>
</g>
</g>
</g>
</svg>
