<?xml version="1.0" encoding="UTF-8" standalone="no"?>
<!DOCTYPE svg PUBLIC "-//W3C//DTD SVG 1.1//EN"
 "http://www.w3.org/Graphics/SVG/1.1/DTD/svg11.dtd">
<!-- Generated by graphviz version 12.2.1 (20241206.2353)
 -->
<!-- Title: fr.softsf.sudokufx.model.Game.GameBuilder Pages: 1 -->
<!--zoomable 1440 -->

<svg id="main" version="1.1" xmlns="http://www.w3.org/2000/svg" xmlns:xlink="http://www.w3.org/1999/xlink" xml:space="preserve" onload="init(evt)">

<style type="text/css"><![CDATA[
.node, .edge {opacity: 0.7;}
.node.selected, .edge.selected {opacity: 1;}
.edge:hover path { stroke: red; }
.edge:hover polygon { stroke: red; fill: red; }
]]></style>

<defs>
  <circle id="rim" cx="0" cy="0" r="7"/>
  <circle id="rim2" cx="0" cy="0" r="3.5"/>
  <g id="zoomPlus">
    <use xlink:href="#rim" fill="#404040"><set attributeName="fill" to="#808080" begin="zoomplus.mouseover" end="zoomplus.mouseout"/></use>
    <path d="M-4,0h8M0,-4v8" fill="none" stroke="white" stroke-width="1.5" pointer-events="none"/>
  </g>
  <g id="zoomMin">
    <use xlink:href="#rim" fill="#404040"><set attributeName="fill" to="#808080" begin="zoomminus.mouseover" end="zoomminus.mouseout"/></use>
    <path d="M-4,0h8" fill="none" stroke="white" stroke-width="1.5" pointer-events="none"/>
  </g>
  <g id="arrowUp" transform="translate(30 24)">
    <use xlink:href="#rim"/>
    <path pointer-events="none" fill="none" stroke="white" stroke-width="1.5" d="M0,-3.0v7 M-2.5,-0.5L0,-3.0L2.5,-0.5"/>
  </g>
  <g id="arrowRight" transform="rotate(90) translate(36 -43)">
    <use xlink:href="#rim"/>
    <path pointer-events="none" fill="none" stroke="white" stroke-width="1.5" d="M0,-3.0v7 M-2.5,-0.5L0,-3.0L2.5,-0.5"/>
  </g>
  <g id="arrowDown" transform="rotate(180) translate(-30 -48)">
    <use xlink:href="#rim"/>
    <path pointer-events="none" fill="none" stroke="white" stroke-width="1.5" d="M0,-3.0v7 M-2.5,-0.5L0,-3.0L2.5,-0.5"/>
  </g>
  <g id="arrowLeft" transform="rotate(270) translate(-36 17)">
    <use xlink:href="#rim"/>
    <path pointer-events="none" fill="none" stroke="white" stroke-width="1.5" d="M0,-3.0v7 M-2.5,-0.5L0,-3.0L2.5,-0.5"/>
  </g>
  <g id="resetDef">
    <use xlink:href="#rim2" fill="#404040"><set attributeName="fill" to="#808080" begin="reset.mouseover" end="reset.mouseout"/></use>
  </g>
</defs>
<script type="application/ecmascript">
var viewWidth = 511;
var viewHeight = 1440;
var sectionId = 'dynsection-0';
</script>
<script type="application/ecmascript" xlink:href="svg.min.js"/>
<svg id="graph" class="graph">
<g id="viewport">
<title>fr.softsf.sudokufx.model.Game.GameBuilder</title>
<!-- Node1 -->
<g id="Node000001" class="node">
<title>Node1</title>
<g id="a_Node000001"><a xlink:title=" ">
<polygon fill="#999999" stroke="none" points="325.12,-308 189.38,-308 189.38,0 325.12,0 325.12,-308"/>
<text text-anchor="start" x="202.88" y="-294.5" font-family="Helvetica,sans-Serif" font-size="10.00">fr.softsf.sudokufx.model.</text>
<text text-anchor="start" x="214.5" y="-282.5" font-family="Helvetica,sans-Serif" font-size="10.00">Game.GameBuilder</text>
<text text-anchor="start" x="194.88" y="-266.5" font-family="Helvetica,sans-Serif" font-size="10.00">&#45;</text>
<text text-anchor="start" x="203.38" y="-266.5" font-family="Helvetica,sans-Serif" font-size="10.00">LocalDateTime createdat</text>
<text text-anchor="start" x="194.88" y="-250.5" font-family="Helvetica,sans-Serif" font-size="10.00">&#45;</text>
<text text-anchor="start" x="203.38" y="-250.5" font-family="Helvetica,sans-Serif" font-size="10.00">Long gameid</text>
<text text-anchor="start" x="194.88" y="-234.5" font-family="Helvetica,sans-Serif" font-size="10.00">&#45;</text>
<text text-anchor="start" x="203.38" y="-234.5" font-family="Helvetica,sans-Serif" font-size="10.00">boolean isselected</text>
<text text-anchor="start" x="194.88" y="-218.5" font-family="Helvetica,sans-Serif" font-size="10.00">&#45;</text>
<text text-anchor="start" x="203.38" y="-218.5" font-family="Helvetica,sans-Serif" font-size="10.00">LocalDateTime updatedat</text>
<text text-anchor="start" x="193.38" y="-202.5" font-family="Helvetica,sans-Serif" font-size="10.00">+</text>
<text text-anchor="start" x="203.38" y="-202.5" font-family="Helvetica,sans-Serif" font-size="10.00">Game build()</text>
<text text-anchor="start" x="193.38" y="-186.5" font-family="Helvetica,sans-Serif" font-size="10.00">+</text>
<text text-anchor="start" x="203.38" y="-186.5" font-family="Helvetica,sans-Serif" font-size="10.00">GameBuilder createdat</text>
<text text-anchor="start" x="203.38" y="-174.5" font-family="Helvetica,sans-Serif" font-size="10.00">(LocalDateTime createdat)</text>
<text text-anchor="start" x="193.38" y="-158.5" font-family="Helvetica,sans-Serif" font-size="10.00">+</text>
<text text-anchor="start" x="203.38" y="-158.5" font-family="Helvetica,sans-Serif" font-size="10.00">GameBuilder gameid</text>
<text text-anchor="start" x="203.38" y="-146.5" font-family="Helvetica,sans-Serif" font-size="10.00">(Long gameid)</text>
<text text-anchor="start" x="193.38" y="-130.5" font-family="Helvetica,sans-Serif" font-size="10.00">+</text>
<text text-anchor="start" x="203.38" y="-130.5" font-family="Helvetica,sans-Serif" font-size="10.00">GameBuilder gridid</text>
<text text-anchor="start" x="203.38" y="-118.5" font-family="Helvetica,sans-Serif" font-size="10.00">(Grid gridid)</text>
<text text-anchor="start" x="193.38" y="-102.5" font-family="Helvetica,sans-Serif" font-size="10.00">+</text>
<text text-anchor="start" x="203.38" y="-102.5" font-family="Helvetica,sans-Serif" font-size="10.00">GameBuilder isselected</text>
<text text-anchor="start" x="203.38" y="-90.5" font-family="Helvetica,sans-Serif" font-size="10.00">(boolean isselected)</text>
<text text-anchor="start" x="193.38" y="-74.5" font-family="Helvetica,sans-Serif" font-size="10.00">+</text>
<text text-anchor="start" x="203.38" y="-74.5" font-family="Helvetica,sans-Serif" font-size="10.00">GameBuilder levelid</text>
<text text-anchor="start" x="203.38" y="-62.5" font-family="Helvetica,sans-Serif" font-size="10.00">(GameLevel levelid)</text>
<text text-anchor="start" x="193.38" y="-46.5" font-family="Helvetica,sans-Serif" font-size="10.00">+</text>
<text text-anchor="start" x="203.38" y="-46.5" font-family="Helvetica,sans-Serif" font-size="10.00">GameBuilder playerid</text>
<text text-anchor="start" x="203.38" y="-34.5" font-family="Helvetica,sans-Serif" font-size="10.00">(Player playerid)</text>
<text text-anchor="start" x="193.38" y="-18.5" font-family="Helvetica,sans-Serif" font-size="10.00">+</text>
<text text-anchor="start" x="203.38" y="-18.5" font-family="Helvetica,sans-Serif" font-size="10.00">GameBuilder updatedat</text>
<text text-anchor="start" x="203.38" y="-6.5" font-family="Helvetica,sans-Serif" font-size="10.00">(LocalDateTime updatedat)</text>
<polygon fill="#666666" stroke="#666666" points="189.38,-278 189.38,-278 325.12,-278 325.12,-278 189.38,-278"/>
<polygon fill="#666666" stroke="#666666" points="189.38,-214 189.38,-214 201.38,-214 201.38,-214 189.38,-214"/>
<polygon fill="#666666" stroke="#666666" points="201.38,-214 201.38,-214 325.12,-214 325.12,-214 201.38,-214"/>
<polygon fill="none" stroke="#666666" points="189.38,0 189.38,-308 325.12,-308 325.12,0 189.38,0"/>
</a>
</g>
</g>
<!-- Node2 -->
<g id="Node000002" class="node">
<title>Node2</title>
<g id="a_Node000002"><a xlink:href="classfr_1_1softsf_1_1sudokufx_1_1model_1_1_grid.html" target="_top" xlink:title=" ">
<polygon fill="white" stroke="none" points="136.5,-716 0,-716 0,-388 136.5,-388 136.5,-716"/>
<text text-anchor="start" x="4.88" y="-702.5" font-family="Helvetica,sans-Serif" font-size="10.00">fr.softsf.sudokufx.model.Grid</text>
<text text-anchor="start" x="5.5" y="-686.5" font-family="Helvetica,sans-Serif" font-size="10.00">&#45;</text>
<text text-anchor="start" x="14" y="-686.5" font-family="Helvetica,sans-Serif" font-size="10.00">String defaultgridvalue</text>
<text text-anchor="start" x="5.5" y="-670.5" font-family="Helvetica,sans-Serif" font-size="10.00">&#45;</text>
<text text-anchor="start" x="14" y="-670.5" font-family="Helvetica,sans-Serif" font-size="10.00">Long gridid</text>
<text text-anchor="start" x="5.5" y="-654.5" font-family="Helvetica,sans-Serif" font-size="10.00">&#45;</text>
<text text-anchor="start" x="14" y="-654.5" font-family="Helvetica,sans-Serif" font-size="10.00">String gridvalue</text>
<text text-anchor="start" x="5.5" y="-638.5" font-family="Helvetica,sans-Serif" font-size="10.00">&#45;</text>
<text text-anchor="start" x="14" y="-638.5" font-family="Helvetica,sans-Serif" font-size="10.00">Byte possibilities</text>
<text text-anchor="start" x="4" y="-622.5" font-family="Helvetica,sans-Serif" font-size="10.00">+</text>
<text text-anchor="start" x="14" y="-622.5" font-family="Helvetica,sans-Serif" font-size="10.00">Grid()</text>
<text text-anchor="start" x="4" y="-606.5" font-family="Helvetica,sans-Serif" font-size="10.00">+</text>
<text text-anchor="start" x="14" y="-606.5" font-family="Helvetica,sans-Serif" font-size="10.00">Grid(Long gridid,</text>
<text text-anchor="start" x="14" y="-594.5" font-family="Helvetica,sans-Serif" font-size="10.00"> String defaultgridvalue,</text>
<text text-anchor="start" x="14" y="-582.5" font-family="Helvetica,sans-Serif" font-size="10.00"> String gridvalue, Byte</text>
<text text-anchor="start" x="14" y="-570.5" font-family="Helvetica,sans-Serif" font-size="10.00"> possibilities)</text>
<text text-anchor="start" x="4" y="-554.5" font-family="Helvetica,sans-Serif" font-size="10.00">+</text>
<text text-anchor="start" x="14" y="-554.5" font-family="Helvetica,sans-Serif" font-size="10.00">String getDefaultgridvalue()</text>
<text text-anchor="start" x="4" y="-538.5" font-family="Helvetica,sans-Serif" font-size="10.00">+</text>
<text text-anchor="start" x="14" y="-538.5" font-family="Helvetica,sans-Serif" font-size="10.00">Long getGridid()</text>
<text text-anchor="start" x="4" y="-522.5" font-family="Helvetica,sans-Serif" font-size="10.00">+</text>
<text text-anchor="start" x="14" y="-522.5" font-family="Helvetica,sans-Serif" font-size="10.00">String getGridvalue()</text>
<text text-anchor="start" x="4" y="-506.5" font-family="Helvetica,sans-Serif" font-size="10.00">+</text>
<text text-anchor="start" x="14" y="-506.5" font-family="Helvetica,sans-Serif" font-size="10.00">Byte getPossibilities()</text>
<text text-anchor="start" x="4" y="-490.5" font-family="Helvetica,sans-Serif" font-size="10.00">+</text>
<text text-anchor="start" x="14" y="-490.5" font-family="Helvetica,sans-Serif" font-size="10.00">void setDefaultgridvalue</text>
<text text-anchor="start" x="14" y="-478.5" font-family="Helvetica,sans-Serif" font-size="10.00">(String defaultgridvalue)</text>
<text text-anchor="start" x="4" y="-462.5" font-family="Helvetica,sans-Serif" font-size="10.00">+</text>
<text text-anchor="start" x="14" y="-462.5" font-family="Helvetica,sans-Serif" font-size="10.00">void setGridvalue(String</text>
<text text-anchor="start" x="14" y="-450.5" font-family="Helvetica,sans-Serif" font-size="10.00"> gridvalue)</text>
<text text-anchor="start" x="4" y="-434.5" font-family="Helvetica,sans-Serif" font-size="10.00">+</text>
<text text-anchor="start" x="14" y="-434.5" font-family="Helvetica,sans-Serif" font-size="10.00">void setPossibilities</text>
<text text-anchor="start" x="14" y="-422.5" font-family="Helvetica,sans-Serif" font-size="10.00">(Byte possibilities)</text>
<text text-anchor="start" x="4" y="-406.5" font-family="Helvetica,sans-Serif" font-size="10.00">+</text>
<text text-anchor="start" x="14" y="-406.5" font-family="Helvetica,sans-Serif" font-size="10.00">static GridBuilder</text>
<text text-anchor="start" x="14" y="-394.5" font-family="Helvetica,sans-Serif" font-size="10.00"> builder()</text>
<polygon fill="#666666" stroke="#666666" points="0,-698 0,-698 136.5,-698 136.5,-698 0,-698"/>
<polygon fill="#666666" stroke="#666666" points="0,-634 0,-634 12,-634 12,-634 0,-634"/>
<polygon fill="#666666" stroke="#666666" points="12,-634 12,-634 136.5,-634 136.5,-634 12,-634"/>
<polygon fill="none" stroke="#666666" points="0,-388 0,-716 136.5,-716 136.5,-388 0,-388"/>
</a>
</g>
</g>
<!-- Node2&#45;&gt;Node1 -->
<g id="edge1_Node000001_Node000002" class="edge">
<title>Node2&#45;&gt;Node1</title>
<g id="a_edge1_Node000001_Node000002"><a xlink:title=" ">
<path fill="none" stroke="#63b8ff" d="M130.72,-388.04C135.48,-377.13 140.34,-366.36 145.25,-356 156.76,-331.69 169.97,-306.26 183.18,-281.98"/>
<polygon fill="none" stroke="#63b8ff" points="183.24,-281.86 182.62,-274.68 189.01,-271.34 189.64,-278.52 183.24,-281.86"/>
</a>
</g>
<text text-anchor="middle" x="173.65" y="-328.5" font-family="Helvetica,sans-Serif" font-size="10.00" fill="grey"> &#45;gridid</text>
</g>
<!-- Node3 -->
<g id="Node000003" class="node">
<title>Node3</title>
<g id="a_Node000003"><a xlink:href="classfr_1_1softsf_1_1sudokufx_1_1model_1_1_player.html" target="_top" xlink:title=" ">
<polygon fill="white" stroke="none" points="360,-748 154.5,-748 154.5,-356 360,-356 360,-748"/>
<text text-anchor="start" x="202.88" y="-734.5" font-family="Helvetica,sans-Serif" font-size="10.00">fr.softsf.sudokufx.model.</text>
<text text-anchor="start" x="243.38" y="-722.5" font-family="Helvetica,sans-Serif" font-size="10.00">Player</text>
<text text-anchor="start" x="160" y="-706.5" font-family="Helvetica,sans-Serif" font-size="10.00">&#45;</text>
<text text-anchor="start" x="168.5" y="-706.5" font-family="Helvetica,sans-Serif" font-size="10.00">LocalDateTime createdat</text>
<text text-anchor="start" x="160" y="-690.5" font-family="Helvetica,sans-Serif" font-size="10.00">&#45;</text>
<text text-anchor="start" x="168.5" y="-690.5" font-family="Helvetica,sans-Serif" font-size="10.00">Set&lt; Game &gt; games</text>
<text text-anchor="start" x="160" y="-674.5" font-family="Helvetica,sans-Serif" font-size="10.00">&#45;</text>
<text text-anchor="start" x="168.5" y="-674.5" font-family="Helvetica,sans-Serif" font-size="10.00">Boolean isselected</text>
<text text-anchor="start" x="160" y="-658.5" font-family="Helvetica,sans-Serif" font-size="10.00">&#45;</text>
<text text-anchor="start" x="168.5" y="-658.5" font-family="Helvetica,sans-Serif" font-size="10.00">String name</text>
<text text-anchor="start" x="160" y="-642.5" font-family="Helvetica,sans-Serif" font-size="10.00">&#45;</text>
<text text-anchor="start" x="168.5" y="-642.5" font-family="Helvetica,sans-Serif" font-size="10.00">Long playerid</text>
<text text-anchor="start" x="160" y="-626.5" font-family="Helvetica,sans-Serif" font-size="10.00">&#45;</text>
<text text-anchor="start" x="168.5" y="-626.5" font-family="Helvetica,sans-Serif" font-size="10.00">LocalDateTime updatedat</text>
<text text-anchor="start" x="158.5" y="-610.5" font-family="Helvetica,sans-Serif" font-size="10.00">+</text>
<text text-anchor="start" x="168.5" y="-610.5" font-family="Helvetica,sans-Serif" font-size="10.00">Player()</text>
<text text-anchor="start" x="158.5" y="-594.5" font-family="Helvetica,sans-Serif" font-size="10.00">+</text>
<text text-anchor="start" x="168.5" y="-594.5" font-family="Helvetica,sans-Serif" font-size="10.00">Player(Long playerid,</text>
<text text-anchor="start" x="168.5" y="-582.5" font-family="Helvetica,sans-Serif" font-size="10.00"> PlayerLanguage playerlanguageid,</text>
<text text-anchor="start" x="168.5" y="-570.5" font-family="Helvetica,sans-Serif" font-size="10.00"> Background backgroundid, Menu</text>
<text text-anchor="start" x="168.5" y="-558.5" font-family="Helvetica,sans-Serif" font-size="10.00"> menuid, Set&lt; Game &gt; games, String</text>
<text text-anchor="start" x="168.5" y="-546.5" font-family="Helvetica,sans-Serif" font-size="10.00"> name, Boolean isselected, LocalDateTime</text>
<text text-anchor="start" x="168.5" y="-534.5" font-family="Helvetica,sans-Serif" font-size="10.00"> createdat, LocalDateTime updatedat)</text>
<text text-anchor="start" x="158.5" y="-518.5" font-family="Helvetica,sans-Serif" font-size="10.00">+</text>
<text text-anchor="start" x="168.5" y="-518.5" font-family="Helvetica,sans-Serif" font-size="10.00">void addGame(Game game)</text>
<text text-anchor="start" x="158.5" y="-502.5" font-family="Helvetica,sans-Serif" font-size="10.00">+</text>
<text text-anchor="start" x="168.5" y="-502.5" font-family="Helvetica,sans-Serif" font-size="10.00">Background getBackgroundid()</text>
<text text-anchor="start" x="158.5" y="-486.5" font-family="Helvetica,sans-Serif" font-size="10.00">+</text>
<text text-anchor="start" x="168.5" y="-486.5" font-family="Helvetica,sans-Serif" font-size="10.00">LocalDateTime getCreatedat()</text>
<text text-anchor="start" x="158.5" y="-470.5" font-family="Helvetica,sans-Serif" font-size="10.00">+</text>
<text text-anchor="start" x="168.5" y="-470.5" font-family="Helvetica,sans-Serif" font-size="10.00">Set&lt; Game &gt; getGames()</text>
<text text-anchor="start" x="158.5" y="-454.5" font-family="Helvetica,sans-Serif" font-size="10.00">+</text>
<text text-anchor="start" x="168.5" y="-454.5" font-family="Helvetica,sans-Serif" font-size="10.00">Boolean getIsselected()</text>
<text text-anchor="start" x="158.5" y="-438.5" font-family="Helvetica,sans-Serif" font-size="10.00">+</text>
<text text-anchor="start" x="168.5" y="-438.5" font-family="Helvetica,sans-Serif" font-size="10.00">Menu getMenuid()</text>
<text text-anchor="start" x="158.5" y="-422.5" font-family="Helvetica,sans-Serif" font-size="10.00">+</text>
<text text-anchor="start" x="168.5" y="-422.5" font-family="Helvetica,sans-Serif" font-size="10.00">String getName()</text>
<text text-anchor="start" x="158.5" y="-406.5" font-family="Helvetica,sans-Serif" font-size="10.00">+</text>
<text text-anchor="start" x="168.5" y="-406.5" font-family="Helvetica,sans-Serif" font-size="10.00">Long getPlayerid()</text>
<text text-anchor="start" x="168.5" y="-390.5" font-family="Helvetica,sans-Serif" font-size="10.00">and 9 more...</text>
<text text-anchor="start" x="158.5" y="-374.5" font-family="Helvetica,sans-Serif" font-size="10.00">+</text>
<text text-anchor="start" x="168.5" y="-374.5" font-family="Helvetica,sans-Serif" font-size="10.00">static PlayerBuilder</text>
<text text-anchor="start" x="168.5" y="-362.5" font-family="Helvetica,sans-Serif" font-size="10.00"> builder()</text>
<polygon fill="#666666" stroke="#666666" points="154.5,-718 154.5,-718 360,-718 360,-718 154.5,-718"/>
<polygon fill="#666666" stroke="#666666" points="154.5,-622 154.5,-622 166.5,-622 166.5,-622 154.5,-622"/>
<polygon fill="#666666" stroke="#666666" points="166.5,-622 166.5,-622 360,-622 360,-622 166.5,-622"/>
<polygon fill="none" stroke="#666666" points="154.5,-356 154.5,-748 360,-748 360,-356 154.5,-356"/>
</a>
</g>
</g>
<!-- Node3&#45;&gt;Node1 -->
<g id="edge2_Node000001_Node000003" class="edge">
<title>Node3&#45;&gt;Node1</title>
<g id="a_edge2_Node000001_Node000003"><a xlink:title=" ">
<path fill="none" stroke="#63b8ff" d="M257.25,-356.19C257.25,-344.28 257.25,-332.35 257.25,-320.58"/>
<polygon fill="none" stroke="#63b8ff" points="257.25,-320.78 253.25,-314.78 257.25,-308.78 261.25,-314.78 257.25,-320.78"/>
</a>
</g>
<text text-anchor="middle" x="277.12" y="-328.5" font-family="Helvetica,sans-Serif" font-size="10.00" fill="grey"> &#45;playerid</text>
</g>
<!-- Node4 -->
<g id="Node000004" class="node">
<title>Node4</title>
<g id="a_Node000004"><a xlink:href="classfr_1_1softsf_1_1sudokufx_1_1model_1_1_player_language.html" target="_top" xlink:title=" ">
<polygon fill="white" stroke="none" points="152.62,-1206 7.88,-1206 7.88,-1022 152.62,-1022 152.62,-1206"/>
<text text-anchor="start" x="25.88" y="-1192.5" font-family="Helvetica,sans-Serif" font-size="10.00">fr.softsf.sudokufx.model.</text>
<text text-anchor="start" x="45.38" y="-1180.5" font-family="Helvetica,sans-Serif" font-size="10.00">PlayerLanguage</text>
<text text-anchor="start" x="13.38" y="-1164.5" font-family="Helvetica,sans-Serif" font-size="10.00">&#45;</text>
<text text-anchor="start" x="21.88" y="-1164.5" font-family="Helvetica,sans-Serif" font-size="10.00">String iso</text>
<text text-anchor="start" x="13.38" y="-1148.5" font-family="Helvetica,sans-Serif" font-size="10.00">&#45;</text>
<text text-anchor="start" x="21.88" y="-1148.5" font-family="Helvetica,sans-Serif" font-size="10.00">Long playerlanguageid</text>
<text text-anchor="start" x="11.88" y="-1132.5" font-family="Helvetica,sans-Serif" font-size="10.00">+</text>
<text text-anchor="start" x="21.88" y="-1132.5" font-family="Helvetica,sans-Serif" font-size="10.00">PlayerLanguage()</text>
<text text-anchor="start" x="11.88" y="-1116.5" font-family="Helvetica,sans-Serif" font-size="10.00">+</text>
<text text-anchor="start" x="21.88" y="-1116.5" font-family="Helvetica,sans-Serif" font-size="10.00">PlayerLanguage(Long</text>
<text text-anchor="start" x="21.88" y="-1104.5" font-family="Helvetica,sans-Serif" font-size="10.00"> playerlanguageid, String iso)</text>
<text text-anchor="start" x="11.88" y="-1088.5" font-family="Helvetica,sans-Serif" font-size="10.00">+</text>
<text text-anchor="start" x="21.88" y="-1088.5" font-family="Helvetica,sans-Serif" font-size="10.00">String getIso()</text>
<text text-anchor="start" x="11.88" y="-1072.5" font-family="Helvetica,sans-Serif" font-size="10.00">+</text>
<text text-anchor="start" x="21.88" y="-1072.5" font-family="Helvetica,sans-Serif" font-size="10.00">Long getPlayerlanguageid()</text>
<text text-anchor="start" x="11.88" y="-1056.5" font-family="Helvetica,sans-Serif" font-size="10.00">+</text>
<text text-anchor="start" x="21.88" y="-1056.5" font-family="Helvetica,sans-Serif" font-size="10.00">void setIso(String iso)</text>
<text text-anchor="start" x="11.88" y="-1040.5" font-family="Helvetica,sans-Serif" font-size="10.00">+</text>
<text text-anchor="start" x="21.88" y="-1040.5" font-family="Helvetica,sans-Serif" font-size="10.00">static PlayerLanguageBuilder</text>
<text text-anchor="start" x="21.88" y="-1028.5" font-family="Helvetica,sans-Serif" font-size="10.00"> builder()</text>
<polygon fill="#666666" stroke="#666666" points="7.88,-1176 7.88,-1176 152.62,-1176 152.62,-1176 7.88,-1176"/>
<polygon fill="#666666" stroke="#666666" points="7.88,-1144 7.88,-1144 19.88,-1144 19.88,-1144 7.88,-1144"/>
<polygon fill="#666666" stroke="#666666" points="19.88,-1144 19.88,-1144 152.62,-1144 152.62,-1144 19.88,-1144"/>
<polygon fill="none" stroke="#666666" points="7.88,-1022 7.88,-1206 152.62,-1206 152.62,-1022 7.88,-1022"/>
</a>
</g>
</g>
<!-- Node4&#45;&gt;Node3 -->
<g id="edge3_Node000003_Node000004" class="edge">
<title>Node4&#45;&gt;Node3</title>
<g id="a_edge3_Node000003_Node000004"><a xlink:title=" ">
<path fill="none" stroke="#63b8ff" d="M100.22,-1022.3C115.06,-958.43 136.88,-871.25 161.25,-796 165.08,-784.19 169.18,-772.12 173.46,-759.99"/>
<polygon fill="none" stroke="#63b8ff" points="173.46,-760 171.71,-753 177.5,-748.7 179.24,-755.69 173.46,-760"/>
</a>
</g>
<text text-anchor="middle" x="209.64" y="-768.5" font-family="Helvetica,sans-Serif" font-size="10.00" fill="grey"> &#45;playerlanguageid</text>
</g>
<!-- Node5 -->
<g id="Node000005" class="node">
<title>Node5</title>
<g id="a_Node000005"><a xlink:href="classfr_1_1softsf_1_1sudokufx_1_1model_1_1_background.html" target="_top" xlink:title=" ">
<polygon fill="white" stroke="none" points="344.25,-1432 170.25,-1432 170.25,-796 344.25,-796 344.25,-1432"/>
<text text-anchor="start" x="202.88" y="-1418.5" font-family="Helvetica,sans-Serif" font-size="10.00">fr.softsf.sudokufx.model.</text>
<text text-anchor="start" x="231.38" y="-1406.5" font-family="Helvetica,sans-Serif" font-size="10.00">Background</text>
<text text-anchor="start" x="175.75" y="-1390.5" font-family="Helvetica,sans-Serif" font-size="10.00">&#45;</text>
<text text-anchor="start" x="184.25" y="-1390.5" font-family="Helvetica,sans-Serif" font-size="10.00">Long backgroundid</text>
<text text-anchor="start" x="175.75" y="-1374.5" font-family="Helvetica,sans-Serif" font-size="10.00">&#45;</text>
<text text-anchor="start" x="184.25" y="-1374.5" font-family="Helvetica,sans-Serif" font-size="10.00">String hexcolor</text>
<text text-anchor="start" x="175.75" y="-1358.5" font-family="Helvetica,sans-Serif" font-size="10.00">&#45;</text>
<text text-anchor="start" x="184.25" y="-1358.5" font-family="Helvetica,sans-Serif" font-size="10.00">String imagepath</text>
<text text-anchor="start" x="175.75" y="-1342.5" font-family="Helvetica,sans-Serif" font-size="10.00">&#45;</text>
<text text-anchor="start" x="184.25" y="-1342.5" font-family="Helvetica,sans-Serif" font-size="10.00">boolean isimage</text>
<text text-anchor="start" x="175.75" y="-1326.5" font-family="Helvetica,sans-Serif" font-size="10.00">&#45;</text>
<text text-anchor="start" x="184.25" y="-1326.5" font-family="Helvetica,sans-Serif" font-size="10.00">static final String</text>
<text text-anchor="start" x="184.25" y="-1314.5" font-family="Helvetica,sans-Serif" font-size="10.00"> DEFAULT_HEX_COLOR</text>
<text text-anchor="start" x="175.75" y="-1298.5" font-family="Helvetica,sans-Serif" font-size="10.00">&#45;</text>
<text text-anchor="start" x="184.25" y="-1298.5" font-family="Helvetica,sans-Serif" font-size="10.00">static final String</text>
<text text-anchor="start" x="184.25" y="-1286.5" font-family="Helvetica,sans-Serif" font-size="10.00"> EMPTY_PATH</text>
<text text-anchor="start" x="175.75" y="-1270.5" font-family="Helvetica,sans-Serif" font-size="10.00">&#45;</text>
<text text-anchor="start" x="184.25" y="-1270.5" font-family="Helvetica,sans-Serif" font-size="10.00">static final Pattern</text>
<text text-anchor="start" x="184.25" y="-1258.5" font-family="Helvetica,sans-Serif" font-size="10.00"> HEX_COLOR_PATTERN</text>
<text text-anchor="start" x="175.75" y="-1242.5" font-family="Helvetica,sans-Serif" font-size="10.00">&#45;</text>
<text text-anchor="start" x="184.25" y="-1242.5" font-family="Helvetica,sans-Serif" font-size="10.00">static final String</text>
<text text-anchor="start" x="184.25" y="-1230.5" font-family="Helvetica,sans-Serif" font-size="10.00"> HEXCOLOR_MUST_NOT_BE</text>
<text text-anchor="start" x="184.25" y="-1218.5" font-family="Helvetica,sans-Serif" font-size="10.00">_NULL_OR_BLANK</text>
<text text-anchor="start" x="175.75" y="-1202.5" font-family="Helvetica,sans-Serif" font-size="10.00">&#45;</text>
<text text-anchor="start" x="184.25" y="-1202.5" font-family="Helvetica,sans-Serif" font-size="10.00">static final String</text>
<text text-anchor="start" x="184.25" y="-1190.5" font-family="Helvetica,sans-Serif" font-size="10.00"> IMAGEPATH_MUST_NOT</text>
<text text-anchor="start" x="184.25" y="-1178.5" font-family="Helvetica,sans-Serif" font-size="10.00">_BE_NULL</text>
<text text-anchor="start" x="175.75" y="-1162.5" font-family="Helvetica,sans-Serif" font-size="10.00">&#45;</text>
<text text-anchor="start" x="184.25" y="-1162.5" font-family="Helvetica,sans-Serif" font-size="10.00">static final String</text>
<text text-anchor="start" x="184.25" y="-1150.5" font-family="Helvetica,sans-Serif" font-size="10.00"> INVALID_HEX_COLOR_FORMAT</text>
<text text-anchor="start" x="174.25" y="-1134.5" font-family="Helvetica,sans-Serif" font-size="10.00">+</text>
<text text-anchor="start" x="184.25" y="-1134.5" font-family="Helvetica,sans-Serif" font-size="10.00">Background(Long backgroundid,</text>
<text text-anchor="start" x="184.25" y="-1122.5" font-family="Helvetica,sans-Serif" font-size="10.00"> @Nonnull @NotNull String</text>
<text text-anchor="start" x="184.25" y="-1110.5" font-family="Helvetica,sans-Serif" font-size="10.00"> hexcolor, @Nonnull @NotNull</text>
<text text-anchor="start" x="184.25" y="-1098.5" font-family="Helvetica,sans-Serif" font-size="10.00"> String imagepath, boolean isimage)</text>
<text text-anchor="start" x="174.25" y="-1082.5" font-family="Helvetica,sans-Serif" font-size="10.00">+</text>
<text text-anchor="start" x="184.25" y="-1082.5" font-family="Helvetica,sans-Serif" font-size="10.00">boolean equals(Object obj)</text>
<text text-anchor="start" x="174.25" y="-1066.5" font-family="Helvetica,sans-Serif" font-size="10.00">+</text>
<text text-anchor="start" x="184.25" y="-1066.5" font-family="Helvetica,sans-Serif" font-size="10.00">Long getBackgroundid()</text>
<text text-anchor="start" x="174.25" y="-1050.5" font-family="Helvetica,sans-Serif" font-size="10.00">+</text>
<text text-anchor="start" x="184.25" y="-1050.5" font-family="Helvetica,sans-Serif" font-size="10.00">String getHexcolor()</text>
<text text-anchor="start" x="174.25" y="-1034.5" font-family="Helvetica,sans-Serif" font-size="10.00">+</text>
<text text-anchor="start" x="184.25" y="-1034.5" font-family="Helvetica,sans-Serif" font-size="10.00">String getImagepath()</text>
<text text-anchor="start" x="174.25" y="-1018.5" font-family="Helvetica,sans-Serif" font-size="10.00">+</text>
<text text-anchor="start" x="184.25" y="-1018.5" font-family="Helvetica,sans-Serif" font-size="10.00">boolean getIsimage()</text>
<text text-anchor="start" x="174.25" y="-1002.5" font-family="Helvetica,sans-Serif" font-size="10.00">+</text>
<text text-anchor="start" x="184.25" y="-1002.5" font-family="Helvetica,sans-Serif" font-size="10.00">int hashCode()</text>
<text text-anchor="start" x="174.25" y="-986.5" font-family="Helvetica,sans-Serif" font-size="10.00">+</text>
<text text-anchor="start" x="184.25" y="-986.5" font-family="Helvetica,sans-Serif" font-size="10.00">void setHexcolor(@Nonnull</text>
<text text-anchor="start" x="184.25" y="-974.5" font-family="Helvetica,sans-Serif" font-size="10.00"> String hexcolor)</text>
<text text-anchor="start" x="174.25" y="-958.5" font-family="Helvetica,sans-Serif" font-size="10.00">+</text>
<text text-anchor="start" x="184.25" y="-958.5" font-family="Helvetica,sans-Serif" font-size="10.00">void setImagepath(</text>
<text text-anchor="start" x="184.25" y="-946.5" font-family="Helvetica,sans-Serif" font-size="10.00">@Nonnull String imagepath)</text>
<text text-anchor="start" x="174.25" y="-930.5" font-family="Helvetica,sans-Serif" font-size="10.00">+</text>
<text text-anchor="start" x="184.25" y="-930.5" font-family="Helvetica,sans-Serif" font-size="10.00">void setIsimage(boolean</text>
<text text-anchor="start" x="184.25" y="-918.5" font-family="Helvetica,sans-Serif" font-size="10.00"> isimage)</text>
<text text-anchor="start" x="174.25" y="-902.5" font-family="Helvetica,sans-Serif" font-size="10.00">+</text>
<text text-anchor="start" x="184.25" y="-902.5" font-family="Helvetica,sans-Serif" font-size="10.00">String toString()</text>
<text text-anchor="start" x="174.25" y="-886.5" font-family="Helvetica,sans-Serif" font-size="10.00">+</text>
<text text-anchor="start" x="184.25" y="-886.5" font-family="Helvetica,sans-Serif" font-size="10.00">static BackgroundBuilder</text>
<text text-anchor="start" x="184.25" y="-874.5" font-family="Helvetica,sans-Serif" font-size="10.00"> builder()</text>
<text text-anchor="start" x="174.62" y="-858.5" font-family="Helvetica,sans-Serif" font-size="10.00">#</text>
<text text-anchor="start" x="184.25" y="-858.5" font-family="Helvetica,sans-Serif" font-size="10.00">Background()</text>
<text text-anchor="start" x="175.75" y="-842.5" font-family="Helvetica,sans-Serif" font-size="10.00">&#45;</text>
<text text-anchor="start" x="184.25" y="-842.5" font-family="Helvetica,sans-Serif" font-size="10.00">static String validateHexcolor</text>
<text text-anchor="start" x="184.25" y="-830.5" font-family="Helvetica,sans-Serif" font-size="10.00">(String hexcolor)</text>
<text text-anchor="start" x="175.75" y="-814.5" font-family="Helvetica,sans-Serif" font-size="10.00">&#45;</text>
<text text-anchor="start" x="184.25" y="-814.5" font-family="Helvetica,sans-Serif" font-size="10.00">static String validateImagepath</text>
<text text-anchor="start" x="184.25" y="-802.5" font-family="Helvetica,sans-Serif" font-size="10.00">(String imagepath)</text>
<polygon fill="#666666" stroke="#666666" points="170.25,-1402 170.25,-1402 344.25,-1402 344.25,-1402 170.25,-1402"/>
<polygon fill="#666666" stroke="#666666" points="170.25,-1146 170.25,-1146 182.25,-1146 182.25,-1146 170.25,-1146"/>
<polygon fill="#666666" stroke="#666666" points="182.25,-1146 182.25,-1146 344.25,-1146 344.25,-1146 182.25,-1146"/>
<polygon fill="none" stroke="#666666" points="170.25,-796 170.25,-1432 344.25,-1432 344.25,-796 170.25,-796"/>
</a>
</g>
</g>
<!-- Node5&#45;&gt;Node3 -->
<g id="edge4_Node000003_Node000005" class="edge">
<title>Node5&#45;&gt;Node3</title>
<g id="a_edge4_Node000003_Node000005"><a xlink:title=" ">
<path fill="none" stroke="#63b8ff" d="M257.25,-796.18C257.25,-784.31 257.25,-772.54 257.25,-760.94"/>
<polygon fill="none" stroke="#63b8ff" points="257.25,-760.82 253.25,-754.82 257.25,-748.82 261.25,-754.82 257.25,-760.82"/>
</a>
</g>
<text text-anchor="middle" x="289.12" y="-768.5" font-family="Helvetica,sans-Serif" font-size="10.00" fill="grey"> &#45;backgroundid</text>
</g>
<!-- Node6 -->
<g id="Node000006" class="node">
<title>Node6</title>
<g id="a_Node000006"><a xlink:href="classfr_1_1softsf_1_1sudokufx_1_1model_1_1_menu.html" target="_top" xlink:title=" ">
<polygon fill="white" stroke="none" points="502.62,-1200 361.88,-1200 361.88,-1028 502.62,-1028 502.62,-1200"/>
<text text-anchor="start" x="365.88" y="-1186.5" font-family="Helvetica,sans-Serif" font-size="10.00">fr.softsf.sudokufx.model.Menu</text>
<text text-anchor="start" x="370.12" y="-1170.5" font-family="Helvetica,sans-Serif" font-size="10.00">&#45;</text>
<text text-anchor="start" x="381.38" y="-1170.5" font-family="Helvetica,sans-Serif" font-size="10.00">Byte menuid</text>
<text text-anchor="start" x="370.12" y="-1154.5" font-family="Helvetica,sans-Serif" font-size="10.00">&#45;</text>
<text text-anchor="start" x="381.38" y="-1154.5" font-family="Helvetica,sans-Serif" font-size="10.00">Byte mode</text>
<text text-anchor="start" x="368.62" y="-1138.5" font-family="Helvetica,sans-Serif" font-size="10.00">+</text>
<text text-anchor="start" x="381.38" y="-1138.5" font-family="Helvetica,sans-Serif" font-size="10.00">Menu()</text>
<text text-anchor="start" x="368.62" y="-1122.5" font-family="Helvetica,sans-Serif" font-size="10.00">+</text>
<text text-anchor="start" x="381.38" y="-1122.5" font-family="Helvetica,sans-Serif" font-size="10.00">Menu(Byte menuid,</text>
<text text-anchor="start" x="381.38" y="-1110.5" font-family="Helvetica,sans-Serif" font-size="10.00"> Byte mode)</text>
<text text-anchor="start" x="368.62" y="-1094.5" font-family="Helvetica,sans-Serif" font-size="10.00">+</text>
<text text-anchor="start" x="381.38" y="-1094.5" font-family="Helvetica,sans-Serif" font-size="10.00">Byte getMenuid()</text>
<text text-anchor="start" x="368.62" y="-1078.5" font-family="Helvetica,sans-Serif" font-size="10.00">+</text>
<text text-anchor="start" x="381.38" y="-1078.5" font-family="Helvetica,sans-Serif" font-size="10.00">Byte getMode()</text>
<text text-anchor="start" x="368.62" y="-1062.5" font-family="Helvetica,sans-Serif" font-size="10.00">+</text>
<text text-anchor="start" x="381.38" y="-1062.5" font-family="Helvetica,sans-Serif" font-size="10.00">void setMode(Byte mode)</text>
<text text-anchor="start" x="368.62" y="-1046.5" font-family="Helvetica,sans-Serif" font-size="10.00">+</text>
<text text-anchor="start" x="381.38" y="-1046.5" font-family="Helvetica,sans-Serif" font-size="10.00">static MenuBuilder</text>
<text text-anchor="start" x="381.38" y="-1034.5" font-family="Helvetica,sans-Serif" font-size="10.00"> builder()</text>
<polygon fill="#666666" stroke="#666666" points="361.88,-1182 361.88,-1182 502.62,-1182 502.62,-1182 361.88,-1182"/>
<polygon fill="#666666" stroke="#666666" points="361.88,-1150 361.88,-1150 379.38,-1150 379.38,-1150 361.88,-1150"/>
<polygon fill="#666666" stroke="#666666" points="379.38,-1150 379.38,-1150 502.62,-1150 502.62,-1150 379.38,-1150"/>
<polygon fill="none" stroke="#666666" points="361.88,-1028 361.88,-1200 502.62,-1200 502.62,-1028 361.88,-1028"/>
</a>
</g>
</g>
<!-- Node6&#45;&gt;Node3 -->
<g id="edge5_Node000003_Node000006" class="edge">
<title>Node6&#45;&gt;Node3</title>
<g id="a_edge5_Node000003_Node000006"><a xlink:title=" ">
<path fill="none" stroke="#63b8ff" d="M414.29,-1028.05C399.91,-963.72 378.1,-873.5 353.25,-796 349.46,-784.18 345.38,-772.1 341.12,-759.97"/>
<polygon fill="none" stroke="#63b8ff" points="341.12,-759.97 335.35,-755.66 337.11,-748.67 342.88,-752.98 341.12,-759.97"/>
</a>
</g>
<text text-anchor="middle" x="365.37" y="-768.5" font-family="Helvetica,sans-Serif" font-size="10.00" fill="grey"> &#45;menuid</text>
</g>
<!-- Node7 -->
<g id="Node000007" class="node">
<title>Node7</title>
<g id="a_Node000007"><a xlink:href="classfr_1_1softsf_1_1sudokufx_1_1model_1_1_game_level.html" target="_top" xlink:title=" ">
<polygon fill="white" stroke="none" points="502.5,-650 378,-650 378,-454 502.5,-454 502.5,-650"/>
<text text-anchor="start" x="385.88" y="-636.5" font-family="Helvetica,sans-Serif" font-size="10.00">fr.softsf.sudokufx.model.</text>
<text text-anchor="start" x="415.5" y="-624.5" font-family="Helvetica,sans-Serif" font-size="10.00">GameLevel</text>
<text text-anchor="start" x="383.5" y="-608.5" font-family="Helvetica,sans-Serif" font-size="10.00">&#45;</text>
<text text-anchor="start" x="392" y="-608.5" font-family="Helvetica,sans-Serif" font-size="10.00">Byte level</text>
<text text-anchor="start" x="383.5" y="-592.5" font-family="Helvetica,sans-Serif" font-size="10.00">&#45;</text>
<text text-anchor="start" x="392" y="-592.5" font-family="Helvetica,sans-Serif" font-size="10.00">Byte levelid</text>
<text text-anchor="start" x="382" y="-576.5" font-family="Helvetica,sans-Serif" font-size="10.00">+</text>
<text text-anchor="start" x="392" y="-576.5" font-family="Helvetica,sans-Serif" font-size="10.00">GameLevel()</text>
<text text-anchor="start" x="382" y="-560.5" font-family="Helvetica,sans-Serif" font-size="10.00">+</text>
<text text-anchor="start" x="392" y="-560.5" font-family="Helvetica,sans-Serif" font-size="10.00">GameLevel(Byte levelid,</text>
<text text-anchor="start" x="392" y="-548.5" font-family="Helvetica,sans-Serif" font-size="10.00"> Byte level)</text>
<text text-anchor="start" x="382" y="-532.5" font-family="Helvetica,sans-Serif" font-size="10.00">+</text>
<text text-anchor="start" x="392" y="-532.5" font-family="Helvetica,sans-Serif" font-size="10.00">Byte getLevel()</text>
<text text-anchor="start" x="382" y="-516.5" font-family="Helvetica,sans-Serif" font-size="10.00">+</text>
<text text-anchor="start" x="392" y="-516.5" font-family="Helvetica,sans-Serif" font-size="10.00">Byte getLevelid()</text>
<text text-anchor="start" x="382" y="-500.5" font-family="Helvetica,sans-Serif" font-size="10.00">+</text>
<text text-anchor="start" x="392" y="-500.5" font-family="Helvetica,sans-Serif" font-size="10.00">void setLevel(Byte</text>
<text text-anchor="start" x="392" y="-488.5" font-family="Helvetica,sans-Serif" font-size="10.00"> level)</text>
<text text-anchor="start" x="382" y="-472.5" font-family="Helvetica,sans-Serif" font-size="10.00">+</text>
<text text-anchor="start" x="392" y="-472.5" font-family="Helvetica,sans-Serif" font-size="10.00">static GameLevelBuilder</text>
<text text-anchor="start" x="392" y="-460.5" font-family="Helvetica,sans-Serif" font-size="10.00"> builder()</text>
<polygon fill="#666666" stroke="#666666" points="378,-620 378,-620 502.5,-620 502.5,-620 378,-620"/>
<polygon fill="#666666" stroke="#666666" points="378,-588 378,-588 390,-588 390,-588 378,-588"/>
<polygon fill="#666666" stroke="#666666" points="390,-588 390,-588 502.5,-588 502.5,-588 390,-588"/>
<polygon fill="none" stroke="#666666" points="378,-454 378,-650 502.5,-650 502.5,-454 378,-454"/>
</a>
</g>
</g>
<!-- Node7&#45;&gt;Node1 -->
<g id="edge6_Node000001_Node000007" class="edge">
<title>Node7&#45;&gt;Node1</title>
<g id="a_edge6_Node000001_Node000007"><a xlink:title=" ">
<path fill="none" stroke="#63b8ff" d="M408.39,-454.06C397.07,-422.37 383.55,-387.29 369.25,-356 357.87,-331.11 344.56,-305.15 331.17,-280.47"/>
<polygon fill="none" stroke="#63b8ff" points="331.21,-280.55 324.82,-277.2 325.45,-270.02 331.84,-273.36 331.21,-280.55"/>
</a>
</g>
<text text-anchor="middle" x="375.45" y="-328.5" font-family="Helvetica,sans-Serif" font-size="10.00" fill="grey"> &#45;levelid</text>
</g>
</g>
</svg>

<g id="navigator" transform="translate(0 0)" fill="#404254">
  <rect fill="#f2f5e9" fill-opacity="0.5" stroke="#606060" stroke-width=".5" x="0" y="0" width="60" height="60"/>
  <use id="zoomplus" xlink:href="#zoomPlus" x="17" y="9" onmousedown="handleZoom(evt,'in')"/>
  <use id="zoomminus" xlink:href="#zoomMin" x="42" y="9" onmousedown="handleZoom(evt,'out')"/>
  <use id="reset" xlink:href="#resetDef" x="30" y="36" onmousedown="handleReset()"/>
   <use id="arrowup" xlink:href="#arrowUp" x="0" y="0" onmousedown="handlePan(0,-1)"/>
  <use id="arrowright" xlink:href="#arrowRight" x="0" y="0" onmousedown="handlePan(1,0)"/>
  <use id="arrowdown" xlink:href="#arrowDown" x="0" y="0" onmousedown="handlePan(0,1)"/>
  <use id="arrowleft" xlink:href="#arrowLeft" x="0" y="0" onmousedown="handlePan(-1,0)"/>
</g>
<svg viewBox="0 0 15 15" width="100%" height="30px" preserveAspectRatio="xMaxYMin meet">
 <g id="arrow_out" transform="scale(0.3 0.3)">
  <a xlink:href="classfr_1_1softsf_1_1sudokufx_1_1model_1_1_game_1_1_game_builder__coll__graph_org.svg" target="_base">
   <rect id="button" ry="5" rx="5" y="6" x="6" height="38" width="38"
        fill="#f2f5e9" fill-opacity="0.5" stroke="#606060" stroke-width="1.0"/>
   <path id="arrow"
     d="M 11.500037,31.436501 C 11.940474,20.09759 22.043105,11.32322 32.158766,21.979434 L 37.068811,17.246167 C 37.068811,17.246167 37.088388,32 37.088388,32 L 22.160133,31.978069 C 22.160133,31.978069 26.997745,27.140456 26.997745,27.140456 C 18.528582,18.264221 13.291696,25.230495 11.500037,31.436501 z"
     style="fill:#404040;"/>
  </a>
 </g>
</svg>

<style type='text/css'>
<![CDATA[
[data-mouse-over-selected='false'] { opacity: 0.7; }
[data-mouse-over-selected='true']  { opacity: 1.0; }
]]>
</style>
<script type="application/ecmascript"><![CDATA[
document.addEventListener('DOMContentLoaded', (event) => {
  highlightEdges();
  highlightAdjacentNodes();
});
]]></script>
</svg>
