<?xml version="1.0" encoding="UTF-8" standalone="no"?>
<!DOCTYPE svg PUBLIC "-//W3C//DTD SVG 1.1//EN"
 "http://www.w3.org/Graphics/SVG/1.1/DTD/svg11.dtd">
<!-- Generated by graphviz version 12.2.1 (20241206.2353)
 -->
<!-- Title: fr.softsf.sudokufx.common.util.sudoku.GridMaster.creerLesGrilles Pages: 1 -->
<svg width="1940pt" height="458pt"
 viewBox="0.00 0.00 1939.75 458.00" xmlns="http://www.w3.org/2000/svg" xmlns:xlink="http://www.w3.org/1999/xlink">
<g id="graph0" class="graph" transform="scale(1 1) rotate(0) translate(4 454)">
<title>fr.softsf.sudokufx.common.util.sudoku.GridMaster.creerLesGrilles</title>
<!-- Node1 -->
<g id="Node000001" class="node">
<title>Node1</title>
<g id="a_Node000001"><a xlink:title="Crée une paire de grilles (résolue et à résoudre) en fonction du niveau de difficulté spécifié.">
<polygon fill="#999999" stroke="#666666" points="186.25,-162 0,-162 0,-130 186.25,-130 186.25,-162"/>
<text text-anchor="start" x="8" y="-148.5" font-family="Helvetica,sans-Serif" font-size="10.00">fr.softsf.sudokufx.common.util.sudoku.</text>
<text text-anchor="middle" x="93.12" y="-136.5" font-family="Helvetica,sans-Serif" font-size="10.00">GridMaster.creerLesGrilles</text>
</a>
</g>
</g>
<!-- Node2 -->
<g id="Node000002" class="node">
<title>Node2</title>
<g id="a_Node000002"><a xlink:href="classfr_1_1softsf_1_1sudokufx_1_1common_1_1util_1_1sudoku_1_1_grid_master.html#a4ee8cc0d8a933568aeb12ca14f8ab649" target="_top" xlink:title="Génère une grille de Sudoku à résoudre en cachant des cases selon le niveau de difficulté spécifié.">
<polygon fill="white" stroke="#666666" points="424.62,-307 238.38,-307 238.38,-275 424.62,-275 424.62,-307"/>
<text text-anchor="start" x="246.38" y="-293.5" font-family="Helvetica,sans-Serif" font-size="10.00">fr.softsf.sudokufx.common.util.sudoku.</text>
<text text-anchor="middle" x="331.5" y="-281.5" font-family="Helvetica,sans-Serif" font-size="10.00">GridMaster.genererLaGrilleAResoudre</text>
</a>
</g>
</g>
<!-- Node1&#45;&gt;Node2 -->
<g id="edge1_Node000001_Node000002" class="edge">
<title>Node1&#45;&gt;Node2</title>
<g id="a_edge1_Node000001_Node000002"><a xlink:title=" ">
<path fill="none" stroke="#63b8ff" d="M120.78,-162.35C163.28,-188.42 246.45,-239.44 294.3,-268.79"/>
<polygon fill="#63b8ff" stroke="#63b8ff" points="292.3,-271.67 302.65,-273.92 295.96,-265.7 292.3,-271.67"/>
</a>
</g>
</g>
<!-- Node14 -->
<g id="Node000014" class="node">
<title>Node14</title>
<g id="a_Node000014"><a xlink:href="classfr_1_1softsf_1_1sudokufx_1_1common_1_1util_1_1sudoku_1_1_grid_master.html#af7a1c9df1f82cefc39447ed221fafd76" target="_top" xlink:title="Calcule le pourcentage de possibilités estimé en fonction de la somme des possibilités.">
<polygon fill="white" stroke="#666666" points="1429.12,-84 1225.62,-84 1225.62,-52 1429.12,-52 1429.12,-84"/>
<text text-anchor="start" x="1233.62" y="-70.5" font-family="Helvetica,sans-Serif" font-size="10.00">fr.softsf.sudokufx.common.util.sudoku.</text>
<text text-anchor="middle" x="1327.38" y="-58.5" font-family="Helvetica,sans-Serif" font-size="10.00">GridMaster.getPourcentageDesPossibilites</text>
</a>
</g>
</g>
<!-- Node1&#45;&gt;Node14 -->
<g id="edge17_Node000001_Node000014" class="edge">
<title>Node1&#45;&gt;Node14</title>
<g id="a_edge17_Node000001_Node000014"><a xlink:title=" ">
<path fill="none" stroke="#63b8ff" d="M186.41,-146C285.97,-146 449.15,-146 589.88,-146 589.88,-146 589.88,-146 847.88,-146 921.36,-146 1117.22,-109.71 1234.33,-86.64"/>
<polygon fill="#63b8ff" stroke="#63b8ff" points="1234.79,-90.11 1243.92,-84.74 1233.43,-83.25 1234.79,-90.11"/>
</a>
</g>
</g>
<!-- Node15 -->
<g id="Node000015" class="node">
<title>Node15</title>
<g id="a_Node000015"><a xlink:href="namespacefr_1_1softsf_1_1sudokufx_1_1common_1_1util_1_1sudoku.html#ac3d62f66e8acd5749e3037a6ad06f21e" target="_top" xlink:title="Record representing the result of a grid generation: the solved grid, the puzzle grid,...">
<polygon fill="white" stroke="#666666" points="424.62,-100 238.38,-100 238.38,-68 424.62,-68 424.62,-100"/>
<text text-anchor="start" x="246.38" y="-86.5" font-family="Helvetica,sans-Serif" font-size="10.00">fr.softsf.sudokufx.common.util.sudoku.</text>
<text text-anchor="middle" x="331.5" y="-74.5" font-family="Helvetica,sans-Serif" font-size="10.00">GrillesCrees</text>
</a>
</g>
</g>
<!-- Node1&#45;&gt;Node15 -->
<g id="edge18_Node000001_Node000015" class="edge">
<title>Node1&#45;&gt;Node15</title>
<g id="a_edge18_Node000001_Node000015"><a xlink:title=" ">
<path fill="none" stroke="#63b8ff" d="M156.85,-129.55C187.56,-121.49 224.73,-111.74 256.79,-103.33"/>
<polygon fill="#63b8ff" stroke="#63b8ff" points="257.64,-106.73 266.43,-100.81 255.87,-99.96 257.64,-106.73"/>
</a>
</g>
</g>
<!-- Node16 -->
<g id="Node000016" class="node">
<title>Node16</title>
<g id="a_Node000016"><a xlink:href="classfr_1_1softsf_1_1sudokufx_1_1common_1_1util_1_1sudoku_1_1_grid_master.html#ac7a6a027f90ee968f0be179797d663cf" target="_top" xlink:title="Remplit aléatoirement la première ligne de la grille avec les chiffres de 1 à 9.">
<polygon fill="white" stroke="#666666" points="440.75,-32 222.25,-32 222.25,0 440.75,0 440.75,-32"/>
<text text-anchor="start" x="230.25" y="-18.5" font-family="Helvetica,sans-Serif" font-size="10.00">fr.softsf.sudokufx.common.util.sudoku.</text>
<text text-anchor="middle" x="331.5" y="-6.5" font-family="Helvetica,sans-Serif" font-size="10.00">GridMaster.remplirPremiereLigneAleatoirement</text>
</a>
</g>
</g>
<!-- Node1&#45;&gt;Node16 -->
<g id="edge20_Node000001_Node000016" class="edge">
<title>Node1&#45;&gt;Node16</title>
<g id="a_edge20_Node000001_Node000016"><a xlink:title=" ">
<path fill="none" stroke="#63b8ff" d="M114.99,-129.72C139.63,-111.01 182.34,-80.15 222.25,-59 237.93,-50.69 255.59,-43.02 272.02,-36.53"/>
<polygon fill="#63b8ff" stroke="#63b8ff" points="273.12,-39.86 281.19,-32.99 270.6,-33.33 273.12,-39.86"/>
</a>
</g>
</g>
<!-- Node17 -->
<g id="Node000017" class="node">
<title>Node17</title>
<g id="a_Node000017"><a xlink:href="classfr_1_1softsf_1_1sudokufx_1_1common_1_1util_1_1sudoku_1_1_grid_master.html#a94424450acb912e32c7548e6659b617a" target="_top" xlink:title="Tente de résoudre la grille de Sudoku fournie en utilisant un algorithme de backtracking optimisé (pr...">
<polygon fill="white" stroke="#666666" points="1179.88,-206 993.62,-206 993.62,-174 1179.88,-174 1179.88,-206"/>
<text text-anchor="start" x="1001.62" y="-192.5" font-family="Helvetica,sans-Serif" font-size="10.00">fr.softsf.sudokufx.common.util.sudoku.</text>
<text text-anchor="middle" x="1086.75" y="-180.5" font-family="Helvetica,sans-Serif" font-size="10.00">GridMaster.resoudreLaGrille</text>
</a>
</g>
</g>
<!-- Node1&#45;&gt;Node17 -->
<g id="edge22_Node000001_Node000017" class="edge">
<title>Node1&#45;&gt;Node17</title>
<g id="a_edge22_Node000001_Node000017"><a xlink:title=" ">
<path fill="none" stroke="#63b8ff" d="M186.43,-156.91C198.47,-158.09 210.64,-159.17 222.25,-160 496.02,-179.69 819.59,-186.56 981.9,-188.88"/>
<polygon fill="#63b8ff" stroke="#63b8ff" points="981.74,-192.37 991.79,-189.01 981.84,-185.37 981.74,-192.37"/>
</a>
</g>
</g>
<!-- Node3 -->
<g id="Node000003" class="node">
<title>Node3</title>
<g id="a_Node000003"><a xlink:href="classfr_1_1softsf_1_1sudokufx_1_1common_1_1util_1_1sudoku_1_1_grid_master.html#aa77557d49c6d3377a6409b74f6386595" target="_top" xlink:title="Génère une grille de Sudoku de niveau difficile.">
<polygon fill="white" stroke="#666666" points="689.62,-397 492.12,-397 492.12,-353 689.62,-353 689.62,-397"/>
<text text-anchor="start" x="500.12" y="-383.5" font-family="Helvetica,sans-Serif" font-size="10.00">fr.softsf.sudokufx.common.util.sudoku.</text>
<text text-anchor="start" x="500.12" y="-371.5" font-family="Helvetica,sans-Serif" font-size="10.00">GridMaster.getPossibilitesGrilleAresoudre</text>
<text text-anchor="middle" x="590.88" y="-359.5" font-family="Helvetica,sans-Serif" font-size="10.00">Difficile</text>
</a>
</g>
</g>
<!-- Node2&#45;&gt;Node3 -->
<g id="edge2_Node000002_Node000003" class="edge">
<title>Node2&#45;&gt;Node3</title>
<g id="a_edge2_Node000002_Node000003"><a xlink:title=" ">
<path fill="none" stroke="#63b8ff" d="M374.46,-307.49C403.07,-318.46 441.94,-332.86 476.75,-344 482.45,-345.82 488.33,-347.64 494.27,-349.42"/>
<polygon fill="#63b8ff" stroke="#63b8ff" points="492.98,-352.69 503.56,-352.16 494.96,-345.97 492.98,-352.69"/>
</a>
</g>
</g>
<!-- Node12 -->
<g id="Node000012" class="node">
<title>Node12</title>
<g id="a_Node000012"><a xlink:href="classfr_1_1softsf_1_1sudokufx_1_1common_1_1util_1_1sudoku_1_1_grid_master.html#a14a9157214a31a7be5f08c78c129a96d" target="_top" xlink:title="Génère une grille de Sudoku de niveau facile.">
<polygon fill="white" stroke="#666666" points="705,-335 476.75,-335 476.75,-303 705,-303 705,-335"/>
<text text-anchor="start" x="484.75" y="-321.5" font-family="Helvetica,sans-Serif" font-size="10.00">fr.softsf.sudokufx.common.util.sudoku.</text>
<text text-anchor="middle" x="590.88" y="-309.5" font-family="Helvetica,sans-Serif" font-size="10.00">GridMaster.getPossibilitesGrilleAResoudreFacile</text>
</a>
</g>
</g>
<!-- Node2&#45;&gt;Node12 -->
<g id="edge13_Node000002_Node000012" class="edge">
<title>Node2&#45;&gt;Node12</title>
<g id="a_edge13_Node000002_Node000012"><a xlink:title=" ">
<path fill="none" stroke="#63b8ff" d="M425.05,-301.07C438.12,-302.49 451.72,-303.97 465.26,-305.44"/>
<polygon fill="#63b8ff" stroke="#63b8ff" points="464.78,-308.91 475.1,-306.51 465.54,-301.95 464.78,-308.91"/>
</a>
</g>
</g>
<!-- Node13 -->
<g id="Node000013" class="node">
<title>Node13</title>
<g id="a_Node000013"><a xlink:href="classfr_1_1softsf_1_1sudokufx_1_1common_1_1util_1_1sudoku_1_1_grid_master.html#ab77d72c8f1612e20c9d7b27f6869b08b" target="_top" xlink:title="Génère une grille de Sudoku de niveau moyen.">
<polygon fill="white" stroke="#666666" points="691.88,-285 489.88,-285 489.88,-241 691.88,-241 691.88,-285"/>
<text text-anchor="start" x="497.88" y="-271.5" font-family="Helvetica,sans-Serif" font-size="10.00">fr.softsf.sudokufx.common.util.sudoku.</text>
<text text-anchor="start" x="497.88" y="-259.5" font-family="Helvetica,sans-Serif" font-size="10.00">GridMaster.getPossibilitesGrilleAResoudre</text>
<text text-anchor="middle" x="590.88" y="-247.5" font-family="Helvetica,sans-Serif" font-size="10.00">Moyenne</text>
</a>
</g>
</g>
<!-- Node2&#45;&gt;Node13 -->
<g id="edge15_Node000002_Node000013" class="edge">
<title>Node2&#45;&gt;Node13</title>
<g id="a_edge15_Node000002_Node000013"><a xlink:title=" ">
<path fill="none" stroke="#63b8ff" d="M425.05,-280.93C442.28,-279.06 460.44,-277.08 478.17,-275.15"/>
<polygon fill="#63b8ff" stroke="#63b8ff" points="478.37,-278.65 487.93,-274.09 477.61,-271.69 478.37,-278.65"/>
</a>
</g>
</g>
<!-- Node4 -->
<g id="Node000004" class="node">
<title>Node4</title>
<g id="a_Node000004"><a xlink:href="classfr_1_1softsf_1_1sudokufx_1_1common_1_1util_1_1sudoku_1_1_grid_master.html#ad962ba16fc274782e22bdf56d85f71b1" target="_top" xlink:title="Génère une grille de Sudoku avec un nombre de cases cachées selon les critères spécifiés.">
<polygon fill="white" stroke="#666666" points="952.75,-348 741,-348 741,-316 952.75,-316 952.75,-348"/>
<text text-anchor="start" x="749" y="-334.5" font-family="Helvetica,sans-Serif" font-size="10.00">fr.softsf.sudokufx.common.util.sudoku.</text>
<text text-anchor="middle" x="846.88" y="-322.5" font-family="Helvetica,sans-Serif" font-size="10.00">GridMaster.genererGrilleAvecCasesCachees</text>
</a>
</g>
</g>
<!-- Node3&#45;&gt;Node4 -->
<g id="edge3_Node000003_Node000004" class="edge">
<title>Node3&#45;&gt;Node4</title>
<g id="a_edge3_Node000003_Node000004"><a xlink:title=" ">
<path fill="none" stroke="#63b8ff" d="M690.08,-358.38C705.73,-355.73 722,-352.97 737.86,-350.29"/>
<polygon fill="#63b8ff" stroke="#63b8ff" points="738,-353.81 747.28,-348.69 736.83,-346.91 738,-353.81"/>
</a>
</g>
</g>
<!-- Node4&#45;&gt;Node4 -->
<g id="edge5_Node000004_Node000004" class="edge">
<title>Node4&#45;&gt;Node4</title>
<g id="a_edge5_Node000004_Node000004"><a xlink:title=" ">
<path fill="none" stroke="#63b8ff" d="M804.05,-348.44C796.06,-357.58 810.33,-366 846.88,-366 867.15,-366 880.56,-363.41 887.13,-359.54"/>
<polygon fill="#63b8ff" stroke="#63b8ff" points="890.51,-360.45 889.36,-349.92 883.69,-358.87 890.51,-360.45"/>
</a>
</g>
</g>
<!-- Node5 -->
<g id="Node000005" class="node">
<title>Node5</title>
<g id="a_Node000005"><a xlink:href="classfr_1_1softsf_1_1sudokufx_1_1common_1_1util_1_1sudoku_1_1_grid_master.html#aee57e1ea56d413431a806492e5bfa40f" target="_top" xlink:title="Calcule la durée de temps écoulé entre la dernière et la nouvelle demande de grille en millisecondes.">
<polygon fill="white" stroke="#666666" points="1179.88,-398 993.62,-398 993.62,-366 1179.88,-366 1179.88,-398"/>
<text text-anchor="start" x="1001.62" y="-384.5" font-family="Helvetica,sans-Serif" font-size="10.00">fr.softsf.sudokufx.common.util.sudoku.</text>
<text text-anchor="middle" x="1086.75" y="-372.5" font-family="Helvetica,sans-Serif" font-size="10.00">GridMaster.dureeEnMs</text>
</a>
</g>
</g>
<!-- Node4&#45;&gt;Node5 -->
<g id="edge4_Node000004_Node000005" class="edge">
<title>Node4&#45;&gt;Node5</title>
<g id="a_edge4_Node000004_Node000005"><a xlink:title=" ">
<path fill="none" stroke="#63b8ff" d="M926.09,-348.44C948.55,-353.16 973.22,-358.35 996.3,-363.2"/>
<polygon fill="#63b8ff" stroke="#63b8ff" points="995.5,-366.61 1006,-365.24 996.94,-359.76 995.5,-366.61"/>
</a>
</g>
</g>
<!-- Node6 -->
<g id="Node000006" class="node">
<title>Node6</title>
<g id="a_Node000006"><a xlink:href="classfr_1_1softsf_1_1sudokufx_1_1common_1_1util_1_1sudoku_1_1_grid_master.html#a7b8b865b518ad50e3d77814a16bf9634" target="_top" xlink:title="Cache des cases dans la grille et calcule la somme des possibilités restantes.">
<polygon fill="white" stroke="#666666" points="1184.75,-348 988.75,-348 988.75,-316 1184.75,-316 1184.75,-348"/>
<text text-anchor="start" x="996.75" y="-334.5" font-family="Helvetica,sans-Serif" font-size="10.00">fr.softsf.sudokufx.common.util.sudoku.</text>
<text text-anchor="middle" x="1086.75" y="-322.5" font-family="Helvetica,sans-Serif" font-size="10.00">GridMaster.getPossibilitesGrilleWhileNok</text>
</a>
</g>
</g>
<!-- Node4&#45;&gt;Node6 -->
<g id="edge6_Node000004_Node000006" class="edge">
<title>Node4&#45;&gt;Node6</title>
<g id="a_edge6_Node000004_Node000006"><a xlink:title=" ">
<path fill="none" stroke="#63b8ff" d="M953.25,-332C961.1,-332 969.03,-332 976.9,-332"/>
<polygon fill="#63b8ff" stroke="#63b8ff" points="976.85,-335.5 986.85,-332 976.85,-328.5 976.85,-335.5"/>
</a>
</g>
</g>
<!-- Node7 -->
<g id="Node000007" class="node">
<title>Node7</title>
<g id="a_Node000007"><a xlink:href="classfr_1_1softsf_1_1sudokufx_1_1common_1_1util_1_1sudoku_1_1_grid_master.html#aedafc76e589c715c380e2732e0ff04d2" target="_top" xlink:title="Cache un nombre spécifié de cases dans la grille en les remplaçant par zéro.">
<polygon fill="white" stroke="#666666" points="1420.5,-432 1234.25,-432 1234.25,-400 1420.5,-400 1420.5,-432"/>
<text text-anchor="start" x="1242.25" y="-418.5" font-family="Helvetica,sans-Serif" font-size="10.00">fr.softsf.sudokufx.common.util.sudoku.</text>
<text text-anchor="middle" x="1327.38" y="-406.5" font-family="Helvetica,sans-Serif" font-size="10.00">GridMaster.cacherLesCases</text>
</a>
</g>
</g>
<!-- Node6&#45;&gt;Node7 -->
<g id="edge7_Node000006_Node000007" class="edge">
<title>Node6&#45;&gt;Node7</title>
<g id="a_edge7_Node000006_Node000007"><a xlink:title=" ">
<path fill="none" stroke="#63b8ff" d="M1166.14,-348.46C1172.6,-350.93 1178.89,-353.76 1184.75,-357 1204.02,-367.64 1201.38,-380.55 1220.75,-391 1223.59,-392.53 1226.52,-393.97 1229.52,-395.32"/>
<polygon fill="#63b8ff" stroke="#63b8ff" points="1227.95,-398.46 1238.53,-399.01 1230.6,-391.98 1227.95,-398.46"/>
</a>
</g>
</g>
<!-- Node8 -->
<g id="Node000008" class="node">
<title>Node8</title>
<g id="a_Node000008"><a xlink:href="classfr_1_1softsf_1_1sudokufx_1_1common_1_1util_1_1sudoku_1_1_grid_master.html#aeed90a968624e9b7ccb44958df9ae821" target="_top" xlink:title="Calcule les possibilités pour chaque case de la grille de Sudoku.">
<polygon fill="white" stroke="#666666" points="1420.5,-332 1234.25,-332 1234.25,-300 1420.5,-300 1420.5,-332"/>
<text text-anchor="start" x="1242.25" y="-318.5" font-family="Helvetica,sans-Serif" font-size="10.00">fr.softsf.sudokufx.common.util.sudoku.</text>
<text text-anchor="middle" x="1327.38" y="-306.5" font-family="Helvetica,sans-Serif" font-size="10.00">GridMaster.getPossibilites</text>
</a>
</g>
</g>
<!-- Node6&#45;&gt;Node8 -->
<g id="edge9_Node000006_Node000008" class="edge">
<title>Node6&#45;&gt;Node8</title>
<g id="a_edge9_Node000006_Node000008"><a xlink:title=" ">
<path fill="none" stroke="#63b8ff" d="M1185.15,-325.47C1197.49,-324.64 1210.14,-323.79 1222.57,-322.96"/>
<polygon fill="#63b8ff" stroke="#63b8ff" points="1222.65,-326.46 1232.39,-322.3 1222.18,-319.48 1222.65,-326.46"/>
</a>
</g>
</g>
<!-- Node11 -->
<g id="Node000011" class="node">
<title>Node11</title>
<g id="a_Node000011"><a xlink:href="classfr_1_1softsf_1_1sudokufx_1_1common_1_1util_1_1sudoku_1_1_grid_master.html#aa9fd5688b3effcfb97c226e04a5ff380" target="_top" xlink:title="Calcule la somme des possibilités de toutes les cases de la grille de Sudoku.">
<polygon fill="white" stroke="#666666" points="1434,-382 1220.75,-382 1220.75,-350 1434,-350 1434,-382"/>
<text text-anchor="start" x="1228.75" y="-368.5" font-family="Helvetica,sans-Serif" font-size="10.00">fr.softsf.sudokufx.common.util.sudoku.</text>
<text text-anchor="middle" x="1327.38" y="-356.5" font-family="Helvetica,sans-Serif" font-size="10.00">GridMaster.sommeDesPossibilitesDeLaGrille</text>
</a>
</g>
</g>
<!-- Node6&#45;&gt;Node11 -->
<g id="edge12_Node000006_Node000011" class="edge">
<title>Node6&#45;&gt;Node11</title>
<g id="a_edge12_Node000006_Node000011"><a xlink:title=" ">
<path fill="none" stroke="#63b8ff" d="M1185.15,-345.88C1193.04,-347 1201.05,-348.14 1209.05,-349.28"/>
<polygon fill="#63b8ff" stroke="#63b8ff" points="1208.45,-352.73 1218.85,-350.68 1209.44,-345.8 1208.45,-352.73"/>
</a>
</g>
</g>
<!-- Node7&#45;&gt;Node7 -->
<g id="edge8_Node000007_Node000007" class="edge">
<title>Node7&#45;&gt;Node7</title>
<g id="a_edge8_Node000007_Node000007"><a xlink:title=" ">
<path fill="none" stroke="#63b8ff" d="M1284.42,-432.44C1276.4,-441.58 1290.72,-450 1327.38,-450 1347.71,-450 1361.17,-447.41 1367.76,-443.54"/>
<polygon fill="#63b8ff" stroke="#63b8ff" points="1371.14,-444.45 1369.99,-433.92 1364.32,-442.87 1371.14,-444.45"/>
</a>
</g>
</g>
<!-- Node9 -->
<g id="Node000009" class="node">
<title>Node9</title>
<g id="a_Node000009"><a xlink:href="classfr_1_1softsf_1_1sudokufx_1_1common_1_1util_1_1sudoku_1_1_grid_master.html#a27aa242e0289c28db22cd6caa98aec06" target="_top" xlink:title="Initialise le tableau des possibilités pour chaque case.">
<polygon fill="white" stroke="#666666" points="1682.88,-351 1496.62,-351 1496.62,-319 1682.88,-319 1682.88,-351"/>
<text text-anchor="start" x="1504.62" y="-337.5" font-family="Helvetica,sans-Serif" font-size="10.00">fr.softsf.sudokufx.common.util.sudoku.</text>
<text text-anchor="middle" x="1589.75" y="-325.5" font-family="Helvetica,sans-Serif" font-size="10.00">GridMaster.initialiserPossibilites</text>
</a>
</g>
</g>
<!-- Node8&#45;&gt;Node9 -->
<g id="edge10_Node000008_Node000009" class="edge">
<title>Node8&#45;&gt;Node9</title>
<g id="a_edge10_Node000008_Node000009"><a xlink:title=" ">
<path fill="none" stroke="#63b8ff" d="M1420.91,-322.75C1441.72,-324.27 1463.94,-325.89 1485.18,-327.44"/>
<polygon fill="#63b8ff" stroke="#63b8ff" points="1484.78,-330.92 1495.01,-328.16 1485.29,-323.94 1484.78,-330.92"/>
</a>
</g>
</g>
<!-- Node10 -->
<g id="Node000010" class="node">
<title>Node10</title>
<g id="a_Node000010"><a xlink:href="classfr_1_1softsf_1_1sudokufx_1_1common_1_1util_1_1sudoku_1_1_grid_master.html#a6f8a7a32d9421be5ec0e87fab69bb351" target="_top" xlink:title="Élimine la valeur des possibilités des cases voisines (ligne, colonne, carré).">
<polygon fill="white" stroke="#666666" points="1931.75,-329 1745.5,-329 1745.5,-297 1931.75,-297 1931.75,-329"/>
<text text-anchor="start" x="1753.5" y="-315.5" font-family="Helvetica,sans-Serif" font-size="10.00">fr.softsf.sudokufx.common.util.sudoku.</text>
<text text-anchor="middle" x="1838.62" y="-303.5" font-family="Helvetica,sans-Serif" font-size="10.00">GridMaster.eliminerPossibilite</text>
</a>
</g>
</g>
<!-- Node9&#45;&gt;Node10 -->
<g id="edge11_Node000009_Node000010" class="edge">
<title>Node9&#45;&gt;Node10</title>
<g id="a_edge11_Node000009_Node000010"><a xlink:title=" ">
<path fill="none" stroke="#63b8ff" d="M1683.03,-326.78C1699.66,-325.3 1717.09,-323.74 1734.01,-322.23"/>
<polygon fill="#63b8ff" stroke="#63b8ff" points="1733.89,-325.76 1743.54,-321.38 1733.27,-318.79 1733.89,-325.76"/>
</a>
</g>
</g>
<!-- Node12&#45;&gt;Node4 -->
<g id="edge14_Node000012_Node000004" class="edge">
<title>Node12&#45;&gt;Node4</title>
<g id="a_edge14_Node000012_Node000004"><a xlink:title=" ">
<path fill="none" stroke="#63b8ff" d="M705.13,-324.8C713.13,-325.21 721.21,-325.62 729.23,-326.03"/>
<polygon fill="#63b8ff" stroke="#63b8ff" points="728.84,-329.51 739.01,-326.53 729.2,-322.52 728.84,-329.51"/>
</a>
</g>
</g>
<!-- Node13&#45;&gt;Node4 -->
<g id="edge16_Node000013_Node000004" class="edge">
<title>Node13&#45;&gt;Node4</title>
<g id="a_edge16_Node000013_Node000004"><a xlink:title=" ">
<path fill="none" stroke="#63b8ff" d="M674.69,-285.5C706.94,-294.26 743.53,-304.2 774.57,-312.63"/>
<polygon fill="#63b8ff" stroke="#63b8ff" points="773.28,-315.91 783.85,-315.15 775.12,-309.15 773.28,-315.91"/>
</a>
</g>
</g>
<!-- Node15&#45;&gt;Node15 -->
<g id="edge19_Node000015_Node000015" class="edge">
<title>Node15&#45;&gt;Node15</title>
<g id="a_edge19_Node000015_Node000015"><a xlink:title=" ">
<path fill="none" stroke="#63b8ff" d="M288.94,-100.44C281,-109.58 295.19,-118 331.5,-118 351.64,-118 364.98,-115.41 371.5,-111.54"/>
<polygon fill="#63b8ff" stroke="#63b8ff" points="374.89,-112.45 373.72,-101.92 368.07,-110.88 374.89,-112.45"/>
</a>
</g>
</g>
<!-- Node16&#45;&gt;Node16 -->
<g id="edge21_Node000016_Node000016" class="edge">
<title>Node16&#45;&gt;Node16</title>
<g id="a_edge21_Node000016_Node000016"><a xlink:title=" ">
<path fill="none" stroke="#63b8ff" d="M288.94,-32.44C281,-41.58 295.19,-50 331.5,-50 351.64,-50 364.98,-47.41 371.5,-43.54"/>
<polygon fill="#63b8ff" stroke="#63b8ff" points="374.89,-44.45 373.72,-33.92 368.07,-42.88 374.89,-44.45"/>
</a>
</g>
</g>
<!-- Node17&#45;&gt;Node8 -->
<g id="edge23_Node000017_Node000008" class="edge">
<title>Node17&#45;&gt;Node8</title>
<g id="a_edge23_Node000017_Node000008"><a xlink:title=" ">
<path fill="none" stroke="#63b8ff" d="M1104.27,-206.28C1128.01,-228.75 1174.08,-268.97 1220.75,-291 1224.26,-292.66 1227.9,-294.21 1231.61,-295.67"/>
<polygon fill="#63b8ff" stroke="#63b8ff" points="1230.22,-298.89 1240.82,-299 1232.6,-292.3 1230.22,-298.89"/>
</a>
</g>
</g>
<!-- Node17&#45;&gt;Node11 -->
<g id="edge33_Node000017_Node000011" class="edge">
<title>Node17&#45;&gt;Node11</title>
<g id="a_edge33_Node000017_Node000011"><a xlink:title=" ">
<path fill="none" stroke="#63b8ff" d="M1101.22,-206.39C1131.93,-243.59 1205.66,-331.94 1220.75,-341 1222.95,-342.32 1225.21,-343.57 1227.53,-344.75"/>
<polygon fill="#63b8ff" stroke="#63b8ff" points="1226.04,-347.92 1236.59,-348.9 1228.96,-341.56 1226.04,-347.92"/>
</a>
</g>
</g>
<!-- Node17&#45;&gt;Node14 -->
<g id="edge24_Node000017_Node000014" class="edge">
<title>Node17&#45;&gt;Node14</title>
<g id="a_edge24_Node000017_Node000014"><a xlink:title=" ">
<path fill="none" stroke="#63b8ff" d="M1162.37,-173.65C1170.41,-169.98 1178.08,-165.49 1184.75,-160 1210.85,-138.51 1193.94,-113.59 1220.75,-93 1222.08,-91.98 1223.45,-91 1224.84,-90.05"/>
<polygon fill="#63b8ff" stroke="#63b8ff" points="1226.33,-93.24 1233.17,-85.16 1222.78,-87.21 1226.33,-93.24"/>
</a>
</g>
</g>
<!-- Node18 -->
<g id="Node000018" class="node">
<title>Node18</title>
<g id="a_Node000018"><a xlink:href="namespacefr_1_1softsf_1_1sudokufx_1_1common_1_1util_1_1sudoku.html#ad9235162514fff9999f723bb791d4da1" target="_top" xlink:title="Record representing the result of solving a Sudoku grid.">
<polygon fill="white" stroke="#666666" points="1420.5,-196 1234.25,-196 1234.25,-164 1420.5,-164 1420.5,-196"/>
<text text-anchor="start" x="1242.25" y="-182.5" font-family="Helvetica,sans-Serif" font-size="10.00">fr.softsf.sudokufx.common.util.sudoku.</text>
<text text-anchor="middle" x="1327.38" y="-170.5" font-family="Helvetica,sans-Serif" font-size="10.00">GrilleResolue</text>
</a>
</g>
</g>
<!-- Node17&#45;&gt;Node18 -->
<g id="edge25_Node000017_Node000018" class="edge">
<title>Node17&#45;&gt;Node18</title>
<g id="a_edge25_Node000017_Node000018"><a xlink:title=" ">
<path fill="none" stroke="#63b8ff" d="M1180.35,-186.12C1194.2,-185.54 1208.56,-184.94 1222.63,-184.35"/>
<polygon fill="#63b8ff" stroke="#63b8ff" points="1222.47,-187.86 1232.31,-183.94 1222.18,-180.86 1222.47,-187.86"/>
</a>
</g>
</g>
<!-- Node19 -->
<g id="Node000019" class="node">
<title>Node19</title>
<g id="a_Node000019"><a xlink:href="classfr_1_1softsf_1_1sudokufx_1_1common_1_1util_1_1sudoku_1_1_grid_master.html#ae544691a2f6f2b54de8f88d3babcc221" target="_top" xlink:title="Remplit récursivement la grille Sudoku (backtracking).">
<polygon fill="white" stroke="#666666" points="1420.5,-264 1234.25,-264 1234.25,-232 1420.5,-232 1420.5,-264"/>
<text text-anchor="start" x="1242.25" y="-250.5" font-family="Helvetica,sans-Serif" font-size="10.00">fr.softsf.sudokufx.common.util.sudoku.</text>
<text text-anchor="middle" x="1327.38" y="-238.5" font-family="Helvetica,sans-Serif" font-size="10.00">GridMaster.remplirLaGrille</text>
</a>
</g>
</g>
<!-- Node17&#45;&gt;Node19 -->
<g id="edge27_Node000017_Node000019" class="edge">
<title>Node17&#45;&gt;Node19</title>
<g id="a_edge27_Node000017_Node000019"><a xlink:title=" ">
<path fill="none" stroke="#63b8ff" d="M1153.33,-206.42C1174.81,-211.76 1198.79,-217.68 1220.75,-223 1228.77,-224.94 1237.14,-226.96 1245.5,-228.95"/>
<polygon fill="#63b8ff" stroke="#63b8ff" points="1244.45,-232.3 1254.99,-231.21 1246.08,-225.49 1244.45,-232.3"/>
</a>
</g>
</g>
<!-- Node22 -->
<g id="Node000022" class="node">
<title>Node22</title>
<g id="a_Node000022"><a xlink:href="classfr_1_1softsf_1_1sudokufx_1_1common_1_1util_1_1sudoku_1_1_grid_master.html#a9f77177ae439a5e7b1cfa0394be13ae8" target="_top" xlink:title="Vérifie que chaque valeur dans la grille est bien une possibilité respectant les règles.">
<polygon fill="white" stroke="#666666" points="1429.88,-146 1224.88,-146 1224.88,-102 1429.88,-102 1429.88,-146"/>
<text text-anchor="start" x="1232.88" y="-132.5" font-family="Helvetica,sans-Serif" font-size="10.00">fr.softsf.sudokufx.common.util.sudoku.</text>
<text text-anchor="start" x="1232.88" y="-120.5" font-family="Helvetica,sans-Serif" font-size="10.00">GridMaster.verifieQueChaqueValeurEstUne</text>
<text text-anchor="middle" x="1327.38" y="-108.5" font-family="Helvetica,sans-Serif" font-size="10.00">Possibilite</text>
</a>
</g>
</g>
<!-- Node17&#45;&gt;Node22 -->
<g id="edge34_Node000017_Node000022" class="edge">
<title>Node17&#45;&gt;Node22</title>
<g id="a_edge34_Node000017_Node000022"><a xlink:title=" ">
<path fill="none" stroke="#63b8ff" d="M1147.35,-173.52C1173.54,-166.27 1204.91,-157.59 1234.02,-149.54"/>
<polygon fill="#63b8ff" stroke="#63b8ff" points="1234.89,-152.93 1243.6,-146.9 1233.02,-146.19 1234.89,-152.93"/>
</a>
</g>
</g>
<!-- Node18&#45;&gt;Node18 -->
<g id="edge26_Node000018_Node000018" class="edge">
<title>Node18&#45;&gt;Node18</title>
<g id="a_edge26_Node000018_Node000018"><a xlink:title=" ">
<path fill="none" stroke="#63b8ff" d="M1284.42,-196.44C1276.4,-205.58 1290.72,-214 1327.38,-214 1347.71,-214 1361.17,-211.41 1367.76,-207.54"/>
<polygon fill="#63b8ff" stroke="#63b8ff" points="1371.14,-208.45 1369.99,-197.92 1364.32,-206.87 1371.14,-208.45"/>
</a>
</g>
</g>
<!-- Node19&#45;&gt;Node10 -->
<g id="edge30_Node000019_Node000010" class="edge">
<title>Node19&#45;&gt;Node10</title>
<g id="a_edge30_Node000019_Node000010"><a xlink:title=" ">
<path fill="none" stroke="#63b8ff" d="M1420.82,-264.44C1437.18,-267.13 1454.07,-269.76 1470,-272 1558.92,-284.48 1660.38,-295.56 1734.15,-303.04"/>
<polygon fill="#63b8ff" stroke="#63b8ff" points="1733.48,-306.49 1743.78,-304.02 1734.18,-299.53 1733.48,-306.49"/>
</a>
</g>
</g>
<!-- Node19&#45;&gt;Node19 -->
<g id="edge32_Node000019_Node000019" class="edge">
<title>Node19&#45;&gt;Node19</title>
<g id="a_edge32_Node000019_Node000019"><a xlink:title=" ">
<path fill="none" stroke="#63b8ff" d="M1284.42,-264.44C1276.4,-273.58 1290.72,-282 1327.38,-282 1347.71,-282 1361.17,-279.41 1367.76,-275.54"/>
<polygon fill="#63b8ff" stroke="#63b8ff" points="1371.14,-276.45 1369.99,-265.92 1364.32,-274.87 1371.14,-276.45"/>
</a>
</g>
</g>
<!-- Node20 -->
<g id="Node000020" class="node">
<title>Node20</title>
<g id="a_Node000020"><a xlink:href="classfr_1_1softsf_1_1sudokufx_1_1common_1_1util_1_1sudoku_1_1_grid_master.html#a3f17ab078f894717a1f3dfaffed0b987" target="_top" xlink:title="Choisit une valeur aléatoire parmi les possibilités données.">
<polygon fill="white" stroke="#666666" points="1682.88,-245 1496.62,-245 1496.62,-213 1682.88,-213 1682.88,-245"/>
<text text-anchor="start" x="1504.62" y="-231.5" font-family="Helvetica,sans-Serif" font-size="10.00">fr.softsf.sudokufx.common.util.sudoku.</text>
<text text-anchor="middle" x="1589.75" y="-219.5" font-family="Helvetica,sans-Serif" font-size="10.00">GridMaster.choisirValeurAleatoire</text>
</a>
</g>
</g>
<!-- Node19&#45;&gt;Node20 -->
<g id="edge28_Node000019_Node000020" class="edge">
<title>Node19&#45;&gt;Node20</title>
<g id="a_edge28_Node000019_Node000020"><a xlink:title=" ">
<path fill="none" stroke="#63b8ff" d="M1420.91,-241.25C1441.72,-239.73 1463.94,-238.11 1485.18,-236.56"/>
<polygon fill="#63b8ff" stroke="#63b8ff" points="1485.29,-240.06 1495.01,-235.84 1484.78,-233.08 1485.29,-240.06"/>
</a>
</g>
</g>
<!-- Node21 -->
<g id="Node000021" class="node">
<title>Node21</title>
<g id="a_Node000021"><a xlink:href="classfr_1_1softsf_1_1sudokufx_1_1common_1_1util_1_1sudoku_1_1_grid_master.html#a973a5ac2260605b8a260934b7e68373d" target="_top" xlink:title="Trouve la case vide avec le moins de possibilités.">
<polygon fill="white" stroke="#666666" points="1709.5,-195 1470,-195 1470,-163 1709.5,-163 1709.5,-195"/>
<text text-anchor="start" x="1478" y="-181.5" font-family="Helvetica,sans-Serif" font-size="10.00">fr.softsf.sudokufx.common.util.sudoku.</text>
<text text-anchor="middle" x="1589.75" y="-169.5" font-family="Helvetica,sans-Serif" font-size="10.00">GridMaster.laCaseVideAvecLeMoinsDePossibilites</text>
</a>
</g>
</g>
<!-- Node19&#45;&gt;Node21 -->
<g id="edge31_Node000019_Node000021" class="edge">
<title>Node19&#45;&gt;Node21</title>
<g id="a_edge31_Node000019_Node000021"><a xlink:title=" ">
<path fill="none" stroke="#63b8ff" d="M1407.76,-231.52C1416.71,-228.98 1425.62,-226.14 1434,-223 1450.94,-216.64 1452.98,-210.15 1470,-204 1475.37,-202.06 1480.94,-200.25 1486.6,-198.56"/>
<polygon fill="#63b8ff" stroke="#63b8ff" points="1487.44,-201.96 1496.12,-195.89 1485.54,-195.23 1487.44,-201.96"/>
</a>
</g>
</g>
<!-- Node20&#45;&gt;Node20 -->
<g id="edge29_Node000020_Node000020" class="edge">
<title>Node20&#45;&gt;Node20</title>
<g id="a_edge29_Node000020_Node000020"><a xlink:title=" ">
<path fill="none" stroke="#63b8ff" d="M1545.32,-245.44C1537.03,-254.58 1551.84,-263 1589.75,-263 1610.78,-263 1624.7,-260.41 1631.52,-256.54"/>
<polygon fill="#63b8ff" stroke="#63b8ff" points="1634.9,-257.46 1633.83,-246.91 1628.09,-255.82 1634.9,-257.46"/>
</a>
</g>
</g>
</g>
</svg>
