<?xml version="1.0" encoding="UTF-8" standalone="no"?>
<!DOCTYPE svg PUBLIC "-//W3C//DTD SVG 1.1//EN"
 "http://www.w3.org/Graphics/SVG/1.1/DTD/svg11.dtd">
<!-- Generated by graphviz version 12.2.1 (20241206.2353)
 -->
<!-- Title: fr.softsf.sudokufx.view.MainVieweningMainStage Pages: 1 -->
<svg width="402pt" height="240pt"
 viewBox="0.00 0.00 402.25 240.00" xmlns="http://www.w3.org/2000/svg" xmlns:xlink="http://www.w3.org/1999/xlink">
<g id="graph0" class="graph" transform="scale(1 1) rotate(0) translate(4 236)">
<title>fr.softsf.sudokufx.view.MainView.openingMainStage</title>
<!-- Node1 -->
<g id="Node000001" class="node">
<title>Node1</title>
<g id="a_Node000001"><a xlink:title="Opens the main stage and handles the transition from splash screen to full menu.">
<polygon fill="#999999" stroke="#666666" points="151.75,-132 0,-132 0,-100 151.75,-100 151.75,-132"/>
<text text-anchor="start" x="8" y="-118.5" font-family="Helvetica,sans-Serif" font-size="10.00">fr.softsf.sudokufx.view.</text>
<text text-anchor="middle" x="75.88" y="-106.5" font-family="Helvetica,sans-Serif" font-size="10.00">DefaultView.openingMainStage</text>
</a>
</g>
</g>
<!-- Node2 -->
<g id="Node000002" class="node">
<title>Node2</title>
<g id="a_Node000002"><a xlink:href="interfacefr_1_1softsf_1_1sudokufx_1_1common_1_1interfaces_1_1_i_splash_screen_view.html#a476806b0f70dd654a23c0fbd0678d38f" target="_top" xlink:title="Hides and closes the splash screen.">
<polygon fill="white" stroke="#666666" points="382.25,-232 199.75,-232 199.75,-200 382.25,-200 382.25,-232"/>
<text text-anchor="start" x="207.75" y="-218.5" font-family="Helvetica,sans-Serif" font-size="10.00">fr.softsf.sudokufx.common.interfaces.</text>
<text text-anchor="middle" x="291" y="-206.5" font-family="Helvetica,sans-Serif" font-size="10.00">ISplashScreenView.hideSplashScreen</text>
</a>
</g>
</g>
<!-- Node1&#45;&gt;Node2 -->
<g id="edge1_Node000001_Node000002" class="edge">
<title>Node1&#45;&gt;Node2</title>
<g id="a_edge1_Node000001_Node000002"><a xlink:title=" ">
<path fill="none" stroke="#63b8ff" d="M96.43,-132.42C117.64,-149.44 153.12,-175.65 187.75,-191 191.72,-192.76 195.84,-194.41 200.04,-195.96"/>
<polygon fill="#63b8ff" stroke="#63b8ff" points="198.6,-199.16 209.19,-199.09 200.87,-192.54 198.6,-199.16"/>
</a>
</g>
</g>
<!-- Node3 -->
<g id="Node000003" class="node">
<title>Node3</title>
<g id="a_Node000003"><a xlink:href="classfr_1_1softsf_1_1sudokufx_1_1view_1_1_default_view.html#a4269b183d120ae7149f854d53d35f122" target="_top" xlink:title="Configures the primary stage for the full menu view.">
<polygon fill="white" stroke="#666666" points="377.38,-182 204.62,-182 204.62,-150 377.38,-150 377.38,-182"/>
<text text-anchor="start" x="212.62" y="-168.5" font-family="Helvetica,sans-Serif" font-size="10.00">fr.softsf.sudokufx.view.</text>
<text text-anchor="middle" x="291" y="-156.5" font-family="Helvetica,sans-Serif" font-size="10.00">DefaultView.openingConfigureStage</text>
</a>
</g>
</g>
<!-- Node1&#45;&gt;Node3 -->
<g id="edge2_Node000001_Node000003" class="edge">
<title>Node1&#45;&gt;Node3</title>
<g id="a_edge2_Node000001_Node000003"><a xlink:title=" ">
<path fill="none" stroke="#63b8ff" d="M146.96,-132.44C166.71,-137.08 188.37,-142.16 208.72,-146.93"/>
<polygon fill="#63b8ff" stroke="#63b8ff" points="207.87,-150.33 218.4,-149.2 209.47,-143.51 207.87,-150.33"/>
</a>
</g>
</g>
<!-- Node4 -->
<g id="Node000004" class="node">
<title>Node4</title>
<g id="a_Node000004"><a xlink:href="classfr_1_1softsf_1_1sudokufx_1_1view_1_1_default_view.html#af55fdc91ebfb197196789c140b5c091a" target="_top" xlink:title="Applies a fade&#45;in effect to the given node.">
<polygon fill="white" stroke="#666666" points="358.62,-132 223.38,-132 223.38,-100 358.62,-100 358.62,-132"/>
<text text-anchor="start" x="231.38" y="-118.5" font-family="Helvetica,sans-Serif" font-size="10.00">fr.softsf.sudokufx.view.</text>
<text text-anchor="middle" x="291" y="-106.5" font-family="Helvetica,sans-Serif" font-size="10.00">DefaultView.openingFadeIn</text>
</a>
</g>
</g>
<!-- Node1&#45;&gt;Node4 -->
<g id="edge3_Node000001_Node000004" class="edge">
<title>Node1&#45;&gt;Node4</title>
<g id="a_edge3_Node000001_Node000004"><a xlink:title=" ">
<path fill="none" stroke="#63b8ff" d="M152.01,-116C171.35,-116 192.2,-116 211.69,-116"/>
<polygon fill="#63b8ff" stroke="#63b8ff" points="211.48,-119.5 221.48,-116 211.48,-112.5 211.48,-119.5"/>
</a>
</g>
</g>
<!-- Node5 -->
<g id="Node000005" class="node">
<title>Node5</title>
<g id="a_Node000005"><a xlink:href="classfr_1_1softsf_1_1sudokufx_1_1view_1_1_default_view.html#a948d84a7a3c687605fad17a291287d89" target="_top" xlink:title="Maximizes the primary stage to fill the primary screen.">
<polygon fill="white" stroke="#666666" points="394.25,-82 187.75,-82 187.75,-50 394.25,-50 394.25,-82"/>
<text text-anchor="start" x="195.75" y="-68.5" font-family="Helvetica,sans-Serif" font-size="10.00">fr.softsf.sudokufx.view.</text>
<text text-anchor="middle" x="291" y="-56.5" font-family="Helvetica,sans-Serif" font-size="10.00">DefaultView.openingMaximizePrimaryStage</text>
</a>
</g>
</g>
<!-- Node1&#45;&gt;Node5 -->
<g id="edge4_Node000001_Node000005" class="edge">
<title>Node1&#45;&gt;Node5</title>
<g id="a_edge4_Node000001_Node000005"><a xlink:title=" ">
<path fill="none" stroke="#63b8ff" d="M146.96,-99.56C166.71,-94.92 188.37,-89.84 208.72,-85.07"/>
<polygon fill="#63b8ff" stroke="#63b8ff" points="209.47,-88.49 218.4,-82.8 207.87,-81.67 209.47,-88.49"/>
</a>
</g>
</g>
<!-- Node6 -->
<g id="Node000006" class="node">
<title>Node6</title>
<g id="a_Node000006"><a xlink:href="classfr_1_1softsf_1_1sudokufx_1_1view_1_1_default_view.html#a7c523b99ea737199e64610465f238486" target="_top" xlink:title="Shows the primary stage.">
<polygon fill="white" stroke="#666666" points="368.75,-32 213.25,-32 213.25,0 368.75,0 368.75,-32"/>
<text text-anchor="start" x="221.25" y="-18.5" font-family="Helvetica,sans-Serif" font-size="10.00">fr.softsf.sudokufx.view.</text>
<text text-anchor="middle" x="291" y="-6.5" font-family="Helvetica,sans-Serif" font-size="10.00">DefaultView.openingShowStage</text>
</a>
</g>
</g>
<!-- Node1&#45;&gt;Node6 -->
<g id="edge5_Node000001_Node000006" class="edge">
<title>Node1&#45;&gt;Node6</title>
<g id="a_edge5_Node000001_Node000006"><a xlink:title=" ">
<path fill="none" stroke="#63b8ff" d="M96.43,-99.58C117.64,-82.56 153.12,-56.35 187.75,-41 192.34,-38.97 197.12,-37.08 202,-35.34"/>
<polygon fill="#63b8ff" stroke="#63b8ff" points="202.98,-38.7 211.36,-32.22 200.77,-32.06 202.98,-38.7"/>
</a>
</g>
</g>
</g>
</svg>
