<?xml version="1.0" encoding="UTF-8" standalone="no"?>
<!DOCTYPE svg PUBLIC "-//W3C//DTD SVG 1.1//EN"
 "http://www.w3.org/Graphics/SVG/1.1/DTD/svg11.dtd">
<!-- Generated by graphviz version 12.2.1 (20241206.2353)
 -->
<!-- Title: fr.softsf.sudokufx.viewmodel.MenuBackgroundViewModel.loadImage Pages: 1 -->
<svg width="1184pt" height="190pt"
 viewBox="0.00 0.00 1183.75 190.30" xmlns="http://www.w3.org/2000/svg" xmlns:xlink="http://www.w3.org/1999/xlink">
<g id="graph0" class="graph" transform="scale(1 1) rotate(0) translate(4 186.3)">
<title>fr.softsf.sudokufx.viewmodel.MenuBackgroundViewModel.loadImage</title>
<!-- Node1 -->
<g id="Node000001" class="node">
<title>Node1</title>
<g id="a_Node000001"><a xlink:title="Starts the asynchronous image loading and resizing task.">
<polygon fill="#999999" stroke="#666666" points="187.75,-82.3 0,-82.3 0,-50.3 187.75,-50.3 187.75,-82.3"/>
<text text-anchor="start" x="8" y="-68.8" font-family="Helvetica,sans-Serif" font-size="10.00">fr.softsf.sudokufx.viewmodel.</text>
<text text-anchor="middle" x="93.88" y="-56.8" font-family="Helvetica,sans-Serif" font-size="10.00">MenuBackgroundViewModel.loadImage</text>
</a>
</g>
</g>
<!-- Node2 -->
<g id="Node000002" class="node">
<title>Node2</title>
<g id="a_Node000002"><a xlink:href="classfr_1_1softsf_1_1sudokufx_1_1view_1_1components_1_1toaster_1_1_toaster_v_box.html#ac95cfb708e84f566bb41d6ca5f9d1ccf" target="_top" xlink:title="Adds a toast notification with an automatically calculated duration based on text length.">
<polygon fill="white" stroke="#666666" points="689.25,-132.3 482,-132.3 482,-100.3 689.25,-100.3 689.25,-132.3"/>
<text text-anchor="start" x="490" y="-118.8" font-family="Helvetica,sans-Serif" font-size="10.00">fr.softsf.sudokufx.view.components.toaster.</text>
<text text-anchor="middle" x="585.62" y="-106.8" font-family="Helvetica,sans-Serif" font-size="10.00">ToasterVBox.addToast</text>
</a>
</g>
</g>
<!-- Node1&#45;&gt;Node2 -->
<g id="edge1_Node000001_Node000002" class="edge">
<title>Node1&#45;&gt;Node2</title>
<g id="a_edge1_Node000001_Node000002"><a xlink:title=" ">
<path fill="none" stroke="#63b8ff" d="M121.34,-82.53C146.59,-97 186.24,-117.12 223.75,-125.3 304.83,-142.98 398.59,-139.96 470.21,-132.93"/>
<polygon fill="#63b8ff" stroke="#63b8ff" points="470.41,-136.42 480,-131.92 469.7,-129.46 470.41,-136.42"/>
</a>
</g>
</g>
<!-- Node8 -->
<g id="Node000008" class="node">
<title>Node8</title>
<g id="a_Node000008"><a xlink:href="classfr_1_1softsf_1_1sudokufx_1_1viewmodel_1_1_menu_background_view_model.html#aa52464dc847a4a6e2d9141839f230037" target="_top" xlink:title="Called upon successful completion of the image loading task.">
<polygon fill="white" stroke="#666666" points="435.5,-116.3 234.25,-116.3 234.25,-72.3 435.5,-72.3 435.5,-116.3"/>
<text text-anchor="start" x="242.25" y="-102.8" font-family="Helvetica,sans-Serif" font-size="10.00">fr.softsf.sudokufx.viewmodel.</text>
<text text-anchor="start" x="242.25" y="-90.8" font-family="Helvetica,sans-Serif" font-size="10.00">MenuBackgroundViewModel.onImageTask</text>
<text text-anchor="middle" x="334.87" y="-78.8" font-family="Helvetica,sans-Serif" font-size="10.00">Complete</text>
</a>
</g>
</g>
<!-- Node1&#45;&gt;Node8 -->
<g id="edge7_Node000001_Node000008" class="edge">
<title>Node1&#45;&gt;Node8</title>
<g id="a_edge7_Node000001_Node000008"><a xlink:title=" ">
<path fill="none" stroke="#63b8ff" d="M187.96,-77.21C199.39,-78.54 211.15,-79.92 222.8,-81.29"/>
<polygon fill="#63b8ff" stroke="#63b8ff" points="222.08,-84.73 232.42,-82.41 222.9,-77.77 222.08,-84.73"/>
</a>
</g>
</g>
<!-- Node10 -->
<g id="Node000010" class="node">
<title>Node10</title>
<g id="a_Node000010"><a xlink:href="classfr_1_1softsf_1_1sudokufx_1_1view_1_1components_1_1_spinner_grid_pane.html#a51a5a2c154472ae3fd1943c7ca446cf2" target="_top" xlink:title="Shows or hides the spinner.">
<polygon fill="white" stroke="#666666" points="672.75,-32.3 498.5,-32.3 498.5,-0.3 672.75,-0.3 672.75,-32.3"/>
<text text-anchor="start" x="506.5" y="-18.8" font-family="Helvetica,sans-Serif" font-size="10.00">fr.softsf.sudokufx.view.components.</text>
<text text-anchor="middle" x="585.62" y="-6.8" font-family="Helvetica,sans-Serif" font-size="10.00">SpinnerGridPane.showSpinner</text>
</a>
</g>
</g>
<!-- Node1&#45;&gt;Node10 -->
<g id="edge16_Node000001_Node000010" class="edge">
<title>Node1&#45;&gt;Node10</title>
<g id="a_edge16_Node000001_Node000010"><a xlink:title=" ">
<path fill="none" stroke="#63b8ff" d="M125.06,-49.92C150.53,-37.09 188.39,-20.29 223.75,-13.3 311.59,4.06 413.82,1.1 487,-4.9"/>
<polygon fill="#63b8ff" stroke="#63b8ff" points="486.27,-8.35 496.53,-5.72 486.87,-1.37 486.27,-8.35"/>
</a>
</g>
</g>
<!-- Node11 -->
<g id="Node000011" class="node">
<title>Node11</title>
<g id="a_Node000011"><a xlink:href="classfr_1_1softsf_1_1sudokufx_1_1viewmodel_1_1_menu_background_view_model.html#aa381c1f7620cd458dc3f89b7e106e3e4" target="_top" xlink:title="Called when the image loading task fails.">
<polygon fill="white" stroke="#666666" points="446,-54.3 223.75,-54.3 223.75,-22.3 446,-22.3 446,-54.3"/>
<text text-anchor="start" x="231.75" y="-40.8" font-family="Helvetica,sans-Serif" font-size="10.00">fr.softsf.sudokufx.viewmodel.</text>
<text text-anchor="middle" x="334.87" y="-28.8" font-family="Helvetica,sans-Serif" font-size="10.00">MenuBackgroundViewModel.onImageTaskError</text>
</a>
</g>
</g>
<!-- Node1&#45;&gt;Node11 -->
<g id="edge12_Node000001_Node000011" class="edge">
<title>Node1&#45;&gt;Node11</title>
<g id="a_edge12_Node000001_Node000011"><a xlink:title=" ">
<path fill="none" stroke="#63b8ff" d="M187.96,-55.39C195.98,-54.45 204.17,-53.49 212.37,-52.53"/>
<polygon fill="#63b8ff" stroke="#63b8ff" points="212.52,-56.04 222.04,-51.4 211.7,-49.09 212.52,-56.04"/>
</a>
</g>
</g>
<!-- Node3 -->
<g id="Node000003" class="node">
<title>Node3</title>
<g id="a_Node000003"><a xlink:href="classfr_1_1softsf_1_1sudokufx_1_1view_1_1components_1_1toaster_1_1_toaster_v_box.html#a37d80e32206ddf4e5ea31e6205b08acd" target="_top" xlink:title="Sets the accessibility text for the toast based on its level.">
<polygon fill="white" stroke="#666666" points="932.5,-132.3 725.25,-132.3 725.25,-100.3 932.5,-100.3 932.5,-132.3"/>
<text text-anchor="start" x="733.25" y="-118.8" font-family="Helvetica,sans-Serif" font-size="10.00">fr.softsf.sudokufx.view.components.toaster.</text>
<text text-anchor="middle" x="828.88" y="-106.8" font-family="Helvetica,sans-Serif" font-size="10.00">ToasterVBox.setAccessibility</text>
</a>
</g>
</g>
<!-- Node2&#45;&gt;Node3 -->
<g id="edge2_Node000002_Node000003" class="edge">
<title>Node2&#45;&gt;Node3</title>
<g id="a_edge2_Node000002_Node000003"><a xlink:title=" ">
<path fill="none" stroke="#63b8ff" d="M689.64,-116.3C697.56,-116.3 705.58,-116.3 713.57,-116.3"/>
<polygon fill="#63b8ff" stroke="#63b8ff" points="713.31,-119.8 723.31,-116.3 713.31,-112.8 713.31,-119.8"/>
</a>
</g>
</g>
<!-- Node5 -->
<g id="Node000005" class="node">
<title>Node5</title>
<g id="a_Node000005"><a xlink:href="classfr_1_1softsf_1_1sudokufx_1_1view_1_1components_1_1toaster_1_1_toaster_v_box.html#acbc99d9f5ededd3b6a84ab864ec79171" target="_top" xlink:title="Sets the style of the toast based on its level.">
<polygon fill="white" stroke="#666666" points="932.5,-182.3 725.25,-182.3 725.25,-150.3 932.5,-150.3 932.5,-182.3"/>
<text text-anchor="start" x="733.25" y="-168.8" font-family="Helvetica,sans-Serif" font-size="10.00">fr.softsf.sudokufx.view.components.toaster.</text>
<text text-anchor="middle" x="828.88" y="-156.8" font-family="Helvetica,sans-Serif" font-size="10.00">ToasterVBox.setToastStyle</text>
</a>
</g>
</g>
<!-- Node2&#45;&gt;Node5 -->
<g id="edge4_Node000002_Node000005" class="edge">
<title>Node2&#45;&gt;Node5</title>
<g id="a_edge4_Node000002_Node000005"><a xlink:title=" ">
<path fill="none" stroke="#63b8ff" d="M665.95,-132.74C688.84,-137.48 713.97,-142.69 737.47,-147.56"/>
<polygon fill="#63b8ff" stroke="#63b8ff" points="736.51,-150.94 747.02,-149.54 737.94,-144.08 736.51,-150.94"/>
</a>
</g>
</g>
<!-- Node7 -->
<g id="Node000007" class="node">
<title>Node7</title>
<g id="a_Node000007"><a xlink:href="classfr_1_1softsf_1_1sudokufx_1_1view_1_1components_1_1toaster_1_1_toaster_v_box.html#abbd390731ca047cc6010818f5d461dbd" target="_top" xlink:title="Sets a timer to automatically remove the toast after a specified duration.">
<polygon fill="white" stroke="#666666" points="932.5,-82.3 725.25,-82.3 725.25,-50.3 932.5,-50.3 932.5,-82.3"/>
<text text-anchor="start" x="733.25" y="-68.8" font-family="Helvetica,sans-Serif" font-size="10.00">fr.softsf.sudokufx.view.components.toaster.</text>
<text text-anchor="middle" x="828.88" y="-56.8" font-family="Helvetica,sans-Serif" font-size="10.00">ToasterVBox.temporizeToast</text>
</a>
</g>
</g>
<!-- Node2&#45;&gt;Node7 -->
<g id="edge6_Node000002_Node000007" class="edge">
<title>Node2&#45;&gt;Node7</title>
<g id="a_edge6_Node000002_Node000007"><a xlink:title=" ">
<path fill="none" stroke="#63b8ff" d="M665.95,-99.86C688.84,-95.12 713.97,-89.91 737.47,-85.04"/>
<polygon fill="#63b8ff" stroke="#63b8ff" points="737.94,-88.51 747.02,-83.06 736.51,-81.66 737.94,-88.51"/>
</a>
</g>
</g>
<!-- Node4 -->
<g id="Node000004" class="node">
<title>Node4</title>
<g id="a_Node000004"><a xlink:href="classfr_1_1softsf_1_1sudokufx_1_1view_1_1components_1_1toaster_1_1_toaster_v_box.html#a8cdb11d9f616bd6f835cafbf5f28bce7" target="_top" xlink:title="Retrieves the information text corresponding to the specified toast level.">
<polygon fill="white" stroke="#666666" points="1175.75,-132.3 968.5,-132.3 968.5,-100.3 1175.75,-100.3 1175.75,-132.3"/>
<text text-anchor="start" x="976.5" y="-118.8" font-family="Helvetica,sans-Serif" font-size="10.00">fr.softsf.sudokufx.view.components.toaster.</text>
<text text-anchor="middle" x="1072.12" y="-106.8" font-family="Helvetica,sans-Serif" font-size="10.00">ToasterVBox.getToastInfo</text>
</a>
</g>
</g>
<!-- Node3&#45;&gt;Node4 -->
<g id="edge3_Node000003_Node000004" class="edge">
<title>Node3&#45;&gt;Node4</title>
<g id="a_edge3_Node000003_Node000004"><a xlink:title=" ">
<path fill="none" stroke="#63b8ff" d="M932.89,-116.3C940.81,-116.3 948.83,-116.3 956.82,-116.3"/>
<polygon fill="#63b8ff" stroke="#63b8ff" points="956.56,-119.8 966.56,-116.3 956.56,-112.8 956.56,-119.8"/>
</a>
</g>
</g>
<!-- Node6 -->
<g id="Node000006" class="node">
<title>Node6</title>
<g id="a_Node000006"><a xlink:href="enumfr_1_1softsf_1_1sudokufx_1_1enums_1_1_toast_levels.html#a37cf79bc87b16f23dc854d3de19d331b" target="_top" xlink:title=" ">
<polygon fill="white" stroke="#666666" points="1136,-182.3 1008.25,-182.3 1008.25,-150.3 1136,-150.3 1136,-182.3"/>
<text text-anchor="start" x="1016.25" y="-168.8" font-family="Helvetica,sans-Serif" font-size="10.00">fr.softsf.sudokufx.enums.</text>
<text text-anchor="middle" x="1072.12" y="-156.8" font-family="Helvetica,sans-Serif" font-size="10.00">ToastLevels.getLevel</text>
</a>
</g>
</g>
<!-- Node5&#45;&gt;Node6 -->
<g id="edge5_Node000005_Node000006" class="edge">
<title>Node5&#45;&gt;Node6</title>
<g id="a_edge5_Node000005_Node000006"><a xlink:title=" ">
<path fill="none" stroke="#63b8ff" d="M932.89,-166.3C954.29,-166.3 976.45,-166.3 996.59,-166.3"/>
<polygon fill="#63b8ff" stroke="#63b8ff" points="996.36,-169.8 1006.36,-166.3 996.36,-162.8 996.36,-169.8"/>
</a>
</g>
</g>
<!-- Node8&#45;&gt;Node2 -->
<g id="edge8_Node000008_Node000002" class="edge">
<title>Node8&#45;&gt;Node2</title>
<g id="a_edge8_Node000008_Node000002"><a xlink:title=" ">
<path fill="none" stroke="#63b8ff" d="M435.98,-103.15C447.32,-104.16 458.94,-105.18 470.44,-106.2"/>
<polygon fill="#63b8ff" stroke="#63b8ff" points="470.11,-109.69 480.38,-107.08 470.73,-102.71 470.11,-109.69"/>
</a>
</g>
</g>
<!-- Node9 -->
<g id="Node000009" class="node">
<title>Node9</title>
<g id="a_Node000009"><a xlink:href="classfr_1_1softsf_1_1sudokufx_1_1view_1_1components_1_1toaster_1_1_toaster_v_box.html#a4927d5647d977b8b2e3a3a84f51bea4e" target="_top" xlink:title="Schedules the current toast for removal after a short delay.">
<polygon fill="white" stroke="#666666" points="689.25,-82.3 482,-82.3 482,-50.3 689.25,-50.3 689.25,-82.3"/>
<text text-anchor="start" x="490" y="-68.8" font-family="Helvetica,sans-Serif" font-size="10.00">fr.softsf.sudokufx.view.components.toaster.</text>
<text text-anchor="middle" x="585.62" y="-56.8" font-family="Helvetica,sans-Serif" font-size="10.00">ToasterVBox.removeToast</text>
</a>
</g>
</g>
<!-- Node8&#45;&gt;Node9 -->
<g id="edge9_Node000008_Node000009" class="edge">
<title>Node8&#45;&gt;Node9</title>
<g id="a_edge9_Node000008_Node000009"><a xlink:title=" ">
<path fill="none" stroke="#63b8ff" d="M435.98,-83.03C447.43,-81.74 459.18,-80.42 470.8,-79.11"/>
<polygon fill="#63b8ff" stroke="#63b8ff" points="470.84,-82.63 480.39,-78.03 470.06,-75.67 470.84,-82.63"/>
</a>
</g>
</g>
<!-- Node8&#45;&gt;Node10 -->
<g id="edge11_Node000008_Node000010" class="edge">
<title>Node8&#45;&gt;Node10</title>
<g id="a_edge11_Node000008_Node000010"><a xlink:title=" ">
<path fill="none" stroke="#63b8ff" d="M424.1,-71.81C431.6,-69.2 438.99,-66.36 446,-63.3 463.19,-55.8 464.68,-48.49 482,-41.3 486.33,-39.5 490.83,-37.81 495.4,-36.22"/>
<polygon fill="#63b8ff" stroke="#63b8ff" points="496.33,-39.6 504.76,-33.19 494.17,-32.94 496.33,-39.6"/>
</a>
</g>
</g>
<!-- Node9&#45;&gt;Node7 -->
<g id="edge10_Node000009_Node000007" class="edge">
<title>Node9&#45;&gt;Node7</title>
<g id="a_edge10_Node000009_Node000007"><a xlink:title=" ">
<path fill="none" stroke="#63b8ff" d="M689.64,-66.3C697.56,-66.3 705.58,-66.3 713.57,-66.3"/>
<polygon fill="#63b8ff" stroke="#63b8ff" points="713.31,-69.8 723.31,-66.3 713.31,-62.8 713.31,-69.8"/>
</a>
</g>
</g>
<!-- Node11&#45;&gt;Node2 -->
<g id="edge13_Node000011_Node000002" class="edge">
<title>Node11&#45;&gt;Node2</title>
<g id="a_edge13_Node000011_Node000002"><a xlink:title=" ">
<path fill="none" stroke="#63b8ff" d="M424.5,-54.78C431.92,-57.25 439.18,-60.07 446,-63.3 464.32,-71.97 463.75,-82.48 482,-91.3 485.34,-92.91 488.8,-94.43 492.33,-95.85"/>
<polygon fill="#63b8ff" stroke="#63b8ff" points="491.1,-99.13 501.69,-99.32 493.53,-92.56 491.1,-99.13"/>
</a>
</g>
</g>
<!-- Node11&#45;&gt;Node9 -->
<g id="edge14_Node000011_Node000009" class="edge">
<title>Node11&#45;&gt;Node9</title>
<g id="a_edge14_Node000011_Node000009"><a xlink:title=" ">
<path fill="none" stroke="#63b8ff" d="M446.43,-50.74C454.37,-51.64 462.38,-52.54 470.34,-53.43"/>
<polygon fill="#63b8ff" stroke="#63b8ff" points="469.71,-56.89 480.03,-54.53 470.49,-49.93 469.71,-56.89"/>
</a>
</g>
</g>
<!-- Node11&#45;&gt;Node10 -->
<g id="edge15_Node000011_Node000010" class="edge">
<title>Node11&#45;&gt;Node10</title>
<g id="a_edge15_Node000011_Node000010"><a xlink:title=" ">
<path fill="none" stroke="#63b8ff" d="M446.43,-28.52C460.01,-27.32 473.82,-26.1 487.19,-24.92"/>
<polygon fill="#63b8ff" stroke="#63b8ff" points="487.14,-28.43 496.8,-24.07 486.53,-21.46 487.14,-28.43"/>
</a>
</g>
</g>
</g>
</svg>
