<?xml version="1.0" encoding="UTF-8" standalone="no"?>
<!DOCTYPE svg PUBLIC "-//W3C//DTD SVG 1.1//EN"
 "http://www.w3.org/Graphics/SVG/1.1/DTD/svg11.dtd">
<!-- Generated by graphviz version 12.2.1 (20241206.2353)
 -->
<!-- Title: fr.softsf.sudokufx.config.database.ApplicationKeystore.addToKeystore Pages: 1 -->
<svg width="646pt" height="108pt"
 viewBox="0.00 0.00 646.25 108.00" xmlns="http://www.w3.org/2000/svg" xmlns:xlink="http://www.w3.org/1999/xlink">
<g id="graph0" class="graph" transform="scale(1 1) rotate(0) translate(4 104)">
<title>fr.softsf.sudokufx.config.database.ApplicationKeystore.addToKeystore</title>
<!-- Node1 -->
<g id="Node000001" class="node">
<title>Node1</title>
<g id="a_Node000001"><a xlink:title="Stores the given secret key in the keystore under the specified alias.">
<polygon fill="#999999" stroke="#666666" points="171.25,-66 0,-66 0,-34 171.25,-34 171.25,-66"/>
<text text-anchor="start" x="8" y="-52.5" font-family="Helvetica,sans-Serif" font-size="10.00">fr.softsf.sudokufx.config.database.</text>
<text text-anchor="middle" x="85.62" y="-40.5" font-family="Helvetica,sans-Serif" font-size="10.00">ApplicationKeystore.addToKeystore</text>
</a>
</g>
</g>
<!-- Node2 -->
<g id="Node000002" class="node">
<title>Node2</title>
<g id="a_Node000002"><a xlink:href="classfr_1_1softsf_1_1sudokufx_1_1config_1_1database_1_1_application_keystore.html#a1d981fbc5ac12da9cacc785a8052e318" target="_top" xlink:title="Validates that the given alias is not null, empty, or blank.">
<polygon fill="white" stroke="#666666" points="409.25,-100 207.25,-100 207.25,-68 409.25,-68 409.25,-100"/>
<text text-anchor="start" x="215.25" y="-86.5" font-family="Helvetica,sans-Serif" font-size="10.00">fr.softsf.sudokufx.config.database.</text>
<text text-anchor="middle" x="308.25" y="-74.5" font-family="Helvetica,sans-Serif" font-size="10.00">ApplicationKeystore.validateAliasNotBlank</text>
</a>
</g>
</g>
<!-- Node1&#45;&gt;Node2 -->
<g id="edge1_Node000001_Node000002" class="edge">
<title>Node1&#45;&gt;Node2</title>
<g id="a_edge1_Node000001_Node000002"><a xlink:title=" ">
<path fill="none" stroke="#63b8ff" d="M171.61,-63.1C179.45,-64.3 187.47,-65.54 195.49,-66.78"/>
<polygon fill="#63b8ff" stroke="#63b8ff" points="194.92,-70.23 205.34,-68.29 195.99,-63.31 194.92,-70.23"/>
</a>
</g>
</g>
<!-- Node3 -->
<g id="Node000003" class="node">
<title>Node3</title>
<g id="a_Node000003"><a xlink:href="classfr_1_1softsf_1_1sudokufx_1_1config_1_1database_1_1_application_keystore.html#a9714968659205027206115325bebd480" target="_top" xlink:title="Writes the keystore content to a file.">
<polygon fill="white" stroke="#666666" points="399.5,-32 217,-32 217,0 399.5,0 399.5,-32"/>
<text text-anchor="start" x="225" y="-18.5" font-family="Helvetica,sans-Serif" font-size="10.00">fr.softsf.sudokufx.config.database.</text>
<text text-anchor="middle" x="308.25" y="-6.5" font-family="Helvetica,sans-Serif" font-size="10.00">ApplicationKeystore.writeTheKeystore</text>
</a>
</g>
</g>
<!-- Node1&#45;&gt;Node3 -->
<g id="edge2_Node000001_Node000003" class="edge">
<title>Node1&#45;&gt;Node3</title>
<g id="a_edge2_Node000001_Node000003"><a xlink:title=" ">
<path fill="none" stroke="#63b8ff" d="M171.61,-36.9C182.72,-35.19 194.19,-33.42 205.53,-31.68"/>
<polygon fill="#63b8ff" stroke="#63b8ff" points="205.97,-35.15 215.32,-30.17 204.91,-28.23 205.97,-35.15"/>
</a>
</g>
</g>
<!-- Node3&#45;&gt;Node3 -->
<g id="edge4_Node000003_Node000003" class="edge">
<title>Node3&#45;&gt;Node3</title>
<g id="a_edge4_Node000003_Node000003"><a xlink:title=" ">
<path fill="none" stroke="#63b8ff" d="M268.51,-32.44C261.09,-41.58 274.33,-50 308.25,-50 327.06,-50 339.52,-47.41 345.61,-43.54"/>
<polygon fill="#63b8ff" stroke="#63b8ff" points="349,-44.43 347.68,-33.92 342.16,-42.96 349,-44.43"/>
</a>
</g>
</g>
<!-- Node4 -->
<g id="Node000004" class="node">
<title>Node4</title>
<g id="a_Node000004"><a xlink:href="classfr_1_1softsf_1_1sudokufx_1_1config_1_1database_1_1_application_keystore.html#a094e3f98d8644135b26b573ee75bd834" target="_top" xlink:title=" ">
<polygon fill="white" stroke="#666666" points="638.25,-32 445.25,-32 445.25,0 638.25,0 638.25,-32"/>
<text text-anchor="start" x="453.25" y="-18.5" font-family="Helvetica,sans-Serif" font-size="10.00">fr.softsf.sudokufx.config.database.</text>
<text text-anchor="middle" x="541.75" y="-6.5" font-family="Helvetica,sans-Serif" font-size="10.00">ApplicationKeystore.ApplicationKeystore</text>
</a>
</g>
</g>
<!-- Node3&#45;&gt;Node4 -->
<g id="edge3_Node000003_Node000004" class="edge">
<title>Node3&#45;&gt;Node4</title>
<g id="a_edge3_Node000003_Node000004"><a xlink:title=" ">
<path fill="none" stroke="#63b8ff" d="M399.75,-16C410.88,-16 422.33,-16 433.68,-16"/>
<polygon fill="#63b8ff" stroke="#63b8ff" points="433.45,-19.5 443.45,-16 433.45,-12.5 433.45,-19.5"/>
</a>
</g>
</g>
</g>
</svg>
