<?xml version="1.0" encoding="UTF-8" standalone="no"?>
<!DOCTYPE svg PUBLIC "-//W3C//DTD SVG 1.1//EN"
 "http://www.w3.org/Graphics/SVG/1.1/DTD/svg11.dtd">
<!-- Generated by graphviz version 12.2.1 (20241206.2353)
 -->
<!-- Title: fr.softsf.sudokufx.SudoMain Pages: 1 -->
<svg width="602pt" height="744pt"
 viewBox="0.00 0.00 601.75 744.00" xmlns="http://www.w3.org/2000/svg" xmlns:xlink="http://www.w3.org/1999/xlink">
<g id="graph0" class="graph" transform="scale(1 1) rotate(0) translate(4 740)">
<title>fr.softsf.sudokufx.SudoMain</title>
<!-- Node1 -->
<g id="Node000001" class="node">
<title>Node1</title>
<g id="a_Node000001"><a xlink:title="Entry point of the Sudo application.">
<polygon fill="#999999" stroke="none" points="334.88,-288 151.12,-288 151.12,0 334.88,0 334.88,-288"/>
<text text-anchor="start" x="181.5" y="-274.5" font-family="Helvetica,sans-Serif" font-size="10.00">fr.softsf.sudokufx.SudoMain</text>
<text text-anchor="start" x="156.62" y="-258.5" font-family="Helvetica,sans-Serif" font-size="10.00">&#45;</text>
<text text-anchor="start" x="165.12" y="-258.5" font-family="Helvetica,sans-Serif" font-size="10.00">final SpringContext</text>
<text text-anchor="start" x="165.12" y="-246.5" font-family="Helvetica,sans-Serif" font-size="10.00"> context</text>
<text text-anchor="start" x="156.62" y="-230.5" font-family="Helvetica,sans-Serif" font-size="10.00">&#45;</text>
<text text-anchor="start" x="165.12" y="-230.5" font-family="Helvetica,sans-Serif" font-size="10.00">Stage stage</text>
<text text-anchor="start" x="156.62" y="-214.5" font-family="Helvetica,sans-Serif" font-size="10.00">&#45;</text>
<text text-anchor="start" x="165.12" y="-214.5" font-family="Helvetica,sans-Serif" font-size="10.00">static final Logger log</text>
<text text-anchor="start" x="155.12" y="-198.5" font-family="Helvetica,sans-Serif" font-size="10.00">+</text>
<text text-anchor="start" x="165.12" y="-198.5" font-family="Helvetica,sans-Serif" font-size="10.00">void start(final Stage</text>
<text text-anchor="start" x="165.12" y="-186.5" font-family="Helvetica,sans-Serif" font-size="10.00"> stage)</text>
<text text-anchor="start" x="155.12" y="-170.5" font-family="Helvetica,sans-Serif" font-size="10.00">+</text>
<text text-anchor="start" x="165.12" y="-170.5" font-family="Helvetica,sans-Serif" font-size="10.00">static void main(String</text>
<text text-anchor="start" x="165.12" y="-158.5" font-family="Helvetica,sans-Serif" font-size="10.00">[] args)</text>
<text text-anchor="start" x="156.62" y="-142.5" font-family="Helvetica,sans-Serif" font-size="10.00">&#45;</text>
<text text-anchor="start" x="165.12" y="-142.5" font-family="Helvetica,sans-Serif" font-size="10.00">PauseTransition createView</text>
<text text-anchor="start" x="165.12" y="-130.5" font-family="Helvetica,sans-Serif" font-size="10.00">Transition(String fxmlName,</text>
<text text-anchor="start" x="165.12" y="-118.5" font-family="Helvetica,sans-Serif" font-size="10.00"> long minimumTimelapse)</text>
<text text-anchor="start" x="156.62" y="-102.5" font-family="Helvetica,sans-Serif" font-size="10.00">&#45;</text>
<text text-anchor="start" x="165.12" y="-102.5" font-family="Helvetica,sans-Serif" font-size="10.00">void handleSpringContext</text>
<text text-anchor="start" x="165.12" y="-90.5" font-family="Helvetica,sans-Serif" font-size="10.00">TaskFailed(Throwable throwable)</text>
<text text-anchor="start" x="156.62" y="-74.5" font-family="Helvetica,sans-Serif" font-size="10.00">&#45;</text>
<text text-anchor="start" x="165.12" y="-74.5" font-family="Helvetica,sans-Serif" font-size="10.00">void handleSpringContext</text>
<text text-anchor="start" x="165.12" y="-62.5" font-family="Helvetica,sans-Serif" font-size="10.00">TaskSuccess(long startTime)</text>
<text text-anchor="start" x="156.62" y="-46.5" font-family="Helvetica,sans-Serif" font-size="10.00">&#45;</text>
<text text-anchor="start" x="165.12" y="-46.5" font-family="Helvetica,sans-Serif" font-size="10.00">void initializeCoordinator()</text>
<text text-anchor="start" x="156.62" y="-30.5" font-family="Helvetica,sans-Serif" font-size="10.00">&#45;</text>
<text text-anchor="start" x="165.12" y="-30.5" font-family="Helvetica,sans-Serif" font-size="10.00">static void sqlInvalidAuthorization</text>
<text text-anchor="start" x="165.12" y="-18.5" font-family="Helvetica,sans-Serif" font-size="10.00">(Exception e, SQLInvalidAuthorization</text>
<text text-anchor="start" x="165.12" y="-6.5" font-family="Helvetica,sans-Serif" font-size="10.00">SpecException sqlException)</text>
<polygon fill="#666666" stroke="#666666" points="151.12,-270 151.12,-270 334.88,-270 334.88,-270 151.12,-270"/>
<polygon fill="#666666" stroke="#666666" points="151.12,-210 151.12,-210 163.12,-210 163.12,-210 151.12,-210"/>
<polygon fill="#666666" stroke="#666666" points="163.12,-210 163.12,-210 334.88,-210 334.88,-210 163.12,-210"/>
<polygon fill="none" stroke="#666666" points="151.12,0 151.12,-288 334.88,-288 334.88,0 151.12,0"/>
</a>
</g>
</g>
<!-- Node2 -->
<g id="Node000002" class="node">
<title>Node2</title>
<g id="a_Node000002"><a xlink:title=" ">
<polygon fill="white" stroke="none" points="56,-468 0,-468 0,-416 56,-416 56,-468"/>
<text text-anchor="start" x="4" y="-454.5" font-family="Helvetica,sans-Serif" font-size="10.00">Application</text>
<text text-anchor="start" x="26.5" y="-438.5" font-family="Helvetica,sans-Serif" font-size="10.00"> </text>
<text text-anchor="start" x="26.5" y="-422.5" font-family="Helvetica,sans-Serif" font-size="10.00"> </text>
<polygon fill="#666666" stroke="#666666" points="0,-450 0,-450 56,-450 56,-450 0,-450"/>
<polygon fill="#666666" stroke="#666666" points="0,-434 0,-434 56,-434 56,-434 0,-434"/>
<polygon fill="none" stroke="#666666" points="0,-416 0,-468 56,-468 56,-416 0,-416"/>
</a>
</g>
</g>
<!-- Node2&#45;&gt;Node1 -->
<g id="edge1_Node000001_Node000002" class="edge">
<title>Node2&#45;&gt;Node1</title>
<g id="a_edge1_Node000001_Node000002"><a xlink:title=" ">
<path fill="none" stroke="#63b8ff" d="M36.62,-405.32C42.66,-384.21 51.99,-357.48 65,-336 88.48,-297.23 120.78,-259.6 151.42,-228.14"/>
<polygon fill="none" stroke="#63b8ff" points="33.25,-404.37 34,-414.94 40,-406.21 33.25,-404.37"/>
</a>
</g>
</g>
<!-- Node3 -->
<g id="Node000003" class="node">
<title>Node3</title>
<g id="a_Node000003"><a xlink:href="interfacefr_1_1softsf_1_1sudokufx_1_1interfaces_1_1_i_splash_screen_view.html" target="_top" xlink:title="Provides basic control over the splash screen visibility and access to its scene.">
<polygon fill="white" stroke="none" points="230.38,-490 73.62,-490 73.62,-394 230.38,-394 230.38,-490"/>
<text text-anchor="start" x="89.38" y="-476.5" font-family="Helvetica,sans-Serif" font-size="10.00">fr.softsf.sudokufx.interfaces.</text>
<text text-anchor="start" x="109.25" y="-464.5" font-family="Helvetica,sans-Serif" font-size="10.00">ISplashScreenView</text>
<text text-anchor="start" x="150.5" y="-448.5" font-family="Helvetica,sans-Serif" font-size="10.00"> </text>
<text text-anchor="start" x="77.62" y="-432.5" font-family="Helvetica,sans-Serif" font-size="10.00">+</text>
<text text-anchor="start" x="87.62" y="-432.5" font-family="Helvetica,sans-Serif" font-size="10.00">Scene getSplashScreenScene()</text>
<text text-anchor="start" x="77.62" y="-416.5" font-family="Helvetica,sans-Serif" font-size="10.00">+</text>
<text text-anchor="start" x="87.62" y="-416.5" font-family="Helvetica,sans-Serif" font-size="10.00">void hideSplashScreen()</text>
<text text-anchor="start" x="77.62" y="-400.5" font-family="Helvetica,sans-Serif" font-size="10.00">+</text>
<text text-anchor="start" x="87.62" y="-400.5" font-family="Helvetica,sans-Serif" font-size="10.00">void showSplashScreen()</text>
<polygon fill="#666666" stroke="#666666" points="73.62,-460 73.62,-460 230.38,-460 230.38,-460 73.62,-460"/>
<polygon fill="#666666" stroke="#666666" points="73.62,-444 73.62,-444 230.38,-444 230.38,-444 73.62,-444"/>
<polygon fill="none" stroke="#666666" points="73.62,-394 73.62,-490 230.38,-490 230.38,-394 73.62,-394"/>
</a>
</g>
</g>
<!-- Node3&#45;&gt;Node1 -->
<g id="edge2_Node000001_Node000003" class="edge">
<title>Node3&#45;&gt;Node1</title>
<g id="a_edge2_Node000001_Node000003"><a xlink:title=" ">
<path fill="none" stroke="#63b8ff" d="M166.42,-394.1C174.38,-368.21 184.76,-334.43 195.31,-300.13"/>
<polygon fill="none" stroke="#63b8ff" points="195.25,-300.32 193.19,-293.41 198.78,-288.85 200.84,-295.76 195.25,-300.32"/>
</a>
</g>
<text text-anchor="middle" x="237.43" y="-308.5" font-family="Helvetica,sans-Serif" font-size="10.00" fill="grey"> &#45;iSplashScreenView</text>
</g>
<!-- Node4 -->
<g id="Node000004" class="node">
<title>Node4</title>
<g id="a_Node000004"><a xlink:href="interfacefr_1_1softsf_1_1sudokufx_1_1interfaces_1_1_i_main_view.html" target="_top" xlink:title="Interface defining method to open the main stage.">
<polygon fill="white" stroke="none" points="421.25,-486 248.75,-486 248.75,-398 421.25,-398 421.25,-486"/>
<text text-anchor="start" x="272.38" y="-472.5" font-family="Helvetica,sans-Serif" font-size="10.00">fr.softsf.sudokufx.interfaces.</text>
<text text-anchor="start" x="312.12" y="-460.5" font-family="Helvetica,sans-Serif" font-size="10.00">IMainView</text>
<text text-anchor="start" x="333.5" y="-444.5" font-family="Helvetica,sans-Serif" font-size="10.00"> </text>
<text text-anchor="start" x="252.75" y="-428.5" font-family="Helvetica,sans-Serif" font-size="10.00">+</text>
<text text-anchor="start" x="262.75" y="-428.5" font-family="Helvetica,sans-Serif" font-size="10.00">void openingMainStage</text>
<text text-anchor="start" x="262.75" y="-416.5" font-family="Helvetica,sans-Serif" font-size="10.00">(ISplashScreenView iSplashScreen</text>
<text text-anchor="start" x="262.75" y="-404.5" font-family="Helvetica,sans-Serif" font-size="10.00">View)</text>
<polygon fill="#666666" stroke="#666666" points="248.75,-456 248.75,-456 421.25,-456 421.25,-456 248.75,-456"/>
<polygon fill="#666666" stroke="#666666" points="248.75,-440 248.75,-440 421.25,-440 421.25,-440 248.75,-440"/>
<polygon fill="none" stroke="#666666" points="248.75,-398 248.75,-486 421.25,-486 421.25,-398 248.75,-398"/>
</a>
</g>
</g>
<!-- Node4&#45;&gt;Node1 -->
<g id="edge3_Node000001_Node000004" class="edge">
<title>Node4&#45;&gt;Node1</title>
<g id="a_edge3_Node000001_Node000004"><a xlink:title=" ">
<path fill="none" stroke="#63b8ff" d="M321.72,-398.28C313.52,-371.88 302.43,-336.22 291.18,-300.01"/>
<polygon fill="none" stroke="#63b8ff" points="291.19,-300.03 285.59,-295.49 287.62,-288.58 293.23,-293.12 291.19,-300.03"/>
</a>
</g>
<text text-anchor="middle" x="320.01" y="-308.5" font-family="Helvetica,sans-Serif" font-size="10.00" fill="grey"> &#45;iMainView</text>
</g>
<!-- Node5 -->
<g id="Node000005" class="node">
<title>Node5</title>
<g id="a_Node000005"><a xlink:href="classfr_1_1softsf_1_1sudokufx_1_1navigation_1_1_coordinator.html" target="_top" xlink:title="Coordinator is a Spring&#45;managed component responsible for controlling navigation and dynamic UI updat...">
<polygon fill="white" stroke="none" points="584.75,-548 439.25,-548 439.25,-336 584.75,-336 584.75,-548"/>
<text text-anchor="start" x="448.62" y="-534.5" font-family="Helvetica,sans-Serif" font-size="10.00">fr.softsf.sudokufx.navigation.</text>
<text text-anchor="start" x="486.88" y="-522.5" font-family="Helvetica,sans-Serif" font-size="10.00">Coordinator</text>
<text text-anchor="start" x="444.75" y="-506.5" font-family="Helvetica,sans-Serif" font-size="10.00">&#45;</text>
<text text-anchor="start" x="453.25" y="-506.5" font-family="Helvetica,sans-Serif" font-size="10.00">Scene defaultScene</text>
<text text-anchor="start" x="444.75" y="-490.5" font-family="Helvetica,sans-Serif" font-size="10.00">&#45;</text>
<text text-anchor="start" x="453.25" y="-490.5" font-family="Helvetica,sans-Serif" font-size="10.00">final FXMLLoader fxmlLoader</text>
<text text-anchor="start" x="444.75" y="-474.5" font-family="Helvetica,sans-Serif" font-size="10.00">&#45;</text>
<text text-anchor="start" x="453.25" y="-474.5" font-family="Helvetica,sans-Serif" font-size="10.00">static final Logger log</text>
<text text-anchor="start" x="443.25" y="-458.5" font-family="Helvetica,sans-Serif" font-size="10.00">+</text>
<text text-anchor="start" x="453.25" y="-458.5" font-family="Helvetica,sans-Serif" font-size="10.00">Coordinator(FXMLLoader</text>
<text text-anchor="start" x="453.25" y="-446.5" font-family="Helvetica,sans-Serif" font-size="10.00"> fxmlLoader)</text>
<text text-anchor="start" x="443.25" y="-430.5" font-family="Helvetica,sans-Serif" font-size="10.00">+</text>
<text text-anchor="start" x="453.25" y="-430.5" font-family="Helvetica,sans-Serif" font-size="10.00">Scene getDefaultScene()</text>
<text text-anchor="start" x="443.25" y="-414.5" font-family="Helvetica,sans-Serif" font-size="10.00">+</text>
<text text-anchor="start" x="453.25" y="-414.5" font-family="Helvetica,sans-Serif" font-size="10.00">void setDefaultScene</text>
<text text-anchor="start" x="453.25" y="-402.5" font-family="Helvetica,sans-Serif" font-size="10.00">(Scene scene)</text>
<text text-anchor="start" x="443.25" y="-386.5" font-family="Helvetica,sans-Serif" font-size="10.00">+</text>
<text text-anchor="start" x="453.25" y="-386.5" font-family="Helvetica,sans-Serif" font-size="10.00">void setDynamicFontSize()</text>
<text text-anchor="start" x="443.25" y="-370.5" font-family="Helvetica,sans-Serif" font-size="10.00">+</text>
<text text-anchor="start" x="453.25" y="-370.5" font-family="Helvetica,sans-Serif" font-size="10.00">void setRootByFXMLName</text>
<text text-anchor="start" x="453.25" y="-358.5" font-family="Helvetica,sans-Serif" font-size="10.00">(final String fxml)</text>
<text text-anchor="start" x="443.25" y="-342.5" font-family="Helvetica,sans-Serif" font-size="10.00">~</text>
<text text-anchor="start" x="453.25" y="-342.5" font-family="Helvetica,sans-Serif" font-size="10.00">public&lt; T &gt; T getController()</text>
<polygon fill="#666666" stroke="#666666" points="439.25,-518 439.25,-518 584.75,-518 584.75,-518 439.25,-518"/>
<polygon fill="#666666" stroke="#666666" points="439.25,-470 439.25,-470 451.25,-470 451.25,-470 439.25,-470"/>
<polygon fill="#666666" stroke="#666666" points="451.25,-470 451.25,-470 584.75,-470 584.75,-470 451.25,-470"/>
<polygon fill="none" stroke="#666666" points="439.25,-336 439.25,-548 584.75,-548 584.75,-336 439.25,-336"/>
</a>
</g>
</g>
<!-- Node5&#45;&gt;Node1 -->
<g id="edge4_Node000001_Node000005" class="edge">
<title>Node5&#45;&gt;Node1</title>
<g id="a_edge4_Node000001_Node000005"><a xlink:title=" ">
<path fill="none" stroke="#63b8ff" d="M439.42,-346.97C436.27,-343.24 433.12,-339.57 430,-336 402.86,-304.99 372.04,-272.5 343.37,-243.3"/>
<polygon fill="none" stroke="#63b8ff" points="343.6,-243.54 336.54,-242.07 335.18,-234.99 342.24,-236.46 343.6,-243.54"/>
</a>
</g>
<text text-anchor="middle" x="437.71" y="-308.5" font-family="Helvetica,sans-Serif" font-size="10.00" fill="grey"> &#45;coordinator</text>
</g>
<!-- Node6 -->
<g id="Node000006" class="node">
<title>Node6</title>
<g id="a_Node000006"><a xlink:href="classfr_1_1softsf_1_1sudokufx_1_1utils_1_1_dynamic_font_size.html" target="_top" xlink:title="Manages dynamic font sizing based on the dimensions of a JavaFX Scene.">
<polygon fill="white" stroke="none" points="582.12,-736 441.88,-736 441.88,-596 582.12,-596 582.12,-736"/>
<text text-anchor="start" x="461.75" y="-722.5" font-family="Helvetica,sans-Serif" font-size="10.00">fr.softsf.sudokufx.utils.</text>
<text text-anchor="start" x="473" y="-710.5" font-family="Helvetica,sans-Serif" font-size="10.00">DynamicFontSize</text>
<text text-anchor="start" x="447.38" y="-694.5" font-family="Helvetica,sans-Serif" font-size="10.00">&#45;</text>
<text text-anchor="start" x="455.88" y="-694.5" font-family="Helvetica,sans-Serif" font-size="10.00">double currentFontSize</text>
<text text-anchor="start" x="447.38" y="-678.5" font-family="Helvetica,sans-Serif" font-size="10.00">&#45;</text>
<text text-anchor="start" x="455.88" y="-678.5" font-family="Helvetica,sans-Serif" font-size="10.00">final Scene scene</text>
<text text-anchor="start" x="445.88" y="-662.5" font-family="Helvetica,sans-Serif" font-size="10.00">+</text>
<text text-anchor="start" x="455.88" y="-662.5" font-family="Helvetica,sans-Serif" font-size="10.00">DynamicFontSize(Scene</text>
<text text-anchor="start" x="455.88" y="-650.5" font-family="Helvetica,sans-Serif" font-size="10.00"> scene)</text>
<text text-anchor="start" x="445.88" y="-634.5" font-family="Helvetica,sans-Serif" font-size="10.00">+</text>
<text text-anchor="start" x="455.88" y="-634.5" font-family="Helvetica,sans-Serif" font-size="10.00">double getCurrentFontSize()</text>
<text text-anchor="start" x="445.88" y="-618.5" font-family="Helvetica,sans-Serif" font-size="10.00">+</text>
<text text-anchor="start" x="455.88" y="-618.5" font-family="Helvetica,sans-Serif" font-size="10.00">void updateFontSize()</text>
<text text-anchor="start" x="447.38" y="-602.5" font-family="Helvetica,sans-Serif" font-size="10.00">&#45;</text>
<text text-anchor="start" x="455.88" y="-602.5" font-family="Helvetica,sans-Serif" font-size="10.00">void initialize()</text>
<polygon fill="#666666" stroke="#666666" points="441.88,-706 441.88,-706 582.12,-706 582.12,-706 441.88,-706"/>
<polygon fill="#666666" stroke="#666666" points="441.88,-674 441.88,-674 453.88,-674 453.88,-674 441.88,-674"/>
<polygon fill="#666666" stroke="#666666" points="453.88,-674 453.88,-674 582.12,-674 582.12,-674 453.88,-674"/>
<polygon fill="none" stroke="#666666" points="441.88,-596 441.88,-736 582.12,-736 582.12,-596 441.88,-596"/>
</a>
</g>
</g>
<!-- Node6&#45;&gt;Node5 -->
<g id="edge5_Node000005_Node000006" class="edge">
<title>Node6&#45;&gt;Node5</title>
<g id="a_edge5_Node000005_Node000006"><a xlink:title=" ">
<path fill="none" stroke="#63b8ff" d="M512,-596.28C512,-584.84 512,-572.7 512,-560.46"/>
<polygon fill="none" stroke="#63b8ff" points="512,-560.59 508,-554.59 512,-548.59 516,-554.59 512,-560.59"/>
</a>
</g>
<text text-anchor="middle" x="552.88" y="-568.5" font-family="Helvetica,sans-Serif" font-size="10.00" fill="grey"> &#45;dynamicFontSize</text>
</g>
</g>
</svg>
