<?xml version="1.0" encoding="UTF-8" standalone="no"?>
<!DOCTYPE svg PUBLIC "-//W3C//DTD SVG 1.1//EN"
 "http://www.w3.org/Graphics/SVG/1.1/DTD/svg11.dtd">
<!-- Generated by graphviz version 12.2.1 (20241206.2353)
 -->
<!-- Title: fr.softsf.sudokufx.view.DefaultView Pages: 1 -->
<svg width="332pt" height="524pt"
 viewBox="0.00 0.00 331.88 524.00" xmlns="http://www.w3.org/2000/svg" xmlns:xlink="http://www.w3.org/1999/xlink">
<g id="graph0" class="graph" transform="scale(1 1) rotate(0) translate(4 520)">
<title>fr.softsf.sudokufx.view.DefaultView</title>
<!-- Node1 -->
<g id="Node000001" class="node">
<title>Node1</title>
<g id="a_Node000001"><a xlink:title="Default view class of the Sudoku application.">
<polygon fill="#999999" stroke="none" points="265.38,-392 77.12,-392 77.12,0 265.38,0 265.38,-392"/>
<text text-anchor="start" x="120.25" y="-378.5" font-family="Helvetica,sans-Serif" font-size="10.00">fr.softsf.sudokufx.view.</text>
<text text-anchor="start" x="144.62" y="-366.5" font-family="Helvetica,sans-Serif" font-size="10.00">DefaultView</text>
<text text-anchor="start" x="82.62" y="-350.5" font-family="Helvetica,sans-Serif" font-size="10.00">&#45;</text>
<text text-anchor="start" x="91.12" y="-350.5" font-family="Helvetica,sans-Serif" font-size="10.00">Button menuHiddenButtonShow</text>
<text text-anchor="start" x="82.62" y="-334.5" font-family="Helvetica,sans-Serif" font-size="10.00">&#45;</text>
<text text-anchor="start" x="91.12" y="-334.5" font-family="Helvetica,sans-Serif" font-size="10.00">Button menuMaxiButtonBackground</text>
<text text-anchor="start" x="82.62" y="-318.5" font-family="Helvetica,sans-Serif" font-size="10.00">&#45;</text>
<text text-anchor="start" x="91.12" y="-318.5" font-family="Helvetica,sans-Serif" font-size="10.00">Label menuMaxiButtonBackgroundText</text>
<text text-anchor="start" x="82.62" y="-302.5" font-family="Helvetica,sans-Serif" font-size="10.00">&#45;</text>
<text text-anchor="start" x="91.12" y="-302.5" font-family="Helvetica,sans-Serif" font-size="10.00">Button menuMaxiButtonBackup</text>
<text text-anchor="start" x="82.62" y="-286.5" font-family="Helvetica,sans-Serif" font-size="10.00">&#45;</text>
<text text-anchor="start" x="91.12" y="-286.5" font-family="Helvetica,sans-Serif" font-size="10.00">Label menuMaxiButtonBackuptext</text>
<text text-anchor="start" x="82.62" y="-270.5" font-family="Helvetica,sans-Serif" font-size="10.00">&#45;</text>
<text text-anchor="start" x="91.12" y="-270.5" font-family="Helvetica,sans-Serif" font-size="10.00">Button menuMaxiButtonDifficult</text>
<text text-anchor="start" x="82.62" y="-254.5" font-family="Helvetica,sans-Serif" font-size="10.00">&#45;</text>
<text text-anchor="start" x="91.12" y="-254.5" font-family="Helvetica,sans-Serif" font-size="10.00">Label menuMaxiButtonDifficultText</text>
<text text-anchor="start" x="82.62" y="-238.5" font-family="Helvetica,sans-Serif" font-size="10.00">&#45;</text>
<text text-anchor="start" x="91.12" y="-238.5" font-family="Helvetica,sans-Serif" font-size="10.00">Button menuMaxiButtonEasy</text>
<text text-anchor="start" x="82.62" y="-222.5" font-family="Helvetica,sans-Serif" font-size="10.00">&#45;</text>
<text text-anchor="start" x="91.12" y="-222.5" font-family="Helvetica,sans-Serif" font-size="10.00">Label menuMaxiButtonEasyText</text>
<text text-anchor="start" x="82.62" y="-206.5" font-family="Helvetica,sans-Serif" font-size="10.00">&#45;</text>
<text text-anchor="start" x="91.12" y="-206.5" font-family="Helvetica,sans-Serif" font-size="10.00">Button menuMaxiButtonHelp</text>
<text text-anchor="start" x="91.12" y="-190.5" font-family="Helvetica,sans-Serif" font-size="10.00">and 29 more...</text>
<text text-anchor="start" x="82.62" y="-174.5" font-family="Helvetica,sans-Serif" font-size="10.00">&#45;</text>
<text text-anchor="start" x="91.12" y="-174.5" font-family="Helvetica,sans-Serif" font-size="10.00">static final double</text>
<text text-anchor="start" x="91.12" y="-162.5" font-family="Helvetica,sans-Serif" font-size="10.00"> FADE_IN_IN_SECONDS</text>
<text text-anchor="start" x="91.12" y="-150.5" font-family="Helvetica,sans-Serif" font-size="10.00">_AFTER_SPLASHSCREEN</text>
<text text-anchor="start" x="81.12" y="-134.5" font-family="Helvetica,sans-Serif" font-size="10.00">+</text>
<text text-anchor="start" x="91.12" y="-134.5" font-family="Helvetica,sans-Serif" font-size="10.00">void openingMainStage</text>
<text text-anchor="start" x="91.12" y="-122.5" font-family="Helvetica,sans-Serif" font-size="10.00">(final ISplashScreenView</text>
<text text-anchor="start" x="91.12" y="-110.5" font-family="Helvetica,sans-Serif" font-size="10.00"> iSplashScreenView)</text>
<text text-anchor="start" x="82.62" y="-94.5" font-family="Helvetica,sans-Serif" font-size="10.00">&#45;</text>
<text text-anchor="start" x="91.12" y="-94.5" font-family="Helvetica,sans-Serif" font-size="10.00">void initialize()</text>
<text text-anchor="start" x="82.62" y="-78.5" font-family="Helvetica,sans-Serif" font-size="10.00">&#45;</text>
<text text-anchor="start" x="91.12" y="-78.5" font-family="Helvetica,sans-Serif" font-size="10.00">void openingConfigureStage()</text>
<text text-anchor="start" x="82.62" y="-62.5" font-family="Helvetica,sans-Serif" font-size="10.00">&#45;</text>
<text text-anchor="start" x="91.12" y="-62.5" font-family="Helvetica,sans-Serif" font-size="10.00">void openingFadeIn</text>
<text text-anchor="start" x="91.12" y="-50.5" font-family="Helvetica,sans-Serif" font-size="10.00">(final Node node)</text>
<text text-anchor="start" x="82.62" y="-34.5" font-family="Helvetica,sans-Serif" font-size="10.00">&#45;</text>
<text text-anchor="start" x="91.12" y="-34.5" font-family="Helvetica,sans-Serif" font-size="10.00">void openingMaximizePrimary</text>
<text text-anchor="start" x="91.12" y="-22.5" font-family="Helvetica,sans-Serif" font-size="10.00">Stage()</text>
<text text-anchor="start" x="82.62" y="-6.5" font-family="Helvetica,sans-Serif" font-size="10.00">&#45;</text>
<text text-anchor="start" x="91.12" y="-6.5" font-family="Helvetica,sans-Serif" font-size="10.00">void openingShowStage()</text>
<polygon fill="#666666" stroke="#666666" points="77.12,-362 77.12,-362 265.38,-362 265.38,-362 77.12,-362"/>
<polygon fill="#666666" stroke="#666666" points="77.12,-146 77.12,-146 89.12,-146 89.12,-146 77.12,-146"/>
<polygon fill="#666666" stroke="#666666" points="89.12,-146 89.12,-146 265.38,-146 265.38,-146 89.12,-146"/>
<polygon fill="none" stroke="#666666" points="77.12,0 77.12,-392 265.38,-392 265.38,0 77.12,0"/>
</a>
</g>
</g>
<!-- Node2 -->
<g id="Node000002" class="node">
<title>Node2</title>
<g id="a_Node000002"><a xlink:href="interfacefr_1_1softsf_1_1sudokufx_1_1interfaces_1_1_i_main_view.html" target="_top" xlink:title="Interface defining method to open the main stage.">
<polygon fill="white" stroke="none" points="172.5,-516 0,-516 0,-428 172.5,-428 172.5,-516"/>
<text text-anchor="start" x="23.62" y="-502.5" font-family="Helvetica,sans-Serif" font-size="10.00">fr.softsf.sudokufx.interfaces.</text>
<text text-anchor="start" x="63.38" y="-490.5" font-family="Helvetica,sans-Serif" font-size="10.00">IMainView</text>
<text text-anchor="start" x="84.75" y="-474.5" font-family="Helvetica,sans-Serif" font-size="10.00"> </text>
<text text-anchor="start" x="4" y="-458.5" font-family="Helvetica,sans-Serif" font-size="10.00">+</text>
<text text-anchor="start" x="14" y="-458.5" font-family="Helvetica,sans-Serif" font-size="10.00">void openingMainStage</text>
<text text-anchor="start" x="14" y="-446.5" font-family="Helvetica,sans-Serif" font-size="10.00">(ISplashScreenView iSplashScreen</text>
<text text-anchor="start" x="14" y="-434.5" font-family="Helvetica,sans-Serif" font-size="10.00">View)</text>
<polygon fill="#666666" stroke="#666666" points="0,-486 0,-486 172.5,-486 172.5,-486 0,-486"/>
<polygon fill="#666666" stroke="#666666" points="0,-470 0,-470 172.5,-470 172.5,-470 0,-470"/>
<polygon fill="none" stroke="#666666" points="0,-428 0,-516 172.5,-516 172.5,-428 0,-428"/>
</a>
</g>
</g>
<!-- Node2&#45;&gt;Node1 -->
<g id="edge1_Node000001_Node000002" class="edge">
<title>Node2&#45;&gt;Node1</title>
<g id="a_edge1_Node000001_Node000002"><a xlink:title=" ">
<path fill="none" stroke="#63b8ff" d="M102.9,-417.33C105.38,-409.34 108.04,-400.75 110.84,-391.75"/>
<polygon fill="none" stroke="#63b8ff" points="99.6,-416.15 99.98,-426.74 106.29,-418.23 99.6,-416.15"/>
</a>
</g>
</g>
<!-- Node3 -->
<g id="Node000003" class="node">
<title>Node3</title>
<g id="a_Node000003"><a xlink:href="interfacefr_1_1softsf_1_1sudokufx_1_1interfaces_1_1_i_scene_provider.html" target="_top" xlink:title="Interface ISceneProvider.">
<polygon fill="white" stroke="none" points="323.88,-504 190.62,-504 190.62,-440 323.88,-440 323.88,-504"/>
<text text-anchor="start" x="194.62" y="-490.5" font-family="Helvetica,sans-Serif" font-size="10.00">fr.softsf.sudokufx.interfaces.</text>
<text text-anchor="start" x="223.88" y="-478.5" font-family="Helvetica,sans-Serif" font-size="10.00">ISceneProvider</text>
<text text-anchor="start" x="255.75" y="-462.5" font-family="Helvetica,sans-Serif" font-size="10.00"> </text>
<text text-anchor="start" x="195.88" y="-446.5" font-family="Helvetica,sans-Serif" font-size="10.00">+</text>
<text text-anchor="start" x="207.12" y="-446.5" font-family="Helvetica,sans-Serif" font-size="10.00">default Scene getScene()</text>
<polygon fill="#666666" stroke="#666666" points="190.62,-474 190.62,-474 323.88,-474 323.88,-474 190.62,-474"/>
<polygon fill="#666666" stroke="#666666" points="190.62,-458 190.62,-458 323.88,-458 323.88,-458 190.62,-458"/>
<polygon fill="none" stroke="#666666" points="190.62,-440 190.62,-504 323.88,-504 323.88,-440 190.62,-440"/>
</a>
</g>
</g>
<!-- Node3&#45;&gt;Node1 -->
<g id="edge2_Node000001_Node000003" class="edge">
<title>Node3&#45;&gt;Node1</title>
<g id="a_edge2_Node000001_Node000003"><a xlink:title=" ">
<path fill="none" stroke="#63b8ff" d="M244.14,-429.22C240.67,-418.19 236.7,-405.53 232.43,-391.93"/>
<polygon fill="none" stroke="#63b8ff" points="240.76,-430.16 247.1,-438.66 247.44,-428.07 240.76,-430.16"/>
</a>
</g>
</g>
</g>
</svg>
