<?xml version="1.0" encoding="UTF-8" standalone="no"?>
<!DOCTYPE svg PUBLIC "-//W3C//DTD SVG 1.1//EN"
 "http://www.w3.org/Graphics/SVG/1.1/DTD/svg11.dtd">
<!-- Generated by graphviz version 12.2.1 (20241206.2353)
 -->
<!-- Title: fr.softsf.sudokufx.viewmodel.cache.CachedPlayer Pages: 1 -->
<svg width="328pt" height="617pt"
 viewBox="0.00 0.00 327.50 617.00" xmlns="http://www.w3.org/2000/svg" xmlns:xlink="http://www.w3.org/1999/xlink">
<g id="graph0" class="graph" transform="scale(1 1) rotate(0) translate(4 613)">
<title>fr.softsf.sudokufx.viewmodel.cache.CachedPlayer</title>
<!-- Node1 -->
<g id="Node000001" class="node">
<title>Node1</title>
<g id="a_Node000001"><a xlink:title="Component responsible for caching and providing the current PlayerDto instance.">
<polygon fill="#999999" stroke="none" points="233.38,-192 67.12,-192 67.12,0 233.38,0 233.38,-192"/>
<text text-anchor="start" x="71.12" y="-178.5" font-family="Helvetica,sans-Serif" font-size="10.00">fr.softsf.sudokufx.viewmodel.cache.</text>
<text text-anchor="start" x="119.5" y="-166.5" font-family="Helvetica,sans-Serif" font-size="10.00">CachedPlayer</text>
<text text-anchor="start" x="78.19" y="-150.5" font-family="Helvetica,sans-Serif" font-size="10.00">&#45;</text>
<text text-anchor="start" x="92.25" y="-150.5" font-family="Helvetica,sans-Serif" font-size="10.00">final ObjectProperty</text>
<text text-anchor="start" x="92.25" y="-138.5" font-family="Helvetica,sans-Serif" font-size="10.00">&lt; PlayerDto &gt; currentPlayer</text>
<text text-anchor="start" x="78.19" y="-122.5" font-family="Helvetica,sans-Serif" font-size="10.00">&#45;</text>
<text text-anchor="start" x="92.25" y="-122.5" font-family="Helvetica,sans-Serif" font-size="10.00">static final Logger LOG</text>
<text text-anchor="start" x="76.69" y="-106.5" font-family="Helvetica,sans-Serif" font-size="10.00">+</text>
<text text-anchor="start" x="92.25" y="-106.5" font-family="Helvetica,sans-Serif" font-size="10.00">CachedPlayer(PlayerService</text>
<text text-anchor="start" x="92.25" y="-94.5" font-family="Helvetica,sans-Serif" font-size="10.00"> playerService)</text>
<text text-anchor="start" x="76.69" y="-78.5" font-family="Helvetica,sans-Serif" font-size="10.00">+</text>
<text text-anchor="start" x="92.25" y="-78.5" font-family="Helvetica,sans-Serif" font-size="10.00">ObjectProperty&lt; PlayerDto</text>
<text text-anchor="start" x="92.25" y="-66.5" font-family="Helvetica,sans-Serif" font-size="10.00"> &gt; currentPlayerProperty()</text>
<text text-anchor="start" x="76.69" y="-50.5" font-family="Helvetica,sans-Serif" font-size="10.00">+</text>
<text text-anchor="start" x="92.25" y="-50.5" font-family="Helvetica,sans-Serif" font-size="10.00">PlayerDto getCurrentPlayer()</text>
<text text-anchor="start" x="76.69" y="-34.5" font-family="Helvetica,sans-Serif" font-size="10.00">+</text>
<text text-anchor="start" x="92.25" y="-34.5" font-family="Helvetica,sans-Serif" font-size="10.00">void setCurrentPlayer</text>
<text text-anchor="start" x="92.25" y="-22.5" font-family="Helvetica,sans-Serif" font-size="10.00">(PlayerDto dto)</text>
<text text-anchor="start" x="78.19" y="-6.5" font-family="Helvetica,sans-Serif" font-size="10.00">&#45;</text>
<text text-anchor="start" x="92.25" y="-6.5" font-family="Helvetica,sans-Serif" font-size="10.00">void initializePlayer()</text>
<polygon fill="#666666" stroke="#666666" points="67.12,-162 67.12,-162 233.38,-162 233.38,-162 67.12,-162"/>
<polygon fill="#666666" stroke="#666666" points="67.12,-118 67.12,-118 90.25,-118 90.25,-118 67.12,-118"/>
<polygon fill="#666666" stroke="#666666" points="90.25,-118 90.25,-118 233.38,-118 233.38,-118 90.25,-118"/>
<polygon fill="none" stroke="#666666" points="67.12,0 67.12,-192 233.38,-192 233.38,0 67.12,0"/>
</a>
</g>
</g>
<!-- Node2 -->
<g id="Node000002" class="node">
<title>Node2</title>
<g id="a_Node000002"><a xlink:href="classfr_1_1softsf_1_1sudokufx_1_1service_1_1_player_service.html" target="_top" xlink:title="Service class providing business logic related to Player entities.">
<polygon fill="white" stroke="none" points="231.62,-356 68.88,-356 68.88,-240 231.62,-240 231.62,-356"/>
<text text-anchor="start" x="93.25" y="-342.5" font-family="Helvetica,sans-Serif" font-size="10.00">fr.softsf.sudokufx.service.</text>
<text text-anchor="start" x="119.88" y="-330.5" font-family="Helvetica,sans-Serif" font-size="10.00">PlayerService</text>
<text text-anchor="start" x="74.38" y="-314.5" font-family="Helvetica,sans-Serif" font-size="10.00">&#45;</text>
<text text-anchor="start" x="82.88" y="-314.5" font-family="Helvetica,sans-Serif" font-size="10.00">static final Logger LOG</text>
<text text-anchor="start" x="72.88" y="-298.5" font-family="Helvetica,sans-Serif" font-size="10.00">+</text>
<text text-anchor="start" x="82.88" y="-298.5" font-family="Helvetica,sans-Serif" font-size="10.00">PlayerService(PlayerRepository</text>
<text text-anchor="start" x="82.88" y="-286.5" font-family="Helvetica,sans-Serif" font-size="10.00"> playerRepository, IPlayerMapper</text>
<text text-anchor="start" x="82.88" y="-274.5" font-family="Helvetica,sans-Serif" font-size="10.00"> playerMapper)</text>
<text text-anchor="start" x="72.88" y="-258.5" font-family="Helvetica,sans-Serif" font-size="10.00">+</text>
<text text-anchor="start" x="82.88" y="-258.5" font-family="Helvetica,sans-Serif" font-size="10.00">Optional&lt; PlayerDto</text>
<text text-anchor="start" x="82.88" y="-246.5" font-family="Helvetica,sans-Serif" font-size="10.00"> &gt; getPlayer()</text>
<polygon fill="#666666" stroke="#666666" points="68.88,-326 68.88,-326 231.62,-326 231.62,-326 68.88,-326"/>
<polygon fill="#666666" stroke="#666666" points="68.88,-310 68.88,-310 80.88,-310 80.88,-310 68.88,-310"/>
<polygon fill="#666666" stroke="#666666" points="80.88,-310 80.88,-310 231.62,-310 231.62,-310 80.88,-310"/>
<polygon fill="none" stroke="#666666" points="68.88,-240 68.88,-356 231.62,-356 231.62,-240 68.88,-240"/>
</a>
</g>
</g>
<!-- Node2&#45;&gt;Node1 -->
<g id="edge1_Node000001_Node000002" class="edge">
<title>Node2&#45;&gt;Node1</title>
<g id="a_edge1_Node000001_Node000002"><a xlink:title=" ">
<path fill="none" stroke="#63b8ff" d="M150.25,-240.22C150.25,-228.99 150.25,-216.87 150.25,-204.58"/>
<polygon fill="none" stroke="#63b8ff" points="150.25,-204.66 146.25,-198.66 150.25,-192.66 154.25,-198.66 150.25,-204.66"/>
</a>
</g>
<text text-anchor="middle" x="182.88" y="-212.5" font-family="Helvetica,sans-Serif" font-size="10.00" fill="grey"> &#45;playerService</text>
</g>
<!-- Node3 -->
<g id="Node000003" class="node">
<title>Node3</title>
<g id="a_Node000003"><a xlink:href="interfacefr_1_1softsf_1_1sudokufx_1_1repository_1_1_player_repository.html" target="_top" xlink:title=" ">
<polygon fill="white" stroke="none" points="132.5,-494 0,-494 0,-418 132.5,-418 132.5,-494"/>
<text text-anchor="start" x="4" y="-480.5" font-family="Helvetica,sans-Serif" font-size="10.00">fr.softsf.sudokufx.repository.</text>
<text text-anchor="start" x="28.75" y="-468.5" font-family="Helvetica,sans-Serif" font-size="10.00">PlayerRepository</text>
<text text-anchor="start" x="64.75" y="-452.5" font-family="Helvetica,sans-Serif" font-size="10.00"> </text>
<text text-anchor="start" x="4.31" y="-436.5" font-family="Helvetica,sans-Serif" font-size="10.00">+</text>
<text text-anchor="start" x="14.62" y="-436.5" font-family="Helvetica,sans-Serif" font-size="10.00">List&lt; Player &gt; findPlayers</text>
<text text-anchor="start" x="14.62" y="-424.5" font-family="Helvetica,sans-Serif" font-size="10.00">WithSelectedGames()</text>
<polygon fill="#666666" stroke="#666666" points="0,-464 0,-464 132.5,-464 132.5,-464 0,-464"/>
<polygon fill="#666666" stroke="#666666" points="0,-448 0,-448 132.5,-448 132.5,-448 0,-448"/>
<polygon fill="none" stroke="#666666" points="0,-418 0,-494 132.5,-494 132.5,-418 0,-418"/>
</a>
</g>
</g>
<!-- Node3&#45;&gt;Node2 -->
<g id="edge2_Node000002_Node000003" class="edge">
<title>Node3&#45;&gt;Node2</title>
<g id="a_edge2_Node000002_Node000003"><a xlink:title=" ">
<path fill="none" stroke="#63b8ff" d="M86.16,-418.03C94.36,-402.8 104.12,-384.66 113.53,-367.19"/>
<polygon fill="none" stroke="#63b8ff" points="113.53,-367.2 112.85,-360.02 119.22,-356.63 119.89,-363.81 113.53,-367.2"/>
</a>
</g>
<text text-anchor="middle" x="148" y="-376.5" font-family="Helvetica,sans-Serif" font-size="10.00" fill="grey"> &#45;playerRepository</text>
</g>
<!-- Node4 -->
<g id="Node000004" class="node">
<title>Node4</title>
<g id="a_Node000004"><a xlink:title=" ">
<polygon fill="white" stroke="none" points="121.62,-609 10.88,-609 10.88,-545 121.62,-545 121.62,-609"/>
<text text-anchor="start" x="14.88" y="-595.5" font-family="Helvetica,sans-Serif" font-size="10.00">JpaRepository&lt; Player,</text>
<text text-anchor="start" x="49.75" y="-583.5" font-family="Helvetica,sans-Serif" font-size="10.00"> Long &gt;</text>
<text text-anchor="start" x="64.75" y="-567.5" font-family="Helvetica,sans-Serif" font-size="10.00"> </text>
<text text-anchor="start" x="64.75" y="-551.5" font-family="Helvetica,sans-Serif" font-size="10.00"> </text>
<polygon fill="#666666" stroke="#666666" points="10.88,-579 10.88,-579 121.62,-579 121.62,-579 10.88,-579"/>
<polygon fill="#666666" stroke="#666666" points="10.88,-563 10.88,-563 121.62,-563 121.62,-563 10.88,-563"/>
<polygon fill="none" stroke="#666666" points="10.88,-545 10.88,-609 121.62,-609 121.62,-545 10.88,-545"/>
</a>
</g>
</g>
<!-- Node4&#45;&gt;Node3 -->
<g id="edge3_Node000003_Node000004" class="edge">
<title>Node4&#45;&gt;Node3</title>
<g id="a_edge3_Node000003_Node000004"><a xlink:title=" ">
<path fill="none" stroke="#63b8ff" d="M66.25,-533.91C66.25,-520.79 66.25,-506.44 66.25,-493.72"/>
<polygon fill="none" stroke="#63b8ff" points="62.75,-533.53 66.25,-543.53 69.75,-533.53 62.75,-533.53"/>
</a>
</g>
</g>
<!-- Node5 -->
<g id="Node000005" class="node">
<title>Node5</title>
<g id="a_Node000005"><a xlink:href="interfacefr_1_1softsf_1_1sudokufx_1_1interfaces_1_1mapper_1_1_i_player_mapper.html" target="_top" xlink:title="Mapper interface for converting between Player entity and PlayerDto data transfer object.">
<polygon fill="white" stroke="none" points="319.5,-508 151,-508 151,-404 319.5,-404 319.5,-508"/>
<text text-anchor="start" x="155" y="-494.5" font-family="Helvetica,sans-Serif" font-size="10.00">fr.softsf.sudokufx.interfaces.mapper.</text>
<text text-anchor="start" x="203.75" y="-482.5" font-family="Helvetica,sans-Serif" font-size="10.00">IPlayerMapper</text>
<text text-anchor="start" x="233.75" y="-466.5" font-family="Helvetica,sans-Serif" font-size="10.00"> </text>
<text text-anchor="start" x="159.81" y="-450.5" font-family="Helvetica,sans-Serif" font-size="10.00">+</text>
<text text-anchor="start" x="174.62" y="-450.5" font-family="Helvetica,sans-Serif" font-size="10.00">Player mapPlayerDtoToPlayer</text>
<text text-anchor="start" x="174.62" y="-438.5" font-family="Helvetica,sans-Serif" font-size="10.00">(PlayerDto dto)</text>
<text text-anchor="start" x="159.81" y="-422.5" font-family="Helvetica,sans-Serif" font-size="10.00">+</text>
<text text-anchor="start" x="174.62" y="-422.5" font-family="Helvetica,sans-Serif" font-size="10.00">PlayerDto mapPlayerToDto</text>
<text text-anchor="start" x="174.62" y="-410.5" font-family="Helvetica,sans-Serif" font-size="10.00">(Player player)</text>
<polygon fill="#666666" stroke="#666666" points="151,-478 151,-478 319.5,-478 319.5,-478 151,-478"/>
<polygon fill="#666666" stroke="#666666" points="151,-462 151,-462 319.5,-462 319.5,-462 151,-462"/>
<polygon fill="none" stroke="#666666" points="151,-404 151,-508 319.5,-508 319.5,-404 151,-404"/>
</a>
</g>
</g>
<!-- Node5&#45;&gt;Node2 -->
<g id="edge4_Node000002_Node000005" class="edge">
<title>Node5&#45;&gt;Node2</title>
<g id="a_edge4_Node000002_Node000005"><a xlink:title=" ">
<path fill="none" stroke="#63b8ff" d="M208.59,-404.35C203.22,-394.27 197.59,-383.78 192.25,-374 190.99,-371.7 189.71,-369.36 188.41,-366.99"/>
<polygon fill="none" stroke="#63b8ff" points="188.5,-367.14 182.09,-363.82 182.7,-356.64 189.1,-359.96 188.5,-367.14"/>
</a>
</g>
<text text-anchor="middle" x="230.45" y="-376.5" font-family="Helvetica,sans-Serif" font-size="10.00" fill="grey"> &#45;playerMapper</text>
</g>
</g>
</svg>
