<?xml version="1.0" encoding="UTF-8" standalone="no"?>
<!DOCTYPE svg PUBLIC "-//W3C//DTD SVG 1.1//EN"
 "http://www.w3.org/Graphics/SVG/1.1/DTD/svg11.dtd">
<!-- Generated by graphviz version 12.2.1 (20241206.2353)
 -->
<!-- Title: fr.softsf.sudokufx.viewmodel.LevelViewModel Pages: 1 -->
<svg width="179pt" height="192pt"
 viewBox="0.00 0.00 179.00 192.00" xmlns="http://www.w3.org/2000/svg" xmlns:xlink="http://www.w3.org/1999/xlink">
<g id="graph0" class="graph" transform="scale(1 1) rotate(0) translate(4 188)">
<title>fr.softsf.sudokufx.viewmodel.LevelViewModel</title>
<!-- Node1 -->
<g id="Node000001" class="node">
<title>Node1</title>
<g id="a_Node000001"><a xlink:title="ViewModel responsible for managing the selected difficulty level and stars percentage.">
<polygon fill="#999999" stroke="none" points="171,-184 0,-184 0,0 171,0 171,-184"/>
<text text-anchor="start" x="21" y="-170.5" font-family="Helvetica,sans-Serif" font-size="10.00">fr.softsf.sudokufx.viewmodel.</text>
<text text-anchor="start" x="49.88" y="-158.5" font-family="Helvetica,sans-Serif" font-size="10.00">LevelViewModel</text>
<text text-anchor="start" x="5.5" y="-142.5" font-family="Helvetica,sans-Serif" font-size="10.00">&#45;</text>
<text text-anchor="start" x="14" y="-142.5" font-family="Helvetica,sans-Serif" font-size="10.00">final ObjectProperty</text>
<text text-anchor="start" x="14" y="-130.5" font-family="Helvetica,sans-Serif" font-size="10.00">&lt; DifficultyLevel &gt; selected</text>
<text text-anchor="start" x="14" y="-118.5" font-family="Helvetica,sans-Serif" font-size="10.00">Level</text>
<text text-anchor="start" x="5.5" y="-102.5" font-family="Helvetica,sans-Serif" font-size="10.00">&#45;</text>
<text text-anchor="start" x="14" y="-102.5" font-family="Helvetica,sans-Serif" font-size="10.00">final IntegerProperty</text>
<text text-anchor="start" x="14" y="-90.5" font-family="Helvetica,sans-Serif" font-size="10.00"> starsPercentage</text>
<text text-anchor="start" x="4" y="-74.5" font-family="Helvetica,sans-Serif" font-size="10.00">+</text>
<text text-anchor="start" x="14" y="-74.5" font-family="Helvetica,sans-Serif" font-size="10.00">ObjectProperty&lt; Difficulty</text>
<text text-anchor="start" x="14" y="-62.5" font-family="Helvetica,sans-Serif" font-size="10.00">Level &gt; getSelectedLevelProperty()</text>
<text text-anchor="start" x="4" y="-46.5" font-family="Helvetica,sans-Serif" font-size="10.00">+</text>
<text text-anchor="start" x="14" y="-46.5" font-family="Helvetica,sans-Serif" font-size="10.00">IntegerProperty getStars</text>
<text text-anchor="start" x="14" y="-34.5" font-family="Helvetica,sans-Serif" font-size="10.00">PercentageProperty()</text>
<text text-anchor="start" x="4" y="-18.5" font-family="Helvetica,sans-Serif" font-size="10.00">+</text>
<text text-anchor="start" x="14" y="-18.5" font-family="Helvetica,sans-Serif" font-size="10.00">void setLevel(Difficulty</text>
<text text-anchor="start" x="14" y="-6.5" font-family="Helvetica,sans-Serif" font-size="10.00">Level level, int percentage)</text>
<polygon fill="#666666" stroke="#666666" points="0,-154 0,-154 171,-154 171,-154 0,-154"/>
<polygon fill="#666666" stroke="#666666" points="0,-86 0,-86 12,-86 12,-86 0,-86"/>
<polygon fill="#666666" stroke="#666666" points="12,-86 12,-86 171,-86 171,-86 12,-86"/>
<polygon fill="none" stroke="#666666" points="0,0 0,-184 171,-184 171,0 0,0"/>
</a>
</g>
</g>
</g>
</svg>
