<?xml version="1.0" encoding="UTF-8" standalone="no"?>
<!DOCTYPE svg PUBLIC "-//W3C//DTD SVG 1.1//EN"
 "http://www.w3.org/Graphics/SVG/1.1/DTD/svg11.dtd">
<!-- Generated by graphviz version 12.2.1 (20241206.2353)
 -->
<!-- Title: fr.softsf.sudokufx.service.business.PlayerService.updatePlayer Pages: 1 -->
<svg width="537pt" height="290pt"
 viewBox="0.00 0.00 536.75 290.00" xmlns="http://www.w3.org/2000/svg" xmlns:xlink="http://www.w3.org/1999/xlink">
<g id="graph0" class="graph" transform="scale(1 1) rotate(0) translate(4 286)">
<title>fr.softsf.sudokufx.service.business.PlayerService.updatePlayer</title>
<!-- Node1 -->
<g id="Node000001" class="node">
<title>Node1</title>
<g id="a_Node000001"><a xlink:title="Updates an existing player in the database with the values from the given PlayerDto.">
<polygon fill="#999999" stroke="#666666" points="172,-157 0,-157 0,-125 172,-125 172,-157"/>
<text text-anchor="start" x="8" y="-143.5" font-family="Helvetica,sans-Serif" font-size="10.00">fr.softsf.sudokufx.service.business.</text>
<text text-anchor="middle" x="86" y="-131.5" font-family="Helvetica,sans-Serif" font-size="10.00">PlayerService.updatePlayer</text>
</a>
</g>
</g>
<!-- Node2 -->
<g id="Node000002" class="node">
<title>Node2</title>
<g id="a_Node000002"><a xlink:href="classfr_1_1softsf_1_1sudokufx_1_1model_1_1_player.html#a0c578d68480f93172709babb1224f573" target="_top" xlink:title="Sets the menu after validation.">
<polygon fill="white" stroke="#666666" points="337.62,-282 212.88,-282 212.88,-250 337.62,-250 337.62,-282"/>
<text text-anchor="start" x="220.88" y="-268.5" font-family="Helvetica,sans-Serif" font-size="10.00">fr.softsf.sudokufx.model.</text>
<text text-anchor="middle" x="275.25" y="-256.5" font-family="Helvetica,sans-Serif" font-size="10.00">Player.setMenuid</text>
</a>
</g>
</g>
<!-- Node1&#45;&gt;Node2 -->
<g id="edge1_Node000001_Node000002" class="edge">
<title>Node1&#45;&gt;Node2</title>
<g id="a_edge1_Node000001_Node000002"><a xlink:title=" ">
<path fill="none" stroke="#63b8ff" d="M102.91,-157.14C124.88,-178.69 166.51,-216.93 208,-241 210.29,-242.33 212.66,-243.61 215.08,-244.84"/>
<polygon fill="#63b8ff" stroke="#63b8ff" points="213.36,-247.9 223.9,-248.99 216.34,-241.57 213.36,-247.9"/>
</a>
</g>
</g>
<!-- Node4 -->
<g id="Node000004" class="node">
<title>Node4</title>
<g id="a_Node000004"><a xlink:href="classfr_1_1softsf_1_1sudokufx_1_1model_1_1_player.html#af201d3417316b81311308e888df147ac" target="_top" xlink:title="Sets the name after validation.">
<polygon fill="white" stroke="#666666" points="337.62,-232 212.88,-232 212.88,-200 337.62,-200 337.62,-232"/>
<text text-anchor="start" x="220.88" y="-218.5" font-family="Helvetica,sans-Serif" font-size="10.00">fr.softsf.sudokufx.model.</text>
<text text-anchor="middle" x="275.25" y="-206.5" font-family="Helvetica,sans-Serif" font-size="10.00">Player.setName</text>
</a>
</g>
</g>
<!-- Node1&#45;&gt;Node4 -->
<g id="edge3_Node000001_Node000004" class="edge">
<title>Node1&#45;&gt;Node4</title>
<g id="a_edge3_Node000001_Node000004"><a xlink:title=" ">
<path fill="none" stroke="#63b8ff" d="M125.84,-157.41C149.51,-167.32 180.41,-180.1 208,-191 211.66,-192.44 215.43,-193.92 219.24,-195.39"/>
<polygon fill="#63b8ff" stroke="#63b8ff" points="217.98,-198.66 228.57,-198.97 220.49,-192.12 217.98,-198.66"/>
</a>
</g>
</g>
<!-- Node6 -->
<g id="Node000006" class="node">
<title>Node6</title>
<g id="a_Node000006"><a xlink:href="classfr_1_1softsf_1_1sudokufx_1_1model_1_1_player.html#a8d02e23fa141f2d1b08d12d150145112" target="_top" xlink:title="Sets the options after validation.">
<polygon fill="white" stroke="#666666" points="337.62,-182 212.88,-182 212.88,-150 337.62,-150 337.62,-182"/>
<text text-anchor="start" x="220.88" y="-168.5" font-family="Helvetica,sans-Serif" font-size="10.00">fr.softsf.sudokufx.model.</text>
<text text-anchor="middle" x="275.25" y="-156.5" font-family="Helvetica,sans-Serif" font-size="10.00">Player.setOptionsid</text>
</a>
</g>
</g>
<!-- Node1&#45;&gt;Node6 -->
<g id="edge5_Node000001_Node000006" class="edge">
<title>Node1&#45;&gt;Node6</title>
<g id="a_edge5_Node000001_Node000006"><a xlink:title=" ">
<path fill="none" stroke="#63b8ff" d="M172.41,-152.4C182.01,-153.68 191.72,-154.98 201.15,-156.24"/>
<polygon fill="#63b8ff" stroke="#63b8ff" points="200.6,-159.7 210.97,-157.55 201.52,-152.76 200.6,-159.7"/>
</a>
</g>
</g>
<!-- Node8 -->
<g id="Node000008" class="node">
<title>Node8</title>
<g id="a_Node000008"><a xlink:href="classfr_1_1softsf_1_1sudokufx_1_1model_1_1_player.html#a9afc39d38139830bb7545ac2f50574f3" target="_top" xlink:title="Sets the language after validation.">
<polygon fill="white" stroke="#666666" points="342.5,-132 208,-132 208,-100 342.5,-100 342.5,-132"/>
<text text-anchor="start" x="216" y="-118.5" font-family="Helvetica,sans-Serif" font-size="10.00">fr.softsf.sudokufx.model.</text>
<text text-anchor="middle" x="275.25" y="-106.5" font-family="Helvetica,sans-Serif" font-size="10.00">Player.setPlayerlanguageid</text>
</a>
</g>
</g>
<!-- Node1&#45;&gt;Node8 -->
<g id="edge7_Node000001_Node000008" class="edge">
<title>Node1&#45;&gt;Node8</title>
<g id="a_edge7_Node000001_Node000008"><a xlink:title=" ">
<path fill="none" stroke="#63b8ff" d="M172.41,-129.6C180.47,-128.52 188.62,-127.43 196.6,-126.37"/>
<polygon fill="#63b8ff" stroke="#63b8ff" points="196.81,-129.87 206.26,-125.08 195.88,-122.93 196.81,-129.87"/>
</a>
</g>
</g>
<!-- Node10 -->
<g id="Node000010" class="node">
<title>Node10</title>
<g id="a_Node000010"><a xlink:href="classfr_1_1softsf_1_1sudokufx_1_1model_1_1_player.html#ade99f107878b74490ae3d014ff294f60" target="_top" xlink:title="Sets the selection flag.">
<polygon fill="white" stroke="#666666" points="337.62,-82 212.88,-82 212.88,-50 337.62,-50 337.62,-82"/>
<text text-anchor="start" x="220.88" y="-68.5" font-family="Helvetica,sans-Serif" font-size="10.00">fr.softsf.sudokufx.model.</text>
<text text-anchor="middle" x="275.25" y="-56.5" font-family="Helvetica,sans-Serif" font-size="10.00">Player.setSelected</text>
</a>
</g>
</g>
<!-- Node1&#45;&gt;Node10 -->
<g id="edge9_Node000001_Node000010" class="edge">
<title>Node1&#45;&gt;Node10</title>
<g id="a_edge9_Node000001_Node000010"><a xlink:title=" ">
<path fill="none" stroke="#63b8ff" d="M125.84,-124.59C149.51,-114.68 180.41,-101.9 208,-91 211.66,-89.56 215.43,-88.08 219.24,-86.61"/>
<polygon fill="#63b8ff" stroke="#63b8ff" points="220.49,-89.88 228.57,-83.03 217.98,-83.34 220.49,-89.88"/>
</a>
</g>
</g>
<!-- Node11 -->
<g id="Node000011" class="node">
<title>Node11</title>
<g id="a_Node000011"><a xlink:href="classfr_1_1softsf_1_1sudokufx_1_1model_1_1_player.html#ac4232209b56a87f81f1248303f09b02d" target="_top" xlink:title="Sets the update timestamp after validation.">
<polygon fill="white" stroke="#666666" points="337.62,-32 212.88,-32 212.88,0 337.62,0 337.62,-32"/>
<text text-anchor="start" x="220.88" y="-18.5" font-family="Helvetica,sans-Serif" font-size="10.00">fr.softsf.sudokufx.model.</text>
<text text-anchor="middle" x="275.25" y="-6.5" font-family="Helvetica,sans-Serif" font-size="10.00">Player.setUpdatedat</text>
</a>
</g>
</g>
<!-- Node1&#45;&gt;Node11 -->
<g id="edge10_Node000001_Node000011" class="edge">
<title>Node1&#45;&gt;Node11</title>
<g id="a_edge10_Node000001_Node000011"><a xlink:title=" ">
<path fill="none" stroke="#63b8ff" d="M102.91,-124.86C124.88,-103.31 166.51,-65.07 208,-41 210.29,-39.67 212.66,-38.39 215.08,-37.16"/>
<polygon fill="#63b8ff" stroke="#63b8ff" points="216.34,-40.43 223.9,-33.01 213.36,-34.1 216.34,-40.43"/>
</a>
</g>
</g>
<!-- Node3 -->
<g id="Node000003" class="node">
<title>Node3</title>
<g id="a_Node000003"><a xlink:href="classfr_1_1softsf_1_1sudokufx_1_1model_1_1_player.html#a7262425d3a1c07b5ffdafba0a6aa51de" target="_top" xlink:title="Validates that the menu is not null.">
<polygon fill="white" stroke="#666666" points="516,-282 391.25,-282 391.25,-250 516,-250 516,-282"/>
<text text-anchor="start" x="399.25" y="-268.5" font-family="Helvetica,sans-Serif" font-size="10.00">fr.softsf.sudokufx.model.</text>
<text text-anchor="middle" x="453.62" y="-256.5" font-family="Helvetica,sans-Serif" font-size="10.00">Player.validateMenu</text>
</a>
</g>
</g>
<!-- Node2&#45;&gt;Node3 -->
<g id="edge2_Node000002_Node000003" class="edge">
<title>Node2&#45;&gt;Node3</title>
<g id="a_edge2_Node000002_Node000003"><a xlink:title=" ">
<path fill="none" stroke="#63b8ff" d="M337.94,-266C351.36,-266 365.69,-266 379.51,-266"/>
<polygon fill="#63b8ff" stroke="#63b8ff" points="379.46,-269.5 389.46,-266 379.46,-262.5 379.46,-269.5"/>
</a>
</g>
</g>
<!-- Node5 -->
<g id="Node000005" class="node">
<title>Node5</title>
<g id="a_Node000005"><a xlink:href="classfr_1_1softsf_1_1sudokufx_1_1model_1_1_player.html#ac7bbd9636074d8e4f6cc3f8ee5f75ab8" target="_top" xlink:title="Validates that the name is not null.">
<polygon fill="white" stroke="#666666" points="516,-232 391.25,-232 391.25,-200 516,-200 516,-232"/>
<text text-anchor="start" x="399.25" y="-218.5" font-family="Helvetica,sans-Serif" font-size="10.00">fr.softsf.sudokufx.model.</text>
<text text-anchor="middle" x="453.62" y="-206.5" font-family="Helvetica,sans-Serif" font-size="10.00">Player.validateName</text>
</a>
</g>
</g>
<!-- Node4&#45;&gt;Node5 -->
<g id="edge4_Node000004_Node000005" class="edge">
<title>Node4&#45;&gt;Node5</title>
<g id="a_edge4_Node000004_Node000005"><a xlink:title=" ">
<path fill="none" stroke="#63b8ff" d="M337.94,-216C351.36,-216 365.69,-216 379.51,-216"/>
<polygon fill="#63b8ff" stroke="#63b8ff" points="379.46,-219.5 389.46,-216 379.46,-212.5 379.46,-219.5"/>
</a>
</g>
</g>
<!-- Node7 -->
<g id="Node000007" class="node">
<title>Node7</title>
<g id="a_Node000007"><a xlink:href="classfr_1_1softsf_1_1sudokufx_1_1model_1_1_player.html#aa248bf09324098ddbaedfb58fc6d73ba" target="_top" xlink:title="Validates that the options are not null.">
<polygon fill="white" stroke="#666666" points="516,-182 391.25,-182 391.25,-150 516,-150 516,-182"/>
<text text-anchor="start" x="399.25" y="-168.5" font-family="Helvetica,sans-Serif" font-size="10.00">fr.softsf.sudokufx.model.</text>
<text text-anchor="middle" x="453.62" y="-156.5" font-family="Helvetica,sans-Serif" font-size="10.00">Player.validateOptions</text>
</a>
</g>
</g>
<!-- Node6&#45;&gt;Node7 -->
<g id="edge6_Node000006_Node000007" class="edge">
<title>Node6&#45;&gt;Node7</title>
<g id="a_edge6_Node000006_Node000007"><a xlink:title=" ">
<path fill="none" stroke="#63b8ff" d="M337.94,-166C351.36,-166 365.69,-166 379.51,-166"/>
<polygon fill="#63b8ff" stroke="#63b8ff" points="379.46,-169.5 389.46,-166 379.46,-162.5 379.46,-169.5"/>
</a>
</g>
</g>
<!-- Node9 -->
<g id="Node000009" class="node">
<title>Node9</title>
<g id="a_Node000009"><a xlink:href="classfr_1_1softsf_1_1sudokufx_1_1model_1_1_player.html#a67f9d00af3ba036ed39f639a271ee9f0" target="_top" xlink:title="Validates that the player language is not null.">
<polygon fill="white" stroke="#666666" points="528.75,-132 378.5,-132 378.5,-100 528.75,-100 528.75,-132"/>
<text text-anchor="start" x="386.5" y="-118.5" font-family="Helvetica,sans-Serif" font-size="10.00">fr.softsf.sudokufx.model.</text>
<text text-anchor="middle" x="453.62" y="-106.5" font-family="Helvetica,sans-Serif" font-size="10.00">Player.validatePlayerLanguage</text>
</a>
</g>
</g>
<!-- Node8&#45;&gt;Node9 -->
<g id="edge8_Node000008_Node000009" class="edge">
<title>Node8&#45;&gt;Node9</title>
<g id="a_edge8_Node000008_Node000009"><a xlink:title=" ">
<path fill="none" stroke="#63b8ff" d="M342.93,-116C350.75,-116 358.82,-116 366.86,-116"/>
<polygon fill="#63b8ff" stroke="#63b8ff" points="366.66,-119.5 376.66,-116 366.66,-112.5 366.66,-119.5"/>
</a>
</g>
</g>
<!-- Node12 -->
<g id="Node000012" class="node">
<title>Node12</title>
<g id="a_Node000012"><a xlink:href="classfr_1_1softsf_1_1sudokufx_1_1model_1_1_player.html#a9be097e3c5eee99752c203f22fe774a3" target="_top" xlink:title="Validates that the update date is not null.">
<polygon fill="white" stroke="#666666" points="517.12,-32 390.12,-32 390.12,0 517.12,0 517.12,-32"/>
<text text-anchor="start" x="398.12" y="-18.5" font-family="Helvetica,sans-Serif" font-size="10.00">fr.softsf.sudokufx.model.</text>
<text text-anchor="middle" x="453.62" y="-6.5" font-family="Helvetica,sans-Serif" font-size="10.00">Player.validateUpdatedAt</text>
</a>
</g>
</g>
<!-- Node11&#45;&gt;Node12 -->
<g id="edge11_Node000011_Node000012" class="edge">
<title>Node11&#45;&gt;Node12</title>
<g id="a_edge11_Node000011_Node000012"><a xlink:title=" ">
<path fill="none" stroke="#63b8ff" d="M337.94,-16C351.05,-16 365.03,-16 378.55,-16"/>
<polygon fill="#63b8ff" stroke="#63b8ff" points="378.26,-19.5 388.26,-16 378.26,-12.5 378.26,-19.5"/>
</a>
</g>
</g>
</g>
</svg>
