<?xml version="1.0" encoding="UTF-8" standalone="no"?>
<!DOCTYPE svg PUBLIC "-//W3C//DTD SVG 1.1//EN"
 "http://www.w3.org/Graphics/SVG/1.1/DTD/svg11.dtd">
<!-- Generated by graphviz version 12.2.1 (20241206.2353)
 -->
<!-- Title: fr.softsf.sudokufx.common.util.sudoku.GridMaster.creerLesGrilles Pages: 1 -->
<svg width="1941pt" height="525pt"
 viewBox="0.00 0.00 1940.50 525.00" xmlns="http://www.w3.org/2000/svg" xmlns:xlink="http://www.w3.org/1999/xlink">
<g id="graph0" class="graph" transform="scale(1 1) rotate(0) translate(4 521)">
<title>fr.softsf.sudokufx.common.util.sudoku.GridMaster.creerLesGrilles</title>
<!-- Node1 -->
<g id="Node000001" class="node">
<title>Node1</title>
<g id="a_Node000001"><a xlink:title="Crée une paire de grilles (résolue et à résoudre) en fonction du niveau de difficulté et du pourcenta...">
<polygon fill="#999999" stroke="#666666" points="186.25,-162 0,-162 0,-130 186.25,-130 186.25,-162"/>
<text text-anchor="start" x="8" y="-148.5" font-family="Helvetica,sans-Serif" font-size="10.00">fr.softsf.sudokufx.common.util.sudoku.</text>
<text text-anchor="middle" x="93.12" y="-136.5" font-family="Helvetica,sans-Serif" font-size="10.00">GridMaster.creerLesGrilles</text>
</a>
</g>
</g>
<!-- Node2 -->
<g id="Node000002" class="node">
<title>Node2</title>
<g id="a_Node000002"><a xlink:href="classfr_1_1softsf_1_1sudokufx_1_1common_1_1util_1_1sudoku_1_1_grid_master.html#ae62111abf551659353a37d6eff7fe472" target="_top" xlink:title="Génère une grille de Sudoku à résoudre en masquant des cases selon le niveau de difficulté ou un pour...">
<polygon fill="white" stroke="#666666" points="424.62,-351 238.38,-351 238.38,-319 424.62,-319 424.62,-351"/>
<text text-anchor="start" x="246.38" y="-337.5" font-family="Helvetica,sans-Serif" font-size="10.00">fr.softsf.sudokufx.common.util.sudoku.</text>
<text text-anchor="middle" x="331.5" y="-325.5" font-family="Helvetica,sans-Serif" font-size="10.00">GridMaster.genererLaGrilleAResoudre</text>
</a>
</g>
</g>
<!-- Node1&#45;&gt;Node2 -->
<g id="edge1_Node000001_Node000002" class="edge">
<title>Node1&#45;&gt;Node2</title>
<g id="a_edge1_Node000001_Node000002"><a xlink:title=" ">
<path fill="none" stroke="#63b8ff" d="M114.69,-162.44C156.79,-196.11 252.92,-272.97 301.4,-311.73"/>
<polygon fill="#63b8ff" stroke="#63b8ff" points="298.97,-314.27 308.97,-317.79 303.35,-308.81 298.97,-314.27"/>
</a>
</g>
</g>
<!-- Node19 -->
<g id="Node000019" class="node">
<title>Node19</title>
<g id="a_Node000019"><a xlink:href="classfr_1_1softsf_1_1sudokufx_1_1common_1_1util_1_1sudoku_1_1_grid_master.html#a3307d58848c5c2f12ba5f33c2eb6ebb7" target="_top" xlink:title="Calcule le pourcentage de difficultés basé sur la somme des possibilités.">
<polygon fill="white" stroke="#666666" points="1434.75,-83 1218.5,-83 1218.5,-51 1434.75,-51 1434.75,-83"/>
<text text-anchor="start" x="1226.5" y="-69.5" font-family="Helvetica,sans-Serif" font-size="10.00">fr.softsf.sudokufx.common.util.sudoku.</text>
<text text-anchor="middle" x="1326.62" y="-57.5" font-family="Helvetica,sans-Serif" font-size="10.00">GridMaster.getPourcentageDepuisPossibilites</text>
</a>
</g>
</g>
<!-- Node1&#45;&gt;Node19 -->
<g id="edge26_Node000001_Node000019" class="edge">
<title>Node1&#45;&gt;Node19</title>
<g id="a_edge26_Node000001_Node000019"><a xlink:title=" ">
<path fill="none" stroke="#63b8ff" d="M186.65,-146C286.03,-146 448.56,-146 588.75,-146 588.75,-146 588.75,-146 845.62,-146 919.57,-146 1116.92,-109.04 1234.27,-85.68"/>
<polygon fill="#63b8ff" stroke="#63b8ff" points="1234.76,-89.15 1243.89,-83.76 1233.39,-82.29 1234.76,-89.15"/>
</a>
</g>
</g>
<!-- Node20 -->
<g id="Node000020" class="node">
<title>Node20</title>
<g id="a_Node000020"><a xlink:href="namespacefr_1_1softsf_1_1sudokufx_1_1common_1_1util_1_1sudoku.html#a9b767d7f5930ee45e7ce2467faedf322" target="_top" xlink:title="Immutable record representing the dual output of a Sudoku grid generation.">
<polygon fill="white" stroke="#666666" points="424.62,-100 238.38,-100 238.38,-68 424.62,-68 424.62,-100"/>
<text text-anchor="start" x="246.38" y="-86.5" font-family="Helvetica,sans-Serif" font-size="10.00">fr.softsf.sudokufx.common.util.sudoku.</text>
<text text-anchor="middle" x="331.5" y="-74.5" font-family="Helvetica,sans-Serif" font-size="10.00">GrillesCrees</text>
</a>
</g>
</g>
<!-- Node1&#45;&gt;Node20 -->
<g id="edge27_Node000001_Node000020" class="edge">
<title>Node1&#45;&gt;Node20</title>
<g id="a_edge27_Node000001_Node000020"><a xlink:title=" ">
<path fill="none" stroke="#63b8ff" d="M156.85,-129.55C187.56,-121.49 224.73,-111.74 256.79,-103.33"/>
<polygon fill="#63b8ff" stroke="#63b8ff" points="257.64,-106.73 266.43,-100.81 255.87,-99.96 257.64,-106.73"/>
</a>
</g>
</g>
<!-- Node21 -->
<g id="Node000021" class="node">
<title>Node21</title>
<g id="a_Node000021"><a xlink:href="classfr_1_1softsf_1_1sudokufx_1_1common_1_1util_1_1sudoku_1_1_grid_master.html#ac7a6a027f90ee968f0be179797d663cf" target="_top" xlink:title="Remplit aléatoirement la première ligne de la grille avec les chiffres de 1 à 9.">
<polygon fill="white" stroke="#666666" points="440.75,-32 222.25,-32 222.25,0 440.75,0 440.75,-32"/>
<text text-anchor="start" x="230.25" y="-18.5" font-family="Helvetica,sans-Serif" font-size="10.00">fr.softsf.sudokufx.common.util.sudoku.</text>
<text text-anchor="middle" x="331.5" y="-6.5" font-family="Helvetica,sans-Serif" font-size="10.00">GridMaster.remplirPremiereLigneAleatoirement</text>
</a>
</g>
</g>
<!-- Node1&#45;&gt;Node21 -->
<g id="edge29_Node000001_Node000021" class="edge">
<title>Node1&#45;&gt;Node21</title>
<g id="a_edge29_Node000001_Node000021"><a xlink:title=" ">
<path fill="none" stroke="#63b8ff" d="M114.99,-129.72C139.63,-111.01 182.34,-80.15 222.25,-59 237.93,-50.69 255.59,-43.02 272.02,-36.53"/>
<polygon fill="#63b8ff" stroke="#63b8ff" points="273.12,-39.86 281.19,-32.99 270.6,-33.33 273.12,-39.86"/>
</a>
</g>
</g>
<!-- Node22 -->
<g id="Node000022" class="node">
<title>Node22</title>
<g id="a_Node000022"><a xlink:href="classfr_1_1softsf_1_1sudokufx_1_1common_1_1util_1_1sudoku_1_1_grid_master.html#a94424450acb912e32c7548e6659b617a" target="_top" xlink:title="Tente de résoudre la grille de Sudoku fournie en utilisant un algorithme de backtracking optimisé (pr...">
<polygon fill="white" stroke="#666666" points="1177.62,-206 991.38,-206 991.38,-174 1177.62,-174 1177.62,-206"/>
<text text-anchor="start" x="999.38" y="-192.5" font-family="Helvetica,sans-Serif" font-size="10.00">fr.softsf.sudokufx.common.util.sudoku.</text>
<text text-anchor="middle" x="1084.5" y="-180.5" font-family="Helvetica,sans-Serif" font-size="10.00">GridMaster.resoudreLaGrille</text>
</a>
</g>
</g>
<!-- Node1&#45;&gt;Node22 -->
<g id="edge31_Node000001_Node000022" class="edge">
<title>Node1&#45;&gt;Node22</title>
<g id="a_edge31_Node000001_Node000022"><a xlink:title=" ">
<path fill="none" stroke="#63b8ff" d="M186.43,-156.91C198.47,-158.09 210.64,-159.16 222.25,-160 495.13,-179.63 817.61,-186.53 979.59,-188.86"/>
<polygon fill="#63b8ff" stroke="#63b8ff" points="979.41,-192.36 989.46,-189 979.51,-185.36 979.41,-192.36"/>
</a>
</g>
</g>
<!-- Node3 -->
<g id="Node000003" class="node">
<title>Node3</title>
<g id="a_Node000003"><a xlink:href="classfr_1_1softsf_1_1sudokufx_1_1common_1_1util_1_1sudoku_1_1_grid_master.html#af2d45060700f699fc8517cdf138bc7c2" target="_top" xlink:title="Calcule la valeur supérieure du segment actuel en fonction du pas d&#39;incrémentation.">
<polygon fill="white" stroke="#666666" points="702.75,-439 476.75,-439 476.75,-407 702.75,-407 702.75,-439"/>
<text text-anchor="start" x="484.75" y="-425.5" font-family="Helvetica,sans-Serif" font-size="10.00">fr.softsf.sudokufx.common.util.sudoku.</text>
<text text-anchor="middle" x="589.75" y="-413.5" font-family="Helvetica,sans-Serif" font-size="10.00">GridMaster.calculerValeurSuperieureDuSegment</text>
</a>
</g>
</g>
<!-- Node2&#45;&gt;Node3 -->
<g id="edge2_Node000002_Node000003" class="edge">
<title>Node2&#45;&gt;Node3</title>
<g id="a_edge2_Node000002_Node000003"><a xlink:title=" ">
<path fill="none" stroke="#63b8ff" d="M369.7,-351.4C398.56,-363.77 439.75,-380.66 476.75,-393 487.75,-396.67 499.47,-400.21 511.02,-403.48"/>
<polygon fill="#63b8ff" stroke="#63b8ff" points="510,-406.83 520.57,-406.14 511.87,-400.09 510,-406.83"/>
</a>
</g>
</g>
<!-- Node4 -->
<g id="Node000004" class="node">
<title>Node4</title>
<g id="a_Node000004"><a xlink:href="namespacefr_1_1softsf_1_1sudokufx_1_1common_1_1util_1_1sudoku.html#adc44f4bbb0133e984077a0acaf24cf55" target="_top" xlink:title="Immutable container for level&#45;specific possibility boundaries.">
<polygon fill="white" stroke="#666666" points="937.75,-439 751.5,-439 751.5,-407 937.75,-407 937.75,-439"/>
<text text-anchor="start" x="759.5" y="-425.5" font-family="Helvetica,sans-Serif" font-size="10.00">fr.softsf.sudokufx.common.util.sudoku.</text>
<text text-anchor="middle" x="844.62" y="-413.5" font-family="Helvetica,sans-Serif" font-size="10.00">LevelPossibilityBounds</text>
</a>
</g>
</g>
<!-- Node2&#45;&gt;Node4 -->
<g id="edge25_Node000002_Node000004" class="edge">
<title>Node2&#45;&gt;Node4</title>
<g id="a_edge25_Node000002_Node000004"><a xlink:title=" ">
<path fill="none" stroke="#63b8ff" d="M424.83,-351.07C442.08,-354.06 459.96,-357.13 476.75,-360 577.15,-377.14 602.38,-380.66 702.75,-398 714.96,-400.11 727.76,-402.35 740.46,-404.58"/>
<polygon fill="#63b8ff" stroke="#63b8ff" points="739.63,-407.99 750.08,-406.28 740.84,-401.09 739.63,-407.99"/>
</a>
</g>
</g>
<!-- Node5 -->
<g id="Node000005" class="node">
<title>Node5</title>
<g id="a_Node000005"><a xlink:href="enumfr_1_1softsf_1_1sudokufx_1_1common_1_1enums_1_1_difficulty_level.html#a7df76231e8b2c4e2180213007891b807" target="_top" xlink:title="Resolves a DifficultyLevel from its byte representation.">
<polygon fill="white" stroke="#666666" points="673.88,-351 505.62,-351 505.62,-319 673.88,-319 673.88,-351"/>
<text text-anchor="start" x="513.62" y="-337.5" font-family="Helvetica,sans-Serif" font-size="10.00">fr.softsf.sudokufx.common.enums.</text>
<text text-anchor="middle" x="589.75" y="-325.5" font-family="Helvetica,sans-Serif" font-size="10.00">DifficultyLevel.fromGridByte</text>
</a>
</g>
</g>
<!-- Node2&#45;&gt;Node5 -->
<g id="edge4_Node000002_Node000005" class="edge">
<title>Node2&#45;&gt;Node5</title>
<g id="a_edge4_Node000002_Node000005"><a xlink:title=" ">
<path fill="none" stroke="#63b8ff" d="M425.01,-335C447.46,-335 471.48,-335 494.03,-335"/>
<polygon fill="#63b8ff" stroke="#63b8ff" points="493.8,-338.5 503.8,-335 493.8,-331.5 493.8,-338.5"/>
</a>
</g>
</g>
<!-- Node6 -->
<g id="Node000006" class="node">
<title>Node6</title>
<g id="a_Node000006"><a xlink:href="classfr_1_1softsf_1_1sudokufx_1_1common_1_1util_1_1sudoku_1_1_grid_master.html#a409da4117c58966b842279006d9546dd" target="_top" xlink:title="Récupère l&#39;intervalle de pourcentages autorisé pour un niveau de difficulté donné.">
<polygon fill="white" stroke="#666666" points="692.62,-489 486.88,-489 486.88,-457 692.62,-457 692.62,-489"/>
<text text-anchor="start" x="494.88" y="-475.5" font-family="Helvetica,sans-Serif" font-size="10.00">fr.softsf.sudokufx.common.util.sudoku.</text>
<text text-anchor="middle" x="589.75" y="-463.5" font-family="Helvetica,sans-Serif" font-size="10.00">GridMaster.getIntervallePourcentageNiveau</text>
</a>
</g>
</g>
<!-- Node2&#45;&gt;Node6 -->
<g id="edge5_Node000002_Node000006" class="edge">
<title>Node2&#45;&gt;Node6</title>
<g id="a_edge5_Node000002_Node000006"><a xlink:title=" ">
<path fill="none" stroke="#63b8ff" d="M348.16,-351.25C373.03,-376.05 424.13,-423.09 476.75,-448 480.28,-449.67 483.92,-451.23 487.64,-452.69"/>
<polygon fill="#63b8ff" stroke="#63b8ff" points="486.29,-455.92 496.88,-456.02 488.66,-449.34 486.29,-455.92"/>
</a>
</g>
</g>
<!-- Node7 -->
<g id="Node000007" class="node">
<title>Node7</title>
<g id="a_Node000007"><a xlink:href="classfr_1_1softsf_1_1sudokufx_1_1common_1_1util_1_1sudoku_1_1_grid_master.html#a7da72c06bb28816dc19695add4cbdb27" target="_top" xlink:title="Calcule la somme des possibilités basée sur un pourcentage de difficulté.">
<polygon fill="white" stroke="#666666" points="697.88,-301 481.62,-301 481.62,-269 697.88,-269 697.88,-301"/>
<text text-anchor="start" x="489.62" y="-287.5" font-family="Helvetica,sans-Serif" font-size="10.00">fr.softsf.sudokufx.common.util.sudoku.</text>
<text text-anchor="middle" x="589.75" y="-275.5" font-family="Helvetica,sans-Serif" font-size="10.00">GridMaster.getPossibilitesDepuisPourcentage</text>
</a>
</g>
</g>
<!-- Node2&#45;&gt;Node7 -->
<g id="edge7_Node000002_Node000007" class="edge">
<title>Node2&#45;&gt;Node7</title>
<g id="a_edge7_Node000002_Node000007"><a xlink:title=" ">
<path fill="none" stroke="#63b8ff" d="M416.76,-318.56C441.29,-313.77 468.25,-308.51 493.4,-303.6"/>
<polygon fill="#63b8ff" stroke="#63b8ff" points="493.81,-307.09 502.95,-301.74 492.47,-300.22 493.81,-307.09"/>
</a>
</g>
</g>
<!-- Node8 -->
<g id="Node000008" class="node">
<title>Node8</title>
<g id="a_Node000008"><a xlink:href="classfr_1_1softsf_1_1sudokufx_1_1common_1_1util_1_1sudoku_1_1_grid_master.html#abcd3c0f06734738979bb31e4063dfb1d" target="_top" xlink:title="Génère une grille de Sudoku.">
<polygon fill="white" stroke="#666666" points="690.75,-251 488.75,-251 488.75,-219 690.75,-219 690.75,-251"/>
<text text-anchor="start" x="496.75" y="-237.5" font-family="Helvetica,sans-Serif" font-size="10.00">fr.softsf.sudokufx.common.util.sudoku.</text>
<text text-anchor="middle" x="589.75" y="-225.5" font-family="Helvetica,sans-Serif" font-size="10.00">GridMaster.getPossibilitesGrilleAResoudre</text>
</a>
</g>
</g>
<!-- Node2&#45;&gt;Node8 -->
<g id="edge8_Node000002_Node000008" class="edge">
<title>Node2&#45;&gt;Node8</title>
<g id="a_edge8_Node000002_Node000008"><a xlink:title=" ">
<path fill="none" stroke="#63b8ff" d="M358.93,-318.58C387.15,-301.69 433.66,-275.71 476.75,-260 482.05,-258.07 487.56,-256.26 493.15,-254.56"/>
<polygon fill="#63b8ff" stroke="#63b8ff" points="493.88,-257.99 502.53,-251.87 491.95,-251.26 493.88,-257.99"/>
</a>
</g>
</g>
<!-- Node3&#45;&gt;Node4 -->
<g id="edge3_Node000003_Node000004" class="edge">
<title>Node3&#45;&gt;Node4</title>
<g id="a_edge3_Node000003_Node000004"><a xlink:title=" ">
<path fill="none" stroke="#63b8ff" d="M703.14,-423C715.33,-423 727.7,-423 739.79,-423"/>
<polygon fill="#63b8ff" stroke="#63b8ff" points="739.76,-426.5 749.76,-423 739.76,-419.5 739.76,-426.5"/>
</a>
</g>
</g>
<!-- Node6&#45;&gt;Node4 -->
<g id="edge6_Node000006_Node000004" class="edge">
<title>Node6&#45;&gt;Node4</title>
<g id="a_edge6_Node000006_Node000004"><a xlink:title=" ">
<path fill="none" stroke="#63b8ff" d="M673.9,-456.56C697.99,-451.8 724.47,-446.56 749.2,-441.67"/>
<polygon fill="#63b8ff" stroke="#63b8ff" points="749.81,-445.12 758.94,-439.74 748.45,-438.25 749.81,-445.12"/>
</a>
</g>
</g>
<!-- Node9 -->
<g id="Node000009" class="node">
<title>Node9</title>
<g id="a_Node000009"><a xlink:href="classfr_1_1softsf_1_1sudokufx_1_1common_1_1util_1_1sudoku_1_1_grid_master.html#af6461bfbf866d4c2ed591179e96eb56b" target="_top" xlink:title="Génère une grille de Sudoku avec un masquage aléatoire borné selon la difficulté.">
<polygon fill="white" stroke="#666666" points="950.5,-365 738.75,-365 738.75,-333 950.5,-333 950.5,-365"/>
<text text-anchor="start" x="746.75" y="-351.5" font-family="Helvetica,sans-Serif" font-size="10.00">fr.softsf.sudokufx.common.util.sudoku.</text>
<text text-anchor="middle" x="844.62" y="-339.5" font-family="Helvetica,sans-Serif" font-size="10.00">GridMaster.genererGrilleAvecCasesCachees</text>
</a>
</g>
</g>
<!-- Node8&#45;&gt;Node9 -->
<g id="edge9_Node000008_Node000009" class="edge">
<title>Node8&#45;&gt;Node9</title>
<g id="a_edge9_Node000008_Node000009"><a xlink:title=" ">
<path fill="none" stroke="#63b8ff" d="M678.18,-251.42C686.61,-253.92 694.92,-256.77 702.75,-260 743.89,-276.99 786.47,-305.7 813.89,-325.91"/>
<polygon fill="#63b8ff" stroke="#63b8ff" points="811.62,-328.58 821.72,-331.77 815.81,-322.98 811.62,-328.58"/>
</a>
</g>
</g>
<!-- Node9&#45;&gt;Node9 -->
<g id="edge10_Node000009_Node000009" class="edge">
<title>Node9&#45;&gt;Node9</title>
<g id="a_edge10_Node000009_Node000009"><a xlink:title=" ">
<path fill="none" stroke="#63b8ff" d="M801.8,-365.44C793.81,-374.58 808.08,-383 844.62,-383 864.9,-383 878.31,-380.41 884.88,-376.54"/>
<polygon fill="#63b8ff" stroke="#63b8ff" points="888.26,-377.45 887.11,-366.92 881.44,-375.87 888.26,-377.45"/>
</a>
</g>
</g>
<!-- Node10 -->
<g id="Node000010" class="node">
<title>Node10</title>
<g id="a_Node000010"><a xlink:href="classfr_1_1softsf_1_1sudokufx_1_1common_1_1util_1_1sudoku_1_1_grid_master.html#aeed90a968624e9b7ccb44958df9ae821" target="_top" xlink:title="Calcule les possibilités pour chaque case de la grille de Sudoku.">
<polygon fill="white" stroke="#666666" points="1419.75,-399 1233.5,-399 1233.5,-367 1419.75,-367 1419.75,-399"/>
<text text-anchor="start" x="1241.5" y="-385.5" font-family="Helvetica,sans-Serif" font-size="10.00">fr.softsf.sudokufx.common.util.sudoku.</text>
<text text-anchor="middle" x="1326.62" y="-373.5" font-family="Helvetica,sans-Serif" font-size="10.00">GridMaster.getPossibilites</text>
</a>
</g>
</g>
<!-- Node9&#45;&gt;Node10 -->
<g id="edge11_Node000009_Node000010" class="edge">
<title>Node9&#45;&gt;Node10</title>
<g id="a_edge11_Node000009_Node000010"><a xlink:title=" ">
<path fill="none" stroke="#63b8ff" d="M950.96,-356.46C1031.48,-362.17 1141.91,-369.99 1222,-375.66"/>
<polygon fill="#63b8ff" stroke="#63b8ff" points="1221.36,-379.12 1231.58,-376.34 1221.86,-372.14 1221.36,-379.12"/>
</a>
</g>
</g>
<!-- Node13 -->
<g id="Node000013" class="node">
<title>Node13</title>
<g id="a_Node000013"><a xlink:href="classfr_1_1softsf_1_1sudokufx_1_1common_1_1util_1_1sudoku_1_1_grid_master.html#a7b8b865b518ad50e3d77814a16bf9634" target="_top" xlink:title="Cache des cases dans la grille et calcule la somme des possibilités restantes.">
<polygon fill="white" stroke="#666666" points="1182.5,-446 986.5,-446 986.5,-414 1182.5,-414 1182.5,-446"/>
<text text-anchor="start" x="994.5" y="-432.5" font-family="Helvetica,sans-Serif" font-size="10.00">fr.softsf.sudokufx.common.util.sudoku.</text>
<text text-anchor="middle" x="1084.5" y="-420.5" font-family="Helvetica,sans-Serif" font-size="10.00">GridMaster.getPossibilitesGrilleWhileNok</text>
</a>
</g>
</g>
<!-- Node9&#45;&gt;Node13 -->
<g id="edge14_Node000009_Node000013" class="edge">
<title>Node9&#45;&gt;Node13</title>
<g id="a_edge14_Node000009_Node000013"><a xlink:title=" ">
<path fill="none" stroke="#63b8ff" d="M894.05,-365.49C931.75,-378.33 984.25,-396.2 1024.43,-409.88"/>
<polygon fill="#63b8ff" stroke="#63b8ff" points="1023.12,-413.14 1033.71,-413.05 1025.37,-406.51 1023.12,-413.14"/>
</a>
</g>
</g>
<!-- Node16 -->
<g id="Node000016" class="node">
<title>Node16</title>
<g id="a_Node000016"><a xlink:href="classfr_1_1softsf_1_1sudokufx_1_1common_1_1util_1_1sudoku_1_1_grid_master.html#aa3aa3945ebc4549be49be1e0c481f9da" target="_top" xlink:title="Vérifie l&#39;unicité par backtracking en utilisant la propagation de contraintes.">
<polygon fill="white" stroke="#666666" points="1419.75,-331 1233.5,-331 1233.5,-299 1419.75,-299 1419.75,-331"/>
<text text-anchor="start" x="1241.5" y="-317.5" font-family="Helvetica,sans-Serif" font-size="10.00">fr.softsf.sudokufx.common.util.sudoku.</text>
<text text-anchor="middle" x="1326.62" y="-305.5" font-family="Helvetica,sans-Serif" font-size="10.00">GridMaster.verifierUnicite</text>
</a>
</g>
</g>
<!-- Node9&#45;&gt;Node16 -->
<g id="edge19_Node000009_Node000016" class="edge">
<title>Node9&#45;&gt;Node16</title>
<g id="a_edge19_Node000009_Node000016"><a xlink:title=" ">
<path fill="none" stroke="#63b8ff" d="M950.96,-341.54C1031.48,-335.83 1141.91,-328.01 1222,-322.34"/>
<polygon fill="#63b8ff" stroke="#63b8ff" points="1221.86,-325.86 1231.58,-321.66 1221.36,-318.88 1221.86,-325.86"/>
</a>
</g>
</g>
<!-- Node11 -->
<g id="Node000011" class="node">
<title>Node11</title>
<g id="a_Node000011"><a xlink:href="classfr_1_1softsf_1_1sudokufx_1_1common_1_1util_1_1sudoku_1_1_grid_master.html#a27aa242e0289c28db22cd6caa98aec06" target="_top" xlink:title="Initialise le tableau des possibilités pour chaque case.">
<polygon fill="white" stroke="#666666" points="1683.62,-419 1497.38,-419 1497.38,-387 1683.62,-387 1683.62,-419"/>
<text text-anchor="start" x="1505.38" y="-405.5" font-family="Helvetica,sans-Serif" font-size="10.00">fr.softsf.sudokufx.common.util.sudoku.</text>
<text text-anchor="middle" x="1590.5" y="-393.5" font-family="Helvetica,sans-Serif" font-size="10.00">GridMaster.initialiserPossibilites</text>
</a>
</g>
</g>
<!-- Node10&#45;&gt;Node11 -->
<g id="edge12_Node000010_Node000011" class="edge">
<title>Node10&#45;&gt;Node11</title>
<g id="a_edge12_Node000010_Node000011"><a xlink:title=" ">
<path fill="none" stroke="#63b8ff" d="M1419.95,-390.05C1441.27,-391.68 1464.09,-393.42 1485.85,-395.08"/>
<polygon fill="#63b8ff" stroke="#63b8ff" points="1485.38,-398.56 1495.61,-395.83 1485.91,-391.58 1485.38,-398.56"/>
</a>
</g>
</g>
<!-- Node12 -->
<g id="Node000012" class="node">
<title>Node12</title>
<g id="a_Node000012"><a xlink:href="classfr_1_1softsf_1_1sudokufx_1_1common_1_1util_1_1sudoku_1_1_grid_master.html#aeabb85bac7acd0ff179f259fa13b17ea" target="_top" xlink:title="Élimine une valeur des candidats des cellules voisines (ligne, colonne, bloc).">
<polygon fill="white" stroke="#666666" points="1932.5,-375 1746.25,-375 1746.25,-343 1932.5,-343 1932.5,-375"/>
<text text-anchor="start" x="1754.25" y="-361.5" font-family="Helvetica,sans-Serif" font-size="10.00">fr.softsf.sudokufx.common.util.sudoku.</text>
<text text-anchor="middle" x="1839.38" y="-349.5" font-family="Helvetica,sans-Serif" font-size="10.00">GridMaster.eliminerPossibilite</text>
</a>
</g>
</g>
<!-- Node11&#45;&gt;Node12 -->
<g id="edge13_Node000011_Node000012" class="edge">
<title>Node11&#45;&gt;Node12</title>
<g id="a_edge13_Node000011_Node000012"><a xlink:title=" ">
<path fill="none" stroke="#63b8ff" d="M1683.78,-386.55C1700.41,-383.59 1717.84,-380.48 1734.76,-377.47"/>
<polygon fill="#63b8ff" stroke="#63b8ff" points="1735.08,-380.97 1744.31,-375.77 1733.85,-374.07 1735.08,-380.97"/>
</a>
</g>
</g>
<!-- Node13&#45;&gt;Node10 -->
<g id="edge17_Node000013_Node000010" class="edge">
<title>Node13&#45;&gt;Node10</title>
<g id="a_edge17_Node000013_Node000010"><a xlink:title=" ">
<path fill="none" stroke="#63b8ff" d="M1169.48,-413.56C1189.23,-409.7 1210.4,-405.55 1230.59,-401.6"/>
<polygon fill="#63b8ff" stroke="#63b8ff" points="1231.06,-405.08 1240.2,-399.72 1229.72,-398.21 1231.06,-405.08"/>
</a>
</g>
</g>
<!-- Node14 -->
<g id="Node000014" class="node">
<title>Node14</title>
<g id="a_Node000014"><a xlink:href="classfr_1_1softsf_1_1sudokufx_1_1common_1_1util_1_1sudoku_1_1_grid_master.html#aedafc76e589c715c380e2732e0ff04d2" target="_top" xlink:title="Cache un nombre spécifié de cases dans la grille en les remplaçant par zéro.">
<polygon fill="white" stroke="#666666" points="1419.75,-499 1233.5,-499 1233.5,-467 1419.75,-467 1419.75,-499"/>
<text text-anchor="start" x="1241.5" y="-485.5" font-family="Helvetica,sans-Serif" font-size="10.00">fr.softsf.sudokufx.common.util.sudoku.</text>
<text text-anchor="middle" x="1326.62" y="-473.5" font-family="Helvetica,sans-Serif" font-size="10.00">GridMaster.cacherLesCases</text>
</a>
</g>
</g>
<!-- Node13&#45;&gt;Node14 -->
<g id="edge15_Node000013_Node000014" class="edge">
<title>Node13&#45;&gt;Node14</title>
<g id="a_edge15_Node000013_Node000014"><a xlink:title=" ">
<path fill="none" stroke="#63b8ff" d="M1160.16,-446.48C1185.46,-452.06 1213.91,-458.34 1239.99,-464.1"/>
<polygon fill="#63b8ff" stroke="#63b8ff" points="1239.01,-467.47 1249.53,-466.2 1240.52,-460.63 1239.01,-467.47"/>
</a>
</g>
</g>
<!-- Node15 -->
<g id="Node000015" class="node">
<title>Node15</title>
<g id="a_Node000015"><a xlink:href="classfr_1_1softsf_1_1sudokufx_1_1common_1_1util_1_1sudoku_1_1_grid_master.html#aa9fd5688b3effcfb97c226e04a5ff380" target="_top" xlink:title="Calcule le nombre total de candidats (entropie) sur l&#39;ensemble de la grille.">
<polygon fill="white" stroke="#666666" points="1433.25,-449 1220,-449 1220,-417 1433.25,-417 1433.25,-449"/>
<text text-anchor="start" x="1228" y="-435.5" font-family="Helvetica,sans-Serif" font-size="10.00">fr.softsf.sudokufx.common.util.sudoku.</text>
<text text-anchor="middle" x="1326.62" y="-423.5" font-family="Helvetica,sans-Serif" font-size="10.00">GridMaster.sommeDesPossibilitesDeLaGrille</text>
</a>
</g>
</g>
<!-- Node13&#45;&gt;Node15 -->
<g id="edge18_Node000013_Node000015" class="edge">
<title>Node13&#45;&gt;Node15</title>
<g id="a_edge18_Node000013_Node000015"><a xlink:title=" ">
<path fill="none" stroke="#63b8ff" d="M1182.82,-431.22C1191.13,-431.32 1199.6,-431.43 1208.04,-431.53"/>
<polygon fill="#63b8ff" stroke="#63b8ff" points="1207.98,-435.03 1218.02,-431.66 1208.07,-428.03 1207.98,-435.03"/>
</a>
</g>
</g>
<!-- Node14&#45;&gt;Node14 -->
<g id="edge16_Node000014_Node000014" class="edge">
<title>Node14&#45;&gt;Node14</title>
<g id="a_edge16_Node000014_Node000014"><a xlink:title=" ">
<path fill="none" stroke="#63b8ff" d="M1283.4,-499.44C1275.33,-508.58 1289.74,-517 1326.62,-517 1347.09,-517 1360.63,-514.41 1367.26,-510.54"/>
<polygon fill="#63b8ff" stroke="#63b8ff" points="1370.64,-511.45 1369.51,-500.92 1363.82,-509.86 1370.64,-511.45"/>
</a>
</g>
</g>
<!-- Node16&#45;&gt;Node12 -->
<g id="edge22_Node000016_Node000012" class="edge">
<title>Node16&#45;&gt;Node12</title>
<g id="a_edge22_Node000016_Node000012"><a xlink:title=" ">
<path fill="none" stroke="#63b8ff" d="M1411.76,-331.45C1431.08,-334.74 1451.57,-337.84 1470.75,-340 1559.55,-350.01 1661.01,-354.76 1734.82,-357"/>
<polygon fill="#63b8ff" stroke="#63b8ff" points="1734.35,-360.49 1744.45,-357.28 1734.56,-353.49 1734.35,-360.49"/>
</a>
</g>
</g>
<!-- Node16&#45;&gt;Node16 -->
<g id="edge24_Node000016_Node000016" class="edge">
<title>Node16&#45;&gt;Node16</title>
<g id="a_edge24_Node000016_Node000016"><a xlink:title=" ">
<path fill="none" stroke="#63b8ff" d="M1283.4,-331.44C1275.33,-340.58 1289.74,-349 1326.62,-349 1347.09,-349 1360.63,-346.41 1367.26,-342.54"/>
<polygon fill="#63b8ff" stroke="#63b8ff" points="1370.64,-343.45 1369.51,-332.92 1363.82,-341.86 1370.64,-343.45"/>
</a>
</g>
</g>
<!-- Node17 -->
<g id="Node000017" class="node">
<title>Node17</title>
<g id="a_Node000017"><a xlink:href="classfr_1_1softsf_1_1sudokufx_1_1common_1_1util_1_1sudoku_1_1_grid_master.html#a3f17ab078f894717a1f3dfaffed0b987" target="_top" xlink:title="Choisit une valeur aléatoire parmi les possibilités données.">
<polygon fill="white" stroke="#666666" points="1683.62,-263 1497.38,-263 1497.38,-231 1683.62,-231 1683.62,-263"/>
<text text-anchor="start" x="1505.38" y="-249.5" font-family="Helvetica,sans-Serif" font-size="10.00">fr.softsf.sudokufx.common.util.sudoku.</text>
<text text-anchor="middle" x="1590.5" y="-237.5" font-family="Helvetica,sans-Serif" font-size="10.00">GridMaster.choisirValeurAleatoire</text>
</a>
</g>
</g>
<!-- Node16&#45;&gt;Node17 -->
<g id="edge20_Node000016_Node000017" class="edge">
<title>Node16&#45;&gt;Node17</title>
<g id="a_edge20_Node000016_Node000017"><a xlink:title=" ">
<path fill="none" stroke="#63b8ff" d="M1400.04,-298.53C1411.67,-295.76 1423.56,-292.86 1434.75,-290 1463.24,-282.72 1494.53,-274.14 1521.46,-266.57"/>
<polygon fill="#63b8ff" stroke="#63b8ff" points="1522.2,-270 1530.87,-263.91 1520.3,-263.26 1522.2,-270"/>
</a>
</g>
</g>
<!-- Node18 -->
<g id="Node000018" class="node">
<title>Node18</title>
<g id="a_Node000018"><a xlink:href="classfr_1_1softsf_1_1sudokufx_1_1common_1_1util_1_1sudoku_1_1_grid_master.html#a973a5ac2260605b8a260934b7e68373d" target="_top" xlink:title="Trouve la case vide avec le moins de possibilités.">
<polygon fill="white" stroke="#666666" points="1710.25,-331 1470.75,-331 1470.75,-299 1710.25,-299 1710.25,-331"/>
<text text-anchor="start" x="1478.75" y="-317.5" font-family="Helvetica,sans-Serif" font-size="10.00">fr.softsf.sudokufx.common.util.sudoku.</text>
<text text-anchor="middle" x="1590.5" y="-305.5" font-family="Helvetica,sans-Serif" font-size="10.00">GridMaster.laCaseVideAvecLeMoinsDePossibilites</text>
</a>
</g>
</g>
<!-- Node16&#45;&gt;Node18 -->
<g id="edge23_Node000016_Node000018" class="edge">
<title>Node16&#45;&gt;Node18</title>
<g id="a_edge23_Node000016_Node000018"><a xlink:title=" ">
<path fill="none" stroke="#63b8ff" d="M1419.95,-315C1432.72,-315 1446.03,-315 1459.33,-315"/>
<polygon fill="#63b8ff" stroke="#63b8ff" points="1458.97,-318.5 1468.97,-315 1458.97,-311.5 1458.97,-318.5"/>
</a>
</g>
</g>
<!-- Node17&#45;&gt;Node17 -->
<g id="edge21_Node000017_Node000017" class="edge">
<title>Node17&#45;&gt;Node17</title>
<g id="a_edge21_Node000017_Node000017"><a xlink:title=" ">
<path fill="none" stroke="#63b8ff" d="M1546.07,-263.44C1537.78,-272.58 1552.59,-281 1590.5,-281 1611.53,-281 1625.45,-278.41 1632.27,-274.54"/>
<polygon fill="#63b8ff" stroke="#63b8ff" points="1635.65,-275.46 1634.58,-264.91 1628.84,-273.82 1635.65,-275.46"/>
</a>
</g>
</g>
<!-- Node20&#45;&gt;Node20 -->
<g id="edge28_Node000020_Node000020" class="edge">
<title>Node20&#45;&gt;Node20</title>
<g id="a_edge28_Node000020_Node000020"><a xlink:title=" ">
<path fill="none" stroke="#63b8ff" d="M288.94,-100.44C281,-109.58 295.19,-118 331.5,-118 351.64,-118 364.98,-115.41 371.5,-111.54"/>
<polygon fill="#63b8ff" stroke="#63b8ff" points="374.89,-112.45 373.72,-101.92 368.07,-110.88 374.89,-112.45"/>
</a>
</g>
</g>
<!-- Node21&#45;&gt;Node21 -->
<g id="edge30_Node000021_Node000021" class="edge">
<title>Node21&#45;&gt;Node21</title>
<g id="a_edge30_Node000021_Node000021"><a xlink:title=" ">
<path fill="none" stroke="#63b8ff" d="M288.94,-32.44C281,-41.58 295.19,-50 331.5,-50 351.64,-50 364.98,-47.41 371.5,-43.54"/>
<polygon fill="#63b8ff" stroke="#63b8ff" points="374.89,-44.45 373.72,-33.92 368.07,-42.88 374.89,-44.45"/>
</a>
</g>
</g>
<!-- Node22&#45;&gt;Node10 -->
<g id="edge32_Node000022_Node000010" class="edge">
<title>Node22&#45;&gt;Node10</title>
<g id="a_edge32_Node000022_Node000010"><a xlink:title=" ">
<path fill="none" stroke="#63b8ff" d="M1093.58,-206.4C1111.21,-240.42 1156.61,-318.75 1218.5,-358 1220.52,-359.28 1222.59,-360.49 1224.71,-361.64"/>
<polygon fill="#63b8ff" stroke="#63b8ff" points="1223.07,-364.74 1233.59,-365.93 1226.11,-358.43 1223.07,-364.74"/>
</a>
</g>
</g>
<!-- Node22&#45;&gt;Node15 -->
<g id="edge41_Node000022_Node000015" class="edge">
<title>Node22&#45;&gt;Node15</title>
<g id="a_edge41_Node000022_Node000015"><a xlink:title=" ">
<path fill="none" stroke="#63b8ff" d="M1090.56,-206.47C1104.07,-247.51 1145.03,-354.87 1218.5,-408 1220.04,-409.12 1221.63,-410.18 1223.25,-411.2"/>
<polygon fill="#63b8ff" stroke="#63b8ff" points="1221.13,-414.03 1231.57,-415.81 1224.52,-407.91 1221.13,-414.03"/>
</a>
</g>
</g>
<!-- Node22&#45;&gt;Node19 -->
<g id="edge33_Node000022_Node000019" class="edge">
<title>Node22&#45;&gt;Node19</title>
<g id="a_edge33_Node000022_Node000019"><a xlink:title=" ">
<path fill="none" stroke="#63b8ff" d="M1160.15,-173.69C1168.19,-170.01 1175.85,-165.51 1182.5,-160 1208.83,-138.18 1191.41,-112.87 1218.5,-92 1219.82,-90.98 1221.18,-90 1222.57,-89.06"/>
<polygon fill="#63b8ff" stroke="#63b8ff" points="1224.01,-92.27 1230.84,-84.17 1220.45,-86.25 1224.01,-92.27"/>
</a>
</g>
</g>
<!-- Node23 -->
<g id="Node000023" class="node">
<title>Node23</title>
<g id="a_Node000023"><a xlink:href="namespacefr_1_1softsf_1_1sudokufx_1_1common_1_1util_1_1sudoku.html#aa86aff33589489ef55f1a9747a8f6d5d" target="_top" xlink:title="Immutable record representing a Sudoku grid resolution result.">
<polygon fill="white" stroke="#666666" points="1419.75,-195 1233.5,-195 1233.5,-163 1419.75,-163 1419.75,-195"/>
<text text-anchor="start" x="1241.5" y="-181.5" font-family="Helvetica,sans-Serif" font-size="10.00">fr.softsf.sudokufx.common.util.sudoku.</text>
<text text-anchor="middle" x="1326.62" y="-169.5" font-family="Helvetica,sans-Serif" font-size="10.00">GrilleResolue</text>
</a>
</g>
</g>
<!-- Node22&#45;&gt;Node23 -->
<g id="edge34_Node000022_Node000023" class="edge">
<title>Node22&#45;&gt;Node23</title>
<g id="a_edge34_Node000022_Node000023"><a xlink:title=" ">
<path fill="none" stroke="#63b8ff" d="M1178,-185.76C1192.42,-185.1 1207.4,-184.42 1222.05,-183.74"/>
<polygon fill="#63b8ff" stroke="#63b8ff" points="1221.84,-187.26 1231.67,-183.3 1221.52,-180.27 1221.84,-187.26"/>
</a>
</g>
</g>
<!-- Node24 -->
<g id="Node000024" class="node">
<title>Node24</title>
<g id="a_Node000024"><a xlink:href="classfr_1_1softsf_1_1sudokufx_1_1common_1_1util_1_1sudoku_1_1_grid_master.html#ae544691a2f6f2b54de8f88d3babcc221" target="_top" xlink:title="Remplit récursivement la grille Sudoku (backtracking).">
<polygon fill="white" stroke="#666666" points="1419.75,-263 1233.5,-263 1233.5,-231 1419.75,-231 1419.75,-263"/>
<text text-anchor="start" x="1241.5" y="-249.5" font-family="Helvetica,sans-Serif" font-size="10.00">fr.softsf.sudokufx.common.util.sudoku.</text>
<text text-anchor="middle" x="1326.62" y="-237.5" font-family="Helvetica,sans-Serif" font-size="10.00">GridMaster.remplirLaGrille</text>
</a>
</g>
</g>
<!-- Node22&#45;&gt;Node24 -->
<g id="edge36_Node000022_Node000024" class="edge">
<title>Node22&#45;&gt;Node24</title>
<g id="a_edge36_Node000022_Node000024"><a xlink:title=" ">
<path fill="none" stroke="#63b8ff" d="M1153.48,-206.45C1174.33,-211.47 1197.36,-216.99 1218.5,-222 1226.64,-223.93 1235.13,-225.93 1243.61,-227.92"/>
<polygon fill="#63b8ff" stroke="#63b8ff" points="1242.72,-231.31 1253.26,-230.18 1244.32,-224.49 1242.72,-231.31"/>
</a>
</g>
</g>
<!-- Node25 -->
<g id="Node000025" class="node">
<title>Node25</title>
<g id="a_Node000025"><a xlink:href="classfr_1_1softsf_1_1sudokufx_1_1common_1_1util_1_1sudoku_1_1_grid_master.html#a9f77177ae439a5e7b1cfa0394be13ae8" target="_top" xlink:title="Vérifie que chaque valeur dans la grille est bien une possibilité respectant les règles.">
<polygon fill="white" stroke="#666666" points="1429.12,-145 1224.12,-145 1224.12,-101 1429.12,-101 1429.12,-145"/>
<text text-anchor="start" x="1232.12" y="-131.5" font-family="Helvetica,sans-Serif" font-size="10.00">fr.softsf.sudokufx.common.util.sudoku.</text>
<text text-anchor="start" x="1232.12" y="-119.5" font-family="Helvetica,sans-Serif" font-size="10.00">GridMaster.verifieQueChaqueValeurEstUne</text>
<text text-anchor="middle" x="1326.62" y="-107.5" font-family="Helvetica,sans-Serif" font-size="10.00">Possibilite</text>
</a>
</g>
</g>
<!-- Node22&#45;&gt;Node25 -->
<g id="edge42_Node000022_Node000025" class="edge">
<title>Node22&#45;&gt;Node25</title>
<g id="a_edge42_Node000022_Node000025"><a xlink:title=" ">
<path fill="none" stroke="#63b8ff" d="M1144.55,-173.52C1171.51,-166 1204.06,-156.92 1234.09,-148.54"/>
<polygon fill="#63b8ff" stroke="#63b8ff" points="1234.87,-151.96 1243.56,-145.9 1232.99,-145.21 1234.87,-151.96"/>
</a>
</g>
</g>
<!-- Node23&#45;&gt;Node23 -->
<g id="edge35_Node000023_Node000023" class="edge">
<title>Node23&#45;&gt;Node23</title>
<g id="a_edge35_Node000023_Node000023"><a xlink:title=" ">
<path fill="none" stroke="#63b8ff" d="M1283.4,-195.44C1275.33,-204.58 1289.74,-213 1326.62,-213 1347.09,-213 1360.63,-210.41 1367.26,-206.54"/>
<polygon fill="#63b8ff" stroke="#63b8ff" points="1370.64,-207.45 1369.51,-196.92 1363.82,-205.86 1370.64,-207.45"/>
</a>
</g>
</g>
<!-- Node24&#45;&gt;Node12 -->
<g id="edge38_Node000024_Node000012" class="edge">
<title>Node24&#45;&gt;Node12</title>
<g id="a_edge38_Node000024_Node000012"><a xlink:title=" ">
<path fill="none" stroke="#63b8ff" d="M1407.54,-230.53C1428.05,-226.99 1450.14,-223.79 1470.75,-222 1576.8,-212.81 1612.6,-179.63 1710.25,-222 1762.5,-244.67 1803.16,-300.32 1823.68,-333.29"/>
<polygon fill="#63b8ff" stroke="#63b8ff" points="1820.44,-334.7 1828.61,-341.44 1826.43,-331.08 1820.44,-334.7"/>
</a>
</g>
</g>
<!-- Node24&#45;&gt;Node17 -->
<g id="edge37_Node000024_Node000017" class="edge">
<title>Node24&#45;&gt;Node17</title>
<g id="a_edge37_Node000024_Node000017"><a xlink:title=" ">
<path fill="none" stroke="#63b8ff" d="M1419.95,-247C1441.27,-247 1464.09,-247 1485.85,-247"/>
<polygon fill="#63b8ff" stroke="#63b8ff" points="1485.61,-250.5 1495.61,-247 1485.61,-243.5 1485.61,-250.5"/>
</a>
</g>
</g>
<!-- Node24&#45;&gt;Node18 -->
<g id="edge39_Node000024_Node000018" class="edge">
<title>Node24&#45;&gt;Node18</title>
<g id="a_edge39_Node000024_Node000018"><a xlink:title=" ">
<path fill="none" stroke="#63b8ff" d="M1378.67,-263.48C1405.86,-271.96 1439.95,-282.15 1470.75,-290 1478.84,-292.06 1487.27,-294.09 1495.75,-296.03"/>
<polygon fill="#63b8ff" stroke="#63b8ff" points="1494.88,-299.43 1505.41,-298.21 1496.42,-292.6 1494.88,-299.43"/>
</a>
</g>
</g>
<!-- Node24&#45;&gt;Node24 -->
<g id="edge40_Node000024_Node000024" class="edge">
<title>Node24&#45;&gt;Node24</title>
<g id="a_edge40_Node000024_Node000024"><a xlink:title=" ">
<path fill="none" stroke="#63b8ff" d="M1283.4,-263.44C1275.33,-272.58 1289.74,-281 1326.62,-281 1347.09,-281 1360.63,-278.41 1367.26,-274.54"/>
<polygon fill="#63b8ff" stroke="#63b8ff" points="1370.64,-275.45 1369.51,-264.92 1363.82,-273.86 1370.64,-275.45"/>
</a>
</g>
</g>
</g>
</svg>
