<?xml version="1.0" encoding="UTF-8" standalone="no"?>
<!DOCTYPE svg PUBLIC "-//W3C//DTD SVG 1.1//EN"
 "http://www.w3.org/Graphics/SVG/1.1/DTD/svg11.dtd">
<!-- Generated by graphviz version 12.2.1 (20241206.2353)
 -->
<!-- Title: fr.softsf.sudokufx.config.database.ApplicationKeystore.symmetricKey Pages: 1 -->
<svg width="832pt" height="114pt"
 viewBox="0.00 0.00 831.75 114.00" xmlns="http://www.w3.org/2000/svg" xmlns:xlink="http://www.w3.org/1999/xlink">
<g id="graph0" class="graph" transform="scale(1 1) rotate(0) translate(4 110)">
<title>fr.softsf.sudokufx.config.database.ApplicationKeystore.symmetricKey</title>
<!-- Node1 -->
<g id="Node000001" class="node">
<title>Node1</title>
<g id="a_Node000001"><a xlink:title="Check the symmetric key presence.">
<polygon fill="#999999" stroke="#666666" points="169,-38 0,-38 0,-6 169,-6 169,-38"/>
<text text-anchor="start" x="8" y="-24.5" font-family="Helvetica,sans-Serif" font-size="10.00">fr.softsf.sudokufx.config.database.</text>
<text text-anchor="middle" x="84.5" y="-12.5" font-family="Helvetica,sans-Serif" font-size="10.00">ApplicationKeystore.symmetricKey</text>
</a>
</g>
</g>
<!-- Node2 -->
<g id="Node000002" class="node">
<title>Node2</title>
<g id="a_Node000002"><a xlink:href="classfr_1_1softsf_1_1sudokufx_1_1config_1_1database_1_1_application_keystore.html#a408a4b06612f40c1c700c61dfded635b" target="_top" xlink:title="Get the symmetric key and set encryption service.">
<polygon fill="white" stroke="#666666" points="394.25,-106 208.75,-106 208.75,-62 394.25,-62 394.25,-106"/>
<text text-anchor="start" x="216.75" y="-92.5" font-family="Helvetica,sans-Serif" font-size="10.00">fr.softsf.sudokufx.config.database.</text>
<text text-anchor="start" x="216.75" y="-80.5" font-family="Helvetica,sans-Serif" font-size="10.00">ApplicationKeystore.symmetricKeyIsIn</text>
<text text-anchor="middle" x="301.5" y="-68.5" font-family="Helvetica,sans-Serif" font-size="10.00">Keystore</text>
</a>
</g>
</g>
<!-- Node1&#45;&gt;Node2 -->
<g id="edge1_Node000001_Node000002" class="edge">
<title>Node1&#45;&gt;Node2</title>
<g id="a_edge1_Node000001_Node000002"><a xlink:title=" ">
<path fill="none" stroke="#63b8ff" d="M142.55,-38.45C163.71,-44.55 188.24,-51.63 211.56,-58.35"/>
<polygon fill="#63b8ff" stroke="#63b8ff" points="210.5,-61.69 221.08,-61.1 212.44,-54.96 210.5,-61.69"/>
</a>
</g>
</g>
<!-- Node3 -->
<g id="Node000003" class="node">
<title>Node3</title>
<g id="a_Node000003"><a xlink:href="classfr_1_1softsf_1_1sudokufx_1_1config_1_1database_1_1_application_keystore.html#a5b0d0ea827857752fe45ac9bfc4edae3" target="_top" xlink:title="Set the symmetric key and set encryption service.">
<polygon fill="white" stroke="#666666" points="398,-44 205,-44 205,0 398,0 398,-44"/>
<text text-anchor="start" x="213" y="-30.5" font-family="Helvetica,sans-Serif" font-size="10.00">fr.softsf.sudokufx.config.database.</text>
<text text-anchor="start" x="213" y="-18.5" font-family="Helvetica,sans-Serif" font-size="10.00">ApplicationKeystore.symmetricKeyNotIn</text>
<text text-anchor="middle" x="301.5" y="-6.5" font-family="Helvetica,sans-Serif" font-size="10.00">Keystore</text>
</a>
</g>
</g>
<!-- Node1&#45;&gt;Node3 -->
<g id="edge2_Node000001_Node000003" class="edge">
<title>Node1&#45;&gt;Node3</title>
<g id="a_edge2_Node000001_Node000003"><a xlink:title=" ">
<path fill="none" stroke="#63b8ff" d="M169.24,-15.4C177.17,-15.3 185.29,-15.25 193.4,-15.25"/>
<polygon fill="#63b8ff" stroke="#63b8ff" points="193.33,-18.75 203.34,-15.28 193.35,-11.75 193.33,-18.75"/>
</a>
</g>
</g>
<!-- Node3&#45;&gt;Node1 -->
<g id="edge5_Node000003_Node000001" class="edge">
<title>Node3&#45;&gt;Node1</title>
<g id="a_edge5_Node000003_Node000001"><a xlink:title=" ">
<path fill="none" stroke="#63b8ff" d="M204.85,-28.71C196.78,-28.76 188.62,-28.76 180.56,-28.71"/>
<polygon fill="#63b8ff" stroke="#63b8ff" points="180.79,-25.21 170.75,-28.62 180.72,-32.21 180.79,-25.21"/>
</a>
</g>
</g>
<!-- Node4 -->
<g id="Node000004" class="node">
<title>Node4</title>
<g id="a_Node000004"><a xlink:href="classfr_1_1softsf_1_1sudokufx_1_1config_1_1database_1_1_application_keystore.html#a7b8751ac0c7de3f434f5500915e66c28" target="_top" xlink:title="Add alias:secret in the Keystore.">
<polygon fill="white" stroke="#666666" points="605.25,-38 434,-38 434,-6 605.25,-6 605.25,-38"/>
<text text-anchor="start" x="442" y="-24.5" font-family="Helvetica,sans-Serif" font-size="10.00">fr.softsf.sudokufx.config.database.</text>
<text text-anchor="middle" x="519.62" y="-12.5" font-family="Helvetica,sans-Serif" font-size="10.00">ApplicationKeystore.addToKeystore</text>
</a>
</g>
</g>
<!-- Node3&#45;&gt;Node4 -->
<g id="edge3_Node000003_Node000004" class="edge">
<title>Node3&#45;&gt;Node4</title>
<g id="a_edge3_Node000003_Node000004"><a xlink:title=" ">
<path fill="none" stroke="#63b8ff" d="M398.24,-22C406.3,-22 414.45,-22 422.51,-22"/>
<polygon fill="#63b8ff" stroke="#63b8ff" points="422.31,-25.5 432.31,-22 422.31,-18.5 422.31,-25.5"/>
</a>
</g>
</g>
<!-- Node5 -->
<g id="Node000005" class="node">
<title>Node5</title>
<g id="a_Node000005"><a xlink:href="classfr_1_1softsf_1_1sudokufx_1_1config_1_1database_1_1_application_keystore.html#a0e501fbe6c171c85658b7600afd03470" target="_top" xlink:title="Write data to the keystore file.">
<polygon fill="white" stroke="#666666" points="823.75,-38 641.25,-38 641.25,-6 823.75,-6 823.75,-38"/>
<text text-anchor="start" x="649.25" y="-24.5" font-family="Helvetica,sans-Serif" font-size="10.00">fr.softsf.sudokufx.config.database.</text>
<text text-anchor="middle" x="732.5" y="-12.5" font-family="Helvetica,sans-Serif" font-size="10.00">ApplicationKeystore.writeTheKeystore</text>
</a>
</g>
</g>
<!-- Node4&#45;&gt;Node5 -->
<g id="edge4_Node000004_Node000005" class="edge">
<title>Node4&#45;&gt;Node5</title>
<g id="a_edge4_Node000004_Node000005"><a xlink:title=" ">
<path fill="none" stroke="#63b8ff" d="M605.48,-22C613.42,-22 621.51,-22 629.58,-22"/>
<polygon fill="#63b8ff" stroke="#63b8ff" points="629.44,-25.5 639.44,-22 629.44,-18.5 629.44,-25.5"/>
</a>
</g>
</g>
</g>
</svg>
