<?xml version="1.0" encoding="UTF-8" standalone="no"?>
<!DOCTYPE svg PUBLIC "-//W3C//DTD SVG 1.1//EN"
 "http://www.w3.org/Graphics/SVG/1.1/DTD/svg11.dtd">
<!-- Generated by graphviz version 12.2.1 (20241206.2353)
 -->
<!-- Title: fr.softsf.sudokufx.viewmodel.grid.GridViewModel.getCurrentGridFromModel Pages: 1 -->
<!--zoomable 181 -->

<svg id="main" version="1.1" xmlns="http://www.w3.org/2000/svg" xmlns:xlink="http://www.w3.org/1999/xlink" xml:space="preserve" onload="init(evt)">

<style type="text/css"><![CDATA[
.node, .edge {opacity: 0.7;}
.node.selected, .edge.selected {opacity: 1;}
.edge:hover path { stroke: red; }
.edge:hover polygon { stroke: red; fill: red; }
]]></style>

<defs>
  <circle id="rim" cx="0" cy="0" r="7"/>
  <circle id="rim2" cx="0" cy="0" r="3.5"/>
  <g id="zoomPlus">
    <use xlink:href="#rim" fill="#404040"><set attributeName="fill" to="#808080" begin="zoomplus.mouseover" end="zoomplus.mouseout"/></use>
    <path d="M-4,0h8M0,-4v8" fill="none" stroke="white" stroke-width="1.5" pointer-events="none"/>
  </g>
  <g id="zoomMin">
    <use xlink:href="#rim" fill="#404040"><set attributeName="fill" to="#808080" begin="zoomminus.mouseover" end="zoomminus.mouseout"/></use>
    <path d="M-4,0h8" fill="none" stroke="white" stroke-width="1.5" pointer-events="none"/>
  </g>
  <g id="arrowUp" transform="translate(30 24)">
    <use xlink:href="#rim"/>
    <path pointer-events="none" fill="none" stroke="white" stroke-width="1.5" d="M0,-3.0v7 M-2.5,-0.5L0,-3.0L2.5,-0.5"/>
  </g>
  <g id="arrowRight" transform="rotate(90) translate(36 -43)">
    <use xlink:href="#rim"/>
    <path pointer-events="none" fill="none" stroke="white" stroke-width="1.5" d="M0,-3.0v7 M-2.5,-0.5L0,-3.0L2.5,-0.5"/>
  </g>
  <g id="arrowDown" transform="rotate(180) translate(-30 -48)">
    <use xlink:href="#rim"/>
    <path pointer-events="none" fill="none" stroke="white" stroke-width="1.5" d="M0,-3.0v7 M-2.5,-0.5L0,-3.0L2.5,-0.5"/>
  </g>
  <g id="arrowLeft" transform="rotate(270) translate(-36 17)">
    <use xlink:href="#rim"/>
    <path pointer-events="none" fill="none" stroke="white" stroke-width="1.5" d="M0,-3.0v7 M-2.5,-0.5L0,-3.0L2.5,-0.5"/>
  </g>
  <g id="resetDef">
    <use xlink:href="#rim2" fill="#404040"><set attributeName="fill" to="#808080" begin="reset.mouseover" end="reset.mouseout"/></use>
  </g>
</defs>
<script type="application/ecmascript">
var viewWidth = 619;
var viewHeight = 181;
var sectionId = 'dynsection-5';
</script>
<script type="application/ecmascript" xlink:href="svg.min.js"/>
<svg id="graph" class="graph">
<g id="viewport">
<title>fr.softsf.sudokufx.viewmodel.grid.GridViewModel.getCurrentGridFromModel</title>
<!-- Node1 -->
<g id="Node000001" class="node">
<title>Node1</title>
<g id="a_Node000001"><a xlink:title="Loads the current Sudoku grid from the model into the ViewModel.">
<polygon fill="#999999" stroke="#666666" points="197.5,-132 0,-132 0,-100 197.5,-100 197.5,-132"/>
<text text-anchor="start" x="8" y="-118.5" font-family="Helvetica,sans-Serif" font-size="10.00">fr.softsf.sudokufx.viewmodel.grid.</text>
<text text-anchor="middle" x="98.75" y="-106.5" font-family="Helvetica,sans-Serif" font-size="10.00">GridViewModel.getCurrentGridFromModel</text>
</a>
</g>
</g>
<!-- Node2 -->
<g id="Node000002" class="node">
<title>Node2</title>
<g id="a_Node000002"><a xlink:href="classfr_1_1softsf_1_1sudokufx_1_1viewmodel_1_1grid_1_1_grid_view_model.html#ace36956cb99bad46d1144460d8cde157" target="_top" xlink:title="Checks whether the GridViewModel has been initialized via init().">
<polygon fill="white" stroke="#666666" points="606.38,-166 442.62,-166 442.62,-134 606.38,-134 606.38,-166"/>
<text text-anchor="start" x="450.62" y="-152.5" font-family="Helvetica,sans-Serif" font-size="10.00">fr.softsf.sudokufx.viewmodel.grid.</text>
<text text-anchor="middle" x="524.5" y="-140.5" font-family="Helvetica,sans-Serif" font-size="10.00">GridViewModel.checkInitialized</text>
</a>
</g>
</g>
<!-- Node1&#45;&gt;Node2 -->
<g id="edge1_Node000001_Node000002" class="edge">
<title>Node1&#45;&gt;Node2</title>
<g id="a_edge1_Node000001_Node000002"><a xlink:title=" ">
<path fill="none" stroke="#63b8ff" d="M133.43,-132.44C159.92,-144.41 198.13,-159.6 233.5,-166 298.86,-177.82 373.73,-173.24 431.03,-166.01"/>
<polygon fill="#63b8ff" stroke="#63b8ff" points="431.29,-169.5 440.74,-164.73 430.37,-162.56 431.29,-169.5"/>
</a>
</g>
</g>
<!-- Node3 -->
<g id="Node000003" class="node">
<title>Node3</title>
<g id="a_Node000003"><a xlink:href="namespacefr_1_1softsf_1_1sudokufx_1_1viewmodel_1_1grid.html#ab18045075b2fc0497b7d6783282145e8" target="_top" xlink:title="Represents the current loaded Sudoku grid, including its difficulty level and the percentage of possi...">
<polygon fill="white" stroke="#666666" points="399.5,-157 235.75,-157 235.75,-125 399.5,-125 399.5,-157"/>
<text text-anchor="start" x="243.75" y="-143.5" font-family="Helvetica,sans-Serif" font-size="10.00">fr.softsf.sudokufx.viewmodel.grid.</text>
<text text-anchor="middle" x="317.62" y="-131.5" font-family="Helvetica,sans-Serif" font-size="10.00">CurrentGrid</text>
</a>
</g>
</g>
<!-- Node1&#45;&gt;Node3 -->
<g id="edge2_Node000001_Node000003" class="edge">
<title>Node1&#45;&gt;Node3</title>
<g id="a_edge2_Node000001_Node000003"><a xlink:title=" ">
<path fill="none" stroke="#63b8ff" d="M197.72,-127.29C206.46,-128.3 215.29,-129.32 223.99,-130.32"/>
<polygon fill="#63b8ff" stroke="#63b8ff" points="223.48,-133.79 233.82,-131.45 224.28,-126.83 223.48,-133.79"/>
</a>
</g>
</g>
<!-- Node4 -->
<g id="Node000004" class="node">
<title>Node4</title>
<g id="a_Node000004"><a xlink:href="enumfr_1_1softsf_1_1sudokufx_1_1common_1_1enums_1_1_difficulty_level.html#a7df76231e8b2c4e2180213007891b807" target="_top" xlink:title="Resolves a DifficultyLevel from its byte representation.">
<polygon fill="white" stroke="#666666" points="401.75,-107 233.5,-107 233.5,-75 401.75,-75 401.75,-107"/>
<text text-anchor="start" x="241.5" y="-93.5" font-family="Helvetica,sans-Serif" font-size="10.00">fr.softsf.sudokufx.common.enums.</text>
<text text-anchor="middle" x="317.62" y="-81.5" font-family="Helvetica,sans-Serif" font-size="10.00">DifficultyLevel.fromGridByte</text>
</a>
</g>
</g>
<!-- Node1&#45;&gt;Node4 -->
<g id="edge3_Node000001_Node000004" class="edge">
<title>Node1&#45;&gt;Node4</title>
<g id="a_edge3_Node000001_Node000004"><a xlink:title=" ">
<path fill="none" stroke="#63b8ff" d="M197.72,-104.71C205.73,-103.78 213.82,-102.85 221.81,-101.93"/>
<polygon fill="#63b8ff" stroke="#63b8ff" points="221.98,-105.43 231.51,-100.81 221.17,-98.48 221.98,-105.43"/>
</a>
</g>
</g>
<!-- Node5 -->
<g id="Node000005" class="node">
<title>Node5</title>
<g id="a_Node000005"><a xlink:href="classfr_1_1softsf_1_1sudokufx_1_1viewmodel_1_1grid_1_1_grid_view_model.html#ab7607876adb740f7f1d55b5016faba0c" target="_top" xlink:title="Sets all 81 cell values and optionally their editability.">
<polygon fill="white" stroke="#666666" points="399.5,-57 235.75,-57 235.75,-25 399.5,-25 399.5,-57"/>
<text text-anchor="start" x="243.75" y="-43.5" font-family="Helvetica,sans-Serif" font-size="10.00">fr.softsf.sudokufx.viewmodel.grid.</text>
<text text-anchor="middle" x="317.62" y="-31.5" font-family="Helvetica,sans-Serif" font-size="10.00">GridViewModel.setValues</text>
</a>
</g>
</g>
<!-- Node1&#45;&gt;Node5 -->
<g id="edge4_Node000001_Node000005" class="edge">
<title>Node1&#45;&gt;Node5</title>
<g id="a_edge4_Node000001_Node000005"><a xlink:title=" ">
<path fill="none" stroke="#63b8ff" d="M141.66,-99.52C167.9,-89.41 202.49,-76.45 233.5,-66 238.59,-64.29 243.87,-62.56 249.19,-60.87"/>
<polygon fill="#63b8ff" stroke="#63b8ff" points="250.19,-64.23 258.68,-57.9 248.09,-57.55 250.19,-64.23"/>
</a>
</g>
</g>
<!-- Node5&#45;&gt;Node2 -->
<g id="edge5_Node000005_Node000002" class="edge">
<title>Node5&#45;&gt;Node2</title>
<g id="a_edge5_Node000005_Node000002"><a xlink:title=" ">
<path fill="none" stroke="#63b8ff" d="M381.18,-57.47C388.24,-60.01 395.24,-62.86 401.75,-66 419.29,-74.47 421.73,-79.92 437.75,-91 455.11,-103 474.47,-116.33 490.4,-127.27"/>
<polygon fill="#63b8ff" stroke="#63b8ff" points="488.35,-130.11 498.58,-132.89 492.32,-124.34 488.35,-130.11"/>
</a>
</g>
</g>
<!-- Node6 -->
<g id="Node000006" class="node">
<title>Node6</title>
<g id="a_Node000006"><a xlink:href="classfr_1_1softsf_1_1sudokufx_1_1viewmodel_1_1grid_1_1_grid_cell_view_model.html#a1b2f5aa3c798e4aaf3e845aa59cde94c" target="_top" xlink:title=" ">
<polygon fill="white" stroke="#666666" points="610.88,-82 438.12,-82 438.12,-50 610.88,-50 610.88,-82"/>
<text text-anchor="start" x="446.12" y="-68.5" font-family="Helvetica,sans-Serif" font-size="10.00">fr.softsf.sudokufx.viewmodel.grid.</text>
<text text-anchor="middle" x="524.5" y="-56.5" font-family="Helvetica,sans-Serif" font-size="10.00">GridCellViewModel.editableProperty</text>
</a>
</g>
</g>
<!-- Node5&#45;&gt;Node6 -->
<g id="edge6_Node000005_Node000006" class="edge">
<title>Node5&#45;&gt;Node6</title>
<g id="a_edge6_Node000005_Node000006"><a xlink:title=" ">
<path fill="none" stroke="#63b8ff" d="M399.89,-50.92C408.69,-51.99 417.7,-53.09 426.66,-54.18"/>
<polygon fill="#63b8ff" stroke="#63b8ff" points="426.11,-57.64 436.46,-55.38 426.95,-50.69 426.11,-57.64"/>
</a>
</g>
</g>
<!-- Node7 -->
<g id="Node000007" class="node">
<title>Node7</title>
<g id="a_Node000007"><a xlink:href="classfr_1_1softsf_1_1sudokufx_1_1viewmodel_1_1grid_1_1_grid_cell_view_model.html#ae04f21e5c6df7750f4e8c79d600a9b6b" target="_top" xlink:title=" ">
<polygon fill="white" stroke="#666666" points="611.25,-32 437.75,-32 437.75,0 611.25,0 611.25,-32"/>
<text text-anchor="start" x="445.75" y="-18.5" font-family="Helvetica,sans-Serif" font-size="10.00">fr.softsf.sudokufx.viewmodel.grid.</text>
<text text-anchor="middle" x="524.5" y="-6.5" font-family="Helvetica,sans-Serif" font-size="10.00">GridCellViewModel.rawTextProperty</text>
</a>
</g>
</g>
<!-- Node5&#45;&gt;Node7 -->
<g id="edge7_Node000005_Node000007" class="edge">
<title>Node5&#45;&gt;Node7</title>
<g id="a_edge7_Node000005_Node000007"><a xlink:title=" ">
<path fill="none" stroke="#63b8ff" d="M399.89,-31.08C408.44,-30.04 417.19,-28.97 425.89,-27.91"/>
<polygon fill="#63b8ff" stroke="#63b8ff" points="426.28,-31.39 435.78,-26.7 425.43,-24.44 426.28,-31.39"/>
</a>
</g>
</g>
</g>
</svg>

<g id="navigator" transform="translate(0 0)" fill="#404254">
  <rect fill="#f2f5e9" fill-opacity="0.5" stroke="#606060" stroke-width=".5" x="0" y="0" width="60" height="60"/>
  <use id="zoomplus" xlink:href="#zoomPlus" x="17" y="9" onmousedown="handleZoom(evt,'in')"/>
  <use id="zoomminus" xlink:href="#zoomMin" x="42" y="9" onmousedown="handleZoom(evt,'out')"/>
  <use id="reset" xlink:href="#resetDef" x="30" y="36" onmousedown="handleReset()"/>
   <use id="arrowup" xlink:href="#arrowUp" x="0" y="0" onmousedown="handlePan(0,-1)"/>
  <use id="arrowright" xlink:href="#arrowRight" x="0" y="0" onmousedown="handlePan(1,0)"/>
  <use id="arrowdown" xlink:href="#arrowDown" x="0" y="0" onmousedown="handlePan(0,1)"/>
  <use id="arrowleft" xlink:href="#arrowLeft" x="0" y="0" onmousedown="handlePan(-1,0)"/>
</g>
<svg viewBox="0 0 15 15" width="100%" height="30px" preserveAspectRatio="xMaxYMin meet">
 <g id="arrow_out" transform="scale(0.3 0.3)">
  <a xlink:href="classfr_1_1softsf_1_1sudokufx_1_1viewmodel_1_1grid_1_1_grid_view_model_a3ae2327e3a29d25f4bdc6198657813bf_cgraph_org.svg" target="_base">
   <rect id="button" ry="5" rx="5" y="6" x="6" height="38" width="38"
        fill="#f2f5e9" fill-opacity="0.5" stroke="#606060" stroke-width="1.0"/>
   <path id="arrow"
     d="M 11.500037,31.436501 C 11.940474,20.09759 22.043105,11.32322 32.158766,21.979434 L 37.068811,17.246167 C 37.068811,17.246167 37.088388,32 37.088388,32 L 22.160133,31.978069 C 22.160133,31.978069 26.997745,27.140456 26.997745,27.140456 C 18.528582,18.264221 13.291696,25.230495 11.500037,31.436501 z"
     style="fill:#404040;"/>
  </a>
 </g>
</svg>

<style type='text/css'>
<![CDATA[
[data-mouse-over-selected='false'] { opacity: 0.7; }
[data-mouse-over-selected='true']  { opacity: 1.0; }
]]>
</style>
<script type="application/ecmascript"><![CDATA[
document.addEventListener('DOMContentLoaded', (event) => {
  highlightEdges();
  highlightAdjacentNodes();
});
]]></script>
</svg>
