<?xml version="1.0" encoding="UTF-8" standalone="no"?>
<!DOCTYPE svg PUBLIC "-//W3C//DTD SVG 1.1//EN"
 "http://www.w3.org/Graphics/SVG/1.1/DTD/svg11.dtd">
<!-- Generated by graphviz version 12.2.1 (20241206.2353)
 -->
<!-- Title: fr.softsf.sudokufx.SudoMain Pages: 1 -->
<!--zoomable 756 -->

<svg id="main" version="1.1" xmlns="http://www.w3.org/2000/svg" xmlns:xlink="http://www.w3.org/1999/xlink" xml:space="preserve" onload="init(evt)">

<style type="text/css"><![CDATA[
.node, .edge {opacity: 0.7;}
.node.selected, .edge.selected {opacity: 1;}
.edge:hover path { stroke: red; }
.edge:hover polygon { stroke: red; fill: red; }
]]></style>

<defs>
  <circle id="rim" cx="0" cy="0" r="7"/>
  <circle id="rim2" cx="0" cy="0" r="3.5"/>
  <g id="zoomPlus">
    <use xlink:href="#rim" fill="#404040"><set attributeName="fill" to="#808080" begin="zoomplus.mouseover" end="zoomplus.mouseout"/></use>
    <path d="M-4,0h8M0,-4v8" fill="none" stroke="white" stroke-width="1.5" pointer-events="none"/>
  </g>
  <g id="zoomMin">
    <use xlink:href="#rim" fill="#404040"><set attributeName="fill" to="#808080" begin="zoomminus.mouseover" end="zoomminus.mouseout"/></use>
    <path d="M-4,0h8" fill="none" stroke="white" stroke-width="1.5" pointer-events="none"/>
  </g>
  <g id="arrowUp" transform="translate(30 24)">
    <use xlink:href="#rim"/>
    <path pointer-events="none" fill="none" stroke="white" stroke-width="1.5" d="M0,-3.0v7 M-2.5,-0.5L0,-3.0L2.5,-0.5"/>
  </g>
  <g id="arrowRight" transform="rotate(90) translate(36 -43)">
    <use xlink:href="#rim"/>
    <path pointer-events="none" fill="none" stroke="white" stroke-width="1.5" d="M0,-3.0v7 M-2.5,-0.5L0,-3.0L2.5,-0.5"/>
  </g>
  <g id="arrowDown" transform="rotate(180) translate(-30 -48)">
    <use xlink:href="#rim"/>
    <path pointer-events="none" fill="none" stroke="white" stroke-width="1.5" d="M0,-3.0v7 M-2.5,-0.5L0,-3.0L2.5,-0.5"/>
  </g>
  <g id="arrowLeft" transform="rotate(270) translate(-36 17)">
    <use xlink:href="#rim"/>
    <path pointer-events="none" fill="none" stroke="white" stroke-width="1.5" d="M0,-3.0v7 M-2.5,-0.5L0,-3.0L2.5,-0.5"/>
  </g>
  <g id="resetDef">
    <use xlink:href="#rim2" fill="#404040"><set attributeName="fill" to="#808080" begin="reset.mouseover" end="reset.mouseout"/></use>
  </g>
</defs>
<script type="application/ecmascript">
var viewWidth = 628;
var viewHeight = 756;
var sectionId = 'dynsection-1';
</script>
<script type="application/ecmascript" xlink:href="svg.min.js"/>
<svg id="graph" class="graph">
<g id="viewport">
<title>fr.softsf.sudokufx.SudoMain</title>
<!-- Node1 -->
<g id="Node000001" class="node">
<title>Node1</title>
<g id="a_Node000001"><a xlink:title="Entry point of the Sudo application.">
<polygon fill="#999999" stroke="none" points="334.88,-288 151.12,-288 151.12,0 334.88,0 334.88,-288"/>
<text text-anchor="start" x="181.5" y="-274.5" font-family="Helvetica,sans-Serif" font-size="10.00">fr.softsf.sudokufx.SudoMain</text>
<text text-anchor="start" x="156.62" y="-258.5" font-family="Helvetica,sans-Serif" font-size="10.00">&#45;</text>
<text text-anchor="start" x="165.12" y="-258.5" font-family="Helvetica,sans-Serif" font-size="10.00">final SpringContext</text>
<text text-anchor="start" x="165.12" y="-246.5" font-family="Helvetica,sans-Serif" font-size="10.00"> context</text>
<text text-anchor="start" x="156.62" y="-230.5" font-family="Helvetica,sans-Serif" font-size="10.00">&#45;</text>
<text text-anchor="start" x="165.12" y="-230.5" font-family="Helvetica,sans-Serif" font-size="10.00">Stage stage</text>
<text text-anchor="start" x="156.62" y="-214.5" font-family="Helvetica,sans-Serif" font-size="10.00">&#45;</text>
<text text-anchor="start" x="165.12" y="-214.5" font-family="Helvetica,sans-Serif" font-size="10.00">static final Logger log</text>
<text text-anchor="start" x="155.12" y="-198.5" font-family="Helvetica,sans-Serif" font-size="10.00">+</text>
<text text-anchor="start" x="165.12" y="-198.5" font-family="Helvetica,sans-Serif" font-size="10.00">void start(final Stage</text>
<text text-anchor="start" x="165.12" y="-186.5" font-family="Helvetica,sans-Serif" font-size="10.00"> stage)</text>
<text text-anchor="start" x="155.12" y="-170.5" font-family="Helvetica,sans-Serif" font-size="10.00">+</text>
<text text-anchor="start" x="165.12" y="-170.5" font-family="Helvetica,sans-Serif" font-size="10.00">static void main(String</text>
<text text-anchor="start" x="165.12" y="-158.5" font-family="Helvetica,sans-Serif" font-size="10.00">[] args)</text>
<text text-anchor="start" x="156.62" y="-142.5" font-family="Helvetica,sans-Serif" font-size="10.00">&#45;</text>
<text text-anchor="start" x="165.12" y="-142.5" font-family="Helvetica,sans-Serif" font-size="10.00">PauseTransition createView</text>
<text text-anchor="start" x="165.12" y="-130.5" font-family="Helvetica,sans-Serif" font-size="10.00">Transition(String fxmlName,</text>
<text text-anchor="start" x="165.12" y="-118.5" font-family="Helvetica,sans-Serif" font-size="10.00"> long minimumTimelapse)</text>
<text text-anchor="start" x="156.62" y="-102.5" font-family="Helvetica,sans-Serif" font-size="10.00">&#45;</text>
<text text-anchor="start" x="165.12" y="-102.5" font-family="Helvetica,sans-Serif" font-size="10.00">void handleSpringContext</text>
<text text-anchor="start" x="165.12" y="-90.5" font-family="Helvetica,sans-Serif" font-size="10.00">TaskFailed(Throwable throwable)</text>
<text text-anchor="start" x="156.62" y="-74.5" font-family="Helvetica,sans-Serif" font-size="10.00">&#45;</text>
<text text-anchor="start" x="165.12" y="-74.5" font-family="Helvetica,sans-Serif" font-size="10.00">void handleSpringContext</text>
<text text-anchor="start" x="165.12" y="-62.5" font-family="Helvetica,sans-Serif" font-size="10.00">TaskSuccess(long startTime)</text>
<text text-anchor="start" x="156.62" y="-46.5" font-family="Helvetica,sans-Serif" font-size="10.00">&#45;</text>
<text text-anchor="start" x="165.12" y="-46.5" font-family="Helvetica,sans-Serif" font-size="10.00">void initializeCoordinator()</text>
<text text-anchor="start" x="156.62" y="-30.5" font-family="Helvetica,sans-Serif" font-size="10.00">&#45;</text>
<text text-anchor="start" x="165.12" y="-30.5" font-family="Helvetica,sans-Serif" font-size="10.00">static void sqlInvalidAuthorization</text>
<text text-anchor="start" x="165.12" y="-18.5" font-family="Helvetica,sans-Serif" font-size="10.00">(Exception e, SQLInvalidAuthorization</text>
<text text-anchor="start" x="165.12" y="-6.5" font-family="Helvetica,sans-Serif" font-size="10.00">SpecException sqlException)</text>
<polygon fill="#666666" stroke="#666666" points="151.12,-270 151.12,-270 334.88,-270 334.88,-270 151.12,-270"/>
<polygon fill="#666666" stroke="#666666" points="151.12,-210 151.12,-210 163.12,-210 163.12,-210 151.12,-210"/>
<polygon fill="#666666" stroke="#666666" points="163.12,-210 163.12,-210 334.88,-210 334.88,-210 163.12,-210"/>
<polygon fill="none" stroke="#666666" points="151.12,0 151.12,-288 334.88,-288 334.88,0 151.12,0"/>
</a>
</g>
</g>
<!-- Node2 -->
<g id="Node000002" class="node">
<title>Node2</title>
<g id="a_Node000002"><a xlink:title=" ">
<polygon fill="white" stroke="none" points="56,-474 0,-474 0,-422 56,-422 56,-474"/>
<text text-anchor="start" x="4" y="-460.5" font-family="Helvetica,sans-Serif" font-size="10.00">Application</text>
<text text-anchor="start" x="26.5" y="-444.5" font-family="Helvetica,sans-Serif" font-size="10.00"> </text>
<text text-anchor="start" x="26.5" y="-428.5" font-family="Helvetica,sans-Serif" font-size="10.00"> </text>
<polygon fill="#666666" stroke="#666666" points="0,-456 0,-456 56,-456 56,-456 0,-456"/>
<polygon fill="#666666" stroke="#666666" points="0,-440 0,-440 56,-440 56,-440 0,-440"/>
<polygon fill="none" stroke="#666666" points="0,-422 0,-474 56,-474 56,-422 0,-422"/>
</a>
</g>
</g>
<!-- Node2&#45;&gt;Node1 -->
<g id="edge1_Node000001_Node000002" class="edge">
<title>Node2&#45;&gt;Node1</title>
<g id="a_edge1_Node000001_Node000002"><a xlink:title=" ">
<path fill="none" stroke="#63b8ff" d="M35.77,-411.19C41.66,-388.59 51.13,-359.35 65,-336 88.26,-296.83 120.69,-258.98 151.51,-227.45"/>
<polygon fill="none" stroke="#63b8ff" points="32.38,-410.32 33.38,-420.87 39.17,-412 32.38,-410.32"/>
</a>
</g>
</g>
<!-- Node3 -->
<g id="Node000003" class="node">
<title>Node3</title>
<g id="a_Node000003"><a xlink:href="interfacefr_1_1softsf_1_1sudokufx_1_1interfaces_1_1_i_splash_screen_view.html" target="_top" xlink:title="Provides basic control over the splash screen visibility and access to its scene.">
<polygon fill="white" stroke="none" points="230.38,-496 73.62,-496 73.62,-400 230.38,-400 230.38,-496"/>
<text text-anchor="start" x="89.38" y="-482.5" font-family="Helvetica,sans-Serif" font-size="10.00">fr.softsf.sudokufx.interfaces.</text>
<text text-anchor="start" x="109.25" y="-470.5" font-family="Helvetica,sans-Serif" font-size="10.00">ISplashScreenView</text>
<text text-anchor="start" x="150.5" y="-454.5" font-family="Helvetica,sans-Serif" font-size="10.00"> </text>
<text text-anchor="start" x="77.62" y="-438.5" font-family="Helvetica,sans-Serif" font-size="10.00">+</text>
<text text-anchor="start" x="87.62" y="-438.5" font-family="Helvetica,sans-Serif" font-size="10.00">Scene getSplashScreenScene()</text>
<text text-anchor="start" x="77.62" y="-422.5" font-family="Helvetica,sans-Serif" font-size="10.00">+</text>
<text text-anchor="start" x="87.62" y="-422.5" font-family="Helvetica,sans-Serif" font-size="10.00">void hideSplashScreen()</text>
<text text-anchor="start" x="77.62" y="-406.5" font-family="Helvetica,sans-Serif" font-size="10.00">+</text>
<text text-anchor="start" x="87.62" y="-406.5" font-family="Helvetica,sans-Serif" font-size="10.00">void showSplashScreen()</text>
<polygon fill="#666666" stroke="#666666" points="73.62,-466 73.62,-466 230.38,-466 230.38,-466 73.62,-466"/>
<polygon fill="#666666" stroke="#666666" points="73.62,-450 73.62,-450 230.38,-450 230.38,-450 73.62,-450"/>
<polygon fill="none" stroke="#666666" points="73.62,-400 73.62,-496 230.38,-496 230.38,-400 73.62,-400"/>
</a>
</g>
</g>
<!-- Node3&#45;&gt;Node1 -->
<g id="edge2_Node000001_Node000003" class="edge">
<title>Node3&#45;&gt;Node1</title>
<g id="a_edge2_Node000001_Node000003"><a xlink:title=" ">
<path fill="none" stroke="#63b8ff" d="M166.12,-400.14C174.35,-372.83 185.25,-336.65 196.25,-300.15"/>
<polygon fill="none" stroke="#63b8ff" points="196.26,-300.12 194.16,-293.23 199.72,-288.63 201.82,-295.53 196.26,-300.12"/>
</a>
</g>
<text text-anchor="middle" x="237.43" y="-308.5" font-family="Helvetica,sans-Serif" font-size="10.00" fill="grey"> &#45;iSplashScreenView</text>
</g>
<!-- Node4 -->
<g id="Node000004" class="node">
<title>Node4</title>
<g id="a_Node000004"><a xlink:href="interfacefr_1_1softsf_1_1sudokufx_1_1interfaces_1_1_i_main_view.html" target="_top" xlink:title="Interface defining method to open the main stage.">
<polygon fill="white" stroke="none" points="421.25,-492 248.75,-492 248.75,-404 421.25,-404 421.25,-492"/>
<text text-anchor="start" x="272.38" y="-478.5" font-family="Helvetica,sans-Serif" font-size="10.00">fr.softsf.sudokufx.interfaces.</text>
<text text-anchor="start" x="312.12" y="-466.5" font-family="Helvetica,sans-Serif" font-size="10.00">IMainView</text>
<text text-anchor="start" x="333.5" y="-450.5" font-family="Helvetica,sans-Serif" font-size="10.00"> </text>
<text text-anchor="start" x="252.75" y="-434.5" font-family="Helvetica,sans-Serif" font-size="10.00">+</text>
<text text-anchor="start" x="262.75" y="-434.5" font-family="Helvetica,sans-Serif" font-size="10.00">void openingMainStage</text>
<text text-anchor="start" x="262.75" y="-422.5" font-family="Helvetica,sans-Serif" font-size="10.00">(ISplashScreenView iSplashScreen</text>
<text text-anchor="start" x="262.75" y="-410.5" font-family="Helvetica,sans-Serif" font-size="10.00">View)</text>
<polygon fill="#666666" stroke="#666666" points="248.75,-462 248.75,-462 421.25,-462 421.25,-462 248.75,-462"/>
<polygon fill="#666666" stroke="#666666" points="248.75,-446 248.75,-446 421.25,-446 421.25,-446 248.75,-446"/>
<polygon fill="none" stroke="#666666" points="248.75,-404 248.75,-492 421.25,-492 421.25,-404 248.75,-404"/>
</a>
</g>
</g>
<!-- Node4&#45;&gt;Node1 -->
<g id="edge3_Node000001_Node000004" class="edge">
<title>Node4&#45;&gt;Node1</title>
<g id="a_edge3_Node000001_Node000004"><a xlink:title=" ">
<path fill="none" stroke="#63b8ff" d="M321.92,-404.05C313.48,-376.35 301.94,-338.47 290.29,-300.22"/>
<polygon fill="none" stroke="#63b8ff" points="290.26,-300.14 284.69,-295.57 286.77,-288.67 292.34,-293.24 290.26,-300.14"/>
</a>
</g>
<text text-anchor="middle" x="320.01" y="-308.5" font-family="Helvetica,sans-Serif" font-size="10.00" fill="grey"> &#45;iMainView</text>
</g>
<!-- Node5 -->
<g id="Node000005" class="node">
<title>Node5</title>
<g id="a_Node000005"><a xlink:href="classfr_1_1softsf_1_1sudokufx_1_1navigation_1_1_coordinator.html" target="_top" xlink:title="Coordinator is a Spring&#45;managed component responsible for navigation and UI updates in a JavaFX appli...">
<polygon fill="white" stroke="none" points="620.38,-560 439.62,-560 439.62,-336 620.38,-336 620.38,-560"/>
<text text-anchor="start" x="466.62" y="-546.5" font-family="Helvetica,sans-Serif" font-size="10.00">fr.softsf.sudokufx.navigation.</text>
<text text-anchor="start" x="504.88" y="-534.5" font-family="Helvetica,sans-Serif" font-size="10.00">Coordinator</text>
<text text-anchor="start" x="445.12" y="-518.5" font-family="Helvetica,sans-Serif" font-size="10.00">&#45;</text>
<text text-anchor="start" x="453.62" y="-518.5" font-family="Helvetica,sans-Serif" font-size="10.00">Scene defaultScene</text>
<text text-anchor="start" x="445.12" y="-502.5" font-family="Helvetica,sans-Serif" font-size="10.00">&#45;</text>
<text text-anchor="start" x="453.62" y="-502.5" font-family="Helvetica,sans-Serif" font-size="10.00">final FXMLLoader fxmlLoader</text>
<text text-anchor="start" x="445.12" y="-486.5" font-family="Helvetica,sans-Serif" font-size="10.00">&#45;</text>
<text text-anchor="start" x="453.62" y="-486.5" font-family="Helvetica,sans-Serif" font-size="10.00">static final Logger log</text>
<text text-anchor="start" x="443.62" y="-470.5" font-family="Helvetica,sans-Serif" font-size="10.00">+</text>
<text text-anchor="start" x="453.62" y="-470.5" font-family="Helvetica,sans-Serif" font-size="10.00">Coordinator(FXMLLoader</text>
<text text-anchor="start" x="453.62" y="-458.5" font-family="Helvetica,sans-Serif" font-size="10.00"> fxmlLoader)</text>
<text text-anchor="start" x="443.62" y="-442.5" font-family="Helvetica,sans-Serif" font-size="10.00">+</text>
<text text-anchor="start" x="453.62" y="-442.5" font-family="Helvetica,sans-Serif" font-size="10.00">Scene getDefaultScene()</text>
<text text-anchor="start" x="443.62" y="-426.5" font-family="Helvetica,sans-Serif" font-size="10.00">+</text>
<text text-anchor="start" x="453.62" y="-426.5" font-family="Helvetica,sans-Serif" font-size="10.00">void setDefaultScene</text>
<text text-anchor="start" x="453.62" y="-414.5" font-family="Helvetica,sans-Serif" font-size="10.00">(Scene scene)</text>
<text text-anchor="start" x="443.62" y="-398.5" font-family="Helvetica,sans-Serif" font-size="10.00">+</text>
<text text-anchor="start" x="453.62" y="-398.5" font-family="Helvetica,sans-Serif" font-size="10.00">void setDynamicFontSize</text>
<text text-anchor="start" x="453.62" y="-386.5" font-family="Helvetica,sans-Serif" font-size="10.00">(DynamicFontSize dynamicFontSize)</text>
<text text-anchor="start" x="443.62" y="-370.5" font-family="Helvetica,sans-Serif" font-size="10.00">+</text>
<text text-anchor="start" x="453.62" y="-370.5" font-family="Helvetica,sans-Serif" font-size="10.00">void toggleLanguage()</text>
<text text-anchor="start" x="443.62" y="-354.5" font-family="Helvetica,sans-Serif" font-size="10.00">~</text>
<text text-anchor="start" x="453.62" y="-354.5" font-family="Helvetica,sans-Serif" font-size="10.00">public&lt; T &gt; T setRootByFXMLName</text>
<text text-anchor="start" x="453.62" y="-342.5" font-family="Helvetica,sans-Serif" font-size="10.00">(final String fxml)</text>
<polygon fill="#666666" stroke="#666666" points="439.62,-530 439.62,-530 620.38,-530 620.38,-530 439.62,-530"/>
<polygon fill="#666666" stroke="#666666" points="439.62,-482 439.62,-482 451.62,-482 451.62,-482 439.62,-482"/>
<polygon fill="#666666" stroke="#666666" points="451.62,-482 451.62,-482 620.38,-482 620.38,-482 451.62,-482"/>
<polygon fill="none" stroke="#666666" points="439.62,-336 439.62,-560 620.38,-560 620.38,-336 439.62,-336"/>
</a>
</g>
</g>
<!-- Node5&#45;&gt;Node1 -->
<g id="edge4_Node000001_Node000005" class="edge">
<title>Node5&#45;&gt;Node1</title>
<g id="a_edge4_Node000001_Node000005"><a xlink:title=" ">
<path fill="none" stroke="#63b8ff" d="M439.7,-346.39C436.44,-342.88 433.2,-339.4 430,-336 402.34,-306.55 371.86,-275.03 343.68,-246.26"/>
<polygon fill="none" stroke="#63b8ff" points="343.65,-246.24 336.59,-244.75 335.25,-237.67 342.3,-239.15 343.65,-246.24"/>
</a>
</g>
<text text-anchor="middle" x="437.08" y="-308.5" font-family="Helvetica,sans-Serif" font-size="10.00" fill="grey"> &#45;coordinator</text>
</g>
<!-- Node6 -->
<g id="Node000006" class="node">
<title>Node6</title>
<g id="a_Node000006"><a xlink:href="classfr_1_1softsf_1_1sudokufx_1_1utils_1_1_dynamic_font_size.html" target="_top" xlink:title="Manages dynamic font sizing based on the dimensions of a JavaFX Scene.">
<polygon fill="white" stroke="none" points="600.12,-748 459.88,-748 459.88,-608 600.12,-608 600.12,-748"/>
<text text-anchor="start" x="479.75" y="-734.5" font-family="Helvetica,sans-Serif" font-size="10.00">fr.softsf.sudokufx.utils.</text>
<text text-anchor="start" x="491" y="-722.5" font-family="Helvetica,sans-Serif" font-size="10.00">DynamicFontSize</text>
<text text-anchor="start" x="465.38" y="-706.5" font-family="Helvetica,sans-Serif" font-size="10.00">&#45;</text>
<text text-anchor="start" x="473.88" y="-706.5" font-family="Helvetica,sans-Serif" font-size="10.00">double currentFontSize</text>
<text text-anchor="start" x="465.38" y="-690.5" font-family="Helvetica,sans-Serif" font-size="10.00">&#45;</text>
<text text-anchor="start" x="473.88" y="-690.5" font-family="Helvetica,sans-Serif" font-size="10.00">final Scene scene</text>
<text text-anchor="start" x="463.88" y="-674.5" font-family="Helvetica,sans-Serif" font-size="10.00">+</text>
<text text-anchor="start" x="473.88" y="-674.5" font-family="Helvetica,sans-Serif" font-size="10.00">DynamicFontSize(Scene</text>
<text text-anchor="start" x="473.88" y="-662.5" font-family="Helvetica,sans-Serif" font-size="10.00"> scene)</text>
<text text-anchor="start" x="463.88" y="-646.5" font-family="Helvetica,sans-Serif" font-size="10.00">+</text>
<text text-anchor="start" x="473.88" y="-646.5" font-family="Helvetica,sans-Serif" font-size="10.00">double getCurrentFontSize()</text>
<text text-anchor="start" x="463.88" y="-630.5" font-family="Helvetica,sans-Serif" font-size="10.00">+</text>
<text text-anchor="start" x="473.88" y="-630.5" font-family="Helvetica,sans-Serif" font-size="10.00">void updateFontSize()</text>
<text text-anchor="start" x="465.38" y="-614.5" font-family="Helvetica,sans-Serif" font-size="10.00">&#45;</text>
<text text-anchor="start" x="473.88" y="-614.5" font-family="Helvetica,sans-Serif" font-size="10.00">void initialize()</text>
<polygon fill="#666666" stroke="#666666" points="459.88,-718 459.88,-718 600.12,-718 600.12,-718 459.88,-718"/>
<polygon fill="#666666" stroke="#666666" points="459.88,-686 459.88,-686 471.88,-686 471.88,-686 459.88,-686"/>
<polygon fill="#666666" stroke="#666666" points="471.88,-686 471.88,-686 600.12,-686 600.12,-686 471.88,-686"/>
<polygon fill="none" stroke="#666666" points="459.88,-608 459.88,-748 600.12,-748 600.12,-608 459.88,-608"/>
</a>
</g>
</g>
<!-- Node6&#45;&gt;Node5 -->
<g id="edge5_Node000005_Node000006" class="edge">
<title>Node6&#45;&gt;Node5</title>
<g id="a_edge5_Node000005_Node000006"><a xlink:title=" ">
<path fill="none" stroke="#63b8ff" d="M530,-608.28C530,-596.9 530,-584.79 530,-572.54"/>
<polygon fill="none" stroke="#63b8ff" points="530,-572.64 526,-566.64 530,-560.64 534,-566.64 530,-572.64"/>
</a>
</g>
<text text-anchor="middle" x="570.88" y="-580.5" font-family="Helvetica,sans-Serif" font-size="10.00" fill="grey"> &#45;dynamicFontSize</text>
</g>
</g>
</svg>

<g id="navigator" transform="translate(0 0)" fill="#404254">
  <rect fill="#f2f5e9" fill-opacity="0.5" stroke="#606060" stroke-width=".5" x="0" y="0" width="60" height="60"/>
  <use id="zoomplus" xlink:href="#zoomPlus" x="17" y="9" onmousedown="handleZoom(evt,'in')"/>
  <use id="zoomminus" xlink:href="#zoomMin" x="42" y="9" onmousedown="handleZoom(evt,'out')"/>
  <use id="reset" xlink:href="#resetDef" x="30" y="36" onmousedown="handleReset()"/>
   <use id="arrowup" xlink:href="#arrowUp" x="0" y="0" onmousedown="handlePan(0,-1)"/>
  <use id="arrowright" xlink:href="#arrowRight" x="0" y="0" onmousedown="handlePan(1,0)"/>
  <use id="arrowdown" xlink:href="#arrowDown" x="0" y="0" onmousedown="handlePan(0,1)"/>
  <use id="arrowleft" xlink:href="#arrowLeft" x="0" y="0" onmousedown="handlePan(-1,0)"/>
</g>
<svg viewBox="0 0 15 15" width="100%" height="30px" preserveAspectRatio="xMaxYMin meet">
 <g id="arrow_out" transform="scale(0.3 0.3)">
  <a xlink:href="classfr_1_1softsf_1_1sudokufx_1_1_sudo_main__coll__graph_org.svg" target="_base">
   <rect id="button" ry="5" rx="5" y="6" x="6" height="38" width="38"
        fill="#f2f5e9" fill-opacity="0.5" stroke="#606060" stroke-width="1.0"/>
   <path id="arrow"
     d="M 11.500037,31.436501 C 11.940474,20.09759 22.043105,11.32322 32.158766,21.979434 L 37.068811,17.246167 C 37.068811,17.246167 37.088388,32 37.088388,32 L 22.160133,31.978069 C 22.160133,31.978069 26.997745,27.140456 26.997745,27.140456 C 18.528582,18.264221 13.291696,25.230495 11.500037,31.436501 z"
     style="fill:#404040;"/>
  </a>
 </g>
</svg>

<style type='text/css'>
<![CDATA[
[data-mouse-over-selected='false'] { opacity: 0.7; }
[data-mouse-over-selected='true']  { opacity: 1.0; }
]]>
</style>
<script type="application/ecmascript"><![CDATA[
document.addEventListener('DOMContentLoaded', (event) => {
  highlightEdges();
  highlightAdjacentNodes();
});
]]></script>
</svg>
