<?xml version="1.0" encoding="UTF-8" standalone="no"?>
<!DOCTYPE svg PUBLIC "-//W3C//DTD SVG 1.1//EN"
 "http://www.w3.org/Graphics/SVG/1.1/DTD/svg11.dtd">
<!-- Generated by graphviz version 12.2.1 (20241206.2353)
 -->
<!-- Title: fr.softsf.sudokufx.viewmodel.MenuOptionsViewModelndleFileImageChooser Pages: 1 -->
<!--zoomable 217 -->

<svg id="main" version="1.1" xmlns="http://www.w3.org/2000/svg" xmlns:xlink="http://www.w3.org/1999/xlink" xml:space="preserve" onload="init(evt)">

<style type="text/css"><![CDATA[
.node, .edge {opacity: 0.7;}
.node.selected, .edge.selected {opacity: 1;}
.edge:hover path { stroke: red; }
.edge:hover polygon { stroke: red; fill: red; }
]]></style>

<defs>
  <circle id="rim" cx="0" cy="0" r="7"/>
  <circle id="rim2" cx="0" cy="0" r="3.5"/>
  <g id="zoomPlus">
    <use xlink:href="#rim" fill="#404040"><set attributeName="fill" to="#808080" begin="zoomplus.mouseover" end="zoomplus.mouseout"/></use>
    <path d="M-4,0h8M0,-4v8" fill="none" stroke="white" stroke-width="1.5" pointer-events="none"/>
  </g>
  <g id="zoomMin">
    <use xlink:href="#rim" fill="#404040"><set attributeName="fill" to="#808080" begin="zoomminus.mouseover" end="zoomminus.mouseout"/></use>
    <path d="M-4,0h8" fill="none" stroke="white" stroke-width="1.5" pointer-events="none"/>
  </g>
  <g id="arrowUp" transform="translate(30 24)">
    <use xlink:href="#rim"/>
    <path pointer-events="none" fill="none" stroke="white" stroke-width="1.5" d="M0,-3.0v7 M-2.5,-0.5L0,-3.0L2.5,-0.5"/>
  </g>
  <g id="arrowRight" transform="rotate(90) translate(36 -43)">
    <use xlink:href="#rim"/>
    <path pointer-events="none" fill="none" stroke="white" stroke-width="1.5" d="M0,-3.0v7 M-2.5,-0.5L0,-3.0L2.5,-0.5"/>
  </g>
  <g id="arrowDown" transform="rotate(180) translate(-30 -48)">
    <use xlink:href="#rim"/>
    <path pointer-events="none" fill="none" stroke="white" stroke-width="1.5" d="M0,-3.0v7 M-2.5,-0.5L0,-3.0L2.5,-0.5"/>
  </g>
  <g id="arrowLeft" transform="rotate(270) translate(-36 17)">
    <use xlink:href="#rim"/>
    <path pointer-events="none" fill="none" stroke="white" stroke-width="1.5" d="M0,-3.0v7 M-2.5,-0.5L0,-3.0L2.5,-0.5"/>
  </g>
  <g id="resetDef">
    <use xlink:href="#rim2" fill="#404040"><set attributeName="fill" to="#808080" begin="reset.mouseover" end="reset.mouseout"/></use>
  </g>
</defs>
<script type="application/ecmascript">
var viewWidth = 1391;
var viewHeight = 217;
var sectionId = 'dynsection-2';
</script>
<script type="application/ecmascript" xlink:href="svg.min.js"/>
<svg id="graph" class="graph">
<g id="viewport">
<title>fr.softsf.sudokufx.viewmodel.MenuOptionsViewModel.handleFileImageChooser</title>
<!-- Node1 -->
<g id="Node000001" class="node">
<title>Node1</title>
<g id="a_Node000001"><a xlink:title="Handles image file selection by validating the file format and starting the image loading process.">
<polygon fill="#999999" stroke="#666666" points="187,-162.22 0,-162.22 0,-118.22 187,-118.22 187,-162.22"/>
<text text-anchor="start" x="8" y="-148.72" font-family="Helvetica,sans-Serif" font-size="10.00">fr.softsf.sudokufx.viewmodel.</text>
<text text-anchor="start" x="8" y="-136.72" font-family="Helvetica,sans-Serif" font-size="10.00">MenuBackgroundViewModel.handleFile</text>
<text text-anchor="middle" x="93.5" y="-124.72" font-family="Helvetica,sans-Serif" font-size="10.00">ImageChooser</text>
</a>
</g>
</g>
<!-- Node2 -->
<g id="Node000002" class="node">
<title>Node2</title>
<g id="a_Node000002"><a xlink:href="classfr_1_1softsf_1_1sudokufx_1_1view_1_1component_1_1toaster_1_1_toaster_v_box.html#ad5dd108caa143c370a7e22825923a776" target="_top" xlink:title="Adds a toast notification with an automatically calculated duration based on text length.">
<polygon fill="white" stroke="#666666" points="907,-159.22 705,-159.22 705,-127.22 907,-127.22 907,-159.22"/>
<text text-anchor="start" x="713" y="-145.72" font-family="Helvetica,sans-Serif" font-size="10.00">fr.softsf.sudokufx.view.component.toaster.</text>
<text text-anchor="middle" x="806" y="-133.72" font-family="Helvetica,sans-Serif" font-size="10.00">ToasterVBox.addToast</text>
</a>
</g>
</g>
<!-- Node1&#45;&gt;Node2 -->
<g id="edge1_Node000001_Node000002" class="edge">
<title>Node1&#45;&gt;Node2</title>
<g id="a_edge1_Node000001_Node000002"><a xlink:title=" ">
<path fill="none" stroke="#63b8ff" d="M187.29,-143.83C300.88,-147.74 499.09,-152.97 669,-149.22 676.96,-149.05 685.18,-148.81 693.45,-148.54"/>
<polygon fill="#63b8ff" stroke="#63b8ff" points="693.37,-152.05 703.24,-148.2 693.12,-145.05 693.37,-152.05"/>
</a>
</g>
</g>
<!-- Node8 -->
<g id="Node000008" class="node">
<title>Node8</title>
<g id="a_Node000008"><a xlink:href="classfr_1_1softsf_1_1sudokufx_1_1viewmodel_1_1_menu_background_view_model.html#a9907e8c5d60e1b4f0b748cf3dc197e1c" target="_top" xlink:title="Starts the asynchronous image loading and resizing task.">
<polygon fill="white" stroke="#666666" points="410.75,-112.22 223,-112.22 223,-80.22 410.75,-80.22 410.75,-112.22"/>
<text text-anchor="start" x="231" y="-98.72" font-family="Helvetica,sans-Serif" font-size="10.00">fr.softsf.sudokufx.viewmodel.</text>
<text text-anchor="middle" x="316.88" y="-86.72" font-family="Helvetica,sans-Serif" font-size="10.00">MenuBackgroundViewModel.loadImage</text>
</a>
</g>
</g>
<!-- Node1&#45;&gt;Node8 -->
<g id="edge7_Node000001_Node000008" class="edge">
<title>Node1&#45;&gt;Node8</title>
<g id="a_edge7_Node000001_Node000008"><a xlink:title=" ">
<path fill="none" stroke="#63b8ff" d="M187.42,-121.75C198.78,-119.5 210.4,-117.19 221.77,-114.93"/>
<polygon fill="#63b8ff" stroke="#63b8ff" points="222.44,-118.36 231.57,-112.98 221.07,-111.5 222.44,-118.36"/>
</a>
</g>
</g>
<!-- Node3 -->
<g id="Node000003" class="node">
<title>Node3</title>
<g id="a_Node000003"><a xlink:href="classfr_1_1softsf_1_1sudokufx_1_1view_1_1component_1_1toaster_1_1_toaster_v_box.html#a7df4872b0cf0eeb5cd3a04ce7ccb0fef" target="_top" xlink:title="Sets the accessibility text for the toast based on its level.">
<polygon fill="white" stroke="#666666" points="1145,-159.22 943,-159.22 943,-127.22 1145,-127.22 1145,-159.22"/>
<text text-anchor="start" x="951" y="-145.72" font-family="Helvetica,sans-Serif" font-size="10.00">fr.softsf.sudokufx.view.component.toaster.</text>
<text text-anchor="middle" x="1044" y="-133.72" font-family="Helvetica,sans-Serif" font-size="10.00">ToasterVBox.setAccessibility</text>
</a>
</g>
</g>
<!-- Node2&#45;&gt;Node3 -->
<g id="edge2_Node000002_Node000003" class="edge">
<title>Node2&#45;&gt;Node3</title>
<g id="a_edge2_Node000002_Node000003"><a xlink:title=" ">
<path fill="none" stroke="#63b8ff" d="M907.43,-143.22C915.36,-143.22 923.4,-143.22 931.4,-143.22"/>
<polygon fill="#63b8ff" stroke="#63b8ff" points="931.15,-146.72 941.15,-143.22 931.15,-139.72 931.15,-146.72"/>
</a>
</g>
</g>
<!-- Node5 -->
<g id="Node000005" class="node">
<title>Node5</title>
<g id="a_Node000005"><a xlink:href="classfr_1_1softsf_1_1sudokufx_1_1view_1_1component_1_1toaster_1_1_toaster_v_box.html#a1f7607f18913c940c16c9de28f3e7ae7" target="_top" xlink:title="Sets the style of the toast based on its level.">
<polygon fill="white" stroke="#666666" points="1145,-209.22 943,-209.22 943,-177.22 1145,-177.22 1145,-209.22"/>
<text text-anchor="start" x="951" y="-195.72" font-family="Helvetica,sans-Serif" font-size="10.00">fr.softsf.sudokufx.view.component.toaster.</text>
<text text-anchor="middle" x="1044" y="-183.72" font-family="Helvetica,sans-Serif" font-size="10.00">ToasterVBox.setToastStyle</text>
</a>
</g>
</g>
<!-- Node2&#45;&gt;Node5 -->
<g id="edge4_Node000002_Node000005" class="edge">
<title>Node2&#45;&gt;Node5</title>
<g id="a_edge4_Node000002_Node000005"><a xlink:title=" ">
<path fill="none" stroke="#63b8ff" d="M884.6,-159.66C906.88,-164.38 931.35,-169.57 954.25,-174.42"/>
<polygon fill="#63b8ff" stroke="#63b8ff" points="953.36,-177.81 963.87,-176.46 954.81,-170.96 953.36,-177.81"/>
</a>
</g>
</g>
<!-- Node7 -->
<g id="Node000007" class="node">
<title>Node7</title>
<g id="a_Node000007"><a xlink:href="classfr_1_1softsf_1_1sudokufx_1_1view_1_1component_1_1toaster_1_1_toaster_v_box.html#abd2310564b394c59530d5e7b2a0d0776" target="_top" xlink:title="Sets a timer to automatically remove the toast after a specified duration.">
<polygon fill="white" stroke="#666666" points="1145,-109.22 943,-109.22 943,-77.22 1145,-77.22 1145,-109.22"/>
<text text-anchor="start" x="951" y="-95.72" font-family="Helvetica,sans-Serif" font-size="10.00">fr.softsf.sudokufx.view.component.toaster.</text>
<text text-anchor="middle" x="1044" y="-83.72" font-family="Helvetica,sans-Serif" font-size="10.00">ToasterVBox.temporizeToast</text>
</a>
</g>
</g>
<!-- Node2&#45;&gt;Node7 -->
<g id="edge6_Node000002_Node000007" class="edge">
<title>Node2&#45;&gt;Node7</title>
<g id="a_edge6_Node000002_Node000007"><a xlink:title=" ">
<path fill="none" stroke="#63b8ff" d="M884.6,-126.78C906.88,-122.06 931.35,-116.88 954.25,-112.02"/>
<polygon fill="#63b8ff" stroke="#63b8ff" points="954.81,-115.48 963.87,-109.99 953.36,-108.64 954.81,-115.48"/>
</a>
</g>
</g>
<!-- Node4 -->
<g id="Node000004" class="node">
<title>Node4</title>
<g id="a_Node000004"><a xlink:href="classfr_1_1softsf_1_1sudokufx_1_1view_1_1component_1_1toaster_1_1_toaster_v_box.html#a67957eac2367e7b8018ef0d2ce354bef" target="_top" xlink:title="Retrieves the information text corresponding to the specified toast level.">
<polygon fill="white" stroke="#666666" points="1383,-159.22 1181,-159.22 1181,-127.22 1383,-127.22 1383,-159.22"/>
<text text-anchor="start" x="1189" y="-145.72" font-family="Helvetica,sans-Serif" font-size="10.00">fr.softsf.sudokufx.view.component.toaster.</text>
<text text-anchor="middle" x="1282" y="-133.72" font-family="Helvetica,sans-Serif" font-size="10.00">ToasterVBox.getToastInfo</text>
</a>
</g>
</g>
<!-- Node3&#45;&gt;Node4 -->
<g id="edge3_Node000003_Node000004" class="edge">
<title>Node3&#45;&gt;Node4</title>
<g id="a_edge3_Node000003_Node000004"><a xlink:title=" ">
<path fill="none" stroke="#63b8ff" d="M1145.43,-143.22C1153.36,-143.22 1161.4,-143.22 1169.4,-143.22"/>
<polygon fill="#63b8ff" stroke="#63b8ff" points="1169.15,-146.72 1179.15,-143.22 1169.15,-139.72 1169.15,-146.72"/>
</a>
</g>
</g>
<!-- Node6 -->
<g id="Node000006" class="node">
<title>Node6</title>
<g id="a_Node000006"><a xlink:href="enumfr_1_1softsf_1_1sudokufx_1_1common_1_1enums_1_1_toast_levels.html#a43cd66f6e8b04c4873f35e51fd57a36d" target="_top" xlink:title=" ">
<polygon fill="white" stroke="#666666" points="1366.12,-209.22 1197.88,-209.22 1197.88,-177.22 1366.12,-177.22 1366.12,-209.22"/>
<text text-anchor="start" x="1205.88" y="-195.72" font-family="Helvetica,sans-Serif" font-size="10.00">fr.softsf.sudokufx.common.enums.</text>
<text text-anchor="middle" x="1282" y="-183.72" font-family="Helvetica,sans-Serif" font-size="10.00">ToastLevels.getLevel</text>
</a>
</g>
</g>
<!-- Node5&#45;&gt;Node6 -->
<g id="edge5_Node000005_Node000006" class="edge">
<title>Node5&#45;&gt;Node6</title>
<g id="a_edge5_Node000005_Node000006"><a xlink:title=" ">
<path fill="none" stroke="#63b8ff" d="M1145.43,-193.22C1158.95,-193.22 1172.79,-193.22 1186.22,-193.22"/>
<polygon fill="#63b8ff" stroke="#63b8ff" points="1185.87,-196.72 1195.87,-193.22 1185.87,-189.72 1185.87,-196.72"/>
</a>
</g>
</g>
<!-- Node8&#45;&gt;Node2 -->
<g id="edge8_Node000008_Node000002" class="edge">
<title>Node8&#45;&gt;Node2</title>
<g id="a_edge8_Node000008_Node000002"><a xlink:title=" ">
<path fill="none" stroke="#63b8ff" d="M375.8,-112.65C397.83,-118.24 423.28,-123.91 446.75,-127.22 528.82,-138.82 622.41,-142.68 693.35,-143.72"/>
<polygon fill="#63b8ff" stroke="#63b8ff" points="692.98,-147.21 703.02,-143.84 693.07,-140.21 692.98,-147.21"/>
</a>
</g>
</g>
<!-- Node9 -->
<g id="Node000009" class="node">
<title>Node9</title>
<g id="a_Node000009"><a xlink:href="classfr_1_1softsf_1_1sudokufx_1_1viewmodel_1_1_menu_background_view_model.html#aa52464dc847a4a6e2d9141839f230037" target="_top" xlink:title="Called upon successful completion of the image loading task.">
<polygon fill="white" stroke="#666666" points="658.5,-118.22 457.25,-118.22 457.25,-74.22 658.5,-74.22 658.5,-118.22"/>
<text text-anchor="start" x="465.25" y="-104.72" font-family="Helvetica,sans-Serif" font-size="10.00">fr.softsf.sudokufx.viewmodel.</text>
<text text-anchor="start" x="465.25" y="-92.72" font-family="Helvetica,sans-Serif" font-size="10.00">MenuBackgroundViewModel.onImageTask</text>
<text text-anchor="middle" x="557.88" y="-80.72" font-family="Helvetica,sans-Serif" font-size="10.00">Complete</text>
</a>
</g>
</g>
<!-- Node8&#45;&gt;Node9 -->
<g id="edge9_Node000008_Node000009" class="edge">
<title>Node8&#45;&gt;Node9</title>
<g id="a_edge9_Node000008_Node000009"><a xlink:title=" ">
<path fill="none" stroke="#63b8ff" d="M410.96,-96.22C422.27,-96.22 433.9,-96.22 445.44,-96.22"/>
<polygon fill="#63b8ff" stroke="#63b8ff" points="445.41,-99.72 455.41,-96.22 445.41,-92.72 445.41,-99.72"/>
</a>
</g>
</g>
<!-- Node11 -->
<g id="Node000011" class="node">
<title>Node11</title>
<g id="a_Node000011"><a xlink:href="classfr_1_1softsf_1_1sudokufx_1_1view_1_1component_1_1_spinner_grid_pane.html#a170661e162609697b2bd6e2cd9a22b60" target="_top" xlink:title="Shows or hides the spinner.">
<polygon fill="white" stroke="#666666" points="890.5,-56.22 721.5,-56.22 721.5,-24.22 890.5,-24.22 890.5,-56.22"/>
<text text-anchor="start" x="729.5" y="-42.72" font-family="Helvetica,sans-Serif" font-size="10.00">fr.softsf.sudokufx.view.component.</text>
<text text-anchor="middle" x="806" y="-30.72" font-family="Helvetica,sans-Serif" font-size="10.00">SpinnerGridPane.showSpinner</text>
</a>
</g>
</g>
<!-- Node8&#45;&gt;Node11 -->
<g id="edge18_Node000008_Node000011" class="edge">
<title>Node8&#45;&gt;Node11</title>
<g id="a_edge18_Node000008_Node000011"><a xlink:title=" ">
<path fill="none" stroke="#63b8ff" d="M336.29,-79.85C359.91,-60.05 403.07,-27.81 446.75,-15.22 543.77,12.73 661.39,-4.68 734.74,-21.25"/>
<polygon fill="#63b8ff" stroke="#63b8ff" points="733.67,-24.6 744.2,-23.45 735.25,-17.78 733.67,-24.6"/>
</a>
</g>
</g>
<!-- Node12 -->
<g id="Node000012" class="node">
<title>Node12</title>
<g id="a_Node000012"><a xlink:href="classfr_1_1softsf_1_1sudokufx_1_1viewmodel_1_1_menu_background_view_model.html#aa381c1f7620cd458dc3f89b7e106e3e4" target="_top" xlink:title="Called when the image loading task fails.">
<polygon fill="white" stroke="#666666" points="669,-56.22 446.75,-56.22 446.75,-24.22 669,-24.22 669,-56.22"/>
<text text-anchor="start" x="454.75" y="-42.72" font-family="Helvetica,sans-Serif" font-size="10.00">fr.softsf.sudokufx.viewmodel.</text>
<text text-anchor="middle" x="557.88" y="-30.72" font-family="Helvetica,sans-Serif" font-size="10.00">MenuBackgroundViewModel.onImageTaskError</text>
</a>
</g>
</g>
<!-- Node8&#45;&gt;Node12 -->
<g id="edge14_Node000008_Node000012" class="edge">
<title>Node8&#45;&gt;Node12</title>
<g id="a_edge14_Node000008_Node000012"><a xlink:title=" ">
<path fill="none" stroke="#63b8ff" d="M385.72,-79.73C405.4,-74.99 426.92,-69.86 446.75,-65.22 455.14,-63.26 463.89,-61.24 472.64,-59.23"/>
<polygon fill="#63b8ff" stroke="#63b8ff" points="473.25,-62.68 482.21,-57.04 471.68,-55.86 473.25,-62.68"/>
</a>
</g>
</g>
<!-- Node9&#45;&gt;Node2 -->
<g id="edge10_Node000009_Node000002" class="edge">
<title>Node9&#45;&gt;Node2</title>
<g id="a_edge10_Node000009_Node000002"><a xlink:title=" ">
<path fill="none" stroke="#63b8ff" d="M658.98,-115.34C675.1,-118.42 691.75,-121.6 707.79,-124.66"/>
<polygon fill="#63b8ff" stroke="#63b8ff" points="706.82,-128.04 717.3,-126.47 708.14,-121.16 706.82,-128.04"/>
</a>
</g>
</g>
<!-- Node10 -->
<g id="Node000010" class="node">
<title>Node10</title>
<g id="a_Node000010"><a xlink:href="classfr_1_1softsf_1_1sudokufx_1_1view_1_1component_1_1toaster_1_1_toaster_v_box.html#ac901d34317be26e1fd391a134f42e7bf" target="_top" xlink:title="Schedules the current toast for removal after a short delay.">
<polygon fill="white" stroke="#666666" points="907,-109.22 705,-109.22 705,-77.22 907,-77.22 907,-109.22"/>
<text text-anchor="start" x="713" y="-95.72" font-family="Helvetica,sans-Serif" font-size="10.00">fr.softsf.sudokufx.view.component.toaster.</text>
<text text-anchor="middle" x="806" y="-83.72" font-family="Helvetica,sans-Serif" font-size="10.00">ToasterVBox.removeToast</text>
</a>
</g>
</g>
<!-- Node9&#45;&gt;Node10 -->
<g id="edge11_Node000009_Node000010" class="edge">
<title>Node9&#45;&gt;Node10</title>
<g id="a_edge11_Node000009_Node000010"><a xlink:title=" ">
<path fill="none" stroke="#63b8ff" d="M658.98,-95C670.26,-94.86 681.81,-94.72 693.22,-94.58"/>
<polygon fill="#63b8ff" stroke="#63b8ff" points="693.11,-98.09 703.07,-94.46 693.03,-91.09 693.11,-98.09"/>
</a>
</g>
</g>
<!-- Node9&#45;&gt;Node11 -->
<g id="edge13_Node000009_Node000011" class="edge">
<title>Node9&#45;&gt;Node11</title>
<g id="a_edge13_Node000009_Node000011"><a xlink:title=" ">
<path fill="none" stroke="#63b8ff" d="M657.57,-73.77C678.88,-68.92 701.21,-63.84 721.85,-59.14"/>
<polygon fill="#63b8ff" stroke="#63b8ff" points="722.36,-62.61 731.33,-56.98 720.8,-55.79 722.36,-62.61"/>
</a>
</g>
</g>
<!-- Node10&#45;&gt;Node7 -->
<g id="edge12_Node000010_Node000007" class="edge">
<title>Node10&#45;&gt;Node7</title>
<g id="a_edge12_Node000010_Node000007"><a xlink:title=" ">
<path fill="none" stroke="#63b8ff" d="M907.43,-93.22C915.36,-93.22 923.4,-93.22 931.4,-93.22"/>
<polygon fill="#63b8ff" stroke="#63b8ff" points="931.15,-96.72 941.15,-93.22 931.15,-89.72 931.15,-96.72"/>
</a>
</g>
</g>
<!-- Node12&#45;&gt;Node2 -->
<g id="edge15_Node000012_Node000002" class="edge">
<title>Node12&#45;&gt;Node2</title>
<g id="a_edge15_Node000012_Node000002"><a xlink:title=" ">
<path fill="none" stroke="#63b8ff" d="M653.73,-56.65C659.08,-59.12 664.22,-61.96 669,-65.22 692.52,-81.27 681.65,-101.92 705,-118.22 706.61,-119.35 708.27,-120.43 709.97,-121.45"/>
<polygon fill="#63b8ff" stroke="#63b8ff" points="708.27,-124.51 718.74,-126.12 711.56,-118.33 708.27,-124.51"/>
</a>
</g>
</g>
<!-- Node12&#45;&gt;Node10 -->
<g id="edge16_Node000012_Node000010" class="edge">
<title>Node12&#45;&gt;Node10</title>
<g id="a_edge16_Node000012_Node000010"><a xlink:title=" ">
<path fill="none" stroke="#63b8ff" d="M635.4,-56.7C661.45,-62.31 690.75,-68.62 717.59,-74.4"/>
<polygon fill="#63b8ff" stroke="#63b8ff" points="716.53,-77.75 727.04,-76.43 718,-70.91 716.53,-77.75"/>
</a>
</g>
</g>
<!-- Node12&#45;&gt;Node11 -->
<g id="edge17_Node000012_Node000011" class="edge">
<title>Node12&#45;&gt;Node11</title>
<g id="a_edge17_Node000012_Node000011"><a xlink:title=" ">
<path fill="none" stroke="#63b8ff" d="M669.34,-40.22C682.78,-40.22 696.43,-40.22 709.62,-40.22"/>
<polygon fill="#63b8ff" stroke="#63b8ff" points="709.57,-43.72 719.57,-40.22 709.57,-36.72 709.57,-43.72"/>
</a>
</g>
</g>
</g>
</svg>

<g id="navigator" transform="translate(0 0)" fill="#404254">
  <rect fill="#f2f5e9" fill-opacity="0.5" stroke="#606060" stroke-width=".5" x="0" y="0" width="60" height="60"/>
  <use id="zoomplus" xlink:href="#zoomPlus" x="17" y="9" onmousedown="handleZoom(evt,'in')"/>
  <use id="zoomminus" xlink:href="#zoomMin" x="42" y="9" onmousedown="handleZoom(evt,'out')"/>
  <use id="reset" xlink:href="#resetDef" x="30" y="36" onmousedown="handleReset()"/>
   <use id="arrowup" xlink:href="#arrowUp" x="0" y="0" onmousedown="handlePan(0,-1)"/>
  <use id="arrowright" xlink:href="#arrowRight" x="0" y="0" onmousedown="handlePan(1,0)"/>
  <use id="arrowdown" xlink:href="#arrowDown" x="0" y="0" onmousedown="handlePan(0,1)"/>
  <use id="arrowleft" xlink:href="#arrowLeft" x="0" y="0" onmousedown="handlePan(-1,0)"/>
</g>
<svg viewBox="0 0 15 15" width="100%" height="30px" preserveAspectRatio="xMaxYMin meet">
 <g id="arrow_out" transform="scale(0.3 0.3)">
  <a xlink:href="classfr_1_1softsf_1_1sudokufx_1_1viewmodel_1_1_menu_background_view_model_a260352d8d5ffcc3f691984620672f38b_cgraph_org.svg" target="_base">
   <rect id="button" ry="5" rx="5" y="6" x="6" height="38" width="38"
        fill="#f2f5e9" fill-opacity="0.5" stroke="#606060" stroke-width="1.0"/>
   <path id="arrow"
     d="M 11.500037,31.436501 C 11.940474,20.09759 22.043105,11.32322 32.158766,21.979434 L 37.068811,17.246167 C 37.068811,17.246167 37.088388,32 37.088388,32 L 22.160133,31.978069 C 22.160133,31.978069 26.997745,27.140456 26.997745,27.140456 C 18.528582,18.264221 13.291696,25.230495 11.500037,31.436501 z"
     style="fill:#404040;"/>
  </a>
 </g>
</svg>

<style type='text/css'>
<![CDATA[
[data-mouse-over-selected='false'] { opacity: 0.7; }
[data-mouse-over-selected='true']  { opacity: 1.0; }
]]>
</style>
<script type="application/ecmascript"><![CDATA[
document.addEventListener('DOMContentLoaded', (event) => {
  highlightEdges();
  highlightAdjacentNodes();
});
]]></script>
</svg>
