<?xml version="1.0" encoding="UTF-8" standalone="no"?>
<!DOCTYPE svg PUBLIC "-//W3C//DTD SVG 1.1//EN"
 "http://www.w3.org/Graphics/SVG/1.1/DTD/svg11.dtd">
<!-- Generated by graphviz version 12.2.1 (20241206.2353)
 -->
<!-- Title: fr.softsf.sudokufx.viewmodel.FullMenuViewModel Pages: 1 -->
<!--zoomable 969 -->

<svg id="main" version="1.1" xmlns="http://www.w3.org/2000/svg" xmlns:xlink="http://www.w3.org/1999/xlink" xml:space="preserve" onload="init(evt)">

<style type="text/css"><![CDATA[
.node, .edge {opacity: 0.7;}
.node.selected, .edge.selected {opacity: 1;}
.edge:hover path { stroke: red; }
.edge:hover polygon { stroke: red; fill: red; }
]]></style>

<defs>
  <circle id="rim" cx="0" cy="0" r="7"/>
  <circle id="rim2" cx="0" cy="0" r="3.5"/>
  <g id="zoomPlus">
    <use xlink:href="#rim" fill="#404040"><set attributeName="fill" to="#808080" begin="zoomplus.mouseover" end="zoomplus.mouseout"/></use>
    <path d="M-4,0h8M0,-4v8" fill="none" stroke="white" stroke-width="1.5" pointer-events="none"/>
  </g>
  <g id="zoomMin">
    <use xlink:href="#rim" fill="#404040"><set attributeName="fill" to="#808080" begin="zoomminus.mouseover" end="zoomminus.mouseout"/></use>
    <path d="M-4,0h8" fill="none" stroke="white" stroke-width="1.5" pointer-events="none"/>
  </g>
  <g id="arrowUp" transform="translate(30 24)">
    <use xlink:href="#rim"/>
    <path pointer-events="none" fill="none" stroke="white" stroke-width="1.5" d="M0,-3.0v7 M-2.5,-0.5L0,-3.0L2.5,-0.5"/>
  </g>
  <g id="arrowRight" transform="rotate(90) translate(36 -43)">
    <use xlink:href="#rim"/>
    <path pointer-events="none" fill="none" stroke="white" stroke-width="1.5" d="M0,-3.0v7 M-2.5,-0.5L0,-3.0L2.5,-0.5"/>
  </g>
  <g id="arrowDown" transform="rotate(180) translate(-30 -48)">
    <use xlink:href="#rim"/>
    <path pointer-events="none" fill="none" stroke="white" stroke-width="1.5" d="M0,-3.0v7 M-2.5,-0.5L0,-3.0L2.5,-0.5"/>
  </g>
  <g id="arrowLeft" transform="rotate(270) translate(-36 17)">
    <use xlink:href="#rim"/>
    <path pointer-events="none" fill="none" stroke="white" stroke-width="1.5" d="M0,-3.0v7 M-2.5,-0.5L0,-3.0L2.5,-0.5"/>
  </g>
  <g id="resetDef">
    <use xlink:href="#rim2" fill="#404040"><set attributeName="fill" to="#808080" begin="reset.mouseover" end="reset.mouseout"/></use>
  </g>
</defs>
<script type="application/ecmascript">
var viewWidth = 348;
var viewHeight = 969;
var sectionId = 'dynsection-0';
</script>
<script type="application/ecmascript" xlink:href="svg.min.js"/>
<svg id="graph" class="graph">
<g id="viewport">
<title>fr.softsf.sudokufx.viewmodel.FullMenuViewModel</title>
<!-- Node1 -->
<g id="Node000001" class="node">
<title>Node1</title>
<g id="a_Node000001"><a xlink:title="FullMenuViewModel with business logic (not final)">
<polygon fill="#999999" stroke="none" points="265.25,-352 68.75,-352 68.75,0 265.25,0 265.25,-352"/>
<text text-anchor="start" x="102.5" y="-338.5" font-family="Helvetica,sans-Serif" font-size="10.00">fr.softsf.sudokufx.viewmodel.</text>
<text text-anchor="start" x="123.12" y="-326.5" font-family="Helvetica,sans-Serif" font-size="10.00">FullMenuViewModel</text>
<text text-anchor="start" x="74.25" y="-310.5" font-family="Helvetica,sans-Serif" font-size="10.00">&#45;</text>
<text text-anchor="start" x="82.75" y="-310.5" font-family="Helvetica,sans-Serif" font-size="10.00">final StringProperty</text>
<text text-anchor="start" x="82.75" y="-298.5" font-family="Helvetica,sans-Serif" font-size="10.00"> githubVersion</text>
<text text-anchor="start" x="74.25" y="-282.5" font-family="Helvetica,sans-Serif" font-size="10.00">&#45;</text>
<text text-anchor="start" x="82.75" y="-282.5" font-family="Helvetica,sans-Serif" font-size="10.00">final IGridMaster iGridMaster</text>
<text text-anchor="start" x="74.25" y="-266.5" font-family="Helvetica,sans-Serif" font-size="10.00">&#45;</text>
<text text-anchor="start" x="82.75" y="-266.5" font-family="Helvetica,sans-Serif" font-size="10.00">final SimpleBooleanProperty</text>
<text text-anchor="start" x="82.75" y="-254.5" font-family="Helvetica,sans-Serif" font-size="10.00"> version</text>
<text text-anchor="start" x="74.25" y="-238.5" font-family="Helvetica,sans-Serif" font-size="10.00">&#45;</text>
<text text-anchor="start" x="82.75" y="-238.5" font-family="Helvetica,sans-Serif" font-size="10.00">StringProperty welcome</text>
<text text-anchor="start" x="74.25" y="-222.5" font-family="Helvetica,sans-Serif" font-size="10.00">&#45;</text>
<text text-anchor="start" x="82.75" y="-222.5" font-family="Helvetica,sans-Serif" font-size="10.00">static final Logger log</text>
<text text-anchor="start" x="72.75" y="-206.5" font-family="Helvetica,sans-Serif" font-size="10.00">+</text>
<text text-anchor="start" x="82.75" y="-206.5" font-family="Helvetica,sans-Serif" font-size="10.00">FullMenuViewModel</text>
<text text-anchor="start" x="82.75" y="-194.5" font-family="Helvetica,sans-Serif" font-size="10.00">(SoftwareService softwareService,</text>
<text text-anchor="start" x="82.75" y="-182.5" font-family="Helvetica,sans-Serif" font-size="10.00"> IGridMaster iGridMaster, VersionService</text>
<text text-anchor="start" x="82.75" y="-170.5" font-family="Helvetica,sans-Serif" font-size="10.00"> versionService)</text>
<text text-anchor="start" x="72.75" y="-154.5" font-family="Helvetica,sans-Serif" font-size="10.00">+</text>
<text text-anchor="start" x="82.75" y="-154.5" font-family="Helvetica,sans-Serif" font-size="10.00">ReadOnlyStringProperty</text>
<text text-anchor="start" x="82.75" y="-142.5" font-family="Helvetica,sans-Serif" font-size="10.00"> githubVersionProperty()</text>
<text text-anchor="start" x="72.75" y="-126.5" font-family="Helvetica,sans-Serif" font-size="10.00">+</text>
<text text-anchor="start" x="82.75" y="-126.5" font-family="Helvetica,sans-Serif" font-size="10.00">void test()</text>
<text text-anchor="start" x="72.75" y="-110.5" font-family="Helvetica,sans-Serif" font-size="10.00">+</text>
<text text-anchor="start" x="82.75" y="-110.5" font-family="Helvetica,sans-Serif" font-size="10.00">BooleanProperty versionProperty()</text>
<text text-anchor="start" x="72.75" y="-94.5" font-family="Helvetica,sans-Serif" font-size="10.00">+</text>
<text text-anchor="start" x="82.75" y="-94.5" font-family="Helvetica,sans-Serif" font-size="10.00">StringProperty welcomeProperty()</text>
<text text-anchor="start" x="74.25" y="-78.5" font-family="Helvetica,sans-Serif" font-size="10.00">&#45;</text>
<text text-anchor="start" x="82.75" y="-78.5" font-family="Helvetica,sans-Serif" font-size="10.00">void checkGitHubVersion()</text>
<text text-anchor="start" x="74.25" y="-62.5" font-family="Helvetica,sans-Serif" font-size="10.00">&#45;</text>
<text text-anchor="start" x="82.75" y="-62.5" font-family="Helvetica,sans-Serif" font-size="10.00">void createSoftware()</text>
<text text-anchor="start" x="74.25" y="-46.5" font-family="Helvetica,sans-Serif" font-size="10.00">&#45;</text>
<text text-anchor="start" x="82.75" y="-46.5" font-family="Helvetica,sans-Serif" font-size="10.00">void setWelcome(String</text>
<text text-anchor="start" x="82.75" y="-34.5" font-family="Helvetica,sans-Serif" font-size="10.00"> output)</text>
<text text-anchor="start" x="74.25" y="-18.5" font-family="Helvetica,sans-Serif" font-size="10.00">&#45;</text>
<text text-anchor="start" x="82.75" y="-18.5" font-family="Helvetica,sans-Serif" font-size="10.00">void updateSoftware</text>
<text text-anchor="start" x="82.75" y="-6.5" font-family="Helvetica,sans-Serif" font-size="10.00">(SoftwareDto softwareToUpdate)</text>
<polygon fill="#666666" stroke="#666666" points="68.75,-322 68.75,-322 265.25,-322 265.25,-322 68.75,-322"/>
<polygon fill="#666666" stroke="#666666" points="68.75,-218 68.75,-218 80.75,-218 80.75,-218 68.75,-218"/>
<polygon fill="#666666" stroke="#666666" points="80.75,-218 80.75,-218 265.25,-218 265.25,-218 80.75,-218"/>
<polygon fill="none" stroke="#666666" points="68.75,0 68.75,-352 265.25,-352 265.25,0 68.75,0"/>
</a>
</g>
</g>
<!-- Node2 -->
<g id="Node000002" class="node">
<title>Node2</title>
<g id="a_Node000002"><a xlink:href="classfr_1_1softsf_1_1sudokufx_1_1service_1_1_software_service.html" target="_top" xlink:title=" ">
<polygon fill="white" stroke="none" points="156,-620 0,-620 0,-476 156,-476 156,-620"/>
<text text-anchor="start" x="21" y="-606.5" font-family="Helvetica,sans-Serif" font-size="10.00">fr.softsf.sudokufx.service.</text>
<text text-anchor="start" x="42" y="-594.5" font-family="Helvetica,sans-Serif" font-size="10.00">SoftwareService</text>
<text text-anchor="start" x="5.5" y="-578.5" font-family="Helvetica,sans-Serif" font-size="10.00">&#45;</text>
<text text-anchor="start" x="14" y="-578.5" font-family="Helvetica,sans-Serif" font-size="10.00">static final Logger log</text>
<text text-anchor="start" x="4" y="-562.5" font-family="Helvetica,sans-Serif" font-size="10.00">+</text>
<text text-anchor="start" x="14" y="-562.5" font-family="Helvetica,sans-Serif" font-size="10.00">SoftwareService(Software</text>
<text text-anchor="start" x="14" y="-550.5" font-family="Helvetica,sans-Serif" font-size="10.00">Repository softwareRepository)</text>
<text text-anchor="start" x="4" y="-534.5" font-family="Helvetica,sans-Serif" font-size="10.00">+</text>
<text text-anchor="start" x="14" y="-534.5" font-family="Helvetica,sans-Serif" font-size="10.00">Optional&lt; SoftwareDto</text>
<text text-anchor="start" x="14" y="-522.5" font-family="Helvetica,sans-Serif" font-size="10.00"> &gt; getSoftware()</text>
<text text-anchor="start" x="4" y="-506.5" font-family="Helvetica,sans-Serif" font-size="10.00">+</text>
<text text-anchor="start" x="14" y="-506.5" font-family="Helvetica,sans-Serif" font-size="10.00">Optional&lt; SoftwareDto</text>
<text text-anchor="start" x="14" y="-494.5" font-family="Helvetica,sans-Serif" font-size="10.00"> &gt; updateSoftware(SoftwareDto</text>
<text text-anchor="start" x="14" y="-482.5" font-family="Helvetica,sans-Serif" font-size="10.00"> softwareDto)</text>
<polygon fill="#666666" stroke="#666666" points="0,-590 0,-590 156,-590 156,-590 0,-590"/>
<polygon fill="#666666" stroke="#666666" points="0,-574 0,-574 12,-574 12,-574 0,-574"/>
<polygon fill="#666666" stroke="#666666" points="12,-574 12,-574 156,-574 156,-574 12,-574"/>
<polygon fill="none" stroke="#666666" points="0,-476 0,-620 156,-620 156,-476 0,-476"/>
</a>
</g>
</g>
<!-- Node2&#45;&gt;Node1 -->
<g id="edge1_Node000001_Node000002" class="edge">
<title>Node2&#45;&gt;Node1</title>
<g id="a_edge1_Node000001_Node000002"><a xlink:title=" ">
<path fill="none" stroke="#63b8ff" d="M95.05,-476.1C102.79,-443.93 112.34,-404.22 121.93,-364.36"/>
<polygon fill="none" stroke="#63b8ff" points="121.96,-364.26 119.47,-357.49 124.76,-352.59 127.25,-359.36 121.96,-364.26"/>
</a>
</g>
<text text-anchor="middle" x="158.08" y="-372.5" font-family="Helvetica,sans-Serif" font-size="10.00" fill="grey"> &#45;softwareService</text>
</g>
<!-- Node3 -->
<g id="Node000003" class="node">
<title>Node3</title>
<g id="a_Node000003"><a xlink:href="interfacefr_1_1softsf_1_1sudokufx_1_1repository_1_1_software_repository.html" target="_top" xlink:title=" ">
<polygon fill="white" stroke="none" points="144.25,-840 11.75,-840 11.75,-764 144.25,-764 144.25,-840"/>
<text text-anchor="start" x="15.75" y="-826.5" font-family="Helvetica,sans-Serif" font-size="10.00">fr.softsf.sudokufx.repository.</text>
<text text-anchor="start" x="34.88" y="-814.5" font-family="Helvetica,sans-Serif" font-size="10.00">SoftwareRepository</text>
<text text-anchor="start" x="76.5" y="-798.5" font-family="Helvetica,sans-Serif" font-size="10.00"> </text>
<text text-anchor="start" x="21.31" y="-782.5" font-family="Helvetica,sans-Serif" font-size="10.00">+</text>
<text text-anchor="start" x="36.88" y="-782.5" font-family="Helvetica,sans-Serif" font-size="10.00">Optional&lt; Software</text>
<text text-anchor="start" x="36.88" y="-770.5" font-family="Helvetica,sans-Serif" font-size="10.00"> &gt; findFirstSoftware()</text>
<polygon fill="#666666" stroke="#666666" points="11.75,-810 11.75,-810 144.25,-810 144.25,-810 11.75,-810"/>
<polygon fill="#666666" stroke="#666666" points="11.75,-794 11.75,-794 144.25,-794 144.25,-794 11.75,-794"/>
<polygon fill="none" stroke="#666666" points="11.75,-764 11.75,-840 144.25,-840 144.25,-764 11.75,-764"/>
</a>
</g>
</g>
<!-- Node3&#45;&gt;Node2 -->
<g id="edge2_Node000002_Node000003" class="edge">
<title>Node3&#45;&gt;Node2</title>
<g id="a_edge2_Node000002_Node000003"><a xlink:title=" ">
<path fill="none" stroke="#63b8ff" d="M78,-764.09C78,-729.75 78,-677.33 78,-632.84"/>
<polygon fill="none" stroke="#63b8ff" points="78,-632.82 74,-626.82 78,-620.82 82,-626.82 78,-632.82"/>
</a>
</g>
<text text-anchor="middle" x="123.38" y="-716.5" font-family="Helvetica,sans-Serif" font-size="10.00" fill="grey"> &#45;softwareRepository</text>
</g>
<!-- Node4 -->
<g id="Node000004" class="node">
<title>Node4</title>
<g id="a_Node000004"><a xlink:title=" ">
<polygon fill="white" stroke="none" points="139,-961 17,-961 17,-897 139,-897 139,-961"/>
<text text-anchor="start" x="21" y="-947.5" font-family="Helvetica,sans-Serif" font-size="10.00">JpaRepository&lt; Software,</text>
<text text-anchor="start" x="61.5" y="-935.5" font-family="Helvetica,sans-Serif" font-size="10.00"> Long &gt;</text>
<text text-anchor="start" x="76.5" y="-919.5" font-family="Helvetica,sans-Serif" font-size="10.00"> </text>
<text text-anchor="start" x="76.5" y="-903.5" font-family="Helvetica,sans-Serif" font-size="10.00"> </text>
<polygon fill="#666666" stroke="#666666" points="17,-931 17,-931 139,-931 139,-931 17,-931"/>
<polygon fill="#666666" stroke="#666666" points="17,-915 17,-915 139,-915 139,-915 17,-915"/>
<polygon fill="none" stroke="#666666" points="17,-897 17,-961 139,-961 139,-897 17,-897"/>
</a>
</g>
</g>
<!-- Node4&#45;&gt;Node3 -->
<g id="edge3_Node000003_Node000004" class="edge">
<title>Node4&#45;&gt;Node3</title>
<g id="a_edge3_Node000003_Node000004"><a xlink:title=" ">
<path fill="none" stroke="#63b8ff" d="M78,-885.61C78,-870.73 78,-854.14 78,-839.76"/>
<polygon fill="none" stroke="#63b8ff" points="74.5,-885.59 78,-895.59 81.5,-885.59 74.5,-885.59"/>
</a>
</g>
</g>
<!-- Node5 -->
<g id="Node000005" class="node">
<title>Node5</title>
<g id="a_Node000005"><a xlink:href="classfr_1_1softsf_1_1sudokufx_1_1service_1_1_version_service.html" target="_top" xlink:title="Service for checking if the application version is up to date by querying GitHub.">
<polygon fill="white" stroke="none" points="340.25,-696 173.75,-696 173.75,-400 340.25,-400 340.25,-696"/>
<text text-anchor="start" x="200" y="-682.5" font-family="Helvetica,sans-Serif" font-size="10.00">fr.softsf.sudokufx.service.</text>
<text text-anchor="start" x="224.38" y="-670.5" font-family="Helvetica,sans-Serif" font-size="10.00">VersionService</text>
<text text-anchor="start" x="179.25" y="-654.5" font-family="Helvetica,sans-Serif" font-size="10.00">&#45;</text>
<text text-anchor="start" x="187.75" y="-654.5" font-family="Helvetica,sans-Serif" font-size="10.00">final HttpClient httpClient</text>
<text text-anchor="start" x="179.25" y="-638.5" font-family="Helvetica,sans-Serif" font-size="10.00">&#45;</text>
<text text-anchor="start" x="187.75" y="-638.5" font-family="Helvetica,sans-Serif" font-size="10.00">final ObjectMapper</text>
<text text-anchor="start" x="187.75" y="-626.5" font-family="Helvetica,sans-Serif" font-size="10.00"> objectMapper</text>
<text text-anchor="start" x="179.25" y="-610.5" font-family="Helvetica,sans-Serif" font-size="10.00">&#45;</text>
<text text-anchor="start" x="187.75" y="-610.5" font-family="Helvetica,sans-Serif" font-size="10.00">static final String</text>
<text text-anchor="start" x="187.75" y="-598.5" font-family="Helvetica,sans-Serif" font-size="10.00"> CURRENT_VERSION</text>
<text text-anchor="start" x="179.25" y="-582.5" font-family="Helvetica,sans-Serif" font-size="10.00">&#45;</text>
<text text-anchor="start" x="187.75" y="-582.5" font-family="Helvetica,sans-Serif" font-size="10.00">static final Logger log</text>
<text text-anchor="start" x="177.75" y="-566.5" font-family="Helvetica,sans-Serif" font-size="10.00">+</text>
<text text-anchor="start" x="187.75" y="-566.5" font-family="Helvetica,sans-Serif" font-size="10.00">VersionService(HttpClient</text>
<text text-anchor="start" x="187.75" y="-554.5" font-family="Helvetica,sans-Serif" font-size="10.00"> httpClient, MyDateTime</text>
<text text-anchor="start" x="187.75" y="-542.5" font-family="Helvetica,sans-Serif" font-size="10.00"> myDateTime, ObjectMapper</text>
<text text-anchor="start" x="187.75" y="-530.5" font-family="Helvetica,sans-Serif" font-size="10.00"> objectMapper)</text>
<text text-anchor="start" x="177.75" y="-514.5" font-family="Helvetica,sans-Serif" font-size="10.00">+</text>
<text text-anchor="start" x="187.75" y="-514.5" font-family="Helvetica,sans-Serif" font-size="10.00">Task&lt; Boolean &gt; checkLatest</text>
<text text-anchor="start" x="187.75" y="-502.5" font-family="Helvetica,sans-Serif" font-size="10.00">Version()</text>
<text text-anchor="start" x="177.75" y="-486.5" font-family="Helvetica,sans-Serif" font-size="10.00">+</text>
<text text-anchor="start" x="187.75" y="-486.5" font-family="Helvetica,sans-Serif" font-size="10.00">String getGitHubLinkToRepository</text>
<text text-anchor="start" x="187.75" y="-474.5" font-family="Helvetica,sans-Serif" font-size="10.00">Releases()</text>
<text text-anchor="start" x="179.25" y="-458.5" font-family="Helvetica,sans-Serif" font-size="10.00">&#45;</text>
<text text-anchor="start" x="187.75" y="-458.5" font-family="Helvetica,sans-Serif" font-size="10.00">int compareVersions</text>
<text text-anchor="start" x="187.75" y="-446.5" font-family="Helvetica,sans-Serif" font-size="10.00">(final String version1,</text>
<text text-anchor="start" x="187.75" y="-434.5" font-family="Helvetica,sans-Serif" font-size="10.00"> final String version2)</text>
<text text-anchor="start" x="179.25" y="-418.5" font-family="Helvetica,sans-Serif" font-size="10.00">&#45;</text>
<text text-anchor="start" x="187.75" y="-418.5" font-family="Helvetica,sans-Serif" font-size="10.00">boolean parseResponse</text>
<text text-anchor="start" x="187.75" y="-406.5" font-family="Helvetica,sans-Serif" font-size="10.00">(String json)</text>
<polygon fill="#666666" stroke="#666666" points="173.75,-666 173.75,-666 340.25,-666 340.25,-666 173.75,-666"/>
<polygon fill="#666666" stroke="#666666" points="173.75,-578 173.75,-578 185.75,-578 185.75,-578 173.75,-578"/>
<polygon fill="#666666" stroke="#666666" points="185.75,-578 185.75,-578 340.25,-578 340.25,-578 185.75,-578"/>
<polygon fill="none" stroke="#666666" points="173.75,-400 173.75,-696 340.25,-696 340.25,-400 173.75,-400"/>
</a>
</g>
</g>
<!-- Node5&#45;&gt;Node1 -->
<g id="edge4_Node000001_Node000005" class="edge">
<title>Node5&#45;&gt;Node1</title>
<g id="a_edge4_Node000001_Node000005"><a xlink:title=" ">
<path fill="none" stroke="#63b8ff" d="M221.3,-400.23C218.42,-388.4 215.49,-376.36 212.56,-364.3"/>
<polygon fill="none" stroke="#63b8ff" points="212.55,-364.27 207.25,-359.38 209.72,-352.61 215.02,-357.49 212.55,-364.27"/>
</a>
</g>
<text text-anchor="middle" x="249.95" y="-372.5" font-family="Helvetica,sans-Serif" font-size="10.00" fill="grey"> &#45;versionService</text>
</g>
<!-- Node6 -->
<g id="Node000006" class="node">
<title>Node6</title>
<g id="a_Node000006"><a xlink:href="classfr_1_1softsf_1_1sudokufx_1_1utils_1_1_my_date_time.html" target="_top" xlink:title="Component working with date and time operations.">
<polygon fill="white" stroke="none" points="332.38,-860 181.62,-860 181.62,-744 332.38,-744 332.38,-860"/>
<text text-anchor="start" x="206.75" y="-846.5" font-family="Helvetica,sans-Serif" font-size="10.00">fr.softsf.sudokufx.utils.</text>
<text text-anchor="start" x="228.88" y="-834.5" font-family="Helvetica,sans-Serif" font-size="10.00">MyDateTime</text>
<text text-anchor="start" x="187.12" y="-818.5" font-family="Helvetica,sans-Serif" font-size="10.00">&#45;</text>
<text text-anchor="start" x="195.62" y="-818.5" font-family="Helvetica,sans-Serif" font-size="10.00">static final Clock</text>
<text text-anchor="start" x="195.62" y="-806.5" font-family="Helvetica,sans-Serif" font-size="10.00"> clock</text>
<text text-anchor="start" x="187.12" y="-790.5" font-family="Helvetica,sans-Serif" font-size="10.00">&#45;</text>
<text text-anchor="start" x="195.62" y="-790.5" font-family="Helvetica,sans-Serif" font-size="10.00">static final DateTimeFormatter</text>
<text text-anchor="start" x="195.62" y="-778.5" font-family="Helvetica,sans-Serif" font-size="10.00"> TIME_FORMATTER</text>
<text text-anchor="start" x="185.62" y="-762.5" font-family="Helvetica,sans-Serif" font-size="10.00">+</text>
<text text-anchor="start" x="195.62" y="-762.5" font-family="Helvetica,sans-Serif" font-size="10.00">String getFormattedCurrent</text>
<text text-anchor="start" x="195.62" y="-750.5" font-family="Helvetica,sans-Serif" font-size="10.00">Time()</text>
<polygon fill="#666666" stroke="#666666" points="181.62,-830 181.62,-830 332.38,-830 332.38,-830 181.62,-830"/>
<polygon fill="#666666" stroke="#666666" points="181.62,-774 181.62,-774 193.62,-774 193.62,-774 181.62,-774"/>
<polygon fill="#666666" stroke="#666666" points="193.62,-774 193.62,-774 332.38,-774 332.38,-774 193.62,-774"/>
<polygon fill="none" stroke="#666666" points="181.62,-744 181.62,-860 332.38,-860 332.38,-744 181.62,-744"/>
</a>
</g>
</g>
<!-- Node6&#45;&gt;Node5 -->
<g id="edge5_Node000005_Node000006" class="edge">
<title>Node6&#45;&gt;Node5</title>
<g id="a_edge5_Node000005_Node000006"><a xlink:title=" ">
<path fill="none" stroke="#63b8ff" d="M257,-744.13C257,-733.08 257,-721 257,-708.45"/>
<polygon fill="none" stroke="#63b8ff" points="257,-708.65 253,-702.65 257,-696.65 261,-702.65 257,-708.65"/>
</a>
</g>
<text text-anchor="middle" x="288.12" y="-716.5" font-family="Helvetica,sans-Serif" font-size="10.00" fill="grey"> &#45;myDateTime</text>
</g>
</g>
</svg>

<g id="navigator" transform="translate(0 0)" fill="#404254">
  <rect fill="#f2f5e9" fill-opacity="0.5" stroke="#606060" stroke-width=".5" x="0" y="0" width="60" height="60"/>
  <use id="zoomplus" xlink:href="#zoomPlus" x="17" y="9" onmousedown="handleZoom(evt,'in')"/>
  <use id="zoomminus" xlink:href="#zoomMin" x="42" y="9" onmousedown="handleZoom(evt,'out')"/>
  <use id="reset" xlink:href="#resetDef" x="30" y="36" onmousedown="handleReset()"/>
   <use id="arrowup" xlink:href="#arrowUp" x="0" y="0" onmousedown="handlePan(0,-1)"/>
  <use id="arrowright" xlink:href="#arrowRight" x="0" y="0" onmousedown="handlePan(1,0)"/>
  <use id="arrowdown" xlink:href="#arrowDown" x="0" y="0" onmousedown="handlePan(0,1)"/>
  <use id="arrowleft" xlink:href="#arrowLeft" x="0" y="0" onmousedown="handlePan(-1,0)"/>
</g>
<svg viewBox="0 0 15 15" width="100%" height="30px" preserveAspectRatio="xMaxYMin meet">
 <g id="arrow_out" transform="scale(0.3 0.3)">
  <a xlink:href="classfr_1_1softsf_1_1sudokufx_1_1viewmodel_1_1_full_menu_view_model__coll__graph_org.svg" target="_base">
   <rect id="button" ry="5" rx="5" y="6" x="6" height="38" width="38"
        fill="#f2f5e9" fill-opacity="0.5" stroke="#606060" stroke-width="1.0"/>
   <path id="arrow"
     d="M 11.500037,31.436501 C 11.940474,20.09759 22.043105,11.32322 32.158766,21.979434 L 37.068811,17.246167 C 37.068811,17.246167 37.088388,32 37.088388,32 L 22.160133,31.978069 C 22.160133,31.978069 26.997745,27.140456 26.997745,27.140456 C 18.528582,18.264221 13.291696,25.230495 11.500037,31.436501 z"
     style="fill:#404040;"/>
  </a>
 </g>
</svg>

<style type='text/css'>
<![CDATA[
[data-mouse-over-selected='false'] { opacity: 0.7; }
[data-mouse-over-selected='true']  { opacity: 1.0; }
]]>
</style>
<script type="application/ecmascript"><![CDATA[
document.addEventListener('DOMContentLoaded', (event) => {
  highlightEdges();
  highlightAdjacentNodes();
});
]]></script>
</svg>
