<?xml version="1.0" encoding="UTF-8" standalone="no"?>
<!DOCTYPE svg PUBLIC "-//W3C//DTD SVG 1.1//EN"
 "http://www.w3.org/Graphics/SVG/1.1/DTD/svg11.dtd">
<!-- Generated by graphviz version 12.2.1 (20241206.2353)
 -->
<!-- Title: fr.softsf.sudokufx.service.business.GridService.duplicateGrid Pages: 1 -->
<svg width="341pt" height="190pt"
 viewBox="0.00 0.00 340.75 190.00" xmlns="http://www.w3.org/2000/svg" xmlns:xlink="http://www.w3.org/1999/xlink">
<g id="page0,1_graph0" class="graph" transform="scale(1 1) rotate(0) translate(4 186)">
<title>fr.softsf.sudokufx.service.business.GridService.duplicateGrid</title>
<!-- Node1 -->
<g id="Node000001" class="node">
<title>Node1</title>
<g id="a_Node000001"><a xlink:title="Duplicates an existing Grid entity by creating a new record with a generated ID using the fluent buil...">
<polygon fill="#999999" stroke="#666666" points="172,-107 0,-107 0,-75 172,-75 172,-107"/>
<text text-anchor="start" x="8" y="-93.5" font-family="Helvetica,sans-Serif" font-size="10.00">fr.softsf.sudokufx.service.business.</text>
<text text-anchor="middle" x="86" y="-81.5" font-family="Helvetica,sans-Serif" font-size="10.00">GridService.duplicateGrid</text>
</a>
</g>
</g>
<!-- Node2 -->
<g id="Node000002" class="node">
<title>Node2</title>
<g id="a_Node000002"><a xlink:href="classfr_1_1softsf_1_1sudokufx_1_1model_1_1_grid.html#a2b8e0eb68f7ad02dc47d9b6e996e250a" target="_top" xlink:title="Creates a new GridBuilder for fluent construction of Grid instances.">
<polygon fill="white" stroke="#666666" points="332.75,-182 208,-182 208,-150 332.75,-150 332.75,-182"/>
<text text-anchor="start" x="216" y="-168.5" font-family="Helvetica,sans-Serif" font-size="10.00">fr.softsf.sudokufx.model.</text>
<text text-anchor="middle" x="270.38" y="-156.5" font-family="Helvetica,sans-Serif" font-size="10.00">Grid.builder</text>
</a>
</g>
</g>
<!-- Node1&#45;&gt;Node2 -->
<g id="edge1_Node000001_Node000002" class="edge">
<title>Node1&#45;&gt;Node2</title>
<g id="a_edge1_Node000001_Node000002"><a xlink:title=" ">
<path fill="none" stroke="#63b8ff" d="M126.76,-107.49C150.36,-117.26 180.87,-129.87 208,-141 211.41,-142.4 214.92,-143.84 218.46,-145.28"/>
<polygon fill="#63b8ff" stroke="#63b8ff" points="217.1,-148.51 227.68,-149.05 219.75,-142.03 217.1,-148.51"/>
</a>
</g>
</g>
<!-- Node3 -->
<g id="Node000003" class="node">
<title>Node3</title>
<g id="a_Node000003"><a xlink:href="classfr_1_1softsf_1_1sudokufx_1_1model_1_1_grid.html#ad178f4e4a4f286d044c17f7411368300" target="_top" xlink:title="Returns the default grid values.">
<polygon fill="white" stroke="#666666" points="332.75,-132 208,-132 208,-100 332.75,-100 332.75,-132"/>
<text text-anchor="start" x="216" y="-118.5" font-family="Helvetica,sans-Serif" font-size="10.00">fr.softsf.sudokufx.model.</text>
<text text-anchor="middle" x="270.38" y="-106.5" font-family="Helvetica,sans-Serif" font-size="10.00">Grid.getDefaultgridvalue</text>
</a>
</g>
</g>
<!-- Node1&#45;&gt;Node3 -->
<g id="edge2_Node000001_Node000003" class="edge">
<title>Node1&#45;&gt;Node3</title>
<g id="a_edge2_Node000001_Node000003"><a xlink:title=" ">
<path fill="none" stroke="#63b8ff" d="M172.31,-102.69C180.29,-103.79 188.32,-104.89 196.17,-105.96"/>
<polygon fill="#63b8ff" stroke="#63b8ff" points="195.62,-109.42 206,-107.31 196.57,-102.49 195.62,-109.42"/>
</a>
</g>
</g>
<!-- Node4 -->
<g id="Node000004" class="node">
<title>Node4</title>
<g id="a_Node000004"><a xlink:href="classfr_1_1softsf_1_1sudokufx_1_1model_1_1_grid.html#a5bd5ea56ca202e9deb4b7f79059e2e5c" target="_top" xlink:title="Returns the current grid values.">
<polygon fill="white" stroke="#666666" points="332.75,-82 208,-82 208,-50 332.75,-50 332.75,-82"/>
<text text-anchor="start" x="216" y="-68.5" font-family="Helvetica,sans-Serif" font-size="10.00">fr.softsf.sudokufx.model.</text>
<text text-anchor="middle" x="270.38" y="-56.5" font-family="Helvetica,sans-Serif" font-size="10.00">Grid.getGridvalue</text>
</a>
</g>
</g>
<!-- Node1&#45;&gt;Node4 -->
<g id="edge3_Node000001_Node000004" class="edge">
<title>Node1&#45;&gt;Node4</title>
<g id="a_edge3_Node000001_Node000004"><a xlink:title=" ">
<path fill="none" stroke="#63b8ff" d="M172.31,-79.31C180.29,-78.21 188.32,-77.11 196.17,-76.04"/>
<polygon fill="#63b8ff" stroke="#63b8ff" points="196.57,-79.51 206,-74.69 195.62,-72.58 196.57,-79.51"/>
</a>
</g>
</g>
<!-- Node5 -->
<g id="Node000005" class="node">
<title>Node5</title>
<g id="a_Node000005"><a xlink:href="classfr_1_1softsf_1_1sudokufx_1_1model_1_1_grid.html#a44e8b242ad211cc4e4d0107d2389af4a" target="_top" xlink:title="Returns the percentage of possibilities for this grid.">
<polygon fill="white" stroke="#666666" points="332.75,-32 208,-32 208,0 332.75,0 332.75,-32"/>
<text text-anchor="start" x="216" y="-18.5" font-family="Helvetica,sans-Serif" font-size="10.00">fr.softsf.sudokufx.model.</text>
<text text-anchor="middle" x="270.38" y="-6.5" font-family="Helvetica,sans-Serif" font-size="10.00">Grid.getPossibilities</text>
</a>
</g>
</g>
<!-- Node1&#45;&gt;Node5 -->
<g id="edge4_Node000001_Node000005" class="edge">
<title>Node1&#45;&gt;Node5</title>
<g id="a_edge4_Node000001_Node000005"><a xlink:title=" ">
<path fill="none" stroke="#63b8ff" d="M126.76,-74.51C150.36,-64.74 180.87,-52.13 208,-41 211.41,-39.6 214.92,-38.16 218.46,-36.72"/>
<polygon fill="#63b8ff" stroke="#63b8ff" points="219.75,-39.97 227.68,-32.95 217.1,-33.49 219.75,-39.97"/>
</a>
</g>
</g>
</g>
</svg>
