<?xml version="1.0" encoding="UTF-8" standalone="no"?>
<!DOCTYPE svg PUBLIC "-//W3C//DTD SVG 1.1//EN"
 "http://www.w3.org/Graphics/SVG/1.1/DTD/svg11.dtd">
<!-- Generated by graphviz version 12.2.1 (20241206.2353)
 -->
<!-- Title: fr.softsf.sudokufx.service.FxmlService Pages: 1 -->
<svg width="233pt" height="481pt"
 viewBox="0.00 0.00 232.88 481.00" xmlns="http://www.w3.org/2000/svg" xmlns:xlink="http://www.w3.org/1999/xlink">
<g id="graph0" class="graph" transform="scale(1 1) rotate(0) translate(4 477)">
<title>fr.softsf.sudokufx.service.FxmlService</title>
<!-- Node1 -->
<g id="Node000001" class="node">
<title>Node1</title>
<g id="a_Node000001"><a xlink:title="FxmlService is a Spring service that manages the loading of FXML files and updating the root of the J...">
<polygon fill="#999999" stroke="none" points="145.5,-168 0,-168 0,0 145.5,0 145.5,-168"/>
<text text-anchor="start" x="15.75" y="-154.5" font-family="Helvetica,sans-Serif" font-size="10.00">fr.softsf.sudokufx.service.</text>
<text text-anchor="start" x="45.38" y="-142.5" font-family="Helvetica,sans-Serif" font-size="10.00">FxmlService</text>
<text text-anchor="start" x="5.5" y="-126.5" font-family="Helvetica,sans-Serif" font-size="10.00">&#45;</text>
<text text-anchor="start" x="14" y="-126.5" font-family="Helvetica,sans-Serif" font-size="10.00">final FXMLLoader fxmlLoader</text>
<text text-anchor="start" x="5.5" y="-110.5" font-family="Helvetica,sans-Serif" font-size="10.00">&#45;</text>
<text text-anchor="start" x="14" y="-110.5" font-family="Helvetica,sans-Serif" font-size="10.00">final Scene scene</text>
<text text-anchor="start" x="5.5" y="-94.5" font-family="Helvetica,sans-Serif" font-size="10.00">&#45;</text>
<text text-anchor="start" x="14" y="-94.5" font-family="Helvetica,sans-Serif" font-size="10.00">static final Logger log</text>
<text text-anchor="start" x="4" y="-78.5" font-family="Helvetica,sans-Serif" font-size="10.00">+</text>
<text text-anchor="start" x="14" y="-78.5" font-family="Helvetica,sans-Serif" font-size="10.00">FxmlService(FXMLLoader</text>
<text text-anchor="start" x="14" y="-66.5" font-family="Helvetica,sans-Serif" font-size="10.00"> fxmlLoader)</text>
<text text-anchor="start" x="4" y="-50.5" font-family="Helvetica,sans-Serif" font-size="10.00">+</text>
<text text-anchor="start" x="14" y="-50.5" font-family="Helvetica,sans-Serif" font-size="10.00">void setDynamicFontSize()</text>
<text text-anchor="start" x="4" y="-34.5" font-family="Helvetica,sans-Serif" font-size="10.00">+</text>
<text text-anchor="start" x="14" y="-34.5" font-family="Helvetica,sans-Serif" font-size="10.00">void setRootByFXMLName</text>
<text text-anchor="start" x="14" y="-22.5" font-family="Helvetica,sans-Serif" font-size="10.00">(final String fxml)</text>
<text text-anchor="start" x="4" y="-6.5" font-family="Helvetica,sans-Serif" font-size="10.00">~</text>
<text text-anchor="start" x="14" y="-6.5" font-family="Helvetica,sans-Serif" font-size="10.00">public&lt; T &gt; T getController()</text>
<polygon fill="#666666" stroke="#666666" points="0,-138 0,-138 145.5,-138 145.5,-138 0,-138"/>
<polygon fill="#666666" stroke="#666666" points="0,-90 0,-90 12,-90 12,-90 0,-90"/>
<polygon fill="#666666" stroke="#666666" points="12,-90 12,-90 145.5,-90 145.5,-90 12,-90"/>
<polygon fill="none" stroke="#666666" points="0,0 0,-168 145.5,-168 145.5,0 0,0"/>
</a>
</g>
</g>
<!-- Node2 -->
<g id="Node000002" class="node">
<title>Node2</title>
<g id="a_Node000002"><a xlink:href="interfacefr_1_1softsf_1_1sudokufx_1_1interfaces_1_1_i_scene_provider.html" target="_top" xlink:title="Interface ISceneProvider.">
<polygon fill="white" stroke="none" points="135.38,-473 2.12,-473 2.12,-409 135.38,-409 135.38,-473"/>
<text text-anchor="start" x="6.12" y="-459.5" font-family="Helvetica,sans-Serif" font-size="10.00">fr.softsf.sudokufx.interfaces.</text>
<text text-anchor="start" x="35.38" y="-447.5" font-family="Helvetica,sans-Serif" font-size="10.00">ISceneProvider</text>
<text text-anchor="start" x="67.25" y="-431.5" font-family="Helvetica,sans-Serif" font-size="10.00"> </text>
<text text-anchor="start" x="7.38" y="-415.5" font-family="Helvetica,sans-Serif" font-size="10.00">+</text>
<text text-anchor="start" x="18.62" y="-415.5" font-family="Helvetica,sans-Serif" font-size="10.00">default Scene getScene()</text>
<polygon fill="#666666" stroke="#666666" points="2.12,-443 2.12,-443 135.38,-443 135.38,-443 2.12,-443"/>
<polygon fill="#666666" stroke="#666666" points="2.12,-427 2.12,-427 135.38,-427 135.38,-427 2.12,-427"/>
<polygon fill="none" stroke="#666666" points="2.12,-409 2.12,-473 135.38,-473 135.38,-409 2.12,-409"/>
</a>
</g>
</g>
<!-- Node2&#45;&gt;Node1 -->
<g id="edge1_Node000001_Node000002" class="edge">
<title>Node2&#45;&gt;Node1</title>
<g id="a_edge1_Node000001_Node000002"><a xlink:title=" ">
<path fill="none" stroke="#63b8ff" d="M69.23,-397.76C69.86,-341.22 71.01,-239.72 71.82,-167.69"/>
<polygon fill="none" stroke="#63b8ff" points="65.73,-397.56 69.12,-407.6 72.73,-397.64 65.73,-397.56"/>
</a>
</g>
</g>
<!-- Node3 -->
<g id="Node000003" class="node">
<title>Node3</title>
<g id="a_Node000003"><a xlink:href="classfr_1_1softsf_1_1sudokufx_1_1utils_1_1_dynamic_font_size.html" target="_top" xlink:title="Manages dynamic font sizing based on the dimensions of a JavaFX Scene.">
<polygon fill="white" stroke="none" points="224.88,-372 84.62,-372 84.62,-216 224.88,-216 224.88,-372"/>
<text text-anchor="start" x="104.5" y="-358.5" font-family="Helvetica,sans-Serif" font-size="10.00">fr.softsf.sudokufx.utils.</text>
<text text-anchor="start" x="115.75" y="-346.5" font-family="Helvetica,sans-Serif" font-size="10.00">DynamicFontSize</text>
<text text-anchor="start" x="90.12" y="-330.5" font-family="Helvetica,sans-Serif" font-size="10.00">&#45;</text>
<text text-anchor="start" x="98.62" y="-330.5" font-family="Helvetica,sans-Serif" font-size="10.00">double currentFontSize</text>
<text text-anchor="start" x="90.12" y="-314.5" font-family="Helvetica,sans-Serif" font-size="10.00">&#45;</text>
<text text-anchor="start" x="98.62" y="-314.5" font-family="Helvetica,sans-Serif" font-size="10.00">Scene scene</text>
<text text-anchor="start" x="88.62" y="-298.5" font-family="Helvetica,sans-Serif" font-size="10.00">+</text>
<text text-anchor="start" x="98.62" y="-298.5" font-family="Helvetica,sans-Serif" font-size="10.00">DynamicFontSize()</text>
<text text-anchor="start" x="88.62" y="-282.5" font-family="Helvetica,sans-Serif" font-size="10.00">+</text>
<text text-anchor="start" x="98.62" y="-282.5" font-family="Helvetica,sans-Serif" font-size="10.00">double getCurrentFontSize()</text>
<text text-anchor="start" x="88.62" y="-266.5" font-family="Helvetica,sans-Serif" font-size="10.00">+</text>
<text text-anchor="start" x="98.62" y="-266.5" font-family="Helvetica,sans-Serif" font-size="10.00">void updateFontSize()</text>
<text text-anchor="start" x="88.62" y="-250.5" font-family="Helvetica,sans-Serif" font-size="10.00">~</text>
<text text-anchor="start" x="98.62" y="-250.5" font-family="Helvetica,sans-Serif" font-size="10.00">DynamicFontSize(Scene</text>
<text text-anchor="start" x="98.62" y="-238.5" font-family="Helvetica,sans-Serif" font-size="10.00"> scene)</text>
<text text-anchor="start" x="90.12" y="-222.5" font-family="Helvetica,sans-Serif" font-size="10.00">&#45;</text>
<text text-anchor="start" x="98.62" y="-222.5" font-family="Helvetica,sans-Serif" font-size="10.00">void initialize()</text>
<polygon fill="#666666" stroke="#666666" points="84.62,-342 84.62,-342 224.88,-342 224.88,-342 84.62,-342"/>
<polygon fill="#666666" stroke="#666666" points="84.62,-310 84.62,-310 96.62,-310 96.62,-310 84.62,-310"/>
<polygon fill="#666666" stroke="#666666" points="96.62,-310 96.62,-310 224.88,-310 224.88,-310 96.62,-310"/>
<polygon fill="none" stroke="#666666" points="84.62,-216 84.62,-372 224.88,-372 224.88,-216 84.62,-216"/>
</a>
</g>
</g>
<!-- Node2&#45;&gt;Node3 -->
<g id="edge3_Node000003_Node000002" class="edge">
<title>Node2&#45;&gt;Node3</title>
<g id="a_edge3_Node000003_Node000002"><a xlink:title=" ">
<path fill="none" stroke="#63b8ff" d="M92.77,-399.49C97.9,-390.85 103.47,-381.45 109.11,-371.95"/>
<polygon fill="none" stroke="#63b8ff" points="89.85,-397.56 87.76,-407.95 95.87,-401.13 89.85,-397.56"/>
</a>
</g>
</g>
<!-- Node3&#45;&gt;Node1 -->
<g id="edge2_Node000001_Node000003" class="edge">
<title>Node3&#45;&gt;Node1</title>
<g id="a_edge2_Node000001_Node000003"><a xlink:title=" ">
<path fill="none" stroke="#63b8ff" d="M124.45,-216.14C119.8,-204.34 114.94,-192.03 110.16,-179.89"/>
<polygon fill="none" stroke="#63b8ff" points="110.14,-179.84 104.22,-175.72 105.74,-168.67 111.66,-172.79 110.14,-179.84"/>
</a>
</g>
<text text-anchor="middle" x="157.08" y="-188.5" font-family="Helvetica,sans-Serif" font-size="10.00" fill="grey"> &#45;dynamicFontSize</text>
</g>
</g>
</svg>
