<?xml version="1.0" encoding="UTF-8" standalone="no"?>
<!DOCTYPE svg PUBLIC "-//W3C//DTD SVG 1.1//EN"
 "http://www.w3.org/Graphics/SVG/1.1/DTD/svg11.dtd">
<!-- Generated by graphviz version 12.2.1 (20241206.2353)
 -->
<!-- Title: fr.softsf.sudokufx.service.business.PlayerService.updatePlayerSelection Pages: 1 -->
<svg width="509pt" height="90pt"
 viewBox="0.00 0.00 509.00 90.00" xmlns="http://www.w3.org/2000/svg" xmlns:xlink="http://www.w3.org/1999/xlink">
<g id="page0,1_graph0" class="graph" transform="scale(1 1) rotate(0) translate(4 86)">
<title>fr.softsf.sudokufx.service.business.PlayerService.updatePlayerSelection</title>
<!-- Node1 -->
<g id="Node000001" class="node">
<title>Node1</title>
<g id="a_Node000001"><a xlink:title="Internal utility to update player selection state and persist changes.">
<polygon fill="#999999" stroke="#666666" points="177.25,-57 0,-57 0,-25 177.25,-25 177.25,-57"/>
<text text-anchor="start" x="8" y="-43.5" font-family="Helvetica,sans-Serif" font-size="10.00">fr.softsf.sudokufx.service.business.</text>
<text text-anchor="middle" x="88.62" y="-31.5" font-family="Helvetica,sans-Serif" font-size="10.00">PlayerService.updatePlayerSelection</text>
</a>
</g>
</g>
<!-- Node2 -->
<g id="Node000002" class="node">
<title>Node2</title>
<g id="a_Node000002"><a xlink:href="classfr_1_1softsf_1_1sudokufx_1_1model_1_1_player.html#ade99f107878b74490ae3d014ff294f60" target="_top" xlink:title="Sets the selection flag.">
<polygon fill="white" stroke="#666666" points="338,-82 213.25,-82 213.25,-50 338,-50 338,-82"/>
<text text-anchor="start" x="221.25" y="-68.5" font-family="Helvetica,sans-Serif" font-size="10.00">fr.softsf.sudokufx.model.</text>
<text text-anchor="middle" x="275.62" y="-56.5" font-family="Helvetica,sans-Serif" font-size="10.00">Player.setSelected</text>
</a>
</g>
</g>
<!-- Node1&#45;&gt;Node2 -->
<g id="edge1_Node000001_Node000002" class="edge">
<title>Node1&#45;&gt;Node2</title>
<g id="a_edge1_Node000001_Node000002"><a xlink:title=" ">
<path fill="none" stroke="#63b8ff" d="M177.52,-52.88C185.54,-53.96 193.6,-55.05 201.47,-56.11"/>
<polygon fill="#63b8ff" stroke="#63b8ff" points="200.95,-59.58 211.33,-57.45 201.89,-52.64 200.95,-59.58"/>
</a>
</g>
</g>
<!-- Node3 -->
<g id="Node000003" class="node">
<title>Node3</title>
<g id="a_Node000003"><a xlink:href="classfr_1_1softsf_1_1sudokufx_1_1model_1_1_player.html#a33aa6abba56c524b516fe11cde122739" target="_top" xlink:title="Sets the update timestamp after validation.">
<polygon fill="white" stroke="#666666" points="338,-32 213.25,-32 213.25,0 338,0 338,-32"/>
<text text-anchor="start" x="221.25" y="-18.5" font-family="Helvetica,sans-Serif" font-size="10.00">fr.softsf.sudokufx.model.</text>
<text text-anchor="middle" x="275.62" y="-6.5" font-family="Helvetica,sans-Serif" font-size="10.00">Player.setUpdatedat</text>
</a>
</g>
</g>
<!-- Node1&#45;&gt;Node3 -->
<g id="edge2_Node000001_Node000003" class="edge">
<title>Node1&#45;&gt;Node3</title>
<g id="a_edge2_Node000001_Node000003"><a xlink:title=" ">
<path fill="none" stroke="#63b8ff" d="M177.52,-29.12C185.54,-28.04 193.6,-26.95 201.47,-25.89"/>
<polygon fill="#63b8ff" stroke="#63b8ff" points="201.89,-29.36 211.33,-24.55 200.95,-22.42 201.89,-29.36"/>
</a>
</g>
</g>
<!-- Node4 -->
<g id="Node000004" class="node">
<title>Node4</title>
<g id="a_Node000004"><a xlink:href="classfr_1_1softsf_1_1sudokufx_1_1model_1_1_player.html#aeb37d6a41a17c7c3762f30a68b29ca54" target="_top" xlink:title="Validates that the update date is not null.">
<polygon fill="white" stroke="#666666" points="501,-32 374,-32 374,0 501,0 501,-32"/>
<text text-anchor="start" x="382" y="-18.5" font-family="Helvetica,sans-Serif" font-size="10.00">fr.softsf.sudokufx.model.</text>
<text text-anchor="middle" x="437.5" y="-6.5" font-family="Helvetica,sans-Serif" font-size="10.00">Player.validateUpdatedAt</text>
</a>
</g>
</g>
<!-- Node3&#45;&gt;Node4 -->
<g id="edge3_Node000003_Node000004" class="edge">
<title>Node3&#45;&gt;Node4</title>
<g id="a_edge3_Node000003_Node000004"><a xlink:title=" ">
<path fill="none" stroke="#63b8ff" d="M338.44,-16C346.17,-16 354.14,-16 362.04,-16"/>
<polygon fill="#63b8ff" stroke="#63b8ff" points="362.02,-19.5 372.02,-16 362.02,-12.5 362.02,-19.5"/>
</a>
</g>
</g>
</g>
</svg>
