<?xml version="1.0" encoding="UTF-8" standalone="no"?>
<!DOCTYPE svg PUBLIC "-//W3C//DTD SVG 1.1//EN"
 "http://www.w3.org/Graphics/SVG/1.1/DTD/svg11.dtd">
<!-- Generated by graphviz version 12.2.1 (20241206.2353)
 -->
<!-- Title: fr.softsf.sudokufx.viewmodel.grid.GridViewModel Pages: 1 -->
<svg width="249pt" height="548pt"
 viewBox="0.00 0.00 248.75 548.00" xmlns="http://www.w3.org/2000/svg" xmlns:xlink="http://www.w3.org/1999/xlink">
<g id="graph0" class="graph" transform="scale(1 1) rotate(0) translate(4 544)">
<title>fr.softsf.sudokufx.viewmodel.grid.GridViewModel</title>
<!-- Node1 -->
<g id="Node000001" class="node">
<title>Node1</title>
<g id="a_Node000001"><a xlink:title="ViewModel component managing a 9x9 Sudoku grid.">
<polygon fill="#999999" stroke="none" points="222,-364 0,-364 0,0 222,0 222,-364"/>
<text text-anchor="start" x="37.12" y="-350.5" font-family="Helvetica,sans-Serif" font-size="10.00">fr.softsf.sudokufx.viewmodel.grid.</text>
<text text-anchor="start" x="78" y="-338.5" font-family="Helvetica,sans-Serif" font-size="10.00">GridViewModel</text>
<text text-anchor="start" x="5.5" y="-322.5" font-family="Helvetica,sans-Serif" font-size="10.00">&#45;</text>
<text text-anchor="start" x="14" y="-322.5" font-family="Helvetica,sans-Serif" font-size="10.00">final List&lt; GridCellView</text>
<text text-anchor="start" x="14" y="-310.5" font-family="Helvetica,sans-Serif" font-size="10.00">Model &gt; cellViewModels</text>
<text text-anchor="start" x="5.5" y="-294.5" font-family="Helvetica,sans-Serif" font-size="10.00">&#45;</text>
<text text-anchor="start" x="14" y="-294.5" font-family="Helvetica,sans-Serif" font-size="10.00">final IGridMaster iGridMaster</text>
<text text-anchor="start" x="5.5" y="-278.5" font-family="Helvetica,sans-Serif" font-size="10.00">&#45;</text>
<text text-anchor="start" x="14" y="-278.5" font-family="Helvetica,sans-Serif" font-size="10.00">static final int GRID_SIZE</text>
<text text-anchor="start" x="5.5" y="-262.5" font-family="Helvetica,sans-Serif" font-size="10.00">&#45;</text>
<text text-anchor="start" x="14" y="-262.5" font-family="Helvetica,sans-Serif" font-size="10.00">static final int TOTAL</text>
<text text-anchor="start" x="14" y="-250.5" font-family="Helvetica,sans-Serif" font-size="10.00">_CELLS</text>
<text text-anchor="start" x="4" y="-234.5" font-family="Helvetica,sans-Serif" font-size="10.00">+</text>
<text text-anchor="start" x="14" y="-234.5" font-family="Helvetica,sans-Serif" font-size="10.00">GridViewModel(IGridMaster</text>
<text text-anchor="start" x="14" y="-222.5" font-family="Helvetica,sans-Serif" font-size="10.00"> iGridMaster, ActiveMenuOrSubmenu</text>
<text text-anchor="start" x="14" y="-210.5" font-family="Helvetica,sans-Serif" font-size="10.00">ViewModel activeMenuOrSubmenuViewModel)</text>
<text text-anchor="start" x="4" y="-194.5" font-family="Helvetica,sans-Serif" font-size="10.00">+</text>
<text text-anchor="start" x="14" y="-194.5" font-family="Helvetica,sans-Serif" font-size="10.00">int applyLevel(Difficulty</text>
<text text-anchor="start" x="14" y="-182.5" font-family="Helvetica,sans-Serif" font-size="10.00">Level level)</text>
<text text-anchor="start" x="4" y="-166.5" font-family="Helvetica,sans-Serif" font-size="10.00">+</text>
<text text-anchor="start" x="14" y="-166.5" font-family="Helvetica,sans-Serif" font-size="10.00">void clearGrid()</text>
<text text-anchor="start" x="4" y="-150.5" font-family="Helvetica,sans-Serif" font-size="10.00">+</text>
<text text-anchor="start" x="14" y="-150.5" font-family="Helvetica,sans-Serif" font-size="10.00">List&lt; String &gt; getAllValues()</text>
<text text-anchor="start" x="4" y="-134.5" font-family="Helvetica,sans-Serif" font-size="10.00">+</text>
<text text-anchor="start" x="14" y="-134.5" font-family="Helvetica,sans-Serif" font-size="10.00">Optional&lt; GridCellViewModel</text>
<text text-anchor="start" x="14" y="-122.5" font-family="Helvetica,sans-Serif" font-size="10.00"> &gt; getCellViewModelById</text>
<text text-anchor="start" x="14" y="-110.5" font-family="Helvetica,sans-Serif" font-size="10.00">(int id)</text>
<text text-anchor="start" x="4" y="-94.5" font-family="Helvetica,sans-Serif" font-size="10.00">+</text>
<text text-anchor="start" x="14" y="-94.5" font-family="Helvetica,sans-Serif" font-size="10.00">List&lt; GridCellViewModel</text>
<text text-anchor="start" x="14" y="-82.5" font-family="Helvetica,sans-Serif" font-size="10.00"> &gt; getCellViewModels()</text>
<text text-anchor="start" x="4" y="-66.5" font-family="Helvetica,sans-Serif" font-size="10.00">+</text>
<text text-anchor="start" x="14" y="-66.5" font-family="Helvetica,sans-Serif" font-size="10.00">void init()</text>
<text text-anchor="start" x="4" y="-50.5" font-family="Helvetica,sans-Serif" font-size="10.00">+</text>
<text text-anchor="start" x="14" y="-50.5" font-family="Helvetica,sans-Serif" font-size="10.00">void setValues(List</text>
<text text-anchor="start" x="14" y="-38.5" font-family="Helvetica,sans-Serif" font-size="10.00">&lt; String &gt; values)</text>
<text text-anchor="start" x="5.5" y="-22.5" font-family="Helvetica,sans-Serif" font-size="10.00">&#45;</text>
<text text-anchor="start" x="14" y="-22.5" font-family="Helvetica,sans-Serif" font-size="10.00">boolean isCompletelyCompleted()</text>
<text text-anchor="start" x="5.5" y="-6.5" font-family="Helvetica,sans-Serif" font-size="10.00">&#45;</text>
<text text-anchor="start" x="14" y="-6.5" font-family="Helvetica,sans-Serif" font-size="10.00">void verifyGrid()</text>
<polygon fill="#666666" stroke="#666666" points="0,-334 0,-334 222,-334 222,-334 0,-334"/>
<polygon fill="#666666" stroke="#666666" points="0,-246 0,-246 12,-246 12,-246 0,-246"/>
<polygon fill="#666666" stroke="#666666" points="12,-246 12,-246 222,-246 222,-246 12,-246"/>
<polygon fill="none" stroke="#666666" points="0,0 0,-364 222,-364 222,0 0,0"/>
</a>
</g>
</g>
<!-- Node2 -->
<g id="Node000002" class="node">
<title>Node2</title>
<g id="a_Node000002"><a xlink:href="classfr_1_1softsf_1_1sudokufx_1_1viewmodel_1_1_active_menu_or_submenu_view_model.html" target="_top" xlink:title="ViewModel component managing the currently active menu or submenu.">
<polygon fill="white" stroke="none" points="190.75,-540 31.25,-540 31.25,-424 190.75,-424 190.75,-540"/>
<text text-anchor="start" x="35.25" y="-526.5" font-family="Helvetica,sans-Serif" font-size="10.00">fr.softsf.sudokufx.viewmodel.</text>
<text text-anchor="start" x="35.25" y="-514.5" font-family="Helvetica,sans-Serif" font-size="10.00">ActiveMenuOrSubmenuViewModel</text>
<text text-anchor="start" x="40.81" y="-498.5" font-family="Helvetica,sans-Serif" font-size="10.00">&#45;</text>
<text text-anchor="start" x="53.38" y="-498.5" font-family="Helvetica,sans-Serif" font-size="10.00">final ObjectProperty</text>
<text text-anchor="start" x="53.38" y="-486.5" font-family="Helvetica,sans-Serif" font-size="10.00">&lt; ActiveMenu &gt; activeMenu</text>
<text text-anchor="start" x="39.31" y="-470.5" font-family="Helvetica,sans-Serif" font-size="10.00">+</text>
<text text-anchor="start" x="53.38" y="-470.5" font-family="Helvetica,sans-Serif" font-size="10.00">ObjectProperty&lt; ActiveMenu</text>
<text text-anchor="start" x="53.38" y="-458.5" font-family="Helvetica,sans-Serif" font-size="10.00"> &gt; getActiveMenu()</text>
<text text-anchor="start" x="39.31" y="-442.5" font-family="Helvetica,sans-Serif" font-size="10.00">+</text>
<text text-anchor="start" x="53.38" y="-442.5" font-family="Helvetica,sans-Serif" font-size="10.00">void setActiveMenu</text>
<text text-anchor="start" x="53.38" y="-430.5" font-family="Helvetica,sans-Serif" font-size="10.00">(ActiveMenu menu)</text>
<polygon fill="#666666" stroke="#666666" points="31.25,-510 31.25,-510 190.75,-510 190.75,-510 31.25,-510"/>
<polygon fill="#666666" stroke="#666666" points="31.25,-482 31.25,-482 51.38,-482 51.38,-482 31.25,-482"/>
<polygon fill="#666666" stroke="#666666" points="51.38,-482 51.38,-482 190.75,-482 190.75,-482 51.38,-482"/>
<polygon fill="none" stroke="#666666" points="31.25,-424 31.25,-540 190.75,-540 190.75,-424 31.25,-424"/>
</a>
</g>
</g>
<!-- Node2&#45;&gt;Node1 -->
<g id="edge1_Node000001_Node000002" class="edge">
<title>Node2&#45;&gt;Node1</title>
<g id="a_edge1_Node000001_Node000002"><a xlink:title=" ">
<path fill="none" stroke="#63b8ff" d="M111,-424.25C111,-409.84 111,-393.54 111,-376.38"/>
<polygon fill="none" stroke="#63b8ff" points="111,-376.64 107,-370.64 111,-364.64 115,-370.64 111,-376.64"/>
</a>
</g>
<text text-anchor="start" x="111" y="-396.5" font-family="Helvetica,sans-Serif" font-size="10.00" fill="grey"> &#45;activeMenuOrSubmenuView</text>
<text text-anchor="middle" x="175.88" y="-384.5" font-family="Helvetica,sans-Serif" font-size="10.00" fill="grey">Model</text>
</g>
</g>
</svg>
