<?xml version="1.0" encoding="UTF-8" standalone="no"?>
<!DOCTYPE svg PUBLIC "-//W3C//DTD SVG 1.1//EN"
 "http://www.w3.org/Graphics/SVG/1.1/DTD/svg11.dtd">
<!-- Generated by graphviz version 12.2.1 (20241206.2353)
 -->
<!-- Title: fr.softsf.sudokufx.viewmodel.MenuPlayerViewModel.playerName Pages: 1 -->
<svg width="768pt" height="154pt"
 viewBox="0.00 0.00 768.00 154.00" xmlns="http://www.w3.org/2000/svg" xmlns:xlink="http://www.w3.org/1999/xlink">
<g id="graph0" class="graph" transform="scale(1 1) rotate(0) translate(4 150)">
<title>fr.softsf.sudokufx.viewmodel.MenuPlayerViewModel.playerName</title>
<!-- Node1 -->
<g id="Node000001" class="node">
<title>Node1</title>
<g id="a_Node000001"><a xlink:title="Returns the name of the currently selected player or empty if none.">
<polygon fill="#999999" stroke="#666666" points="171.25,-95 0,-95 0,-63 171.25,-63 171.25,-95"/>
<text text-anchor="start" x="8" y="-81.5" font-family="Helvetica,sans-Serif" font-size="10.00">fr.softsf.sudokufx.viewmodel.</text>
<text text-anchor="middle" x="85.62" y="-69.5" font-family="Helvetica,sans-Serif" font-size="10.00">MenuPlayerViewModel.playerName</text>
</a>
</g>
</g>
<!-- Node2 -->
<g id="Node000002" class="node">
<title>Node2</title>
<g id="a_Node000002"><a xlink:href="namespacefr_1_1softsf_1_1sudokufx_1_1dto.html#a1862f40401c051e5ca0d9444152882cf" target="_top" xlink:title=" ">
<polygon fill="white" stroke="#666666" points="362.75,-89 207.25,-89 207.25,-69 362.75,-69 362.75,-89"/>
<text text-anchor="middle" x="285" y="-75.5" font-family="Helvetica,sans-Serif" font-size="10.00">fr.softsf.sudokufx.dto.PlayerDto</text>
</a>
</g>
</g>
<!-- Node1&#45;&gt;Node2 -->
<g id="edge1_Node000001_Node000002" class="edge">
<title>Node1&#45;&gt;Node2</title>
<g id="a_edge1_Node000001_Node000002"><a xlink:title=" ">
<path fill="none" stroke="#63b8ff" d="M171.48,-79C179.5,-79 187.65,-79 195.71,-79"/>
<polygon fill="#63b8ff" stroke="#63b8ff" points="195.5,-82.5 205.5,-79 195.5,-75.5 195.5,-82.5"/>
</a>
</g>
</g>
<!-- Node2&#45;&gt;Node2 -->
<g id="edge7_Node000002_Node000002" class="edge">
<title>Node2&#45;&gt;Node2</title>
<g id="a_edge7_Node000002_Node000002"><a xlink:title=" ">
<path fill="none" stroke="#63b8ff" d="M253.32,-89.34C239.78,-97.98 250.34,-107 285,-107 304.49,-107 316.36,-104.14 320.61,-100.11"/>
<polygon fill="#63b8ff" stroke="#63b8ff" points="323.91,-98.95 317.2,-90.76 317.34,-101.35 323.91,-98.95"/>
</a>
</g>
</g>
<!-- Node3 -->
<g id="Node000003" class="node">
<title>Node3</title>
<g id="a_Node000003"><a xlink:href="namespacefr_1_1softsf_1_1sudokufx_1_1dto.html#a74a25e6890e40c0776edc15742133036" target="_top" xlink:title=" ">
<polygon fill="white" stroke="#666666" points="578.25,-146 398.75,-146 398.75,-126 578.25,-126 578.25,-146"/>
<text text-anchor="middle" x="488.5" y="-132.5" font-family="Helvetica,sans-Serif" font-size="10.00">fr.softsf.sudokufx.dto.OptionsDto</text>
</a>
</g>
</g>
<!-- Node2&#45;&gt;Node3 -->
<g id="edge2_Node000002_Node000003" class="edge">
<title>Node2&#45;&gt;Node3</title>
<g id="a_edge2_Node000002_Node000003"><a xlink:title=" ">
<path fill="none" stroke="#63b8ff" d="M313.99,-89.43C336.64,-97.62 369.47,-108.96 398.75,-117 406.48,-119.12 414.64,-121.15 422.76,-123.04"/>
<polygon fill="#63b8ff" stroke="#63b8ff" points="421.76,-126.4 432.28,-125.19 423.3,-119.57 421.76,-126.4"/>
</a>
</g>
</g>
<!-- Node4 -->
<g id="Node000004" class="node">
<title>Node4</title>
<g id="a_Node000004"><a xlink:href="namespacefr_1_1softsf_1_1sudokufx_1_1dto.html#a37aaf8c06967608e0eac24a4d458f34b" target="_top" xlink:title=" ">
<polygon fill="white" stroke="#666666" points="565.5,-108 411.5,-108 411.5,-88 565.5,-88 565.5,-108"/>
<text text-anchor="middle" x="488.5" y="-94.5" font-family="Helvetica,sans-Serif" font-size="10.00">fr.softsf.sudokufx.dto.GameDto</text>
</a>
</g>
</g>
<!-- Node2&#45;&gt;Node4 -->
<g id="edge3_Node000002_Node000004" class="edge">
<title>Node2&#45;&gt;Node4</title>
<g id="a_edge3_Node000002_Node000004"><a xlink:title=" ">
<path fill="none" stroke="#63b8ff" d="M363.04,-86.26C375.12,-87.4 387.68,-88.59 399.97,-89.75"/>
<polygon fill="#63b8ff" stroke="#63b8ff" points="399.38,-93.21 409.66,-90.66 400.03,-86.24 399.38,-93.21"/>
</a>
</g>
</g>
<!-- Node7 -->
<g id="Node000007" class="node">
<title>Node7</title>
<g id="a_Node000007"><a xlink:href="namespacefr_1_1softsf_1_1sudokufx_1_1dto.html#a4b93797829452798604adaaaf4b0da89" target="_top" xlink:title=" ">
<polygon fill="white" stroke="#666666" points="564.38,-70 412.62,-70 412.62,-50 564.38,-50 564.38,-70"/>
<text text-anchor="middle" x="488.5" y="-56.5" font-family="Helvetica,sans-Serif" font-size="10.00">fr.softsf.sudokufx.dto.MenuDto</text>
</a>
</g>
</g>
<!-- Node2&#45;&gt;Node7 -->
<g id="edge6_Node000002_Node000007" class="edge">
<title>Node2&#45;&gt;Node7</title>
<g id="a_edge6_Node000002_Node000007"><a xlink:title=" ">
<path fill="none" stroke="#63b8ff" d="M363.04,-71.74C375.38,-70.57 388.21,-69.36 400.75,-68.18"/>
<polygon fill="#63b8ff" stroke="#63b8ff" points="401.03,-71.67 410.66,-67.25 400.37,-64.7 401.03,-71.67"/>
</a>
</g>
</g>
<!-- Node8 -->
<g id="Node000008" class="node">
<title>Node8</title>
<g id="a_Node000008"><a xlink:href="namespacefr_1_1softsf_1_1sudokufx_1_1dto.html#a57e3465d00d6e83a9d0fd8c03223868d" target="_top" xlink:title=" ">
<polygon fill="white" stroke="#666666" points="558.38,-32 418.62,-32 418.62,0 558.38,0 558.38,-32"/>
<text text-anchor="start" x="426.62" y="-18.5" font-family="Helvetica,sans-Serif" font-size="10.00">fr.softsf.sudokufx.dto.Player</text>
<text text-anchor="middle" x="488.5" y="-6.5" font-family="Helvetica,sans-Serif" font-size="10.00">LanguageDto</text>
</a>
</g>
</g>
<!-- Node2&#45;&gt;Node8 -->
<g id="edge8_Node000002_Node000008" class="edge">
<title>Node2&#45;&gt;Node8</title>
<g id="a_edge8_Node000002_Node000008"><a xlink:title=" ">
<path fill="none" stroke="#63b8ff" d="M315.54,-68.59C338.21,-60.71 370.33,-49.79 398.75,-41 404.58,-39.2 410.64,-37.38 416.74,-35.58"/>
<polygon fill="#63b8ff" stroke="#63b8ff" points="417.62,-38.97 426.25,-32.82 415.67,-32.25 417.62,-38.97"/>
</a>
</g>
</g>
<!-- Node5 -->
<g id="Node000005" class="node">
<title>Node5</title>
<g id="a_Node000005"><a xlink:href="namespacefr_1_1softsf_1_1sudokufx_1_1dto.html#a82b953d912bf7621392b51e45915af32" target="_top" xlink:title=" ">
<polygon fill="white" stroke="#666666" points="756.25,-136 618,-136 618,-104 756.25,-104 756.25,-136"/>
<text text-anchor="start" x="626" y="-122.5" font-family="Helvetica,sans-Serif" font-size="10.00">fr.softsf.sudokufx.dto.Game</text>
<text text-anchor="middle" x="687.12" y="-110.5" font-family="Helvetica,sans-Serif" font-size="10.00">LevelDto</text>
</a>
</g>
</g>
<!-- Node4&#45;&gt;Node5 -->
<g id="edge4_Node000004_Node000005" class="edge">
<title>Node4&#45;&gt;Node5</title>
<g id="a_edge4_Node000004_Node000005"><a xlink:title=" ">
<path fill="none" stroke="#63b8ff" d="M565.8,-106.54C579.13,-108.03 593.02,-109.58 606.43,-111.08"/>
<polygon fill="#63b8ff" stroke="#63b8ff" points="605.73,-114.53 616.06,-112.16 606.51,-107.57 605.73,-114.53"/>
</a>
</g>
</g>
<!-- Node6 -->
<g id="Node000006" class="node">
<title>Node6</title>
<g id="a_Node000006"><a xlink:href="namespacefr_1_1softsf_1_1sudokufx_1_1dto.html#a55eaa4f45339420cc86114a3d8dab18b" target="_top" xlink:title=" ">
<polygon fill="white" stroke="#666666" points="760,-86 614.25,-86 614.25,-66 760,-66 760,-86"/>
<text text-anchor="middle" x="687.12" y="-72.5" font-family="Helvetica,sans-Serif" font-size="10.00">fr.softsf.sudokufx.dto.GridDto</text>
</a>
</g>
</g>
<!-- Node4&#45;&gt;Node6 -->
<g id="edge5_Node000004_Node000006" class="edge">
<title>Node4&#45;&gt;Node6</title>
<g id="a_edge5_Node000004_Node000006"><a xlink:title=" ">
<path fill="none" stroke="#63b8ff" d="M565.8,-89.46C577.95,-88.1 590.57,-86.69 602.87,-85.31"/>
<polygon fill="#63b8ff" stroke="#63b8ff" points="603,-88.82 612.55,-84.23 602.22,-81.87 603,-88.82"/>
</a>
</g>
</g>
</g>
</svg>
