<?xml version="1.0" encoding="UTF-8" standalone="no"?>
<!DOCTYPE svg PUBLIC "-//W3C//DTD SVG 1.1//EN"
 "http://www.w3.org/Graphics/SVG/1.1/DTD/svg11.dtd">
<!-- Generated by graphviz version 12.2.1 (20241206.2353)
 -->
<!-- Title: fr.softsf.sudokufx.config.database.ApplicationKeystore.credentials Pages: 1 -->
<svg width="1055pt" height="134pt"
 viewBox="0.00 0.00 1054.75 134.00" xmlns="http://www.w3.org/2000/svg" xmlns:xlink="http://www.w3.org/1999/xlink">
<g id="graph0" class="graph" transform="scale(1 1) rotate(0) translate(4 130)">
<title>fr.softsf.sudokufx.config.database.ApplicationKeystore.credentials</title>
<!-- Node1 -->
<g id="Node000001" class="node">
<title>Node1</title>
<g id="a_Node000001"><a xlink:title="Retrieves credentials if the alias exists in the keystore; otherwise, generates and stores them.">
<polygon fill="#999999" stroke="#666666" points="167.5,-76 0,-76 0,-44 167.5,-44 167.5,-76"/>
<text text-anchor="start" x="8" y="-62.5" font-family="Helvetica,sans-Serif" font-size="10.00">fr.softsf.sudokufx.config.database.</text>
<text text-anchor="middle" x="83.75" y="-50.5" font-family="Helvetica,sans-Serif" font-size="10.00">ApplicationKeystore.credentials</text>
</a>
</g>
</g>
<!-- Node2 -->
<g id="Node000002" class="node">
<title>Node2</title>
<g id="a_Node000002"><a xlink:href="classfr_1_1softsf_1_1sudokufx_1_1config_1_1database_1_1_application_keystore.html#a5df2015a8cf94b6c6c935e72a9e7980c" target="_top" xlink:title="Retrieves and decrypts the credential associated with the given alias from the keystore,...">
<polygon fill="white" stroke="#666666" points="372.5,-126 203.5,-126 203.5,-94 372.5,-94 372.5,-126"/>
<text text-anchor="start" x="211.5" y="-112.5" font-family="Helvetica,sans-Serif" font-size="10.00">fr.softsf.sudokufx.config.database.</text>
<text text-anchor="middle" x="288" y="-100.5" font-family="Helvetica,sans-Serif" font-size="10.00">ApplicationKeystore.getCredentials</text>
</a>
</g>
</g>
<!-- Node1&#45;&gt;Node2 -->
<g id="edge1_Node000001_Node000002" class="edge">
<title>Node1&#45;&gt;Node2</title>
<g id="a_edge1_Node000001_Node000002"><a xlink:title=" ">
<path fill="none" stroke="#63b8ff" d="M151.25,-76.44C169.83,-81.03 190.18,-86.06 209.34,-90.8"/>
<polygon fill="#63b8ff" stroke="#63b8ff" points="208.44,-94.18 218.99,-93.19 210.12,-87.39 208.44,-94.18"/>
</a>
</g>
</g>
<!-- Node3 -->
<g id="Node000003" class="node">
<title>Node3</title>
<g id="a_Node000003"><a xlink:href="classfr_1_1softsf_1_1sudokufx_1_1config_1_1database_1_1_application_keystore.html#a4e0c9cd1616de5732520be76f91ebd85" target="_top" xlink:title="Generates and encrypts a credential for the given alias, then stores it securely in the keystore.">
<polygon fill="white" stroke="#666666" points="372.5,-76 203.5,-76 203.5,-44 372.5,-44 372.5,-76"/>
<text text-anchor="start" x="211.5" y="-62.5" font-family="Helvetica,sans-Serif" font-size="10.00">fr.softsf.sudokufx.config.database.</text>
<text text-anchor="middle" x="288" y="-50.5" font-family="Helvetica,sans-Serif" font-size="10.00">ApplicationKeystore.setCredentials</text>
</a>
</g>
</g>
<!-- Node1&#45;&gt;Node3 -->
<g id="edge2_Node000001_Node000003" class="edge">
<title>Node1&#45;&gt;Node3</title>
<g id="a_edge2_Node000001_Node000003"><a xlink:title=" ">
<path fill="none" stroke="#63b8ff" d="M167.89,-60C175.81,-60 183.89,-60 191.91,-60"/>
<polygon fill="#63b8ff" stroke="#63b8ff" points="191.69,-63.5 201.69,-60 191.69,-56.5 191.69,-63.5"/>
</a>
</g>
</g>
<!-- Node5 -->
<g id="Node000005" class="node">
<title>Node5</title>
<g id="a_Node000005"><a xlink:href="classfr_1_1softsf_1_1sudokufx_1_1config_1_1database_1_1_application_keystore.html#a1d981fbc5ac12da9cacc785a8052e318" target="_top" xlink:title="Validates that the given alias is not null, empty, or blank.">
<polygon fill="white" stroke="#666666" points="817.75,-32 615.75,-32 615.75,0 817.75,0 817.75,-32"/>
<text text-anchor="start" x="623.75" y="-18.5" font-family="Helvetica,sans-Serif" font-size="10.00">fr.softsf.sudokufx.config.database.</text>
<text text-anchor="middle" x="716.75" y="-6.5" font-family="Helvetica,sans-Serif" font-size="10.00">ApplicationKeystore.validateAliasNotBlank</text>
</a>
</g>
</g>
<!-- Node1&#45;&gt;Node5 -->
<g id="edge7_Node000001_Node000005" class="edge">
<title>Node1&#45;&gt;Node5</title>
<g id="a_edge7_Node000001_Node000005"><a xlink:title=" ">
<path fill="none" stroke="#63b8ff" d="M153.18,-43.52C169.57,-40.15 187.08,-37.02 203.5,-35 340.78,-18.13 500.19,-14.74 604.25,-14.68"/>
<polygon fill="#63b8ff" stroke="#63b8ff" points="604.2,-18.18 614.2,-14.69 604.2,-11.18 604.2,-18.18"/>
</a>
</g>
</g>
<!-- Node4 -->
<g id="Node000004" class="node">
<title>Node4</title>
<g id="a_Node000004"><a xlink:href="classfr_1_1softsf_1_1sudokufx_1_1config_1_1database_1_1_application_keystore.html#a7b8751ac0c7de3f434f5500915e66c28" target="_top" xlink:title="Stores the given secret key in the keystore under the specified alias.">
<polygon fill="white" stroke="#666666" points="579.75,-76 408.5,-76 408.5,-44 579.75,-44 579.75,-76"/>
<text text-anchor="start" x="416.5" y="-62.5" font-family="Helvetica,sans-Serif" font-size="10.00">fr.softsf.sudokufx.config.database.</text>
<text text-anchor="middle" x="494.12" y="-50.5" font-family="Helvetica,sans-Serif" font-size="10.00">ApplicationKeystore.addToKeystore</text>
</a>
</g>
</g>
<!-- Node3&#45;&gt;Node4 -->
<g id="edge3_Node000003_Node000004" class="edge">
<title>Node3&#45;&gt;Node4</title>
<g id="a_edge3_Node000003_Node000004"><a xlink:title=" ">
<path fill="none" stroke="#63b8ff" d="M372.91,-60C380.83,-60 388.9,-60 396.93,-60"/>
<polygon fill="#63b8ff" stroke="#63b8ff" points="396.71,-63.5 406.71,-60 396.71,-56.5 396.71,-63.5"/>
</a>
</g>
</g>
<!-- Node4&#45;&gt;Node5 -->
<g id="edge4_Node000004_Node000005" class="edge">
<title>Node4&#45;&gt;Node5</title>
<g id="a_edge4_Node000004_Node000005"><a xlink:title=" ">
<path fill="none" stroke="#63b8ff" d="M577.59,-43.55C592.03,-40.67 607.14,-37.66 621.86,-34.73"/>
<polygon fill="#63b8ff" stroke="#63b8ff" points="622.41,-38.18 631.53,-32.8 621.04,-31.32 622.41,-38.18"/>
</a>
</g>
</g>
<!-- Node6 -->
<g id="Node000006" class="node">
<title>Node6</title>
<g id="a_Node000006"><a xlink:href="classfr_1_1softsf_1_1sudokufx_1_1config_1_1database_1_1_application_keystore.html#a9714968659205027206115325bebd480" target="_top" xlink:title="Writes the keystore content to a file.">
<polygon fill="white" stroke="#666666" points="808,-82 625.5,-82 625.5,-50 808,-50 808,-82"/>
<text text-anchor="start" x="633.5" y="-68.5" font-family="Helvetica,sans-Serif" font-size="10.00">fr.softsf.sudokufx.config.database.</text>
<text text-anchor="middle" x="716.75" y="-56.5" font-family="Helvetica,sans-Serif" font-size="10.00">ApplicationKeystore.writeTheKeystore</text>
</a>
</g>
</g>
<!-- Node4&#45;&gt;Node6 -->
<g id="edge5_Node000004_Node000006" class="edge">
<title>Node4&#45;&gt;Node6</title>
<g id="a_edge5_Node000004_Node000006"><a xlink:title=" ">
<path fill="none" stroke="#63b8ff" d="M580.11,-62.31C591.22,-62.61 602.69,-62.93 614.03,-63.23"/>
<polygon fill="#63b8ff" stroke="#63b8ff" points="613.72,-66.73 623.81,-63.5 613.91,-59.73 613.72,-66.73"/>
</a>
</g>
</g>
<!-- Node7 -->
<g id="Node000007" class="node">
<title>Node7</title>
<g id="a_Node000007"><a xlink:href="classfr_1_1softsf_1_1sudokufx_1_1config_1_1database_1_1_application_keystore.html#ab67a293ca8a7582e7837ae51a8bdb7a2" target="_top" xlink:title=" ">
<polygon fill="white" stroke="#666666" points="1046.75,-82 853.75,-82 853.75,-50 1046.75,-50 1046.75,-82"/>
<text text-anchor="start" x="861.75" y="-68.5" font-family="Helvetica,sans-Serif" font-size="10.00">fr.softsf.sudokufx.config.database.</text>
<text text-anchor="middle" x="950.25" y="-56.5" font-family="Helvetica,sans-Serif" font-size="10.00">ApplicationKeystore.ApplicationKeystore</text>
</a>
</g>
</g>
<!-- Node6&#45;&gt;Node7 -->
<g id="edge6_Node000006_Node000007" class="edge">
<title>Node6&#45;&gt;Node7</title>
<g id="a_edge6_Node000006_Node000007"><a xlink:title=" ">
<path fill="none" stroke="#63b8ff" d="M808.25,-66C819.38,-66 830.83,-66 842.18,-66"/>
<polygon fill="#63b8ff" stroke="#63b8ff" points="841.95,-69.5 851.95,-66 841.95,-62.5 841.95,-69.5"/>
</a>
</g>
</g>
</g>
</svg>
