<?xml version="1.0" encoding="UTF-8" standalone="no"?>
<!DOCTYPE svg PUBLIC "-//W3C//DTD SVG 1.1//EN"
 "http://www.w3.org/Graphics/SVG/1.1/DTD/svg11.dtd">
<!-- Generated by graphviz version 12.2.1 (20241206.2353)
 -->
<!-- Title: fr.softsf.sudokufx.config.database.ApplicationKeystore.credentials Pages: 1 -->
<svg width="806pt" height="90pt"
 viewBox="0.00 0.00 806.25 90.00" xmlns="http://www.w3.org/2000/svg" xmlns:xlink="http://www.w3.org/1999/xlink">
<g id="graph0" class="graph" transform="scale(1 1) rotate(0) translate(4 86)">
<title>fr.softsf.sudokufx.config.database.ApplicationKeystore.credentials</title>
<!-- Node1 -->
<g id="Node000001" class="node">
<title>Node1</title>
<g id="a_Node000001"><a xlink:title="Get or set credentials by alias.">
<polygon fill="#999999" stroke="#666666" points="167.5,-57 0,-57 0,-25 167.5,-25 167.5,-57"/>
<text text-anchor="start" x="8" y="-43.5" font-family="Helvetica,sans-Serif" font-size="10.00">fr.softsf.sudokufx.config.database.</text>
<text text-anchor="middle" x="83.75" y="-31.5" font-family="Helvetica,sans-Serif" font-size="10.00">ApplicationKeystore.credentials</text>
</a>
</g>
</g>
<!-- Node2 -->
<g id="Node000002" class="node">
<title>Node2</title>
<g id="a_Node000002"><a xlink:href="classfr_1_1softsf_1_1sudokufx_1_1config_1_1database_1_1_application_keystore.html#a5df2015a8cf94b6c6c935e72a9e7980c" target="_top" xlink:title="Get credential by alias.">
<polygon fill="white" stroke="#666666" points="372.5,-82 203.5,-82 203.5,-50 372.5,-50 372.5,-82"/>
<text text-anchor="start" x="211.5" y="-68.5" font-family="Helvetica,sans-Serif" font-size="10.00">fr.softsf.sudokufx.config.database.</text>
<text text-anchor="middle" x="288" y="-56.5" font-family="Helvetica,sans-Serif" font-size="10.00">ApplicationKeystore.getCredentials</text>
</a>
</g>
</g>
<!-- Node1&#45;&gt;Node2 -->
<g id="edge1_Node000001_Node000002" class="edge">
<title>Node1&#45;&gt;Node2</title>
<g id="a_edge1_Node000001_Node000002"><a xlink:title=" ">
<path fill="none" stroke="#63b8ff" d="M167.89,-51.28C175.81,-52.26 183.89,-53.25 191.91,-54.25"/>
<polygon fill="#63b8ff" stroke="#63b8ff" points="191.35,-57.7 201.7,-55.46 192.21,-50.76 191.35,-57.7"/>
</a>
</g>
</g>
<!-- Node3 -->
<g id="Node000003" class="node">
<title>Node3</title>
<g id="a_Node000003"><a xlink:href="classfr_1_1softsf_1_1sudokufx_1_1config_1_1database_1_1_application_keystore.html#a4e0c9cd1616de5732520be76f91ebd85" target="_top" xlink:title="Set credential by alias.">
<polygon fill="white" stroke="#666666" points="372.5,-32 203.5,-32 203.5,0 372.5,0 372.5,-32"/>
<text text-anchor="start" x="211.5" y="-18.5" font-family="Helvetica,sans-Serif" font-size="10.00">fr.softsf.sudokufx.config.database.</text>
<text text-anchor="middle" x="288" y="-6.5" font-family="Helvetica,sans-Serif" font-size="10.00">ApplicationKeystore.setCredentials</text>
</a>
</g>
</g>
<!-- Node1&#45;&gt;Node3 -->
<g id="edge2_Node000001_Node000003" class="edge">
<title>Node1&#45;&gt;Node3</title>
<g id="a_edge2_Node000001_Node000003"><a xlink:title=" ">
<path fill="none" stroke="#63b8ff" d="M167.89,-30.72C175.81,-29.74 183.89,-28.75 191.91,-27.75"/>
<polygon fill="#63b8ff" stroke="#63b8ff" points="192.21,-31.24 201.7,-26.54 191.35,-24.3 192.21,-31.24"/>
</a>
</g>
</g>
<!-- Node4 -->
<g id="Node000004" class="node">
<title>Node4</title>
<g id="a_Node000004"><a xlink:href="classfr_1_1softsf_1_1sudokufx_1_1config_1_1database_1_1_application_keystore.html#a7b8751ac0c7de3f434f5500915e66c28" target="_top" xlink:title="Add alias:secret in the Keystore.">
<polygon fill="white" stroke="#666666" points="579.75,-32 408.5,-32 408.5,0 579.75,0 579.75,-32"/>
<text text-anchor="start" x="416.5" y="-18.5" font-family="Helvetica,sans-Serif" font-size="10.00">fr.softsf.sudokufx.config.database.</text>
<text text-anchor="middle" x="494.12" y="-6.5" font-family="Helvetica,sans-Serif" font-size="10.00">ApplicationKeystore.addToKeystore</text>
</a>
</g>
</g>
<!-- Node3&#45;&gt;Node4 -->
<g id="edge3_Node000003_Node000004" class="edge">
<title>Node3&#45;&gt;Node4</title>
<g id="a_edge3_Node000003_Node000004"><a xlink:title=" ">
<path fill="none" stroke="#63b8ff" d="M372.91,-16C380.83,-16 388.9,-16 396.93,-16"/>
<polygon fill="#63b8ff" stroke="#63b8ff" points="396.71,-19.5 406.71,-16 396.71,-12.5 396.71,-19.5"/>
</a>
</g>
</g>
<!-- Node5 -->
<g id="Node000005" class="node">
<title>Node5</title>
<g id="a_Node000005"><a xlink:href="classfr_1_1softsf_1_1sudokufx_1_1config_1_1database_1_1_application_keystore.html#a0e501fbe6c171c85658b7600afd03470" target="_top" xlink:title="Write data to the keystore file.">
<polygon fill="white" stroke="#666666" points="798.25,-32 615.75,-32 615.75,0 798.25,0 798.25,-32"/>
<text text-anchor="start" x="623.75" y="-18.5" font-family="Helvetica,sans-Serif" font-size="10.00">fr.softsf.sudokufx.config.database.</text>
<text text-anchor="middle" x="707" y="-6.5" font-family="Helvetica,sans-Serif" font-size="10.00">ApplicationKeystore.writeTheKeystore</text>
</a>
</g>
</g>
<!-- Node4&#45;&gt;Node5 -->
<g id="edge4_Node000004_Node000005" class="edge">
<title>Node4&#45;&gt;Node5</title>
<g id="a_edge4_Node000004_Node000005"><a xlink:title=" ">
<path fill="none" stroke="#63b8ff" d="M579.98,-16C587.92,-16 596.01,-16 604.08,-16"/>
<polygon fill="#63b8ff" stroke="#63b8ff" points="603.94,-19.5 613.94,-16 603.94,-12.5 603.94,-19.5"/>
</a>
</g>
</g>
</g>
</svg>
