<?xml version="1.0" encoding="UTF-8" standalone="no"?>
<!DOCTYPE svg PUBLIC "-//W3C//DTD SVG 1.1//EN"
 "http://www.w3.org/Graphics/SVG/1.1/DTD/svg11.dtd">
<!-- Generated by graphviz version 12.2.1 (20241206.2353)
 -->
<!-- Title: fr.softsf.sudokufx.model.Menu Pages: 1 -->
<svg width="149pt" height="228pt"
 viewBox="0.00 0.00 148.75 228.00" xmlns="http://www.w3.org/2000/svg" xmlns:xlink="http://www.w3.org/1999/xlink">
<g id="graph0" class="graph" transform="scale(1 1) rotate(0) translate(4 224)">
<title>fr.softsf.sudokufx.model.Menu</title>
<!-- Node1 -->
<g id="Node000001" class="node">
<title>Node1</title>
<g id="a_Node000001"><a xlink:title=" ">
<polygon fill="#999999" stroke="none" points="140.75,-220 0,-220 0,0 140.75,0 140.75,-220"/>
<text text-anchor="start" x="4" y="-206.5" font-family="Helvetica,sans-Serif" font-size="10.00">fr.softsf.sudokufx.model.Menu</text>
<text text-anchor="start" x="7.31" y="-190.5" font-family="Helvetica,sans-Serif" font-size="10.00">&#45;</text>
<text text-anchor="start" x="17.62" y="-190.5" font-family="Helvetica,sans-Serif" font-size="10.00">Byte menuid</text>
<text text-anchor="start" x="7.31" y="-174.5" font-family="Helvetica,sans-Serif" font-size="10.00">&#45;</text>
<text text-anchor="start" x="17.62" y="-174.5" font-family="Helvetica,sans-Serif" font-size="10.00">byte mode</text>
<text text-anchor="start" x="5.81" y="-158.5" font-family="Helvetica,sans-Serif" font-size="10.00">+</text>
<text text-anchor="start" x="17.62" y="-158.5" font-family="Helvetica,sans-Serif" font-size="10.00">Menu(Byte menuid,</text>
<text text-anchor="start" x="17.62" y="-146.5" font-family="Helvetica,sans-Serif" font-size="10.00"> byte mode)</text>
<text text-anchor="start" x="5.81" y="-130.5" font-family="Helvetica,sans-Serif" font-size="10.00">+</text>
<text text-anchor="start" x="17.62" y="-130.5" font-family="Helvetica,sans-Serif" font-size="10.00">boolean equals(Object obj)</text>
<text text-anchor="start" x="5.81" y="-114.5" font-family="Helvetica,sans-Serif" font-size="10.00">+</text>
<text text-anchor="start" x="17.62" y="-114.5" font-family="Helvetica,sans-Serif" font-size="10.00">Byte getMenuid()</text>
<text text-anchor="start" x="5.81" y="-98.5" font-family="Helvetica,sans-Serif" font-size="10.00">+</text>
<text text-anchor="start" x="17.62" y="-98.5" font-family="Helvetica,sans-Serif" font-size="10.00">byte getMode()</text>
<text text-anchor="start" x="5.81" y="-82.5" font-family="Helvetica,sans-Serif" font-size="10.00">+</text>
<text text-anchor="start" x="17.62" y="-82.5" font-family="Helvetica,sans-Serif" font-size="10.00">int hashCode()</text>
<text text-anchor="start" x="5.81" y="-66.5" font-family="Helvetica,sans-Serif" font-size="10.00">+</text>
<text text-anchor="start" x="17.62" y="-66.5" font-family="Helvetica,sans-Serif" font-size="10.00">void setMode(byte mode)</text>
<text text-anchor="start" x="5.81" y="-50.5" font-family="Helvetica,sans-Serif" font-size="10.00">+</text>
<text text-anchor="start" x="17.62" y="-50.5" font-family="Helvetica,sans-Serif" font-size="10.00">String toString()</text>
<text text-anchor="start" x="5.81" y="-34.5" font-family="Helvetica,sans-Serif" font-size="10.00">+</text>
<text text-anchor="start" x="17.62" y="-34.5" font-family="Helvetica,sans-Serif" font-size="10.00">static MenuBuilder</text>
<text text-anchor="start" x="17.62" y="-22.5" font-family="Helvetica,sans-Serif" font-size="10.00"> builder()</text>
<text text-anchor="start" x="6.19" y="-6.5" font-family="Helvetica,sans-Serif" font-size="10.00">#</text>
<text text-anchor="start" x="17.62" y="-6.5" font-family="Helvetica,sans-Serif" font-size="10.00">Menu()</text>
<polygon fill="#666666" stroke="#666666" points="0,-202 0,-202 140.75,-202 140.75,-202 0,-202"/>
<polygon fill="#666666" stroke="#666666" points="0,-170 0,-170 15.62,-170 15.62,-170 0,-170"/>
<polygon fill="#666666" stroke="#666666" points="15.62,-170 15.62,-170 140.75,-170 140.75,-170 15.62,-170"/>
<polygon fill="none" stroke="#666666" points="0,0 0,-220 140.75,-220 140.75,0 0,0"/>
</a>
</g>
</g>
</g>
</svg>
