<?xml version="1.0" encoding="UTF-8" standalone="no"?>
<!DOCTYPE svg PUBLIC "-//W3C//DTD SVG 1.1//EN"
 "http://www.w3.org/Graphics/SVG/1.1/DTD/svg11.dtd">
<!-- Generated by graphviz version 12.2.1 (20241206.2353)
 -->
<!-- Title: fr.softsf.sudokufx.view.component.firework.Firework.ignite Pages: 1 -->
<!--zoomable 142 -->

<svg id="main" version="1.1" xmlns="http://www.w3.org/2000/svg" xmlns:xlink="http://www.w3.org/1999/xlink" xml:space="preserve" onload="init(evt)">

<style type="text/css"><![CDATA[
.node, .edge {opacity: 0.7;}
.node.selected, .edge.selected {opacity: 1;}
.edge:hover path { stroke: red; }
.edge:hover polygon { stroke: red; fill: red; }
]]></style>

<defs>
  <circle id="rim" cx="0" cy="0" r="7"/>
  <circle id="rim2" cx="0" cy="0" r="3.5"/>
  <g id="zoomPlus">
    <use xlink:href="#rim" fill="#404040"><set attributeName="fill" to="#808080" begin="zoomplus.mouseover" end="zoomplus.mouseout"/></use>
    <path d="M-4,0h8M0,-4v8" fill="none" stroke="white" stroke-width="1.5" pointer-events="none"/>
  </g>
  <g id="zoomMin">
    <use xlink:href="#rim" fill="#404040"><set attributeName="fill" to="#808080" begin="zoomminus.mouseover" end="zoomminus.mouseout"/></use>
    <path d="M-4,0h8" fill="none" stroke="white" stroke-width="1.5" pointer-events="none"/>
  </g>
  <g id="arrowUp" transform="translate(30 24)">
    <use xlink:href="#rim"/>
    <path pointer-events="none" fill="none" stroke="white" stroke-width="1.5" d="M0,-3.0v7 M-2.5,-0.5L0,-3.0L2.5,-0.5"/>
  </g>
  <g id="arrowRight" transform="rotate(90) translate(36 -43)">
    <use xlink:href="#rim"/>
    <path pointer-events="none" fill="none" stroke="white" stroke-width="1.5" d="M0,-3.0v7 M-2.5,-0.5L0,-3.0L2.5,-0.5"/>
  </g>
  <g id="arrowDown" transform="rotate(180) translate(-30 -48)">
    <use xlink:href="#rim"/>
    <path pointer-events="none" fill="none" stroke="white" stroke-width="1.5" d="M0,-3.0v7 M-2.5,-0.5L0,-3.0L2.5,-0.5"/>
  </g>
  <g id="arrowLeft" transform="rotate(270) translate(-36 17)">
    <use xlink:href="#rim"/>
    <path pointer-events="none" fill="none" stroke="white" stroke-width="1.5" d="M0,-3.0v7 M-2.5,-0.5L0,-3.0L2.5,-0.5"/>
  </g>
  <g id="resetDef">
    <use xlink:href="#rim2" fill="#404040"><set attributeName="fill" to="#808080" begin="reset.mouseover" end="reset.mouseout"/></use>
  </g>
</defs>
<script type="application/ecmascript">
var viewWidth = 1185;
var viewHeight = 142;
var sectionId = 'dynsection-5';
</script>
<script type="application/ecmascript" xlink:href="svg.min.js"/>
<svg id="graph" class="graph">
<g id="viewport">
<title>fr.softsf.sudokufx.view.component.firework.Firework.ignite</title>
<!-- Node1 -->
<g id="Node000001" class="node">
<title>Node1</title>
<g id="a_Node000001"><a xlink:title="Generates a circular particle burst at a random screen location.">
<polygon fill="#999999" stroke="#666666" points="206.5,-72 0,-72 0,-40 206.5,-40 206.5,-72"/>
<text text-anchor="start" x="8" y="-58.5" font-family="Helvetica,sans-Serif" font-size="10.00">fr.softsf.sudokufx.view.component.firework.</text>
<text text-anchor="middle" x="103.25" y="-46.5" font-family="Helvetica,sans-Serif" font-size="10.00">Firework.ignite</text>
</a>
</g>
</g>
<!-- Node1&#45;&gt;Node1 -->
<g id="edge11_Node000001_Node000001" class="edge">
<title>Node1&#45;&gt;Node1</title>
<g id="a_edge11_Node000001_Node000001"><a xlink:title=" ">
<path fill="none" stroke="#63b8ff" d="M59.96,-72.44C51.88,-81.58 66.31,-90 103.25,-90 123.74,-90 137.31,-87.41 143.95,-83.54"/>
<polygon fill="#63b8ff" stroke="#63b8ff" points="147.33,-84.45 146.2,-73.92 140.51,-82.86 147.33,-84.45"/>
</a>
</g>
</g>
<!-- Node2 -->
<g id="Node000002" class="node">
<title>Node2</title>
<g id="a_Node000002"><a xlink:href="classfr_1_1softsf_1_1sudokufx_1_1view_1_1component_1_1firework_1_1_firework.html#adc1e8659376adaf0c3bdc4a8742cd87c" target="_top" xlink:title="Snapshot of the rendering environment including scaling metrics.">
<polygon fill="white" stroke="#666666" points="449,-72 242.5,-72 242.5,-40 449,-40 449,-72"/>
<text text-anchor="start" x="250.5" y="-58.5" font-family="Helvetica,sans-Serif" font-size="10.00">fr.softsf.sudokufx.view.component.firework.</text>
<text text-anchor="middle" x="345.75" y="-46.5" font-family="Helvetica,sans-Serif" font-size="10.00">Firework.FireworkContext</text>
</a>
</g>
</g>
<!-- Node1&#45;&gt;Node2 -->
<g id="edge1_Node000001_Node000002" class="edge">
<title>Node1&#45;&gt;Node2</title>
<g id="a_edge1_Node000001_Node000002"><a xlink:title=" ">
<path fill="none" stroke="#63b8ff" d="M206.94,-56C214.75,-56 222.65,-56 230.53,-56"/>
<polygon fill="#63b8ff" stroke="#63b8ff" points="230.51,-59.5 240.51,-56 230.51,-52.5 230.51,-59.5"/>
</a>
</g>
</g>
<!-- Node5 -->
<g id="Node000005" class="node">
<title>Node5</title>
<g id="a_Node000005"><a xlink:href="classfr_1_1softsf_1_1sudokufx_1_1view_1_1component_1_1firework_1_1_firework.html#a238e975882b916d63349843dd54fbd33" target="_top" xlink:title="Captures the current scene metrics and the firework instance.">
<polygon fill="white" stroke="#666666" points="1176.5,-32 970,-32 970,0 1176.5,0 1176.5,-32"/>
<text text-anchor="start" x="978" y="-18.5" font-family="Helvetica,sans-Serif" font-size="10.00">fr.softsf.sudokufx.view.component.firework.</text>
<text text-anchor="middle" x="1073.25" y="-6.5" font-family="Helvetica,sans-Serif" font-size="10.00">Firework.getFireworkContext</text>
</a>
</g>
</g>
<!-- Node1&#45;&gt;Node5 -->
<g id="edge10_Node000001_Node000005" class="edge">
<title>Node1&#45;&gt;Node5</title>
<g id="a_edge10_Node000001_Node000005"><a xlink:title=" ">
<path fill="none" stroke="#63b8ff" d="M183.27,-39.52C202.56,-36.1 223.21,-32.95 242.5,-31 497.28,-5.23 798.24,-8.02 958.45,-12.12"/>
<polygon fill="#63b8ff" stroke="#63b8ff" points="958.13,-15.62 968.22,-12.38 958.32,-8.62 958.13,-15.62"/>
</a>
</g>
</g>
<!-- Node3 -->
<g id="Node000003" class="node">
<title>Node3</title>
<g id="a_Node000003"><a xlink:href="classfr_1_1softsf_1_1sudokufx_1_1view_1_1component_1_1firework_1_1_firework.html#ac6cc6c251a94b02e939acfbce3009d5a" target="_top" xlink:title="Initializes the component and its reusable animation loop.">
<polygon fill="white" stroke="#666666" points="691.5,-116 485,-116 485,-84 691.5,-84 691.5,-116"/>
<text text-anchor="start" x="493" y="-102.5" font-family="Helvetica,sans-Serif" font-size="10.00">fr.softsf.sudokufx.view.component.firework.</text>
<text text-anchor="middle" x="588.25" y="-90.5" font-family="Helvetica,sans-Serif" font-size="10.00">Firework.Firework</text>
</a>
</g>
</g>
<!-- Node2&#45;&gt;Node3 -->
<g id="edge2_Node000002_Node000003" class="edge">
<title>Node2&#45;&gt;Node3</title>
<g id="a_edge2_Node000002_Node000003"><a xlink:title=" ">
<path fill="none" stroke="#63b8ff" d="M436.65,-72.45C452.69,-75.38 469.5,-78.46 485.84,-81.45"/>
<polygon fill="#63b8ff" stroke="#63b8ff" points="485.11,-84.87 495.57,-83.23 486.37,-77.99 485.11,-84.87"/>
</a>
</g>
</g>
<!-- Node3&#45;&gt;Node1 -->
<g id="edge4_Node000003_Node000001" class="edge">
<title>Node3&#45;&gt;Node1</title>
<g id="a_edge4_Node000003_Node000001"><a xlink:title=" ">
<path fill="none" stroke="#63b8ff" d="M484.76,-97.67C416.04,-95.3 323.61,-90.53 242.5,-81 227.69,-79.26 212.06,-76.92 196.85,-74.38"/>
<polygon fill="#63b8ff" stroke="#63b8ff" points="197.82,-70.99 187.37,-72.75 196.63,-77.89 197.82,-70.99"/>
</a>
</g>
</g>
<!-- Node3&#45;&gt;Node3 -->
<g id="edge3_Node000003_Node000003" class="edge">
<title>Node3&#45;&gt;Node3</title>
<g id="a_edge3_Node000003_Node000003"><a xlink:title=" ">
<path fill="none" stroke="#63b8ff" d="M544.96,-116.44C536.88,-125.58 551.31,-134 588.25,-134 608.74,-134 622.31,-131.41 628.95,-127.54"/>
<polygon fill="#63b8ff" stroke="#63b8ff" points="632.33,-128.45 631.2,-117.92 625.51,-126.86 632.33,-128.45"/>
</a>
</g>
</g>
<!-- Node4 -->
<g id="Node000004" class="node">
<title>Node4</title>
<g id="a_Node000004"><a xlink:href="classfr_1_1softsf_1_1sudokufx_1_1view_1_1component_1_1firework_1_1_firework.html#ab989e17fd615336c73186f7f80b6c976" target="_top" xlink:title="Updates positions for all active particles and prunes expired ones.">
<polygon fill="white" stroke="#666666" points="934,-79 727.5,-79 727.5,-47 934,-47 934,-79"/>
<text text-anchor="start" x="735.5" y="-65.5" font-family="Helvetica,sans-Serif" font-size="10.00">fr.softsf.sudokufx.view.component.firework.</text>
<text text-anchor="middle" x="830.75" y="-53.5" font-family="Helvetica,sans-Serif" font-size="10.00">Firework.updateParticles</text>
</a>
</g>
</g>
<!-- Node3&#45;&gt;Node4 -->
<g id="edge5_Node000003_Node000004" class="edge">
<title>Node3&#45;&gt;Node4</title>
<g id="a_edge5_Node000003_Node000004"><a xlink:title=" ">
<path fill="none" stroke="#63b8ff" d="M691.94,-84.2C699.84,-82.99 707.84,-81.76 715.8,-80.53"/>
<polygon fill="#63b8ff" stroke="#63b8ff" points="716.17,-84.01 725.52,-79.03 715.11,-77.1 716.17,-84.01"/>
</a>
</g>
</g>
<!-- Node4&#45;&gt;Node2 -->
<g id="edge6_Node000004_Node000002" class="edge">
<title>Node4&#45;&gt;Node2</title>
<g id="a_edge6_Node000004_Node000002"><a xlink:title=" ">
<path fill="none" stroke="#63b8ff" d="M727.18,-61.51C649.04,-60.38 541.51,-58.82 460.7,-57.65"/>
<polygon fill="#63b8ff" stroke="#63b8ff" points="461.04,-54.16 450.99,-57.51 460.94,-61.16 461.04,-54.16"/>
</a>
</g>
</g>
<!-- Node4&#45;&gt;Node5 -->
<g id="edge7_Node000004_Node000005" class="edge">
<title>Node4&#45;&gt;Node5</title>
<g id="a_edge7_Node000004_Node000005"><a xlink:title=" ">
<path fill="none" stroke="#63b8ff" d="M915.87,-46.56C935.64,-42.7 956.85,-38.55 977.07,-34.6"/>
<polygon fill="#63b8ff" stroke="#63b8ff" points="977.55,-38.07 986.7,-32.72 976.21,-31.2 977.55,-38.07"/>
</a>
</g>
</g>
<!-- Node6 -->
<g id="Node000006" class="node">
<title>Node6</title>
<g id="a_Node000006"><a xlink:href="classfr_1_1softsf_1_1sudokufx_1_1view_1_1component_1_1firework_1_1_firework_particle.html#ada8ac44a5ea749dd30023ad11ce7d49e" target="_top" xlink:title="Updates physics, position, and opacity.">
<polygon fill="white" stroke="#666666" points="1176.5,-82 970,-82 970,-50 1176.5,-50 1176.5,-82"/>
<text text-anchor="start" x="978" y="-68.5" font-family="Helvetica,sans-Serif" font-size="10.00">fr.softsf.sudokufx.view.component.firework.</text>
<text text-anchor="middle" x="1073.25" y="-56.5" font-family="Helvetica,sans-Serif" font-size="10.00">FireworkParticle.update</text>
</a>
</g>
</g>
<!-- Node4&#45;&gt;Node6 -->
<g id="edge9_Node000004_Node000006" class="edge">
<title>Node4&#45;&gt;Node6</title>
<g id="a_edge9_Node000004_Node000006"><a xlink:title=" ">
<path fill="none" stroke="#63b8ff" d="M934.44,-64.28C942.25,-64.38 950.15,-64.48 958.03,-64.58"/>
<polygon fill="#63b8ff" stroke="#63b8ff" points="957.96,-68.07 968.01,-64.7 958.05,-61.08 957.96,-68.07"/>
</a>
</g>
</g>
<!-- Node5&#45;&gt;Node2 -->
<g id="edge8_Node000005_Node000002" class="edge">
<title>Node5&#45;&gt;Node2</title>
<g id="a_edge8_Node000005_Node000002"><a xlink:title=" ">
<path fill="none" stroke="#63b8ff" d="M969.78,-21.65C835.31,-29.06 600.05,-42.03 460.3,-49.74"/>
<polygon fill="#63b8ff" stroke="#63b8ff" points="460.46,-46.23 450.67,-50.27 460.85,-53.21 460.46,-46.23"/>
</a>
</g>
</g>
</g>
</svg>

<g id="navigator" transform="translate(0 0)" fill="#404254">
  <rect fill="#f2f5e9" fill-opacity="0.5" stroke="#606060" stroke-width=".5" x="0" y="0" width="60" height="60"/>
  <use id="zoomplus" xlink:href="#zoomPlus" x="17" y="9" onmousedown="handleZoom(evt,'in')"/>
  <use id="zoomminus" xlink:href="#zoomMin" x="42" y="9" onmousedown="handleZoom(evt,'out')"/>
  <use id="reset" xlink:href="#resetDef" x="30" y="36" onmousedown="handleReset()"/>
   <use id="arrowup" xlink:href="#arrowUp" x="0" y="0" onmousedown="handlePan(0,-1)"/>
  <use id="arrowright" xlink:href="#arrowRight" x="0" y="0" onmousedown="handlePan(1,0)"/>
  <use id="arrowdown" xlink:href="#arrowDown" x="0" y="0" onmousedown="handlePan(0,1)"/>
  <use id="arrowleft" xlink:href="#arrowLeft" x="0" y="0" onmousedown="handlePan(-1,0)"/>
</g>
<svg viewBox="0 0 15 15" width="100%" height="30px" preserveAspectRatio="xMaxYMin meet">
 <g id="arrow_out" transform="scale(0.3 0.3)">
  <a xlink:href="classfr_1_1softsf_1_1sudokufx_1_1view_1_1component_1_1firework_1_1_firework_a497b0b27502d30d1844cd54e4dd6fcf0_cgraph_org.svg" target="_base">
   <rect id="button" ry="5" rx="5" y="6" x="6" height="38" width="38"
        fill="#f2f5e9" fill-opacity="0.5" stroke="#606060" stroke-width="1.0"/>
   <path id="arrow"
     d="M 11.500037,31.436501 C 11.940474,20.09759 22.043105,11.32322 32.158766,21.979434 L 37.068811,17.246167 C 37.068811,17.246167 37.088388,32 37.088388,32 L 22.160133,31.978069 C 22.160133,31.978069 26.997745,27.140456 26.997745,27.140456 C 18.528582,18.264221 13.291696,25.230495 11.500037,31.436501 z"
     style="fill:#404040;"/>
  </a>
 </g>
</svg>

<style type='text/css'>
<![CDATA[
[data-mouse-over-selected='false'] { opacity: 0.7; }
[data-mouse-over-selected='true']  { opacity: 1.0; }
]]>
</style>
<script type="application/ecmascript"><![CDATA[
document.addEventListener('DOMContentLoaded', (event) => {
  highlightEdges();
  highlightAdjacentNodes();
});
]]></script>
</svg>
