<?xml version="1.0" encoding="UTF-8" standalone="no"?>
<!DOCTYPE svg PUBLIC "-//W3C//DTD SVG 1.1//EN"
 "http://www.w3.org/Graphics/SVG/1.1/DTD/svg11.dtd">
<!-- Generated by graphviz version 12.2.1 (20241206.2353)
 -->
<!-- Title: fr.softsf.sudokufx.navigation.CoordinatorUTest.givenBlankFXMLName_whenSetRootByFXMLName_thenThrowsIllegalArgumentException Pages: 1 -->
<!--zoomable 158 -->

<svg id="main" version="1.1" xmlns="http://www.w3.org/2000/svg" xmlns:xlink="http://www.w3.org/1999/xlink" xml:space="preserve">

<style type="text/css"><![CDATA[
.node, .edge {opacity: 0.7;}
.node.selected, .edge.selected {opacity: 1;}
.edge:hover path { stroke: red; }
.edge:hover polygon { stroke: red; fill: red; }
]]></style>

<defs>
  <circle id="rim" cx="0" cy="0" r="7"/>
  <circle id="rim2" cx="0" cy="0" r="3.5"/>
  <g id="zoomPlus">
    <use xlink:href="#rim" fill="#404040"><set attributeName="fill" to="#808080" begin="zoomplus.mouseover" end="zoomplus.mouseout"/></use>
    <path d="M-4,0h8M0,-4v8" fill="none" stroke="white" stroke-width="1.5" pointer-events="none"/>
  </g>
  <g id="zoomMin">
    <use xlink:href="#rim" fill="#404040"><set attributeName="fill" to="#808080" begin="zoomminus.mouseover" end="zoomminus.mouseout"/></use>
    <path d="M-4,0h8" fill="none" stroke="white" stroke-width="1.5" pointer-events="none"/>
  </g>
  <g id="arrowUp" transform="translate(30 24)">
    <use xlink:href="#rim"/>
    <path pointer-events="none" fill="none" stroke="white" stroke-width="1.5" d="M0,-3.0v7 M-2.5,-0.5L0,-3.0L2.5,-0.5"/>
  </g>
  <g id="arrowRight" transform="rotate(90) translate(36 -43)">
    <use xlink:href="#rim"/>
    <path pointer-events="none" fill="none" stroke="white" stroke-width="1.5" d="M0,-3.0v7 M-2.5,-0.5L0,-3.0L2.5,-0.5"/>
  </g>
  <g id="arrowDown" transform="rotate(180) translate(-30 -48)">
    <use xlink:href="#rim"/>
    <path pointer-events="none" fill="none" stroke="white" stroke-width="1.5" d="M0,-3.0v7 M-2.5,-0.5L0,-3.0L2.5,-0.5"/>
  </g>
  <g id="arrowLeft" transform="rotate(270) translate(-36 17)">
    <use xlink:href="#rim"/>
    <path pointer-events="none" fill="none" stroke="white" stroke-width="1.5" d="M0,-3.0v7 M-2.5,-0.5L0,-3.0L2.5,-0.5"/>
  </g>
  <g id="resetDef">
    <use xlink:href="#rim2" fill="#404040"><set attributeName="fill" to="#808080" begin="reset.mouseover" end="reset.mouseout"/></use>
  </g>
</defs>
<script type="application/ecmascript" xlink:href="svg.min.js"/>
<svg id="graph" class="graph" data-view-width="640" data-view-height="158" data-section-id="dynsection-1">
<g id="viewport">
<title>fr.softsf.sudokufx.navigation.CoordinatorUTest.givenBlankFXMLName_whenSetRootByFXMLName_thenThrowsIllegalArgumentException</title>
<!-- Node1 -->
<g id="Node000001" class="node">
<title>Node1</title>
<g id="a_Node000001"><a xlink:title=" ">
<polygon fill="#999999" stroke="#666666" points="226.75,-94 0,-94 0,-38 226.75,-38 226.75,-94"/>
<text text-anchor="start" x="8" y="-80.5" font-family="Helvetica,sans-Serif" font-size="10.00">fr.softsf.sudokufx.navigation.</text>
<text text-anchor="start" x="8" y="-68.5" font-family="Helvetica,sans-Serif" font-size="10.00">CoordinatorUTest.givenBlankFXMLName</text>
<text text-anchor="start" x="8" y="-56.5" font-family="Helvetica,sans-Serif" font-size="10.00">_whenSetRootByFXMLName_thenThrowsIllegal</text>
<text text-anchor="middle" x="113.38" y="-44.5" font-family="Helvetica,sans-Serif" font-size="10.00">ArgumentException</text>
</a>
</g>
</g>
<!-- Node2 -->
<g id="Node000002" class="node">
<title>Node2</title>
<g id="a_Node000002"><a xlink:href="classfr_1_1softsf_1_1sudokufx_1_1navigation_1_1_coordinator.html#a76beb2414cb9e9e68181f08fd930f0b9" target="_top" xlink:title="Loads the specified FXML file, sets it as the root of the current JavaFX scene, and returns its contr...">
<polygon fill="white" stroke="#666666" points="431,-82 262.75,-82 262.75,-50 431,-50 431,-82"/>
<text text-anchor="start" x="270.75" y="-68.5" font-family="Helvetica,sans-Serif" font-size="10.00">fr.softsf.sudokufx.navigation.</text>
<text text-anchor="middle" x="346.88" y="-56.5" font-family="Helvetica,sans-Serif" font-size="10.00">Coordinator.setRootByFXMLName</text>
</a>
</g>
</g>
<!-- Node1&#45;&gt;Node2 -->
<g id="edge1_Node000001_Node000002" class="edge">
<title>Node1&#45;&gt;Node2</title>
<g id="a_edge1_Node000001_Node000002"><a xlink:title=" ">
<path fill="none" stroke="#63b8ff" d="M227.07,-66C235.11,-66 243.16,-66 251.08,-66"/>
<polygon fill="#63b8ff" stroke="#63b8ff" points="251.06,-69.5 261.06,-66 251.06,-62.5 251.06,-69.5"/>
</a>
</g>
</g>
<!-- Node3 -->
<g id="Node000003" class="node">
<title>Node3</title>
<g id="a_Node000003"><a xlink:href="classfr_1_1softsf_1_1sudokufx_1_1navigation_1_1_coordinator.html#aa63a8ea1cf99200dbee0e27a3ce78060" target="_top" xlink:title="Constructs the coordinator.">
<polygon fill="white" stroke="#666666" points="621,-132 478.25,-132 478.25,-100 621,-100 621,-132"/>
<text text-anchor="start" x="486.25" y="-118.5" font-family="Helvetica,sans-Serif" font-size="10.00">fr.softsf.sudokufx.navigation.</text>
<text text-anchor="middle" x="549.62" y="-106.5" font-family="Helvetica,sans-Serif" font-size="10.00">Coordinator.Coordinator</text>
</a>
</g>
</g>
<!-- Node2&#45;&gt;Node3 -->
<g id="edge2_Node000002_Node000003" class="edge">
<title>Node2&#45;&gt;Node3</title>
<g id="a_edge2_Node000002_Node000003"><a xlink:title=" ">
<path fill="none" stroke="#63b8ff" d="M413.89,-82.44C432.32,-87.03 452.52,-92.06 471.54,-96.8"/>
<polygon fill="#63b8ff" stroke="#63b8ff" points="470.56,-100.16 481.11,-99.18 472.25,-93.37 470.56,-100.16"/>
</a>
</g>
</g>
<!-- Node4 -->
<g id="Node000004" class="node">
<title>Node4</title>
<g id="a_Node000004"><a xlink:href="classfr_1_1softsf_1_1sudokufx_1_1navigation_1_1_coordinator.html#a64e23a6257dc42929da8e6ee620fdca7" target="_top" xlink:title="Package&#45;private method to exit the JavaFX platform.">
<polygon fill="white" stroke="#666666" points="621,-82 478.25,-82 478.25,-50 621,-50 621,-82"/>
<text text-anchor="start" x="486.25" y="-68.5" font-family="Helvetica,sans-Serif" font-size="10.00">fr.softsf.sudokufx.navigation.</text>
<text text-anchor="middle" x="549.62" y="-56.5" font-family="Helvetica,sans-Serif" font-size="10.00">Coordinator.exitPlatform</text>
</a>
</g>
</g>
<!-- Node2&#45;&gt;Node4 -->
<g id="edge4_Node000002_Node000004" class="edge">
<title>Node2&#45;&gt;Node4</title>
<g id="a_edge4_Node000002_Node000004"><a xlink:title=" ">
<path fill="none" stroke="#63b8ff" d="M431.27,-66C442.9,-66 454.85,-66 466.46,-66"/>
<polygon fill="#63b8ff" stroke="#63b8ff" points="466.42,-69.5 476.42,-66 466.42,-62.5 466.42,-69.5"/>
</a>
</g>
</g>
<!-- Node5 -->
<g id="Node000005" class="node">
<title>Node5</title>
<g id="a_Node000005"><a xlink:href="classfr_1_1softsf_1_1sudokufx_1_1common_1_1util_1_1_dynamic_font_size.html#a047fbfb7e3d7b9e30ddeaefbeb3c9a3f" target="_top" xlink:title="Updates the font size of the scene&#39;s root node based on its current dimensions.">
<polygon fill="white" stroke="#666666" points="632.25,-32 467,-32 467,0 632.25,0 632.25,-32"/>
<text text-anchor="start" x="475" y="-18.5" font-family="Helvetica,sans-Serif" font-size="10.00">fr.softsf.sudokufx.common.util.</text>
<text text-anchor="middle" x="549.62" y="-6.5" font-family="Helvetica,sans-Serif" font-size="10.00">DynamicFontSize.updateFontSize</text>
</a>
</g>
</g>
<!-- Node2&#45;&gt;Node5 -->
<g id="edge5_Node000002_Node000005" class="edge">
<title>Node2&#45;&gt;Node5</title>
<g id="a_edge5_Node000002_Node000005"><a xlink:title=" ">
<path fill="none" stroke="#63b8ff" d="M413.89,-49.56C432.32,-44.97 452.52,-39.94 471.54,-35.2"/>
<polygon fill="#63b8ff" stroke="#63b8ff" points="472.25,-38.63 481.11,-32.82 470.56,-31.84 472.25,-38.63"/>
</a>
</g>
</g>
<!-- Node3&#45;&gt;Node3 -->
<g id="edge3_Node000003_Node000003" class="edge">
<title>Node3&#45;&gt;Node3</title>
<g id="a_edge3_Node000003_Node000003"><a xlink:title=" ">
<path fill="none" stroke="#63b8ff" d="M513.43,-132.44C506.67,-141.58 518.74,-150 549.62,-150 567,-150 578.42,-147.34 583.88,-143.38"/>
<polygon fill="#63b8ff" stroke="#63b8ff" points="587.26,-144.39 585.56,-133.93 580.36,-143.17 587.26,-144.39"/>
</a>
</g>
</g>
</g>
</svg>

<g id="navigator" transform="translate(0 0)" fill="#404254">
  <rect fill="#f2f5e9" fill-opacity="0.5" stroke="#606060" stroke-width=".5" x="0" y="0" width="60" height="60"/>
  <use id="zoomplus" xlink:href="#zoomPlus" x="17" y="9" data-zoom="in"/>
  <use id="zoomminus" xlink:href="#zoomMin" x="42" y="9" data-zoom="out"/>
  <use id="reset" xlink:href="#resetDef" x="30" y="36" data-reset="true"/>
  <use id="arrowup" xlink:href="#arrowUp" x="0" y="0" data-pan-x="0" data-pan-y="-1"/>
  <use id="arrowright" xlink:href="#arrowRight" x="0" y="0" data-pan-x="1" data-pan-y="0"/>
  <use id="arrowdown" xlink:href="#arrowDown" x="0" y="0" data-pan-x="0" data-pan-y="1"/>
  <use id="arrowleft" xlink:href="#arrowLeft" x="0" y="0" data-pan-x="-1" data-pan-y="0"/>
</g>
<svg viewBox="0 0 15 15" width="100%" height="30px" preserveAspectRatio="xMaxYMin meet">
 <g id="arrow_out" transform="scale(0.3 0.3)">
  <a xlink:href="classfr_1_1softsf_1_1sudokufx_1_1navigation_1_1_coordinator_u_test_ae7f6fdece18ac2cd66e6d86db50bcc6e_cgraph_org.svg" target="_base">
   <rect id="button" ry="5" rx="5" y="6" x="6" height="38" width="38"
        fill="#f2f5e9" fill-opacity="0.5" stroke="#606060" stroke-width="1.0"/>
   <path id="arrow"
     d="M 11.500037,31.436501 C 11.940474,20.09759 22.043105,11.32322 32.158766,21.979434 L 37.068811,17.246167 C 37.068811,17.246167 37.088388,32 37.088388,32 L 22.160133,31.978069 C 22.160133,31.978069 26.997745,27.140456 26.997745,27.140456 C 18.528582,18.264221 13.291696,25.230495 11.500037,31.436501 z"
     style="fill:#404040;"/>
  </a>
 </g>
</svg>

<style type='text/css'>
<![CDATA[
[data-mouse-over-selected='false'] { opacity: 0.7; }
[data-mouse-over-selected='true']  { opacity: 1.0; }
]]>
</style>
</svg>
