<?xml version="1.0" encoding="UTF-8" standalone="no"?>
<!DOCTYPE svg PUBLIC "-//W3C//DTD SVG 1.1//EN"
 "http://www.w3.org/Graphics/SVG/1.1/DTD/svg11.dtd">
<!-- Generated by graphviz version 12.2.1 (20241206.2353)
 -->
<!-- Title: fr.softsf.sudokufx.viewmodel.MenuPlayerViewModel.MenuPlayerViewModel Pages: 1 -->
<svg width="1295pt" height="338pt"
 viewBox="0.00 0.00 1295.00 338.00" xmlns="http://www.w3.org/2000/svg" xmlns:xlink="http://www.w3.org/1999/xlink">
<g id="graph0" class="graph" transform="scale(1 1) rotate(0) translate(4 334)">
<title>fr.softsf.sudokufx.viewmodel.MenuPlayerViewModel.MenuPlayerViewModel</title>
<!-- Node1 -->
<g id="Node000001" class="node">
<title>Node1</title>
<g id="a_Node000001"><a xlink:title=" ">
<polygon fill="#999999" stroke="#666666" points="218.5,-178 0,-178 0,-146 218.5,-146 218.5,-178"/>
<text text-anchor="start" x="8" y="-164.5" font-family="Helvetica,sans-Serif" font-size="10.00">fr.softsf.sudokufx.viewmodel.</text>
<text text-anchor="middle" x="109.25" y="-152.5" font-family="Helvetica,sans-Serif" font-size="10.00">MenuPlayerViewModel.MenuPlayerViewModel</text>
</a>
</g>
</g>
<!-- Node2 -->
<g id="Node000002" class="node">
<title>Node2</title>
<g id="a_Node000002"><a xlink:href="classfr_1_1softsf_1_1sudokufx_1_1viewmodel_1_1_menu_player_view_model.html#ab85707b9c1970d47449a515c65882ba9" target="_top" xlink:title="Creates a localized binding by concatenating two keys.">
<polygon fill="white" stroke="#666666" points="448.25,-330 259,-330 259,-286 448.25,-286 448.25,-330"/>
<text text-anchor="start" x="267" y="-316.5" font-family="Helvetica,sans-Serif" font-size="10.00">fr.softsf.sudokufx.viewmodel.</text>
<text text-anchor="start" x="267" y="-304.5" font-family="Helvetica,sans-Serif" font-size="10.00">MenuPlayerViewModel.createAppended</text>
<text text-anchor="middle" x="353.62" y="-292.5" font-family="Helvetica,sans-Serif" font-size="10.00">StringBinding</text>
</a>
</g>
</g>
<!-- Node1&#45;&gt;Node2 -->
<g id="edge1_Node000001_Node000002" class="edge">
<title>Node1&#45;&gt;Node2</title>
<g id="a_edge1_Node000001_Node000002"><a xlink:title=" ">
<path fill="none" stroke="#63b8ff" d="M126.55,-178.4C151.85,-203.03 203.06,-249.59 254.5,-277 257.05,-278.36 259.67,-279.67 262.35,-280.94"/>
<polygon fill="#63b8ff" stroke="#63b8ff" points="260.92,-284.13 271.48,-284.97 263.75,-277.73 260.92,-284.13"/>
</a>
</g>
</g>
<!-- Node3 -->
<g id="Node000003" class="node">
<title>Node3</title>
<g id="a_Node000003"><a xlink:href="classfr_1_1softsf_1_1sudokufx_1_1viewmodel_1_1_menu_player_view_model.html#a74c09c6a0ee599311a4d665b4e86488b" target="_top" xlink:title="Creates a localized binding combining a formatted message and suffix.">
<polygon fill="white" stroke="#666666" points="448.62,-268 258.62,-268 258.62,-224 448.62,-224 448.62,-268"/>
<text text-anchor="start" x="266.62" y="-254.5" font-family="Helvetica,sans-Serif" font-size="10.00">fr.softsf.sudokufx.viewmodel.</text>
<text text-anchor="start" x="266.62" y="-242.5" font-family="Helvetica,sans-Serif" font-size="10.00">MenuPlayerViewModel.createFormatted</text>
<text text-anchor="middle" x="353.62" y="-230.5" font-family="Helvetica,sans-Serif" font-size="10.00">AndConcatenatedBinding</text>
</a>
</g>
</g>
<!-- Node1&#45;&gt;Node3 -->
<g id="edge2_Node000001_Node000003" class="edge">
<title>Node1&#45;&gt;Node3</title>
<g id="a_edge2_Node000001_Node000003"><a xlink:title=" ">
<path fill="none" stroke="#63b8ff" d="M153.3,-178.41C181.88,-189.15 220.29,-203.32 254.5,-215 259.42,-216.68 264.49,-218.38 269.61,-220.07"/>
<polygon fill="#63b8ff" stroke="#63b8ff" points="268.13,-223.27 278.72,-223.05 270.3,-216.61 268.13,-223.27"/>
</a>
</g>
</g>
<!-- Node9 -->
<g id="Node000009" class="node">
<title>Node9</title>
<g id="a_Node000009"><a xlink:href="classfr_1_1softsf_1_1sudokufx_1_1viewmodel_1_1_menu_player_view_model.html#af4331b2f8f2bcf2558e9d281688015f2" target="_top" xlink:title="Creates a formatted localized binding with player name argument.">
<polygon fill="white" stroke="#666666" points="448.62,-156 258.62,-156 258.62,-112 448.62,-112 448.62,-156"/>
<text text-anchor="start" x="266.62" y="-142.5" font-family="Helvetica,sans-Serif" font-size="10.00">fr.softsf.sudokufx.viewmodel.</text>
<text text-anchor="start" x="266.62" y="-130.5" font-family="Helvetica,sans-Serif" font-size="10.00">MenuPlayerViewModel.createFormatted</text>
<text text-anchor="middle" x="353.62" y="-118.5" font-family="Helvetica,sans-Serif" font-size="10.00">Binding</text>
</a>
</g>
</g>
<!-- Node1&#45;&gt;Node9 -->
<g id="edge9_Node000001_Node000009" class="edge">
<title>Node1&#45;&gt;Node9</title>
<g id="a_edge9_Node000001_Node000009"><a xlink:title=" ">
<path fill="none" stroke="#63b8ff" d="M218.68,-149.47C228.09,-148.39 237.6,-147.29 246.98,-146.2"/>
<polygon fill="#63b8ff" stroke="#63b8ff" points="247.32,-149.69 256.85,-145.06 246.52,-142.73 247.32,-149.69"/>
</a>
</g>
</g>
<!-- Node10 -->
<g id="Node000010" class="node">
<title>Node10</title>
<g id="a_Node000010"><a xlink:href="classfr_1_1softsf_1_1sudokufx_1_1viewmodel_1_1_menu_player_view_model.html#ad991246df2f102a8432071881b5fd5a7" target="_top" xlink:title="Creates a simple localized binding for a given key.">
<polygon fill="white" stroke="#666666" points="439.25,-94 268,-94 268,-50 439.25,-50 439.25,-94"/>
<text text-anchor="start" x="276" y="-80.5" font-family="Helvetica,sans-Serif" font-size="10.00">fr.softsf.sudokufx.viewmodel.</text>
<text text-anchor="start" x="276" y="-68.5" font-family="Helvetica,sans-Serif" font-size="10.00">MenuPlayerViewModel.createString</text>
<text text-anchor="middle" x="353.62" y="-56.5" font-family="Helvetica,sans-Serif" font-size="10.00">Binding</text>
</a>
</g>
</g>
<!-- Node1&#45;&gt;Node10 -->
<g id="edge10_Node000001_Node000010" class="edge">
<title>Node1&#45;&gt;Node10</title>
<g id="a_edge10_Node000001_Node000010"><a xlink:title=" ">
<path fill="none" stroke="#63b8ff" d="M147.88,-145.61C176.8,-133.27 217.86,-116.25 254.5,-103 259.11,-101.33 263.87,-99.66 268.68,-98.02"/>
<polygon fill="#63b8ff" stroke="#63b8ff" points="269.47,-101.44 277.83,-94.93 267.23,-94.81 269.47,-101.44"/>
</a>
</g>
</g>
<!-- Node11 -->
<g id="Node000011" class="node">
<title>Node11</title>
<g id="a_Node000011"><a xlink:href="classfr_1_1softsf_1_1sudokufx_1_1viewmodel_1_1_menu_player_view_model.html#ae780866cb629a7b3fb902530ee8b4098" target="_top" xlink:title="Loads test players into the observable list.">
<polygon fill="white" stroke="#666666" points="438.5,-206 268.75,-206 268.75,-174 438.5,-174 438.5,-206"/>
<text text-anchor="start" x="276.75" y="-192.5" font-family="Helvetica,sans-Serif" font-size="10.00">fr.softsf.sudokufx.viewmodel.</text>
<text text-anchor="middle" x="353.62" y="-180.5" font-family="Helvetica,sans-Serif" font-size="10.00">MenuPlayerViewModel.loadPlayers</text>
</a>
</g>
</g>
<!-- Node1&#45;&gt;Node11 -->
<g id="edge11_Node000001_Node000011" class="edge">
<title>Node1&#45;&gt;Node11</title>
<g id="a_edge11_Node000001_Node000011"><a xlink:title=" ">
<path fill="none" stroke="#63b8ff" d="M218.68,-174.53C231.42,-176 244.34,-177.49 256.89,-178.94"/>
<polygon fill="#63b8ff" stroke="#63b8ff" points="256.45,-182.41 266.79,-180.08 257.25,-175.46 256.45,-182.41"/>
</a>
</g>
</g>
<!-- Node16 -->
<g id="Node000016" class="node">
<title>Node16</title>
<g id="a_Node000016"><a xlink:href="classfr_1_1softsf_1_1sudokufx_1_1viewmodel_1_1_menu_player_view_model.html#add46cd4d4ea1ec7cb88a67a5f54f0a71" target="_top" xlink:title="Sets the selected player to the one marked as selected or first in the list.">
<polygon fill="white" stroke="#666666" points="452.75,-32 254.5,-32 254.5,0 452.75,0 452.75,-32"/>
<text text-anchor="start" x="262.5" y="-18.5" font-family="Helvetica,sans-Serif" font-size="10.00">fr.softsf.sudokufx.viewmodel.</text>
<text text-anchor="middle" x="353.62" y="-6.5" font-family="Helvetica,sans-Serif" font-size="10.00">MenuPlayerViewModel.setSelectedPlayer</text>
</a>
</g>
</g>
<!-- Node1&#45;&gt;Node16 -->
<g id="edge23_Node000001_Node000016" class="edge">
<title>Node1&#45;&gt;Node16</title>
<g id="a_edge23_Node000001_Node000016"><a xlink:title=" ">
<path fill="none" stroke="#63b8ff" d="M124.96,-145.61C149.32,-119.49 200.69,-68.59 254.5,-41 257.57,-39.43 260.74,-37.95 263.99,-36.56"/>
<polygon fill="#63b8ff" stroke="#63b8ff" points="265.12,-39.88 273.15,-32.97 262.56,-33.36 265.12,-39.88"/>
</a>
</g>
</g>
<!-- Node4 -->
<g id="Node000004" class="node">
<title>Node4</title>
<g id="a_Node000004"><a xlink:href="classfr_1_1softsf_1_1sudokufx_1_1viewmodel_1_1_menu_player_view_model.html#a062c453d8d6794a32f0f8246057d0604" target="_top" xlink:title="Returns the name of the currently selected player or empty if none.">
<polygon fill="white" stroke="#666666" points="880,-324 708.75,-324 708.75,-292 880,-292 880,-324"/>
<text text-anchor="start" x="716.75" y="-310.5" font-family="Helvetica,sans-Serif" font-size="10.00">fr.softsf.sudokufx.viewmodel.</text>
<text text-anchor="middle" x="794.38" y="-298.5" font-family="Helvetica,sans-Serif" font-size="10.00">MenuPlayerViewModel.playerName</text>
</a>
</g>
</g>
<!-- Node3&#45;&gt;Node4 -->
<g id="edge3_Node000003_Node000004" class="edge">
<title>Node3&#45;&gt;Node4</title>
<g id="a_edge3_Node000003_Node000004"><a xlink:title=" ">
<path fill="none" stroke="#63b8ff" d="M449.02,-259.34C522.32,-269.7 623.57,-284 697.3,-294.42"/>
<polygon fill="#63b8ff" stroke="#63b8ff" points="696.54,-297.85 706.93,-295.78 697.51,-290.92 696.54,-297.85"/>
</a>
</g>
</g>
<!-- Node5 -->
<g id="Node000005" class="node">
<title>Node5</title>
<g id="a_Node000005"><a xlink:href="namespacefr_1_1softsf_1_1sudokufx_1_1dto.html#a78c64f9aa988ddc79b6231cb035950b5" target="_top" xlink:title=" ">
<polygon fill="white" stroke="#666666" points="1071.5,-217 916,-217 916,-197 1071.5,-197 1071.5,-217"/>
<text text-anchor="middle" x="993.75" y="-203.5" font-family="Helvetica,sans-Serif" font-size="10.00">fr.softsf.sudokufx.dto.PlayerDto</text>
</a>
</g>
</g>
<!-- Node4&#45;&gt;Node5 -->
<g id="edge4_Node000004_Node000005" class="edge">
<title>Node4&#45;&gt;Node5</title>
<g id="a_edge4_Node000004_Node000005"><a xlink:title=" ">
<path fill="none" stroke="#63b8ff" d="M827.53,-291.55C864.81,-272.47 925.81,-241.26 962.33,-222.56"/>
<polygon fill="#63b8ff" stroke="#63b8ff" points="963.74,-225.78 971.04,-218.11 960.55,-219.55 963.74,-225.78"/>
</a>
</g>
</g>
<!-- Node5&#45;&gt;Node5 -->
<g id="edge7_Node000005_Node000005" class="edge">
<title>Node5&#45;&gt;Node5</title>
<g id="a_edge7_Node000005_Node000005"><a xlink:title=" ">
<path fill="none" stroke="#63b8ff" d="M962.07,-217.34C948.53,-225.98 959.09,-235 993.75,-235 1013.24,-235 1025.11,-232.14 1029.36,-228.11"/>
<polygon fill="#63b8ff" stroke="#63b8ff" points="1032.66,-226.95 1025.95,-218.76 1026.09,-229.35 1032.66,-226.95"/>
</a>
</g>
</g>
<!-- Node6 -->
<g id="Node000006" class="node">
<title>Node6</title>
<g id="a_Node000006"><a xlink:href="namespacefr_1_1softsf_1_1sudokufx_1_1dto.html#a74a25e6890e40c0776edc15742133036" target="_top" xlink:title=" ">
<polygon fill="white" stroke="#666666" points="1287,-246 1107.5,-246 1107.5,-226 1287,-226 1287,-246"/>
<text text-anchor="middle" x="1197.25" y="-232.5" font-family="Helvetica,sans-Serif" font-size="10.00">fr.softsf.sudokufx.dto.OptionsDto</text>
</a>
</g>
</g>
<!-- Node5&#45;&gt;Node6 -->
<g id="edge5_Node000005_Node000006" class="edge">
<title>Node5&#45;&gt;Node6</title>
<g id="a_edge5_Node000005_Node000006"><a xlink:title=" ">
<path fill="none" stroke="#63b8ff" d="M1067.5,-217.47C1082.05,-219.56 1097.45,-221.78 1112.34,-223.92"/>
<polygon fill="#63b8ff" stroke="#63b8ff" points="1111.72,-227.37 1122.11,-225.33 1112.71,-220.44 1111.72,-227.37"/>
</a>
</g>
</g>
<!-- Node7 -->
<g id="Node000007" class="node">
<title>Node7</title>
<g id="a_Node000007"><a xlink:href="namespacefr_1_1softsf_1_1sudokufx_1_1dto.html#a4b93797829452798604adaaaf4b0da89" target="_top" xlink:title=" ">
<polygon fill="white" stroke="#666666" points="1273.12,-188 1121.38,-188 1121.38,-168 1273.12,-168 1273.12,-188"/>
<text text-anchor="middle" x="1197.25" y="-174.5" font-family="Helvetica,sans-Serif" font-size="10.00">fr.softsf.sudokufx.dto.MenuDto</text>
</a>
</g>
</g>
<!-- Node5&#45;&gt;Node7 -->
<g id="edge6_Node000005_Node000007" class="edge">
<title>Node5&#45;&gt;Node7</title>
<g id="a_edge6_Node000005_Node000007"><a xlink:title=" ">
<path fill="none" stroke="#63b8ff" d="M1067.5,-196.53C1082.05,-194.44 1097.45,-192.22 1112.34,-190.08"/>
<polygon fill="#63b8ff" stroke="#63b8ff" points="1112.71,-193.56 1122.11,-188.67 1111.72,-186.63 1112.71,-193.56"/>
</a>
</g>
</g>
<!-- Node8 -->
<g id="Node000008" class="node">
<title>Node8</title>
<g id="a_Node000008"><a xlink:href="namespacefr_1_1softsf_1_1sudokufx_1_1dto.html#a57e3465d00d6e83a9d0fd8c03223868d" target="_top" xlink:title=" ">
<polygon fill="white" stroke="#666666" points="1267.12,-109 1127.38,-109 1127.38,-77 1267.12,-77 1267.12,-109"/>
<text text-anchor="start" x="1135.38" y="-95.5" font-family="Helvetica,sans-Serif" font-size="10.00">fr.softsf.sudokufx.dto.Player</text>
<text text-anchor="middle" x="1197.25" y="-83.5" font-family="Helvetica,sans-Serif" font-size="10.00">LanguageDto</text>
</a>
</g>
</g>
<!-- Node5&#45;&gt;Node8 -->
<g id="edge8_Node000005_Node000008" class="edge">
<title>Node5&#45;&gt;Node8</title>
<g id="a_edge8_Node000005_Node000008"><a xlink:title=" ">
<path fill="none" stroke="#63b8ff" d="M1046.58,-196.58C1055.12,-193.99 1063.72,-190.84 1071.5,-187 1089.68,-178.04 1091.37,-171.27 1107.5,-159 1126.46,-144.58 1147.88,-128.64 1164.92,-116.04"/>
<polygon fill="#63b8ff" stroke="#63b8ff" points="1166.72,-119.07 1172.68,-110.31 1162.56,-113.44 1166.72,-119.07"/>
</a>
</g>
</g>
<!-- Node12 -->
<g id="Node000012" class="node">
<title>Node12</title>
<g id="a_Node000012"><a xlink:href="classfr_1_1softsf_1_1sudokufx_1_1viewmodel_1_1_menu_player_view_model.html#afb4a54799b624cdda95c1563f3ca0d1f" target="_top" xlink:title="Generates a sample PlayerDto instance for testing purposes.">
<polygon fill="white" stroke="#666666" points="672.75,-191 488.75,-191 488.75,-147 672.75,-147 672.75,-191"/>
<text text-anchor="start" x="496.75" y="-177.5" font-family="Helvetica,sans-Serif" font-size="10.00">fr.softsf.sudokufx.viewmodel.</text>
<text text-anchor="start" x="496.75" y="-165.5" font-family="Helvetica,sans-Serif" font-size="10.00">MenuPlayerViewModel.generatePlayer</text>
<text text-anchor="middle" x="580.75" y="-153.5" font-family="Helvetica,sans-Serif" font-size="10.00">ForTests</text>
</a>
</g>
</g>
<!-- Node11&#45;&gt;Node12 -->
<g id="edge12_Node000011_Node000012" class="edge">
<title>Node11&#45;&gt;Node12</title>
<g id="a_edge12_Node000011_Node000012"><a xlink:title=" ">
<path fill="none" stroke="#63b8ff" d="M438.77,-182.15C451.33,-180.98 464.39,-179.76 477.28,-178.56"/>
<polygon fill="#63b8ff" stroke="#63b8ff" points="477.4,-182.06 487.03,-177.65 476.75,-175.09 477.4,-182.06"/>
</a>
</g>
</g>
<!-- Node12&#45;&gt;Node5 -->
<g id="edge21_Node000012_Node000005" class="edge">
<title>Node12&#45;&gt;Node5</title>
<g id="a_edge21_Node000012_Node000005"><a xlink:title=" ">
<path fill="none" stroke="#63b8ff" d="M672.94,-179.34C684.98,-180.62 697.16,-181.87 708.75,-183 774.18,-189.37 848.18,-195.59 904.24,-200.1"/>
<polygon fill="#63b8ff" stroke="#63b8ff" points="903.8,-203.58 914.05,-200.89 904.36,-196.6 903.8,-203.58"/>
</a>
</g>
</g>
<!-- Node12&#45;&gt;Node6 -->
<g id="edge13_Node000012_Node000006" class="edge">
<title>Node12&#45;&gt;Node6</title>
<g id="a_edge13_Node000012_Node000006"><a xlink:title=" ">
<path fill="none" stroke="#63b8ff" d="M659.41,-191.44C675.66,-195.84 692.72,-200.25 708.75,-204 800.1,-225.37 822.61,-235.07 916,-244 984.8,-250.58 1002.42,-246.21 1071.5,-244 1079.31,-243.75 1087.4,-243.41 1095.52,-243.01"/>
<polygon fill="#63b8ff" stroke="#63b8ff" points="1095.7,-246.51 1105.5,-242.5 1095.33,-239.52 1095.7,-246.51"/>
</a>
</g>
</g>
<!-- Node12&#45;&gt;Node7 -->
<g id="edge20_Node000012_Node000007" class="edge">
<title>Node12&#45;&gt;Node7</title>
<g id="a_edge20_Node000012_Node000007"><a xlink:title=" ">
<path fill="none" stroke="#63b8ff" d="M624.94,-146.6C648.98,-135.19 679.81,-122.22 708.75,-115 865.38,-75.95 916.73,-51.16 1071.5,-97 1077.08,-98.65 1136.62,-138.12 1171.39,-161.34"/>
<polygon fill="#63b8ff" stroke="#63b8ff" points="1169.37,-164.2 1179.63,-166.85 1173.26,-158.38 1169.37,-164.2"/>
</a>
</g>
</g>
<!-- Node12&#45;&gt;Node8 -->
<g id="edge22_Node000012_Node000008" class="edge">
<title>Node12&#45;&gt;Node8</title>
<g id="a_edge22_Node000012_Node000008"><a xlink:title=" ">
<path fill="none" stroke="#63b8ff" d="M602.1,-146.66C625.26,-123.02 665.53,-87.08 708.75,-72 849.93,-22.73 1028.18,-51.39 1125.27,-73.93"/>
<polygon fill="#63b8ff" stroke="#63b8ff" points="1124.4,-77.32 1134.94,-76.23 1126.02,-70.51 1124.4,-77.32"/>
</a>
</g>
</g>
<!-- Node13 -->
<g id="Node000013" class="node">
<title>Node13</title>
<g id="a_Node000013"><a xlink:href="namespacefr_1_1softsf_1_1sudokufx_1_1dto.html#ab5d2080d0c76f8058c944d91ec9a49c4" target="_top" xlink:title=" ">
<polygon fill="white" stroke="#666666" points="871.38,-160 717.38,-160 717.38,-140 871.38,-140 871.38,-160"/>
<text text-anchor="middle" x="794.38" y="-146.5" font-family="Helvetica,sans-Serif" font-size="10.00">fr.softsf.sudokufx.dto.GameDto</text>
</a>
</g>
</g>
<!-- Node12&#45;&gt;Node13 -->
<g id="edge14_Node000012_Node000013" class="edge">
<title>Node12&#45;&gt;Node13</title>
<g id="a_edge14_Node000012_Node000013"><a xlink:title=" ">
<path fill="none" stroke="#63b8ff" d="M673.03,-160.8C683.91,-159.83 695,-158.83 705.82,-157.86"/>
<polygon fill="#63b8ff" stroke="#63b8ff" points="705.83,-161.37 715.47,-156.99 705.2,-154.4 705.83,-161.37"/>
</a>
</g>
</g>
<!-- Node14 -->
<g id="Node000014" class="node">
<title>Node14</title>
<g id="a_Node000014"><a xlink:href="namespacefr_1_1softsf_1_1sudokufx_1_1dto.html#a82b953d912bf7621392b51e45915af32" target="_top" xlink:title=" ">
<polygon fill="white" stroke="#666666" points="1062.88,-138 924.62,-138 924.62,-106 1062.88,-106 1062.88,-138"/>
<text text-anchor="start" x="932.62" y="-124.5" font-family="Helvetica,sans-Serif" font-size="10.00">fr.softsf.sudokufx.dto.Game</text>
<text text-anchor="middle" x="993.75" y="-112.5" font-family="Helvetica,sans-Serif" font-size="10.00">LevelDto</text>
</a>
</g>
</g>
<!-- Node12&#45;&gt;Node14 -->
<g id="edge18_Node000012_Node000014" class="edge">
<title>Node12&#45;&gt;Node14</title>
<g id="a_edge18_Node000012_Node000014"><a xlink:title=" ">
<path fill="none" stroke="#63b8ff" d="M644.95,-146.58C665.09,-140.39 687.62,-134.44 708.75,-131 776.96,-119.91 855.57,-118.26 912.77,-119.04"/>
<polygon fill="#63b8ff" stroke="#63b8ff" points="912.7,-122.54 922.76,-119.21 912.82,-115.54 912.7,-122.54"/>
</a>
</g>
</g>
<!-- Node15 -->
<g id="Node000015" class="node">
<title>Node15</title>
<g id="a_Node000015"><a xlink:href="namespacefr_1_1softsf_1_1sudokufx_1_1dto.html#a55eaa4f45339420cc86114a3d8dab18b" target="_top" xlink:title=" ">
<polygon fill="white" stroke="#666666" points="1066.62,-178 920.88,-178 920.88,-158 1066.62,-158 1066.62,-178"/>
<text text-anchor="middle" x="993.75" y="-164.5" font-family="Helvetica,sans-Serif" font-size="10.00">fr.softsf.sudokufx.dto.GridDto</text>
</a>
</g>
</g>
<!-- Node12&#45;&gt;Node15 -->
<g id="edge19_Node000012_Node000015" class="edge">
<title>Node12&#45;&gt;Node15</title>
<g id="a_edge19_Node000012_Node000015"><a xlink:title=" ">
<path fill="none" stroke="#63b8ff" d="M673.12,-169.21C732.15,-169.29 810.62,-169.31 880,-169 889.43,-168.96 899.3,-168.9 909.11,-168.82"/>
<polygon fill="#63b8ff" stroke="#63b8ff" points="909.09,-172.32 919.06,-168.75 909.03,-165.33 909.09,-172.32"/>
</a>
</g>
</g>
<!-- Node13&#45;&gt;Node5 -->
<g id="edge17_Node000013_Node000005" class="edge">
<title>Node13&#45;&gt;Node5</title>
<g id="a_edge17_Node000013_Node000005"><a xlink:title=" ">
<path fill="none" stroke="#63b8ff" d="M828.03,-160.43C852.23,-168.06 886.07,-178.52 916,-187 923.83,-189.22 932.14,-191.48 940.29,-193.65"/>
<polygon fill="#63b8ff" stroke="#63b8ff" points="939.21,-196.98 949.77,-196.14 940.99,-190.21 939.21,-196.98"/>
</a>
</g>
</g>
<!-- Node13&#45;&gt;Node14 -->
<g id="edge15_Node000013_Node000014" class="edge">
<title>Node13&#45;&gt;Node14</title>
<g id="a_edge15_Node000013_Node000014"><a xlink:title=" ">
<path fill="none" stroke="#63b8ff" d="M869.15,-139.53C883.55,-137.49 898.7,-135.34 913.27,-133.27"/>
<polygon fill="#63b8ff" stroke="#63b8ff" points="913.37,-136.8 922.78,-131.93 912.39,-129.86 913.37,-136.8"/>
</a>
</g>
</g>
<!-- Node13&#45;&gt;Node15 -->
<g id="edge16_Node000013_Node000015" class="edge">
<title>Node13&#45;&gt;Node15</title>
<g id="a_edge16_Node000013_Node000015"><a xlink:title=" ">
<path fill="none" stroke="#63b8ff" d="M871.69,-156.96C883.98,-158.08 896.76,-159.25 909.21,-160.38"/>
<polygon fill="#63b8ff" stroke="#63b8ff" points="908.74,-163.85 919.02,-161.28 909.38,-156.88 908.74,-163.85"/>
</a>
</g>
</g>
</g>
</svg>
