<?xml version="1.0" encoding="UTF-8" standalone="no"?>
<!DOCTYPE svg PUBLIC "-//W3C//DTD SVG 1.1//EN"
 "http://www.w3.org/Graphics/SVG/1.1/DTD/svg11.dtd">
<!-- Generated by graphviz version 12.2.1 (20241206.2353)
 -->
<!-- Title: fr.softsf.sudokufx.viewmodel.MenuPlayerViewModel.loadPlayers Pages: 1 -->
<!--zoomable 228 -->

<svg id="main" version="1.1" xmlns="http://www.w3.org/2000/svg" xmlns:xlink="http://www.w3.org/1999/xlink" xml:space="preserve" onload="init(evt)">

<style type="text/css"><![CDATA[
.node, .edge {opacity: 0.7;}
.node.selected, .edge.selected {opacity: 1;}
.edge:hover path { stroke: red; }
.edge:hover polygon { stroke: red; fill: red; }
]]></style>

<defs>
  <circle id="rim" cx="0" cy="0" r="7"/>
  <circle id="rim2" cx="0" cy="0" r="3.5"/>
  <g id="zoomPlus">
    <use xlink:href="#rim" fill="#404040"><set attributeName="fill" to="#808080" begin="zoomplus.mouseover" end="zoomplus.mouseout"/></use>
    <path d="M-4,0h8M0,-4v8" fill="none" stroke="white" stroke-width="1.5" pointer-events="none"/>
  </g>
  <g id="zoomMin">
    <use xlink:href="#rim" fill="#404040"><set attributeName="fill" to="#808080" begin="zoomminus.mouseover" end="zoomminus.mouseout"/></use>
    <path d="M-4,0h8" fill="none" stroke="white" stroke-width="1.5" pointer-events="none"/>
  </g>
  <g id="arrowUp" transform="translate(30 24)">
    <use xlink:href="#rim"/>
    <path pointer-events="none" fill="none" stroke="white" stroke-width="1.5" d="M0,-3.0v7 M-2.5,-0.5L0,-3.0L2.5,-0.5"/>
  </g>
  <g id="arrowRight" transform="rotate(90) translate(36 -43)">
    <use xlink:href="#rim"/>
    <path pointer-events="none" fill="none" stroke="white" stroke-width="1.5" d="M0,-3.0v7 M-2.5,-0.5L0,-3.0L2.5,-0.5"/>
  </g>
  <g id="arrowDown" transform="rotate(180) translate(-30 -48)">
    <use xlink:href="#rim"/>
    <path pointer-events="none" fill="none" stroke="white" stroke-width="1.5" d="M0,-3.0v7 M-2.5,-0.5L0,-3.0L2.5,-0.5"/>
  </g>
  <g id="arrowLeft" transform="rotate(270) translate(-36 17)">
    <use xlink:href="#rim"/>
    <path pointer-events="none" fill="none" stroke="white" stroke-width="1.5" d="M0,-3.0v7 M-2.5,-0.5L0,-3.0L2.5,-0.5"/>
  </g>
  <g id="resetDef">
    <use xlink:href="#rim2" fill="#404040"><set attributeName="fill" to="#808080" begin="reset.mouseover" end="reset.mouseout"/></use>
  </g>
</defs>
<script type="application/ecmascript">
var viewWidth = 995;
var viewHeight = 228;
var sectionId = 'dynsection-4';
</script>
<script type="application/ecmascript" xlink:href="svg.min.js"/>
<svg id="graph" class="graph">
<g id="viewport">
<title>fr.softsf.sudokufx.viewmodel.MenuPlayerViewModel.loadPlayers</title>
<!-- Node1 -->
<g id="Node000001" class="node">
<title>Node1</title>
<g id="a_Node000001"><a xlink:title="Loads test players into the observable list.">
<polygon fill="#999999" stroke="#666666" points="169.75,-130 0,-130 0,-98 169.75,-98 169.75,-130"/>
<text text-anchor="start" x="8" y="-116.5" font-family="Helvetica,sans-Serif" font-size="10.00">fr.softsf.sudokufx.viewmodel.</text>
<text text-anchor="middle" x="84.88" y="-104.5" font-family="Helvetica,sans-Serif" font-size="10.00">MenuPlayerViewModel.loadPlayers</text>
</a>
</g>
</g>
<!-- Node2 -->
<g id="Node000002" class="node">
<title>Node2</title>
<g id="a_Node000002"><a xlink:href="classfr_1_1softsf_1_1sudokufx_1_1viewmodel_1_1_menu_player_view_model.html#afb4a54799b624cdda95c1563f3ca0d1f" target="_top" xlink:title="Generates a sample PlayerDto instance for testing purposes.">
<polygon fill="white" stroke="#666666" points="389.75,-136 205.75,-136 205.75,-92 389.75,-92 389.75,-136"/>
<text text-anchor="start" x="213.75" y="-122.5" font-family="Helvetica,sans-Serif" font-size="10.00">fr.softsf.sudokufx.viewmodel.</text>
<text text-anchor="start" x="213.75" y="-110.5" font-family="Helvetica,sans-Serif" font-size="10.00">MenuPlayerViewModel.generatePlayer</text>
<text text-anchor="middle" x="297.75" y="-98.5" font-family="Helvetica,sans-Serif" font-size="10.00">ForTests</text>
</a>
</g>
</g>
<!-- Node1&#45;&gt;Node2 -->
<g id="edge1_Node000001_Node000002" class="edge">
<title>Node1&#45;&gt;Node2</title>
<g id="a_edge1_Node000001_Node000002"><a xlink:title=" ">
<path fill="none" stroke="#63b8ff" d="M170.13,-114C178,-114 186.04,-114 194.06,-114"/>
<polygon fill="#63b8ff" stroke="#63b8ff" points="193.85,-117.5 203.85,-114 193.85,-110.5 193.85,-117.5"/>
</a>
</g>
</g>
<!-- Node3 -->
<g id="Node000003" class="node">
<title>Node3</title>
<g id="a_Node000003"><a xlink:href="namespacefr_1_1softsf_1_1sudokufx_1_1dto.html#a74a25e6890e40c0776edc15742133036" target="_top" xlink:title=" ">
<polygon fill="white" stroke="#666666" points="986.75,-177 807.25,-177 807.25,-157 986.75,-157 986.75,-177"/>
<text text-anchor="middle" x="897" y="-163.5" font-family="Helvetica,sans-Serif" font-size="10.00">fr.softsf.sudokufx.dto.BackgroundDto</text>
</a>
</g>
</g>
<!-- Node2&#45;&gt;Node3 -->
<g id="edge2_Node000002_Node000003" class="edge">
<title>Node2&#45;&gt;Node3</title>
<g id="a_edge2_Node000002_Node000003"><a xlink:title=" ">
<path fill="none" stroke="#63b8ff" d="M339.08,-136.49C363.5,-149.23 395.64,-164.47 425.75,-174 572.81,-220.57 618.85,-230.84 771.25,-207 802.23,-202.15 836.03,-190.92 860.62,-181.59"/>
<polygon fill="#63b8ff" stroke="#63b8ff" points="861.77,-184.9 869.82,-178.02 859.23,-178.38 861.77,-184.9"/>
</a>
</g>
</g>
<!-- Node4 -->
<g id="Node000004" class="node">
<title>Node4</title>
<g id="a_Node000004"><a xlink:href="namespacefr_1_1softsf_1_1sudokufx_1_1dto.html#ab5d2080d0c76f8058c944d91ec9a49c4" target="_top" xlink:title=" ">
<polygon fill="white" stroke="#666666" points="579.75,-124 425.75,-124 425.75,-104 579.75,-104 579.75,-124"/>
<text text-anchor="middle" x="502.75" y="-110.5" font-family="Helvetica,sans-Serif" font-size="10.00">fr.softsf.sudokufx.dto.GameDto</text>
</a>
</g>
</g>
<!-- Node2&#45;&gt;Node4 -->
<g id="edge3_Node000002_Node000004" class="edge">
<title>Node2&#45;&gt;Node4</title>
<g id="a_edge3_Node000002_Node000004"><a xlink:title=" ">
<path fill="none" stroke="#63b8ff" d="M390.15,-114C398.07,-114 406.08,-114 413.96,-114"/>
<polygon fill="#63b8ff" stroke="#63b8ff" points="413.91,-117.5 423.91,-114 413.91,-110.5 413.91,-117.5"/>
</a>
</g>
</g>
<!-- Node5 -->
<g id="Node000005" class="node">
<title>Node5</title>
<g id="a_Node000005"><a xlink:href="namespacefr_1_1softsf_1_1sudokufx_1_1dto.html#a82b953d912bf7621392b51e45915af32" target="_top" xlink:title=" ">
<polygon fill="white" stroke="#666666" points="762.62,-198 624.38,-198 624.38,-166 762.62,-166 762.62,-198"/>
<text text-anchor="start" x="632.38" y="-184.5" font-family="Helvetica,sans-Serif" font-size="10.00">fr.softsf.sudokufx.dto.Game</text>
<text text-anchor="middle" x="693.5" y="-172.5" font-family="Helvetica,sans-Serif" font-size="10.00">LevelDto</text>
</a>
</g>
</g>
<!-- Node2&#45;&gt;Node5 -->
<g id="edge11_Node000002_Node000005" class="edge">
<title>Node2&#45;&gt;Node5</title>
<g id="a_edge11_Node000002_Node000005"><a xlink:title=" ">
<path fill="none" stroke="#63b8ff" d="M373.19,-136.47C390.34,-141.1 408.59,-145.59 425.75,-149 488.01,-161.36 559.41,-169.9 612.67,-175.19"/>
<polygon fill="#63b8ff" stroke="#63b8ff" points="612.29,-178.67 622.58,-176.16 612.97,-171.71 612.29,-178.67"/>
</a>
</g>
</g>
<!-- Node6 -->
<g id="Node000006" class="node">
<title>Node6</title>
<g id="a_Node000006"><a xlink:href="namespacefr_1_1softsf_1_1sudokufx_1_1dto.html#a55eaa4f45339420cc86114a3d8dab18b" target="_top" xlink:title=" ">
<polygon fill="white" stroke="#666666" points="766.38,-144 620.62,-144 620.62,-124 766.38,-124 766.38,-144"/>
<text text-anchor="middle" x="693.5" y="-130.5" font-family="Helvetica,sans-Serif" font-size="10.00">fr.softsf.sudokufx.dto.GridDto</text>
</a>
</g>
</g>
<!-- Node2&#45;&gt;Node6 -->
<g id="edge12_Node000002_Node000006" class="edge">
<title>Node2&#45;&gt;Node6</title>
<g id="a_edge12_Node000002_Node000006"><a xlink:title=" ">
<path fill="none" stroke="#63b8ff" d="M390.14,-129.29C402.09,-130.81 414.19,-132.12 425.75,-133 486.95,-137.67 556.27,-137.77 608.9,-136.78"/>
<polygon fill="#63b8ff" stroke="#63b8ff" points="608.77,-140.29 618.7,-136.58 608.63,-133.29 608.77,-140.29"/>
</a>
</g>
</g>
<!-- Node7 -->
<g id="Node000007" class="node">
<title>Node7</title>
<g id="a_Node000007"><a xlink:href="namespacefr_1_1softsf_1_1sudokufx_1_1dto.html#a78c64f9aa988ddc79b6231cb035950b5" target="_top" xlink:title=" ">
<polygon fill="white" stroke="#666666" points="771.25,-86 615.75,-86 615.75,-66 771.25,-66 771.25,-86"/>
<text text-anchor="middle" x="693.5" y="-72.5" font-family="Helvetica,sans-Serif" font-size="10.00">fr.softsf.sudokufx.dto.PlayerDto</text>
</a>
</g>
</g>
<!-- Node2&#45;&gt;Node7 -->
<g id="edge14_Node000002_Node000007" class="edge">
<title>Node2&#45;&gt;Node7</title>
<g id="a_edge14_Node000002_Node000007"><a xlink:title=" ">
<path fill="none" stroke="#63b8ff" d="M390.21,-99.45C402.15,-97.81 414.23,-96.27 425.75,-95 485.08,-88.46 552.1,-83.7 604.12,-80.57"/>
<polygon fill="#63b8ff" stroke="#63b8ff" points="604.03,-84.09 613.8,-80 603.62,-77.1 604.03,-84.09"/>
</a>
</g>
</g>
<!-- Node8 -->
<g id="Node000008" class="node">
<title>Node8</title>
<g id="a_Node000008"><a xlink:href="namespacefr_1_1softsf_1_1sudokufx_1_1dto.html#a4b93797829452798604adaaaf4b0da89" target="_top" xlink:title=" ">
<polygon fill="white" stroke="#666666" points="972.88,-78 821.12,-78 821.12,-58 972.88,-58 972.88,-78"/>
<text text-anchor="middle" x="897" y="-64.5" font-family="Helvetica,sans-Serif" font-size="10.00">fr.softsf.sudokufx.dto.MenuDto</text>
</a>
</g>
</g>
<!-- Node2&#45;&gt;Node8 -->
<g id="edge13_Node000002_Node000008" class="edge">
<title>Node2&#45;&gt;Node8</title>
<g id="a_edge13_Node000002_Node000008"><a xlink:title=" ">
<path fill="none" stroke="#63b8ff" d="M370.11,-91.53C388.13,-86.48 407.53,-81.56 425.75,-78 576.73,-48.47 617.56,-50.24 771.25,-57 783.68,-57.55 796.79,-58.4 809.65,-59.39"/>
<polygon fill="#63b8ff" stroke="#63b8ff" points="809.11,-62.86 819.36,-60.18 809.67,-55.88 809.11,-62.86"/>
</a>
</g>
</g>
<!-- Node9 -->
<g id="Node000009" class="node">
<title>Node9</title>
<g id="a_Node000009"><a xlink:href="namespacefr_1_1softsf_1_1sudokufx_1_1dto.html#a57e3465d00d6e83a9d0fd8c03223868d" target="_top" xlink:title=" ">
<polygon fill="white" stroke="#666666" points="966.88,-32 827.12,-32 827.12,0 966.88,0 966.88,-32"/>
<text text-anchor="start" x="835.12" y="-18.5" font-family="Helvetica,sans-Serif" font-size="10.00">fr.softsf.sudokufx.dto.Player</text>
<text text-anchor="middle" x="897" y="-6.5" font-family="Helvetica,sans-Serif" font-size="10.00">LanguageDto</text>
</a>
</g>
</g>
<!-- Node2&#45;&gt;Node9 -->
<g id="edge15_Node000002_Node000009" class="edge">
<title>Node2&#45;&gt;Node9</title>
<g id="a_edge15_Node000002_Node000009"><a xlink:title=" ">
<path fill="none" stroke="#63b8ff" d="M334.48,-91.59C359.14,-77.33 393.23,-59.91 425.75,-51 558.91,-14.52 720.7,-10.92 815.62,-12.7"/>
<polygon fill="#63b8ff" stroke="#63b8ff" points="815.27,-16.2 825.34,-12.91 815.42,-9.2 815.27,-16.2"/>
</a>
</g>
</g>
<!-- Node4&#45;&gt;Node5 -->
<g id="edge4_Node000004_Node000005" class="edge">
<title>Node4&#45;&gt;Node5</title>
<g id="a_edge4_Node000004_Node000005"><a xlink:title=" ">
<path fill="none" stroke="#63b8ff" d="M532.83,-124.48C560.26,-134.36 602.13,-149.44 636.12,-161.69"/>
<polygon fill="#63b8ff" stroke="#63b8ff" points="634.83,-164.94 645.42,-165.04 637.2,-158.36 634.83,-164.94"/>
</a>
</g>
</g>
<!-- Node4&#45;&gt;Node6 -->
<g id="edge5_Node000004_Node000006" class="edge">
<title>Node4&#45;&gt;Node6</title>
<g id="a_edge5_Node000004_Node000006"><a xlink:title=" ">
<path fill="none" stroke="#63b8ff" d="M580.25,-122.11C589.72,-123.11 599.45,-124.14 609.02,-125.15"/>
<polygon fill="#63b8ff" stroke="#63b8ff" points="608.35,-128.6 618.66,-126.18 609.09,-121.64 608.35,-128.6"/>
</a>
</g>
</g>
<!-- Node4&#45;&gt;Node7 -->
<g id="edge6_Node000004_Node000007" class="edge">
<title>Node4&#45;&gt;Node7</title>
<g id="a_edge6_Node000004_Node000007"><a xlink:title=" ">
<path fill="none" stroke="#63b8ff" d="M555.83,-103.52C578.62,-98.93 605.57,-93.5 629.49,-88.69"/>
<polygon fill="#63b8ff" stroke="#63b8ff" points="630,-92.15 639.11,-86.75 628.62,-85.29 630,-92.15"/>
</a>
</g>
</g>
<!-- Node7&#45;&gt;Node3 -->
<g id="edge7_Node000007_Node000003" class="edge">
<title>Node7&#45;&gt;Node3</title>
<g id="a_edge7_Node000007_Node000003"><a xlink:title=" ">
<path fill="none" stroke="#63b8ff" d="M717.61,-86.44C753.2,-102.51 821.57,-133.39 862.56,-151.9"/>
<polygon fill="#63b8ff" stroke="#63b8ff" points="860.91,-154.99 871.47,-155.92 863.79,-148.61 860.91,-154.99"/>
</a>
</g>
</g>
<!-- Node7&#45;&gt;Node7 -->
<g id="edge9_Node000007_Node000007" class="edge">
<title>Node7&#45;&gt;Node7</title>
<g id="a_edge9_Node000007_Node000007"><a xlink:title=" ">
<path fill="none" stroke="#63b8ff" d="M663.19,-86.34C650.24,-94.98 660.34,-104 693.5,-104 712.15,-104 723.51,-101.14 727.57,-97.11"/>
<polygon fill="#63b8ff" stroke="#63b8ff" points="730.91,-96.05 724.31,-87.77 724.3,-98.36 730.91,-96.05"/>
</a>
</g>
</g>
<!-- Node7&#45;&gt;Node8 -->
<g id="edge8_Node000007_Node000008" class="edge">
<title>Node7&#45;&gt;Node8</title>
<g id="a_edge8_Node000007_Node000008"><a xlink:title=" ">
<path fill="none" stroke="#63b8ff" d="M771.54,-72.94C783.88,-72.45 796.71,-71.94 809.25,-71.44"/>
<polygon fill="#63b8ff" stroke="#63b8ff" points="809.3,-74.95 819.15,-71.05 809.02,-67.95 809.3,-74.95"/>
</a>
</g>
</g>
<!-- Node7&#45;&gt;Node9 -->
<g id="edge10_Node000007_Node000009" class="edge">
<title>Node7&#45;&gt;Node9</title>
<g id="a_edge10_Node000007_Node000009"><a xlink:title=" ">
<path fill="none" stroke="#63b8ff" d="M729.6,-65.55C757.27,-57.31 796.65,-45.58 830.16,-35.61"/>
<polygon fill="#63b8ff" stroke="#63b8ff" points="830.77,-39.08 839.36,-32.87 828.77,-32.37 830.77,-39.08"/>
</a>
</g>
</g>
</g>
</svg>

<g id="navigator" transform="translate(0 0)" fill="#404254">
  <rect fill="#f2f5e9" fill-opacity="0.5" stroke="#606060" stroke-width=".5" x="0" y="0" width="60" height="60"/>
  <use id="zoomplus" xlink:href="#zoomPlus" x="17" y="9" onmousedown="handleZoom(evt,'in')"/>
  <use id="zoomminus" xlink:href="#zoomMin" x="42" y="9" onmousedown="handleZoom(evt,'out')"/>
  <use id="reset" xlink:href="#resetDef" x="30" y="36" onmousedown="handleReset()"/>
   <use id="arrowup" xlink:href="#arrowUp" x="0" y="0" onmousedown="handlePan(0,-1)"/>
  <use id="arrowright" xlink:href="#arrowRight" x="0" y="0" onmousedown="handlePan(1,0)"/>
  <use id="arrowdown" xlink:href="#arrowDown" x="0" y="0" onmousedown="handlePan(0,1)"/>
  <use id="arrowleft" xlink:href="#arrowLeft" x="0" y="0" onmousedown="handlePan(-1,0)"/>
</g>
<svg viewBox="0 0 15 15" width="100%" height="30px" preserveAspectRatio="xMaxYMin meet">
 <g id="arrow_out" transform="scale(0.3 0.3)">
  <a xlink:href="classfr_1_1softsf_1_1sudokufx_1_1viewmodel_1_1_menu_player_view_model_ae780866cb629a7b3fb902530ee8b4098_cgraph_org.svg" target="_base">
   <rect id="button" ry="5" rx="5" y="6" x="6" height="38" width="38"
        fill="#f2f5e9" fill-opacity="0.5" stroke="#606060" stroke-width="1.0"/>
   <path id="arrow"
     d="M 11.500037,31.436501 C 11.940474,20.09759 22.043105,11.32322 32.158766,21.979434 L 37.068811,17.246167 C 37.068811,17.246167 37.088388,32 37.088388,32 L 22.160133,31.978069 C 22.160133,31.978069 26.997745,27.140456 26.997745,27.140456 C 18.528582,18.264221 13.291696,25.230495 11.500037,31.436501 z"
     style="fill:#404040;"/>
  </a>
 </g>
</svg>

<style type='text/css'>
<![CDATA[
[data-mouse-over-selected='false'] { opacity: 0.7; }
[data-mouse-over-selected='true']  { opacity: 1.0; }
]]>
</style>
<script type="application/ecmascript"><![CDATA[
document.addEventListener('DOMContentLoaded', (event) => {
  highlightEdges();
  highlightAdjacentNodes();
});
]]></script>
</svg>
