<?xml version="1.0" encoding="UTF-8" standalone="no"?>
<!DOCTYPE svg PUBLIC "-//W3C//DTD SVG 1.1//EN"
 "http://www.w3.org/Graphics/SVG/1.1/DTD/svg11.dtd">
<!-- Generated by graphviz version 12.2.1 (20241206.2353)
 -->
<!-- Title: fr.softsf.sudokufx.model.Player Pages: 1 -->
<!--zoomable 776 -->

<svg id="main" version="1.1" xmlns="http://www.w3.org/2000/svg" xmlns:xlink="http://www.w3.org/1999/xlink" xml:space="preserve" onload="init(evt)">

<style type="text/css"><![CDATA[
.node, .edge {opacity: 0.7;}
.node.selected, .edge.selected {opacity: 1;}
.edge:hover path { stroke: red; }
.edge:hover polygon { stroke: red; fill: red; }
]]></style>

<defs>
  <circle id="rim" cx="0" cy="0" r="7"/>
  <circle id="rim2" cx="0" cy="0" r="3.5"/>
  <g id="zoomPlus">
    <use xlink:href="#rim" fill="#404040"><set attributeName="fill" to="#808080" begin="zoomplus.mouseover" end="zoomplus.mouseout"/></use>
    <path d="M-4,0h8M0,-4v8" fill="none" stroke="white" stroke-width="1.5" pointer-events="none"/>
  </g>
  <g id="zoomMin">
    <use xlink:href="#rim" fill="#404040"><set attributeName="fill" to="#808080" begin="zoomminus.mouseover" end="zoomminus.mouseout"/></use>
    <path d="M-4,0h8" fill="none" stroke="white" stroke-width="1.5" pointer-events="none"/>
  </g>
  <g id="arrowUp" transform="translate(30 24)">
    <use xlink:href="#rim"/>
    <path pointer-events="none" fill="none" stroke="white" stroke-width="1.5" d="M0,-3.0v7 M-2.5,-0.5L0,-3.0L2.5,-0.5"/>
  </g>
  <g id="arrowRight" transform="rotate(90) translate(36 -43)">
    <use xlink:href="#rim"/>
    <path pointer-events="none" fill="none" stroke="white" stroke-width="1.5" d="M0,-3.0v7 M-2.5,-0.5L0,-3.0L2.5,-0.5"/>
  </g>
  <g id="arrowDown" transform="rotate(180) translate(-30 -48)">
    <use xlink:href="#rim"/>
    <path pointer-events="none" fill="none" stroke="white" stroke-width="1.5" d="M0,-3.0v7 M-2.5,-0.5L0,-3.0L2.5,-0.5"/>
  </g>
  <g id="arrowLeft" transform="rotate(270) translate(-36 17)">
    <use xlink:href="#rim"/>
    <path pointer-events="none" fill="none" stroke="white" stroke-width="1.5" d="M0,-3.0v7 M-2.5,-0.5L0,-3.0L2.5,-0.5"/>
  </g>
  <g id="resetDef">
    <use xlink:href="#rim2" fill="#404040"><set attributeName="fill" to="#808080" begin="reset.mouseover" end="reset.mouseout"/></use>
  </g>
</defs>
<script type="application/ecmascript">
var viewWidth = 487;
var viewHeight = 776;
var sectionId = 'dynsection-0';
</script>
<script type="application/ecmascript" xlink:href="svg.min.js"/>
<svg id="graph" class="graph">
<g id="viewport">
<title>fr.softsf.sudokufx.model.Player</title>
<!-- Node1 -->
<g id="Node000001" class="node">
<title>Node1</title>
<g id="a_Node000001"><a xlink:title=" ">
<polygon fill="#999999" stroke="none" points="344.12,-392 138.62,-392 138.62,0 344.12,0 344.12,-392"/>
<text text-anchor="start" x="187" y="-378.5" font-family="Helvetica,sans-Serif" font-size="10.00">fr.softsf.sudokufx.model.</text>
<text text-anchor="start" x="227.5" y="-366.5" font-family="Helvetica,sans-Serif" font-size="10.00">Player</text>
<text text-anchor="start" x="144.12" y="-350.5" font-family="Helvetica,sans-Serif" font-size="10.00">&#45;</text>
<text text-anchor="start" x="152.62" y="-350.5" font-family="Helvetica,sans-Serif" font-size="10.00">LocalDateTime createdat</text>
<text text-anchor="start" x="144.12" y="-334.5" font-family="Helvetica,sans-Serif" font-size="10.00">&#45;</text>
<text text-anchor="start" x="152.62" y="-334.5" font-family="Helvetica,sans-Serif" font-size="10.00">Set&lt; Game &gt; games</text>
<text text-anchor="start" x="144.12" y="-318.5" font-family="Helvetica,sans-Serif" font-size="10.00">&#45;</text>
<text text-anchor="start" x="152.62" y="-318.5" font-family="Helvetica,sans-Serif" font-size="10.00">Boolean isselected</text>
<text text-anchor="start" x="144.12" y="-302.5" font-family="Helvetica,sans-Serif" font-size="10.00">&#45;</text>
<text text-anchor="start" x="152.62" y="-302.5" font-family="Helvetica,sans-Serif" font-size="10.00">String name</text>
<text text-anchor="start" x="144.12" y="-286.5" font-family="Helvetica,sans-Serif" font-size="10.00">&#45;</text>
<text text-anchor="start" x="152.62" y="-286.5" font-family="Helvetica,sans-Serif" font-size="10.00">Long playerid</text>
<text text-anchor="start" x="144.12" y="-270.5" font-family="Helvetica,sans-Serif" font-size="10.00">&#45;</text>
<text text-anchor="start" x="152.62" y="-270.5" font-family="Helvetica,sans-Serif" font-size="10.00">LocalDateTime updatedat</text>
<text text-anchor="start" x="142.62" y="-254.5" font-family="Helvetica,sans-Serif" font-size="10.00">+</text>
<text text-anchor="start" x="152.62" y="-254.5" font-family="Helvetica,sans-Serif" font-size="10.00">Player()</text>
<text text-anchor="start" x="142.62" y="-238.5" font-family="Helvetica,sans-Serif" font-size="10.00">+</text>
<text text-anchor="start" x="152.62" y="-238.5" font-family="Helvetica,sans-Serif" font-size="10.00">Player(Long playerid,</text>
<text text-anchor="start" x="152.62" y="-226.5" font-family="Helvetica,sans-Serif" font-size="10.00"> PlayerLanguage playerlanguageid,</text>
<text text-anchor="start" x="152.62" y="-214.5" font-family="Helvetica,sans-Serif" font-size="10.00"> Background backgroundid, Menu</text>
<text text-anchor="start" x="152.62" y="-202.5" font-family="Helvetica,sans-Serif" font-size="10.00"> menuid, Set&lt; Game &gt; games, String</text>
<text text-anchor="start" x="152.62" y="-190.5" font-family="Helvetica,sans-Serif" font-size="10.00"> name, Boolean isselected, LocalDateTime</text>
<text text-anchor="start" x="152.62" y="-178.5" font-family="Helvetica,sans-Serif" font-size="10.00"> createdat, LocalDateTime updatedat)</text>
<text text-anchor="start" x="142.62" y="-162.5" font-family="Helvetica,sans-Serif" font-size="10.00">+</text>
<text text-anchor="start" x="152.62" y="-162.5" font-family="Helvetica,sans-Serif" font-size="10.00">void addGame(Game game)</text>
<text text-anchor="start" x="142.62" y="-146.5" font-family="Helvetica,sans-Serif" font-size="10.00">+</text>
<text text-anchor="start" x="152.62" y="-146.5" font-family="Helvetica,sans-Serif" font-size="10.00">Background getBackgroundid()</text>
<text text-anchor="start" x="142.62" y="-130.5" font-family="Helvetica,sans-Serif" font-size="10.00">+</text>
<text text-anchor="start" x="152.62" y="-130.5" font-family="Helvetica,sans-Serif" font-size="10.00">LocalDateTime getCreatedat()</text>
<text text-anchor="start" x="142.62" y="-114.5" font-family="Helvetica,sans-Serif" font-size="10.00">+</text>
<text text-anchor="start" x="152.62" y="-114.5" font-family="Helvetica,sans-Serif" font-size="10.00">Set&lt; Game &gt; getGames()</text>
<text text-anchor="start" x="142.62" y="-98.5" font-family="Helvetica,sans-Serif" font-size="10.00">+</text>
<text text-anchor="start" x="152.62" y="-98.5" font-family="Helvetica,sans-Serif" font-size="10.00">Boolean getIsselected()</text>
<text text-anchor="start" x="142.62" y="-82.5" font-family="Helvetica,sans-Serif" font-size="10.00">+</text>
<text text-anchor="start" x="152.62" y="-82.5" font-family="Helvetica,sans-Serif" font-size="10.00">Menu getMenuid()</text>
<text text-anchor="start" x="142.62" y="-66.5" font-family="Helvetica,sans-Serif" font-size="10.00">+</text>
<text text-anchor="start" x="152.62" y="-66.5" font-family="Helvetica,sans-Serif" font-size="10.00">String getName()</text>
<text text-anchor="start" x="142.62" y="-50.5" font-family="Helvetica,sans-Serif" font-size="10.00">+</text>
<text text-anchor="start" x="152.62" y="-50.5" font-family="Helvetica,sans-Serif" font-size="10.00">Long getPlayerid()</text>
<text text-anchor="start" x="152.62" y="-34.5" font-family="Helvetica,sans-Serif" font-size="10.00">and 9 more...</text>
<text text-anchor="start" x="142.62" y="-18.5" font-family="Helvetica,sans-Serif" font-size="10.00">+</text>
<text text-anchor="start" x="152.62" y="-18.5" font-family="Helvetica,sans-Serif" font-size="10.00">static PlayerBuilder</text>
<text text-anchor="start" x="152.62" y="-6.5" font-family="Helvetica,sans-Serif" font-size="10.00"> builder()</text>
<polygon fill="#666666" stroke="#666666" points="138.62,-362 138.62,-362 344.12,-362 344.12,-362 138.62,-362"/>
<polygon fill="#666666" stroke="#666666" points="138.62,-266 138.62,-266 150.62,-266 150.62,-266 138.62,-266"/>
<polygon fill="#666666" stroke="#666666" points="150.62,-266 150.62,-266 344.12,-266 344.12,-266 150.62,-266"/>
<polygon fill="none" stroke="#666666" points="138.62,0 138.62,-392 344.12,-392 344.12,0 138.62,0"/>
</a>
</g>
</g>
<!-- Node2 -->
<g id="Node000002" class="node">
<title>Node2</title>
<g id="a_Node000002"><a xlink:href="classfr_1_1softsf_1_1sudokufx_1_1model_1_1_player_language.html" target="_top" xlink:title=" ">
<polygon fill="white" stroke="none" points="144.75,-696 0,-696 0,-512 144.75,-512 144.75,-696"/>
<text text-anchor="start" x="18" y="-682.5" font-family="Helvetica,sans-Serif" font-size="10.00">fr.softsf.sudokufx.model.</text>
<text text-anchor="start" x="37.5" y="-670.5" font-family="Helvetica,sans-Serif" font-size="10.00">PlayerLanguage</text>
<text text-anchor="start" x="5.5" y="-654.5" font-family="Helvetica,sans-Serif" font-size="10.00">&#45;</text>
<text text-anchor="start" x="14" y="-654.5" font-family="Helvetica,sans-Serif" font-size="10.00">String iso</text>
<text text-anchor="start" x="5.5" y="-638.5" font-family="Helvetica,sans-Serif" font-size="10.00">&#45;</text>
<text text-anchor="start" x="14" y="-638.5" font-family="Helvetica,sans-Serif" font-size="10.00">Long playerlanguageid</text>
<text text-anchor="start" x="4" y="-622.5" font-family="Helvetica,sans-Serif" font-size="10.00">+</text>
<text text-anchor="start" x="14" y="-622.5" font-family="Helvetica,sans-Serif" font-size="10.00">PlayerLanguage()</text>
<text text-anchor="start" x="4" y="-606.5" font-family="Helvetica,sans-Serif" font-size="10.00">+</text>
<text text-anchor="start" x="14" y="-606.5" font-family="Helvetica,sans-Serif" font-size="10.00">PlayerLanguage(Long</text>
<text text-anchor="start" x="14" y="-594.5" font-family="Helvetica,sans-Serif" font-size="10.00"> playerlanguageid, String iso)</text>
<text text-anchor="start" x="4" y="-578.5" font-family="Helvetica,sans-Serif" font-size="10.00">+</text>
<text text-anchor="start" x="14" y="-578.5" font-family="Helvetica,sans-Serif" font-size="10.00">String getIso()</text>
<text text-anchor="start" x="4" y="-562.5" font-family="Helvetica,sans-Serif" font-size="10.00">+</text>
<text text-anchor="start" x="14" y="-562.5" font-family="Helvetica,sans-Serif" font-size="10.00">Long getPlayerlanguageid()</text>
<text text-anchor="start" x="4" y="-546.5" font-family="Helvetica,sans-Serif" font-size="10.00">+</text>
<text text-anchor="start" x="14" y="-546.5" font-family="Helvetica,sans-Serif" font-size="10.00">void setIso(String iso)</text>
<text text-anchor="start" x="4" y="-530.5" font-family="Helvetica,sans-Serif" font-size="10.00">+</text>
<text text-anchor="start" x="14" y="-530.5" font-family="Helvetica,sans-Serif" font-size="10.00">static PlayerLanguageBuilder</text>
<text text-anchor="start" x="14" y="-518.5" font-family="Helvetica,sans-Serif" font-size="10.00"> builder()</text>
<polygon fill="#666666" stroke="#666666" points="0,-666 0,-666 144.75,-666 144.75,-666 0,-666"/>
<polygon fill="#666666" stroke="#666666" points="0,-634 0,-634 12,-634 12,-634 0,-634"/>
<polygon fill="#666666" stroke="#666666" points="12,-634 12,-634 144.75,-634 144.75,-634 12,-634"/>
<polygon fill="none" stroke="#666666" points="0,-512 0,-696 144.75,-696 144.75,-512 0,-512"/>
</a>
</g>
</g>
<!-- Node2&#45;&gt;Node1 -->
<g id="edge1_Node000001_Node000002" class="edge">
<title>Node2&#45;&gt;Node1</title>
<g id="a_edge1_Node000001_Node000002"><a xlink:title=" ">
<path fill="none" stroke="#63b8ff" d="M110.2,-512.14C123.69,-479.73 139.49,-441.76 155.37,-403.62"/>
<polygon fill="none" stroke="#63b8ff" points="155.34,-403.7 153.95,-396.62 159.95,-392.62 161.34,-399.69 155.34,-403.7"/>
</a>
</g>
<text text-anchor="middle" x="191.18" y="-412.5" font-family="Helvetica,sans-Serif" font-size="10.00" fill="grey"> &#45;playerlanguageid</text>
</g>
<!-- Node3 -->
<g id="Node000003" class="node">
<title>Node3</title>
<g id="a_Node000003"><a xlink:href="classfr_1_1softsf_1_1sudokufx_1_1model_1_1_background.html" target="_top" xlink:title=" ">
<polygon fill="white" stroke="none" points="320.12,-768 162.62,-768 162.62,-440 320.12,-440 320.12,-768"/>
<text text-anchor="start" x="187" y="-754.5" font-family="Helvetica,sans-Serif" font-size="10.00">fr.softsf.sudokufx.model.</text>
<text text-anchor="start" x="215.5" y="-742.5" font-family="Helvetica,sans-Serif" font-size="10.00">Background</text>
<text text-anchor="start" x="168.12" y="-726.5" font-family="Helvetica,sans-Serif" font-size="10.00">&#45;</text>
<text text-anchor="start" x="176.62" y="-726.5" font-family="Helvetica,sans-Serif" font-size="10.00">Long backgroundid</text>
<text text-anchor="start" x="168.12" y="-710.5" font-family="Helvetica,sans-Serif" font-size="10.00">&#45;</text>
<text text-anchor="start" x="176.62" y="-710.5" font-family="Helvetica,sans-Serif" font-size="10.00">String hexcolor</text>
<text text-anchor="start" x="168.12" y="-694.5" font-family="Helvetica,sans-Serif" font-size="10.00">&#45;</text>
<text text-anchor="start" x="176.62" y="-694.5" font-family="Helvetica,sans-Serif" font-size="10.00">String imagepath</text>
<text text-anchor="start" x="168.12" y="-678.5" font-family="Helvetica,sans-Serif" font-size="10.00">&#45;</text>
<text text-anchor="start" x="176.62" y="-678.5" font-family="Helvetica,sans-Serif" font-size="10.00">Boolean isimage</text>
<text text-anchor="start" x="166.62" y="-662.5" font-family="Helvetica,sans-Serif" font-size="10.00">+</text>
<text text-anchor="start" x="176.62" y="-662.5" font-family="Helvetica,sans-Serif" font-size="10.00">Background()</text>
<text text-anchor="start" x="166.62" y="-646.5" font-family="Helvetica,sans-Serif" font-size="10.00">+</text>
<text text-anchor="start" x="176.62" y="-646.5" font-family="Helvetica,sans-Serif" font-size="10.00">Background(Long backgroundid,</text>
<text text-anchor="start" x="176.62" y="-634.5" font-family="Helvetica,sans-Serif" font-size="10.00"> String hexcolor, String</text>
<text text-anchor="start" x="176.62" y="-622.5" font-family="Helvetica,sans-Serif" font-size="10.00"> imagepath, Boolean isimage)</text>
<text text-anchor="start" x="166.62" y="-606.5" font-family="Helvetica,sans-Serif" font-size="10.00">+</text>
<text text-anchor="start" x="176.62" y="-606.5" font-family="Helvetica,sans-Serif" font-size="10.00">Long getBackgroundid()</text>
<text text-anchor="start" x="166.62" y="-590.5" font-family="Helvetica,sans-Serif" font-size="10.00">+</text>
<text text-anchor="start" x="176.62" y="-590.5" font-family="Helvetica,sans-Serif" font-size="10.00">String getHexcolor()</text>
<text text-anchor="start" x="166.62" y="-574.5" font-family="Helvetica,sans-Serif" font-size="10.00">+</text>
<text text-anchor="start" x="176.62" y="-574.5" font-family="Helvetica,sans-Serif" font-size="10.00">String getImagepath()</text>
<text text-anchor="start" x="166.62" y="-558.5" font-family="Helvetica,sans-Serif" font-size="10.00">+</text>
<text text-anchor="start" x="176.62" y="-558.5" font-family="Helvetica,sans-Serif" font-size="10.00">Boolean getIsimage()</text>
<text text-anchor="start" x="166.62" y="-542.5" font-family="Helvetica,sans-Serif" font-size="10.00">+</text>
<text text-anchor="start" x="176.62" y="-542.5" font-family="Helvetica,sans-Serif" font-size="10.00">void setHexcolor(String</text>
<text text-anchor="start" x="176.62" y="-530.5" font-family="Helvetica,sans-Serif" font-size="10.00"> hexcolor)</text>
<text text-anchor="start" x="166.62" y="-514.5" font-family="Helvetica,sans-Serif" font-size="10.00">+</text>
<text text-anchor="start" x="176.62" y="-514.5" font-family="Helvetica,sans-Serif" font-size="10.00">void setImagepath(String</text>
<text text-anchor="start" x="176.62" y="-502.5" font-family="Helvetica,sans-Serif" font-size="10.00"> imagepath)</text>
<text text-anchor="start" x="166.62" y="-486.5" font-family="Helvetica,sans-Serif" font-size="10.00">+</text>
<text text-anchor="start" x="176.62" y="-486.5" font-family="Helvetica,sans-Serif" font-size="10.00">void setIsimage(Boolean</text>
<text text-anchor="start" x="176.62" y="-474.5" font-family="Helvetica,sans-Serif" font-size="10.00"> isimage)</text>
<text text-anchor="start" x="166.62" y="-458.5" font-family="Helvetica,sans-Serif" font-size="10.00">+</text>
<text text-anchor="start" x="176.62" y="-458.5" font-family="Helvetica,sans-Serif" font-size="10.00">static BackgroundBuilder</text>
<text text-anchor="start" x="176.62" y="-446.5" font-family="Helvetica,sans-Serif" font-size="10.00"> builder()</text>
<polygon fill="#666666" stroke="#666666" points="162.62,-738 162.62,-738 320.12,-738 320.12,-738 162.62,-738"/>
<polygon fill="#666666" stroke="#666666" points="162.62,-674 162.62,-674 174.62,-674 174.62,-674 162.62,-674"/>
<polygon fill="#666666" stroke="#666666" points="174.62,-674 174.62,-674 320.12,-674 320.12,-674 174.62,-674"/>
<polygon fill="none" stroke="#666666" points="162.62,-440 162.62,-768 320.12,-768 320.12,-440 162.62,-440"/>
</a>
</g>
</g>
<!-- Node3&#45;&gt;Node1 -->
<g id="edge2_Node000001_Node000003" class="edge">
<title>Node3&#45;&gt;Node1</title>
<g id="a_edge2_Node000001_Node000003"><a xlink:title=" ">
<path fill="none" stroke="#63b8ff" d="M241.38,-440.2C241.38,-428.54 241.38,-416.69 241.38,-404.82"/>
<polygon fill="none" stroke="#63b8ff" points="241.38,-404.84 237.38,-398.84 241.38,-392.84 245.38,-398.84 241.38,-404.84"/>
</a>
</g>
<text text-anchor="middle" x="273.25" y="-412.5" font-family="Helvetica,sans-Serif" font-size="10.00" fill="grey"> &#45;backgroundid</text>
</g>
<!-- Node4 -->
<g id="Node000004" class="node">
<title>Node4</title>
<g id="a_Node000004"><a xlink:href="classfr_1_1softsf_1_1sudokufx_1_1model_1_1_menu.html" target="_top" xlink:title=" ">
<polygon fill="white" stroke="none" points="478.75,-690 338,-690 338,-518 478.75,-518 478.75,-690"/>
<text text-anchor="start" x="342" y="-676.5" font-family="Helvetica,sans-Serif" font-size="10.00">fr.softsf.sudokufx.model.Menu</text>
<text text-anchor="start" x="346.25" y="-660.5" font-family="Helvetica,sans-Serif" font-size="10.00">&#45;</text>
<text text-anchor="start" x="357.5" y="-660.5" font-family="Helvetica,sans-Serif" font-size="10.00">Byte menuid</text>
<text text-anchor="start" x="346.25" y="-644.5" font-family="Helvetica,sans-Serif" font-size="10.00">&#45;</text>
<text text-anchor="start" x="357.5" y="-644.5" font-family="Helvetica,sans-Serif" font-size="10.00">Byte mode</text>
<text text-anchor="start" x="344.75" y="-628.5" font-family="Helvetica,sans-Serif" font-size="10.00">+</text>
<text text-anchor="start" x="357.5" y="-628.5" font-family="Helvetica,sans-Serif" font-size="10.00">Menu()</text>
<text text-anchor="start" x="344.75" y="-612.5" font-family="Helvetica,sans-Serif" font-size="10.00">+</text>
<text text-anchor="start" x="357.5" y="-612.5" font-family="Helvetica,sans-Serif" font-size="10.00">Menu(Byte menuid,</text>
<text text-anchor="start" x="357.5" y="-600.5" font-family="Helvetica,sans-Serif" font-size="10.00"> Byte mode)</text>
<text text-anchor="start" x="344.75" y="-584.5" font-family="Helvetica,sans-Serif" font-size="10.00">+</text>
<text text-anchor="start" x="357.5" y="-584.5" font-family="Helvetica,sans-Serif" font-size="10.00">Byte getMenuid()</text>
<text text-anchor="start" x="344.75" y="-568.5" font-family="Helvetica,sans-Serif" font-size="10.00">+</text>
<text text-anchor="start" x="357.5" y="-568.5" font-family="Helvetica,sans-Serif" font-size="10.00">Byte getMode()</text>
<text text-anchor="start" x="344.75" y="-552.5" font-family="Helvetica,sans-Serif" font-size="10.00">+</text>
<text text-anchor="start" x="357.5" y="-552.5" font-family="Helvetica,sans-Serif" font-size="10.00">void setMode(Byte mode)</text>
<text text-anchor="start" x="344.75" y="-536.5" font-family="Helvetica,sans-Serif" font-size="10.00">+</text>
<text text-anchor="start" x="357.5" y="-536.5" font-family="Helvetica,sans-Serif" font-size="10.00">static MenuBuilder</text>
<text text-anchor="start" x="357.5" y="-524.5" font-family="Helvetica,sans-Serif" font-size="10.00"> builder()</text>
<polygon fill="#666666" stroke="#666666" points="338,-672 338,-672 478.75,-672 478.75,-672 338,-672"/>
<polygon fill="#666666" stroke="#666666" points="338,-640 338,-640 355.5,-640 355.5,-640 338,-640"/>
<polygon fill="#666666" stroke="#666666" points="355.5,-640 355.5,-640 478.75,-640 478.75,-640 355.5,-640"/>
<polygon fill="none" stroke="#666666" points="338,-518 338,-690 478.75,-690 478.75,-518 338,-518"/>
</a>
</g>
</g>
<!-- Node4&#45;&gt;Node1 -->
<g id="edge3_Node000001_Node000004" class="edge">
<title>Node4&#45;&gt;Node1</title>
<g id="a_edge3_Node000001_Node000004"><a xlink:title=" ">
<path fill="none" stroke="#63b8ff" d="M373.57,-518.38C359.74,-484.75 343.16,-444.46 326.5,-403.95"/>
<polygon fill="none" stroke="#63b8ff" points="326.47,-403.89 320.49,-399.86 321.91,-392.79 327.89,-396.82 326.47,-403.89"/>
</a>
</g>
<text text-anchor="middle" x="348.63" y="-412.5" font-family="Helvetica,sans-Serif" font-size="10.00" fill="grey"> &#45;menuid</text>
</g>
</g>
</svg>

<g id="navigator" transform="translate(0 0)" fill="#404254">
  <rect fill="#f2f5e9" fill-opacity="0.5" stroke="#606060" stroke-width=".5" x="0" y="0" width="60" height="60"/>
  <use id="zoomplus" xlink:href="#zoomPlus" x="17" y="9" onmousedown="handleZoom(evt,'in')"/>
  <use id="zoomminus" xlink:href="#zoomMin" x="42" y="9" onmousedown="handleZoom(evt,'out')"/>
  <use id="reset" xlink:href="#resetDef" x="30" y="36" onmousedown="handleReset()"/>
   <use id="arrowup" xlink:href="#arrowUp" x="0" y="0" onmousedown="handlePan(0,-1)"/>
  <use id="arrowright" xlink:href="#arrowRight" x="0" y="0" onmousedown="handlePan(1,0)"/>
  <use id="arrowdown" xlink:href="#arrowDown" x="0" y="0" onmousedown="handlePan(0,1)"/>
  <use id="arrowleft" xlink:href="#arrowLeft" x="0" y="0" onmousedown="handlePan(-1,0)"/>
</g>
<svg viewBox="0 0 15 15" width="100%" height="30px" preserveAspectRatio="xMaxYMin meet">
 <g id="arrow_out" transform="scale(0.3 0.3)">
  <a xlink:href="classfr_1_1softsf_1_1sudokufx_1_1model_1_1_player__coll__graph_org.svg" target="_base">
   <rect id="button" ry="5" rx="5" y="6" x="6" height="38" width="38"
        fill="#f2f5e9" fill-opacity="0.5" stroke="#606060" stroke-width="1.0"/>
   <path id="arrow"
     d="M 11.500037,31.436501 C 11.940474,20.09759 22.043105,11.32322 32.158766,21.979434 L 37.068811,17.246167 C 37.068811,17.246167 37.088388,32 37.088388,32 L 22.160133,31.978069 C 22.160133,31.978069 26.997745,27.140456 26.997745,27.140456 C 18.528582,18.264221 13.291696,25.230495 11.500037,31.436501 z"
     style="fill:#404040;"/>
  </a>
 </g>
</svg>

<style type='text/css'>
<![CDATA[
[data-mouse-over-selected='false'] { opacity: 0.7; }
[data-mouse-over-selected='true']  { opacity: 1.0; }
]]>
</style>
<script type="application/ecmascript"><![CDATA[
document.addEventListener('DOMContentLoaded', (event) => {
  highlightEdges();
  highlightAdjacentNodes();
});
]]></script>
</svg>
