<?xml version="1.0" encoding="UTF-8" standalone="no"?>
<!DOCTYPE svg PUBLIC "-//W3C//DTD SVG 1.1//EN"
 "http://www.w3.org/Graphics/SVG/1.1/DTD/svg11.dtd">
<!-- Generated by graphviz version 12.2.1 (20241206.2353)
 -->
<!-- Title: fr.softsf.sudokufx.service.business.PlayerLanguageService Pages: 1 -->
<svg width="569pt" height="431pt"
 viewBox="0.00 0.00 568.88 431.00" xmlns="http://www.w3.org/2000/svg" xmlns:xlink="http://www.w3.org/1999/xlink">
<g id="graph0" class="graph" transform="scale(1 1) rotate(0) translate(4 427)">
<title>fr.softsf.sudokufx.service.business.PlayerLanguageService</title>
<!-- Node1 -->
<g id="Node000001" class="node">
<title>Node1</title>
<g id="a_Node000001"><a xlink:title="Service for managing PlayerLanguage entities.">
<polygon fill="#999999" stroke="none" points="363.62,-140 131.12,-140 131.12,0 363.62,0 363.62,-140"/>
<text text-anchor="start" x="169.38" y="-126.5" font-family="Helvetica,sans-Serif" font-size="10.00">fr.softsf.sudokufx.service.business.</text>
<text text-anchor="start" x="196" y="-114.5" font-family="Helvetica,sans-Serif" font-size="10.00">PlayerLanguageService</text>
<text text-anchor="start" x="245.88" y="-98.5" font-family="Helvetica,sans-Serif" font-size="10.00"> </text>
<text text-anchor="start" x="135.12" y="-82.5" font-family="Helvetica,sans-Serif" font-size="10.00">+</text>
<text text-anchor="start" x="145.12" y="-82.5" font-family="Helvetica,sans-Serif" font-size="10.00">PlayerLanguageService</text>
<text text-anchor="start" x="145.12" y="-70.5" font-family="Helvetica,sans-Serif" font-size="10.00">(PlayerLanguageRepository</text>
<text text-anchor="start" x="145.12" y="-58.5" font-family="Helvetica,sans-Serif" font-size="10.00"> playerLanguageRepository,</text>
<text text-anchor="start" x="145.12" y="-46.5" font-family="Helvetica,sans-Serif" font-size="10.00"> JakartaValidator jakartaValidator,</text>
<text text-anchor="start" x="145.12" y="-34.5" font-family="Helvetica,sans-Serif" font-size="10.00"> IPlayerLanguageMapper playerLanguageMapper)</text>
<text text-anchor="start" x="135.12" y="-18.5" font-family="Helvetica,sans-Serif" font-size="10.00">+</text>
<text text-anchor="start" x="145.12" y="-18.5" font-family="Helvetica,sans-Serif" font-size="10.00">PlayerLanguageDto getByIso</text>
<text text-anchor="start" x="145.12" y="-6.5" font-family="Helvetica,sans-Serif" font-size="10.00">(String iso)</text>
<polygon fill="#666666" stroke="#666666" points="131.12,-110 131.12,-110 363.62,-110 363.62,-110 131.12,-110"/>
<polygon fill="#666666" stroke="#666666" points="131.12,-94 131.12,-94 363.62,-94 363.62,-94 131.12,-94"/>
<polygon fill="none" stroke="#666666" points="131.12,0 131.12,-140 363.62,-140 363.62,0 131.12,0"/>
</a>
</g>
</g>
<!-- Node2 -->
<g id="Node000002" class="node">
<title>Node2</title>
<g id="a_Node000002"><a xlink:href="interfacefr_1_1softsf_1_1sudokufx_1_1repository_1_1_player_language_repository.html" target="_top" xlink:title="Repository interface for PlayerLanguage entities.">
<polygon fill="white" stroke="none" points="142.75,-296 10,-296 10,-220 142.75,-220 142.75,-296"/>
<text text-anchor="start" x="14.12" y="-282.5" font-family="Helvetica,sans-Serif" font-size="10.00">fr.softsf.sudokufx.repository.</text>
<text text-anchor="start" x="17.88" y="-270.5" font-family="Helvetica,sans-Serif" font-size="10.00">PlayerLanguageRepository</text>
<text text-anchor="start" x="74.88" y="-254.5" font-family="Helvetica,sans-Serif" font-size="10.00"> </text>
<text text-anchor="start" x="14" y="-238.5" font-family="Helvetica,sans-Serif" font-size="10.00">+</text>
<text text-anchor="start" x="24" y="-238.5" font-family="Helvetica,sans-Serif" font-size="10.00">Optional&lt; PlayerLanguage</text>
<text text-anchor="start" x="24" y="-226.5" font-family="Helvetica,sans-Serif" font-size="10.00"> &gt; findByIso(String iso)</text>
<polygon fill="#666666" stroke="#666666" points="10,-266 10,-266 142.75,-266 142.75,-266 10,-266"/>
<polygon fill="#666666" stroke="#666666" points="10,-250 10,-250 142.75,-250 142.75,-250 10,-250"/>
<polygon fill="none" stroke="#666666" points="10,-220 10,-296 142.75,-296 142.75,-220 10,-220"/>
</a>
</g>
</g>
<!-- Node2&#45;&gt;Node1 -->
<g id="edge1_Node000001_Node000002" class="edge">
<title>Node2&#45;&gt;Node1</title>
<g id="a_edge1_Node000001_Node000002"><a xlink:title=" ">
<path fill="none" stroke="#63b8ff" d="M86.51,-220.39C93.33,-200.43 103.86,-176.17 118.88,-158 121.41,-154.93 124.08,-151.93 126.86,-148.99"/>
<polygon fill="none" stroke="#63b8ff" points="126.93,-148.92 128.38,-141.86 135.46,-140.48 134.01,-147.54 126.93,-148.92"/>
</a>
</g>
<text text-anchor="start" x="121.88" y="-163.5" font-family="Helvetica,sans-Serif" font-size="10.00" fill="grey">&#45;playerLanguageRepository</text>
</g>
<!-- Node3 -->
<g id="Node000003" class="node">
<title>Node3</title>
<g id="a_Node000003"><a xlink:title=" ">
<polygon fill="white" stroke="none" points="152.75,-423 0,-423 0,-359 152.75,-359 152.75,-423"/>
<text text-anchor="start" x="4" y="-409.5" font-family="Helvetica,sans-Serif" font-size="10.00">JpaRepository&lt; PlayerLanguage,</text>
<text text-anchor="start" x="59.88" y="-397.5" font-family="Helvetica,sans-Serif" font-size="10.00"> Long &gt;</text>
<text text-anchor="start" x="74.88" y="-381.5" font-family="Helvetica,sans-Serif" font-size="10.00"> </text>
<text text-anchor="start" x="74.88" y="-365.5" font-family="Helvetica,sans-Serif" font-size="10.00"> </text>
<polygon fill="#666666" stroke="#666666" points="0,-393 0,-393 152.75,-393 152.75,-393 0,-393"/>
<polygon fill="#666666" stroke="#666666" points="0,-377 0,-377 152.75,-377 152.75,-377 0,-377"/>
<polygon fill="none" stroke="#666666" points="0,-359 0,-423 152.75,-423 152.75,-359 0,-359"/>
</a>
</g>
</g>
<!-- Node3&#45;&gt;Node2 -->
<g id="edge2_Node000002_Node000003" class="edge">
<title>Node3&#45;&gt;Node2</title>
<g id="a_edge2_Node000002_Node000003"><a xlink:title=" ">
<path fill="none" stroke="#63b8ff" d="M76.38,-348.05C76.38,-331.17 76.38,-311.88 76.38,-295.58"/>
<polygon fill="none" stroke="#63b8ff" points="72.88,-347.77 76.38,-357.77 79.88,-347.77 72.88,-347.77"/>
</a>
</g>
</g>
<!-- Node4 -->
<g id="Node000004" class="node">
<title>Node4</title>
<g id="a_Node000004"><a xlink:href="classfr_1_1softsf_1_1sudokufx_1_1common_1_1exception_1_1_jakarta_validator.html" target="_top" xlink:title="Spring component for validating objects using Jakarta Bean Validation.">
<polygon fill="white" stroke="none" points="333.88,-318 160.88,-318 160.88,-198 333.88,-198 333.88,-318"/>
<text text-anchor="start" x="164.88" y="-304.5" font-family="Helvetica,sans-Serif" font-size="10.00">fr.softsf.sudokufx.common.exception.</text>
<text text-anchor="start" x="212.5" y="-292.5" font-family="Helvetica,sans-Serif" font-size="10.00">JakartaValidator</text>
<text text-anchor="start" x="177.56" y="-276.5" font-family="Helvetica,sans-Serif" font-size="10.00">&#45;</text>
<text text-anchor="start" x="197.25" y="-276.5" font-family="Helvetica,sans-Serif" font-size="10.00">final Validator validator</text>
<text text-anchor="start" x="177.56" y="-260.5" font-family="Helvetica,sans-Serif" font-size="10.00">&#45;</text>
<text text-anchor="start" x="197.25" y="-260.5" font-family="Helvetica,sans-Serif" font-size="10.00">static final Logger LOG</text>
<text text-anchor="start" x="176.06" y="-244.5" font-family="Helvetica,sans-Serif" font-size="10.00">+</text>
<text text-anchor="start" x="197.25" y="-244.5" font-family="Helvetica,sans-Serif" font-size="10.00">JakartaValidator(Validator</text>
<text text-anchor="start" x="197.25" y="-232.5" font-family="Helvetica,sans-Serif" font-size="10.00"> validator)</text>
<text text-anchor="start" x="176.06" y="-216.5" font-family="Helvetica,sans-Serif" font-size="10.00">~</text>
<text text-anchor="start" x="197.25" y="-216.5" font-family="Helvetica,sans-Serif" font-size="10.00">public&lt; T &gt; T validateOr</text>
<text text-anchor="start" x="197.25" y="-204.5" font-family="Helvetica,sans-Serif" font-size="10.00">Throw(T obj)</text>
<polygon fill="#666666" stroke="#666666" points="160.88,-288 160.88,-288 333.88,-288 333.88,-288 160.88,-288"/>
<polygon fill="#666666" stroke="#666666" points="160.88,-256 160.88,-256 195.25,-256 195.25,-256 160.88,-256"/>
<polygon fill="#666666" stroke="#666666" points="195.25,-256 195.25,-256 333.88,-256 333.88,-256 195.25,-256"/>
<polygon fill="none" stroke="#666666" points="160.88,-198 160.88,-318 333.88,-318 333.88,-198 160.88,-198"/>
</a>
</g>
</g>
<!-- Node4&#45;&gt;Node1 -->
<g id="edge3_Node000001_Node000004" class="edge">
<title>Node4&#45;&gt;Node1</title>
<g id="a_edge3_Node000001_Node000004"><a xlink:title=" ">
<path fill="none" stroke="#63b8ff" d="M247.38,-198.15C247.38,-183.68 247.38,-167.93 247.38,-152.6"/>
<polygon fill="none" stroke="#63b8ff" points="247.38,-152.76 243.38,-146.76 247.38,-140.76 251.38,-146.76 247.38,-152.76"/>
</a>
</g>
<text text-anchor="start" x="250.38" y="-163.5" font-family="Helvetica,sans-Serif" font-size="10.00" fill="grey">&#45;jakartaValidator</text>
</g>
<!-- Node5 -->
<g id="Node000005" class="node">
<title>Node5</title>
<g id="a_Node000005"><a xlink:href="interfacefr_1_1softsf_1_1sudokufx_1_1common_1_1interfaces_1_1mapper_1_1_i_player_language_mapper.html" target="_top" xlink:title="This interface defines methods for mapping objects of type PlayerLanguage to objects of type PlayerLa...">
<polygon fill="white" stroke="none" points="560.88,-322 351.88,-322 351.88,-194 560.88,-194 560.88,-322"/>
<text text-anchor="start" x="355.88" y="-308.5" font-family="Helvetica,sans-Serif" font-size="10.00">fr.softsf.sudokufx.common.interfaces.mapper.</text>
<text text-anchor="start" x="403.88" y="-296.5" font-family="Helvetica,sans-Serif" font-size="10.00">IPlayerLanguageMapper</text>
<text text-anchor="start" x="454.88" y="-280.5" font-family="Helvetica,sans-Serif" font-size="10.00"> </text>
<text text-anchor="start" x="368.38" y="-264.5" font-family="Helvetica,sans-Serif" font-size="10.00">+</text>
<text text-anchor="start" x="390.88" y="-264.5" font-family="Helvetica,sans-Serif" font-size="10.00">PlayerLanguage mapPlayer</text>
<text text-anchor="start" x="390.88" y="-252.5" font-family="Helvetica,sans-Serif" font-size="10.00">LanguageDtoToPlayerLanguage</text>
<text text-anchor="start" x="390.88" y="-240.5" font-family="Helvetica,sans-Serif" font-size="10.00">(PlayerLanguageDto dto)</text>
<text text-anchor="start" x="368.38" y="-224.5" font-family="Helvetica,sans-Serif" font-size="10.00">+</text>
<text text-anchor="start" x="390.88" y="-224.5" font-family="Helvetica,sans-Serif" font-size="10.00">PlayerLanguageDto mapPlayer</text>
<text text-anchor="start" x="390.88" y="-212.5" font-family="Helvetica,sans-Serif" font-size="10.00">LanguageToDto(PlayerLanguage</text>
<text text-anchor="start" x="390.88" y="-200.5" font-family="Helvetica,sans-Serif" font-size="10.00"> playerLanguage)</text>
<polygon fill="#666666" stroke="#666666" points="351.88,-292 351.88,-292 560.88,-292 560.88,-292 351.88,-292"/>
<polygon fill="#666666" stroke="#666666" points="351.88,-276 351.88,-276 560.88,-276 560.88,-276 351.88,-276"/>
<polygon fill="none" stroke="#666666" points="351.88,-194 351.88,-322 560.88,-322 560.88,-194 351.88,-194"/>
</a>
</g>
</g>
<!-- Node5&#45;&gt;Node1 -->
<g id="edge4_Node000001_Node000005" class="edge">
<title>Node5&#45;&gt;Node1</title>
<g id="a_edge4_Node000001_Node000005"><a xlink:title=" ">
<path fill="none" stroke="#63b8ff" d="M385.62,-194.03C369.13,-179.36 351.39,-163.57 334.29,-148.35"/>
<polygon fill="none" stroke="#63b8ff" points="334.51,-148.55 327.37,-147.55 325.55,-140.57 332.69,-141.57 334.51,-148.55"/>
</a>
</g>
<text text-anchor="start" x="367.39" y="-163.5" font-family="Helvetica,sans-Serif" font-size="10.00" fill="grey">&#45;playerLanguageMapper</text>
</g>
</g>
</svg>
