<?xml version="1.0" encoding="UTF-8" standalone="no"?>
<!DOCTYPE svg PUBLIC "-//W3C//DTD SVG 1.1//EN"
 "http://www.w3.org/Graphics/SVG/1.1/DTD/svg11.dtd">
<!-- Generated by graphviz version 12.2.1 (20241206.2353)
 -->
<!-- Title: fr.softsf.sudokufx.viewmodel.MenuOptionsViewModel.init Pages: 1 -->
<svg width="411pt" height="140pt"
 viewBox="0.00 0.00 410.50 140.00" xmlns="http://www.w3.org/2000/svg" xmlns:xlink="http://www.w3.org/1999/xlink">
<g id="graph0" class="graph" transform="scale(1 1) rotate(0) translate(4 136)">
<title>fr.softsf.sudokufx.viewmodel.MenuOptionsViewModel.init</title>
<!-- Node1 -->
<g id="Node000001" class="node">
<title>Node1</title>
<g id="a_Node000001"><a xlink:title="Initializes the menu options UI state, including:">
<polygon fill="#999999" stroke="#666666" points="145,-82 0,-82 0,-50 145,-50 145,-82"/>
<text text-anchor="start" x="8" y="-68.5" font-family="Helvetica,sans-Serif" font-size="10.00">fr.softsf.sudokufx.viewmodel.</text>
<text text-anchor="middle" x="72.5" y="-56.5" font-family="Helvetica,sans-Serif" font-size="10.00">MenuOptionsViewModel.init</text>
</a>
</g>
</g>
<!-- Node2 -->
<g id="Node000002" class="node">
<title>Node2</title>
<g id="a_Node000002"><a xlink:href="classfr_1_1softsf_1_1sudokufx_1_1viewmodel_1_1_menu_options_view_model.html#a98801adb4b71828d30800245efab045a" target="_top" xlink:title="Configures the audio service and updates the ViewModel mute property.">
<polygon fill="white" stroke="#666666" points="384.12,-132 199.38,-132 199.38,-100 384.12,-100 384.12,-132"/>
<text text-anchor="start" x="207.38" y="-118.5" font-family="Helvetica,sans-Serif" font-size="10.00">fr.softsf.sudokufx.viewmodel.</text>
<text text-anchor="middle" x="291.75" y="-106.5" font-family="Helvetica,sans-Serif" font-size="10.00">MenuOptionsViewModel.initializeAudio</text>
</a>
</g>
</g>
<!-- Node1&#45;&gt;Node2 -->
<g id="edge1_Node000001_Node000002" class="edge">
<title>Node1&#45;&gt;Node2</title>
<g id="a_edge1_Node000001_Node000002"><a xlink:title=" ">
<path fill="none" stroke="#63b8ff" d="M144.04,-82.45C156.36,-85.31 169.05,-88.25 181,-91 189.44,-92.94 198.24,-94.96 207.03,-96.97"/>
<polygon fill="#63b8ff" stroke="#63b8ff" points="206.12,-100.35 216.65,-99.17 207.68,-93.53 206.12,-100.35"/>
</a>
</g>
</g>
<!-- Node3 -->
<g id="Node000003" class="node">
<title>Node3</title>
<g id="a_Node000003"><a xlink:href="classfr_1_1softsf_1_1sudokufx_1_1viewmodel_1_1_menu_options_view_model.html#acf0d4b3e314e1018f054431b1cd4922f" target="_top" xlink:title="Loads a background image asynchronously and applies it to the specified GridPane.">
<polygon fill="white" stroke="#666666" points="402.5,-82 181,-82 181,-50 402.5,-50 402.5,-82"/>
<text text-anchor="start" x="189" y="-68.5" font-family="Helvetica,sans-Serif" font-size="10.00">fr.softsf.sudokufx.viewmodel.</text>
<text text-anchor="middle" x="291.75" y="-56.5" font-family="Helvetica,sans-Serif" font-size="10.00">MenuOptionsViewModel.loadBackgroundImage</text>
</a>
</g>
</g>
<!-- Node1&#45;&gt;Node3 -->
<g id="edge2_Node000001_Node000003" class="edge">
<title>Node1&#45;&gt;Node3</title>
<g id="a_edge2_Node000001_Node000003"><a xlink:title=" ">
<path fill="none" stroke="#63b8ff" d="M145.24,-66C152.97,-66 160.98,-66 169.09,-66"/>
<polygon fill="#63b8ff" stroke="#63b8ff" points="169.08,-69.5 179.08,-66 169.08,-62.5 169.08,-69.5"/>
</a>
</g>
</g>
<!-- Node4 -->
<g id="Node000004" class="node">
<title>Node4</title>
<g id="a_Node000004"><a xlink:href="classfr_1_1softsf_1_1sudokufx_1_1viewmodel_1_1_menu_options_view_model.html#a3b1dee2b684cd6f89f245ff46623b8a5" target="_top" xlink:title="Applies a background color to the GridPane and sets it in the ColorPicker.">
<polygon fill="white" stroke="#666666" points="396.88,-32 186.62,-32 186.62,0 396.88,0 396.88,-32"/>
<text text-anchor="start" x="194.62" y="-18.5" font-family="Helvetica,sans-Serif" font-size="10.00">fr.softsf.sudokufx.viewmodel.</text>
<text text-anchor="middle" x="291.75" y="-6.5" font-family="Helvetica,sans-Serif" font-size="10.00">MenuOptionsViewModel.setColorFromModel</text>
</a>
</g>
</g>
<!-- Node1&#45;&gt;Node4 -->
<g id="edge3_Node000001_Node000004" class="edge">
<title>Node1&#45;&gt;Node4</title>
<g id="a_edge3_Node000001_Node000004"><a xlink:title=" ">
<path fill="none" stroke="#63b8ff" d="M144.04,-49.55C156.36,-46.69 169.05,-43.75 181,-41 189.44,-39.06 198.24,-37.04 207.03,-35.03"/>
<polygon fill="#63b8ff" stroke="#63b8ff" points="207.68,-38.47 216.65,-32.83 206.12,-31.65 207.68,-38.47"/>
</a>
</g>
</g>
</g>
</svg>
