<?xml version="1.0" encoding="UTF-8" standalone="no"?>
<!DOCTYPE svg PUBLIC "-//W3C//DTD SVG 1.1//EN"
 "http://www.w3.org/Graphics/SVG/1.1/DTD/svg11.dtd">
<!-- Generated by graphviz version 12.2.1 (20241206.2353)
 -->
<!-- Title: fr.softsf.sudokufx.navigation.Coordinator Pages: 1 -->
<!--zoomable 1221 -->

<svg id="main" version="1.1" xmlns="http://www.w3.org/2000/svg" xmlns:xlink="http://www.w3.org/1999/xlink" xml:space="preserve" onload="init(evt)">

<style type="text/css"><![CDATA[
.node, .edge {opacity: 0.7;}
.node.selected, .edge.selected {opacity: 1;}
.edge:hover path { stroke: red; }
.edge:hover polygon { stroke: red; fill: red; }
]]></style>

<defs>
  <circle id="rim" cx="0" cy="0" r="7"/>
  <circle id="rim2" cx="0" cy="0" r="3.5"/>
  <g id="zoomPlus">
    <use xlink:href="#rim" fill="#404040"><set attributeName="fill" to="#808080" begin="zoomplus.mouseover" end="zoomplus.mouseout"/></use>
    <path d="M-4,0h8M0,-4v8" fill="none" stroke="white" stroke-width="1.5" pointer-events="none"/>
  </g>
  <g id="zoomMin">
    <use xlink:href="#rim" fill="#404040"><set attributeName="fill" to="#808080" begin="zoomminus.mouseover" end="zoomminus.mouseout"/></use>
    <path d="M-4,0h8" fill="none" stroke="white" stroke-width="1.5" pointer-events="none"/>
  </g>
  <g id="arrowUp" transform="translate(30 24)">
    <use xlink:href="#rim"/>
    <path pointer-events="none" fill="none" stroke="white" stroke-width="1.5" d="M0,-3.0v7 M-2.5,-0.5L0,-3.0L2.5,-0.5"/>
  </g>
  <g id="arrowRight" transform="rotate(90) translate(36 -43)">
    <use xlink:href="#rim"/>
    <path pointer-events="none" fill="none" stroke="white" stroke-width="1.5" d="M0,-3.0v7 M-2.5,-0.5L0,-3.0L2.5,-0.5"/>
  </g>
  <g id="arrowDown" transform="rotate(180) translate(-30 -48)">
    <use xlink:href="#rim"/>
    <path pointer-events="none" fill="none" stroke="white" stroke-width="1.5" d="M0,-3.0v7 M-2.5,-0.5L0,-3.0L2.5,-0.5"/>
  </g>
  <g id="arrowLeft" transform="rotate(270) translate(-36 17)">
    <use xlink:href="#rim"/>
    <path pointer-events="none" fill="none" stroke="white" stroke-width="1.5" d="M0,-3.0v7 M-2.5,-0.5L0,-3.0L2.5,-0.5"/>
  </g>
  <g id="resetDef">
    <use xlink:href="#rim2" fill="#404040"><set attributeName="fill" to="#808080" begin="reset.mouseover" end="reset.mouseout"/></use>
  </g>
</defs>
<script type="application/ecmascript">
var viewWidth = 1243;
var viewHeight = 1221;
var sectionId = 'dynsection-0';
</script>
<script type="application/ecmascript" xlink:href="svg.min.js"/>
<svg id="graph" class="graph">
<g id="viewport">
<title>fr.softsf.sudokufx.navigation.Coordinator</title>
<!-- Node1 -->
<g id="Node000001" class="node">
<title>Node1</title>
<g id="a_Node000001"><a xlink:title="Coordinator is a Spring&#45;managed component handling navigation and UI logic in a JavaFX application fo...">
<polygon fill="#999999" stroke="none" points="746.62,-492 565.88,-492 565.88,0 746.62,0 746.62,-492"/>
<text text-anchor="start" x="592.88" y="-478.5" font-family="Helvetica,sans-Serif" font-size="10.00">fr.softsf.sudokufx.navigation.</text>
<text text-anchor="start" x="631.12" y="-466.5" font-family="Helvetica,sans-Serif" font-size="10.00">Coordinator</text>
<text text-anchor="start" x="569.88" y="-450.5" font-family="Helvetica,sans-Serif" font-size="10.00">+</text>
<text text-anchor="start" x="579.88" y="-450.5" font-family="Helvetica,sans-Serif" font-size="10.00">static final String</text>
<text text-anchor="start" x="579.88" y="-438.5" font-family="Helvetica,sans-Serif" font-size="10.00"> FXML_EXTENSION</text>
<text text-anchor="start" x="571.38" y="-422.5" font-family="Helvetica,sans-Serif" font-size="10.00">&#45;</text>
<text text-anchor="start" x="579.88" y="-422.5" font-family="Helvetica,sans-Serif" font-size="10.00">Scene defaultScene</text>
<text text-anchor="start" x="571.38" y="-406.5" font-family="Helvetica,sans-Serif" font-size="10.00">&#45;</text>
<text text-anchor="start" x="579.88" y="-406.5" font-family="Helvetica,sans-Serif" font-size="10.00">final FXMLLoader fxmlLoader</text>
<text text-anchor="start" x="571.38" y="-390.5" font-family="Helvetica,sans-Serif" font-size="10.00">&#45;</text>
<text text-anchor="start" x="579.88" y="-390.5" font-family="Helvetica,sans-Serif" font-size="10.00">HostServices hostServices</text>
<text text-anchor="start" x="571.38" y="-374.5" font-family="Helvetica,sans-Serif" font-size="10.00">&#45;</text>
<text text-anchor="start" x="579.88" y="-374.5" font-family="Helvetica,sans-Serif" font-size="10.00">static final Logger LOG</text>
<text text-anchor="start" x="569.88" y="-358.5" font-family="Helvetica,sans-Serif" font-size="10.00">+</text>
<text text-anchor="start" x="579.88" y="-358.5" font-family="Helvetica,sans-Serif" font-size="10.00">Coordinator(FXMLLoader</text>
<text text-anchor="start" x="579.88" y="-346.5" font-family="Helvetica,sans-Serif" font-size="10.00"> fxmlLoader)</text>
<text text-anchor="start" x="569.88" y="-330.5" font-family="Helvetica,sans-Serif" font-size="10.00">+</text>
<text text-anchor="start" x="579.88" y="-330.5" font-family="Helvetica,sans-Serif" font-size="10.00">String getCurrentPlayerLanguage</text>
<text text-anchor="start" x="579.88" y="-318.5" font-family="Helvetica,sans-Serif" font-size="10.00">Iso()</text>
<text text-anchor="start" x="569.88" y="-302.5" font-family="Helvetica,sans-Serif" font-size="10.00">+</text>
<text text-anchor="start" x="579.88" y="-302.5" font-family="Helvetica,sans-Serif" font-size="10.00">Scene getDefaultScene()</text>
<text text-anchor="start" x="569.88" y="-286.5" font-family="Helvetica,sans-Serif" font-size="10.00">+</text>
<text text-anchor="start" x="579.88" y="-286.5" font-family="Helvetica,sans-Serif" font-size="10.00">void openGitHubRepository</text>
<text text-anchor="start" x="579.88" y="-274.5" font-family="Helvetica,sans-Serif" font-size="10.00">ReleaseUrl()</text>
<text text-anchor="start" x="569.88" y="-258.5" font-family="Helvetica,sans-Serif" font-size="10.00">+</text>
<text text-anchor="start" x="579.88" y="-258.5" font-family="Helvetica,sans-Serif" font-size="10.00">void setDefaultScene</text>
<text text-anchor="start" x="579.88" y="-246.5" font-family="Helvetica,sans-Serif" font-size="10.00">(Scene scene)</text>
<text text-anchor="start" x="569.88" y="-230.5" font-family="Helvetica,sans-Serif" font-size="10.00">+</text>
<text text-anchor="start" x="579.88" y="-230.5" font-family="Helvetica,sans-Serif" font-size="10.00">void setDynamicFontSize</text>
<text text-anchor="start" x="579.88" y="-218.5" font-family="Helvetica,sans-Serif" font-size="10.00">(DynamicFontSize dynamicFontSize)</text>
<text text-anchor="start" x="569.88" y="-202.5" font-family="Helvetica,sans-Serif" font-size="10.00">+</text>
<text text-anchor="start" x="579.88" y="-202.5" font-family="Helvetica,sans-Serif" font-size="10.00">void setHostServices</text>
<text text-anchor="start" x="579.88" y="-190.5" font-family="Helvetica,sans-Serif" font-size="10.00">(HostServices hostServices)</text>
<text text-anchor="start" x="569.88" y="-174.5" font-family="Helvetica,sans-Serif" font-size="10.00">+</text>
<text text-anchor="start" x="579.88" y="-174.5" font-family="Helvetica,sans-Serif" font-size="10.00">void toggleLanguage</text>
<text text-anchor="start" x="579.88" y="-162.5" font-family="Helvetica,sans-Serif" font-size="10.00">(ToasterVBox toaster)</text>
<text text-anchor="start" x="569.88" y="-146.5" font-family="Helvetica,sans-Serif" font-size="10.00">~</text>
<text text-anchor="start" x="579.88" y="-146.5" font-family="Helvetica,sans-Serif" font-size="10.00">void exitPlatform()</text>
<text text-anchor="start" x="569.88" y="-130.5" font-family="Helvetica,sans-Serif" font-size="10.00">~</text>
<text text-anchor="start" x="579.88" y="-130.5" font-family="Helvetica,sans-Serif" font-size="10.00">void setPlayerLanguageService</text>
<text text-anchor="start" x="579.88" y="-118.5" font-family="Helvetica,sans-Serif" font-size="10.00">(PlayerLanguageService service)</text>
<text text-anchor="start" x="569.88" y="-102.5" font-family="Helvetica,sans-Serif" font-size="10.00">~</text>
<text text-anchor="start" x="579.88" y="-102.5" font-family="Helvetica,sans-Serif" font-size="10.00">void setPlayerService</text>
<text text-anchor="start" x="579.88" y="-90.5" font-family="Helvetica,sans-Serif" font-size="10.00">(PlayerService playerService)</text>
<text text-anchor="start" x="569.88" y="-74.5" font-family="Helvetica,sans-Serif" font-size="10.00">~</text>
<text text-anchor="start" x="579.88" y="-74.5" font-family="Helvetica,sans-Serif" font-size="10.00">void setPlayerStateHolder</text>
<text text-anchor="start" x="579.88" y="-62.5" font-family="Helvetica,sans-Serif" font-size="10.00">(PlayerStateHolder holder)</text>
<text text-anchor="start" x="569.88" y="-46.5" font-family="Helvetica,sans-Serif" font-size="10.00">~</text>
<text text-anchor="start" x="579.88" y="-46.5" font-family="Helvetica,sans-Serif" font-size="10.00">public&lt; T &gt; T setRootByFXMLName</text>
<text text-anchor="start" x="579.88" y="-34.5" font-family="Helvetica,sans-Serif" font-size="10.00">(final String fxml)</text>
<text text-anchor="start" x="571.38" y="-18.5" font-family="Helvetica,sans-Serif" font-size="10.00">&#45;</text>
<text text-anchor="start" x="579.88" y="-18.5" font-family="Helvetica,sans-Serif" font-size="10.00">void updatePlayerLanguage</text>
<text text-anchor="start" x="579.88" y="-6.5" font-family="Helvetica,sans-Serif" font-size="10.00">(String iso)</text>
<polygon fill="#666666" stroke="#666666" points="565.88,-462 565.88,-462 746.62,-462 746.62,-462 565.88,-462"/>
<polygon fill="#666666" stroke="#666666" points="565.88,-370 565.88,-370 577.88,-370 577.88,-370 565.88,-370"/>
<polygon fill="#666666" stroke="#666666" points="577.88,-370 577.88,-370 746.62,-370 746.62,-370 577.88,-370"/>
<polygon fill="none" stroke="#666666" points="565.88,0 565.88,-492 746.62,-492 746.62,0 565.88,0"/>
</a>
</g>
</g>
<!-- Node2 -->
<g id="Node000002" class="node">
<title>Node2</title>
<g id="a_Node000002"><a xlink:href="classfr_1_1softsf_1_1sudokufx_1_1service_1_1business_1_1_player_service.html" target="_top" xlink:title="Service for managing Player entities.">
<polygon fill="white" stroke="none" points="551.62,-936 298.88,-936 298.88,-768 551.62,-768 551.62,-936"/>
<text text-anchor="start" x="347.25" y="-922.5" font-family="Helvetica,sans-Serif" font-size="10.00">fr.softsf.sudokufx.service.business.</text>
<text text-anchor="start" x="394.88" y="-910.5" font-family="Helvetica,sans-Serif" font-size="10.00">PlayerService</text>
<text text-anchor="start" x="423.75" y="-894.5" font-family="Helvetica,sans-Serif" font-size="10.00"> </text>
<text text-anchor="start" x="302.88" y="-878.5" font-family="Helvetica,sans-Serif" font-size="10.00">+</text>
<text text-anchor="start" x="312.88" y="-878.5" font-family="Helvetica,sans-Serif" font-size="10.00">PlayerService(PlayerRepository</text>
<text text-anchor="start" x="312.88" y="-866.5" font-family="Helvetica,sans-Serif" font-size="10.00"> playerRepository, PlayerLanguageRepository</text>
<text text-anchor="start" x="312.88" y="-854.5" font-family="Helvetica,sans-Serif" font-size="10.00"> playerLanguageRepository, OptionsRepository</text>
<text text-anchor="start" x="312.88" y="-842.5" font-family="Helvetica,sans-Serif" font-size="10.00"> optionsRepository, MenuRepository menuRepository,</text>
<text text-anchor="start" x="312.88" y="-830.5" font-family="Helvetica,sans-Serif" font-size="10.00"> IPlayerMapper playerMapper, JakartaValidator</text>
<text text-anchor="start" x="312.88" y="-818.5" font-family="Helvetica,sans-Serif" font-size="10.00"> jakartaValidator)</text>
<text text-anchor="start" x="302.88" y="-802.5" font-family="Helvetica,sans-Serif" font-size="10.00">+</text>
<text text-anchor="start" x="312.88" y="-802.5" font-family="Helvetica,sans-Serif" font-size="10.00">PlayerDto getPlayer()</text>
<text text-anchor="start" x="302.88" y="-786.5" font-family="Helvetica,sans-Serif" font-size="10.00">+</text>
<text text-anchor="start" x="312.88" y="-786.5" font-family="Helvetica,sans-Serif" font-size="10.00">PlayerDto updatePlayer</text>
<text text-anchor="start" x="312.88" y="-774.5" font-family="Helvetica,sans-Serif" font-size="10.00">(PlayerDto dto)</text>
<polygon fill="#666666" stroke="#666666" points="298.88,-906 298.88,-906 551.62,-906 551.62,-906 298.88,-906"/>
<polygon fill="#666666" stroke="#666666" points="298.88,-890 298.88,-890 551.62,-890 551.62,-890 298.88,-890"/>
<polygon fill="none" stroke="#666666" points="298.88,-768 298.88,-936 551.62,-936 551.62,-768 298.88,-768"/>
</a>
</g>
</g>
<!-- Node2&#45;&gt;Node1 -->
<g id="edge1_Node000001_Node000002" class="edge">
<title>Node2&#45;&gt;Node1</title>
<g id="a_edge1_Node000001_Node000002"><a xlink:title=" ">
<path fill="none" stroke="#63b8ff" d="M414.12,-768.29C408.64,-704.15 407.94,-614 434,-540 459.65,-467.15 510.69,-397.72 557.39,-344.75"/>
<polygon fill="none" stroke="#63b8ff" points="557.46,-344.68 558.47,-337.54 565.45,-335.73 564.44,-342.87 557.46,-344.68"/>
</a>
</g>
<text text-anchor="middle" x="466.62" y="-626.5" font-family="Helvetica,sans-Serif" font-size="10.00" fill="grey"> &#45;playerService</text>
</g>
<!-- Node15 -->
<g id="Node000015" class="node">
<title>Node15</title>
<g id="a_Node000015"><a xlink:href="classfr_1_1softsf_1_1sudokufx_1_1viewmodel_1_1state_1_1_player_state_holder.html" target="_top" xlink:title="Holds the current PlayerDto for the application.">
<polygon fill="white" stroke="none" points="670.12,-720 508.38,-720 508.38,-540 670.12,-540 670.12,-720"/>
<text text-anchor="start" x="512.38" y="-706.5" font-family="Helvetica,sans-Serif" font-size="10.00">fr.softsf.sudokufx.viewmodel.state.</text>
<text text-anchor="start" x="549.5" y="-694.5" font-family="Helvetica,sans-Serif" font-size="10.00">PlayerStateHolder</text>
<text text-anchor="start" x="517.56" y="-678.5" font-family="Helvetica,sans-Serif" font-size="10.00">&#45;</text>
<text text-anchor="start" x="529.75" y="-678.5" font-family="Helvetica,sans-Serif" font-size="10.00">final ObjectProperty</text>
<text text-anchor="start" x="529.75" y="-666.5" font-family="Helvetica,sans-Serif" font-size="10.00">&lt; PlayerDto &gt; currentPlayer</text>
<text text-anchor="start" x="517.56" y="-650.5" font-family="Helvetica,sans-Serif" font-size="10.00">&#45;</text>
<text text-anchor="start" x="529.75" y="-650.5" font-family="Helvetica,sans-Serif" font-size="10.00">static final Logger LOG</text>
<text text-anchor="start" x="516.06" y="-634.5" font-family="Helvetica,sans-Serif" font-size="10.00">+</text>
<text text-anchor="start" x="529.75" y="-634.5" font-family="Helvetica,sans-Serif" font-size="10.00">PlayerStateHolder</text>
<text text-anchor="start" x="529.75" y="-622.5" font-family="Helvetica,sans-Serif" font-size="10.00">(PlayerService playerService)</text>
<text text-anchor="start" x="516.06" y="-606.5" font-family="Helvetica,sans-Serif" font-size="10.00">+</text>
<text text-anchor="start" x="529.75" y="-606.5" font-family="Helvetica,sans-Serif" font-size="10.00">ObjectProperty&lt; PlayerDto</text>
<text text-anchor="start" x="529.75" y="-594.5" font-family="Helvetica,sans-Serif" font-size="10.00"> &gt; currentPlayerProperty()</text>
<text text-anchor="start" x="516.06" y="-578.5" font-family="Helvetica,sans-Serif" font-size="10.00">+</text>
<text text-anchor="start" x="529.75" y="-578.5" font-family="Helvetica,sans-Serif" font-size="10.00">PlayerDto getCurrentPlayer()</text>
<text text-anchor="start" x="516.06" y="-562.5" font-family="Helvetica,sans-Serif" font-size="10.00">+</text>
<text text-anchor="start" x="529.75" y="-562.5" font-family="Helvetica,sans-Serif" font-size="10.00">void refreshCurrentPlayer()</text>
<text text-anchor="start" x="516.06" y="-546.5" font-family="Helvetica,sans-Serif" font-size="10.00">~</text>
<text text-anchor="start" x="529.75" y="-546.5" font-family="Helvetica,sans-Serif" font-size="10.00">void exitPlatform()</text>
<polygon fill="#666666" stroke="#666666" points="508.38,-690 508.38,-690 670.12,-690 670.12,-690 508.38,-690"/>
<polygon fill="#666666" stroke="#666666" points="508.38,-646 508.38,-646 527.75,-646 527.75,-646 508.38,-646"/>
<polygon fill="#666666" stroke="#666666" points="527.75,-646 527.75,-646 670.12,-646 670.12,-646 527.75,-646"/>
<polygon fill="none" stroke="#666666" points="508.38,-540 508.38,-720 670.12,-720 670.12,-540 508.38,-540"/>
</a>
</g>
</g>
<!-- Node2&#45;&gt;Node15 -->
<g id="edge17_Node000015_Node000002" class="edge">
<title>Node2&#45;&gt;Node15</title>
<g id="a_edge17_Node000015_Node000002"><a xlink:title=" ">
<path fill="none" stroke="#63b8ff" d="M487.02,-768.14C496.33,-755.65 506.02,-742.65 515.55,-729.86"/>
<polygon fill="none" stroke="#63b8ff" points="515.44,-730.01 515.82,-722.81 522.62,-720.39 522.24,-727.59 515.44,-730.01"/>
</a>
</g>
<text text-anchor="middle" x="539.88" y="-740.5" font-family="Helvetica,sans-Serif" font-size="10.00" fill="grey"> &#45;playerService</text>
</g>
<!-- Node3 -->
<g id="Node000003" class="node">
<title>Node3</title>
<g id="a_Node000003"><a xlink:href="interfacefr_1_1softsf_1_1sudokufx_1_1repository_1_1_player_repository.html" target="_top" xlink:title="Repository interface for Player entities.">
<polygon fill="white" stroke="none" points="438.5,-1086 302,-1086 302,-1010 438.5,-1010 438.5,-1086"/>
<text text-anchor="start" x="308" y="-1072.5" font-family="Helvetica,sans-Serif" font-size="10.00">fr.softsf.sudokufx.repository.</text>
<text text-anchor="start" x="332.75" y="-1060.5" font-family="Helvetica,sans-Serif" font-size="10.00">PlayerRepository</text>
<text text-anchor="start" x="368.75" y="-1044.5" font-family="Helvetica,sans-Serif" font-size="10.00"> </text>
<text text-anchor="start" x="306" y="-1028.5" font-family="Helvetica,sans-Serif" font-size="10.00">+</text>
<text text-anchor="start" x="316" y="-1028.5" font-family="Helvetica,sans-Serif" font-size="10.00">List&lt; Player &gt; findSelected</text>
<text text-anchor="start" x="316" y="-1016.5" font-family="Helvetica,sans-Serif" font-size="10.00">PlayerWithSelectedGame()</text>
<polygon fill="#666666" stroke="#666666" points="302,-1056 302,-1056 438.5,-1056 438.5,-1056 302,-1056"/>
<polygon fill="#666666" stroke="#666666" points="302,-1040 302,-1040 438.5,-1040 438.5,-1040 302,-1040"/>
<polygon fill="none" stroke="#666666" points="302,-1010 302,-1086 438.5,-1086 438.5,-1010 302,-1010"/>
</a>
</g>
</g>
<!-- Node3&#45;&gt;Node2 -->
<g id="edge2_Node000002_Node000003" class="edge">
<title>Node3&#45;&gt;Node2</title>
<g id="a_edge2_Node000002_Node000003"><a xlink:title=" ">
<path fill="none" stroke="#63b8ff" d="M335.91,-1010.44C324.21,-993.52 315.85,-973 323.75,-954 324.68,-951.77 325.68,-949.57 326.75,-947.39"/>
<polygon fill="none" stroke="#63b8ff" points="326.82,-947.27 326.23,-940.08 332.65,-936.78 333.23,-943.96 326.82,-947.27"/>
</a>
</g>
<text text-anchor="middle" x="363.5" y="-956.5" font-family="Helvetica,sans-Serif" font-size="10.00" fill="grey"> &#45;playerRepository</text>
</g>
<!-- Node4 -->
<g id="Node000004" class="node">
<title>Node4</title>
<g id="a_Node000004"><a xlink:title=" ">
<polygon fill="white" stroke="none" points="425.62,-1213 314.88,-1213 314.88,-1149 425.62,-1149 425.62,-1213"/>
<text text-anchor="start" x="318.88" y="-1199.5" font-family="Helvetica,sans-Serif" font-size="10.00">JpaRepository&lt; Player,</text>
<text text-anchor="start" x="353.75" y="-1187.5" font-family="Helvetica,sans-Serif" font-size="10.00"> Long &gt;</text>
<text text-anchor="start" x="368.75" y="-1171.5" font-family="Helvetica,sans-Serif" font-size="10.00"> </text>
<text text-anchor="start" x="368.75" y="-1155.5" font-family="Helvetica,sans-Serif" font-size="10.00"> </text>
<polygon fill="#666666" stroke="#666666" points="314.88,-1183 314.88,-1183 425.62,-1183 425.62,-1183 314.88,-1183"/>
<polygon fill="#666666" stroke="#666666" points="314.88,-1167 314.88,-1167 425.62,-1167 425.62,-1167 314.88,-1167"/>
<polygon fill="none" stroke="#666666" points="314.88,-1149 314.88,-1213 425.62,-1213 425.62,-1149 314.88,-1149"/>
</a>
</g>
</g>
<!-- Node4&#45;&gt;Node3 -->
<g id="edge3_Node000003_Node000004" class="edge">
<title>Node4&#45;&gt;Node3</title>
<g id="a_edge3_Node000003_Node000004"><a xlink:title=" ">
<path fill="none" stroke="#63b8ff" d="M370.25,-1138.05C370.25,-1121.17 370.25,-1101.88 370.25,-1085.58"/>
<polygon fill="none" stroke="#63b8ff" points="366.75,-1137.77 370.25,-1147.77 373.75,-1137.77 366.75,-1137.77"/>
</a>
</g>
</g>
<!-- Node5 -->
<g id="Node000005" class="node">
<title>Node5</title>
<g id="a_Node000005"><a xlink:href="interfacefr_1_1softsf_1_1sudokufx_1_1repository_1_1_player_language_repository.html" target="_top" xlink:title="Repository interface for PlayerLanguage entities.">
<polygon fill="white" stroke="none" points="589.62,-1086 456.88,-1086 456.88,-1010 589.62,-1010 589.62,-1086"/>
<text text-anchor="start" x="461" y="-1072.5" font-family="Helvetica,sans-Serif" font-size="10.00">fr.softsf.sudokufx.repository.</text>
<text text-anchor="start" x="464.75" y="-1060.5" font-family="Helvetica,sans-Serif" font-size="10.00">PlayerLanguageRepository</text>
<text text-anchor="start" x="521.75" y="-1044.5" font-family="Helvetica,sans-Serif" font-size="10.00"> </text>
<text text-anchor="start" x="460.88" y="-1028.5" font-family="Helvetica,sans-Serif" font-size="10.00">+</text>
<text text-anchor="start" x="470.88" y="-1028.5" font-family="Helvetica,sans-Serif" font-size="10.00">Optional&lt; PlayerLanguage</text>
<text text-anchor="start" x="470.88" y="-1016.5" font-family="Helvetica,sans-Serif" font-size="10.00"> &gt; findByIso(String iso)</text>
<polygon fill="#666666" stroke="#666666" points="456.88,-1056 456.88,-1056 589.62,-1056 589.62,-1056 456.88,-1056"/>
<polygon fill="#666666" stroke="#666666" points="456.88,-1040 456.88,-1040 589.62,-1040 589.62,-1040 456.88,-1040"/>
<polygon fill="none" stroke="#666666" points="456.88,-1010 456.88,-1086 589.62,-1086 589.62,-1010 456.88,-1010"/>
</a>
</g>
</g>
<!-- Node5&#45;&gt;Node2 -->
<g id="edge4_Node000002_Node000005" class="edge">
<title>Node5&#45;&gt;Node2</title>
<g id="a_edge4_Node000002_Node000005"><a xlink:title=" ">
<path fill="none" stroke="#63b8ff" d="M478.94,-1010.14C453.76,-989.15 427.14,-966.83 426.75,-966 424.1,-960.42 422.09,-954.51 420.58,-948.42"/>
<polygon fill="none" stroke="#63b8ff" points="420.58,-948.43 415.53,-943.28 418.35,-936.64 423.39,-941.79 420.58,-948.43"/>
</a>
</g>
<text text-anchor="middle" x="487.5" y="-956.5" font-family="Helvetica,sans-Serif" font-size="10.00" fill="grey"> &#45;playerLanguageRepository</text>
</g>
<!-- Node13 -->
<g id="Node000013" class="node">
<title>Node13</title>
<g id="a_Node000013"><a xlink:href="classfr_1_1softsf_1_1sudokufx_1_1service_1_1business_1_1_player_language_service.html" target="_top" xlink:title="Service for managing PlayerLanguage entities.">
<polygon fill="white" stroke="none" points="925.5,-922 693,-922 693,-782 925.5,-782 925.5,-922"/>
<text text-anchor="start" x="731.25" y="-908.5" font-family="Helvetica,sans-Serif" font-size="10.00">fr.softsf.sudokufx.service.business.</text>
<text text-anchor="start" x="757.88" y="-896.5" font-family="Helvetica,sans-Serif" font-size="10.00">PlayerLanguageService</text>
<text text-anchor="start" x="807.75" y="-880.5" font-family="Helvetica,sans-Serif" font-size="10.00"> </text>
<text text-anchor="start" x="697" y="-864.5" font-family="Helvetica,sans-Serif" font-size="10.00">+</text>
<text text-anchor="start" x="707" y="-864.5" font-family="Helvetica,sans-Serif" font-size="10.00">PlayerLanguageService</text>
<text text-anchor="start" x="707" y="-852.5" font-family="Helvetica,sans-Serif" font-size="10.00">(PlayerLanguageRepository</text>
<text text-anchor="start" x="707" y="-840.5" font-family="Helvetica,sans-Serif" font-size="10.00"> playerLanguageRepository,</text>
<text text-anchor="start" x="707" y="-828.5" font-family="Helvetica,sans-Serif" font-size="10.00"> JakartaValidator jakartaValidator,</text>
<text text-anchor="start" x="707" y="-816.5" font-family="Helvetica,sans-Serif" font-size="10.00"> IPlayerLanguageMapper playerLanguageMapper)</text>
<text text-anchor="start" x="697" y="-800.5" font-family="Helvetica,sans-Serif" font-size="10.00">+</text>
<text text-anchor="start" x="707" y="-800.5" font-family="Helvetica,sans-Serif" font-size="10.00">PlayerLanguageDto getByIso</text>
<text text-anchor="start" x="707" y="-788.5" font-family="Helvetica,sans-Serif" font-size="10.00">(String iso)</text>
<polygon fill="#666666" stroke="#666666" points="693,-892 693,-892 925.5,-892 925.5,-892 693,-892"/>
<polygon fill="#666666" stroke="#666666" points="693,-876 693,-876 925.5,-876 925.5,-876 693,-876"/>
<polygon fill="none" stroke="#666666" points="693,-782 693,-922 925.5,-922 925.5,-782 693,-782"/>
</a>
</g>
</g>
<!-- Node5&#45;&gt;Node13 -->
<g id="edge13_Node000013_Node000005" class="edge">
<title>Node5&#45;&gt;Node13</title>
<g id="a_edge13_Node000013_Node000005"><a xlink:title=" ">
<path fill="none" stroke="#63b8ff" d="M535.6,-1010.09C543.46,-991.27 555.3,-969.2 571.75,-954 602.61,-925.47 642.74,-904.29 681.21,-888.9"/>
<polygon fill="none" stroke="#63b8ff" points="681.04,-888.97 685.2,-883.07 692.24,-884.64 688.08,-890.53 681.04,-888.97"/>
</a>
</g>
<text text-anchor="middle" x="632.5" y="-956.5" font-family="Helvetica,sans-Serif" font-size="10.00" fill="grey"> &#45;playerLanguageRepository</text>
</g>
<!-- Node6 -->
<g id="Node000006" class="node">
<title>Node6</title>
<g id="a_Node000006"><a xlink:title=" ">
<polygon fill="white" stroke="none" points="599.62,-1213 446.88,-1213 446.88,-1149 599.62,-1149 599.62,-1213"/>
<text text-anchor="start" x="450.88" y="-1199.5" font-family="Helvetica,sans-Serif" font-size="10.00">JpaRepository&lt; PlayerLanguage,</text>
<text text-anchor="start" x="506.75" y="-1187.5" font-family="Helvetica,sans-Serif" font-size="10.00"> Long &gt;</text>
<text text-anchor="start" x="521.75" y="-1171.5" font-family="Helvetica,sans-Serif" font-size="10.00"> </text>
<text text-anchor="start" x="521.75" y="-1155.5" font-family="Helvetica,sans-Serif" font-size="10.00"> </text>
<polygon fill="#666666" stroke="#666666" points="446.88,-1183 446.88,-1183 599.62,-1183 599.62,-1183 446.88,-1183"/>
<polygon fill="#666666" stroke="#666666" points="446.88,-1167 446.88,-1167 599.62,-1167 599.62,-1167 446.88,-1167"/>
<polygon fill="none" stroke="#666666" points="446.88,-1149 446.88,-1213 599.62,-1213 599.62,-1149 446.88,-1149"/>
</a>
</g>
</g>
<!-- Node6&#45;&gt;Node5 -->
<g id="edge5_Node000005_Node000006" class="edge">
<title>Node6&#45;&gt;Node5</title>
<g id="a_edge5_Node000005_Node000006"><a xlink:title=" ">
<path fill="none" stroke="#63b8ff" d="M523.25,-1138.05C523.25,-1121.17 523.25,-1101.88 523.25,-1085.58"/>
<polygon fill="none" stroke="#63b8ff" points="519.75,-1137.77 523.25,-1147.77 526.75,-1137.77 519.75,-1137.77"/>
</a>
</g>
</g>
<!-- Node7 -->
<g id="Node000007" class="node">
<title>Node7</title>
<g id="a_Node000007"><a xlink:href="interfacefr_1_1softsf_1_1sudokufx_1_1repository_1_1_options_repository.html" target="_top" xlink:title="Repository interface for Options entities.">
<polygon fill="white" stroke="none" points="132.5,-1080 0,-1080 0,-1016 132.5,-1016 132.5,-1080"/>
<text text-anchor="start" x="4" y="-1066.5" font-family="Helvetica,sans-Serif" font-size="10.00">fr.softsf.sudokufx.repository.</text>
<text text-anchor="start" x="25.75" y="-1054.5" font-family="Helvetica,sans-Serif" font-size="10.00">OptionsRepository</text>
<text text-anchor="start" x="64.75" y="-1038.5" font-family="Helvetica,sans-Serif" font-size="10.00"> </text>
<text text-anchor="start" x="64.75" y="-1022.5" font-family="Helvetica,sans-Serif" font-size="10.00"> </text>
<polygon fill="#666666" stroke="#666666" points="0,-1050 0,-1050 132.5,-1050 132.5,-1050 0,-1050"/>
<polygon fill="#666666" stroke="#666666" points="0,-1034 0,-1034 132.5,-1034 132.5,-1034 0,-1034"/>
<polygon fill="none" stroke="#666666" points="0,-1016 0,-1080 132.5,-1080 132.5,-1016 0,-1016"/>
</a>
</g>
</g>
<!-- Node7&#45;&gt;Node2 -->
<g id="edge6_Node000002_Node000007" class="edge">
<title>Node7&#45;&gt;Node2</title>
<g id="a_edge6_Node000002_Node000007"><a xlink:title=" ">
<path fill="none" stroke="#63b8ff" d="M85.88,-1016.11C100.04,-995.99 120.78,-970.52 144.5,-954 186.93,-924.45 238.95,-902.59 286.63,-886.92"/>
<polygon fill="none" stroke="#63b8ff" points="286.69,-886.9 291.18,-881.26 298.12,-883.24 293.62,-888.88 286.69,-886.9"/>
</a>
</g>
<text text-anchor="middle" x="186.88" y="-956.5" font-family="Helvetica,sans-Serif" font-size="10.00" fill="grey"> &#45;optionsRepository</text>
</g>
<!-- Node8 -->
<g id="Node000008" class="node">
<title>Node8</title>
<g id="a_Node000008"><a xlink:title=" ">
<polygon fill="white" stroke="none" points="124.62,-1213 7.87,-1213 7.87,-1149 124.62,-1149 124.62,-1213"/>
<text text-anchor="start" x="11.88" y="-1199.5" font-family="Helvetica,sans-Serif" font-size="10.00">JpaRepository&lt; Options,</text>
<text text-anchor="start" x="49.75" y="-1187.5" font-family="Helvetica,sans-Serif" font-size="10.00"> Long &gt;</text>
<text text-anchor="start" x="64.75" y="-1171.5" font-family="Helvetica,sans-Serif" font-size="10.00"> </text>
<text text-anchor="start" x="64.75" y="-1155.5" font-family="Helvetica,sans-Serif" font-size="10.00"> </text>
<polygon fill="#666666" stroke="#666666" points="7.88,-1183 7.88,-1183 124.62,-1183 124.62,-1183 7.88,-1183"/>
<polygon fill="#666666" stroke="#666666" points="7.88,-1167 7.88,-1167 124.62,-1167 124.62,-1167 7.88,-1167"/>
<polygon fill="none" stroke="#666666" points="7.88,-1149 7.88,-1213 124.62,-1213 124.62,-1149 7.88,-1149"/>
</a>
</g>
</g>
<!-- Node8&#45;&gt;Node7 -->
<g id="edge7_Node000007_Node000008" class="edge">
<title>Node8&#45;&gt;Node7</title>
<g id="a_edge7_Node000007_Node000008"><a xlink:title=" ">
<path fill="none" stroke="#63b8ff" d="M66.25,-1138C66.25,-1119.15 66.25,-1097.31 66.25,-1079.98"/>
<polygon fill="none" stroke="#63b8ff" points="62.75,-1137.77 66.25,-1147.77 69.75,-1137.77 62.75,-1137.77"/>
</a>
</g>
</g>
<!-- Node9 -->
<g id="Node000009" class="node">
<title>Node9</title>
<g id="a_Node000009"><a xlink:href="interfacefr_1_1softsf_1_1sudokufx_1_1repository_1_1_menu_repository.html" target="_top" xlink:title="Repository interface for Menu entities.">
<polygon fill="white" stroke="none" points="283.5,-1080 151,-1080 151,-1016 283.5,-1016 283.5,-1080"/>
<text text-anchor="start" x="155" y="-1066.5" font-family="Helvetica,sans-Serif" font-size="10.00">fr.softsf.sudokufx.repository.</text>
<text text-anchor="start" x="181.62" y="-1054.5" font-family="Helvetica,sans-Serif" font-size="10.00">MenuRepository</text>
<text text-anchor="start" x="215.75" y="-1038.5" font-family="Helvetica,sans-Serif" font-size="10.00"> </text>
<text text-anchor="start" x="215.75" y="-1022.5" font-family="Helvetica,sans-Serif" font-size="10.00"> </text>
<polygon fill="#666666" stroke="#666666" points="151,-1050 151,-1050 283.5,-1050 283.5,-1050 151,-1050"/>
<polygon fill="#666666" stroke="#666666" points="151,-1034 151,-1034 283.5,-1034 283.5,-1034 151,-1034"/>
<polygon fill="none" stroke="#666666" points="151,-1016 151,-1080 283.5,-1080 283.5,-1016 151,-1016"/>
</a>
</g>
</g>
<!-- Node9&#45;&gt;Node2 -->
<g id="edge8_Node000002_Node000009" class="edge">
<title>Node9&#45;&gt;Node2</title>
<g id="a_edge8_Node000002_Node000009"><a xlink:title=" ">
<path fill="none" stroke="#63b8ff" d="M218.52,-1016.23C220.74,-996.67 226.32,-971.79 240,-954 253.16,-936.89 270.08,-922.31 288.33,-909.99"/>
<polygon fill="none" stroke="#63b8ff" points="288.36,-909.97 291.25,-903.36 298.46,-903.49 295.57,-910.09 288.36,-909.97"/>
</a>
</g>
<text text-anchor="middle" x="278.62" y="-956.5" font-family="Helvetica,sans-Serif" font-size="10.00" fill="grey"> &#45;menuRepository</text>
</g>
<!-- Node10 -->
<g id="Node000010" class="node">
<title>Node10</title>
<g id="a_Node000010"><a xlink:title=" ">
<polygon fill="white" stroke="none" points="270.75,-1213 163.75,-1213 163.75,-1149 270.75,-1149 270.75,-1213"/>
<text text-anchor="start" x="167.75" y="-1199.5" font-family="Helvetica,sans-Serif" font-size="10.00">JpaRepository&lt; Menu,</text>
<text text-anchor="start" x="201.12" y="-1187.5" font-family="Helvetica,sans-Serif" font-size="10.00"> Byte &gt;</text>
<text text-anchor="start" x="215.75" y="-1171.5" font-family="Helvetica,sans-Serif" font-size="10.00"> </text>
<text text-anchor="start" x="215.75" y="-1155.5" font-family="Helvetica,sans-Serif" font-size="10.00"> </text>
<polygon fill="#666666" stroke="#666666" points="163.75,-1183 163.75,-1183 270.75,-1183 270.75,-1183 163.75,-1183"/>
<polygon fill="#666666" stroke="#666666" points="163.75,-1167 163.75,-1167 270.75,-1167 270.75,-1167 163.75,-1167"/>
<polygon fill="none" stroke="#666666" points="163.75,-1149 163.75,-1213 270.75,-1213 270.75,-1149 163.75,-1149"/>
</a>
</g>
</g>
<!-- Node10&#45;&gt;Node9 -->
<g id="edge9_Node000009_Node000010" class="edge">
<title>Node10&#45;&gt;Node9</title>
<g id="a_edge9_Node000009_Node000010"><a xlink:title=" ">
<path fill="none" stroke="#63b8ff" d="M217.25,-1138C217.25,-1119.15 217.25,-1097.31 217.25,-1079.98"/>
<polygon fill="none" stroke="#63b8ff" points="213.75,-1137.77 217.25,-1147.77 220.75,-1137.77 213.75,-1137.77"/>
</a>
</g>
</g>
<!-- Node11 -->
<g id="Node000011" class="node">
<title>Node11</title>
<g id="a_Node000011"><a xlink:href="interfacefr_1_1softsf_1_1sudokufx_1_1common_1_1interfaces_1_1mapper_1_1_i_player_mapper.html" target="_top" xlink:title="Mapper interface for converting between Player entity and PlayerDto data transfer object.">
<polygon fill="white" stroke="none" points="816.75,-1100 607.75,-1100 607.75,-996 816.75,-996 816.75,-1100"/>
<text text-anchor="start" x="611.75" y="-1086.5" font-family="Helvetica,sans-Serif" font-size="10.00">fr.softsf.sudokufx.common.interfaces.mapper.</text>
<text text-anchor="start" x="680.75" y="-1074.5" font-family="Helvetica,sans-Serif" font-size="10.00">IPlayerMapper</text>
<text text-anchor="start" x="710.75" y="-1058.5" font-family="Helvetica,sans-Serif" font-size="10.00"> </text>
<text text-anchor="start" x="626.69" y="-1042.5" font-family="Helvetica,sans-Serif" font-size="10.00">+</text>
<text text-anchor="start" x="651.62" y="-1042.5" font-family="Helvetica,sans-Serif" font-size="10.00">Player mapPlayerDtoToPlayer</text>
<text text-anchor="start" x="651.62" y="-1030.5" font-family="Helvetica,sans-Serif" font-size="10.00">(PlayerDto dto)</text>
<text text-anchor="start" x="626.69" y="-1014.5" font-family="Helvetica,sans-Serif" font-size="10.00">+</text>
<text text-anchor="start" x="651.62" y="-1014.5" font-family="Helvetica,sans-Serif" font-size="10.00">PlayerDto mapPlayerToDto</text>
<text text-anchor="start" x="651.62" y="-1002.5" font-family="Helvetica,sans-Serif" font-size="10.00">(Player player)</text>
<polygon fill="#666666" stroke="#666666" points="607.75,-1070 607.75,-1070 816.75,-1070 816.75,-1070 607.75,-1070"/>
<polygon fill="#666666" stroke="#666666" points="607.75,-1054 607.75,-1054 816.75,-1054 816.75,-1054 607.75,-1054"/>
<polygon fill="none" stroke="#666666" points="607.75,-996 607.75,-1100 816.75,-1100 816.75,-996 607.75,-996"/>
</a>
</g>
</g>
<!-- Node11&#45;&gt;Node2 -->
<g id="edge10_Node000002_Node000011" class="edge">
<title>Node11&#45;&gt;Node2</title>
<g id="a_edge10_Node000002_Node000011"><a xlink:title=" ">
<path fill="none" stroke="#63b8ff" d="M711.04,-996.09C708.42,-981.13 703.19,-965.66 693.25,-954 660.31,-915.36 611.01,-891.48 563.64,-876.73"/>
<polygon fill="none" stroke="#63b8ff" points="563.7,-876.74 556.81,-878.87 552.19,-873.33 559.08,-871.2 563.7,-876.74"/>
</a>
</g>
<text text-anchor="middle" x="732.68" y="-956.5" font-family="Helvetica,sans-Serif" font-size="10.00" fill="grey"> &#45;playerMapper</text>
</g>
<!-- Node12 -->
<g id="Node000012" class="node">
<title>Node12</title>
<g id="a_Node000012"><a xlink:href="classfr_1_1softsf_1_1sudokufx_1_1common_1_1exception_1_1_jakarta_validator.html" target="_top" xlink:title="Spring component for validating objects using Jakarta Bean Validation.">
<polygon fill="white" stroke="none" points="1007.75,-1108 834.75,-1108 834.75,-988 1007.75,-988 1007.75,-1108"/>
<text text-anchor="start" x="838.75" y="-1094.5" font-family="Helvetica,sans-Serif" font-size="10.00">fr.softsf.sudokufx.common.exception.</text>
<text text-anchor="start" x="886.38" y="-1082.5" font-family="Helvetica,sans-Serif" font-size="10.00">JakartaValidator</text>
<text text-anchor="start" x="851.44" y="-1066.5" font-family="Helvetica,sans-Serif" font-size="10.00">&#45;</text>
<text text-anchor="start" x="871.12" y="-1066.5" font-family="Helvetica,sans-Serif" font-size="10.00">final Validator validator</text>
<text text-anchor="start" x="851.44" y="-1050.5" font-family="Helvetica,sans-Serif" font-size="10.00">&#45;</text>
<text text-anchor="start" x="871.12" y="-1050.5" font-family="Helvetica,sans-Serif" font-size="10.00">static final Logger LOG</text>
<text text-anchor="start" x="849.94" y="-1034.5" font-family="Helvetica,sans-Serif" font-size="10.00">+</text>
<text text-anchor="start" x="871.12" y="-1034.5" font-family="Helvetica,sans-Serif" font-size="10.00">JakartaValidator(Validator</text>
<text text-anchor="start" x="871.12" y="-1022.5" font-family="Helvetica,sans-Serif" font-size="10.00"> validator)</text>
<text text-anchor="start" x="849.94" y="-1006.5" font-family="Helvetica,sans-Serif" font-size="10.00">~</text>
<text text-anchor="start" x="871.12" y="-1006.5" font-family="Helvetica,sans-Serif" font-size="10.00">public&lt; T &gt; T validateOr</text>
<text text-anchor="start" x="871.12" y="-994.5" font-family="Helvetica,sans-Serif" font-size="10.00">Throw(T obj)</text>
<polygon fill="#666666" stroke="#666666" points="834.75,-1078 834.75,-1078 1007.75,-1078 1007.75,-1078 834.75,-1078"/>
<polygon fill="#666666" stroke="#666666" points="834.75,-1046 834.75,-1046 869.12,-1046 869.12,-1046 834.75,-1046"/>
<polygon fill="#666666" stroke="#666666" points="869.12,-1046 869.12,-1046 1007.75,-1046 1007.75,-1046 869.12,-1046"/>
<polygon fill="none" stroke="#666666" points="834.75,-988 834.75,-1108 1007.75,-1108 1007.75,-988 834.75,-988"/>
</a>
</g>
</g>
<!-- Node12&#45;&gt;Node2 -->
<g id="edge11_Node000002_Node000012" class="edge">
<title>Node12&#45;&gt;Node2</title>
<g id="a_edge11_Node000002_Node000012"><a xlink:title=" ">
<path fill="none" stroke="#63b8ff" d="M834.76,-989.12C831.9,-987.38 829.06,-985.66 826.25,-984 801.62,-969.4 796.18,-963.72 769.25,-954 732.93,-940.88 721.57,-945.91 684.25,-936 644.84,-925.54 602.54,-912.69 563.79,-900.26"/>
<polygon fill="none" stroke="#63b8ff" points="563.89,-900.29 556.96,-902.25 552.47,-896.6 559.41,-894.64 563.89,-900.29"/>
</a>
</g>
<text text-anchor="middle" x="832.16" y="-956.5" font-family="Helvetica,sans-Serif" font-size="10.00" fill="grey"> &#45;jakartaValidator</text>
</g>
<!-- Node12&#45;&gt;Node13 -->
<g id="edge14_Node000013_Node000012" class="edge">
<title>Node12&#45;&gt;Node13</title>
<g id="a_edge14_Node000013_Node000012"><a xlink:title=" ">
<path fill="none" stroke="#63b8ff" d="M900.62,-988.37C895.78,-976.73 890.26,-964.78 884.25,-954 880.26,-946.84 875.83,-939.61 871.17,-932.49"/>
<polygon fill="none" stroke="#63b8ff" points="871.16,-932.48 864.49,-929.74 864.46,-922.52 871.13,-925.27 871.16,-932.48"/>
</a>
</g>
<text text-anchor="middle" x="925.7" y="-956.5" font-family="Helvetica,sans-Serif" font-size="10.00" fill="grey"> &#45;jakartaValidator</text>
</g>
<!-- Node13&#45;&gt;Node1 -->
<g id="edge12_Node000001_Node000013" class="edge">
<title>Node13&#45;&gt;Node1</title>
<g id="a_edge12_Node000001_Node000013"><a xlink:title=" ">
<path fill="none" stroke="#63b8ff" d="M749.69,-782.13C736.15,-763.12 723.32,-741.72 715,-720 681.42,-632.33 703.67,-603.18 692.25,-510 692.03,-508.23 691.82,-506.46 691.6,-504.68"/>
<polygon fill="none" stroke="#63b8ff" points="691.61,-504.76 686.89,-499.3 690.12,-492.85 694.83,-498.31 691.61,-504.76"/>
</a>
</g>
<text text-anchor="middle" x="768.62" y="-626.5" font-family="Helvetica,sans-Serif" font-size="10.00" fill="grey"> &#45;playerLanguageService</text>
</g>
<!-- Node14 -->
<g id="Node000014" class="node">
<title>Node14</title>
<g id="a_Node000014"><a xlink:href="interfacefr_1_1softsf_1_1sudokufx_1_1common_1_1interfaces_1_1mapper_1_1_i_player_language_mapper.html" target="_top" xlink:title="This interface defines methods for mapping objects of type PlayerLanguage to objects of type PlayerLa...">
<polygon fill="white" stroke="none" points="1234.75,-1112 1025.75,-1112 1025.75,-984 1234.75,-984 1234.75,-1112"/>
<text text-anchor="start" x="1029.75" y="-1098.5" font-family="Helvetica,sans-Serif" font-size="10.00">fr.softsf.sudokufx.common.interfaces.mapper.</text>
<text text-anchor="start" x="1077.75" y="-1086.5" font-family="Helvetica,sans-Serif" font-size="10.00">IPlayerLanguageMapper</text>
<text text-anchor="start" x="1128.75" y="-1070.5" font-family="Helvetica,sans-Serif" font-size="10.00"> </text>
<text text-anchor="start" x="1042.25" y="-1054.5" font-family="Helvetica,sans-Serif" font-size="10.00">+</text>
<text text-anchor="start" x="1064.75" y="-1054.5" font-family="Helvetica,sans-Serif" font-size="10.00">PlayerLanguage mapPlayer</text>
<text text-anchor="start" x="1064.75" y="-1042.5" font-family="Helvetica,sans-Serif" font-size="10.00">LanguageDtoToPlayerLanguage</text>
<text text-anchor="start" x="1064.75" y="-1030.5" font-family="Helvetica,sans-Serif" font-size="10.00">(PlayerLanguageDto dto)</text>
<text text-anchor="start" x="1042.25" y="-1014.5" font-family="Helvetica,sans-Serif" font-size="10.00">+</text>
<text text-anchor="start" x="1064.75" y="-1014.5" font-family="Helvetica,sans-Serif" font-size="10.00">PlayerLanguageDto mapPlayer</text>
<text text-anchor="start" x="1064.75" y="-1002.5" font-family="Helvetica,sans-Serif" font-size="10.00">LanguageToDto(PlayerLanguage</text>
<text text-anchor="start" x="1064.75" y="-990.5" font-family="Helvetica,sans-Serif" font-size="10.00"> playerLanguage)</text>
<polygon fill="#666666" stroke="#666666" points="1025.75,-1082 1025.75,-1082 1234.75,-1082 1234.75,-1082 1025.75,-1082"/>
<polygon fill="#666666" stroke="#666666" points="1025.75,-1066 1025.75,-1066 1234.75,-1066 1234.75,-1066 1025.75,-1066"/>
<polygon fill="none" stroke="#666666" points="1025.75,-984 1025.75,-1112 1234.75,-1112 1234.75,-984 1025.75,-984"/>
</a>
</g>
</g>
<!-- Node14&#45;&gt;Node13 -->
<g id="edge15_Node000013_Node000014" class="edge">
<title>Node14&#45;&gt;Node13</title>
<g id="a_edge15_Node000013_Node000014"><a xlink:title=" ">
<path fill="none" stroke="#63b8ff" d="M1026.03,-984.01C996.76,-966.33 964.64,-946.91 934.29,-928.57"/>
<polygon fill="none" stroke="#63b8ff" points="934.25,-928.54 927.04,-928.86 923.98,-922.34 931.18,-922.02 934.25,-928.54"/>
</a>
</g>
<text text-anchor="middle" x="1042.22" y="-956.5" font-family="Helvetica,sans-Serif" font-size="10.00" fill="grey"> &#45;playerLanguageMapper</text>
</g>
<!-- Node15&#45;&gt;Node1 -->
<g id="edge16_Node000001_Node000015" class="edge">
<title>Node15&#45;&gt;Node1</title>
<g id="a_edge16_Node000001_Node000015"><a xlink:title=" ">
<path fill="none" stroke="#63b8ff" d="M603.2,-540.26C604.87,-530.05 606.57,-519.8 608.25,-510 608.55,-508.23 608.86,-506.46 609.16,-504.68"/>
<polygon fill="none" stroke="#63b8ff" points="609.16,-504.67 606.24,-498.08 611.21,-492.85 614.13,-499.44 609.16,-504.67"/>
</a>
</g>
<text text-anchor="middle" x="650.25" y="-512.5" font-family="Helvetica,sans-Serif" font-size="10.00" fill="grey"> &#45;playerStateHolder</text>
</g>
<!-- Node16 -->
<g id="Node000016" class="node">
<title>Node16</title>
<g id="a_Node000016"><a xlink:href="classfr_1_1softsf_1_1sudokufx_1_1common_1_1util_1_1_dynamic_font_size.html" target="_top" xlink:title="Manages dynamic font sizing based on the dimensions of a JavaFX Scene.">
<polygon fill="white" stroke="none" points="975.12,-714 831.38,-714 831.38,-546 975.12,-546 975.12,-714"/>
<text text-anchor="start" x="835.38" y="-700.5" font-family="Helvetica,sans-Serif" font-size="10.00">fr.softsf.sudokufx.common.util.</text>
<text text-anchor="start" x="864.25" y="-688.5" font-family="Helvetica,sans-Serif" font-size="10.00">DynamicFontSize</text>
<text text-anchor="start" x="837.75" y="-672.5" font-family="Helvetica,sans-Serif" font-size="10.00">&#45;</text>
<text text-anchor="start" x="847.12" y="-672.5" font-family="Helvetica,sans-Serif" font-size="10.00">double currentFontSize</text>
<text text-anchor="start" x="837.75" y="-656.5" font-family="Helvetica,sans-Serif" font-size="10.00">&#45;</text>
<text text-anchor="start" x="847.12" y="-656.5" font-family="Helvetica,sans-Serif" font-size="10.00">final Scene scene</text>
<text text-anchor="start" x="837.75" y="-640.5" font-family="Helvetica,sans-Serif" font-size="10.00">&#45;</text>
<text text-anchor="start" x="847.12" y="-640.5" font-family="Helvetica,sans-Serif" font-size="10.00">static final double</text>
<text text-anchor="start" x="847.12" y="-628.5" font-family="Helvetica,sans-Serif" font-size="10.00"> FONT_SIZE_RATIO</text>
<text text-anchor="start" x="836.25" y="-612.5" font-family="Helvetica,sans-Serif" font-size="10.00">+</text>
<text text-anchor="start" x="847.12" y="-612.5" font-family="Helvetica,sans-Serif" font-size="10.00">DynamicFontSize(Scene</text>
<text text-anchor="start" x="847.12" y="-600.5" font-family="Helvetica,sans-Serif" font-size="10.00"> scene)</text>
<text text-anchor="start" x="836.25" y="-584.5" font-family="Helvetica,sans-Serif" font-size="10.00">+</text>
<text text-anchor="start" x="847.12" y="-584.5" font-family="Helvetica,sans-Serif" font-size="10.00">double getCurrentFontSize()</text>
<text text-anchor="start" x="836.25" y="-568.5" font-family="Helvetica,sans-Serif" font-size="10.00">+</text>
<text text-anchor="start" x="847.12" y="-568.5" font-family="Helvetica,sans-Serif" font-size="10.00">void updateFontSize()</text>
<text text-anchor="start" x="837.75" y="-552.5" font-family="Helvetica,sans-Serif" font-size="10.00">&#45;</text>
<text text-anchor="start" x="847.12" y="-552.5" font-family="Helvetica,sans-Serif" font-size="10.00">void initialize()</text>
<polygon fill="#666666" stroke="#666666" points="831.38,-684 831.38,-684 975.12,-684 975.12,-684 831.38,-684"/>
<polygon fill="#666666" stroke="#666666" points="831.38,-624 831.38,-624 845.12,-624 845.12,-624 831.38,-624"/>
<polygon fill="#666666" stroke="#666666" points="845.12,-624 845.12,-624 975.12,-624 975.12,-624 845.12,-624"/>
<polygon fill="none" stroke="#666666" points="831.38,-546 831.38,-714 975.12,-714 975.12,-546 831.38,-546"/>
</a>
</g>
</g>
<!-- Node16&#45;&gt;Node1 -->
<g id="edge18_Node000001_Node000016" class="edge">
<title>Node16&#45;&gt;Node1</title>
<g id="a_edge18_Node000001_Node000016"><a xlink:title=" ">
<path fill="none" stroke="#63b8ff" d="M849.65,-546.11C821.51,-502.58 786.13,-447.87 753.36,-397.19"/>
<polygon fill="none" stroke="#63b8ff" points="753.42,-397.28 746.8,-394.41 746.9,-387.2 753.52,-390.06 753.42,-397.28"/>
</a>
</g>
<text text-anchor="middle" x="871.14" y="-512.5" font-family="Helvetica,sans-Serif" font-size="10.00" fill="grey"> &#45;dynamicFontSize</text>
</g>
</g>
</svg>

<g id="navigator" transform="translate(0 0)" fill="#404254">
  <rect fill="#f2f5e9" fill-opacity="0.5" stroke="#606060" stroke-width=".5" x="0" y="0" width="60" height="60"/>
  <use id="zoomplus" xlink:href="#zoomPlus" x="17" y="9" onmousedown="handleZoom(evt,'in')"/>
  <use id="zoomminus" xlink:href="#zoomMin" x="42" y="9" onmousedown="handleZoom(evt,'out')"/>
  <use id="reset" xlink:href="#resetDef" x="30" y="36" onmousedown="handleReset()"/>
   <use id="arrowup" xlink:href="#arrowUp" x="0" y="0" onmousedown="handlePan(0,-1)"/>
  <use id="arrowright" xlink:href="#arrowRight" x="0" y="0" onmousedown="handlePan(1,0)"/>
  <use id="arrowdown" xlink:href="#arrowDown" x="0" y="0" onmousedown="handlePan(0,1)"/>
  <use id="arrowleft" xlink:href="#arrowLeft" x="0" y="0" onmousedown="handlePan(-1,0)"/>
</g>
<svg viewBox="0 0 15 15" width="100%" height="30px" preserveAspectRatio="xMaxYMin meet">
 <g id="arrow_out" transform="scale(0.3 0.3)">
  <a xlink:href="classfr_1_1softsf_1_1sudokufx_1_1navigation_1_1_coordinator__coll__graph_org.svg" target="_base">
   <rect id="button" ry="5" rx="5" y="6" x="6" height="38" width="38"
        fill="#f2f5e9" fill-opacity="0.5" stroke="#606060" stroke-width="1.0"/>
   <path id="arrow"
     d="M 11.500037,31.436501 C 11.940474,20.09759 22.043105,11.32322 32.158766,21.979434 L 37.068811,17.246167 C 37.068811,17.246167 37.088388,32 37.088388,32 L 22.160133,31.978069 C 22.160133,31.978069 26.997745,27.140456 26.997745,27.140456 C 18.528582,18.264221 13.291696,25.230495 11.500037,31.436501 z"
     style="fill:#404040;"/>
  </a>
 </g>
</svg>

<style type='text/css'>
<![CDATA[
[data-mouse-over-selected='false'] { opacity: 0.7; }
[data-mouse-over-selected='true']  { opacity: 1.0; }
]]>
</style>
<script type="application/ecmascript"><![CDATA[
document.addEventListener('DOMContentLoaded', (event) => {
  highlightEdges();
  highlightAdjacentNodes();
});
]]></script>
</svg>
