<?xml version="1.0" encoding="UTF-8" standalone="no"?>
<!DOCTYPE svg PUBLIC "-//W3C//DTD SVG 1.1//EN"
 "http://www.w3.org/Graphics/SVG/1.1/DTD/svg11.dtd">
<!-- Generated by graphviz version 12.2.1 (20241206.2353)
 -->
<!-- Title: fr.softsf.sudokufx.service.business.GameLevelService Pages: 1 -->
<svg width="194pt" height="343pt"
 viewBox="0.00 0.00 194.38 343.00" xmlns="http://www.w3.org/2000/svg" xmlns:xlink="http://www.w3.org/1999/xlink">
<g id="page0,1_graph0" class="graph" transform="scale(1 1) rotate(0) translate(4 339)">
<title>fr.softsf.sudokufx.service.business.GameLevelService</title>
<!-- Node1 -->
<g id="Node000001" class="node">
<title>Node1</title>
<g id="a_Node000001"><a xlink:title="Service managing fr.softsf.sudokufx.model.GameLevel entities.">
<polygon fill="#999999" stroke="none" points="165.75,-104 0,-104 0,0 165.75,0 165.75,-104"/>
<text text-anchor="start" x="4.88" y="-90.5" font-family="Helvetica,sans-Serif" font-size="10.00">fr.softsf.sudokufx.service.business.</text>
<text text-anchor="start" x="41.62" y="-78.5" font-family="Helvetica,sans-Serif" font-size="10.00">GameLevelService</text>
<text text-anchor="start" x="81.38" y="-62.5" font-family="Helvetica,sans-Serif" font-size="10.00"> </text>
<text text-anchor="start" x="4" y="-46.5" font-family="Helvetica,sans-Serif" font-size="10.00">+</text>
<text text-anchor="start" x="14" y="-46.5" font-family="Helvetica,sans-Serif" font-size="10.00">GameLevelService(GameLevel</text>
<text text-anchor="start" x="14" y="-34.5" font-family="Helvetica,sans-Serif" font-size="10.00">Repository gameLevelRepository)</text>
<text text-anchor="start" x="4" y="-18.5" font-family="Helvetica,sans-Serif" font-size="10.00">+</text>
<text text-anchor="start" x="14" y="-18.5" font-family="Helvetica,sans-Serif" font-size="10.00">GameLevel findByLevelOrThrow</text>
<text text-anchor="start" x="14" y="-6.5" font-family="Helvetica,sans-Serif" font-size="10.00">(byte levelValue)</text>
<polygon fill="#666666" stroke="#666666" points="0,-74 0,-74 165.75,-74 165.75,-74 0,-74"/>
<polygon fill="#666666" stroke="#666666" points="0,-58 0,-58 165.75,-58 165.75,-58 0,-58"/>
<polygon fill="none" stroke="#666666" points="0,0 0,-104 165.75,-104 165.75,0 0,0"/>
</a>
</g>
</g>
<!-- Node2 -->
<g id="Node000002" class="node">
<title>Node2</title>
<g id="a_Node000002"><a xlink:href="interfacefr_1_1softsf_1_1sudokufx_1_1repository_1_1_game_level_repository.html" target="_top" xlink:title="Repository interface for GameLevel entities.">
<polygon fill="white" stroke="none" points="149.12,-234 16.62,-234 16.62,-158 149.12,-158 149.12,-234"/>
<text text-anchor="start" x="20.62" y="-220.5" font-family="Helvetica,sans-Serif" font-size="10.00">fr.softsf.sudokufx.repository.</text>
<text text-anchor="start" x="34.5" y="-208.5" font-family="Helvetica,sans-Serif" font-size="10.00">GameLevelRepository</text>
<text text-anchor="start" x="81.38" y="-192.5" font-family="Helvetica,sans-Serif" font-size="10.00"> </text>
<text text-anchor="start" x="23.56" y="-176.5" font-family="Helvetica,sans-Serif" font-size="10.00">+</text>
<text text-anchor="start" x="36.5" y="-176.5" font-family="Helvetica,sans-Serif" font-size="10.00">Optional&lt; GameLevel</text>
<text text-anchor="start" x="36.5" y="-164.5" font-family="Helvetica,sans-Serif" font-size="10.00"> &gt; findByLevel(int level)</text>
<polygon fill="#666666" stroke="#666666" points="16.62,-204 16.62,-204 149.12,-204 149.12,-204 16.62,-204"/>
<polygon fill="#666666" stroke="#666666" points="16.62,-188 16.62,-188 149.12,-188 149.12,-188 16.62,-188"/>
<polygon fill="none" stroke="#666666" points="16.62,-158 16.62,-234 149.12,-234 149.12,-158 16.62,-158"/>
</a>
</g>
</g>
<!-- Node2&#45;&gt;Node1 -->
<g id="edge1_Node000001_Node000002" class="edge">
<title>Node2&#45;&gt;Node1</title>
<g id="a_edge1_Node000001_Node000002"><a xlink:title=" ">
<path fill="none" stroke="#63b8ff" d="M82.88,-158.06C82.88,-145.42 82.88,-130.88 82.88,-116.73"/>
<polygon fill="none" stroke="#63b8ff" points="82.88,-116.82 78.88,-110.82 82.88,-104.82 86.88,-110.82 82.88,-116.82"/>
</a>
</g>
<text text-anchor="start" x="85.88" y="-127.5" font-family="Helvetica,sans-Serif" font-size="10.00" fill="grey">&#45;gameLevelRepository</text>
</g>
<!-- Node3 -->
<g id="Node000003" class="node">
<title>Node3</title>
<g id="a_Node000003"><a xlink:title=" ">
<polygon fill="white" stroke="none" points="149.12,-335 16.62,-335 16.62,-271 149.12,-271 149.12,-335"/>
<text text-anchor="start" x="20.62" y="-321.5" font-family="Helvetica,sans-Serif" font-size="10.00">JpaRepository&lt; GameLevel,</text>
<text text-anchor="start" x="66.75" y="-309.5" font-family="Helvetica,sans-Serif" font-size="10.00"> Byte &gt;</text>
<text text-anchor="start" x="81.38" y="-293.5" font-family="Helvetica,sans-Serif" font-size="10.00"> </text>
<text text-anchor="start" x="81.38" y="-277.5" font-family="Helvetica,sans-Serif" font-size="10.00"> </text>
<polygon fill="#666666" stroke="#666666" points="16.62,-305 16.62,-305 149.12,-305 149.12,-305 16.62,-305"/>
<polygon fill="#666666" stroke="#666666" points="16.62,-289 16.62,-289 149.12,-289 149.12,-289 16.62,-289"/>
<polygon fill="none" stroke="#666666" points="16.62,-271 16.62,-335 149.12,-335 149.12,-271 16.62,-271"/>
</a>
</g>
</g>
<!-- Node3&#45;&gt;Node2 -->
<g id="edge2_Node000002_Node000003" class="edge">
<title>Node3&#45;&gt;Node2</title>
<g id="a_edge2_Node000002_Node000003"><a xlink:title=" ">
<path fill="none" stroke="#63b8ff" d="M82.88,-259.64C82.88,-251.03 82.88,-242.04 82.88,-233.64"/>
<polygon fill="none" stroke="#63b8ff" points="79.38,-259.55 82.88,-269.55 86.38,-259.55 79.38,-259.55"/>
</a>
</g>
</g>
</g>
</svg>
