<?xml version="1.0" encoding="UTF-8" standalone="no"?>
<!DOCTYPE svg PUBLIC "-//W3C//DTD SVG 1.1//EN"
 "http://www.w3.org/Graphics/SVG/1.1/DTD/svg11.dtd">
<!-- Generated by graphviz version 12.2.1 (20241206.2353)
 -->
<!-- Title: fr.softsf.sudokufx.view.component.firework.Firework Pages: 1 -->
<!--zoomable 644 -->

<svg id="main" version="1.1" xmlns="http://www.w3.org/2000/svg" xmlns:xlink="http://www.w3.org/1999/xlink" xml:space="preserve" onload="init(evt)">

<style type="text/css"><![CDATA[
.node, .edge {opacity: 0.7;}
.node.selected, .edge.selected {opacity: 1;}
.edge:hover path { stroke: red; }
.edge:hover polygon { stroke: red; fill: red; }
]]></style>

<defs>
  <circle id="rim" cx="0" cy="0" r="7"/>
  <circle id="rim2" cx="0" cy="0" r="3.5"/>
  <g id="zoomPlus">
    <use xlink:href="#rim" fill="#404040"><set attributeName="fill" to="#808080" begin="zoomplus.mouseover" end="zoomplus.mouseout"/></use>
    <path d="M-4,0h8M0,-4v8" fill="none" stroke="white" stroke-width="1.5" pointer-events="none"/>
  </g>
  <g id="zoomMin">
    <use xlink:href="#rim" fill="#404040"><set attributeName="fill" to="#808080" begin="zoomminus.mouseover" end="zoomminus.mouseout"/></use>
    <path d="M-4,0h8" fill="none" stroke="white" stroke-width="1.5" pointer-events="none"/>
  </g>
  <g id="arrowUp" transform="translate(30 24)">
    <use xlink:href="#rim"/>
    <path pointer-events="none" fill="none" stroke="white" stroke-width="1.5" d="M0,-3.0v7 M-2.5,-0.5L0,-3.0L2.5,-0.5"/>
  </g>
  <g id="arrowRight" transform="rotate(90) translate(36 -43)">
    <use xlink:href="#rim"/>
    <path pointer-events="none" fill="none" stroke="white" stroke-width="1.5" d="M0,-3.0v7 M-2.5,-0.5L0,-3.0L2.5,-0.5"/>
  </g>
  <g id="arrowDown" transform="rotate(180) translate(-30 -48)">
    <use xlink:href="#rim"/>
    <path pointer-events="none" fill="none" stroke="white" stroke-width="1.5" d="M0,-3.0v7 M-2.5,-0.5L0,-3.0L2.5,-0.5"/>
  </g>
  <g id="arrowLeft" transform="rotate(270) translate(-36 17)">
    <use xlink:href="#rim"/>
    <path pointer-events="none" fill="none" stroke="white" stroke-width="1.5" d="M0,-3.0v7 M-2.5,-0.5L0,-3.0L2.5,-0.5"/>
  </g>
  <g id="resetDef">
    <use xlink:href="#rim2" fill="#404040"><set attributeName="fill" to="#808080" begin="reset.mouseover" end="reset.mouseout"/></use>
  </g>
</defs>
<script type="application/ecmascript">
var viewWidth = 207;
var viewHeight = 644;
var sectionId = 'dynsection-0';
</script>
<script type="application/ecmascript" xlink:href="svg.min.js"/>
<svg id="graph" class="graph">
<g id="viewport">
<title>fr.softsf.sudokufx.view.component.firework.Firework</title>
<!-- Node1 -->
<g id="Node000001" class="node">
<title>Node1</title>
<g id="a_Node000001"><a xlink:title="Reactive container for firework animation logic.">
<polygon fill="#999999" stroke="none" points="198.5,-548 0,-548 0,0 198.5,0 198.5,-548"/>
<text text-anchor="start" x="4" y="-534.5" font-family="Helvetica,sans-Serif" font-size="10.00">fr.softsf.sudokufx.view.component.firework.</text>
<text text-anchor="start" x="80.5" y="-522.5" font-family="Helvetica,sans-Serif" font-size="10.00">Firework</text>
<text text-anchor="start" x="10.88" y="-506.5" font-family="Helvetica,sans-Serif" font-size="10.00">+</text>
<text text-anchor="start" x="27.75" y="-506.5" font-family="Helvetica,sans-Serif" font-size="10.00">static final int MAXIMUM_HUE</text>
<text text-anchor="start" x="10.88" y="-490.5" font-family="Helvetica,sans-Serif" font-size="10.00">+</text>
<text text-anchor="start" x="27.75" y="-490.5" font-family="Helvetica,sans-Serif" font-size="10.00">static final double</text>
<text text-anchor="start" x="27.75" y="-478.5" font-family="Helvetica,sans-Serif" font-size="10.00"> MINIMUM_PARTICLE_RADIUS</text>
<text text-anchor="start" x="10.88" y="-462.5" font-family="Helvetica,sans-Serif" font-size="10.00">+</text>
<text text-anchor="start" x="27.75" y="-462.5" font-family="Helvetica,sans-Serif" font-size="10.00">static final int MINIMUM</text>
<text text-anchor="start" x="27.75" y="-450.5" font-family="Helvetica,sans-Serif" font-size="10.00">_PARTICLES</text>
<text text-anchor="start" x="10.88" y="-434.5" font-family="Helvetica,sans-Serif" font-size="10.00">+</text>
<text text-anchor="start" x="27.75" y="-434.5" font-family="Helvetica,sans-Serif" font-size="10.00">static final int PARTICLE</text>
<text text-anchor="start" x="27.75" y="-422.5" font-family="Helvetica,sans-Serif" font-size="10.00">_COUNT_VARIANCE</text>
<text text-anchor="start" x="10.88" y="-406.5" font-family="Helvetica,sans-Serif" font-size="10.00">+</text>
<text text-anchor="start" x="27.75" y="-406.5" font-family="Helvetica,sans-Serif" font-size="10.00">static final int PARTICLE</text>
<text text-anchor="start" x="27.75" y="-394.5" font-family="Helvetica,sans-Serif" font-size="10.00">_RADIUS_VARIANCE</text>
<text text-anchor="start" x="10.88" y="-378.5" font-family="Helvetica,sans-Serif" font-size="10.00">+</text>
<text text-anchor="start" x="27.75" y="-378.5" font-family="Helvetica,sans-Serif" font-size="10.00">static final int SPEED</text>
<text text-anchor="start" x="27.75" y="-366.5" font-family="Helvetica,sans-Serif" font-size="10.00">_VARIANCE</text>
<text text-anchor="start" x="12.38" y="-350.5" font-family="Helvetica,sans-Serif" font-size="10.00">&#45;</text>
<text text-anchor="start" x="27.75" y="-350.5" font-family="Helvetica,sans-Serif" font-size="10.00">int countdown</text>
<text text-anchor="start" x="12.38" y="-334.5" font-family="Helvetica,sans-Serif" font-size="10.00">&#45;</text>
<text text-anchor="start" x="27.75" y="-334.5" font-family="Helvetica,sans-Serif" font-size="10.00">final PauseTransition</text>
<text text-anchor="start" x="27.75" y="-322.5" font-family="Helvetica,sans-Serif" font-size="10.00"> delay</text>
<text text-anchor="start" x="12.38" y="-306.5" font-family="Helvetica,sans-Serif" font-size="10.00">&#45;</text>
<text text-anchor="start" x="27.75" y="-306.5" font-family="Helvetica,sans-Serif" font-size="10.00">final FadeTransition</text>
<text text-anchor="start" x="27.75" y="-294.5" font-family="Helvetica,sans-Serif" font-size="10.00"> fadeIn</text>
<text text-anchor="start" x="12.38" y="-278.5" font-family="Helvetica,sans-Serif" font-size="10.00">&#45;</text>
<text text-anchor="start" x="27.75" y="-278.5" font-family="Helvetica,sans-Serif" font-size="10.00">final BooleanProperty</text>
<text text-anchor="start" x="27.75" y="-266.5" font-family="Helvetica,sans-Serif" font-size="10.00"> firingProperty</text>
<text text-anchor="start" x="12.38" y="-250.5" font-family="Helvetica,sans-Serif" font-size="10.00">&#45;</text>
<text text-anchor="start" x="27.75" y="-250.5" font-family="Helvetica,sans-Serif" font-size="10.00">final List&lt; FireworkParticle</text>
<text text-anchor="start" x="27.75" y="-238.5" font-family="Helvetica,sans-Serif" font-size="10.00"> &gt; particles</text>
<text text-anchor="start" x="12.38" y="-222.5" font-family="Helvetica,sans-Serif" font-size="10.00">&#45;</text>
<text text-anchor="start" x="27.75" y="-222.5" font-family="Helvetica,sans-Serif" font-size="10.00">double spawnRatio</text>
<text text-anchor="start" x="12.38" y="-206.5" font-family="Helvetica,sans-Serif" font-size="10.00">&#45;</text>
<text text-anchor="start" x="27.75" y="-206.5" font-family="Helvetica,sans-Serif" font-size="10.00">final AnimationTimer</text>
<text text-anchor="start" x="27.75" y="-194.5" font-family="Helvetica,sans-Serif" font-size="10.00"> timer</text>
<text text-anchor="start" x="12.38" y="-178.5" font-family="Helvetica,sans-Serif" font-size="10.00">&#45;</text>
<text text-anchor="start" x="27.75" y="-178.5" font-family="Helvetica,sans-Serif" font-size="10.00">static final int DEFAULT</text>
<text text-anchor="start" x="27.75" y="-166.5" font-family="Helvetica,sans-Serif" font-size="10.00">_COUNTDOWN</text>
<text text-anchor="start" x="12.38" y="-150.5" font-family="Helvetica,sans-Serif" font-size="10.00">&#45;</text>
<text text-anchor="start" x="27.75" y="-150.5" font-family="Helvetica,sans-Serif" font-size="10.00">static final double</text>
<text text-anchor="start" x="27.75" y="-138.5" font-family="Helvetica,sans-Serif" font-size="10.00"> REFERENCE_SCREEN_WIDTH</text>
<text text-anchor="start" x="10.88" y="-122.5" font-family="Helvetica,sans-Serif" font-size="10.00">+</text>
<text text-anchor="start" x="27.75" y="-122.5" font-family="Helvetica,sans-Serif" font-size="10.00">Firework()</text>
<text text-anchor="start" x="10.88" y="-106.5" font-family="Helvetica,sans-Serif" font-size="10.00">+</text>
<text text-anchor="start" x="27.75" y="-106.5" font-family="Helvetica,sans-Serif" font-size="10.00">BooleanProperty firingProperty()</text>
<text text-anchor="start" x="12.38" y="-90.5" font-family="Helvetica,sans-Serif" font-size="10.00">&#45;</text>
<text text-anchor="start" x="27.75" y="-90.5" font-family="Helvetica,sans-Serif" font-size="10.00">record FireworkContext</text>
<text text-anchor="start" x="27.75" y="-78.5" font-family="Helvetica,sans-Serif" font-size="10.00">(Firework firework, int</text>
<text text-anchor="start" x="27.75" y="-66.5" font-family="Helvetica,sans-Serif" font-size="10.00"> width, int height, double ratio)</text>
<text text-anchor="start" x="12.38" y="-50.5" font-family="Helvetica,sans-Serif" font-size="10.00">&#45;</text>
<text text-anchor="start" x="27.75" y="-50.5" font-family="Helvetica,sans-Serif" font-size="10.00">FireworkContext getFirework</text>
<text text-anchor="start" x="27.75" y="-38.5" font-family="Helvetica,sans-Serif" font-size="10.00">Context()</text>
<text text-anchor="start" x="12.38" y="-22.5" font-family="Helvetica,sans-Serif" font-size="10.00">&#45;</text>
<text text-anchor="start" x="27.75" y="-22.5" font-family="Helvetica,sans-Serif" font-size="10.00">void ignite()</text>
<text text-anchor="start" x="12.38" y="-6.5" font-family="Helvetica,sans-Serif" font-size="10.00">&#45;</text>
<text text-anchor="start" x="27.75" y="-6.5" font-family="Helvetica,sans-Serif" font-size="10.00">void updateParticles()</text>
<polygon fill="#666666" stroke="#666666" points="0,-518 0,-518 198.5,-518 198.5,-518 0,-518"/>
<polygon fill="#666666" stroke="#666666" points="0,-134 0,-134 25.75,-134 25.75,-134 0,-134"/>
<polygon fill="#666666" stroke="#666666" points="25.75,-134 25.75,-134 198.5,-134 198.5,-134 25.75,-134"/>
<polygon fill="none" stroke="#666666" points="0,0 0,-548 198.5,-548 198.5,0 0,0"/>
</a>
</g>
</g>
<!-- Node2 -->
<g id="Node000002" class="node">
<title>Node2</title>
<g id="a_Node000002"><a xlink:title=" ">
<polygon fill="white" stroke="none" points="116.38,-636 82.12,-636 82.12,-584 116.38,-584 116.38,-636"/>
<text text-anchor="start" x="86.12" y="-622.5" font-family="Helvetica,sans-Serif" font-size="10.00">Group</text>
<text text-anchor="start" x="97.75" y="-606.5" font-family="Helvetica,sans-Serif" font-size="10.00"> </text>
<text text-anchor="start" x="97.75" y="-590.5" font-family="Helvetica,sans-Serif" font-size="10.00"> </text>
<polygon fill="#666666" stroke="#666666" points="82.12,-618 82.12,-618 116.38,-618 116.38,-618 82.12,-618"/>
<polygon fill="#666666" stroke="#666666" points="82.12,-602 82.12,-602 116.38,-602 116.38,-602 82.12,-602"/>
<polygon fill="none" stroke="#666666" points="82.12,-584 82.12,-636 116.38,-636 116.38,-584 82.12,-584"/>
</a>
</g>
</g>
<!-- Node2&#45;&gt;Node1 -->
<g id="edge1_Node000001_Node000002" class="edge">
<title>Node2&#45;&gt;Node1</title>
<g id="a_edge1_Node000001_Node000002"><a xlink:title=" ">
<path fill="none" stroke="#63b8ff" d="M99.25,-572.82C99.25,-565.31 99.25,-556.86 99.25,-547.69"/>
<polygon fill="none" stroke="#63b8ff" points="95.75,-572.66 99.25,-582.66 102.75,-572.66 95.75,-572.66"/>
</a>
</g>
</g>
</g>
</svg>

<g id="navigator" transform="translate(0 0)" fill="#404254">
  <rect fill="#f2f5e9" fill-opacity="0.5" stroke="#606060" stroke-width=".5" x="0" y="0" width="60" height="60"/>
  <use id="zoomplus" xlink:href="#zoomPlus" x="17" y="9" onmousedown="handleZoom(evt,'in')"/>
  <use id="zoomminus" xlink:href="#zoomMin" x="42" y="9" onmousedown="handleZoom(evt,'out')"/>
  <use id="reset" xlink:href="#resetDef" x="30" y="36" onmousedown="handleReset()"/>
   <use id="arrowup" xlink:href="#arrowUp" x="0" y="0" onmousedown="handlePan(0,-1)"/>
  <use id="arrowright" xlink:href="#arrowRight" x="0" y="0" onmousedown="handlePan(1,0)"/>
  <use id="arrowdown" xlink:href="#arrowDown" x="0" y="0" onmousedown="handlePan(0,1)"/>
  <use id="arrowleft" xlink:href="#arrowLeft" x="0" y="0" onmousedown="handlePan(-1,0)"/>
</g>
<svg viewBox="0 0 15 15" width="100%" height="30px" preserveAspectRatio="xMaxYMin meet">
 <g id="arrow_out" transform="scale(0.3 0.3)">
  <a xlink:href="classfr_1_1softsf_1_1sudokufx_1_1view_1_1component_1_1firework_1_1_firework__inherit__graph_org.svg" target="_base">
   <rect id="button" ry="5" rx="5" y="6" x="6" height="38" width="38"
        fill="#f2f5e9" fill-opacity="0.5" stroke="#606060" stroke-width="1.0"/>
   <path id="arrow"
     d="M 11.500037,31.436501 C 11.940474,20.09759 22.043105,11.32322 32.158766,21.979434 L 37.068811,17.246167 C 37.068811,17.246167 37.088388,32 37.088388,32 L 22.160133,31.978069 C 22.160133,31.978069 26.997745,27.140456 26.997745,27.140456 C 18.528582,18.264221 13.291696,25.230495 11.500037,31.436501 z"
     style="fill:#404040;"/>
  </a>
 </g>
</svg>

<style type='text/css'>
<![CDATA[
[data-mouse-over-selected='false'] { opacity: 0.7; }
[data-mouse-over-selected='true']  { opacity: 1.0; }
]]>
</style>
<script type="application/ecmascript"><![CDATA[
document.addEventListener('DOMContentLoaded', (event) => {
  highlightEdges();
  highlightAdjacentNodes();
});
]]></script>
</svg>
