<?xml version="1.0" encoding="UTF-8" standalone="no"?>
<!DOCTYPE svg PUBLIC "-//W3C//DTD SVG 1.1//EN"
 "http://www.w3.org/Graphics/SVG/1.1/DTD/svg11.dtd">
<!-- Generated by graphviz version 12.2.1 (20241206.2353)
 -->
<!-- Title: fr.softsf.sudokufx.viewmodel.MenuPlayerViewModel.loadPlayers Pages: 1 -->
<svg width="987pt" height="163pt"
 viewBox="0.00 0.00 986.50 163.00" xmlns="http://www.w3.org/2000/svg" xmlns:xlink="http://www.w3.org/1999/xlink">
<g id="graph0" class="graph" transform="scale(1 1) rotate(0) translate(4 159)">
<title>fr.softsf.sudokufx.viewmodel.MenuPlayerViewModel.loadPlayers</title>
<!-- Node1 -->
<g id="Node000001" class="node">
<title>Node1</title>
<g id="a_Node000001"><a xlink:title="Loads test players into the observable list.">
<polygon fill="#999999" stroke="#666666" points="169.75,-98 0,-98 0,-66 169.75,-66 169.75,-98"/>
<text text-anchor="start" x="8" y="-84.5" font-family="Helvetica,sans-Serif" font-size="10.00">fr.softsf.sudokufx.viewmodel.</text>
<text text-anchor="middle" x="84.88" y="-72.5" font-family="Helvetica,sans-Serif" font-size="10.00">MenuPlayerViewModel.loadPlayers</text>
</a>
</g>
</g>
<!-- Node2 -->
<g id="Node000002" class="node">
<title>Node2</title>
<g id="a_Node000002"><a xlink:href="classfr_1_1softsf_1_1sudokufx_1_1viewmodel_1_1_menu_player_view_model.html#aee456e9687b1301a3d7559374d989855" target="_top" xlink:title="Generates a sample PlayerDto instance for testing purposes.">
<polygon fill="white" stroke="#666666" points="389.75,-104 205.75,-104 205.75,-60 389.75,-60 389.75,-104"/>
<text text-anchor="start" x="213.75" y="-90.5" font-family="Helvetica,sans-Serif" font-size="10.00">fr.softsf.sudokufx.viewmodel.</text>
<text text-anchor="start" x="213.75" y="-78.5" font-family="Helvetica,sans-Serif" font-size="10.00">MenuPlayerViewModel.generatePlayer</text>
<text text-anchor="middle" x="297.75" y="-66.5" font-family="Helvetica,sans-Serif" font-size="10.00">ForTests</text>
</a>
</g>
</g>
<!-- Node1&#45;&gt;Node2 -->
<g id="edge1_Node000001_Node000002" class="edge">
<title>Node1&#45;&gt;Node2</title>
<g id="a_edge1_Node000001_Node000002"><a xlink:title=" ">
<path fill="none" stroke="#63b8ff" d="M170.13,-82C178,-82 186.04,-82 194.06,-82"/>
<polygon fill="#63b8ff" stroke="#63b8ff" points="193.85,-85.5 203.85,-82 193.85,-78.5 193.85,-85.5"/>
</a>
</g>
</g>
<!-- Node3 -->
<g id="Node000003" class="node">
<title>Node3</title>
<g id="a_Node000003"><a xlink:href="namespacefr_1_1softsf_1_1sudokufx_1_1dto.html#a74a25e6890e40c0776edc15742133036" target="_top" xlink:title=" ">
<polygon fill="white" stroke="#666666" points="796.75,-155 617.25,-155 617.25,-135 796.75,-135 796.75,-155"/>
<text text-anchor="middle" x="707" y="-141.5" font-family="Helvetica,sans-Serif" font-size="10.00">fr.softsf.sudokufx.dto.BackgroundDto</text>
</a>
</g>
</g>
<!-- Node2&#45;&gt;Node3 -->
<g id="edge2_Node000002_Node000003" class="edge">
<title>Node2&#45;&gt;Node3</title>
<g id="a_edge2_Node000002_Node000003"><a xlink:title=" ">
<path fill="none" stroke="#63b8ff" d="M390.15,-102.36C402.09,-104.75 414.19,-107.03 425.75,-109 485.23,-119.13 552.25,-127.83 605.83,-134.15"/>
<polygon fill="#63b8ff" stroke="#63b8ff" points="605.21,-137.6 615.55,-135.28 606.03,-130.64 605.21,-137.6"/>
</a>
</g>
</g>
<!-- Node4 -->
<g id="Node000004" class="node">
<title>Node4</title>
<g id="a_Node000004"><a xlink:href="namespacefr_1_1softsf_1_1sudokufx_1_1dto.html#a4b93797829452798604adaaaf4b0da89" target="_top" xlink:title=" ">
<polygon fill="white" stroke="#666666" points="782.88,-114 631.12,-114 631.12,-94 782.88,-94 782.88,-114"/>
<text text-anchor="middle" x="707" y="-100.5" font-family="Helvetica,sans-Serif" font-size="10.00">fr.softsf.sudokufx.dto.MenuDto</text>
</a>
</g>
</g>
<!-- Node2&#45;&gt;Node4 -->
<g id="edge3_Node000002_Node000004" class="edge">
<title>Node2&#45;&gt;Node4</title>
<g id="a_edge3_Node000002_Node000004"><a xlink:title=" ">
<path fill="none" stroke="#63b8ff" d="M389.96,-88.73C401.99,-89.54 414.17,-90.32 425.75,-91 490.69,-94.81 564.14,-98.18 619.55,-100.54"/>
<polygon fill="#63b8ff" stroke="#63b8ff" points="619.09,-104.02 629.23,-100.94 619.38,-97.02 619.09,-104.02"/>
</a>
</g>
</g>
<!-- Node5 -->
<g id="Node000005" class="node">
<title>Node5</title>
<g id="a_Node000005"><a xlink:href="namespacefr_1_1softsf_1_1sudokufx_1_1dto.html#a1862f40401c051e5ca0d9444152882cf" target="_top" xlink:title=" ">
<polygon fill="white" stroke="#666666" points="581.25,-64 425.75,-64 425.75,-44 581.25,-44 581.25,-64"/>
<text text-anchor="middle" x="503.5" y="-50.5" font-family="Helvetica,sans-Serif" font-size="10.00">fr.softsf.sudokufx.dto.PlayerDto</text>
</a>
</g>
</g>
<!-- Node2&#45;&gt;Node5 -->
<g id="edge4_Node000002_Node000005" class="edge">
<title>Node2&#45;&gt;Node5</title>
<g id="a_edge4_Node000002_Node000005"><a xlink:title=" ">
<path fill="none" stroke="#63b8ff" d="M390.2,-69.43C398.49,-68.29 406.87,-67.14 415.13,-66.01"/>
<polygon fill="#63b8ff" stroke="#63b8ff" points="415.35,-69.51 424.78,-64.68 414.4,-62.57 415.35,-69.51"/>
</a>
</g>
</g>
<!-- Node9 -->
<g id="Node000009" class="node">
<title>Node9</title>
<g id="a_Node000009"><a xlink:href="namespacefr_1_1softsf_1_1sudokufx_1_1dto.html#a57e3465d00d6e83a9d0fd8c03223868d" target="_top" xlink:title=" ">
<polygon fill="white" stroke="#666666" points="776.88,-32 637.12,-32 637.12,0 776.88,0 776.88,-32"/>
<text text-anchor="start" x="645.12" y="-18.5" font-family="Helvetica,sans-Serif" font-size="10.00">fr.softsf.sudokufx.dto.Player</text>
<text text-anchor="middle" x="707" y="-6.5" font-family="Helvetica,sans-Serif" font-size="10.00">LanguageDto</text>
</a>
</g>
</g>
<!-- Node2&#45;&gt;Node9 -->
<g id="edge12_Node000002_Node000009" class="edge">
<title>Node2&#45;&gt;Node9</title>
<g id="a_edge12_Node000002_Node000009"><a xlink:title=" ">
<path fill="none" stroke="#63b8ff" d="M349.04,-59.6C371.98,-50.38 399.77,-40.57 425.75,-35 492,-20.81 568.88,-16.42 625.34,-15.38"/>
<polygon fill="#63b8ff" stroke="#63b8ff" points="625.25,-18.88 635.2,-15.23 625.14,-11.88 625.25,-18.88"/>
</a>
</g>
</g>
<!-- Node5&#45;&gt;Node3 -->
<g id="edge5_Node000005_Node000003" class="edge">
<title>Node5&#45;&gt;Node3</title>
<g id="a_edge5_Node000005_Node000003"><a xlink:title=" ">
<path fill="none" stroke="#63b8ff" d="M518.33,-64.42C538.88,-79.42 579.14,-107.06 617.25,-123 624.99,-126.24 633.31,-129.07 641.66,-131.54"/>
<polygon fill="#63b8ff" stroke="#63b8ff" points="640.55,-134.87 651.12,-134.16 642.42,-128.12 640.55,-134.87"/>
</a>
</g>
</g>
<!-- Node5&#45;&gt;Node4 -->
<g id="edge9_Node000005_Node000004" class="edge">
<title>Node5&#45;&gt;Node4</title>
<g id="a_edge9_Node000005_Node000004"><a xlink:title=" ">
<path fill="none" stroke="#63b8ff" d="M546.74,-64.48C577.64,-72.15 619.77,-82.6 652.94,-90.83"/>
<polygon fill="#63b8ff" stroke="#63b8ff" points="651.8,-94.16 662.35,-93.17 653.48,-87.36 651.8,-94.16"/>
</a>
</g>
</g>
<!-- Node5&#45;&gt;Node5 -->
<g id="edge10_Node000005_Node000005" class="edge">
<title>Node5&#45;&gt;Node5</title>
<g id="a_edge10_Node000005_Node000005"><a xlink:title=" ">
<path fill="none" stroke="#63b8ff" d="M471.17,-64.34C457.35,-72.98 468.13,-82 503.5,-82 523.4,-82 535.51,-79.14 539.85,-75.11"/>
<polygon fill="#63b8ff" stroke="#63b8ff" points="543.13,-73.91 536.36,-65.76 536.57,-76.35 543.13,-73.91"/>
</a>
</g>
</g>
<!-- Node6 -->
<g id="Node000006" class="node">
<title>Node6</title>
<g id="a_Node000006"><a xlink:href="namespacefr_1_1softsf_1_1sudokufx_1_1dto.html#a37aaf8c06967608e0eac24a4d458f34b" target="_top" xlink:title=" ">
<polygon fill="white" stroke="#666666" points="784,-70 630,-70 630,-50 784,-50 784,-70"/>
<text text-anchor="middle" x="707" y="-56.5" font-family="Helvetica,sans-Serif" font-size="10.00">fr.softsf.sudokufx.dto.GameDto</text>
</a>
</g>
</g>
<!-- Node5&#45;&gt;Node6 -->
<g id="edge6_Node000005_Node000006" class="edge">
<title>Node5&#45;&gt;Node6</title>
<g id="a_edge6_Node000005_Node000006"><a xlink:title=" ">
<path fill="none" stroke="#63b8ff" d="M581.54,-56.29C593.62,-56.65 606.18,-57.03 618.47,-57.39"/>
<polygon fill="#63b8ff" stroke="#63b8ff" points="618.06,-60.88 628.15,-57.68 618.26,-53.89 618.06,-60.88"/>
</a>
</g>
</g>
<!-- Node5&#45;&gt;Node9 -->
<g id="edge11_Node000005_Node000009" class="edge">
<title>Node5&#45;&gt;Node9</title>
<g id="a_edge11_Node000005_Node000009"><a xlink:title=" ">
<path fill="none" stroke="#63b8ff" d="M560.09,-43.52C580.42,-39.68 603.85,-35.26 625.89,-31.11"/>
<polygon fill="#63b8ff" stroke="#63b8ff" points="626.26,-34.6 635.44,-29.31 624.96,-27.72 626.26,-34.6"/>
</a>
</g>
</g>
<!-- Node7 -->
<g id="Node000007" class="node">
<title>Node7</title>
<g id="a_Node000007"><a xlink:href="namespacefr_1_1softsf_1_1sudokufx_1_1dto.html#a82b953d912bf7621392b51e45915af32" target="_top" xlink:title=" ">
<polygon fill="white" stroke="#666666" points="974.75,-98 836.5,-98 836.5,-66 974.75,-66 974.75,-98"/>
<text text-anchor="start" x="844.5" y="-84.5" font-family="Helvetica,sans-Serif" font-size="10.00">fr.softsf.sudokufx.dto.Game</text>
<text text-anchor="middle" x="905.62" y="-72.5" font-family="Helvetica,sans-Serif" font-size="10.00">LevelDto</text>
</a>
</g>
</g>
<!-- Node6&#45;&gt;Node7 -->
<g id="edge7_Node000006_Node000007" class="edge">
<title>Node6&#45;&gt;Node7</title>
<g id="a_edge7_Node000006_Node000007"><a xlink:title=" ">
<path fill="none" stroke="#63b8ff" d="M784.3,-68.54C797.63,-70.03 811.52,-71.58 824.93,-73.08"/>
<polygon fill="#63b8ff" stroke="#63b8ff" points="824.23,-76.53 834.56,-74.16 825.01,-69.57 824.23,-76.53"/>
</a>
</g>
</g>
<!-- Node8 -->
<g id="Node000008" class="node">
<title>Node8</title>
<g id="a_Node000008"><a xlink:href="namespacefr_1_1softsf_1_1sudokufx_1_1dto.html#a55eaa4f45339420cc86114a3d8dab18b" target="_top" xlink:title=" ">
<polygon fill="white" stroke="#666666" points="978.5,-48 832.75,-48 832.75,-28 978.5,-28 978.5,-48"/>
<text text-anchor="middle" x="905.62" y="-34.5" font-family="Helvetica,sans-Serif" font-size="10.00">fr.softsf.sudokufx.dto.GridDto</text>
</a>
</g>
</g>
<!-- Node6&#45;&gt;Node8 -->
<g id="edge8_Node000006_Node000008" class="edge">
<title>Node6&#45;&gt;Node8</title>
<g id="a_edge8_Node000006_Node000008"><a xlink:title=" ">
<path fill="none" stroke="#63b8ff" d="M784.3,-51.46C796.45,-50.1 809.07,-48.69 821.37,-47.31"/>
<polygon fill="#63b8ff" stroke="#63b8ff" points="821.5,-50.82 831.05,-46.23 820.72,-43.87 821.5,-50.82"/>
</a>
</g>
</g>
</g>
</svg>
