<?xml version="1.0" encoding="UTF-8" standalone="no"?>
<!DOCTYPE svg PUBLIC "-//W3C//DTD SVG 1.1//EN"
 "http://www.w3.org/Graphics/SVG/1.1/DTD/svg11.dtd">
<!-- Generated by graphviz version 12.2.1 (20241206.2353)
 -->
<!-- Title: fr.softsf.sudokufx.SudoMain.start Pages: 1 -->
<svg width="639pt" height="190pt"
 viewBox="0.00 0.00 638.75 190.00" xmlns="http://www.w3.org/2000/svg" xmlns:xlink="http://www.w3.org/1999/xlink">
<g id="graph0" class="graph" transform="scale(1 1) rotate(0) translate(4 186)">
<title>fr.softsf.sudokufx.SudoMain.start</title>
<!-- Node1 -->
<g id="Node000001" class="node">
<title>Node1</title>
<g id="a_Node000001"><a xlink:title="Initializes the application by:">
<polygon fill="#999999" stroke="#666666" points="161.5,-101 0,-101 0,-81 161.5,-81 161.5,-101"/>
<text text-anchor="middle" x="80.75" y="-87.5" font-family="Helvetica,sans-Serif" font-size="10.00">fr.softsf.sudokufx.SudoMain.start</text>
</a>
</g>
</g>
<!-- Node2 -->
<g id="Node000002" class="node">
<title>Node2</title>
<g id="a_Node000002"><a xlink:href="classfr_1_1softsf_1_1sudokufx_1_1common_1_1util_1_1_spring_context_initializer.html#a47bf17815f589e97be5c140f9005f5d0" target="_top" xlink:title="Creates a JavaFX Task that initializes the Spring context.">
<polygon fill="white" stroke="#666666" points="417.5,-182 197.5,-182 197.5,-150 417.5,-150 417.5,-182"/>
<text text-anchor="start" x="205.5" y="-168.5" font-family="Helvetica,sans-Serif" font-size="10.00">fr.softsf.sudokufx.common.util.</text>
<text text-anchor="middle" x="307.5" y="-156.5" font-family="Helvetica,sans-Serif" font-size="10.00">SpringContextInitializer.createInitializationTask</text>
</a>
</g>
</g>
<!-- Node1&#45;&gt;Node2 -->
<g id="edge1_Node000001_Node000002" class="edge">
<title>Node1&#45;&gt;Node2</title>
<g id="a_edge1_Node000001_Node000002"><a xlink:title=" ">
<path fill="none" stroke="#63b8ff" d="M102.63,-101.4C125.48,-112.45 163.38,-129.82 197.5,-141 203.53,-142.97 209.79,-144.85 216.14,-146.63"/>
<polygon fill="#63b8ff" stroke="#63b8ff" points="214.83,-149.9 225.39,-149.12 216.65,-143.14 214.83,-149.9"/>
</a>
</g>
</g>
<!-- Node3 -->
<g id="Node000003" class="node">
<title>Node3</title>
<g id="a_Node000003"><a xlink:href="classfr_1_1softsf_1_1sudokufx_1_1_sudo_main.html#a5f0246399e65a32405abe1ed415219ee" target="_top" xlink:title="Called when the Spring context initialization task fails.">
<polygon fill="white" stroke="#666666" points="392.75,-82 222.25,-82 222.25,-50 392.75,-50 392.75,-82"/>
<text text-anchor="start" x="230.25" y="-68.5" font-family="Helvetica,sans-Serif" font-size="10.00">fr.softsf.sudokufx.SudoMain.handle</text>
<text text-anchor="middle" x="307.5" y="-56.5" font-family="Helvetica,sans-Serif" font-size="10.00">SpringContextTaskFailed</text>
</a>
</g>
</g>
<!-- Node1&#45;&gt;Node3 -->
<g id="edge2_Node000001_Node000003" class="edge">
<title>Node1&#45;&gt;Node3</title>
<g id="a_edge2_Node000001_Node000003"><a xlink:title=" ">
<path fill="none" stroke="#63b8ff" d="M161.94,-82.08C177.71,-80.33 194.41,-78.47 210.64,-76.66"/>
<polygon fill="#63b8ff" stroke="#63b8ff" points="210.72,-80.18 220.28,-75.59 209.95,-73.22 210.72,-80.18"/>
</a>
</g>
</g>
<!-- Node7 -->
<g id="Node000007" class="node">
<title>Node7</title>
<g id="a_Node000007"><a xlink:href="classfr_1_1softsf_1_1sudokufx_1_1_sudo_main.html#afa5bb361c3c4da3cef227f656f09c3e3" target="_top" xlink:title="Handles the success of the Spring context initialization task.">
<polygon fill="white" stroke="#666666" points="392.75,-132 222.25,-132 222.25,-100 392.75,-100 392.75,-132"/>
<text text-anchor="start" x="230.25" y="-118.5" font-family="Helvetica,sans-Serif" font-size="10.00">fr.softsf.sudokufx.SudoMain.handle</text>
<text text-anchor="middle" x="307.5" y="-106.5" font-family="Helvetica,sans-Serif" font-size="10.00">SpringContextTaskSuccess</text>
</a>
</g>
</g>
<!-- Node1&#45;&gt;Node7 -->
<g id="edge6_Node000001_Node000007" class="edge">
<title>Node1&#45;&gt;Node7</title>
<g id="a_edge6_Node000001_Node000007"><a xlink:title=" ">
<path fill="none" stroke="#63b8ff" d="M161.94,-99.92C177.71,-101.67 194.41,-103.53 210.64,-105.34"/>
<polygon fill="#63b8ff" stroke="#63b8ff" points="209.95,-108.78 220.28,-106.41 210.72,-101.82 209.95,-108.78"/>
</a>
</g>
</g>
<!-- Node8 -->
<g id="Node000008" class="node">
<title>Node8</title>
<g id="a_Node000008"><a xlink:href="classfr_1_1softsf_1_1sudokufx_1_1common_1_1util_1_1_spring_context_initializer.html#a7185e1ba2b9219e85f8308a3425fb26e" target="_top" xlink:title="Starts the given JavaFX Task in a new background thread.">
<polygon fill="white" stroke="#666666" points="410.75,-32 204.25,-32 204.25,0 410.75,0 410.75,-32"/>
<text text-anchor="start" x="212.25" y="-18.5" font-family="Helvetica,sans-Serif" font-size="10.00">fr.softsf.sudokufx.common.util.</text>
<text text-anchor="middle" x="307.5" y="-6.5" font-family="Helvetica,sans-Serif" font-size="10.00">SpringContextInitializer.runInitializationTask</text>
</a>
</g>
</g>
<!-- Node1&#45;&gt;Node8 -->
<g id="edge9_Node000001_Node000008" class="edge">
<title>Node1&#45;&gt;Node8</title>
<g id="a_edge9_Node000001_Node000008"><a xlink:title=" ">
<path fill="none" stroke="#63b8ff" d="M102.63,-80.6C125.48,-69.55 163.38,-52.18 197.5,-41 203.53,-39.03 209.79,-37.15 216.14,-35.37"/>
<polygon fill="#63b8ff" stroke="#63b8ff" points="216.65,-38.86 225.39,-32.88 214.83,-32.1 216.65,-38.86"/>
</a>
</g>
</g>
<!-- Node4 -->
<g id="Node000004" class="node">
<title>Node4</title>
<g id="a_Node000004"><a xlink:href="classfr_1_1softsf_1_1sudokufx_1_1_sudo_main.html#a704995783c20421c9b428d357752c06b" target="_top" xlink:title="Creates a PauseTransition to delay loading of the next view.">
<polygon fill="white" stroke="#666666" points="626.62,-82 457.62,-82 457.62,-50 626.62,-50 626.62,-82"/>
<text text-anchor="start" x="465.62" y="-68.5" font-family="Helvetica,sans-Serif" font-size="10.00">fr.softsf.sudokufx.SudoMain.create</text>
<text text-anchor="middle" x="542.12" y="-56.5" font-family="Helvetica,sans-Serif" font-size="10.00">ViewTransition</text>
</a>
</g>
</g>
<!-- Node3&#45;&gt;Node4 -->
<g id="edge3_Node000003_Node000004" class="edge">
<title>Node3&#45;&gt;Node4</title>
<g id="a_edge3_Node000003_Node000004"><a xlink:title=" ">
<path fill="none" stroke="#63b8ff" d="M393.14,-66C410.3,-66 428.45,-66 445.94,-66"/>
<polygon fill="#63b8ff" stroke="#63b8ff" points="445.81,-69.5 455.81,-66 445.81,-62.5 445.81,-69.5"/>
</a>
</g>
</g>
<!-- Node5 -->
<g id="Node000005" class="node">
<title>Node5</title>
<g id="a_Node000005"><a xlink:href="classfr_1_1softsf_1_1sudokufx_1_1_sudo_main.html#a82b89e0e97248236a98e8bd95f897c20" target="_top" xlink:title="Ensures the Coordinator is initialized if not already (e.g., if Spring injection failed).">
<polygon fill="white" stroke="#666666" points="630.75,-132 453.5,-132 453.5,-100 630.75,-100 630.75,-132"/>
<text text-anchor="start" x="461.5" y="-118.5" font-family="Helvetica,sans-Serif" font-size="10.00">fr.softsf.sudokufx.SudoMain.initialize</text>
<text text-anchor="middle" x="542.12" y="-106.5" font-family="Helvetica,sans-Serif" font-size="10.00">Coordinator</text>
</a>
</g>
</g>
<!-- Node3&#45;&gt;Node5 -->
<g id="edge4_Node000003_Node000005" class="edge">
<title>Node3&#45;&gt;Node5</title>
<g id="a_edge4_Node000003_Node000005"><a xlink:title=" ">
<path fill="none" stroke="#63b8ff" d="M384.99,-82.44C406.86,-87.14 430.86,-92.3 453.34,-97.13"/>
<polygon fill="#63b8ff" stroke="#63b8ff" points="452.59,-100.55 463.11,-99.23 454.07,-93.71 452.59,-100.55"/>
</a>
</g>
</g>
<!-- Node6 -->
<g id="Node000006" class="node">
<title>Node6</title>
<g id="a_Node000006"><a xlink:href="classfr_1_1softsf_1_1sudokufx_1_1_sudo_main.html#a7f44ea69c674694f9ea334ec052a05b3" target="_top" xlink:title="Handles SQL invalid authorization exceptions.">
<polygon fill="white" stroke="#666666" points="619.5,-32 464.75,-32 464.75,0 619.5,0 619.5,-32"/>
<text text-anchor="start" x="472.75" y="-18.5" font-family="Helvetica,sans-Serif" font-size="10.00">fr.softsf.sudokufx.SudoMain.sql</text>
<text text-anchor="middle" x="542.12" y="-6.5" font-family="Helvetica,sans-Serif" font-size="10.00">InvalidAuthorization</text>
</a>
</g>
</g>
<!-- Node3&#45;&gt;Node6 -->
<g id="edge5_Node000003_Node000006" class="edge">
<title>Node3&#45;&gt;Node6</title>
<g id="a_edge5_Node000003_Node000006"><a xlink:title=" ">
<path fill="none" stroke="#63b8ff" d="M384.99,-49.56C406.86,-44.86 430.86,-39.7 453.34,-34.87"/>
<polygon fill="#63b8ff" stroke="#63b8ff" points="454.07,-38.29 463.11,-32.77 452.59,-31.45 454.07,-38.29"/>
</a>
</g>
</g>
<!-- Node7&#45;&gt;Node4 -->
<g id="edge7_Node000007_Node000004" class="edge">
<title>Node7&#45;&gt;Node4</title>
<g id="a_edge7_Node000007_Node000004"><a xlink:title=" ">
<path fill="none" stroke="#63b8ff" d="M384.99,-99.56C406.86,-94.86 430.86,-89.7 453.34,-84.87"/>
<polygon fill="#63b8ff" stroke="#63b8ff" points="454.07,-88.29 463.11,-82.77 452.59,-81.45 454.07,-88.29"/>
</a>
</g>
</g>
<!-- Node7&#45;&gt;Node5 -->
<g id="edge8_Node000007_Node000005" class="edge">
<title>Node7&#45;&gt;Node5</title>
<g id="a_edge8_Node000007_Node000005"><a xlink:title=" ">
<path fill="none" stroke="#63b8ff" d="M393.14,-116C408.97,-116 425.65,-116 441.88,-116"/>
<polygon fill="#63b8ff" stroke="#63b8ff" points="441.51,-119.5 451.51,-116 441.51,-112.5 441.51,-119.5"/>
</a>
</g>
</g>
</g>
</svg>
