<?xml version="1.0" encoding="UTF-8" standalone="no"?>
<!DOCTYPE svg PUBLIC "-//W3C//DTD SVG 1.1//EN"
 "http://www.w3.org/Graphics/SVG/1.1/DTD/svg11.dtd">
<!-- Generated by graphviz version 12.2.1 (20241206.2353)
 -->
<!-- Title: fr.softsf.sudokufx.config.MyLogbackConfig.configureLogback Pages: 1 -->
<svg width="626pt" height="90pt"
 viewBox="0.00 0.00 626.00 90.00" xmlns="http://www.w3.org/2000/svg" xmlns:xlink="http://www.w3.org/1999/xlink">
<g id="graph0" class="graph" transform="scale(1 1) rotate(0) translate(4 86)">
<title>fr.softsf.sudokufx.config.MyLogbackConfig.configureLogback</title>
<!-- Node1 -->
<g id="Node000001" class="node">
<title>Node1</title>
<g id="a_Node000001"><a xlink:title="Configures Logback using the specified configuration file.">
<polygon fill="#999999" stroke="#666666" points="174.25,-57 0,-57 0,-25 174.25,-25 174.25,-57"/>
<text text-anchor="start" x="8" y="-43.5" font-family="Helvetica,sans-Serif" font-size="10.00">fr.softsf.sudokufx.config.</text>
<text text-anchor="middle" x="87.12" y="-31.5" font-family="Helvetica,sans-Serif" font-size="10.00">MyLogbackConfig.configureLogback</text>
</a>
</g>
</g>
<!-- Node2 -->
<g id="Node000002" class="node">
<title>Node2</title>
<g id="a_Node000002"><a xlink:href="classfr_1_1softsf_1_1sudokufx_1_1config_1_1_my_logback_config.html#ad5c2f554f0e1f109339ad6456751d970" target="_top" xlink:title="Constructor that initializes the logging configuration.">
<polygon fill="white" stroke="#666666" points="386.75,-57 210.25,-57 210.25,-25 386.75,-25 386.75,-57"/>
<text text-anchor="start" x="218.25" y="-43.5" font-family="Helvetica,sans-Serif" font-size="10.00">fr.softsf.sudokufx.config.</text>
<text text-anchor="middle" x="298.5" y="-31.5" font-family="Helvetica,sans-Serif" font-size="10.00">MyLogbackConfig.MyLogbackConfig</text>
</a>
</g>
</g>
<!-- Node1&#45;&gt;Node2 -->
<g id="edge1_Node000001_Node000002" class="edge">
<title>Node1&#45;&gt;Node2</title>
<g id="a_edge1_Node000001_Node000002"><a xlink:title=" ">
<path fill="none" stroke="#63b8ff" d="M174.49,-34.34C182.46,-34.26 190.57,-34.23 198.63,-34.26"/>
<polygon fill="#63b8ff" stroke="#63b8ff" points="198.44,-37.76 208.46,-34.32 198.49,-30.76 198.44,-37.76"/>
</a>
</g>
</g>
<!-- Node2&#45;&gt;Node1 -->
<g id="edge2_Node000002_Node000001" class="edge">
<title>Node2&#45;&gt;Node1</title>
<g id="a_edge2_Node000002_Node000001"><a xlink:title=" ">
<path fill="none" stroke="#63b8ff" d="M209.98,-47.67C202,-47.74 193.89,-47.77 185.83,-47.74"/>
<polygon fill="#63b8ff" stroke="#63b8ff" points="186.03,-44.24 176.01,-47.67 185.98,-51.24 186.03,-44.24"/>
</a>
</g>
</g>
<!-- Node3 -->
<g id="Node000003" class="node">
<title>Node3</title>
<g id="a_Node000003"><a xlink:href="classfr_1_1softsf_1_1sudokufx_1_1config_1_1_my_logback_config.html#aebe58385063c387d9b27bce0ad2493fc" target="_top" xlink:title="Logs the ASCII logo (with app name and version), an optional optimization message at startup.">
<polygon fill="white" stroke="#666666" points="618,-82 422.75,-82 422.75,-50 618,-50 618,-82"/>
<text text-anchor="start" x="430.75" y="-68.5" font-family="Helvetica,sans-Serif" font-size="10.00">fr.softsf.sudokufx.config.</text>
<text text-anchor="middle" x="520.38" y="-56.5" font-family="Helvetica,sans-Serif" font-size="10.00">MyLogbackConfig.printLogEntryMessage</text>
</a>
</g>
</g>
<!-- Node2&#45;&gt;Node3 -->
<g id="edge3_Node000002_Node000003" class="edge">
<title>Node2&#45;&gt;Node3</title>
<g id="a_edge3_Node000002_Node000003"><a xlink:title=" ">
<path fill="none" stroke="#63b8ff" d="M387.03,-50.95C394.93,-51.85 402.98,-52.77 411.03,-53.68"/>
<polygon fill="#63b8ff" stroke="#63b8ff" points="410.54,-57.15 420.87,-54.8 411.33,-50.19 410.54,-57.15"/>
</a>
</g>
</g>
<!-- Node4 -->
<g id="Node000004" class="node">
<title>Node4</title>
<g id="a_Node000004"><a xlink:href="classfr_1_1softsf_1_1sudokufx_1_1config_1_1_my_logback_config.html#accf2f4cc3c02cec1068849bd4ab833d2" target="_top" xlink:title="Prints the logger status to the log in case of errors or warnings.">
<polygon fill="white" stroke="#666666" points="600.75,-32 440,-32 440,0 600.75,0 600.75,-32"/>
<text text-anchor="start" x="448" y="-18.5" font-family="Helvetica,sans-Serif" font-size="10.00">fr.softsf.sudokufx.config.</text>
<text text-anchor="middle" x="520.38" y="-6.5" font-family="Helvetica,sans-Serif" font-size="10.00">MyLogbackConfig.printLogStatus</text>
</a>
</g>
</g>
<!-- Node2&#45;&gt;Node4 -->
<g id="edge4_Node000002_Node000004" class="edge">
<title>Node2&#45;&gt;Node4</title>
<g id="a_edge4_Node000002_Node000004"><a xlink:title=" ">
<path fill="none" stroke="#63b8ff" d="M387.03,-31.05C400.6,-29.5 414.64,-27.91 428.28,-26.36"/>
<polygon fill="#63b8ff" stroke="#63b8ff" points="428.59,-29.85 438.13,-25.24 427.79,-22.89 428.59,-29.85"/>
</a>
</g>
</g>
</g>
</svg>
