<?xml version="1.0" encoding="UTF-8" standalone="no"?>
<!DOCTYPE svg PUBLIC "-//W3C//DTD SVG 1.1//EN"
 "http://www.w3.org/Graphics/SVG/1.1/DTD/svg11.dtd">
<!-- Generated by graphviz version 12.2.1 (20241206.2353)
 -->
<!-- Title: fr.softsf.sudokufx.common.util.sudoku.GridMaster.genererLaGrilleAResoudre Pages: 1 -->
<!--zoomable 396 -->

<svg id="main" version="1.1" xmlns="http://www.w3.org/2000/svg" xmlns:xlink="http://www.w3.org/1999/xlink" xml:space="preserve" onload="init(evt)">

<style type="text/css"><![CDATA[
.node, .edge {opacity: 0.7;}
.node.selected, .edge.selected {opacity: 1;}
.edge:hover path { stroke: red; }
.edge:hover polygon { stroke: red; fill: red; }
]]></style>

<defs>
  <circle id="rim" cx="0" cy="0" r="7"/>
  <circle id="rim2" cx="0" cy="0" r="3.5"/>
  <g id="zoomPlus">
    <use xlink:href="#rim" fill="#404040"><set attributeName="fill" to="#808080" begin="zoomplus.mouseover" end="zoomplus.mouseout"/></use>
    <path d="M-4,0h8M0,-4v8" fill="none" stroke="white" stroke-width="1.5" pointer-events="none"/>
  </g>
  <g id="zoomMin">
    <use xlink:href="#rim" fill="#404040"><set attributeName="fill" to="#808080" begin="zoomminus.mouseover" end="zoomminus.mouseout"/></use>
    <path d="M-4,0h8" fill="none" stroke="white" stroke-width="1.5" pointer-events="none"/>
  </g>
  <g id="arrowUp" transform="translate(30 24)">
    <use xlink:href="#rim"/>
    <path pointer-events="none" fill="none" stroke="white" stroke-width="1.5" d="M0,-3.0v7 M-2.5,-0.5L0,-3.0L2.5,-0.5"/>
  </g>
  <g id="arrowRight" transform="rotate(90) translate(36 -43)">
    <use xlink:href="#rim"/>
    <path pointer-events="none" fill="none" stroke="white" stroke-width="1.5" d="M0,-3.0v7 M-2.5,-0.5L0,-3.0L2.5,-0.5"/>
  </g>
  <g id="arrowDown" transform="rotate(180) translate(-30 -48)">
    <use xlink:href="#rim"/>
    <path pointer-events="none" fill="none" stroke="white" stroke-width="1.5" d="M0,-3.0v7 M-2.5,-0.5L0,-3.0L2.5,-0.5"/>
  </g>
  <g id="arrowLeft" transform="rotate(270) translate(-36 17)">
    <use xlink:href="#rim"/>
    <path pointer-events="none" fill="none" stroke="white" stroke-width="1.5" d="M0,-3.0v7 M-2.5,-0.5L0,-3.0L2.5,-0.5"/>
  </g>
  <g id="resetDef">
    <use xlink:href="#rim2" fill="#404040"><set attributeName="fill" to="#808080" begin="reset.mouseover" end="reset.mouseout"/></use>
  </g>
</defs>
<script type="application/ecmascript">
var viewWidth = 1229;
var viewHeight = 396;
var sectionId = 'dynsection-9';
</script>
<script type="application/ecmascript" xlink:href="svg.min.js"/>
<svg id="graph" class="graph">
<g id="viewport">
<title>fr.softsf.sudokufx.common.util.sudoku.GridMaster.genererLaGrilleAResoudre</title>
<!-- Node1 -->
<g id="Node000001" class="node">
<title>Node1</title>
<g id="a_Node000001"><a xlink:title="Génère une grille de Sudoku à résoudre en masquant des cases selon le niveau de difficulté ou un pour...">
<polygon fill="#999999" stroke="#666666" points="186.25,-275 0,-275 0,-243 186.25,-243 186.25,-275"/>
<text text-anchor="start" x="8" y="-261.5" font-family="Helvetica,sans-Serif" font-size="10.00">fr.softsf.sudokufx.common.util.sudoku.</text>
<text text-anchor="middle" x="93.12" y="-249.5" font-family="Helvetica,sans-Serif" font-size="10.00">GridMaster.genererLaGrilleAResoudre</text>
</a>
</g>
</g>
<!-- Node2 -->
<g id="Node000002" class="node">
<title>Node2</title>
<g id="a_Node000002"><a xlink:href="classfr_1_1softsf_1_1sudokufx_1_1common_1_1util_1_1sudoku_1_1_grid_master.html#af2d45060700f699fc8517cdf138bc7c2" target="_top" xlink:title="Calcule la valeur supérieure du segment actuel en fonction du pas d&#39;incrémentation.">
<polygon fill="white" stroke="#666666" points="448.25,-388 222.25,-388 222.25,-356 448.25,-356 448.25,-388"/>
<text text-anchor="start" x="230.25" y="-374.5" font-family="Helvetica,sans-Serif" font-size="10.00">fr.softsf.sudokufx.common.util.sudoku.</text>
<text text-anchor="middle" x="335.25" y="-362.5" font-family="Helvetica,sans-Serif" font-size="10.00">GridMaster.calculerValeurSuperieureDuSegment</text>
</a>
</g>
</g>
<!-- Node1&#45;&gt;Node2 -->
<g id="edge1_Node000001_Node000002" class="edge">
<title>Node1&#45;&gt;Node2</title>
<g id="a_edge1_Node000001_Node000002"><a xlink:title=" ">
<path fill="none" stroke="#63b8ff" d="M114.71,-275.27C139.1,-293.82 181.56,-323.91 222.25,-342 230.71,-345.76 239.75,-349.14 248.88,-352.15"/>
<polygon fill="#63b8ff" stroke="#63b8ff" points="247.58,-355.41 258.17,-355.07 249.68,-348.73 247.58,-355.41"/>
</a>
</g>
</g>
<!-- Node3 -->
<g id="Node000003" class="node">
<title>Node3</title>
<g id="a_Node000003"><a xlink:href="namespacefr_1_1softsf_1_1sudokufx_1_1common_1_1util_1_1sudoku.html#adc44f4bbb0133e984077a0acaf24cf55" target="_top" xlink:title="Immutable container for level&#45;specific possibility boundaries.">
<polygon fill="white" stroke="#666666" points="683.25,-344 497,-344 497,-312 683.25,-312 683.25,-344"/>
<text text-anchor="start" x="505" y="-330.5" font-family="Helvetica,sans-Serif" font-size="10.00">fr.softsf.sudokufx.common.util.sudoku.</text>
<text text-anchor="middle" x="590.12" y="-318.5" font-family="Helvetica,sans-Serif" font-size="10.00">LevelPossibilityBounds</text>
</a>
</g>
</g>
<!-- Node1&#45;&gt;Node3 -->
<g id="edge21_Node000001_Node000003" class="edge">
<title>Node1&#45;&gt;Node3</title>
<g id="a_edge21_Node000001_Node000003"><a xlink:title=" ">
<path fill="none" stroke="#63b8ff" d="M127.47,-275.43C152.8,-287.06 188.87,-301.82 222.25,-309 309.73,-327.82 411.51,-331.72 485.65,-331.4"/>
<polygon fill="#63b8ff" stroke="#63b8ff" points="485.36,-334.9 495.33,-331.33 485.3,-327.9 485.36,-334.9"/>
</a>
</g>
</g>
<!-- Node4 -->
<g id="Node000004" class="node">
<title>Node4</title>
<g id="a_Node000004"><a xlink:href="enumfr_1_1softsf_1_1sudokufx_1_1common_1_1enums_1_1_difficulty_level.html#a7df76231e8b2c4e2180213007891b807" target="_top" xlink:title="Resolves a DifficultyLevel from its byte representation.">
<polygon fill="white" stroke="#666666" points="419.38,-300 251.12,-300 251.12,-268 419.38,-268 419.38,-300"/>
<text text-anchor="start" x="259.12" y="-286.5" font-family="Helvetica,sans-Serif" font-size="10.00">fr.softsf.sudokufx.common.enums.</text>
<text text-anchor="middle" x="335.25" y="-274.5" font-family="Helvetica,sans-Serif" font-size="10.00">DifficultyLevel.fromGridByte</text>
</a>
</g>
</g>
<!-- Node1&#45;&gt;Node4 -->
<g id="edge3_Node000001_Node000004" class="edge">
<title>Node1&#45;&gt;Node4</title>
<g id="a_edge3_Node000001_Node000004"><a xlink:title=" ">
<path fill="none" stroke="#63b8ff" d="M186.62,-268.63C203.96,-270.44 222.11,-272.33 239.52,-274.14"/>
<polygon fill="#63b8ff" stroke="#63b8ff" points="239.02,-277.6 249.33,-275.16 239.75,-270.64 239.02,-277.6"/>
</a>
</g>
</g>
<!-- Node5 -->
<g id="Node000005" class="node">
<title>Node5</title>
<g id="a_Node000005"><a xlink:href="classfr_1_1softsf_1_1sudokufx_1_1common_1_1util_1_1sudoku_1_1_grid_master.html#a409da4117c58966b842279006d9546dd" target="_top" xlink:title="Récupère l&#39;intervalle de pourcentages autorisé pour un niveau de difficulté donné.">
<polygon fill="white" stroke="#666666" points="438.12,-250 232.38,-250 232.38,-218 438.12,-218 438.12,-250"/>
<text text-anchor="start" x="240.38" y="-236.5" font-family="Helvetica,sans-Serif" font-size="10.00">fr.softsf.sudokufx.common.util.sudoku.</text>
<text text-anchor="middle" x="335.25" y="-224.5" font-family="Helvetica,sans-Serif" font-size="10.00">GridMaster.getIntervallePourcentageNiveau</text>
</a>
</g>
</g>
<!-- Node1&#45;&gt;Node5 -->
<g id="edge4_Node000001_Node000005" class="edge">
<title>Node1&#45;&gt;Node5</title>
<g id="a_edge4_Node000001_Node000005"><a xlink:title=" ">
<path fill="none" stroke="#63b8ff" d="M186.62,-249.37C197.82,-248.2 209.35,-247 220.81,-245.81"/>
<polygon fill="#63b8ff" stroke="#63b8ff" points="221.13,-249.3 230.71,-244.78 220.4,-242.33 221.13,-249.3"/>
</a>
</g>
</g>
<!-- Node6 -->
<g id="Node000006" class="node">
<title>Node6</title>
<g id="a_Node000006"><a xlink:href="classfr_1_1softsf_1_1sudokufx_1_1common_1_1util_1_1sudoku_1_1_grid_master.html#a7da72c06bb28816dc19695add4cbdb27" target="_top" xlink:title="Calcule la somme des possibilités basée sur un pourcentage de difficulté.">
<polygon fill="white" stroke="#666666" points="443.38,-200 227.12,-200 227.12,-168 443.38,-168 443.38,-200"/>
<text text-anchor="start" x="235.12" y="-186.5" font-family="Helvetica,sans-Serif" font-size="10.00">fr.softsf.sudokufx.common.util.sudoku.</text>
<text text-anchor="middle" x="335.25" y="-174.5" font-family="Helvetica,sans-Serif" font-size="10.00">GridMaster.getPossibilitesDepuisPourcentage</text>
</a>
</g>
</g>
<!-- Node1&#45;&gt;Node6 -->
<g id="edge6_Node000001_Node000006" class="edge">
<title>Node1&#45;&gt;Node6</title>
<g id="a_edge6_Node000001_Node000006"><a xlink:title=" ">
<path fill="none" stroke="#63b8ff" d="M131.71,-242.58C156.97,-231.99 191.19,-218.47 222.25,-209 228.82,-207 235.64,-205.08 242.54,-203.27"/>
<polygon fill="#63b8ff" stroke="#63b8ff" points="243.12,-206.73 251.95,-200.87 241.39,-199.95 243.12,-206.73"/>
</a>
</g>
</g>
<!-- Node7 -->
<g id="Node000007" class="node">
<title>Node7</title>
<g id="a_Node000007"><a xlink:href="classfr_1_1softsf_1_1sudokufx_1_1common_1_1util_1_1sudoku_1_1_grid_master.html#abcd3c0f06734738979bb31e4063dfb1d" target="_top" xlink:title="Génère une grille de Sudoku.">
<polygon fill="white" stroke="#666666" points="436.25,-150 234.25,-150 234.25,-118 436.25,-118 436.25,-150"/>
<text text-anchor="start" x="242.25" y="-136.5" font-family="Helvetica,sans-Serif" font-size="10.00">fr.softsf.sudokufx.common.util.sudoku.</text>
<text text-anchor="middle" x="335.25" y="-124.5" font-family="Helvetica,sans-Serif" font-size="10.00">GridMaster.getPossibilitesGrilleAResoudre</text>
</a>
</g>
</g>
<!-- Node1&#45;&gt;Node7 -->
<g id="edge7_Node000001_Node000007" class="edge">
<title>Node1&#45;&gt;Node7</title>
<g id="a_edge7_Node000001_Node000007"><a xlink:title=" ">
<path fill="none" stroke="#63b8ff" d="M109.91,-242.78C132.63,-220.41 176.83,-180.45 222.25,-159 225.78,-157.33 229.43,-155.77 233.15,-154.32"/>
<polygon fill="#63b8ff" stroke="#63b8ff" points="234.17,-157.67 242.39,-150.99 231.8,-151.09 234.17,-157.67"/>
</a>
</g>
</g>
<!-- Node2&#45;&gt;Node3 -->
<g id="edge2_Node000002_Node000003" class="edge">
<title>Node2&#45;&gt;Node3</title>
<g id="a_edge2_Node000002_Node000003"><a xlink:title=" ">
<path fill="none" stroke="#63b8ff" d="M430.77,-355.55C448.66,-352.44 467.46,-349.17 485.62,-346.01"/>
<polygon fill="#63b8ff" stroke="#63b8ff" points="486.07,-349.48 495.33,-344.32 484.87,-342.59 486.07,-349.48"/>
</a>
</g>
</g>
<!-- Node5&#45;&gt;Node3 -->
<g id="edge5_Node000005_Node000003" class="edge">
<title>Node5&#45;&gt;Node3</title>
<g id="a_edge5_Node000005_Node000003"><a xlink:title=" ">
<path fill="none" stroke="#63b8ff" d="M420.04,-250.42C429.65,-252.97 439.23,-255.83 448.25,-259 484.14,-271.6 522.8,-290.98 550.52,-306"/>
<polygon fill="#63b8ff" stroke="#63b8ff" points="548.8,-309.06 559.26,-310.8 552.17,-302.92 548.8,-309.06"/>
</a>
</g>
</g>
<!-- Node8 -->
<g id="Node000008" class="node">
<title>Node8</title>
<g id="a_Node000008"><a xlink:href="classfr_1_1softsf_1_1sudokufx_1_1common_1_1util_1_1sudoku_1_1_grid_master.html#af6461bfbf866d4c2ed591179e96eb56b" target="_top" xlink:title="Génère une grille de Sudoku avec un masquage aléatoire borné selon la difficulté cible.">
<polygon fill="white" stroke="#666666" points="696,-150 484.25,-150 484.25,-118 696,-118 696,-150"/>
<text text-anchor="start" x="492.25" y="-136.5" font-family="Helvetica,sans-Serif" font-size="10.00">fr.softsf.sudokufx.common.util.sudoku.</text>
<text text-anchor="middle" x="590.12" y="-124.5" font-family="Helvetica,sans-Serif" font-size="10.00">GridMaster.genererGrilleAvecCasesCachees</text>
</a>
</g>
</g>
<!-- Node7&#45;&gt;Node8 -->
<g id="edge8_Node000007_Node000008" class="edge">
<title>Node7&#45;&gt;Node8</title>
<g id="a_edge8_Node000007_Node000008"><a xlink:title=" ">
<path fill="none" stroke="#63b8ff" d="M436.56,-134C448.36,-134 460.49,-134 472.5,-134"/>
<polygon fill="#63b8ff" stroke="#63b8ff" points="472.45,-137.5 482.45,-134 472.45,-130.5 472.45,-137.5"/>
</a>
</g>
</g>
<!-- Node8&#45;&gt;Node8 -->
<g id="edge11_Node000008_Node000008" class="edge">
<title>Node8&#45;&gt;Node8</title>
<g id="a_edge11_Node000008_Node000008"><a xlink:title=" ">
<path fill="none" stroke="#63b8ff" d="M545.76,-150.44C537.48,-159.58 552.27,-168 590.12,-168 611.12,-168 625.03,-165.41 631.83,-161.54"/>
<polygon fill="#63b8ff" stroke="#63b8ff" points="635.21,-162.45 634.14,-151.91 628.4,-160.82 635.21,-162.45"/>
</a>
</g>
</g>
<!-- Node9 -->
<g id="Node000009" class="node">
<title>Node9</title>
<g id="a_Node000009"><a xlink:href="classfr_1_1softsf_1_1sudokufx_1_1common_1_1util_1_1sudoku_1_1_grid_master.html#aedafc76e589c715c380e2732e0ff04d2" target="_top" xlink:title="Cache un nombre spécifié de cases dans la grille en les remplaçant par zéro.">
<polygon fill="white" stroke="#666666" points="931.75,-225 745.5,-225 745.5,-193 931.75,-193 931.75,-225"/>
<text text-anchor="start" x="753.5" y="-211.5" font-family="Helvetica,sans-Serif" font-size="10.00">fr.softsf.sudokufx.common.util.sudoku.</text>
<text text-anchor="middle" x="838.62" y="-199.5" font-family="Helvetica,sans-Serif" font-size="10.00">GridMaster.cacherLesCases</text>
</a>
</g>
</g>
<!-- Node8&#45;&gt;Node9 -->
<g id="edge9_Node000008_Node000009" class="edge">
<title>Node8&#45;&gt;Node9</title>
<g id="a_edge9_Node000008_Node000009"><a xlink:title=" ">
<path fill="none" stroke="#63b8ff" d="M633.58,-150.43C661.33,-160.83 698.52,-174.13 732,-184 738.64,-185.96 745.55,-187.87 752.52,-189.71"/>
<polygon fill="#63b8ff" stroke="#63b8ff" points="751.46,-193.05 762.02,-192.15 753.21,-186.27 751.46,-193.05"/>
</a>
</g>
</g>
<!-- Node10 -->
<g id="Node000010" class="node">
<title>Node10</title>
<g id="a_Node000010"><a xlink:href="classfr_1_1softsf_1_1sudokufx_1_1common_1_1util_1_1sudoku_1_1_grid_master.html#a27aa242e0289c28db22cd6caa98aec06" target="_top" xlink:title="Initialise le tableau des possibilités pour chaque case.">
<polygon fill="white" stroke="#666666" points="931.75,-175 745.5,-175 745.5,-143 931.75,-143 931.75,-175"/>
<text text-anchor="start" x="753.5" y="-161.5" font-family="Helvetica,sans-Serif" font-size="10.00">fr.softsf.sudokufx.common.util.sudoku.</text>
<text text-anchor="middle" x="838.62" y="-149.5" font-family="Helvetica,sans-Serif" font-size="10.00">GridMaster.initialiserPossibilites</text>
</a>
</g>
</g>
<!-- Node8&#45;&gt;Node10 -->
<g id="edge12_Node000008_Node000010" class="edge">
<title>Node8&#45;&gt;Node10</title>
<g id="a_edge12_Node000008_Node000010"><a xlink:title=" ">
<path fill="none" stroke="#63b8ff" d="M696.38,-144.67C708.8,-145.93 721.47,-147.22 733.88,-148.48"/>
<polygon fill="#63b8ff" stroke="#63b8ff" points="733.37,-151.94 743.67,-149.47 734.07,-144.98 733.37,-151.94"/>
</a>
</g>
</g>
<!-- Node12 -->
<g id="Node000012" class="node">
<title>Node12</title>
<g id="a_Node000012"><a xlink:href="classfr_1_1softsf_1_1sudokufx_1_1common_1_1util_1_1sudoku_1_1_grid_master.html#aa9fd5688b3effcfb97c226e04a5ff380" target="_top" xlink:title="Calcule le nombre total de candidats (entropie) sur l&#39;ensemble de la grille.">
<polygon fill="white" stroke="#666666" points="945.25,-125 732,-125 732,-93 945.25,-93 945.25,-125"/>
<text text-anchor="start" x="740" y="-111.5" font-family="Helvetica,sans-Serif" font-size="10.00">fr.softsf.sudokufx.common.util.sudoku.</text>
<text text-anchor="middle" x="838.62" y="-99.5" font-family="Helvetica,sans-Serif" font-size="10.00">GridMaster.sommeDesPossibilitesDeLaGrille</text>
</a>
</g>
</g>
<!-- Node8&#45;&gt;Node12 -->
<g id="edge14_Node000008_Node000012" class="edge">
<title>Node8&#45;&gt;Node12</title>
<g id="a_edge14_Node000008_Node000012"><a xlink:title=" ">
<path fill="none" stroke="#63b8ff" d="M696.38,-123.33C704.29,-122.52 712.31,-121.71 720.29,-120.9"/>
<polygon fill="#63b8ff" stroke="#63b8ff" points="720.44,-124.4 730.04,-119.91 719.74,-117.44 720.44,-124.4"/>
</a>
</g>
</g>
<!-- Node13 -->
<g id="Node000013" class="node">
<title>Node13</title>
<g id="a_Node000013"><a xlink:href="classfr_1_1softsf_1_1sudokufx_1_1common_1_1util_1_1sudoku_1_1_grid_master.html#aa3aa3945ebc4549be49be1e0c481f9da" target="_top" xlink:title="Vérifie l&#39;unicité par backtracking en utilisant la propagation de contraintes.">
<polygon fill="white" stroke="#666666" points="931.75,-57 745.5,-57 745.5,-25 931.75,-25 931.75,-57"/>
<text text-anchor="start" x="753.5" y="-43.5" font-family="Helvetica,sans-Serif" font-size="10.00">fr.softsf.sudokufx.common.util.sudoku.</text>
<text text-anchor="middle" x="838.62" y="-31.5" font-family="Helvetica,sans-Serif" font-size="10.00">GridMaster.verifierUnicite</text>
</a>
</g>
</g>
<!-- Node8&#45;&gt;Node13 -->
<g id="edge15_Node000008_Node000013" class="edge">
<title>Node8&#45;&gt;Node13</title>
<g id="a_edge15_Node000008_Node000013"><a xlink:title=" ">
<path fill="none" stroke="#63b8ff" d="M634.63,-117.59C676.12,-101.93 738.76,-78.3 783.47,-61.43"/>
<polygon fill="#63b8ff" stroke="#63b8ff" points="784.61,-64.74 792.73,-57.94 782.14,-58.19 784.61,-64.74"/>
</a>
</g>
</g>
<!-- Node9&#45;&gt;Node9 -->
<g id="edge10_Node000009_Node000009" class="edge">
<title>Node9&#45;&gt;Node9</title>
<g id="a_edge10_Node000009_Node000009"><a xlink:title=" ">
<path fill="none" stroke="#63b8ff" d="M794.26,-225.44C785.98,-234.58 800.77,-243 838.62,-243 859.62,-243 873.53,-240.41 880.33,-236.54"/>
<polygon fill="#63b8ff" stroke="#63b8ff" points="883.71,-237.45 882.64,-226.91 876.9,-235.82 883.71,-237.45"/>
</a>
</g>
</g>
<!-- Node11 -->
<g id="Node000011" class="node">
<title>Node11</title>
<g id="a_Node000011"><a xlink:href="classfr_1_1softsf_1_1sudokufx_1_1common_1_1util_1_1sudoku_1_1_grid_master.html#aeabb85bac7acd0ff179f259fa13b17ea" target="_top" xlink:title="Élimine une valeur des candidats des cellules voisines (ligne, colonne, bloc).">
<polygon fill="white" stroke="#666666" points="1194.12,-162 1007.88,-162 1007.88,-130 1194.12,-130 1194.12,-162"/>
<text text-anchor="start" x="1015.88" y="-148.5" font-family="Helvetica,sans-Serif" font-size="10.00">fr.softsf.sudokufx.common.util.sudoku.</text>
<text text-anchor="middle" x="1101" y="-136.5" font-family="Helvetica,sans-Serif" font-size="10.00">GridMaster.eliminerPossibilite</text>
</a>
</g>
</g>
<!-- Node10&#45;&gt;Node11 -->
<g id="edge13_Node000010_Node000011" class="edge">
<title>Node10&#45;&gt;Node11</title>
<g id="a_edge13_Node000010_Node000011"><a xlink:title=" ">
<path fill="none" stroke="#63b8ff" d="M932.16,-154.38C952.97,-153.34 975.19,-152.23 996.43,-151.17"/>
<polygon fill="#63b8ff" stroke="#63b8ff" points="996.44,-154.67 1006.25,-150.68 996.09,-147.68 996.44,-154.67"/>
</a>
</g>
</g>
<!-- Node13&#45;&gt;Node11 -->
<g id="edge18_Node000013_Node000011" class="edge">
<title>Node13&#45;&gt;Node11</title>
<g id="a_edge18_Node000013_Node000011"><a xlink:title=" ">
<path fill="none" stroke="#63b8ff" d="M886.39,-57.48C905.12,-64.73 926.63,-73.9 945.25,-84 962.37,-93.28 963.75,-100.45 981.25,-109 994.55,-115.5 1009.23,-121.17 1023.61,-125.99"/>
<polygon fill="#63b8ff" stroke="#63b8ff" points="1022.49,-129.3 1033.08,-129.04 1024.64,-122.64 1022.49,-129.3"/>
</a>
</g>
</g>
<!-- Node13&#45;&gt;Node13 -->
<g id="edge20_Node000013_Node000013" class="edge">
<title>Node13&#45;&gt;Node13</title>
<g id="a_edge20_Node000013_Node000013"><a xlink:title=" ">
<path fill="none" stroke="#63b8ff" d="M794.26,-57.44C785.98,-66.58 800.77,-75 838.62,-75 859.62,-75 873.53,-72.41 880.33,-68.54"/>
<polygon fill="#63b8ff" stroke="#63b8ff" points="883.71,-69.45 882.64,-58.91 876.9,-67.82 883.71,-69.45"/>
</a>
</g>
</g>
<!-- Node14 -->
<g id="Node000014" class="node">
<title>Node14</title>
<g id="a_Node000014"><a xlink:href="classfr_1_1softsf_1_1sudokufx_1_1common_1_1util_1_1sudoku_1_1_grid_master.html#a3f17ab078f894717a1f3dfaffed0b987" target="_top" xlink:title="Choisit une valeur aléatoire parmi les possibilités données.">
<polygon fill="white" stroke="#666666" points="1194.12,-82 1007.88,-82 1007.88,-50 1194.12,-50 1194.12,-82"/>
<text text-anchor="start" x="1015.88" y="-68.5" font-family="Helvetica,sans-Serif" font-size="10.00">fr.softsf.sudokufx.common.util.sudoku.</text>
<text text-anchor="middle" x="1101" y="-56.5" font-family="Helvetica,sans-Serif" font-size="10.00">GridMaster.choisirValeurAleatoire</text>
</a>
</g>
</g>
<!-- Node13&#45;&gt;Node14 -->
<g id="edge16_Node000013_Node000014" class="edge">
<title>Node13&#45;&gt;Node14</title>
<g id="a_edge16_Node000013_Node000014"><a xlink:title=" ">
<path fill="none" stroke="#63b8ff" d="M932.16,-49.88C952.97,-51.88 975.19,-54.02 996.43,-56.06"/>
<polygon fill="#63b8ff" stroke="#63b8ff" points="995.97,-59.53 1006.26,-57 996.64,-52.56 995.97,-59.53"/>
</a>
</g>
</g>
<!-- Node15 -->
<g id="Node000015" class="node">
<title>Node15</title>
<g id="a_Node000015"><a xlink:href="classfr_1_1softsf_1_1sudokufx_1_1common_1_1util_1_1sudoku_1_1_grid_master.html#a973a5ac2260605b8a260934b7e68373d" target="_top" xlink:title="Trouve la case vide avec le moins de possibilités.">
<polygon fill="white" stroke="#666666" points="1220.75,-32 981.25,-32 981.25,0 1220.75,0 1220.75,-32"/>
<text text-anchor="start" x="989.25" y="-18.5" font-family="Helvetica,sans-Serif" font-size="10.00">fr.softsf.sudokufx.common.util.sudoku.</text>
<text text-anchor="middle" x="1101" y="-6.5" font-family="Helvetica,sans-Serif" font-size="10.00">GridMaster.laCaseVideAvecLeMoinsDePossibilites</text>
</a>
</g>
</g>
<!-- Node13&#45;&gt;Node15 -->
<g id="edge19_Node000013_Node000015" class="edge">
<title>Node13&#45;&gt;Node15</title>
<g id="a_edge19_Node000013_Node000015"><a xlink:title=" ">
<path fill="none" stroke="#63b8ff" d="M932.16,-32.12C944.37,-30.94 957.06,-29.72 969.75,-28.51"/>
<polygon fill="#63b8ff" stroke="#63b8ff" points="969.77,-32.02 979.39,-27.58 969.1,-25.05 969.77,-32.02"/>
</a>
</g>
</g>
<!-- Node14&#45;&gt;Node14 -->
<g id="edge17_Node000014_Node000014" class="edge">
<title>Node14&#45;&gt;Node14</title>
<g id="a_edge17_Node000014_Node000014"><a xlink:title=" ">
<path fill="none" stroke="#63b8ff" d="M1054.16,-82.44C1045.42,-91.58 1061.03,-100 1101,-100 1123.17,-100 1137.85,-97.41 1145.03,-93.54"/>
<polygon fill="#63b8ff" stroke="#63b8ff" points="1148.41,-94.46 1147.47,-83.91 1141.62,-92.75 1148.41,-94.46"/>
</a>
</g>
</g>
</g>
</svg>

<g id="navigator" transform="translate(0 0)" fill="#404254">
  <rect fill="#f2f5e9" fill-opacity="0.5" stroke="#606060" stroke-width=".5" x="0" y="0" width="60" height="60"/>
  <use id="zoomplus" xlink:href="#zoomPlus" x="17" y="9" onmousedown="handleZoom(evt,'in')"/>
  <use id="zoomminus" xlink:href="#zoomMin" x="42" y="9" onmousedown="handleZoom(evt,'out')"/>
  <use id="reset" xlink:href="#resetDef" x="30" y="36" onmousedown="handleReset()"/>
   <use id="arrowup" xlink:href="#arrowUp" x="0" y="0" onmousedown="handlePan(0,-1)"/>
  <use id="arrowright" xlink:href="#arrowRight" x="0" y="0" onmousedown="handlePan(1,0)"/>
  <use id="arrowdown" xlink:href="#arrowDown" x="0" y="0" onmousedown="handlePan(0,1)"/>
  <use id="arrowleft" xlink:href="#arrowLeft" x="0" y="0" onmousedown="handlePan(-1,0)"/>
</g>
<svg viewBox="0 0 15 15" width="100%" height="30px" preserveAspectRatio="xMaxYMin meet">
 <g id="arrow_out" transform="scale(0.3 0.3)">
  <a xlink:href="classfr_1_1softsf_1_1sudokufx_1_1common_1_1util_1_1sudoku_1_1_grid_master_ae62111abf551659353a37d6eff7fe472_cgraph_org.svg" target="_base">
   <rect id="button" ry="5" rx="5" y="6" x="6" height="38" width="38"
        fill="#f2f5e9" fill-opacity="0.5" stroke="#606060" stroke-width="1.0"/>
   <path id="arrow"
     d="M 11.500037,31.436501 C 11.940474,20.09759 22.043105,11.32322 32.158766,21.979434 L 37.068811,17.246167 C 37.068811,17.246167 37.088388,32 37.088388,32 L 22.160133,31.978069 C 22.160133,31.978069 26.997745,27.140456 26.997745,27.140456 C 18.528582,18.264221 13.291696,25.230495 11.500037,31.436501 z"
     style="fill:#404040;"/>
  </a>
 </g>
</svg>

<style type='text/css'>
<![CDATA[
[data-mouse-over-selected='false'] { opacity: 0.7; }
[data-mouse-over-selected='true']  { opacity: 1.0; }
]]>
</style>
<script type="application/ecmascript"><![CDATA[
document.addEventListener('DOMContentLoaded', (event) => {
  highlightEdges();
  highlightAdjacentNodes();
});
]]></script>
</svg>
