<?xml version="1.0" encoding="UTF-8" standalone="no"?>
<!DOCTYPE svg PUBLIC "-//W3C//DTD SVG 1.1//EN"
 "http://www.w3.org/Graphics/SVG/1.1/DTD/svg11.dtd">
<!-- Generated by graphviz version 12.2.1 (20241206.2353)
 -->
<!-- Title: fr.softsf.sudokufx.viewmodel.HelpViewModel Pages: 1 -->
<svg width="145pt" height="168pt"
 viewBox="0.00 0.00 145.00 168.00" xmlns="http://www.w3.org/2000/svg" xmlns:xlink="http://www.w3.org/1999/xlink">
<g id="graph0" class="graph" transform="scale(1 1) rotate(0) translate(4 164)">
<title>fr.softsf.sudokufx.viewmodel.HelpViewModel</title>
<!-- Node1 -->
<g id="Node000001" class="node">
<title>Node1</title>
<g id="a_Node000001"><a xlink:title="ViewModel responsible for displaying the help dialog.">
<polygon fill="#999999" stroke="none" points="137,-160 0,-160 0,0 137,0 137,-160"/>
<text text-anchor="start" x="4" y="-146.5" font-family="Helvetica,sans-Serif" font-size="10.00">fr.softsf.sudokufx.viewmodel.</text>
<text text-anchor="start" x="34.38" y="-134.5" font-family="Helvetica,sans-Serif" font-size="10.00">HelpViewModel</text>
<text text-anchor="start" x="6.75" y="-118.5" font-family="Helvetica,sans-Serif" font-size="10.00">&#45;</text>
<text text-anchor="start" x="16.5" y="-118.5" font-family="Helvetica,sans-Serif" font-size="10.00">final IOsFolderFactory</text>
<text text-anchor="start" x="16.5" y="-106.5" font-family="Helvetica,sans-Serif" font-size="10.00"> iOsFolderFactory</text>
<text text-anchor="start" x="6.75" y="-90.5" font-family="Helvetica,sans-Serif" font-size="10.00">&#45;</text>
<text text-anchor="start" x="16.5" y="-90.5" font-family="Helvetica,sans-Serif" font-size="10.00">static final double</text>
<text text-anchor="start" x="16.5" y="-78.5" font-family="Helvetica,sans-Serif" font-size="10.00"> ALERT_SIZE_RATIO</text>
<text text-anchor="start" x="5.25" y="-62.5" font-family="Helvetica,sans-Serif" font-size="10.00">+</text>
<text text-anchor="start" x="16.5" y="-62.5" font-family="Helvetica,sans-Serif" font-size="10.00">HelpViewModel(IOsFolder</text>
<text text-anchor="start" x="16.5" y="-50.5" font-family="Helvetica,sans-Serif" font-size="10.00">Factory iOsFolderFactory)</text>
<text text-anchor="start" x="5.25" y="-34.5" font-family="Helvetica,sans-Serif" font-size="10.00">+</text>
<text text-anchor="start" x="16.5" y="-34.5" font-family="Helvetica,sans-Serif" font-size="10.00">void showHelp()</text>
<text text-anchor="start" x="5.25" y="-18.5" font-family="Helvetica,sans-Serif" font-size="10.00">~</text>
<text text-anchor="start" x="16.5" y="-18.5" font-family="Helvetica,sans-Serif" font-size="10.00">void displayAlert(Alert</text>
<text text-anchor="start" x="16.5" y="-6.5" font-family="Helvetica,sans-Serif" font-size="10.00"> alert)</text>
<polygon fill="#666666" stroke="#666666" points="0,-130 0,-130 137,-130 137,-130 0,-130"/>
<polygon fill="#666666" stroke="#666666" points="0,-74 0,-74 14.5,-74 14.5,-74 0,-74"/>
<polygon fill="#666666" stroke="#666666" points="14.5,-74 14.5,-74 137,-74 137,-74 14.5,-74"/>
<polygon fill="none" stroke="#666666" points="0,0 0,-160 137,-160 137,0 0,0"/>
</a>
</g>
</g>
</g>
</svg>
