<?xml version="1.0" encoding="UTF-8" standalone="no"?>
<!DOCTYPE svg PUBLIC "-//W3C//DTD SVG 1.1//EN"
 "http://www.w3.org/Graphics/SVG/1.1/DTD/svg11.dtd">
<!-- Generated by graphviz version 12.2.1 (20241206.2353)
 -->
<!-- Title: fr.softsf.sudokufx.viewmodel.grid.GridViewModel.applyStandardPlayFlow Pages: 1 -->
<!--zoomable 284 -->

<svg id="main" version="1.1" xmlns="http://www.w3.org/2000/svg" xmlns:xlink="http://www.w3.org/1999/xlink" xml:space="preserve" onload="init(evt)">

<style type="text/css"><![CDATA[
.node, .edge {opacity: 0.7;}
.node.selected, .edge.selected {opacity: 1;}
.edge:hover path { stroke: red; }
.edge:hover polygon { stroke: red; fill: red; }
]]></style>

<defs>
  <circle id="rim" cx="0" cy="0" r="7"/>
  <circle id="rim2" cx="0" cy="0" r="3.5"/>
  <g id="zoomPlus">
    <use xlink:href="#rim" fill="#404040"><set attributeName="fill" to="#808080" begin="zoomplus.mouseover" end="zoomplus.mouseout"/></use>
    <path d="M-4,0h8M0,-4v8" fill="none" stroke="white" stroke-width="1.5" pointer-events="none"/>
  </g>
  <g id="zoomMin">
    <use xlink:href="#rim" fill="#404040"><set attributeName="fill" to="#808080" begin="zoomminus.mouseover" end="zoomminus.mouseout"/></use>
    <path d="M-4,0h8" fill="none" stroke="white" stroke-width="1.5" pointer-events="none"/>
  </g>
  <g id="arrowUp" transform="translate(30 24)">
    <use xlink:href="#rim"/>
    <path pointer-events="none" fill="none" stroke="white" stroke-width="1.5" d="M0,-3.0v7 M-2.5,-0.5L0,-3.0L2.5,-0.5"/>
  </g>
  <g id="arrowRight" transform="rotate(90) translate(36 -43)">
    <use xlink:href="#rim"/>
    <path pointer-events="none" fill="none" stroke="white" stroke-width="1.5" d="M0,-3.0v7 M-2.5,-0.5L0,-3.0L2.5,-0.5"/>
  </g>
  <g id="arrowDown" transform="rotate(180) translate(-30 -48)">
    <use xlink:href="#rim"/>
    <path pointer-events="none" fill="none" stroke="white" stroke-width="1.5" d="M0,-3.0v7 M-2.5,-0.5L0,-3.0L2.5,-0.5"/>
  </g>
  <g id="arrowLeft" transform="rotate(270) translate(-36 17)">
    <use xlink:href="#rim"/>
    <path pointer-events="none" fill="none" stroke="white" stroke-width="1.5" d="M0,-3.0v7 M-2.5,-0.5L0,-3.0L2.5,-0.5"/>
  </g>
  <g id="resetDef">
    <use xlink:href="#rim2" fill="#404040"><set attributeName="fill" to="#808080" begin="reset.mouseover" end="reset.mouseout"/></use>
  </g>
</defs>
<script type="application/ecmascript">
var viewWidth = 1020;
var viewHeight = 284;
var sectionId = 'dynsection-4';
</script>
<script type="application/ecmascript" xlink:href="svg.min.js"/>
<svg id="graph" class="graph">
<g id="viewport">
<title>fr.softsf.sudokufx.viewmodel.grid.GridViewModel.applyStandardPlayFlow</title>
<!-- Node1 -->
<g id="Node000001" class="node">
<title>Node1</title>
<g id="a_Node000001"><a xlink:title="Handles grid persistence and completion verification during regular gameplay.">
<polygon fill="#999999" stroke="#666666" points="187.75,-203.78 0,-203.78 0,-171.78 187.75,-171.78 187.75,-203.78"/>
<text text-anchor="start" x="8" y="-190.28" font-family="Helvetica,sans-Serif" font-size="10.00">fr.softsf.sudokufx.viewmodel.grid.</text>
<text text-anchor="middle" x="93.88" y="-178.28" font-family="Helvetica,sans-Serif" font-size="10.00">GridViewModel.applyStandardPlayFlow</text>
</a>
</g>
</g>
<!-- Node2 -->
<g id="Node000002" class="node">
<title>Node2</title>
<g id="a_Node000002"><a xlink:href="classfr_1_1softsf_1_1sudokufx_1_1viewmodel_1_1grid_1_1_grid_view_model.html#a6c7bd2140fad9b3091830f3f81c64827" target="_top" xlink:title="Returns whether the current game has a non&#45;empty default grid.">
<polygon fill="white" stroke="#666666" points="387.5,-275.78 223.75,-275.78 223.75,-243.78 387.5,-243.78 387.5,-275.78"/>
<text text-anchor="start" x="231.75" y="-262.28" font-family="Helvetica,sans-Serif" font-size="10.00">fr.softsf.sudokufx.viewmodel.grid.</text>
<text text-anchor="middle" x="305.62" y="-250.28" font-family="Helvetica,sans-Serif" font-size="10.00">GridViewModel.hasDefaultGrid</text>
</a>
</g>
</g>
<!-- Node1&#45;&gt;Node2 -->
<g id="edge1_Node000001_Node000002" class="edge">
<title>Node1&#45;&gt;Node2</title>
<g id="a_edge1_Node000001_Node000002"><a xlink:title=" ">
<path fill="none" stroke="#63b8ff" d="M138.23,-204.2C163.14,-213.48 195.09,-225.13 223.75,-234.78 228.79,-236.48 234.03,-238.19 239.3,-239.89"/>
<polygon fill="#63b8ff" stroke="#63b8ff" points="238.09,-243.18 248.68,-242.88 240.22,-236.51 238.09,-243.18"/>
</a>
</g>
</g>
<!-- Node3 -->
<g id="Node000003" class="node">
<title>Node3</title>
<g id="a_Node000003"><a xlink:href="classfr_1_1softsf_1_1sudokufx_1_1viewmodel_1_1grid_1_1_grid_view_model.html#ad536719f789ab2bb851aa4b26d44c075" target="_top" xlink:title="Checks if all 81 cells contain valid single&#45;digit values (1&#45;9).">
<polygon fill="white" stroke="#666666" points="612.75,-181.78 423.5,-181.78 423.5,-149.78 612.75,-149.78 612.75,-181.78"/>
<text text-anchor="start" x="431.5" y="-168.28" font-family="Helvetica,sans-Serif" font-size="10.00">fr.softsf.sudokufx.viewmodel.grid.</text>
<text text-anchor="middle" x="518.12" y="-156.28" font-family="Helvetica,sans-Serif" font-size="10.00">GridViewModel.isCompletelyCompleted</text>
</a>
</g>
</g>
<!-- Node1&#45;&gt;Node3 -->
<g id="edge2_Node000001_Node000003" class="edge">
<title>Node1&#45;&gt;Node3</title>
<g id="a_edge2_Node000001_Node000003"><a xlink:title=" ">
<path fill="none" stroke="#63b8ff" d="M188.06,-182.92C254.2,-179.48 343.08,-174.85 411.8,-171.26"/>
<polygon fill="#63b8ff" stroke="#63b8ff" points="411.77,-174.77 421.57,-170.76 411.4,-167.78 411.77,-174.77"/>
</a>
</g>
</g>
<!-- Node6 -->
<g id="Node000006" class="node">
<title>Node6</title>
<g id="a_Node000006"><a xlink:href="classfr_1_1softsf_1_1sudokufx_1_1viewmodel_1_1grid_1_1_grid_view_model.html#aad1610b7e07349137ebf0d3d592a5b09" target="_top" xlink:title="Persists the current grid state for the active player’s selected game.">
<polygon fill="white" stroke="#666666" points="387.5,-225.78 223.75,-225.78 223.75,-193.78 387.5,-193.78 387.5,-225.78"/>
<text text-anchor="start" x="231.75" y="-212.28" font-family="Helvetica,sans-Serif" font-size="10.00">fr.softsf.sudokufx.viewmodel.grid.</text>
<text text-anchor="middle" x="305.62" y="-200.28" font-family="Helvetica,sans-Serif" font-size="10.00">GridViewModel.persistGridValue</text>
</a>
</g>
</g>
<!-- Node1&#45;&gt;Node6 -->
<g id="edge5_Node000001_Node000006" class="edge">
<title>Node1&#45;&gt;Node6</title>
<g id="a_edge5_Node000001_Node000006"><a xlink:title=" ">
<path fill="none" stroke="#63b8ff" d="M188.1,-197.55C196.13,-198.4 204.25,-199.25 212.28,-200.09"/>
<polygon fill="#63b8ff" stroke="#63b8ff" points="211.72,-203.55 222.03,-201.11 212.45,-196.59 211.72,-203.55"/>
</a>
</g>
</g>
<!-- Node7 -->
<g id="Node000007" class="node">
<title>Node7</title>
<g id="a_Node000007"><a xlink:href="classfr_1_1softsf_1_1sudokufx_1_1viewmodel_1_1grid_1_1_grid_view_model.html#a77d49e325684b6bef071fb2461c896cb" target="_top" xlink:title="Validates the grid by attempting to solve it.">
<polygon fill="white" stroke="#666666" points="387.5,-113.78 223.75,-113.78 223.75,-81.78 387.5,-81.78 387.5,-113.78"/>
<text text-anchor="start" x="231.75" y="-100.28" font-family="Helvetica,sans-Serif" font-size="10.00">fr.softsf.sudokufx.viewmodel.grid.</text>
<text text-anchor="middle" x="305.62" y="-88.28" font-family="Helvetica,sans-Serif" font-size="10.00">GridViewModel.verifyGrid</text>
</a>
</g>
</g>
<!-- Node1&#45;&gt;Node7 -->
<g id="edge7_Node000001_Node000007" class="edge">
<title>Node1&#45;&gt;Node7</title>
<g id="a_edge7_Node000001_Node000007"><a xlink:title=" ">
<path fill="none" stroke="#63b8ff" d="M132.86,-171.48C167.39,-156.66 218.53,-134.72 256.02,-118.63"/>
<polygon fill="#63b8ff" stroke="#63b8ff" points="257.01,-122.01 264.82,-114.86 254.25,-115.58 257.01,-122.01"/>
</a>
</g>
</g>
<!-- Node4 -->
<g id="Node000004" class="node">
<title>Node4</title>
<g id="a_Node000004"><a xlink:href="classfr_1_1softsf_1_1sudokufx_1_1viewmodel_1_1grid_1_1_grid_view_model.html#a14e2c0c3e0e51a0fee38c181b39fa6e2" target="_top" xlink:title="Gets a list of all cell text values in row&#45;major order.">
<polygon fill="white" stroke="#666666" points="812.5,-181.78 648.75,-181.78 648.75,-149.78 812.5,-149.78 812.5,-181.78"/>
<text text-anchor="start" x="656.75" y="-168.28" font-family="Helvetica,sans-Serif" font-size="10.00">fr.softsf.sudokufx.viewmodel.grid.</text>
<text text-anchor="middle" x="730.62" y="-156.28" font-family="Helvetica,sans-Serif" font-size="10.00">GridViewModel.getAllValues</text>
</a>
</g>
</g>
<!-- Node3&#45;&gt;Node4 -->
<g id="edge3_Node000003_Node000004" class="edge">
<title>Node3&#45;&gt;Node4</title>
<g id="a_edge3_Node000003_Node000004"><a xlink:title=" ">
<path fill="none" stroke="#63b8ff" d="M612.99,-165.78C621.03,-165.78 629.17,-165.78 637.21,-165.78"/>
<polygon fill="#63b8ff" stroke="#63b8ff" points="636.97,-169.28 646.97,-165.78 636.97,-162.28 636.97,-169.28"/>
</a>
</g>
</g>
<!-- Node5 -->
<g id="Node000005" class="node">
<title>Node5</title>
<g id="a_Node000005"><a xlink:href="classfr_1_1softsf_1_1sudokufx_1_1viewmodel_1_1grid_1_1_grid_view_model.html#ace36956cb99bad46d1144460d8cde157" target="_top" xlink:title="Checks whether the GridViewModel has been initialized via init().">
<polygon fill="white" stroke="#666666" points="1012.25,-181.78 848.5,-181.78 848.5,-149.78 1012.25,-149.78 1012.25,-181.78"/>
<text text-anchor="start" x="856.5" y="-168.28" font-family="Helvetica,sans-Serif" font-size="10.00">fr.softsf.sudokufx.viewmodel.grid.</text>
<text text-anchor="middle" x="930.38" y="-156.28" font-family="Helvetica,sans-Serif" font-size="10.00">GridViewModel.checkInitialized</text>
</a>
</g>
</g>
<!-- Node4&#45;&gt;Node5 -->
<g id="edge4_Node000004_Node000005" class="edge">
<title>Node4&#45;&gt;Node5</title>
<g id="a_edge4_Node000004_Node000005"><a xlink:title=" ">
<path fill="none" stroke="#63b8ff" d="M812.91,-165.78C820.81,-165.78 828.85,-165.78 836.84,-165.78"/>
<polygon fill="#63b8ff" stroke="#63b8ff" points="836.57,-169.28 846.57,-165.78 836.57,-162.28 836.57,-169.28"/>
</a>
</g>
</g>
<!-- Node6&#45;&gt;Node4 -->
<g id="edge6_Node000006_Node000004" class="edge">
<title>Node6&#45;&gt;Node4</title>
<g id="a_edge6_Node000006_Node000004"><a xlink:title=" ">
<path fill="none" stroke="#63b8ff" d="M387.84,-208.02C449.72,-205.89 536.92,-201.18 612.75,-190.78 624.79,-189.13 637.44,-186.92 649.79,-184.5"/>
<polygon fill="#63b8ff" stroke="#63b8ff" points="650.43,-187.94 659.53,-182.53 649.04,-181.08 650.43,-187.94"/>
</a>
</g>
</g>
<!-- Node7&#45;&gt;Node3 -->
<g id="edge12_Node000007_Node000003" class="edge">
<title>Node7&#45;&gt;Node3</title>
<g id="a_edge12_Node000007_Node000003"><a xlink:title=" ">
<path fill="none" stroke="#63b8ff" d="M348.5,-114.24C370.63,-122.67 398.35,-132.81 423.5,-140.78 429.31,-142.62 435.36,-144.44 441.45,-146.21"/>
<polygon fill="#63b8ff" stroke="#63b8ff" points="440.4,-149.55 450.98,-148.92 442.32,-142.82 440.4,-149.55"/>
</a>
</g>
</g>
<!-- Node7&#45;&gt;Node4 -->
<g id="edge10_Node000007_Node000004" class="edge">
<title>Node7&#45;&gt;Node4</title>
<g id="a_edge10_Node000007_Node000004"><a xlink:title=" ">
<path fill="none" stroke="#63b8ff" d="M324.78,-81.32C346.45,-62.91 384.63,-34.18 423.5,-22.78 504.21,0.89 536.75,13.26 612.75,-22.78 663.47,-46.83 699.47,-104.85 717.17,-139.14"/>
<polygon fill="#63b8ff" stroke="#63b8ff" points="714,-140.62 721.59,-148.01 720.26,-137.5 714,-140.62"/>
</a>
</g>
</g>
<!-- Node8 -->
<g id="Node000008" class="node">
<title>Node8</title>
<g id="a_Node000008"><a xlink:href="classfr_1_1softsf_1_1sudokufx_1_1viewmodel_1_1grid_1_1_grid_view_model.html#a4fdf2930215eea12812190e33e1ddeca" target="_top" xlink:title="Handles all actions when a grid is successfully completed.">
<polygon fill="white" stroke="#666666" points="600,-113.78 436.25,-113.78 436.25,-81.78 600,-81.78 600,-113.78"/>
<text text-anchor="start" x="444.25" y="-100.28" font-family="Helvetica,sans-Serif" font-size="10.00">fr.softsf.sudokufx.viewmodel.grid.</text>
<text text-anchor="middle" x="518.12" y="-88.28" font-family="Helvetica,sans-Serif" font-size="10.00">GridViewModel.celebrateVictory</text>
</a>
</g>
</g>
<!-- Node7&#45;&gt;Node8 -->
<g id="edge8_Node000007_Node000008" class="edge">
<title>Node7&#45;&gt;Node8</title>
<g id="a_edge8_Node000007_Node000008"><a xlink:title=" ">
<path fill="none" stroke="#63b8ff" d="M387.71,-97.78C399.86,-97.78 412.46,-97.78 424.82,-97.78"/>
<polygon fill="#63b8ff" stroke="#63b8ff" points="424.57,-101.28 434.57,-97.78 424.57,-94.28 424.57,-101.28"/>
</a>
</g>
</g>
<!-- Node9 -->
<g id="Node000009" class="node">
<title>Node9</title>
<g id="a_Node000009"><a xlink:href="classfr_1_1softsf_1_1sudokufx_1_1viewmodel_1_1grid_1_1_grid_view_model.html#af41c64cb771df8f4fa5bbf0c3a34431b" target="_top" xlink:title="Solves the given 9x9 Sudoku grid.">
<polygon fill="white" stroke="#666666" points="601.12,-63.78 435.12,-63.78 435.12,-31.78 601.12,-31.78 601.12,-63.78"/>
<text text-anchor="start" x="443.12" y="-50.28" font-family="Helvetica,sans-Serif" font-size="10.00">fr.softsf.sudokufx.viewmodel.grid.</text>
<text text-anchor="middle" x="518.12" y="-38.28" font-family="Helvetica,sans-Serif" font-size="10.00">GridViewModel.getCurrentSolution</text>
</a>
</g>
</g>
<!-- Node7&#45;&gt;Node9 -->
<g id="edge11_Node000007_Node000009" class="edge">
<title>Node7&#45;&gt;Node9</title>
<g id="a_edge11_Node000007_Node000009"><a xlink:title=" ">
<path fill="none" stroke="#63b8ff" d="M375.84,-81.34C395.36,-76.7 416.75,-71.62 436.85,-66.84"/>
<polygon fill="#63b8ff" stroke="#63b8ff" points="437.47,-70.29 446.39,-64.58 435.86,-63.48 437.47,-70.29"/>
</a>
</g>
</g>
<!-- Node8&#45;&gt;Node8 -->
<g id="edge9_Node000008_Node000008" class="edge">
<title>Node8&#45;&gt;Node8</title>
<g id="a_edge9_Node000008_Node000008"><a xlink:title=" ">
<path fill="none" stroke="#63b8ff" d="M480.19,-114.22C473.11,-123.36 485.75,-131.78 518.12,-131.78 536.08,-131.78 547.97,-129.19 553.79,-125.32"/>
<polygon fill="#63b8ff" stroke="#63b8ff" points="557.18,-126.2 555.76,-115.7 550.32,-124.8 557.18,-126.2"/>
</a>
</g>
</g>
</g>
</svg>

<g id="navigator" transform="translate(0 0)" fill="#404254">
  <rect fill="#f2f5e9" fill-opacity="0.5" stroke="#606060" stroke-width=".5" x="0" y="0" width="60" height="60"/>
  <use id="zoomplus" xlink:href="#zoomPlus" x="17" y="9" onmousedown="handleZoom(evt,'in')"/>
  <use id="zoomminus" xlink:href="#zoomMin" x="42" y="9" onmousedown="handleZoom(evt,'out')"/>
  <use id="reset" xlink:href="#resetDef" x="30" y="36" onmousedown="handleReset()"/>
   <use id="arrowup" xlink:href="#arrowUp" x="0" y="0" onmousedown="handlePan(0,-1)"/>
  <use id="arrowright" xlink:href="#arrowRight" x="0" y="0" onmousedown="handlePan(1,0)"/>
  <use id="arrowdown" xlink:href="#arrowDown" x="0" y="0" onmousedown="handlePan(0,1)"/>
  <use id="arrowleft" xlink:href="#arrowLeft" x="0" y="0" onmousedown="handlePan(-1,0)"/>
</g>
<svg viewBox="0 0 15 15" width="100%" height="30px" preserveAspectRatio="xMaxYMin meet">
 <g id="arrow_out" transform="scale(0.3 0.3)">
  <a xlink:href="classfr_1_1softsf_1_1sudokufx_1_1viewmodel_1_1grid_1_1_grid_view_model_ac30ea1feb669d014d0d0a58bd85cfc87_cgraph_org.svg" target="_base">
   <rect id="button" ry="5" rx="5" y="6" x="6" height="38" width="38"
        fill="#f2f5e9" fill-opacity="0.5" stroke="#606060" stroke-width="1.0"/>
   <path id="arrow"
     d="M 11.500037,31.436501 C 11.940474,20.09759 22.043105,11.32322 32.158766,21.979434 L 37.068811,17.246167 C 37.068811,17.246167 37.088388,32 37.088388,32 L 22.160133,31.978069 C 22.160133,31.978069 26.997745,27.140456 26.997745,27.140456 C 18.528582,18.264221 13.291696,25.230495 11.500037,31.436501 z"
     style="fill:#404040;"/>
  </a>
 </g>
</svg>

<style type='text/css'>
<![CDATA[
[data-mouse-over-selected='false'] { opacity: 0.7; }
[data-mouse-over-selected='true']  { opacity: 1.0; }
]]>
</style>
<script type="application/ecmascript"><![CDATA[
document.addEventListener('DOMContentLoaded', (event) => {
  highlightEdges();
  highlightAdjacentNodes();
});
]]></script>
</svg>
