<?xml version="1.0" encoding="UTF-8" standalone="no"?>
<!DOCTYPE svg PUBLIC "-//W3C//DTD SVG 1.1//EN"
 "http://www.w3.org/Graphics/SVG/1.1/DTD/svg11.dtd">
<!-- Generated by graphviz version 12.2.1 (20241206.2353)
 -->
<!-- Title: fr.softsf.sudokufx.view.component.toaster.ToasterVBox.addToast Pages: 1 -->
<svg width="686pt" height="140pt"
 viewBox="0.00 0.00 686.00 140.00" xmlns="http://www.w3.org/2000/svg" xmlns:xlink="http://www.w3.org/1999/xlink">
<g id="graph0" class="graph" transform="scale(1 1) rotate(0) translate(4 136)">
<title>fr.softsf.sudokufx.view.component.toaster.ToasterVBox.addToast</title>
<!-- Node1 -->
<g id="Node000001" class="node">
<title>Node1</title>
<g id="a_Node000001"><a xlink:title="Adds a toast notification with an automatically calculated duration based on text length.">
<polygon fill="#999999" stroke="#666666" points="202,-82 0,-82 0,-50 202,-50 202,-82"/>
<text text-anchor="start" x="8" y="-68.5" font-family="Helvetica,sans-Serif" font-size="10.00">fr.softsf.sudokufx.view.component.toaster.</text>
<text text-anchor="middle" x="101" y="-56.5" font-family="Helvetica,sans-Serif" font-size="10.00">ToasterVBox.addToast</text>
</a>
</g>
</g>
<!-- Node2 -->
<g id="Node000002" class="node">
<title>Node2</title>
<g id="a_Node000002"><a xlink:href="classfr_1_1softsf_1_1sudokufx_1_1view_1_1component_1_1toaster_1_1_toaster_v_box.html#a7df4872b0cf0eeb5cd3a04ce7ccb0fef" target="_top" xlink:title="Sets the accessibility text for the toast based on its level.">
<polygon fill="white" stroke="#666666" points="440,-132 238,-132 238,-100 440,-100 440,-132"/>
<text text-anchor="start" x="246" y="-118.5" font-family="Helvetica,sans-Serif" font-size="10.00">fr.softsf.sudokufx.view.component.toaster.</text>
<text text-anchor="middle" x="339" y="-106.5" font-family="Helvetica,sans-Serif" font-size="10.00">ToasterVBox.setAccessibility</text>
</a>
</g>
</g>
<!-- Node1&#45;&gt;Node2 -->
<g id="edge1_Node000001_Node000002" class="edge">
<title>Node1&#45;&gt;Node2</title>
<g id="a_edge1_Node000001_Node000002"><a xlink:title=" ">
<path fill="none" stroke="#63b8ff" d="M179.6,-82.44C201.88,-87.16 226.35,-92.35 249.25,-97.2"/>
<polygon fill="#63b8ff" stroke="#63b8ff" points="248.36,-100.59 258.87,-99.24 249.81,-93.74 248.36,-100.59"/>
</a>
</g>
</g>
<!-- Node4 -->
<g id="Node000004" class="node">
<title>Node4</title>
<g id="a_Node000004"><a xlink:href="classfr_1_1softsf_1_1sudokufx_1_1view_1_1component_1_1toaster_1_1_toaster_v_box.html#a1f7607f18913c940c16c9de28f3e7ae7" target="_top" xlink:title="Sets the style of the toast based on its level.">
<polygon fill="white" stroke="#666666" points="440,-82 238,-82 238,-50 440,-50 440,-82"/>
<text text-anchor="start" x="246" y="-68.5" font-family="Helvetica,sans-Serif" font-size="10.00">fr.softsf.sudokufx.view.component.toaster.</text>
<text text-anchor="middle" x="339" y="-56.5" font-family="Helvetica,sans-Serif" font-size="10.00">ToasterVBox.setToastStyle</text>
</a>
</g>
</g>
<!-- Node1&#45;&gt;Node4 -->
<g id="edge3_Node000001_Node000004" class="edge">
<title>Node1&#45;&gt;Node4</title>
<g id="a_edge3_Node000001_Node000004"><a xlink:title=" ">
<path fill="none" stroke="#63b8ff" d="M202.43,-66C210.36,-66 218.4,-66 226.4,-66"/>
<polygon fill="#63b8ff" stroke="#63b8ff" points="226.15,-69.5 236.15,-66 226.15,-62.5 226.15,-69.5"/>
</a>
</g>
</g>
<!-- Node6 -->
<g id="Node000006" class="node">
<title>Node6</title>
<g id="a_Node000006"><a xlink:href="classfr_1_1softsf_1_1sudokufx_1_1view_1_1component_1_1toaster_1_1_toaster_v_box.html#abd2310564b394c59530d5e7b2a0d0776" target="_top" xlink:title="Sets a timer to automatically remove the toast after a specified duration.">
<polygon fill="white" stroke="#666666" points="440,-32 238,-32 238,0 440,0 440,-32"/>
<text text-anchor="start" x="246" y="-18.5" font-family="Helvetica,sans-Serif" font-size="10.00">fr.softsf.sudokufx.view.component.toaster.</text>
<text text-anchor="middle" x="339" y="-6.5" font-family="Helvetica,sans-Serif" font-size="10.00">ToasterVBox.temporizeToast</text>
</a>
</g>
</g>
<!-- Node1&#45;&gt;Node6 -->
<g id="edge5_Node000001_Node000006" class="edge">
<title>Node1&#45;&gt;Node6</title>
<g id="a_edge5_Node000001_Node000006"><a xlink:title=" ">
<path fill="none" stroke="#63b8ff" d="M179.6,-49.56C201.88,-44.84 226.35,-39.65 249.25,-34.8"/>
<polygon fill="#63b8ff" stroke="#63b8ff" points="249.81,-38.26 258.87,-32.76 248.36,-31.41 249.81,-38.26"/>
</a>
</g>
</g>
<!-- Node3 -->
<g id="Node000003" class="node">
<title>Node3</title>
<g id="a_Node000003"><a xlink:href="classfr_1_1softsf_1_1sudokufx_1_1view_1_1component_1_1toaster_1_1_toaster_v_box.html#a67957eac2367e7b8018ef0d2ce354bef" target="_top" xlink:title="Retrieves the information text corresponding to the specified toast level.">
<polygon fill="white" stroke="#666666" points="678,-132 476,-132 476,-100 678,-100 678,-132"/>
<text text-anchor="start" x="484" y="-118.5" font-family="Helvetica,sans-Serif" font-size="10.00">fr.softsf.sudokufx.view.component.toaster.</text>
<text text-anchor="middle" x="577" y="-106.5" font-family="Helvetica,sans-Serif" font-size="10.00">ToasterVBox.getToastInfo</text>
</a>
</g>
</g>
<!-- Node2&#45;&gt;Node3 -->
<g id="edge2_Node000002_Node000003" class="edge">
<title>Node2&#45;&gt;Node3</title>
<g id="a_edge2_Node000002_Node000003"><a xlink:title=" ">
<path fill="none" stroke="#63b8ff" d="M440.43,-116C448.36,-116 456.4,-116 464.4,-116"/>
<polygon fill="#63b8ff" stroke="#63b8ff" points="464.15,-119.5 474.15,-116 464.15,-112.5 464.15,-119.5"/>
</a>
</g>
</g>
<!-- Node5 -->
<g id="Node000005" class="node">
<title>Node5</title>
<g id="a_Node000005"><a xlink:href="enumfr_1_1softsf_1_1sudokufx_1_1enums_1_1_toast_levels.html#a37cf79bc87b16f23dc854d3de19d331b" target="_top" xlink:title=" ">
<polygon fill="white" stroke="#666666" points="640.88,-82 513.12,-82 513.12,-50 640.88,-50 640.88,-82"/>
<text text-anchor="start" x="521.12" y="-68.5" font-family="Helvetica,sans-Serif" font-size="10.00">fr.softsf.sudokufx.enums.</text>
<text text-anchor="middle" x="577" y="-56.5" font-family="Helvetica,sans-Serif" font-size="10.00">ToastLevels.getLevel</text>
</a>
</g>
</g>
<!-- Node4&#45;&gt;Node5 -->
<g id="edge4_Node000004_Node000005" class="edge">
<title>Node4&#45;&gt;Node5</title>
<g id="a_edge4_Node000004_Node000005"><a xlink:title=" ">
<path fill="none" stroke="#63b8ff" d="M440.43,-66C460.89,-66 482.07,-66 501.43,-66"/>
<polygon fill="#63b8ff" stroke="#63b8ff" points="501.41,-69.5 511.41,-66 501.41,-62.5 501.41,-69.5"/>
</a>
</g>
</g>
</g>
</svg>
