<?xml version="1.0" encoding="UTF-8" standalone="no"?>
<!DOCTYPE svg PUBLIC "-//W3C//DTD SVG 1.1//EN"
 "http://www.w3.org/Graphics/SVG/1.1/DTD/svg11.dtd">
<!-- Generated by graphviz version 12.2.1 (20241206.2353)
 -->
<!-- Title: fr.softsf.sudokufx.viewmodel.MenuBackgroundViewModel.init Pages: 1 -->
<!--zoomable 217 -->

<svg id="main" version="1.1" xmlns="http://www.w3.org/2000/svg" xmlns:xlink="http://www.w3.org/1999/xlink" xml:space="preserve" onload="init(evt)">

<style type="text/css"><![CDATA[
.node, .edge {opacity: 0.7;}
.node.selected, .edge.selected {opacity: 1;}
.edge:hover path { stroke: red; }
.edge:hover polygon { stroke: red; fill: red; }
]]></style>

<defs>
  <circle id="rim" cx="0" cy="0" r="7"/>
  <circle id="rim2" cx="0" cy="0" r="3.5"/>
  <g id="zoomPlus">
    <use xlink:href="#rim" fill="#404040"><set attributeName="fill" to="#808080" begin="zoomplus.mouseover" end="zoomplus.mouseout"/></use>
    <path d="M-4,0h8M0,-4v8" fill="none" stroke="white" stroke-width="1.5" pointer-events="none"/>
  </g>
  <g id="zoomMin">
    <use xlink:href="#rim" fill="#404040"><set attributeName="fill" to="#808080" begin="zoomminus.mouseover" end="zoomminus.mouseout"/></use>
    <path d="M-4,0h8" fill="none" stroke="white" stroke-width="1.5" pointer-events="none"/>
  </g>
  <g id="arrowUp" transform="translate(30 24)">
    <use xlink:href="#rim"/>
    <path pointer-events="none" fill="none" stroke="white" stroke-width="1.5" d="M0,-3.0v7 M-2.5,-0.5L0,-3.0L2.5,-0.5"/>
  </g>
  <g id="arrowRight" transform="rotate(90) translate(36 -43)">
    <use xlink:href="#rim"/>
    <path pointer-events="none" fill="none" stroke="white" stroke-width="1.5" d="M0,-3.0v7 M-2.5,-0.5L0,-3.0L2.5,-0.5"/>
  </g>
  <g id="arrowDown" transform="rotate(180) translate(-30 -48)">
    <use xlink:href="#rim"/>
    <path pointer-events="none" fill="none" stroke="white" stroke-width="1.5" d="M0,-3.0v7 M-2.5,-0.5L0,-3.0L2.5,-0.5"/>
  </g>
  <g id="arrowLeft" transform="rotate(270) translate(-36 17)">
    <use xlink:href="#rim"/>
    <path pointer-events="none" fill="none" stroke="white" stroke-width="1.5" d="M0,-3.0v7 M-2.5,-0.5L0,-3.0L2.5,-0.5"/>
  </g>
  <g id="resetDef">
    <use xlink:href="#rim2" fill="#404040"><set attributeName="fill" to="#808080" begin="reset.mouseover" end="reset.mouseout"/></use>
  </g>
</defs>
<script type="application/ecmascript">
var viewWidth = 1583;
var viewHeight = 217;
var sectionId = 'dynsection-3';
</script>
<script type="application/ecmascript" xlink:href="svg.min.js"/>
<svg id="graph" class="graph">
<g id="viewport">
<title>fr.softsf.sudokufx.viewmodel.MenuBackgroundViewModel.init</title>
<!-- Node1 -->
<g id="Node000001" class="node">
<title>Node1</title>
<g id="a_Node000001"><a xlink:title="Initializes the GridPane background with either a predefined color or image.">
<polygon fill="#999999" stroke="#666666" points="155.5,-125.22 0,-125.22 0,-93.22 155.5,-93.22 155.5,-125.22"/>
<text text-anchor="start" x="8" y="-111.72" font-family="Helvetica,sans-Serif" font-size="10.00">fr.softsf.sudokufx.viewmodel.</text>
<text text-anchor="middle" x="77.75" y="-99.72" font-family="Helvetica,sans-Serif" font-size="10.00">MenuBackgroundViewModel.init</text>
</a>
</g>
</g>
<!-- Node2 -->
<g id="Node000002" class="node">
<title>Node2</title>
<g id="a_Node000002"><a xlink:href="classfr_1_1softsf_1_1sudokufx_1_1viewmodel_1_1_menu_background_view_model.html#a260352d8d5ffcc3f691984620672f38b" target="_top" xlink:title="Handles image file selection by validating the file format and starting the image loading process.">
<polygon fill="white" stroke="#666666" points="378.5,-162.22 191.5,-162.22 191.5,-118.22 378.5,-118.22 378.5,-162.22"/>
<text text-anchor="start" x="199.5" y="-148.72" font-family="Helvetica,sans-Serif" font-size="10.00">fr.softsf.sudokufx.viewmodel.</text>
<text text-anchor="start" x="199.5" y="-136.72" font-family="Helvetica,sans-Serif" font-size="10.00">MenuBackgroundViewModel.handleFile</text>
<text text-anchor="middle" x="285" y="-124.72" font-family="Helvetica,sans-Serif" font-size="10.00">ImageChooser</text>
</a>
</g>
</g>
<!-- Node1&#45;&gt;Node2 -->
<g id="edge1_Node000001_Node000002" class="edge">
<title>Node1&#45;&gt;Node2</title>
<g id="a_edge1_Node000001_Node000002"><a xlink:title=" ">
<path fill="none" stroke="#63b8ff" d="M155.76,-120.85C163.74,-122.06 171.94,-123.3 180.14,-124.54"/>
<polygon fill="#63b8ff" stroke="#63b8ff" points="179.42,-127.97 189.83,-126 180.46,-121.04 179.42,-127.97"/>
</a>
</g>
</g>
<!-- Node14 -->
<g id="Node000014" class="node">
<title>Node14</title>
<g id="a_Node000014"><a xlink:href="classfr_1_1softsf_1_1sudokufx_1_1viewmodel_1_1_menu_background_view_model.html#abae6bf1bd0e33503185cef94b3ec339e" target="_top" xlink:title="Applies a background color to the GridPane and sets it in the ColorPicker.">
<polygon fill="white" stroke="#666666" points="374.75,-100.22 195.25,-100.22 195.25,-56.22 374.75,-56.22 374.75,-100.22"/>
<text text-anchor="start" x="203.25" y="-86.72" font-family="Helvetica,sans-Serif" font-size="10.00">fr.softsf.sudokufx.viewmodel.</text>
<text text-anchor="start" x="203.25" y="-74.72" font-family="Helvetica,sans-Serif" font-size="10.00">MenuBackgroundViewModel.setColor</text>
<text text-anchor="middle" x="285" y="-62.72" font-family="Helvetica,sans-Serif" font-size="10.00">FromModel</text>
</a>
</g>
</g>
<!-- Node1&#45;&gt;Node14 -->
<g id="edge20_Node000001_Node000014" class="edge">
<title>Node1&#45;&gt;Node14</title>
<g id="a_edge20_Node000001_Node000014"><a xlink:title=" ">
<path fill="none" stroke="#63b8ff" d="M155.76,-97.59C164.82,-96.22 174.16,-94.81 183.48,-93.4"/>
<polygon fill="#63b8ff" stroke="#63b8ff" points="183.95,-96.87 193.32,-91.92 182.91,-89.95 183.95,-96.87"/>
</a>
</g>
</g>
<!-- Node3 -->
<g id="Node000003" class="node">
<title>Node3</title>
<g id="a_Node000003"><a xlink:href="classfr_1_1softsf_1_1sudokufx_1_1view_1_1component_1_1toaster_1_1_toaster_v_box.html#ad5dd108caa143c370a7e22825923a776" target="_top" xlink:title="Adds a toast notification with an automatically calculated duration based on text length.">
<polygon fill="white" stroke="#666666" points="1098.5,-159.22 896.5,-159.22 896.5,-127.22 1098.5,-127.22 1098.5,-159.22"/>
<text text-anchor="start" x="904.5" y="-145.72" font-family="Helvetica,sans-Serif" font-size="10.00">fr.softsf.sudokufx.view.component.toaster.</text>
<text text-anchor="middle" x="997.5" y="-133.72" font-family="Helvetica,sans-Serif" font-size="10.00">ToasterVBox.addToast</text>
</a>
</g>
</g>
<!-- Node2&#45;&gt;Node3 -->
<g id="edge2_Node000002_Node000003" class="edge">
<title>Node2&#45;&gt;Node3</title>
<g id="a_edge2_Node000002_Node000003"><a xlink:title=" ">
<path fill="none" stroke="#63b8ff" d="M378.79,-143.83C492.38,-147.74 690.59,-152.97 860.5,-149.22 868.46,-149.05 876.68,-148.81 884.95,-148.54"/>
<polygon fill="#63b8ff" stroke="#63b8ff" points="884.87,-152.05 894.74,-148.2 884.62,-145.05 884.87,-152.05"/>
</a>
</g>
</g>
<!-- Node9 -->
<g id="Node000009" class="node">
<title>Node9</title>
<g id="a_Node000009"><a xlink:href="classfr_1_1softsf_1_1sudokufx_1_1viewmodel_1_1_menu_background_view_model.html#a9907e8c5d60e1b4f0b748cf3dc197e1c" target="_top" xlink:title="Starts the asynchronous image loading and resizing task.">
<polygon fill="white" stroke="#666666" points="602.25,-112.22 414.5,-112.22 414.5,-80.22 602.25,-80.22 602.25,-112.22"/>
<text text-anchor="start" x="422.5" y="-98.72" font-family="Helvetica,sans-Serif" font-size="10.00">fr.softsf.sudokufx.viewmodel.</text>
<text text-anchor="middle" x="508.38" y="-86.72" font-family="Helvetica,sans-Serif" font-size="10.00">MenuBackgroundViewModel.loadImage</text>
</a>
</g>
</g>
<!-- Node2&#45;&gt;Node9 -->
<g id="edge8_Node000002_Node000009" class="edge">
<title>Node2&#45;&gt;Node9</title>
<g id="a_edge8_Node000002_Node000009"><a xlink:title=" ">
<path fill="none" stroke="#63b8ff" d="M378.92,-121.75C390.28,-119.5 401.9,-117.19 413.27,-114.93"/>
<polygon fill="#63b8ff" stroke="#63b8ff" points="413.94,-118.36 423.07,-112.98 412.57,-111.5 413.94,-118.36"/>
</a>
</g>
</g>
<!-- Node4 -->
<g id="Node000004" class="node">
<title>Node4</title>
<g id="a_Node000004"><a xlink:href="classfr_1_1softsf_1_1sudokufx_1_1view_1_1component_1_1toaster_1_1_toaster_v_box.html#a7df4872b0cf0eeb5cd3a04ce7ccb0fef" target="_top" xlink:title="Sets the accessibility text for the toast based on its level.">
<polygon fill="white" stroke="#666666" points="1336.5,-159.22 1134.5,-159.22 1134.5,-127.22 1336.5,-127.22 1336.5,-159.22"/>
<text text-anchor="start" x="1142.5" y="-145.72" font-family="Helvetica,sans-Serif" font-size="10.00">fr.softsf.sudokufx.view.component.toaster.</text>
<text text-anchor="middle" x="1235.5" y="-133.72" font-family="Helvetica,sans-Serif" font-size="10.00">ToasterVBox.setAccessibility</text>
</a>
</g>
</g>
<!-- Node3&#45;&gt;Node4 -->
<g id="edge3_Node000003_Node000004" class="edge">
<title>Node3&#45;&gt;Node4</title>
<g id="a_edge3_Node000003_Node000004"><a xlink:title=" ">
<path fill="none" stroke="#63b8ff" d="M1098.93,-143.22C1106.86,-143.22 1114.9,-143.22 1122.9,-143.22"/>
<polygon fill="#63b8ff" stroke="#63b8ff" points="1122.65,-146.72 1132.65,-143.22 1122.65,-139.72 1122.65,-146.72"/>
</a>
</g>
</g>
<!-- Node6 -->
<g id="Node000006" class="node">
<title>Node6</title>
<g id="a_Node000006"><a xlink:href="classfr_1_1softsf_1_1sudokufx_1_1view_1_1component_1_1toaster_1_1_toaster_v_box.html#a1f7607f18913c940c16c9de28f3e7ae7" target="_top" xlink:title="Sets the style of the toast based on its level.">
<polygon fill="white" stroke="#666666" points="1336.5,-209.22 1134.5,-209.22 1134.5,-177.22 1336.5,-177.22 1336.5,-209.22"/>
<text text-anchor="start" x="1142.5" y="-195.72" font-family="Helvetica,sans-Serif" font-size="10.00">fr.softsf.sudokufx.view.component.toaster.</text>
<text text-anchor="middle" x="1235.5" y="-183.72" font-family="Helvetica,sans-Serif" font-size="10.00">ToasterVBox.setToastStyle</text>
</a>
</g>
</g>
<!-- Node3&#45;&gt;Node6 -->
<g id="edge5_Node000003_Node000006" class="edge">
<title>Node3&#45;&gt;Node6</title>
<g id="a_edge5_Node000003_Node000006"><a xlink:title=" ">
<path fill="none" stroke="#63b8ff" d="M1076.1,-159.66C1098.38,-164.38 1122.85,-169.57 1145.75,-174.42"/>
<polygon fill="#63b8ff" stroke="#63b8ff" points="1144.86,-177.81 1155.37,-176.46 1146.31,-170.96 1144.86,-177.81"/>
</a>
</g>
</g>
<!-- Node8 -->
<g id="Node000008" class="node">
<title>Node8</title>
<g id="a_Node000008"><a xlink:href="classfr_1_1softsf_1_1sudokufx_1_1view_1_1component_1_1toaster_1_1_toaster_v_box.html#abd2310564b394c59530d5e7b2a0d0776" target="_top" xlink:title="Sets a timer to automatically remove the toast after a specified duration.">
<polygon fill="white" stroke="#666666" points="1336.5,-109.22 1134.5,-109.22 1134.5,-77.22 1336.5,-77.22 1336.5,-109.22"/>
<text text-anchor="start" x="1142.5" y="-95.72" font-family="Helvetica,sans-Serif" font-size="10.00">fr.softsf.sudokufx.view.component.toaster.</text>
<text text-anchor="middle" x="1235.5" y="-83.72" font-family="Helvetica,sans-Serif" font-size="10.00">ToasterVBox.temporizeToast</text>
</a>
</g>
</g>
<!-- Node3&#45;&gt;Node8 -->
<g id="edge7_Node000003_Node000008" class="edge">
<title>Node3&#45;&gt;Node8</title>
<g id="a_edge7_Node000003_Node000008"><a xlink:title=" ">
<path fill="none" stroke="#63b8ff" d="M1076.1,-126.78C1098.38,-122.06 1122.85,-116.88 1145.75,-112.02"/>
<polygon fill="#63b8ff" stroke="#63b8ff" points="1146.31,-115.48 1155.37,-109.99 1144.86,-108.64 1146.31,-115.48"/>
</a>
</g>
</g>
<!-- Node5 -->
<g id="Node000005" class="node">
<title>Node5</title>
<g id="a_Node000005"><a xlink:href="classfr_1_1softsf_1_1sudokufx_1_1view_1_1component_1_1toaster_1_1_toaster_v_box.html#a67957eac2367e7b8018ef0d2ce354bef" target="_top" xlink:title="Retrieves the information text corresponding to the specified toast level.">
<polygon fill="white" stroke="#666666" points="1574.5,-159.22 1372.5,-159.22 1372.5,-127.22 1574.5,-127.22 1574.5,-159.22"/>
<text text-anchor="start" x="1380.5" y="-145.72" font-family="Helvetica,sans-Serif" font-size="10.00">fr.softsf.sudokufx.view.component.toaster.</text>
<text text-anchor="middle" x="1473.5" y="-133.72" font-family="Helvetica,sans-Serif" font-size="10.00">ToasterVBox.getToastInfo</text>
</a>
</g>
</g>
<!-- Node4&#45;&gt;Node5 -->
<g id="edge4_Node000004_Node000005" class="edge">
<title>Node4&#45;&gt;Node5</title>
<g id="a_edge4_Node000004_Node000005"><a xlink:title=" ">
<path fill="none" stroke="#63b8ff" d="M1336.93,-143.22C1344.86,-143.22 1352.9,-143.22 1360.9,-143.22"/>
<polygon fill="#63b8ff" stroke="#63b8ff" points="1360.65,-146.72 1370.65,-143.22 1360.65,-139.72 1360.65,-146.72"/>
</a>
</g>
</g>
<!-- Node7 -->
<g id="Node000007" class="node">
<title>Node7</title>
<g id="a_Node000007"><a xlink:href="enumfr_1_1softsf_1_1sudokufx_1_1enums_1_1_toast_levels.html#a37cf79bc87b16f23dc854d3de19d331b" target="_top" xlink:title=" ">
<polygon fill="white" stroke="#666666" points="1537.38,-209.22 1409.62,-209.22 1409.62,-177.22 1537.38,-177.22 1537.38,-209.22"/>
<text text-anchor="start" x="1417.62" y="-195.72" font-family="Helvetica,sans-Serif" font-size="10.00">fr.softsf.sudokufx.enums.</text>
<text text-anchor="middle" x="1473.5" y="-183.72" font-family="Helvetica,sans-Serif" font-size="10.00">ToastLevels.getLevel</text>
</a>
</g>
</g>
<!-- Node6&#45;&gt;Node7 -->
<g id="edge6_Node000006_Node000007" class="edge">
<title>Node6&#45;&gt;Node7</title>
<g id="a_edge6_Node000006_Node000007"><a xlink:title=" ">
<path fill="none" stroke="#63b8ff" d="M1336.93,-193.22C1357.39,-193.22 1378.57,-193.22 1397.93,-193.22"/>
<polygon fill="#63b8ff" stroke="#63b8ff" points="1397.91,-196.72 1407.91,-193.22 1397.91,-189.72 1397.91,-196.72"/>
</a>
</g>
</g>
<!-- Node9&#45;&gt;Node3 -->
<g id="edge9_Node000009_Node000003" class="edge">
<title>Node9&#45;&gt;Node3</title>
<g id="a_edge9_Node000009_Node000003"><a xlink:title=" ">
<path fill="none" stroke="#63b8ff" d="M567.3,-112.65C589.33,-118.24 614.78,-123.91 638.25,-127.22 720.32,-138.82 813.91,-142.68 884.85,-143.72"/>
<polygon fill="#63b8ff" stroke="#63b8ff" points="884.48,-147.21 894.52,-143.84 884.57,-140.21 884.48,-147.21"/>
</a>
</g>
</g>
<!-- Node10 -->
<g id="Node000010" class="node">
<title>Node10</title>
<g id="a_Node000010"><a xlink:href="classfr_1_1softsf_1_1sudokufx_1_1viewmodel_1_1_menu_background_view_model.html#aa52464dc847a4a6e2d9141839f230037" target="_top" xlink:title="Called upon successful completion of the image loading task.">
<polygon fill="white" stroke="#666666" points="850,-118.22 648.75,-118.22 648.75,-74.22 850,-74.22 850,-118.22"/>
<text text-anchor="start" x="656.75" y="-104.72" font-family="Helvetica,sans-Serif" font-size="10.00">fr.softsf.sudokufx.viewmodel.</text>
<text text-anchor="start" x="656.75" y="-92.72" font-family="Helvetica,sans-Serif" font-size="10.00">MenuBackgroundViewModel.onImageTask</text>
<text text-anchor="middle" x="749.38" y="-80.72" font-family="Helvetica,sans-Serif" font-size="10.00">Complete</text>
</a>
</g>
</g>
<!-- Node9&#45;&gt;Node10 -->
<g id="edge10_Node000009_Node000010" class="edge">
<title>Node9&#45;&gt;Node10</title>
<g id="a_edge10_Node000009_Node000010"><a xlink:title=" ">
<path fill="none" stroke="#63b8ff" d="M602.46,-96.22C613.77,-96.22 625.4,-96.22 636.94,-96.22"/>
<polygon fill="#63b8ff" stroke="#63b8ff" points="636.91,-99.72 646.91,-96.22 636.91,-92.72 636.91,-99.72"/>
</a>
</g>
</g>
<!-- Node12 -->
<g id="Node000012" class="node">
<title>Node12</title>
<g id="a_Node000012"><a xlink:href="classfr_1_1softsf_1_1sudokufx_1_1view_1_1component_1_1_spinner_grid_pane.html#a170661e162609697b2bd6e2cd9a22b60" target="_top" xlink:title="Shows or hides the spinner.">
<polygon fill="white" stroke="#666666" points="1082,-56.22 913,-56.22 913,-24.22 1082,-24.22 1082,-56.22"/>
<text text-anchor="start" x="921" y="-42.72" font-family="Helvetica,sans-Serif" font-size="10.00">fr.softsf.sudokufx.view.component.</text>
<text text-anchor="middle" x="997.5" y="-30.72" font-family="Helvetica,sans-Serif" font-size="10.00">SpinnerGridPane.showSpinner</text>
</a>
</g>
</g>
<!-- Node9&#45;&gt;Node12 -->
<g id="edge19_Node000009_Node000012" class="edge">
<title>Node9&#45;&gt;Node12</title>
<g id="a_edge19_Node000009_Node000012"><a xlink:title=" ">
<path fill="none" stroke="#63b8ff" d="M527.79,-79.85C551.41,-60.05 594.57,-27.81 638.25,-15.22 735.27,12.73 852.89,-4.68 926.24,-21.25"/>
<polygon fill="#63b8ff" stroke="#63b8ff" points="925.17,-24.6 935.7,-23.45 926.75,-17.78 925.17,-24.6"/>
</a>
</g>
</g>
<!-- Node13 -->
<g id="Node000013" class="node">
<title>Node13</title>
<g id="a_Node000013"><a xlink:href="classfr_1_1softsf_1_1sudokufx_1_1viewmodel_1_1_menu_background_view_model.html#aa381c1f7620cd458dc3f89b7e106e3e4" target="_top" xlink:title="Called when the image loading task fails.">
<polygon fill="white" stroke="#666666" points="860.5,-56.22 638.25,-56.22 638.25,-24.22 860.5,-24.22 860.5,-56.22"/>
<text text-anchor="start" x="646.25" y="-42.72" font-family="Helvetica,sans-Serif" font-size="10.00">fr.softsf.sudokufx.viewmodel.</text>
<text text-anchor="middle" x="749.38" y="-30.72" font-family="Helvetica,sans-Serif" font-size="10.00">MenuBackgroundViewModel.onImageTaskError</text>
</a>
</g>
</g>
<!-- Node9&#45;&gt;Node13 -->
<g id="edge15_Node000009_Node000013" class="edge">
<title>Node9&#45;&gt;Node13</title>
<g id="a_edge15_Node000009_Node000013"><a xlink:title=" ">
<path fill="none" stroke="#63b8ff" d="M577.22,-79.73C596.9,-74.99 618.42,-69.86 638.25,-65.22 646.64,-63.26 655.39,-61.24 664.14,-59.23"/>
<polygon fill="#63b8ff" stroke="#63b8ff" points="664.75,-62.68 673.71,-57.04 663.18,-55.86 664.75,-62.68"/>
</a>
</g>
</g>
<!-- Node10&#45;&gt;Node3 -->
<g id="edge11_Node000010_Node000003" class="edge">
<title>Node10&#45;&gt;Node3</title>
<g id="a_edge11_Node000010_Node000003"><a xlink:title=" ">
<path fill="none" stroke="#63b8ff" d="M850.48,-115.34C866.6,-118.42 883.25,-121.6 899.29,-124.66"/>
<polygon fill="#63b8ff" stroke="#63b8ff" points="898.32,-128.04 908.8,-126.47 899.64,-121.16 898.32,-128.04"/>
</a>
</g>
</g>
<!-- Node11 -->
<g id="Node000011" class="node">
<title>Node11</title>
<g id="a_Node000011"><a xlink:href="classfr_1_1softsf_1_1sudokufx_1_1view_1_1component_1_1toaster_1_1_toaster_v_box.html#ac901d34317be26e1fd391a134f42e7bf" target="_top" xlink:title="Schedules the current toast for removal after a short delay.">
<polygon fill="white" stroke="#666666" points="1098.5,-109.22 896.5,-109.22 896.5,-77.22 1098.5,-77.22 1098.5,-109.22"/>
<text text-anchor="start" x="904.5" y="-95.72" font-family="Helvetica,sans-Serif" font-size="10.00">fr.softsf.sudokufx.view.component.toaster.</text>
<text text-anchor="middle" x="997.5" y="-83.72" font-family="Helvetica,sans-Serif" font-size="10.00">ToasterVBox.removeToast</text>
</a>
</g>
</g>
<!-- Node10&#45;&gt;Node11 -->
<g id="edge12_Node000010_Node000011" class="edge">
<title>Node10&#45;&gt;Node11</title>
<g id="a_edge12_Node000010_Node000011"><a xlink:title=" ">
<path fill="none" stroke="#63b8ff" d="M850.48,-95C861.76,-94.86 873.31,-94.72 884.72,-94.58"/>
<polygon fill="#63b8ff" stroke="#63b8ff" points="884.61,-98.09 894.57,-94.46 884.53,-91.09 884.61,-98.09"/>
</a>
</g>
</g>
<!-- Node10&#45;&gt;Node12 -->
<g id="edge14_Node000010_Node000012" class="edge">
<title>Node10&#45;&gt;Node12</title>
<g id="a_edge14_Node000010_Node000012"><a xlink:title=" ">
<path fill="none" stroke="#63b8ff" d="M849.07,-73.77C870.38,-68.92 892.71,-63.84 913.35,-59.14"/>
<polygon fill="#63b8ff" stroke="#63b8ff" points="913.86,-62.61 922.83,-56.98 912.3,-55.79 913.86,-62.61"/>
</a>
</g>
</g>
<!-- Node11&#45;&gt;Node8 -->
<g id="edge13_Node000011_Node000008" class="edge">
<title>Node11&#45;&gt;Node8</title>
<g id="a_edge13_Node000011_Node000008"><a xlink:title=" ">
<path fill="none" stroke="#63b8ff" d="M1098.93,-93.22C1106.86,-93.22 1114.9,-93.22 1122.9,-93.22"/>
<polygon fill="#63b8ff" stroke="#63b8ff" points="1122.65,-96.72 1132.65,-93.22 1122.65,-89.72 1122.65,-96.72"/>
</a>
</g>
</g>
<!-- Node13&#45;&gt;Node3 -->
<g id="edge16_Node000013_Node000003" class="edge">
<title>Node13&#45;&gt;Node3</title>
<g id="a_edge16_Node000013_Node000003"><a xlink:title=" ">
<path fill="none" stroke="#63b8ff" d="M845.23,-56.65C850.58,-59.12 855.72,-61.96 860.5,-65.22 884.02,-81.27 873.15,-101.92 896.5,-118.22 898.11,-119.35 899.77,-120.43 901.47,-121.45"/>
<polygon fill="#63b8ff" stroke="#63b8ff" points="899.77,-124.51 910.24,-126.12 903.06,-118.33 899.77,-124.51"/>
</a>
</g>
</g>
<!-- Node13&#45;&gt;Node11 -->
<g id="edge17_Node000013_Node000011" class="edge">
<title>Node13&#45;&gt;Node11</title>
<g id="a_edge17_Node000013_Node000011"><a xlink:title=" ">
<path fill="none" stroke="#63b8ff" d="M826.9,-56.7C852.95,-62.31 882.25,-68.62 909.09,-74.4"/>
<polygon fill="#63b8ff" stroke="#63b8ff" points="908.03,-77.75 918.54,-76.43 909.5,-70.91 908.03,-77.75"/>
</a>
</g>
</g>
<!-- Node13&#45;&gt;Node12 -->
<g id="edge18_Node000013_Node000012" class="edge">
<title>Node13&#45;&gt;Node12</title>
<g id="a_edge18_Node000013_Node000012"><a xlink:title=" ">
<path fill="none" stroke="#63b8ff" d="M860.84,-40.22C874.28,-40.22 887.93,-40.22 901.12,-40.22"/>
<polygon fill="#63b8ff" stroke="#63b8ff" points="901.07,-43.72 911.07,-40.22 901.07,-36.72 901.07,-43.72"/>
</a>
</g>
</g>
</g>
</svg>

<g id="navigator" transform="translate(0 0)" fill="#404254">
  <rect fill="#f2f5e9" fill-opacity="0.5" stroke="#606060" stroke-width=".5" x="0" y="0" width="60" height="60"/>
  <use id="zoomplus" xlink:href="#zoomPlus" x="17" y="9" onmousedown="handleZoom(evt,'in')"/>
  <use id="zoomminus" xlink:href="#zoomMin" x="42" y="9" onmousedown="handleZoom(evt,'out')"/>
  <use id="reset" xlink:href="#resetDef" x="30" y="36" onmousedown="handleReset()"/>
   <use id="arrowup" xlink:href="#arrowUp" x="0" y="0" onmousedown="handlePan(0,-1)"/>
  <use id="arrowright" xlink:href="#arrowRight" x="0" y="0" onmousedown="handlePan(1,0)"/>
  <use id="arrowdown" xlink:href="#arrowDown" x="0" y="0" onmousedown="handlePan(0,1)"/>
  <use id="arrowleft" xlink:href="#arrowLeft" x="0" y="0" onmousedown="handlePan(-1,0)"/>
</g>
<svg viewBox="0 0 15 15" width="100%" height="30px" preserveAspectRatio="xMaxYMin meet">
 <g id="arrow_out" transform="scale(0.3 0.3)">
  <a xlink:href="classfr_1_1softsf_1_1sudokufx_1_1viewmodel_1_1_menu_background_view_model_aa38ef0db64c962e692b25c3bddf2ef0e_cgraph_org.svg" target="_base">
   <rect id="button" ry="5" rx="5" y="6" x="6" height="38" width="38"
        fill="#f2f5e9" fill-opacity="0.5" stroke="#606060" stroke-width="1.0"/>
   <path id="arrow"
     d="M 11.500037,31.436501 C 11.940474,20.09759 22.043105,11.32322 32.158766,21.979434 L 37.068811,17.246167 C 37.068811,17.246167 37.088388,32 37.088388,32 L 22.160133,31.978069 C 22.160133,31.978069 26.997745,27.140456 26.997745,27.140456 C 18.528582,18.264221 13.291696,25.230495 11.500037,31.436501 z"
     style="fill:#404040;"/>
  </a>
 </g>
</svg>

<style type='text/css'>
<![CDATA[
[data-mouse-over-selected='false'] { opacity: 0.7; }
[data-mouse-over-selected='true']  { opacity: 1.0; }
]]>
</style>
<script type="application/ecmascript"><![CDATA[
document.addEventListener('DOMContentLoaded', (event) => {
  highlightEdges();
  highlightAdjacentNodes();
});
]]></script>
</svg>
