<?xml version="1.0" encoding="UTF-8" standalone="no"?>
<!DOCTYPE svg PUBLIC "-//W3C//DTD SVG 1.1//EN"
 "http://www.w3.org/Graphics/SVG/1.1/DTD/svg11.dtd">
<!-- Generated by graphviz version 12.2.1 (20241206.2353)
 -->
<!-- Title: fr.softsf.sudokufx.viewmodel.grid.GridCellViewModel.setupListeners Pages: 1 -->
<!--zoomable 290 -->

<svg id="main" version="1.1" xmlns="http://www.w3.org/2000/svg" xmlns:xlink="http://www.w3.org/1999/xlink" xml:space="preserve" onload="init(evt)">

<style type="text/css"><![CDATA[
.node, .edge {opacity: 0.7;}
.node.selected, .edge.selected {opacity: 1;}
.edge:hover path { stroke: red; }
.edge:hover polygon { stroke: red; fill: red; }
]]></style>

<defs>
  <circle id="rim" cx="0" cy="0" r="7"/>
  <circle id="rim2" cx="0" cy="0" r="3.5"/>
  <g id="zoomPlus">
    <use xlink:href="#rim" fill="#404040"><set attributeName="fill" to="#808080" begin="zoomplus.mouseover" end="zoomplus.mouseout"/></use>
    <path d="M-4,0h8M0,-4v8" fill="none" stroke="white" stroke-width="1.5" pointer-events="none"/>
  </g>
  <g id="zoomMin">
    <use xlink:href="#rim" fill="#404040"><set attributeName="fill" to="#808080" begin="zoomminus.mouseover" end="zoomminus.mouseout"/></use>
    <path d="M-4,0h8" fill="none" stroke="white" stroke-width="1.5" pointer-events="none"/>
  </g>
  <g id="arrowUp" transform="translate(30 24)">
    <use xlink:href="#rim"/>
    <path pointer-events="none" fill="none" stroke="white" stroke-width="1.5" d="M0,-3.0v7 M-2.5,-0.5L0,-3.0L2.5,-0.5"/>
  </g>
  <g id="arrowRight" transform="rotate(90) translate(36 -43)">
    <use xlink:href="#rim"/>
    <path pointer-events="none" fill="none" stroke="white" stroke-width="1.5" d="M0,-3.0v7 M-2.5,-0.5L0,-3.0L2.5,-0.5"/>
  </g>
  <g id="arrowDown" transform="rotate(180) translate(-30 -48)">
    <use xlink:href="#rim"/>
    <path pointer-events="none" fill="none" stroke="white" stroke-width="1.5" d="M0,-3.0v7 M-2.5,-0.5L0,-3.0L2.5,-0.5"/>
  </g>
  <g id="arrowLeft" transform="rotate(270) translate(-36 17)">
    <use xlink:href="#rim"/>
    <path pointer-events="none" fill="none" stroke="white" stroke-width="1.5" d="M0,-3.0v7 M-2.5,-0.5L0,-3.0L2.5,-0.5"/>
  </g>
  <g id="resetDef">
    <use xlink:href="#rim2" fill="#404040"><set attributeName="fill" to="#808080" begin="reset.mouseover" end="reset.mouseout"/></use>
  </g>
</defs>
<script type="application/ecmascript">
var viewWidth = 607;
var viewHeight = 290;
var sectionId = 'dynsection-4';
</script>
<script type="application/ecmascript" xlink:href="svg.min.js"/>
<svg id="graph" class="graph">
<g id="viewport">
<title>fr.softsf.sudokufx.viewmodel.grid.GridCellViewModel.setupListeners</title>
<!-- Node1 -->
<g id="Node000001" class="node">
<title>Node1</title>
<g id="a_Node000001"><a xlink:title="Configures UI listeners and formatting logic:">
<polygon fill="#999999" stroke="#666666" points="166,-166 0,-166 0,-134 166,-134 166,-166"/>
<text text-anchor="start" x="8" y="-152.5" font-family="Helvetica,sans-Serif" font-size="10.00">fr.softsf.sudokufx.viewmodel.grid.</text>
<text text-anchor="middle" x="83" y="-140.5" font-family="Helvetica,sans-Serif" font-size="10.00">GridCellViewModel.setupListeners</text>
</a>
</g>
</g>
<!-- Node2 -->
<g id="Node000002" class="node">
<title>Node2</title>
<g id="a_Node000002"><a xlink:href="classfr_1_1softsf_1_1sudokufx_1_1viewmodel_1_1grid_1_1_grid_cell_view_model.html#ae0d01b28db4394dc49b5f5a0c1a3f2ec" target="_top" xlink:title="Inserts line breaks every 3 digits in the filtered string, with a maximum of two line breaks,...">
<polygon fill="white" stroke="#666666" points="381.88,-282 215.88,-282 215.88,-250 381.88,-250 381.88,-282"/>
<text text-anchor="start" x="223.88" y="-268.5" font-family="Helvetica,sans-Serif" font-size="10.00">fr.softsf.sudokufx.viewmodel.grid.</text>
<text text-anchor="middle" x="298.88" y="-256.5" font-family="Helvetica,sans-Serif" font-size="10.00">GridCellViewModel.formatMultiline</text>
</a>
</g>
</g>
<!-- Node1&#45;&gt;Node2 -->
<g id="edge1_Node000001_Node000002" class="edge">
<title>Node1&#45;&gt;Node2</title>
<g id="a_edge1_Node000001_Node000002"><a xlink:title=" ">
<path fill="none" stroke="#63b8ff" d="M102.36,-166.37C124.57,-185.42 163.74,-216.73 202,-236 208.99,-239.52 216.47,-242.73 224.06,-245.62"/>
<polygon fill="#63b8ff" stroke="#63b8ff" points="222.8,-248.89 233.4,-249 225.18,-242.31 222.8,-248.89"/>
</a>
</g>
</g>
<!-- Node3 -->
<g id="Node000003" class="node">
<title>Node3</title>
<g id="a_Node000003"><a xlink:href="classfr_1_1softsf_1_1sudokufx_1_1viewmodel_1_1grid_1_1_grid_cell_view_model.html#a02837ccd8bb4343e172b8fe4d7854b25" target="_top" xlink:title="Computes the dynamic CSS border style for a Sudoku grid cell based on its position,...">
<polygon fill="white" stroke="#666666" points="598.5,-188 431.75,-188 431.75,-156 598.5,-156 598.5,-188"/>
<text text-anchor="start" x="439.75" y="-174.5" font-family="Helvetica,sans-Serif" font-size="10.00">fr.softsf.sudokufx.viewmodel.grid.</text>
<text text-anchor="middle" x="515.12" y="-162.5" font-family="Helvetica,sans-Serif" font-size="10.00">GridCellViewModel.getBorderStyle</text>
</a>
</g>
</g>
<!-- Node1&#45;&gt;Node3 -->
<g id="edge2_Node000001_Node000003" class="edge">
<title>Node1&#45;&gt;Node3</title>
<g id="a_edge2_Node000001_Node000003"><a xlink:title=" ">
<path fill="none" stroke="#63b8ff" d="M111.46,-166.36C134.68,-179.19 169.28,-195.99 202,-203 286.2,-221.04 310.34,-214 395.75,-203 414.25,-200.62 433.98,-196.23 451.92,-191.48"/>
<polygon fill="#63b8ff" stroke="#63b8ff" points="452.65,-194.91 461.37,-188.89 450.8,-188.16 452.65,-194.91"/>
</a>
</g>
</g>
<!-- Node4 -->
<g id="Node000004" class="node">
<title>Node4</title>
<g id="a_Node000004"><a xlink:href="classfr_1_1softsf_1_1sudokufx_1_1viewmodel_1_1grid_1_1_grid_cell_view_model.html#aac96cce43da018085f8e390d31aeeb33" target="_top" xlink:title="Filters the input string to digits 1–9, removes duplicates, sorts ascending, and limits to 9 characte...">
<polygon fill="white" stroke="#666666" points="381.88,-194 215.88,-194 215.88,-162 381.88,-162 381.88,-194"/>
<text text-anchor="start" x="223.88" y="-180.5" font-family="Helvetica,sans-Serif" font-size="10.00">fr.softsf.sudokufx.viewmodel.grid.</text>
<text text-anchor="middle" x="298.88" y="-168.5" font-family="Helvetica,sans-Serif" font-size="10.00">GridCellViewModel.normalizeInput</text>
</a>
</g>
</g>
<!-- Node1&#45;&gt;Node4 -->
<g id="edge3_Node000001_Node000004" class="edge">
<title>Node1&#45;&gt;Node4</title>
<g id="a_edge3_Node000001_Node000004"><a xlink:title=" ">
<path fill="none" stroke="#63b8ff" d="M166.38,-160.79C178.85,-162.42 191.79,-164.11 204.47,-165.77"/>
<polygon fill="#63b8ff" stroke="#63b8ff" points="203.66,-169.2 214.03,-167.02 204.57,-162.26 203.66,-169.2"/>
</a>
</g>
</g>
<!-- Node5 -->
<g id="Node000005" class="node">
<title>Node5</title>
<g id="a_Node000005"><a xlink:href="classfr_1_1softsf_1_1sudokufx_1_1viewmodel_1_1grid_1_1_grid_cell_view_model.html#a2a551d4792b3263e749994098c3b3748" target="_top" xlink:title="Updates CSS style classes on label and text area to reflect the editable state.">
<polygon fill="white" stroke="#666666" points="385.62,-82 212.12,-82 212.12,-50 385.62,-50 385.62,-82"/>
<text text-anchor="start" x="220.12" y="-68.5" font-family="Helvetica,sans-Serif" font-size="10.00">fr.softsf.sudokufx.viewmodel.grid.</text>
<text text-anchor="middle" x="298.88" y="-56.5" font-family="Helvetica,sans-Serif" font-size="10.00">GridCellViewModel.setEditableStyle</text>
</a>
</g>
</g>
<!-- Node1&#45;&gt;Node5 -->
<g id="edge4_Node000001_Node000005" class="edge">
<title>Node1&#45;&gt;Node5</title>
<g id="a_edge4_Node000001_Node000005"><a xlink:title=" ">
<path fill="none" stroke="#63b8ff" d="M112.34,-133.72C135.79,-120.78 170.27,-102.92 202,-91 206.88,-89.17 211.94,-87.42 217.08,-85.76"/>
<polygon fill="#63b8ff" stroke="#63b8ff" points="217.73,-89.22 226.25,-82.93 215.66,-82.54 217.73,-89.22"/>
</a>
</g>
</g>
<!-- Node7 -->
<g id="Node000007" class="node">
<title>Node7</title>
<g id="a_Node000007"><a xlink:href="classfr_1_1softsf_1_1sudokufx_1_1viewmodel_1_1grid_1_1_grid_cell_view_model.html#ac95db9585f2ba2ed12d60dd5cca39461" target="_top" xlink:title="Switches from read&#45;only mode (Label visible) to edit mode (TextArea visible), focusing the TextArea a...">
<polygon fill="white" stroke="#666666" points="390.12,-32 207.62,-32 207.62,0 390.12,0 390.12,-32"/>
<text text-anchor="start" x="215.62" y="-18.5" font-family="Helvetica,sans-Serif" font-size="10.00">fr.softsf.sudokufx.viewmodel.grid.</text>
<text text-anchor="middle" x="298.88" y="-6.5" font-family="Helvetica,sans-Serif" font-size="10.00">GridCellViewModel.switchToEditMode</text>
</a>
</g>
</g>
<!-- Node1&#45;&gt;Node7 -->
<g id="edge6_Node000001_Node000007" class="edge">
<title>Node1&#45;&gt;Node7</title>
<g id="a_edge6_Node000001_Node000007"><a xlink:title=" ">
<path fill="none" stroke="#63b8ff" d="M97.05,-133.65C117.06,-109.68 157.71,-65.22 202,-41 204.67,-39.54 207.42,-38.17 210.24,-36.87"/>
<polygon fill="#63b8ff" stroke="#63b8ff" points="211.41,-40.17 219.29,-33.08 208.71,-33.71 211.41,-40.17"/>
</a>
</g>
</g>
<!-- Node8 -->
<g id="Node000008" class="node">
<title>Node8</title>
<g id="a_Node000008"><a xlink:href="classfr_1_1softsf_1_1sudokufx_1_1viewmodel_1_1grid_1_1_grid_cell_view_model.html#a9544acad3febede6981c9d8440674d3c" target="_top" xlink:title="Updates the label&#39;s font size CSS class and border style based on the current text content.">
<polygon fill="white" stroke="#666666" points="395.75,-144 202,-144 202,-100 395.75,-100 395.75,-144"/>
<text text-anchor="start" x="210" y="-130.5" font-family="Helvetica,sans-Serif" font-size="10.00">fr.softsf.sudokufx.viewmodel.grid.</text>
<text text-anchor="start" x="210" y="-118.5" font-family="Helvetica,sans-Serif" font-size="10.00">GridCellViewModel.updateLabelFontSize</text>
<text text-anchor="middle" x="298.88" y="-106.5" font-family="Helvetica,sans-Serif" font-size="10.00">AndBorderOnTextChange</text>
</a>
</g>
</g>
<!-- Node1&#45;&gt;Node8 -->
<g id="edge8_Node000001_Node000008" class="edge">
<title>Node1&#45;&gt;Node8</title>
<g id="a_edge8_Node000001_Node000008"><a xlink:title=" ">
<path fill="none" stroke="#63b8ff" d="M166.38,-139.21C174.22,-138.19 182.25,-137.14 190.28,-136.09"/>
<polygon fill="#63b8ff" stroke="#63b8ff" points="190.65,-139.57 200.11,-134.8 189.74,-132.63 190.65,-139.57"/>
</a>
</g>
</g>
<!-- Node6 -->
<g id="Node000006" class="node">
<title>Node6</title>
<g id="a_Node000006"><a xlink:href="classfr_1_1softsf_1_1sudokufx_1_1viewmodel_1_1grid_1_1_grid_cell_view_model.html#ab27ee3baeb1c9260e8617a680a5ef215" target="_top" xlink:title=" ">
<polygon fill="white" stroke="#666666" points="597,-57 433.25,-57 433.25,-25 597,-25 597,-57"/>
<text text-anchor="start" x="441.25" y="-43.5" font-family="Helvetica,sans-Serif" font-size="10.00">fr.softsf.sudokufx.viewmodel.grid.</text>
<text text-anchor="middle" x="515.12" y="-31.5" font-family="Helvetica,sans-Serif" font-size="10.00">GridCellViewModel.isEditable</text>
</a>
</g>
</g>
<!-- Node5&#45;&gt;Node6 -->
<g id="edge5_Node000005_Node000006" class="edge">
<title>Node5&#45;&gt;Node6</title>
<g id="a_edge5_Node000005_Node000006"><a xlink:title=" ">
<path fill="none" stroke="#63b8ff" d="M386.09,-55.94C397.81,-54.57 409.88,-53.16 421.7,-51.78"/>
<polygon fill="#63b8ff" stroke="#63b8ff" points="421.91,-55.28 431.44,-50.65 421.1,-48.33 421.91,-55.28"/>
</a>
</g>
</g>
<!-- Node7&#45;&gt;Node6 -->
<g id="edge7_Node000007_Node000006" class="edge">
<title>Node7&#45;&gt;Node6</title>
<g id="a_edge7_Node000007_Node000006"><a xlink:title=" ">
<path fill="none" stroke="#63b8ff" d="M390.43,-26.57C400.83,-27.78 411.44,-29.02 421.86,-30.23"/>
<polygon fill="#63b8ff" stroke="#63b8ff" points="421.23,-33.68 431.57,-31.37 422.05,-26.73 421.23,-33.68"/>
</a>
</g>
</g>
<!-- Node8&#45;&gt;Node3 -->
<g id="edge9_Node000008_Node000003" class="edge">
<title>Node8&#45;&gt;Node3</title>
<g id="a_edge9_Node000008_Node000003"><a xlink:title=" ">
<path fill="none" stroke="#63b8ff" d="M396.03,-144.44C408.3,-147.3 420.76,-150.21 432.76,-153.01"/>
<polygon fill="#63b8ff" stroke="#63b8ff" points="431.62,-156.34 442.15,-155.2 433.21,-149.52 431.62,-156.34"/>
</a>
</g>
</g>
</g>
</svg>

<g id="navigator" transform="translate(0 0)" fill="#404254">
  <rect fill="#f2f5e9" fill-opacity="0.5" stroke="#606060" stroke-width=".5" x="0" y="0" width="60" height="60"/>
  <use id="zoomplus" xlink:href="#zoomPlus" x="17" y="9" onmousedown="handleZoom(evt,'in')"/>
  <use id="zoomminus" xlink:href="#zoomMin" x="42" y="9" onmousedown="handleZoom(evt,'out')"/>
  <use id="reset" xlink:href="#resetDef" x="30" y="36" onmousedown="handleReset()"/>
   <use id="arrowup" xlink:href="#arrowUp" x="0" y="0" onmousedown="handlePan(0,-1)"/>
  <use id="arrowright" xlink:href="#arrowRight" x="0" y="0" onmousedown="handlePan(1,0)"/>
  <use id="arrowdown" xlink:href="#arrowDown" x="0" y="0" onmousedown="handlePan(0,1)"/>
  <use id="arrowleft" xlink:href="#arrowLeft" x="0" y="0" onmousedown="handlePan(-1,0)"/>
</g>
<svg viewBox="0 0 15 15" width="100%" height="30px" preserveAspectRatio="xMaxYMin meet">
 <g id="arrow_out" transform="scale(0.3 0.3)">
  <a xlink:href="classfr_1_1softsf_1_1sudokufx_1_1viewmodel_1_1grid_1_1_grid_cell_view_model_aaf198f919d0c3422e9f0150483873163_cgraph_org.svg" target="_base">
   <rect id="button" ry="5" rx="5" y="6" x="6" height="38" width="38"
        fill="#f2f5e9" fill-opacity="0.5" stroke="#606060" stroke-width="1.0"/>
   <path id="arrow"
     d="M 11.500037,31.436501 C 11.940474,20.09759 22.043105,11.32322 32.158766,21.979434 L 37.068811,17.246167 C 37.068811,17.246167 37.088388,32 37.088388,32 L 22.160133,31.978069 C 22.160133,31.978069 26.997745,27.140456 26.997745,27.140456 C 18.528582,18.264221 13.291696,25.230495 11.500037,31.436501 z"
     style="fill:#404040;"/>
  </a>
 </g>
</svg>

<style type='text/css'>
<![CDATA[
[data-mouse-over-selected='false'] { opacity: 0.7; }
[data-mouse-over-selected='true']  { opacity: 1.0; }
]]>
</style>
<script type="application/ecmascript"><![CDATA[
document.addEventListener('DOMContentLoaded', (event) => {
  highlightEdges();
  highlightAdjacentNodes();
});
]]></script>
</svg>
