<?xml version="1.0" encoding="UTF-8" standalone="no"?>
<!DOCTYPE svg PUBLIC "-//W3C//DTD SVG 1.1//EN"
 "http://www.w3.org/Graphics/SVG/1.1/DTD/svg11.dtd">
<!-- Generated by graphviz version 12.2.1 (20241206.2353)
 -->
<!-- Title: fr.softsf.sudokufx.viewmodel.grid.GridViewModel.applySolveModeState Pages: 1 -->
<svg width="612pt" height="262pt"
 viewBox="0.00 0.00 611.75 262.00" xmlns="http://www.w3.org/2000/svg" xmlns:xlink="http://www.w3.org/1999/xlink">
<g id="graph0" class="graph" transform="scale(1 1) rotate(0) translate(4 258)">
<title>fr.softsf.sudokufx.viewmodel.grid.GridViewModel.applySolveModeState</title>
<!-- Node1 -->
<g id="Node000001" class="node">
<title>Node1</title>
<g id="a_Node000001"><a xlink:title="Synchronizes the grid state during manual solving.">
<polygon fill="#999999" stroke="#666666" points="180.25,-143 0,-143 0,-111 180.25,-111 180.25,-143"/>
<text text-anchor="start" x="8" y="-129.5" font-family="Helvetica,sans-Serif" font-size="10.00">fr.softsf.sudokufx.viewmodel.grid.</text>
<text text-anchor="middle" x="90.12" y="-117.5" font-family="Helvetica,sans-Serif" font-size="10.00">GridViewModel.applySolveModeState</text>
</a>
</g>
</g>
<!-- Node2 -->
<g id="Node000002" class="node">
<title>Node2</title>
<g id="a_Node000002"><a xlink:href="classfr_1_1softsf_1_1sudokufx_1_1viewmodel_1_1grid_1_1_grid_cell_view_model.html#a1b2f5aa3c798e4aaf3e845aa59cde94c" target="_top" xlink:title=" ">
<polygon fill="white" stroke="#666666" points="603.38,-236 430.62,-236 430.62,-204 603.38,-204 603.38,-236"/>
<text text-anchor="start" x="438.62" y="-222.5" font-family="Helvetica,sans-Serif" font-size="10.00">fr.softsf.sudokufx.viewmodel.grid.</text>
<text text-anchor="middle" x="517" y="-210.5" font-family="Helvetica,sans-Serif" font-size="10.00">GridCellViewModel.editableProperty</text>
</a>
</g>
</g>
<!-- Node1&#45;&gt;Node2 -->
<g id="edge1_Node000001_Node000002" class="edge">
<title>Node1&#45;&gt;Node2</title>
<g id="a_edge1_Node000001_Node000002"><a xlink:title=" ">
<path fill="none" stroke="#63b8ff" d="M106.62,-143.41C128.56,-165.33 171.09,-203.15 216.25,-218 281.5,-239.46 359.15,-239.32 419.07,-234.15"/>
<polygon fill="#63b8ff" stroke="#63b8ff" points="419.29,-237.65 428.92,-233.24 418.64,-230.68 419.29,-237.65"/>
</a>
</g>
</g>
<!-- Node3 -->
<g id="Node000003" class="node">
<title>Node3</title>
<g id="a_Node000003"><a xlink:href="classfr_1_1softsf_1_1sudokufx_1_1viewmodel_1_1grid_1_1_grid_cell_view_model.html#a206f89cb24905ebf71e7ddbb27998a7d" target="_top" xlink:title=" ">
<polygon fill="white" stroke="#666666" points="598.88,-100 435.12,-100 435.12,-68 598.88,-68 598.88,-100"/>
<text text-anchor="start" x="443.12" y="-86.5" font-family="Helvetica,sans-Serif" font-size="10.00">fr.softsf.sudokufx.viewmodel.grid.</text>
<text text-anchor="middle" x="517" y="-74.5" font-family="Helvetica,sans-Serif" font-size="10.00">GridCellViewModel.getLabel</text>
</a>
</g>
</g>
<!-- Node1&#45;&gt;Node3 -->
<g id="edge3_Node000001_Node000003" class="edge">
<title>Node1&#45;&gt;Node3</title>
<g id="a_edge3_Node000001_Node000003"><a xlink:title=" ">
<path fill="none" stroke="#63b8ff" d="M124.7,-110.61C149.37,-99.51 184.06,-85.85 216.25,-80 284.92,-67.53 363.9,-69.22 423.55,-73.66"/>
<polygon fill="#63b8ff" stroke="#63b8ff" points="423.08,-77.13 433.32,-74.43 423.63,-70.16 423.08,-77.13"/>
</a>
</g>
</g>
<!-- Node4 -->
<g id="Node000004" class="node">
<title>Node4</title>
<g id="a_Node000004"><a xlink:href="classfr_1_1softsf_1_1sudokufx_1_1viewmodel_1_1grid_1_1_grid_cell_view_model.html#a25813c6885f49b2be4c3dafa6e9878c8" target="_top" xlink:title=" ">
<polygon fill="white" stroke="#666666" points="598.88,-32 435.12,-32 435.12,0 598.88,0 598.88,-32"/>
<text text-anchor="start" x="443.12" y="-18.5" font-family="Helvetica,sans-Serif" font-size="10.00">fr.softsf.sudokufx.viewmodel.grid.</text>
<text text-anchor="middle" x="517" y="-6.5" font-family="Helvetica,sans-Serif" font-size="10.00">GridCellViewModel.getTextArea</text>
</a>
</g>
</g>
<!-- Node1&#45;&gt;Node4 -->
<g id="edge5_Node000001_Node000004" class="edge">
<title>Node1&#45;&gt;Node4</title>
<g id="a_edge5_Node000001_Node000004"><a xlink:title=" ">
<path fill="none" stroke="#63b8ff" d="M118.97,-110.52C143.71,-96.59 181.26,-77.19 216.25,-66 283.88,-44.38 363.24,-31.67 423.31,-24.48"/>
<polygon fill="#63b8ff" stroke="#63b8ff" points="423.64,-27.97 433.17,-23.33 422.83,-21.01 423.64,-27.97"/>
</a>
</g>
</g>
<!-- Node5 -->
<g id="Node000005" class="node">
<title>Node5</title>
<g id="a_Node000005"><a xlink:href="classfr_1_1softsf_1_1sudokufx_1_1viewmodel_1_1grid_1_1_grid_cell_view_model.html#ae04f21e5c6df7750f4e8c79d600a9b6b" target="_top" xlink:title=" ">
<polygon fill="white" stroke="#666666" points="603.75,-168 430.25,-168 430.25,-136 603.75,-136 603.75,-168"/>
<text text-anchor="start" x="438.25" y="-154.5" font-family="Helvetica,sans-Serif" font-size="10.00">fr.softsf.sudokufx.viewmodel.grid.</text>
<text text-anchor="middle" x="517" y="-142.5" font-family="Helvetica,sans-Serif" font-size="10.00">GridCellViewModel.rawTextProperty</text>
</a>
</g>
</g>
<!-- Node1&#45;&gt;Node5 -->
<g id="edge7_Node000001_Node000005" class="edge">
<title>Node1&#45;&gt;Node5</title>
<g id="a_edge7_Node000001_Node000005"><a xlink:title=" ">
<path fill="none" stroke="#63b8ff" d="M180.71,-132.27C250.39,-136.37 346.93,-142.05 418.53,-146.26"/>
<polygon fill="#63b8ff" stroke="#63b8ff" points="418.1,-149.75 428.29,-146.84 418.51,-142.76 418.1,-149.75"/>
</a>
</g>
</g>
<!-- Node6 -->
<g id="Node000006" class="node">
<title>Node6</title>
<g id="a_Node000006"><a xlink:href="classfr_1_1softsf_1_1sudokufx_1_1viewmodel_1_1grid_1_1_grid_view_model.html#a784d6f09a416df51f857b06ef14d4df5" target="_top" xlink:title="Resets a cell to its default editable state and clears content.">
<polygon fill="white" stroke="#666666" points="390.12,-121 220.38,-121 220.38,-89 390.12,-89 390.12,-121"/>
<text text-anchor="start" x="228.38" y="-107.5" font-family="Helvetica,sans-Serif" font-size="10.00">fr.softsf.sudokufx.viewmodel.grid.</text>
<text text-anchor="middle" x="305.25" y="-95.5" font-family="Helvetica,sans-Serif" font-size="10.00">GridViewModel.resetCellToEditable</text>
</a>
</g>
</g>
<!-- Node1&#45;&gt;Node6 -->
<g id="edge9_Node000001_Node000006" class="edge">
<title>Node1&#45;&gt;Node6</title>
<g id="a_edge9_Node000001_Node000006"><a xlink:title=" ">
<path fill="none" stroke="#63b8ff" d="M180.58,-117.77C189.9,-116.8 199.39,-115.82 208.77,-114.86"/>
<polygon fill="#63b8ff" stroke="#63b8ff" points="209.03,-118.35 218.62,-113.84 208.31,-111.38 209.03,-118.35"/>
</a>
</g>
</g>
<!-- Node7 -->
<g id="Node000007" class="node">
<title>Node7</title>
<g id="a_Node000007"><a xlink:href="classfr_1_1softsf_1_1sudokufx_1_1viewmodel_1_1grid_1_1_grid_view_model.html#a14ed923537d42b9a3273e937ac7b7073" target="_top" xlink:title="Calculates the solution based on anchored cells and updates editable cells.">
<polygon fill="white" stroke="#666666" points="394.25,-209 216.25,-209 216.25,-177 394.25,-177 394.25,-209"/>
<text text-anchor="start" x="224.25" y="-195.5" font-family="Helvetica,sans-Serif" font-size="10.00">fr.softsf.sudokufx.viewmodel.grid.</text>
<text text-anchor="middle" x="305.25" y="-183.5" font-family="Helvetica,sans-Serif" font-size="10.00">GridViewModel.updateSolveProgress</text>
</a>
</g>
</g>
<!-- Node1&#45;&gt;Node7 -->
<g id="edge14_Node000001_Node000007" class="edge">
<title>Node1&#45;&gt;Node7</title>
<g id="a_edge14_Node000001_Node000007"><a xlink:title=" ">
<path fill="none" stroke="#63b8ff" d="M144.36,-143.48C173.58,-152.54 210.02,-163.82 240.73,-173.33"/>
<polygon fill="#63b8ff" stroke="#63b8ff" points="239.3,-176.55 249.88,-176.16 241.37,-169.86 239.3,-176.55"/>
</a>
</g>
</g>
<!-- Node2&#45;&gt;Node2 -->
<g id="edge2_Node000002_Node000002" class="edge">
<title>Node2&#45;&gt;Node2</title>
<g id="a_edge2_Node000002_Node000002"><a xlink:title=" ">
<path fill="none" stroke="#63b8ff" d="M479.2,-236.44C472.14,-245.58 484.74,-254 517,-254 534.89,-254 546.74,-251.41 552.54,-247.54"/>
<polygon fill="#63b8ff" stroke="#63b8ff" points="555.93,-248.42 554.5,-237.93 549.07,-247.02 555.93,-248.42"/>
</a>
</g>
</g>
<!-- Node3&#45;&gt;Node3 -->
<g id="edge4_Node000003_Node000003" class="edge">
<title>Node3&#45;&gt;Node3</title>
<g id="a_edge4_Node000003_Node000003"><a xlink:title=" ">
<path fill="none" stroke="#63b8ff" d="M479.2,-100.44C472.14,-109.58 484.74,-118 517,-118 534.89,-118 546.74,-115.41 552.54,-111.54"/>
<polygon fill="#63b8ff" stroke="#63b8ff" points="555.93,-112.42 554.5,-101.93 549.07,-111.02 555.93,-112.42"/>
</a>
</g>
</g>
<!-- Node4&#45;&gt;Node4 -->
<g id="edge6_Node000004_Node000004" class="edge">
<title>Node4&#45;&gt;Node4</title>
<g id="a_edge6_Node000004_Node000004"><a xlink:title=" ">
<path fill="none" stroke="#63b8ff" d="M479.2,-32.44C472.14,-41.58 484.74,-50 517,-50 534.89,-50 546.74,-47.41 552.54,-43.54"/>
<polygon fill="#63b8ff" stroke="#63b8ff" points="555.93,-44.42 554.5,-33.93 549.07,-43.02 555.93,-44.42"/>
</a>
</g>
</g>
<!-- Node5&#45;&gt;Node5 -->
<g id="edge8_Node000005_Node000005" class="edge">
<title>Node5&#45;&gt;Node5</title>
<g id="a_edge8_Node000005_Node000005"><a xlink:title=" ">
<path fill="none" stroke="#63b8ff" d="M479.2,-168.44C472.14,-177.58 484.74,-186 517,-186 534.89,-186 546.74,-183.41 552.54,-179.54"/>
<polygon fill="#63b8ff" stroke="#63b8ff" points="555.93,-180.42 554.5,-169.93 549.07,-179.02 555.93,-180.42"/>
</a>
</g>
</g>
<!-- Node6&#45;&gt;Node2 -->
<g id="edge10_Node000006_Node000002" class="edge">
<title>Node6&#45;&gt;Node2</title>
<g id="a_edge10_Node000006_Node000002"><a xlink:title=" ">
<path fill="none" stroke="#63b8ff" d="M329.51,-121.44C347.31,-134.07 372.43,-152.01 394.25,-168 410.38,-179.82 412.36,-186.06 430.25,-195 433.34,-196.55 436.54,-198.01 439.81,-199.4"/>
<polygon fill="#63b8ff" stroke="#63b8ff" points="438.44,-202.62 449.03,-203.02 441,-196.11 438.44,-202.62"/>
</a>
</g>
</g>
<!-- Node6&#45;&gt;Node3 -->
<g id="edge11_Node000006_Node000003" class="edge">
<title>Node6&#45;&gt;Node3</title>
<g id="a_edge11_Node000006_Node000003"><a xlink:title=" ">
<path fill="none" stroke="#63b8ff" d="M390.35,-96.58C401.27,-95.49 412.49,-94.36 423.53,-93.26"/>
<polygon fill="#63b8ff" stroke="#63b8ff" points="423.84,-96.74 433.44,-92.27 423.14,-89.78 423.84,-96.74"/>
</a>
</g>
</g>
<!-- Node6&#45;&gt;Node4 -->
<g id="edge12_Node000006_Node000004" class="edge">
<title>Node6&#45;&gt;Node4</title>
<g id="a_edge12_Node000006_Node000004"><a xlink:title=" ">
<path fill="none" stroke="#63b8ff" d="M344.72,-88.68C379.21,-74.04 429.96,-52.51 467.28,-36.67"/>
<polygon fill="#63b8ff" stroke="#63b8ff" points="468.19,-40.09 476.02,-32.96 465.45,-33.65 468.19,-40.09"/>
</a>
</g>
</g>
<!-- Node6&#45;&gt;Node5 -->
<g id="edge13_Node000006_Node000005" class="edge">
<title>Node6&#45;&gt;Node5</title>
<g id="a_edge13_Node000006_Node000005"><a xlink:title=" ">
<path fill="none" stroke="#63b8ff" d="M379.61,-121.44C396.38,-125.2 414.33,-129.22 431.51,-133.07"/>
<polygon fill="#63b8ff" stroke="#63b8ff" points="430.68,-136.47 441.2,-135.24 432.21,-129.64 430.68,-136.47"/>
</a>
</g>
</g>
<!-- Node7&#45;&gt;Node2 -->
<g id="edge15_Node000007_Node000002" class="edge">
<title>Node7&#45;&gt;Node2</title>
<g id="a_edge15_Node000007_Node000002"><a xlink:title=" ">
<path fill="none" stroke="#63b8ff" d="M394.59,-204.37C402.75,-205.42 411.05,-206.49 419.28,-207.55"/>
<polygon fill="#63b8ff" stroke="#63b8ff" points="418.57,-210.99 428.94,-208.79 419.47,-204.04 418.57,-210.99"/>
</a>
</g>
</g>
<!-- Node7&#45;&gt;Node5 -->
<g id="edge16_Node000007_Node000005" class="edge">
<title>Node7&#45;&gt;Node5</title>
<g id="a_edge16_Node000007_Node000005"><a xlink:title=" ">
<path fill="none" stroke="#63b8ff" d="M390.66,-176.5C400.5,-174.58 410.59,-172.6 420.57,-170.65"/>
<polygon fill="#63b8ff" stroke="#63b8ff" points="421.14,-174.11 430.28,-168.76 419.79,-167.24 421.14,-174.11"/>
</a>
</g>
</g>
</g>
</svg>
