<?xml version="1.0" encoding="UTF-8" standalone="no"?>
<!DOCTYPE svg PUBLIC "-//W3C//DTD SVG 1.1//EN"
 "http://www.w3.org/Graphics/SVG/1.1/DTD/svg11.dtd">
<!-- Generated by graphviz version 12.2.1 (20241206.2353)
 -->
<!-- Title: fr.softsf.sudokufx.common.util.SecureRandomGenerator Pages: 1 -->
<svg width="168pt" height="144pt"
 viewBox="0.00 0.00 168.25 144.00" xmlns="http://www.w3.org/2000/svg" xmlns:xlink="http://www.w3.org/1999/xlink">
<g id="graph0" class="graph" transform="scale(1 1) rotate(0) translate(4 140)">
<title>fr.softsf.sudokufx.common.util.SecureRandomGenerator</title>
<!-- Node1 -->
<g id="Node000001" class="node">
<title>Node1</title>
<g id="a_Node000001"><a xlink:title="Utility enum for generating secure random numbers using Java&#39;s SecureRandom class.">
<polygon fill="#999999" stroke="none" points="160.25,-136 0,-136 0,0 160.25,0 160.25,-136"/>
<text text-anchor="start" x="4" y="-122.5" font-family="Helvetica,sans-Serif" font-size="10.00">fr.softsf.sudokufx.common.enums.</text>
<text text-anchor="start" x="25" y="-110.5" font-family="Helvetica,sans-Serif" font-size="10.00">SecureRandomGenerator</text>
<text text-anchor="start" x="14.44" y="-94.5" font-family="Helvetica,sans-Serif" font-size="10.00">+</text>
<text text-anchor="start" x="34.88" y="-94.5" font-family="Helvetica,sans-Serif" font-size="10.00">INSTANCE</text>
<text text-anchor="start" x="15.94" y="-78.5" font-family="Helvetica,sans-Serif" font-size="10.00">&#45;</text>
<text text-anchor="start" x="34.88" y="-78.5" font-family="Helvetica,sans-Serif" font-size="10.00">final SecureRandom</text>
<text text-anchor="start" x="34.88" y="-66.5" font-family="Helvetica,sans-Serif" font-size="10.00"> secureRandom</text>
<text text-anchor="start" x="15.94" y="-50.5" font-family="Helvetica,sans-Serif" font-size="10.00">&#45;</text>
<text text-anchor="start" x="34.88" y="-50.5" font-family="Helvetica,sans-Serif" font-size="10.00">static final Logger LOG</text>
<text text-anchor="start" x="14.44" y="-34.5" font-family="Helvetica,sans-Serif" font-size="10.00">+</text>
<text text-anchor="start" x="34.88" y="-34.5" font-family="Helvetica,sans-Serif" font-size="10.00">int nextInt(int bound)</text>
<text text-anchor="start" x="14.44" y="-18.5" font-family="Helvetica,sans-Serif" font-size="10.00">+</text>
<text text-anchor="start" x="34.88" y="-18.5" font-family="Helvetica,sans-Serif" font-size="10.00">int nextInt(int origin,</text>
<text text-anchor="start" x="34.88" y="-6.5" font-family="Helvetica,sans-Serif" font-size="10.00"> int bound)</text>
<polygon fill="#666666" stroke="#666666" points="0,-106 0,-106 160.25,-106 160.25,-106 0,-106"/>
<polygon fill="#666666" stroke="#666666" points="0,-46 0,-46 32.88,-46 32.88,-46 0,-46"/>
<polygon fill="#666666" stroke="#666666" points="32.88,-46 32.88,-46 160.25,-46 160.25,-46 32.88,-46"/>
<polygon fill="none" stroke="#666666" points="0,0 0,-136 160.25,-136 160.25,0 0,0"/>
</a>
</g>
</g>
</g>
</svg>
