<?xml version="1.0" encoding="UTF-8" standalone="no"?>
<!DOCTYPE svg PUBLIC "-//W3C//DTD SVG 1.1//EN"
 "http://www.w3.org/Graphics/SVG/1.1/DTD/svg11.dtd">
<!-- Generated by graphviz version 12.2.1 (20241206.2353)
 -->
<!-- Title: fr.softsf.sudokufx.common.util.math.PowerOfTen Pages: 1 -->
<svg width="177pt" height="132pt"
 viewBox="0.00 0.00 176.50 132.00" xmlns="http://www.w3.org/2000/svg" xmlns:xlink="http://www.w3.org/1999/xlink">
<g id="graph0" class="graph" transform="scale(1 1) rotate(0) translate(4 128)">
<title>fr.softsf.sudokufx.common.util.math.PowerOfTen</title>
<!-- Node1 -->
<g id="Node000001" class="node">
<title>Node1</title>
<g id="a_Node000001"><a xlink:title="Represents predefined powers of ten used as numeric thresholds.">
<polygon fill="#999999" stroke="none" points="168.5,-124 0,-124 0,0 168.5,0 168.5,-124"/>
<text text-anchor="start" x="4" y="-110.5" font-family="Helvetica,sans-Serif" font-size="10.00">fr.softsf.sudokufx.common.util.math.</text>
<text text-anchor="start" x="57.25" y="-98.5" font-family="Helvetica,sans-Serif" font-size="10.00">PowerOfTen</text>
<text text-anchor="start" x="19.12" y="-82.5" font-family="Helvetica,sans-Serif" font-size="10.00">+</text>
<text text-anchor="start" x="44.25" y="-82.5" font-family="Helvetica,sans-Serif" font-size="10.00">CENTI_EPSILON</text>
<text text-anchor="start" x="19.12" y="-66.5" font-family="Helvetica,sans-Serif" font-size="10.00">+</text>
<text text-anchor="start" x="44.25" y="-66.5" font-family="Helvetica,sans-Serif" font-size="10.00">DOUBLE_EPSILON</text>
<text text-anchor="start" x="20.62" y="-50.5" font-family="Helvetica,sans-Serif" font-size="10.00">&#45;</text>
<text text-anchor="start" x="44.25" y="-50.5" font-family="Helvetica,sans-Serif" font-size="10.00">final double value</text>
<text text-anchor="start" x="19.12" y="-34.5" font-family="Helvetica,sans-Serif" font-size="10.00">+</text>
<text text-anchor="start" x="44.25" y="-34.5" font-family="Helvetica,sans-Serif" font-size="10.00">PowerOfTen(double</text>
<text text-anchor="start" x="44.25" y="-22.5" font-family="Helvetica,sans-Serif" font-size="10.00"> value)</text>
<text text-anchor="start" x="19.12" y="-6.5" font-family="Helvetica,sans-Serif" font-size="10.00">+</text>
<text text-anchor="start" x="44.25" y="-6.5" font-family="Helvetica,sans-Serif" font-size="10.00">double getValue()</text>
<polygon fill="#666666" stroke="#666666" points="0,-94 0,-94 168.5,-94 168.5,-94 0,-94"/>
<polygon fill="#666666" stroke="#666666" points="0,-46 0,-46 42.25,-46 42.25,-46 0,-46"/>
<polygon fill="#666666" stroke="#666666" points="42.25,-46 42.25,-46 168.5,-46 168.5,-46 42.25,-46"/>
<polygon fill="none" stroke="#666666" points="0,0 0,-124 168.5,-124 168.5,0 0,0"/>
</a>
</g>
</g>
</g>
</svg>
