<?xml version="1.0" encoding="UTF-8" standalone="no"?>
<!DOCTYPE svg PUBLIC "-//W3C//DTD SVG 1.1//EN"
 "http://www.w3.org/Graphics/SVG/1.1/DTD/svg11.dtd">
<!-- Generated by graphviz version 12.2.1 (20241206.2353)
 -->
<!-- Title: fr.softsf.sudokufx.service.ui.FileChooserService.FileType Pages: 1 -->
<svg width="141pt" height="88pt"
 viewBox="0.00 0.00 141.25 88.00" xmlns="http://www.w3.org/2000/svg" xmlns:xlink="http://www.w3.org/1999/xlink">
<g id="graph0" class="graph" transform="scale(1 1) rotate(0) translate(4 84)">
<title>fr.softsf.sudokufx.service.ui.FileChooserService.FileType</title>
<!-- Node1 -->
<g id="Node000001" class="node">
<title>Node1</title>
<g id="a_Node000001"><a xlink:title="Supported file types for the file chooser.">
<polygon fill="#999999" stroke="none" points="133.25,-80 0,-80 0,0 133.25,0 133.25,-80"/>
<text text-anchor="start" x="4" y="-66.5" font-family="Helvetica,sans-Serif" font-size="10.00">fr.softsf.sudokufx.service.</text>
<text text-anchor="start" x="4" y="-54.5" font-family="Helvetica,sans-Serif" font-size="10.00">FileChooserService.FileType</text>
<text text-anchor="start" x="24.75" y="-38.5" font-family="Helvetica,sans-Serif" font-size="10.00">+</text>
<text text-anchor="start" x="55.5" y="-38.5" font-family="Helvetica,sans-Serif" font-size="10.00">AUDIO</text>
<text text-anchor="start" x="24.75" y="-22.5" font-family="Helvetica,sans-Serif" font-size="10.00">+</text>
<text text-anchor="start" x="55.5" y="-22.5" font-family="Helvetica,sans-Serif" font-size="10.00">IMAGE</text>
<text text-anchor="start" x="65.12" y="-6.5" font-family="Helvetica,sans-Serif" font-size="10.00"> </text>
<polygon fill="#666666" stroke="#666666" points="0,-50 0,-50 133.25,-50 133.25,-50 0,-50"/>
<polygon fill="#666666" stroke="#666666" points="0,-18 0,-18 53.5,-18 53.5,-18 0,-18"/>
<polygon fill="#666666" stroke="#666666" points="53.5,-18 53.5,-18 133.25,-18 133.25,-18 53.5,-18"/>
<polygon fill="none" stroke="#666666" points="0,0 0,-80 133.25,-80 133.25,0 0,0"/>
</a>
</g>
</g>
</g>
</svg>
