<?xml version="1.0" encoding="UTF-8" standalone="no"?>
<!DOCTYPE svg PUBLIC "-//W3C//DTD SVG 1.1//EN"
 "http://www.w3.org/Graphics/SVG/1.1/DTD/svg11.dtd">
<!-- Generated by graphviz version 12.2.1 (20241206.2353)
 -->
<!-- Title: fr.softsf.sudokufx.common.enums.OsName Pages: 1 -->
<svg width="168pt" height="184pt"
 viewBox="0.00 0.00 168.25 184.00" xmlns="http://www.w3.org/2000/svg" xmlns:xlink="http://www.w3.org/1999/xlink">
<g id="graph0" class="graph" transform="scale(1 1) rotate(0) translate(4 180)">
<title>fr.softsf.sudokufx.common.enums.OsName</title>
<!-- Node1 -->
<g id="Node000001" class="node">
<title>Node1</title>
<g id="a_Node000001"><a xlink:title="Utility enum for operating system names.">
<polygon fill="#999999" stroke="none" points="160.25,-176 0,-176 0,0 160.25,0 160.25,-176"/>
<text text-anchor="start" x="4" y="-162.5" font-family="Helvetica,sans-Serif" font-size="10.00">fr.softsf.sudokufx.common.enums.</text>
<text text-anchor="start" x="60.62" y="-150.5" font-family="Helvetica,sans-Serif" font-size="10.00">OsName</text>
<text text-anchor="start" x="8.81" y="-134.5" font-family="Helvetica,sans-Serif" font-size="10.00">+</text>
<text text-anchor="start" x="23.62" y="-134.5" font-family="Helvetica,sans-Serif" font-size="10.00">EMPTY_OS_FOR_TESTS</text>
<text text-anchor="start" x="8.81" y="-118.5" font-family="Helvetica,sans-Serif" font-size="10.00">+</text>
<text text-anchor="start" x="23.62" y="-118.5" font-family="Helvetica,sans-Serif" font-size="10.00">LINUX</text>
<text text-anchor="start" x="8.81" y="-102.5" font-family="Helvetica,sans-Serif" font-size="10.00">+</text>
<text text-anchor="start" x="23.62" y="-102.5" font-family="Helvetica,sans-Serif" font-size="10.00">MAC</text>
<text text-anchor="start" x="8.81" y="-86.5" font-family="Helvetica,sans-Serif" font-size="10.00">+</text>
<text text-anchor="start" x="23.62" y="-86.5" font-family="Helvetica,sans-Serif" font-size="10.00">WINDOWS</text>
<text text-anchor="start" x="8.81" y="-70.5" font-family="Helvetica,sans-Serif" font-size="10.00">+</text>
<text text-anchor="start" x="23.62" y="-70.5" font-family="Helvetica,sans-Serif" font-size="10.00">WRONG_OS_FOR_TESTS</text>
<text text-anchor="start" x="10.31" y="-54.5" font-family="Helvetica,sans-Serif" font-size="10.00">&#45;</text>
<text text-anchor="start" x="23.62" y="-54.5" font-family="Helvetica,sans-Serif" font-size="10.00">final String os</text>
<text text-anchor="start" x="8.81" y="-38.5" font-family="Helvetica,sans-Serif" font-size="10.00">+</text>
<text text-anchor="start" x="23.62" y="-38.5" font-family="Helvetica,sans-Serif" font-size="10.00">OsName(final String os_)</text>
<text text-anchor="start" x="8.81" y="-22.5" font-family="Helvetica,sans-Serif" font-size="10.00">+</text>
<text text-anchor="start" x="23.62" y="-22.5" font-family="Helvetica,sans-Serif" font-size="10.00">final String getOs()</text>
<text text-anchor="start" x="8.81" y="-6.5" font-family="Helvetica,sans-Serif" font-size="10.00">+</text>
<text text-anchor="start" x="23.62" y="-6.5" font-family="Helvetica,sans-Serif" font-size="10.00">static OsName detect()</text>
<polygon fill="#666666" stroke="#666666" points="0,-146 0,-146 160.25,-146 160.25,-146 0,-146"/>
<polygon fill="#666666" stroke="#666666" points="0,-50 0,-50 21.62,-50 21.62,-50 0,-50"/>
<polygon fill="#666666" stroke="#666666" points="21.62,-50 21.62,-50 160.25,-50 160.25,-50 21.62,-50"/>
<polygon fill="none" stroke="#666666" points="0,0 0,-176 160.25,-176 160.25,0 0,0"/>
</a>
</g>
</g>
</g>
</svg>
