<?xml version="1.0" encoding="UTF-8" standalone="no"?>
<!DOCTYPE svg PUBLIC "-//W3C//DTD SVG 1.1//EN"
 "http://www.w3.org/Graphics/SVG/1.1/DTD/svg11.dtd">
<!-- Generated by graphviz version 12.2.1 (20241206.2353)
 -->
<!-- Title: fr.softsf.sudokufx.common.enums.FxmlView Pages: 1 -->
<svg width="168pt" height="132pt"
 viewBox="0.00 0.00 168.25 132.00" xmlns="http://www.w3.org/2000/svg" xmlns:xlink="http://www.w3.org/1999/xlink">
<g id="graph0" class="graph" transform="scale(1 1) rotate(0) translate(4 128)">
<title>fr.softsf.sudokufx.common.enums.FxmlView</title>
<!-- Node1 -->
<g id="Node000001" class="node">
<title>Node1</title>
<g id="a_Node000001"><a xlink:title="Enumerates FXML view identifiers mapped to their relative file paths.">
<polygon fill="#999999" stroke="none" points="160.25,-124 0,-124 0,0 160.25,0 160.25,-124"/>
<text text-anchor="start" x="4" y="-110.5" font-family="Helvetica,sans-Serif" font-size="10.00">fr.softsf.sudokufx.common.enums.</text>
<text text-anchor="start" x="58.38" y="-98.5" font-family="Helvetica,sans-Serif" font-size="10.00">FxmlView</text>
<text text-anchor="start" x="16.31" y="-82.5" font-family="Helvetica,sans-Serif" font-size="10.00">+</text>
<text text-anchor="start" x="38.62" y="-82.5" font-family="Helvetica,sans-Serif" font-size="10.00">CRASH_SCREEN</text>
<text text-anchor="start" x="16.31" y="-66.5" font-family="Helvetica,sans-Serif" font-size="10.00">+</text>
<text text-anchor="start" x="38.62" y="-66.5" font-family="Helvetica,sans-Serif" font-size="10.00">MAIN</text>
<text text-anchor="start" x="17.81" y="-50.5" font-family="Helvetica,sans-Serif" font-size="10.00">&#45;</text>
<text text-anchor="start" x="38.62" y="-50.5" font-family="Helvetica,sans-Serif" font-size="10.00">final String fxmlPath</text>
<text text-anchor="start" x="16.31" y="-34.5" font-family="Helvetica,sans-Serif" font-size="10.00">+</text>
<text text-anchor="start" x="38.62" y="-34.5" font-family="Helvetica,sans-Serif" font-size="10.00">FxmlView(final String</text>
<text text-anchor="start" x="38.62" y="-22.5" font-family="Helvetica,sans-Serif" font-size="10.00"> fxmlPath)</text>
<text text-anchor="start" x="16.31" y="-6.5" font-family="Helvetica,sans-Serif" font-size="10.00">+</text>
<text text-anchor="start" x="38.62" y="-6.5" font-family="Helvetica,sans-Serif" font-size="10.00">final String getPath()</text>
<polygon fill="#666666" stroke="#666666" points="0,-94 0,-94 160.25,-94 160.25,-94 0,-94"/>
<polygon fill="#666666" stroke="#666666" points="0,-46 0,-46 36.62,-46 36.62,-46 0,-46"/>
<polygon fill="#666666" stroke="#666666" points="36.62,-46 36.62,-46 160.25,-46 160.25,-46 36.62,-46"/>
<polygon fill="none" stroke="#666666" points="0,0 0,-124 160.25,-124 160.25,0 0,0"/>
</a>
</g>
</g>
</g>
</svg>
