<?xml version="1.0" encoding="UTF-8" standalone="no"?>
<!DOCTYPE svg PUBLIC "-//W3C//DTD SVG 1.1//EN"
 "http://www.w3.org/Graphics/SVG/1.1/DTD/svg11.dtd">
<!-- Generated by graphviz version 12.2.1 (20241206.2353)
 -->
<!-- Title: Graphical Class Hierarchy Pages: 1 -->
<svg width="274pt" height="140pt"
 viewBox="0.00 0.00 274.00 140.00" xmlns="http://www.w3.org/2000/svg" xmlns:xlink="http://www.w3.org/1999/xlink">
<g id="graph0" class="graph" transform="scale(1 1) rotate(0) translate(4 136)">
<title>Graphical Class Hierarchy</title>
<!-- Node0 -->
<g id="Node000000" class="node">
<title>Node0</title>
<g id="a_Node000000"><a xlink:title=" ">
<polygon fill="#e0e0e0" stroke="#999999" points="91.75,-76 0,-76 0,-56 91.75,-56 91.75,-76"/>
<text text-anchor="middle" x="45.88" y="-62.5" font-family="Helvetica,sans-Serif" font-size="10.00">IOsFolderFactory</text>
</a>
</g>
</g>
<!-- Node1 -->
<g id="Node000001" class="node">
<title>Node1</title>
<g id="a_Node000001"><a xlink:href="classfr_1_1softsf_1_1sudokufx_1_1config_1_1os_1_1_linux_folder_factory.html" target="_top" xlink:title="Factory class for creating and managing LINUX OS&#45;specific folders for the SudoFX application.">
<polygon fill="white" stroke="#666666" points="266,-132 127.75,-132 127.75,-100 266,-100 266,-132"/>
<text text-anchor="start" x="135.75" y="-118.5" font-family="Helvetica,sans-Serif" font-size="10.00">fr.softsf.sudokufx.config.os.</text>
<text text-anchor="middle" x="196.88" y="-106.5" font-family="Helvetica,sans-Serif" font-size="10.00">LinuxFolderFactory</text>
</a>
</g>
</g>
<!-- Node0&#45;&gt;Node1 -->
<g id="edge18_Node000000_Node000001" class="edge">
<title>Node0&#45;&gt;Node1</title>
<g id="a_edge18_Node000000_Node000001"><a xlink:title=" ">
<path fill="none" stroke="#63b8ff" d="M88.87,-80.09C106.89,-86.14 128.06,-93.24 146.79,-99.53"/>
<polygon fill="#63b8ff" stroke="#63b8ff" points="90.14,-76.83 79.55,-76.96 87.91,-83.46 90.14,-76.83"/>
</a>
</g>
</g>
<!-- Node2 -->
<g id="Node000002" class="node">
<title>Node2</title>
<g id="a_Node000002"><a xlink:href="classfr_1_1softsf_1_1sudokufx_1_1config_1_1os_1_1_macos_folder_factory.html" target="_top" xlink:title="Factory class for creating and managing MACOS OS&#45;specific folders for the SudoFX application.">
<polygon fill="white" stroke="#666666" points="266,-82 127.75,-82 127.75,-50 266,-50 266,-82"/>
<text text-anchor="start" x="135.75" y="-68.5" font-family="Helvetica,sans-Serif" font-size="10.00">fr.softsf.sudokufx.config.os.</text>
<text text-anchor="middle" x="196.88" y="-56.5" font-family="Helvetica,sans-Serif" font-size="10.00">MacosFolderFactory</text>
</a>
</g>
</g>
<!-- Node0&#45;&gt;Node2 -->
<g id="edge19_Node000000_Node000002" class="edge">
<title>Node0&#45;&gt;Node2</title>
<g id="a_edge19_Node000000_Node000002"><a xlink:title=" ">
<path fill="none" stroke="#63b8ff" d="M103.24,-66C111.09,-66 119.23,-66 127.27,-66"/>
<polygon fill="#63b8ff" stroke="#63b8ff" points="103.5,-62.5 93.5,-66 103.5,-69.5 103.5,-62.5"/>
</a>
</g>
</g>
<!-- Node3 -->
<g id="Node000003" class="node">
<title>Node3</title>
<g id="a_Node000003"><a xlink:href="interfacefr_1_1softsf_1_1sudokufx_1_1config_1_1os_1_1_windows_folder_factory.html" target="_top" xlink:title="Interface defining methods to access OS&#45;specific folder paths.">
<polygon fill="white" stroke="#666666" points="266,-32 127.75,-32 127.75,0 266,0 266,-32"/>
<text text-anchor="start" x="135.75" y="-18.5" font-family="Helvetica,sans-Serif" font-size="10.00">fr.softsf.sudokufx.config.os.</text>
<text text-anchor="middle" x="196.88" y="-6.5" font-family="Helvetica,sans-Serif" font-size="10.00">WindowsFolderFactory</text>
</a>
</g>
</g>
<!-- Node0&#45;&gt;Node3 -->
<g id="edge20_Node000000_Node000003" class="edge">
<title>Node0&#45;&gt;Node3</title>
<g id="a_edge20_Node000000_Node000003"><a xlink:title=" ">
<path fill="none" stroke="#63b8ff" d="M88.87,-51.91C106.89,-45.86 128.06,-38.76 146.79,-32.47"/>
<polygon fill="#63b8ff" stroke="#63b8ff" points="87.91,-48.54 79.55,-55.04 90.14,-55.17 87.91,-48.54"/>
</a>
</g>
</g>
</g>
</svg>
