<?xml version="1.0" encoding="UTF-8" standalone="no"?>
<!DOCTYPE svg PUBLIC "-//W3C//DTD SVG 1.1//EN"
 "http://www.w3.org/Graphics/SVG/1.1/DTD/svg11.dtd">
<!-- Generated by graphviz version 12.2.1 (20241206.2353)
 -->
<!-- Title: Graphical Class Hierarchy Pages: 1 -->
<svg width="321pt" height="90pt"
 viewBox="0.00 0.00 321.25 90.00" xmlns="http://www.w3.org/2000/svg" xmlns:xlink="http://www.w3.org/1999/xlink">
<g id="graph0" class="graph" transform="scale(1 1) rotate(0) translate(4 86)">
<title>Graphical Class Hierarchy</title>
<!-- Node0 -->
<g id="Node000000" class="node">
<title>Node0</title>
<g id="a_Node000000"><a xlink:title=" ">
<polygon fill="#e0e0e0" stroke="#999999" points="96.25,-51 0,-51 0,-31 96.25,-31 96.25,-51"/>
<text text-anchor="middle" x="48.12" y="-37.5" font-family="Helvetica,sans-Serif" font-size="10.00">RuntimeException</text>
</a>
</g>
</g>
<!-- Node1 -->
<g id="Node000001" class="node">
<title>Node1</title>
<g id="a_Node000001"><a xlink:href="classfr_1_1softsf_1_1sudokufx_1_1common_1_1exception_1_1_folder_creation_exception.html" target="_top" xlink:title="Runtime exception thrown when a folder cannot be created.">
<polygon fill="white" stroke="#666666" points="313.25,-82 132.25,-82 132.25,-50 313.25,-50 313.25,-82"/>
<text text-anchor="start" x="140.25" y="-68.5" font-family="Helvetica,sans-Serif" font-size="10.00">fr.softsf.sudokufx.common.exception.</text>
<text text-anchor="middle" x="222.75" y="-56.5" font-family="Helvetica,sans-Serif" font-size="10.00">FolderCreationException</text>
</a>
</g>
</g>
<!-- Node0&#45;&gt;Node1 -->
<g id="edge33_Node000000_Node000001" class="edge">
<title>Node0&#45;&gt;Node1</title>
<g id="a_edge33_Node000000_Node000001"><a xlink:title=" ">
<path fill="none" stroke="#63b8ff" d="M107.52,-49.46C115.38,-50.59 123.58,-51.78 131.82,-52.98"/>
<polygon fill="#63b8ff" stroke="#63b8ff" points="108.19,-46.02 97.79,-48.05 107.19,-52.95 108.19,-46.02"/>
</a>
</g>
</g>
<!-- Node2 -->
<g id="Node000002" class="node">
<title>Node2</title>
<g id="a_Node000002"><a xlink:href="classfr_1_1softsf_1_1sudokufx_1_1common_1_1exception_1_1_logback_configuration_exception.html" target="_top" xlink:title="Runtime exception thrown when Logback configuration fails.">
<polygon fill="white" stroke="#666666" points="313.25,-32 132.25,-32 132.25,0 313.25,0 313.25,-32"/>
<text text-anchor="start" x="140.25" y="-18.5" font-family="Helvetica,sans-Serif" font-size="10.00">fr.softsf.sudokufx.common.exception.</text>
<text text-anchor="middle" x="222.75" y="-6.5" font-family="Helvetica,sans-Serif" font-size="10.00">LogbackConfigurationException</text>
</a>
</g>
</g>
<!-- Node0&#45;&gt;Node2 -->
<g id="edge34_Node000000_Node000002" class="edge">
<title>Node0&#45;&gt;Node2</title>
<g id="a_edge34_Node000000_Node000002"><a xlink:title=" ">
<path fill="none" stroke="#63b8ff" d="M107.52,-32.54C115.38,-31.41 123.58,-30.22 131.82,-29.02"/>
<polygon fill="#63b8ff" stroke="#63b8ff" points="107.19,-29.05 97.79,-33.95 108.19,-35.98 107.19,-29.05"/>
</a>
</g>
</g>
</g>
</svg>
