<?xml version="1.0" encoding="UTF-8" standalone="no"?>
<!DOCTYPE svg PUBLIC "-//W3C//DTD SVG 1.1//EN"
 "http://www.w3.org/Graphics/SVG/1.1/DTD/svg11.dtd">
<!-- Generated by graphviz version 12.2.1 (20241206.2353)
 -->
<!-- Title: Graphical Class Hierarchy Pages: 1 -->
<svg width="400pt" height="140pt"
 viewBox="0.00 0.00 400.00 140.00" xmlns="http://www.w3.org/2000/svg" xmlns:xlink="http://www.w3.org/1999/xlink">
<g id="graph0" class="graph" transform="scale(1 1) rotate(0) translate(4 136)">
<title>Graphical Class Hierarchy</title>
<!-- Node0 -->
<g id="Node000000" class="node">
<title>Node0</title>
<g id="a_Node000000"><a xlink:href="classfr_1_1softsf_1_1sudokufx_1_1viewmodel_1_1state_1_1_abstract_player_state_test.html" target="_top" xlink:title="Abstract base test class that provides:">
<polygon fill="white" stroke="#666666" points="169.75,-82 0,-82 0,-50 169.75,-50 169.75,-82"/>
<text text-anchor="start" x="8" y="-68.5" font-family="Helvetica,sans-Serif" font-size="10.00">fr.softsf.sudokufx.viewmodel.state.</text>
<text text-anchor="middle" x="84.88" y="-56.5" font-family="Helvetica,sans-Serif" font-size="10.00">AbstractPlayerStateTest</text>
</a>
</g>
</g>
<!-- Node1 -->
<g id="Node000001" class="node">
<title>Node1</title>
<g id="a_Node000001"><a xlink:href="classfr_1_1softsf_1_1sudokufx_1_1common_1_1util_1_1sudoku_1_1_grid_view_model_u_test.html" target="_top" xlink:title=" ">
<polygon fill="white" stroke="#666666" points="392,-132 205.75,-132 205.75,-100 392,-100 392,-132"/>
<text text-anchor="start" x="213.75" y="-118.5" font-family="Helvetica,sans-Serif" font-size="10.00">fr.softsf.sudokufx.common.util.sudoku.</text>
<text text-anchor="middle" x="298.88" y="-106.5" font-family="Helvetica,sans-Serif" font-size="10.00">GridViewModelUTest</text>
</a>
</g>
</g>
<!-- Node0&#45;&gt;Node1 -->
<g id="edge12_Node000000_Node000001" class="edge">
<title>Node0&#45;&gt;Node1</title>
<g id="a_edge12_Node000000_Node000001"><a xlink:title=" ">
<path fill="none" stroke="#63b8ff" d="M166.68,-85.06C186.92,-89.83 208.47,-94.91 228.12,-99.55"/>
<polygon fill="#63b8ff" stroke="#63b8ff" points="167.59,-81.68 157.06,-82.79 165.99,-88.49 167.59,-81.68"/>
</a>
</g>
</g>
<!-- Node2 -->
<g id="Node000002" class="node">
<title>Node2</title>
<g id="a_Node000002"><a xlink:href="classfr_1_1softsf_1_1sudokufx_1_1viewmodel_1_1_menu_options_view_model_u_test.html" target="_top" xlink:title=" ">
<polygon fill="white" stroke="#666666" points="372.88,-82 224.88,-82 224.88,-50 372.88,-50 372.88,-82"/>
<text text-anchor="start" x="232.88" y="-68.5" font-family="Helvetica,sans-Serif" font-size="10.00">fr.softsf.sudokufx.viewmodel.</text>
<text text-anchor="middle" x="298.88" y="-56.5" font-family="Helvetica,sans-Serif" font-size="10.00">MenuOptionsViewModelUTest</text>
</a>
</g>
</g>
<!-- Node0&#45;&gt;Node2 -->
<g id="edge13_Node000000_Node000002" class="edge">
<title>Node0&#45;&gt;Node2</title>
<g id="a_edge13_Node000000_Node000002"><a xlink:title=" ">
<path fill="none" stroke="#63b8ff" d="M181.48,-66C195.92,-66 210.63,-66 224.51,-66"/>
<polygon fill="#63b8ff" stroke="#63b8ff" points="181.48,-62.5 171.48,-66 181.48,-69.5 181.48,-62.5"/>
</a>
</g>
</g>
<!-- Node3 -->
<g id="Node000003" class="node">
<title>Node3</title>
<g id="a_Node000003"><a xlink:href="classfr_1_1softsf_1_1sudokufx_1_1viewmodel_1_1state_1_1_player_state_holder_u_test.html" target="_top" xlink:title=" ">
<polygon fill="white" stroke="#666666" points="383.75,-32 214,-32 214,0 383.75,0 383.75,-32"/>
<text text-anchor="start" x="222" y="-18.5" font-family="Helvetica,sans-Serif" font-size="10.00">fr.softsf.sudokufx.viewmodel.state.</text>
<text text-anchor="middle" x="298.88" y="-6.5" font-family="Helvetica,sans-Serif" font-size="10.00">PlayerStateHolderUTest</text>
</a>
</g>
</g>
<!-- Node0&#45;&gt;Node3 -->
<g id="edge14_Node000000_Node000003" class="edge">
<title>Node0&#45;&gt;Node3</title>
<g id="a_edge14_Node000000_Node000003"><a xlink:title=" ">
<path fill="none" stroke="#63b8ff" d="M166.68,-46.94C186.92,-42.17 208.47,-37.09 228.12,-32.45"/>
<polygon fill="#63b8ff" stroke="#63b8ff" points="165.99,-43.51 157.06,-49.21 167.59,-50.32 165.99,-43.51"/>
</a>
</g>
</g>
</g>
</svg>
