<?xml version="1.0" encoding="UTF-8" standalone="no"?>
<!DOCTYPE svg PUBLIC "-//W3C//DTD SVG 1.1//EN"
 "http://www.w3.org/Graphics/SVG/1.1/DTD/svg11.dtd">
<!-- Generated by graphviz version 12.2.1 (20241206.2353)
 -->
<!-- Title: Graphical Class Hierarchy Pages: 1 -->
<svg width="303pt" height="140pt"
 viewBox="0.00 0.00 303.25 140.00" xmlns="http://www.w3.org/2000/svg" xmlns:xlink="http://www.w3.org/1999/xlink">
<g id="graph0" class="graph" transform="scale(1 1) rotate(0) translate(4 136)">
<title>Graphical Class Hierarchy</title>
<!-- Node0 -->
<g id="Node000000" class="node">
<title>Node0</title>
<g id="a_Node000000"><a xlink:href="interfacefr_1_1softsf_1_1sudokufx_1_1interfaces_1_1_i_main_view.html" target="_top" xlink:title="Interface defining method to open the main stage.">
<polygon fill="white" stroke="#666666" points="141.25,-82 0,-82 0,-50 141.25,-50 141.25,-82"/>
<text text-anchor="start" x="8" y="-68.5" font-family="Helvetica,sans-Serif" font-size="10.00">fr.softsf.sudokufx.interfaces.</text>
<text text-anchor="middle" x="70.62" y="-56.5" font-family="Helvetica,sans-Serif" font-size="10.00">IMainView</text>
</a>
</g>
</g>
<!-- Node1 -->
<g id="Node000001" class="node">
<title>Node1</title>
<g id="a_Node000001"><a xlink:href="classfr_1_1softsf_1_1sudokufx_1_1view_1_1_crash_screen_view.html" target="_top" xlink:title="View class for the crash screen without business logic.">
<polygon fill="white" stroke="#666666" points="295.25,-132 177.25,-132 177.25,-100 295.25,-100 295.25,-132"/>
<text text-anchor="start" x="185.25" y="-118.5" font-family="Helvetica,sans-Serif" font-size="10.00">fr.softsf.sudokufx.view.</text>
<text text-anchor="middle" x="236.25" y="-106.5" font-family="Helvetica,sans-Serif" font-size="10.00">CrashScreenView</text>
</a>
</g>
</g>
<!-- Node0&#45;&gt;Node1 -->
<g id="edge7_Node000000_Node000001" class="edge">
<title>Node0&#45;&gt;Node1</title>
<g id="a_edge7_Node000000_Node000001"><a xlink:title=" ">
<path fill="none" stroke="#63b8ff" d="M135.95,-85.66C150.95,-90.24 166.77,-95.08 181.27,-99.51"/>
<polygon fill="#63b8ff" stroke="#63b8ff" points="137.24,-82.39 126.65,-82.81 135.19,-89.08 137.24,-82.39"/>
</a>
</g>
</g>
<!-- Node2 -->
<g id="Node000002" class="node">
<title>Node2</title>
<g id="a_Node000002"><a xlink:href="classfr_1_1softsf_1_1sudokufx_1_1view_1_1_default_view.html" target="_top" xlink:title="Default view class of the Sudoku application.">
<polygon fill="white" stroke="#666666" points="295.25,-82 177.25,-82 177.25,-50 295.25,-50 295.25,-82"/>
<text text-anchor="start" x="185.25" y="-68.5" font-family="Helvetica,sans-Serif" font-size="10.00">fr.softsf.sudokufx.view.</text>
<text text-anchor="middle" x="236.25" y="-56.5" font-family="Helvetica,sans-Serif" font-size="10.00">DefaultView</text>
</a>
</g>
</g>
<!-- Node0&#45;&gt;Node2 -->
<g id="edge8_Node000000_Node000002" class="edge">
<title>Node0&#45;&gt;Node2</title>
<g id="a_edge8_Node000000_Node000002"><a xlink:title=" ">
<path fill="none" stroke="#63b8ff" d="M152.91,-66C161.02,-66 169.13,-66 176.94,-66"/>
<polygon fill="#63b8ff" stroke="#63b8ff" points="153,-62.5 143,-66 153,-69.5 153,-62.5"/>
</a>
</g>
</g>
<!-- Node3 -->
<g id="Node000003" class="node">
<title>Node3</title>
<g id="a_Node000003"><a xlink:href="classfr_1_1softsf_1_1sudokufx_1_1view_1_1_full_menu_view.html" target="_top" xlink:title="View class for the full menu screen of the Sudoku application.">
<polygon fill="white" stroke="#666666" points="295.25,-32 177.25,-32 177.25,0 295.25,0 295.25,-32"/>
<text text-anchor="start" x="185.25" y="-18.5" font-family="Helvetica,sans-Serif" font-size="10.00">fr.softsf.sudokufx.view.</text>
<text text-anchor="middle" x="236.25" y="-6.5" font-family="Helvetica,sans-Serif" font-size="10.00">FullMenuView</text>
</a>
</g>
</g>
<!-- Node0&#45;&gt;Node3 -->
<g id="edge9_Node000000_Node000003" class="edge">
<title>Node0&#45;&gt;Node3</title>
<g id="a_edge9_Node000000_Node000003"><a xlink:title=" ">
<path fill="none" stroke="#63b8ff" d="M135.95,-46.34C150.95,-41.76 166.77,-36.92 181.27,-32.49"/>
<polygon fill="#63b8ff" stroke="#63b8ff" points="135.19,-42.92 126.65,-49.19 137.24,-49.61 135.19,-42.92"/>
</a>
</g>
</g>
</g>
</svg>
