<?xml version="1.0" encoding="UTF-8" standalone="no"?>
<!DOCTYPE svg PUBLIC "-//W3C//DTD SVG 1.1//EN"
 "http://www.w3.org/Graphics/SVG/1.1/DTD/svg11.dtd">
<!-- Generated by graphviz version 12.2.1 (20241206.2353)
 -->
<!-- Title: fr.softsf.sudokufx.repository.PlayerLanguageRepository Pages: 1 -->
<svg width="161pt" height="184pt"
 viewBox="0.00 0.00 160.75 184.00" xmlns="http://www.w3.org/2000/svg" xmlns:xlink="http://www.w3.org/1999/xlink">

<svg id="main" version="1.1" xmlns="http://www.w3.org/2000/svg" xmlns:xlink="http://www.w3.org/1999/xlink" xml:space="preserve">

<style type="text/css"><![CDATA[
.node, .edge {opacity: 0.7;}
.node.selected, .edge.selected {opacity: 1;}
.edge:hover path { stroke: red; }
.edge:hover polygon { stroke: red; fill: red; }
]]></style>
<script type="application/ecmascript" xlink:href="svg.min.js"/>
<svg id="graph" class="graph">
<g id="graph0" class="graph" transform="scale(1 1) rotate(0) translate(4 180)">
<title>fr.softsf.sudokufx.repository.PlayerLanguageRepository</title>
<!-- Node1 -->
<g id="Node000001" class="node">
<title>Node1</title>
<g id="a_Node000001"><a xlink:title="Repository interface for PlayerLanguage entities.">
<polygon fill="#999999" stroke="none" points="142.75,-76 10,-76 10,0 142.75,0 142.75,-76"/>
<text text-anchor="start" x="14.12" y="-62.5" font-family="Helvetica,sans-Serif" font-size="10.00">fr.softsf.sudokufx.repository.</text>
<text text-anchor="start" x="17.88" y="-50.5" font-family="Helvetica,sans-Serif" font-size="10.00">PlayerLanguageRepository</text>
<text text-anchor="start" x="74.88" y="-34.5" font-family="Helvetica,sans-Serif" font-size="10.00"> </text>
<text text-anchor="start" x="14" y="-18.5" font-family="Helvetica,sans-Serif" font-size="10.00">+</text>
<text text-anchor="start" x="24" y="-18.5" font-family="Helvetica,sans-Serif" font-size="10.00">Optional&lt; PlayerLanguage</text>
<text text-anchor="start" x="24" y="-6.5" font-family="Helvetica,sans-Serif" font-size="10.00"> &gt; findByIso(String iso)</text>
<polygon fill="#666666" stroke="#666666" points="10,-46 10,-46 142.75,-46 142.75,-46 10,-46"/>
<polygon fill="#666666" stroke="#666666" points="10,-30 10,-30 142.75,-30 142.75,-30 10,-30"/>
<polygon fill="none" stroke="#666666" points="10,0 10,-76 142.75,-76 142.75,0 10,0"/>
</a>
</g>
</g>
<!-- Node2 -->
<g id="Node000002" class="node">
<title>Node2</title>
<g id="a_Node000002"><a xlink:title=" ">
<polygon fill="white" stroke="none" points="152.75,-176 0,-176 0,-112 152.75,-112 152.75,-176"/>
<text text-anchor="start" x="4" y="-162.5" font-family="Helvetica,sans-Serif" font-size="10.00">JpaRepository&lt; PlayerLanguage,</text>
<text text-anchor="start" x="59.88" y="-150.5" font-family="Helvetica,sans-Serif" font-size="10.00"> Long &gt;</text>
<text text-anchor="start" x="74.88" y="-134.5" font-family="Helvetica,sans-Serif" font-size="10.00"> </text>
<text text-anchor="start" x="74.88" y="-118.5" font-family="Helvetica,sans-Serif" font-size="10.00"> </text>
<polygon fill="#666666" stroke="#666666" points="0,-146 0,-146 152.75,-146 152.75,-146 0,-146"/>
<polygon fill="#666666" stroke="#666666" points="0,-130 0,-130 152.75,-130 152.75,-130 0,-130"/>
<polygon fill="none" stroke="#666666" points="0,-112 0,-176 152.75,-176 152.75,-112 0,-112"/>
</a>
</g>
</g>
<!-- Node2&#45;&gt;Node1 -->
<g id="edge1_Node000001_Node000002" class="edge">
<title>Node2&#45;&gt;Node1</title>
<g id="a_edge1_Node000001_Node000002"><a xlink:title=" ">
<path fill="none" stroke="#63b8ff" d="M76.38,-100.74C76.38,-92.49 76.38,-83.91 76.38,-75.86"/>
<polygon fill="none" stroke="#63b8ff" points="72.88,-100.56 76.38,-110.56 79.88,-100.56 72.88,-100.56"/>
</a>
</g>
</g>
</g>
</svg>
</svg>

<style type='text/css'>
<![CDATA[
[data-mouse-over-selected='false'] { opacity: 0.7; }
[data-mouse-over-selected='true']  { opacity: 1.0; }
]]>
</style>
<script type="application/ecmascript"><![CDATA[
document.addEventListener('DOMContentLoaded', (event) => {
  highlightEdges();
  highlightAdjacentNodes();
});
]]></script>
</svg>
