<?xml version="1.0" encoding="UTF-8" standalone="no"?>
<!DOCTYPE svg PUBLIC "-//W3C//DTD SVG 1.1//EN"
 "http://www.w3.org/Graphics/SVG/1.1/DTD/svg11.dtd">
<!-- Generated by graphviz version 12.2.1 (20241206.2353)
 -->
<!-- Title: fr.softsf.sudokufx.interfaces.mapper.IBackgroundMapper Pages: 1 -->
<svg width="194pt" height="112pt"
 viewBox="0.00 0.00 194.00 112.00" xmlns="http://www.w3.org/2000/svg" xmlns:xlink="http://www.w3.org/1999/xlink">
<g id="graph0" class="graph" transform="scale(1 1) rotate(0) translate(4 108)">
<title>fr.softsf.sudokufx.interfaces.mapper.IBackgroundMapper</title>
<!-- Node1 -->
<g id="Node000001" class="node">
<title>Node1</title>
<g id="a_Node000001"><a xlink:title="This interface defines methods for mapping objects of type Background to objects of type BackgroundDt...">
<polygon fill="#999999" stroke="none" points="186,-104 0,-104 0,0 186,0 186,-104"/>
<text text-anchor="start" x="12.75" y="-90.5" font-family="Helvetica,sans-Serif" font-size="10.00">fr.softsf.sudokufx.interfaces.mapper.</text>
<text text-anchor="start" x="49.5" y="-78.5" font-family="Helvetica,sans-Serif" font-size="10.00">IBackgroundMapper</text>
<text text-anchor="start" x="91.5" y="-62.5" font-family="Helvetica,sans-Serif" font-size="10.00"> </text>
<text text-anchor="start" x="4" y="-46.5" font-family="Helvetica,sans-Serif" font-size="10.00">+</text>
<text text-anchor="start" x="14" y="-46.5" font-family="Helvetica,sans-Serif" font-size="10.00">Background mapBackground</text>
<text text-anchor="start" x="14" y="-34.5" font-family="Helvetica,sans-Serif" font-size="10.00">DtoToBackground(BackgroundDto dto)</text>
<text text-anchor="start" x="4" y="-18.5" font-family="Helvetica,sans-Serif" font-size="10.00">+</text>
<text text-anchor="start" x="14" y="-18.5" font-family="Helvetica,sans-Serif" font-size="10.00">BackgroundDto mapBackground</text>
<text text-anchor="start" x="14" y="-6.5" font-family="Helvetica,sans-Serif" font-size="10.00">ToDto(Background background)</text>
<polygon fill="#666666" stroke="#666666" points="0,-74 0,-74 186,-74 186,-74 0,-74"/>
<polygon fill="#666666" stroke="#666666" points="0,-58 0,-58 186,-58 186,-58 0,-58"/>
<polygon fill="none" stroke="#666666" points="0,0 0,-104 186,-104 186,0 0,0"/>
</a>
</g>
</g>
</g>
</svg>
