<?xml version="1.0" encoding="UTF-8" standalone="no"?>
<!DOCTYPE svg PUBLIC "-//W3C//DTD SVG 1.1//EN"
 "http://www.w3.org/Graphics/SVG/1.1/DTD/svg11.dtd">
<!-- Generated by graphviz version 12.2.1 (20241206.2353)
 -->
<!-- Title: fr.softsf.sudokufx.repository.PlayerRepository Pages: 1 -->
<svg width="145pt" height="184pt"
 viewBox="0.00 0.00 144.50 184.00" xmlns="http://www.w3.org/2000/svg" xmlns:xlink="http://www.w3.org/1999/xlink">
<g id="graph0" class="graph" transform="scale(1 1) rotate(0) translate(4 180)">
<title>fr.softsf.sudokufx.repository.PlayerRepository</title>
<!-- Node1 -->
<g id="Node000001" class="node">
<title>Node1</title>
<g id="a_Node000001"><a xlink:title="Repository interface for Player entities.">
<polygon fill="#999999" stroke="none" points="136.5,-76 0,-76 0,0 136.5,0 136.5,-76"/>
<text text-anchor="start" x="6" y="-62.5" font-family="Helvetica,sans-Serif" font-size="10.00">fr.softsf.sudokufx.repository.</text>
<text text-anchor="start" x="30.75" y="-50.5" font-family="Helvetica,sans-Serif" font-size="10.00">PlayerRepository</text>
<text text-anchor="start" x="66.75" y="-34.5" font-family="Helvetica,sans-Serif" font-size="10.00"> </text>
<text text-anchor="start" x="4" y="-18.5" font-family="Helvetica,sans-Serif" font-size="10.00">+</text>
<text text-anchor="start" x="14" y="-18.5" font-family="Helvetica,sans-Serif" font-size="10.00">List&lt; Player &gt; findSelected</text>
<text text-anchor="start" x="14" y="-6.5" font-family="Helvetica,sans-Serif" font-size="10.00">PlayerWithSelectedGame()</text>
<polygon fill="#666666" stroke="#666666" points="0,-46 0,-46 136.5,-46 136.5,-46 0,-46"/>
<polygon fill="#666666" stroke="#666666" points="0,-30 0,-30 136.5,-30 136.5,-30 0,-30"/>
<polygon fill="none" stroke="#666666" points="0,0 0,-76 136.5,-76 136.5,0 0,0"/>
</a>
</g>
</g>
<!-- Node2 -->
<g id="Node000002" class="node">
<title>Node2</title>
<g id="a_Node000002"><a xlink:title=" ">
<polygon fill="white" stroke="none" points="123.62,-176 12.88,-176 12.88,-112 123.62,-112 123.62,-176"/>
<text text-anchor="start" x="16.88" y="-162.5" font-family="Helvetica,sans-Serif" font-size="10.00">JpaRepository&lt; Player,</text>
<text text-anchor="start" x="51.75" y="-150.5" font-family="Helvetica,sans-Serif" font-size="10.00"> Long &gt;</text>
<text text-anchor="start" x="66.75" y="-134.5" font-family="Helvetica,sans-Serif" font-size="10.00"> </text>
<text text-anchor="start" x="66.75" y="-118.5" font-family="Helvetica,sans-Serif" font-size="10.00"> </text>
<polygon fill="#666666" stroke="#666666" points="12.88,-146 12.88,-146 123.62,-146 123.62,-146 12.88,-146"/>
<polygon fill="#666666" stroke="#666666" points="12.88,-130 12.88,-130 123.62,-130 123.62,-130 12.88,-130"/>
<polygon fill="none" stroke="#666666" points="12.88,-112 12.88,-176 123.62,-176 123.62,-112 12.88,-112"/>
</a>
</g>
</g>
<!-- Node2&#45;&gt;Node1 -->
<g id="edge1_Node000001_Node000002" class="edge">
<title>Node2&#45;&gt;Node1</title>
<g id="a_edge1_Node000001_Node000002"><a xlink:title=" ">
<path fill="none" stroke="#63b8ff" d="M68.25,-100.74C68.25,-92.49 68.25,-83.91 68.25,-75.86"/>
<polygon fill="none" stroke="#63b8ff" points="64.75,-100.56 68.25,-110.56 71.75,-100.56 64.75,-100.56"/>
</a>
</g>
</g>
</g>
</svg>
