<?xml version="1.0" encoding="UTF-8" standalone="no"?>
<!DOCTYPE svg PUBLIC "-//W3C//DTD SVG 1.1//EN"
 "http://www.w3.org/Graphics/SVG/1.1/DTD/svg11.dtd">
<!-- Generated by graphviz version 12.2.1 (20241206.2353)
 -->
<!-- Title: fr.softsf.sudokufx.dto.PlayerDto Pages: 1 -->
<svg width="543pt" height="182pt"
 viewBox="0.00 0.00 542.75 182.00" xmlns="http://www.w3.org/2000/svg" xmlns:xlink="http://www.w3.org/1999/xlink">
<g id="graph0" class="graph" transform="scale(1 1) rotate(0) translate(4 178)">
<title>fr.softsf.sudokufx.dto.PlayerDto</title>
<!-- Node1 -->
<g id="Node000001" class="node">
<title>Node1</title>
<g id="a_Node000001"><a xlink:title="Data Transfer Object representing a player.">
<polygon fill="#999999" stroke="#666666" points="155.5,-89 0,-89 0,-69 155.5,-69 155.5,-89"/>
<text text-anchor="middle" x="77.75" y="-75.5" font-family="Helvetica,sans-Serif" font-size="10.00">fr.softsf.sudokufx.dto.PlayerDto</text>
</a>
</g>
</g>
<!-- Node2 -->
<g id="Node000002" class="node">
<title>Node2</title>
<g id="a_Node000002"><a xlink:href="namespacefr_1_1softsf_1_1sudokufx_1_1dto.html#a0b4cf476a6a3d3f1f289617aa14a93cb" target="_top" xlink:title="Data Transfer Object representing a game entity.">
<polygon fill="white" stroke="#666666" points="349.25,-146 195.25,-146 195.25,-126 349.25,-126 349.25,-146"/>
<text text-anchor="middle" x="272.25" y="-132.5" font-family="Helvetica,sans-Serif" font-size="10.00">fr.softsf.sudokufx.dto.GameDto</text>
</a>
</g>
</g>
<!-- Node1&#45;&gt;Node2 -->
<g id="edge1_Node000001_Node000002" class="edge">
<title>Node1&#45;&gt;Node2</title>
<g id="a_edge1_Node000001_Node000002"><a xlink:title=" ">
<path fill="none" stroke="#63b8ff" d="M107.26,-89.41C129.92,-97.49 162.51,-108.68 191.5,-117 198.5,-119.01 205.88,-120.97 213.21,-122.83"/>
<polygon fill="#63b8ff" stroke="#63b8ff" points="212.24,-126.19 222.79,-125.19 213.92,-119.4 212.24,-126.19"/>
</a>
</g>
</g>
<!-- Node5 -->
<g id="Node000005" class="node">
<title>Node5</title>
<g id="a_Node000005"><a xlink:href="namespacefr_1_1softsf_1_1sudokufx_1_1dto.html#a5ce2a48c45e6d7c67df2cfb0bced67e9" target="_top" xlink:title="Data Transfer Object representing a menu entity.">
<polygon fill="white" stroke="#666666" points="348.12,-108 196.38,-108 196.38,-88 348.12,-88 348.12,-108"/>
<text text-anchor="middle" x="272.25" y="-94.5" font-family="Helvetica,sans-Serif" font-size="10.00">fr.softsf.sudokufx.dto.MenuDto</text>
</a>
</g>
</g>
<!-- Node1&#45;&gt;Node5 -->
<g id="edge4_Node000001_Node000005" class="edge">
<title>Node1&#45;&gt;Node5</title>
<g id="a_edge4_Node000001_Node000005"><a xlink:title=" ">
<path fill="none" stroke="#63b8ff" d="M155.94,-86.62C165.41,-87.55 175.14,-88.51 184.74,-89.46"/>
<polygon fill="#63b8ff" stroke="#63b8ff" points="184.12,-92.92 194.42,-90.42 184.81,-85.95 184.12,-92.92"/>
</a>
</g>
</g>
<!-- Node6 -->
<g id="Node000006" class="node">
<title>Node6</title>
<g id="a_Node000006"><a xlink:href="namespacefr_1_1softsf_1_1sudokufx_1_1dto.html#aaac9832945da137d3bd25cbca0953fdf" target="_top" xlink:title="Data Transfer Object representing an&#39; options entity.">
<polygon fill="white" stroke="#666666" points="353,-70 191.5,-70 191.5,-50 353,-50 353,-70"/>
<text text-anchor="middle" x="272.25" y="-56.5" font-family="Helvetica,sans-Serif" font-size="10.00">fr.softsf.sudokufx.dto.OptionsDto</text>
</a>
</g>
</g>
<!-- Node1&#45;&gt;Node6 -->
<g id="edge5_Node000001_Node000006" class="edge">
<title>Node1&#45;&gt;Node6</title>
<g id="a_edge5_Node000001_Node000006"><a xlink:title=" ">
<path fill="none" stroke="#63b8ff" d="M155.94,-71.38C163.83,-70.6 171.9,-69.81 179.92,-69.01"/>
<polygon fill="#63b8ff" stroke="#63b8ff" points="180.1,-72.51 189.71,-68.05 179.41,-65.55 180.1,-72.51"/>
</a>
</g>
</g>
<!-- Node7 -->
<g id="Node000007" class="node">
<title>Node7</title>
<g id="a_Node000007"><a xlink:href="namespacefr_1_1softsf_1_1sudokufx_1_1dto.html#aef56b61038752e56cf2b168708082565" target="_top" xlink:title="Data Transfer Object representing a player&#39;s language.">
<polygon fill="white" stroke="#666666" points="342.12,-32 202.38,-32 202.38,0 342.12,0 342.12,-32"/>
<text text-anchor="start" x="210.38" y="-18.5" font-family="Helvetica,sans-Serif" font-size="10.00">fr.softsf.sudokufx.dto.Player</text>
<text text-anchor="middle" x="272.25" y="-6.5" font-family="Helvetica,sans-Serif" font-size="10.00">LanguageDto</text>
</a>
</g>
</g>
<!-- Node1&#45;&gt;Node7 -->
<g id="edge6_Node000001_Node000007" class="edge">
<title>Node1&#45;&gt;Node7</title>
<g id="a_edge6_Node000001_Node000007"><a xlink:title=" ">
<path fill="none" stroke="#63b8ff" d="M109.32,-68.5C131.97,-60.77 163.61,-50.07 191.5,-41 196.8,-39.28 202.3,-37.51 207.83,-35.75"/>
<polygon fill="#63b8ff" stroke="#63b8ff" points="208.52,-39.2 216.99,-32.84 206.4,-32.53 208.52,-39.2"/>
</a>
</g>
</g>
<!-- Node3 -->
<g id="Node000003" class="node">
<title>Node3</title>
<g id="a_Node000003"><a xlink:href="namespacefr_1_1softsf_1_1sudokufx_1_1dto.html#a0218c64c4488c809ab03588009d721aa" target="_top" xlink:title="Data Transfer Object representing a game level entity.">
<polygon fill="white" stroke="#666666" points="531,-174 392.75,-174 392.75,-142 531,-142 531,-174"/>
<text text-anchor="start" x="400.75" y="-160.5" font-family="Helvetica,sans-Serif" font-size="10.00">fr.softsf.sudokufx.dto.Game</text>
<text text-anchor="middle" x="461.88" y="-148.5" font-family="Helvetica,sans-Serif" font-size="10.00">LevelDto</text>
</a>
</g>
</g>
<!-- Node2&#45;&gt;Node3 -->
<g id="edge2_Node000002_Node000003" class="edge">
<title>Node2&#45;&gt;Node3</title>
<g id="a_edge2_Node000002_Node000003"><a xlink:title=" ">
<path fill="none" stroke="#63b8ff" d="M349.56,-144.95C360,-146.17 370.73,-147.43 381.21,-148.66"/>
<polygon fill="#63b8ff" stroke="#63b8ff" points="380.63,-152.11 390.97,-149.8 381.45,-145.16 380.63,-152.11"/>
</a>
</g>
</g>
<!-- Node4 -->
<g id="Node000004" class="node">
<title>Node4</title>
<g id="a_Node000004"><a xlink:href="namespacefr_1_1softsf_1_1sudokufx_1_1dto.html#a1d1f24319f3fea4ea795946c4be7803a" target="_top" xlink:title="Data Transfer Object representing a grid entity.">
<polygon fill="white" stroke="#666666" points="534.75,-124 389,-124 389,-104 534.75,-104 534.75,-124"/>
<text text-anchor="middle" x="461.88" y="-110.5" font-family="Helvetica,sans-Serif" font-size="10.00">fr.softsf.sudokufx.dto.GridDto</text>
</a>
</g>
</g>
<!-- Node2&#45;&gt;Node4 -->
<g id="edge3_Node000002_Node000004" class="edge">
<title>Node2&#45;&gt;Node4</title>
<g id="a_edge3_Node000002_Node000004"><a xlink:title=" ">
<path fill="none" stroke="#63b8ff" d="M349.56,-127.05C358.72,-125.98 368.12,-124.88 377.37,-123.79"/>
<polygon fill="#63b8ff" stroke="#63b8ff" points="377.54,-127.3 387.07,-122.65 376.73,-120.34 377.54,-127.3"/>
</a>
</g>
</g>
</g>
</svg>
