<?xml version="1.0" encoding="UTF-8" standalone="no"?>
<!DOCTYPE svg PUBLIC "-//W3C//DTD SVG 1.1//EN"
 "http://www.w3.org/Graphics/SVG/1.1/DTD/svg11.dtd">
<!-- Generated by graphviz version 12.2.1 (20241206.2353)
 -->
<!-- Title: fr.softsf.sudokufx.dto.PlayerDto Pages: 1 -->
<svg width="561pt" height="154pt"
 viewBox="0.00 0.00 560.75 154.00" xmlns="http://www.w3.org/2000/svg" xmlns:xlink="http://www.w3.org/1999/xlink">
<g id="graph0" class="graph" transform="scale(1 1) rotate(0) translate(4 150)">
<title>fr.softsf.sudokufx.dto.PlayerDto</title>
<!-- Node1 -->
<g id="Node000001" class="node">
<title>Node1</title>
<g id="a_Node000001"><a xlink:title="Data Transfer Object representing a player.">
<polygon fill="#999999" stroke="#666666" points="155.5,-89 0,-89 0,-69 155.5,-69 155.5,-89"/>
<text text-anchor="middle" x="77.75" y="-75.5" font-family="Helvetica,sans-Serif" font-size="10.00">fr.softsf.sudokufx.dto.PlayerDto</text>
</a>
</g>
</g>
<!-- Node2 -->
<g id="Node000002" class="node">
<title>Node2</title>
<g id="a_Node000002"><a xlink:href="namespacefr_1_1softsf_1_1sudokufx_1_1dto.html#a95a3f8cb6e5e286a81f1b43c0a5ca5db" target="_top" xlink:title="Data Transfer Object representing a options entity.">
<polygon fill="white" stroke="#666666" points="371,-146 191.5,-146 191.5,-126 371,-126 371,-146"/>
<text text-anchor="middle" x="281.25" y="-132.5" font-family="Helvetica,sans-Serif" font-size="10.00">fr.softsf.sudokufx.dto.OptionsDto</text>
</a>
</g>
</g>
<!-- Node1&#45;&gt;Node2 -->
<g id="edge1_Node000001_Node000002" class="edge">
<title>Node1&#45;&gt;Node2</title>
<g id="a_edge1_Node000001_Node000002"><a xlink:title=" ">
<path fill="none" stroke="#63b8ff" d="M106.74,-89.43C129.39,-97.62 162.22,-108.96 191.5,-117 199.23,-119.12 207.39,-121.15 215.51,-123.04"/>
<polygon fill="#63b8ff" stroke="#63b8ff" points="214.51,-126.4 225.03,-125.19 216.05,-119.57 214.51,-126.4"/>
</a>
</g>
</g>
<!-- Node3 -->
<g id="Node000003" class="node">
<title>Node3</title>
<g id="a_Node000003"><a xlink:href="namespacefr_1_1softsf_1_1sudokufx_1_1dto.html#a0b4cf476a6a3d3f1f289617aa14a93cb" target="_top" xlink:title="Data Transfer Object representing a game entity.">
<polygon fill="white" stroke="#666666" points="358.25,-108 204.25,-108 204.25,-88 358.25,-88 358.25,-108"/>
<text text-anchor="middle" x="281.25" y="-94.5" font-family="Helvetica,sans-Serif" font-size="10.00">fr.softsf.sudokufx.dto.GameDto</text>
</a>
</g>
</g>
<!-- Node1&#45;&gt;Node3 -->
<g id="edge2_Node000001_Node000003" class="edge">
<title>Node1&#45;&gt;Node3</title>
<g id="a_edge2_Node000001_Node000003"><a xlink:title=" ">
<path fill="none" stroke="#63b8ff" d="M155.79,-86.26C167.87,-87.4 180.43,-88.59 192.72,-89.75"/>
<polygon fill="#63b8ff" stroke="#63b8ff" points="192.13,-93.21 202.41,-90.66 192.78,-86.24 192.13,-93.21"/>
</a>
</g>
</g>
<!-- Node6 -->
<g id="Node000006" class="node">
<title>Node6</title>
<g id="a_Node000006"><a xlink:href="namespacefr_1_1softsf_1_1sudokufx_1_1dto.html#a5ce2a48c45e6d7c67df2cfb0bced67e9" target="_top" xlink:title="Data Transfer Object representing a menu entity.">
<polygon fill="white" stroke="#666666" points="357.12,-70 205.38,-70 205.38,-50 357.12,-50 357.12,-70"/>
<text text-anchor="middle" x="281.25" y="-56.5" font-family="Helvetica,sans-Serif" font-size="10.00">fr.softsf.sudokufx.dto.MenuDto</text>
</a>
</g>
</g>
<!-- Node1&#45;&gt;Node6 -->
<g id="edge5_Node000001_Node000006" class="edge">
<title>Node1&#45;&gt;Node6</title>
<g id="a_edge5_Node000001_Node000006"><a xlink:title=" ">
<path fill="none" stroke="#63b8ff" d="M155.79,-71.74C168.13,-70.57 180.96,-69.36 193.5,-68.18"/>
<polygon fill="#63b8ff" stroke="#63b8ff" points="193.78,-71.67 203.41,-67.25 193.12,-64.7 193.78,-71.67"/>
</a>
</g>
</g>
<!-- Node7 -->
<g id="Node000007" class="node">
<title>Node7</title>
<g id="a_Node000007"><a xlink:href="namespacefr_1_1softsf_1_1sudokufx_1_1dto.html#aef56b61038752e56cf2b168708082565" target="_top" xlink:title="Data Transfer Object representing a player&#39;s language.">
<polygon fill="white" stroke="#666666" points="351.12,-32 211.38,-32 211.38,0 351.12,0 351.12,-32"/>
<text text-anchor="start" x="219.38" y="-18.5" font-family="Helvetica,sans-Serif" font-size="10.00">fr.softsf.sudokufx.dto.Player</text>
<text text-anchor="middle" x="281.25" y="-6.5" font-family="Helvetica,sans-Serif" font-size="10.00">LanguageDto</text>
</a>
</g>
</g>
<!-- Node1&#45;&gt;Node7 -->
<g id="edge6_Node000001_Node000007" class="edge">
<title>Node1&#45;&gt;Node7</title>
<g id="a_edge6_Node000001_Node000007"><a xlink:title=" ">
<path fill="none" stroke="#63b8ff" d="M108.29,-68.59C130.96,-60.71 163.08,-49.79 191.5,-41 197.33,-39.2 203.39,-37.38 209.49,-35.58"/>
<polygon fill="#63b8ff" stroke="#63b8ff" points="210.37,-38.97 219,-32.82 208.42,-32.25 210.37,-38.97"/>
</a>
</g>
</g>
<!-- Node4 -->
<g id="Node000004" class="node">
<title>Node4</title>
<g id="a_Node000004"><a xlink:href="namespacefr_1_1softsf_1_1sudokufx_1_1dto.html#a0218c64c4488c809ab03588009d721aa" target="_top" xlink:title="Data Transfer Object representing a game level entity.">
<polygon fill="white" stroke="#666666" points="549,-136 410.75,-136 410.75,-104 549,-104 549,-136"/>
<text text-anchor="start" x="418.75" y="-122.5" font-family="Helvetica,sans-Serif" font-size="10.00">fr.softsf.sudokufx.dto.Game</text>
<text text-anchor="middle" x="479.88" y="-110.5" font-family="Helvetica,sans-Serif" font-size="10.00">LevelDto</text>
</a>
</g>
</g>
<!-- Node3&#45;&gt;Node4 -->
<g id="edge3_Node000003_Node000004" class="edge">
<title>Node3&#45;&gt;Node4</title>
<g id="a_edge3_Node000003_Node000004"><a xlink:title=" ">
<path fill="none" stroke="#63b8ff" d="M358.55,-106.54C371.88,-108.03 385.77,-109.58 399.18,-111.08"/>
<polygon fill="#63b8ff" stroke="#63b8ff" points="398.48,-114.53 408.81,-112.16 399.26,-107.57 398.48,-114.53"/>
</a>
</g>
</g>
<!-- Node5 -->
<g id="Node000005" class="node">
<title>Node5</title>
<g id="a_Node000005"><a xlink:href="namespacefr_1_1softsf_1_1sudokufx_1_1dto.html#a1d1f24319f3fea4ea795946c4be7803a" target="_top" xlink:title="Data Transfer Object representing a grid entity.">
<polygon fill="white" stroke="#666666" points="552.75,-86 407,-86 407,-66 552.75,-66 552.75,-86"/>
<text text-anchor="middle" x="479.88" y="-72.5" font-family="Helvetica,sans-Serif" font-size="10.00">fr.softsf.sudokufx.dto.GridDto</text>
</a>
</g>
</g>
<!-- Node3&#45;&gt;Node5 -->
<g id="edge4_Node000003_Node000005" class="edge">
<title>Node3&#45;&gt;Node5</title>
<g id="a_edge4_Node000003_Node000005"><a xlink:title=" ">
<path fill="none" stroke="#63b8ff" d="M358.55,-89.46C370.7,-88.1 383.32,-86.69 395.62,-85.31"/>
<polygon fill="#63b8ff" stroke="#63b8ff" points="395.75,-88.82 405.3,-84.23 394.97,-81.87 395.75,-88.82"/>
</a>
</g>
</g>
</g>
</svg>
